<svg width="75" height="75" viewBox="0 0 75 75" fill="none" xmlns="http://www.w3.org/2000/svg">
<path d="M74.3387 53.1568C75.275 54.475 75.0877 56.1698 73.9642 57.1114C72.6535 58.053 70.781 57.8647 69.8447 56.7348L63.2909 48.2605L56.9244 56.5465C55.9881 57.8647 54.1156 57.8647 52.8049 56.9231C51.4941 55.9815 51.3068 54.2867 52.2431 52.9685L59.7331 43.176L52.2431 33.3835C51.3068 32.0653 51.6813 30.1822 52.8049 29.2406C54.1156 28.299 55.9881 28.6756 56.9244 29.8055L63.2909 38.2798L69.8447 30.1822C70.781 28.8639 72.4662 28.6756 73.9642 29.6172C75.275 30.5588 75.275 32.442 74.3387 33.7602L67.0359 43.3643L74.3387 53.1568V53.1568ZM40.259 52.0269C35.3905 52.0269 31.4582 48.2605 31.4582 43.3643C31.4582 38.6564 35.3905 34.7018 40.259 34.7018C45.1276 34.7018 49.0598 38.6564 49.0598 43.3643C48.8726 48.2605 44.9403 52.0269 40.259 52.0269ZM14.4183 52.0269C9.54981 52.0269 5.61754 48.2605 5.61754 43.3643C5.61754 38.6564 9.54981 34.7018 14.4183 34.7018C19.2869 34.7018 23.2192 38.6564 23.2192 43.3643C23.2192 48.2605 19.2869 52.0269 14.4183 52.0269V52.0269ZM40.259 29.0523C34.8287 29.0523 29.9602 32.0653 27.5259 36.5849C25.0917 32.0653 20.2231 29.0523 14.6056 29.0523C11.2351 29.0523 8.23905 30.1822 5.80479 31.877V19.8247C5.80479 18.3182 4.49403 17 2.99602 17C1.31076 17 0 18.3182 0 19.8247V43.5526C0.187251 51.4619 6.55379 57.6764 14.4183 57.6764C20.0359 57.6764 24.9044 54.475 27.3387 49.9554C29.7729 54.475 34.6415 57.6764 40.0718 57.6764C48.1236 57.6764 54.6774 51.2736 54.6774 43.176C54.8646 35.455 48.3108 29.0523 40.259 29.0523V29.0523Z" fill="#0071F7"/>
</svg>
