<!-- Generated by IcoMoon.io -->
<svg version="1.1" xmlns="http://www.w3.org/2000/svg" width="100%" height="100%" viewBox="0 0 53 32">
<path fill="#252f3e" d="M15.191 11.675c0 0.651 0.070 1.178 0.193 1.565 0.141 0.387 0.316 0.809 0.563 1.266 0.088 0.141 0.123 0.281 0.123 0.404 0 0.176-0.105 0.352-0.334 0.527l-1.108 0.738c-0.158 0.105-0.316 0.158-0.457 0.158-0.176 0-0.352-0.088-0.527-0.246-0.246-0.264-0.457-0.545-0.633-0.826-0.176-0.299-0.352-0.633-0.545-1.037-1.371 1.618-3.095 2.426-5.169 2.426-1.477 0-2.655-0.422-3.516-1.266s-1.301-1.969-1.301-3.376c0-1.495 0.527-2.708 1.6-3.622s2.497-1.371 4.308-1.371c0.598 0 1.213 0.053 1.864 0.141s1.319 0.229 2.022 0.387v-1.284c0-1.336-0.281-2.268-0.826-2.813-0.563-0.545-1.512-0.809-2.866-0.809-0.615 0-1.248 0.070-1.899 0.229s-1.284 0.352-1.899 0.598c-0.281 0.123-0.492 0.193-0.615 0.229s-0.211 0.053-0.281 0.053c-0.246 0-0.369-0.176-0.369-0.545v-0.862c0-0.281 0.035-0.492 0.123-0.615s0.246-0.246 0.492-0.369c0.615-0.316 1.354-0.58 2.215-0.791 0.862-0.229 1.776-0.334 2.743-0.334 2.092 0 3.622 0.475 4.607 1.424 0.967 0.949 1.459 2.391 1.459 4.325v5.697zM8.053 14.347c0.58 0 1.178-0.105 1.811-0.316s1.196-0.598 1.67-1.125c0.281-0.334 0.492-0.703 0.598-1.125s0.176-0.932 0.176-1.53v-0.738c-0.51-0.123-1.055-0.229-1.618-0.299s-1.108-0.105-1.653-0.105c-1.178 0-2.040 0.229-2.62 0.703s-0.862 1.143-0.862 2.022c0 0.826 0.211 1.442 0.651 1.864 0.422 0.44 1.037 0.651 1.846 0.651zM22.171 16.246c-0.316 0-0.527-0.053-0.668-0.176-0.141-0.105-0.264-0.352-0.369-0.686l-4.132-13.591c-0.105-0.352-0.158-0.58-0.158-0.703 0-0.281 0.141-0.44 0.422-0.44h1.723c0.334 0 0.563 0.053 0.686 0.176 0.141 0.106 0.246 0.352 0.352 0.686l2.954 11.64 2.743-11.64c0.088-0.352 0.193-0.58 0.334-0.686s0.387-0.176 0.703-0.176h1.407c0.334 0 0.563 0.053 0.703 0.176 0.141 0.106 0.264 0.352 0.334 0.686l2.778 11.78 3.042-11.78c0.105-0.352 0.229-0.58 0.352-0.686 0.141-0.106 0.369-0.176 0.686-0.176h1.635c0.281 0 0.44 0.141 0.44 0.44 0 0.088-0.018 0.176-0.035 0.281s-0.053 0.246-0.123 0.44l-4.237 13.591c-0.105 0.352-0.229 0.58-0.369 0.686s-0.369 0.176-0.668 0.176h-1.512c-0.334 0-0.563-0.053-0.703-0.176s-0.264-0.352-0.334-0.703l-2.725-11.341-2.708 11.323c-0.088 0.352-0.193 0.58-0.334 0.703s-0.387 0.176-0.703 0.176h-1.512zM44.765 16.721c-0.914 0-1.829-0.105-2.708-0.316s-1.565-0.44-2.022-0.703c-0.281-0.158-0.475-0.334-0.545-0.492s-0.105-0.334-0.105-0.492v-0.897c0-0.369 0.141-0.545 0.404-0.545 0.105 0 0.211 0.018 0.316 0.053s0.264 0.105 0.44 0.176c0.598 0.264 1.248 0.475 1.934 0.615 0.703 0.141 1.389 0.211 2.092 0.211 1.108 0 1.969-0.193 2.567-0.58s0.914-0.949 0.914-1.67c0-0.492-0.158-0.897-0.475-1.231s-0.914-0.633-1.776-0.914l-2.549-0.791c-1.284-0.404-2.233-1.002-2.813-1.793-0.58-0.774-0.879-1.635-0.879-2.549 0-0.738 0.158-1.389 0.475-1.952s0.738-1.055 1.266-1.442c0.527-0.404 1.125-0.703 1.829-0.914s1.442-0.299 2.215-0.299c0.387 0 0.791 0.018 1.178 0.070 0.404 0.053 0.774 0.123 1.143 0.193 0.352 0.088 0.686 0.176 1.002 0.281s0.563 0.211 0.738 0.316c0.246 0.141 0.422 0.281 0.527 0.44 0.105 0.141 0.158 0.334 0.158 0.58v0.826c0 0.369-0.141 0.563-0.404 0.563-0.141 0-0.369-0.070-0.668-0.211-1.002-0.457-2.127-0.686-3.376-0.686-1.002 0-1.793 0.158-2.338 0.492s-0.826 0.844-0.826 1.565c0 0.492 0.176 0.914 0.527 1.248s1.002 0.668 1.934 0.967l2.497 0.791c1.266 0.404 2.18 0.967 2.725 1.688s0.809 1.547 0.809 2.462c0 0.756-0.158 1.442-0.457 2.040-0.316 0.598-0.738 1.125-1.284 1.547-0.545 0.44-1.196 0.756-1.952 0.985-0.791 0.246-1.618 0.369-2.514 0.369z"></path>
<path fill="#f90" d="M48.088 25.266c-5.785 4.273-14.189 6.541-21.415 6.541-10.127 0-19.253-3.745-26.145-9.969-0.545-0.492-0.053-1.16 0.598-0.774 7.455 4.325 16.651 6.945 26.163 6.945 6.418 0 13.468-1.336 19.956-4.079 0.967-0.44 1.793 0.633 0.844 1.336z"></path>
<path fill="#f90" d="M50.497 22.523c-0.738-0.949-4.888-0.457-6.769-0.229-0.563 0.070-0.651-0.422-0.141-0.791 3.306-2.321 8.738-1.653 9.371-0.879 0.633 0.791-0.176 6.224-3.27 8.826-0.475 0.404-0.932 0.193-0.721-0.334 0.703-1.741 2.268-5.662 1.53-6.593z"></path>
</svg>
