<svg version="1.1" xmlns="http://www.w3.org/2000/svg" width="100%" height="100%" viewBox="0 0 1820 1400">
<path fill="#c4122e" d="M616.676 887.439h-74.262v-294.298h74.262v294.298z"></path>
<path fill="#c4122e" d="M1215.474 677.471c-3.034-1.553-26.957-15.713-62.477-15.713-48.011 0-81.319 33.426-81.319 78.496 0 43.729 31.874 78.567 81.319 78.567 34.908 0 59.208-13.855 62.477-15.619v78.99c-9.315 2.611-34.696 10.468-67.676 10.468-83.53 0-156.852-57.584-156.852-152.406 0-87.882 66.335-152.335 156.852-152.335 34.814 0 60.642 8.492 67.676 10.562v78.99z"></path>
<path fill="#c4122e" d="M440.314 677.471c-2.987-1.553-26.863-15.713-62.383-15.713-48.105 0-81.39 33.426-81.39 78.496 0 43.729 31.897 78.567 81.39 78.567 34.908 0 59.184-13.855 62.383-15.619v78.99c-9.221 2.611-34.555 10.468-67.723 10.468-83.483 0-156.711-57.584-156.711-152.406 0-87.882 66.335-152.335 156.711-152.335 34.955 0 60.737 8.492 67.723 10.562v78.99z"></path>
<path fill="#c4122e" d="M1449.095 662.86c-44.059 0-76.779 34.673-76.779 77.391 0 42.812 32.721 77.461 76.779 77.461 44.012 0 76.826-34.649 76.826-77.461 0-42.718-32.815-77.391-76.826-77.391zM1604.606 740.251c0 84.189-64.994 152.406-155.511 152.406s-155.417-68.217-155.417-152.406c0-84.048 64.9-152.335 155.417-152.335s155.511 68.287 155.511 152.335z"></path>
<path fill="#c4122e" d="M898.303 660.035c-1.106-0.353-32.368-8.986-58.055-8.986-29.757 0-45.941 9.974-45.941 24.111 0 17.925 21.829 24.182 34.038 28.039l20.489 6.516c48.199 15.337 70.169 48.34 70.169 84.189 0 73.933-65.018 98.773-121.849 98.773-39.495 0-76.497-7.269-80.143-8.045v-67.723c6.539 1.647 37.684 10.938 70.122 10.938 36.955 0 53.938-10.797 53.938-27.475 0-14.914-14.702-23.523-33.12-29.31-4.493-1.505-11.244-3.623-15.855-5.128-41.354-13.079-75.838-37.378-75.838-86.094 0-55.044 41.212-91.999 109.664-91.999 36.155 0 70.169 8.774 72.38 9.362v62.83z"></path>
<path fill="#15495d" d="M137.135 276.866c0-20.277-16.56-36.719-36.861-36.719s-36.884 16.443-36.884 36.719v77.25c0 20.394 16.584 36.861 36.884 36.861s36.861-16.466 36.861-36.861v-77.25z"></path>
<path fill="#15495d" d="M339.652 175.47c0-20.277-16.56-36.767-36.861-36.767-20.324 0-36.884 16.49-36.884 36.767v178.658c0 20.394 16.56 36.837 36.884 36.837 20.3 0 36.861-16.443 36.861-36.837v-178.658z"></path>
<path fill="#15495d" d="M542.171 36.743c0-20.277-16.56-36.743-36.861-36.743-20.324 0-36.884 16.466-36.884 36.743v390.788c0 20.394 16.56 36.861 36.884 36.861 20.3 0 36.861-16.466 36.861-36.861v-390.788z"></path>
<path fill="#15495d" d="M744.691 175.47c0-20.277-16.56-36.767-36.861-36.767-20.324 0-36.884 16.49-36.884 36.767v178.658c0 20.394 16.56 36.837 36.884 36.837 20.3 0 36.861-16.443 36.861-36.837v-178.658z"></path>
<path fill="#15495d" d="M946.979 276.866c0-20.277-16.443-36.719-36.649-36.719-20.3 0-36.861 16.443-36.861 36.719v77.25c0 20.394 16.56 36.861 36.861 36.861 20.206 0 36.649-16.466 36.649-36.861v-77.25z"></path>
<path fill="#15495d" d="M1149.59 175.47c0-20.277-16.443-36.767-36.743-36.767-20.277 0-36.767 16.49-36.767 36.767v178.658c0 20.394 16.49 36.837 36.767 36.837 20.3 0 36.743-16.443 36.743-36.837v-178.658z"></path>
<path fill="#15495d" d="M1352.246 36.743c0-20.277-16.443-36.743-36.743-36.743-20.324 0-36.767 16.466-36.767 36.743v390.788c0 20.394 16.443 36.861 36.767 36.861 20.3 0 36.743-16.466 36.743-36.861v-390.788z"></path>
<path fill="#15495d" d="M1554.857 175.47c0-20.277-16.443-36.767-37.213-36.767-20.3 0-36.743 16.49-36.743 36.767v178.658c0 20.394 16.443 36.837 36.743 36.837 20.771 0 37.213-16.443 37.213-36.837v-178.658z"></path>
<path fill="#15495d" d="M1757.054 276.866c0-20.277-16.49-36.719-36.767-36.719-20.3 0-36.79 16.443-36.79 36.719v77.25c0 20.394 16.49 36.861 36.79 36.861 20.277 0 36.767-16.466 36.767-36.861v-77.25z"></path>
<path fill="#c4122e" d="M1714.557 848.678v4.611h-13.126v34.132h-5.387v-34.132h-13.196v-4.611h31.709z"></path>
<path fill="#c4122e" d="M1717.312 848.678h8.445l11.597 31.78h0.188l11.22-31.78h8.28v38.742h-5.528v-31.756h-0.188l-11.762 31.756h-5.105l-11.479-31.756h-0.259v31.756h-5.41v-38.742z"></path>
</svg>
