<svg xmlns="http://www.w3.org/2000/svg" x="0px" y="0px" viewBox="0 0 652 652" xml:space="preserve">
<style type="text/css">
	.st0{opacity:0.85;}
	.st1{fill:#6DBE50;}
</style>
<g>
	<g class="st0">
		<g>
			<path class="st1" d="M214.3,325.7H20.9v99.2h96.8C169.5,424.9,211.8,381,214.3,325.7"/>
		</g>
	</g>
	<path class="st1" d="M117.7,216.1H20.9v99.2h193.5C211.8,260,169.5,216.1,117.7,216.1"/>
	<path class="st1" d="M524.2,216.1c-51.8,0-94.2,44-96.7,99.2h193.3C618.4,260,576,216.1,524.2,216.1"/>
	<g class="st0">
		<g>
			<path class="st1" d="M620.9,325.7H427.5c2.5,55.3,44.8,99.2,96.7,99.2C576,424.9,618.4,381,620.9,325.7"/>
		</g>
	</g>
	<path class="st1" d="M224.1,216.1v104.4c0,55.9,40.7,101.6,92,104.3V216.1H224.1z"/>
	<g class="st0">
		<g>
			<polygon class="st1" points="417.7,216.1 325.8,216.1 325.8,424.9 417.7,424.9 417.7,320.5 			"/>
		</g>
	</g>
</g>
</svg>
