<svg id="Layer_2" data-name="Layer 2" xmlns="http://www.w3.org/2000/svg" viewBox="0 0 481.25 206.5"><circle cx="114.96" cy="103.25" r="66.73" style="fill:#fff"/><path d="M201.85,67.8h36.34v7.46H224.83v37.43h-9.62V75.26H201.85Z" style="fill:#231f20"/><path d="M257.1,75.26H269c4.21.06,6.69,1.73,6.69,5.68S273.19,87,269,87.06H257.1Zm0,19.61h10.17s6.3,13.83,7.11,17.82h11.85l-9.11-18.46c6.42-1.65,8.08-9.31,8.08-15.12C285.2,70,275,67.52,266.52,67.8H247.46v44.89h9.64Z" style="fill:#231f20"/><path d="M298.16,67.8h32.19v7.46H307.79V85.81h20.76v7.46H307.79v12H331v7.46H298.16Z" style="fill:#231f20"/><path d="M369.74,112.69,353.25,82.84l-.13.13v29.72h-9V67.8h11.94l16.38,29.33.13-.12V67.8h9v44.89Z" style="fill:#231f20"/><path d="M405.18,75.61h5c11.43-.12,13.12,7.48,13.12,14.64s-1.69,15.11-13.12,15h-5Zm-9.63,37.08h15.29c14,.12,22.69-6.84,22.69-22.44s-8.7-22.57-22.69-22.45H395.55Z" style="fill:#231f20"/><path d="M231.93,149.58h-4.66V130l-4.9,19.63h-4.84L212.63,130l-.08,19.63h-4.66V124.66h7.52l4.48,17,4.5-17h7.54Z" style="fill:#231f20"/><path d="M269.88,149.58h-5V124.66h5Z" style="fill:#231f20"/><path d="M368.87,133.5a2.56,2.56,0,0,1-1.6,1.39,5.24,5.24,0,0,1-1.43.25c-.58,0-1.42.06-2.51.06H359v-6.32H363q2.71,0,3.48.06a3.21,3.21,0,0,1,1.45.49,2.29,2.29,0,0,1,1,1,3.59,3.59,0,0,1,.3,1.5A3.66,3.66,0,0,1,368.87,133.5Zm.45,5.71a13.3,13.3,0,0,0,1.55-.46,5.8,5.8,0,0,0,2.8-2.46,9.59,9.59,0,0,0,.85-4.43,8.32,8.32,0,0,0-1.13-3.89,5.86,5.86,0,0,0-3.1-2.68,9.29,9.29,0,0,0-1.74-.42,28.92,28.92,0,0,0-4-.21H354v24.92h5v-9.82l4.79-.06,5.31,9.88h6Z" style="fill:#231f20"/><path d="M418.72,144.08a7,7,0,0,1-8.07.58,6.11,6.11,0,0,1-2-2.11,8.67,8.67,0,0,1-.86-2.06,13.32,13.32,0,0,1-.38-3.37,11,11,0,0,1,1.31-5.68,6.05,6.05,0,0,1,5.57-2.88,6,6,0,0,1,5.74,3.2,11.06,11.06,0,0,1,1.12,5.29C421.16,140.25,420.35,142.6,418.72,144.08ZM423.36,128c-2.14-2.49-5.17-3.72-9.09-3.72s-6.82,1.16-8.91,3.48-3.13,5.5-3.13,9.52a13.75,13.75,0,0,0,2.55,8.53q3.15,4.22,9.56,4.21,6.14,0,9.29-4a13.8,13.8,0,0,0,2.72-8.86A13.6,13.6,0,0,0,423.36,128Z" style="fill:#231f20"/><path d="M318.61,132.84c-.4-1.48-1.2-4.27-5.47-4.27-2.49,0-6.13,1.66-6.13,8.66,0,4.44,1.75,8.44,6.13,8.44,2.86,0,4.85-1.62,5.47-4.66h5.17c-1,5.38-4.55,9.12-10.74,9.12-6.58,0-11.3-4.42-11.3-13s5-13,11.36-13c7.41,0,10.41,5.08,10.68,8.73Z" style="fill:#231f20"/><path d="M435.49,115.53h-2.68v7.13h-1.07v-7.13h-2.66v-1h6.41Z" style="fill:#231f20"/><path d="M444.3,122.66h-1v-6.78l-2.35,6.78h-1l-2.32-6.89,0,6.89h-1v-8.1h1.62l1.9,5.74s.08.24.22.66a2.89,2.89,0,0,1,.15.54l.46-1.3,1.94-5.64h1.42Z" style="fill:#231f20"/><path d="M60.39,116a1.09,1.09,0,0,1,.09-.23c.08-.24.18-.48.26-.72s.17-.43.26-.64.08-.2.12-.3a70.69,70.69,0,0,1,4.7-9.43c.25-.53.51-1,.76-1.57l-8,0,1.94-4.28A62.78,62.78,0,0,0,88.64,83.17l.32,0h5.53L87.34,98.47l11.48,0L96.71,103l-11.46,0S79.87,113.79,78,121.48c-1.41,8.58,0,15,7.67,17.39,4.75,1.47,10.67,1.13,17.06-.67,14.86-4.64,30.74-14.85,42.37-28.37,19.13-22.23,19.51-45,.84-50.78-12-3.72-28.85.41-44.48,9.73C121,56.21,142.41,50.31,157.19,54.91a24.84,24.84,0,0,1,7.21,3.52A66.73,66.73,0,0,0,59.3,140.05C56.66,133.53,57,125.17,60.39,116Z" style="fill:#d71920"/><path d="M171.53,67.85C176,80,170.41,98.07,155,116c-23.14,26.91-59.69,43.18-81.62,36.35a24.75,24.75,0,0,1-7.11-3.45,66.73,66.73,0,0,0,105.26-81Z" style="fill:#d71920"/></svg>