<svg version="1.1" xmlns="http://www.w3.org/2000/svg" width="52" height="32" viewBox="0 0 52 32">
<path fill="#009cda" d="M51.511 16.284c0.838 5.118-3.604 8.001-8.11 8.334-2.868 5.892-12.975 9.87-21.728 5.581-3.748 0.569-5.8-0.368-7.384-2.163 3.202-4.12 12.899-11.534 24.745-7.709 6.322 2.050 7.965-2.751 6.38-4.544-5.966-6.776-19.44-0.676-19.92-0.169 5.287-8.099 24.212-10.372 26.017 0.669zM33.371 6.989c0.033-0.012-4.302-1.543-10.361 1.076-0.293-0.107-0.531-0.211-0.761-0.327l0.040 0.018c5.833-3.88 10.944-5.525 15.315-4.884-2.648-3.046-15.361-5.284-22.646 2.018-9.005-1.776-15.302 5.848-14.943 12.821s7.964 11.307 12.292 10.132c0.047-0.006 0.101-0.010 0.156-0.010s0.109 0.004 0.163 0.010l-0.006-0.001c0.967-4.605 4.879-15.32 20.752-20.854z"></path>
</svg>
