<?xml version="1.0" encoding="utf-8"?>
<!-- Generator: Adobe Illustrator 25.3.1, SVG Export Plug-In . SVG Version: 6.00 Build 0)  -->
<svg version="1.1" id="02c3c89c-8d38-42d9-a7f2-1ef4384f7c8d" xmlns="http://www.w3.org/2000/svg" x="0px" y="0px"
	 viewBox="0 0 230 230" xml:space="preserve">
<g>
	<g>
		<path fill="#0000BA" class="st0" d="M17.74,125.18L24,114.47h-3.59l3.7-6.38h12.4l-9.61,16.43c-0.3,0.52-0.66,1.17-0.87,1.69
			c-0.45,1.17-0.16,1.83,1.27,1.83c0.4,0,0.98-0.05,0.98-0.05l-3.7,6.38c0,0-1.29,0.16-2.72,0.16c-4.03,0-8.09-0.35-5.86-6.07
			C16.4,127.52,16.99,126.44,17.74,125.18z M33.75,97.87h8.63l-4.01,6.89h-8.63L33.75,97.87z"/>
		<path fill="#0000BA" class="st0" d="M34.87,124.66l11.91-20.42h-3.56l3.7-6.38h12.4L44.2,123.89c-0.42,0.7-0.84,1.52-1.03,1.99
			c-0.47,1.22-0.09,1.69,1.34,1.69c0.56,0,1.1-0.05,1.1-0.05l-4.08,6.94c0,0-1.29,0.16-2.72,0.16c-4.03,0-7.85-0.82-5.58-6.63
			C33.61,127.01,34.12,125.93,34.87,124.66z"/>
		<path fill="#0000BA" class="st0" d="M51.87,124.66l11.91-20.42h-3.56l3.7-6.38h12.4l-15.12,26.02c-0.42,0.7-0.84,1.52-1.03,1.99
			c-0.47,1.22-0.09,1.69,1.34,1.69c0.56,0,1.1-0.05,1.1-0.05l-4.08,6.94c0,0-1.29,0.16-2.72,0.16c-4.03,0-7.85-0.82-5.58-6.63
			C50.6,127.01,51.12,125.93,51.87,124.66z"/>
		<path fill="#0000BA" class="st0" d="M70.03,124.76l6-10.31h-3.56l3.75-6.38h12.4l-9,15.4c-0.33,0.56-0.63,1.13-0.77,1.48
			c-0.61,1.57-0.05,2.25,1.43,2.25c3.63,0,7.9-4.03,9.92-7.5l3.07-5.25H89.7l3.75-6.38h12.4l-9.61,16.43
			c-0.3,0.52-0.66,1.17-0.87,1.69c-0.45,1.17-0.16,1.83,1.27,1.83c0.4,0,0.98-0.05,0.98-0.05l-3.7,6.38c0,0-1.29,0.16-3.47,0.16
			c-2.81,0-6.49-0.09-5.2-4.85h-0.12c-3.33,3.07-7.31,5.3-11.56,5.3c-4.24,0-6.94-2.25-4.97-7.29
			C68.91,126.87,69.45,125.79,70.03,124.76z"/>
		<path fill="#0000BA" class="st0" d="M102.38,125.06h7.41l-0.56,0.91c-1.17,1.95,1.45,2.3,3.14,2.3c2.6,0,3.7-0.87,4.03-1.73
			c1.29-3.31-11.13-1.95-7.88-10.31c2.44-6.28,9.84-8.77,16.13-8.77c4.55,0,9.54,1.69,6.87,6.33l-1.71,2.95h-7.41l0.54-1.03
			c0.75-1.43-0.87-1.57-1.95-1.57c-2.13,0-3.33,0.56-3.73,1.57c-1.41,3.63,11.34,1.64,8.13,9.89c-2.27,5.86-9.31,9.33-16.81,9.33
			c-4.5,0-11.04-1.69-7.81-7.24L102.38,125.06z"/>
		<path fill="#0000BA" class="st0" d="M132.12,125.18l6.26-10.71h-3.56l3.7-6.38h12.4l-9.61,16.43c-0.3,0.52-0.66,1.17-0.87,1.69
			c-0.45,1.17-0.16,1.83,1.27,1.83c0.4,0,0.98-0.05,0.98-0.05l-3.7,6.38c0,0-1.29,0.16-2.72,0.16c-4.03,0-8.09-0.35-5.86-6.07
			C130.81,127.52,131.37,126.44,132.12,125.18z"/>
		<path fill="#0000BA" class="st0" d="M155.07,114.47h-2.95l3.75-6.38h13.74l-3.75,6.38h-2.34l-2.51,9.49c-0.35,1.57-1.29,3.47-1.29,3.47h0.21
			c0,0,1.24-1.9,2.72-3.47l8.53-9.49h-2.34l3.75-6.38h14.23l-3.75,6.38h-2.95l-18.92,19.9h-10.43L155.07,114.47z"/>
		<path fill="#0000BA" class="st0" d="M201.32,107.46c7.45,0,9.59,4.24,7.22,10.31c-0.94,2.39-2.93,5.06-2.93,5.06h-16.53c0,0-0.14,0.26-0.26,0.52
			c-1.03,2.65,0.35,4.34,3.47,4.34c3.82,0,8.84-2.65,8.84-2.65l-0.3,6.54c0,0-5.98,3.42-11.95,3.42c-8.98,0-11.34-5.3-8.95-11.49
			C183.48,114.35,192.65,107.46,201.32,107.46z M199.8,117.98c0,0,0.38-0.7,0.49-1.03c0.63-1.64,0.09-2.86-1.69-2.86
			c-2.55,0-4.92,1.78-6.56,3.87h7.76V117.98z"/>
	</g>
	<g>
		<g>
			<g>
				<g>
					<g>
						<g>
							<path fill="#0000BA" id="Path_532_3_" class="st0" d="M151.46,96.89h5.44l-3.21,5.27h-5.44L151.46,96.89z"/>
							<path fill="#0000BA" id="Path_533_3_" class="st1" d="M158.59,96.89h5.44l-3.21,5.27h-5.44L158.59,96.89z"/>
							<path fill="#0000BA" id="Path_534_3_" class="st2" d="M165.74,96.89h5.44l-3.21,5.27h-5.44L165.74,96.89z"/>
							<path fill="#0000BA" id="Path_535_3_" class="st3" d="M172.86,96.89h5.44l-3.21,5.27h-5.44L172.86,96.89z"/>
							<path fill="#0000BA" id="Path_536_3_" class="st4" d="M180.01,96.89h5.44l-3.21,5.27h-5.44L180.01,96.89z"/>
							<path fill="#0000BA" id="Path_537_3_" class="st5" d="M187.16,96.89h5.44l-3.21,5.27h-5.44L187.16,96.89z"/>
							<path fill="#0000BA" id="Path_538_3_" class="st6" d="M194.29,96.89h5.44l-3.21,5.27h-5.44L194.29,96.89z"/>
							<path fill="#0000BA" id="Path_539_3_" class="st7" d="M201.44,96.89h5.44l-3.21,5.27h-5.44L201.44,96.89z"/>
							<path fill="#0000BA" id="Path_540_3_" class="st8" d="M208.56,96.89H214l-3.21,5.27h-5.41L208.56,96.89z"/>
						</g>
					</g>
				</g>
			</g>
		</g>
	</g>
</g>
</svg>
