<svg width="81" height="24" fill="none" xmlns="http://www.w3.org/2000/svg"><path d="M18.533 0h-7.771l2.4 7.51h7.771l-6.285 4.474 2.4 7.55c4.044-2.957 5.371-7.438 3.885-12.031L18.533 0ZM.59 7.51h7.772l2.4-7.51H2.99L.59 7.51c-1.485 4.594-.158 9.075 3.886 12.033l2.4-7.551L.59 7.511Zm3.886 12.025L10.762 24l6.285-4.465-6.285-4.545-6.286 4.545ZM63.13 7.32c-1.836 0-3.012.837-3.56 2.2h-.143V3.34h-2.758v16.163h2.821v-7.017c0-1.738 1.073-2.735 2.59-2.735 1.479 0 2.353.95 2.353 2.568v7.184h2.82v-7.655c-.007-2.91-1.644-4.528-4.123-4.528Zm11.744-4.011c-3.814 0-6.118 2.998-6.126 8.205 0 5.222 2.288 8.26 6.126 8.26 3.83.008 6.127-3.03 6.127-8.26-.008-5.2-2.312-8.205-6.127-8.205Zm-3.21 8.205c.008-3.804 1.24-5.805 3.21-5.805 1.351 0 2.352.925 2.853 2.719l-6.015 4.385a16.508 16.508 0 0 1-.048-1.3Zm3.21 5.828c-1.39 0-2.415-.989-2.9-2.902l6.047-4.41c.048.463.072.957.072 1.492 0 3.827-1.232 5.82-3.219 5.82ZM43.97 14.456c0 1.826-1.303 2.735-2.551 2.735-1.359 0-2.257-.965-2.257-2.488V7.495h-2.82v7.647c0 2.886 1.636 4.52 3.988 4.52 1.796 0 3.052-.948 3.6-2.288h.127v2.137h2.734V7.495H43.97v6.96ZM29.96 7.312c-2.519 0-4.45 1.124-5.07 3.317l2.63.374c.279-.821 1.074-1.523 2.456-1.523 1.311 0 2.027.67 2.027 1.85v.048c0 .813-.85.853-2.964 1.076-2.32.248-4.546.95-4.546 3.652 0 2.36 1.725 3.612 4.005 3.612 1.876 0 2.996-.885 3.512-1.89h.096v1.651h2.71v-8.037c.008-3.174-2.567-4.13-4.856-4.13Zm2.05 7.853c0 1.34-1.072 2.472-2.773 2.472-1.176 0-2.018-.542-2.018-1.579 0-1.084.945-1.538 2.201-1.722.739-.104 2.217-.287 2.59-.59v1.42ZM52.814 4.49h-2.82v3.006h-1.71v2.256h1.71v6.65c-.017 2.257 1.62 3.373 3.742 3.31a5.543 5.543 0 0 0 1.438-.216v-2.24c-.214.031-.715.095-1.072.103-.708.016-1.28-.247-1.28-1.395V9.75h2.352V7.503h-2.36V4.489Z" fill="#000" style="--darkreader-inline-fill:#000000"/></svg>