<?xml version="1.0" encoding="utf-8"?>
<!-- Generator: Adobe Illustrator 27.9.1, SVG Export Plug-In . SVG Version: 6.00 Build 0)  -->
<svg version="1.1" id="Ebene_1" xmlns="http://www.w3.org/2000/svg" x="0px" y="0px"
	 viewBox="0 0 566.9 283.5" style="enable-background:new 0 0 566.9 283.5;" xml:space="preserve">
<style type="text/css">
	.st0{fill:#191817;}
	.st1{fill:#F39100;}
</style>
<path class="st0" d="M289.4,80.8c-36.5,0-66.1,29.6-66.1,66.1c0,36.5,29.6,66.1,66.1,66.1c36.5,0,66.1-29.6,66.1-66.1
	C355.5,110.4,325.9,80.8,289.4,80.8z M289.4,194c-26,0-47.2-21.1-47.2-47.2c0-26,21.1-47.2,47.2-47.2c26,0,47.2,21.1,47.2,47.2
	C336.6,172.9,315.4,194,289.4,194z"/>
<path class="st1" d="M289.4,114.4c-1.6,0-3.1,0.1-4.6,0.3c4.3,2.8,7.1,7.7,7.1,13.1c0,8.7-7.1,15.7-15.7,15.7
	c-7.4,0-13.6-5.1-15.3-12c-2.4,4.5-3.7,9.6-3.7,15.1c0,17.8,14.5,32.3,32.3,32.3c17.8,0,32.3-14.5,32.3-32.3
	C321.7,128.9,307.2,114.4,289.4,114.4z"/>
</svg>
