<svg xmlns="http://www.w3.org/2000/svg" width="75" height="75">
  <path fill="#0088C5" d="M37.501 75C58.155 75 75 58.154 75 37.5S58.155 0 37.501 0 0 16.846 0 37.5 16.847 75 37.501 75z"/>
  <path fill="#FFF" fill-rule="evenodd" d="M43.446 45.693c-1.485 2.116-3.016 4.438-4.496 6.591H28.572l10.04-14.292 4.834 7.701z" clip-rule="evenodd"/>
  <path fill="#FFF" fill-rule="evenodd" d="M50.029 52.176c-3.111-4.747-6.14-9.722-9.281-14.448-2.295-3.455-5.17-9.178-9.932-9.088-3.873.073-7.743 3.833-7.743 8.714V52.46h-8.712V22.37h8.341v2.823c0 1.091.021 1.637.063 1.637 0-.038.021-.056.06-.056 3.388-4.238 9.252-6.035 13.99-4.302 2.779 1.019 4.534 2.88 6.247 5.12 5.554 8.256 9.821 15.646 15.44 24.583h-8.473zM45.926 29l4.58-6.805h10.132c-3.366 4.507-6.85 9.014-10.204 13.635L45.926 29z" clip-rule="evenodd"/>
  <path fill="#FFF" fill-rule="evenodd" d="M43.446 45.693c-1.485 2.116-3.02 4.438-4.496 6.591H28.572l10.037-14.291 4.837 7.7z" clip-rule="evenodd"/>
</svg>