<?xml version="1.0" encoding="utf-8"?>
<!-- Generator: Adobe Illustrator 27.9.0, SVG Export Plug-In . SVG Version: 6.00 Build 0)  -->
<svg version="1.1" id="a144cc69-f212-5a95-98e1-fb6fdd8de58e" xmlns="http://www.w3.org/2000/svg" x="0px" y="0px"
	 viewBox="0 0 334 167.3" xml:space="preserve">
<style type="text/css">
	.st0{fill:#FF7A4F;}
	.st1{fill:url(#SVGID_1_);}
	.st2{fill:url(#SVGID_00000134235850433476250970000000888907963530095800_);}
	.st3{fill:#335D7F;}
	.st4{fill:#FDA667;}
</style>
<g id="aa3e1aab-1432-4124-9d5d-1c0ec785f019">
	<g id="f9ad83e1-ae9e-4d9d-9278-b060f63ac5eb">
		<g id="addcb393-bcd7-4381-a2b3-d5bb8a37d878">
			<path class="st0" d="M0,8.8V47c0,4.9,4.4,8.8,9.8,8.8c0,0,0,0,0,0h121l0-55.7H9.8C4.4,0,0,4,0,8.8C0,8.8,0,8.8,0,8.8z"/>
			
				<linearGradient id="b315c62a-f852-5d9d-8a7b-3df1593b94c1" gradientUnits="userSpaceOnUse" x1="170.9021" y1="262.1024" x2="329.0352" y2="262.1024" gradientTransform="matrix(1 0 0 -1 0 290)">
				<stop  offset="0"/>
				<stop  offset="0.5"/>
				<stop  offset="1"/>
			</linearGradient>
			<path class="st1" d="M332.8,42.8C316.4,16.4,285.3,0,251.6,0c-2.5,0-9,0-9.8,0l-111,0.6v55.1h33l0,0h160.5c5.4,0,9.7-3.9,9.7-8.7
				C334,45.6,333.6,44.1,332.8,42.8z"/>
			
				<linearGradient id="c794a289-e00d-52ba-8324-9136f3f47af5" gradientUnits="userSpaceOnUse" x1="171.5907" y1="150.5957" x2="328.2036" y2="150.5957" gradientTransform="matrix(1 0 0 -1 0 290)">
				<stop  offset="0"/>
				<stop  offset="0.5"/>
				<stop  offset="1"/>
			</linearGradient>
			<path d="M332.8,124.5
				c-16.5,26.4-47.5,42.8-81.3,42.8c-2.5,0-9,0-9.8,0l-111-0.6v-55.1h33l0,0h160.5c5.4,0,9.7,3.9,9.7,8.7
				C334,121.7,333.6,123.2,332.8,124.5z"/>
			<path class="st3" d="M332.8,42.8C316.4,16.4,285.3,0,251.6,0c-2.5,0-9,0-9.8,0l-111,0.6v55.1h33l0,0h160.5c5.4,0,9.7-3.9,9.7-8.7
				C334,45.6,333.6,44.1,332.8,42.8z"/>
			<path class="st3" d="M332.8,124.5c-16.5,26.4-47.5,42.8-81.3,42.8c-2.5,0-9,0-9.8,0L131,166.7c-0.1,0-0.2-0.1-0.2-0.2v-54.8
				c0-0.1,0.1-0.2,0.2-0.2h32.8l0,0h160.5c5.4,0,9.7,3.9,9.7,8.7C334,121.7,333.6,123.2,332.8,124.5z"/>
			<path class="st4" d="M251.6,0H97.9v0H10c1.1,0,3.7,0.2,5.5,0.4c47,4.9,82.4,40.7,82.4,83.2v75c0,4.8,4.3,8.7,9.7,8.7c0,0,0,0,0,0
				h143.9c-6.3-0.2-10.1-0.4-15-1.1c-50.7-7.4-85.2-50.4-76.9-96c6.9-37.8,41.4-66.6,83.9-69.9C246.2,0.1,249.9,0,251.6,0z"/>
		</g>
	</g>
</g>
</svg>
