<?xml version="1.0" encoding="utf-8"?>
<!-- Generator: Adobe Illustrator 23.0.6, SVG Export Plug-In . SVG Version: 6.00 Build 0)  -->
<svg version="1.1" id="2952db49-db92-4a75-9ae7-c1577767464c" xmlns="http://www.w3.org/2000/svg" x="0px" y="0px"
	 viewBox="542 375 140 42" xml:space="preserve">
<g>
	<polygon class="st0" points="560.2,414.3 545.1,414.3 545.1,401.2 549.6,401.2 549.6,409.8 560.2,409.8 	" fill="#D2DB4E"/>
</g>
<g>
	<polygon class="st0" points="549.5,391.9 545,391.9 545,378.8 560.2,378.8 560.2,383.3 549.5,383.3 	" fill="#D2DB4E"/>
</g>
<g>
	<polygon class="st0" points="678.9,391.9 674.4,391.9 674.4,383.3 663.8,383.3 663.8,378.8 678.9,378.8 	" fill="#D2DB4E"/>
</g>
<g>
	<polygon class="st0" points="678.9,414.3 663.8,414.3 663.8,409.8 674.4,409.8 674.4,401.2 678.9,401.2 	" fill="#D2DB4E"/>
</g>
<path class="st1" d="M564,390.8h2.7l4.3,10.8l4.3-10.8h2.8l-5.7,13.8h-2.8L564,390.8z" fill="#535456"/>
<path class="st1" d="M591.3,390.8h2.6v2.1c1.1-1.4,2.7-2.4,4.5-2.4v2.6c-0.3-0.1-0.5-0.1-0.9-0.1c-1.3,0-3,1-3.6,2v9.6h-2.6V390.8z" fill="#535456"/>
<path class="st1" d="M617.1,395.4c0-1.6-0.7-2.7-2.4-2.7c-1.4,0-2.8,1-3.4,2v9.9h-2.6v-9.2c0-1.6-0.7-2.7-2.4-2.7
	c-1.3,0-2.7,1-3.4,2v9.9h-2.6v-13.8h2.6v1.9c0.6-0.9,2.4-2.3,4.5-2.3c2.1,0,3.3,1.1,3.7,2.6c0.8-1.3,2.6-2.6,4.7-2.6
	c2.5,0,3.9,1.4,3.9,4.2v10h-2.6V395.4z" fill="#535456"/>
<path class="st1" d="M621.8,397.7c0-4,2.7-7.2,7-7.2c4.3,0,7,3.3,7,7.2c0,4-2.7,7.3-7,7.3C624.5,405,621.8,401.7,621.8,397.7z
	 M633.1,397.7c0-2.6-1.5-4.9-4.3-4.9c-2.7,0-4.3,2.3-4.3,4.9c0,2.6,1.5,5,4.3,5C631.5,402.7,633.1,400.4,633.1,397.7z" fill="#535456"/>
<path class="st1" d="M647.2,402.8c-1.1,1.1-2.8,2.2-4.9,2.2c-2.9,0-4.4-1.5-4.4-4.4v-9.8h2.6v8.9c0,2.3,1.1,3,2.9,3
	c1.6,0,3.1-0.9,3.8-1.9v-9.9h2.6v13.8h-2.6V402.8z" fill="#535456"/>
<path class="st1" d="M652.7,390.8h2.6v2.1c1.1-1.4,2.7-2.4,4.5-2.4v2.6c-0.3-0.1-0.5-0.1-0.9-0.1c-1.3,0-3,1-3.6,2v9.6h-2.6V390.8z" fill="#535456"/>
<path class="st1" d="M587,404.6h2.7l-5.3-13.8h-3.1l-5.3,13.8l0,0h2.7l1-2.6h6.3L587,404.6z M580.4,399.8l2.5-6.8l2.5,6.8H580.4z" fill="#535456"/>
</svg>