<svg xmlns="http://www.w3.org/2000/svg" height="800" width="1200" viewBox="-44.85 -12.6075 388.7 75.645"><path fill="#EF7690" d="M0 .53h56.26v49.41H0z"/><path d="M36.54 30.93c-1.16.16-3.44.39-4.54.5-1 .1-2.08.15-3.21.22-1 .06-2.05.01-3.11.02s-2.14 0-3.22-.12c-2.19-.26-2.65-.57-3.24-.65-1.22-.15-2.14-.37-3.17-.59-.84-.18-1.71-.37-2.22-.39-.06-.06-.24-.42-.28-.5-.56-1.31-.55-1.15-1.11-3.05-.28-.93-.65-2.88-.84-4.13-.16-1.01-.36-1.3-.44-1.54-.29-.97-.19-1.55-.24-2.6-.05-1.05-.1-3.61-.05-4.68.08-1.68.18-1.89.42-2.91.24-1.03.76-2.09 1.2-3.04.38-.82.58-1.58 1.15-2.31.65-.84.8-1.21 1.13-1.52.03-.03.27-.08.31-.09.79-.26 1.52-.34 1.93-.47.1-.01.51.04.61.04.18 0 1.32.04 3.03.08.89.02 1.93.1 3.07.13 1.02.03 2.11.04 3.24.06 1.03.02 2.09-.03 3.15-.02.97.01 1.94.09 2.88.09 1.02 0 2-.03 2.92-.04 1.03-.01 1.99-.05 2.82-.08 1.26-.04 2.24-.04 2.76-.14 1-.2 1.75-.3 2.41-.3.18.05.25.11.4.18.56.26 1.34.83 1.34.83 0 .36-.13 2.75.04 4.42.1.95.27 2.03.41 3.14.14 1.04.2 1.88.35 2.89.15 1.02.51 2.47.64 3.28.23 1.48.29.68.5 1.92.27 1.6.12 1.43.3 3.28.1 1.05-.07 3.27-.24 4.33-.17 1.08-.63 1.93-.98 2.08-.73.31-3.1.65-2.63.57-1.21.19-1.11.05-1.83.19-1.88.38-2.29.3-3.57.41-1.2.11-.28.21-1.68.4-.13-.01-.27.09-.41.11m14.71 12.89c.86-.78 1.37-1.44 1.31-2.21-.11-1.48-.15-2.97-.43-4.66-.26-1.57-.11-.8-.16-2.39-.05-1.42.08-1.84-1.04-2.56-.75-.48-2.2-.57-3.68-.56-.91.01-1.81.06-2.69.07-1.06.01-2.09.04-3.1.08-1.03.03-2.04.05-3.02.1-1.01.05-1.63.24-2.58.3-1.08.07-2.49-.03-3.5.06-1.04.09-2.04.28-3.02.38-1.1.12-2.16.21-3.18.35-1.14.15-2.24.27-3.28.44-1.08.18-2.11.35-3.09.55-1.1.21-2.11.51-3.08.73-1.09.25-2.1.5-3.03.75-1.12.31-2.16.5-3.05.79-1.16.35-2.13.69-2.92 1.01-2 .8-1.44.7-2.85 1.46-.98.44-1.83 1.03-2.31 1.53-.91.96-.66 1.93-.38 3.46.2 1.04.15.52.3 1.65.13.93.28 2 .73 2.66.51.75 1.34 1.13 3.19.87.87-.12 1.98-.38 3.4-.82.6-.18 1.26-.44 2.02-.61.82-.19 1.74-.29 2.7-.47.9-.16 1.86-.32 2.85-.48.95-.14 2.1-.47 3.11-.61.97-.13 1.79-.05 2.8-.17.98-.11 2.12-.51 3.12-.62.97-.1 2.66-.12 3.63-.21 1.07-.1 1.9.24 2.95.15 1.04-.09 1.62.03 2.62-.05 1.11-.08 2.18-.21 3.22-.28 1.04-.07 2.03-.06 2.95-.11 1.14-.07 2.1.1 3.01.06 1.3-.06 2.34-.17 3.07-.15 1.38.05 2.98-.35 3.41-.49" fill="#1F2583"/><path d="M28.91 16.55l-5.24-2.94 6.54.99.05.01 4.94-1.63-4.53 2.58-.1-.27-.39.14.12.34zm-3 17.87c-.53 0-1 .38-1 .91s.46.95 1 .95c.53 0 1.01-.42 1.01-.95-.01-.52-.48-.91-1.01-.91zm-.39 4.39c-.53 0-1.18.21-.95.91.17.5.42.99.95.99s1-.49 1-1.02c-.01-.54-.47-.88-1-.88zm13.7-30.4h-1.69v1.68h1.69zM17.15 23.32l1.5.76.76-1.5-1.5-.77zM23.1 36.1c-.53 0-1.01.39-1.01.93 0 .53.57.67 1.1.67.53 0 .94-.14.94-.67.01-.54-.5-.93-1.03-.93zm-12.71 3.07c-.53 0-.89.5-.89 1.09 0 .58.36.99.89.99s.96-.41.96-.99c0-.59-.43-1.09-.96-1.09zm2.5 3.66c-.53 0-.89.42-.89.95s.36 1.02.89 1.02.99-.49.99-1.02c.01-.53-.45-.95-.99-.95zm4.59-3.64c-.53 0-.95.44-.95.97s-.01.76.95.97c.52.12.93-.45.93-.97-.01-.52-.4-.97-.93-.97zm-1.34 3.05c-.53 0-.93.35-.94.88-.02 1.29.68.95.94.99.53.08.98-.46.98-.99s-.45-.88-.98-.88zm3.91-2.14c-.46 0-.81.33-.81.87 0 .53.35.9.81.9.46 0 .89-.37.89-.9 0-.54-.43-.87-.89-.87zm23.76-16.09c-.11 1.06.24 1.25-.77 2.04-.41.32-1.03.72-1.93.8-.27.03-.97.25-1.99.5-.57.14-1.25.29-2 .46-.61.14-1.31.23-2.02.37-.63.12-1.3.2-2 .31-.64.1-1.33.13-2.01.21-.64.08-1.32.02-1.99.08-.62.06-1.25.11-1.89.14-.52.02.01.17-.27.27-.64.21-.82.13-2.04.11-.62-.01-1.22 0-1.98-.05-.65-.04-1.38-.09-2.06-.17-.68-.07-1.34-.28-1.97-.4-.72-.14-1.45-.13-2.01-.36-.72-.29-1.3-.58-1.56-1.04-.21-.36-.26-1.23-.34-2.16-.05-.6-.01-1.29-.02-2.06-.01-.63-.12-1.31-.1-2.03.01-.66.01-1.36.04-2.07.04-.66.06-1.35.11-2.03.05-.68.24-1.35.3-2.02.06-.68.18-1.34.25-2 .07-.67.05-1.33.12-1.95.08-.69.25-1.33.34-1.93.1-.74.03-1.44.13-1.99.18-.98.5-1.57.63-1.69.42-.92.78-.85 1.66-.91.51-.04 1.14.11 1.97.23.55.08.56-.08 1.29.12.55.15.65.11 1.49.24.66.1 2.67.54 3.45.62.7.07 1.44.44 2.2.5.72.05 1.45.12 2.18.15.73.04 1.46.06 2.17.08.76.01 1.49-.14 2.18-.15.76-.01 1.46-.14 2.08-.19.85-.06 1.55-.19 2-.32.87-.27 1.58-.22 2.18-.11.8.14 1.32.46 1.62 1.15.25.55.1 1.07.24 2.05.07.47-.15 1.25-.16 2.21-.01.65.03 1.39.04 2.16.01.71.11 1.45.13 2.21.01.73.01 1.47.03 2.2.02.77.06 1.51.08 2.2.03.79.04 1.5.06 2.11.07 1.27.26.95.14 2.11zm-1.19-6.39h-1.15l.03-2.19-2.93-3.57v-1.35h1.07V7.99h-2.52v2.52h1.04v.78l-1.12.64-6.82 2.25-7.47-1.13v-.84h1.08V9.68H21.3v2.52h1.03v.66l-3.35 7.82.27-.09-.63 1.12-.89-.46-1.15 2.25 2.25 1.14 1.14-2.24-.98-.5.84-1.51 6.8-2.29.39.03v1.11h-1.03v2.52h2.52v-2.52h-1.07l.01-1.07 4.16.3v1.33h-.97v2.52h2.52V19.8h-1.14v-1.05l4.43-2.25.39.15 4.22-.8-.03 1.77h-.93v2.52h2.52zm-5.42-5.31l-6.41 3.64.87 2.51 4.96-2.52.01.01 1.18-3.85zm-6.12 9.58h1.69v-1.68h-1.69zm5.92-5.7l3.98-.75-2.73-3.31zm3.52 3.53h1.69v-1.68h-1.69zM23.41 10.1h-1.69v1.68h1.69zm5.92 6.68l1.63.92-.53-1.54zm-6.8-3.33l-2.8 6.54 7.63-2.56 1.12-.64zm3.9 7.89h1.68v-1.69h-1.68zm1.19-3.58l3 .23-1.71-.96z" fill="#FFF"/><path d="M38.28 13.04c-.54 0-.98-.44-.98-.98s.44-.98.98-.98.98.44.98.98-.44.98-.98.98m-10.96 5.92c.57 0 1.03-.46 1.03-1.03 0-.57-.46-1.03-1.03-1.03-.57 0-1.03.46-1.03 1.03-.01.57.45 1.03 1.03 1.03m3.02-3.32c.54 0 .98-.44.98-.98s-.44-.98-.98-.98-.98.44-.98.98.44.98.98.98" fill="#E82745"/><path d="M19.47 21.59c-.54 0-.98-.44-.98-.98s.44-.98.98-.98c.55 0 .98.44.98.98 0 .55-.44.98-.98.98m17.54-4.43c.54 0 .98-.44.98-.98s-.44-.98-.98-.98-.98.44-.98.98.44.98.98.98" fill="#ED6E97"/><path d="M9.58 44.86c-.38 0-.64-.29-.64-.72 0-.42.26-.78.64-.78s.69.36.69.78c0 .42-.31.72-.69.72m8.28-7.61c.39 0 .72-.35.72-.74 0-.38-.33-.69-.72-.69-.38 0-.64.3-.64.69 0 .39.25.74.64.74m-3.26 3.31c.38 0 .68-.1.68-.48s-.36-.67-.75-.67c-.38 0-.73.28-.73.67.01.38.42.48.8.48m8.46 1.68c.39 0 .73-.3.73-.68 0-.39-.34-.66-.73-.66-.38 0-.72.27-.72.66s.34.68.72.68m13.75.35c.74 0 1.36-.64 1.36-1.38 0-.74-.65-1.37-1.39-1.37-.74 0-1.24.64-1.24 1.38 0 .73.53 1.37 1.27 1.37m-1.6-4.61c.74 0 1.41-.65 1.41-1.39 0-.73-.68-1.31-1.41-1.31-.74 0-1.29.58-1.29 1.31 0 .74.55 1.39 1.29 1.39m7.91.36c.74 0 1.32-.54 1.32-1.28s-.58-1.24-1.32-1.24c-.74 0-1.22.51-1.22 1.24-.01.74.48 1.28 1.22 1.28m-2.81 2.6c.74 0 1.34-.69 1.34-1.43s-.6-1.21-1.34-1.21c-.74 0-1.46.47-1.46 1.21s.72 1.43 1.46 1.43M22.5 14.5c.54 0 .98-.44.98-.98s-.44-.98-.98-.98-.98.44-.98.98c0 .55.44.98.98.98m18.67 2.57c.54 0 .98-.44.98-.98s-.44-.98-.98-.98-.98.44-.98.98.43.98.98.98m-9.3 2.45c.55 0 .98-.44.98-.98s-.44-.98-.98-.98-.98.44-.98.98.44.98.98.98" fill="#FFF30C"/><path d="M92.75 10.27c-.89-4.47-4.47-6.73-8.86-6.73-7.53 0-10.71 6.2-10.71 12.8 0 7.22 3.19 13.24 10.76 13.24 5.53 0 8.72-3.9 9.12-9.12h4.2c-.8 7.88-5.71 12.66-13.68 12.66-9.83 0-14.61-7.26-14.61-16.47C68.97 7.49 74.19 0 83.93 0c6.6 0 12.04 3.54 13.02 10.27zm8.01 22.09h3.77V19.43c0-4.12 2.21-7.17 6.77-7.17 2.88 0 4.65 1.81 4.65 4.6v15.5h3.76V17.31c0-4.91-1.86-8.37-7.88-8.37-2.74 0-5.98 1.15-7.22 3.9h-.09V.75h-3.77v31.61zm38.61-7.26c-.66 2.97-2.83 4.47-5.93 4.47-5 0-7.26-3.54-7.13-7.53h17.13c.22-5.53-2.26-13.11-10.36-13.11-6.24 0-10.76 5.05-10.76 11.91.22 6.99 3.67 12.04 10.98 12.04 5.14 0 8.76-2.74 9.78-7.79h-3.71zm-13.06-6.38c.27-3.5 2.61-6.46 6.55-6.46 3.72 0 6.42 2.88 6.6 6.46zm40.07-1.9c-.53-5.44-4.69-7.88-9.87-7.88-7.26 0-10.8 5.4-10.8 12.26 0 6.82 3.72 11.69 10.71 11.69 5.76 0 9.26-3.32 10.1-8.9h-3.85c-.49 3.45-2.66 5.58-6.29 5.58-4.78 0-6.69-4.16-6.69-8.37 0-4.65 1.68-8.94 7.13-8.94 3.1 0 5.09 1.68 5.67 4.56zm3.23 15.54h3.77v-8.68l3.54-3.28 7.83 11.95h4.78l-9.74-14.57 9.07-8.32h-5.05l-10.45 10.01V.75h-3.77v31.61zm33.47 0h4.21V19.43h9.65c6.29.04 9.7-3.5 9.7-9.34s-3.41-9.34-9.7-9.34h-13.86zm4.2-28.07h8.24c4.74 0 6.91 2.04 6.91 5.8s-2.17 5.84-6.91 5.8h-8.24zm31.79 4.65c-7.26 0-11.11 5.27-11.11 12 0 6.69 3.85 11.96 11.11 11.96s11.11-5.27 11.11-11.96c.01-6.73-3.84-12-11.11-12m0 20.63c-3.94 0-7.13-3.1-7.13-8.64 0-5.58 3.19-8.68 7.13-8.68s7.13 3.1 7.13 8.68c0 5.54-3.19 8.64-7.13 8.64M257.62.74h-3.76v4.61h3.76zm-3.76 31.62h3.76V9.47h-3.76zm8.5 0h3.76V19.43c0-4.12 2.21-7.17 6.77-7.17 2.88 0 4.65 1.82 4.65 4.6v15.5h3.76V17.31c0-4.91-1.86-8.37-7.88-8.37-3.28 0-5.85 1.33-7.44 4.16h-.09V9.47h-3.54v22.89zM291.1 2.61h-3.76v6.86h-3.9v3.32h3.9v14.57c0 4.21 1.55 5 5.44 5h2.88v-3.32h-1.73c-2.35 0-2.83-.31-2.83-2.04V12.79h4.56V9.47h-4.56zM77.58 43.11c-.08-2.2-1.64-3.17-3.69-3.17-1.82 0-3.63.9-3.63 2.93 0 1.84 1.61 2.3 3.21 2.65 1.6.35 3.19.59 3.19 1.96 0 1.45-1.33 1.82-2.53 1.82-1.52 0-2.92-.73-2.92-2.41h-1.26c0 2.44 1.89 3.53 4.13 3.53 1.82 0 3.91-.86 3.91-2.98 0-1.96-1.6-2.52-3.19-2.89-1.61-.36-3.21-.55-3.21-1.78 0-1.3 1.12-1.71 2.24-1.71 1.37 0 2.33.62 2.48 2.05zm6.72-3.17c-3.18 0-4.79 2.52-4.79 5.24s1.61 5.24 4.79 5.24c3.18 0 4.79-2.52 4.79-5.24 0-2.71-1.61-5.24-4.79-5.24m0 9.36c-2.44 0-3.46-2.1-3.46-4.12s1.02-4.12 3.46-4.12 3.46 2.1 3.46 4.12-1.02 4.12-3.46 4.12m6.87.89h1.33v-4.58h4.59v-1.12H92.5v-3.18h5.24v-1.12h-6.57zm10.94 0h1.33v-8.88h3.33v-1.12h-8v1.12h3.34zm18.47-10.01h-1.33l-2.03 8.32h-.03l-2.21-8.32h-1.44l-2.24 8.32h-.03l-1.96-8.32h-1.36l2.56 10h1.39l2.31-8.41h.03l2.28 8.41h1.39zm-.25 10h1.37l1.12-3.01h4.23l1.09 3.01h1.47l-3.91-10h-1.47zm4.61-8.79h.03l1.67 4.66h-3.39zm6.16 8.79h1.33v-4.27h3.25c1.29 0 1.53.83 1.67 1.81.2.98-.01 2.06.36 2.46h1.49c-.56-.69-.51-1.78-.59-2.76-.1-.98-.34-1.83-1.5-2.06v-.03c1.2-.34 1.74-1.33 1.74-2.54 0-1.6-1.16-2.62-3.04-2.62h-4.71zm1.33-5.39V41.3h3.31c1.25 0 1.78.73 1.78 1.71 0 1.46-1.07 1.78-2.31 1.78zm8.77 5.4h6.95v-1.12h-5.62v-3.46h5.2v-1.12h-5.2v-3.18h5.58v-1.12h-6.91zm15.74 0h1.33v-8.88h3.33v-1.12h-8v1.12h3.33v8.88zm6.28 0h6.95v-1.12h-5.62v-3.46h5.2v-1.12h-5.2v-3.18h5.58v-1.12h-6.91zm17.43-7c-.31-2.13-2.03-3.25-4.12-3.25-3.08 0-4.74 2.37-4.74 5.27 0 2.91 1.51 5.21 4.63 5.21 2.52 0 4.08-1.52 4.33-4.01h-1.33c-.13 1.65-1.13 2.88-2.89 2.88-2.4 0-3.4-1.91-3.4-4.19 0-2.09 1.01-4.05 3.39-4.05 1.39 0 2.52.71 2.8 2.13h1.33zm2.25 7h1.33v-4.58h5.27v4.58h1.33v-10h-1.33v4.3h-5.27v-4.3h-1.33zm10.61 0h1.26v-8.03h.03l5.22 8.03h1.46v-10h-1.26v8.11h-.03l-5.27-8.11h-1.42v10zm14.86-10.25c-3.18 0-4.79 2.52-4.79 5.24s1.61 5.24 4.79 5.24c3.18 0 4.79-2.52 4.79-5.24.01-2.71-1.6-5.24-4.79-5.24m0 9.36c-2.44 0-3.46-2.1-3.46-4.12s1.02-4.12 3.46-4.12 3.46 2.1 3.46 4.12c.01 2.02-1.02 4.12-3.46 4.12m6.8.89h6.63v-1.12h-5.3v-8.89h-1.33zm12.3-10.25c-3.18 0-4.79 2.52-4.79 5.24s1.61 5.24 4.79 5.24c3.18 0 4.79-2.52 4.79-5.24 0-2.71-1.61-5.24-4.79-5.24m0 9.36c-2.44 0-3.46-2.1-3.46-4.12s1.02-4.12 3.46-4.12 3.46 2.1 3.46 4.12-1.02 4.12-3.46 4.12m14.75.89h.84v-5.27h-4.39v1.12h3.19c.08 1.82-1.15 3.26-3.21 3.26-2.23 0-3.43-1.91-3.43-3.99 0-2.14 1.01-4.25 3.43-4.25 1.49 0 2.7.69 2.97 2.2h1.33c-.38-2.34-2.11-3.32-4.3-3.32-3.17 0-4.77 2.52-4.77 5.44 0 2.61 1.78 5.05 4.77 5.05 1.18 0 2.44-.44 3.21-1.49zm3.37-.01h1.33v-10h-1.33zm4.08.01h6.95v-1.12H251v-3.46h5.2v-1.12H251v-3.18h5.58v-1.12h-6.91zm16.11-7.08c-.08-2.2-1.64-3.17-3.69-3.17-1.82 0-3.63.9-3.63 2.93 0 1.84 1.61 2.3 3.21 2.65 1.6.35 3.19.59 3.19 1.96 0 1.45-1.33 1.82-2.53 1.82-1.51 0-2.91-.73-2.91-2.41h-1.26c0 2.44 1.89 3.53 4.13 3.53 1.82 0 3.91-.86 3.91-2.98 0-1.96-1.6-2.52-3.19-2.89-1.61-.36-3.21-.55-3.21-1.78 0-1.3 1.12-1.71 2.24-1.71 1.37 0 2.32.62 2.48 2.05zm6.71 7.08h6.63v-1.12h-5.29v-8.89h-1.33v10.01zm9.36 0h1.33v-8.88h3.33v-1.12h-8v1.12h3.33v8.88zm6.28 0h3.43c3.33 0 4.81-1.89 4.81-5.24 0-3.22-1.72-4.76-4.81-4.76h-3.43zm1.33-8.89h2.24c2.45 0 3.34 1.44 3.34 3.83 0 3.69-2.45 3.94-3.36 3.94h-2.21V41.3zm7.98 8.88H299v-1.55h-1.56zm-2.32-48c-1.43 0-2.64 1.13-2.64 2.61 0 1.5 1.2 2.63 2.64 2.63 1.43 0 2.63-1.13 2.63-2.63-.01-1.48-1.21-2.61-2.63-2.61m0 4.86c-1.22 0-2.16-.97-2.16-2.25 0-1.25.94-2.22 2.16-2.22 1.21 0 2.15.97 2.15 2.22 0 1.28-.94 2.25-2.15 2.25m-1.02-.71h.48V5.01h.51l.83 1.32h.51l-.88-1.35c.46-.05.81-.28.81-.83 0-.59-.34-.87-1.07-.87h-1.18v3.05zm.47-2.68h.63c.32 0 .67.06.67.47 0 .48-.39.51-.81.51h-.5v-.98z"/></svg>