<svg width="703" height="777" viewBox="0 0 703 777" fill="none" xmlns="http://www.w3.org/2000/svg">
<path d="M453.93 214.126H375.274C374.1 218.141 372.045 221.869 369.404 224.737L423.7 316.227C424.581 316.227 425.755 315.94 426.635 315.94C437.495 315.94 446.299 324.544 446.299 335.156C446.299 339.745 444.832 343.76 441.897 347.202L502.944 449.876C505.879 449.016 509.107 448.442 512.335 448.442C515.27 448.442 518.205 449.016 521.14 449.59L557.24 388.501L453.93 214.126Z" fill="#1BC263"/>
<path d="M357.667 29.1384L256.411 199.785H328.024C331.546 190.321 340.644 183.724 351.21 183.724C362.069 183.724 371.167 190.321 374.396 199.785H659.965L357.667 29.1384Z" fill="#1BC263"/>
<path d="M411.957 348.062L254.645 404.275C254.351 414.6 245.546 423.204 234.981 423.204C234.1 423.204 232.926 423.204 232.046 422.917L205.925 467.371C208.273 470.526 209.447 474.541 209.447 478.557C209.447 483.145 207.979 487.161 205.338 490.602L248.481 563.163H454.514L491.494 500.354C485.624 494.904 481.808 487.161 481.808 478.27C481.808 469.953 485.33 462.209 490.907 456.76L429.86 353.798C428.98 353.798 427.806 354.085 426.925 354.085C421.055 354.372 415.772 352.077 411.957 348.062Z" fill="#1BC263"/>
<path d="M327.44 214.126H247.904L144.3 388.214L186.27 458.767C187.15 458.767 187.737 458.767 188.618 458.767C190.379 458.767 192.14 459.054 193.901 459.341L219.435 416.034C216.793 412.592 215.032 408.577 215.032 403.988C215.032 393.377 223.837 384.772 234.696 384.772C235.577 384.772 236.751 384.772 237.631 385.059L332.43 224.164C330.082 221.009 328.321 217.567 327.44 214.126Z" fill="#1BC263"/>
<path d="M344.76 231.335L251.136 390.51L407.274 334.87C407.274 330.568 409.035 326.553 411.677 323.398L357.381 231.909C355.62 232.195 353.565 232.482 351.804 232.482C349.163 232.195 346.815 231.909 344.76 231.335Z" fill="#1BC263"/>
<path d="M672.87 214.126H470.653L672.87 554.846V214.126Z" fill="#1BC263"/>
<path d="M565.752 402.555L533.761 456.761C539.631 462.21 543.447 469.954 543.447 478.844C543.447 495.479 529.652 509.245 512.336 509.245C509.401 509.245 506.466 508.672 503.532 508.098L364.709 743.848L666.714 573.489L565.752 402.555Z" fill="#1BC263"/>
<path d="M338.876 32.8677L35.1108 204.088L136.072 374.161L338.876 32.8677Z" fill="#1BC263"/>
<path d="M43.6279 577.503L345.632 747.862L446.007 577.503H43.6279Z" fill="#1BC263"/>
<path d="M30.1284 223.59V563.162H231.758L193.017 498.345C191.55 498.632 190.082 498.919 188.615 498.919C177.168 498.919 168.07 489.741 168.07 478.843C168.07 473.68 170.125 468.805 173.353 465.363L30.1284 223.59Z" fill="#1BC263"/>
</svg>
