<svg version="1.0" xmlns="http://www.w3.org/2000/svg"
 width="1092.000000pt" height="537.000000pt" viewBox="0 0 1092.000000 537.000000"
 preserveAspectRatio="xMidYMid meet">

<g transform="translate(0.000000,537.000000) scale(0.100000,-0.100000)"
fill="#000000" stroke="none">
<path d="M5066 4069 c-430 -45 -791 -325 -898 -696 -19 -64 -23 -103 -23 -213
0 -163 14 -224 85 -365 133 -267 387 -452 725 -527 73 -16 140 -21 363 -25
152 -3 272 -1 272 3 0 5 -39 19 -86 31 -195 51 -358 145 -499 288 -107 108
-171 211 -216 345 -40 119 -51 290 -26 406 54 255 216 467 466 614 36 21 76
41 89 45 41 12 24 -19 -34 -60 -211 -151 -348 -417 -361 -703 -6 -119 9 -286
27 -297 4 -2 10 39 13 93 8 122 27 195 80 302 59 121 178 241 297 298 47 23
112 49 145 57 75 19 231 19 312 0 154 -36 305 -142 402 -282 l22 -33 181 0
180 0 -7 38 c-4 20 -21 76 -39 124 -114 304 -372 516 -679 557 -91 13 -673 12
-791 0z"/>
<path d="M5730 3223 c0 -5 19 -21 41 -38 53 -38 113 -122 140 -194 99 -265
-78 -552 -373 -601 -38 -7 -88 -9 -109 -6 -22 4 -39 2 -39 -3 0 -11 79 -36
168 -53 75 -15 282 -14 357 1 247 51 456 178 596 363 72 97 108 166 142 275
21 64 47 208 47 255 0 5 -218 8 -485 8 -267 0 -485 -3 -485 -7z"/>
<path d="M3432 1995 c-69 -19 -103 -38 -143 -77 -66 -67 -91 -174 -65 -279 29
-111 93 -167 227 -195 84 -18 274 -14 369 9 l55 12 3 143 3 142 -156 0 -155 0
0 -50 0 -50 75 0 75 0 0 -49 c0 -54 5 -51 -95 -66 -53 -8 -140 10 -176 36 -46
32 -63 74 -63 154 -1 85 25 135 85 165 78 40 211 16 226 -41 5 -17 15 -19 95
-19 78 0 89 2 84 16 -3 9 -6 22 -6 30 0 27 -70 92 -118 109 -66 24 -250 30
-320 10z"/>
<path d="M7535 2001 c-33 -14 -56 -47 -62 -90 -5 -36 -2 -44 30 -76 30 -30 42
-35 80 -35 54 0 91 26 107 74 28 86 -66 163 -155 127z m123 -36 c34 -40 30
-96 -9 -129 -56 -47 -137 -28 -159 38 -16 49 10 99 60 119 30 12 85 -2 108
-28z"/>
<path d="M7542 1898 c0 -35 3 -48 5 -30 5 40 16 40 54 0 16 -18 29 -28 29 -24
0 5 -7 18 -17 28 -15 16 -15 20 0 36 24 26 5 52 -38 52 l-35 0 2 -62z m66 30
c3 -14 -3 -18 -27 -18 -25 0 -31 4 -31 21 0 16 5 20 27 17 17 -2 29 -10 31
-20z"/>
<path d="M3970 1950 l0 -50 85 0 85 0 0 50 0 50 -85 0 -85 0 0 -50z"/>
<path d="M4337 1826 c-119 -44 -161 -192 -86 -298 61 -85 245 -96 332 -20 16
14 17 12 17 -30 0 -57 -27 -93 -81 -109 -49 -15 -119 2 -126 32 -5 17 -15 19
-79 19 -71 0 -74 -1 -74 -24 0 -69 88 -111 230 -110 145 1 222 31 264 104 19
32 21 55 24 238 l4 202 -76 0 c-74 0 -76 -1 -76 -25 0 -14 -2 -25 -4 -25 -2 0
-25 12 -51 26 -58 33 -160 42 -218 20z m239 -100 c48 -55 36 -148 -22 -175
-35 -15 -99 -14 -133 4 -72 37 -63 163 14 196 11 5 42 7 69 5 39 -3 55 -9 72
-30z"/>
<path d="M4977 1830 c-59 -15 -95 -38 -112 -70 -8 -16 -15 -31 -15 -35 0 -3
34 -5 76 -5 65 0 78 3 93 21 26 32 98 37 134 9 16 -13 27 -31 27 -46 0 -24 0
-24 -114 -24 -161 0 -215 -23 -236 -101 -8 -29 -7 -46 4 -73 24 -57 56 -71
161 -71 79 0 96 3 137 26 l46 27 6 -24 c6 -22 11 -24 77 -24 l71 0 -4 149 c-3
133 -5 153 -24 178 -39 52 -77 66 -188 69 -55 2 -118 -1 -139 -6z m199 -242
c-9 -45 -35 -68 -84 -75 -53 -7 -89 2 -102 26 -25 47 29 76 149 80 l44 1 -7
-32z"/>
<path d="M5659 1826 c-21 -7 -50 -23 -65 -35 l-29 -23 -3 31 -3 31 -75 0 -74
0 0 -195 0 -195 75 0 75 0 0 120 c0 145 10 173 70 191 48 15 92 0 109 -37 6
-14 11 -78 11 -149 l0 -125 75 0 75 0 0 129 c0 123 1 131 24 158 20 23 32 28
69 28 30 0 52 -6 66 -19 19 -18 21 -29 21 -158 l0 -138 80 0 80 0 0 115 c0
152 -12 206 -55 244 -63 55 -183 54 -258 -3 l-43 -33 -18 25 c-37 49 -130 66
-207 38z"/>
<path d="M6458 1827 c-99 -28 -149 -93 -149 -192 0 -144 108 -215 309 -202
159 10 241 77 242 197 0 87 -31 138 -105 175 -51 26 -72 30 -155 32 -56 2
-114 -3 -142 -10z m177 -71 c92 -39 86 -204 -10 -236 -51 -17 -99 -5 -129 31
-21 25 -26 41 -26 88 0 106 71 156 165 117z"/>
<path d="M7167 1825 c-22 -7 -49 -23 -61 -34 -30 -28 -36 -26 -36 9 l0 30 -75
0 -75 0 0 -195 0 -195 74 0 74 0 3 123 c5 143 16 169 78 188 46 14 84 6 111
-21 18 -18 20 -34 20 -155 l0 -135 75 0 75 0 0 148 c0 130 -2 151 -20 180 -39
63 -152 90 -243 57z"/>
<path d="M3980 1635 l0 -195 75 0 75 0 0 195 0 195 -75 0 -75 0 0 -195z"/>
</g>
</svg>
