<?xml version="1.0" encoding="UTF-8"?><svg id="uuid-c5489571-937e-42c1-b703-bf7b29f68b1f" xmlns="http://www.w3.org/2000/svg" viewBox="0 0 2371.08 1059.55"><defs><style>.uuid-b89f1bba-154b-4234-a8e8-bb2370da42b2{fill:#1979d4;}.uuid-47b0087c-9bb7-4923-836f-5d3b80d085a3{fill:#00214f;}</style></defs><path class="uuid-47b0087c-9bb7-4923-836f-5d3b80d085a3" d="M245.67,117.43l128.04,302.96c-17.18,14.74-41.21,24.13-70.19,30.36l-58.35-135.35-59.04,137.03s35.01,17.93,78.4,16.88,78.08-12.4,114.41-35.77l107.23,252.88h-82.13l-69.76-163.97s-30.07,10.95-75.43,10.68c-52.35,.26-97.71-19.81-97.71-19.81l-73.42,173.1H5.17L245.67,117.43Z"/><g><path class="uuid-b89f1bba-154b-4234-a8e8-bb2370da42b2" d="M109.41,409.8c-29.01-34.18-46.51-78.43-46.51-126.77,0-108.26,87.76-196.02,196.02-196.02,61.46,0,116.31,28.28,152.25,72.54l45.85-43.27c-47.5-56.37-118.61-92.18-198.09-92.18C115.92,24.1,0,140.02,0,283.02c0,74.1,31.13,140.93,81.01,188.12l28.39-61.35Z"/><path class="uuid-b89f1bba-154b-4234-a8e8-bb2370da42b2" d="M423.77,391.94c-10.11,13.23-21.86,25.13-34.96,35.4l25.27,59.44c19.68-13.49,37.41-28.87,52.67-47.14l-42.98-47.7Z"/></g></svg>