<?xml version="1.0" encoding="UTF-8" standalone="no"?>
<svg width="212px" height="250px" viewBox="0 0 212 250" version="1.1" xmlns="http://www.w3.org/2000/svg" xmlns:xlink="http://www.w3.org/1999/xlink">
  <path d="M129.978807,0.04 C163.717357,1.23306977 190.703,28.9646487 190.703,63.002 L190.703,99.788 L192.509,99.788 C203.006,99.788 211.516,108.294 211.516,118.793 L211.516,230.995 C211.516,241.491 203.015,250 192.509,250 L19.491,250 C8.994,250 0.484,241.494 0.484,230.995 L0.484,118.793 C0.484,108.297 8.985,99.788 19.491,99.788 L21.297,99.788 L21.297,63.002 C21.297,28.9656137 48.2922331,1.23309081 82.0218585,0.04 L129.978807,0.04 L129.978807,0.04 L129.978807,0.04 Z M61.157,99.788 L152.089,99.788 L152.089,57.831 C152.089,44.019 140.897,32.823 127.091,32.823 L86.155,32.823 C72.353,32.823 61.157,44.02 61.157,57.831 L61.157,99.788 L61.157,99.788 Z M83.174,174.498 L122.998,159.211 C126.693,162.678 131.596,164.79 136.977,164.79 C148.472,164.79 157.79,155.15 157.79,143.259 C157.79,131.368 148.472,121.729 136.977,121.729 C126.789,121.729 118.311,129.302 116.515,139.303 L51.471,164.271 C48.001,165.603 45.65,168.581 44.966,171.971 C43.461,177.137 46.143,182.68 51.26,184.644 L116.408,209.652 C117.944,219.975 126.568,227.879 136.977,227.879 C148.472,227.879 157.79,218.24 157.79,206.349 C157.79,194.458 148.472,184.818 136.977,184.818 C131.823,184.818 127.106,186.756 123.471,189.967 L83.174,174.498 L83.174,174.498 Z" id="path-1" style="fill:#58b4d9" fill-opacity="1"/>
</svg>