<svg xmlns="http://www.w3.org/2000/svg" width="75" height="75" viewBox="0 0 75 75" fill="none">
  <path d="M 20 0 L 56 0 L 56 75 L 20 75 Z M 20 0"/>
  <path d="M 44.1875 8.359375 C 40.999999 4.625 38.333333 0.833333 37.75 0.0416667 C 37.6875 -0.015625 37.604166 -0.015625 37.541666 0.0416667 C 36.958333 0.833333 34.291666 4.625 31.104166 8.359375 C 3.963541 42.8125 35.375 66.0625 35.375 66.0625 L 35.640625 66.25 C 35.875 69.833333 36.458333 75 36.458333 75 L 38.791666 75 C 38.791666 75 39.385416 69.875 39.61875 66.25 L 39.885416 66.041666 C 39.916666 66.041666 71.333333 42.8125 44.1875 8.359375 Z M 37.625 65.546875 C 37.625 65.546875 36.229166 64.349999 35.84375 63.739583 L 35.84375 63.666666 L 37.541666 26.15625 C 37.541666 26.041666 37.71875 26.041666 37.71875 26.15625 L 39.416666 63.666666 L 39.416666 63.739583 C 39.03125 64.349999 37.625 65.546875 37.625 65.546875 Z M 37.625 65.546875" fill="#00694A"/>
</svg>
