<?xml version="1.0" encoding="UTF-8"?>
<svg xmlns="http://www.w3.org/2000/svg" width="56.25pt" height="56.25pt" viewBox="0 0 56.25 56.25" version="1.1">
<defs>
<clipPath id="clip1">
  <path d="M 15 0 L 42 0 L 42 56.25 L 15 56.25 Z M 15 0 "/>
</clipPath>
</defs>
<g id="surface2">
<g clip-path="url(#clip1)" clip-rule="nonzero">
<path d="M 33.140625 6.269531 C 30.769531 3.46875 28.726562 0.625 28.3125 0.03125 C 28.265625 -0.0117188 28.203125 -0.0117188 28.15625 0.03125 C 27.742188 0.625 25.699219 3.46875 23.328125 6.269531 C 2.972656 32.113281 26.53125 49.554688 26.53125 49.554688 L 26.730469 49.683594 C 26.90625 52.375 27.34375 56.25 27.34375 56.25 L 29.101562 56.25 C 29.101562 56.25 29.539062 52.398438 29.714844 49.683594 L 29.914062 49.53125 C 29.9375 49.53125 53.496094 32.113281 33.140625 6.269531 Z M 28.222656 49.160156 C 28.222656 49.160156 27.167969 48.261719 26.882812 47.804688 L 26.882812 47.757812 L 28.15625 19.617188 C 28.15625 19.53125 28.289062 19.53125 28.289062 19.617188 L 29.5625 47.757812 L 29.5625 47.804688 C 29.277344 48.261719 28.222656 49.160156 28.222656 49.160156 Z M 28.222656 49.160156 "/>
</g>
</g>
</svg>
