<svg version="1.1" id="Layer_1" xmlns="http://www.w3.org/2000/svg" xmlns:xlink="http://www.w3.org/1999/xlink" x="0px" y="0px"
	 width="100%" viewBox="0 0 230 230" enable-background="new 0 0 230 230" xml:space="preserve">
<path fill="#001E2B" opacity="1.000000" stroke="none" 
	d="
M113.000000,231.000000 
	C75.333336,231.000000 38.166672,231.000000 1.000005,231.000000 
	C1.000003,154.333344 1.000003,77.666679 1.000002,1.000015 
	C77.666656,1.000010 154.333313,1.000010 230.999969,1.000005 
	C230.999985,77.666649 230.999985,154.333298 231.000000,230.999969 
	C191.833328,231.000000 152.666672,231.000000 113.000000,231.000000 
M120.047409,42.389744 
	C118.866730,40.847782 117.686043,39.305817 115.981522,37.079720 
	C108.534554,46.857655 100.989922,55.734646 94.578758,65.366119 
	C71.163406,100.542961 73.917084,139.287109 102.401245,167.553802 
	C109.257950,174.358154 113.419365,181.038437 113.184235,190.618546 
	C113.150047,192.011230 115.022697,193.450699 116.012993,194.868530 
	C116.970161,193.437988 118.758591,192.002502 118.750145,190.577682 
	C118.693573,181.034180 122.811478,174.297119 129.669739,167.474945 
	C155.264648,142.014694 160.363525,108.099838 143.315445,76.185738 
	C137.024445,64.408958 128.137970,54.018646 120.047409,42.389744 
z"/>
<path fill="#00EA63" opacity="1.000000" stroke="none" 
	d="
M120.241348,42.692856 
	C128.137970,54.018646 137.024445,64.408958 143.315445,76.185738 
	C160.363525,108.099838 155.264648,142.014694 129.669739,167.474945 
	C122.811478,174.297119 118.693573,181.034180 118.750145,190.577682 
	C118.758591,192.002502 116.970161,193.437988 116.012993,194.868530 
	C115.022697,193.450699 113.150047,192.011230 113.184235,190.618546 
	C113.419365,181.038437 109.257950,174.358154 102.401245,167.553802 
	C73.917084,139.287109 71.163406,100.542961 94.578758,65.366119 
	C100.989922,55.734646 108.534554,46.857655 115.981522,37.079720 
	C117.686043,39.305817 118.866730,40.847782 120.241348,42.692856 
M118.872269,138.335815 
	C118.508751,135.163727 118.145241,131.991638 117.670685,127.914124 
	C117.457336,122.940018 117.243988,117.965904 117.387695,112.259026 
	C117.295189,107.492790 117.202690,102.726555 117.082214,97.321075 
	C116.759956,96.403473 116.437706,95.485863 116.115456,94.568253 
	C115.851128,94.619942 115.586807,94.671631 115.322479,94.723312 
	C115.215698,95.815544 115.108925,96.907768 114.824219,98.809074 
	C114.872620,103.536629 114.921021,108.264191 114.842377,113.917252 
	C114.509590,121.935600 114.176811,129.953949 113.552757,138.690262 
	C113.554131,140.511261 113.555504,142.332260 113.386292,145.049622 
	C113.268517,149.368301 113.150742,153.686996 112.692177,158.728882 
	C112.612579,161.531189 112.532982,164.333511 112.277603,167.891647 
	C113.481354,169.989807 114.743736,173.882095 115.877701,173.845032 
	C119.099617,173.739731 120.259865,170.876068 119.658699,167.621506 
	C119.628456,167.457809 119.584137,167.296692 119.737724,166.274597 
	C119.480957,163.518967 119.224182,160.763351 118.995300,157.079193 
	C118.811226,152.770462 118.627151,148.461746 118.652390,143.353577 
	C118.681923,141.978867 118.711456,140.604141 118.872269,138.335815 
z"/>
<path fill="#001D2B" opacity="1.000000" stroke="none" 
	d="
M113.844025,137.972290 
	C114.176811,129.953949 114.509590,121.935600 115.249252,113.474129 
	C116.114288,113.017937 116.572464,113.004868 117.030640,112.991798 
	C117.243988,117.965904 117.457336,122.940018 117.521912,128.788818 
	C117.316238,132.703445 117.259331,135.743393 117.240112,139.146683 
	C117.666229,141.057693 118.054649,142.605347 118.443069,144.153015 
	C118.627151,148.461746 118.811226,152.770462 118.828247,157.890411 
	C118.956253,161.512558 119.251312,164.323471 119.546379,167.134384 
	C119.584137,167.296692 119.628456,167.457809 119.658699,167.621506 
	C120.259865,170.876068 119.099617,173.739731 115.877701,173.845032 
	C114.743736,173.882095 113.481354,169.989807 112.594101,167.251526 
	C112.951393,163.742844 112.992188,160.874252 113.032974,158.005676 
	C113.150742,153.686996 113.268517,149.368301 113.676414,144.358093 
	C113.925697,141.768463 113.884857,139.870377 113.844025,137.972290 
z"/>
<path fill="#00B053" opacity="1.000000" stroke="none" 
	d="
M117.209167,112.625412 
	C116.572464,113.004868 116.114288,113.017937 115.312767,113.011375 
	C114.921021,108.264191 114.872620,103.536629 115.264290,98.399063 
	C116.172966,97.979477 116.641579,97.969902 117.110184,97.960320 
	C117.202690,102.726555 117.295189,107.492790 117.209167,112.625412 
z"/>
<path fill="#00B053" opacity="1.000000" stroke="none" 
	d="
M117.202423,138.783340 
	C117.259331,135.743393 117.316238,132.703445 117.577438,129.241516 
	C118.145241,131.991638 118.508751,135.163727 118.552399,138.700073 
	C117.889160,138.970657 117.545784,138.876999 117.202423,138.783340 
z"/>
<path fill="#00553A" opacity="1.000000" stroke="none" 
	d="
M112.862579,158.367279 
	C112.992188,160.874252 112.951393,163.742844 112.681992,166.873627 
	C112.532982,164.333511 112.612579,161.531189 112.862579,158.367279 
z"/>
<path fill="#00553A" opacity="1.000000" stroke="none" 
	d="
M119.642052,166.704498 
	C119.251312,164.323471 118.956253,161.512558 118.814301,158.354675 
	C119.224182,160.763351 119.480957,163.518967 119.642052,166.704498 
z"/>
<path fill="#00553A" opacity="1.000000" stroke="none" 
	d="
M113.698387,138.331268 
	C113.884857,139.870377 113.925697,141.768463 113.761703,143.909912 
	C113.555504,142.332260 113.554131,140.511261 113.698387,138.331268 
z"/>
<path fill="#00B053" opacity="1.000000" stroke="none" 
	d="
M117.096199,97.640701 
	C116.641579,97.969902 116.172966,97.979477 115.353256,97.994530 
	C115.108925,96.907768 115.215698,95.815544 115.322479,94.723312 
	C115.586807,94.671631 115.851128,94.619942 116.115456,94.568253 
	C116.437706,95.485863 116.759956,96.403473 117.096199,97.640701 
z"/>
<path fill="#00553A" opacity="1.000000" stroke="none" 
	d="
M117.240112,139.146683 
	C117.545784,138.876999 117.889160,138.970657 118.486763,139.146881 
	C118.711456,140.604141 118.681923,141.978867 118.547729,143.753296 
	C118.054649,142.605347 117.666229,141.057693 117.240112,139.146683 
z"/>
</svg>