<?xml version="1.0" encoding="utf-8"?>
<!-- Generator: Adobe Illustrator 27.5.0, SVG Export Plug-In . SVG Version: 6.00 Build 0)  -->
<svg version="1.1" id="Layer_1" xmlns="http://www.w3.org/2000/svg" xmlns:xlink="http://www.w3.org/1999/xlink" x="0px" y="0px"
	 viewBox="0 0 1177 298" style="enable-background:new 0 0 1177 298;" xml:space="preserve">
<style type="text/css">
	.st0{fill:#535353;}
	.st1{fill:url(#x-leg-grd_00000046332473380838648760000013588425349432738491_);}
	.st2{fill:#3492C9;}
	.st3{fill:url(#mother-cell_00000063626685125952341460000009640405894030157753_);}
</style>
<g id="sn-new-logo-horizontal-b">
	<path id="slashnext-text" class="st0" d="M458.54,169.18L446.3,199.6h-9.26l40.82-101.43h9.26h0.46l40.82,101.43h-9.26
		l-36.48-90.45l-20.47,50.77h29.27l4.8,9.38h-37.74V169.18z M746.36,121.04v79.59h-15.55V97.03h16.01l56.49,77.65V97.03h15.55v103.6
		h-15.09L746.36,121.04z M841.85,96.91h69.64v13.72H857.4v30.3h53.06v13.72H857.4v32.36h54.09v13.72h-69.64L841.85,96.91
		L841.85,96.91z M1026.18,96.91H1106v13.72h-32.02v90h-15.55v-90h-32.25V96.91z M283.69,178.9c7.66,9.49,19.1,14.98,31.33,14.98
		c20.35,0,26.3-11.78,26.3-20.35c0-14.52-13.15-18.07-27.67-22.18c-15.89-4.57-32.7-9.03-32.7-27.67
		c0.46-16.81,14.98-27.22,33.16-27.22c14.98,0,26.3,5.49,33.96,14.52l-5.95,6.29c-6.98-8.46-17.61-13.15-28.59-12.69
		c-13.15,0-23.1,7.66-23.1,18.53c0,12.24,12.69,15.44,26.3,18.98c16.35,4.57,33.96,9.95,33.96,30.3c0,13.15-8.58,29.05-35.79,29.05
		c-16.35,0-29.05-6.75-36.71-16.35L283.69,178.9z M371.17,98.28h8.58v93.31h48.49v7.66h-57.18V98.28
		C371.06,98.28,371.17,98.28,371.17,98.28z M541.22,178.9c7.66,9.49,19.1,14.98,31.33,14.98c20.35,0,26.3-11.78,26.3-20.35
		c0-14.52-13.15-18.07-27.67-22.18c-15.89-4.57-32.7-9.03-32.7-27.67c0-16.81,14.52-27.22,33.16-27.22
		c14.98,0,26.3,5.49,33.96,14.52l-5.95,6.29c-6.98-8.46-17.61-13.15-28.59-12.69c-13.15,0-23.56,7.66-23.56,18.53
		c0,12.24,12.69,15.44,26.3,18.98c16.35,4.57,33.96,9.95,33.96,30.3c0,13.15-8.58,29.05-35.79,29.05
		c-16.35,0-29.05-6.75-36.71-16.35L541.22,178.9z M700.97,151.23H637.5v48.49h-8.58V98.28h8.58v45.28h63.47V98.28h8.58v101.43h-8.58
		V151.23z M1017.72,96.23l-78.33,104.4h-19.33l78.79-104.4C998.85,96.23,1017.72,96.23,1017.72,96.23z"/>
	<path id="grey-cells" class="st0" d="M201.02,180.28c-0.91,0.91-4.8,5.15-4.8,10.63c0,4.12,4.92,10.06,5.26,10.52
		c2.06,2.06,3.32,4.92,3.32,8c0,6.29-5.15,11.44-11.44,11.44c-6.29,0-11.44-5.15-11.44-11.44c0-2.4,0.69-4.57,2.06-6.4l0,0
		c0,0,0,0,0.11-0.11c0.46-0.69,1.03-1.26,1.6-1.83c1.72-2.17,4.12-5.95,4.23-10.18c0.11-4.35-3.2-9.15-4.8-11.21
		c-1.94-2.06-3.09-4.8-3.09-7.78c0-6.29,5.15-11.44,11.44-11.44c6.29,0,11.44,5.15,11.44,11.44
		C204.68,175.13,203.31,178.1,201.02,180.28z M127.15,209.32c0,6.29-5.15,11.44-11.44,11.44s-11.44-5.15-11.44-11.44
		c0-6.29,5.15-11.44,11.44-11.44C122.12,198,127.15,203.03,127.15,209.32z M93.87,148.94c0,6.29-5.15,11.44-11.44,11.44
		S71,155.23,71,148.94c0-6.29,5.15-11.44,11.44-11.44S93.87,142.65,93.87,148.94z M204.68,126.3c0,6.29-5.15,11.44-11.44,11.44
		c-6.29,0-11.44-5.15-11.44-11.44c0-6.29,5.15-11.44,11.44-11.44C199.65,114.87,204.68,120.01,204.68,126.3z M165.91,190.57
		c0,6.29-5.15,11.44-11.44,11.44c-6.29,0-11.44-5.15-11.44-11.44c0-6.29,5.15-11.44,11.44-11.44
		C160.88,179.13,165.91,184.28,165.91,190.57z"/>
	
		<linearGradient id="x-leg-grd_00000031899197186684025960000013549951545977257386_" gradientUnits="userSpaceOnUse" x1="-967.9713" y1="499.875" x2="-967.5081" y2="499.1865" gradientTransform="matrix(134.0753 0 0 -109.1017 130721.2266 54626.7891)">
		<stop  offset="0" style="stop-color:#55BBEB"/>
		<stop  offset="1" style="stop-color:#2075A7"/>
	</linearGradient>
	<polygon id="x-leg-grd" style="fill:url(#x-leg-grd_00000031899197186684025960000013549951545977257386_);" points="921.66,95.31 
		940.88,95.31 1020.46,199.14 1025.95,206.35 1074.9,215.38 1055.23,220.07 1010.97,212.29 1000,197.89 	"/>
	<path id="blue-cells" class="st2" d="M124.4,133.73c-0.11,0.11-6.06,7.66-5.95,14.98c0.11,7.32,5.95,15.55,6.29,16.12
		c1.49,1.94,2.4,4.35,2.4,7.09c0,6.29-5.15,11.44-11.44,11.44s-11.44-5.15-11.44-11.44c0-2.29,0.69-4.46,1.83-6.29
		c0.46-0.91,5.83-10.52,6.18-18.18c0.23-4.57-2.97-10.29-5.03-13.49c-0.69-0.69-1.14-1.49-1.6-2.29c-0.11-0.11-0.11-0.23-0.11-0.23
		l0,0c-0.8-1.6-1.26-3.32-1.26-5.15c0-6.29,5.15-11.44,11.44-11.44s11.44,5.15,11.44,11.44
		C127.15,129.16,126.12,131.79,124.4,133.73z M118.68,98.86c-0.91,0.23-1.94,0.34-2.97,0.34l0,0c-6.29,0-11.44-5.15-11.44-11.44
		s5.15-11.44,11.44-11.44c4.92,0,9.15,3.09,10.75,7.43c0.34,0.8,3.89,8.81,10.18,11.78c5.49,2.52,12.01,1.37,14.41,0.8
		c1.03-0.34,2.29-0.57,3.43-0.57c6.29,0,11.44,5.15,11.44,11.44s-5.15,11.44-11.44,11.44c-4.57,0-8.46-2.63-10.29-6.52
		c-2.06-3.09-6.29-8.92-11.32-11.78C128.86,98.28,122.46,98.51,118.68,98.86z M165.91,65.81c0,6.29-5.15,11.44-11.44,11.44
		c-6.29,0-11.44-5.15-11.44-11.44s5.15-11.44,11.44-11.44C160.88,54.37,165.91,59.52,165.91,65.81z M204.68,87.88
		c0,6.29-5.15,11.44-11.44,11.44c-6.29,0-11.44-5.15-11.44-11.44s5.15-11.44,11.44-11.44C199.65,76.44,204.68,81.59,204.68,87.88z
		 M238.07,107.43c0,6.29-5.15,11.44-11.44,11.44c-6.29,0-11.44-5.15-11.44-11.44S220.34,96,226.63,96
		C232.92,96,238.07,101.14,238.07,107.43z M93.87,107.43c0,6.29-5.15,11.44-11.44,11.44S71,113.72,71,107.43S76.15,96,82.44,96
		S93.87,101.14,93.87,107.43z M238.07,148.94c0,6.29-5.15,11.44-11.44,11.44c-6.29,0-11.44-5.15-11.44-11.44
		c0-6.29,5.15-11.44,11.44-11.44C232.92,137.51,238.07,142.65,238.07,148.94z M238.07,190.57c0,6.29-5.15,11.44-11.44,11.44
		c-6.29,0-11.44-5.15-11.44-11.44c0-6.29,5.15-11.44,11.44-11.44C232.92,179.13,238.07,184.28,238.07,190.57z M93.87,190.57
		c0,6.29-5.15,11.44-11.44,11.44S71,196.86,71,190.57c0-6.29,5.15-11.44,11.44-11.44S93.87,184.28,93.87,190.57z M165.91,232.19
		c0,6.29-5.15,11.44-11.44,11.44c-6.29,0-11.44-5.15-11.44-11.44c0-6.29,5.15-11.44,11.44-11.44
		C160.88,220.76,165.91,225.9,165.91,232.19z"/>
	
		<linearGradient id="mother-cell_00000118398697237335247480000017986915583382256573_" gradientUnits="userSpaceOnUse" x1="-951.5038" y1="484.7678" x2="-951.5038" y2="483.6803" gradientTransform="matrix(42.7851 0 0 -42.7354 40864.7773 20842.8223)">
		<stop  offset="0" style="stop-color:#55BBEB"/>
		<stop  offset="1" style="stop-color:#2075A7"/>
	</linearGradient>
	<path id="mother-cell" style="fill:url(#mother-cell_00000118398697237335247480000017986915583382256573_);" d="M154.59,173.07
		c-13.49,0-24.47-10.98-24.47-24.47c0-13.49,10.98-24.47,24.47-24.47s24.47,10.98,24.47,24.47S168.08,173.07,154.59,173.07z
		 M162.48,148.26c3.66,0,6.75-2.97,6.75-6.75c0-3.66-2.97-6.75-6.75-6.75c-3.66,0-6.75,2.97-6.75,6.75
		C155.85,145.28,158.82,148.26,162.48,148.26z"/>
</g>
</svg>
