<svg xmlns="http://www.w3.org/2000/svg" viewBox="0 0 51.7 50.48">
  <defs/>
  <path fill="#003870" d="M9.27 19.13v1.23H3.33v3.62h5.69v1.21H3.33v4.35H2.04V19.13h7.23zm3.37 9.19h5.67v1.2h-6.96V19.13h1.29v9.19zm14.06-2.27l-2.47-5.61-2.47 5.61-.5 1.18-1.01 2.29h-1.42l4.67-10.39h1.46l4.67 10.39h-1.4l-1.02-2.29m7.88-1.45h-2.53v3.74h-1.29V19.13H36a3.41 3.41 0 012.59 1 3.55 3.55 0 01.21 4.54 3.12 3.12 0 01-2.27 1L40 29.52h-1.67zM37.64 24a2.1 2.1 0 00.59-1.53 2.14 2.14 0 00-.58-1.47 2.09 2.09 0 00-1.65-.71h-3.44v4.33h3.38a2.27 2.27 0 001.7-.6m4.22-4.89h7.32v1.19h-6.04v3.25h5.78v1.2h-5.78v3.52h6.28v1.23h-7.56V19.13zm-9.33 12.18a1.63 1.63 0 00-.44-.08 1.24 1.24 0 00-.5.1.31.31 0 00-.21.29.2.2 0 00.05.15.45.45 0 00.17.11l.22.06h.29a2 2 0 01.32.05 1.33 1.33 0 01.29.07.77.77 0 01.24.11.57.57 0 01.16.18.56.56 0 010 .57.61.61 0 01-.26.21 2 2 0 01-.35.11 2.38 2.38 0 01-.39 0 1.67 1.67 0 01-.69-.13.86.86 0 01-.45-.39l.28-.13a.81.81 0 00.36.29 1.25 1.25 0 00.51.1 1.14 1.14 0 00.26 0 1.05 1.05 0 00.24-.06.43.43 0 00.19-.13.31.31 0 00.07-.21.27.27 0 00-.06-.17.41.41 0 00-.18-.12l-.24-.07-.3-.05h-.31l-.27-.07a.9.9 0 01-.24-.11.57.57 0 01-.15-.16.51.51 0 010-.53.65.65 0 01.26-.2 1.59 1.59 0 01.33-.1 2 2 0 01.36 0 1.8 1.8 0 01.6.09.88.88 0 01.42.32l-.25.13a.69.69 0 00-.32-.21m.82-.29v-.01h.41l.81 1.07.83-1.07h.4v.01l-1.06 1.33v.91h-.35v-.91l-1.04-1.33zm4.18.27a1.63 1.63 0 00-.45-.08 1.27 1.27 0 00-.5.1.31.31 0 00-.21.29.25.25 0 000 .15.56.56 0 00.17.11 2 2 0 00.23.06h.28a1.94 1.94 0 01.33.05 1.26 1.26 0 01.28.07.84.84 0 01.25.11.45.45 0 01.15.18.52.52 0 01.07.25.58.58 0 01-.1.32.71.71 0 01-.27.21 1.69 1.69 0 01-.34.11 2.56 2.56 0 01-.39 0 1.67 1.67 0 01-.69-.13.79.79 0 01-.35-.31l.27-.13a.85.85 0 00.37.29 1.24 1.24 0 00.5.1 1.1 1.1 0 00.26 0 .94.94 0 00.24-.06.43.43 0 00.19-.13.31.31 0 00.07-.21.27.27 0 00-.06-.17.41.41 0 00-.18-.12l-.24-.07-.3-.05h-.31l-.27-.07a.82.82 0 01-.23-.11.57.57 0 01-.15-.16.51.51 0 010-.53.62.62 0 01.25-.2 1.8 1.8 0 01.33-.1 2.2 2.2 0 01.36 0 1.8 1.8 0 01.6.09.88.88 0 01.42.32l-.25.13a.66.66 0 00-.31-.21m.86-.13v-.25h2.18v.25h-.92v2h-.33v-2h-.93zm2.6-.25h1.9v.26h-1.57v.7h1.5v.26h-1.5v.76h1.63v.27h-1.96v-2.25zm3.89 1.54h-.07l-.97-1.14v1.85h-.34v-2.25h.41l.94 1.16.94-1.16h.41v2.25h-.34v-1.84l-.98 1.13zm3.41-1.26a1.63 1.63 0 00-.44-.08 1.24 1.24 0 00-.5.1.31.31 0 00-.21.29.2.2 0 000 .15.45.45 0 00.17.11l.22.06h.29a2 2 0 01.32.05 1.33 1.33 0 01.29.07.77.77 0 01.24.11.57.57 0 01.16.18.56.56 0 010 .57.61.61 0 01-.26.21 2 2 0 01-.35.11 2.38 2.38 0 01-.39 0 1.67 1.67 0 01-.69-.13.86.86 0 01-.45-.39l.28-.13a.81.81 0 00.36.29 1.25 1.25 0 00.51.1 1.14 1.14 0 00.26 0 1.05 1.05 0 00.24-.06.43.43 0 00.19-.13.38.38 0 00.07-.21.27.27 0 00-.06-.17.41.41 0 00-.18-.12l-.24-.07-.3-.05h-.31l-.27-.07A.9.9 0 0147 32a.57.57 0 01-.15-.16.51.51 0 010-.53.65.65 0 01.26-.2 1.59 1.59 0 01.33-.1 2 2 0 01.36 0 1.8 1.8 0 01.6.09.88.88 0 01.42.32l-.26.13a.61.61 0 00-.31-.21"/>
</svg>
