<?xml version="1.0" standalone="no"?>
<svg width="1056" height="816" xmlns="http://www.w3.org/2000/svg" id="svgvm1"><g transform="translate(5,5)" style="font-family: sans-serif;"><g transform="translate(0,1)"><g><g class="tactic initial-access" transform="translate(0, 0)"><g class="techniques"><g class="technique T1190" transform="translate(0, 73.27272727272728)"><rect class="cell" height="73.27272727272728" width="95.09090909090908" fill="white" stroke="#6B7279"/><polygon class="sidebar" transform="translate(0, 73.27272727272728)" points="0,0 12,0 12,0" fill="#6B7279" visibility="hidden"/><text font-size="9.713986013986013" fill="black"><tspan x="4" y="24.469696969696972">Exploit</tspan><tspan x="4" y="39.13636363636364">Public-Facing</tspan><tspan x="4" y="53.803030303030305">Application</tspan></text></g><g class="technique T1199" transform="translate(0, 146.54545454545456)"><rect class="cell" height="73.27272727272728" width="95.09090909090908" fill="white" stroke="#6B7279"/><polygon class="sidebar" transform="translate(0, 73.27272727272728)" points="0,0 12,0 12,0" fill="#6B7279" visibility="hidden"/><text font-size="10.523484848484847" fill="black"><tspan x="4" y="32.88636363636364">Trusted</tspan><tspan x="4" y="47.38636363636364">Relationship</tspan></text></g><g class="technique T1078" transform="translate(0, 219.8181818181818)"><rect class="cell" height="73.27272727272728" width="95.09090909090908" fill="#8ec843" stroke="#6B7279"/><polygon class="sidebar" transform="translate(0, 73.27272727272728)" points="0,0 12,0 12,12" fill="#6B7279" visibility="hidden"/><text font-size="12" fill="black"><tspan x="4" y="32.88636363636364">Valid</tspan><tspan x="4" y="47.38636363636364">Accounts</tspan></text></g></g><g class="subtechniques"/><g class="tactic-label"><text font-size="12" fill="black" font-weight="bold"><tspan text-anchor="middle" x="47.54545454545454" y="32.88636363636364">Initial</tspan><tspan text-anchor="middle" x="47.54545454545454" y="47.38636363636364">Access</tspan></text></g></g><g class="tactic execution" transform="translate(105.65656565656565, 0)"><g class="techniques"><g class="technique T1204" transform="translate(0, 73.27272727272728)"><rect class="cell" height="73.27272727272728" width="95.09090909090908" fill="white" stroke="#6B7279"/><polygon class="sidebar" transform="translate(0, 73.27272727272728)" points="0,0 12,0 12,12" fill="#6B7279" visibility="hidden"/><text font-size="12" fill="black"><tspan x="4" y="32.88636363636364">User</tspan><tspan x="4" y="47.38636363636364">Execution</tspan></text></g></g><g class="subtechniques"/><g class="tactic-label"><text font-size="12" fill="black" font-weight="bold"><tspan text-anchor="middle" x="47.54545454545454" y="40.13636363636364">Execution</tspan></text></g></g><g class="tactic persistence" transform="translate(211.3131313131313, 0)"><g class="techniques"><g class="technique T1098" transform="translate(0, 73.27272727272728)"><rect class="cell" height="73.27272727272728" width="95.09090909090908" fill="#8ec843" stroke="#6B7279"/><polygon class="sidebar" transform="translate(0, 73.27272727272728)" points="0,0 12,0 12,12" fill="#6B7279" visibility="hidden"/><text font-size="10.523484848484847" fill="black"><tspan x="4" y="32.88636363636364">Account</tspan><tspan x="4" y="47.38636363636364">Manipulation</tspan></text></g><g class="technique T1136" transform="translate(0, 146.54545454545456)"><rect class="cell" height="73.27272727272728" width="95.09090909090908" fill="white" stroke="#6B7279"/><polygon class="sidebar" transform="translate(0, 73.27272727272728)" points="0,0 12,0 12,12" fill="#6B7279" visibility="hidden"/><text font-size="12" fill="black"><tspan x="4" y="32.88636363636364">Create</tspan><tspan x="4" y="47.38636363636364">Account</tspan></text></g><g class="technique T1525" transform="translate(0, 219.8181818181818)"><rect class="cell" height="73.27272727272728" width="95.09090909090908" fill="white" stroke="#6B7279"/><polygon class="sidebar" transform="translate(0, 73.27272727272728)" points="0,0 12,0 12,0" fill="#6B7279" visibility="hidden"/><text font-size="12" fill="black"><tspan x="4" y="25.469696969696972">Implant</tspan><tspan x="4" y="40.13636363636364">Internal</tspan><tspan x="4" y="54.803030303030305">Image</tspan></text></g><g class="technique T1078" transform="translate(0, 293.0909090909091)"><rect class="cell" height="73.27272727272728" width="95.09090909090908" fill="#8ec843" stroke="#6B7279"/><polygon class="sidebar" transform="translate(0, 73.27272727272728)" points="0,0 12,0 12,12" fill="#6B7279" visibility="hidden"/><text font-size="12" fill="black"><tspan x="4" y="32.88636363636364">Valid</tspan><tspan x="4" y="47.38636363636364">Accounts</tspan></text></g></g><g class="subtechniques"/><g class="tactic-label"><text font-size="11.480165289256197" fill="black" font-weight="bold"><tspan text-anchor="middle" x="47.54545454545454" y="40.13636363636364">Persistence</tspan></text></g></g><g class="tactic privilege-escalation" transform="translate(316.96969696969694, 0)"><g class="techniques"><g class="technique T1078" transform="translate(0, 73.27272727272728)"><rect class="cell" height="73.27272727272728" width="95.09090909090908" fill="#8ec843" stroke="#6B7279"/><polygon class="sidebar" transform="translate(0, 73.27272727272728)" points="0,0 12,0 12,12" fill="#6B7279" visibility="hidden"/><text font-size="12" fill="black"><tspan x="4" y="32.88636363636364">Valid</tspan><tspan x="4" y="47.38636363636364">Accounts</tspan></text></g></g><g class="subtechniques"/><g class="tactic-label"><text font-size="12" fill="black" font-weight="bold"><tspan text-anchor="middle" x="47.54545454545454" y="32.88636363636364">Privilege</tspan><tspan text-anchor="middle" x="47.54545454545454" y="47.38636363636364">Escalation</tspan></text></g></g><g class="tactic defense-evasion" transform="translate(422.6262626262626, 0)"><g class="techniques"><g class="technique T1562" transform="translate(0, 73.27272727272728)"><rect class="cell" height="73.27272727272728" width="95.09090909090908" fill="white" stroke="#6B7279"/><polygon class="sidebar" transform="translate(0, 73.27272727272728)" points="0,0 12,0 12,12" fill="#6B7279" visibility="hidden"/><text font-size="12" fill="black"><tspan x="4" y="32.88636363636364">Impair</tspan><tspan x="4" y="47.38636363636364">Defenses</tspan></text></g><g class="technique T1578" transform="translate(0, 146.54545454545456)"><rect class="cell" height="73.27272727272728" width="95.09090909090908" fill="white" stroke="#6B7279"/><polygon class="sidebar" transform="translate(0, 73.27272727272728)" points="0,0 12,0 12,12" fill="#6B7279" visibility="hidden"/><text font-size="9.02012987012987" fill="black"><tspan x="4" y="24.469696969696972">Modify</tspan><tspan x="4" y="39.13636363636364">Cloud Compute</tspan><tspan x="4" y="53.803030303030305">Infrastructure</tspan></text></g><g class="technique T1535" transform="translate(0, 219.8181818181818)"><rect class="cell" height="73.27272727272728" width="95.09090909090908" fill="#8ec843" stroke="#6B7279"/><polygon class="sidebar" transform="translate(0, 73.27272727272728)" points="0,0 12,0 12,0" fill="#6B7279" visibility="hidden"/><text font-size="7.015656565656564" fill="black"><tspan x="4" y="31.88636363636364">Unused/Unsupported</tspan><tspan x="4" y="46.38636363636364">Cloud Regions</tspan></text></g><g class="technique T1078" transform="translate(0, 293.0909090909091)"><rect class="cell" height="73.27272727272728" width="95.09090909090908" fill="#8ec843" stroke="#6B7279"/><polygon class="sidebar" transform="translate(0, 73.27272727272728)" points="0,0 12,0 12,12" fill="#6B7279" visibility="hidden"/><text font-size="12" fill="black"><tspan x="4" y="32.88636363636364">Valid</tspan><tspan x="4" y="47.38636363636364">Accounts</tspan></text></g></g><g class="subtechniques"/><g class="tactic-label"><text font-size="12" fill="black" font-weight="bold"><tspan text-anchor="middle" x="47.54545454545454" y="32.88636363636364">Defense</tspan><tspan text-anchor="middle" x="47.54545454545454" y="47.38636363636364">Evasion</tspan></text></g></g><g class="tactic credential-access" transform="translate(528.2828282828282, 0)"><g class="techniques"><g class="technique T1110" transform="translate(0, 73.27272727272728)"><rect class="cell" height="73.27272727272728" width="95.09090909090908" fill="#8ec843" stroke="#6B7279"/><polygon class="sidebar" transform="translate(0, 73.27272727272728)" points="0,0 12,0 12,12" fill="#6B7279" visibility="hidden"/><text font-size="12" fill="black"><tspan x="4" y="32.88636363636364">Brute</tspan><tspan x="4" y="47.38636363636364">Force</tspan></text></g><g class="technique T1552" transform="translate(0, 146.54545454545456)"><rect class="cell" height="73.27272727272728" width="95.09090909090908" fill="white" stroke="#6B7279"/><polygon class="sidebar" transform="translate(0, 73.27272727272728)" points="0,0 12,0 12,12" fill="#6B7279" visibility="hidden"/><text font-size="11.480165289256197" fill="black"><tspan x="4" y="32.88636363636364">Unsecured</tspan><tspan x="4" y="47.38636363636364">Credentials</tspan></text></g></g><g class="subtechniques"/><g class="tactic-label"><text font-size="12" fill="black" font-weight="bold"><tspan text-anchor="middle" x="47.54545454545454" y="32.88636363636364">Credential</tspan><tspan text-anchor="middle" x="47.54545454545454" y="47.38636363636364">Access</tspan></text></g></g><g class="tactic discovery" transform="translate(633.9393939393939, 0)"><g class="techniques"><g class="technique T1087" transform="translate(0, 73.27272727272728)"><rect class="cell" height="73.27272727272728" width="95.09090909090908" fill="#8ec843" stroke="#6B7279"/><polygon class="sidebar" transform="translate(0, 73.27272727272728)" points="0,0 12,0 12,12" fill="#6B7279" visibility="hidden"/><text font-size="12" fill="black"><tspan x="4" y="32.88636363636364">Account</tspan><tspan x="4" y="47.38636363636364">Discovery</tspan></text></g><g class="technique T1580" transform="translate(0, 146.54545454545456)"><rect class="cell" height="73.27272727272728" width="95.09090909090908" fill="white" stroke="#6B7279"/><polygon class="sidebar" transform="translate(0, 73.27272727272728)" points="0,0 12,0 12,0" fill="#6B7279" visibility="hidden"/><text font-size="9.02012987012987" fill="black"><tspan x="4" y="24.469696969696972">Cloud</tspan><tspan x="4" y="39.13636363636364">Infrastructure</tspan><tspan x="4" y="53.803030303030305">Discovery</tspan></text></g><g class="technique T1538" transform="translate(0, 219.8181818181818)"><rect class="cell" height="73.27272727272728" width="95.09090909090908" fill="white" stroke="#6B7279"/><polygon class="sidebar" transform="translate(0, 73.27272727272728)" points="0,0 12,0 12,0" fill="#6B7279" visibility="hidden"/><text font-size="12" fill="black"><tspan x="4" y="25.469696969696972">Cloud</tspan><tspan x="4" y="40.13636363636364">Service</tspan><tspan x="4" y="54.803030303030305">Dashboard</tspan></text></g><g class="technique T1526" transform="translate(0, 293.0909090909091)"><rect class="cell" height="73.27272727272728" width="95.09090909090908" fill="white" stroke="#6B7279"/><polygon class="sidebar" transform="translate(0, 73.27272727272728)" points="0,0 12,0 12,0" fill="#6B7279" visibility="hidden"/><text font-size="12" fill="black"><tspan x="4" y="25.469696969696972">Cloud</tspan><tspan x="4" y="40.13636363636364">Service</tspan><tspan x="4" y="54.803030303030305">Discovery</tspan></text></g><g class="technique T1046" transform="translate(0, 366.3636363636364)"><rect class="cell" height="73.27272727272728" width="95.09090909090908" fill="white" stroke="#6B7279"/><polygon class="sidebar" transform="translate(0, 73.27272727272728)" points="0,0 12,0 12,0" fill="#6B7279" visibility="hidden"/><text font-size="12" fill="black"><tspan x="4" y="25.469696969696972">Network</tspan><tspan x="4" y="40.13636363636364">Service</tspan><tspan x="4" y="54.803030303030305">Scanning</tspan></text></g><g class="technique T1069" transform="translate(0, 439.6363636363636)"><rect class="cell" height="73.27272727272728" width="95.09090909090908" fill="white" stroke="#6B7279"/><polygon class="sidebar" transform="translate(0, 73.27272727272728)" points="0,0 12,0 12,12" fill="#6B7279" visibility="hidden"/><text font-size="12" fill="black"><tspan x="4" y="25.469696969696972">Permission</tspan><tspan x="4" y="40.13636363636364">Groups</tspan><tspan x="4" y="54.803030303030305">Discovery</tspan></text></g><g class="technique T1518" transform="translate(0, 512.9090909090909)"><rect class="cell" height="73.27272727272728" width="95.09090909090908" fill="white" stroke="#6B7279"/><polygon class="sidebar" transform="translate(0, 73.27272727272728)" points="0,0 12,0 12,12" fill="#6B7279" visibility="hidden"/><text font-size="12" fill="black"><tspan x="4" y="32.88636363636364">Software</tspan><tspan x="4" y="47.38636363636364">Discovery</tspan></text></g><g class="technique T1082" transform="translate(0, 586.1818181818182)"><rect class="cell" height="73.27272727272728" width="95.09090909090908" fill="white" stroke="#6B7279"/><polygon class="sidebar" transform="translate(0, 73.27272727272728)" points="0,0 12,0 12,0" fill="#6B7279" visibility="hidden"/><text font-size="11.480165289256197" fill="black"><tspan x="4" y="25.469696969696972">System</tspan><tspan x="4" y="40.13636363636364">Information</tspan><tspan x="4" y="54.803030303030305">Discovery</tspan></text></g><g class="technique T1614" transform="translate(0, 659.4545454545455)"><rect class="cell" height="73.27272727272728" width="95.09090909090908" fill="white" stroke="#6B7279"/><polygon class="sidebar" transform="translate(0, 73.27272727272728)" points="0,0 12,0 12,0" fill="#6B7279" visibility="hidden"/><text font-size="12" fill="black"><tspan x="4" y="25.469696969696972">System</tspan><tspan x="4" y="40.13636363636364">Location</tspan><tspan x="4" y="54.803030303030305">Discovery</tspan></text></g><g class="technique T1049" transform="translate(0, 732.7272727272727)"><rect class="cell" height="73.27272727272728" width="95.09090909090908" fill="white" stroke="#6B7279"/><polygon class="sidebar" transform="translate(0, 73.27272727272728)" points="0,0 12,0 12,0" fill="#6B7279" visibility="hidden"/><text font-size="11.480165289256197" fill="black"><tspan x="4" y="18.01136363636364">System</tspan><tspan x="4" y="32.76136363636364">Network</tspan><tspan x="4" y="47.51136363636364">Connections</tspan><tspan x="4" y="62.26136363636364">Discovery</tspan></text></g></g><g class="subtechniques"/><g class="tactic-label"><text font-size="12" fill="black" font-weight="bold"><tspan text-anchor="middle" x="47.54545454545454" y="40.13636363636364">Discovery</tspan></text></g></g><g class="tactic collection" transform="translate(739.5959595959596, 0)"><g class="techniques"><g class="technique T1530" transform="translate(0, 73.27272727272728)"><rect class="cell" height="73.27272727272728" width="95.09090909090908" fill="white" stroke="#6B7279"/><polygon class="sidebar" transform="translate(0, 73.27272727272728)" points="0,0 12,0 12,0" fill="#6B7279" visibility="hidden"/><text font-size="12" fill="black"><tspan x="4" y="18.01136363636364">Data</tspan><tspan x="4" y="32.76136363636364">from Cloud</tspan><tspan x="4" y="47.51136363636364">Storage</tspan><tspan x="4" y="62.26136363636364">Object</tspan></text></g><g class="technique T1074" transform="translate(0, 146.54545454545456)"><rect class="cell" height="73.27272727272728" width="95.09090909090908" fill="white" stroke="#6B7279"/><polygon class="sidebar" transform="translate(0, 73.27272727272728)" points="0,0 12,0 12,12" fill="#6B7279" visibility="hidden"/><text font-size="12" fill="black"><tspan x="4" y="32.88636363636364">Data</tspan><tspan x="4" y="47.38636363636364">Staged</tspan></text></g></g><g class="subtechniques"/><g class="tactic-label"><text font-size="12" fill="black" font-weight="bold"><tspan text-anchor="middle" x="47.54545454545454" y="40.13636363636364">Collection</tspan></text></g></g><g class="tactic exfiltration" transform="translate(845.2525252525252, 0)"><g class="techniques"><g class="technique T1537" transform="translate(0, 73.27272727272728)"><rect class="cell" height="73.27272727272728" width="95.09090909090908" fill="white" stroke="#6B7279"/><polygon class="sidebar" transform="translate(0, 73.27272727272728)" points="0,0 12,0 12,0" fill="#6B7279" visibility="hidden"/><text font-size="12" fill="black"><tspan x="4" y="18.01136363636364">Transfer</tspan><tspan x="4" y="32.76136363636364">Data</tspan><tspan x="4" y="47.51136363636364">to Cloud</tspan><tspan x="4" y="62.26136363636364">Account</tspan></text></g></g><g class="subtechniques"/><g class="tactic-label"><text font-size="10.523484848484847" fill="black" font-weight="bold"><tspan text-anchor="middle" x="47.54545454545454" y="40.13636363636364">Exfiltration</tspan></text></g></g><g class="tactic impact" transform="translate(950.9090909090908, 0)"><g class="techniques"><g class="technique T1485" transform="translate(0, 73.27272727272728)"><rect class="cell" height="73.27272727272728" width="95.09090909090908" fill="#8ec843" stroke="#6B7279"/><polygon class="sidebar" transform="translate(0, 73.27272727272728)" points="0,0 12,0 12,0" fill="#6B7279" visibility="hidden"/><text font-size="11.480165289256197" fill="black"><tspan x="4" y="32.88636363636364">Data</tspan><tspan x="4" y="47.38636363636364">Destruction</tspan></text></g><g class="technique T1486" transform="translate(0, 146.54545454545456)"><rect class="cell" height="73.27272727272728" width="95.09090909090908" fill="#8ec843" stroke="#6B7279"/><polygon class="sidebar" transform="translate(0, 73.27272727272728)" points="0,0 12,0 12,0" fill="#6B7279" visibility="hidden"/><text font-size="12" fill="black"><tspan x="4" y="25.469696969696972">Data</tspan><tspan x="4" y="40.13636363636364">Encrypted</tspan><tspan x="4" y="54.803030303030305">for Impact</tspan></text></g><g class="technique T1491" transform="translate(0, 219.8181818181818)"><rect class="cell" height="73.27272727272728" width="95.09090909090908" fill="white" stroke="#6B7279"/><polygon class="sidebar" transform="translate(0, 73.27272727272728)" points="0,0 12,0 12,12" fill="#6B7279" visibility="hidden"/><text font-size="12" fill="black"><tspan x="4" y="40.13636363636364">Defacement</tspan></text></g><g class="technique T1499" transform="translate(0, 293.0909090909091)"><rect class="cell" height="73.27272727272728" width="95.09090909090908" fill="#8ec843" stroke="#6B7279"/><polygon class="sidebar" transform="translate(0, 73.27272727272728)" points="0,0 12,0 12,12" fill="#6B7279" visibility="hidden"/><text font-size="12" fill="black"><tspan x="4" y="25.469696969696972">Endpoint</tspan><tspan x="4" y="40.13636363636364">Denial</tspan><tspan x="4" y="54.803030303030305">of Service</tspan></text></g><g class="technique T1498" transform="translate(0, 366.3636363636364)"><rect class="cell" height="73.27272727272728" width="95.09090909090908" fill="white" stroke="#6B7279"/><polygon class="sidebar" transform="translate(0, 73.27272727272728)" points="0,0 12,0 12,12" fill="#6B7279" visibility="hidden"/><text font-size="12" fill="black"><tspan x="4" y="25.469696969696972">Network</tspan><tspan x="4" y="40.13636363636364">Denial</tspan><tspan x="4" y="54.803030303030305">of Service</tspan></text></g><g class="technique T1496" transform="translate(0, 439.6363636363636)"><rect class="cell" height="73.27272727272728" width="95.09090909090908" fill="#8ec843" stroke="#6B7279"/><polygon class="sidebar" transform="translate(0, 73.27272727272728)" points="0,0 12,0 12,0" fill="#6B7279" visibility="hidden"/><text font-size="12" fill="black"><tspan x="4" y="32.88636363636364">Resource</tspan><tspan x="4" y="47.38636363636364">Hijacking</tspan></text></g></g><g class="subtechniques"/><g class="tactic-label"><text font-size="12" fill="black" font-weight="bold"><tspan text-anchor="middle" x="47.54545454545454" y="40.13636363636364">Impact</tspan></text></g></g></g></g></g></svg>