<?xml version="1.0" standalone="no"?>
<svg width="1056" height="816" xmlns="http://www.w3.org/2000/svg" id="svgvm2"><g transform="translate(5,5)" style="font-family: sans-serif;"><g transform="translate(0,1)"><g><g class="tactic initial-access" transform="translate(0, 0)"><g class="techniques"><g class="technique T1078" transform="translate(0, 134.33333333333331)"><rect class="cell" height="134.33333333333331" width="136.43478260869566" fill="#8ec843" stroke="#6B7279"/><polygon class="sidebar" transform="translate(0, 134.33333333333331)" points="0,0 12,0 12,12" fill="#6B7279" visibility="hidden"/><text font-size="12" fill="black"><tspan x="4" y="70.66666666666666">Valid Accounts</tspan></text></g></g><g class="subtechniques"/><g class="tactic-label"><text font-size="12" fill="black" font-weight="bold"><tspan text-anchor="middle" x="68.21739130434783" y="70.66666666666666">Initial Access</tspan></text></g></g><g class="tactic persistence" transform="translate(151.59420289855072, 0)"><g class="techniques"><g class="technique T1098" transform="translate(0, 134.33333333333331)"><rect class="cell" height="134.33333333333331" width="136.43478260869566" fill="#8ec843" stroke="#6B7279"/><polygon class="sidebar" transform="translate(0, 134.33333333333331)" points="0,0 12,0 12,12" fill="#6B7279" visibility="hidden"/><text font-size="12" fill="black"><tspan x="4" y="63.41666666666666">Account</tspan><tspan x="4" y="77.91666666666666">Manipulation</tspan></text></g><g class="technique T1136" transform="translate(0, 268.66666666666663)"><rect class="cell" height="134.33333333333331" width="136.43478260869566" fill="#8ec843" stroke="#6B7279"/><polygon class="sidebar" transform="translate(0, 134.33333333333331)" points="0,0 12,0 12,12" fill="#6B7279" visibility="hidden"/><text font-size="12" fill="black"><tspan x="4" y="70.66666666666666">Create Account</tspan></text></g><g class="technique T1078" transform="translate(0, 403)"><rect class="cell" height="134.33333333333331" width="136.43478260869566" fill="#8ec843" stroke="#6B7279"/><polygon class="sidebar" transform="translate(0, 134.33333333333331)" points="0,0 12,0 12,12" fill="#6B7279" visibility="hidden"/><text font-size="12" fill="black"><tspan x="4" y="70.66666666666666">Valid Accounts</tspan></text></g></g><g class="subtechniques"/><g class="tactic-label"><text font-size="12" fill="black" font-weight="bold"><tspan text-anchor="middle" x="68.21739130434783" y="70.66666666666666">Persistence</tspan></text></g></g><g class="tactic privilege-escalation" transform="translate(303.18840579710144, 0)"><g class="techniques"><g class="technique T1484" transform="translate(0, 134.33333333333331)"><rect class="cell" height="134.33333333333331" width="136.43478260869566" fill="white" stroke="#6B7279"/><polygon class="sidebar" transform="translate(0, 134.33333333333331)" points="0,0 12,0 12,12" fill="#6B7279" visibility="hidden"/><text font-size="12" fill="black"><tspan x="4" y="63.41666666666666">Domain Policy</tspan><tspan x="4" y="77.91666666666666">Modification</tspan></text></g><g class="technique T1078" transform="translate(0, 268.66666666666663)"><rect class="cell" height="134.33333333333331" width="136.43478260869566" fill="#8ec843" stroke="#6B7279"/><polygon class="sidebar" transform="translate(0, 134.33333333333331)" points="0,0 12,0 12,12" fill="#6B7279" visibility="hidden"/><text font-size="12" fill="black"><tspan x="4" y="70.66666666666666">Valid Accounts</tspan></text></g></g><g class="subtechniques"/><g class="tactic-label"><text font-size="12" fill="black" font-weight="bold"><tspan text-anchor="middle" x="68.21739130434783" y="63.41666666666666">Privilege</tspan><tspan text-anchor="middle" x="68.21739130434783" y="77.91666666666666">Escalation</tspan></text></g></g><g class="tactic defense-evasion" transform="translate(454.78260869565213, 0)"><g class="techniques"><g class="technique T1484" transform="translate(0, 134.33333333333331)"><rect class="cell" height="134.33333333333331" width="136.43478260869566" fill="white" stroke="#6B7279"/><polygon class="sidebar" transform="translate(0, 134.33333333333331)" points="0,0 12,0 12,12" fill="#6B7279" visibility="hidden"/><text font-size="12" fill="black"><tspan x="4" y="63.41666666666666">Domain Policy</tspan><tspan x="4" y="77.91666666666666">Modification</tspan></text></g><g class="technique T1078" transform="translate(0, 268.66666666666663)"><rect class="cell" height="134.33333333333331" width="136.43478260869566" fill="#8ec843" stroke="#6B7279"/><polygon class="sidebar" transform="translate(0, 134.33333333333331)" points="0,0 12,0 12,12" fill="#6B7279" visibility="hidden"/><text font-size="12" fill="black"><tspan x="4" y="70.66666666666666">Valid Accounts</tspan></text></g></g><g class="subtechniques"/><g class="tactic-label"><text font-size="12" fill="black" font-weight="bold"><tspan text-anchor="middle" x="68.21739130434783" y="70.66666666666666">Defense Evasion</tspan></text></g></g><g class="tactic credential-access" transform="translate(606.3768115942029, 0)"><g class="techniques"><g class="technique T1110" transform="translate(0, 134.33333333333331)"><rect class="cell" height="134.33333333333331" width="136.43478260869566" fill="#8ec843" stroke="#6B7279"/><polygon class="sidebar" transform="translate(0, 134.33333333333331)" points="0,0 12,0 12,12" fill="#6B7279" visibility="hidden"/><text font-size="12" fill="black"><tspan x="4" y="70.66666666666666">Brute Force</tspan></text></g><g class="technique T1606" transform="translate(0, 268.66666666666663)"><rect class="cell" height="134.33333333333331" width="136.43478260869566" fill="white" stroke="#6B7279"/><polygon class="sidebar" transform="translate(0, 134.33333333333331)" points="0,0 12,0 12,12" fill="#6B7279" visibility="hidden"/><text font-size="12" fill="black"><tspan x="4" y="63.41666666666666">Forge</tspan><tspan x="4" y="77.91666666666666">Web Credentials</tspan></text></g><g class="technique T1528" transform="translate(0, 403)"><rect class="cell" height="134.33333333333331" width="136.43478260869566" fill="#8ec843" stroke="#6B7279"/><polygon class="sidebar" transform="translate(0, 134.33333333333331)" points="0,0 12,0 12,0" fill="#6B7279" visibility="hidden"/><text font-size="12" fill="black"><tspan x="4" y="55.999999999999986">Steal</tspan><tspan x="4" y="70.66666666666666">Application</tspan><tspan x="4" y="85.33333333333331">Access Token</tspan></text></g><g class="technique T1552" transform="translate(0, 537.3333333333333)"><rect class="cell" height="134.33333333333331" width="136.43478260869566" fill="white" stroke="#6B7279"/><polygon class="sidebar" transform="translate(0, 134.33333333333331)" points="0,0 12,0 12,0" fill="#6B7279" visibility="hidden"/><text font-size="12" fill="black"><tspan x="4" y="63.41666666666666">Unsecured</tspan><tspan x="4" y="77.91666666666666">Credentials</tspan></text></g></g><g class="subtechniques"/><g class="tactic-label"><text font-size="12" fill="black" font-weight="bold"><tspan text-anchor="middle" x="68.21739130434783" y="63.41666666666666">Credential</tspan><tspan text-anchor="middle" x="68.21739130434783" y="77.91666666666666">Access</tspan></text></g></g><g class="tactic discovery" transform="translate(757.9710144927536, 0)"><g class="techniques"><g class="technique T1087" transform="translate(0, 134.33333333333331)"><rect class="cell" height="134.33333333333331" width="136.43478260869566" fill="#8ec843" stroke="#6B7279"/><polygon class="sidebar" transform="translate(0, 134.33333333333331)" points="0,0 12,0 12,12" fill="#6B7279" visibility="hidden"/><text font-size="12" fill="black"><tspan x="4" y="63.41666666666666">Account</tspan><tspan x="4" y="77.91666666666666">Discovery</tspan></text></g><g class="technique T1538" transform="translate(0, 268.66666666666663)"><rect class="cell" height="134.33333333333331" width="136.43478260869566" fill="white" stroke="#6B7279"/><polygon class="sidebar" transform="translate(0, 134.33333333333331)" points="0,0 12,0 12,0" fill="#6B7279" visibility="hidden"/><text font-size="12" fill="black"><tspan x="4" y="63.41666666666666">Cloud Service</tspan><tspan x="4" y="77.91666666666666">Dashboard</tspan></text></g><g class="technique T1526" transform="translate(0, 403)"><rect class="cell" height="134.33333333333331" width="136.43478260869566" fill="white" stroke="#6B7279"/><polygon class="sidebar" transform="translate(0, 134.33333333333331)" points="0,0 12,0 12,0" fill="#6B7279" visibility="hidden"/><text font-size="12" fill="black"><tspan x="4" y="63.41666666666666">Cloud Service</tspan><tspan x="4" y="77.91666666666666">Discovery</tspan></text></g><g class="technique T1069" transform="translate(0, 537.3333333333333)"><rect class="cell" height="134.33333333333331" width="136.43478260869566" fill="white" stroke="#6B7279"/><polygon class="sidebar" transform="translate(0, 134.33333333333331)" points="0,0 12,0 12,12" fill="#6B7279" visibility="hidden"/><text font-size="12" fill="black"><tspan x="4" y="55.999999999999986">Permission</tspan><tspan x="4" y="70.66666666666666">Groups</tspan><tspan x="4" y="85.33333333333331">Discovery</tspan></text></g><g class="technique T1518" transform="translate(0, 671.6666666666667)"><rect class="cell" height="134.33333333333331" width="136.43478260869566" fill="white" stroke="#6B7279"/><polygon class="sidebar" transform="translate(0, 134.33333333333331)" points="0,0 12,0 12,12" fill="#6B7279" visibility="hidden"/><text font-size="12" fill="black"><tspan x="4" y="63.41666666666666">Software</tspan><tspan x="4" y="77.91666666666666">Discovery</tspan></text></g></g><g class="subtechniques"/><g class="tactic-label"><text font-size="12" fill="black" font-weight="bold"><tspan text-anchor="middle" x="68.21739130434783" y="70.66666666666666">Discovery</tspan></text></g></g><g class="tactic impact" transform="translate(909.5652173913043, 0)"><g class="techniques"><g class="technique T1499" transform="translate(0, 134.33333333333331)"><rect class="cell" height="134.33333333333331" width="136.43478260869566" fill="#8ec843" stroke="#6B7279"/><polygon class="sidebar" transform="translate(0, 134.33333333333331)" points="0,0 12,0 12,12" fill="#6B7279" visibility="hidden"/><text font-size="12" fill="black"><tspan x="4" y="63.41666666666666">Endpoint Denial</tspan><tspan x="4" y="77.91666666666666">of Service</tspan></text></g><g class="technique T1498" transform="translate(0, 268.66666666666663)"><rect class="cell" height="134.33333333333331" width="136.43478260869566" fill="white" stroke="#6B7279"/><polygon class="sidebar" transform="translate(0, 134.33333333333331)" points="0,0 12,0 12,12" fill="#6B7279" visibility="hidden"/><text font-size="12" fill="black"><tspan x="4" y="63.41666666666666">Network Denial</tspan><tspan x="4" y="77.91666666666666">of Service</tspan></text></g></g><g class="subtechniques"/><g class="tactic-label"><text font-size="12" fill="black" font-weight="bold"><tspan text-anchor="middle" x="68.21739130434783" y="70.66666666666666">Impact</tspan></text></g></g></g></g></g></svg>