<?xml version="1.0" standalone="no"?>
<svg width="1056" height="816" xmlns="http://www.w3.org/2000/svg" id="svgvm6"><g transform="translate(5,5)" style="font-family: sans-serif;"><g transform="translate(0,1)"><g><g class="tactic initial-access" transform="translate(0, 0)"><g class="techniques"><g class="technique T1566" transform="translate(0, 134.33333333333331)"><rect class="cell" height="134.33333333333331" width="105.7752808988764" fill="#8ec843" stroke="#6B7279"/><polygon class="sidebar" transform="translate(0, 134.33333333333331)" points="0,0 12,0 12,12" fill="#6B7279" visibility="hidden"/><text font-size="12" fill="black"><tspan x="4" y="70.66666666666666">Phishing</tspan></text></g><g class="technique T1078" transform="translate(0, 268.66666666666663)"><rect class="cell" height="134.33333333333331" width="105.7752808988764" fill="#8ec843" stroke="#6B7279"/><polygon class="sidebar" transform="translate(0, 134.33333333333331)" points="0,0 12,0 12,12" fill="#6B7279" visibility="hidden"/><text font-size="12" fill="black"><tspan x="4" y="63.41666666666666">Valid</tspan><tspan x="4" y="77.91666666666666">Accounts</tspan></text></g></g><g class="subtechniques"/><g class="tactic-label"><text font-size="12" fill="black" font-weight="bold"><tspan text-anchor="middle" x="52.8876404494382" y="63.41666666666666">Initial</tspan><tspan text-anchor="middle" x="52.8876404494382" y="77.91666666666666">Access</tspan></text></g></g><g class="tactic persistence" transform="translate(117.52808988764045, 0)"><g class="techniques"><g class="technique T1098" transform="translate(0, 134.33333333333331)"><rect class="cell" height="134.33333333333331" width="105.7752808988764" fill="#8ec843" stroke="#6B7279"/><polygon class="sidebar" transform="translate(0, 134.33333333333331)" points="0,0 12,0 12,12" fill="#6B7279" visibility="hidden"/><text font-size="11.814513108614232" fill="black"><tspan x="4" y="63.41666666666666">Account</tspan><tspan x="4" y="77.91666666666666">Manipulation</tspan></text></g><g class="technique T1136" transform="translate(0, 268.66666666666663)"><rect class="cell" height="134.33333333333331" width="105.7752808988764" fill="#8ec843" stroke="#6B7279"/><polygon class="sidebar" transform="translate(0, 134.33333333333331)" points="0,0 12,0 12,12" fill="#6B7279" visibility="hidden"/><text font-size="12" fill="black"><tspan x="4" y="63.41666666666666">Create</tspan><tspan x="4" y="77.91666666666666">Account</tspan></text></g><g class="technique T1137" transform="translate(0, 403)"><rect class="cell" height="134.33333333333331" width="105.7752808988764" fill="white" stroke="#6B7279"/><polygon class="sidebar" transform="translate(0, 134.33333333333331)" points="0,0 12,0 12,12" fill="#6B7279" visibility="hidden"/><text font-size="12" fill="black"><tspan x="4" y="55.999999999999986">Office</tspan><tspan x="4" y="70.66666666666666">Application</tspan><tspan x="4" y="85.33333333333331">Startup</tspan></text></g><g class="technique T1078" transform="translate(0, 537.3333333333333)"><rect class="cell" height="134.33333333333331" width="105.7752808988764" fill="#8ec843" stroke="#6B7279"/><polygon class="sidebar" transform="translate(0, 134.33333333333331)" points="0,0 12,0 12,12" fill="#6B7279" visibility="hidden"/><text font-size="12" fill="black"><tspan x="4" y="63.41666666666666">Valid</tspan><tspan x="4" y="77.91666666666666">Accounts</tspan></text></g></g><g class="subtechniques"/><g class="tactic-label"><text font-size="12" fill="black" font-weight="bold"><tspan text-anchor="middle" x="52.8876404494382" y="70.66666666666666">Persistence</tspan></text></g></g><g class="tactic privilege-escalation" transform="translate(235.0561797752809, 0)"><g class="techniques"><g class="technique T1078" transform="translate(0, 134.33333333333331)"><rect class="cell" height="134.33333333333331" width="105.7752808988764" fill="#8ec843" stroke="#6B7279"/><polygon class="sidebar" transform="translate(0, 134.33333333333331)" points="0,0 12,0 12,12" fill="#6B7279" visibility="hidden"/><text font-size="12" fill="black"><tspan x="4" y="63.41666666666666">Valid</tspan><tspan x="4" y="77.91666666666666">Accounts</tspan></text></g></g><g class="subtechniques"/><g class="tactic-label"><text font-size="12" fill="black" font-weight="bold"><tspan text-anchor="middle" x="52.8876404494382" y="63.41666666666666">Privilege</tspan><tspan text-anchor="middle" x="52.8876404494382" y="77.91666666666666">Escalation</tspan></text></g></g><g class="tactic defense-evasion" transform="translate(352.5842696629213, 0)"><g class="techniques"><g class="technique T1562" transform="translate(0, 134.33333333333331)"><rect class="cell" height="134.33333333333331" width="105.7752808988764" fill="#8ec843" stroke="#6B7279"/><polygon class="sidebar" transform="translate(0, 134.33333333333331)" points="0,0 12,0 12,0" fill="#6B7279" visibility="hidden"/><text font-size="12" fill="black"><tspan x="4" y="63.41666666666666">Impair</tspan><tspan x="4" y="77.91666666666666">Defenses</tspan></text></g><g class="technique T1550" transform="translate(0, 268.66666666666663)"><rect class="cell" height="134.33333333333331" width="105.7752808988764" fill="white" stroke="#6B7279"/><polygon class="sidebar" transform="translate(0, 134.33333333333331)" points="0,0 12,0 12,12" fill="#6B7279" visibility="hidden"/><text font-size="10.126725521669341" fill="black"><tspan x="4" y="55.999999999999986">Use Alternate</tspan><tspan x="4" y="70.66666666666666">Authentication</tspan><tspan x="4" y="85.33333333333331">Material</tspan></text></g><g class="technique T1078" transform="translate(0, 403)"><rect class="cell" height="134.33333333333331" width="105.7752808988764" fill="#8ec843" stroke="#6B7279"/><polygon class="sidebar" transform="translate(0, 134.33333333333331)" points="0,0 12,0 12,12" fill="#6B7279" visibility="hidden"/><text font-size="12" fill="black"><tspan x="4" y="63.41666666666666">Valid</tspan><tspan x="4" y="77.91666666666666">Accounts</tspan></text></g></g><g class="subtechniques"/><g class="tactic-label"><text font-size="12" fill="black" font-weight="bold"><tspan text-anchor="middle" x="52.8876404494382" y="63.41666666666666">Defense</tspan><tspan text-anchor="middle" x="52.8876404494382" y="77.91666666666666">Evasion</tspan></text></g></g><g class="tactic credential-access" transform="translate(470.1123595505618, 0)"><g class="techniques"><g class="technique T1110" transform="translate(0, 134.33333333333331)"><rect class="cell" height="134.33333333333331" width="105.7752808988764" fill="#8ec843" stroke="#6B7279"/><polygon class="sidebar" transform="translate(0, 134.33333333333331)" points="0,0 12,0 12,12" fill="#6B7279" visibility="hidden"/><text font-size="12" fill="black"><tspan x="4" y="70.66666666666666">Brute Force</tspan></text></g><g class="technique T1606" transform="translate(0, 268.66666666666663)"><rect class="cell" height="134.33333333333331" width="105.7752808988764" fill="white" stroke="#6B7279"/><polygon class="sidebar" transform="translate(0, 134.33333333333331)" points="0,0 12,0 12,12" fill="#6B7279" visibility="hidden"/><text font-size="12" fill="black"><tspan x="4" y="63.41666666666666">Forge Web</tspan><tspan x="4" y="77.91666666666666">Credentials</tspan></text></g><g class="technique T1528" transform="translate(0, 403)"><rect class="cell" height="134.33333333333331" width="105.7752808988764" fill="white" stroke="#6B7279"/><polygon class="sidebar" transform="translate(0, 134.33333333333331)" points="0,0 12,0 12,0" fill="#6B7279" visibility="hidden"/><text font-size="12" fill="black"><tspan x="4" y="48.54166666666666">Steal</tspan><tspan x="4" y="63.29166666666666">Application</tspan><tspan x="4" y="78.04166666666666">Access</tspan><tspan x="4" y="92.79166666666666">Token</tspan></text></g><g class="technique T1539" transform="translate(0, 537.3333333333333)"><rect class="cell" height="134.33333333333331" width="105.7752808988764" fill="white" stroke="#6B7279"/><polygon class="sidebar" transform="translate(0, 134.33333333333331)" points="0,0 12,0 12,0" fill="#6B7279" visibility="hidden"/><text font-size="12" fill="black"><tspan x="4" y="55.999999999999986">Steal</tspan><tspan x="4" y="70.66666666666666">Web Session</tspan><tspan x="4" y="85.33333333333331">Cookie</tspan></text></g><g class="technique T1552" transform="translate(0, 671.6666666666667)"><rect class="cell" height="134.33333333333331" width="105.7752808988764" fill="white" stroke="#6B7279"/><polygon class="sidebar" transform="translate(0, 134.33333333333331)" points="0,0 12,0 12,0" fill="#6B7279" visibility="hidden"/><text font-size="12" fill="black"><tspan x="4" y="63.41666666666666">Unsecured</tspan><tspan x="4" y="77.91666666666666">Credentials</tspan></text></g></g><g class="subtechniques"/><g class="tactic-label"><text font-size="12" fill="black" font-weight="bold"><tspan text-anchor="middle" x="52.8876404494382" y="63.41666666666666">Credential</tspan><tspan text-anchor="middle" x="52.8876404494382" y="77.91666666666666">Access</tspan></text></g></g><g class="tactic discovery" transform="translate(587.6404494382023, 0)"><g class="techniques"><g class="technique T1087" transform="translate(0, 134.33333333333331)"><rect class="cell" height="134.33333333333331" width="105.7752808988764" fill="#8ec843" stroke="#6B7279"/><polygon class="sidebar" transform="translate(0, 134.33333333333331)" points="0,0 12,0 12,12" fill="#6B7279" visibility="hidden"/><text font-size="12" fill="black"><tspan x="4" y="63.41666666666666">Account</tspan><tspan x="4" y="77.91666666666666">Discovery</tspan></text></g><g class="technique T1538" transform="translate(0, 268.66666666666663)"><rect class="cell" height="134.33333333333331" width="105.7752808988764" fill="white" stroke="#6B7279"/><polygon class="sidebar" transform="translate(0, 134.33333333333331)" points="0,0 12,0 12,0" fill="#6B7279" visibility="hidden"/><text font-size="12" fill="black"><tspan x="4" y="55.999999999999986">Cloud</tspan><tspan x="4" y="70.66666666666666">Service</tspan><tspan x="4" y="85.33333333333331">Dashboard</tspan></text></g><g class="technique T1526" transform="translate(0, 403)"><rect class="cell" height="134.33333333333331" width="105.7752808988764" fill="white" stroke="#6B7279"/><polygon class="sidebar" transform="translate(0, 134.33333333333331)" points="0,0 12,0 12,0" fill="#6B7279" visibility="hidden"/><text font-size="12" fill="black"><tspan x="4" y="55.999999999999986">Cloud</tspan><tspan x="4" y="70.66666666666666">Service</tspan><tspan x="4" y="85.33333333333331">Discovery</tspan></text></g><g class="technique T1069" transform="translate(0, 537.3333333333333)"><rect class="cell" height="134.33333333333331" width="105.7752808988764" fill="white" stroke="#6B7279"/><polygon class="sidebar" transform="translate(0, 134.33333333333331)" points="0,0 12,0 12,12" fill="#6B7279" visibility="hidden"/><text font-size="12" fill="black"><tspan x="4" y="55.999999999999986">Permission</tspan><tspan x="4" y="70.66666666666666">Groups</tspan><tspan x="4" y="85.33333333333331">Discovery</tspan></text></g><g class="technique T1518" transform="translate(0, 671.6666666666667)"><rect class="cell" height="134.33333333333331" width="105.7752808988764" fill="white" stroke="#6B7279"/><polygon class="sidebar" transform="translate(0, 134.33333333333331)" points="0,0 12,0 12,12" fill="#6B7279" visibility="hidden"/><text font-size="12" fill="black"><tspan x="4" y="63.41666666666666">Software</tspan><tspan x="4" y="77.91666666666666">Discovery</tspan></text></g></g><g class="subtechniques"/><g class="tactic-label"><text font-size="12" fill="black" font-weight="bold"><tspan text-anchor="middle" x="52.8876404494382" y="70.66666666666666">Discovery</tspan></text></g></g><g class="tactic lateral-movement" transform="translate(705.1685393258426, 0)"><g class="techniques"><g class="technique T1534" transform="translate(0, 134.33333333333331)"><rect class="cell" height="134.33333333333331" width="105.7752808988764" fill="white" stroke="#6B7279"/><polygon class="sidebar" transform="translate(0, 134.33333333333331)" points="0,0 12,0 12,0" fill="#6B7279" visibility="hidden"/><text font-size="10.905704407951598" fill="black"><tspan x="4" y="63.41666666666666">Internal</tspan><tspan x="4" y="77.91666666666666">Spearphishing</tspan></text></g><g class="technique T1550" transform="translate(0, 268.66666666666663)"><rect class="cell" height="134.33333333333331" width="105.7752808988764" fill="white" stroke="#6B7279"/><polygon class="sidebar" transform="translate(0, 134.33333333333331)" points="0,0 12,0 12,12" fill="#6B7279" visibility="hidden"/><text font-size="10.126725521669341" fill="black"><tspan x="4" y="55.999999999999986">Use Alternate</tspan><tspan x="4" y="70.66666666666666">Authentication</tspan><tspan x="4" y="85.33333333333331">Material</tspan></text></g></g><g class="subtechniques"/><g class="tactic-label"><text font-size="12" fill="black" font-weight="bold"><tspan text-anchor="middle" x="52.8876404494382" y="63.41666666666666">Lateral</tspan><tspan text-anchor="middle" x="52.8876404494382" y="77.91666666666666">Movement</tspan></text></g></g><g class="tactic collection" transform="translate(822.6966292134831, 0)"><g class="techniques"><g class="technique T1213" transform="translate(0, 134.33333333333331)"><rect class="cell" height="134.33333333333331" width="105.7752808988764" fill="white" stroke="#6B7279"/><polygon class="sidebar" transform="translate(0, 134.33333333333331)" points="0,0 12,0 12,12" fill="#6B7279" visibility="hidden"/><text font-size="11.814513108614232" fill="black"><tspan x="4" y="55.999999999999986">Data from</tspan><tspan x="4" y="70.66666666666666">Information</tspan><tspan x="4" y="85.33333333333331">Repositories</tspan></text></g><g class="technique T1114" transform="translate(0, 268.66666666666663)"><rect class="cell" height="134.33333333333331" width="105.7752808988764" fill="#8ec843" stroke="#6B7279"/><polygon class="sidebar" transform="translate(0, 134.33333333333331)" points="0,0 12,0 12,12" fill="#6B7279" visibility="hidden"/><text font-size="12" fill="black"><tspan x="4" y="63.41666666666666">Email</tspan><tspan x="4" y="77.91666666666666">Collection</tspan></text></g></g><g class="subtechniques"/><g class="tactic-label"><text font-size="12" fill="black" font-weight="bold"><tspan text-anchor="middle" x="52.8876404494382" y="70.66666666666666">Collection</tspan></text></g></g><g class="tactic impact" transform="translate(940.2247191011236, 0)"><g class="techniques"><g class="technique T1499" transform="translate(0, 134.33333333333331)"><rect class="cell" height="134.33333333333331" width="105.7752808988764" fill="white" stroke="#6B7279"/><polygon class="sidebar" transform="translate(0, 134.33333333333331)" points="0,0 12,0 12,12" fill="#6B7279" visibility="hidden"/><text font-size="12" fill="black"><tspan x="4" y="55.999999999999986">Endpoint</tspan><tspan x="4" y="70.66666666666666">Denial</tspan><tspan x="4" y="85.33333333333331">of Service</tspan></text></g><g class="technique T1498" transform="translate(0, 268.66666666666663)"><rect class="cell" height="134.33333333333331" width="105.7752808988764" fill="white" stroke="#6B7279"/><polygon class="sidebar" transform="translate(0, 134.33333333333331)" points="0,0 12,0 12,12" fill="#6B7279" visibility="hidden"/><text font-size="12" fill="black"><tspan x="4" y="55.999999999999986">Network</tspan><tspan x="4" y="70.66666666666666">Denial</tspan><tspan x="4" y="85.33333333333331">of Service</tspan></text></g></g><g class="subtechniques"/><g class="tactic-label"><text font-size="12" fill="black" font-weight="bold"><tspan text-anchor="middle" x="52.8876404494382" y="70.66666666666666">Impact</tspan></text></g></g></g></g></g></svg>