<?xml version="1.0" encoding="utf-8"?>
<!-- Generator: Adobe Illustrator 26.3.1, SVG Export Plug-In . SVG Version: 6.00 Build 0)  -->
<svg version="1.1" id="19204b2d-0b25-4d96-ad49-f14974bb73ee" xmlns="http://www.w3.org/2000/svg" x="0px" y="0px"
	 viewBox="0 0 1250 450" xml:space="preserve">
<style type="text/css">
	.st0{fill:#141351;}
	.st1{fill:#A2E1DA;}
	.st2{opacity:0.8;}
	.st3{fill:#4FD7F7;}
	.st4{fill:#93B1F9;}
	.st5{fill:#4165F3;}
	.st6{fill:#00A5F7;}
	.st7{fill:#1FC9CA;}
</style>
<g>
	<g id="Group_13030_00000098208806969660740010000008120097281487905410_" transform="translate(178.172 273.324)">
		<path id="Path_23470_00000157292035082717630320000017197195880895442077_" class="st0" d="M277.28-8.95
			c-4.3,0.5-8.63,0.75-12.96,0.77c-8.36,0.59-16.72-1.21-24.09-5.19c-5.26-3.57-8.86-9.1-9.99-15.36
			c-1.73-9.89-2.47-19.92-2.21-29.95c-0.28-10.03,0.59-20.05,2.59-29.88c1.29-6.32,4.98-11.89,10.29-15.55
			c7.03-3.85,15.02-5.62,23.02-5.09c4.3,0.01,8.59,0.27,12.86,0.77c3.75,0.38,7.47,1.02,11.13,1.92v14.78
			c-6.4-1.15-12.89-1.73-19.39-1.72c-4.92-0.33-9.84,0.59-14.3,2.69c-3.29,2.22-5.46,5.76-5.95,9.69
			c-1.16,7.4-1.64,14.88-1.44,22.37c-0.21,7.58,0.3,15.17,1.53,22.65c0.5,3.94,2.71,7.45,6.05,9.6c4.57,1.97,9.54,2.83,14.5,2.5
			c6.63,0.02,13.25-0.55,19.77-1.73v14.82C284.94-9.96,281.12-9.33,277.28-8.95z"/>
		<path id="Path_23471_00000158012964444923486720000013683203369959535746_" class="st0" d="M309.44,27.51V12.73l6.14,0.19
			c7.42,0.38,13.76,0.57,19.01,0.57c6,0.36,12.02-0.52,17.67-2.59c3.52-1.65,6.07-4.84,6.91-8.64c1.23-6.35,1.75-12.82,1.54-19.29
			v-5.18h-1.15c-1.82,4.24-5.04,7.73-9.12,9.88c-5.5,2.52-11.53,3.67-17.57,3.36c-6.3,0.42-12.59-0.98-18.12-4.03
			c-4.16-2.87-7.05-7.24-8.06-12.19c-1.54-7.42-2.21-14.99-2.02-22.56v-59.87h18.61v53.95c-0.2,6.43,0.22,12.85,1.25,19.2
			c0.37,3.02,2.1,5.71,4.7,7.29c3.8,1.4,7.86,1.99,11.9,1.73c4.6,0.36,9.19-0.83,13.05-3.36c2.96-2.48,4.88-5.97,5.39-9.8
			c0.9-6.2,1.28-12.46,1.15-18.72v-50.3h18.61V-22c0.3,10.28-0.6,20.56-2.69,30.62c-1.47,6.53-5.57,12.16-11.33,15.55
			c-8.32,3.93-17.5,5.68-26.68,5.09C328.88,29.3,319.13,28.71,309.44,27.51z"/>
		<path id="Path_23472_00000008114689323558584910000009885695919301722004_" class="st0" d="M430.1-11.15
			c-4.79-2.25-8.44-6.39-10.08-11.42h-1.34l-0.77,12.87H401v-142.65h18.61v56.06h1.15c1.98-4.41,5.49-7.96,9.88-9.99
			c5.21-2.09,10.8-3.07,16.41-2.88c6.49-0.41,12.95,1.17,18.53,4.52c4.8,3.82,8.07,9.24,9.21,15.26c2.15,10.09,3.08,20.4,2.79,30.72
			c0.3,10.35-0.66,20.7-2.88,30.81c-1.18,6.08-4.56,11.52-9.5,15.26c-5.68,3.26-12.18,4.79-18.72,4.41
			C440.88-8.04,435.3-9.05,430.1-11.15z M452.37-26.99c3.02-2.02,4.96-5.3,5.28-8.92c1.1-7.53,1.54-15.14,1.34-22.75
			c0.21-7.58-0.24-15.15-1.34-22.65c-0.36-3.61-2.29-6.88-5.28-8.93c-4.15-1.76-8.66-2.51-13.15-2.2
			c-3.66-0.17-7.31,0.53-10.65,2.02c-2.66,1.37-4.75,3.65-5.88,6.43c-1.38,3.1-2.23,6.41-2.49,9.8c-0.38,3.84-0.57,9.03-0.57,15.55
			c0,6.27,0.19,11.33,0.57,15.18c0.27,3.36,1.04,6.67,2.3,9.8c1.1,2.87,3.18,5.25,5.88,6.72c3.39,1.57,7.12,2.3,10.85,2.11
			C443.71-24.56,448.21-25.29,452.37-26.99L452.37-26.99z"/>
		<path id="Path_23473_00000064332284026806327910000001443329293490675587_" class="st0" d="M567.84-52.52H511.4
			c-0.23,6.37,0.26,12.74,1.44,19c0.8,3.53,3.32,6.42,6.72,7.68c5.76,1.71,11.77,2.43,17.77,2.11c9.12-0.15,18.22-0.79,27.26-1.92
			v14.59c-4.67,1.06-9.42,1.77-14.2,2.11c-5.88,0.51-11.57,0.77-17.08,0.77c-9.17,0.58-18.35-1.03-26.78-4.7
			c-5.7-3.13-9.78-8.54-11.23-14.88c-2.12-10.1-3.02-20.41-2.69-30.72c-0.29-10.2,0.54-20.41,2.49-30.43
			c1.32-6.36,5.23-11.89,10.78-15.26c8.06-3.88,16.99-5.6,25.92-5c8.52-0.63,17.05,1.06,24.68,4.9c5.12,3.36,8.57,8.73,9.5,14.78
			c1.53,10.2,2.17,20.51,1.92,30.81L567.84-52.52z M518.22-91.5c-2.81,1.66-4.74,4.47-5.28,7.68c-1.11,6.01-1.63,12.12-1.54,18.24
			h38.4v-0.98c0.22-5.99-0.3-11.99-1.54-17.86c-0.58-3.12-2.52-5.83-5.28-7.39c-3.7-1.42-7.66-2.05-11.61-1.82
			C526.88-93.92,522.38-93.19,518.22-91.5L518.22-91.5z"/>
		<path id="Path_23474_00000151541922838026771260000006321500575358720162_" class="st0" d="M586.28-107.63h16.89l0.76,17.66h1.35
			c1.26-6.15,4.88-11.57,10.09-15.07c5.7-2.99,12.1-4.42,18.53-4.13v18.61c-6.13-0.33-12.23,1-17.66,3.84
			c-4.32,2.69-7.46,6.91-8.82,11.81c-1.89,7.1-2.73,14.44-2.5,21.79v43.39h-18.61L586.28-107.63z"/>
		<path id="Path_23475_00000104675436780082993580000004380646943885179297_" class="st0" d="M659.61-8.95
			c-6.01-0.51-11.2-1.08-15.55-1.72v-14.98c9.75,1.18,19.57,1.76,29.39,1.73c3.95,0.17,7.9-0.29,11.71-1.34
			c2.16-0.57,3.98-2.04,4.99-4.04c0.89-2.53,1.28-5.2,1.15-7.87c0.12-2.74-0.14-5.49-0.76-8.16c-0.37-1.43-1.36-2.62-2.69-3.26
			c-2.17-0.78-4.43-1.26-6.72-1.44l-21.12-2.88c-5.84-0.1-11.3-2.9-14.79-7.59c-2.98-6.11-4.31-12.89-3.84-19.68
			c-0.39-6.36,1.07-12.7,4.22-18.24c2.72-4.15,6.84-7.18,11.62-8.54c6.23-1.63,12.66-2.38,19.1-2.21c4.86,0,9.95,0.26,15.27,0.77
			c4.37,0.35,8.7,1.06,12.96,2.11v14.79c-8.9-1.3-17.88-1.94-26.88-1.92c-4.86-0.37-9.74,0.45-14.2,2.4
			c-2.69,1.6-4.03,5.09-4.04,10.46c-0.1,2.51,0.13,5.03,0.67,7.49c0.35,1.41,1.3,2.6,2.6,3.26c1.96,0.82,4.03,1.34,6.15,1.54
			l21.69,2.69c3.79,0.39,7.47,1.49,10.85,3.26c2.87,1.86,4.98,4.69,5.95,7.97c1.56,5.39,2.24,11,2.02,16.61
			c0.35,6.33-0.94,12.65-3.75,18.33c-2.41,4.21-6.31,7.36-10.94,8.82c-6.08,1.77-12.4,2.58-18.72,2.4
			C671.07-8.18,665.63-8.43,659.61-8.95z"/>
		<path id="Path_23476_00000181773372885935483990000016721249612627440292_" class="st0" d="M725.65-133.35v-19.01h19.39v19.01
			H725.65z M726.04-9.71v-97.92h18.61v97.92H726.04z"/>
		<path id="Path_23477_00000075122168051198140850000000043340656998633142_" class="st0" d="M821.65-9.71l-21.89-35.52h-1.15
			L776.92-9.71h-19.97l31.1-49.72l-29.95-48.19h20.74l20.73,33.98h0.98l20.73-33.98h19.78l-29.95,48L842.39-9.7L821.65-9.71z"/>
		<path id="Path_23478_00000133502645883188227310000000329317677063181752_" class="st0" d="M854.86,27.36V12.77
			c10.75,0.51,19.33,0.76,25.73,0.76c6.11,0.33,12.23-0.48,18.04-2.4c3.66-1.54,6.35-4.76,7.21-8.64
			c1.31-6.67,1.86-13.46,1.63-20.25v-4.23h-1.15c-1.79,4.46-5.23,8.07-9.6,10.08c-5.17,2.14-10.73,3.15-16.32,2.97
			c-6.59,0.39-13.15-1.11-18.91-4.32c-4.91-3.63-8.27-8.98-9.4-14.97c-3.74-20.24-3.71-41,0.09-61.22
			c1.19-6.11,4.61-11.55,9.6-15.27c5.72-3.25,12.25-4.78,18.81-4.41c5.53-0.12,11.02,0.93,16.12,3.07
			c4.85,2.31,8.58,6.45,10.37,11.52h1.15l0.76-13.05h17.08v84.99c0.31,10.44-0.59,20.87-2.69,31.1c-1.47,6.6-5.65,12.28-11.52,15.64
			c-8.52,3.94-17.89,5.69-27.26,5.09C874.66,29.38,864.71,28.75,854.86,27.36z M898.94-27.65c2.71-1.58,4.78-4.06,5.85-7.01
			c1.13-3.02,1.84-6.19,2.11-9.4c0.39-3.71,0.58-8.64,0.57-14.79c0-5.76-0.16-10.46-0.49-14.11c-0.22-3.18-0.9-6.32-2.01-9.31
			c-1-3.21-3.11-5.97-5.95-7.77c-3.43-1.77-7.28-2.6-11.13-2.4c-4.55-0.31-9.11,0.41-13.34,2.11c-2.99,1.98-4.91,5.24-5.19,8.82
			c-1.03,7.51-1.44,15.08-1.25,22.65c-0.21,7.48,0.24,14.97,1.34,22.37c0.38,3.57,2.31,6.8,5.28,8.82c4.15,1.76,8.65,2.52,13.15,2.2
			c3.8,0.2,7.6-0.55,11.04-2.19L898.94-27.65z"/>
		<path id="Path_23479_00000116219153782430675650000013802553694519514242_" class="st0" d="M947.21-133.35v-19.01h19.39v19.01
			H947.21z M947.59-9.71v-97.92h18.61v97.92H947.59z"/>
		<path id="Path_23480_00000042718467788180274510000007700661979300017050_" class="st0" d="M987.9-9.71v-142.65h18.61V-9.71H987.9
			z"/>
		<path id="Path_23481_00000124151820220123130410000007841792322368532639_" class="st0" d="M1028.22-9.71v-142.65h18.61V-9.71
			H1028.22z"/>
	</g>
	<g>
		<g>
			<g>
				<path class="st1" d="M59.65,331.35c-10.99,0-21.68-5.71-27.56-15.93c-8.74-15.2-3.52-34.61,11.69-43.37l258.11-148.53
					c15.18-8.74,34.61-3.51,43.35,11.69c8.75,15.2,3.53,34.61-11.68,43.36L75.46,327.1C70.46,329.97,65.02,331.35,59.65,331.35z"/>
			</g>
		</g>
		<g class="st2">
			<g>
				<path class="st3" d="M314.84,332.83c-5.38,0-10.83-1.37-15.82-4.24L40.92,180.07c-15.2-8.75-20.43-28.17-11.68-43.37
					c8.75-15.2,28.16-20.44,43.37-11.69l258.11,148.53c15.2,8.75,20.42,28.16,11.68,43.37
					C336.52,327.12,325.82,332.83,314.84,332.83z"/>
			</g>
		</g>
		<g>
			<g>
				<path class="st4" d="M187.85,405.65c-17.54,0-31.76-14.22-31.76-31.76V76.11c0-17.54,14.22-31.76,31.76-31.76
					c17.54,0,31.76,14.22,31.76,31.76v297.79C219.61,391.43,205.4,405.65,187.85,405.65z"/>
			</g>
		</g>
		<g>
			<g>
				<path class="st5" d="M219.62,76.23c0,17.61-14.27,31.88-31.88,31.88c-17.6,0-31.88-14.28-31.88-31.88
					c0-17.6,14.28-31.88,31.88-31.88C205.35,44.35,219.62,58.63,219.62,76.23z"/>
			</g>
		</g>
		<g>
			<g>
				<path class="st6" d="M346.53,300.98c0,17.59-14.27,31.87-31.88,31.87c-17.6,0-31.88-14.27-31.88-31.87
					c0-17.61,14.27-31.89,31.88-31.89C332.26,269.09,346.53,283.37,346.53,300.98z"/>
			</g>
		</g>
		<g>
			<g>
				<path class="st6" d="M88.9,152.69c0,17.61-14.27,31.88-31.88,31.88c-17.61,0-31.88-14.28-31.88-31.88
					c0-17.61,14.27-31.88,31.88-31.88C74.63,120.82,88.9,135.08,88.9,152.69z"/>
			</g>
		</g>
		<g>
			<g>
				<path class="st5" d="M219.62,373.63c0,17.6-14.27,31.88-31.88,31.88c-17.6,0-31.88-14.27-31.88-31.88
					c0-17.6,14.28-31.88,31.88-31.88C205.35,341.75,219.62,356.03,219.62,373.63z"/>
			</g>
		</g>
		<g>
			<g>
				<path class="st7" d="M349.47,151.11c0,17.6-14.26,31.87-31.87,31.87c-17.61,0-31.88-14.27-31.88-31.87
					c0-17.61,14.27-31.87,31.88-31.87C335.21,119.23,349.47,133.49,349.47,151.11z"/>
			</g>
		</g>
		<g>
			<g>
				<path class="st7" d="M91.55,299.54c0,17.61-14.26,31.88-31.88,31.88c-17.61,0-31.88-14.27-31.88-31.88
					c0-17.59,14.27-31.87,31.88-31.87C77.29,267.67,91.55,281.95,91.55,299.54z"/>
			</g>
		</g>
	</g>
</g>
</svg>
