<?xml version="1.0" encoding="UTF-8" standalone="no"?>
<svg xmlns="http://www.w3.org/2000/svg" version="1.1" viewBox="0 0 53.59 64.356" width="100%" height="100%">
 <g transform="translate(-216.07358,-549.28882)">
  <g transform="matrix(1.8232952,0,0,1.8232952,-597.71681,-124.12247)">
   <g transform="translate(0,-91.137241)">
    <g fill="#eb3c00" transform="matrix(0.74069815,0,0,0.74069815,98.5698,-8.2505871)">
     <path d="M129.979.04c33.738 1.193 60.724 28.925 60.724 62.962v36.786h1.806c10.497 0 19.007 8.506 19.007 19.005v112.202c0 10.496-8.501 19.005-19.007 19.005H19.491C8.994 250 .484 241.494.484 230.995V118.793c0-10.496 8.501-19.005 19.007-19.005h1.806V63.002c0-34.036 26.995-61.769 60.725-62.962h47.957zM61.157 99.788h90.932V57.831c0-13.812-11.192-25.008-24.998-25.008H86.155c-13.802 0-24.998 11.197-24.998 25.008v41.957zm22.017 74.71l39.824-15.287c3.695 3.467 8.598 5.579 13.979 5.579 11.495 0 20.813-9.64 20.813-21.531 0-11.891-9.318-21.53-20.813-21.53-10.188 0-18.666 7.573-20.462 17.574l-65.044 24.968a10.445 10.445 0 0 0-6.505 7.7c-1.505 5.166 1.177 10.709 6.294 12.673l65.148 25.008c1.536 10.323 10.16 18.227 20.569 18.227 11.495 0 20.813-9.639 20.813-21.53 0-11.891-9.318-21.531-20.813-21.531-5.154 0-9.871 1.938-13.506 5.149l-40.297-15.469z"/>
    </g>
   </g>
  </g>
 </g>
</svg>

