<?xml version="1.0" encoding="utf-8"?>
<!-- Generator: Adobe Illustrator 23.0.2, SVG Export Plug-In . SVG Version: 6.00 Build 0)  -->
<svg version="1.1" id="Layer_1" xmlns="http://www.w3.org/2000/svg" xmlns:xlink="http://www.w3.org/1999/xlink" x="0px" y="0px"
	 viewBox="0 0 174.7 74.7" style="enable-background:new 0 0 174.7 74.7;" xml:space="preserve">
<style type="text/css">
	.st0{fill:#FF6C0E;}
	.st1{fill:#54565A;}
</style>
<path class="st0" d="M0.1,51.7L20,0h7.3l21.2,51.7h-7.8l-2-5.4L15.1,30.5L7.4,51.7H0.1z M15.1,30.5l20.4,7.9l-8.2-22.2
	c-1.6-4.4-2.9-7.9-3.7-10.7c-0.7,3.4-1.6,6.7-2.8,9.9L15.1,30.5z"/>
<path class="st1" d="M65.3,46l0.9,5.6c-1.6,0.4-3.2,0.5-4.8,0.6c-1.9,0.1-3.7-0.3-5.4-1.1c-1.2-0.6-2.1-1.6-2.7-2.9
	c-0.5-1.2-0.8-3.7-0.8-7.5V19.2h-4.7v-4.9h4.7V5l6.3-3.8v13.1h6.4v4.9h-6.4v21.9c-0.1,1.2,0,2.4,0.3,3.5c0.2,0.5,0.6,1,1.1,1.2
	c0.7,0.3,1.4,0.5,2.2,0.5C63.4,46.3,64.4,46.2,65.3,46z"/>
<path class="st1" d="M85.3,46l0.9,5.6c-1.6,0.4-3.2,0.5-4.8,0.6c-1.9,0.1-3.7-0.3-5.4-1.1c-1.2-0.6-2.1-1.6-2.7-2.9
	c-0.5-1.2-0.8-3.7-0.8-7.5V19.2H68v-4.9h4.7V5L79,1.2v13.1h6.4v4.9H79v21.9c-0.1,1.2,0,2.4,0.3,3.5c0.2,0.5,0.6,1,1.1,1.2
	c0.7,0.3,1.4,0.5,2.2,0.5C83.5,46.3,84.4,46.2,85.3,46z"/>
<path class="st1" d="M91.6,51.7V14.2H98v37.5H91.6z"/>
<path class="st1" d="M118,51.7l-14.3-37.5h6.7l8,22.4c0.9,2.4,1.7,4.9,2.4,7.6c0.6-2,1.4-4.3,2.4-7.1l8.3-22.9h6.5l-14,37.5H118z"/>
<path class="st1" d="M139.6,33c0-6.9,1.9-12.1,5.8-15.4c3.3-2.8,7.5-4.3,11.8-4.2c4.7-0.2,9.3,1.7,12.6,5.1s4.9,8,4.9,14
	c0,4.8-0.7,8.6-2.2,11.4c-1.4,2.7-3.6,5-6.3,6.4c-2.8,1.5-5.9,2.3-9,2.3c-5.2,0-9.5-1.7-12.7-5C141.2,44.2,139.6,39.4,139.6,33z
	 M146.1,33c0,4.8,1,8.4,3.1,10.8c3.8,4.4,10.4,4.8,14.7,1c0.4-0.3,0.7-0.7,1-1c2.1-2.4,3.1-6.1,3.1-11c0-4.7-1.1-8.2-3.2-10.5
	c-3.8-4.3-10.4-4.8-14.8-1c-0.3,0.3-0.7,0.6-1,1C147.1,24.6,146.1,28.2,146.1,33z"/>
<path class="st1" d="M0,58.4h2.9l6.8,10.4V58.4h3v15.9H9.8L3,63.9v10.4H0V58.4z"/>
<path class="st1" d="M25.5,58.4h8.7v3h-5.7v2.9h5.7v2.9h-5.7v4.1h5.7v3h-8.7V58.4z"/>
<path class="st1" d="M44.6,58.4h8.8v3h-2.9v12.9h-3.1V61.4h-2.8V58.4z"/>
<path class="st1" d="M63.3,58.4h3l2.3,10.1l2.8-10.1H74l2.9,10.1l2.3-10.1h3l-3.6,15.9h-2.9l-3-10.3l-2.9,10.2h-2.9L63.3,58.4z"/>
<path class="st1" d="M101.1,58c2.2,0,4.3,0.9,5.8,2.4c1.6,1.6,2.5,3.7,2.4,5.9c0,2.2-0.8,4.3-2.4,5.9c-3.2,3.2-8.5,3.2-11.7,0l0,0
	c-2.6-2.7-3.1-6.8-1.3-10.1c0.7-1.2,1.8-2.3,3-3C98.2,58.4,99.6,58,101.1,58z M101.1,61c-1.4,0-2.7,0.5-3.7,1.5s-1.5,2.4-1.5,3.9
	c-0.1,1.6,0.6,3.2,1.9,4.2c0.9,0.8,2.1,1.2,3.4,1.2c1.4,0,2.7-0.5,3.7-1.6c2-2.2,2-5.5,0-7.7C103.8,61.5,102.5,60.9,101.1,61
	L101.1,61z"/>
<path class="st1" d="M121.5,58.4h3.2c1.3-0.1,2.5,0.1,3.7,0.5c0.7,0.3,1.4,0.9,1.8,1.6c0.5,0.8,0.7,1.7,0.7,2.6
	c0,0.9-0.2,1.8-0.8,2.6c-0.6,0.8-1.4,1.3-2.3,1.6l3.8,7h-3.3l-3.6-6.7h-0.3v6.7h-3L121.5,58.4z M124.5,64.6h0.9
	c0.7,0.1,1.4-0.1,2-0.4c0.4-0.3,0.6-0.8,0.5-1.2c0-0.3-0.1-0.6-0.3-0.9c-0.2-0.3-0.4-0.5-0.7-0.6c-0.5-0.1-1.1-0.2-1.7-0.2h-0.8
	L124.5,64.6z"/>
<path class="st1" d="M143.3,58.4h3.1v5.5l4.3-5.5h3.6l-5.5,7.1l6.1,8.8h-3.6l-4.9-7v7h-3.1L143.3,58.4L143.3,58.4z"/>
<path class="st1" d="M174.5,60.6l-2.2,2c-0.5-0.9-1.4-1.5-2.4-1.6c-0.4,0-0.7,0.1-1,0.3c-0.2,0.2-0.4,0.4-0.4,0.7s0.1,0.5,0.3,0.8
	c0.7,0.7,1.4,1.4,2.2,2c1.1,1,1.9,1.6,2.1,1.8c0.5,0.5,1,1.1,1.3,1.8c0.3,0.6,0.4,1.2,0.4,1.8c0,1.2-0.5,2.4-1.4,3.2
	c-1,0.9-2.2,1.3-3.5,1.3c-1,0-2.1-0.3-2.9-0.8c-0.9-0.7-1.7-1.6-2.1-2.6l2.5-1.5c0.8,1.4,1.6,2.1,2.6,2.1c0.5,0,0.9-0.1,1.3-0.4
	c0.3-0.2,0.5-0.6,0.5-1s-0.2-0.8-0.4-1.1c-0.5-0.6-1.1-1.2-1.8-1.7c-1.3-0.9-2.4-2-3.4-3.3c-0.5-0.7-0.7-1.5-0.8-2.3
	c0-1.1,0.4-2.1,1.3-2.8c0.8-0.8,1.9-1.2,3.1-1.2c0.8,0,1.6,0.2,2.3,0.6C173,59.1,173.8,59.8,174.5,60.6z"/>
<path class="st1" d="M98.1,4.6c0,1.9-1.5,3.4-3.3,3.4c-1.9,0-3.4-1.5-3.4-3.3c0-1.9,1.5-3.4,3.3-3.4l0,0C96.6,1.2,98.1,2.7,98.1,4.6
	L98.1,4.6z"/>
</svg>
