<?xml version="1.0" encoding="UTF-8" standalone="no"?>
<svg width="12px" height="13px" viewBox="0 0 12 13" version="1.1" xmlns="http://www.w3.org/2000/svg" xmlns:xlink="http://www.w3.org/1999/xlink">
    <!-- Generator: Sketch 40.3 (33839) - http://www.bohemiancoding.com/sketch -->
    <title>CLP_Ico</title>
    <desc>Created with Sketch.</desc>
    <defs></defs>
    <g id="Windows-10-AIP-RightClick" stroke="none" stroke-width="1" fill="none" fill-rule="evenodd">
        <g id="00-Minimum-size-with-3-labels-+-responsive---Single" transform="translate(-19.000000, -102.000000)" fill="#FFFFFF">
            <g id="Group-14-Copy-10" transform="translate(14.000000, 97.000000)">
                <g id="CLP_Icon">
                    <path d="M10.6446012,5.01085897 L16.9373331,5 L16.9404761,10.8676384 L11.8266472,16.6567216 C11.2496684,17.3098873 10.2557354,17.3646936 9.61749829,16.788934 L5.51630563,13.0892102 C4.87320519,12.5090626 4.82484696,11.5105259 5.40513115,10.8624481 L10.6446012,5.01085897 L10.6446012,5.01085897 Z M14.670419,8.99189785 C15.5435145,9.00716613 16.2636527,8.31042036 16.2788926,7.43567067 C16.2941326,6.56092177 15.5987032,5.83942 14.7256077,5.82415093 C13.8525122,5.80888186 13.1323741,6.50562842 13.1171341,7.3803781 C13.1018941,8.255127 13.7973235,8.97662877 14.670419,8.99189785 L14.670419,8.99189785 Z" id="CLP_Ico"></path>
                </g>
            </g>
        </g>
    </g>
</svg>