<?xml version="1.0" encoding="utf-8"?>
<!-- Generator: Adobe Illustrator 23.0.4, SVG Export Plug-In . SVG Version: 6.00 Build 0)  -->
<svg version="1.1" id="Layer_1" xmlns="http://www.w3.org/2000/svg" xmlns:xlink="http://www.w3.org/1999/xlink" x="0px" y="0px"
	 viewBox="0 0 90 90" style="enable-background:new 0 0 90 90;" xml:space="preserve">
<style type="text/css">
	.st0{fill:#4D8FCC;}
	.st1{fill:#2F74B1;}
	.st2{fill:#808285;}
	.st3{fill:#58595B;}
</style>
<g id="CyberArk_Vert_4C_1_">
	<g>
		<g>
			<polygon class="st0" points="30.1,36.4 45,27.8 45,9.7 14.4,27.4 			"/>
			<polygon class="st1" points="45,62.2 59.9,53.6 59.9,53.6 75.6,44.5 75.6,62.6 45,80.3 			"/>
			<polygon class="st1" points="45,27.8 59.9,36.4 75.6,27.3 45,9.7 			"/>
			<polygon class="st0" points="45,62.2 30.1,53.6 14.4,62.7 45,80.3 			"/>
			<polygon class="st1" points="30.1,53.6 30.1,36.4 14.4,27.4 14.4,62.7 			"/>
			<polygon class="st2" points="45,27.8 59.9,36.4 59.9,53.6 45,45 			"/>
			<polyline class="st3" points="45,27.8 30.1,36.4 30.1,53.6 45,45 45,27.8 			"/>
		</g>
	</g>
</g>
</svg>
