<svg width="1179" height="268" viewBox="0 0 1179 268" fill="none" xmlns="http://www.w3.org/2000/svg">
<path d="M46.7 217.3H3.19995V42.7H46.5999V217.3H46.7ZM408.4 173.7H270C273 203.2 288.7 222.8 319.3 222.8C340.2 222.8 355.7 213.4 364.1 195.5L406.2 208.3C391.3 243.5 357.9 262.8 321.8 262.8C262.8 262.8 224.2 221.4 224.2 164C224.2 98.7 265.4 60.9 319.3 60.9C381.8 60.9 413 108.7 408.4 173.7ZM365.1 141.5C361.8 113.8 349.4 98.3 321.1 98.3C292.8 98.3 276.2 112.3 271 141.5H365.1ZM952.2 173.7H813.8C816.8 203.2 832.5 222.8 863.1 222.8C884 222.8 899.5 213.4 907.9 195.5L950 208.3C935.1 243.5 901.7 262.8 865.6 262.8C806.6 262.8 768 221.4 768 164C768 98.7 809.2 60.9 863.1 60.9C925.6 60.9 956.8 108.7 952.2 173.7ZM908.9 141.5C905.6 113.8 893.2 98.3 864.9 98.3C836.6 98.3 820 112.3 814.8 141.5H908.9ZM427.5 257.5H470.2V2.5H427.5V257.5ZM501.2 257.5H543.8V66.2H501.2V257.5V257.5ZM501.2 47.2H543.8V2.5H501.2V47.2V47.2ZM675.4 60.9C650.3 60.9 629.3 70.6 612.9 92V66.2H574.8V257.4H618V159.2C618 126.5 630.1 100.9 662.8 100.9C698.2 100.9 707.4 130.3 707.4 165.4V257.4H750.6V150.7C750.6 104.2 732 60.9 675.4 60.9ZM1134.2 140.1V257.5H1096.8V231.7C1079.5 254.5 1058.2 262.8 1029.6 262.8C988.4 262.8 965.5 236.8 965.5 205.1C965.5 175.7 980.5 157.5 1009.1 147.9C1034 140 1065.5 136.4 1092.3 132.4C1090.5 108.3 1077.2 100.2 1053.2 100.2C1037.9 100.2 1017.3 106.5 1011.4 126.9L972.4 114.7C977.2 98.6 986.1 85.6 999.4 75.8C1012.7 66 1030.6 61.1 1053.1 61.1C1113.5 61.1 1130.7 94.6 1133 117.4C1133.9 124.2 1134.2 131.8 1134.2 140.1ZM1091.9 167.3C1077.8 169.5 1063.5 171.8 1048.2 174.8C1029.3 178.6 1007.5 185.1 1007.5 204.4C1007.5 217.3 1016.9 228.7 1038.3 228.7C1069.8 228.7 1090.3 207.6 1091.5 178.3C1091.7 174.2 1091.9 167.3 1091.9 167.3ZM1091.9 166.6C1091.9 166.3 1091.9 166.2 1091.9 166.6V166.6ZM1091.9 167V166.6V167ZM97.2 2.5H46.7V42.7C46.7 42.7 69.3 42.6 84.6 42.7C96.9 42.8 104 42.7 112.7 44.6C150.1 51.7 164.3 91.7 164.3 130C164.3 168.3 150.1 208.2 112.7 215.4C104.1 217.3 96.9 217.3 84.6 217.3C69.2 217.4 46.7 217.3 46.7 217.3V257.5H97.2C179.9 257.5 209.4 189.7 209.4 130C209.4 70.3 179.8 2.5 97.2 2.5Z" fill="#231556"/>
</svg>
