<!-- Generated by IcoMoon.io -->
<svg version="1.1" xmlns="http://www.w3.org/2000/svg" width="100%" height="100%" viewBox="-1000 1600 6500 500">
<g id="icomoon-ignore">
</g>
<path fill="#231f20" d="M3122.285 735.086h-166.506v-679.352l535.504 0.434c0 0 98.074-3.641 160.396 57.944 0 0 63.664 53.176 63.664 183.104v437.764h-166.072v-449.078c0 0 2.038-45.809-13.565-61.888 0 0-13.824-17.465-40.045-17.465h-373.77l0.347 528.58zM3830.892 734.997v-678.962h668.275v150.991l-502.528-0.043v115.411h349.179v145.833h-349.179v115.801h505.86v151.035h-671.596zM2665.802 734.997v-678.962h165.769v678.962h-165.769zM4780.276 164.232v0zM4737.546 734.956v-528.005h-156.495v-150.991h622.277v150.991h-300.075v528.005h-165.77zM2160.732 164.232v0zM2118.003 734.956v-528.005h-156.495v-150.991h622.277v150.991h-300.075v528.005h-165.769zM1617.971 322.2c40.479-0.304 64.747 0.043 74.498-5.894 0 0 17.032-9.405 17.206-29.601l0.043-44.379c0-20.283-17.206-29.601-17.206-29.601-12.916-7.021-34.843-5.72-86.849-5.764h-323.001v115.28h335.308zM1707.285 734.956v-231.73c0-20.845-17.422-29.557-17.422-29.557-7.845-4.896-31.376-5.764-66.004-5.764h-341.203v267.051h-165.769v-678.962h517.459c89.364 0.261 151.078 13.434 193.592 54.693 41.777 42.557 47.325 98.205 47.5 156.105v48.365c0.521 49.232-25.31 94.089-56.166 120.264l6.197 3.077c12.569 6.11 19.459 14.735 19.459 14.735 23.447 29.947 23.185 55.691 23.141 87.414v194.415h-160.83zM-799.457 55.885v678.962h165.769v-266.792h502.191v-145.876h-502.191v-115.367h583.839v-150.991h-749.592z"></path>
<path fill="#231f20" d="M5146.356 614.777v31.161h29.036c7.845 0 15.472-2.125 16.642-13.824 1.648-15.472-9.533-17.378-16.642-17.378h-29.036zM5134.698 604.548h40.435c14.042 0 27.607 2.643 28.777 23.057 0.478 11.702-3.077 15.949-11.917 22.624 9.318 5.938 9.577 7.367 10.965 23.057 0.911 11.917-0.736 13.824 4.291 21.669h-13.824l-1.907-11.399c-1.907-10.747 3.336-27.348-15.472-27.348h-29.773v38.788h-11.658v-90.447zM5165.123 579.544c-39.958 0-72.548 32.59-72.289 72.851 0 39.958 32.331 72.548 72.548 72.333 40.001 0 72.592-32.375 72.592-72.592 0-40.001-32.59-72.592-72.851-72.592zM5165.373 734.217c-45.419 0-82.084-36.622-82.084-82.041-0.175-45.203 36.706-82.084 82.084-82.084 45.203 0 82.084 36.881 82.084 82.084 0 45.419-36.881 81.866-82.084 82.041z"></path>
<path fill="#ee2e24" d="M889.322 741.455c53.869-18.289 95.777-80.306 105.875-158.315v-22.536h-276.11v180.851h170.235zM995.193 228.979v-20.411c-10.575-81.388-55.604-145.486-113.027-160.568h-163.083v180.938h276.11zM23.333 560.605v22.361c10.010 78.053 51.919 140.2 105.919 158.489h169.367v-180.851h-275.286zM136.308 48.083c-57.336 15.081-102.495 79.223-112.983 160.699v20.239h275.286v-180.938h-162.303zM995.213 304.343h-276.11v180.938h276.11v-180.938zM373.805 741.413h270.128v-180.851h-270.128v180.851zM643.894 48.083h-270.128v180.938h270.128v-180.938zM23.328 485.281h275.286v-180.938h-275.286v180.938z"></path>
</svg>
