<svg version="1.1" xmlns="http://www.w3.org/2000/svg" width="27" height="32" viewBox="0 0 27 32">
<title>informationProtection</title>
<path fill="#58b4d9" d="M16.637 0.005c4.319 0.153 7.773 3.702 7.773 8.059v4.709h0.231c1.344 0 2.433 1.089 2.433 2.433v14.362c0 1.343-1.088 2.433-2.433 2.433h-22.146c-1.344 0-2.433-1.089-2.433-2.433v-14.362c0-1.344 1.088-2.433 2.433-2.433h0.231v-4.709c0-4.357 3.455-7.906 7.773-8.059h6.138zM7.828 12.773h11.639v-5.37c0-1.768-1.433-3.201-3.2-3.201h-5.24c-1.767 0-3.2 1.433-3.2 3.201v5.37zM10.646 22.336l5.097-1.957c0.473 0.444 1.101 0.714 1.789 0.714 1.471 0 2.664-1.234 2.664-2.756s-1.193-2.756-2.664-2.756c-1.304 0-2.389 0.969-2.619 2.249l-8.326 3.196c-0.444 0.171-0.745 0.552-0.833 0.986-0.193 0.661 0.151 1.371 0.806 1.622l8.339 3.201c0.197 1.321 1.3 2.333 2.633 2.333 1.471 0 2.664-1.234 2.664-2.756s-1.193-2.756-2.664-2.756c-0.66 0-1.264 0.248-1.729 0.659l-5.158-1.98z"></path>
</svg>
