<svg version="1.0" xmlns="http://www.w3.org/2000/svg" x="100%" y="100%" viewBox="0 0 39 39">
<circle fill="#081F2D" cx="19.5" cy="19.5" r="19.3"/>
<linearGradient id="SVGID_1_" gradientUnits="userSpaceOnUse" x1="15.0061" y1="29.9317" x2="24.5455" y2="20.3923" gradientTransform="matrix(1 0 0 -1 0 40)">
	<stop  offset="0" style="stop-color:#80BE41"/>
	<stop  offset="0.2507" style="stop-color:#8AE246"/>
	<stop  offset="0.7" style="stop-color:#88D945"/>
	<stop  offset="0.7358" style="stop-color:#82D54A"/>
	<stop  offset="0.8585" style="stop-color:#72C957"/>
	<stop  offset="0.9531" style="stop-color:#6CC55C"/>
</linearGradient>
<path fill="url(#SVGID_1_)" d="M26.6,15c0,1.1,0,2.1,0,2.1h-3.8c0,0,0-0.8,0-2s-1.1-2.9-3.1-2.9c-2.2,0-3,2-3,2.9s0,2,0,2h-4.2
	c0,0,0-1.3,0-2.1c0-3.9,3.1-7,7-7S26.6,11.1,26.6,15z"/>
<linearGradient id="SVGID_2_" gradientUnits="userSpaceOnUse" x1="15.6874" y1="24.5833" x2="23.4306" y2="7.978" gradientTransform="matrix(1 0 0 -1 0 40)">
	<stop  offset="6.510416e-02" style="stop-color:#8AE246"/>
	<stop  offset="0.3484" style="stop-color:#8FF548"/>
	<stop  offset="0.6999" style="stop-color:#3FC6DE"/>
</linearGradient>
<path fill="url(#SVGID_2_)" d="M25.3,30.8H13.7c-1.4,0-2.6-1.2-2.6-2.6v-9c0-1.4,1.2-2.6,2.6-2.6h11.7c1.4,0,2.6,1.2,2.6,2.6v9
	C28,29.7,26.8,30.8,25.3,30.8z"/>
<linearGradient id="SVGID_3_" gradientUnits="userSpaceOnUse" x1="10.0446" y1="15.1087" x2="21.7635" y2="18.2487" gradientTransform="matrix(1 0 0 -1 0 40)">
	<stop  offset="0.1297" style="stop-color:#79B544"/>
	<stop  offset="0.9091" style="stop-color:#3D997F"/>
</linearGradient>
<path fill="url(#SVGID_3_)" d="M22.4,24.1c0.7,5-5.7,6.8-8.7,6.7c-1.4,0-2.6-1.2-2.6-2.6v-9c0-1,0.5-1.9,1.4-2.3
	c0,1.3,0.6,2,1.4,2.3C16.3,20.3,21.7,19.4,22.4,24.1z"/>
</svg>
