<svg viewBox="0 0 50 50" class="fxs-portal-svg" role="presentation" focusable="false" xmlns:svg="http://www.w3.org/2000/svg" xmlns:xlink="http://www.w3.org/1999/xlink" aria-hidden="true"><g><path d="M25 50c-1.2 0-2.4-.5-3.3-1.4L1.4 28.3C.5 27.4 0 26.2 0 25s.5-2.4 1.4-3.3L21.7 1.4C22.6.5 23.8 0 25 0s2.4.5 3.3 1.4l20.4 20.4c.9.9 1.4 2 1.4 3.3 0 1.2-.5 2.4-1.4 3.3L28.3 48.6c-.9.9-2.1 1.4-3.3 1.4" class="msportalfx-svg-c14"></path><path d="M29.738 18.584a7.68 7.68 0 0 1-4.68 1.589 7.7 7.7 0 0 1-6.131-3.025 7.706 7.706 0 0 1 1.437-10.811 7.643 7.643 0 0 1 4.679-1.588 7.697 7.697 0 0 1 6.131 3.026 7.708 7.708 0 0 1-1.436 10.809" class="msportalfx-svg-c01"></path><path opacity=".15" d="M28.3 1.4C27.4.5 26.2 0 25 0s-2.4.5-3.3 1.4L1.4 21.7C.5 22.6 0 23.8 0 25s.5 2.4 1.4 3.3l11.5 11.5L34.6 7.7l-6.3-6.3z" class="msportalfx-svg-c01"></path><path d="M25 45.6l6.6-6.6h-4.7V19.149H23V39h-4.6z" class="msportalfx-svg-c01"></path><path d="M39.33 33.48v-9.334l-3.253 3.253-8.444-8.444-2.828 2.828 8.444 8.444-3.253 3.253z" class="msportalfx-svg-c01"></path><path d="M10.685 33.515h9.333l-3.252-3.252 8.681-8.681-2.829-2.829-8.681 8.681-3.252-3.252z" class="msportalfx-svg-c01"></path><path d="M29.115 17.771a6.66 6.66 0 0 1-4.058 1.378 6.673 6.673 0 0 1-5.316-2.623 6.682 6.682 0 0 1 1.246-9.375 6.629 6.629 0 0 1 4.057-1.377 6.67 6.67 0 0 1 5.316 2.624 6.682 6.682 0 0 1-1.245 9.373" class="msportalfx-svg-c15"></path><path d="M27.886 13.635a1.441 1.441 0 0 0 2.018.269c.033-.025.058-.056.088-.083.645.454 1.092.754 1.344.925.075-.193.126-.379.179-.573a35.537 35.537 0 0 1-1.148-.898 1.437 1.437 0 0 0-.195-1.384 1.434 1.434 0 0 0-1.856-.368 60.051 60.051 0 0 1-2.219-2.096c2.452-1.319 4.194-1.126 4.194-1.126a6.698 6.698 0 0 0-.965-.989c-1.034-.16-2.64-.142-4.476.834l-.001-.001a53.625 53.625 0 0 1-1.868-2.063c-.303.097-.6.217-.886.36.468.766 1.098 1.538 1.807 2.292l.005.005a12.44 12.44 0 0 0-1.858 1.609 10.12 10.12 0 0 0-.225.249 2.023 2.023 0 0 0-1.102.075c-.606-1.307-.557-2.357-.461-2.898a7.005 7.005 0 0 0-.72.874c-.158.646-.203 1.578.264 2.701a2.016 2.016 0 0 0 .149 2.622 10.156 10.156 0 0 0-.391 2.344c.063.086.063.156.126.24.321.411.724.758 1.113 1.072a7.376 7.376 0 0 1 .459-3.043c.314.024.633-.026.932-.151a11.093 11.093 0 0 0 2.491 1.7 1.33 1.33 0 0 0 .259.941 1.337 1.337 0 0 0 1.868.246c.121-.093.217-.205.296-.325 1.041.232 1.95.273 2.624.273.103 0 .582-.652.857-1.056-.41.086-1.628.253-3.291-.225a1.329 1.329 0 0 0-.24-.53 1.323 1.323 0 0 0-1.771-.303 12.61 12.61 0 0 1-2.172-1.5 2.027 2.027 0 0 0 .085-2.02c.077-.077.152-.153.233-.229a14.63 14.63 0 0 1 1.744-1.411c-.022-.02-.042-.042-.063-.062l.064.061h-.001c.835.772 1.72 1.504 2.559 2.158a1.433 1.433 0 0 0 .151 1.484z" class="msportalfx-svg-c01"></path></g></svg>