<?xml version="1.0" encoding="UTF-8"?> <svg xmlns="http://www.w3.org/2000/svg" width="144px" height="35px" viewBox="0 0 143 35" version="1.1"><g id="surface1"><path style=" stroke:none;fill-rule:nonzero;fill:rgb(0%,0%,0%);fill-opacity:1;" d="M 47.359375 6.285156 C 46.050781 4.898438 44.027344 4.191406 41.347656 4.191406 L 37.390625 4.191406 C 37.359375 4.191406 37.335938 4.191406 37.304688 4.191406 C 34.667969 4.191406 32.679688 4.886719 31.394531 6.238281 C 30.085938 7.605469 29.425781 9.738281 29.425781 12.570312 L 29.425781 21.28125 C 29.425781 24.085938 30.085938 26.210938 31.394531 27.585938 C 32.710938 28.984375 34.734375 29.6875 37.402344 29.6875 L 41.347656 29.6875 C 44.027344 29.6875 46.050781 28.984375 47.359375 27.585938 C 48.652344 26.199219 49.3125 24.085938 49.3125 21.28125 L 49.3125 12.601562 C 49.3125 9.785156 48.652344 7.660156 47.359375 6.285156 M 45.335938 21.28125 C 45.335938 22.453125 45.203125 23.371094 44.945312 24.007812 C 44.722656 24.554688 44.375 24.9375 43.859375 25.160156 C 43.269531 25.429688 42.417969 25.5625 41.347656 25.5625 L 37.402344 25.5625 C 36.320312 25.5625 35.460938 25.429688 34.867188 25.160156 C 34.351562 24.9375 34.007812 24.554688 33.785156 24.007812 C 33.527344 23.371094 33.394531 22.453125 33.394531 21.28125 L 33.394531 12.570312 C 33.394531 11.394531 33.527344 10.476562 33.785156 9.839844 C 34.007812 9.292969 34.363281 8.914062 34.867188 8.6875 C 35.425781 8.441406 36.230469 8.308594 37.257812 8.308594 L 41.335938 8.308594 C 42.410156 8.308594 43.257812 8.441406 43.851562 8.722656 C 44.363281 8.957031 44.722656 9.335938 44.933594 9.886719 C 45.191406 10.523438 45.324219 11.4375 45.324219 12.601562 L 45.324219 21.28125 Z M 45.335938 21.28125 "></path><path style=" stroke:none;fill-rule:nonzero;fill:rgb(0%,0%,0%);fill-opacity:1;" d="M 23.191406 4.605469 C 23.09375 4.574219 22.992188 4.550781 22.890625 4.527344 C 21.984375 4.328125 21.082031 4.136719 20.1875 3.9375 C 19.886719 3.9375 19.863281 4.035156 19.761719 4.472656 L 14.601562 24.710938 C 14.3125 25.886719 14.175781 26.121094 13.484375 26.121094 C 12.925781 26.121094 12.824219 25.886719 12.5 24.710938 C 12.480469 24.632812 12.457031 24.542969 12.433594 24.464844 C 12.378906 24.230469 12.3125 23.996094 12.253906 23.761719 C 12.15625 23.402344 12.066406 23.035156 11.976562 22.675781 C 11.851562 22.207031 11.730469 21.75 11.609375 21.28125 C 11.460938 20.730469 11.316406 20.183594 11.171875 19.636719 C 11.015625 19.03125 10.847656 18.417969 10.691406 17.8125 C 10.523438 17.164062 10.355469 16.527344 10.175781 15.878906 C 10 15.21875 9.832031 14.558594 9.652344 13.898438 C 9.484375 13.25 9.304688 12.589844 9.136719 11.941406 C 8.972656 11.316406 8.816406 10.703125 8.648438 10.074219 C 8.5 9.503906 8.34375 8.933594 8.199219 8.363281 C 8.066406 7.871094 7.941406 7.378906 7.808594 6.886719 C 7.707031 6.496094 7.597656 6.09375 7.496094 5.703125 C 7.429688 5.421875 7.351562 5.15625 7.285156 4.886719 C 7.226562 4.695312 7.195312 4.496094 7.140625 4.304688 C 7.105469 4.183594 7.070312 4.027344 6.949219 3.957031 C 6.859375 3.914062 6.757812 3.925781 6.667969 3.949219 C 6.265625 4.015625 5.875 4.136719 5.472656 4.226562 C 5.070312 4.316406 4.679688 4.394531 4.277344 4.472656 C 4.03125 4.527344 3.789062 4.574219 3.550781 4.683594 C 3.464844 4.707031 3.394531 4.753906 3.351562 4.808594 C 3.296875 4.875 3.273438 4.976562 3.285156 5.066406 C 3.296875 5.300781 3.40625 5.578125 3.464844 5.816406 C 3.542969 6.105469 3.621094 6.40625 3.6875 6.699219 L 4 7.917969 C 4.132812 8.421875 4.257812 8.914062 4.390625 9.414062 C 4.535156 9.984375 4.679688 10.554688 4.828125 11.125 C 4.984375 11.742188 5.148438 12.367188 5.304688 12.984375 C 5.472656 13.632812 5.640625 14.269531 5.808594 14.917969 L 6.3125 16.875 C 6.480469 17.511719 6.636719 18.148438 6.804688 18.785156 C 6.960938 19.390625 7.117188 19.984375 7.273438 20.585938 C 7.417969 21.132812 7.550781 21.671875 7.699219 22.21875 L 8.054688 23.617188 C 8.144531 23.984375 8.246094 24.34375 8.335938 24.710938 C 8.402344 24.957031 8.457031 25.191406 8.523438 25.4375 C 8.546875 25.539062 8.578125 25.640625 8.601562 25.742188 C 9.550781 29.285156 10.054688 29.6875 13.472656 29.6875 C 17.125 29.6875 17.585938 29.253906 18.46875 25.742188 C 18.523438 25.527344 18.578125 25.316406 18.625 25.105469 C 18.769531 24.523438 18.914062 23.953125 19.058594 23.371094 C 19.273438 22.53125 19.484375 21.683594 19.683594 20.84375 C 19.941406 19.835938 20.1875 18.820312 20.445312 17.8125 C 20.710938 16.726562 20.980469 15.65625 21.25 14.570312 L 22.042969 11.40625 C 22.277344 10.476562 22.511719 9.539062 22.734375 8.609375 L 23.269531 6.472656 C 23.371094 6.050781 23.496094 5.625 23.582031 5.199219 C 23.660156 4.84375 23.449219 4.695312 23.191406 4.605469 "></path><path style=" stroke:none;fill-rule:nonzero;fill:rgb(0%,0%,0%);fill-opacity:1;" d="M 72.984375 4.203125 L 54.664062 4.203125 C 54.339844 4.203125 54.171875 4.371094 54.171875 4.695312 L 54.171875 7.402344 C 54.171875 7.726562 54.339844 7.894531 54.664062 7.894531 L 61.726562 7.894531 L 61.726562 28.929688 C 61.726562 29.253906 61.882812 29.421875 62.214844 29.421875 L 65.390625 29.421875 C 65.714844 29.421875 65.871094 29.253906 65.871094 28.929688 L 65.871094 7.90625 L 72.964844 7.90625 C 73.289062 7.90625 73.453125 7.738281 73.453125 7.414062 L 73.453125 4.707031 C 73.464844 4.371094 73.308594 4.203125 72.984375 4.203125 "></path><path style=" stroke:none;fill-rule:nonzero;fill:rgb(0%,0%,0%);fill-opacity:1;" d="M 83.722656 4.203125 L 80.550781 4.203125 C 80.226562 4.203125 80.058594 4.371094 80.058594 4.695312 L 80.058594 28.894531 C 80.058594 29.253906 80.226562 29.421875 80.550781 29.421875 L 83.722656 29.421875 C 84.046875 29.421875 84.203125 29.253906 84.203125 28.894531 L 84.203125 4.707031 C 84.214844 4.371094 84.046875 4.203125 83.722656 4.203125 "></path><path style=" stroke:none;fill-rule:nonzero;fill:rgb(0%,0%,0%);fill-opacity:1;" d="M 132.34375 21.269531 C 132.34375 22.441406 132.207031 23.359375 131.949219 24.007812 C 131.726562 24.554688 131.382812 24.9375 130.867188 25.171875 C 130.273438 25.4375 129.425781 25.574219 128.355469 25.574219 L 124.410156 25.574219 C 123.328125 25.574219 122.464844 25.4375 121.875 25.171875 C 121.359375 24.9375 121.015625 24.566406 120.789062 24.007812 C 120.535156 23.371094 120.398438 22.441406 120.398438 21.269531 L 120.398438 12.546875 C 120.398438 11.371094 120.535156 10.457031 120.789062 9.816406 C 121.015625 9.269531 121.371094 8.890625 121.875 8.667969 C 122.433594 8.421875 123.238281 8.285156 124.265625 8.285156 L 125.875 8.285156 C 126.042969 8.285156 126.199219 8.195312 126.277344 8.050781 C 126.609375 7.425781 127.515625 5.726562 128.195312 4.449219 C 128.265625 4.328125 128.175781 4.171875 128.03125 4.171875 L 124.398438 4.171875 C 124.367188 4.171875 124.34375 4.171875 124.308594 4.171875 C 121.683594 4.171875 119.683594 4.863281 118.398438 6.21875 C 117.09375 7.59375 116.433594 9.71875 116.433594 12.558594 L 116.433594 21.28125 C 116.433594 24.085938 117.09375 26.210938 118.398438 27.597656 C 119.71875 28.996094 121.738281 29.699219 124.410156 29.699219 L 128.355469 29.699219 C 131.035156 29.699219 133.058594 28.996094 134.363281 27.597656 C 135.660156 26.210938 136.320312 24.085938 136.320312 21.28125 L 136.320312 16.539062 C 136.320312 16.226562 136.074219 15.980469 135.761719 15.980469 L 132.910156 15.980469 C 132.597656 15.980469 132.351562 16.226562 132.351562 16.539062 L 132.351562 21.269531 Z M 132.34375 21.269531 "></path><path style=" stroke:none;fill-rule:nonzero;fill:rgb(30.588235%,95.686275%,62.352941%);fill-opacity:1;" d="M 139.089844 3.164062 C 138.988281 3.085938 138.84375 3.097656 138.765625 3.1875 L 134.410156 8.398438 C 134.296875 8.53125 134.085938 8.542969 133.960938 8.421875 L 131.359375 5.746094 C 131.257812 5.636719 131.078125 5.65625 131 5.792969 L 129.605469 8.253906 C 129.503906 8.429688 129.527344 8.667969 129.671875 8.8125 L 133.839844 13.082031 C 134.128906 13.386719 134.609375 13.363281 134.878906 13.039062 L 141.257812 5.402344 C 141.359375 5.277344 141.347656 5.097656 141.222656 5 Z M 139.089844 3.164062 "></path><path style=" stroke:none;fill-rule:nonzero;fill:rgb(0%,0%,0%);fill-opacity:1;" d="M 105.261719 19.859375 C 109.027344 19.253906 110.378906 17.378906 110.378906 12.246094 C 110.378906 5.546875 107.941406 4.035156 100.746094 4.035156 C 98.511719 4.035156 95.597656 4.105469 93.007812 4.304688 C 92.613281 4.339844 92.515625 4.40625 92.515625 4.761719 L 92.515625 28.929688 C 92.515625 29.320312 92.613281 29.421875 93.007812 29.421875 L 96.210938 29.421875 C 96.601562 29.421875 96.703125 29.320312 96.703125 28.929688 L 96.703125 20.160156 L 100.660156 20.128906 C 101.640625 21.691406 102.613281 23.246094 103.597656 24.8125 L 106.882812 30.203125 C 107.015625 30.414062 107.285156 30.484375 107.496094 30.347656 L 110.132812 28.691406 C 110.34375 28.558594 110.402344 28.28125 110.277344 28.066406 Z M 96.703125 16.773438 L 96.703125 7.738281 L 100.367188 7.738281 C 104.972656 7.738281 106.167969 8.429688 106.167969 12.355469 C 106.167969 16.382812 104.972656 16.773438 100.367188 16.773438 Z M 96.703125 16.773438 "></path></g></svg> 