<svg version="1.1" id="Layer_1" xmlns="http://www.w3.org/2000/svg" xmlns:xlink="http://www.w3.org/1999/xlink" x="0px" y="0px"
	 width="100%" viewBox="0 0 216 216" enable-background="new 0 0 216 216" xml:space="preserve">
<path fill="#FEFEFE" opacity="1.000000" stroke="none" 
	d="
M1.000000,82.000000 
	C1.000000,54.666668 1.000000,27.833336 1.000000,1.000004 
	C72.999992,1.000002 144.999985,1.000002 217.000000,1.000001 
	C217.000000,72.999992 217.000000,144.999985 217.000000,216.999969 
	C145.000015,216.999985 73.000031,216.999985 1.000022,217.000000 
	C1.000000,172.166672 1.000000,127.333336 1.000000,82.000000 
M117.632729,142.096756 
	C133.600220,132.816956 149.527023,123.465828 165.569901,114.318214 
	C168.736282,112.512733 169.938538,110.317772 169.917679,106.722900 
	C169.795868,85.731735 169.785706,64.739037 169.924500,43.748089 
	C169.949524,39.961182 168.706253,37.623775 165.384827,35.722038 
	C147.337433,25.388689 129.363266,14.925783 111.447647,4.365356 
	C107.896248,2.271965 104.951714,2.151849 101.296593,4.318235 
	C83.549789,14.836735 65.704254,25.191643 47.781437,35.407551 
	C44.330910,37.374332 42.874714,39.602730 42.900475,43.681152 
	C43.072014,70.836212 42.986256,97.992874 42.998100,125.149017 
	C42.998745,126.621719 43.125092,128.094376 43.197166,129.659164 
	C46.464828,130.472244 49.501106,131.227753 53.169022,132.140411 
	C53.169022,129.959747 53.169018,128.180344 53.169022,126.400948 
	C53.169029,101.077431 53.257893,75.753296 53.084579,50.430969 
	C53.054493,46.034233 54.504295,43.449757 58.366390,41.294590 
	C72.747932,33.269230 87.023994,25.046160 101.167839,16.609253 
	C105.006920,14.319213 107.986282,14.488119 111.717064,16.719097 
	C125.995010,25.257189 140.380035,33.620964 154.849609,41.830334 
	C158.192032,43.726665 159.488525,46.012280 159.456421,49.802402 
	C159.312500,66.794601 159.306702,83.789482 159.460449,100.781509 
	C159.494980,104.597061 158.134430,106.875206 154.826401,108.743309 
	C140.049911,117.087807 125.335762,125.547386 110.736015,134.196518 
	C107.574692,136.069336 105.146889,136.071106 102.035362,134.242905 
	C90.132057,127.249046 78.108650,120.458916 66.097771,113.649712 
	C64.659126,112.834114 63.022640,112.367493 61.017975,111.552048 
	C61.017975,121.058670 61.017975,129.680542 61.017975,138.663376 
	C64.240791,139.514130 67.382927,140.343582 70.846306,141.257828 
	C71.101784,137.121109 71.330177,133.422897 71.623650,128.670868 
	C80.267990,133.648422 87.955490,138.199875 95.760109,142.540787 
	C108.545204,149.651810 104.197464,149.675674 117.632729,142.096756 
M82.501732,47.952057 
	C89.121231,44.115585 95.608154,40.013672 102.439613,36.601566 
	C104.536705,35.554138 108.070297,35.460102 110.100731,36.531513 
	C119.358261,41.416466 128.422150,46.700573 137.292130,52.261559 
	C139.144516,53.422905 140.886032,56.328487 140.962036,58.490623 
	C141.336243,69.135078 141.334839,79.806915 140.965027,90.451668 
	C140.889099,92.637154 139.200760,95.592003 137.352158,96.750275 
	C128.479416,102.309677 119.251030,107.297699 110.249542,112.657570 
	C107.265663,114.434288 104.865532,114.178276 101.992737,112.332451 
	C93.038322,106.579102 83.930656,101.063965 74.872116,95.473145 
	C70.692642,92.893608 66.489235,90.352852 61.389149,87.240730 
	C61.389149,90.191872 61.609093,92.149643 61.346169,94.040268 
	C60.671165,98.894104 62.369648,101.780846 66.910912,104.232574 
	C78.757072,110.628036 90.273483,117.641197 101.834312,124.553658 
	C104.904594,126.389442 107.539238,126.484009 110.638084,124.625229 
	C122.759865,117.354248 134.936981,110.172752 147.186081,103.118706 
	C150.295303,101.328163 151.663910,99.023590 151.643433,95.477287 
	C151.561630,81.323112 151.572983,67.168037 151.635132,53.013668 
	C151.650696,49.466991 150.201874,47.245415 147.060730,45.463993 
	C134.910233,38.573162 122.863831,31.495777 110.861252,24.349169 
	C107.605095,22.410379 104.752197,22.493977 101.556847,24.407339 
	C93.424805,29.276770 85.593948,34.953220 76.909897,38.525749 
	C63.771492,43.930752 58.734158,52.399052 60.750092,66.524712 
	C62.011723,75.364960 62.267563,77.317039 71.610855,80.886292 
	C71.610855,75.919746 72.132607,71.075508 71.498894,66.387451 
	C70.293907,57.473125 73.023827,51.252029 82.501732,47.952057 
M2.397202,196.509216 
	C2.397202,202.644379 2.397202,208.779541 2.397202,215.249237 
	C4.153086,215.249237 5.517004,215.249237 7.462740,215.249237 
	C7.462740,211.974442 7.462740,208.933594 7.462740,205.594955 
	C9.489572,206.257339 10.872242,206.818130 12.307081,207.159897 
	C19.798515,208.944275 26.358973,204.525009 27.697842,196.844711 
	C28.960533,189.601471 24.185917,182.703537 16.880808,182.236115 
	C12.229054,181.938461 7.497360,182.890152 2.397375,183.315338 
	C2.397375,187.238632 2.397375,191.377380 2.397202,196.509216 
M33.453094,195.360413 
	C34.901455,203.259369 38.878899,207.271500 45.678577,207.153732 
	C49.966560,207.079453 54.244781,206.441513 58.780159,206.033676 
	C58.780159,198.616608 58.780159,190.732529 58.780159,182.296402 
	C56.227104,182.743088 53.736778,183.985580 51.842442,183.375992 
	C41.510483,180.051208 34.922234,183.892075 33.453094,195.360413 
M93.719528,205.920792 
	C93.777168,201.596115 93.669006,197.260910 93.942482,192.949921 
	C94.181183,189.187103 96.158211,186.593750 100.231606,186.656693 
	C104.388847,186.720917 105.378075,189.673904 105.403740,193.172882 
	C105.436356,197.620621 105.411636,202.068802 105.411636,206.659088 
	C107.271530,206.659088 108.547966,206.659088 110.139641,206.659088 
	C110.139641,200.988846 110.377403,195.510223 110.069954,190.062378 
	C109.786385,185.037659 106.156471,181.845261 101.134048,181.904236 
	C98.857742,181.930969 96.589027,182.603775 94.078682,183.023300 
	C93.944633,180.150635 93.808281,177.228592 93.670670,174.279572 
	C91.955521,174.279572 90.579933,174.279572 89.174889,174.279572 
	C89.174889,185.190720 89.174889,195.794083 89.174889,206.626038 
	C90.640442,206.626038 91.903679,206.626038 93.719528,205.920792 
M214.257492,205.385834 
	C210.626022,201.541885 206.994553,197.697937 202.764221,193.220078 
	C206.340698,189.809708 210.195786,186.133667 214.062073,182.446945 
	C206.945175,180.098206 204.883759,187.966080 199.225342,189.564804 
	C199.225342,184.209198 199.225342,179.262787 199.225342,173.967072 
	C197.437866,174.077606 196.049301,174.163483 194.655182,174.249695 
	C194.655182,185.256393 194.655182,195.870010 194.655182,206.870590 
	C196.305679,206.756256 197.670502,206.661713 199.405350,206.541534 
	C199.405350,203.693024 199.405350,201.262848 199.405350,197.711823 
	C202.593475,200.591309 204.753082,203.213089 207.508240,204.802582 
	C209.459503,205.928284 212.216095,205.658066 214.257492,205.385834 
M130.992508,194.525146 
	C131.880096,201.894760 135.589188,206.283722 141.602936,207.080444 
	C148.171829,207.950714 153.900681,204.991592 155.887619,199.581207 
	C157.697052,194.654129 157.156021,189.987167 153.484818,186.104340 
	C149.872910,182.284241 145.349991,181.120346 140.245560,182.576508 
	C134.644485,184.174332 131.632111,187.930450 130.992508,194.525146 
M170.208038,206.440079 
	C179.330261,208.498352 184.015762,206.212921 187.221619,196.910110 
	C184.396118,198.259201 182.287674,198.823044 180.757187,200.086823 
	C177.335602,202.912140 172.875610,203.244995 169.938065,200.470871 
	C166.927353,197.627701 166.766937,192.012299 169.614853,189.157578 
	C172.670288,186.094833 177.207108,186.288162 180.877747,189.225037 
	C182.362900,190.413345 184.445755,190.854630 186.256638,191.635834 
	C186.652359,190.973190 187.048096,190.310532 187.443832,189.647873 
	C184.975067,187.424286 182.833588,184.547333 179.969620,183.112717 
	C173.956055,180.100479 166.642746,182.940247 163.792862,188.716080 
	C160.597153,195.192795 162.826294,201.960266 170.208038,206.440079 
M74.894775,198.024216 
	C74.894775,194.615799 74.894775,191.207397 74.894775,188.277374 
	C77.852386,186.723923 83.223030,189.647079 81.464790,183.182816 
	C79.262657,183.023041 77.157440,182.870285 75.122528,182.722626 
	C74.891014,180.869400 74.693024,179.284500 74.490700,177.664978 
	C72.885925,177.664978 71.623192,177.664978 70.155815,177.664978 
	C70.023247,179.488083 69.907417,181.081116 69.883865,181.404953 
	C68.025391,183.041321 65.991783,184.486374 66.138680,184.759735 
	C66.968224,186.303528 68.321045,187.566116 69.976715,189.481003 
	C69.976715,191.962418 69.845398,195.296173 70.007942,198.615570 
	C70.243294,203.421890 73.108459,206.337234 77.742058,206.869934 
	C81.262772,207.274704 82.802917,206.148911 80.718964,203.227829 
	C78.804565,201.791809 76.890175,200.355789 74.894775,198.024216 
M119.096558,192.493927 
	C119.096802,196.148361 119.223045,199.808304 119.063118,203.455719 
	C118.890732,207.387482 120.809479,207.377899 123.687859,206.343811 
	C123.687859,195.574570 123.687859,185.001617 123.687859,174.290375 
	C122.110146,174.290375 120.751610,174.290375 119.475410,174.290375 
	C119.301292,174.930038 119.144569,175.240204 119.142998,175.551147 
	C119.116135,180.866257 119.108459,186.181458 119.096558,192.493927 
z"/>
<path fill="#3AB86A" opacity="1.000000" stroke="none" 
	d="
M117.317047,142.284378 
	C104.197464,149.675674 108.545204,149.651810 95.760109,142.540787 
	C87.955490,138.199875 80.267990,133.648422 71.623650,128.670868 
	C71.330177,133.422897 71.101784,137.121109 70.846306,141.257828 
	C67.382927,140.343582 64.240791,139.514130 61.017975,138.663376 
	C61.017975,129.680542 61.017975,121.058670 61.017975,111.552048 
	C63.022640,112.367493 64.659126,112.834114 66.097771,113.649712 
	C78.108650,120.458916 90.132057,127.249046 102.035362,134.242905 
	C105.146889,136.071106 107.574692,136.069336 110.736015,134.196518 
	C125.335762,125.547386 140.049911,117.087807 154.826401,108.743309 
	C158.134430,106.875206 159.494980,104.597061 159.460449,100.781509 
	C159.306702,83.789482 159.312500,66.794601 159.456421,49.802402 
	C159.488525,46.012280 158.192032,43.726665 154.849609,41.830334 
	C140.380035,33.620964 125.995010,25.257189 111.717064,16.719097 
	C107.986282,14.488119 105.006920,14.319213 101.167839,16.609253 
	C87.023994,25.046160 72.747932,33.269230 58.366390,41.294590 
	C54.504295,43.449757 53.054493,46.034233 53.084579,50.430969 
	C53.257893,75.753296 53.169029,101.077431 53.169022,126.400948 
	C53.169018,128.180344 53.169022,129.959747 53.169022,132.140411 
	C49.501106,131.227753 46.464828,130.472244 43.197166,129.659164 
	C43.125092,128.094376 42.998745,126.621719 42.998100,125.149017 
	C42.986256,97.992874 43.072014,70.836212 42.900475,43.681152 
	C42.874714,39.602730 44.330910,37.374332 47.781437,35.407551 
	C65.704254,25.191643 83.549789,14.836735 101.296593,4.318235 
	C104.951714,2.151849 107.896248,2.271965 111.447647,4.365356 
	C129.363266,14.925783 147.337433,25.388689 165.384827,35.722038 
	C168.706253,37.623775 169.949524,39.961182 169.924500,43.748089 
	C169.785706,64.739037 169.795868,85.731735 169.917679,106.722900 
	C169.938538,110.317772 168.736282,112.512733 165.569901,114.318214 
	C149.527023,123.465828 133.600220,132.816956 117.317047,142.284378 
z"/>
<path fill="#33B976" opacity="1.000000" stroke="none" 
	d="
M82.177719,48.123329 
	C73.023827,51.252029 70.293907,57.473125 71.498894,66.387451 
	C72.132607,71.075508 71.610855,75.919746 71.610855,80.886292 
	C62.267563,77.317039 62.011723,75.364960 60.750092,66.524712 
	C58.734158,52.399052 63.771492,43.930752 76.909897,38.525749 
	C85.593948,34.953220 93.424805,29.276770 101.556847,24.407339 
	C104.752197,22.493977 107.605095,22.410379 110.861252,24.349169 
	C122.863831,31.495777 134.910233,38.573162 147.060730,45.463993 
	C150.201874,47.245415 151.650696,49.466991 151.635132,53.013668 
	C151.572983,67.168037 151.561630,81.323112 151.643433,95.477287 
	C151.663910,99.023590 150.295303,101.328163 147.186081,103.118706 
	C134.936981,110.172752 122.759865,117.354248 110.638084,124.625229 
	C107.539238,126.484009 104.904594,126.389442 101.834312,124.553658 
	C90.273483,117.641197 78.757072,110.628036 66.910912,104.232574 
	C62.369648,101.780846 60.671165,98.894104 61.346169,94.040268 
	C61.609093,92.149643 61.389149,90.191872 61.389149,87.240730 
	C66.489235,90.352852 70.692642,92.893608 74.872116,95.473145 
	C83.930656,101.063965 93.038322,106.579102 101.992737,112.332451 
	C104.865532,114.178276 107.265663,114.434288 110.249542,112.657570 
	C119.251030,107.297699 128.479416,102.309677 137.352158,96.750275 
	C139.200760,95.592003 140.889099,92.637154 140.965027,90.451668 
	C141.334839,79.806915 141.336243,69.135078 140.962036,58.490623 
	C140.886032,56.328487 139.144516,53.422905 137.292130,52.261559 
	C128.422150,46.700573 119.358261,41.416466 110.100731,36.531513 
	C108.070297,35.460102 104.536705,35.554138 102.439613,36.601566 
	C95.608154,40.013672 89.121231,44.115585 82.177719,48.123329 
z"/>
<path fill="#454544" opacity="1.000000" stroke="none" 
	d="
M2.397289,196.012665 
	C2.397375,191.377380 2.397375,187.238632 2.397375,183.315338 
	C7.497360,182.890152 12.229054,181.938461 16.880808,182.236115 
	C24.185917,182.703537 28.960533,189.601471 27.697842,196.844711 
	C26.358973,204.525009 19.798515,208.944275 12.307081,207.159897 
	C10.872242,206.818130 9.489572,206.257339 7.462740,205.594955 
	C7.462740,208.933594 7.462740,211.974442 7.462740,215.249237 
	C5.517004,215.249237 4.153086,215.249237 2.397202,215.249237 
	C2.397202,208.779541 2.397202,202.644379 2.397289,196.012665 
M7.646453,192.353836 
	C6.722065,199.135986 10.760024,203.862717 16.464952,202.575531 
	C20.300634,201.710098 22.540253,199.165176 22.738916,195.275497 
	C22.935852,191.419632 21.137440,188.417664 17.337421,187.319580 
	C13.153319,186.110474 9.885493,187.627594 7.646453,192.353836 
z"/>
<path fill="#3F3F3E" opacity="1.000000" stroke="none" 
	d="
M33.444313,194.967590 
	C34.922234,183.892075 41.510483,180.051208 51.842442,183.375992 
	C53.736778,183.985580 56.227104,182.743088 58.780159,182.296402 
	C58.780159,190.732529 58.780159,198.616608 58.780159,206.033676 
	C54.244781,206.441513 49.966560,207.079453 45.678577,207.153732 
	C38.878899,207.271500 34.901455,203.259369 33.444313,194.967590 
M50.222057,187.966156 
	C46.269592,185.942398 42.283279,186.313751 40.212746,190.137909 
	C38.933781,192.500122 38.866394,196.318359 39.827469,198.896851 
	C41.114735,202.350479 44.802795,203.035904 48.346832,202.173584 
	C54.540005,200.666687 55.746777,193.962997 50.222057,187.966156 
z"/>
<path fill="#424241" opacity="1.000000" stroke="none" 
	d="
M93.443222,206.273407 
	C91.903679,206.626038 90.640442,206.626038 89.174889,206.626038 
	C89.174889,195.794083 89.174889,185.190720 89.174889,174.279572 
	C90.579933,174.279572 91.955521,174.279572 93.670670,174.279572 
	C93.808281,177.228592 93.944633,180.150635 94.078682,183.023300 
	C96.589027,182.603775 98.857742,181.930969 101.134048,181.904236 
	C106.156471,181.845261 109.786385,185.037659 110.069954,190.062378 
	C110.377403,195.510223 110.139641,200.988846 110.139641,206.659088 
	C108.547966,206.659088 107.271530,206.659088 105.411636,206.659088 
	C105.411636,202.068802 105.436356,197.620621 105.403740,193.172882 
	C105.378075,189.673904 104.388847,186.720917 100.231606,186.656693 
	C96.158211,186.593750 94.181183,189.187103 93.942482,192.949921 
	C93.669006,197.260910 93.777168,201.596115 93.443222,206.273407 
z"/>
<path fill="#454544" opacity="1.000000" stroke="none" 
	d="
M214.435349,205.698395 
	C212.216095,205.658066 209.459503,205.928284 207.508240,204.802582 
	C204.753082,203.213089 202.593475,200.591309 199.405350,197.711823 
	C199.405350,201.262848 199.405350,203.693024 199.405350,206.541534 
	C197.670502,206.661713 196.305679,206.756256 194.655182,206.870590 
	C194.655182,195.870010 194.655182,185.256393 194.655182,174.249695 
	C196.049301,174.163483 197.437866,174.077606 199.225342,173.967072 
	C199.225342,179.262787 199.225342,184.209198 199.225342,189.564804 
	C204.883759,187.966080 206.945175,180.098206 214.062073,182.446945 
	C210.195786,186.133667 206.340698,189.809708 202.764221,193.220078 
	C206.994553,197.697937 210.626022,201.541885 214.435349,205.698395 
z"/>
<path fill="#40403F" opacity="1.000000" stroke="none" 
	d="
M131.038010,194.113708 
	C131.632111,187.930450 134.644485,184.174332 140.245560,182.576508 
	C145.349991,181.120346 149.872910,182.284241 153.484818,186.104340 
	C157.156021,189.987167 157.697052,194.654129 155.887619,199.581207 
	C153.900681,204.991592 148.171829,207.950714 141.602936,207.080444 
	C135.589188,206.283722 131.880096,201.894760 131.038010,194.113708 
M138.206802,200.188705 
	C140.914032,200.937637 143.807693,202.685379 146.288712,202.222321 
	C151.078293,201.328339 153.250458,195.965698 151.378036,191.651413 
	C149.563400,187.470230 144.648483,185.550110 140.521011,187.409851 
	C135.935364,189.476044 134.823380,194.299988 138.206802,200.188705 
z"/>
<path fill="#424241" opacity="1.000000" stroke="none" 
	d="
M169.867828,206.283203 
	C162.826294,201.960266 160.597153,195.192795 163.792862,188.716080 
	C166.642746,182.940247 173.956055,180.100479 179.969620,183.112717 
	C182.833588,184.547333 184.975067,187.424286 187.443832,189.647873 
	C187.048096,190.310532 186.652359,190.973190 186.256638,191.635834 
	C184.445755,190.854630 182.362900,190.413345 180.877747,189.225037 
	C177.207108,186.288162 172.670288,186.094833 169.614853,189.157578 
	C166.766937,192.012299 166.927353,197.627701 169.938065,200.470871 
	C172.875610,203.244995 177.335602,202.912140 180.757187,200.086823 
	C182.287674,198.823044 184.396118,198.259201 187.221619,196.910110 
	C184.015762,206.212921 179.330261,208.498352 169.867828,206.283203 
z"/>
<path fill="#444442" opacity="1.000000" stroke="none" 
	d="
M74.935280,198.471985 
	C76.890175,200.355789 78.804565,201.791809 80.718964,203.227829 
	C82.802917,206.148911 81.262772,207.274704 77.742058,206.869934 
	C73.108459,206.337234 70.243294,203.421890 70.007942,198.615570 
	C69.845398,195.296173 69.976715,191.962418 69.976715,189.481003 
	C68.321045,187.566116 66.968224,186.303528 66.138680,184.759735 
	C65.991783,184.486374 68.025391,183.041321 69.883865,181.404953 
	C69.907417,181.081116 70.023247,179.488083 70.155815,177.664978 
	C71.623192,177.664978 72.885925,177.664978 74.490700,177.664978 
	C74.693024,179.284500 74.891014,180.869400 75.122528,182.722626 
	C77.157440,182.870285 79.262657,183.023041 81.464790,183.182816 
	C83.223030,189.647079 77.852386,186.723923 74.894775,188.277374 
	C74.894775,191.207397 74.894775,194.615799 74.935280,198.471985 
z"/>
<path fill="#4A4A48" opacity="1.000000" stroke="none" 
	d="
M119.096558,191.995285 
	C119.108459,186.181458 119.116135,180.866257 119.142998,175.551147 
	C119.144569,175.240204 119.301292,174.930038 119.475410,174.290375 
	C120.751610,174.290375 122.110146,174.290375 123.687859,174.290375 
	C123.687859,185.001617 123.687859,195.574570 123.687859,206.343811 
	C120.809479,207.377899 118.890732,207.387482 119.063118,203.455719 
	C119.223045,199.808304 119.096802,196.148361 119.096558,191.995285 
z"/>
<path fill="#F8F8F8" opacity="1.000000" stroke="none" 
	d="
M7.786633,191.995300 
	C9.885493,187.627594 13.153319,186.110474 17.337421,187.319580 
	C21.137440,188.417664 22.935852,191.419632 22.738916,195.275497 
	C22.540253,199.165176 20.300634,201.710098 16.464952,202.575531 
	C10.760024,203.862717 6.722065,199.135986 7.786633,191.995300 
z"/>
<path fill="#FBFBFB" opacity="1.000000" stroke="none" 
	d="
M50.558304,188.177612 
	C55.746777,193.962997 54.540005,200.666687 48.346832,202.173584 
	C44.802795,203.035904 41.114735,202.350479 39.827469,198.896851 
	C38.866394,196.318359 38.933781,192.500122 40.212746,190.137909 
	C42.283279,186.313751 46.269592,185.942398 50.558304,188.177612 
z"/>
<path fill="#FBFBFB" opacity="1.000000" stroke="none" 
	d="
M137.960480,199.887543 
	C134.823380,194.299988 135.935364,189.476044 140.521011,187.409851 
	C144.648483,185.550110 149.563400,187.470230 151.378036,191.651413 
	C153.250458,195.965698 151.078293,201.328339 146.288712,202.222321 
	C143.807693,202.685379 140.914032,200.937637 137.960480,199.887543 
z"/>
</svg>