<svg xmlns="http://www.w3.org/2000/svg" viewBox="0 0 48 32"><path d="M20.857 21.589c0-.035.035-.07.07-.07h.439c.035 0 .07.035.07.07v2.417c0 .035-.035.07-.07.07h-.439a.075.075 0 0 1-.07-.07v-2.417zm1.045 0c0-.035.028-.07.063-.07h.891a1.28 1.28 0 0 1 1.281 1.274c0 .71-.578 1.281-1.281 1.281h-.891c-.035 0-.063-.035-.063-.07v-2.417zm.954 1.943c.411 0 .682-.327.682-.738s-.265-.738-.682-.738h-.383v1.476h.383zm1.672-1.943a.07.07 0 0 1 .07-.07h1.511a.07.07 0 0 1 .07.07v.397a.07.07 0 0 1-.07.07h-1.01v.453h.836c.035 0 .07.035.07.07v.397a.07.07 0 0 1-.07.07h-.836v.494h1.01a.07.07 0 0 1 .07.07v.397a.07.07 0 0 1-.07.07h-1.511a.07.07 0 0 1-.07-.07V21.59zm2.04-.042c0-.035.035-.063.07-.063h.056c.035 0 .063.028.091.056l1.4 1.344h.007v-1.295a.07.07 0 0 1 .07-.07h.439c.035 0 .07.035.07.07v2.458c0 .042-.035.063-.07.063h-.035a.123.123 0 0 1-.091-.042l-1.421-1.428h-.007v1.365a.07.07 0 0 1-.07.07h-.432a.075.075 0 0 1-.07-.07l-.007-2.458zm3.266.508h-.522a.07.07 0 0 1-.07-.07v-.397a.07.07 0 0 1 .07-.07h1.623a.07.07 0 0 1 .07.07v.397a.07.07 0 0 1-.07.07h-.522v1.95c0 .035-.035.07-.07.07h-.439a.075.075 0 0 1-.07-.07v-1.95zm1.644-.466c0-.035.035-.07.07-.07h.439c.035 0 .07.035.07.07v2.417c0 .035-.035.07-.07.07h-.439a.075.075 0 0 1-.07-.07v-2.417zm1.615.466h-.522a.07.07 0 0 1-.07-.07v-.397a.07.07 0 0 1 .07-.07h1.623a.07.07 0 0 1 .07.07v.397a.07.07 0 0 1-.07.07h-.522v1.95c0 .035-.035.07-.07.07h-.439a.075.075 0 0 1-.07-.07v-1.95zm2.305.815-.808-1.219c-.028-.049 0-.104.056-.104h.474c.028 0 .049.021.056.035l.508.745.508-.745c.014-.014.028-.035.056-.035h.474c.056 0 .091.056.056.104l-.815 1.219v1.156c0 .035-.035.07-.07.07h-.432a.07.07 0 0 1-.07-.07V22.87z" fill="#40535d"/><path d="M22.034 11.707c0-.125.111-.223.237-.223h.188c.125 0 .216.091.313.188l4.826 4.638h.014v-4.464c0-.125.098-.237.237-.237h1.511c.125 0 .237.111.237.237v8.461c0 .153-.111.223-.237.223h-.125a.387.387 0 0 1-.313-.139l-4.889-4.917h-.014v4.687a.236.236 0 0 1-.237.237h-1.497a.244.244 0 0 1-.237-.237l-.014-8.454zm9.082.139c0-.125.098-.237.237-.237h5.209c.139 0 .237.111.237.237v1.372a.235.235 0 0 1-.237.237H33.08v1.56h2.862c.125 0 .237.111.237.237v1.372a.235.235 0 0 1-.237.237H33.08v1.699h3.482c.139 0 .237.111.237.237v1.372a.235.235 0 0 1-.237.237H31.36a.235.235 0 0 1-.237-.237v-8.322zM11.923 22.647a7.87 7.87 0 0 1-3.983-6.79l.787-.007a7.087 7.087 0 0 0 3.586 6.107l-.39.689zm7.876-.056a7.863 7.863 0 0 1-7.869.056l.39-.682a7.085 7.085 0 0 0 7.082-.049l.397.676zm-11.86-6.734a7.87 7.87 0 0 1 3.886-6.846l.397.676a7.081 7.081 0 0 0-3.496 6.163l-.787.007z" fill="#04aada"/><path d="M11.825 9.012a7.863 7.863 0 0 1 7.869-.056l-.39.682a7.085 7.085 0 0 0-7.082.049l-.397-.676z" fill="#04aada"/><path d="M15.809 9.506a6.289 6.289 0 0 1 5.453 3.148l-.682.397a5.511 5.511 0 0 0-4.77-2.758v-.787zm5.459 9.443a6.296 6.296 0 0 1-5.453 3.148v-.787a5.502 5.502 0 0 0 4.77-2.758l.682.397zm-5.459 3.148a6.289 6.289 0 0 1-5.453-3.148l.682-.397a5.505 5.505 0 0 0 4.77 2.758v.787z" fill="#04aada"/><path d="M10.356 18.949a6.28 6.28 0 0 1 0-6.296l.682.397a5.52 5.52 0 0 0 0 5.509l-.682.39z" fill="#04aada"/><path d="M15.809 11.08a4.724 4.724 0 0 1 0 9.444 4.724 4.724 0 0 1 0-9.444zm-2.382 3.343a2.752 2.752 0 0 0 0 2.758 2.758 2.758 0 1 0 0-2.758z" fill="#04aada"/><path d="M38.142 11.867h-.272c-.021 0-.035-.014-.035-.035v-.146c0-.021.014-.035.035-.035h.78c.021 0 .035.014.035.035v.146c0 .021-.014.035-.035.035h-.272v1.017c0 .021-.014.035-.035.035h-.167c-.021 0-.035-.014-.035-.035v-1.017zm.836-.181c0-.014.014-.028.035-.028h.028c.014 0 .028.007.028.021l.39.843h.007l.39-.843c.007-.014.014-.021.028-.021h.028c.021 0 .028.014.035.028l.209 1.198c.007.028-.007.042-.035.042h-.16c-.014 0-.028-.014-.035-.028l-.104-.676h-.007l-.313.696c-.007.014-.014.021-.028.021h-.035c-.014 0-.028-.007-.028-.021l-.313-.696h-.007l-.104.676c0 .014-.014.028-.035.028h-.16c-.021 0-.035-.014-.035-.042l.223-1.198z" fill="#40535d"/></svg>