<?xml version="1.0" encoding="UTF-8"?>
<svg version="1.1" viewBox="0 0 400 400" xml:space="preserve"
    xmlns="http://www.w3.org/2000/svg"
    xmlns:cc="http://creativecommons.org/ns#"
    xmlns:dc="http://purl.org/dc/elements/1.1/"
    xmlns:rdf="http://www.w3.org/1999/02/22-rdf-syntax-ns#">
    <metadata>
        <rdf:RDF>
            <cc:Work rdf:about="">
                <dc:format>image/svg+xml</dc:format>
                <dc:type rdf:resource="http://purl.org/dc/dcmitype/StillImage"/>
            </cc:Work>
        </rdf:RDF>
    </metadata>
    <g transform="matrix(1.3333 0 0 -1.3333 0 400)">
        <g transform="scale(.1)">
            <path d="m1717.7 430.58h-67.12l-165.49 198.38 28.43 1.418c76.46 2.34 81.59 52.801 83.56 67.461 7.58 54.34-28.3 78.98-72.83 79.691l-75.99 0.321-52.21 44.808 126.1-0.449h1.71c97.34 0 135.53-59.75 127.81-116.42-1.87-40.168-26.57-85.641-79.73-104.33l145.76-170.88" fill="#1e516e"/>
            <path d="m799.2 433.6h-69.523l-142.71 392.07h55.816l122.97-344.94 122.97 344.94h53.191l-142.72-392.07" fill="#1e516e"/>
            <path d="m1347.3 433.6h-52.13v337.84l-109.02-229.88h-31.07l-108.23 229.88v-337.84h-48.708v392.07h71.098l104.54-218.28 101.11 218.28h72.41v-392.07" fill="#1e516e"/>
            <path d="m2114.8 430.58h-55.56l-38.45 109.27h-169.57l-38.45-109.27h-52.92l142.72 392.08h69.51l142.72-392.08m-178.79 346.52-68.99-192.48h137.72l-68.73 192.48" fill="#1e516e"/>
            <path d="m2275.1 430.58h-52.14v166.41l-138.51 225.67h57.67l107.18-175.37 108.22 175.37h55.56l-137.98-220.14v-171.94" fill="#1e516e"/>
            <path d="m1500 1982.8-308 586.68h616l-308-586.68" fill="#1e516e"/>
            <path d="m1023.3 1066.1h-623.33l550 1041.3 315.33-579.33-242-462" fill="#1e516e"/>
            <path d="m2600 1066.1h-623.25l-121 231-120.92 231-0.03-0.08-0.04 0.08 315.33 579.33 549.91-1041.3" fill="#1e516e"/>
            <path d="m1500 1066.1h-476.67l242 462 234.67-462" fill="#82a1af"/>
            <path d="m1976.7 1066.1h-476.67l234.8 461.92 120.95-230.92 120.92-231" fill="#82a1af"/>
            <path d="m1855.8 1297.1-120.95 230.92 0.03 0.08 120.92-231" fill="#0f4864"/>
            <path d="m1265.3 1528.1-315.33 579.33 242 462.01 308-586.68-234.67-454.66" fill="#82a1af"/>
            <path d="m1734.7 1528.1-234.67 454.66 308 586.68 242-462.01-315.33-579.33" fill="#82a1af"/>
            <path d="m1500 1066.1-234.67 462 234.67 454.66 234.67-454.66-234.67-462" fill="#ccd9de"/>
            <path d="m950 2107.4-242 462.01h484l-242-462.01" fill="#1e516e"/>
            <path d="m2050 2107.4-242 462.01h484l-242-462.01" fill="#1e516e"/>
        </g>
    </g>
</svg>
