<svg width="75" height="75" viewBox="0 0 75 75" fill="none" xmlns="http://www.w3.org/2000/svg">
<rect width="75" height="75" rx="4" fill="#001423"/>
<path d="M42.539 42.0165C42.2 42.8595 41.4591 42.9544 41.1441 42.9544H41.1331C40.8244 42.9521 40.0728 42.8552 39.7406 41.9974L35.6709 31.4986C34.7953 29.2392 32.6528 27.7798 30.213 27.7798C27.7732 27.7798 25.6307 29.2392 24.7551 31.4986L20.6854 41.997C20.3532 42.8548 19.6012 42.9521 19.2929 42.954H19.2819C18.9669 42.954 18.226 42.8591 17.887 42.0161L12.1295 27.7345H7.44922L13.8524 43.6181C14.7476 45.8365 16.8748 47.2658 19.2819 47.2658H19.3209C21.7433 47.2486 23.8705 45.7892 24.7398 43.5447L28.8095 33.0462C29.1441 32.1837 29.9024 32.0911 30.213 32.0911C30.5236 32.0911 31.2819 32.1837 31.6165 33.0462L35.6862 43.5447C36.5555 45.7888 38.6823 47.2482 41.1051 47.2658H41.1441C43.5516 47.2658 45.6787 45.8365 46.5736 43.6181L52.9768 27.7345H48.2969L42.539 42.0165Z" fill="white"/>
<path d="M54.4585 47.1364H59.1384L66.9605 27.7345H62.2801L54.4585 47.1364Z" fill="white"/>
</svg>
