<?xml version="1.0" encoding="utf-8"?>
<!-- Generator: Adobe Illustrator 24.1.0, SVG Export Plug-In . SVG Version: 6.00 Build 0)  -->
<svg version="1.1" id="Layer_1" xmlns="http://www.w3.org/2000/svg" xmlns:xlink="http://www.w3.org/1999/xlink" x="0px" y="0px"
	 viewBox="0 0 277.58 49.49" style="enable-background:new 0 0 277.58 49.49;" xml:space="preserve">
<style type="text/css">
	.st0{fill:url(#SVGID_1_);}
	.st1{fill:url(#SVGID_2_);}
	.st2{fill:url(#SVGID_3_);}
	.st3{fill:url(#SVGID_4_);}
	.st4{opacity:0.5;fill:url(#SVGID_5_);}
	.st5{opacity:0.6;fill:#303A56;}
	.st6{fill:url(#SVGID_6_);}
	.st7{fill:#F59D15;}
	.st8{opacity:0.5;fill:url(#SVGID_7_);}
	.st9{opacity:0.5;fill:url(#SVGID_8_);}
</style>
<g>
	<linearGradient id="SVGID_1_" gradientUnits="userSpaceOnUse" x1="50.4608" y1="27.1517" x2="76.1527" y2="27.1517">
		<stop  offset="0" style="stop-color:#303A56"/>
		<stop  offset="1" style="stop-color:#303A56"/>
	</linearGradient>
	<path class="st0" d="M62.08,11.75h-9.85c-1.23,0-1.76,0.53-1.76,1.76v27.27c0,1.23,0.53,1.76,1.76,1.76h9.85
		c9.06,0,14.08-5.45,14.08-15.4C76.15,17.21,71.14,11.75,62.08,11.75z M62.08,36.79h-4.79V17.52h4.79c4.71,0,7.13,3.39,7.13,9.63
		S66.78,36.79,62.08,36.79z"/>
	
		<linearGradient id="SVGID_2_" gradientUnits="userSpaceOnUse" x1="-768.5527" y1="2151.6816" x2="-477.1884" y2="2151.6816" gradientTransform="matrix(0.0926 0 0 0.0926 146.39 -171.9916)">
		<stop  offset="0" style="stop-color:#303A56"/>
		<stop  offset="1" style="stop-color:#303A56"/>
	</linearGradient>
	<path class="st1" d="M75.43,40.88l9.68-28.29c0.26-0.7,1.23-0.92,2.51-0.92h2.29c1.28,0,2.24,0.22,2.51,0.92l9.68,28.29
		c0.09,0.31,0.13,0.57,0.13,0.79c0,0.62-0.66,0.97-2.2,0.97h-1.93c-1.28,0-2.24-0.22-2.46-0.92l-1.76-5.37H83.49l-1.76,5.37
		c-0.22,0.66-0.97,0.92-2.02,0.92h-1.76c-1.85,0-2.68-0.35-2.68-0.97C75.26,41.45,75.35,41.18,75.43,40.88z M91.98,30.54l-2.51-7.83
		c-0.22-0.57-0.66-2.81-0.66-2.81h-0.18c0,0-0.39,2.07-0.66,2.81l-2.6,7.83H91.98z"/>
	
		<linearGradient id="SVGID_3_" gradientUnits="userSpaceOnUse" x1="-444.3718" y1="2152.1567" x2="-191.5094" y2="2152.1567" gradientTransform="matrix(0.0926 0 0 0.0926 146.39 -171.9916)">
		<stop  offset="0" style="stop-color:#303A56"/>
		<stop  offset="1" style="stop-color:#303A56"/>
	</linearGradient>
	<path class="st2" d="M105.26,13.51c0-1.23,0.53-1.76,1.76-1.76h8.58c7.61,0,10.95,2.99,10.95,8.27c0,3.39-2.11,5.85-5.15,6.99v0.18
		c1.1,0.44,2.42,2.16,3.17,4.05l3.87,9.68c0.13,0.35,0.22,0.62,0.22,0.84c0,0.53-0.84,0.88-2.64,0.88h-1.8
		c-1.28,0-2.29-0.22-2.55-0.92l-3.48-8.58c-0.88-1.76-1.58-2.64-4.44-2.64h-1.72v10.73c0,0.92-0.79,1.41-2.64,1.41h-1.5
		c-1.85,0-2.64-0.48-2.64-1.41V13.51z M116.22,24.64c1.8,0,3.39-1.67,3.39-3.78c0-2.02-1.41-3.34-3.69-3.34h-3.87v7.13H116.22z"/>
	<linearGradient id="SVGID_4_" gradientUnits="userSpaceOnUse" x1="132.0971" y1="27.1518" x2="155.0618" y2="27.1518">
		<stop  offset="0" style="stop-color:#303A56"/>
		<stop  offset="1" style="stop-color:#303A56"/>
	</linearGradient>
	<path class="st3" d="M132.1,13.07c0-0.92,0.79-1.41,2.64-1.41h1.54c1.85,0,2.64,0.48,2.64,1.41v11.79l0.18,0.04l7.65-12.41
		c0.4-0.66,1.36-0.84,2.64-0.84h2.07c1.72,0,2.46,0.26,2.46,0.66c0,0.22-0.09,0.53-0.35,0.92l-8.49,13.02l9.63,14.78
		c0.26,0.4,0.35,0.7,0.35,0.92c0,0.4-0.75,0.66-2.46,0.66h-2.55c-1.28,0-2.29-0.18-2.68-0.84l-8.27-13.37l-0.18,0.04v12.76
		c0,0.92-0.79,1.41-2.64,1.41h-1.54c-1.85,0-2.64-0.48-2.64-1.41V13.07z"/>
	
		<linearGradient id="SVGID_5_" gradientUnits="userSpaceOnUse" x1="-1207.2329" y1="1943.6547" x2="-1141.3503" y2="1943.6547" gradientTransform="matrix(0.0926 0 0 0.0926 146.39 -171.9916)">
		<stop  offset="0" style="stop-color:#303A56"/>
		<stop  offset="1" style="stop-color:#303A56"/>
	</linearGradient>
	<path class="st4" d="M38.8,10.74c-1.57,0.6-3.33-0.18-3.94-1.76c-0.6-1.57,0.18-3.33,1.76-3.94c1.57-0.6,3.33,0.18,3.94,1.76
		C41.16,8.38,40.37,10.14,38.8,10.74z"/>
	<path class="st5" d="M166.15,15.1h-8.45c-0.62,0-0.88-0.4-0.88-1.32v-0.7c0-0.92,0.26-1.32,0.88-1.32h20.63
		c0.62,0,0.88,0.4,0.88,1.32v0.7c0,0.92-0.26,1.32-0.88,1.32h-8.31v26.57c0,0.62-0.53,0.97-1.76,0.97h-0.35
		c-1.23,0-1.76-0.35-1.76-0.97V15.1z"/>
	<path class="st5" d="M203.6,41.32l-3.43-8.67c-1.14-2.9-2.11-4.88-3.96-5.5v-0.18c3.08-1.23,5.06-3.65,5.06-7.44
		c0-5.54-3.74-7.79-10.6-7.79h-7.39c-0.92,0-1.32,0.4-1.32,1.32v28.59c0,0.62,0.53,0.97,1.76,0.97h0.35c1.23,0,1.76-0.35,1.76-0.97
		V29h3.96c3.43,0,5.24,0.88,6.55,4.31l3.34,8.62c0.18,0.44,0.88,0.7,1.76,0.7h0.44c1.28,0,1.85-0.26,1.85-0.7
		C203.73,41.8,203.68,41.58,203.6,41.32z M191.63,25.66h-5.81V15.1h5.5c3.56,0,5.94,1.58,5.94,5.15
		C197.26,23.15,194.8,25.66,191.63,25.66z"/>
	<path class="st5" d="M205.6,41.27l10.42-28.9c0.18-0.53,0.88-0.7,1.76-0.7h1.28c0.88,0,1.58,0.18,1.76,0.7l10.43,28.95
		c0.09,0.22,0.13,0.4,0.13,0.57c0,0.44-0.57,0.75-1.89,0.75h-0.35c-0.88,0-1.58-0.18-1.76-0.7l-2.6-7.21h-12.93l-2.51,7.21
		c-0.18,0.53-0.88,0.7-1.76,0.7h-0.22c-1.32,0-1.89-0.26-1.89-0.75C205.46,41.71,205.51,41.54,205.6,41.27z M223.59,31.37
		l-4.62-13.11l-0.57-2.55l-0.7,2.55l-4.62,13.11H223.59z"/>
	<path class="st5" d="M245.42,11.49c4.36,0,8.4,1.54,8.4,2.73c0,0.75-0.92,2.55-1.5,2.55c-0.48,0-2.59-1.94-6.82-1.94
		c-7.04,0-10.34,3.7-10.34,12.36c0,8.45,3.26,12.27,10.16,12.27c4.53,0,6.99-2.2,7.57-2.2c0.57,0,1.54,1.85,1.54,2.38
		c0,1.19-3.96,3.17-9.11,3.17c-9.63,0-14.17-4.93-14.17-15.66C231.17,16.64,236.01,11.49,245.42,11.49z"/>
	<path class="st5" d="M257.67,13.07c0-0.92,0.4-1.32,1.32-1.32h15.35c0.62,0,0.88,0.4,0.88,1.32v0.7c0,0.92-0.26,1.32-0.88,1.32
		h-12.8v10.03h11.48c0.62,0,0.88,0.4,0.88,1.32v0.7c0,0.92-0.26,1.32-0.88,1.32h-11.48v10.73h12.84c0.62,0,0.88,0.4,0.88,1.32v0.7
		c0,0.92-0.26,1.32-0.88,1.32h-15.4c-0.92,0-1.32-0.4-1.32-1.32V13.07z"/>
	
		<linearGradient id="SVGID_6_" gradientUnits="userSpaceOnUse" x1="-1556.6864" y1="2125.668" x2="-1109.3778" y2="2125.668" gradientTransform="matrix(0.0926 0 0 0.0926 146.39 -171.9916)">
		<stop  offset="0" style="stop-color:#303A56"/>
		<stop  offset="1" style="stop-color:#303A56"/>
	</linearGradient>
	<path class="st6" d="M43.31,5.75c-0.88-2.31-3.14-3.86-5.61-3.86c-0.73,0-1.46,0.13-2.15,0.4c-3.09,1.18-4.64,4.66-3.46,7.76
		c0.2,0.52,0.47,1,0.8,1.44l-7.36,7.1c-1.81-1.61-4.18-2.56-6.69-2.56c-1.23,0-2.44,0.22-3.59,0.67c-1.38,0.53-2.6,1.33-3.6,2.36
		l-3.57-3.02c0.04-0.08,0.07-0.16,0.11-0.24c0.29-0.76,0.27-1.58-0.06-2.33c-0.49-1.1-1.58-1.81-2.78-1.81
		c-0.42,0-0.84,0.09-1.23,0.26C2.59,12.6,1.9,14.4,2.57,15.93c0.49,1.1,1.58,1.81,2.78,1.81c0.42,0,0.84-0.09,1.23-0.26
		c0.17-0.08,0.34-0.17,0.49-0.28l3.59,3.04c-0.38,0.54-0.72,1.13-1,1.75c-1.09,2.45-1.17,5.18-0.21,7.69
		c1.48,3.86,5.25,6.45,9.38,6.45c0.65,0,1.29-0.06,1.93-0.19l1.33,4.78c-0.66,0.35-1.2,0.88-1.55,1.56
		c-0.45,0.87-0.53,1.86-0.23,2.79c0.49,1.52,1.88,2.54,3.48,2.54c0.38,0,0.75-0.06,1.12-0.18c0.93-0.3,1.69-0.94,2.13-1.81
		c0.45-0.87,0.53-1.86,0.23-2.79c-0.49-1.52-1.88-2.54-3.48-2.54c-0.07,0-0.15,0-0.22,0.01l-1.33-4.77
		c0.06-0.02,0.12-0.04,0.18-0.07c5.17-1.98,7.77-7.8,5.79-12.98c-0.39-1.03-0.95-1.96-1.63-2.78l7.37-7.11
		c1.04,0.83,2.36,1.32,3.74,1.32c0.73,0,1.46-0.13,2.15-0.4c1.5-0.57,2.68-1.7,3.34-3.16C43.84,8.88,43.89,7.25,43.31,5.75z
		 M24.45,45.96c-0.21,0.07-0.43,0.1-0.65,0.1c-0.92,0-1.73-0.59-2.01-1.47c-0.17-0.54-0.13-1.11,0.13-1.61
		c0.26-0.5,0.7-0.87,1.23-1.05c0.21-0.07,0.43-0.1,0.65-0.1c0.92,0,1.73,0.59,2.01,1.47c0.17,0.54,0.13,1.11-0.13,1.61
		C25.43,45.41,24.99,45.78,24.45,45.96z M22.59,40.93L22.59,40.93L22.59,40.93L22.59,40.93L22.59,40.93z M22,42.19L22,42.19
		L22,42.19z M6.12,16.44c-0.24,0.11-0.5,0.16-0.77,0.16c-0.75,0-1.44-0.45-1.74-1.13c-0.42-0.96,0.01-2.09,0.97-2.51
		c0.24-0.11,0.5-0.16,0.77-0.16c0.75,0,1.44,0.44,1.74,1.13c0.21,0.47,0.22,0.98,0.03,1.46C6.95,15.86,6.59,16.23,6.12,16.44z
		 M21.89,34.02c-0.98,0.38-2,0.57-3.04,0.57c-3.5,0-6.69-2.2-7.94-5.47c-0.81-2.12-0.75-4.43,0.17-6.51
		c0.93-2.08,2.6-3.67,4.72-4.48c0.98-0.38,2-0.57,3.04-0.57c3.5,0,6.69,2.2,7.94,5.46C28.47,27.41,26.27,32.34,21.89,34.02z
		 M26.04,19.67L26.04,19.67L26.04,19.67L26.04,19.67L26.04,19.67z M37.71,12.37c-1.84,0-3.51-1.15-4.17-2.87
		c-0.43-1.11-0.39-2.32,0.09-3.42c0.49-1.09,1.37-1.93,2.48-2.35c0.51-0.2,1.05-0.3,1.6-0.3c1.84,0,3.51,1.15,4.17,2.87
		c0.43,1.11,0.39,2.33-0.09,3.42c-0.49,1.09-1.37,1.92-2.48,2.35C38.79,12.27,38.25,12.37,37.71,12.37z M33.95,12.04L33.95,12.04
		L33.95,12.04L33.95,12.04L33.95,12.04z M43.27,7.21c0,0.01,0,0.02,0,0.03C43.27,7.23,43.27,7.22,43.27,7.21z"/>
	<path class="st7" d="M21.11,32.05c-3.27,1.25-6.94-0.38-8.19-3.65c-1.25-3.27,0.38-6.94,3.65-8.19c3.27-1.25,6.94,0.38,8.19,3.65
		C26.02,27.13,24.39,30.8,21.11,32.05z"/>
	
		<linearGradient id="SVGID_7_" gradientUnits="userSpaceOnUse" x1="-1339.6309" y1="2333.1167" x2="-1309.3114" y2="2333.1167" gradientTransform="matrix(0.0926 0 0 0.0926 146.39 -171.9916)">
		<stop  offset="0" style="stop-color:#303A56"/>
		<stop  offset="1" style="stop-color:#303A56"/>
	</linearGradient>
	<path class="st8" d="M24.31,45.25c-0.72,0.28-1.53-0.08-1.81-0.81c-0.28-0.72,0.08-1.53,0.81-1.81c0.72-0.28,1.53,0.08,1.81,0.81
		C25.39,44.17,25.03,44.98,24.31,45.25z"/>
	
		<linearGradient id="SVGID_8_" gradientUnits="userSpaceOnUse" x1="-1534.8687" y1="2017.1268" x2="-1512.8175" y2="2017.1268" gradientTransform="matrix(0.0926 0 0 0.0926 146.39 -171.9916)">
		<stop  offset="0" style="stop-color:#303A56"/>
		<stop  offset="1" style="stop-color:#303A56"/>
	</linearGradient>
	<path class="st9" d="M5.72,15.65c-0.53,0.2-1.12-0.06-1.32-0.59c-0.2-0.53,0.06-1.12,0.59-1.32c0.53-0.2,1.12,0.06,1.32,0.59
		C6.51,14.86,6.25,15.45,5.72,15.65z"/>
</g>
</svg>
