<?xml version="1.0" encoding="utf-8"?>
<!-- Generator: Adobe Illustrator 23.1.1, SVG Export Plug-In . SVG Version: 6.00 Build 0)  -->
<svg version="1.1" id="Layer_1" xmlns="http://www.w3.org/2000/svg" xmlns:xlink="http://www.w3.org/1999/xlink" x="0px" y="0px"
	 viewBox="0 0 6803.15 1204.76" style="enable-background:new 0 0 6803.15 1204.76;" xml:space="preserve">
<style type="text/css">
	.st0{fill:#FFFFFF;}
	.st1{opacity:0.65;fill:#FFFFFF;}
	.st2{fill:#F59D15;}
</style>
<g>
	<g>
		<path class="st0" d="M1227.98,313.71c0-30.35,13.03-43.36,43.38-43.36h242.74c223.25,0,346.78,134.38,346.78,379.28
			c0,244.92-123.53,379.28-346.78,379.28h-242.74c-30.35,0-43.38-13.01-43.38-43.36V313.71z M1514.1,886.95
			c115.94,0,175.55-83.43,175.55-237.31c0-153.88-59.6-237.31-175.55-237.31h-118.12v474.62H1514.1z"/>
		<path class="st0" d="M1843.19,987.75l238.4-696.8c6.51-17.35,30.37-22.77,61.79-22.77h56.35c31.43,0,55.24,5.42,61.76,22.77
			l238.42,696.8c2.16,7.58,3.23,14.08,3.23,19.51c0,15.15-16.26,23.83-54.17,23.83h-47.66c-31.44,0-55.3-5.42-60.72-22.75
			l-43.32-132.22h-255.75l-43.36,132.22c-5.42,16.26-23.84,22.75-49.85,22.75h-43.36c-45.5,0-66.1-8.67-66.1-23.83
			C1838.85,1001.84,1841.05,995.33,1843.19,987.75z M2250.66,733.09l-61.76-192.9c-5.44-14.08-16.27-69.34-16.27-69.34h-4.34
			c0,0-9.73,50.93-16.27,69.34l-63.93,192.9H2250.66z"/>
		<path class="st0" d="M2577.96,313.71c0-30.35,12.99-43.36,43.34-43.36h211.31c187.48,0,269.85,73.7,269.85,203.74
			c0,83.43-52.03,144.13-126.8,172.29v4.34c27.1,10.84,59.6,53.1,78.03,99.71l95.38,238.39c3.25,8.68,5.41,15.17,5.41,20.61
			c0,12.99-20.61,21.66-65.02,21.66h-44.43c-31.42,0-56.37-5.42-62.86-22.75l-85.61-211.32c-21.66-43.36-39-65.02-109.45-65.02
			h-42.27v264.41c0,22.76-19.5,34.68-65,34.68h-36.88c-45.49,0-65-11.93-65-34.68V313.71z M2847.78,587.87
			c44.45,0,83.45-41.17,83.45-93.18c0-49.86-34.67-82.35-91.01-82.35h-95.38v175.54H2847.78z"/>
		<path class="st0" d="M3239,302.88c0-22.76,19.54-34.68,65.03-34.68h37.93c45.54,0,65.02,11.93,65.02,34.68v290.43l4.33,1.07
			l188.55-305.59c9.79-16.25,33.6-20.59,65.06-20.59h50.93c42.25,0,60.66,6.51,60.66,16.26c0,5.43-2.18,13-8.65,22.76
			l-209.14,320.77l237.31,364.1c6.51,9.76,8.68,17.35,8.68,22.77c0,9.75-18.44,16.24-60.69,16.24h-62.84
			c-31.46,0-56.37-4.32-66.12-20.57l-203.75-329.46l-4.33,1.1v314.24c0,22.76-19.48,34.68-65.02,34.68h-37.93
			c-45.5,0-65.03-11.93-65.03-34.68V302.88z"/>
		<path class="st1" d="M940.66,245.48c-38.72,14.84-82.13-4.53-96.97-43.26c-14.83-38.71,4.54-82.14,43.25-96.97
			c38.7-14.84,82.14,4.54,96.97,43.25C998.75,187.21,979.38,230.64,940.66,245.48z"/>
		<path class="st0" d="M4077.85,352.72h-208.07c-15.16,0-21.66-9.75-21.66-32.52v-17.33c0-22.76,6.5-32.52,21.66-32.52h508.25
			c15.19,0,21.66,9.76,21.66,32.52v17.33c0,22.77-6.47,32.52-21.66,32.52h-204.82v654.55c0,15.15-13.01,23.83-43.36,23.83h-8.65
			c-30.35,0-43.36-8.67-43.36-23.83V352.72z"/>
		<path class="st0" d="M4467.15,302.88c0-22.76,9.79-32.52,32.52-32.52h182.08c169.04,0,261.15,55.27,261.15,191.8
			c0,93.22-48.78,152.81-124.64,183.16v4.32c45.5,15.18,69.35,63.95,97.52,135.47l84.54,213.47c2.17,6.51,3.25,11.94,3.25,15.15
			c0,10.86-14.08,17.35-45.5,17.35h-10.83c-21.67,0-39-6.49-43.36-17.35l-82.35-212.36c-32.49-84.54-76.96-106.21-161.46-106.21
			h-97.51v312.1c0,15.15-13.01,23.83-43.4,23.83h-8.65c-30.35,0-43.36-8.67-43.36-23.83V302.88z M4705.56,612.79
			c78.03,0,138.72-61.76,138.72-133.29c0-87.76-58.51-126.78-146.3-126.78h-135.43v260.07H4705.56z"/>
		<path class="st0" d="M5049.62,997.51l256.79-711.98c4.36-13,21.69-17.34,43.36-17.34h31.42c21.66,0,39.03,4.34,43.32,17.34
			l256.86,713.05c2.14,5.41,3.22,9.76,3.22,14.08c0,10.85-14.05,18.42-46.58,18.42h-8.65c-21.66,0-39.03-4.32-43.36-17.35
			l-63.95-177.69h-318.6l-61.76,177.69c-4.32,13.03-21.66,17.35-43.33,17.35h-5.43c-32.53,0-46.61-6.49-46.61-18.42
			C5046.33,1008.35,5047.44,1004,5049.62,997.51z M5492.78,753.66l-113.74-322.91l-14.08-62.84l-17.34,62.84l-113.81,322.91H5492.78
			z"/>
		<path class="st0" d="M6030.68,263.87c107.31,0,207,37.91,207,67.17c0,18.42-22.77,62.86-36.86,62.86
			c-11.9,0-63.91-47.69-167.96-47.69c-173.36,0-254.68,91.03-254.68,304.52c0,208.05,80.2,302.35,250.36,302.35
			c111.59,0,172.28-54.19,186.37-54.19c14.08,0,37.93,45.5,37.93,58.51c0,29.26-97.52,78.03-224.29,78.03
			c-237.32,0-348.98-121.37-348.98-385.79C5679.57,390.65,5798.78,263.87,6030.68,263.87z"/>
		<path class="st0" d="M6332.33,302.88c0-22.76,9.76-32.52,32.53-32.52h378.18c15.2,0,21.67,9.76,21.67,32.52v17.33
			c0,22.77-6.47,32.52-21.67,32.52h-315.3V599.8h282.81c15.15,0,21.66,9.74,21.66,32.51v17.34c0,22.77-6.51,32.52-21.66,32.52
			h-282.81v264.41h316.42c15.15,0,21.66,9.76,21.66,32.49v17.35c0,22.76-6.51,32.52-21.66,32.52h-379.29
			c-22.77,0-32.53-9.76-32.53-32.52V302.88z"/>
		<path class="st0" d="M1051.92,122.41c-21.78-56.84-77.32-95.04-138.19-95.04c-18.09,0-35.89,3.31-52.91,9.83
			c-76.17,29.18-114.41,114.9-85.23,191.08c4.92,12.85,11.58,24.73,19.63,35.45L613.83,438.7c-44.57-39.64-102.98-63.1-164.69-63.1
			c-30.25,0-60.02,5.53-88.49,16.44c-33.95,13-63.98,32.87-88.62,58.15l-87.98-74.4c0.94-1.93,1.82-3.9,2.6-5.93
			c7.21-18.65,6.73-39-1.36-57.29c-11.99-27.07-38.88-44.57-68.5-44.57c-10.45,0-20.63,2.16-30.26,6.42
			c-37.74,16.71-54.86,61-38.17,98.74c11.98,27.09,38.87,44.59,68.5,44.59c10.46,0,20.64-2.16,30.26-6.42
			c4.31-1.9,8.36-4.19,12.17-6.8l88.44,74.79c-9.48,13.34-17.71,27.72-24.52,43.01c-26.92,60.37-28.72,127.6-5.08,189.32
			c36.43,95.11,129.32,159.01,231.13,159.01c15.98,0,31.84-1.56,47.44-4.63l32.78,117.67c-16.27,8.52-29.52,21.79-38.09,38.47
			c-10.99,21.38-12.99,45.75-5.65,68.63c12,37.39,46.42,62.5,85.65,62.5c9.32,0,18.57-1.45,27.49-4.32
			c22.88-7.34,41.54-23.15,52.53-44.53c10.99-21.37,13-45.75,5.65-68.64c-11.99-37.38-46.41-62.49-85.65-62.49
			c-1.8,0-3.59,0.07-5.38,0.18l-32.77-117.61c1.5-0.54,2.99-1.09,4.48-1.66c127.42-48.83,191.37-192.23,142.55-319.65
			c-9.68-25.26-23.35-48.33-40.11-68.57l181.49-175.06c25.73,20.46,58.09,32.41,92.12,32.41c18.08,0,35.88-3.31,52.9-9.83
			c36.9-14.13,66.09-41.8,82.19-77.9C1064.99,199.52,1066.06,159.32,1051.92,122.41z M587.29,1112.84c-5.18,1.66-10.53,2.5-15.9,2.5
			c-22.68,0-42.58-14.53-49.52-36.16c-4.25-13.23-3.09-27.32,3.27-39.68c6.35-12.36,17.13-21.5,30.36-25.75
			c5.19-1.67,10.54-2.51,15.92-2.51c22.68,0,42.58,14.53,49.52,36.15c4.25,13.23,3.09,27.33-3.27,39.7
			C611.31,1099.45,600.52,1108.6,587.29,1112.84z M541.36,989.17L541.36,989.17L541.36,989.17L541.36,989.17L541.36,989.17z
			 M526.88,1020.1l0.03-0.03L526.88,1020.1z M135.8,385.75c-6.04,2.67-12.41,4.03-18.94,4.03c-18.57,0-35.41-10.97-42.92-27.94
			c-10.46-23.64,0.26-51.38,23.9-61.84c6.03-2.67,12.41-4.02,18.94-4.02c18.57,0,35.41,10.96,42.92,27.92
			c5.07,11.46,5.37,24.2,0.86,35.88C156.05,371.45,147.26,380.68,135.8,385.75z M524.17,818.78c-24.13,9.24-49.33,13.93-74.91,13.93
			c-86.21,0-164.85-54.11-195.7-134.64c-20.02-52.24-18.5-109.17,4.3-160.29c22.79-51.12,64.12-90.29,116.37-110.31
			c24.13-9.24,49.33-13.93,74.92-13.93c86.22,0,164.87,54.09,195.72,134.6C686.2,656.03,632.06,777.44,524.17,818.78z
			 M626.49,465.35L626.49,465.35L626.49,465.35L626.49,465.35L626.49,465.35z M913.8,285.4c-45.26,0-86.56-28.41-102.76-70.69
			c-10.49-27.39-9.67-57.27,2.31-84.14c11.98-26.87,33.67-47.44,61.06-57.93c12.67-4.86,25.9-7.32,39.33-7.32
			c45.27,0,86.56,28.4,102.75,70.67c10.52,27.44,9.71,57.33-2.25,84.18c-11.97,26.84-33.67,47.41-61.11,57.92
			C940.45,282.93,927.22,285.4,913.8,285.4z M821.24,277.49L821.24,277.49L821.24,277.49L821.24,277.49L821.24,277.49z
			 M1050.76,158.49c0.03,0.26,0.07,0.52,0.1,0.78C1050.82,159.01,1050.79,158.75,1050.76,158.49z"/>
		<path class="st2" d="M505.05,770.32c-80.58,30.87-170.95-9.43-201.82-90.03c-30.88-80.58,9.41-170.97,89.99-201.85
			c80.59-30.88,170.98,9.45,201.86,90.02C625.96,649.07,585.64,739.43,505.05,770.32z"/>
		<path class="st1" d="M583.76,1095.57c-17.82,6.83-37.8-2.09-44.63-19.91c-6.83-17.82,2.09-37.8,19.91-44.63
			c17.81-6.83,37.8,2.09,44.63,19.9C610.5,1068.76,601.58,1088.74,583.76,1095.57z"/>
		<path class="st1" d="M125.84,366.34c-12.96,4.97-27.49-1.52-32.46-14.48c-4.96-12.96,1.52-27.49,14.48-32.46
			c12.95-4.97,27.49,1.52,32.46,14.47C145.28,346.84,138.8,361.37,125.84,366.34z"/>
	</g>
</g>
</svg>
