<?xml version="1.0" encoding="UTF-8" standalone="no"?>
<!-- Created with Inkscape (http://www.inkscape.org/) -->

<svg
   xmlns:dc="http://purl.org/dc/elements/1.1/"
   xmlns:cc="http://creativecommons.org/ns#"
   xmlns:rdf="http://www.w3.org/1999/02/22-rdf-syntax-ns#"
   xmlns:svg="http://www.w3.org/2000/svg"
   xmlns="http://www.w3.org/2000/svg"
   xmlns:sodipodi="http://sodipodi.sourceforge.net/DTD/sodipodi-0.dtd"
   xmlns:inkscape="http://www.inkscape.org/namespaces/inkscape"
   width="52.932079mm"
   height="52.92411mm"
   viewBox="0 0 52.932079 52.92411"
   version="1.1"
   id="svg8"
   inkscape:version="0.92.3 (2405546, 2018-03-11)"
   sodipodi:docname="signl4-round.svg">
  <defs
     id="defs2" />
  <sodipodi:namedview
     id="base"
     pagecolor="#ffffff"
     bordercolor="#666666"
     borderopacity="1.0"
     inkscape:pageopacity="0.0"
     inkscape:pageshadow="2"
     inkscape:zoom="0.7"
     inkscape:cx="50.608038"
     inkscape:cy="58.991343"
     inkscape:document-units="mm"
     inkscape:current-layer="layer1"
     showgrid="false"
     fit-margin-top="0"
     fit-margin-left="0"
     fit-margin-right="0"
     fit-margin-bottom="0"
     inkscape:window-width="1286"
     inkscape:window-height="786"
     inkscape:window-x="182"
     inkscape:window-y="40"
     inkscape:window-maximized="0" />
  <metadata
     id="metadata5">
    <rdf:RDF>
      <cc:Work
         rdf:about="">
        <dc:format>image/svg+xml</dc:format>
        <dc:type
           rdf:resource="http://purl.org/dc/dcmitype/StillImage" />
        <dc:title></dc:title>
      </cc:Work>
    </rdf:RDF>
  </metadata>
  <g
     inkscape:label="Layer 1"
     inkscape:groupmode="layer"
     id="layer1"
     transform="translate(49.522587,-122.37128)">
    <g
       id="g4584"
       transform="translate(-93.360467,11.357917)">
      <g
         id="g4582"
         transform="matrix(0.2,0,0,0.2,56.243,109.98)"
         style="stroke-width:0.26458001">
        <path
           id="path4520"
           d="m -2.8537,269.51 c -0.87312,-0.10961 -2.3974,-0.21221 -3.3874,-0.228 -2.9243,-0.0467 -8.2052,-1.3795 -13.414,-3.3855 -15.675,-6.0371 -28.339,-17.537 -35.85,-32.555 -3.5916,-7.181 -5.6961,-14.329 -6.1361,-20.841 -0.28009,-4.1455 -0.28009,-145.87 0,-150.02 0.33376,-4.9398 1.37,-9.317 3.5392,-14.949 6.0371,-15.675 17.537,-28.339 32.555,-35.85 7.181,-3.5916 14.329,-5.6961 20.841,-6.1361 4.1455,-0.28009 145.87,-0.28009 150.02,0 4.9398,0.33376 9.317,1.37 14.949,3.5392 15.675,6.0371 28.339,17.537 35.85,32.555 3.5916,7.181 5.6961,14.329 6.1361,20.841 0.28009,4.1455 0.28009,145.87 0,150.02 -0.33376,4.9398 -1.37,9.317 -3.5392,14.949 -3.4243,8.891 -8.4065,16.552 -15.151,23.296 -8.9808,8.9808 -19.289,14.698 -32.424,17.982 -0.72761,0.18194 -2.5731,0.44738 -4.101,0.58987 -3.3098,0.30865 -147.49,0.49381 -149.89,0.19249 z"
           inkscape:connector-curvature="0"
           style="fill:#fdf9f3" />
        <path
           id="path4522"
           d="m -3.7798,269.48 c -3.8033,-0.30838 -6.8681,-0.87208 -10.535,-1.9377 -21.75,-6.3206 -39.103,-23.66 -45.412,-45.375 -1.1461,-3.9449 -1.6295,-6.6868 -1.9831,-11.25 -0.40079,-5.1716 -0.40079,-141.67 0,-146.84 0.35361,-4.5628 0.83694,-7.3047 1.9831,-11.25 6.3019,-21.691 23.668,-39.057 45.359,-45.359 3.9449,-1.1461 6.6868,-1.6295 11.25,-1.9831 5.1716,-0.40079 141.67,-0.40079 146.84,0 4.5628,0.35361 7.3047,0.83694 11.25,1.9831 21.691,6.3019 39.057,23.668 45.359,45.359 1.1461,3.9449 1.6294,6.6868 1.9831,11.25 0.40078,5.1716 0.40078,141.67 0,146.84 -0.35362,4.5628 -0.83695,7.3047 -1.9831,11.25 -6.3019,21.691 -23.668,39.057 -45.359,45.359 -3.9449,1.1461 -6.6868,1.6295 -11.25,1.9831 -4.484,0.34749 -143.2,0.31961 -147.51,-0.0297 z m 35.983,-150.32 c 9.6627,-2.5355 17.133,-9.8695 19.998,-19.633 0.94855,-3.2326 1.2025,-9.4799 0.52194,-12.839 -1.5689,-7.7428 -5.8464,-14.071 -11.863,-17.55 -1.8104,-1.047 -5.821,-1.3211 -16.197,-1.1073 -14.088,0.29037 -13.695,0.25885 -15.427,1.2353 -0.82826,0.46676 -2.3819,1.6247 -3.4525,2.5733 -8.6122,7.6302 -11.202,21.147 -6.1272,31.976 2.6558,5.6673 7.4221,10.53 13.101,13.365 4.3076,2.1508 7.777,2.8762 13.097,2.7383 3.0057,-0.0779 4.3807,-0.24226 6.35,-0.75899 z"
           inkscape:connector-curvature="0"
           style="fill:#fcedd6" />
        <path
           id="path4524"
           d="m -1.1339,269.63 c -0.21828,-0.0519 -1.8256,-0.21015 -3.5719,-0.35159 -5.6349,-0.45641 -13.245,-2.7058 -19.844,-5.8655 -13.321,-6.3786 -24.691,-17.749 -31.07,-31.07 -3.0258,-6.3192 -5.3296,-13.988 -5.9216,-19.711 -0.45224,-4.3723 -0.45224,-145.91 0,-150.28 0.59198,-5.7234 2.8958,-13.392 5.9216,-19.711 6.3786,-13.321 17.749,-24.691 31.07,-31.07 6.3192,-3.0258 13.988,-5.3296 19.711,-5.9216 4.3723,-0.45224 145.91,-0.45224 150.28,0 5.7234,0.59198 13.392,2.8958 19.711,5.9216 13.321,6.3786 24.691,17.749 31.07,31.07 3.0258,6.3192 5.3296,13.988 5.9216,19.711 0.45224,4.3723 0.45224,145.91 0,150.28 -0.59199,5.7234 -2.8958,13.392 -5.9216,19.711 -6.3786,13.321 -17.749,24.691 -31.07,31.07 -6.0169,2.881 -13.794,5.2737 -19.182,5.9017 -1.7667,0.2059 -23.935,0.3103 -74.612,0.35136 -39.654,0.0321 -72.278,0.0159 -72.496,-0.036 z m 33.073,-150.15 c 10.756,-2.7722 18.676,-11.081 21.046,-22.077 0.62307,-2.891 0.62624,-8.5318 0.0064,-11.377 -1.2201,-5.6008 -3.5666,-9.8873 -7.691,-14.05 -4.2322,-4.2713 -8.2647,-6.5787 -13.713,-7.8462 -3.6902,-0.85856 -9.922,-0.78983 -13.471,0.14858 -5.0552,1.3366 -9.3937,3.7932 -12.916,7.3134 -5.9201,5.9164 -8.7632,13.233 -8.3752,21.554 0.62386,13.382 10.103,24.222 23.381,26.739 2.9694,0.56285 8.7515,0.36308 11.733,-0.40538 z"
           inkscape:connector-curvature="0"
           style="fill:#f8d0a6" />
        <path
           id="path4526"
           d="m -4.0444,269.38 c -6.7919,-0.68903 -13.954,-2.8221 -20.77,-6.186 -13.724,-6.7733 -23.804,-16.854 -30.578,-30.578 -3.4783,-7.0476 -5.5025,-13.984 -6.2158,-21.299 -0.55653,-5.7071 -0.55653,-141.93 0,-147.64 0.71335,-7.3152 2.7376,-14.251 6.2158,-21.299 6.7733,-13.724 16.854,-23.804 30.578,-30.578 7.0476,-3.4783 13.984,-5.5025 21.299,-6.2158 5.7071,-0.55653 141.93,-0.55653 147.64,0 7.3152,0.71335 14.251,2.7376 21.299,6.2158 13.724,6.7733 23.804,16.854 30.578,30.578 3.4782,7.0476 5.5025,13.984 6.2158,21.299 0.55652,5.7071 0.55652,141.93 0,147.64 -0.71335,7.3152 -2.7376,14.251 -6.2158,21.299 -6.7733,13.724 -16.854,23.804 -30.578,30.578 -7.0476,3.4782 -13.984,5.5025 -21.299,6.2158 -5.3512,0.52183 -143,0.49413 -148.17,-0.0298 z m 35.19,-149.44 c 11.304,-2.5532 19.858,-11.316 22.244,-22.787 0.37047,-1.7814 0.50083,-3.6018 0.52107,-7.276 0.02508,-4.5535 -0.02207,-5.0675 -0.66654,-7.2651 -2.8132,-9.5931 -10.61,-16.886 -21.02,-19.664 -2.2116,-0.59004 -3.0871,-0.67786 -6.8987,-0.69204 -3.9179,-0.01458 -4.664,0.05859 -7.2746,0.71335 -8.6497,2.1694 -15.751,7.8773 -19.481,15.659 -1.9719,4.1133 -2.3501,6.1506 -2.2345,12.037 0.081531,4.153 0.19751,5.2957 0.76534,7.5406 2.9037,11.48 11.646,19.785 23.107,21.952 2.5204,0.47665 8.3807,0.35987 10.939,-0.218 z"
           inkscape:connector-curvature="0"
           style="fill:#87cae7" />
        <path
           id="path4528"
           d="m -4.0444,269.38 c -6.7919,-0.68903 -13.954,-2.8221 -20.77,-6.186 -13.724,-6.7733 -23.804,-16.854 -30.578,-30.578 -3.4783,-7.0476 -5.5025,-13.984 -6.2158,-21.299 -0.55653,-5.7071 -0.55653,-141.93 0,-147.64 0.71335,-7.3152 2.7376,-14.251 6.2158,-21.299 6.7733,-13.724 16.854,-23.804 30.578,-30.578 7.0476,-3.4783 13.984,-5.5025 21.299,-6.2158 5.7071,-0.55653 141.93,-0.55653 147.64,0 7.3152,0.71335 14.251,2.7376 21.299,6.2158 13.724,6.7733 23.804,16.854 30.578,30.578 3.4782,7.0476 5.5025,13.984 6.2158,21.299 0.55652,5.7071 0.55652,141.93 0,147.64 -0.71335,7.3152 -2.7376,14.251 -6.2158,21.299 -6.7733,13.724 -16.854,23.804 -30.578,30.578 -7.0476,3.4782 -13.984,5.5025 -21.299,6.2158 -5.3512,0.52183 -143,0.49413 -148.17,-0.0298 z m 57.328,-85.406 c -0.30645,-5.0086 -1.6176,-9.3754 -4.0425,-13.464 -1.7968,-3.0298 -6.3218,-7.5438 -9.3151,-9.2927 -1.2092,-0.70648 -2.256,-1.227 -2.3263,-1.1566 -0.07033,0.0703 0.44304,0.45948 1.1408,0.86477 5.77,3.3513 10.497,9.1553 12.68,15.57 0.76424,2.2452 1.4206,5.6186 1.4206,7.3013 0,1.3739 0.2485,2.9143 0.47016,2.9143 0.07668,0 0.06407,-1.2316 -0.02803,-2.7368 z m 92.34,0 c -0.30645,-5.0086 -1.6176,-9.3754 -4.0426,-13.464 -1.7968,-3.0298 -6.3218,-7.5438 -9.3151,-9.2927 -1.2092,-0.70648 -2.256,-1.227 -2.3263,-1.1566 -0.0703,0.0703 0.44304,0.45948 1.1408,0.86477 4.6225,2.6848 8.719,7.085 11.197,12.027 1.7364,3.4627 2.9036,7.9858 2.9036,11.252 0,1.6132 0.16579,2.506 0.46539,2.506 0.0793,0 0.0688,-1.2316 -0.0232,-2.7368 z m -114.48,-64.032 c 11.304,-2.5532 19.858,-11.316 22.244,-22.787 0.37047,-1.7814 0.50083,-3.6018 0.52107,-7.276 0.02508,-4.5535 -0.02207,-5.0675 -0.66654,-7.2651 -2.8132,-9.5931 -10.61,-16.886 -21.02,-19.664 -2.2116,-0.59004 -3.0871,-0.67786 -6.8987,-0.69204 -3.9179,-0.01458 -4.664,0.05859 -7.2746,0.71335 -8.6497,2.1694 -15.751,7.8773 -19.481,15.659 -1.9719,4.1133 -2.3501,6.1506 -2.2345,12.037 0.081531,4.153 0.19751,5.2957 0.76534,7.5406 2.9037,11.48 11.646,19.785 23.107,21.952 2.5204,0.47665 8.3807,0.35987 10.939,-0.218 z m 114.48,-29.101 c -0.48345,-7.9014 -3.2227,-13.889 -8.7642,-19.158 -1.3387,-1.2728 -3.3773,-2.8748 -4.5304,-3.56 -2.8771,-1.7097 -3.6407,-1.9033 -1.0381,-0.26321 7.2411,4.5633 11.959,11.36 13.491,19.435 0.22002,1.1599 0.40167,2.7803 0.40365,3.601 0.004,1.5125 0.20621,2.6828 0.46434,2.6828 0.0779,0 0.0663,-1.2316 -0.0258,-2.7368 z"
           inkscape:connector-curvature="0"
           style="fill:#65c6ef" />
        <path
           id="path4530"
           d="m -4.0444,269.38 c -6.7919,-0.68903 -13.954,-2.8221 -20.77,-6.186 -13.724,-6.7733 -23.804,-16.854 -30.578,-30.578 -3.4783,-7.0476 -5.5025,-13.984 -6.2158,-21.299 -0.55653,-5.7071 -0.55653,-141.93 0,-147.64 0.71335,-7.3152 2.7376,-14.251 6.2158,-21.299 6.7733,-13.724 16.854,-23.804 30.578,-30.578 7.0476,-3.4783 13.984,-5.5025 21.299,-6.2158 5.7071,-0.55653 141.93,-0.55653 147.64,0 7.3152,0.71335 14.251,2.7376 21.299,6.2158 13.724,6.7733 23.804,16.854 30.578,30.578 3.4782,7.0476 5.5025,13.984 6.2158,21.299 0.55652,5.7071 0.55652,141.93 0,147.64 -0.71335,7.3152 -2.7376,14.251 -6.2158,21.299 -6.7733,13.724 -16.854,23.804 -30.578,30.578 -7.0476,3.4782 -13.984,5.5025 -21.299,6.2158 -5.3512,0.52183 -143,0.49413 -148.17,-0.0298 z m 56.055,-76.385 c 2.3657,-7.4024 1.367,-15.509 -2.7702,-22.485 -1.783,-3.0064 -6.3322,-7.5548 -9.2326,-9.2311 -3.2934,-1.9034 -6.8581,-3.1766 -9.8393,-3.5143 l -1.2724,-0.14416 1.0583,0.26299 c 11.136,2.7673 18.964,10.174 21.767,20.594 0.60714,2.2575 0.6854,3.0531 0.6928,7.0429 0.0069,3.736 -0.08745,4.8788 -0.55726,6.7469 -0.31108,1.2369 -0.6464,2.4573 -0.74515,2.712 -0.09875,0.2547 -0.11287,0.46302 -0.03137,0.46302 0.0815,0 0.50015,-1.1013 0.93034,-2.4474 z m 92.656,-0.93152 c 1.9864,-6.8776 0.83057,-14.948 -3.087,-21.553 -1.783,-3.0064 -6.3322,-7.5548 -9.2326,-9.2311 -3.2934,-1.9034 -6.8581,-3.1766 -9.8393,-3.5143 l -1.2724,-0.14416 1.0583,0.26299 c 11.137,2.7674 18.971,10.18 21.765,20.594 0.60324,2.248 0.68469,3.07 0.69787,7.0429 0.0146,4.4112 -0.1575,5.6906 -1.2815,9.525 -0.0853,0.29104 0.04,0.11244 0.27849,-0.39688 0.23848,-0.50932 0.64925,-1.6726 0.91281,-2.5852 z m -113.52,-72.121 c 11.304,-2.5532 19.858,-11.316 22.244,-22.787 0.37047,-1.7814 0.50083,-3.6018 0.52107,-7.276 0.02508,-4.5535 -0.02207,-5.0675 -0.66654,-7.2651 -2.8132,-9.5931 -10.61,-16.886 -21.02,-19.664 -2.2116,-0.59004 -3.0871,-0.67786 -6.8987,-0.69204 -3.9179,-0.01458 -4.664,0.05859 -7.2746,0.71335 -8.6497,2.1694 -15.751,7.8773 -19.481,15.659 -1.9719,4.1133 -2.3501,6.1506 -2.2345,12.037 0.081531,4.153 0.19751,5.2957 0.76534,7.5406 2.9037,11.48 11.646,19.785 23.107,21.952 2.5204,0.47665 8.3807,0.35987 10.939,-0.218 z m 113.34,-20.478 c 1.987,-6.2922 1.3221,-13.88 -1.756,-20.042 -2.701,-5.4069 -7.8763,-10.404 -13.293,-12.835 -1.9975,-0.89643 -4.8418,-1.7239 -6.7422,-1.9614 -0.78217,-0.09776 -0.3798,0.07948 1.1729,0.51665 8.0959,2.2794 14.571,7.5637 18.154,14.815 0.72075,1.4586 1.6292,3.8399 2.0189,5.2917 0.63512,2.3664 0.70909,3.1053 0.71458,7.1375 0.006,4.241 -0.19304,5.8793 -1.0515,8.6651 -0.0785,0.25467 -0.0803,0.46303 -0.004,0.46303 0.0762,0 0.43,-0.92274 0.78613,-2.0505 z"
           inkscape:connector-curvature="0"
           style="fill:#f3a35b" />
        <path
           id="path4532"
           d="m -4.0444,269.38 c -6.7919,-0.68903 -13.954,-2.8221 -20.77,-6.186 -13.724,-6.7733 -23.804,-16.854 -30.578,-30.578 -3.4783,-7.0476 -5.5025,-13.984 -6.2158,-21.299 -0.55653,-5.7071 -0.55653,-141.93 0,-147.64 0.71335,-7.3152 2.7376,-14.251 6.2158,-21.299 6.7733,-13.724 16.854,-23.804 30.578,-30.578 7.0476,-3.4783 13.984,-5.5025 21.299,-6.2158 5.7071,-0.55653 141.93,-0.55653 147.64,0 7.3152,0.71335 14.251,2.7376 21.299,6.2158 13.724,6.7733 23.804,16.854 30.578,30.578 3.4782,7.0476 5.5025,13.984 6.2158,21.299 0.55652,5.7071 0.55652,141.93 0,147.64 -0.71335,7.3152 -2.7376,14.251 -6.2158,21.299 -6.7733,13.724 -16.854,23.804 -30.578,30.578 -7.0476,3.4782 -13.984,5.5025 -21.299,6.2158 -5.3512,0.52183 -143,0.49413 -148.17,-0.0298 z m 56.055,-76.385 c 2.3657,-7.4024 1.367,-15.509 -2.7702,-22.485 -1.783,-3.0064 -6.3322,-7.5548 -9.2326,-9.2311 -3.2934,-1.9034 -6.8581,-3.1766 -9.8393,-3.5143 l -1.2724,-0.14416 1.0583,0.26299 c 11.136,2.7673 18.964,10.174 21.767,20.594 0.60714,2.2575 0.6854,3.0531 0.6928,7.0429 0.0069,3.736 -0.08745,4.8788 -0.55726,6.7469 -0.31108,1.2369 -0.6464,2.4573 -0.74515,2.712 -0.09875,0.2547 -0.11287,0.46302 -0.03137,0.46302 0.0815,0 0.50015,-1.1013 0.93034,-2.4474 z m 92.656,-0.93152 c 1.9864,-6.8776 0.83057,-14.948 -3.087,-21.553 -1.783,-3.0064 -6.3322,-7.5548 -9.2326,-9.2311 -3.2934,-1.9034 -6.8581,-3.1766 -9.8393,-3.5143 l -1.2724,-0.14416 1.0583,0.26299 c 11.137,2.7674 18.971,10.18 21.765,20.594 0.60324,2.248 0.68469,3.07 0.69787,7.0429 0.0146,4.4112 -0.1575,5.6906 -1.2815,9.525 -0.0853,0.29104 0.04,0.11244 0.27849,-0.39688 0.23848,-0.50932 0.64925,-1.6726 0.91281,-2.5852 z m -112.68,-72.124 c 5.346,-1.3712 9.8553,-3.9467 13.731,-7.8423 2.2793,-2.2911 4.4962,-5.3498 5.6562,-7.8042 0.34388,-0.7276 1.109,-2.3403 1.7004,-3.5838 1.5896,-3.3426 1.9952,-5.2912 1.9804,-9.5131 -0.02703,-7.7022 -2.7649,-14.424 -8.1869,-20.099 -12.414,-12.994 -33.961,-12.139 -45.092,1.7887 -2.3018,2.8802 -4.7838,7.736 -5.7075,11.166 -0.93176,3.46 -1.1627,8.7415 -0.52118,11.918 0.50347,2.4926 3.5134,9.0592 5.4797,11.955 4.29,6.3173 11.777,11.183 19.03,12.367 1.0801,0.17633 2.1423,0.36404 2.3606,0.41714 0.21828,0.0531 1.8852,0.0493 3.7042,-0.008 2.3769,-0.0755 4.027,-0.2896 5.8657,-0.76121 z m 112.5,-20.475 c 1.987,-6.2922 1.3221,-13.88 -1.756,-20.042 -2.701,-5.4069 -7.8763,-10.404 -13.293,-12.835 -1.9975,-0.89643 -4.8418,-1.7239 -6.7422,-1.9614 -0.78217,-0.09776 -0.3798,0.07948 1.1729,0.51665 8.0959,2.2794 14.571,7.5637 18.154,14.815 0.72075,1.4586 1.6292,3.8399 2.0189,5.2917 0.63512,2.3664 0.70909,3.1053 0.71458,7.1375 0.006,4.241 -0.19304,5.8793 -1.0515,8.6651 -0.0785,0.25467 -0.0803,0.46303 -0.004,0.46303 0.0762,0 0.43,-0.92274 0.78613,-2.0505 z"
           inkscape:connector-curvature="0"
           style="fill:#52b8e3" />
        <path
           id="path4534"
           d="m -4.0444,269.38 c -6.7919,-0.68903 -13.954,-2.8221 -20.77,-6.186 -13.724,-6.7733 -23.804,-16.854 -30.578,-30.578 -3.4783,-7.0476 -5.5025,-13.984 -6.2158,-21.299 -0.55653,-5.7071 -0.55653,-141.93 0,-147.64 0.71335,-7.3152 2.7376,-14.251 6.2158,-21.299 6.7733,-13.724 16.854,-23.804 30.578,-30.578 7.0476,-3.4783 13.984,-5.5025 21.299,-6.2158 5.7071,-0.55653 141.93,-0.55653 147.64,0 7.3152,0.71335 14.251,2.7376 21.299,6.2158 13.724,6.7733 23.804,16.854 30.578,30.578 3.4782,7.0476 5.5025,13.984 6.2158,21.299 0.55652,5.7071 0.55652,141.93 0,147.64 -0.71335,7.3152 -2.7376,14.251 -6.2158,21.299 -6.7733,13.724 -16.854,23.804 -30.578,30.578 -7.0476,3.4782 -13.984,5.5025 -21.299,6.2158 -5.3512,0.52183 -143,0.49413 -148.17,-0.0298 z m 54.369,-71.689 c 4.3207,-8.7335 3.9209,-18.756 -1.0841,-27.177 -1.6912,-2.8454 -6.0737,-7.3041 -8.8869,-9.0414 -2.5762,-1.591 -5.7952,-2.9537 -8.6794,-3.6744 -1.7806,-0.44491 -3.0864,-0.56476 -6.27,-0.5754 -2.3466,-0.008 -4.1314,0.0967 -4.2861,0.25113 -0.17678,0.17643 0.80449,0.28432 2.945,0.3238 5.1119,0.0943 8.9111,0.97876 13.035,3.0346 5.6072,2.7952 10.297,7.6605 12.833,13.312 2.8073,6.257 3.0988,14.016 0.77628,20.666 -0.74305,2.1275 -1.2086,3.0998 -3.3427,6.9817 l -0.65456,1.1906 1.0872,-1.1906 c 0.59797,-0.65484 1.7352,-2.5003 2.5271,-4.101 z m 92.34,0 c 4.3275,-8.7473 3.9288,-18.743 -1.0841,-27.177 -1.6912,-2.8454 -6.0737,-7.3041 -8.8869,-9.0414 -2.5728,-1.5889 -5.7914,-2.9522 -8.6794,-3.6764 -1.7875,-0.44823 -3.0742,-0.56631 -6.2704,-0.5754 -2.4324,-0.007 -4.1297,0.0967 -4.2953,0.26219 -0.18861,0.18846 0.73365,0.29042 2.9631,0.32759 5.1047,0.0851 9.1206,1.0318 13.238,3.1208 7.0406,3.572 12.33,10.248 14.242,17.974 0.66821,2.7009 0.92393,7.8366 0.52037,10.451 -0.58836,3.8117 -2.1034,7.8761 -4.5367,12.171 l -0.8245,1.4552 1.0871,-1.1906 c 0.59789,-0.65484 1.735,-2.5003 2.5269,-4.101 z M 31.9846,119.94 c 5.346,-1.3712 9.8553,-3.9467 13.731,-7.8423 2.2793,-2.2911 4.4962,-5.3498 5.6562,-7.8042 0.34388,-0.7276 1.109,-2.3403 1.7004,-3.5838 1.5896,-3.3426 1.9952,-5.2912 1.9804,-9.5131 -0.02703,-7.7022 -2.7649,-14.424 -8.1869,-20.099 -12.414,-12.994 -33.961,-12.139 -45.092,1.7887 -2.3018,2.8802 -4.7838,7.736 -5.7075,11.166 -0.93176,3.46 -1.1627,8.7415 -0.52118,11.918 0.50347,2.4926 3.5134,9.0592 5.4797,11.955 4.29,6.3173 11.777,11.183 19.03,12.367 1.0801,0.17633 2.1423,0.36404 2.3606,0.41714 0.21828,0.0531 1.8852,0.0493 3.7042,-0.008 2.3769,-0.0755 4.027,-0.2896 5.8657,-0.76121 z m 108.93,-12.289 c 3.1575,-4.6549 4.6549,-9.7052 4.6431,-15.66 -0.0156,-7.8395 -2.4843,-13.957 -7.8737,-19.511 -3.6493,-3.7607 -7.8582,-6.234 -13.041,-7.6628 -2.3177,-0.63902 -3.0789,-0.72114 -6.7649,-0.72981 -2.494,-0.0059 -4.2618,0.09847 -4.4249,0.26115 -0.18533,0.1849 0.0719,0.23817 0.81017,0.16776 1.8385,-0.17532 7.4399,0.47312 9.996,1.1572 9.7016,2.5963 17.166,10.246 19.661,20.151 0.84574,3.3571 0.83563,9.8096 -0.0204,13 -0.79465,2.9618 -1.9174,5.7274 -3.3506,8.2532 -0.65318,1.1511 -1.1876,2.1636 -1.1876,2.25 0,0.37412 0.60402,-0.27812 1.5526,-1.6765 z"
           inkscape:connector-curvature="0"
           style="fill:#a0a0a0" />
        <path
           id="path4536"
           d="m -0.47248,269.62 c -0.43656,-0.0522 -1.9248,-0.22357 -3.3073,-0.38083 -11.017,-1.2534 -22.582,-5.9429 -31.872,-12.924 -3.376,-2.5371 -8.8439,-7.846 -11.601,-11.264 -7.6401,-9.4706 -12.595,-21.153 -14.251,-33.602 -0.51963,-3.9061 -0.51963,-144 0,-147.9 1.5674,-11.783 5.9993,-22.702 12.99,-32.004 2.5371,-3.376 7.846,-8.8439 11.264,-11.601 9.4705,-7.6401 21.153,-12.595 33.602,-14.251 3.9061,-0.51963 144,-0.51963 147.9,0 12.449,1.656 24.132,6.6108 33.602,14.251 3.4183,2.7576 8.7273,8.2255 11.264,11.601 6.9906,9.3022 11.422,20.221 12.99,32.004 0.51964,3.9061 0.51964,144 0,147.9 -1.656,12.449 -6.6108,24.132 -14.251,33.602 -2.7576,3.4183 -8.2255,8.7273 -11.601,11.264 -9.0243,6.7817 -18.882,10.886 -30.946,12.885 -2.413,0.39985 -8.9084,0.44177 -73.819,0.47633 -39.145,0.0208 -71.53,-0.005 -71.967,-0.057 z m 50.797,-71.93 c 4.3207,-8.7335 3.9209,-18.756 -1.0841,-27.177 -1.6912,-2.8454 -6.0737,-7.3041 -8.8869,-9.0414 -2.5762,-1.591 -5.7952,-2.9537 -8.6794,-3.6744 -1.7806,-0.44491 -3.0864,-0.56476 -6.27,-0.5754 -2.3466,-0.008 -4.1314,0.0967 -4.2861,0.25113 -0.17678,0.17643 0.80449,0.28432 2.945,0.3238 5.1119,0.0943 8.9111,0.97876 13.035,3.0346 5.6072,2.7952 10.297,7.6605 12.833,13.312 2.8073,6.257 3.0988,14.016 0.77628,20.666 -0.74305,2.1275 -1.2086,3.0998 -3.3427,6.9817 l -0.65456,1.1906 1.0872,-1.1906 c 0.59797,-0.65484 1.7352,-2.5003 2.5271,-4.101 z m 92.34,0 c 4.3275,-8.7473 3.9288,-18.743 -1.0841,-27.177 -1.6912,-2.8454 -6.0737,-7.3041 -8.8869,-9.0414 -2.5728,-1.5889 -5.7914,-2.9522 -8.6794,-3.6764 -1.7875,-0.44823 -3.0742,-0.56631 -6.2704,-0.5754 -2.4324,-0.007 -4.1297,0.0967 -4.2953,0.26219 -0.18861,0.18846 0.73365,0.29042 2.9631,0.32759 5.1047,0.0851 9.1206,1.0318 13.238,3.1208 7.0406,3.572 12.33,10.248 14.242,17.974 0.66821,2.7009 0.92393,7.8366 0.52037,10.451 -0.58836,3.8117 -2.1034,7.8761 -4.5367,12.171 l -0.8245,1.4552 1.0871,-1.1906 c 0.59789,-0.65484 1.735,-2.5003 2.5269,-4.101 z m -110.68,-77.751 c 5.346,-1.3712 9.8553,-3.9467 13.731,-7.8423 2.2793,-2.2911 4.4962,-5.3498 5.6562,-7.8042 0.34388,-0.7276 1.109,-2.3403 1.7004,-3.5838 1.5896,-3.3426 1.9952,-5.2912 1.9804,-9.5131 -0.02703,-7.7022 -2.7649,-14.424 -8.1869,-20.099 -12.414,-12.994 -33.961,-12.139 -45.092,1.7887 -2.3018,2.8802 -4.7838,7.736 -5.7075,11.166 -0.93176,3.46 -1.1627,8.7415 -0.52118,11.918 0.50347,2.4926 3.5134,9.0592 5.4797,11.955 4.29,6.3173 11.777,11.183 19.03,12.367 1.0801,0.17633 2.1423,0.36404 2.3606,0.41714 0.21828,0.0531 1.8852,0.0493 3.7042,-0.008 2.3769,-0.0755 4.027,-0.2896 5.8657,-0.76121 z m 108.93,-12.289 c 3.1575,-4.6549 4.6549,-9.7052 4.6431,-15.66 -0.0156,-7.8395 -2.4843,-13.957 -7.8737,-19.511 -3.6493,-3.7607 -7.8582,-6.234 -13.041,-7.6628 -2.3177,-0.63902 -3.0789,-0.72114 -6.7649,-0.72981 -2.494,-0.0059 -4.2618,0.09847 -4.4249,0.26115 -0.18533,0.1849 0.0719,0.23817 0.81017,0.16776 1.8385,-0.17532 7.4399,0.47312 9.996,1.1572 9.7016,2.5963 17.166,10.246 19.661,20.151 0.84574,3.3571 0.83563,9.8096 -0.0204,13 -0.79465,2.9618 -1.9174,5.7274 -3.3506,8.2532 -0.65318,1.1511 -1.1876,2.1636 -1.1876,2.25 0,0.37412 0.60402,-0.27812 1.5526,-1.6765 z"
           inkscape:connector-curvature="0"
           style="fill:#22aeeb" />
        <path
           id="path4538"
           d="m -0.47248,269.62 c -0.43656,-0.0522 -1.9248,-0.22357 -3.3073,-0.38083 -11.017,-1.2534 -22.582,-5.9429 -31.872,-12.924 -3.376,-2.5371 -8.8439,-7.846 -11.601,-11.264 -7.6401,-9.4706 -12.595,-21.153 -14.251,-33.602 -0.51963,-3.9061 -0.51963,-144 0,-147.9 1.5674,-11.783 5.9993,-22.702 12.99,-32.004 2.5371,-3.376 7.846,-8.8439 11.264,-11.601 9.4705,-7.6401 21.153,-12.595 33.602,-14.251 3.9061,-0.51963 144,-0.51963 147.9,0 12.449,1.656 24.132,6.6108 33.602,14.251 3.4183,2.7576 8.7273,8.2255 11.264,11.601 6.9906,9.3022 11.422,20.221 12.99,32.004 0.51964,3.9061 0.51964,144 0,147.9 -1.656,12.449 -6.6108,24.132 -14.251,33.602 -2.7576,3.4183 -8.2255,8.7273 -11.601,11.264 -9.0243,6.7817 -18.882,10.886 -30.946,12.885 -2.413,0.39985 -8.9084,0.44177 -73.819,0.47633 -39.145,0.0208 -71.53,-0.005 -71.967,-0.057 z m 28.575,-57.253 c 5.2811,-0.49388 10.34,-2.2479 13.982,-4.8479 1.9987,-1.4269 5.2481,-4.8005 6.6147,-6.8673 5.9044,-8.93 6.1171,-20.758 0.54188,-30.138 -1.6912,-2.8454 -6.0737,-7.3041 -8.8869,-9.0414 -2.5677,-1.5857 -5.7855,-2.9498 -8.6794,-3.6794 -1.8364,-0.46303 -3.0254,-0.56662 -6.4823,-0.56479 -4.6194,0.002 -6.1642,0.26763 -9.8589,1.6924 -5.9984,2.3132 -12.46,8.8138 -15.126,15.218 -1.7118,4.112 -1.9766,5.5864 -1.9723,10.984 0.00357,4.5464 0.054679,5.0643 0.71785,7.276 3.3291,11.103 12.482,18.747 23.885,19.95 1.1489,0.12115 2.1485,0.23601 2.2212,0.25524 0.07276,0.0192 1.442,-0.0875 3.0427,-0.23721 z m 95.382,-0.42735 c 5.9762,-1.05 10.54,-3.4543 14.553,-7.6673 2.3343,-2.4506 3.64,-4.3516 5.0313,-7.3248 3.8904,-8.3136 3.3262,-18.333 -1.4885,-26.434 -1.6912,-2.8454 -6.0737,-7.3041 -8.8869,-9.0414 -2.5728,-1.5889 -5.7914,-2.9522 -8.6794,-3.6764 -2.9709,-0.74501 -9.1705,-0.81198 -12.223,-0.13204 -5.1423,1.1456 -8.9398,3.323 -13.045,7.4798 -5.5856,5.6558 -8.3223,12.144 -8.3309,19.751 -0.01072,9.5035 4.3447,17.721 12.165,22.952 6.0894,4.0731 13.149,5.4552 20.904,4.0926 z m -91.501,-92 c 5.346,-1.3712 9.8553,-3.9467 13.731,-7.8423 2.2793,-2.2911 4.4962,-5.3498 5.6562,-7.8042 0.34388,-0.7276 1.109,-2.3403 1.7004,-3.5838 1.5896,-3.3426 1.9952,-5.2912 1.9804,-9.5131 -0.02703,-7.7022 -2.7649,-14.424 -8.1869,-20.099 -12.414,-12.994 -33.961,-12.139 -45.092,1.7887 -2.3018,2.8802 -4.7838,7.736 -5.7075,11.166 -0.93176,3.46 -1.1627,8.7415 -0.52118,11.918 0.50347,2.4926 3.5134,9.0592 5.4797,11.955 4.29,6.3173 11.777,11.183 19.03,12.367 1.0801,0.17633 2.1423,0.36404 2.3606,0.41714 0.21828,0.0531 1.8852,0.0493 3.7042,-0.008 2.3769,-0.0755 4.027,-0.2896 5.8657,-0.76121 z m 91.898,-1.2033 c 5.4441,-1.1404 9.7149,-3.2947 13.239,-6.678 4.237,-4.0677 6.8078,-8.7966 8.1049,-14.909 0.42855,-2.0194 0.42427,-8.2425 -0.007,-10.319 -1.2124,-5.8355 -3.5,-10.192 -7.5368,-14.352 -5.0601,-5.2147 -11.426,-8.1102 -18.586,-8.4543 -7.9094,-0.38004 -14.025,1.8443 -19.581,7.1218 -4.6646,4.4309 -7.5905,9.7042 -8.7212,15.718 -0.59017,3.1389 -0.41177,8.877 0.36644,11.787 2.8054,10.489 11.213,18.286 21.874,20.284 2.4216,0.45392 8.2416,0.34736 10.848,-0.19861 z"
           inkscape:connector-curvature="0"
           style="fill:#f28934" />
        <path
           id="path4540"
           d="m -0.47248,269.62 c -0.43656,-0.0522 -1.9248,-0.22357 -3.3073,-0.38083 -11.017,-1.2534 -22.582,-5.9429 -31.872,-12.924 -3.376,-2.5371 -8.8439,-7.846 -11.601,-11.264 -7.6401,-9.4706 -12.595,-21.153 -14.251,-33.602 -0.51963,-3.9061 -0.51963,-144 0,-147.9 1.5674,-11.783 5.9993,-22.702 12.99,-32.004 2.5371,-3.376 7.846,-8.8439 11.264,-11.601 9.4705,-7.6401 21.153,-12.595 33.602,-14.251 3.9061,-0.51963 144,-0.51963 147.9,0 12.449,1.656 24.132,6.6108 33.602,14.251 3.4183,2.7576 8.7273,8.2255 11.264,11.601 6.9906,9.3022 11.422,20.221 12.99,32.004 0.51964,3.9061 0.51964,144 0,147.9 -1.656,12.449 -6.6108,24.132 -14.251,33.602 -2.7576,3.4183 -8.2255,8.7273 -11.601,11.264 -9.0243,6.7817 -18.882,10.886 -30.946,12.885 -2.413,0.39985 -8.9084,0.44177 -73.819,0.47633 -39.145,0.0208 -71.53,-0.005 -71.967,-0.057 z m 28.575,-57.253 c 5.2811,-0.49388 10.34,-2.2479 13.982,-4.8479 1.9987,-1.4269 5.2481,-4.8005 6.6147,-6.8673 5.9044,-8.93 6.1171,-20.758 0.54188,-30.138 -1.6912,-2.8454 -6.0737,-7.3041 -8.8869,-9.0414 -2.5677,-1.5857 -5.7855,-2.9498 -8.6794,-3.6794 -1.8364,-0.46303 -3.0254,-0.56662 -6.4823,-0.56479 -4.6194,0.002 -6.1642,0.26763 -9.8589,1.6924 -5.9984,2.3132 -12.46,8.8138 -15.126,15.218 -1.7118,4.112 -1.9766,5.5864 -1.9723,10.984 0.00357,4.5464 0.054679,5.0643 0.71785,7.276 3.3291,11.103 12.482,18.747 23.885,19.95 1.1489,0.12115 2.1485,0.23601 2.2212,0.25524 0.07276,0.0192 1.442,-0.0875 3.0427,-0.23721 z m 95.382,-0.42735 c 5.9762,-1.05 10.54,-3.4543 14.553,-7.6673 2.3343,-2.4506 3.64,-4.3516 5.0313,-7.3248 3.8904,-8.3136 3.3262,-18.333 -1.4885,-26.434 -1.6912,-2.8454 -6.0737,-7.3041 -8.8869,-9.0414 -2.5728,-1.5889 -5.7914,-2.9522 -8.6794,-3.6764 -2.9709,-0.74501 -9.1705,-0.81198 -12.223,-0.13204 -5.1423,1.1456 -8.9398,3.323 -13.045,7.4798 -5.5856,5.6558 -8.3223,12.144 -8.3309,19.751 -0.01072,9.5035 4.3447,17.721 12.165,22.952 6.0894,4.0731 13.149,5.4552 20.904,4.0926 z m -93.789,-91.235 c 4.0993,-0.66489 6.0933,-1.4323 12.81,-4.9301 2.5193,-1.3119 5.1386,-3.6084 7.1826,-6.2975 1.8325,-2.4108 4.0689,-7.0496 4.9229,-10.211 0.65524,-2.4257 0.71477,-3.0531 0.71548,-7.5406 7.94e-4,-4.5128 -0.05568,-5.1013 -0.72265,-7.5406 -2.941,-10.756 -11.131,-18.817 -22.117,-21.769 -2.2479,-0.60394 -3.0544,-0.68242 -7.1633,-0.6971 -4.2137,-0.01506 -4.8906,0.04923 -7.5249,0.71467 -9.967,2.5177 -18.245,10.07 -21.427,19.549 -1.2258,3.6515 -1.5577,5.676 -1.5759,9.6106 -0.038431,8.3363 2.9811,15.634 8.768,21.19 1.2712,1.2205 2.6514,2.1277 5.6992,3.7461 5.0838,2.6995 8.4541,3.8834 12.488,4.3869 1.9587,0.24444 5.7578,0.14353 7.9435,-0.21098 z m 94.186,-1.9685 c 5.4441,-1.1404 9.7149,-3.2947 13.239,-6.678 4.237,-4.0677 6.8078,-8.7966 8.1049,-14.909 0.42855,-2.0194 0.42427,-8.2425 -0.007,-10.319 -1.2124,-5.8355 -3.5,-10.192 -7.5368,-14.352 -5.0601,-5.2147 -11.426,-8.1102 -18.586,-8.4543 -7.9094,-0.38004 -14.025,1.8443 -19.581,7.1218 -4.6646,4.4309 -7.5905,9.7042 -8.7212,15.718 -0.59017,3.1389 -0.41177,8.877 0.36644,11.787 2.8054,10.489 11.213,18.286 21.874,20.284 2.4216,0.45392 8.2416,0.34736 10.848,-0.19861 z"
           inkscape:connector-curvature="0"
           style="fill:#6193a9" />
        <path
           id="path4542"
           d="m -0.47248,269.62 c -0.43656,-0.0522 -1.9248,-0.22357 -3.3073,-0.38083 -11.64,-1.3241 -24.045,-6.5816 -33.47,-14.185 -3.3358,-2.691 -8.6831,-8.1814 -11.16,-11.459 -7.0038,-9.2661 -11.528,-20.373 -13.094,-32.147 -0.51963,-3.9061 -0.51963,-144 0,-147.9 1.6511,-12.411 6.6337,-24.16 14.251,-33.602 2.691,-3.3358 8.1814,-8.6831 11.459,-11.16 9.2661,-7.0038 20.373,-11.528 32.147,-13.094 3.9061,-0.51963 144,-0.51963 147.9,0 11.774,1.5663 22.881,6.0902 32.147,13.094 3.2773,2.4771 8.7676,7.8245 11.459,11.16 7.6171,9.4421 12.6,21.191 14.251,33.602 0.51964,3.9061 0.51964,144 0,147.9 -1.5663,11.774 -6.0902,22.881 -13.094,32.147 -2.4771,3.2773 -7.8245,8.7676 -11.16,11.459 -7.6446,6.167 -17.983,11.152 -27.252,13.14 -7.2217,1.5491 -1.4492,1.441 -79.11,1.4823 -39.145,0.0208 -71.53,-0.005 -71.967,-0.057 z m 28.575,-57.253 c 5.2811,-0.49388 10.34,-2.2479 13.982,-4.8479 3.6424,-2.6004 7.8117,-7.8514 9.4167,-11.859 1.5187,-3.7927 1.9697,-6.2554 1.954,-10.669 -0.01569,-4.4109 -0.54957,-7.1043 -2.1886,-11.041 -1.8371,-4.4129 -5.8048,-9.2376 -9.9578,-12.109 -7.6103,-5.261 -17.13,-6.3311 -25.975,-2.9198 -5.9984,2.3132 -12.46,8.8138 -15.126,15.218 -1.7118,4.112 -1.9766,5.5864 -1.9723,10.984 0.00357,4.5464 0.054679,5.0643 0.71785,7.276 3.3291,11.103 12.482,18.747 23.885,19.95 1.1489,0.12115 2.1485,0.23601 2.2212,0.25524 0.07276,0.0192 1.442,-0.0875 3.0427,-0.23721 z m 95.382,-0.42735 c 5.9733,-1.0495 10.53,-3.4493 14.558,-7.6673 3.7146,-3.8899 5.9136,-7.8569 7.192,-12.974 0.86652,-3.4686 0.80995,-9.2662 -0.12498,-12.809 -1.3961,-5.291 -3.8022,-9.5915 -7.3748,-13.181 -6.7272,-6.7596 -15.2,-9.4444 -24.701,-7.8271 -4.6515,0.79175 -7.9915,2.2693 -11.586,5.1254 -7.0394,5.594 -11.023,13.642 -11.033,22.29 -0.01072,9.5035 4.3447,17.721 12.165,22.952 6.0894,4.0731 13.149,5.4552 20.904,4.0926 z m -93.789,-91.235 c 4.0993,-0.66489 6.0933,-1.4323 12.81,-4.9301 2.5193,-1.3119 5.1386,-3.6084 7.1826,-6.2975 1.8325,-2.4108 4.0689,-7.0496 4.9229,-10.211 0.65524,-2.4257 0.71477,-3.0531 0.71548,-7.5406 7.94e-4,-4.5128 -0.05568,-5.1013 -0.72265,-7.5406 -2.941,-10.756 -11.131,-18.817 -22.117,-21.769 -2.2479,-0.60394 -3.0544,-0.68242 -7.1633,-0.6971 -4.2137,-0.01506 -4.8906,0.04923 -7.5249,0.71467 -9.967,2.5177 -18.245,10.07 -21.427,19.549 -1.2258,3.6515 -1.5577,5.676 -1.5759,9.6106 -0.038431,8.3363 2.9811,15.634 8.768,21.19 1.2712,1.2205 2.6514,2.1277 5.6992,3.7461 5.0838,2.6995 8.4541,3.8834 12.488,4.3869 1.9587,0.24444 5.7578,0.14353 7.9435,-0.21098 z m 94.186,-1.9685 c 5.3903,-1.1291 9.6894,-3.2825 13.145,-6.5844 3.9846,-3.8068 6.7166,-8.3523 8.0629,-13.415 0.61962,-2.33 0.70293,-3.1354 0.69788,-6.7469 -0.005,-3.5348 -0.0983,-4.4508 -0.6763,-6.6341 -2.3131,-8.7379 -7.7262,-15.336 -15.614,-19.033 -3.8224,-1.7912 -8.9954,-2.8474 -12.363,-2.5241 -8.294,0.79638 -12.625,2.6024 -17.62,7.3471 -4.6646,4.4309 -7.5905,9.7042 -8.7212,15.718 -0.59017,3.1389 -0.41177,8.877 0.36644,11.787 2.8054,10.489 11.213,18.286 21.874,20.284 2.4216,0.45392 8.2416,0.34736 10.848,-0.19861 z"
           inkscape:connector-curvature="0"
           style="fill:#1c87b4" />
        <path
           id="path4544"
           d="m -0.47248,269.62 c -0.43656,-0.0522 -1.9248,-0.22357 -3.3073,-0.38083 -11.64,-1.3241 -24.045,-6.5816 -33.47,-14.185 -3.3358,-2.691 -8.6831,-8.1814 -11.16,-11.459 -7.0038,-9.2661 -11.528,-20.373 -13.094,-32.147 -0.51963,-3.9061 -0.51963,-144 0,-147.9 1.6511,-12.411 6.6337,-24.16 14.251,-33.602 2.691,-3.3358 8.1814,-8.6831 11.459,-11.16 9.2661,-7.0038 20.373,-11.528 32.147,-13.094 3.9061,-0.51963 144,-0.51963 147.9,0 11.774,1.5663 22.881,6.0902 32.147,13.094 3.2773,2.4771 8.7676,7.8245 11.459,11.16 7.6171,9.4421 12.6,21.191 14.251,33.602 0.51964,3.9061 0.51964,144 0,147.9 -1.5663,11.774 -6.0902,22.881 -13.094,32.147 -2.4771,3.2773 -7.8245,8.7676 -11.16,11.459 -7.6446,6.167 -17.983,11.152 -27.252,13.14 -7.2217,1.5491 -1.4492,1.441 -79.11,1.4823 -39.145,0.0208 -71.53,-0.005 -71.967,-0.057 z m 33.501,-57.6 c 4.6522,-1.1984 8.3277,-3.2603 11.832,-6.6377 9.8518,-9.4954 11.53,-24.403 4.0272,-35.78 -7.487,-11.353 -21.991,-15.781 -34.477,-10.528 -5.8466,2.4601 -11.26,7.8291 -14.107,13.993 -3.353,7.2571 -3.4611,15.823 -0.29187,23.136 3.6014,8.3106 11.774,14.738 20.55,16.161 1.0914,0.17702 2.163,0.36522 2.3812,0.41823 0.21828,0.053 2.0042,0.0504 3.9688,-0.006 2.682,-0.0766 4.2059,-0.26539 6.1169,-0.75764 z m 92.34,0.006 c 4.6667,-1.2124 8.3328,-3.2708 11.832,-6.6433 9.8583,-9.5017 11.535,-24.405 4.0256,-35.78 -6.6828,-10.122 -18.812,-14.799 -30.679,-11.829 -10.816,2.707 -19.282,12.892 -20.383,24.521 -1.4107,14.91 8.9196,28.006 23.928,30.333 2.8339,0.43946 8.4134,0.14142 11.276,-0.60235 z m -95.672,-91.322 c 4.0993,-0.66489 6.0933,-1.4323 12.81,-4.9301 2.5193,-1.3119 5.1386,-3.6084 7.1826,-6.2975 1.8325,-2.4108 4.0689,-7.0496 4.9229,-10.211 0.65524,-2.4257 0.71477,-3.0531 0.71548,-7.5406 7.94e-4,-4.5128 -0.05568,-5.1013 -0.72265,-7.5406 -2.941,-10.756 -11.131,-18.817 -22.117,-21.769 -2.2479,-0.60394 -3.0544,-0.68242 -7.1633,-0.6971 -4.2137,-0.01506 -4.8906,0.04923 -7.5249,0.71467 -9.967,2.5177 -18.245,10.07 -21.427,19.549 -1.2258,3.6515 -1.5577,5.676 -1.5759,9.6106 -0.038431,8.3363 2.9811,15.634 8.768,21.19 1.2712,1.2205 2.6514,2.1277 5.6992,3.7461 5.0838,2.6995 8.4541,3.8834 12.488,4.3869 1.9587,0.24444 5.7578,0.14353 7.9435,-0.21098 z m 93.011,-1.3181 c 5.4068,-0.81505 10.324,-3.2097 14.279,-6.9537 3.8758,-3.669 6.718,-8.4719 8.1047,-13.696 0.61798,-2.328 0.70165,-3.1384 0.69661,-6.7469 -0.005,-3.5348 -0.0983,-4.4508 -0.6763,-6.6341 -0.94899,-3.5849 -2.1572,-6.3287 -3.9998,-9.0835 -9.8874,-14.782 -30.812,-16.881 -43.036,-4.3182 -7.7209,7.9352 -10.151,20.089 -6.0599,30.306 4.8131,12.02 17.522,19.112 30.691,17.127 z"
           inkscape:connector-curvature="0"
           style="fill:#d35809" />
        <path
           id="path4546"
           d="m -0.47248,269.62 c -0.43656,-0.0522 -1.9248,-0.22357 -3.3073,-0.38083 -11.64,-1.3241 -24.045,-6.5816 -33.47,-14.185 -3.3358,-2.691 -8.6831,-8.1814 -11.16,-11.459 -7.0038,-9.2661 -11.528,-20.373 -13.094,-32.147 -0.51963,-3.9061 -0.51963,-144 0,-147.9 1.6511,-12.411 6.6337,-24.16 14.251,-33.602 2.691,-3.3358 8.1814,-8.6831 11.459,-11.16 9.2661,-7.0038 20.373,-11.528 32.147,-13.094 3.9061,-0.51963 144,-0.51963 147.9,0 11.774,1.5663 22.881,6.0902 32.147,13.094 3.2773,2.4771 8.7676,7.8245 11.459,11.16 7.6171,9.4421 12.6,21.191 14.251,33.602 0.51964,3.9061 0.51964,144 0,147.9 -1.5663,11.774 -6.0902,22.881 -13.094,32.147 -2.4771,3.2773 -7.8245,8.7676 -11.16,11.459 -7.6446,6.167 -17.983,11.152 -27.252,13.14 -7.2217,1.5491 -1.4492,1.441 -79.11,1.4823 -39.145,0.0208 -71.53,-0.005 -71.967,-0.057 z m 33.501,-57.6 c 4.6522,-1.1984 8.3277,-3.2603 11.832,-6.6377 9.8518,-9.4954 11.53,-24.403 4.0272,-35.78 -7.487,-11.353 -21.991,-15.781 -34.477,-10.528 -5.8466,2.4601 -11.26,7.8291 -14.107,13.993 -3.353,7.2571 -3.4611,15.823 -0.29187,23.136 3.6014,8.3106 11.774,14.738 20.55,16.161 1.0914,0.17702 2.163,0.36522 2.3812,0.41823 0.21828,0.053 2.0042,0.0504 3.9688,-0.006 2.682,-0.0766 4.2059,-0.26539 6.1169,-0.75764 z m 92.34,0.006 c 4.6667,-1.2124 8.3328,-3.2708 11.832,-6.6433 9.8583,-9.5017 11.535,-24.405 4.0256,-35.78 -6.6828,-10.122 -18.812,-14.799 -30.679,-11.829 -10.816,2.707 -19.282,12.892 -20.383,24.521 -1.4107,14.91 8.9196,28.006 23.928,30.333 2.8339,0.43946 8.4134,0.14142 11.276,-0.60235 z m -93.165,-87.766 c 6.3771,-1.2722 12.219,-4.5054 16.842,-9.3208 4.4392,-4.624 7.002,-9.644 8.4745,-16.6 0.65961,-3.1158 0.64472,-9.5479 -0.0297,-12.832 -3.235,-15.755 -16.255,-26.376 -32.31,-26.357 -16.637,0.02003 -30.01,11.299 -32.545,27.45 -0.57768,3.6815 -0.4068,9.7247 0.36992,13.082 1.4735,6.3698 5.1886,12.805 9.7682,16.92 4.7836,4.2984 11.754,7.4158 18.316,8.192 2.8968,0.34265 7.928,0.10051 11.112,-0.5348 z m 90.504,-4.8737 c 5.4068,-0.81505 10.324,-3.2097 14.279,-6.9537 3.8758,-3.669 6.718,-8.4719 8.1047,-13.696 0.61798,-2.328 0.70165,-3.1384 0.69661,-6.7469 -0.005,-3.5348 -0.0983,-4.4508 -0.6763,-6.6341 -0.94899,-3.5849 -2.1572,-6.3287 -3.9998,-9.0835 -9.8874,-14.782 -30.812,-16.881 -43.036,-4.3182 -7.7209,7.9352 -10.151,20.089 -6.0599,30.306 4.8131,12.02 17.522,19.112 30.691,17.127 z"
           inkscape:connector-curvature="0"
           style="fill:#1c7195" />
        <path
           id="path4548"
           d="m -0.47248,269.62 c -0.43656,-0.0522 -1.9248,-0.22357 -3.3073,-0.38083 -11.64,-1.3241 -24.045,-6.5816 -33.47,-14.185 -3.3358,-2.691 -8.6831,-8.1814 -11.16,-11.459 -7.0038,-9.2661 -11.528,-20.373 -13.094,-32.147 -0.51963,-3.9061 -0.51963,-144 0,-147.9 1.6511,-12.411 6.6337,-24.16 14.251,-33.602 2.691,-3.3358 8.1814,-8.6831 11.459,-11.16 9.2661,-7.0038 20.373,-11.528 32.147,-13.094 3.9061,-0.51963 144,-0.51963 147.9,0 11.774,1.5663 22.881,6.0902 32.147,13.094 3.2773,2.4771 8.7676,7.8245 11.459,11.16 7.6171,9.4421 12.6,21.191 14.251,33.602 0.51964,3.9061 0.51964,144 0,147.9 -1.5663,11.774 -6.0902,22.881 -13.094,32.147 -2.4771,3.2773 -7.8245,8.7676 -11.16,11.459 -7.6446,6.167 -17.983,11.152 -27.252,13.14 -7.2217,1.5491 -1.4492,1.441 -79.11,1.4823 -39.145,0.0208 -71.53,-0.005 -71.967,-0.057 z m 31.12,-56.84 c 17.708,-3.1012 27.677,-21.876 20.619,-38.831 -2.3683,-5.6888 -7.5751,-11.216 -13.299,-14.117 -6.7073,-3.3996 -14.798,-3.9809 -21.88,-1.5721 -9.2123,3.1333 -16.258,11.433 -18.144,21.373 -0.82205,4.3335 -0.42671,10.186 0.96959,14.354 2.8277,8.4398 9.8587,15.262 18.404,17.856 4.3603,1.324 9.1861,1.6634 13.331,0.93756 z m 92.34,0 c 9.9441,-1.7415 18.248,-8.8518 21.394,-18.32 3.4386,-10.346 0.87343,-21.597 -6.647,-29.153 -5.582,-5.6088 -12.492,-8.5003 -20.292,-8.4915 -10.44,0.0118 -19.52,5.5198 -24.319,14.753 -2.551,4.9077 -3.388,8.7865 -3.1644,14.663 0.15229,4.0023 0.59943,6.2044 1.9238,9.4744 2.4752,6.1115 8.1938,12.081 14.169,14.789 5.2288,2.3703 11.566,3.2254 16.935,2.2851 z m -90.784,-88.52 c 6.3771,-1.2722 12.219,-4.5054 16.842,-9.3208 4.4392,-4.624 7.002,-9.644 8.4745,-16.6 0.65961,-3.1158 0.64472,-9.5479 -0.0297,-12.832 -3.235,-15.755 -16.255,-26.376 -32.31,-26.357 -16.637,0.02003 -30.01,11.299 -32.545,27.45 -0.57768,3.6815 -0.4068,9.7247 0.36992,13.082 1.4735,6.3698 5.1886,12.805 9.7682,16.92 4.7836,4.2984 11.754,7.4158 18.316,8.192 2.8968,0.34265 7.928,0.10051 11.112,-0.5348 z m 92.923,-5.11 c 4.9133,-1.2738 8.9331,-3.5694 12.544,-7.1636 11.038,-10.986 10.962,-29.073 -0.16954,-40.094 -3.3905,-3.3571 -7.6312,-5.8322 -12.562,-7.3316 -2.223,-0.67606 -2.7067,-0.72456 -7.276,-0.72962 -5.8722,-0.0065 -7.7457,0.39194 -12.303,2.6166 -8.0753,3.9418 -13.761,11.724 -15.22,20.833 -0.47393,2.9582 -0.21833,8.7496 0.51142,11.588 0.72154,2.8063 2.9969,7.5218 4.7238,9.7896 1.6327,2.1441 4.7375,5.1024 6.7582,6.4395 3.3629,2.2251 8.0317,4.042 11.981,4.6624 2.7681,0.43486 8.1268,0.13797 11.012,-0.6101 z"
           inkscape:connector-curvature="0"
           style="fill:#5a5d5f" />
        <path
           id="path4550"
           d="m -0.34018,269.52 c -8.4716,-0.78141 -16.887,-3.139 -24.474,-6.8559 -21.018,-10.297 -34.67,-30.556 -36.919,-54.786 -0.27272,-2.9375 -0.27272,-137.82 0,-140.76 0.82004,-8.8327 3.0997,-17.04 6.8717,-24.739 10.297,-21.018 30.556,-34.67 54.786,-36.919 2.9375,-0.27273 137.82,-0.27273 140.76,0 14.207,1.319 27.221,6.5663 37.644,15.179 13.809,11.409 22.28,27.805 24.013,46.479 0.27274,2.9375 0.27274,137.82 0,140.76 -1.319,14.207 -6.5663,27.221 -15.179,37.644 -11.409,13.809 -27.805,22.28 -46.479,24.013 -2.7536,0.25564 -138.24,0.24046 -141.02,-0.0158 z m 30.988,-56.738 c 8.0702,-1.4133 14.784,-6.0839 19.12,-13.301 2.3808,-3.9629 3.5888,-8.1347 3.7922,-13.096 0.16682,-4.069 -0.12515,-6.5204 -1.1743,-9.8593 -2.648,-8.4273 -9.5049,-15.426 -17.933,-18.303 -5.5761,-1.9035 -12.7,-1.8885 -18.366,0.0386 -9.2123,3.1333 -16.258,11.433 -18.144,21.373 -0.82205,4.3335 -0.42671,10.186 0.96959,14.354 2.8277,8.4398 9.8587,15.262 18.404,17.856 4.3603,1.324 9.1861,1.6634 13.331,0.93756 z m 92.34,0 c 11.416,-1.9992 20.158,-10.684 22.568,-22.421 0.53417,-2.6007 0.54334,-7.6971 0.0188,-10.462 -1.0747,-5.6652 -3.5055,-10.302 -7.628,-14.55 -3.6679,-3.78 -8.0198,-6.3273 -13.084,-7.6587 -3.6639,-0.96325 -9.2161,-1.139 -12.754,-0.40367 -8.406,1.7468 -15.076,6.7656 -18.984,14.284 -2.551,4.9077 -3.388,8.7865 -3.1644,14.663 0.15229,4.0023 0.59944,6.2044 1.9238,9.4744 2.4752,6.1115 8.1938,12.081 14.169,14.789 5.2288,2.3703 11.566,3.2254 16.935,2.2851 z m -90.784,-88.52 c 6.3771,-1.2722 12.219,-4.5054 16.842,-9.3208 4.4392,-4.624 7.002,-9.644 8.4745,-16.6 0.65961,-3.1158 0.64472,-9.5479 -0.0297,-12.832 -3.235,-15.755 -16.255,-26.376 -32.31,-26.357 -16.637,0.02003 -30.01,11.299 -32.545,27.45 -0.57768,3.6815 -0.4068,9.7247 0.36992,13.082 1.4735,6.3698 5.1886,12.805 9.7682,16.92 4.7836,4.2984 11.754,7.4158 18.316,8.192 2.8968,0.34265 7.928,0.10051 11.112,-0.5348 z m 92.923,-5.11 c 4.9133,-1.2738 8.9331,-3.5694 12.544,-7.1636 3.5139,-3.4973 5.7736,-7.3822 7.4166,-12.75 0.67003,-2.1892 0.72069,-2.6909 0.73167,-7.2468 0.0104,-4.3029 -0.0618,-5.1667 -0.59682,-7.1438 -2.0765,-7.673 -7.498,-14.479 -14.309,-17.963 -4.8833,-2.498 -8.7908,-3.3452 -14.494,-3.1423 -4.5696,0.16256 -7.1302,0.78934 -11.059,2.707 -8.0753,3.9418 -13.761,11.724 -15.22,20.833 -0.47393,2.9582 -0.21833,8.7496 0.51142,11.588 0.72154,2.8063 2.9969,7.5218 4.7238,9.7896 1.6327,2.1441 4.7375,5.1024 6.7582,6.4395 3.3629,2.2251 8.0317,4.042 11.981,4.6624 2.7681,0.43486 8.1268,0.13797 11.012,-0.6101 z"
           inkscape:connector-curvature="0"
           style="fill:#b74a05" />
        <path
           id="path4552"
           d="m -0.34018,269.52 c -8.4716,-0.78141 -16.887,-3.139 -24.474,-6.8559 -21.018,-10.297 -34.67,-30.556 -36.919,-54.786 -0.27272,-2.9375 -0.27272,-137.82 0,-140.76 0.82004,-8.8327 3.0997,-17.04 6.8717,-24.739 10.297,-21.018 30.556,-34.67 54.786,-36.919 2.9375,-0.27273 137.82,-0.27273 140.76,0 14.207,1.319 27.221,6.5663 37.644,15.179 13.809,11.409 22.28,27.805 24.013,46.479 0.27274,2.9375 0.27274,137.82 0,140.76 -1.319,14.207 -6.5663,27.221 -15.179,37.644 -11.409,13.809 -27.805,22.28 -46.479,24.013 -2.7536,0.25564 -138.24,0.24046 -141.02,-0.0158 z m 30.988,-56.738 c 8.0702,-1.4133 14.784,-6.0839 19.12,-13.301 2.3808,-3.9629 3.5888,-8.1347 3.7922,-13.096 0.16682,-4.069 -0.12515,-6.5204 -1.1743,-9.8593 -2.648,-8.4273 -9.5049,-15.426 -17.933,-18.303 -5.5761,-1.9035 -12.7,-1.8885 -18.366,0.0386 -9.2123,3.1333 -16.258,11.433 -18.144,21.373 -0.82205,4.3335 -0.42671,10.186 0.96959,14.354 2.8277,8.4398 9.8587,15.262 18.404,17.856 4.3603,1.324 9.1861,1.6634 13.331,0.93756 z m 92.34,0 c 11.416,-1.9992 20.158,-10.684 22.568,-22.421 0.53417,-2.6007 0.54334,-7.6971 0.0188,-10.462 -1.0747,-5.6652 -3.5055,-10.302 -7.628,-14.55 -3.6679,-3.78 -8.0198,-6.3273 -13.084,-7.6587 -3.6639,-0.96325 -9.2161,-1.139 -12.754,-0.40367 -8.406,1.7468 -15.076,6.7656 -18.984,14.284 -2.551,4.9077 -3.388,8.7865 -3.1644,14.663 0.15229,4.0023 0.59944,6.2044 1.9238,9.4744 2.4752,6.1115 8.1938,12.081 14.169,14.789 5.2288,2.3703 11.566,3.2254 16.935,2.2851 z m -90.602,-86.268 c 9.5156,-1.9267 17.419,-7.2448 22.446,-15.103 6.0709,-9.4904 7.2046,-22.503 2.8791,-33.046 -1.9314,-4.7074 -4.4448,-8.4131 -8.0789,-11.911 -6.736,-6.4842 -15.369,-9.7259 -25.365,-9.525 -5.4567,0.10962 -8.3831,0.7386 -13.733,2.9517 -8.8914,3.6779 -16.071,11.734 -18.949,21.263 -1.2851,4.2547 -1.5653,6.2016 -1.5612,10.848 0.0027,3.089 0.14005,5.0522 0.46968,6.7135 2.7646,13.933 12.163,23.994 25.626,27.431 3.1473,0.80358 4.6935,0.9767 9.0411,1.0124 3.2474,0.0266 4.5108,-0.0842 7.226,-0.634 z m 92.742,-7.3628 c 4.9133,-1.2738 8.9331,-3.5694 12.544,-7.1636 3.5139,-3.4973 5.7736,-7.3822 7.4166,-12.75 0.67003,-2.1892 0.72069,-2.6909 0.73167,-7.2468 0.0104,-4.3029 -0.0618,-5.1667 -0.59682,-7.1438 -2.0765,-7.673 -7.498,-14.479 -14.309,-17.963 -4.8833,-2.498 -8.7908,-3.3452 -14.494,-3.1423 -4.5696,0.16256 -7.1302,0.78934 -11.059,2.707 -8.0753,3.9418 -13.761,11.724 -15.22,20.833 -0.47393,2.9582 -0.21833,8.7496 0.51142,11.588 0.72154,2.8063 2.9969,7.5218 4.7238,9.7896 1.6327,2.1441 4.7375,5.1024 6.7582,6.4395 3.3629,2.2251 8.0317,4.042 11.981,4.6624 2.7681,0.43486 8.1268,0.13797 11.012,-0.6101 z"
           inkscape:connector-curvature="0"
           style="fill:#a74405" />
        <path
           id="path4554"
           d="m -0.34018,269.52 c -8.4716,-0.78141 -16.887,-3.139 -24.474,-6.8559 -21.018,-10.297 -34.67,-30.556 -36.919,-54.786 -0.27272,-2.9375 -0.27272,-137.82 0,-140.76 0.82004,-8.8327 3.0997,-17.04 6.8717,-24.739 10.297,-21.018 30.556,-34.67 54.786,-36.919 2.9375,-0.27273 137.82,-0.27273 140.76,0 14.207,1.319 27.221,6.5663 37.644,15.179 13.809,11.409 22.28,27.805 24.013,46.479 0.27274,2.9375 0.27274,137.82 0,140.76 -1.319,14.207 -6.5663,27.221 -15.179,37.644 -11.409,13.809 -27.805,22.28 -46.479,24.013 -2.7536,0.25564 -138.24,0.24046 -141.02,-0.0158 z m 30.988,-56.738 c 8.0702,-1.4133 14.784,-6.0839 19.12,-13.301 2.3808,-3.9629 3.5888,-8.1347 3.7922,-13.096 0.16682,-4.069 -0.12515,-6.5204 -1.1743,-9.8593 -2.648,-8.4273 -9.5049,-15.426 -17.933,-18.303 -5.5761,-1.9035 -12.7,-1.8885 -18.366,0.0386 -9.2123,3.1333 -16.258,11.433 -18.144,21.373 -0.82205,4.3335 -0.42671,10.186 0.96959,14.354 2.8277,8.4398 9.8587,15.262 18.404,17.856 4.3603,1.324 9.1861,1.6634 13.331,0.93756 z m 92.34,0 c 11.416,-1.9992 20.158,-10.684 22.568,-22.421 0.53417,-2.6007 0.54334,-7.6971 0.0188,-10.462 -1.0747,-5.6652 -3.5055,-10.302 -7.628,-14.55 -3.6679,-3.78 -8.0198,-6.3273 -13.084,-7.6587 -3.6639,-0.96325 -9.2161,-1.139 -12.754,-0.40367 -8.406,1.7468 -15.076,6.7656 -18.984,14.284 -2.551,4.9077 -3.388,8.7865 -3.1644,14.663 0.15229,4.0023 0.59944,6.2044 1.9238,9.4744 2.4752,6.1115 8.1938,12.081 14.169,14.789 5.2288,2.3703 11.566,3.2254 16.935,2.2851 z m -90.916,-84.669 c 5.2363,-0.93854 11.715,-3.7166 15.111,-6.4792 0.45318,-0.36866 1.2271,-0.96796 1.7198,-1.3318 1.325,-0.97836 4.0625,-3.8035 5.3359,-5.5068 3.2803,-4.3876 5.5938,-9.5125 6.8326,-15.136 0.87026,-3.9501 0.87646,-11.287 0.01291,-15.296 -1.4941,-6.9365 -4.6326,-12.978 -9.2525,-17.81 -4.8464,-5.0695 -10.889,-8.4707 -18.305,-10.303 -2.2365,-0.55269 -3.1406,-0.62212 -8.2021,-0.62974 -6.0845,-0.0092 -6.9226,0.09967 -11.509,1.4947 -11.214,3.4107 -19.67,11.673 -23.374,22.838 -1.2354,3.7241 -1.4971,5.0258 -1.8947,9.4265 -0.62073,6.8697 1.0621,14.528 4.5989,20.93 5.3678,9.7151 14.819,16.238 25.962,17.918 1.1642,0.17554 2.2953,0.35921 2.5135,0.40817 1.0057,0.22554 8.3171,-0.13993 10.451,-0.52241 z m 93.055,-8.9609 c 4.9133,-1.2738 8.9331,-3.5694 12.544,-7.1636 3.5139,-3.4973 5.7736,-7.3822 7.4166,-12.75 0.67003,-2.1892 0.72069,-2.6909 0.73167,-7.2468 0.0104,-4.3029 -0.0618,-5.1667 -0.59682,-7.1438 -2.0765,-7.673 -7.498,-14.479 -14.309,-17.963 -4.8833,-2.498 -8.7908,-3.3452 -14.494,-3.1423 -4.5696,0.16256 -7.1302,0.78934 -11.059,2.707 -8.0753,3.9418 -13.761,11.724 -15.22,20.833 -0.47393,2.9582 -0.21833,8.7496 0.51142,11.588 0.72154,2.8063 2.9969,7.5218 4.7238,9.7896 1.6327,2.1441 4.7375,5.1024 6.7582,6.4395 3.3629,2.2251 8.0317,4.042 11.981,4.6624 2.7681,0.43486 8.1268,0.13797 11.012,-0.6101 z"
           inkscape:connector-curvature="0"
           style="fill:#9d4004" />
        <path
           id="path4556"
           d="m -0.34018,269.52 c -8.4716,-0.78141 -16.887,-3.139 -24.474,-6.8559 -21.018,-10.297 -34.67,-30.556 -36.919,-54.786 -0.27272,-2.9375 -0.27272,-137.82 0,-140.76 0.82004,-8.8327 3.0997,-17.04 6.8717,-24.739 10.297,-21.018 30.556,-34.67 54.786,-36.919 2.9375,-0.27273 137.82,-0.27273 140.76,0 14.207,1.319 27.221,6.5663 37.644,15.179 13.809,11.409 22.28,27.805 24.013,46.479 0.27274,2.9375 0.27274,137.82 0,140.76 -1.319,14.207 -6.5663,27.221 -15.179,37.644 -11.409,13.809 -27.805,22.28 -46.479,24.013 -2.7536,0.25564 -138.24,0.24046 -141.02,-0.0158 z m 30.988,-56.738 c 8.0702,-1.4133 14.784,-6.0839 19.12,-13.301 2.3808,-3.9629 3.5888,-8.1347 3.7922,-13.096 0.16682,-4.069 -0.12515,-6.5204 -1.1743,-9.8593 -2.648,-8.4273 -9.5049,-15.426 -17.933,-18.303 -5.5761,-1.9035 -12.7,-1.8885 -18.366,0.0386 -9.2123,3.1333 -16.258,11.433 -18.144,21.373 -0.82205,4.3335 -0.42671,10.186 0.96959,14.354 2.8277,8.4398 9.8587,15.262 18.404,17.856 4.3603,1.324 9.1861,1.6634 13.331,0.93756 z m 92.34,0 c 11.416,-1.9992 20.158,-10.684 22.568,-22.421 0.53417,-2.6007 0.54334,-7.6971 0.0188,-10.462 -1.0747,-5.6652 -3.5055,-10.302 -7.628,-14.55 -3.6679,-3.78 -8.0198,-6.3273 -13.084,-7.6587 -3.6639,-0.96325 -9.2161,-1.139 -12.754,-0.40367 -8.406,1.7468 -15.076,6.7656 -18.984,14.284 -2.551,4.9077 -3.388,8.7865 -3.1644,14.663 0.15229,4.0023 0.59944,6.2044 1.9238,9.4744 2.4752,6.1115 8.1938,12.081 14.169,14.789 5.2288,2.3703 11.566,3.2254 16.935,2.2851 z m -92.371,-82.988 c 7.9875,-1.0934 15.745,-4.8511 21.399,-10.366 5.49,-5.3545 9.3649,-12.911 10.745,-20.954 1.3084,-7.6237 0.15308,-15.882 -3.2019,-22.886 -3.2914,-6.872 -6.9529,-11.245 -12.511,-14.942 -10.448,-6.9495 -22.647,-8.5965 -34.431,-4.6485 -2.6936,0.90244 -7.0163,2.9932 -9.2489,4.4734 -7.8068,5.1758 -13.507,13.888 -15.659,23.931 -0.78318,3.6551 -0.84391,11.046 -0.11994,14.597 1.9,9.3189 6.3572,17.136 12.733,22.331 2.8301,2.306 4.1092,3.113 7.6181,4.8065 5.061,2.4426 8.5604,3.3623 15.401,4.0474 1.3695,0.13715 4.7595,-0.0437 7.276,-0.38819 z m 94.511,-10.642 c 4.9133,-1.2738 8.9331,-3.5694 12.544,-7.1636 3.5139,-3.4973 5.7736,-7.3822 7.4166,-12.75 0.67003,-2.1892 0.72069,-2.6909 0.73167,-7.2468 0.0104,-4.3029 -0.0618,-5.1667 -0.59682,-7.1438 -2.0765,-7.673 -7.498,-14.479 -14.309,-17.963 -4.8833,-2.498 -8.7908,-3.3452 -14.494,-3.1423 -4.5696,0.16256 -7.1302,0.78934 -11.059,2.707 -8.0753,3.9418 -13.761,11.724 -15.22,20.833 -0.47393,2.9582 -0.21833,8.7496 0.51142,11.588 0.72154,2.8063 2.9969,7.5218 4.7238,9.7896 1.6327,2.1441 4.7375,5.1024 6.7582,6.4395 3.3629,2.2251 8.0317,4.042 11.981,4.6624 2.7681,0.43486 8.1268,0.13797 11.012,-0.6101 z"
           inkscape:connector-curvature="0"
           style="fill:#174f66" />
        <path
           id="path4558"
           d="m -0.34018,269.52 c -8.4716,-0.78141 -16.887,-3.139 -24.474,-6.8559 -21.018,-10.297 -34.67,-30.556 -36.919,-54.786 -0.27272,-2.9375 -0.27272,-137.82 0,-140.76 0.82004,-8.8327 3.0997,-17.04 6.8717,-24.739 10.297,-21.018 30.556,-34.67 54.786,-36.919 2.9375,-0.27273 137.82,-0.27273 140.76,0 14.207,1.319 27.221,6.5663 37.644,15.179 13.809,11.409 22.28,27.805 24.013,46.479 0.27274,2.9375 0.27274,137.82 0,140.76 -1.319,14.207 -6.5663,27.221 -15.179,37.644 -11.409,13.809 -27.805,22.28 -46.479,24.013 -2.7536,0.25564 -138.24,0.24046 -141.02,-0.0158 z m 32.676,-56.843 c 6.6112,-1.644 12.791,-5.9518 16.529,-11.522 8.9055,-13.271 5.3398,-31.059 -7.9858,-39.837 -2.7655,-1.8219 -5.3814,-2.9677 -8.9202,-3.9071 -2.2099,-0.58665 -3.0732,-0.67245 -6.7664,-0.67245 -3.736,0 -4.5442,0.0823 -6.8792,0.70056 -14.634,3.8748 -23.539,18.356 -20.489,33.32 2.3731,11.645 11.862,20.528 23.929,22.401 2.4763,0.38429 8.1364,0.12653 10.583,-0.48196 z m 92.34,0 c 6.6112,-1.644 12.791,-5.9518 16.529,-11.522 8.9272,-13.303 5.3634,-31.013 -8.0203,-39.856 -12.02,-7.9417 -28.305,-5.5148 -37.265,5.5534 -4.1836,5.1682 -6.3008,11.283 -6.3008,18.199 0,14.165 10.213,25.895 24.474,28.108 2.4763,0.38429 8.1364,0.12653 10.583,-0.48196 z m -94.059,-82.883 c 7.9875,-1.0934 15.745,-4.8511 21.399,-10.366 5.49,-5.3545 9.3649,-12.911 10.745,-20.954 1.3084,-7.6237 0.15308,-15.882 -3.2019,-22.886 -3.2914,-6.872 -6.9529,-11.245 -12.511,-14.942 -10.448,-6.9495 -22.647,-8.5965 -34.431,-4.6485 -2.6936,0.90244 -7.0163,2.9932 -9.2489,4.4734 -7.8068,5.1758 -13.507,13.888 -15.659,23.931 -0.78318,3.6551 -0.84391,11.046 -0.11994,14.597 1.9,9.3189 6.3572,17.136 12.733,22.331 2.8301,2.306 4.1092,3.113 7.6181,4.8065 5.061,2.4426 8.5604,3.3623 15.401,4.0474 1.3695,0.13715 4.7595,-0.0437 7.276,-0.38819 z m 91.81,-9.879 c 16.323,-2.4907 26.944,-18.88 22.772,-35.137 -2.3549,-9.1756 -9.6691,-16.953 -18.671,-19.852 -1.1642,-0.37502 -2.831,-0.83466 -3.7042,-1.0214 -2.0484,-0.4382 -8.5352,-0.43816 -10.583,6.6e-5 -10.975,2.3482 -18.957,9.9737 -21.872,20.894 -0.69878,2.618 -0.953,8.4949 -0.49195,11.373 2.4839,15.504004 17.027,26.113004 32.55,23.744004 z"
           inkscape:connector-curvature="0"
           style="fill:#8d3904" />
        <path
           id="path4560"
           d="m -0.34018,269.52 c -8.4716,-0.78141 -16.887,-3.139 -24.474,-6.8559 -21.018,-10.297 -34.67,-30.556 -36.919,-54.786 -0.27272,-2.9375 -0.27272,-137.82 0,-140.76 0.82004,-8.8327 3.0997,-17.04 6.8717,-24.739 10.297,-21.018 30.556,-34.67 54.786,-36.919 2.9375,-0.27273 137.82,-0.27273 140.76,0 14.207,1.319 27.221,6.5663 37.644,15.179 13.809,11.409 22.28,27.805 24.013,46.479 0.27274,2.9375 0.27274,137.82 0,140.76 -1.319,14.207 -6.5663,27.221 -15.179,37.644 -11.409,13.809 -27.805,22.28 -46.479,24.013 -2.7536,0.25564 -138.24,0.24046 -141.02,-0.0158 z m 32.676,-56.843 c 6.6112,-1.644 12.791,-5.9518 16.529,-11.522 8.9055,-13.271 5.3398,-31.059 -7.9858,-39.837 -2.7655,-1.8219 -5.3814,-2.9677 -8.9202,-3.9071 -2.2099,-0.58665 -3.0732,-0.67245 -6.7664,-0.67245 -3.736,0 -4.5442,0.0823 -6.8792,0.70056 -14.634,3.8748 -23.539,18.356 -20.489,33.32 2.3731,11.645 11.862,20.528 23.929,22.401 2.4763,0.38429 8.1364,0.12653 10.583,-0.48196 z m 92.34,0 c 6.6112,-1.644 12.791,-5.9518 16.529,-11.522 8.9272,-13.303 5.3634,-31.013 -8.0203,-39.856 -12.02,-7.9417 -28.305,-5.5148 -37.265,5.5534 -4.1836,5.1682 -6.3008,11.283 -6.3008,18.199 0,14.165 10.213,25.895 24.474,28.108 2.4763,0.38429 8.1364,0.12653 10.583,-0.48196 z m -92.075,-81.121 c 7.0969,-1.3029 15.462,-5.5094 20.462,-10.29 5.5553,-5.3113 9.5972,-12.749 11.465,-21.096 0.53992,-2.4133 0.61445,-3.4278 0.60085,-8.1789 -0.01312,-4.5791 -0.10623,-5.8325 -0.59782,-8.0468 -2.5888,-11.661 -9.089,-20.834 -18.732,-26.434 -13.893,-8.0686 -30.214,-7.4688 -43.89,1.613 -8.3202,5.5253 -14.392,15.244 -16.445,26.323 -0.67761,3.6559 -0.61416,10.039 0.13807,13.891 1.6402,8.3989 5.1817,15.23 10.883,20.991 4.0183,4.0605 7.2551,6.2602 12.832,8.7207 2.667,1.1766 6.2933,2.1984 9.7896,2.7583 3.0478,0.4881 10.19,0.35489 13.494,-0.25168 z m 89.826,-11.641 c 16.323,-2.4907 26.944,-18.88 22.772,-35.137 -2.3549,-9.1756 -9.6691,-16.953 -18.671,-19.852 -1.1642,-0.37502 -2.831,-0.83466 -3.7042,-1.0214 -2.0484,-0.4382 -8.5352,-0.43816 -10.583,6.6e-5 -10.975,2.3482 -18.957,9.9737 -21.872,20.894 -0.69878,2.618 -0.953,8.4949 -0.49195,11.373 2.4839,15.504004 17.027,26.113004 32.55,23.744004 z"
           inkscape:connector-curvature="0"
           style="fill:#7a3103" />
        <path
           id="path4562"
           d="m -0.34018,269.52 c -8.4716,-0.78141 -16.887,-3.139 -24.474,-6.8559 -21.018,-10.297 -34.67,-30.556 -36.919,-54.786 -0.27272,-2.9375 -0.27272,-137.82 0,-140.76 0.82004,-8.8327 3.0997,-17.04 6.8717,-24.739 10.297,-21.018 30.556,-34.67 54.786,-36.919 2.9375,-0.27273 137.82,-0.27273 140.76,0 14.207,1.319 27.221,6.5663 37.644,15.179 13.809,11.409 22.28,27.805 24.013,46.479 0.27274,2.9375 0.27274,137.82 0,140.76 -1.319,14.207 -6.5663,27.221 -15.179,37.644 -11.409,13.809 -27.805,22.28 -46.479,24.013 -2.7536,0.25564 -138.24,0.24046 -141.02,-0.0158 z m 32.676,-56.843 c 6.6112,-1.644 12.791,-5.9518 16.529,-11.522 8.9055,-13.271 5.3398,-31.059 -7.9858,-39.837 -2.7655,-1.8219 -5.3814,-2.9677 -8.9202,-3.9071 -2.2099,-0.58665 -3.0732,-0.67245 -6.7664,-0.67245 -3.736,0 -4.5442,0.0823 -6.8792,0.70056 -14.634,3.8748 -23.539,18.356 -20.489,33.32 2.3731,11.645 11.862,20.528 23.929,22.401 2.4763,0.38429 8.1364,0.12653 10.583,-0.48196 z m 92.34,0 c 6.6112,-1.644 12.791,-5.9518 16.529,-11.522 8.9272,-13.303 5.3634,-31.013 -8.0203,-39.856 -12.02,-7.9417 -28.305,-5.5148 -37.265,5.5534 -4.1836,5.1682 -6.3008,11.283 -6.3008,18.199 0,14.165 10.213,25.895 24.474,28.108 2.4763,0.38429 8.1364,0.12653 10.583,-0.48196 z m -91.281,-78.874 c 16.201,-3.2102 28.924,-15.23 32.958,-31.135 1.9243,-7.5869 1.657,-16.634 -0.70367,-23.817 -0.94951,-2.8894 -3.5578,-8.2476 -5.2604,-10.806 -6.1003,-9.1681 -16.198,-15.719 -27.57,-17.886 -3.7595,-0.71632 -10.935,-0.77944 -14.638,-0.12877 -12.236,2.1501 -22.48,8.8954 -28.968,19.075 -4.4181,6.9317 -6.6451,14.808 -6.5828,23.283 0.03191,4.3427 0.48864,7.6824 1.5528,11.355 4.4995,15.527 16.63,26.718 32.543,30.021 3.6872,0.76547 3.9331,0.7842 9.1281,0.69536 3.4298,-0.0587 5.3847,-0.22869 7.5406,-0.65588 z m 89.032,-13.888 c 16.323,-2.4907 26.944,-18.88 22.772,-35.137 -2.3549,-9.1756 -9.6691,-16.953 -18.671,-19.852 -1.1642,-0.37502 -2.831,-0.83466 -3.7042,-1.0214 -2.0484,-0.4382 -8.5352,-0.43816 -10.583,6.6e-5 -10.975,2.3482 -18.957,9.9737 -21.872,20.894 -0.69878,2.618 -0.953,8.4949 -0.49195,11.373 2.4839,15.504004 17.027,26.113004 32.55,23.744004 z"
           inkscape:connector-curvature="0"
           style="fill:#672902" />
        <path
           id="path4564"
           d="m -0.34018,269.52 c -8.4716,-0.78141 -16.887,-3.139 -24.474,-6.8559 -21.018,-10.297 -34.67,-30.556 -36.919,-54.786 -0.27272,-2.9375 -0.27272,-137.82 0,-140.76 0.82004,-8.8327 3.0997,-17.04 6.8717,-24.739 10.297,-21.018 30.556,-34.67 54.786,-36.919 2.9375,-0.27273 137.82,-0.27273 140.76,0 14.207,1.319 27.221,6.5663 37.644,15.179 13.809,11.409 22.28,27.805 24.013,46.479 0.27274,2.9375 0.27274,137.82 0,140.76 -1.319,14.207 -6.5663,27.221 -15.179,37.644 -11.409,13.809 -27.805,22.28 -46.479,24.013 -2.7536,0.25564 -138.24,0.24046 -141.02,-0.0158 z m 32.676,-56.843 c 6.6112,-1.644 12.791,-5.9518 16.529,-11.522 8.9055,-13.271 5.3398,-31.059 -7.9858,-39.837 -2.7655,-1.8219 -5.3814,-2.9677 -8.9202,-3.9071 -2.2099,-0.58665 -3.0732,-0.67245 -6.7664,-0.67245 -3.736,0 -4.5442,0.0823 -6.8792,0.70056 -14.634,3.8748 -23.539,18.356 -20.489,33.32 2.3731,11.645 11.862,20.528 23.929,22.401 2.4763,0.38429 8.1364,0.12653 10.583,-0.48196 z m 92.34,0 c 6.6112,-1.644 12.791,-5.9518 16.529,-11.522 8.9272,-13.303 5.3634,-31.013 -8.0203,-39.856 -12.02,-7.9417 -28.305,-5.5148 -37.265,5.5534 -4.1836,5.1682 -6.3008,11.283 -6.3008,18.199 0,14.165 10.213,25.895 24.474,28.108 2.4763,0.38429 8.1364,0.12653 10.583,-0.48196 z m -90.487,-76.468 c 4.8183,-1.0898 7.2108,-1.9427 11.377,-4.0555 10.853,-5.504 19.044,-15.224 22.669,-26.9 0.75264,-2.4243 1.4537,-6.2821 1.8268,-10.052 0.71375,-7.2129 -1.0049,-15.96 -4.5404,-23.108 -4.976,-10.06 -14.231,-18.438 -24.586,-22.253 -11.608,-4.2771 -24.09,-3.6903 -35.368,1.6626 -13.091,6.2137 -22.151,18.258 -24.883,33.079 -0.65244,3.5393 -0.64189,11.888 0.01924,15.214 1.4296,7.1904 3.7567,12.763 7.6253,18.261 2.2873,3.2504 7.65,8.5771 10.923,10.849 5.2341,3.6341 11.851,6.4298 17.474,7.3832 1.3097,0.22205 2.6789,0.45728 3.0427,0.52274 0.3638,0.0655 3.2213,0.0776 6.35,0.0269 4.5156,-0.0731 6.1795,-0.20317 8.0698,-0.6307 z m 88.239,-16.294 c 16.323,-2.4907 26.944,-18.88 22.772,-35.137 -2.3549,-9.1756 -9.6691,-16.953 -18.671,-19.852 -1.1642,-0.37502 -2.831,-0.83466 -3.7042,-1.0214 -2.0484,-0.4382 -8.5352,-0.43816 -10.583,6.6e-5 -10.975,2.3482 -18.957,9.9737 -21.872,20.894 -0.69878,2.618 -0.953,8.4949 -0.49195,11.373 2.4839,15.504004 17.027,26.113004 32.55,23.744004 z"
           inkscape:connector-curvature="0"
           style="fill:#0d3749" />
        <path
           id="path4566"
           d="m 0.2008,269.59 c -1.0849,-0.0528 -2.0969,-0.19378 -2.249,-0.31336 -0.15202,-0.11958 -1.0503,-0.29856 -1.9962,-0.39773 -6.0684,-0.63623 -14.131,-3.0789 -20.505,-6.2121 -13.565,-6.668 -23.653,-16.756 -30.321,-30.321 -3.1333,-6.374 -5.5759,-14.437 -6.2121,-20.505 -0.09917,-0.94589 -0.31362,-1.8869 -0.47656,-2.0912 -0.424,-0.53153 -0.424,-143.98 0,-144.51 0.16294,-0.20427 0.37739,-1.1453 0.47656,-2.0912 0.63624,-6.0684 3.0789,-14.131 6.2121,-20.505 5.4108,-11.007 13,-19.626 23.178,-26.325 7.8147,-5.1431 19.109,-9.3132 27.649,-10.209 0.94589,-0.09917 1.8869,-0.31362 2.0912,-0.47656 0.53154,-0.42399 143.98,-0.42399 144.51,0 0.20427,0.16294 1.1453,0.37739 2.0912,0.47656 6.0684,0.63624 14.131,3.0789 20.505,6.2121 13.565,6.6681 23.653,16.756 30.321,30.321 3.1332,6.374 5.5759,14.437 6.2121,20.505 0.0992,0.94589 0.31362,1.8869 0.47656,2.0912 0.424,0.53154 0.424,143.98 0,144.51 -0.16294,0.20427 -0.37739,1.1453 -0.47656,2.0912 -0.63624,6.0684 -3.0789,14.131 -6.2121,20.505 -6.668,13.565 -16.756,23.653 -30.321,30.321 -6.374,3.1332 -14.437,5.5759 -20.505,6.2121 -0.94589,0.0992 -1.8869,0.31363 -2.0912,0.47656 -0.2718,0.21684 -19.139,0.30084 -70.379,0.31337 -38.504,0.009 -70.895,-0.0261 -71.98,-0.0788 z m 30.693,-56.313 c 5.7774,-1.096 11.259,-4.136 15.357,-8.5163 8.7348,-9.3375 10.154,-23.445 3.4779,-34.562 -1.5785,-2.6283 -5.5155,-6.8031 -8.1018,-8.591 -11.266,-7.7882 -26.261,-6.709 -35.978,2.5895 -5.4702,5.2345 -8.4208,11.756 -8.813,19.481 -0.4285,8.4376 2.6015,16.098 8.6878,21.964 4.1011,3.9528 9.8151,6.8464 15.303,7.7494 2.4206,0.39832 7.6811,0.33887 10.067,-0.11377 z m 92.34,0 c 11.489,-2.1794 20.579,-11.464 22.617,-23.101 0.85054,-4.8566 0.27634,-10.824 -1.4797,-15.377 -1.8755,-4.8634 -6.0992,-10.214 -10.42,-13.201 -8.4537,-5.844 -19.322,-6.8236 -28.358,-2.556 -4.8298,2.281 -8.775,5.6544 -11.612,9.9294 -3.0463,4.5901 -4.5416,9.2112 -4.7966,14.824 -0.38457,8.465 2.6066,15.995 8.679,21.847 3.9166,3.7749 9.1254,6.5179 14.245,7.5014 0.80036,0.15376 1.6933,0.32645 1.9844,0.38376 1.4404,0.28365 7.1526,0.12774 9.1412,-0.2495 z m -89.045,-77.076 c 4.8183,-1.0898 7.2108,-1.9427 11.377,-4.0555 10.853,-5.504 19.044,-15.224 22.669,-26.9 0.75264,-2.4243 1.4537,-6.2821 1.8268,-10.052 0.71375,-7.2129 -1.0049,-15.96 -4.5404,-23.108 -4.976,-10.06 -14.231,-18.438 -24.586,-22.253 -11.608,-4.2771 -24.09,-3.6903 -35.368,1.6626 -13.091,6.2137 -22.151,18.258 -24.883,33.079 -0.65244,3.5393 -0.64189,11.888 0.01924,15.214 1.4296,7.1904 3.7567,12.763 7.6253,18.261 2.2873,3.2504 7.65,8.5771 10.923,10.849 5.2341,3.6341 11.851,6.4298 17.474,7.3832 1.3097,0.22205 2.6789,0.45728 3.0427,0.52274 0.3638,0.0655 3.2213,0.0776 6.35,0.0269 4.5156,-0.0731 6.1795,-0.20317 8.0698,-0.6307 z m 90.67,-16.419 c 9.6472,-2.6112 17.161,-9.7781 20.136,-19.206 2.0714,-6.5655 1.5455,-14.409 -1.3855,-20.663 -5.1811,-11.056 -17.135,-17.863 -29.022,-16.525 -7.1676,0.80653 -12.984,3.7447 -17.956,9.0708 -4.5778,4.9033 -7.1184,11.066 -7.4589,18.092 -0.38407,7.926 2.3099,15.235 7.7353,20.986 4.0808,4.3259 9.2152,7.1724 15.334,8.5014 3.2172,0.69876 9.5671,0.57008 12.618,-0.25569 z"
           inkscape:connector-curvature="0"
           style="fill:#572301" />
        <path
           id="path4568"
           d="m 0.2008,269.59 c -1.0849,-0.0528 -2.0969,-0.19378 -2.249,-0.31336 -0.15202,-0.11958 -1.0503,-0.29856 -1.9962,-0.39773 -6.0684,-0.63623 -14.131,-3.0789 -20.505,-6.2121 -13.565,-6.668 -23.653,-16.756 -30.321,-30.321 -3.1333,-6.374 -5.5759,-14.437 -6.2121,-20.505 -0.09917,-0.94589 -0.31362,-1.8869 -0.47656,-2.0912 -0.424,-0.53153 -0.424,-143.98 0,-144.51 0.16294,-0.20427 0.37739,-1.1453 0.47656,-2.0912 0.63624,-6.0684 3.0789,-14.131 6.2121,-20.505 5.4108,-11.007 13,-19.626 23.178,-26.325 7.8147,-5.1431 19.109,-9.3132 27.649,-10.209 0.94589,-0.09917 1.8869,-0.31362 2.0912,-0.47656 0.53154,-0.42399 143.98,-0.42399 144.51,0 0.20427,0.16294 1.1453,0.37739 2.0912,0.47656 6.0684,0.63624 14.131,3.0789 20.505,6.2121 13.565,6.6681 23.653,16.756 30.321,30.321 3.1332,6.374 5.5759,14.437 6.2121,20.505 0.0992,0.94589 0.31362,1.8869 0.47656,2.0912 0.424,0.53154 0.424,143.98 0,144.51 -0.16294,0.20427 -0.37739,1.1453 -0.47656,2.0912 -0.63624,6.0684 -3.0789,14.131 -6.2121,20.505 -6.668,13.565 -16.756,23.653 -30.321,30.321 -6.374,3.1332 -14.437,5.5759 -20.505,6.2121 -0.94589,0.0992 -1.8869,0.31363 -2.0912,0.47656 -0.2718,0.21684 -19.139,0.30084 -70.379,0.31337 -38.504,0.009 -70.895,-0.0261 -71.98,-0.0788 z m 30.693,-56.313 c 5.7774,-1.096 11.259,-4.136 15.357,-8.5163 8.7348,-9.3375 10.154,-23.445 3.4779,-34.562 -1.5785,-2.6283 -5.5155,-6.8031 -8.1018,-8.591 -11.266,-7.7882 -26.261,-6.709 -35.978,2.5895 -5.4702,5.2345 -8.4208,11.756 -8.813,19.481 -0.4285,8.4376 2.6015,16.098 8.6878,21.964 4.1011,3.9528 9.8151,6.8464 15.303,7.7494 2.4206,0.39832 7.6811,0.33887 10.067,-0.11377 z m 92.34,0 c 11.489,-2.1794 20.579,-11.464 22.617,-23.101 0.85054,-4.8566 0.27634,-10.824 -1.4797,-15.377 -1.8755,-4.8634 -6.0992,-10.214 -10.42,-13.201 -8.4537,-5.844 -19.322,-6.8236 -28.358,-2.556 -4.8298,2.281 -8.775,5.6544 -11.612,9.9294 -3.0463,4.5901 -4.5416,9.2112 -4.7966,14.824 -0.38457,8.465 2.6066,15.995 8.679,21.847 3.9166,3.7749 9.1254,6.5179 14.245,7.5014 0.80036,0.15376 1.6933,0.32645 1.9844,0.38376 1.4404,0.28365 7.1526,0.12774 9.1412,-0.2495 z m -94.602,-73.933 c 8.662,-0.78547 15.479,-3.0401 21.96,-7.2635 11.516,-7.5038 19.351,-19.386 21.466,-32.556 0.56444,-3.5141 0.62323,-10.821 0.11389,-14.155 -1.4429,-9.4449 -5.3103,-17.729 -11.533,-24.704 -9.7638,-10.944 -22.552,-16.464 -36.983,-15.963 -11.386,0.39509 -20.569,3.8972 -29.085,11.092 -8.5911,7.2587 -14.201,16.948 -16.251,28.069 -0.5732,3.1095 -0.65425,12.288 -0.13597,15.397 1.1375,6.8248 3.6608,13.404 7.1539,18.653 4.6466,6.9825 11.404,12.979 18.81,16.692 6.3304,3.1738 11.882,4.5064 20.647,4.9557 0.50932,0.0261 2.2357,-0.0713 3.8365,-0.21645 z m 96.226,-19.562 c 9.6472,-2.6112 17.161,-9.7781 20.136,-19.206 2.0714,-6.5655 1.5455,-14.409 -1.3855,-20.663 -5.1811,-11.056 -17.135,-17.863 -29.022,-16.525 -7.1676,0.80653 -12.984,3.7447 -17.956,9.0708 -4.5778,4.9033 -7.1184,11.066 -7.4589,18.092 -0.38407,7.926 2.3099,15.235 7.7353,20.986 4.0808,4.3259 9.2152,7.1724 15.334,8.5014 3.2172,0.69876 9.5671,0.57008 12.618,-0.25569 z"
           inkscape:connector-curvature="0"
           style="fill:#461c01" />
        <path
           id="path4570"
           d="m 0.2008,269.59 c -1.0849,-0.0528 -2.0969,-0.19378 -2.249,-0.31336 -0.15202,-0.11958 -1.0503,-0.29856 -1.9962,-0.39773 -6.0684,-0.63623 -14.131,-3.0789 -20.505,-6.2121 -13.565,-6.668 -23.653,-16.756 -30.321,-30.321 -3.1333,-6.374 -5.5759,-14.437 -6.2121,-20.505 -0.09917,-0.94589 -0.31362,-1.8869 -0.47656,-2.0912 -0.424,-0.53153 -0.424,-143.98 0,-144.51 0.16294,-0.20427 0.37739,-1.1453 0.47656,-2.0912 0.63624,-6.0684 3.0789,-14.131 6.2121,-20.505 5.4108,-11.007 13,-19.626 23.178,-26.325 7.8147,-5.1431 19.109,-9.3132 27.649,-10.209 0.94589,-0.09917 1.8869,-0.31362 2.0912,-0.47656 0.53154,-0.42399 143.98,-0.42399 144.51,0 0.20427,0.16294 1.1453,0.37739 2.0912,0.47656 6.0684,0.63624 14.131,3.0789 20.505,6.2121 13.565,6.6681 23.653,16.756 30.321,30.321 3.1332,6.374 5.5759,14.437 6.2121,20.505 0.0992,0.94589 0.31362,1.8869 0.47656,2.0912 0.424,0.53154 0.424,143.98 0,144.51 -0.16294,0.20427 -0.37739,1.1453 -0.47656,2.0912 -0.63624,6.0684 -3.0789,14.131 -6.2121,20.505 -6.668,13.565 -16.756,23.653 -30.321,30.321 -6.374,3.1332 -14.437,5.5759 -20.505,6.2121 -0.94589,0.0992 -1.8869,0.31363 -2.0912,0.47656 -0.2718,0.21684 -19.139,0.30084 -70.379,0.31337 -38.504,0.009 -70.895,-0.0261 -71.98,-0.0788 z m 30.693,-56.313 c 5.7774,-1.096 11.259,-4.136 15.357,-8.5163 8.7348,-9.3375 10.154,-23.445 3.4779,-34.562 -1.5785,-2.6283 -5.5155,-6.8031 -8.1018,-8.591 -11.266,-7.7882 -26.261,-6.709 -35.978,2.5895 -5.4702,5.2345 -8.4208,11.756 -8.813,19.481 -0.4285,8.4376 2.6015,16.098 8.6878,21.964 4.1011,3.9528 9.8151,6.8464 15.303,7.7494 2.4206,0.39832 7.6811,0.33887 10.067,-0.11377 z m 92.34,0 c 11.489,-2.1794 20.579,-11.464 22.617,-23.101 0.85054,-4.8566 0.27634,-10.824 -1.4797,-15.377 -1.8755,-4.8634 -6.0992,-10.214 -10.42,-13.201 -8.4537,-5.844 -19.322,-6.8236 -28.358,-2.556 -4.8298,2.281 -8.775,5.6544 -11.612,9.9294 -3.0463,4.5901 -4.5416,9.2112 -4.7966,14.824 -0.38457,8.465 2.6066,15.995 8.679,21.847 3.9166,3.7749 9.1254,6.5179 14.245,7.5014 0.80036,0.15376 1.6933,0.32645 1.9844,0.38376 1.4404,0.28365 7.1526,0.12774 9.1412,-0.2495 z m -94.469,-71.283 c 11.422,-0.74445 20.87,-4.7444 29.77,-12.604 1.9392,-1.7126 6.0568,-6.2917 7.7026,-8.566 5.1012,-7.0491 7.8739,-14.677 8.7607,-24.1 0.38147,-4.0535 0.39405,-5.1789 0.09765,-8.7312 -1.0584,-12.684 -5.9238,-22.924 -15.15,-31.888 -4.4792,-4.3515 -8.0357,-6.8507 -13.506,-9.491 -6.2748,-3.0285 -11.988,-4.344 -19.791,-4.5571 -7.53,-0.20566 -12.794,0.61376 -19.108,2.9747 -7.014,2.6225 -12.245,6.0438 -17.836,11.665 -9.8681,9.9228 -14.65,21.438 -14.65,35.278 0,10.795 2.6049,19.375 8.5491,28.157 2.3763,3.5108 7.9553,9.4222 11.162,11.828 8.9239,6.6932 17.772,9.7822 29.369,10.253 0.43656,0.0177 2.5202,-0.0803 4.6302,-0.21783 z m 96.094,-22.211 c 9.6472,-2.6112 17.161,-9.7781 20.136,-19.206 2.0714,-6.5655 1.5455,-14.409 -1.3855,-20.663 -5.1811,-11.056 -17.135,-17.863 -29.022,-16.525 -7.1676,0.80653 -12.984,3.7447 -17.956,9.0708 -4.5778,4.9033 -7.1184,11.066 -7.4589,18.092 -0.38407,7.926 2.3099,15.235 7.7353,20.986 4.0808,4.3259 9.2152,7.1724 15.334,8.5014 3.2172,0.69876 9.5671,0.57008 12.618,-0.25569 z"
           inkscape:connector-curvature="0"
           style="fill:#371500" />
        <path
           id="path4572"
           d="m 0.2008,269.59 c -1.0849,-0.0528 -2.0969,-0.19378 -2.249,-0.31336 -0.15202,-0.11958 -1.0503,-0.29856 -1.9962,-0.39773 -6.0684,-0.63623 -14.131,-3.0789 -20.505,-6.2121 -13.565,-6.668 -23.653,-16.756 -30.321,-30.321 -3.1333,-6.374 -5.5759,-14.437 -6.2121,-20.505 -0.09917,-0.94589 -0.31362,-1.8869 -0.47656,-2.0912 -0.424,-0.53153 -0.424,-143.98 0,-144.51 0.16294,-0.20427 0.37739,-1.1453 0.47656,-2.0912 0.63624,-6.0684 3.0789,-14.131 6.2121,-20.505 5.4108,-11.007 13,-19.626 23.178,-26.325 7.8147,-5.1431 19.109,-9.3132 27.649,-10.209 0.94589,-0.09917 1.8869,-0.31362 2.0912,-0.47656 0.53154,-0.42399 143.98,-0.42399 144.51,0 0.20427,0.16294 1.1453,0.37739 2.0912,0.47656 6.0684,0.63624 14.131,3.0789 20.505,6.2121 13.565,6.6681 23.653,16.756 30.321,30.321 3.1332,6.374 5.5759,14.437 6.2121,20.505 0.0992,0.94589 0.31362,1.8869 0.47656,2.0912 0.424,0.53154 0.424,143.98 0,144.51 -0.16294,0.20427 -0.37739,1.1453 -0.47656,2.0912 -0.63624,6.0684 -3.0789,14.131 -6.2121,20.505 -6.668,13.565 -16.756,23.653 -30.321,30.321 -6.374,3.1332 -14.437,5.5759 -20.505,6.2121 -0.94589,0.0992 -1.8869,0.31363 -2.0912,0.47656 -0.2718,0.21684 -19.139,0.30084 -70.379,0.31337 -38.504,0.009 -70.895,-0.0261 -71.98,-0.0788 z m 30.693,-56.313 c 5.7774,-1.096 11.259,-4.136 15.357,-8.5163 8.7348,-9.3375 10.154,-23.445 3.4779,-34.562 -1.5785,-2.6283 -5.5155,-6.8031 -8.1018,-8.591 -11.266,-7.7882 -26.261,-6.709 -35.978,2.5895 -5.4702,5.2345 -8.4208,11.756 -8.813,19.481 -0.4285,8.4376 2.6015,16.098 8.6878,21.964 4.1011,3.9528 9.8151,6.8464 15.303,7.7494 2.4206,0.39832 7.6811,0.33887 10.067,-0.11377 z m 92.34,0 c 11.489,-2.1794 20.579,-11.464 22.617,-23.101 0.85054,-4.8566 0.27634,-10.824 -1.4797,-15.377 -1.8755,-4.8634 -6.0992,-10.214 -10.42,-13.201 -8.4537,-5.844 -19.322,-6.8236 -28.358,-2.556 -4.8298,2.281 -8.775,5.6544 -11.612,9.9294 -3.0463,4.5901 -4.5416,9.2112 -4.7966,14.824 -0.38457,8.465 2.6066,15.995 8.679,21.847 3.9166,3.7749 9.1254,6.5179 14.245,7.5014 0.80036,0.15376 1.6933,0.32645 1.9844,0.38376 1.4404,0.28365 7.1526,0.12774 9.1412,-0.2495 z m -92.22,-68.925 c 10.833,-1.0661 20.043,-5.0706 28.532,-12.406 8.4475,-7.2994 14.092,-16.385 16.692,-26.866 1.1993,-4.8353 1.5454,-8.416 1.3936,-14.42 -0.07668,-3.0326 -0.31428,-6.4155 -0.53893,-7.6729 -1.7798,-9.9623 -5.2276,-17.326 -11.583,-24.739 -5.2555,-6.1299 -10.444,-10.24 -17.189,-13.616 -14.631,-7.3238 -33.725,-6.9428 -48.371,0.96527 -7.1653,3.8688 -14.129,10.365 -19.286,17.991 -1.7628,2.6068 -4.4571,8.1684 -5.4886,11.329 -4.3129,13.217 -3.3581,28.56 2.5114,40.36 5.4633,10.983 14.699,19.812 26.34,25.179 2.0507,0.94552 4.5769,1.8515 6.4823,2.3249 3.5778,0.88878 5.748,1.305 7.6848,1.474 1.2265,0.10698 2.4948,0.26598 2.8185,0.35333 0.84149,0.22708 6.5824,0.0796 10.002,-0.25689 z m 93.845,-24.57 c 9.6472,-2.6112 17.161,-9.7781 20.136,-19.206 2.0714,-6.5655 1.5455,-14.409 -1.3855,-20.663 -5.1811,-11.056 -17.135,-17.863 -29.022,-16.525 -7.1676,0.80653 -12.984,3.7447 -17.956,9.0708 -4.5778,4.9033 -7.1184,11.066 -7.4589,18.092 -0.38407,7.926 2.3099,15.235 7.7353,20.986 4.0808,4.3259 9.2152,7.1724 15.334,8.5014 3.2172,0.69876 9.5671,0.57008 12.618,-0.25569 z"
           inkscape:connector-curvature="0"
           style="fill:#2b1100" />
        <path
           id="path4574"
           d="m 0.24621,269.59 c -1.2054,-0.0491 -2.1315,-0.18668 -2.058,-0.30572 0.07357,-0.11904 -0.69298,-0.29327 -1.7034,-0.38718 -8.9663,-0.83334 -20.185,-4.947 -28.429,-10.424 -7.6257,-5.0666 -14.784,-12.391 -19.587,-20.041 -5.0109,-7.9814 -8.7824,-18.671 -9.5674,-27.118 -0.09391,-1.0105 -0.25495,-1.7852 -0.35787,-1.7216 -0.45504,0.28123 -0.53203,-10.152 -0.53203,-72.097 0,-61.945 0.07699,-72.378 0.53203,-72.097 0.10291,0.0636 0.26395,-0.7111 0.35787,-1.7216 0.78502,-8.4465 4.5565,-19.137 9.5674,-27.118 4.8027,-7.6498 11.961,-14.974 19.587,-20.041 8.2433,-5.477 19.462,-9.5907 28.429,-10.424 1.0105,-0.093912 1.7852,-0.25495 1.7216,-0.35787 -0.28123,-0.45504 10.152,-0.53203 72.097,-0.53203 61.945,0 72.378,0.07699 72.097,0.53203 -0.0636,0.10291 0.71109,0.26395 1.7216,0.35787 8.9663,0.83333 20.185,4.947 28.429,10.424 7.6257,5.0666 14.784,12.391 19.587,20.041 5.0109,7.9814 8.7824,18.671 9.5674,27.118 0.0939,1.0105 0.25496,1.7852 0.35787,1.7216 0.45504,-0.28123 0.53203,10.152 0.53203,72.097 0,61.945 -0.077,72.378 -0.53203,72.097 -0.10291,-0.0636 -0.26396,0.7111 -0.35787,1.7216 -0.83333,8.9663 -4.947,20.185 -10.424,28.429 -5.0666,7.6257 -12.391,14.784 -20.041,19.587 -7.9814,5.0109 -18.671,8.7824 -27.118,9.5674 -1.0105,0.0939 -1.7852,0.25495 -1.7216,0.35786 0.0636,0.10292 -1.3277,0.26472 -3.0917,0.35957 -3.1748,0.17071 -134.84,0.14748 -139.06,-0.0245 z m 30.648,-56.31 c 5.7774,-1.096 11.259,-4.136 15.357,-8.5163 8.7348,-9.3375 10.154,-23.445 3.4779,-34.562 -1.5785,-2.6283 -5.5155,-6.8031 -8.1018,-8.591 -11.266,-7.7882 -26.261,-6.709 -35.978,2.5895 -5.4702,5.2345 -8.4208,11.756 -8.813,19.481 -0.4285,8.4376 2.6015,16.098 8.6878,21.964 4.1011,3.9528 9.8151,6.8464 15.303,7.7494 2.4206,0.39832 7.6811,0.33887 10.067,-0.11377 z m 92.34,0 c 11.489,-2.1794 20.579,-11.464 22.617,-23.101 0.85054,-4.8566 0.27634,-10.824 -1.4797,-15.377 -1.8755,-4.8634 -6.0992,-10.214 -10.42,-13.201 -8.4537,-5.844 -19.322,-6.8236 -28.358,-2.556 -4.8298,2.281 -8.775,5.6544 -11.612,9.9294 -3.0463,4.5901 -4.5416,9.2112 -4.7966,14.824 -0.38457,8.465 2.6066,15.995 8.679,21.847 3.9166,3.7749 9.1254,6.5179 14.245,7.5014 0.80036,0.15376 1.6933,0.32645 1.9844,0.38376 1.4404,0.28365 7.1526,0.12774 9.1412,-0.2495 z m -87.326,-67.295 c 1.6735,-0.30495 3.3404,-0.66957 3.7042,-0.81028 0.3638,-0.14071 1.4949,-0.48526 2.5135,-0.76566 2.5317,-0.69689 9.2986,-3.7056 11.377,-5.0584 0.43656,-0.28415 1.1356,-0.70939 1.5535,-0.94496 0.74483,-0.41993 3.3121,-2.3786 5.882,-4.4876 1.7215,-1.4128 6.5718,-6.4832 8.0521,-8.4175 2.8364,-3.7064 6.0626,-9.5192 7.4402,-13.406 0.2837,-0.80037 0.61345,-1.6377 0.73278,-1.8608 0.11933,-0.22306 0.30249,-0.81837 0.40702,-1.3229 0.10453,-0.50455 0.34665,-1.3947 0.53804,-1.9781 1.1114,-3.3878 2.1687,-13.123 1.8667,-17.187 -0.36631,-4.9281 -0.44701,-5.6341 -0.96887,-8.4755 -1.3624,-7.4181 -4.0441,-13.985 -8.28,-20.275 -0.80968,-1.2023 -3.3847,-4.4993 -4.0405,-5.1733 -0.41115,-0.42259 -1.0456,-1.1205 -1.4098,-1.5509 -1.6712,-1.9746 -10.064,-8.8606 -11.351,-9.3135 -0.232,-0.08162 -0.60041,-0.29198 -0.81869,-0.46749 -1.4387,-1.1567 -10.041,-4.8216 -12.435,-5.2981 -0.50932,-0.10135 -1.0451,-0.27631 -1.1906,-0.38879 -0.37371,-0.28887 -6.0442,-1.0758 -9.6573,-1.3403 -6.0344,-0.44164 -9.4946,-0.25288 -16.536,0.90206 -1.1642,0.19094 -2.2953,0.42423 -2.5135,0.51843 -0.21828,0.0942 -0.87313,0.28952 -1.4552,0.43404 -2.196,0.54523 -5.5352,1.8543 -8.6662,3.3974 -2.7672,1.3638 -4.3981,2.355 -8.664,5.2656 -1.2648,0.86294 -4.3772,3.6166 -6.2747,5.5513 -3.2943,3.359 -6.9968,8.3458 -9.1025,12.26 -1.9167,3.5628 -4.2331,9.6775 -4.6107,12.171 -0.09916,0.65484 -0.26967,1.3097 -0.3789,1.4552 -0.10923,0.14552 -0.27367,0.91943 -0.36541,1.7198 -0.09174,0.80036 -0.2277,1.7529 -0.30212,2.1167 -0.93162,4.5539 -0.76465,13.676 0.36322,19.844 1.4859,8.1254 5.5873,17.128 10.478,23 4.0016,4.8041 6.3596,7.0612 10.939,10.47 3.0416,2.2645 7.4503,4.7698 11.136,6.3283 2.5814,1.0915 7.4562,2.5078 10.078,2.9282 1.528,0.24496 3.3139,0.5483 3.9688,0.67408 0.65484,0.12579 4.2862,0.18609 8.0698,0.134 5.5343,-0.0762 7.474,-0.20311 9.9219,-0.64916 z m 88.95,-26.2 c 9.6472,-2.6112 17.161,-9.7781 20.136,-19.206 2.0714,-6.5655 1.5455,-14.409 -1.3855,-20.663 -5.1811,-11.056 -17.135,-17.863 -29.022,-16.525 -7.1676,0.80653 -12.984,3.7447 -17.956,9.0708 -4.5778,4.9033 -7.1184,11.066 -7.4589,18.092 -0.38407,7.926 2.3099,15.235 7.7353,20.986 4.0808,4.3259 9.2152,7.1724 15.334,8.5014 3.2172,0.69876 9.5671,0.57008 12.618,-0.25569 z"
           inkscape:connector-curvature="0"
           style="fill:#230d00" />
        <path
           id="path4576"
           d="m 0.45691,269.59 c -1.5336,-0.0616 -2.1208,-0.16904 -1.8521,-0.33897 0.28288,-0.17885 0.084735,-0.24996 -0.70465,-0.25287 -1.6333,-0.006 -6.967,-0.96535 -10.3,-1.8525 -23.087,-6.1457 -40.801,-23.859 -46.946,-46.946 -0.88718,-3.3328 -1.8465,-8.6665 -1.8525,-10.3 -0.0025,-0.68307 -0.08687,-0.96762 -0.22313,-0.75277 -0.49034,0.77311 -0.56656,-8.8672 -0.56656,-71.651 0,-62.783 0.07623,-72.424 0.56656,-71.651 0.13627,0.21485 0.22061,-0.0697 0.22313,-0.75277 0.006,-1.6333 0.96534,-6.967 1.8525,-10.3 6.1457,-23.087 23.859,-40.801 46.946,-46.946 3.3328,-0.88718 8.6665,-1.8465 10.3,-1.8525 0.68307,-0.00252 0.96762,-0.086865 0.75277,-0.22313 -0.7731,-0.49034 8.8672,-0.56657 71.651,-0.56657 62.783,0 72.424,0.076229 71.651,0.56657 -0.21485,0.13627 0.0697,0.22061 0.75277,0.22313 1.6333,0.00603 6.967,0.96535 10.3,1.8525 23.087,6.1457 40.801,23.859 46.946,46.946 0.88717,3.3328 1.8465,8.6665 1.8525,10.3 0.003,0.68307 0.0869,0.96762 0.22313,0.75277 0.49034,-0.7731 0.56657,8.8672 0.56657,71.651 0,62.783 -0.0762,72.424 -0.56657,71.651 -0.13627,-0.21485 -0.22061,0.0697 -0.22313,0.75277 -0.006,1.6333 -0.96535,6.967 -1.8525,10.3 -6.1457,23.087 -23.859,40.801 -46.946,46.946 -3.3328,0.88717 -8.6665,1.8465 -10.3,1.8525 -0.68307,0.003 -0.96762,0.0869 -0.75277,0.22313 0.20043,0.12712 -1.0109,0.29202 -2.8858,0.39283 -3.201,0.17211 -134.29,0.1493 -138.61,-0.0241 z m 30.437,-56.309 c 13.323,-2.5273 23.006,-14.322 23.006,-28.022 0,-8.0686 -2.9466,-15.112 -8.6552,-20.689 -10.993,-10.74 -28.587,-10.903 -39.595,-0.36906 -5.4702,5.2345 -8.4208,11.756 -8.813,19.481 -0.4285,8.4376 2.6015,16.098 8.6878,21.964 4.1011,3.9528 9.8151,6.8464 15.303,7.7494 2.4206,0.39832 7.6811,0.33887 10.067,-0.11377 z m 92.34,0 c 11.427,-2.1676 20.392,-11.263 22.606,-22.934 0.4948,-2.6084 0.5027,-7.5889 0.0163,-10.317 -1.164,-6.5285 -4.9571,-12.934 -10.132,-17.11 -2.7526,-2.2212 -7.1464,-4.5081 -10.45,-5.4393 -8.0474,-2.268 -16.87,-0.84385 -23.761,3.8358 -2.6576,1.8048 -5.7005,4.8985 -7.5316,7.6575 -3.0463,4.5901 -4.5416,9.2112 -4.7966,14.824 -0.38457,8.465 2.6066,15.995 8.679,21.847 3.9166,3.7749 9.1254,6.5179 14.245,7.5014 0.80036,0.15376 1.6933,0.32645 1.9844,0.38376 1.4404,0.28365 7.1526,0.12774 9.1412,-0.2495 z m -92.485,-63.991 c 0.58208,-0.0644 1.8322,-0.19097 2.7781,-0.28129 11.772,-1.1241 23.737,-6.8736 32.435,-15.585 9.299,-9.3139 13.875,-18.51 16.142,-32.44 0.46835,-2.8777 0.66338,-11.365 0.34049,-14.817 -0.85612,-9.1525 -3.4123,-17.241 -7.734,-24.474 -4.3851,-7.3386 -10.742,-13.879 -17.938,-18.454 -3.1633,-2.0115 -9.1738,-4.8623 -12.365,-5.865 -5.7832,-1.8169 -11.406,-2.6464 -19.347,-2.8544 -0.3638,-0.0095 -2.6855,0.12589 -5.1594,0.30093 -5.2553,0.37184 -9.9495,1.2362 -14.018,2.5812 -2.9025,0.95953 -7.9046,3.0588 -8.5468,3.5868 -0.18688,0.15367 -0.90126,0.59144 -1.5875,0.97281 -4.3286,2.4056 -7.8946,5.1665 -11.983,9.2778 -4.0239,4.0461 -6.1705,6.891 -9.186,12.174 -2.053,3.5967 -3.8895,8.1803 -5.0828,12.686 -0.46462,1.7542 -0.96892,4.6518 -1.5451,8.878 -0.30798,2.2591 -0.17443,14.006 0.17898,15.743 0.1629,0.80036 0.48635,2.5713 0.71878,3.9355 1.119,6.5674 4.131,13.987 8.135,20.04 2.8407,4.2942 8.122,10.018 11.915,12.913 4.2978,3.2806 10.815,6.9529 14.862,8.3747 4.3763,1.5374 9.2941,2.6769 13.626,3.1571 1.528,0.16939 2.9567,0.34935 3.175,0.39992 0.48939,0.11338 8.7309,-0.0884 10.186,-0.24943 z m 94.11,-29.504 c 10.921,-2.956 19.075,-11.788 20.993,-22.74 2.317,-13.23 -4.7515,-26.255 -17.1,-31.51 -9.2511,-3.9367 -20.077,-2.7114 -27.996,3.1687 -10.952,8.132 -14.631,22.484 -9.0437,35.288 0.90437,2.0725 3.2635,5.4997 5.1955,7.5478 4.0808,4.3259 9.2152,7.1724 15.334,8.5014 3.2172,0.69876 9.5671,0.57008 12.618,-0.25569 z"
           inkscape:connector-curvature="0"
           style="fill:#170800" />
        <path
           id="path4578"
           d="m 0.71815,269.53 c -1.745,-0.10575 -2.2304,-0.19867 -1.5875,-0.30389 0.91146,-0.14917 0.90783,-0.15222 -0.23063,-0.1939 -0.63617,-0.0233 -2.4221,-0.22901 -3.9688,-0.45716 -14.109,-2.0813 -27.002,-8.5614 -37.076,-18.635 -10.074,-10.0736 -16.554,-22.966 -18.635,-37.076 -0.22815,-1.5466 -0.43049,-3.3326 -0.44965,-3.9688 l -0.03483,-1.1567 -0.17262,0.92604 c -0.44808,2.4038 -0.55147,-10.941 -0.55147,-71.173 0,-60.232 0.1034,-73.577 0.55147,-71.173 l 0.17262,0.92604 0.03483,-1.1567 c 0.01916,-0.63617 0.2215,-2.4221 0.44965,-3.9688 2.0813,-14.109 8.5615,-27.002 18.635,-37.076 10.074,-10.074 22.966,-16.554 37.076,-18.635 1.5466,-0.22815 3.3326,-0.43049 3.9688,-0.44965 L 0.05672,5.92365 -0.86932,5.75103 c -2.4038,-0.44807 10.941,-0.55147 71.173,-0.55147 60.232,0 73.577,0.1034 71.173,0.55147 l -0.92605,0.17262 1.1567,0.03483 c 0.63617,0.019157 2.4221,0.2215 3.9688,0.44965 14.109,2.0813 27.002,8.5615 37.076,18.635 10.074,10.074 16.554,22.966 18.635,37.076 0.22815,1.5466 0.43049,3.3326 0.44965,3.9688 l 0.0348,1.1567 0.17261,-0.92604 c 0.44808,-2.4038 0.55148,10.941 0.55148,71.173 0,60.232 -0.1034,73.577 -0.55148,71.173 l -0.17261,-0.92604 -0.0348,1.1567 c -0.0192,0.63617 -0.2215,2.4221 -0.44965,3.9688 -2.0813,14.109 -8.5614,27.002 -18.635,37.076 -10.0736,10.074 -22.966,16.554 -37.076,18.635 -1.5466,0.22815 -3.3326,0.43049 -3.9688,0.44965 l -1.1567,0.0348 0.92605,0.17262 c 0.60686,0.11312 -0.34229,0.2379 -2.7538,0.36204 -4.3028,0.2215 -134.29,0.16103 -138,-0.0642 z m 30.176,-56.253 c 14.332,-2.7187 24.573,-16.491 23.016,-30.952 -1.3083,-12.151 -9.7426,-21.971 -21.633,-25.186 -2.3125,-0.62539 -3.05,-0.69896 -6.9525,-0.69369 -3.922,0.005 -4.6345,0.0793 -7.0115,0.72847 -8.9685,2.4493 -15.906,8.4461 -19.325,16.705 -1.3152,3.1771 -1.967,6.1444 -2.1526,9.7992 -0.4285,8.4376 2.6015,16.098 8.6878,21.964 4.1011,3.9528 9.8151,6.8464 15.303,7.7494 2.4206,0.39832 7.6811,0.33887 10.067,-0.11377 z m 92.34,0 c 16.336,-3.0988 26.669,-19.987 22.055,-36.045 -4.859,-16.91 -23.915,-25.643 -39.695,-18.191 -4.8298,2.281 -8.775,5.6544 -11.612,9.9294 -3.0463,4.5901 -4.5416,9.2112 -4.7966,14.824 -0.38457,8.465 2.6066,15.995 8.679,21.847 3.9166,3.7749 9.1254,6.5179 14.245,7.5014 0.80036,0.15376 1.6933,0.32645 1.9844,0.38376 1.4404,0.28365 7.1526,0.12774 9.1412,-0.2495 z m -87.59,-61.24 c 5.2172,-0.77804 8.9163,-1.558 10.649,-2.2453 0.5457,-0.21643 1.4387,-0.56643 1.9844,-0.77779 2.8056,-1.0867 6.8863,-2.9315 7.9695,-3.603 0.67365,-0.41759 1.7606,-1.0616 2.4154,-1.4311 5.8957,-3.3266 13.268,-10.277 16.738,-15.78 3.2497,-5.1537 3.8903,-6.2298 3.8946,-6.542 0.0027,-0.19582 0.21823,-0.67207 0.47895,-1.0583 0.42205,-0.62529 1.0348,-1.9448 2.0464,-4.4065 0.91949,-2.2376 2.5889,-8.6982 3.1683,-12.261 0.15424,-0.94853 0.37691,-10.708 0.42691,-18.712 0.01225,-1.9609 -0.36613,-5.2436 -0.83674,-7.2594 -1.5585,-6.6752 -3.0803,-11.605 -3.8452,-12.456 -0.20647,-0.22974 -0.37584,-0.58693 -0.37639,-0.79375 -5.29e-4,-0.20682 -0.23867,-0.76587 -0.52917,-1.2423 -0.2905,-0.47646 -0.52818,-1.0274 -0.52818,-1.2244 0,-0.19695 -0.16763,-0.4972 -0.3725,-0.66723 -0.20487,-0.17003 -0.57945,-0.74526 -0.83238,-1.2783 -0.25294,-0.53302 -0.8871,-1.6289 -1.4092,-2.4352 -0.52215,-0.80635 -1.1009,-1.7492 -1.2861,-2.0952 -0.96091,-1.7951 -5.5247,-6.9507 -9.0346,-10.206 -3.4521,-3.2018 -12.08,-8.2781 -17.527,-10.312 -6.5566,-2.4486 -15.076,-3.9088 -22.794,-3.907 -4.3666,9.79e-4 -12.132,0.49287 -13.287,0.84158 -0.43656,0.13188 -2.0439,0.49773 -3.5719,0.813 -2.5228,0.52052 -4.1334,1.0087 -8.4667,2.5662 -2.9843,1.0727 -9.0725,4.2141 -10.765,5.5547 -0.5967,0.4726 -1.1868,0.85993 -1.3114,0.86074 -0.26389,0.0016 -3.5759,2.5623 -4.6983,3.6323 -0.42219,0.4025 -0.9639,0.85088 -1.2038,0.9964 -0.2399,0.14552 -1.1878,1.098 -2.1065,2.1167 -0.9187,1.0187 -1.9942,2.2093 -2.3901,2.6458 -2.2585,2.4906 -5.4623,7.4347 -7.5571,11.662 -1.9785,3.9928 -2.528,5.4456 -4.0868,10.806 -0.88643,3.048 -1.9175,10.304 -2.0335,14.309 -0.05897,2.0373 -0.16602,3.8678 -0.23789,4.0679 -0.07187,0.20005 -0.01249,1.6288 0.13196,3.175 0.14444,1.5462 0.38806,4.24 0.54138,5.9863 0.15331,1.7462 0.44684,3.8894 0.65229,4.7625 0.20545,0.87313 0.56672,2.4805 0.80282,3.5719 0.2361,1.0914 0.70416,2.6988 1.0401,3.5719 0.33596,0.87313 0.76109,2.0638 0.94473,2.6458 0.18364,0.58208 0.54841,1.5346 0.8106,2.1167 0.26219,0.58209 0.6683,1.5346 0.90248,2.1167 0.81652,2.0296 4.0977,7.3511 6.6929,10.855 0.92592,1.25 3.8807,4.4987 5.3505,5.8827 0.3638,0.34257 1.0782,1.013 1.5875,1.49 0.50932,0.47691 1.819,1.5142 2.9104,2.3051 1.0914,0.79088 2.5202,1.8259 3.175,2.3 0.65484,0.47409 1.8455,1.198 2.6458,1.6087 0.8003,0.4107 2.3835,1.2543 3.5182,1.8748 3.0192,1.651 10.183,4.1194 13.812,4.7589 1.0186,0.17951 2.3283,0.42555 2.9104,0.54675 1.1316,0.23562 5.3132,0.74127 7.276,0.87983 3.3028,0.23317 12.258,-0.12585 15.61,-0.62584 z m 89.215,-32.255 c 9.8901,-2.6769 17.617,-10.226 20.441,-19.97 2.9451,-10.163 -0.18798,-21.443 -7.9918,-28.773 -6.1142,-5.7429 -14.24,-8.5277 -22.401,-7.677 -7.3636,0.76756 -13.223,3.684 -18.277,9.0973 -4.5778,4.9033 -7.1184,11.066 -7.4589,18.092 -0.38407,7.926 2.3099,15.235 7.7353,20.986 4.0808,4.3259 9.2152,7.1724 15.334,8.5014 3.2172,0.69876 9.5671,0.57008 12.618,-0.25569 z"
           inkscape:connector-curvature="0"
           style="fill:#0b0400" />
        <path
           id="path4580"
           d="m 0.98273,269.52 c -2.6468,-0.15339 -2.6906,-0.1652 -0.92604,-0.24982 l 1.8521,-0.0888 -2.6458,-0.21355 c -5.5286,-0.4462 -12.366,-1.9391 -17.463,-3.813 -6.1965,-2.2782 -13.577,-6.4846 -18.813,-10.722 -2.6801,-2.1691 -7.4541,-6.943 -9.6231,-9.6231 -4.2378,-5.2362 -8.4442,-12.617 -10.722,-18.813 -1.8739,-5.097 -3.3668,-11.934 -3.813,-17.462 l -0.21354,-2.6458 -0.08277,1.8521 c -0.3239,7.2478 -0.45083,-12.529 -0.45083,-70.247 0,-57.718 0.12692,-77.495 0.45083,-70.247 l 0.08277,1.8521 0.21354,-2.6458 c 0.44621,-5.5286 1.9391,-12.366 3.813,-17.463 2.2782,-6.1965 6.4846,-13.577 10.722,-18.813 2.1691,-2.6801 6.943,-7.4541 9.6231,-9.6231 5.2362,-4.2378 12.617,-8.4442 18.813,-10.722 5.097,-1.8739 11.934,-3.3668 17.463,-3.813 L 1.90879,5.80568 0.05669,5.722911 c -7.2479,-0.3239 12.529,-0.45083 70.247,-0.45083 57.718,0 77.495,0.12692 70.247,0.45083 l -1.8521,0.082769 2.6458,0.21354 c 5.5286,0.44621 12.366,1.9391 17.463,3.813 6.1965,2.2782 13.577,6.4847 18.813,10.722 2.6801,2.1691 7.4541,6.943 9.6231,9.6231 4.2378,5.2362 8.4442,12.617 10.722,18.813 1.874,5.097 3.3668,11.934 3.813,17.463 l 0.21355,2.6458 0.0828,-1.8521 c 0.3239,-7.2479 0.45083,12.529 0.45083,70.247 0,57.718 -0.12693,77.495 -0.45083,70.247 l -0.0828,-1.8521 -0.21355,2.6458 c -0.4462,5.5286 -1.9391,12.366 -3.813,17.462 -2.2782,6.1965 -6.4846,13.577 -10.722,18.813 -2.1691,2.6801 -6.943,7.4541 -9.6231,9.6231 -5.2362,4.2378 -12.617,8.4442 -18.813,10.722 -5.097,1.874 -11.934,3.3668 -17.463,3.813 l -2.6458,0.21355 1.8521,0.0828 c 1.6661,0.0745 1.5466,0.10125 -1.1906,0.2668 -3.7199,0.22499 -134.48,0.21465 -138.38,-0.0109 z m 31.221,-56.319 c 2.7334,-0.72986 3.7795,-1.1264 6.2543,-2.3707 7.2041,-3.6222 12.689,-10.442 14.829,-18.437 0.64,-2.3913 0.70812,-3.0912 0.70812,-7.276 0,-4.1596 -0.07023,-4.8912 -0.69093,-7.1982 -2.251,-8.3661 -7.9672,-15.25 -15.899,-19.147 -2.6818,-1.3176 -2.7865,-1.2351 2.1529,-1.695 1.7893,-0.1666 4.0515,-0.4848 5.0271,-0.70713 0.97561,-0.22232 2.3096,-0.49637 2.9645,-0.60899 1.6733,-0.28777 7.1431,-2.1207 7.9375,-2.6599 0.3638,-0.24692 1.0507,-0.52363 1.5264,-0.61491 0.47572,-0.0913 2.0831,-0.76293 3.5719,-1.4926 5.1963,-2.5466 9.0884,-5.3284 13.457,-9.6179 2.7135,-2.6646 6.0513,-6.6185 6.0513,-7.1684 0,-0.10738 0.34874,-0.54398 0.77498,-0.97023 1.1475,-1.1474 5.8396,-10.817 5.8396,-12.035 0,-0.33672 0.11098,-0.6808 0.24662,-0.76463 0.13564,-0.0838 0.39314,-0.835 0.57222,-1.6693 0.17908,-0.83427 0.43278,-1.7314 0.56377,-1.9936 0.41545,-0.83158 1.2225,-4.2264 1.3962,-5.8733 0.14009,-1.328 -0.0094,-2.3103 -0.91487,-6.0099 -1.3118,-5.3598 -1.5831,-7.323 -1.5828,-11.453 2.64e-4,-4.6844 0.69679,-8.9647 2.1741,-13.361 1.1946,-3.5553 0.49369,-8.8283 -2.2157,-16.669 -0.78486,-2.2712 -2.3495,-6.0047 -2.883,-6.8792 -0.13317,-0.21828 -0.68668,-1.2898 -1.23,-2.3812 -0.54335,-1.0914 -1.3228,-2.4182 -1.7322,-2.9485 -0.40936,-0.53026 -0.7443,-1.0873 -0.7443,-1.2379 0,-0.15056 -0.14883,-0.43125 -0.33073,-0.62374 -0.1819,-0.19249 -0.80312,-0.94514 -1.3805,-1.6725 -0.57736,-0.72741 -2.841,-3.1085 -5.0303,-5.2913 -3.0608,-3.0517 -4.5503,-4.3203 -6.4464,-5.4901 -1.3562,-0.83674 -2.5752,-1.5214 -2.7088,-1.5214 -0.13362,0 -0.47635,-0.2334 -0.76161,-0.51866 -1.0261,-1.0261 -6.1556,-3.3191 -10.991,-4.913 -4.8606,-1.6023 -7.6466,-2.2545 -11.774,-2.7563 -8.1557,-0.99143 -8.8622,-1.0592 -12.7,-1.2177 -7.9476,-0.32828 -22.225,1.1249 -26.265,2.6733 -0.54865,0.21028 -1.2944,0.38233 -1.6572,0.38233 -0.36283,0 -0.86644,0.1068 -1.1191,0.23734 -0.25269,0.13054 -1.3524,0.55682 -2.4438,0.9473 -1.0914,0.39048 -2.3214,0.87899 -2.7334,1.0856 -0.412,0.20661 -0.94776,0.37941 -1.1906,0.38404 -0.24287,0.0046 -0.6727,0.18322 -0.95517,0.39688 -0.28247,0.21365 -0.65948,0.38846 -0.83778,0.38846 -0.27679,0 -1.3187,0.5605 -5.9247,3.1871 -1.851,1.0555 -3.6573,2.2999 -4.3835,3.0198 -0.4464,0.44252 -1.314,1.1582 -1.928,1.5903 -0.91221,0.64202 -4.2847,3.9987 -5.7234,5.6966 -1.9366,2.2854 -3.7279,4.8049 -4.6339,6.5177 -0.6055,1.1447 -1.2587,2.2598 -1.4515,2.4781 -0.54959,0.6222 -2.6424,5.4551 -3.4373,7.9375 -0.39604,1.2369 -0.88681,2.64 -1.0906,3.1178 -0.20379,0.47788 -0.37575,1.1327 -0.38214,1.4552 -0.0064,0.32248 -0.19636,1.0626 -0.42215,1.6447 -0.43582,1.1235 -0.61317,1.9525 -1.2713,5.9425 -0.85914,5.2087 -1.2054,10.058 -1.2045,16.87 0.002,14.766 1.9082,24.665 6.765,35.131 1.0587,2.2815 4.4419,7.8997 5.3718,8.9206 0.43531,0.47791 1.5636,1.7711 2.5074,2.8738 3.2847,3.8379 8.6883,8.4705 11.013,9.4419 0.50808,0.21229 1.0813,0.61089 1.2739,0.88577 0.19254,0.27489 0.63394,0.49979 0.98091,0.49979 0.34696,0 0.71052,0.12892 0.8079,0.28648 0.09738,0.15757 0.6866,0.5049 1.3094,0.77186 0.62278,0.26695 1.212,0.61429 1.3094,0.77185 0.09738,0.15756 0.43792,0.29027 0.75675,0.29489 0.31883,0.005 0.81613,0.18711 1.1051,0.40552 0.28897,0.2184 1.2996,0.63621 2.2458,0.92848 0.94623,0.29225 1.9855,0.70509 2.3096,0.9174 0.3241,0.21231 0.8017,0.38693 1.0615,0.38804 0.25978,0.001 1.2462,0.24467 2.1921,0.54124 4.5789,1.4357 10.036,2.2839 13.527,2.1026 3.5454,-0.18417 3.7981,-0.0617 1.621,0.78531 -4.1475,1.6137 -7.8342,4.0779 -10.849,7.2512 -3.3983,3.5775 -5.7626,7.8124 -7.1089,12.733 -0.65881,2.408 -0.7244,3.0621 -0.72962,7.276 -0.00521,4.2071 0.059402,4.872 0.70702,7.276 2.8854,10.711 11.315,18.611 22.427,21.019 3.2748,0.70953 9.359,0.60598 12.42,-0.21138 z m 90.48,0.36098 c 11.065,-1.9473 20.006,-10.197 22.943,-21.168 0.64,-2.3913 0.70812,-3.0912 0.70812,-7.276 0,-4.1596 -0.0702,-4.8912 -0.69093,-7.1982 -2.9037,-10.792 -11.442,-18.889 -22.291,-21.14 -3.2432,-0.6729 -8.4559,-0.66832 -11.509,0.0101 -6.1383,1.3638 -11.033,4.0922 -15.127,8.4316 -11.734,12.439 -10.164,32.446 3.3527,42.711 2.4078,1.8286 5.9802,3.7376 8.5421,4.5647 4.4045,1.4219 9.7489,1.8267 14.072,1.0659 z m 2.1786,-93.621 c 10.067,-2.6196 18.063,-10.584 20.764,-20.681 0.63953,-2.3908 0.70776,-3.0922 0.70776,-7.276 0,-4.1889 -0.0676,-4.8818 -0.7091,-7.2698 -3.1937,-11.888 -13.39,-20.5 -25.519,-21.552 -11.729,-1.0172 -22.929,5.2409 -28.209,15.761 -3.9034,7.7778 -4.0812,17.365 -0.46502,25.081 4.0309,8.6018 11.863,14.615 21.378,16.414 3.1661,0.59847 8.7697,0.37636 12.052,-0.47772 z"
           inkscape:connector-curvature="0" />
      </g>
    </g>
  </g>
</svg>
