<?xml version="1.0" encoding="utf-8"?>
<!-- Generator: Adobe Illustrator 26.5.0, SVG Export Plug-In . SVG Version: 6.00 Build 0)  -->
<svg version="1.1" id="3453cf71-5cae-4ed6-ab04-ab40fe4fd029" xmlns="http://www.w3.org/2000/svg" x="0px" y="0px"
	 viewBox="0 0 720 720" xml:space="preserve">
<style type="text/css">
	.st0{fill:none;stroke:#000000;stroke-width:7;stroke-miterlimit:10;}
</style>
<g>
	<path d="M390.3,602.9c-133.9,0-242.9-108.9-242.9-242.9c0-16.6,1.7-32.8,4.9-48.4l-11.8-2.4c-3.3,16.5-5,33.5-5,50.8
		c0,68.1,26.5,132.1,74.6,180.2c48.1,48.1,112.1,74.6,180.2,74.6c9.3,0,18.5-0.5,27.6-1.5l-1.3-11.9
		C408,602.4,399.2,602.9,390.3,602.9"/>
	<path class="st0" d="M390.3,602.9c-133.9,0-242.9-108.9-242.9-242.9c0-16.6,1.7-32.8,4.9-48.4l-11.8-2.4c-3.3,16.5-5,33.5-5,50.8
		c0,68.1,26.5,132.1,74.6,180.2c48.1,48.1,112.1,74.6,180.2,74.6c9.3,0,18.5-0.5,27.6-1.5l-1.3-11.9
		C408,602.4,399.2,602.9,390.3,602.9z"/>
	<path d="M390.3,117.1c31,0,60.6,5.8,87.9,16.5l4.4-11.3c-29-11.3-60.2-17.1-92.3-17.1c-67.2,0-130.5,25.9-178.4,72.9l8.5,8.6
		C264.2,143.7,324.2,117.1,390.3,117.1"/>
	<path class="st0" d="M390.3,117.1c31,0,60.6,5.8,87.9,16.5l4.4-11.3c-29-11.3-60.2-17.1-92.3-17.1c-67.2,0-130.5,25.9-178.4,72.9
		l8.5,8.6C264.2,143.7,324.2,117.1,390.3,117.1z"/>
	<path d="M390.3,158.1c37.6,0,72.8,10.4,103,28.3l6.1-10.3c-32-19.1-69.3-30-109.2-30c-111.5,0-203.3,85.8-213,194.8l12,1.1
		C198.4,239.1,285,158.1,390.3,158.1"/>
	<path class="st0" d="M390.3,158.1c37.6,0,72.8,10.4,103,28.3l6.1-10.3c-32-19.1-69.3-30-109.2-30c-111.5,0-203.3,85.8-213,194.8
		l12,1.1C198.4,239.1,285,158.1,390.3,158.1z"/>
	<path d="M390.3,561.9c-100.4,0-183.9-73.7-199.3-169.8l-11.8,1.9c16.3,101.8,104.8,179.9,211.1,179.9c33.2,0,64.7-7.6,92.8-21.2
		l-5.2-10.8C451.4,554.7,421.7,561.9,390.3,561.9"/>
	<path class="st0" d="M390.3,561.9c-100.4,0-183.9-73.7-199.3-169.8l-11.8,1.9c16.3,101.8,104.8,179.9,211.1,179.9
		c33.2,0,64.7-7.6,92.8-21.2l-5.2-10.8C451.4,554.7,421.7,561.9,390.3,561.9z"/>
	<path d="M551,366.8c-3.6,85.5-74.3,154-160.7,154c-22.7,0-44.3-4.7-63.8-13.2l-4.8,11c21,9.1,44.2,14.2,68.6,14.2
		c93,0,169.1-73.9,172.7-166H551z"/>
	<path class="st0" d="M551,366.8c-3.6,85.5-74.3,154-160.7,154c-22.7,0-44.3-4.7-63.8-13.2l-4.8,11c21,9.1,44.2,14.2,68.6,14.2
		c93,0,169.1-73.9,172.7-166H551z"/>
	<path d="M390.3,199.1v-12c-95.3,0-172.9,77.5-172.9,172.9c0,25.6,5.6,49.9,15.6,71.7l10.9-5c-9.3-20.3-14.5-42.9-14.5-66.7
		C229.4,271.3,301.6,199.1,390.3,199.1"/>
	<path class="st0" d="M390.3,199.1v-12c-95.3,0-172.9,77.5-172.9,172.9c0,25.6,5.6,49.9,15.6,71.7l10.9-5
		c-9.3-20.3-14.5-42.9-14.5-66.7C229.4,271.3,301.6,199.1,390.3,199.1z"/>
	<path d="M390.3,240.1c38.6,0,73,18.4,95,46.8H500c-23.7-35.4-64-58.8-109.7-58.8c-72.7,0-131.9,59.2-131.9,131.9
		s59.2,131.9,131.9,131.9c70.4,0,128.1-55.5,131.7-125h-6.5h-5.5h-77.6v12h76.4c-9.1,57.2-58.7,101-118.4,101
		c-66.1,0-119.9-53.8-119.9-119.9C270.4,293.9,324.2,240.1,390.3,240.1"/>
	<path class="st0" d="M390.3,240.1c38.6,0,73,18.4,95,46.8H500c-23.7-35.4-64-58.8-109.7-58.8c-72.7,0-131.9,59.2-131.9,131.9
		s59.2,131.9,131.9,131.9c70.4,0,128.1-55.5,131.7-125h-6.5h-5.5h-77.6v12h76.4c-9.1,57.2-58.7,101-118.4,101
		c-66.1,0-119.9-53.8-119.9-119.9C270.4,293.9,324.2,240.1,390.3,240.1z"/>
</g>
</svg>
