<svg xmlns="http://www.w3.org/2000/svg" viewBox="0 0 75 75">
  <!-- Tier labels (text converted to vector paths for consistent rendering) -->
  <path fill="#C50F1F" d="M12.05 18.99H10.43V24H9.77V18.99H8.16V18.4H12.05Z M16.18 21.18Q16.18 21.88 16.05 22.42Q15.92 22.96 15.68 23.34Q15.44 23.71 15.09 23.9Q14.74 24.1 14.3 24.1Q13.88 24.1 13.54 23.91Q13.21 23.73 12.99 23.37Q12.76 23.02 12.64 22.5Q12.53 21.98 12.53 21.31Q12.53 20.58 12.65 20.02Q12.77 19.45 13.01 19.07Q13.25 18.69 13.6 18.5Q13.96 18.3 14.41 18.3Q16.18 18.3 16.18 21.18ZM15.52 21.24Q15.52 18.85 14.38 18.85Q13.18 18.85 13.18 21.28Q13.18 23.55 14.36 23.55Q15.52 23.55 15.52 21.24Z"/>
  <path fill="#FFB900" d="M12.05 33.99H10.43V39H9.77V33.99H8.16V33.4H12.05Z M15.02 39H14.38V34.16Q14.3 34.23 14.16 34.33Q14.02 34.43 13.84 34.52Q13.66 34.61 13.47 34.7Q13.27 34.78 13.08 34.82V34.18Q13.29 34.12 13.53 34.02Q13.77 33.92 13.99 33.79Q14.22 33.67 14.43 33.54Q14.63 33.4 14.78 33.27H15.02Z"/>
  <path fill="#107C10" d="M12.05 48.99H10.43V54H9.77V48.99H8.16V48.4H12.05Z M15.21 49.87Q15.21 49.61 15.13 49.42Q15.05 49.23 14.91 49.1Q14.77 48.97 14.58 48.91Q14.39 48.85 14.18 48.85Q13.99 48.85 13.81 48.9Q13.63 48.95 13.46 49.04Q13.29 49.13 13.13 49.25Q12.97 49.38 12.84 49.53V48.84Q13.11 48.58 13.44 48.44Q13.77 48.3 14.25 48.3Q14.6 48.3 14.89 48.4Q15.18 48.5 15.4 48.7Q15.61 48.89 15.74 49.17Q15.86 49.45 15.86 49.81Q15.86 50.14 15.78 50.41Q15.71 50.68 15.55 50.92Q15.4 51.16 15.16 51.38Q14.93 51.6 14.61 51.82Q14.22 52.11 13.96 52.3Q13.71 52.5 13.56 52.68Q13.41 52.85 13.35 53.03Q13.29 53.2 13.29 53.43H16.07V54H12.62V53.72Q12.62 53.36 12.7 53.09Q12.77 52.82 12.95 52.57Q13.13 52.32 13.42 52.08Q13.71 51.83 14.14 51.52Q14.44 51.3 14.65 51.11Q14.85 50.91 14.98 50.71Q15.1 50.51 15.15 50.3Q15.21 50.1 15.21 49.87Z"/>

  <!-- Tier 0 -->
  <polygon points="45,12 38,24 52,24" fill="#C50F1F"/>

  <!-- Tier 1 -->
  <polygon points="36,27 54,27 61,40 29,40" fill="#FFB900"/>

  <!-- Tier 2 -->
  <polygon points="27,43 63,43 70,58 20,58" fill="#107C10"/>
</svg>
