<?xml version="1.0" encoding="UTF-8" standalone="no"?>
<svg
   xmlns:dc="http://purl.org/dc/elements/1.1/"
   xmlns:cc="http://creativecommons.org/ns#"
   xmlns:rdf="http://www.w3.org/1999/02/22-rdf-syntax-ns#"
   xmlns:svg="http://www.w3.org/2000/svg"
   xmlns="http://www.w3.org/2000/svg"
   xmlns:xlink="http://www.w3.org/1999/xlink"
   xmlns:sodipodi="http://sodipodi.sourceforge.net/DTD/sodipodi-0.dtd"
   xmlns:inkscape="http://www.inkscape.org/namespaces/inkscape"
   width="420mm"
   height="297mm"
   viewBox="0 0 420 297"
   version="1.1"
   id="svg5501"
   inkscape:version="1.0.2-2 (e86c870879, 2021-01-15)"
   sodipodi:docname="securehats-banner.svg">
  <defs
     id="defs5495">
    <radialGradient
       inkscape:collect="always"
       xlink:href="#center"
       id="radialGradient4690"
       cx="9.0346336"
       cy="9.453721"
       fx="9.0346336"
       fy="9.453721"
       r="6.75"
       gradientTransform="matrix(3.7035863,0.02894785,-0.03800693,4.6869873,-5.7229662,-11.806033)"
       gradientUnits="userSpaceOnUse" />
    <linearGradient
       id="center"
       x1="8.9877548"
       y1="11.281632"
       x2="9.0122452"
       y2="2.6857142"
       gradientTransform="matrix(1,0,0,-1,0,20)"
       gradientUnits="userSpaceOnUse">
      <stop
         offset=".18"
         stop-color="#5ea0ef"
         id="stop4679"
         style="stop-color:#0099ba;stop-opacity:1" />
      <stop
         offset="1"
         stop-color="#0078d4"
         id="stop4681"
         style="stop-color:#57b5e5;stop-opacity:1" />
    </linearGradient>
    <inkscape:path-effect
       effect="bspline"
       id="path-effect3843"
       is_visible="true"
       lpeversion="1"
       weight="33.333333"
       steps="2"
       helper_size="0"
       apply_no_weight="true"
       apply_with_weight="true"
       only_selected="false" />
    <inkscape:path-effect
       effect="bspline"
       id="path-effect3847"
       is_visible="true"
       lpeversion="1"
       weight="33.333333"
       steps="2"
       helper_size="0"
       apply_no_weight="true"
       apply_with_weight="true"
       only_selected="false" />
  </defs>
  <sodipodi:namedview
     id="base"
     pagecolor="#ffffff"
     bordercolor="#666666"
     borderopacity="1.0"
     inkscape:pageopacity="0"
     inkscape:pageshadow="2"
     inkscape:zoom="0.49497475"
     inkscape:cx="1821.7262"
     inkscape:cy="682.23335"
     inkscape:document-units="mm"
     inkscape:current-layer="layer1"
     inkscape:document-rotation="0"
     showgrid="false"
     inkscape:pagecheckerboard="true"
     inkscape:window-width="2256"
     inkscape:window-height="1441"
     inkscape:window-x="-8"
     inkscape:window-y="-8"
     inkscape:window-maximized="1" />
  <metadata
     id="metadata5498">
    <rdf:RDF>
      <cc:Work
         rdf:about="">
        <dc:format>image/svg+xml</dc:format>
        <dc:type
           rdf:resource="http://purl.org/dc/dcmitype/StillImage" />
        <dc:title />
      </cc:Work>
    </rdf:RDF>
  </metadata>
  <g
     inkscape:label="Layer 1"
     inkscape:groupmode="layer"
     id="layer1">
    <g
       id="g6262"
       transform="translate(2.6458334,57.15003)">
      <g
         id="g5190"
         transform="matrix(1.875,0,0,1.875,-104.827,-57.484724)">
        <g
           id="g5106"
           transform="translate(60.865697,34.46725)">
          <path
             d="m 54.25,28.620696 c 0,17.211211 -21.460598,31.079749 -26.119565,33.889017 a 1.6875,1.6357762 0 0 1 -1.76087,0 C 21.710598,59.700445 0.25,45.831907 0.25,28.620696 V 7.9245709 A 1.6875,1.6357762 0 0 1 1.9008152,6.2887947 C 18.592391,5.8620705 14.740489,-1.2500001 27.25,-1.2500001 c 12.509511,0 8.657609,7.1120706 25.349185,7.5387948 A 1.6875,1.6357762 0 0 1 54.25,7.9245709 Z"
             fill="#0078d4"
             id="path4031"
             style="fill:#554842;fill-opacity:1;stroke-width:3.61182" />
          <path
             d="m 52.25,28.748803 c 0,16.144765 -19.851852,29.089666 -24.185185,31.78046 a 1.5888889,1.5599333 0 0 1 -1.62963,0 C 22.101852,57.911193 2.25,44.893568 2.25,28.748803 V 9.3314514 A 1.5555556,1.5272074 0 0 1 3.7685186,7.8042439 C 19.212963,7.404261 15.657407,0.75 27.25,0.75 c 11.592593,0 8.037037,6.654261 23.481481,7.0542439 A 1.5555556,1.5272074 0 0 1 52.25,9.3314514 Z"
             fill="url(#8123552493552779)"
             id="path4033"
             style="mix-blend-mode:normal;fill:url(#radialGradient4690);fill-opacity:1;stroke-width:3.6698" />
        </g>
        <g
           id="g5170"
           transform="translate(0,2.9970636)"
           style="stroke-width:0;stroke-miterlimit:4;stroke-dasharray:none">
          <g
             id="g3851"
             transform="matrix(0.26458333,0,0,0.26458333,44.749963,28.493548)"
             style="fill:#000000;fill-opacity:1;stroke:#edf244;stroke-width:0;stroke-miterlimit:4;stroke-dasharray:none;stroke-dashoffset:0;stroke-opacity:1">
            <g
               id="g3889"
               style="fill:#000000;fill-opacity:1;stroke:#edf244;stroke-width:0;stroke-miterlimit:4;stroke-dasharray:none;stroke-dashoffset:0;stroke-opacity:1">
              <path
                 style="fill:#000000;fill-opacity:1;stroke:#edf244;stroke-width:0;stroke-linecap:butt;stroke-linejoin:miter;stroke-miterlimit:4;stroke-dasharray:none;stroke-dashoffset:0;stroke-opacity:1"
                 d="m 159.45395,138.63035 c -0.36207,3.59496 -1.47074,9.06703 -4.5495,13.65645 -3.07876,4.58943 -8.12601,8.28888 -13.20326,9.92146 -5.07725,1.63259 -10.1848,1.19789 -13.97881,-0.48665 -3.794,-1.68453 -6.27383,-4.61969 -7.77472,-8.31244 -1.50088,-3.69274 -2.02188,-8.14268 -1.51795,-11.85425 0.50393,-3.71157 2.03305,-6.68361 5.29371,-9.0378 3.26065,-2.35418 8.25199,-4.08974 14.42687,-4.13323 6.17488,-0.0435 13.53333,1.60459 17.40604,3.27922 3.87271,1.67463 4.2597,3.37228 3.89762,6.96724 z"
                 id="path3841"
                 inkscape:path-effect="#path-effect3843"
                 inkscape:original-d="m 160.20388,136.73677 c -1.11085,5.48877 -2.21952,10.96084 -3.33081,16.43992 -5.04655,3.70067 -10.0938,7.40012 -15.14235,11.09879 -5.10686,-0.43372 -10.21441,-0.86842 -15.32327,-1.30415 -2.47898,-2.93433 -4.95881,-5.86949 -7.43978,-8.80581 -0.52002,-4.44919 -1.04101,-8.89913 -1.56304,-13.35032 1.53021,-2.97123 3.05932,-5.94328 4.58753,-8.9165 4.99233,-1.73456 9.98367,-3.47012 14.9737,-5.20657 7.35914,1.64901 14.71759,3.29709 22.07533,4.94423 0.38858,1.70121 0.77558,3.39886 1.16269,5.10041 z"
                 sodipodi:nodetypes="cccccccccc" />
              <path
                 style="fill:#000000;fill-opacity:1;stroke:#edf244;stroke-width:0;stroke-linecap:butt;stroke-linejoin:miter;stroke-miterlimit:4;stroke-dasharray:none;stroke-dashoffset:0;stroke-opacity:1"
                 d="m 168.35002,138.63035 c 0.36207,3.59496 1.47074,9.06703 4.5495,13.65645 3.07876,4.58943 8.12601,8.28888 13.20326,9.92146 5.07725,1.63259 10.1848,1.19789 13.97881,-0.48665 3.794,-1.68453 6.27383,-4.61969 7.77472,-8.31244 1.50088,-3.69274 2.02188,-8.14268 1.51795,-11.85425 -0.50393,-3.71157 -2.03305,-6.68361 -5.29371,-9.0378 -3.26065,-2.35418 -8.25199,-4.08974 -14.42687,-4.13323 -6.17488,-0.0435 -13.53333,1.60459 -17.40604,3.27922 -3.87271,1.67463 -4.2597,3.37228 -3.89762,6.96724 z"
                 id="path3845"
                 inkscape:path-effect="#path-effect3847"
                 inkscape:original-d="m 167.60009,136.73677 c 1.11085,5.48877 2.21952,10.96084 3.33081,16.43992 5.04655,3.70067 10.0938,7.40012 15.14235,11.09879 5.10686,-0.43372 10.21441,-0.86842 15.32327,-1.30415 2.47898,-2.93433 4.95881,-5.86949 7.43978,-8.80581 0.52002,-4.44919 1.04101,-8.89913 1.56304,-13.35032 -1.53021,-2.97123 -3.05932,-5.94328 -4.58753,-8.9165 -4.99233,-1.73456 -9.98367,-3.47012 -14.9737,-5.20657 -7.35914,1.64901 -14.71759,3.29709 -22.07533,4.94423 -0.38858,1.70121 -0.77558,3.39886 -1.16269,5.10041 z"
                 sodipodi:nodetypes="cccccccccc" />
            </g>
          </g>
          <path
             style="opacity:1;fill:#ed1844;fill-rule:evenodd;stroke:#ed1844;stroke-width:0;stroke-linecap:square;stroke-linejoin:round;stroke-miterlimit:4;stroke-dasharray:none;stroke-dashoffset:0;stroke-opacity:1"
             d="m 87.154091,64.379911 c -1.637252,-0.141544 -4.041037,-0.831977 -5.981382,-1.718017 -0.742048,-0.338851 -2.912462,-1.435737 -3.87418,-1.957943 -1.19516,-0.648959 -12.759936,-7.289334 -12.736248,-7.313019 0.005,-0.005 1.211458,-0.251336 2.681012,-0.547402 2.752146,-0.554469 4.280638,-0.874038 5.288891,-1.105768 l 0.579046,-0.133083 0.306285,0.252627 c 1.27576,1.052261 2.782186,2.056757 4.198395,2.799519 2.480876,1.301147 5.533784,2.134547 8.652851,2.3621 1.155618,0.08431 3.126475,0.0614 4.293018,-0.0499 1.914345,-0.182645 4.086794,-0.67019 5.762998,-1.293342 2.130044,-0.791874 4.237603,-2.004303 6.126643,-3.524517 0.29188,-0.234892 0.56422,-0.45316 0.6052,-0.485042 0.0717,-0.05581 0.10792,-0.05047 0.97041,0.143076 0.99108,0.222409 2.96397,0.63119 5.81902,1.205698 1.35225,0.272106 1.86222,0.386802 1.82078,0.409498 -0.0317,0.01733 -0.82431,0.474639 -1.76142,1.016223 -1.97828,1.143304 -9.8973,5.686052 -10.390102,5.960284 -1.105752,0.615326 -3.111762,1.641716 -4.276312,2.188006 -1.922555,0.901867 -4.214003,1.584654 -5.919057,1.76371 -0.4308,0.04524 -1.763903,0.06203 -2.165848,0.02729 z"
             id="path3113" />
          <g
             id="g3931"
             style="stroke-width:0;stroke-miterlimit:4;stroke-dasharray:none">
            <path
               style="fill:#554842;fill-opacity:1;stroke:#54f441;stroke-width:0;stroke-linecap:butt;stroke-linejoin:miter;stroke-miterlimit:4;stroke-dasharray:none;stroke-opacity:1"
               d="m 80.452775,78.07887 7.461581,-2.952099 0.0047,1.636868 z"
               id="path22"
               sodipodi:nodetypes="cccc" />
            <path
               style="fill:#554842;fill-opacity:1;stroke:#54f441;stroke-width:0;stroke-linecap:butt;stroke-linejoin:miter;stroke-miterlimit:4;stroke-dasharray:none;stroke-opacity:1"
               d="m 95.778619,78.07887 -7.461581,-2.952099 -0.0047,1.636868 z"
               id="path22-2"
               sodipodi:nodetypes="cccc" />
          </g>
          <path
             style="font-variation-settings:normal;vector-effect:none;fill:#ed1844;fill-opacity:1;stroke:#00e700;stroke-width:0;stroke-linecap:square;stroke-linejoin:miter;stroke-miterlimit:4;stroke-dasharray:none;stroke-dashoffset:8.13;stroke-opacity:1;stop-color:#000000"
             d="m 87.207239,55.550409 c -1.856523,-0.07892 -3.975891,-0.475946 -5.764138,-1.07981 -2.051055,-0.69261 -3.621815,-1.573252 -4.925502,-2.761464 -0.155914,-0.142102 -0.3434,-0.324593 -0.416631,-0.405529 l -0.133152,-0.147159 0.04285,-0.170212 c 0.02358,-0.09362 0.751838,-3.093622 1.618374,-6.666677 0.86654,-3.573058 1.583926,-6.505617 1.594192,-6.516798 0.02061,-0.02246 6.462379,-2.023102 6.514076,-2.023102 0.01775,0 0.537707,0.378047 1.155459,0.840105 0.617752,0.462057 1.13602,0.835178 1.15171,0.829159 0.01569,-0.006 0.536758,-0.385115 1.15793,-0.842431 0.959888,-0.706684 1.138701,-0.829625 1.191348,-0.819097 0.09159,0.01831 6.504871,1.978578 6.546371,2.000941 0.02447,0.01318 0.544597,2.08472 1.679458,6.688756 l 1.644016,6.669662 -0.0613,0.08097 c -0.0876,0.115863 -0.67835,0.658323 -0.973109,0.893611 -1.854636,1.48045 -4.40209,2.534926 -7.48629,3.098824 -1.555035,0.284313 -3.052111,0.393316 -4.535715,0.330248 z"
             id="path3754" />
        </g>
      </g>
    </g>
    <g
       id="g6142"
       transform="matrix(0.75,0,0,0.75,11.04018,57.696863)">
      <g
         id="g6246"
         transform="translate(6.3500003)">
        <text
           xml:space="preserve"
           style="font-weight:bold;font-size:33.8667px;line-height:1.25;font-family:sans-serif;-inkscape-font-specification:'sans-serif Bold';fill:#554842;fill-opacity:1;stroke-width:0.264583"
           x="150.29912"
           y="134.33054"
           id="text5565"><tspan
             sodipodi:role="line"
             id="tspan5563"
             x="150.29912"
             y="134.33054"
             style="font-style:normal;font-variant:normal;font-weight:bold;font-stretch:normal;font-size:33.8667px;font-family:'Josefin Sans';-inkscape-font-specification:'Josefin Sans Bold';fill:#554842;fill-opacity:1;stroke-width:0.264583">SecureHats</tspan></text>
        <text
           xml:space="preserve"
           style="font-weight:bold;font-size:25.4px;line-height:1.25;font-family:sans-serif;-inkscape-font-specification:'sans-serif Bold';fill:#554842;fill-opacity:1;stroke-width:0.264583"
           x="151.69612"
           y="160.43532"
           id="text5569"><tspan
             sodipodi:role="line"
             id="tspan5567"
             x="151.69612"
             y="160.43532"
             style="font-style:normal;font-variant:normal;font-weight:normal;font-stretch:normal;font-size:25.4px;font-family:'Josefin Sans';-inkscape-font-specification:'Josefin Sans';fill:#554842;fill-opacity:1;stroke-width:0.264583">security investigators community</tspan></text>
      </g>
    </g>
  </g>
</svg>
