<svg version="1.1" id="46869ec6-0e8b-493f-a86e-5224fb48141b" xmlns="http://www.w3.org/2000/svg" x="0" y="0" viewBox="0 0 499.986 144.457" xml:space="preserve"><switch><g><path d="M493.63 18.961c0 5.58-4.38 9.96-10.08 9.96-5.639 0-10.139-4.38-10.139-9.96 0-5.46 4.5-9.839 10.14-9.839 5.699 0 10.079 4.38 10.079 9.84zm-17.7 0c0 4.38 3.24 7.86 7.68 7.86 4.32 0 7.5-3.48 7.5-7.8 0-4.38-3.18-7.919-7.56-7.919s-7.62 3.54-7.62 7.86zm6.06 5.16h-2.28v-9.84c.9-.18 2.161-.3 3.78-.3 1.86 0 2.7.3 3.42.72.54.42.96 1.2.96 2.16 0 1.08-.84 1.92-2.04 2.28v.12c.961.36 1.5 1.08 1.8 2.4.3 1.5.48 2.1.72 2.46h-2.46c-.3-.36-.48-1.26-.78-2.4-.18-1.08-.779-1.56-2.04-1.56h-1.08v3.96zm.06-5.58h1.08c1.26 0 2.28-.42 2.28-1.44 0-.9-.659-1.5-2.1-1.5-.6 0-1.019.06-1.26.12v2.82z" opacity="0.9" fill="#fff"/><path fill="#fff" d="M61 8.181V42.65s3.289-2.337 6.188-3.956 4.431-2.32 6.127-3.122c1.67-.79 4.123-1.69 5.864-2.312a56.817 56.817 0 0 1 5.25-1.592 57.926 57.926 0 0 1 5.341-1.077 59.23 59.23 0 0 1 5.395-.576 60.564 60.564 0 0 1 5.411-.085c1.802.052 3.601.184 5.391.393a62.718 62.718 0 0 1 10.573 2.17 63.451 63.451 0 0 1 10.047 3.934 62.44 62.44 0 0 1 4.735 2.597c1.54.934 3.04 1.935 4.491 3a60.097 60.097 0 0 1 4.212 3.393 58.727 58.727 0 0 1 3.896 3.772 57.433 57.433 0 0 1 3.543 4.14 56.372 56.372 0 0 1 3.151 4.493 55.71 55.71 0 0 1 6.575 14.866c4.397 15.854 1.153 33.007-8.353 46.382-21.39 30.095-70.231 34.467-95.968 7.55-10.568-11.052-14.661-24.65-14.735-39.608-.129-26.276-.098-52.553-.134-78.83h23zm37.884 44.93c-3.537-.158-7.01.255-10.415 1.112-12.626 3.18-22.038 10.197-25.924 23.033-3.684 12.17-.867 23.094 7.92 32.262 14.776 15.418 41.252 15.48 56.254.275 12.673-12.843 12.733-32.485.037-45.286-7.653-7.718-17.1-11.24-27.872-11.396zM498.806 120.981c-3.465 12.657-14.511 20.611-27.43 20.924-21.806.53-66.47.17-66.47.17v-22.483s41.38-.238 59.535-.26c6.66-.007 9.853-1.929 10.44-6.155.547-3.935-1.942-6.783-7.953-8.721-13.904-4.484-27.839-8.873-41.757-13.311-19.081-6.084-23.297-21.11-19.853-37.003 2.157-9.95 9.267-15.83 18.75-18.936 3.17-1.039 6.435-1.91 9.758-1.925 19.809-.085 39.618-.042 59.746-.042v22.456s-35.472.088-50.629.13c-2.658.008-5.352.061-7.964.49-2.79.458-4.972 1.963-5.36 5.1-.386 3.131.651 5.626 3.646 6.922 2.429 1.05 4.932 1.952 7.454 2.76 12.646 4.055 25.343 7.95 37.954 12.109 4.926 1.624 9.681 4.056 13.38 7.751 4.394 4.388 6.753 10.32 7.601 16.395.646 4.625.34 9.29-.848 13.63z"/><path fill="#58863c" d="M220.133 143.315c-23.666-3.663-45.108-20.474-50.535-45.402-6.444-29.597 13.383-55.858 36.768-63.35V59.57c-1.13.984-2.392 2.052-3.62 3.158-16.922 15.242-14.679 40.27 4.683 52.291 16.109 10.002 37.339 7.548 50.03-5.784 11.987-12.594 11.998-31.683-.03-44.205-1.84-1.916-3.904-3.618-6.013-5.553v-25.25c9.723 3.555 17.708 9.02 24.193 16.574 23.318 27.16 13.212 69.78-17.713 86.342-11.818 6.33-25.109 8.13-37.763 6.171z"/><path fill="#fff" d="M0 57.181h25.231v83.97C12.616 141.15 0 131.415 0 123.18v-66zM25.165 23.778V46.18H0C0 34.98 12.583 23.778 25.165 23.778zM387.254 33.244v22.723s-35.515-.18-50.837-.144c-2.493.006-5.009.082-7.47.43-3.034.427-5.352 2.009-5.787 5.29-.42 3.16.971 5.517 3.848 6.874 1.494.705 3.065 1.268 4.64 1.772 12.489 3.997 24.987 7.961 37.48 11.945 1.58.504 3.16 1.019 4.71 1.608 17.497 6.645 25.293 26.435 16.81 43.116-5.327 10.479-14.9 14.79-25.86 15.043-21.962.508-43.944.151-66.273.151v-22.65s41.317-.054 59.47-.074c2.147-.002 4.296.13 6.365-.837 4.981-2.33 5.671-8.422 1.246-11.69-1.765-1.305-3.843-1.937-5.9-2.595-13.596-4.348-27.184-8.72-40.79-13.034-18.057-5.725-23.525-19.889-19.919-36.936 1.825-8.623 7.499-14.26 15.378-17.775 4.13-1.842 8.52-3.122 13.013-3.155 19.806-.145 39.613-.062 59.876-.062z"/><path fill="#58863c" d="M217.523 28.651c7.603-1.246 15.004-1.199 22.845-.028v63.12h-22.845V28.65z"/></g></switch></svg>
