<svg id="Layer_1" data-name="Layer 1" xmlns="http://www.w3.org/2000/svg" viewBox="0 0 975.49053 945.39002"><defs><style>.cls-1{fill:#68813c;}</style></defs><path class="cls-1" d="M420.67,939.28C228.35,909.51,54.11,772.9,10,570.32-42.36,329.81,118.76,116.41,308.8,55.52V258.75c-9.18,8-19.44,16.67-29.42,25.66C141.86,408.27,160.09,611.65,317.43,709.34c130.91,81.28,303.43,61.34,406.56-47,97.41-102.34,97.5-257.47-.23-359.23-15-15.57-31.74-29.39-48.87-45.12V52.8c79,28.89,143.9,73.31,196.6,134.69C1061,408.2,978.85,754.54,727.55,889.13,631.51,940.56,523.5,955.19,420.67,939.28ZM399.46,7.48c61.79-10.13,121.93-9.74,185.65-.23V520.18H399.46Z" transform="translate(0.00245 0.00012)"/></svg>