<?xml version="1.0" encoding="UTF-8" standalone="no"?>
<svg
   width="153"
   height="22"
   viewBox="0 0 153 22.000001"
   version="1.1"
   id="svg19"
   sodipodi:docname="Lumen Technologies logo.svg"
   inkscape:version="1.1 (c68e22c387, 2021-05-23)"
   xmlns:inkscape="http://www.inkscape.org/namespaces/inkscape"
   xmlns:sodipodi="http://sodipodi.sourceforge.net/DTD/sodipodi-0.dtd"
   xmlns="http://www.w3.org/2000/svg"
   xmlns:svg="http://www.w3.org/2000/svg">
  <sodipodi:namedview
     id="namedview21"
     pagecolor="#ffffff"
     bordercolor="#999999"
     borderopacity="1"
     inkscape:pageshadow="0"
     inkscape:pageopacity="0"
     inkscape:pagecheckerboard="0"
     showgrid="false"
     inkscape:zoom="6.6125"
     inkscape:cx="97.013233"
     inkscape:cy="10.964083"
     inkscape:window-width="1920"
     inkscape:window-height="1057"
     inkscape:window-x="-8"
     inkscape:window-y="-8"
     inkscape:window-maximized="1"
     inkscape:current-layer="svg19" />
  <defs
     id="defs4">
    <clipPath
       id="clip-path">
      <rect
         id="Rectangle_1718"
         data-name="Rectangle 1718"
         width="152.082"
         height="21.938999"
         transform="translate(165.988,54.533)"
         fill="none"
         x="0"
         y="0" />
    </clipPath>
  </defs>
  <g
     id="Lumen-logo"
     transform="translate(-165.988,-54.533)">
    <g
       id="Group_4657"
       data-name="Group 4657">
      <g
         id="Group_4656"
         data-name="Group 4656"
         clip-path="url(#clip-path)">
        <path
           id="Path_1127"
           data-name="Path 1127"
           d="m 165.988,56.133 v 18.189 c 0,1.1 0.641,1.6 1.875,1.6 h 17.193 c 1.189,0 1.874,-0.5 1.874,-1.6 0,-1.051 -0.685,-1.6 -1.874,-1.6 h -14.77 c -0.594,0 -0.823,-0.274 -0.823,-0.823 V 56.133 a 1.6,1.6 0 0 0 -1.737,-1.6 1.627,1.627 0 0 0 -1.738,1.6" />
        <path
           id="Path_1128"
           data-name="Path 1128"
           d="M 195.527,67.949 V 56.133 a 1.743,1.743 0 0 0 -3.475,0 v 12.136 c 0,7.362 4.572,8.2 12.483,8.2 7.911,0 12.483,-0.84 12.483,-8.2 V 56.133 a 1.743,1.743 0 0 0 -3.475,0 v 11.816 c 0,5.99 -3.2,5.184 -9.008,5.184 -5.808,0 -9.008,0.714 -9.008,-5.184" />
        <path
           id="Path_1129"
           data-name="Path 1129"
           d="M 250.9,59.883 V 74.6 a 1.6,1.6 0 0 0 1.737,1.6 1.576,1.576 0 0 0 1.738,-1.6 V 56.91 a 2.251,2.251 0 0 0 -2.2,-2.377 c -1.2,0 -1.723,0.679 -2.88,1.737 l -8.871,8.752 h -0.046 l -8.871,-8.706 c -1.137,-1.171 -2,-1.783 -3.018,-1.783 a 2.459,2.459 0 0 0 -2.24,2.377 V 74.6 a 1.6,1.6 0 0 0 1.737,1.6 1.576,1.576 0 0 0 1.738,-1.6 V 59.837 h 0.183 l 8.459,8.02 c 0.761,0.746 1.353,1.326 1.966,1.326 0.77,0 1.165,-0.6 2.012,-1.326 l 8.414,-7.974 z" />
        <path
           id="Path_1130"
           data-name="Path 1130"
           d="m 284.828,56.453 c 0,-1.051 -0.64,-1.646 -1.875,-1.646 h -17.376 c -1.234,0 -1.874,0.6 -1.874,1.646 v 1.594 l 19.3,-0.039 c 1.189,0 1.829,-0.549 1.829,-1.555"
           fill="#0c9ed9" />
        <path
           id="Path_1131"
           data-name="Path 1131"
           d="m 263.7,63.837 v 10.485 c 0,1.1 0.64,1.6 1.875,1.6 h 17.558 c 1.189,0 1.829,-0.5 1.829,-1.6 0,-1.052 -0.64,-1.6 -1.829,-1.6 H 268 c -0.594,0 -0.823,-0.275 -0.823,-0.823 V 67.08 h 11.431 c 1.235,0 1.875,-0.549 1.875,-1.6 0,-1 -0.64,-1.6 -1.875,-1.6 z" />
        <path
           id="Path_1132"
           data-name="Path 1132"
           d="M 318.07,74.139 V 56.133 a 1.626,1.626 0 0 0 -1.737,-1.6 1.6,1.6 0 0 0 -1.738,1.6 V 70.71 L 297.4,56.27 c -1.183,-0.993 -1.842,-1.737 -2.972,-1.737 -1.24,0 -2.057,0.823 -2.057,2.377 V 74.6 a 1.626,1.626 0 0 0 1.737,1.6 1.6,1.6 0 0 0 1.738,-1.6 V 59.7 l 17.01,14.622 c 1.139,0.968 1.929,1.875 3.109,1.875 a 2.031,2.031 0 0 0 2.1,-2.058" />
      </g>
    </g>
    <g
       id="Group_4660"
       data-name="Group 4660">
      <g
         id="Group_4659"
         data-name="Group 4659">
        <g
           id="Group_4658"
           data-name="Group 4658" />
      </g>
    </g>
  </g>
</svg>
