<svg id="Layer_1" data-name="Layer 1" xmlns="http://www.w3.org/2000/svg" viewBox="0 0 111.5087 77.208"><defs><style>.cls-1{fill:#00bceb;}</style></defs><path class="cls-1" d="M85.2729,51.21a6.61078,6.61078,0,1,1-6.6114-6.4756A6.42437,6.42437,0,0,1,85.2729,51.21Zm-6.6114-3.2901A3.2916,3.2916,0,1,0,81.92721,51.21,3.233,3.233,0,0,0,78.6615,47.9199Z"/><path class="cls-1" d="M68.7299,48.541a5.5135,5.5135,0,0,0-2.6563-.6679,3.34039,3.34039,0,1,0,0,6.6767,5.57543,5.57543,0,0,0,2.6563-.6641v3.3584a10.08026,10.08026,0,0,1-2.877.4454,6.48027,6.48027,0,1,1,0-12.9551,9.64615,9.64615,0,0,1,2.877.4482Z"/><path class="cls-1" d="M55.2465,47.7998a10.82929,10.82929,0,0,0-2.4678-.3818c-1.2656,0-1.9531.4238-1.9531,1.0254,0,.7617.9277,1.0273,1.4473,1.1914l.8711.2773a3.76363,3.76363,0,0,1,2.9824,3.57909c0,3.14261-2.7637,4.19831-5.1797,4.19831a18.82838,18.82838,0,0,1-3.4072-.3418V54.4688a11.83173,11.83173,0,0,0,2.9814.4648c1.57031,0,2.293-.459,2.293-1.168,0-.6338-.625-1-1.4082-1.2461-.1914-.0634-.47849-.15331-.6739-.2177-1.7587-.5557-3.22459-1.5889-3.22459-3.6602,0-2.3398,1.752-3.9111,4.66209-3.9111a13.47819,13.47819,0,0,1,3.0772.3984Z"/><rect class="cls-1" x="40.1166" y="44.9561" width="3.1572" height="12.5107"/><path class="cls-1" d="M35.7768,48.541a5.4821,5.4821,0,0,0-2.6524-.6679,3.34049,3.34049,0,1,0,0,6.6767,5.53973,5.53973,0,0,0,2.6524-.6641v3.3584a10.01525,10.01525,0,0,1-2.8789.4454,6.48011,6.48011,0,1,1,0-12.9551,9.61669,9.61669,0,0,1,2.8789.4482Z"/><rect class="cls-1" x="88.6103" y="29.9492" width="3.1572" height="6.4121" rx="1.5786"/><rect class="cls-1" x="80.00171" y="25.6377" width="3.1572" height="10.7236" rx="1.5786"/><rect class="cls-1" x="71.39306" y="19.7412" width="3.1572" height="19.7412" rx="1.5786"/><rect class="cls-1" x="62.78442" y="25.6377" width="3.1572" height="10.7236" rx="1.5786"/><rect class="cls-1" x="54.17577" y="29.9492" width="3.1572" height="6.4121" rx="1.5786"/><rect class="cls-1" x="45.56713" y="25.6377" width="3.1572" height="10.7236" rx="1.5786"/><rect class="cls-1" x="36.95849" y="19.7412" width="3.1572" height="19.7412" rx="1.5786"/><rect class="cls-1" x="28.34984" y="25.6377" width="3.1572" height="10.7236" rx="1.5786"/><rect class="cls-1" x="19.7412" y="29.9492" width="3.1572" height="6.4121" rx="1.5786"/></svg>