<svg id="856c89a1-4128-402a-a149-561440456a9f"  xmlns="http://www.w3.org/2000/svg"  viewBox="0 0 676.2 176.4"><defs/><path d="M419.7 46.4h1.8l9 20.9h-2.9l-2.5-5.9h-9.2l-2.5 5.9h-2.7l9-21Zm4.5 12.7-3.7-8.6-3.7 8.6h7.4ZM432.5 61.2v-9h2.6v8.7c0 3.4 1.4 4.5 3.6 4.5s5-1.9 5-4.3v-9h2.6v15.1H444l-.2-2.9a7 7 0 0 1-5.9 3.4c-4 0-5.4-2.8-5.4-6.6ZM449.6 66.1l.5-2c1 .6 3 1.5 5.1 1.5 2 0 3.4-.6 3.4-2.3 0-1.3-1.4-2-3.8-2.7-3.2-.8-4.7-2.5-4.7-4.5 0-2.3 1.8-4.4 5.5-4.4 2.5 0 4.7 1.3 4.7 1.3l-.5 2a8 8 0 0 0-4.2-1.2c-2 0-3 .8-3 2 0 1.3 1.2 2 3.2 2.5 3.4.9 5.2 2.4 5.2 4.4 0 3.2-2.4 5-5.8 5-3.3 0-5.6-1.6-5.6-1.6ZM466.3 54h-3.4v-1.8h3.4v-4.1h2.6v4.1h3.5V54h-3.5v13.2h-2.6V54ZM475.1 52.2h2.3l.2 2.9c1-1.9 3.3-3.3 5.8-3.3v2.8c-2.8-.5-5.6 1.2-5.6 3.7v9H475v-15ZM485.1 59.7c0-4.4 3-8 7.2-8a7 7 0 0 1 5.9 3.2l.1-2.7h2.3v15h-2.3l-.1-2.7a7 7 0 0 1-6 3.2c-4 0-7.1-3.6-7.1-8Zm13 0c0-3.6-2.3-5.8-5.2-5.8s-5.1 2.2-5.1 5.8 2.3 5.8 5.1 5.8 5.2-2.2 5.2-5.8ZM505 46.4h2.7v20.9H505v-21ZM512 46.4h2.7v2.8H512v-2.9Zm0 5.8h2.7v15H512v-15ZM518.2 59.7c0-4.4 3-8 7.2-8a7 7 0 0 1 6 3.2v-2.7h2.3v15h-2.3v-2.7a7 7 0 0 1-6 3.2c-4.1 0-7.2-3.6-7.2-8Zm13 0c0-3.6-2.3-5.8-5.1-5.8s-5.2 2.2-5.2 5.8 2.3 5.8 5.2 5.8 5.2-2.2 5.2-5.8ZM538.1 52.2h2.3l.2 2.9a7 7 0 0 1 5.9-3.3c4 0 5.4 2.8 5.4 6.5v9h-2.6v-8.8c0-3.3-1.4-4.4-3.6-4.4s-5 1.8-5 4.3v8.9h-2.6v-15ZM411.6 88.3c0-6.8 5.2-11 11.2-11 3 0 5.7.8 7.4 2.2v4.8a9.9 9.9 0 0 0-6.4-2.5c-3.5 0-6.2 2.3-6.2 6.5s2.7 6.4 6.2 6.4c2.5 0 4.7-1 6.4-2.4V97c-1.7 1.3-4.5 2-7.3 2-6 0-11.3-4-11.3-10.8ZM440 105.5h-5.2l3.3-7.6-6-14.2h5.2l3.4 8.7 3.4-8.7h5l-9.1 21.8ZM461.6 99.2c-1.8 0-4-.8-5.3-2.6l-.2 2.1h-5V77.8h5.5v7.7a6.6 6.6 0 0 1 5-2.2c4 0 7 3.3 7 8s-3 7.9-7 7.9ZM459.8 87c-2 0-3.4 1.5-3.4 4.1s1.5 4.1 3.4 4.1 3.4-1.5 3.4-4.1-1.5-4.1-3.4-4.1ZM485.5 91.8h-9.2c0 2 1.1 3.7 4.4 3.7 1.7 0 3.7-.7 4.8-1.6v3.5c-1.4 1-3.6 1.7-6.4 1.7-4.8 0-8.2-3.3-8.2-8s3.8-7.8 7.9-7.8 7 2.3 7 6c0 .8-.1 2-.3 2.5Zm-4.5-2.5c.4-1.6-.3-3-2.1-3-1.3 0-2.2.8-2.5 3h4.7ZM494.7 91.2v7.5h-5.4v-15h5l.2 2.6c.8-1.6 2.8-3 5.3-3v5c-2.6-.8-5.1.3-5.1 3ZM508.7 96.4l1.2-4c1.6 1.2 3.9 2.7 6.6 2.7 1.7 0 3-.6 3-2.1 0-1.4-.9-1.9-3.8-2.6-4.8-1.1-6.5-3.7-6.5-6.8 0-3.8 3-6.3 7.7-6.3 2.8 0 5.2 1 6.9 2.2l-1.2 3.7c-1.5-1-3.7-1.8-5.8-1.8-1.4 0-2.4.7-2.4 1.7s.6 1.5 3 2.1c5.2 1.2 7.4 3.4 7.4 7.2 0 5-4 6.8-8.3 6.8-3.6 0-6.2-1.4-7.8-2.8ZM541.8 91.8h-9.3c0 2 1.2 3.7 4.5 3.7 1.7 0 3.6-.7 4.7-1.6v3.5c-1.4 1-3.5 1.7-6.4 1.7-4.8 0-8.1-3.3-8.1-8s3.8-7.8 7.8-7.8 7 2.3 7 6c0 .8 0 2-.2 2.5Zm-4.5-2.5c.3-1.6-.4-3-2.2-3-1.2 0-2.2.8-2.5 3h4.7ZM544.6 91.2c0-4.7 3.6-8 8-8 2.4 0 4.4.7 5.6 1.6v3.8a6 6 0 0 0-4-1.4c-2.4 0-4.2 1.5-4.2 4s1.8 4 4.1 4a6 6 0 0 0 4-1.4v3.9a9.1 9.1 0 0 1-5.5 1.5c-4.4 0-8-3.3-8-8ZM577.6 98.7h-5l-.2-2.6c-1 2-3.3 3-5.3 3-4 0-5.6-2.7-5.6-6.5v-9h5.4v8c0 2.5.7 3.4 2.3 3.4 1.6 0 3-1.6 3-3.4v-8h5.4v15.1ZM587 91.2v7.5h-5.4v-15h5l.2 2.6c.8-1.6 2.8-3 5.3-3v5c-2.6-.8-5.1.3-5.1 3ZM594.5 81.5v-3.7h5.4v3.7h-5.4Zm0 17.2v-15h5.4v15h-5.4ZM610.8 87.1v11.6h-5.4V87.1h-3v-3.4h3v-4.1h5.4v4h2.9v3.5h-3ZM623 105.5h-5.2l3.3-7.6-6-14.2h5.2l3.4 8.7 3.4-8.7h5l-9.1 21.8ZM411.7 119.8c0-6.8 5-11 11.1-11 2.7 0 5.5 1 7.3 2.3v2.8c-1.8-1.5-4-2.7-7.3-2.7-4.8 0-8.2 3.3-8.2 8.6s3.4 8.5 8.2 8.5c3.2 0 5.5-1.2 7.3-2.7v2.9a12.8 12.8 0 0 1-7.3 2.2c-6 0-11.1-4.2-11.1-11ZM432.7 122.6c0-4.9 3.6-7.9 7.3-7.9s6.4 2.5 6.4 5.9l-.2 1.7h-11c-.1 2.6 1.1 6.2 6 6.2 1.6 0 3.7-.9 4.9-2v2.4a9.7 9.7 0 0 1-5.9 1.7c-4.4 0-7.5-3.3-7.5-8Zm11.1-2.1c.3-2-1.3-3.7-3.7-3.7-2.2 0-4.1 1.2-4.6 3.7h8.3ZM450.2 115.2h2.3l.1 2.8a7 7 0 0 1 5.9-3.3c4 0 5.4 2.8 5.4 6.6v9h-2.6v-8.8c0-3.4-1.3-4.5-3.5-4.5s-5 1.9-5 4.3v9h-2.6v-15.1ZM469.7 117h-3.4v-1.8h3.4V111h2.6v4.2h3.5v1.8h-3.5v13.2h-2.6V117ZM478.5 115.2h2.3l.2 2.8c1-1.8 3.3-3.3 5.8-3.3v2.9c-2.8-.5-5.6 1.1-5.6 3.7v9h-2.7v-15.1ZM488.5 122.6c0-4.9 3.6-7.9 7.3-7.9s6.4 2.5 6.4 5.9c0 .5 0 1.2-.2 1.7h-10.9c-.2 2.6 1 6.2 5.9 6.2 1.7 0 3.8-.9 5-2v2.4a9.7 9.7 0 0 1-6 1.7c-4.4 0-7.5-3.3-7.5-8Zm11.2-2.1c.3-2-1.3-3.7-3.8-3.7-2.1 0-4 1.2-4.5 3.7h8.3ZM206.9 114.3a37 37 0 1 1 0-52.2 3.6 3.6 0 0 0 5 0 3.6 3.6 0 0 0 0-5 44.1 44.1 0 1 0 0 62.3c1.4-1.4 1.4-3.7 0-5s-3.6-1.5-5 0ZM380 114.3a3.6 3.6 0 0 0-5 0 37 37 0 1 1 0-52.2 3.6 3.6 0 0 0 5 0 3.6 3.6 0 0 0 0-5 44.1 44.1 0 1 0 0 62.3 3.6 3.6 0 0 0 0-5ZM89.8 44.5c-1.8-.9-4-.1-4.8 1.6l-40.5 81a3.6 3.6 0 1 0 6.4 3.3l40.4-81c1-1.9.2-4-1.6-4.9ZM116.6 96.6l-.4-.4-.4-.6-.6-.4-.6-.3-.7-.2H84a3.6 3.6 0 0 0 0 7h27l14.3 28.6a3.6 3.6 0 0 0 4.8 1.6c1.8-.8 2.5-3 1.6-4.7l-15.2-30.6ZM270.6 87.8a3.6 3.6 0 0 0-2.5 6.7c9.7 3.6 13.1 7.3 13.1 14 0 10.8-10.6 16.6-20.7 16.6s-18-3.3-25.8-11a3.6 3.6 0 0 0-5 0 3.6 3.6 0 0 0 0 5 41 41 0 0 0 30.8 13.2 32 32 0 0 0 18.6-6 22 22 0 0 0 9.3-17.9c0-12.4-9-17.4-17.8-20.6ZM247.3 87a3.6 3.6 0 0 0 4.8-1.7c.8-1.8 0-3.9-1.8-4.7-7.4-3.4-10.5-7.2-10.5-12.7 0-8 7.9-16.7 20.7-16.7 10.8 0 17.7 3.3 21.1 10.2a3.6 3.6 0 1 0 6.4-3.2c-4.7-9.4-14-14.1-27.5-14.1s-27.9 9-27.9 23.8c0 11.1 8.4 16.3 14.7 19.2Z" class="cls-1"/></svg>