<svg viewBox="0 0 32 32" class="" role="presentation" focusable="false" xmlns="http://www.w3.org/2000/svg" xmlns:xlink="http://www.w3.org/1999/xlink" id="FxSymbol0-071" data-type="1"><g><title></title><path d="M30 5.098c0 .754-.611 1.365-1.366 1.365H3.366A1.366 1.366 0 0 1 2 5.098V2.366C2 1.61 2.612 1 3.366 1h25.268C29.39 1 30 1.611 30 2.366v2.732Z" fill="#50E6FF"></path><path fill-rule="evenodd" clip-rule="evenodd" d="M3.366 8.453C2.612 8.453 2 9.064 2 9.819v3.355c0 .754.612 1.366 1.366 1.366H6.72c.754 0 1.366-.612 1.366-1.366V9.819c0-.755-.612-1.366-1.366-1.366H3.366Zm0 7.913c-.754 0-1.366.611-1.366 1.366v3.355c0 .754.612 1.366 1.366 1.366H6.72c.754 0 1.366-.612 1.366-1.366v-3.355c0-.755-.612-1.366-1.366-1.366H3.366ZM2 25.645c0-.755.612-1.366 1.366-1.366H6.72c.754 0 1.366.611 1.366 1.366V29c0 .754-.612 1.366-1.366 1.366H3.366A1.366 1.366 0 0 1 2 29v-3.355Zm9.279-17.192c-.754 0-1.366.611-1.366 1.366v3.355c0 .754.612 1.366 1.366 1.366h17.355c.755 0 1.366-.612 1.366-1.366V9.819c0-.755-.611-1.366-1.366-1.366H11.28Zm-1.366 9.279c0-.755.612-1.366 1.366-1.366h17.355c.755 0 1.366.611 1.366 1.366v3.355c0 .754-.611 1.366-1.366 1.366H11.28a1.366 1.366 0 0 1-1.366-1.366v-3.355Zm1.366 6.547c-.754 0-1.366.611-1.366 1.366V29c0 .754.612 1.366 1.366 1.366h17.355C29.39 30.366 30 29.754 30 29v-3.355c0-.755-.611-1.366-1.366-1.366H11.28Z" fill="url(#8af638e6-5312-433b-8d7c-6296057ce210)"></path><defs></defs></g><defs>
<linearGradient id="8af638e6-5312-433b-8d7c-6296057ce210" x1="1.99" y1="19.392" x2="29.947" y2="19.392" gradientUnits="userSpaceOnUse"><stop offset=".1" stop-color="#54AEF0"></stop><stop offset="1" stop-color="#1988D9"></stop></linearGradient>
</defs>
</svg>