<!-- Generated by IcoMoon.io -->
<svg version="1.1" xmlns="http://www.w3.org/2000/svg" width="1024" height="1024" viewBox="0 0 1024 1024">
<path fill="#50e6ff" d="M960 163.136c0 24.128-19.552 43.68-43.712 43.68h-808.576c-24.128 0-43.68-19.552-43.712-43.68v-87.424c0-24.192 19.584-43.712 43.712-43.712h808.576c24.192 0 43.712 19.552 43.712 43.712v87.424z"></path>
<path fill="#000" d="M107.712 270.496c-24.128 0-43.712 19.552-43.712 43.712v107.36c0 24.128 19.584 43.712 43.712 43.712h107.328c24.128 0 43.712-19.584 43.712-43.712v-107.36c0-24.16-19.584-43.712-43.712-43.712h-107.328zM107.712 523.712c-24.128 0-43.712 19.552-43.712 43.712v107.36c0 24.128 19.584 43.712 43.712 43.712h107.328c24.128 0 43.712-19.584 43.712-43.712v-107.36c0-24.16-19.584-43.712-43.712-43.712h-107.328zM64 820.64c0-24.16 19.584-43.712 43.712-43.712h107.328c24.128 0 43.712 19.552 43.712 43.712v107.36c0 24.128-19.584 43.712-43.712 43.712h-107.328c-24.128 0-43.712-19.584-43.712-43.712v-107.36zM360.928 270.496c-24.128 0-43.712 19.552-43.712 43.712v107.36c0 24.128 19.584 43.712 43.712 43.712h555.36c24.16 0 43.712-19.584 43.712-43.712v-107.36c0-24.16-19.552-43.712-43.712-43.712h-555.328zM317.216 567.424c0-24.16 19.584-43.712 43.712-43.712h555.36c24.16 0 43.712 19.552 43.712 43.712v107.36c0 24.128-19.552 43.712-43.712 43.712h-555.328c-24.128 0-43.712-19.584-43.712-43.712v-107.36zM360.928 776.928c-24.128 0-43.712 19.552-43.712 43.712v107.36c0 24.128 19.584 43.712 43.712 43.712h555.36c24.192 0 43.712-19.584 43.712-43.712v-107.36c0-24.16-19.552-43.712-43.712-43.712h-555.328z"></path>
</svg>
