<svg width="383" height="230" viewBox="0 0 383 230" fill="none" xmlns="http://www.w3.org/2000/svg">
    <path
        d="M303.478 129.282L303.268 202.996C303.253 208.692 299.279 210.983 294.39 208.123L174.213 137.812C171.634 136.104 169.493 133.813 167.96 131.125C166.427 128.437 165.547 125.426 165.389 122.335L165.6 48.6204L303.478 129.282Z"
        fill="#F4F4F4" />
    <path
        d="M300.688 208.747L306.168 205.517C307.762 204.58 308.741 202.595 308.756 199.767L303.275 202.996C303.26 205.824 302.273 207.81 300.688 208.747Z"
        fill="#DCDCDC" />
    <path d="M303.478 129.283L303.268 202.989L308.749 199.767L308.959 126.053L303.478 129.283Z" fill="#DCDCDC" />
    <path d="M303.478 112.227L308.959 108.999L308.908 126.549L303.436 129.771L303.478 112.227Z" fill="#D2D2D2" />
    <path
        d="M294.654 96.7489C297.234 98.456 299.377 100.746 300.91 103.435C302.443 106.124 303.322 109.136 303.478 112.227L303.432 129.771L165.546 49.1165L165.592 31.5745C165.607 25.8871 169.588 23.5865 174.471 26.4459L294.654 96.7489Z"
        fill="#E2E2E2" />
    <path
        d="M173.662 22.5861L168.181 25.8162C169.79 24.8703 172.021 24.9984 174.477 26.439L179.953 23.2144C177.502 21.767 175.271 21.6416 173.662 22.5861Z"
        fill="#D2D2D2" />
    <path
        d="M300.134 93.5201L179.953 23.2143L174.472 26.4431L294.648 96.7461C297.228 98.4532 299.371 100.744 300.904 103.432C302.437 106.121 303.317 109.133 303.472 112.225L308.953 108.996C308.798 105.905 307.919 102.894 306.387 100.206C304.855 97.5177 302.713 95.2275 300.134 93.5201Z"
        fill="#D2D2D2" />
    <path d="M227.943 121.405L227.778 179.489L216.679 173.075L216.843 114.995L227.943 121.405Z" fill="#45CAF2" />
    <path d="M227.943 121.405L234.626 117.52L234.461 175.6L227.778 179.489L227.943 121.405Z" fill="#2195DC" />
    <path d="M216.844 114.995L223.531 111.106L234.627 117.52L227.944 121.405L216.844 114.995Z" fill="#32B0E7" />
    <path d="M242.95 123.668L242.769 188.152L231.67 181.739L231.85 117.254L242.95 123.668Z" fill="#50E6FF" />
    <path d="M242.95 123.668L249.636 119.782L249.453 184.263L242.77 188.152L242.95 123.668Z" fill="#32B0E7" />
    <path d="M231.85 117.254L238.536 113.368L249.636 119.782L242.95 123.668L231.85 117.254Z" fill="#45CAF2" />
    <path d="M257.862 160.219L257.758 196.812L246.661 190.399L246.762 153.806L257.862 160.219Z" fill="#84ECFD" />
    <path d="M257.862 160.219L264.545 156.331L264.441 192.924L257.758 196.812L257.862 160.219Z" fill="#45CAF2" />
    <path d="M246.762 153.806L253.448 149.917L264.545 156.331L257.862 160.219L246.762 153.806Z" fill="#50E6FF" />
    <path d="M272.884 157.669L272.748 205.476L261.649 199.062L261.785 151.255L272.884 157.669Z" fill="#ACF3FD" />
    <path d="M272.884 157.669L279.568 153.78L279.432 201.587L272.749 205.476L272.884 157.669Z" fill="#50E6FF" />
    <path d="M261.785 151.255L268.468 147.367L279.567 153.78L272.884 157.669L261.785 151.255Z" fill="#84ECFD" />
    <path
        d="M114.102 130.731C101.905 123.685 82.2052 123.685 70.0911 130.731C64.0767 134.23 61.0647 138.809 61.0503 143.397L61.0851 131.392C61.0995 126.802 64.1115 122.223 70.1259 118.724C82.2411 111.678 101.94 111.678 114.137 118.724C120.269 122.267 123.336 126.925 123.32 131.57L123.287 143.57C123.301 138.931 120.24 134.279 114.102 130.731Z"
        fill="#0078D4" />
    <path opacity="0.4"
        d="M114.027 122.278C101.83 115.232 82.1307 115.232 70.0178 122.278C57.905 129.324 57.9686 140.748 70.1714 147.791C82.3742 154.835 102.068 154.838 114.176 147.791C126.284 140.745 126.219 129.324 114.027 122.278Z"
        fill="#ACF3FD" />
    <path
        d="M64.9295 115.751C79.9068 107.042 104.266 107.042 119.342 115.751C134.419 124.46 134.491 138.582 119.514 147.296C104.537 156.009 80.1779 156.005 65.107 147.296C50.0362 138.587 49.9522 124.46 64.9295 115.751ZM114.116 118.738C101.919 111.692 82.2195 111.692 70.1067 118.738C57.9938 125.784 58.0574 137.206 70.2542 144.252C82.451 151.298 102.151 151.298 114.259 144.252C126.367 137.206 126.309 125.787 114.116 118.738Z"
        fill="#32B0E7" />
    <path
        d="M65.1421 159.113C57.555 154.731 53.7693 148.978 53.7837 143.229L53.8185 131.23C53.8029 136.973 57.5898 142.726 65.1768 147.113C80.2477 155.822 104.611 155.822 119.584 147.113C127.021 142.791 130.75 137.121 130.765 131.452L130.731 143.457C130.715 149.132 126.988 154.792 119.549 159.119C104.572 167.822 80.2129 167.822 65.1421 159.113Z"
        fill="#156AB3" />
    <path
        d="M132.825 156.527C132.775 157.475 132.502 158.399 132.027 159.221C131.553 160.044 130.89 160.742 130.094 161.259C129.817 161.459 129.492 161.581 129.153 161.613C128.813 161.645 128.471 161.586 128.162 161.442L119.061 156.182C118.783 155.982 118.563 155.711 118.423 155.398C118.283 155.086 118.228 154.741 118.263 154.401C118.313 153.452 118.586 152.529 119.061 151.707C119.535 150.885 120.198 150.186 120.993 149.669C121.269 149.469 121.593 149.347 121.932 149.315C122.271 149.283 122.613 149.342 122.921 149.487L132.022 154.746C132.301 154.946 132.522 155.215 132.663 155.528C132.804 155.841 132.86 156.185 132.825 156.527Z"
        fill="#32B0E7" />
    <path
        d="M132.509 152.974L163.623 170.95L157.385 181.771L126.268 163.795C125.818 163.472 125.461 163.035 125.234 162.529C125.007 162.023 124.918 161.465 124.976 160.914C125.058 159.38 125.501 157.887 126.268 156.557C127.036 155.227 128.107 154.098 129.394 153.261C129.84 152.939 130.365 152.742 130.913 152.691C131.461 152.641 132.012 152.739 132.509 152.974Z"
        fill="#156AB3" />
    <path
        d="M164.915 173.827C164.915 171.004 162.938 169.845 160.502 171.246C159.214 172.082 158.143 173.212 157.376 174.542C156.608 175.872 156.166 177.365 156.085 178.899C156.085 181.727 158.062 182.885 160.502 181.484C161.787 180.646 162.857 179.515 163.624 178.184C164.391 176.854 164.833 175.361 164.915 173.827Z"
        fill="#1D4A79" />
    <path
        d="M200.144 123.121L198.01 124.363C198.627 124.003 199.012 123.239 199.015 122.152L201.148 120.91C201.145 121.997 200.764 122.761 200.144 123.121Z"
        fill="#156AB3" />
    <path d="M199.102 100.281L201.236 99.0391L201.164 120.915L199.03 122.154L199.102 100.281Z" fill="#156AB3" />
    <path
        d="M199.12 93.5773C199.126 91.3901 197.589 88.7243 195.685 87.6246L148.895 60.5878C146.994 59.4881 145.445 60.3727 145.439 62.5599L145.42 69.3062L145.423 69.3078L145.36 91.1044C145.354 93.2916 146.895 95.9574 148.796 97.0571L195.582 124.097C197.486 125.197 199.033 124.315 199.039 122.125L199.121 93.7763L199.12 93.5773Z"
        fill="#2195DC" />
    <path
        d="M157.837 79.2377C157.559 79.4598 157.206 79.5338 156.798 79.4598L161.975 90.3225C162.197 90.0819 162.513 89.9709 162.847 89.9709L157.837 79.2377Z"
        fill="#45CAF2" />
    <path
        d="M170.918 91.6365C170.585 91.1369 170.325 90.5817 170.195 90.0265L165.223 91.618C165.557 92.1177 165.816 92.6543 165.965 93.2095L170.918 91.6365Z"
        fill="#45CAF2" />
    <path
        d="M174.425 92.6733C174.221 93.0619 173.905 93.284 173.497 93.3395L178.636 102.278C178.84 101.889 179.174 101.667 179.601 101.611L174.425 92.6733Z"
        fill="#45CAF2" />
    <path
        d="M185.983 102.629C185.594 102.148 185.278 101.574 185.056 101L181.753 102.832C182.161 103.332 182.514 103.924 182.737 104.535L185.983 102.629Z"
        fill="#45CAF2" />
    <path
        d="M161.795 89.3302C161.536 89.6078 161.369 90.0334 161.369 90.5886C161.369 92.0135 162.408 93.8085 163.651 94.5302C164.894 95.252 165.951 94.6598 165.951 93.2349C165.951 92.9203 165.896 92.5872 165.803 92.2356C165.654 91.6804 165.395 91.1252 165.061 90.6441C164.671 90.0704 164.189 89.5893 163.669 89.2932C163.317 89.0896 162.983 88.9971 162.686 88.9971C162.333 88.9786 162.036 89.1081 161.795 89.3302Z"
        fill="#45CAF2" />
    <path
        d="M170.38 88.0433C170.121 88.3209 169.954 88.7466 169.954 89.3017C169.954 90.7266 170.992 92.5217 172.236 93.2434C173.479 93.9651 174.536 93.3729 174.536 91.948C174.536 91.6334 174.48 91.3003 174.388 90.9487C174.239 90.3935 173.98 89.8384 173.646 89.3572C173.256 88.7836 172.774 88.3024 172.254 88.0063C171.902 87.8028 171.568 87.7102 171.271 87.7102C170.918 87.6732 170.603 87.8028 170.38 88.0433Z"
        fill="#45CAF2" />
    <path
        d="M178.813 101.609C178.553 101.886 178.386 102.312 178.386 102.867C178.386 104.292 179.425 106.087 180.668 106.809C181.911 107.53 182.969 106.938 182.969 105.513C182.969 105.199 182.913 104.866 182.82 104.514C182.672 103.959 182.412 103.404 182.078 102.922C181.689 102.349 181.206 101.868 180.687 101.572C180.334 101.368 180 101.275 179.703 101.275C179.351 101.257 179.035 101.386 178.813 101.609Z"
        fill="#45CAF2" />
    <path
        d="M184.703 98.6874C184.443 98.965 184.276 99.3906 184.276 99.9458C184.276 101.371 185.315 103.166 186.558 103.887C187.801 104.609 188.859 104.017 188.859 102.592C188.859 102.277 188.803 101.944 188.71 101.593C188.562 101.038 188.302 100.482 187.968 100.001C187.579 99.4277 187.096 98.9465 186.577 98.6504C186.224 98.4469 185.89 98.3543 185.594 98.3543C185.241 98.3358 184.926 98.4654 184.703 98.6874Z"
        fill="#45CAF2" />
    <path
        d="M155.887 74.2889C154.644 73.5672 153.587 74.1593 153.587 75.5843C153.587 77.0092 154.626 78.8042 155.869 79.5259C156.11 79.674 156.351 79.748 156.574 79.8035C156.982 79.8776 157.335 79.8035 157.613 79.5815C157.947 79.3224 158.169 78.8412 158.169 78.2121C158.169 76.8056 157.13 75.0106 155.887 74.2889Z"
        fill="#45CAF2" />
    <path
        d="M146.445 60.3465L148.579 59.1044C149.205 58.7409 150.074 58.7894 151.03 59.3438L148.896 60.5858C147.94 60.0344 147.071 59.9829 146.445 60.3465Z"
        fill="#156AB3" />
    <path d="M199.12 93.5785L201.254 92.3365L201.233 99.0858L199.102 100.325L199.12 93.5785Z" fill="#156AB3" />
    <path d="M148.897 60.5885L151.031 59.3465L197.818 86.3834L195.684 87.6254L148.897 60.5885Z" fill="#156AB3" />
    <path
        d="M195.684 87.6259L197.817 86.3838C199.721 87.4835 201.259 90.1493 201.253 92.3365L199.119 93.5785C199.125 91.3913 197.587 88.7255 195.684 87.6259Z"
        fill="#156AB3" />
    <path
        d="M200.092 164.224L197.958 165.466C198.575 165.106 198.96 164.342 198.963 163.255L201.097 162.013C201.094 163.1 200.712 163.864 200.092 164.224Z"
        fill="#2195DC" />
    <path d="M145.369 121.024L147.502 119.785L201.181 150.803L199.047 152.045L145.369 121.024Z" fill="#D2D2D2" />
    <path
        d="M146.369 112.067L148.503 110.825C149.13 110.461 149.998 110.51 150.955 111.064L148.821 112.306C147.864 111.755 146.996 111.703 146.369 112.067Z"
        fill="#2195DC" />
    <path d="M199.044 145.299L201.178 144.057L201.089 162.018L198.958 163.257L199.044 145.299Z" fill="#2195DC" />
    <path d="M148.821 112.309L150.955 111.067L197.742 138.104L195.608 139.346L148.821 112.309Z" fill="#2195DC" />
    <path
        d="M199.045 145.298C199.051 143.11 197.513 140.445 195.609 139.345L148.819 112.308C146.919 111.209 145.369 112.093 145.363 114.28L145.351 118.756L145.285 132.236C145.279 134.423 146.819 137.089 148.72 138.188L195.507 165.228C197.411 166.328 198.957 165.446 198.963 163.256L199.018 152.039L199.026 152.044L199.036 148.414L199.045 146.665L199.041 146.663L199.045 145.298Z"
        fill="#32B0E7" />
    <path d="M180.723 142.256L153.524 126.383V122.99L180.723 138.862V142.256Z" fill="#50E6FF" />
    <path d="M168.292 141.933L153.524 133.318V129.925L168.292 138.539V141.933Z" fill="#50E6FF" />
    <path d="M188.799 146.699L181.917 142.712V139.319L188.799 143.305V146.699Z" fill="#84ECFD" />
    <path d="M176.185 146.4L169.303 142.413V139.02L176.185 143.006V146.4Z" fill="#84ECFD" />
    <path
        d="M195.608 139.346L197.742 138.104C199.646 139.204 201.184 141.87 201.178 144.057L199.044 145.299C199.05 143.112 197.512 140.446 195.608 139.346Z"
        fill="#2195DC" />
</svg>