<svg width="75" height="75" viewBox="0 0 75 75" fill="none" xmlns="http://www.w3.org/2000/svg">
    <g>
        <path d="M2.68005 36.2674C2.63145 36.204 2.55585 36.1667 2.47582 36.1667C2.37613 36.1667 2.28502 36.2245 2.24293 36.3147L0.0279691 40.7323C0.0095538 40.7689 0 40.8094 0 40.8504C0 40.9953 0.119492 41.1145 0.264737 41.1145H3.34895C3.44975 41.1169 3.5428 41.0594 3.58572 40.9685C4.25103 39.5971 3.84783 37.5119 2.68005 36.2674V36.2674Z" fill="#0052CC"/>
        <path d="M4.33727 32.1434C3.20477 33.8854 3.07377 36.1017 3.9929 37.9649L5.49437 40.9668C5.53953 41.0573 5.63236 41.1146 5.73345 41.1146H8.84725C8.99391 41.1146 9.11457 40.994 9.11457 40.8473C9.11457 40.8058 9.10493 40.7649 9.08633 40.7278C9.06774 40.6908 4.89722 32.3512 4.79194 32.1417C4.74972 32.0552 4.66136 32 4.56502 32C4.46799 32 4.37921 32.0559 4.33727 32.1434V32.1434Z" fill="#0052CC"/>
        <path d="M41.1811 35.8135C41.1811 36.9327 41.7095 37.8212 43.7765 38.2135C45.0097 38.4679 45.2681 38.6635 45.2681 39.0673C45.2681 39.4596 45.0092 39.7136 44.1406 39.7136C43.0909 39.6951 42.0619 39.4215 41.1458 38.9174V40.7404C41.7683 41.0404 42.5903 41.375 44.1171 41.375C46.278 41.375 47.1354 40.4282 47.1354 39.0211L41.1811 35.8135ZM47.1354 39.0211C47.1354 37.6942 46.419 37.071 44.399 36.6442C43.2833 36.4019 43.0132 36.1597 43.0132 35.8135C43.0132 35.3754 43.4125 35.1904 44.1524 35.1904C45.045 35.1904 45.9258 35.4558 46.7596 35.825V34.0826C45.9602 33.7251 45.0893 33.5478 44.211 33.5635C42.2145 33.5635 41.1811 34.4173 41.1811 35.8135" fill="#0052CC"/>
        <path d="M68.4896 33.5625V41.1146H70.0802V35.3557L70.7506 36.8844L73.0003 41.1146H75V33.5625H73.4094V38.4363L72.8071 37.0224L71.0006 33.5625H68.4896Z" fill="#0052CC"/>
        <path d="M56.5104 33.5625H58.0729V41.1146H56.5104V33.5625Z" fill="#0052CC"/>
        <path d="M54.4271 39.0211C54.4271 37.6942 53.7107 37.071 51.6907 36.6442C50.575 36.4019 50.3049 36.1597 50.3049 35.8135C50.3049 35.3754 50.7041 35.1904 51.444 35.1904C52.3366 35.1904 53.2175 35.4558 54.0513 35.825V34.0826C53.2518 33.7251 52.3809 33.5478 51.5027 33.5635C49.5062 33.5635 48.4727 34.4173 48.4727 35.8135C48.4727 36.9327 49.0012 37.8212 51.0682 38.2135C52.3014 38.4679 52.5597 38.6635 52.5597 39.0673C52.5597 39.4596 52.3008 39.7136 51.4322 39.7136C50.3825 39.6951 49.3536 39.4215 48.4375 38.9174V40.7404C49.06 41.0404 49.882 41.375 51.4088 41.375C53.5697 41.375 54.4271 40.4282 54.4271 39.0211" fill="#0052CC"/>
        <path d="M27.6042 33.5625V41.1146H31.204L31.7708 39.4823H29.3669V33.5625H27.6042Z" fill="#0052CC"/>
        <path d="M20.3125 33.5625V35.1947H22.3248V41.1146H24.1477V35.1947H26.3021V33.5625H20.3125Z" fill="#0052CC"/>
        <path d="M17.6916 33.5625H15.3821L12.7604 41.1146H14.7625L15.1342 39.8427C16.0495 40.1127 17.023 40.1127 17.9383 39.8427L18.3099 41.1146H20.3125L17.6916 33.5625ZM16.5368 38.4808C16.2107 38.4808 15.8862 38.4339 15.5733 38.3416L16.5368 35.0459L17.5003 38.3427C17.1874 38.4346 16.8629 38.4811 16.5368 38.4808V38.4808Z" fill="#0052CC"/>
        <path d="M37.3925 33.5625H35.0036L32.2917 41.1146H34.3632L34.7476 39.8427C35.6944 40.1127 36.7014 40.1127 37.6482 39.8427L38.0327 41.1146H40.1042L37.3925 33.5625ZM36.1981 38.4808C35.8607 38.4808 35.5251 38.4339 35.2014 38.3416L36.1981 35.0459L37.1947 38.3427C36.871 38.4346 36.5354 38.4811 36.1981 38.4808V38.4808Z" fill="#0052CC"/>
        <path d="M64.5661 33.5625H62.2569L59.6354 41.1146H61.6378L62.0095 39.8427C62.9247 40.1127 63.8981 40.1127 64.8133 39.8427L65.185 41.1146H67.1875L64.5661 33.5625ZM63.4108 38.4808C63.0847 38.4808 62.7603 38.4339 62.4474 38.3416L63.4108 35.0459L64.3743 38.3427C64.0613 38.4346 63.7369 38.4811 63.4108 38.4808V38.4808Z" fill="#0052CC"/>
    </g>
</svg>
