<svg width="18" height="18" viewBox="0 0 18 18" fill="none" xmlns="http://www.w3.org/2000/svg">
<g clip-path="url(#e15798ab-b2c5-447c-9aee-c74b110cb544)">
<path d="M10.577 8.8C10.1472 8.8 9.73491 8.62939 9.43078 8.32563C9.12665 8.02188 8.95553 7.60983 8.955 7.18C8.54757 7.18453 8.15146 7.31471 7.82078 7.55277C7.49009 7.79082 7.24095 8.12515 7.10737 8.51009C6.97379 8.89503 6.96229 9.31182 7.07443 9.70354C7.18657 10.0953 7.41689 10.4428 7.73394 10.6988C8.05099 10.9547 8.43931 11.1065 8.84587 11.1335C9.25244 11.1605 9.65742 11.0614 10.0055 10.8496C10.3536 10.6378 10.6279 10.3238 10.7908 9.95033C10.9538 9.57688 10.9975 9.16222 10.916 8.763C10.8046 8.78709 10.691 8.7995 10.577 8.8Z" fill="url(#a72d6332-1ed4-4600-9e81-04168c50066c)"/>
<path d="M12.862 11.231C12.7895 10.5174 12.5659 9.82744 12.206 9.207C12.1557 10.0236 11.7962 10.7904 11.2006 11.3514C10.605 11.9124 9.81817 12.2255 9 12.227C8.923 12.227 8.851 12.21 8.776 12.204C7.07604 12.1816 5.44744 11.5172 4.217 10.344C3.1591 9.32765 2.37458 8.06092 1.936 6.661C1.3571 7.18713 0.808861 7.74605 0.294 8.335C0.201769 8.42012 0.128164 8.52341 0.0778209 8.63838C0.0274778 8.75335 0.00148773 8.87749 0.00148773 9.003C0.00148773 9.12851 0.0274778 9.25265 0.0778209 9.36762C0.128164 9.48259 0.201769 9.58588 0.294 9.671C1.40071 10.9981 2.70456 12.1475 4.16 13.079C5.62373 14.0821 7.35653 14.6193 9.131 14.62C10.2842 14.6265 11.4221 14.3559 12.449 13.831C12.514 13.801 12.57 13.761 12.634 13.731C12.8616 12.9185 12.9389 12.0713 12.862 11.231V11.231Z" fill="url(#b1a05856-62b4-4aad-b49b-76e766082268)"/>
<path d="M6.158 10.5C5.82588 9.88832 5.70383 9.18449 5.8106 8.4967C5.91737 7.8089 6.24706 7.1752 6.749 6.693C7.55962 5.60185 8.69594 4.79644 9.994 4.393C10.7017 4.1769 11.4362 4.06111 12.176 4.049C11.5808 3.79106 10.9576 3.60313 10.319 3.489C8.57029 3.19461 6.77333 3.49123 5.212 4.332C4.33842 4.7851 3.51404 5.32732 2.752 5.95C3.1117 7.32294 3.83754 8.57241 4.852 9.565C5.24328 9.93401 5.68258 10.2485 6.158 10.5V10.5Z" fill="url(#cd386209-a692-4bef-b7d5-514d43f4e5fa)"/>
<path d="M17.73 8.379C16.7528 7.20844 15.6242 6.17303 14.374 5.3C13.0667 4.94302 11.6867 4.94993 10.383 5.32C9.99125 5.43923 9.61342 5.60015 9.256 5.8C9.81451 5.83934 10.353 6.02413 10.818 6.336C10.8597 6.34793 10.8994 6.36578 10.936 6.389C11.7055 6.90574 12.3597 7.57626 12.8572 8.35832C13.3548 9.14038 13.685 10.017 13.827 10.933C13.9186 11.6512 13.9075 12.3789 13.794 13.094C15.2758 12.1523 16.6023 10.986 17.726 9.637C17.8123 9.55665 17.8812 9.45945 17.9284 9.3514C17.9757 9.24336 18.0002 9.12678 18.0006 9.00887C18.001 8.89095 17.9771 8.77422 17.9306 8.66588C17.8841 8.55754 17.8158 8.4599 17.73 8.379V8.379Z" fill="url(#7247e7b4-fc73-486f-9092-c4bea8a2b949)"/>
<path d="M21.379 -3.738H-2.9V24.033H21.379V-3.738Z" stroke="#B31B1B" stroke-miterlimit="10"/>
</g>
<defs>
<linearGradient id="a72d6332-1ed4-4600-9e81-04168c50066c" x1="8.977" y1="11.134" x2="8.977" y2="7.178" gradientUnits="userSpaceOnUse">
<stop stop-color="#29BADE"/>
<stop offset="1" stop-color="#50E6FF"/>
</linearGradient>
<linearGradient id="b1a05856-62b4-4aad-b49b-76e766082268" x1="6.446" y1="14.626" x2="6.446" y2="3.374" gradientUnits="userSpaceOnUse">
<stop offset="0.041" stop-color="#32BEDD"/>
<stop offset="0.495" stop-color="#50E6FF"/>
<stop offset="0.92" stop-color="#C3F1FF"/>
</linearGradient>
<linearGradient id="cd386209-a692-4bef-b7d5-514d43f4e5fa" x1="7.464" y1="10.047" x2="7.464" y2="0.254" gradientUnits="userSpaceOnUse">
<stop offset="0.244" stop-color="#0078D4"/>
<stop offset="0.6" stop-color="#2E8CE1"/>
<stop offset="0.933" stop-color="#589EED"/>
</linearGradient>
<linearGradient id="7247e7b4-fc73-486f-9092-c4bea8a2b949" x1="13.628" y1="14.626" x2="13.628" y2="4.193" gradientUnits="userSpaceOnUse">
<stop stop-color="#005BA1"/>
<stop offset="0.399" stop-color="#0078D4"/>
<stop offset="0.857" stop-color="#5EA0EF"/>
</linearGradient>
<clipPath id="e15798ab-b2c5-447c-9aee-c74b110cb544">
<rect width="18" height="18" fill="white"/>
</clipPath>
</defs>
</svg>
