<?xml version="1.0" encoding="utf-8"?>
<svg version="1.1" id="Layer_1" xmlns="http://www.w3.org/2000/svg" xmlns:xlink="http://www.w3.org/1999/xlink" x="0px" y="0px"
	 viewBox="0 0 1280 1024" style="enable-background:new 0 0 1280 1024;" xml:space="preserve">
<style type="text/css">
	.st0{fill:#1B93EB;}
	.st1{fill:url(#SVGID_1_);}
	.st2{fill:#C3F1FF;}
	.st3{fill:#FFFFFF;}
</style>
<g id="icomoon-ignore">
</g>
<g>
	<path class="st0" d="M1061.5,478.1c0,275.2-333,496.7-405.2,541.9c-8.5,5.4-19.2,5.4-27.7,0c-74.7-45.2-410-267.3-410-541.9V146.9
		c0-14.4,11.5-26.2,25.9-26.5C505.7,113.8,446.1,0,640,0s134.3,113.8,393.2,120.4c14.4,0.3,25.9,12.1,25.9,26.5L1061.5,478.1z"/>
	
		<linearGradient id="SVGID_1_" gradientUnits="userSpaceOnUse" x1="640.1141" y1="78.0753" x2="640.1141" y2="1016.7746" gradientTransform="matrix(1 0 0 -1 0 1024)">
		<stop  offset="0" style="stop-color:#1B93EB"/>
		<stop  offset="0.21" style="stop-color:#2095EB"/>
		<stop  offset="0.44" style="stop-color:#2E9CED"/>
		<stop  offset="0.69" style="stop-color:#45A7EF"/>
		<stop  offset="0.95" style="stop-color:#64B6F1"/>
		<stop  offset="1" style="stop-color:#6BB9F2"/>
	</linearGradient>
	<path class="st1" d="M1024.2,480.5c0,252.9-305.3,455.8-371.5,496.7c-7.8,4.8-17.5,4.8-25.3,0c-66.2-40.9-371.5-243.9-371.5-496.7
		V179.4c-2.4-13.4,6.6-26.2,20.1-28.6c0.9-0.2,1.9-0.3,2.8-0.3C516,143.9,459.4,40.3,640,40.3s123.4,106,361.3,110.2
		c12.9,0.6,23.2,11.1,23.5,24.1L1024.2,480.5z"/>
	<path class="st2" d="M640,363.1c86,0.3,158.8,63.6,171,148.7c2.6,14.2,15.1,24.3,29.5,24.1h84.3c16.3,0.4,29.8-12.5,30.2-28.8
		c0-1,0-2.1-0.1-3.1c-18.7-173.9-174.8-299.8-348.7-281.1C458,238.7,341,355.8,325.1,504c-1.3,16.2,10.7,30.5,27,31.8
		c1,0.1,2.1,0.1,3.1,0.1h84.3c14.4,0.2,26.9-9.9,29.5-24.1C481.2,426.7,554,363.4,640,363.1z"/>
	<circle class="st3" cx="640" cy="535.9" r="115"/>
</g>
</svg>
