<svg id="c556f003-05b3-49d6-82cc-2d6c08042e00"  xmlns="http://www.w3.org/2000/svg"  width="19" height="19" viewBox="0 0 19 19">
  <defs>
    <linearGradient id="153bf568-2e08-45b4-b2e9-d22ca81a4415" x1="-209.616" y1="215.498" x2="-209.616" y2="230.905" gradientTransform="matrix(1, 0, 0, -1, 219, 233.5)" gradientUnits="userSpaceOnUse">
      <stop offset="0" stop-color="#0078d4" />
      <stop offset="0.817" stop-color="#5ea0ef" />
    </linearGradient>
  </defs>
  <g>
    <path d="M3.159,2.611,4.37,1.2A.588.588,0,0,1,4.814,1H16.427a.814.814,0,0,1,.888.831v14.5a.583.583,0,0,1-.05.237.6.6,0,0,1-.142.2l-1.308,1.191H3.944l-.8-.337Z" fill="#005ba1" />
    <path d="M4.133,2.6l.742-.846a.511.511,0,0,1,.177-.132.519.519,0,0,1,.216-.047H16.114a.522.522,0,0,1,.522.522V15.885a.525.525,0,0,1-.171.386l-1.158,1.055Z" fill="#fff" />
    <path d="M15.236,2.6H3.2a.055.055,0,0,0-.056.056V17.617a.381.381,0,0,0,.113.272A.385.385,0,0,0,3.529,18h11.71a.386.386,0,0,0,.385-.385V2.98a.377.377,0,0,0-.03-.148.382.382,0,0,0-.084-.125.4.4,0,0,0-.126-.084A.375.375,0,0,0,15.236,2.6Z" fill="url(#153bf568-2e08-45b4-b2e9-d22ca81a4415)" />
    <path d="M12.263,6.7H6.8a.27.27,0,0,0-.27.27V8.814a.27.27,0,0,0,.27.27h5.465a.27.27,0,0,0,.27-.27V6.972A.27.27,0,0,0,12.263,6.7Z" fill="#fff" />
    <path d="M3.543,4.11H2.275a.59.59,0,0,0-.59.59v.261a.59.59,0,0,0,.59.59H3.543a.59.59,0,0,0,.59-.59V4.7A.59.59,0,0,0,3.543,4.11Z" fill="#005ba1" />
    <path d="M3.543,6.848H2.275a.59.59,0,0,0-.59.59V7.7a.59.59,0,0,0,.59.59H3.543a.59.59,0,0,0,.59-.59V7.438A.59.59,0,0,0,3.543,6.848Z" fill="#005ba1" />
    <path d="M3.543,9.586H2.275a.59.59,0,0,0-.59.59v.261a.59.59,0,0,0,.59.59H3.543a.59.59,0,0,0,.59-.59v-.261A.59.59,0,0,0,3.543,9.586Z" fill="#005ba1" />
    <path d="M3.543,12.323H2.275a.59.59,0,0,0-.59.59v.261a.59.59,0,0,0,.59.59H3.543a.59.59,0,0,0,.59-.59v-.261A.59.59,0,0,0,3.543,12.323Z" fill="#005ba1" />
    <path d="M3.543,15.061H2.275a.59.59,0,0,0-.59.59v.261a.59.59,0,0,0,.59.59H3.543a.59.59,0,0,0,.59-.59v-.261A.59.59,0,0,0,3.543,15.061Z" fill="#005ba1" />
  </g>
</svg>