<svg version="1.1" xmlns="http://www.w3.org/2000/svg" width="100%" height="100%" viewBox="0 0 28 32">
  <title></title>
  <g id="icomoon-ignore">
  </g>
  <path d="M13.386 31.611C10.248 29.671 0 22.677 0 14.515V4.077l1.095-.083c4.382-.273 6.083-1.411 7.583-2.416C9.956.739 11.06.001 13.999.001S18.088.77 19.3 1.585c1.507.998 3.211 2.153 7.593 2.422l1.095.07v10.438c0 8.166-10.249 15.156-13.39 17.103l-.612.383z" class="msportalfx-svg-c19" fill="#0072c6"/>
  <path opacity=".15" d="M9.906 28.386l9.18-26.15-.143-.096C17.755 1.351 16.734.666 13.998.666s-3.713.665-4.948 1.481C7.479 3.198 5.699 4.39 1.134 4.659l-.469.043v9.813c0 5.63 5.191 10.741 9.24 13.872z" class="msportalfx-svg-c01" fill="#ffffff"/>
  <path d="M13.999 9.333h.006a7.321 7.321 0 0 1 7.289 6.636l.002.029h3.327c-.308-5.633-4.951-10.083-10.633-10.083S3.665 10.366 3.358 15.971l-.001.027h3.327c.347-3.751 3.479-6.665 7.291-6.665h.024-.001z" class="msportalfx-svg-c01" fill="#ffffff"/>
  <path d="M17.932 16.667a3.933 3.933 0 1 1-7.866 0 3.933 3.933 0 0 1 7.866 0z" class="msportalfx-svg-c01" fill="#ffffff"/>
</svg>
