<svg version="1.1" xmlns="http://www.w3.org/2000/svg" width="100%" height="100%" viewBox="0 0 1024 1024">
<g id="icomoon-ignore">
</g>
<path fill="#0072c6" d="M921.436 929.075h40.96v-929.075h-839.68c-26.481 3.42-81.756 67.584-81.756 76.82l1.208 898.703c0.012 26.775 21.72 48.476 48.497 48.476h769.331v-14.93l61.44-79.995z"></path>
<path fill="#e5e5e5" d="M159.212 40.96c-22.63 0-32.358 3.789-51.343 20.48-46.592 40.96 7.987 40.96 30.618 40.96h721.51v906.67l61.44-79.995v-888.115h-762.225z"></path>
<path fill="#a0a1a2" opacity="0.5" d="M859.996 1009.070l61.44-79.995v-888.115l-61.44 61.44z"></path>
<path fill="#fff" d="M675.676 409.6c0 22.622-18.338 40.96-40.96 40.96v0h-348.16c-22.622 0-40.96-18.338-40.96-40.96v0-102.4c0-22.622 18.338-40.96 40.96-40.96v0h348.16c22.622 0 40.96 18.338 40.96 40.96v0 102.4z"></path>
</svg>
