<?xml version="1.0" encoding="UTF-8"?>
<svg id="97e3fe64-2798-409b-bebe-b262429fce68" xmlns="http://www.w3.org/2000/svg" viewBox="0 0 1159 275">
  <defs>
    <style>
      .cls-1 {
        fill: #04a2d1;
      }

      .cls-2 {
        fill: #1a345f;
      }
    </style>
  </defs>
    <path class="cls-2" d="M998.97,86.29h-54.35v-29.16h144.09v29.16h-54.92V247.93h-34.82V86.29Z"/>
    <path class="cls-2" d="M806.93,57.13v76.43h80.68V57.13h34.83V247.93h-34.83v-84.08h-80.68v84.08h-34.82V57.13h34.82Z"/>
    <path class="cls-2" d="M749.42,239.16c-12.18,4.53-35.96,10.76-61.43,10.76-32.28,0-56.62-8.21-74.74-25.48-16.99-16.14-26.89-41.33-26.61-70.2,0-60.3,43.04-99.08,106.16-99.08,23.5,0,41.89,4.81,50.68,9.06l-7.64,28.03c-10.48-4.53-23.21-8.22-43.31-8.22-40.76,0-69.35,24.06-69.35,68.5s26.61,69.08,66.23,69.08c12.46,0,21.81-1.71,26.33-3.97v-47.56h-33.69v-27.45h67.38v96.53Z"/>
    <path class="cls-2" d="M564.06,57.13V247.93h-34.82V57.13h34.82Z"/>
    <path class="cls-2" d="M392.59,210c11.33,6.51,28.31,12.17,46.15,12.17,22.36,0,34.82-10.48,34.82-26.05,0-14.44-9.62-22.93-33.96-31.71-31.43-11.32-51.53-28.03-51.53-55.48,0-31.14,26.05-54.92,67.38-54.92,20.66,0,35.96,4.53,45.86,9.62l-8.49,28.03c-6.79-3.69-20.1-9.06-37.93-9.06-22.08,0-31.71,11.88-31.71,22.92,0,14.72,11.04,21.52,36.52,31.43,33.11,12.45,49.25,29.15,49.25,56.61,0,30.58-23.21,57.19-72.47,57.19-20.09,0-41.04-5.67-51.52-11.9l7.64-28.87Z"/>
    <path class="cls-1" d="M294.06,78.07h-58.04v-20.94h141.26v20.94h-58.32V247.93h-24.91V78.07Z"/>
    <path class="cls-1" d="M214.76,57.13V247.93h-24.63V57.13h24.63Z"/>
    <path class="cls-1" d="M49.68,59.68c10.75-2.27,27.74-3.96,45.01-3.96,24.63,0,40.49,4.24,52.37,13.88,9.91,7.35,15.86,18.68,15.86,33.69,0,18.39-12.17,34.53-32.27,41.89v.56c18.12,4.53,39.35,19.54,39.35,47.84,0,16.42-6.51,28.87-16.14,38.21-13.31,12.17-34.82,17.83-65.96,17.83-16.99,0-30.01-1.13-38.22-2.26V59.68Zm24.63,78.13h22.36c26.05,0,41.33-13.59,41.33-31.98,0-22.37-16.99-31.14-41.89-31.14-11.33,0-17.83,.84-21.79,1.69v61.43Zm0,91.44c4.81,.85,11.88,1.13,20.66,1.13,25.47,0,48.97-9.33,48.97-37.09,0-26.03-22.36-36.8-49.26-36.8h-20.38v72.76Z"/>
    <path class="cls-2" d="M1108.05,32.41c1.03-.21,2.5-.33,3.9-.33,2.17,0,3.58,.4,4.56,1.29,.79,.7,1.24,1.78,1.24,2.99,0,2.08-1.31,3.46-2.97,4.02v.07c1.22,.42,1.94,1.54,2.31,3.18,.51,2.2,.89,3.72,1.22,4.32h-2.1c-.26-.44-.61-1.8-1.05-3.76-.47-2.17-1.31-2.99-3.16-3.06h-1.92v6.82h-2.03v-15.54Zm2.03,7.18h2.08c2.17,0,3.55-1.19,3.55-2.99,0-2.03-1.47-2.92-3.62-2.95-.98,0-1.68,.09-2.01,.19v5.75Z"/>
    <path class="cls-2" d="M1112.57,53.67c-7.48,0-13.56-6.08-13.56-13.56s6.08-13.56,13.56-13.56,13.56,6.08,13.56,13.56-6.08,13.56-13.56,13.56Zm0-25.17c-6.4,0-11.61,5.21-11.61,11.61s5.21,11.61,11.61,11.61,11.61-5.21,11.61-11.61-5.21-11.61-11.61-11.61Z"/>
</svg>