<svg version="1.2" xmlns="http://www.w3.org/2000/svg" viewBox="0 0 72 72" width="72" height="72">
	<style>
		.s0 { fill: #231f20 } 
		.s1 { fill: #ee0c5d } 
	</style>
	<g>
		<path class="s0" d="m69.66 19.13c-3.65 4.54-10.28 5.26-14.81 1.61-4.54-3.65-5.25-10.27-1.6-14.81 3.64-4.53 10.27-5.25 14.81-1.61 4.54 3.64 5.25 10.28 1.6 14.81z"/>
		<path class="s1" d="m55.44 35.59c-2.92 1.34-6.42 1.32-9.41-0.38l-8.28 10.99c1.03 1.21 1.61 2.72 1.67 4.27 0.06 1.37-0.3 2.78-1.09 4.03-2.07 3.21-6.38 4.14-9.59 2.06q-0.51-0.33-0.93-0.74-0.14-0.12-0.26-0.26-0.29-0.31-0.54-0.64-0.11-0.14-0.22-0.28-0.3-0.45-0.53-0.94-0.05-0.12-0.11-0.26-0.16-0.39-0.29-0.81-0.04-0.15-0.08-0.3-0.12-0.51-0.16-1.03 0-0.14 0-0.28-0.02-0.48 0.01-0.95 0-0.11 0.01-0.19 0.07-0.55 0.22-1.08 0.04-0.12 0.08-0.27 0.18-0.55 0.46-1.08l-6.68-5.02-2.07 2.76-7.64-5.75 5.75-7.64 7.63 5.75-2.07 2.76 6.75 5.07c2.1-1.75 5.12-2.14 7.62-0.85l8.26-10.96c-3.29-3.22-4.13-8.37-1.7-12.54q0.73-1.23 1.7-2.18c-4.48-3.06-9.91-4.87-15.76-4.89-15.53-0.04-28.15 12.52-28.19 28.06-0.04 15.54 12.52 28.15 28.06 28.19 15.53 0.05 28.15-12.52 28.19-28.05q0-3.42-0.77-6.6z"/>
	</g>
</svg>