<svg xmlns="http://www.w3.org/2000/svg" viewBox="0 0.53 56.26 49.41">
  <path fill="#ef7690" d="M0 .53h56.26v49.41H0z"/>
  <path d="M36.54 30.93l-4.54.5-3.21.22c-1 .06-2.05.01-3.11.02s-2.14 0-3.22-.12c-2.19-.26-2.65-.57-3.24-.65-1.22-.15-2.14-.37-3.17-.59l-2.22-.39c-.06-.06-.24-.42-.28-.5-.56-1.31-.55-1.15-1.11-3.05-.28-.93-.65-2.88-.84-4.13-.16-1.01-.36-1.3-.44-1.54-.29-.97-.19-1.55-.24-2.6l-.05-4.68c.08-1.68.18-1.89.42-2.91.24-1.03.76-2.09 1.2-3.04.38-.82.58-1.58 1.15-2.31.65-.84.8-1.21 1.13-1.52.03-.03.27-.08.31-.09.79-.26 1.52-.34 1.93-.47.1-.01.51.04.61.04l3.03.08 3.07.13 3.24.06 3.15-.02 2.88.09 2.92-.04 2.82-.08 2.76-.14c1-.2 1.75-.3 2.41-.3.18.05.25.11.4.18.56.26 1.34.83 1.34.83 0 .36-.13 2.75.04 4.42l.41 3.14.35 2.89.64 3.28c.23 1.48.29.68.5 1.92.27 1.6.12 1.43.3 3.28.1 1.05-.07 3.27-.24 4.33-.17 1.08-.63 1.93-.98 2.08-.73.31-3.1.65-2.63.57-1.21.19-1.11.05-1.83.19-1.88.38-2.29.3-3.57.41-1.2.11-.28.21-1.68.4-.13-.01-.27.09-.41.11m14.71 12.89c.86-.78 1.37-1.44 1.31-2.21l-.43-4.66c-.26-1.57-.11-.8-.16-2.39-.05-1.42.08-1.84-1.04-2.56-.75-.48-2.2-.57-3.68-.56l-2.69.07-3.1.08-3.02.1c-1.01.05-1.63.24-2.58.3-1.08.07-2.49-.03-3.5.06l-3.02.38-3.18.35-3.28.44-3.09.55-3.08.73-3.03.75-3.05.79-2.92 1.01c-2 .8-1.44.7-2.85 1.46-.98.44-1.83 1.03-2.31 1.53-.91.96-.66 1.93-.38 3.46.2 1.04.15.52.3 1.65.13.93.28 2 .73 2.66.51.75 1.34 1.13 3.19.87.87-.12 1.98-.38 3.4-.82l2.02-.61c.82-.19 1.74-.29 2.7-.47l2.85-.48 3.11-.61c.97-.13 1.79-.05 2.8-.17.98-.11 2.12-.51 3.12-.62l3.63-.21c1.07-.1 1.9.24 2.95.15 1.04-.09 1.62.03 2.62-.05l3.22-.28 2.95-.11c1.14-.07 2.1.1 3.01.06l3.07-.15c1.38.05 2.98-.35 3.41-.49" fill="#1f2583"/>
  <path d="M28.91 16.55l-5.24-2.94 6.54.99.05.01 4.94-1.63-4.53 2.58-.1-.27-.39.14.12.34zm-3 17.87c-.53 0-1 .38-1 .91s.46.95 1 .95c.53 0 1.01-.42 1.01-.95-.01-.52-.48-.91-1.01-.91zm-.39 4.39c-.53 0-1.18.21-.95.91.17.5.42.99.95.99s1-.49 1-1.02c-.01-.54-.47-.88-1-.88zm13.7-30.4h-1.69v1.68h1.69zM17.15 23.32l1.5.76.76-1.5-1.5-.77zM23.1 36.1c-.53 0-1.01.39-1.01.93 0 .53.57.67 1.1.67s.94-.14.94-.67c.01-.54-.5-.93-1.03-.93zm-12.71 3.07c-.53 0-.89.5-.89 1.09 0 .58.36.99.89.99s.96-.41.96-.99c0-.59-.43-1.09-.96-1.09zm2.5 3.66c-.53 0-.89.42-.89.95s.36 1.02.89 1.02.99-.49.99-1.02c.01-.53-.45-.95-.99-.95zm4.59-3.64a.96.96 0 0 0-.95.97c0 .53-.01.76.95.97.52.12.93-.45.93-.97-.01-.52-.4-.97-.93-.97zm-1.34 3.05c-.53 0-.93.35-.94.88-.02 1.29.68.95.94.99.53.08.98-.46.98-.99s-.45-.88-.98-.88zm3.91-2.14c-.46 0-.81.33-.81.87 0 .53.35.9.81.9s.89-.37.89-.9c0-.54-.43-.87-.89-.87zm23.76-16.09c-.11 1.06.24 1.25-.77 2.04-.41.32-1.03.72-1.93.8-.27.03-.97.25-1.99.5l-2 .46-2.02.37-2 .31-2.01.21c-.64.08-1.32.02-1.99.08l-1.89.14c-.52.02.01.17-.27.27-.64.21-.82.13-2.04.11-.62-.01-1.22 0-1.98-.05l-2.06-.17c-.68-.07-1.34-.28-1.97-.4-.72-.14-1.45-.13-2.01-.36-.72-.29-1.3-.58-1.56-1.04-.21-.36-.26-1.23-.34-2.16-.05-.6-.01-1.29-.02-2.06l-.1-2.03.04-2.07.11-2.03c.05-.68.24-1.35.3-2.02l.25-2 .12-1.95c.08-.69.25-1.33.34-1.93.1-.74.03-1.44.13-1.99.18-.98.5-1.57.63-1.69.42-.92.78-.85 1.66-.91.51-.04 1.14.11 1.97.23.55.08.56-.08 1.29.12.55.15.65.11 1.49.24l3.45.62c.7.07 1.44.44 2.2.5l2.18.15 2.17.08c.76.01 1.49-.14 2.18-.15.76-.01 1.46-.14 2.08-.19.85-.06 1.55-.19 2-.32.87-.27 1.58-.22 2.18-.11.8.14 1.32.46 1.62 1.15.25.55.1 1.07.24 2.05.07.47-.15 1.25-.16 2.21l.04 2.16.13 2.21.03 2.2.08 2.2.06 2.11c.07 1.27.26.95.14 2.11zm-1.19-6.39h-1.15l.03-2.19-2.93-3.57v-1.35h1.07V7.99h-2.52v2.52h1.04v.78l-1.12.64-6.82 2.25-7.47-1.13v-.84h1.08V9.68H21.3v2.52h1.03v.66l-3.35 7.82.27-.09-.63 1.12-.89-.46-1.15 2.25 2.25 1.14 1.14-2.24-.98-.5.84-1.51 6.8-2.29.39.03v1.11h-1.03v2.52h2.52v-2.52h-1.07l.01-1.07 4.16.3v1.33h-.97v2.52h2.52V19.8h-1.14v-1.05l4.43-2.25.39.15 4.22-.8-.03 1.77h-.93v2.52h2.52zm-5.42-5.31l-6.41 3.64.87 2.51 4.96-2.52.01.01 1.18-3.85zm-6.12 9.58h1.69v-1.68h-1.69zm5.92-5.7l3.98-.75-2.73-3.31zm3.52 3.53h1.69v-1.68h-1.69zM23.41 10.1h-1.69v1.68h1.69zm5.92 6.68l1.63.92-.53-1.54zm-6.8-3.33l-2.8 6.54 7.63-2.56 1.12-.64zm3.9 7.89h1.68v-1.69h-1.68zm1.19-3.58l3 .23-1.71-.96z" fill="#fff"/>
  <path d="M38.28 13.04a.98.98 0 1 1 0-1.96.98.98 0 1 1 0 1.96m-10.96 5.92a1.03 1.03 0 1 0 0-2.06 1.03 1.03 0 0 0-1.03 1.03c-.01.57.45 1.03 1.03 1.03m3.02-3.32a.98.98 0 1 0 0-1.96.98.98 0 1 0 0 1.96" fill="#e82745"/>
  <path d="M19.47 21.59a.98.98 0 1 1 0-1.96c.55 0 .98.44.98.98 0 .55-.44.98-.98.98m17.54-4.43a.98.98 0 1 0 0-1.96.98.98 0 1 0 0 1.96" fill="#ed6e97"/>
  <path d="M9.58 44.86c-.38 0-.64-.29-.64-.72 0-.42.26-.78.64-.78s.69.36.69.78-.31.72-.69.72m8.28-7.61c.39 0 .72-.35.72-.74 0-.38-.33-.69-.72-.69-.38 0-.64.3-.64.69s.25.74.64.74m-3.26 3.31c.38 0 .68-.1.68-.48s-.36-.67-.75-.67c-.38 0-.73.28-.73.67.01.38.42.48.8.48m8.46 1.68c.39 0 .73-.3.73-.68 0-.39-.34-.66-.73-.66-.38 0-.72.27-.72.66s.34.68.72.68m13.75.35c.74 0 1.36-.64 1.36-1.38s-.65-1.37-1.39-1.37-1.24.64-1.24 1.38c0 .73.53 1.37 1.27 1.37m-1.6-4.61c.74 0 1.41-.65 1.41-1.39 0-.73-.68-1.31-1.41-1.31-.74 0-1.29.58-1.29 1.31 0 .74.55 1.39 1.29 1.39m7.91.36c.74 0 1.32-.54 1.32-1.28s-.58-1.24-1.32-1.24-1.22.51-1.22 1.24c-.01.74.48 1.28 1.22 1.28m-2.81 2.6c.74 0 1.34-.69 1.34-1.43s-.6-1.21-1.34-1.21-1.46.47-1.46 1.21.72 1.43 1.46 1.43M22.5 14.5a.98.98 0 1 0 0-1.96.98.98 0 0 0-.98.98c0 .55.44.98.98.98m18.67 2.57a.98.98 0 1 0 0-1.96.98.98 0 0 0-.98.98c0 .54.43.98.98.98m-9.3 2.45c.55 0 .98-.44.98-.98a.98.98 0 1 0-1.96 0 .98.98 0 0 0 .98.98" fill="#fff30c"/>
</svg>