<?xml version="1.0" encoding="UTF-8"?>
<svg width="72px" height="72px" viewBox="0 0 72 72" xmlns="http://www.w3.org/2000/svg">
  <g id="741f6609-a24a-4405-9eb9-96d5fb09c6de" stroke="none" stroke-width="1" fill="none" fill-rule="evenodd">
    <g id="92ed29b7-5c62-4215-8e6f-cddedf274c34" transform="translate(0.000000, 15.000000)" fill="#049FD9">
      <polygon id="635f57fa-879d-4bf0-a11f-d66f1950e386" points="21 28 24 28 24 42 21 42"/>
      <path d="M50,32.0833333 C49.8837209,31.9666667 48.8372093,31.3833333 47.2093023,31.3833333 C45.1162791,31.3833333 43.6046512,32.9 43.6046512,35 C43.6046512,36.9833333 45,38.6166667 47.2093023,38.6166667 C48.7209302,38.6166667 49.8837209,38.0333333 50,37.9166667 L50,41.5333333 C49.5348837,41.65 48.4883721,42 46.9767442,42 C43.255814,42 40,39.3166667 40,35 C40,31.0333333 42.9069767,28 46.9767442,28 C48.4883721,28 49.6511628,28.35 50,28.4666667 L50,32.0833333" id="d4bcfe76-7f41-4fa1-9ef9-2485b7c2069e"/>
      <path d="M16,32.0833333 C15.8837209,31.9666667 14.8372093,31.3833333 13.2093023,31.3833333 C11.1162791,31.3833333 9.60465116,32.9 9.60465116,35 C9.60465116,36.9833333 11,38.6166667 13.2093023,38.6166667 C14.7209302,38.6166667 15.8837209,38.0333333 16,37.9166667 L16,41.5333333 C15.5348837,41.65 14.4883721,42 12.9767442,42 C9.25581395,42 6,39.3166667 6,35 C6,31.0333333 8.90697674,28 12.9767442,28 C14.4883721,28 15.6511628,28.35 16,28.4666667 L16,32.0833333" id="cbb80432-04ba-41ef-b6cf-a7804543c9f8"/>
      <path d="M66,35 C66,38.85 63.2818182,42 59.5,42 C55.7181818,42 53,38.85 53,35 C53,31.15 55.7181818,28 59.5,28 C63.1636364,28.1166667 66,31.15 66,35 Z M59.3818182,31.5 C57.4909091,31.5 56.1909091,33.1333333 56.1909091,35 C56.1909091,36.9833333 57.6090909,38.5 59.3818182,38.5 C61.2727273,38.5 62.5727273,36.8666667 62.5727273,35 C62.6909091,33.1333333 61.2727273,31.5 59.3818182,31.5 Z" id="597e02c1-c670-4e5e-ae58-8fa1488265a3" fill-rule="nonzero"/>
      <path d="M35.2328767,31.3833333 C35.2328767,31.3833333 33.9178082,30.9166667 32.9315068,30.9166667 C31.7260274,30.9166667 31.0684932,31.3833333 31.0684932,31.9666667 C31.0684932,32.7833333 31.9452055,33.0166667 32.3835616,33.25 L33.1506849,33.6 C35.1232877,34.3 36,35.8166667 36,37.45 C36,40.8333333 33.369863,42 31.1780822,42 C29.6438356,42 28.109589,41.65 28,41.65 L28,38.5 C28.2191781,38.6166667 29.5342466,38.9666667 30.8493151,38.9666667 C32.2739726,38.9666667 33.0410959,38.5 33.0410959,37.6833333 C33.0410959,36.9833333 32.4931507,36.6333333 31.7260274,36.4 C31.5068493,36.2833333 31.2876712,36.2833333 31.0684932,36.1666667 C29.4246575,35.5833333 28,34.4166667 28,32.2 C28,29.6333333 29.6438356,28 32.3835616,28 C33.8082192,28 35.2328767,28.35 35.2328767,28.4666667 L35.2328767,31.3833333" id="5221bb90-d66c-4cf3-b68c-8e288e232ee0"/>
      <path d="M3,12.4716981 C3,11.6792453 2.375,11 1.5,11 C0.625,11 0,11.6792453 0,12.4716981 L0,15.5283019 C0,16.3207547 0.75,17 1.5,17 C2.375,17 3,16.3207547 3,15.5283019 L3,12.4716981" id="48892c1b-839d-4bc5-91b4-c663ca4054dd"/>
      <path d="M12,7.63829787 C12,6.81914894 11.25,6 10.5,6 C9.625,6 9,6.70212766 9,7.63829787 L9,15.3617021 C9,16.2978723 9.75,17 10.5,17 C11.375,17 12,16.2978723 12,15.3617021 L12,7.63829787" id="611430d8-9693-41de-99c7-2f35c85eec82"/>
      <path d="M21,1.85483871 C21,0.865591398 20.25,0 19.5,0 C18.625,0 18,0.865591398 18,1.85483871 L18,21.1451613 C18,22.1344086 18.75,23 19.5,23 C20.375,23 21,22.1344086 21,21.1451613 L21,1.85483871" id="852c186e-ce2d-4152-adce-9f838311fd4d"/>
      <path d="M30,7.63829787 C30,6.81914894 29.25,6 28.5,6 C27.625,6 27,6.70212766 27,7.63829787 L27,15.3617021 C27,16.2978723 27.75,17 28.5,17 C29.375,17 30,16.2978723 30,15.3617021 L30,7.63829787" id="b99c66ef-3754-4b2e-880b-080b9c96855f"/>
      <path d="M38,12.4716981 C38,11.6792453 37.25,11 36.5,11 C35.625,11 35,11.6792453 35,12.4716981 L35,15.5283019 C35,16.3207547 35.75,17 36.5,17 C37.375,17 38,16.3207547 38,15.5283019 L38,12.4716981" id="1cc745b9-c34a-4459-8d09-67e1f0a7e4c3"/>
      <path d="M47,7.63829787 C47,6.81914894 46.25,6 45.5,6 C44.625,6 44,6.70212766 44,7.63829787 L44,15.3617021 C44,16.2978723 44.625,17 45.5,17 C46.375,17 47,16.2978723 47,15.3617021 L47,7.63829787" id="eee67ecc-f43c-4348-a1c0-d20d3d15934b"/>
      <path d="M56,1.85483871 C56,0.865591398 55.375,0 54.5,0 C53.625,0 53,0.865591398 53,1.85483871 L53,21.1451613 C53,22.1344086 53.75,23 54.5,23 C55.375,23 56,22.1344086 56,21.1451613 L56,1.85483871" id="0215bbe7-b01e-4b17-97b7-d4eaec1a1228"/>
      <path d="M64,7.63829787 C64,6.81914894 63.375,6 62.5,6 C61.625,6 61,6.70212766 61,7.63829787 L61,15.3617021 C61,16.2978723 61.625,17 62.5,17 C63.375,17 64,16.2978723 64,15.3617021 L64,7.63829787" id="d5468f7e-db62-42a1-9c6d-d0e2193209e0"/>
      <path d="M72,12.4716981 C72,11.6792453 71.25,11 70.5,11 C69.625,11 69,11.6792453 69,12.4716981 L69,15.5283019 C69,16.3207547 69.625,17 70.5,17 C71.375,17 72,16.3207547 72,15.5283019 L72,12.4716981" id="7a0dcd37-2cc9-4d43-95f0-28ccd746441b"/>
    </g>
  </g>
</svg>
