<svg width="75" height="75" viewBox="0 0 75 75" fill="none" xmlns="http://www.w3.org/2000/svg">
<path d="M57.9129 36.0524L56.4192 35.4482C49.3989 51.4259 21.471 41.7122 19.7906 46.4654C19.5104 49.676 35.0419 47.0759 46.1454 47.6201C49.5313 47.7859 51.2293 50.3713 49.7915 54.5854L52.6234 54.5942C55.8901 44.2933 66.3155 49.5503 66.7512 46.1507C66.0354 43.9155 54.7696 46.1507 57.9129 36.0524Z" fill="white"/>
<path d="M50.5934 52.8234C51.0414 51.3125 50.8921 49.8016 50.1453 48.895C49.3983 47.9883 48.3527 47.3841 47.0083 47.233L21.0166 46.9306C20.8672 46.9306 20.7179 46.7796 20.5685 46.7796C20.4192 46.6285 20.4192 46.4775 20.5685 46.3264C20.7179 46.0243 20.8672 45.8729 21.1659 45.8729L47.307 45.5708C50.444 45.4198 53.7304 42.8512 54.9252 39.8294L56.4192 35.901C56.4192 35.7496 56.5685 35.5986 56.4192 35.4475C54.7758 27.7417 47.9046 22 39.8381 22C32.3692 22 25.946 26.8351 23.7053 33.6345C22.2116 32.5768 20.4192 31.9723 18.3278 32.1236C14.7427 32.4257 11.9046 35.4475 11.4563 39.0738C11.307 39.9804 11.4563 40.8871 11.6059 41.7935C5.78012 41.9445 1 46.7796 1 52.8234C1 53.4277 1 53.8811 1.14934 54.4854C1.14934 54.7878 1.44803 54.9388 1.59766 54.9388H49.5477C49.8464 54.9388 50.1453 54.7878 50.1453 54.4854L50.5934 52.8234Z" fill="#F4811F"/>
<path d="M58.8091 35.9013H58.0621C57.9128 35.9013 57.7635 36.0524 57.6141 36.2034L56.5684 39.8298C56.1204 41.3406 56.2697 42.8518 57.0167 43.7582C57.7634 44.6648 58.8091 45.2691 60.1535 45.4204L65.6806 45.7225C65.83 45.7225 65.9793 45.8736 66.1287 45.8736C66.278 46.0246 66.278 46.1757 66.1287 46.3268C65.9793 46.6292 65.83 46.7802 65.531 46.7802L59.8548 47.0824C56.7178 47.2334 53.4316 49.802 52.2366 52.8238L51.9376 54.1839C51.7883 54.335 51.9376 54.6371 52.2366 54.6371H71.9545C72.2532 54.6371 72.4025 54.486 72.4025 54.1839C72.7012 52.9751 72.9999 51.6153 72.9999 50.2552C72.9999 42.3983 66.5767 35.9013 58.8091 35.9013Z" fill="#FAAD3F"/>
</svg>
