<?xml version="1.0" encoding="utf-8"?>
<!-- Generator: Adobe Illustrator 24.0.0, SVG Export Plug-In . SVG Version: 6.00 Build 0)  -->
<svg version="1.2" baseProfile="tiny" id="b22707ed-5350-411e-ba78-d91532361975"
	 xmlns="http://www.w3.org/2000/svg" x="0px" y="0px" viewBox="0 0 143.07 143.07"
	 xml:space="preserve">
<g>
	<g>
		<path fill="#FFC107" d="M139.07,86.29c0.16-0.73,0.31-1.47,0.44-2.21c0.08-0.42,0.15-0.85,0.22-1.28
			c0.09-0.56,0.17-1.12,0.25-1.67c0.1-0.76,0.2-1.52,0.28-2.28c0.04-0.36,0.07-0.72,0.11-1.08c0.05-0.58,0.1-1.16,0.14-1.75
			c0.01-0.17,0.02-0.35,0.03-0.52c0.06-1.12,0.1-2.24,0.11-3.37c0-0.3,0-0.6,0-0.9c0-0.89-0.03-1.78-0.07-2.67
			c-0.01-0.33-0.03-0.66-0.05-0.99c-0.04-0.72-0.1-1.44-0.16-2.15c-0.04-0.5-0.09-0.99-0.14-1.49c-0.06-0.5-0.12-1-0.19-1.5
			c-0.09-0.69-0.18-1.38-0.3-2.07c-0.04-0.27-0.1-0.53-0.14-0.79c-0.16-0.89-0.32-1.78-0.51-2.67c-0.01-0.03-0.01-0.06-0.02-0.09
			c-1.4-6.42-3.71-12.63-6.88-18.43c-0.26-0.48-0.54-0.94-0.81-1.41c-0.26-0.46-0.52-0.91-0.79-1.36
			c-3.44-5.64-7.67-10.76-12.53-15.18c-0.02-0.02-0.04-0.04-0.06-0.06c-0.67-0.61-1.37-1.2-2.06-1.79c-0.2-0.17-0.4-0.34-0.61-0.51
			c-0.54-0.44-1.1-0.87-1.65-1.3c-0.4-0.3-0.79-0.61-1.2-0.91c-0.4-0.3-0.82-0.58-1.23-0.87c-0.59-0.41-1.17-0.82-1.78-1.21
			c-0.28-0.18-0.56-0.36-0.85-0.54c-0.75-0.47-1.5-0.94-2.27-1.39c-0.26-0.15-0.53-0.31-0.8-0.46c-0.97-0.55-1.94-1.07-2.93-1.57
			c-0.17-0.09-0.34-0.18-0.51-0.26c-0.52-0.26-1.05-0.51-1.57-0.75c-0.33-0.15-0.67-0.3-1-0.45c-0.69-0.31-1.39-0.6-2.09-0.89
			c-0.53-0.21-1.06-0.43-1.6-0.63c-0.4-0.15-0.81-0.3-1.21-0.44c-0.71-0.25-1.42-0.5-2.15-0.73C92.26,5.59,92,5.51,91.75,5.43
			c-0.56-0.17-1.12-0.32-1.68-0.48c12.09,11.87,19.19,27.64,20.45,44.08c13.6,9.31,23.71,23.35,27.95,39.75
			c0.15-0.56,0.29-1.12,0.43-1.69C138.95,86.83,139.01,86.56,139.07,86.29z"/>
		<path fill="#5BC0EB" d="M71.53,116.56c-12.13-5.81-22.7-15.21-29.93-27.74s-10.09-26.38-9.06-39.79
			C18.94,58.34,8.83,72.38,4.6,88.78c1.53,5.93,3.86,11.76,7.07,17.32c3.21,5.56,7.09,10.49,11.46,14.78
			C39.46,125.42,56.67,123.68,71.53,116.56z"/>
		<path fill="#2196F3" d="M90.07,4.95c-5.9-1.64-12.11-2.53-18.53-2.53S58.9,3.31,53,4.95c-0.56,0.16-1.12,0.31-1.67,0.47
			c-0.26,0.08-0.53,0.16-0.79,0.25c-0.72,0.23-1.42,0.47-2.13,0.72C48,6.54,47.59,6.69,47.19,6.84c-0.53,0.2-1.05,0.41-1.57,0.62
			c-0.71,0.29-1.41,0.59-2.11,0.9c-0.33,0.15-0.66,0.3-0.99,0.45c-0.53,0.25-1.06,0.49-1.58,0.75c-0.16,0.08-0.32,0.16-0.48,0.25
			c-0.99,0.5-1.98,1.03-2.96,1.58c-0.26,0.15-0.53,0.3-0.79,0.45c-0.77,0.45-1.53,0.92-2.27,1.39c-0.28,0.18-0.56,0.36-0.84,0.54
			c-0.6,0.4-1.19,0.81-1.78,1.22c-0.41,0.29-0.82,0.57-1.22,0.87c-0.41,0.3-0.8,0.61-1.2,0.92c-0.55,0.42-1.1,0.85-1.64,1.29
			c-0.21,0.17-0.41,0.35-0.62,0.52c-0.69,0.58-1.38,1.17-2.05,1.78c-0.02,0.02-0.04,0.04-0.07,0.06
			c-4.86,4.43-9.08,9.53-12.52,15.18c-0.28,0.46-0.54,0.93-0.81,1.4c-0.26,0.46-0.54,0.91-0.79,1.38C7.72,44.17,5.4,50.39,4,56.81
			c-0.01,0.03-0.01,0.05-0.02,0.08c-0.19,0.89-0.36,1.78-0.52,2.68c-0.05,0.26-0.1,0.52-0.14,0.78c-0.11,0.69-0.21,1.38-0.3,2.08
			c-0.07,0.5-0.13,0.99-0.19,1.49c-0.06,0.5-0.1,1-0.14,1.5c-0.06,0.71-0.12,1.43-0.16,2.14c-0.02,0.33-0.03,0.67-0.05,1
			c-0.04,0.88-0.06,1.77-0.07,2.66c0,0.31,0,0.61,0,0.92c0.01,1.11,0.04,2.22,0.11,3.32c0.01,0.19,0.02,0.38,0.03,0.57
			c0.04,0.58,0.09,1.16,0.14,1.74c0.03,0.36,0.07,0.73,0.11,1.09c0.08,0.76,0.17,1.51,0.28,2.26c0.08,0.57,0.16,1.13,0.25,1.69
			c0.07,0.42,0.15,0.85,0.22,1.27C3.69,84.82,3.84,85.56,4,86.3c0.06,0.26,0.11,0.52,0.17,0.78c0.13,0.57,0.28,1.13,0.43,1.7
			c4.23-16.41,14.34-30.44,27.95-39.75c11.1-7.6,24.52-12.05,38.99-12.05s27.89,4.45,38.99,12.05
			C109.26,32.59,102.16,16.82,90.07,4.95z"/>
		<path fill="#4CAF50" d="M110.52,49.03c1.03,13.41-1.82,27.26-9.06,39.79c-7.23,12.53-17.8,21.92-29.93,27.74
			c-14.86,7.12-32.08,8.86-48.4,4.33c0.16,0.16,0.33,0.32,0.49,0.48c0.72,0.69,1.46,1.38,2.22,2.04c0.22,0.2,0.44,0.4,0.67,0.59
			c2.1,1.79,4.31,3.49,6.66,5.05c0.03,0.02,0.06,0.04,0.08,0.05c1.13,0.75,2.29,1.47,3.48,2.16c0.17,0.1,0.34,0.2,0.51,0.3
			c0.78,0.44,1.56,0.86,2.34,1.27c0.3,0.15,0.59,0.31,0.89,0.46c0.64,0.32,1.29,0.63,1.94,0.93c0.45,0.21,0.91,0.42,1.36,0.62
			c0.46,0.2,0.93,0.39,1.39,0.58c0.64,0.27,1.29,0.53,1.94,0.78c0.25,0.1,0.5,0.18,0.75,0.27c0.85,0.31,1.71,0.61,2.57,0.89
			c0.03,0.01,0.06,0.02,0.09,0.03c6.26,2,12.8,3.1,19.4,3.26c0.54,0.01,1.08,0,1.62,0c0.53,0,1.05,0.01,1.58,0
			c6.61-0.16,13.15-1.26,19.41-3.26c0.03-0.01,0.05-0.02,0.08-0.02c0.87-0.28,1.72-0.58,2.58-0.89c0.25-0.09,0.5-0.18,0.75-0.27
			c0.65-0.25,1.3-0.51,1.95-0.78c0.46-0.19,0.92-0.38,1.38-0.58c0.46-0.2,0.92-0.42,1.37-0.63c0.65-0.3,1.29-0.61,1.94-0.93
			c0.3-0.15,0.6-0.31,0.89-0.46c0.78-0.41,1.56-0.83,2.34-1.27c0.17-0.1,0.34-0.2,0.52-0.3c1.18-0.69,2.34-1.4,3.47-2.15
			c0.03-0.02,0.06-0.04,0.09-0.06c2.35-1.56,4.56-3.25,6.66-5.05c0.23-0.19,0.45-0.4,0.68-0.59c0.76-0.67,1.49-1.35,2.22-2.04
			c0.16-0.16,0.33-0.32,0.49-0.48c4.37-4.29,8.25-9.22,11.46-14.78c3.21-5.56,5.54-11.39,7.07-17.32
			C134.23,72.38,124.12,58.34,110.52,49.03z"/>
	</g>
</g>
</svg>
