<?xml version="1.0" encoding="UTF-8"?>
<svg id="2dd7a07b-1417-4ead-b4f3-bdc6ca06a6be" xmlns="http://www.w3.org/2000/svg" viewBox="0 0 207.26 110.44">
  <defs>
    <style>
      .cls-1 {
        fill: #38b885;
      }

      .cls-2 {
        fill: #181818;
      }
    </style>
  </defs>
  <g>
    <path class="cls-2" d="M186.24,69.71c-1.38,2.89-3.17,5.61-5.38,8.07-6.41,7.16-15.6,11.27-25.21,11.27-18.65,0-33.82-15.17-33.82-33.83,0-9.6,4.11-18.79,11.27-25.21,6.28-5.63,14.17-8.62,22.53-8.62,1.3,0,2.6.07,3.92.22,11.76,1.3,21.78,8.81,26.69,19.13h21.02c-5.79-20.6-23.8-36.36-45.53-38.76-15.23-1.68-30.47,3.17-41.8,13.32-11.34,10.16-17.84,24.71-17.84,39.92,0,29.55,24.04,53.58,53.58,53.58,15.21,0,29.77-6.5,39.92-17.85,5.5-6.14,9.43-13.44,11.62-21.25h-20.97Z"/>
    <path class="cls-1" d="M155.66,108.8c-29.54,0-53.58-24.04-53.58-53.58,0-15.21,6.5-29.76,17.84-39.92,11.33-10.15,26.57-15,41.8-13.32,12.02,1.33,22.89,6.76,31.2,14.81C182.88,6.45,168.84,0,153.32,0H55.22C24.77,0,0,24.77,0,55.22s24.77,55.22,55.22,55.22h98.1c15.26,0,29.1-6.23,39.1-16.27-9.9,9.34-23.06,14.63-36.76,14.63h0Z"/>
  </g>
</svg>