<svg width="75" height="75" viewBox="0 0 75 75" fill="none" xmlns="http://www.w3.org/2000/svg">
<path d="M71.2837 56.2381C68.5154 55.7879 65.6757 56.2237 63.1699 57.4833C59.5898 59.3123 58.1694 59.4291 56.3988 59.1956C56.9241 60.149 57.9748 61.4721 61.2826 61.7056C64.5903 61.9391 66.1664 62.0364 64.4347 66.1808C64.4347 64.9355 64.1817 62.5033 60.8934 62.9314C57.6051 63.3595 56.8463 66.3364 60.3681 67.8152C59.2201 68.0487 56.7879 68.1849 55.0562 63.6124C53.8499 64.1378 52.0014 65.1884 48.6547 62.6006C49.4985 62.8744 50.3757 63.0315 51.262 63.0676C48.2343 61.4944 45.6158 59.2357 43.6153 56.4715C44.9714 57.6327 46.597 58.4355 48.3434 58.8064C44.7347 54.5997 40.8336 50.653 36.669 46.9958C40.1324 49.2723 44.3352 52.833 51.1842 52.0547C58.0332 51.2764 62.5084 49.6809 71.2837 56.2381Z" fill="#FC3000"/>
<path d="M41.9614 54.6037C38.5202 53.0091 34.92 51.783 31.221 50.9457C25.5187 49.6367 20.3969 46.509 16.6279 42.0342C19.1768 43.9799 24.4109 47.7157 29.7811 47.3071C28.6667 45.9677 27.254 44.9082 25.6561 44.2134C27.6992 44.6999 33.8477 46.2954 41.9614 54.6037Z" fill="#FC3000"/>
<path d="M32.6024 38.6291C31.4933 35.4381 29.4892 31.3521 20.0135 25.2814C12.4574 20.7469 5.61242 15.1214 -0.299988 8.58698C0.342105 11.2332 3.16342 18.1016 17.3673 27.0131C22.0371 30.2041 28.0494 32.1888 32.6024 38.6875V38.6291Z" fill="#FC3000"/>
<path d="M33.1861 43.26C32.0187 40.5554 29.6838 37.092 20.4999 32.1498C13.8333 28.8269 7.75924 24.4291 2.52133 19.1329C3.10505 21.6429 6.1404 27.1688 19.1574 34.0761C22.7181 36.0608 28.8861 37.9287 33.1861 43.26Z" fill="#FC3000"/>
<path d="M42.0976 29.3091C24.1968 24.1529 17.0754 17.6736 11.569 10.8635C14.079 18.6464 20.0719 21.4872 26.4928 26.7407C32.9137 31.9942 33.264 34.8155 35.1513 37.9287C39.3541 44.836 40.0157 45.9646 44.1795 48.9999C49.1023 52.2688 55.0562 50.0506 61.5744 51.0819C66.7553 52.0585 71.4072 54.8786 74.6692 59.0205C76.0312 56.5688 72.7235 53.0471 71.8868 52.152C72.3538 48.9415 64.8043 47.5406 61.9247 46.4316C61.3799 46.2175 59.9789 45.8867 61.1853 43.0071C62.8197 39.1156 64.5125 35.5743 42.0976 29.3869V29.3091ZM67.9175 50.4009C71.3226 50.9067 71.1475 51.6267 71.1864 52.8719C70.2376 51.8768 69.1337 51.0423 67.9175 50.4009V50.4009Z" fill="#FC3000"/>
</svg>
