<?xml version="1.0" encoding="utf-8"?>
<!-- Generator: Adobe Illustrator 24.0.0, SVG Export Plug-In . SVG Version: 6.00 Build 0)  -->
<svg version="1.1" xmlns="http://www.w3.org/2000/svg" x="0px" y="0px" viewBox="0 0 792 612" xml:space="preserve">
<g transform="matrix(2.4012002,0,0,2.4012002,-544.18666,-428.44114)">
	<polygon class="st0" fill="none" points="333.36,346.54 331.96,348.98 404.53,348.98 403.13,346.54 404.53,344.11 331.96,344.11 	"/>
	<polygon class="st0" fill="none" points="374.7,418.14 376.1,420.57 412.39,357.72 409.58,357.72 408.17,355.28 371.89,418.14 	"/>
	<polygon class="st0" fill="none" points="412.39,192.18 409.58,192.18 408.17,189.74 389.73,221.68 371.89,252.6 374.7,252.6 376.1,255.03
		393.98,224.07 	"/>
	<polygon class="st0" fill="none" points="381.15,263.77 379.74	,266.21 452.32,266.21 450.92,263.77 452.32,261.34 379.75,261.34 	"/>
	<polygon class="st0" fill="none" points="371.88,274.95 388.95,304.5 408.17,337.8 409.58,335.37 412.39,335.37 376.1,272.52 374.7,274.95 	"/>
	<polygon class="st0" fill="none" points="237.79,346.54 236.38,348.98 308.96,348.98 307.55,346.54 308.96,344.11 236.38,344.11 	"/>
	<polygon class="st0" fill="none" points="476.72,263.77 475.32,266.21 547.89,266.21 546.49,263.77 547.9,261.34 475.32,261.34 	"/>
	<polygon class="st1" fill="#133775" points="389.73,221.68 408.17,189.74 404.53,183.44 331.96,183.44 328.31,189.75 364.6,252.6 371.89,252.6
		"/>
	<polygon class="st2" fill="#0257A7" points="404.53,344.11 408.17,337.8 388.95,304.5 371.88,274.95 364.6,274.95 346.46,306.38 328.31,337.8
		331.96,344.11 	"/>
	<polygon class="st3" fill="#00A1E2" points="236.38,348.98 232.74,355.28 269.03,418.14 276.31,418.14 312.6,355.28 308.96,348.98 	"/>
	<polygon class="st4" fill="#00A7E2" points="236.38,344.11 232.74,337.8 269.03,274.95 276.31,274.95 312.6,337.8 308.96,344.11 	"/>
	<polygon class="st5" fill="#0090CC" points="376.1,420.57 379.74,426.88 452.32,426.88 455.96,420.57 419.67,357.72 412.39,357.72 	"/>
	<polygon class="st6" fill="#0B73AF" points="408.17,355.28 404.53,348.98 331.96,348.98 328.31,355.28 364.6,418.14 371.88,418.14 	"/>
	<polygon class="st4" fill="#00A7E2" points="547.9,261.34 551.54,255.03 515.25,192.18 507.96,192.18 471.68,255.03 475.32,261.34 	"/>
	<polygon class="st3" fill="#00A1E2" points="547.9,266.21 551.54,272.51 515.25,335.37 507.96,335.37 471.68,272.51 475.32,266.21 	"/>
	<polygon class="st7" fill="#004B99" points="379.74,266.21 376.1,272.52 412.39,335.37 419.67,335.37 455.96,272.51 452.32,266.21 	"/>
	<polygon class="st8" fill="#003595" points="393.98,224.07 376.1,255.03 379.75,261.34 452.32,261.34 455.96,255.03 419.67,192.18 412.39,192.18
		"/>
</g>
</svg>
