<?xml version="1.0" encoding="UTF-8"?>
<svg version="1.1" xmlns="http://www.w3.org/2000/svg" width="200" height="200">
<path d="M0 0 C66 0 132 0 200 0 C200 66 200 132 200 200 C134 200 68 200 0 200 C0 134 0 68 0 0 Z " fill="#000000" transform="translate(0,0)"/>
<path d="M0 0 C1.42101465 0.018009 2.84209685 0.03125716 4.26319885 0.03997803 C7.98194812 0.07609493 11.69593027 0.17907362 15.41290283 0.29577637 C19.21022293 0.40176891 23.00820734 0.4387659 26.80664062 0.484375 C32.33621969 0.56354986 37.86434939 0.66528576 43.39233398 0.82128906 C44.50293686 0.8522467 45.61353973 0.88320435 46.75779724 0.9151001 C49.25390625 1.109375 49.25390625 1.109375 50.25390625 2.109375 C50.75671133 6.47242551 50.57628621 8.58995043 48.234375 12.36328125 C47.32008994 13.48003311 46.38796513 14.58234382 45.44140625 15.671875 C44.42271052 16.90326 43.40449442 18.13504193 42.38671875 19.3671875 C41.86368164 19.98883789 41.34064453 20.61048828 40.80175781 21.25097656 C38.40432227 24.12941179 36.11504427 27.08944775 33.81640625 30.046875 C29.4999992 35.55263021 25.13539669 41.01890542 20.7565918 46.47509766 C16.70808064 51.52532275 12.70582556 56.61074962 8.73046875 61.71875 C3.80281227 68.02674399 3.80281227 68.02674399 -0.37890625 68.65625 C-12.04990811 69.38960231 -12.04990811 69.38960231 -16.61328125 65.9453125 C-20.05786635 61.56703034 -22.82107037 57.63830635 -22.98657227 52.01782227 C-23.01231827 51.17256485 -23.03806427 50.32730743 -23.06459045 49.45643616 C-23.14926018 45.55908368 -23.21474044 41.66191646 -23.26098633 37.76391602 C-23.2924814 35.71835136 -23.3400826 33.67296521 -23.40454102 31.62817383 C-23.49664713 28.66418467 -23.53475564 25.70349339 -23.5625 22.73828125 C-23.60065323 21.83888321 -23.63880646 20.93948517 -23.67811584 20.01283264 C-23.65795019 13.2975139 -21.61132426 8.50271279 -17.4087677 3.25999451 C-12.23464078 -0.91910459 -6.34290032 -0.25704179 0 0 Z " fill="#D0FE54" transform="translate(54.74609375,65.890625)"/>
<path d="M0 0 C1.51880531 -0.00420403 3.03760487 -0.01152595 4.55638123 -0.02180481 C7.72869199 -0.03199672 10.89816788 -0.00682565 14.07006836 0.04418945 C18.12238575 0.10683525 22.16889187 0.08430579 26.22122288 0.03566456 C29.35391284 0.00693286 32.48525053 0.0217669 35.61790276 0.04968834 C37.11091394 0.05816292 38.60405975 0.05372158 40.09698677 0.03574562 C51.59499888 -0.06482168 51.59499888 -0.06482168 55.85946655 3.19528198 C60.51007897 8.83889728 61.31515046 13.62462476 60.87109375 20.79296875 C60.84789062 21.69789062 60.8246875 22.6028125 60.80078125 23.53515625 C60.58460307 30.07945943 60.58460307 30.07945943 59.37109375 31.29296875 C56.41863021 31.38823681 53.48960954 31.41849327 50.53686523 31.40649414 C49.61013 31.40664017 48.68339478 31.40678619 47.72857666 31.40693665 C44.64975688 31.40623713 41.57099678 31.39844296 38.4921875 31.390625 C36.36369357 31.38876096 34.23519922 31.38733699 32.10670471 31.38633728 C26.49247055 31.38251103 20.87826207 31.37267983 15.26403809 31.3616333 C9.53996122 31.35142148 3.81588022 31.34684015 -1.90820312 31.34179688 C-13.14844881 31.33105766 -24.3886754 31.31397995 -35.62890625 31.29296875 C-35.62890625 27.19824405 -35.58733395 26.73836272 -33.28515625 23.75390625 C-32.5271875 22.75810547 -32.5271875 22.75810547 -31.75390625 21.7421875 C-31.21765625 21.05769531 -30.68140625 20.37320313 -30.12890625 19.66796875 C-29.62359375 19.00667969 -29.11828125 18.34539062 -28.59765625 17.6640625 C-27.56181015 16.31487296 -26.50814407 14.97916721 -25.43663025 13.65812683 C-23.58094405 11.32309981 -23.58094405 11.32309981 -22.09571838 8.72749329 C-16.32733355 -0.16344121 -9.76140609 -0.17344417 0 0 Z " fill="#D1FD56" transform="translate(105.62890625,102.70703125)"/>
<path d="M0 0 C0.91765137 -0.00315216 1.83530273 -0.00630432 2.78076172 -0.009552 C4.27760498 -0.00651566 4.27760498 -0.00651566 5.8046875 -0.00341797 C6.82191895 -0.00437469 7.83915039 -0.00533142 8.88720703 -0.00631714 C11.04264386 -0.00699908 13.19808272 -0.00514382 15.35351562 -0.00097656 C18.66541121 0.00437148 21.97717117 -0.0009211 25.2890625 -0.00732422 C27.37760447 -0.00666344 29.46614635 -0.00538228 31.5546875 -0.00341797 C32.55258301 -0.0054422 33.55047852 -0.00746643 34.57861328 -0.009552 C35.49626465 -0.00639984 36.41391602 -0.00324768 37.359375 0 C38.17132324 0.00079559 38.98327148 0.00159119 39.81982422 0.00241089 C41.6796875 0.12939453 41.6796875 0.12939453 42.6796875 1.12939453 C43.09940316 4.28258834 43.14488787 7.45244854 43.2421875 10.62939453 C43.30470703 11.50337891 43.36722656 12.37736328 43.43164062 13.27783203 C43.59294581 19.86690455 41.77163634 23.48070217 37.2908783 28.24935913 C32.25790891 31.87305474 26.75289819 31.22681023 20.7734375 31.00830078 C19.43970056 30.99148454 18.10590747 30.9786876 16.77209473 30.9697113 C13.28534574 30.93557742 9.80204842 30.84739596 6.31665039 30.74737549 C2.75063775 30.65479279 -0.81594081 30.61409537 -4.3828125 30.56884766 C-11.36338457 30.47273715 -18.34168225 30.31943092 -25.3203125 30.12939453 C-24.47962066 26.19136198 -22.85714405 23.89678443 -20.3828125 20.69189453 C-19.57972656 19.64517578 -18.77664062 18.59845703 -17.94921875 17.52001953 C-17.30944092 16.6953418 -17.30944092 16.6953418 -16.65673828 15.85400391 C-15.2752928 14.07129823 -13.90420291 12.28101085 -12.53515625 10.48876953 C-4.5146959 0.00442376 -4.5146959 0.00442376 0 0 Z " fill="#D0FE54" transform="translate(123.3203125,66.87060546875)"/>
<path d="M0 0 C0.91765137 -0.00315216 1.83530273 -0.00630432 2.78076172 -0.009552 C4.27760498 -0.00651566 4.27760498 -0.00651566 5.8046875 -0.00341797 C6.82191895 -0.00437469 7.83915039 -0.00533142 8.88720703 -0.00631714 C11.04264386 -0.00699908 13.19808272 -0.00514382 15.35351562 -0.00097656 C18.66541121 0.00437148 21.97717117 -0.0009211 25.2890625 -0.00732422 C27.37760447 -0.00666344 29.46614635 -0.00538228 31.5546875 -0.00341797 C32.55258301 -0.0054422 33.55047852 -0.00746643 34.57861328 -0.009552 C35.49626465 -0.00639984 36.41391602 -0.00324768 37.359375 0 C38.17132324 0.00079559 38.98327148 0.00159119 39.81982422 0.00241089 C41.6796875 0.12939453 41.6796875 0.12939453 42.6796875 1.12939453 C43.09940316 4.28258834 43.14488787 7.45244854 43.2421875 10.62939453 C43.30470703 11.50337891 43.36722656 12.37736328 43.43164062 13.27783203 C43.59294581 19.86690455 41.77163634 23.48070217 37.2908783 28.24935913 C32.25790891 31.87305474 26.75289819 31.22681023 20.7734375 31.00830078 C19.43970056 30.99148454 18.10590747 30.9786876 16.77209473 30.9697113 C13.28534574 30.93557742 9.80204842 30.84739596 6.31665039 30.74737549 C2.75063775 30.65479279 -0.81594081 30.61409537 -4.3828125 30.56884766 C-11.36338457 30.47273715 -18.34168225 30.31943092 -25.3203125 30.12939453 C-24.47962066 26.19136198 -22.85714405 23.89678443 -20.3828125 20.69189453 C-19.57972656 19.64517578 -18.77664062 18.59845703 -17.94921875 17.52001953 C-17.30944092 16.6953418 -17.30944092 16.6953418 -16.65673828 15.85400391 C-15.2752928 14.07129823 -13.90420291 12.28101085 -12.53515625 10.48876953 C-4.5146959 0.00442376 -4.5146959 0.00442376 0 0 Z M-4.3203125 2.12939453 C-5.39556444 4.78168265 -6.41487401 7.41307907 -7.3203125 10.12939453 C-8.0834375 10.41814453 -8.8465625 10.70689453 -9.6328125 11.00439453 C-13.06061074 12.43928682 -14.28666952 14.04386725 -16.3203125 17.12939453 C-17.47866923 20.10442575 -17.47866923 20.10442575 -18.3203125 23.12939453 C-19.3103125 25.60439453 -19.3103125 25.60439453 -20.3203125 28.12939453 C-2.5003125 28.12939453 15.3196875 28.12939453 33.6796875 28.12939453 C33.6796875 26.80939453 33.6796875 25.48939453 33.6796875 24.12939453 C35.6596875 23.79939453 37.6396875 23.46939453 39.6796875 23.12939453 C39.70658199 20.17100098 39.72647491 17.21285026 39.7421875 14.25439453 C39.75475586 12.99175781 39.75475586 12.99175781 39.76757812 11.70361328 C39.77080078 10.89794922 39.77402344 10.09228516 39.77734375 9.26220703 C39.78258057 8.5185791 39.78781738 7.77495117 39.79321289 7.00878906 C39.79755386 5.03806885 39.79755386 5.03806885 38.6796875 3.12939453 C29.94469174 1.56359484 20.96253991 2.018339 12.1171875 2.06689453 C10.52018369 2.0719191 8.92317836 2.07648032 7.32617188 2.08056641 C3.44397217 2.09149725 -0.43815301 2.1087092 -4.3203125 2.12939453 Z " fill="#CDEA7E" transform="translate(123.3203125,66.87060546875)"/>
<path d="M0 0 C1.42101465 0.018009 2.84209685 0.03125716 4.26319885 0.03997803 C7.98194812 0.07609493 11.69593027 0.17907362 15.41290283 0.29577637 C19.21022293 0.40176891 23.00820734 0.4387659 26.80664062 0.484375 C32.33621969 0.56354986 37.86434939 0.66528576 43.39233398 0.82128906 C44.50293686 0.8522467 45.61353973 0.88320435 46.75779724 0.9151001 C49.25390625 1.109375 49.25390625 1.109375 50.25390625 2.109375 C50.8107859 6.49824829 50.53128317 9.21281681 47.953125 12.75 C46.96640615 13.96726063 45.96190653 15.17029271 44.94140625 16.359375 C44.44189453 16.97039062 43.94238281 17.58140625 43.42773438 18.2109375 C41.14846107 20.97625451 38.81349555 23.59907176 36.25390625 26.109375 C35.56640625 24.359375 35.56640625 24.359375 35.25390625 22.109375 C37.01128615 19.03396018 37.83336619 18.24955502 41.25390625 17.109375 C42.46272721 15.10921034 42.46272721 15.10921034 43.25390625 13.109375 C43.91390625 13.109375 44.57390625 13.109375 45.25390625 13.109375 C46.51159336 10.09092593 47.4558781 7.3014876 48.25390625 4.109375 C27.79390625 4.109375 7.33390625 4.109375 -13.74609375 4.109375 C-14.40609375 5.759375 -15.06609375 7.409375 -15.74609375 9.109375 C-17.18359375 11.921875 -17.18359375 11.921875 -18.74609375 14.109375 C-19.73609375 14.109375 -20.72609375 14.109375 -21.74609375 14.109375 C-21.677223 19.73318532 -21.58925919 25.3562517 -21.48364258 30.97949219 C-21.45040261 32.89216864 -21.42236776 34.80494297 -21.3996582 36.71777344 C-21.36609506 39.46852294 -21.31377886 42.21837632 -21.2578125 44.96875 C-21.25142258 45.82305603 -21.24503265 46.67736206 -21.2384491 47.55755615 C-21.12721347 52.05621803 -20.9687064 54.6986471 -17.74609375 58.109375 C-17.74609375 58.769375 -17.74609375 59.429375 -17.74609375 60.109375 C-21.62109375 58.359375 -21.62109375 58.359375 -22.74609375 56.109375 C-22.8749948 54.74926494 -22.94636016 53.38343489 -22.98657227 52.01782227 C-23.01231827 51.17256485 -23.03806427 50.32730743 -23.06459045 49.45643616 C-23.14926018 45.55908368 -23.21474044 41.66191646 -23.26098633 37.76391602 C-23.2924814 35.71835136 -23.3400826 33.67296521 -23.40454102 31.62817383 C-23.49664713 28.66418467 -23.53475564 25.70349339 -23.5625 22.73828125 C-23.60065323 21.83888321 -23.63880646 20.93948517 -23.67811584 20.01283264 C-23.65795019 13.2975139 -21.61132426 8.50271279 -17.4087677 3.25999451 C-12.23464078 -0.91910459 -6.34290032 -0.25704179 0 0 Z " fill="#D3F870" transform="translate(54.74609375,65.890625)"/>
<path d="M0 0 C7.77507318 7.56493607 7.77507318 7.56493607 8.35644531 11.27416992 C8.34709961 12.08474854 8.33775391 12.89532715 8.328125 13.73046875 C8.32296875 14.61541016 8.3178125 15.50035156 8.3125 16.41210938 C8.291875 17.32798828 8.27125 18.24386719 8.25 19.1875 C8.24484375 20.11498047 8.2396875 21.04246094 8.234375 21.99804688 C8.15422604 28.84577396 8.15422604 28.84577396 7 30 C4.04753646 30.09526806 1.11851579 30.12552452 -1.83422852 30.11352539 C-2.76096375 30.11367142 -3.68769897 30.11381744 -4.64251709 30.1139679 C-7.72133687 30.11326838 -10.80009697 30.10547421 -13.87890625 30.09765625 C-16.00740018 30.09579221 -18.13589453 30.09436824 -20.26438904 30.09336853 C-25.8786232 30.08954228 -31.49283168 30.07971108 -37.10705566 30.06866455 C-42.83113253 30.05845273 -48.55521353 30.0538714 -54.27929688 30.04882812 C-65.51954256 30.03808891 -76.75976915 30.0210112 -88 30 C-88 25.28093812 -86.71245796 23.72962969 -84 20 C-83.67 21.32 -83.34 22.64 -83 24 C-83.66 24.33 -84.32 24.66 -85 25 C-85.33 25.99 -85.66 26.98 -86 28 C-84.85776978 27.83734146 -83.71553955 27.67468292 -82.53869629 27.50709534 C-78.1353597 26.95953034 -73.81336057 26.86541465 -69.38085938 26.88647461 C-68.15015717 26.88625557 -68.15015717 26.88625557 -66.89459229 26.8860321 C-64.2109503 26.88672294 -61.5273797 26.89447611 -58.84375 26.90234375 C-56.97188352 26.90421088 -55.10001656 26.90563339 -53.22814941 26.90663147 C-48.32257721 26.91043341 -43.41703503 26.92024368 -38.51147461 26.93133545 C-33.4972372 26.9415997 -28.4829949 26.9461398 -23.46875 26.95117188 C-13.64582021 26.9618682 -3.82291261 26.97891648 6 27 C5.87895057 24.42375235 5.74725576 21.84879337 5.609375 19.2734375 C5.55982666 18.18373657 5.55982666 18.18373657 5.50927734 17.07202148 C5.20007039 11.52838248 4.61070803 8.2124927 1 4 C-1.5908295 2.50886646 -1.5908295 2.50886646 -4 2 C-2.68 1.34 -1.36 0.68 0 0 Z " fill="#B4D15E" transform="translate(158,104)"/>
<path d="M0 0 C0.66 0.33 1.32 0.66 2 1 C0.72322719 5.2231716 -0.67214625 8.12024374 -3 12 C14.49 11.67 31.98 11.34 50 11 C50.33 10.01 50.66 9.02 51 8 C52.98 7.67 54.96 7.34 57 7 C57 5.02 57 3.04 57 1 C57.33 1 57.66 1 58 1 C58.53208584 5.4340487 58.36614061 7.45825713 55.83349609 11.20556641 C50.95605406 15.75981198 44.55719511 14.73741306 38.2890625 14.5859375 C36.95244254 14.57473383 35.61579779 14.56619917 34.27914429 14.56021118 C30.7768235 14.53740325 27.27601789 14.47855548 23.77429199 14.4119873 C20.19478855 14.3503874 16.615038 14.32315882 13.03515625 14.29296875 C6.02281871 14.22879984 -0.98851772 14.12652169 -8 14 C-7.18722884 10.24660186 -5.69832318 7.87404658 -3.4375 4.75 C-2.79683594 3.85796875 -2.15617187 2.9659375 -1.49609375 2.046875 C-0.75552734 1.03367187 -0.75552734 1.03367187 0 0 Z " fill="#D3F483" transform="translate(106,83)"/>
<path d="M0 0 C21.12 0 42.24 0 64 0 C64.99 1.98 65.98 3.96 67 6 C70.08961458 6.97474816 70.08961458 6.97474816 73 7 C70.38888348 11.83540096 67.62542917 15.87103901 64 20 C63.34 19.67 62.68 19.34 62 19 C62 18.34 62 17.68 62 17 C61.21625 17.515625 60.4325 18.03125 59.625 18.5625 C58.75875 19.036875 57.8925 19.51125 57 20 C56.34 19.67 55.68 19.34 55 19 C55.5775 18.35933594 56.155 17.71867187 56.75 17.05859375 C57.4925 16.19363281 58.235 15.32867187 59 14.4375 C59.7425 13.59058594 60.485 12.74367188 61.25 11.87109375 C63.60720663 8.56420027 63.60720663 8.56420027 63 2 C42.21 1.67 21.42 1.34 0 1 C0 0.67 0 0.34 0 0 Z " fill="#091202" transform="translate(41,66)"/>
<path d="M0 0 C7.93613787 -0.02312764 15.87226176 -0.04091723 23.80842495 -0.05181217 C27.49314498 -0.05704008 31.17784203 -0.06413605 34.86254883 -0.07543945 C38.41570831 -0.08627162 41.96884563 -0.09227753 45.52202034 -0.09487724 C46.88045666 -0.0967309 48.23889171 -0.10035038 49.59731865 -0.10573006 C51.49382223 -0.11294475 53.39034793 -0.11340809 55.28686523 -0.11352539 C56.36830307 -0.115746 57.44974091 -0.11796661 58.56394958 -0.12025452 C61 0 61 0 62 1 C62.55687965 5.38887329 62.27737692 8.10344181 59.69921875 11.640625 C58.7124999 12.85788563 57.70800028 14.06091771 56.6875 15.25 C56.18798828 15.86101562 55.68847656 16.47203125 55.17382812 17.1015625 C52.89455482 19.86687951 50.5595893 22.48969676 48 25 C47.3125 23.25 47.3125 23.25 47 21 C48.7573799 17.92458518 49.57945994 17.14018002 53 16 C54.20882096 13.99983534 54.20882096 13.99983534 55 12 C55.66 12 56.32 12 57 12 C58.69268808 8.16324035 59.2817669 5.3093986 60 1 C40.2 1 20.4 1 0 1 C0 0.67 0 0.34 0 0 Z " fill="#CCE48F" transform="translate(43,67)"/>
<path d="M0 0 C7.78852244 7.57802183 7.78852244 7.57802183 8.34057617 11.29003906 C8.32486572 12.10698242 8.30915527 12.92392578 8.29296875 13.765625 C8.28330078 14.65507813 8.27363281 15.54453125 8.26367188 16.4609375 C8.23853516 17.38132812 8.21339844 18.30171875 8.1875 19.25 C8.17396484 20.18585938 8.16042969 21.12171875 8.14648438 22.0859375 C8.11119954 24.39121327 8.06190281 26.6953106 8 29 C6.35 29 4.7 29 3 29 C3.33 28.34 3.66 27.68 4 27 C4.66 27 5.32 27 6 27 C6.17834312 14.6732692 6.17834312 14.6732692 1 4 C-1.5908295 2.50886646 -1.5908295 2.50886646 -4 2 C-2.68 1.34 -1.36 0.68 0 0 Z " fill="#BFDD67" transform="translate(158,104)"/>
<path d="M0 0 C0.33 0 0.66 0 1 0 C1 6.6 1 13.2 1 20 C0.34 20.33 -0.32 20.66 -1 21 C-2.95021536 14.53991163 -3.22262303 8.7281627 -3 2 C-5.97 2 -8.94 2 -12 2 C-12 1.67 -12 1.34 -12 1 C-11.21753906 1.01160156 -10.43507812 1.02320312 -9.62890625 1.03515625 C-8.61699219 1.04417969 -7.60507813 1.05320312 -6.5625 1.0625 C-5.04849609 1.07990234 -5.04849609 1.07990234 -3.50390625 1.09765625 C-1.05978933 1.28612676 -1.05978933 1.28612676 0 0 Z " fill="#C4E65E" transform="translate(165,68)"/>
<path d="M0 0 C0.33 0 0.66 0 1 0 C1.01458252 1.22106445 1.02916504 2.44212891 1.04418945 3.70019531 C1.10218565 8.23288172 1.17941857 12.76507204 1.26245117 17.29736328 C1.29569428 19.25854436 1.32372815 21.21982098 1.34643555 23.18115234 C1.37999281 26.00139047 1.43230899 28.82075365 1.48828125 31.640625 C1.49467117 32.51680481 1.5010611 33.39298462 1.50764465 34.29571533 C1.61718769 38.83672163 1.72748061 41.5669296 5 45 C5 45.66 5 46.32 5 47 C1.125 45.25 1.125 45.25 0 43 C-0.08918777 41.61090696 -0.11759541 40.21763093 -0.11352539 38.82568359 C-0.11344986 37.96494232 -0.11337433 37.10420105 -0.11329651 36.21737671 C-0.10813522 35.28712677 -0.10297394 34.35687683 -0.09765625 33.3984375 C-0.0962413 32.44683746 -0.09482635 31.49523743 -0.09336853 30.51480103 C-0.08776012 27.46816903 -0.07520619 24.42160987 -0.0625 21.375 C-0.05748608 19.31250106 -0.05292299 17.25000097 -0.04882812 15.1875 C-0.03778796 10.12497183 -0.02051767 5.06249827 0 0 Z " fill="#D3F27A" transform="translate(32,79)"/>
<path d="M0 0 C0.66 0.99 1.32 1.98 2 3 C0.23161621 5.27277849 -1.5395861 7.54325964 -3.3125 9.8125 C-3.81201172 10.45509766 -4.31152344 11.09769531 -4.82617188 11.75976562 C-5.55610352 12.69272461 -5.55610352 12.69272461 -6.30078125 13.64453125 C-6.74591064 14.21534424 -7.19104004 14.78615723 -7.6496582 15.37426758 C-9.01546416 17.01861794 -10.46578334 18.5130506 -12 20 C-12.6875 18.25 -12.6875 18.25 -13 16 C-11.2426201 12.92458518 -10.42054006 12.14018002 -7 11 C-5.79117904 8.99983534 -5.79117904 8.99983534 -5 7 C-4.34 7 -3.68 7 -3 7 C-2.690625 6.21625 -2.38125 5.4325 -2.0625 4.625 C-1 2 -1 2 0 0 Z " fill="#CCED6B" transform="translate(103,72)"/>
<path d="M0 0 C2.31 0.33 4.62 0.66 7 1 C7 1.33 7 1.66 7 2 C5.02 2 3.04 2 1 2 C0.9175 2.515625 0.835 3.03125 0.75 3.5625 C-0.32140225 7.04455732 -2.13523605 9.87200885 -4 13 C-5.32 12.67 -6.64 12.34 -8 12 C-4 6 -4 6 0 0 Z " fill="#C8E868" transform="translate(40,67)"/>
<path d="M0 0 C0.99 0.33 1.98 0.66 3 1 C1.546875 3.48046875 1.546875 3.48046875 -1 6 C-3.93544596 6.6295563 -6.76471297 6.47339855 -9.75 6.3125 C-10.54277344 6.28994141 -11.33554687 6.26738281 -12.15234375 6.24414062 C-14.1023762 6.18540471 -16.05143312 6.09572654 -18 6 C-18.33 5.34 -18.66 4.68 -19 4 C-16.54159395 3.97308315 -14.08348118 3.95320198 -11.625 3.9375 C-10.92632812 3.92912109 -10.22765625 3.92074219 -9.5078125 3.91210938 C-4.2265625 3.88671875 -4.2265625 3.88671875 -2 5 C-1.34 3.35 -0.68 1.7 0 0 Z " fill="#D5FA63" transform="translate(60,127)"/>
<path d="M0 0 C0.66 0.33 1.32 0.66 2 1 C0.77989654 5.03572682 -0.45670118 8.60893491 -3 12 C-5.6875 13.3125 -5.6875 13.3125 -8 14 C-7.37606349 10.23880524 -5.65226285 7.81039958 -3.4375 4.75 C-2.79683594 3.85796875 -2.15617187 2.9659375 -1.49609375 2.046875 C-0.75552734 1.03367187 -0.75552734 1.03367187 0 0 Z " fill="#C9EB69" transform="translate(106,83)"/>
<path d="M0 0 C1.65 0 3.3 0 5 0 C5.66 1.98 6.32 3.96 7 6 C12.28 6.33 17.56 6.66 23 7 C23 7.33 23 7.66 23 8 C7.69775785 9.22690583 7.69775785 9.22690583 3.53515625 6.21875 C2.07708153 4.19384427 0.94236341 2.30698803 0 0 Z " fill="#B1CE58" transform="translate(35,126)"/>
<path d="M0 0 C0.66 0 1.32 0 2 0 C1.51206786 4.3913893 0.2670796 6.09592925 -3 9 C-3.9075 9.9075 -4.815 10.815 -5.75 11.75 C-6.86375 12.86375 -6.86375 12.86375 -8 14 C-8.66 13.67 -9.32 13.34 -10 13 C-8.38247153 10.82737873 -6.75661363 8.66200042 -5.125 6.5 C-4.66480469 5.87996094 -4.20460938 5.25992188 -3.73046875 4.62109375 C-2.53437826 3.04364108 -1.27143274 1.51738202 0 0 Z " fill="#CAEA6C" transform="translate(117,69)"/>
<path d="M0 0 C0.99 0.33 1.98 0.66 3 1 C1.54601271 2.81598825 0.08667675 4.62769519 -1.375 6.4375 C-2.59316406 7.95150391 -2.59316406 7.95150391 -3.8359375 9.49609375 C-6 12 -6 12 -8 13 C-8 9 -8 9 -5.625 6.25 C-3 4 -3 4 -1 4 C-0.67 2.68 -0.34 1.36 0 0 Z " fill="#C9E96E" transform="translate(88,92)"/>
<path d="M0 0 C0.66 0.33 1.32 0.66 2 1 C0.85793642 2.50287218 -0.28874957 4.00223284 -1.4375 5.5 C-2.39462891 6.75296875 -2.39462891 6.75296875 -3.37109375 8.03125 C-3.90863281 8.6809375 -4.44617188 9.330625 -5 10 C-5.33 10 -5.66 10 -6 10 C-6.375 7.25 -6.375 7.25 -6 4 C-3 1.625 -3 1.625 0 0 Z " fill="#CAEC66" transform="translate(73,112)"/>
<path d="M0 0 C0.33 0 0.66 0 1 0 C1.48514851 6.30693069 1.48514851 6.30693069 -0.75 9.5 C-3 11 -3 11 -5.25 10.75 C-6.11625 10.37875 -6.11625 10.37875 -7 10 C-6.67 9.01 -6.34 8.02 -6 7 C-4.02 6.67 -2.04 6.34 0 6 C0 4.02 0 2.04 0 0 Z " fill="#CBEE69" transform="translate(163,84)"/>
<path d="M0 0 C0 4.54960762 -2.12127294 7.07105996 -5.1875 10.3125 C-6.0846875 11.1478125 -6.0846875 11.1478125 -7 12 C-7.66 11.67 -8.32 11.34 -9 11 C-6.03 7.37 -3.06 3.74 0 0 Z " fill="#0D1A01" transform="translate(91,92)"/>
<path d="M0 0 C0.66 0.99 1.32 1.98 2 3 C0.02 5.64 -1.96 8.28 -4 11 C-4.33 9.68 -4.66 8.36 -5 7 C-4.34 7 -3.68 7 -3 7 C-2.690625 6.21625 -2.38125 5.4325 -2.0625 4.625 C-1 2 -1 2 0 0 Z " fill="#C5E46D" transform="translate(103,72)"/>
<path d="M0 0 C0.33 1.32 0.66 2.64 1 4 C0.01 4.495 0.01 4.495 -1 5 C-1.33 5.99 -1.66 6.98 -2 8 C-0.68 8.33 0.64 8.66 2 9 C-0.31 9 -2.62 9 -5 9 C-3.7508258 5.54074837 -2.32472205 2.85306797 0 0 Z " fill="#C6E271" transform="translate(74,124)"/>
<path d="M0 0 C0.33 1.32 0.66 2.64 1 4 C-0.9375 6.75 -0.9375 6.75 -3 9 C-3.99 8.67 -4.98 8.34 -6 8 C-4.02 5.36 -2.04 2.72 0 0 Z " fill="#C3E16B" transform="translate(84,111)"/>
<path d="M0 0 C0.99 0.33 1.98 0.66 3 1 C1.4375 3.5 1.4375 3.5 -1 6 C-4.75 6.3125 -4.75 6.3125 -8 6 C-8 5.67 -8 5.34 -8 5 C-6.02 5 -4.04 5 -2 5 C-1.34 3.35 -0.68 1.7 0 0 Z " fill="#CFF070" transform="translate(60,127)"/>
<path d="M0 0 C0 3 0 3 -2.5 5.6875 C-3.325 6.450625 -4.15 7.21375 -5 8 C-4.64950425 4.75791433 -4.43778819 3.38472296 -1.9375 1.1875 C-1.298125 0.795625 -0.65875 0.40375 0 0 Z " fill="#D2F568" transform="translate(80,119)"/>
<path d="M0 0 C2.75 2.4375 2.75 2.4375 5 5 C4.34 5.66 3.68 6.32 3 7 C2.401875 6.38125 1.80375 5.7625 1.1875 5.125 C-1.00811144 2.86323046 -1.00811144 2.86323046 -4 1 C-2.3125 0.1875 -2.3125 0.1875 0 0 Z " fill="#C2E268" transform="translate(158,104)"/>
<path d="M0 0 C0.66 0.33 1.32 0.66 2 1 C-0.475 4.465 -0.475 4.465 -3 8 C-3.66 7.34 -4.32 6.68 -5 6 C-4.34 5.01 -3.68 4.02 -3 3 C-2.34 3 -1.68 3 -1 3 C-0.67 2.01 -0.34 1.02 0 0 Z " fill="#111F03" transform="translate(102,86)"/>
<path d="M0 0 C0.99 0.66 1.98 1.32 3 2 C2.01 2.33 1.02 2.66 0 3 C0 3.66 0 4.32 0 5 C-1.65 5.66 -3.3 6.32 -5 7 C-3.35 4.69 -1.7 2.38 0 0 Z " fill="#0D1902" transform="translate(165,88)"/>
</svg>
