<svg version="1.1" id="c9b1acde-cc5a-42b3-929d-2d37c6b2d3f4" xmlns="http://www.w3.org/2000/svg" x="0px" y="0px"
	 width="100%" viewBox="0 0 850 446" enable-background="new 0 0 850 446" xml:space="preserve">
<path fill="#FFFFFF" opacity="1.000000" stroke="none" 
	d="
M1.000003,210.000000 
	C1.000000,140.357925 1.000000,70.715843 1.000002,1.068401 
	C284.333344,1.063041 567.666687,1.063041 851.000000,1.063041 
	C851.000000,54.440712 851.000000,107.755348 850.535400,161.601700 
	C843.147644,162.133423 836.224426,162.133423 829.341797,162.133423 
	C829.341797,203.272156 829.341797,243.742355 829.341797,285.000000 
	C836.788330,285.000000 843.894165,285.000000 851.000000,285.000000 
	C851.000000,338.980957 851.000000,392.961914 851.000000,446.971436 
	C567.785645,446.971436 284.571320,446.971436 1.000000,446.971436 
	C1.000000,377.977081 1.000000,308.953552 1.354887,239.641418 
	C1.817366,239.838425 1.945017,240.320557 2.029706,240.810120 
	C12.013633,298.525452 62.329807,336.049744 120.447784,329.119873 
	C179.099136,322.126373 221.348160,264.505402 210.678375,206.393433 
	C201.199615,154.768341 158.032562,120.868530 110.644585,118.934105 
	C58.313419,116.797905 12.185954,153.487885 2.643635,205.080109 
	C2.332223,206.763794 1.558318,208.361969 1.000003,210.000000 
M372.016724,239.436844 
	C372.549744,235.984375 373.318787,232.549606 373.579010,229.076691 
	C376.001770,196.746262 358.521637,170.117752 326.192169,164.042587 
	C318.406738,162.579590 310.323090,162.398132 302.364014,162.232529 
	C288.915405,161.952682 275.456818,162.155731 261.856781,162.155731 
	C261.856781,203.171707 261.856781,243.703964 261.856781,284.159515 
	C280.916992,284.159515 299.613617,285.086761 318.182404,283.941559 
	C345.828888,282.236481 364.135071,266.612457 372.016724,239.436844 
M563.976135,284.586853 
	C595.560364,274.492035 599.797241,240.807053 591.264099,220.099289 
	C586.490540,208.515305 578.163513,200.433502 566.478394,196.274048 
	C548.876343,190.008377 532.218933,191.923935 516.684570,204.403641 
	C516.684570,200.841278 516.684570,198.242081 516.684570,195.497314 
	C509.237671,195.497314 502.186493,195.497314 495.187073,195.497314 
	C495.187073,236.387833 495.187073,276.934479 495.187073,317.409302 
	C502.585388,317.409302 509.621094,317.409302 517.103638,317.409302 
	C517.103638,303.450623 517.103638,289.923309 517.103638,275.757416 
	C531.291931,287.300293 546.643005,289.372528 563.976135,284.586853 
M676.290649,195.076752 
	C659.591736,190.536682 644.127014,192.771988 629.890015,204.433533 
	C629.890015,200.865601 629.890015,198.257919 629.890015,195.412338 
	C622.503052,195.412338 615.430420,195.412338 608.108215,195.412338 
	C608.108215,236.232040 608.108215,276.792358 608.108215,317.569427 
	C615.449341,317.569427 622.514404,317.569427 630.153687,317.569427 
	C630.153687,303.638489 630.153687,289.971222 630.153687,275.754700 
	C631.598145,276.785004 632.406982,277.337433 633.190125,277.924164 
	C650.067566,290.568665 675.826355,289.650024 692.239685,276.623474 
	C715.610413,258.075165 715.485657,207.302246 676.290649,195.076752 
M808.634460,212.931183 
	C802.261108,203.587128 793.573181,197.307190 782.565979,195.021591 
	C775.799500,193.616577 768.682373,192.742477 761.821106,193.178513 
	C744.287903,194.292770 729.715210,201.461609 722.136963,218.129227 
	C714.152466,235.690430 714.879517,253.368439 726.648987,269.145355 
	C744.121399,292.567169 784.507874,293.396667 804.352722,270.960815 
	C808.515320,266.254791 811.315613,260.343842 815.378418,253.996475 
	C807.767639,253.996475 801.946594,254.188400 796.146729,253.920547 
	C792.947510,253.772797 791.271484,254.945999 789.313965,257.474945 
	C786.839355,260.671936 783.586548,263.629913 780.056824,265.584930 
	C763.218018,274.911469 741.547058,264.254364 740.316589,246.003891 
	C742.150146,246.003891 743.968750,246.003891 745.787354,246.003922 
	C767.434509,246.004181 789.082214,245.920670 810.728210,246.078339 
	C814.848328,246.108353 816.291077,244.804596 816.248718,240.634933 
	C816.150085,230.937698 814.231384,221.830093 808.634460,212.931183 
M479.988831,254.403214 
	C482.889923,243.307678 482.652924,232.307938 478.664337,221.520874 
	C465.769806,186.647781 416.298126,186.246231 396.855011,205.557449 
	C382.601959,219.713837 380.006256,236.988785 385.287231,255.405869 
	C390.427795,273.333069 403.559570,283.036133 421.638733,286.109650 
	C449.592407,290.861786 471.353729,279.211639 479.988831,254.403214 
z"/>
<path fill="#1556FE" opacity="1.000000" stroke="none" 
	d="
M1.000003,210.468658 
	C1.558318,208.361969 2.332223,206.763794 2.643635,205.080109 
	C12.185954,153.487885 58.313419,116.797905 110.644585,118.934105 
	C158.032562,120.868530 201.199615,154.768341 210.678375,206.393433 
	C221.348160,264.505402 179.099136,322.126373 120.447784,329.119873 
	C62.329807,336.049744 12.013633,298.525452 2.029706,240.810120 
	C1.945017,240.320557 1.817366,239.838425 1.354887,239.176407 
	C1.000000,229.645767 1.000000,220.291550 1.000003,210.468658 
M46.525345,149.675980 
	C46.525345,149.675980 46.476322,149.693924 45.795441,149.599365 
	C40.449894,155.020248 34.533833,159.992172 29.854986,165.937729 
	C6.345927,195.811508 3.339664,239.107651 22.411974,271.860413 
	C30.925276,286.480286 43.708366,294.274475 61.876358,293.992493 
	C66.007195,293.628052 70.138031,293.263611 75.042732,292.904388 
	C81.981445,291.204132 88.920166,289.503906 96.323753,287.689789 
	C95.431892,286.444977 95.361458,286.273438 95.233795,286.180389 
	C94.429115,285.593994 93.610481,285.026794 92.798729,284.450043 
	C66.198807,265.550751 51.237953,239.898163 47.770206,207.424896 
	C45.907463,189.981476 49.294296,173.397156 55.627369,156.645157 
	C58.697105,150.530731 61.766846,144.416290 64.836578,138.301849 
	C64.610062,137.943390 64.383537,137.584930 64.157013,137.226471 
	C58.793438,140.773972 53.429863,144.321472 47.434208,148.101913 
	C47.148624,148.625534 46.863045,149.149139 46.525345,149.675980 
M191.000015,214.678665 
	C191.319641,214.981430 191.639267,215.284195 192.016907,216.228134 
	C195.395447,221.576797 198.774002,226.925476 202.152542,232.274139 
	C202.517654,232.202805 202.882751,232.131470 203.247864,232.060135 
	C202.880569,226.061478 202.513290,220.062820 202.219589,213.193802 
	C201.681381,209.750443 201.371796,206.252869 200.570251,202.871948 
	C190.685776,161.179886 155.895828,131.487411 113.136971,128.160797 
	C93.826859,126.658470 76.759323,135.285431 68.731468,150.774292 
	C67.149788,154.548904 65.568115,158.323502 63.568752,162.658188 
	C60.030884,169.223633 58.575474,176.291824 57.558357,184.396973 
	C59.616039,183.387604 60.630238,182.850311 61.675732,182.383041 
	C90.380913,169.553314 119.306564,168.993225 148.338852,181.116119 
	C165.466293,188.267975 179.164948,199.962708 190.922165,214.095352 
	C190.922165,214.095352 190.841614,214.022903 191.000015,214.678665 
M181.513351,218.308014 
	C176.734116,212.929489 171.954895,207.550964 166.801346,201.751175 
	C156.149094,268.500397 118.036621,301.970093 51.823540,303.900879 
	C52.935654,304.659454 54.201935,305.611816 55.549957,306.429352 
	C75.646362,318.618134 97.381813,323.668060 120.624969,319.892456 
	C152.117462,314.776855 176.448059,298.637756 191.137543,269.965698 
	C198.024841,256.522522 197.581726,242.401749 188.985504,228.481018 
	C186.592010,225.322144 184.198517,222.163269 181.513351,218.308014 
M132.190582,261.676270 
	C147.678909,243.977753 155.813232,223.420685 156.503220,199.867065 
	C156.601349,196.516785 155.425461,194.725464 152.578705,193.264984 
	C123.060738,178.121216 93.397690,177.603699 63.285347,191.651321 
	C57.576817,194.314407 55.837181,197.448105 56.426235,203.778397 
	C59.485970,236.660080 74.640297,261.968414 102.321266,279.935242 
	C105.463676,281.974884 107.923622,282.120636 110.733528,279.763733 
	C117.725899,273.898621 124.765434,268.089722 132.190582,261.676270 
z"/>
<path fill="#1154FE" opacity="1.000000" stroke="none" 
	d="
M851.000000,284.531342 
	C843.894165,285.000000 836.788330,285.000000 829.341797,285.000000 
	C829.341797,243.742355 829.341797,203.272156 829.341797,162.133423 
	C836.224426,162.133423 843.147644,162.133423 850.535400,162.066711 
	C851.000000,202.687561 851.000000,243.375122 851.000000,284.531342 
z"/>
<path fill="#1254FE" opacity="1.000000" stroke="none" 
	d="
M371.949493,239.847260 
	C364.135071,266.612457 345.828888,282.236481 318.182404,283.941559 
	C299.613617,285.086761 280.916992,284.159515 261.856781,284.159515 
	C261.856781,243.703964 261.856781,203.171707 261.856781,162.155731 
	C275.456818,162.155731 288.915405,161.952682 302.364014,162.232529 
	C310.323090,162.398132 318.406738,162.579590 326.192169,164.042587 
	C358.521637,170.117752 376.001770,196.746262 373.579010,229.076691 
	C373.318787,232.549606 372.549744,235.984375 371.949493,239.847260 
M348.662292,216.186386 
	C345.944519,200.998230 338.136292,189.296814 322.688019,186.041977 
	C310.885651,183.555283 298.448853,184.079483 286.357666,183.268600 
	C286.357666,210.725861 286.357666,236.765930 286.357666,262.925995 
	C295.522034,262.925995 304.348541,263.254181 313.139923,262.839050 
	C323.083252,262.369507 331.990540,258.941040 338.934601,251.438690 
	C347.992737,241.652313 349.917389,229.790054 348.662292,216.186386 
z"/>
<path fill="#1254FE" opacity="1.000000" stroke="none" 
	d="
M563.594727,284.718750 
	C546.643005,289.372528 531.291931,287.300293 517.103638,275.757416 
	C517.103638,289.923309 517.103638,303.450623 517.103638,317.409302 
	C509.621094,317.409302 502.585388,317.409302 495.187073,317.409302 
	C495.187073,276.934479 495.187073,236.387833 495.187073,195.497314 
	C502.186493,195.497314 509.237671,195.497314 516.684570,195.497314 
	C516.684570,198.242081 516.684570,200.841278 516.684570,204.403641 
	C532.218933,191.923935 548.876343,190.008377 566.478394,196.274048 
	C578.163513,200.433502 586.490540,208.515305 591.264099,220.099289 
	C599.797241,240.807053 595.560364,274.492035 563.594727,284.718750 
M572.177551,246.386154 
	C574.646729,233.090836 569.998535,221.559525 559.821350,215.732956 
	C549.371033,209.750046 534.034668,211.018433 525.639587,218.559967 
	C517.072571,226.255966 514.233643,240.245712 518.921021,251.667770 
	C523.385498,262.546539 533.909119,268.733734 546.595825,267.938629 
	C559.642883,267.120880 568.374084,260.007202 572.177551,246.386154 
z"/>
<path fill="#1154FE" opacity="1.000000" stroke="none" 
	d="
M676.681763,195.169312 
	C715.485657,207.302246 715.610413,258.075165 692.239685,276.623474 
	C675.826355,289.650024 650.067566,290.568665 633.190125,277.924164 
	C632.406982,277.337433 631.598145,276.785004 630.153687,275.754700 
	C630.153687,289.971222 630.153687,303.638489 630.153687,317.569427 
	C622.514404,317.569427 615.449341,317.569427 608.108215,317.569427 
	C608.108215,276.792358 608.108215,236.232040 608.108215,195.412338 
	C615.430420,195.412338 622.503052,195.412338 629.890015,195.412338 
	C629.890015,198.257919 629.890015,200.865601 629.890015,204.433533 
	C644.127014,192.771988 659.591736,190.536682 676.681763,195.169312 
M669.199463,265.936951 
	C685.617310,259.603180 689.139282,241.199387 683.732361,227.905258 
	C678.443787,214.902115 662.823792,208.721512 647.928528,213.489334 
	C634.622437,217.748489 627.332703,231.492340 630.491821,246.363876 
	C634.147644,263.573608 649.839661,271.756866 669.199463,265.936951 
z"/>
<path fill="#1154FE" opacity="1.000000" stroke="none" 
	d="
M808.828857,213.238312 
	C814.231384,221.830093 816.150085,230.937698 816.248718,240.634933 
	C816.291077,244.804596 814.848328,246.108353 810.728210,246.078339 
	C789.082214,245.920670 767.434509,246.004181 745.787354,246.003922 
	C743.968750,246.003891 742.150146,246.003891 740.316589,246.003891 
	C741.547058,264.254364 763.218018,274.911469 780.056824,265.584930 
	C783.586548,263.629913 786.839355,260.671936 789.313965,257.474945 
	C791.271484,254.945999 792.947510,253.772797 796.146729,253.920547 
	C801.946594,254.188400 807.767639,253.996475 815.378418,253.996475 
	C811.315613,260.343842 808.515320,266.254791 804.352722,270.960815 
	C784.507874,293.396667 744.121399,292.567169 726.648987,269.145355 
	C714.879517,253.368439 714.152466,235.690430 722.136963,218.129227 
	C729.715210,201.461609 744.287903,194.292770 761.821106,193.178513 
	C768.682373,192.742477 775.799500,193.616577 782.565979,195.021591 
	C793.573181,197.307190 802.261108,203.587128 808.828857,213.238312 
M788.908081,221.707764 
	C780.807190,212.034439 769.431641,208.489243 757.688293,212.277664 
	C749.978149,214.764954 744.510254,219.699692 741.658508,227.825562 
	C758.787598,227.825562 775.171753,227.825562 792.254639,227.825562 
	C791.112854,225.714966 790.199524,224.026627 788.908081,221.707764 
z"/>
<path fill="#1254FE" opacity="1.000000" stroke="none" 
	d="
M479.898926,254.798309 
	C471.353729,279.211639 449.592407,290.861786 421.638733,286.109650 
	C403.559570,283.036133 390.427795,273.333069 385.287231,255.405869 
	C380.006256,236.988785 382.601959,219.713837 396.855011,205.557449 
	C416.298126,186.246231 465.769806,186.647781 478.664337,221.520874 
	C482.652924,232.307938 482.889923,243.307678 479.898926,254.798309 
M455.178131,223.464798 
	C448.279846,213.872208 437.499603,210.055634 425.244598,212.867294 
	C414.238068,215.392517 407.428986,223.001312 405.351624,235.096680 
	C402.730560,250.357590 411.243134,263.949738 425.425049,267.148224 
	C440.835938,270.623840 454.514709,263.212555 458.515778,249.080353 
	C460.977631,240.384827 460.082642,231.993134 455.178131,223.464798 
z"/>
<path fill="#FEFEFF" opacity="1.000000" stroke="none" 
	d="
M131.988312,261.967285 
	C124.765434,268.089722 117.725899,273.898621 110.733528,279.763733 
	C107.923622,282.120636 105.463676,281.974884 102.321266,279.935242 
	C74.640297,261.968414 59.485970,236.660080 56.426235,203.778397 
	C55.837181,197.448105 57.576817,194.314407 63.285347,191.651321 
	C93.397690,177.603699 123.060738,178.121216 152.578705,193.264984 
	C155.425461,194.725464 156.601349,196.516785 156.503220,199.867065 
	C155.813232,223.420685 147.678909,243.977753 131.988312,261.967285 
z"/>
<path fill="#FBFCFE" opacity="1.000000" stroke="none" 
	d="
M189.094543,229.205963 
	C197.581726,242.401749 198.024841,256.522522 191.137543,269.965698 
	C176.448059,298.637756 152.117462,314.776855 120.624969,319.892456 
	C97.381813,323.668060 75.646362,318.618134 55.549957,306.429352 
	C54.201935,305.611816 52.935654,304.659454 51.823540,303.900879 
	C118.036621,301.970093 156.149094,268.500397 166.801346,201.751175 
	C171.954895,207.550964 176.734116,212.929489 181.473267,219.053528 
	C180.228180,225.773941 179.023193,231.748840 177.550278,237.975388 
	C175.800797,242.136795 174.319229,246.046539 172.566315,250.161301 
	C169.800003,254.809052 167.305038,259.251831 164.527451,263.886505 
	C160.418274,268.696167 156.591705,273.313904 152.472809,278.061707 
	C150.089096,280.083313 147.997726,281.974854 145.595001,284.003296 
	C142.375610,286.370514 139.467575,288.600769 136.233597,290.856506 
	C133.946686,291.929352 131.985718,292.976685 129.684464,294.132812 
	C126.197762,295.791504 123.051346,297.341370 119.513809,298.916077 
	C115.749657,299.961761 112.376633,300.982635 108.592590,302.001648 
	C105.144707,302.618256 102.107841,303.236694 98.664001,303.938019 
	C103.948860,311.950226 106.603111,312.686920 114.393799,309.018677 
	C117.517220,308.036682 120.256271,307.069183 123.376595,306.069153 
	C127.504921,304.353363 131.251968,302.670074 135.314438,300.850098 
	C138.115143,299.172699 140.600418,297.631958 143.418716,296.019501 
	C145.843689,294.359528 147.935638,292.771271 150.351624,291.075562 
	C153.133804,288.740631 155.591949,286.513123 158.373672,284.161896 
	C162.222107,280.016174 165.746964,275.994141 169.568481,271.746033 
	C173.559418,265.343872 177.253662,259.167816 181.079727,252.663071 
	C182.395157,249.542267 183.578781,246.750153 184.912781,243.609070 
	C186.406952,238.575394 187.750748,233.890686 189.094543,229.205963 
z"/>
<path fill="#FBFCFE" opacity="1.000000" stroke="none" 
	d="
M60.955139,293.985352 
	C43.708366,294.274475 30.925276,286.480286 22.411974,271.860413 
	C3.339664,239.107651 6.345927,195.811508 29.854986,165.937729 
	C34.533833,159.992172 40.449894,155.020248 46.256729,149.997543 
	C46.204865,151.379379 45.687523,152.360870 45.179234,153.347031 
	C41.116058,161.230362 37.054600,169.114578 32.842293,177.322998 
	C31.792223,180.430832 30.892473,183.214157 29.724876,186.266998 
	C28.619865,191.349808 27.782703,196.163116 26.795835,201.360382 
	C26.447361,205.500793 26.248590,209.257263 26.014908,213.472565 
	C26.062620,217.636597 26.145248,221.341782 26.216780,225.442825 
	C26.860600,229.568802 27.515514,233.298950 28.172068,237.409943 
	C29.452379,241.856537 30.731050,245.922272 32.040482,250.361206 
	C35.028980,256.853851 37.986721,262.973328 41.019024,269.419800 
	C42.574287,271.887299 44.054985,274.027740 45.683170,276.485962 
	C48.196671,279.588654 50.562683,282.373535 53.042953,285.469604 
	C55.756519,288.515594 58.355831,291.250488 60.955139,293.985352 
z"/>
<path fill="#FCFCFE" opacity="1.000000" stroke="none" 
	d="
M69.148102,150.395386 
	C76.759323,135.285431 93.826859,126.658470 113.136971,128.160797 
	C155.895828,131.487411 190.685776,161.179886 200.570251,202.871948 
	C201.371796,206.252869 201.681381,209.750443 201.890259,213.413300 
	C197.306610,202.800659 191.965698,192.610550 183.875122,183.665558 
	C182.139832,181.599182 180.555420,179.823196 178.686646,177.867691 
	C175.710556,175.410049 173.018814,173.131958 170.213013,170.526337 
	C166.438690,167.446701 162.778442,164.694580 158.884125,161.685562 
	C155.127884,159.561111 151.605698,157.693573 147.835571,155.581528 
	C145.279892,154.448914 142.972168,153.560791 140.362518,152.445587 
	C132.777176,150.332748 125.493767,148.446960 117.846619,146.406326 
	C112.640472,145.957458 107.798073,145.663437 102.537659,145.296204 
	C99.416893,145.435577 96.714149,145.648163 93.576607,145.805725 
	C89.072922,146.381531 85.004028,147.012344 80.518951,147.669678 
	C76.451218,148.595932 72.799660,149.495651 69.148102,150.395386 
z"/>
<path fill="#FBFCFE" opacity="1.000000" stroke="none" 
	d="
M190.852219,214.178085 
	C179.164948,199.962708 165.466293,188.267975 148.338852,181.116119 
	C119.306564,168.993225 90.380913,169.553314 61.675732,182.383041 
	C60.630238,182.850311 59.616039,183.387604 57.558357,184.396973 
	C58.575474,176.291824 60.030884,169.223633 64.152908,162.335770 
	C69.488747,160.315765 74.240425,158.618179 79.398376,156.949036 
	C84.266357,156.160324 88.728050,155.343170 93.622131,154.520508 
	C96.366844,154.327362 98.679169,154.139694 101.430786,154.043274 
	C106.913193,154.422501 111.956291,154.710495 117.347000,155.168793 
	C124.095322,156.923431 130.496033,158.507767 137.132095,160.352234 
	C140.237137,161.771164 143.106842,162.929977 146.178711,164.359940 
	C149.192383,166.140091 152.003891,167.649078 155.005875,169.438873 
	C159.126236,172.527679 163.056122,175.335709 167.127747,178.433472 
	C170.169144,181.526611 173.068817,184.330017 176.008591,187.457092 
	C177.374374,189.516678 178.700027,191.252579 180.164886,193.297180 
	C184.368484,200.182114 190.006516,205.951492 190.852219,214.178085 
z"/>
<path fill="#FCFCFE" opacity="1.000000" stroke="none" 
	d="
M55.102715,157.119873 
	C49.294296,173.397156 45.907463,189.981476 47.770206,207.424896 
	C51.237953,239.898163 66.198807,265.550751 92.798729,284.450043 
	C93.610481,285.026794 94.429115,285.593994 95.233795,286.180389 
	C95.361458,286.273438 95.431892,286.444977 96.323753,287.689789 
	C88.920166,289.503906 81.981445,291.204132 74.484558,292.604126 
	C69.367088,288.345215 64.807793,284.386566 60.101143,280.139587 
	C57.757309,277.287689 55.560837,274.724152 53.254692,271.874237 
	C51.809761,269.705536 50.474506,267.823151 49.072006,265.591278 
	C45.974636,259.168945 42.944504,253.096130 39.919876,246.642914 
	C38.906475,242.850998 37.887569,239.439468 36.887169,235.626175 
	C36.218098,231.162842 35.530518,227.101288 34.904243,222.582321 
	C34.878151,218.769226 34.790749,215.413544 34.784859,211.605728 
	C35.197681,207.120209 35.528988,203.086823 35.923149,198.651932 
	C36.965862,194.176071 37.945709,190.101700 39.088425,185.697174 
	C40.166443,182.576981 41.081585,179.786926 42.266960,176.777573 
	C46.099995,170.223831 49.641468,163.877060 53.278313,157.585419 
	C53.497849,157.205612 54.477009,157.264908 55.102715,157.119873 
z"/>
<path fill="#E3E4E7" opacity="1.000000" stroke="none" 
	d="
M190.887192,214.136719 
	C190.006516,205.951492 184.368484,200.182114 180.516571,193.243469 
	C181.828049,189.906021 182.927017,186.931000 184.025986,183.955978 
	C191.965698,192.610550 197.306610,202.800659 201.853455,213.848480 
	C202.513290,220.062820 202.880569,226.061478 203.247864,232.060135 
	C202.882751,232.131470 202.517654,232.202805 202.152542,232.274139 
	C198.774002,226.925476 195.395447,221.576797 191.901062,215.579529 
	C191.470673,214.628250 191.156143,214.325577 190.841614,214.022903 
	C190.841614,214.022903 190.922165,214.095352 190.887192,214.136719 
z"/>
<path fill="#E3E4E7" opacity="1.000000" stroke="none" 
	d="
M55.365044,156.882507 
	C54.477009,157.264908 53.497849,157.205612 53.278313,157.585419 
	C49.641468,163.877060 46.099995,170.223831 42.018280,176.498383 
	C38.663780,176.625183 35.828194,176.811859 32.992615,176.998520 
	C37.054600,169.114578 41.116058,161.230362 45.179234,153.347031 
	C45.687523,152.360870 46.204865,151.379379 46.597168,150.044830 
	C46.476322,149.693924 46.525345,149.675980 46.894955,149.662796 
	C47.531807,149.056061 47.799046,148.462524 48.066288,147.868973 
	C53.429863,144.321472 58.793438,140.773972 64.157013,137.226471 
	C64.383537,137.584930 64.610062,137.943390 64.836578,138.301849 
	C61.766846,144.416290 58.697105,150.530731 55.365044,156.882507 
z"/>
<path fill="#1746FD" opacity="1.000000" stroke="none" 
	d="
M189.040024,228.843491 
	C187.750748,233.890686 186.406952,238.575394 184.586395,243.566681 
	C182.012482,241.823410 179.915329,239.773575 177.818192,237.723740 
	C179.023193,231.748840 180.228180,225.773941 181.619110,219.401718 
	C184.198517,222.163269 186.592010,225.322144 189.040024,228.843491 
z"/>
<path fill="#1746FD" opacity="1.000000" stroke="none" 
	d="
M60.248505,280.427887 
	C64.807793,284.386566 69.367088,288.345215 74.097626,292.601562 
	C70.138031,293.263611 66.007195,293.628052 61.415749,293.988922 
	C58.355831,291.250488 55.756519,288.515594 53.120735,285.096069 
	C55.472347,283.083588 57.860424,281.755737 60.248505,280.427887 
z"/>
<path fill="#1746FD" opacity="1.000000" stroke="none" 
	d="
M78.992096,156.920578 
	C74.240425,158.618179 69.488747,160.315765 64.361755,162.055725 
	C65.568115,158.323502 67.149788,154.548904 68.939789,150.584839 
	C72.799660,149.495651 76.451218,148.595932 80.509270,148.073334 
	C80.274536,151.273834 79.633316,154.097214 78.992096,156.920578 
z"/>
<path fill="#FBFCFE" opacity="1.000000" stroke="none" 
	d="
M47.750248,147.985443 
	C47.799046,148.462524 47.531807,149.056061 46.921013,149.661194 
	C46.863045,149.149139 47.148624,148.625534 47.750248,147.985443 
z"/>
<path fill="#FBFCFE" opacity="1.000000" stroke="none" 
	d="
M190.920807,214.350784 
	C191.156143,214.325577 191.470673,214.628250 191.872040,215.258942 
	C191.639267,215.284195 191.319641,214.981430 190.920807,214.350784 
z"/>
<path fill="#FEFEFF" opacity="1.000000" stroke="none" 
	d="
M348.731659,216.627396 
	C349.917389,229.790054 347.992737,241.652313 338.934601,251.438690 
	C331.990540,258.941040 323.083252,262.369507 313.139923,262.839050 
	C304.348541,263.254181 295.522034,262.925995 286.357666,262.925995 
	C286.357666,236.765930 286.357666,210.725861 286.357666,183.268600 
	C298.448853,184.079483 310.885651,183.555283 322.688019,186.041977 
	C338.136292,189.296814 345.944519,200.998230 348.731659,216.627396 
z"/>
<path fill="#FDFDFF" opacity="1.000000" stroke="none" 
	d="
M572.107056,246.798553 
	C568.374084,260.007202 559.642883,267.120880 546.595825,267.938629 
	C533.909119,268.733734 523.385498,262.546539 518.921021,251.667770 
	C514.233643,240.245712 517.072571,226.255966 525.639587,218.559967 
	C534.034668,211.018433 549.371033,209.750046 559.821350,215.732956 
	C569.998535,221.559525 574.646729,233.090836 572.107056,246.798553 
z"/>
<path fill="#FDFDFF" opacity="1.000000" stroke="none" 
	d="
M668.822021,266.046448 
	C649.839661,271.756866 634.147644,263.573608 630.491821,246.363876 
	C627.332703,231.492340 634.622437,217.748489 647.928528,213.489334 
	C662.823792,208.721512 678.443787,214.902115 683.732361,227.905258 
	C689.139282,241.199387 685.617310,259.603180 668.822021,266.046448 
z"/>
<path fill="#FCFCFE" opacity="1.000000" stroke="none" 
	d="
M789.097168,222.023041 
	C790.199524,224.026627 791.112854,225.714966 792.254639,227.825562 
	C775.171753,227.825562 758.787598,227.825562 741.658508,227.825562 
	C744.510254,219.699692 749.978149,214.764954 757.688293,212.277664 
	C769.431641,208.489243 780.807190,212.034439 789.097168,222.023041 
z"/>
<path fill="#FDFDFF" opacity="1.000000" stroke="none" 
	d="
M455.400970,223.760101 
	C460.082642,231.993134 460.977631,240.384827 458.515778,249.080353 
	C454.514709,263.212555 440.835938,270.623840 425.425049,267.148224 
	C411.243134,263.949738 402.730560,250.357590 405.351624,235.096680 
	C407.428986,223.001312 414.238068,215.392517 425.244598,212.867294 
	C437.499603,210.055634 448.279846,213.872208 455.400970,223.760101 
z"/>
<path fill="#5072F8" opacity="1.000000" stroke="none" 
	d="
M180.947922,252.991760 
	C177.253662,259.167816 173.559418,265.343872 169.498962,271.313293 
	C167.691864,268.635925 166.250977,266.165253 164.810074,263.694580 
	C167.305038,259.251831 169.800003,254.809052 172.947815,250.182129 
	C176.049759,250.995895 178.498840,251.993835 180.947922,252.991760 
z"/>
<path fill="#6D89F4" opacity="1.000000" stroke="none" 
	d="
M164.527466,263.886505 
	C166.250977,266.165253 167.691864,268.635925 169.202286,271.539368 
	C165.746964,275.994141 162.222107,280.016174 158.341492,283.792328 
	C156.245544,281.674866 154.505341,279.803223 152.765137,277.931610 
	C156.591705,273.313904 160.418274,268.696167 164.527466,263.886505 
z"/>
<path fill="#C2CEFE" opacity="1.000000" stroke="none" 
	d="
M119.904930,298.891235 
	C123.051346,297.341370 126.197762,295.791504 129.714935,294.475037 
	C131.723450,296.801208 133.361237,298.893982 134.999008,300.986786 
	C131.251968,302.670074 127.504921,304.353363 123.347076,305.703369 
	C121.925835,303.210480 120.915382,301.050873 119.904930,298.891235 
z"/>
<path fill="#355EF9" opacity="1.000000" stroke="none" 
	d="
M181.079727,252.663055 
	C178.498840,251.993835 176.049759,250.995895 173.219162,249.977127 
	C174.319229,246.046539 175.800797,242.136795 177.550278,237.975388 
	C179.915329,239.773575 182.012482,241.823410 184.436020,243.915649 
	C183.578781,246.750153 182.395157,249.542267 181.079727,252.663055 
z"/>
<path fill="#D6DEFE" opacity="1.000000" stroke="none" 
	d="
M119.513809,298.916077 
	C120.915382,301.050873 121.925835,303.210480 122.965797,305.735901 
	C120.256271,307.069183 117.517220,308.036682 114.092720,308.862213 
	C111.939384,306.481354 110.471497,304.242432 109.003601,302.003510 
	C112.376633,300.982635 115.749657,299.961761 119.513809,298.916077 
z"/>
<path fill="#849AF2" opacity="1.000000" stroke="none" 
	d="
M152.472809,278.061707 
	C154.505341,279.803223 156.245544,281.674866 158.017914,283.916046 
	C155.591949,286.513123 153.133804,288.740631 150.316345,290.709351 
	C148.606812,288.255829 147.256592,286.061096 145.906357,283.866364 
	C147.997726,281.974854 150.089096,280.083313 152.472809,278.061707 
z"/>
<path fill="#99AAEF" opacity="1.000000" stroke="none" 
	d="
M145.595001,284.003296 
	C147.256592,286.061096 148.606812,288.255829 149.992310,290.816772 
	C147.935638,292.771271 145.843689,294.359528 143.110443,295.852600 
	C140.499268,294.115295 138.529404,292.473145 136.559540,290.830994 
	C139.467575,288.600769 142.375610,286.370514 145.595001,284.003296 
z"/>
<path fill="#EAEEFE" opacity="1.000000" stroke="none" 
	d="
M108.592590,302.001648 
	C110.471497,304.242432 111.939384,306.481354 113.708351,308.876770 
	C106.603111,312.686920 103.948860,311.950226 98.664001,303.938019 
	C102.107841,303.236694 105.144707,302.618256 108.592590,302.001648 
z"/>
<path fill="#ABB9ED" opacity="1.000000" stroke="none" 
	d="
M136.233582,290.856506 
	C138.529404,292.473145 140.499268,294.115295 142.777420,295.924316 
	C140.600418,297.631958 138.115143,299.172699 135.314438,300.850098 
	C133.361237,298.893982 131.723450,296.801208 130.055206,294.366211 
	C131.985718,292.976685 133.946686,291.929352 136.233582,290.856506 
z"/>
<path fill="#5072F8" opacity="1.000000" stroke="none" 
	d="
M39.914375,247.023315 
	C42.944504,253.096130 45.974636,259.168945 48.669380,265.606140 
	C45.870815,267.011261 43.407635,268.052032 40.944458,269.092773 
	C37.986721,262.973328 35.028980,256.853851 32.222042,250.045944 
	C34.886688,248.579422 37.400532,247.801376 39.914375,247.023315 
z"/>
<path fill="#C3CBEB" opacity="1.000000" stroke="none" 
	d="
M38.925556,186.027313 
	C37.945709,190.101700 36.965862,194.176071 35.545273,198.642609 
	C32.384872,199.681976 29.665209,200.329193 26.945541,200.976410 
	C27.782703,196.163116 28.619865,191.349808 30.174324,186.268692 
	C33.569595,186.009689 36.247578,186.018509 38.925556,186.027313 
z"/>
<path fill="#ABB9ED" opacity="1.000000" stroke="none" 
	d="
M26.795837,201.360382 
	C29.665209,200.329193 32.384872,199.681976 35.482414,199.044098 
	C35.528988,203.086823 35.197681,207.120209 34.405884,211.601562 
	C31.313534,212.370911 28.681677,212.692322 26.049820,213.013733 
	C26.248590,209.257263 26.447361,205.500793 26.795837,201.360382 
z"/>
<path fill="#6D89F4" opacity="1.000000" stroke="none" 
	d="
M39.919880,246.642914 
	C37.400532,247.801376 34.886688,248.579422 32.191284,249.672745 
	C30.731050,245.922272 29.452379,241.856537 28.555264,237.343735 
	C31.580770,236.607086 34.224720,236.317505 36.868668,236.027939 
	C37.887569,239.439468 38.906475,242.850998 39.919880,246.642914 
z"/>
<path fill="#849AF2" opacity="1.000000" stroke="none" 
	d="
M36.887169,235.626175 
	C34.224720,236.317505 31.580770,236.607086 28.553627,236.962875 
	C27.515514,233.298950 26.860600,229.568802 26.586742,225.419754 
	C29.592846,224.347137 32.217892,223.693420 34.842937,223.039719 
	C35.530518,227.101288 36.218098,231.162842 36.887169,235.626175 
z"/>
<path fill="#99AAEF" opacity="1.000000" stroke="none" 
	d="
M34.904243,222.582321 
	C32.217892,223.693420 29.592846,224.347137 26.597837,225.023911 
	C26.145248,221.341782 26.062620,217.636597 26.014908,213.472565 
	C28.681677,212.692322 31.313534,212.370911 34.324368,212.053680 
	C34.790749,215.413544 34.878151,218.769226 34.904243,222.582321 
z"/>
<path fill="#2853FC" opacity="1.000000" stroke="none" 
	d="
M60.101143,280.139587 
	C57.860424,281.755737 55.472347,283.083588 53.006485,284.784943 
	C50.562683,282.373535 48.196671,279.588654 46.071999,276.338623 
	C48.663677,274.635864 51.014019,273.398224 53.364365,272.160583 
	C55.560837,274.724152 57.757309,277.287689 60.101143,280.139587 
z"/>
<path fill="#D6DAE9" opacity="1.000000" stroke="none" 
	d="
M39.088425,185.697174 
	C36.247578,186.018509 33.569595,186.009689 30.442169,185.999176 
	C30.892473,183.214157 31.792223,180.430832 32.842293,177.322998 
	C35.828194,176.811859 38.663780,176.625183 41.748047,176.717712 
	C41.081585,179.786926 40.166443,182.576981 39.088425,185.697174 
z"/>
<path fill="#355EF9" opacity="1.000000" stroke="none" 
	d="
M53.254688,271.874237 
	C51.014019,273.398224 48.663677,274.635864 45.924507,276.020874 
	C44.054985,274.027740 42.574287,271.887299 41.019024,269.419830 
	C43.407635,268.052032 45.870815,267.011261 48.736618,265.955627 
	C50.474506,267.823151 51.809761,269.705536 53.254688,271.874237 
z"/>
<path fill="#6D89F4" opacity="1.000000" stroke="none" 
	d="
M136.896759,160.092117 
	C130.496033,158.507767 124.095322,156.923431 117.351952,154.750565 
	C117.409653,151.628418 117.810005,149.094803 118.210358,146.561172 
	C125.493767,148.446960 132.777176,150.332748 139.987167,152.647034 
	C138.908096,155.414413 137.902420,157.753265 136.896759,160.092117 
z"/>
<path fill="#5072F8" opacity="1.000000" stroke="none" 
	d="
M117.846619,146.406326 
	C117.810005,149.094803 117.409653,151.628418 117.004349,154.580261 
	C111.956291,154.710495 106.913193,154.422501 101.478867,153.675812 
	C101.710312,150.601212 102.332993,147.985321 102.955673,145.369415 
	C107.798073,145.663437 112.640472,145.957458 117.846619,146.406326 
z"/>
<path fill="#ABB9ED" opacity="1.000000" stroke="none" 
	d="
M166.986023,178.143738 
	C163.056122,175.335709 159.126236,172.527679 155.331543,169.256058 
	C156.683914,166.509125 157.901062,164.225784 159.118210,161.942459 
	C162.778442,164.694580 166.438690,167.446701 169.886322,170.726990 
	C168.777802,173.551361 167.881912,175.847549 166.986023,178.143738 
z"/>
<path fill="#2853FC" opacity="1.000000" stroke="none" 
	d="
M79.398376,156.949036 
	C79.633316,154.097214 80.274536,151.273834 80.925446,148.046814 
	C85.004028,147.012344 89.072922,146.381531 93.564835,146.233643 
	C93.721817,149.319702 93.455780,151.922867 93.189743,154.526016 
	C88.728050,155.343170 84.266357,156.160324 79.398376,156.949036 
z"/>
<path fill="#C3CBEB" opacity="1.000000" stroke="none" 
	d="
M167.127747,178.433472 
	C167.881912,175.847549 168.777802,173.551361 170.000397,171.054504 
	C173.018814,173.131958 175.710556,175.410049 178.652298,178.230194 
	C177.924347,181.559311 176.946411,184.346375 175.968475,187.133438 
	C173.068817,184.330017 170.169144,181.526611 167.127747,178.433472 
z"/>
<path fill="#99AAEF" opacity="1.000000" stroke="none" 
	d="
M158.884125,161.685562 
	C157.901062,164.225784 156.683914,166.509125 155.141083,168.975250 
	C152.003891,167.649078 149.192383,166.140091 146.223724,163.973938 
	C146.738892,160.819855 147.411209,158.322937 148.083527,155.826019 
	C151.605698,157.693573 155.127884,159.561111 158.884125,161.685562 
z"/>
<path fill="#849AF2" opacity="1.000000" stroke="none" 
	d="
M147.835571,155.581528 
	C147.411209,158.322937 146.738892,160.819855 146.021561,163.702789 
	C143.106842,162.929977 140.237137,161.771164 137.132095,160.352234 
	C137.902420,157.753265 138.908096,155.414413 140.289093,152.874115 
	C142.972168,153.560791 145.279892,154.448914 147.835571,155.581528 
z"/>
<path fill="#355EF9" opacity="1.000000" stroke="none" 
	d="
M93.622131,154.520508 
	C93.455780,151.922867 93.721817,149.319702 93.999619,146.288651 
	C96.714149,145.648163 99.416893,145.435577 102.537659,145.296204 
	C102.332993,147.985321 101.710312,150.601212 101.039566,153.584579 
	C98.679169,154.139694 96.366844,154.327362 93.622131,154.520508 
z"/>
<path fill="#D6DAE9" opacity="1.000000" stroke="none" 
	d="
M176.008591,187.457092 
	C176.946411,184.346375 177.924347,181.559311 178.936646,178.409729 
	C180.555420,179.823196 182.139832,181.599182 183.875122,183.665558 
	C182.927017,186.931000 181.828049,189.906021 180.377380,192.934769 
	C178.700027,191.252579 177.374374,189.516678 176.008591,187.457092 
z"/>
</svg>