<svg id="Layer_1" data-name="Layer 1" xmlns="http://www.w3.org/2000/svg" viewBox="0 0 72 72"><title>ex_appliconAlt_2x</title><path d="M10.43,22.26H2.24l.13.13c-1.32-.13-2-2.37-2-5.15s.66-5.42,2-5.68l8.72-1.19h.27c1.19,0,2.11,2.51,1.85,6C13.07,20,11.75,22.13,10.43,22.26ZM27.61,39.18l-11.76.13h-.13c-2-.13-2.91-3.3-2.78-7.27s.93-7.8,2.91-8.06l12.42-1.85c.13,0,.26-.13.53-.13,1.72,0,2.9,3.7,2.77,8.59C31.31,35.87,29.46,38.91,27.61,39.18ZM52.71,61l-18.1.13c-3-.26-4.49-5.15-4.36-11.36s1.45-12,4.49-12.56l1.19-.13c.66,7.27,3,12.56,7,12.95l15.85-.13C58,56.75,55.49,60.71,52.71,61ZM71,31.91c-.4,9.12-3.57,14.4-6.87,14.67L44,46.71h-.13c-3.3-.27-5-5.82-4.76-12.55s1.59-13.35,5-13.88l21.4-3a1.71,1.71,0,0,1,.79-.13C69.36,17.11,71.35,23.45,71,31.91Z"/></svg>