<svg id="aae72ff0-139f-4911-90a3-318d683655d8" xmlns="http://www.w3.org/2000/svg" x="0px" y="0px"
	 viewBox="0 0 125.8 84.2" xml:space="preserve">
<linearGradient id="642a0cdd-0ef3-4642-a85c-88a5f2f70856" gradientUnits="userSpaceOnUse" x1="6.72" y1="41.4" x2="118.0852" y2="41.4">
	<stop offset="0" stop-color="#261F63"/>
	<stop offset="0.2131" stop-color="#291F63"/>
	<stop offset="0.2394" stop-color="#2D1F62"/>
	<stop offset="0.5449" stop-color="#57245B"/>
	<stop offset="0.7844" stop-color="#712756"/>
	<stop offset="0.9269" stop-color="#7B2854"/>
</linearGradient>
<path d="M41.8,76.8c-5,0-9.7-0.9-14-2.7c-4.3-1.8-8-4.2-11.1-7.4c-3.1-3.1-5.6-6.9-7.3-11.2c-1.8-4.3-2.6-9.1-2.6-14.2
	c0-5.1,0.9-9.8,2.6-14.2c1.7-4.3,4.2-8.1,7.3-11.2c3.1-3.1,6.8-5.6,11.1-7.3c4.3-1.7,8.9-2.6,14-2.6H83c5,0,9.7,0.9,14,2.7
	c4.3,1.8,8,4.2,11.1,7.4c3.1,3.1,5.6,6.9,7.3,11.2c1.8,4.3,2.6,9.1,2.6,14.2c0,5.1-0.9,9.8-2.6,14.2c-1.7,4.3-4.2,8.1-7.3,11.2
	c-3.1,3.1-6.8,5.6-11.1,7.3c-4.3,1.7-8.9,2.6-14,2.6H41.8z" fill="url(#642a0cdd-0ef3-4642-a85c-88a5f2f70856)"/>
<path d="M22.5,22.6h27.1v8.6H32.5V37h14v8.1h-14v6.4h18.3v8.6H22.5V22.6z M59.9,22.6h10v13.8h22.2V22.6h10v37.6h-10
	V45.5H69.9v14.7h-10V22.6z" fill="#FFFFFF"/>
<path d="M115.4,11.6c-0.5,0-0.9-0.1-1.3-0.4c-0.4-0.2-0.7-0.6-1-1c-0.2-0.4-0.4-0.9-0.4-1.5c0-0.5,0.1-1,0.4-1.4
	c0.2-0.4,0.6-0.7,1-1c0.4-0.2,0.8-0.4,1.3-0.4c0.5,0,0.9,0.1,1.3,0.4c0.4,0.2,0.7,0.6,1,1c0.2,0.4,0.4,0.9,0.4,1.4
	c0,0.6-0.1,1-0.4,1.5c-0.2,0.4-0.6,0.7-1,1C116.4,11.5,115.9,11.6,115.4,11.6z M115.4,11c0.4,0,0.8-0.1,1.1-0.3
	c0.3-0.2,0.6-0.5,0.8-0.8c0.2-0.3,0.3-0.7,0.3-1.2c0-0.4-0.1-0.8-0.3-1.2c-0.2-0.3-0.4-0.6-0.8-0.8c-0.3-0.2-0.7-0.3-1.1-0.3
	c-0.4,0-0.8,0.1-1.1,0.3c-0.3,0.2-0.6,0.5-0.7,0.8c-0.2,0.3-0.3,0.7-0.3,1.2c0,0.4,0.1,0.8,0.3,1.2c0.2,0.3,0.4,0.6,0.7,0.8
	C114.7,11,115,11,115.4,11z M114.4,10.2V7.3h1.1c0.3,0,0.6,0.1,0.8,0.2c0.2,0.1,0.3,0.4,0.3,0.7c0,0.2,0,0.3-0.1,0.5
	c-0.1,0.1-0.2,0.2-0.4,0.3l0.7,1.2h-0.7l-0.5-1H115v1H114.4z M115,8.7h0.4c0.2,0,0.3,0,0.4-0.1c0.1-0.1,0.2-0.2,0.2-0.4
	c0-0.1,0-0.3-0.1-0.3c-0.1-0.1-0.2-0.1-0.5-0.1H115V8.7z" fill="#7F2854"/>
</svg>
