<?xml version="1.0" encoding="UTF-8"?>
<!DOCTYPE svg PUBLIC "-//W3C//DTD SVG 1.1//EN" "http://www.w3.org/Graphics/SVG/1.1/DTD/svg11.dtd">
<svg xmlns="http://www.w3.org/2000/svg" version="1.1" width="81px" height="98px" style="shape-rendering:geometricPrecision; text-rendering:geometricPrecision; image-rendering:optimizeQuality; fill-rule:evenodd; clip-rule:evenodd">
<g><path style="opacity:0.948" fill="#ef5223" d="M 36.5,-0.5 C 37.5,-0.5 38.5,-0.5 39.5,-0.5C 39.5,2.16667 39.5,4.83333 39.5,7.5C 29.3114,12.4265 18.9781,17.0932 8.5,21.5C 7.50169,30.8096 7.16836,40.1429 7.5,49.5C 4.83333,49.5 2.16667,49.5 -0.5,49.5C -0.5,38.5 -0.5,27.5 -0.5,16.5C 12.0172,11.0723 24.3505,5.40559 36.5,-0.5 Z"/></g>
<g><path style="opacity:0.944" fill="#7fbc41" d="M 39.5,-0.5 C 40.5,-0.5 41.5,-0.5 42.5,-0.5C 55.214,5.29905 67.8807,11.299 80.5,17.5C 80.5,28.1667 80.5,38.8333 80.5,49.5C 80.1667,49.5 79.8333,49.5 79.5,49.5C 77.3926,48.5318 75.0593,48.1984 72.5,48.5C 72.5,45.5 72.5,42.5 72.5,39.5C 72.8082,33.5746 72.4749,27.7412 71.5,22C 60.8459,17.0632 50.1792,12.2298 39.5,7.5C 39.5,4.83333 39.5,2.16667 39.5,-0.5 Z"/></g>
<g><path style="opacity:0.94" fill="#93c040" d="M 72.5,39.5 C 72.5,42.5 72.5,45.5 72.5,48.5C 75.0593,48.1984 77.3926,48.5318 79.5,49.5C 76.6146,49.1936 73.9479,49.5269 71.5,50.5C 62.6867,56.4116 54.02,62.5782 45.5,69C 35.4852,74.4546 26.6518,72.9546 19,64.5C 13.9472,55.1944 15.1138,46.6944 22.5,39C 30.8333,33.3333 39.1667,27.6667 47.5,22C 59.4785,20.4492 64.3119,25.6159 62,37.5C 61.2155,39.286 60.0488,40.786 58.5,42C 50.9428,47.0673 43.2761,51.9006 35.5,56.5C 32.0254,55.8568 30.8588,53.8568 32,50.5C 39.1562,44.922 46.4895,39.5887 54,34.5C 54.769,29.5219 52.9356,28.3552 48.5,31C 41.8333,35.6667 35.1667,40.3333 28.5,45C 23.1667,50.6667 23.1667,56.3333 28.5,62C 32.5,64 36.5,64 40.5,62C 51.0206,54.2443 61.6873,46.7443 72.5,39.5 Z"/></g>
<g><path style="opacity:0.93" fill="#329fd9" d="M -0.5,49.5 C 2.16667,49.5 4.83333,49.5 7.5,49.5C 10.5648,68.9851 21.2315,82.3185 39.5,89.5C 39.5,92.1667 39.5,94.8333 39.5,97.5C 38.5,97.5 37.5,97.5 36.5,97.5C 16.9442,89.3926 4.61088,75.0592 -0.5,54.5C -0.5,52.8333 -0.5,51.1667 -0.5,49.5 Z"/></g>
<g><path style="opacity:0.914" fill="#fcb913" d="M 79.5,49.5 C 76.7593,73.0167 64.426,89.0167 42.5,97.5C 41.5,97.5 40.5,97.5 39.5,97.5C 39.5,94.8333 39.5,92.1667 39.5,89.5C 57.487,82.5124 68.1537,69.5124 71.5,50.5C 73.9479,49.5269 76.6146,49.1936 79.5,49.5 Z"/></g>
</svg>
