<!-- Generated by IcoMoon.io -->
<svg version="1.1" xmlns="http://www.w3.org/2000/svg" width="100%" height="100%" viewBox="0 0 1280 1280">
<g id="icomoon-ignore">
</g>
<path fill="#231f20" d="M836.252 712.574h-35.506v-144.86l114.186 0.094c0 0 20.915-0.775 34.202 12.355 0 0 13.579 11.339 13.579 39.044v93.346h-35.414v-95.76c0 0 0.435-9.768-2.893-13.195 0 0-2.947-3.724-8.539-3.724h-79.703l0.074 112.712zM987.346 712.556v-144.774h142.5v32.196l-107.156-0.010v24.611h74.459v31.099h-74.459v24.692h107.867v32.207h-143.205zM738.91 712.556v-144.774h35.347v144.774h-35.347zM1189.791 590.846v0zM1180.68 712.545v-112.586h-33.369v-32.196h132.689v32.196h-63.985v112.586h-35.348zM631.215 590.846v0zM622.104 712.545v-112.586h-33.369v-32.196h132.689v32.196h-63.985v112.586h-35.348zM515.48 624.534c8.631-0.065 13.81 0.010 15.89-1.258 0 0 3.631-2.006 3.669-6.309l0.010-9.462c0-4.325-3.669-6.309-3.669-6.309-2.754-1.497-7.43-1.22-18.524-1.229h-68.876v24.582h71.501zM534.524 712.545v-49.413c0-4.444-3.715-6.303-3.715-6.303-1.671-1.044-6.69-1.229-14.072-1.229h-72.755v56.944h-35.347v-144.774h110.34c19.051 0.056 32.215 2.864 41.279 11.663 8.909 9.075 10.091 20.944 10.127 33.287v10.313c0.111 10.496-5.396 20.066-11.975 25.646l1.321 0.657c2.68 1.304 4.149 3.141 4.149 3.141 4.997 6.384 4.942 11.872 4.934 18.636v41.455h-34.295zM0 567.744v144.774h35.347v-56.886h107.086v-31.105h-107.086v-24.6h124.495v-32.196h-159.841z"></path>
<path fill="#ee2e24" d="M360.109 713.931c11.485-3.9 20.424-17.122 22.579-33.759v-4.805h-58.874v38.564h36.3zM382.681 604.651v-4.351c-2.254-17.357-11.855-31.024-24.104-34.237h-34.775v38.581h58.874zM175.446 675.372v4.768c2.132 16.646 11.069 29.897 22.586 33.796h36.115v-38.564h-58.7zM199.537 566.080c-12.224 3.216-21.856 16.891-24.093 34.266v4.316h58.7v-38.581h-34.608zM382.686 620.727h-58.874v38.581h58.874v-38.581zM250.18 713.925h57.598v-38.564h-57.598v38.564zM307.772 566.080h-57.597v38.581h57.597v-38.581zM175.446 659.308h58.7v-38.581h-58.7v38.581z"></path>
</svg>
