<svg id="46ae7c70-ccf7-4bef-afdc-170abd489dae" version="1.1" xmlns="http://www.w3.org/2000/svg" width="400" height="400" viewBox="0, 0, 400,400"><g id="1172e17d-4fec-41ec-8f41-e1d98276f5fc"><path id="27e02311-70fc-48c9-b1a6-53d3311cee4f" d="M30.326 193.666 L 30.326 200.000 36.852 200.000 L 43.378 200.000 43.378 193.666 L 43.378 187.332 36.852 187.332 L 30.326 187.332 30.326 193.666 " stroke="none" fill="#04ac9c" fill-rule="evenodd"></path><path id="b778a0d5-f560-4812-9670-be182e4eff29" d="M13.820 176.200 L 13.820 187.716 19.770 187.716 L 25.720 187.716 25.720 181.766 L 25.720 175.816 38.580 175.816 L 51.440 175.816 51.440 170.250 L 51.440 164.683 32.630 164.683 L 13.820 164.683 13.820 176.200 M307.486 170.250 L 307.486 175.432 313.052 175.432 L 318.618 175.432 318.618 170.250 L 318.618 165.067 313.052 165.067 L 307.486 165.067 307.486 170.250 M366.603 186.095 C 366.603 195.686,366.779 204.689,367.002 206.464 C 368.176 215.833,373.532 220.729,382.603 220.729 L 385.797 220.729 385.797 215.739 L 385.797 210.749 384.342 210.749 C 379.099 210.749,377.966 208.439,377.794 197.409 L 377.661 188.868 381.729 188.868 L 385.797 188.868 385.797 183.877 L 385.797 178.887 381.766 178.887 L 377.735 178.887 377.735 173.896 L 377.735 168.906 372.169 168.906 L 366.603 168.906 366.603 186.095 M65.585 178.125 C 48.187 180.856,41.315 202.644,53.892 215.202 C 67.637 228.926,90.979 219.161,90.979 199.687 C 90.979 186.194,78.997 176.020,65.585 178.125 M113.628 178.269 C 111.174 178.814,108.886 179.953,107.390 181.371 L 106.334 182.373 106.334 180.822 L 106.334 179.271 100.960 179.271 L 95.585 179.271 95.585 200.000 L 95.585 220.729 101.128 220.729 L 106.670 220.729 106.815 208.349 C 107.017 191.134,108.191 188.800,116.678 188.747 L 119.578 188.729 119.462 183.464 C 119.323 177.138,119.201 177.030,113.628 178.269 M138.728 178.119 C 121.507 180.642,114.450 202.938,126.871 215.575 C 137.826 226.720,158.836 221.968,162.215 207.582 L 162.463 206.526 156.472 206.526 C 152.877 206.526,150.480 206.674,150.480 206.896 C 150.480 207.100,149.935 207.888,149.269 208.646 C 143.028 215.754,131.960 210.363,131.909 200.192 C 131.858 189.785,142.505 184.367,149.199 191.393 L 151.182 193.474 156.829 193.474 L 162.476 193.474 162.233 192.226 C 160.442 183.018,149.620 176.522,138.728 178.119 M183.624 178.135 C 160.534 182.232,159.973 216.486,182.917 221.303 C 193.073 223.436,204.761 217.644,206.737 209.501 L 206.993 208.445 200.876 208.445 L 194.760 208.445 193.829 209.457 C 189.415 214.256,180.232 212.114,177.554 205.662 L 176.957 204.223 192.758 204.223 L 208.559 204.223 208.325 199.904 C 207.519 185.096,196.940 175.772,183.624 178.135 M232.246 178.275 C 229.424 178.910,227.552 179.755,225.294 181.412 L 223.417 182.791 223.417 181.031 L 223.417 179.271 218.042 179.271 L 212.668 179.271 212.668 207.294 L 212.668 235.317 218.234 235.317 L 223.800 235.317 223.800 226.070 L 223.800 216.822 225.003 217.835 C 233.661 225.119,248.096 221.331,253.503 210.354 C 261.554 194.012,248.674 174.576,232.246 178.275 M277.351 178.300 C 259.941 181.510,253.653 203.562,266.674 215.748 C 276.989 225.401,294.786 222.387,300.908 209.951 C 309.185 193.140,295.631 174.930,277.351 178.300 M342.575 178.109 C 340.250 178.602,338.603 179.377,336.564 180.940 L 334.741 182.337 334.741 180.804 L 334.741 179.271 329.559 179.271 L 324.376 179.271 324.376 200.000 L 324.376 220.729 329.942 220.729 L 335.509 220.729 335.509 207.354 C 335.509 194.097,335.517 193.964,336.401 192.287 C 339.249 186.886,347.043 186.795,349.712 192.131 L 350.672 194.050 350.798 207.390 L 350.924 220.729 356.289 220.729 L 361.653 220.729 361.534 205.662 C 361.400 188.668,361.405 188.696,358.173 184.183 C 354.841 179.529,348.155 176.926,342.575 178.109 M307.486 200.000 L 307.486 220.729 313.052 220.729 L 318.618 220.729 318.618 200.000 L 318.618 179.271 313.052 179.271 L 307.486 179.271 307.486 200.000 M191.768 188.627 C 193.837 189.591,196.251 192.077,196.886 193.901 L 197.273 195.010 187.312 195.010 C 181.834 195.010,177.351 194.916,177.351 194.802 C 177.351 190.005,186.402 186.129,191.768 188.627 M74.021 189.279 C 81.484 193.008,82.745 202.747,76.505 208.450 C 68.989 215.320,57.404 209.410,58.060 199.040 C 58.587 190.701,66.807 185.674,74.021 189.279 M238.627 189.186 C 248.905 194.489,245.668 211.116,234.357 211.116 C 224.449 211.116,220.306 197.290,228.191 190.540 C 231.058 188.086,235.402 187.523,238.627 189.186 M286.499 189.250 C 297.149 194.628,293.435 211.359,281.601 211.314 C 270.968 211.273,266.279 197.910,274.392 190.769 C 277.614 187.932,282.641 187.302,286.499 189.250 M13.820 210.173 L 13.820 220.729 19.770 220.729 L 25.720 220.729 25.720 210.173 L 25.720 199.616 19.770 199.616 L 13.820 199.616 13.820 210.173 " stroke="none" fill="#1c242c" fill-rule="evenodd"></path><path id="f9a1e50f-abf4-482c-b6dc-a0e3018ca25a" d="" stroke="none" fill="#108ca0" fill-rule="evenodd"></path><path id="91b844c9-45d0-4ebc-8ef2-b571259ad2db" d="" stroke="none" fill="#104468" fill-rule="evenodd"></path><path id="3dd446bc-28b0-4b8e-90aa-46306408bf18" d="" stroke="none" fill="#10482c" fill-rule="evenodd"></path></g></svg>
