<?xml version="1.0" encoding="UTF-8"?>
<svg width="528px" height="180px" viewBox="0 0 528 180" version="1.1" xmlns="http://www.w3.org/2000/svg">
    <!-- Generator: Sketch 62 (91390) - https://sketch.com -->
    <desc>
        Created with Sketch.
    </desc>
    <g id="logo/illusive_horizontal" stroke="none" stroke-width="1" fill="none" fill-rule="evenodd">
        <g id="horizontal_logo" transform="translate(-1.000000, 0.000000)" fill="#FF9E29">
            <path d="M124.08,168.15 C122.909227,169.173766 121.515554,169.909982 120.01,170.3 C117.977827,170.814198 115.885776,171.053001 113.79,171.01 L73.27,171.01 C72.0605555,171.070915 70.8852628,171.43175 69.85,172.06 C69.1590059,172.557097 68.6385805,173.255655 68.36,174.06 C68.0667042,174.933337 67.9180794,175.848731 67.92,176.77 C67.9010336,177.841872 67.8074741,178.911123 67.64,179.97 L60.41,179.97 C60.2735833,179.142594 60.1867617,178.307771 60.15,177.47 C60.1321301,176.740085 60.0686732,176.012 59.96,175.29 C59.8723858,174.667293 59.6938147,174.060825 59.43,173.49 C59.1485976,172.933342 58.7106456,172.471059 58.17,172.16 C57.4272369,171.743322 56.6190658,171.455897 55.78,171.31 C54.5025439,171.086614 53.2066212,170.986155 51.91,171.01 L14.19,171.01 C12.1008705,171.051897 10.0155738,170.813097 7.99,170.3 C6.47762421,169.912177 5.0769626,169.175888 3.9,168.15 C2.86236428,167.183262 2.09389474,165.96336 1.67,164.61 C1.19046242,163.008139 0.961094464,161.341849 0.99,159.67 C0.99,158.49 1.01,157.45 1.04,156.55 C1.07,155.65 1.13,154.88 1.18,154.25 C1.23,153.52 1.28,152.88 1.33,152.32 L12.94,152.32 C12.9594907,153.280013 13.0801578,154.235295 13.3,155.17 C13.4433587,155.807263 13.7660579,156.390203 14.23,156.85 C14.7170654,157.27675 15.3185183,157.551402 15.96,157.64 C16.8768785,157.776279 17.803101,157.83981 18.73,157.83 L56.79,157.83 C57.5532899,157.826567 58.3156591,157.883411 59.07,158 C59.7364443,158.100164 60.381785,158.309646 60.98,158.62 C61.5926978,158.941144 62.1389993,159.375471 62.59,159.9 C63.1411581,160.545999 63.5928013,161.27065 63.93,162.05 C64.2492635,161.240258 64.7173292,160.497458 65.31,159.86 C65.8275069,159.327817 66.4374149,158.894104 67.11,158.58 C67.776296,158.276759 68.4840741,158.074537 69.21,157.98 C69.9690986,157.87863 70.7341643,157.828516 71.5,157.83 L108.08,157.83 C109.123231,157.842405 110.165983,157.778904 111.2,157.64 C111.874581,157.562978 112.511299,157.28811 113.03,156.85 C113.491113,156.391053 113.807503,155.806948 113.94,155.17 C114.146735,154.233485 114.26062,153.278866 114.28,152.32 L126.65,152.32 C126.72,152.88 126.79,153.52 126.84,154.25 C126.89,154.88 126.93,155.65 126.95,156.55 C126.97,157.45 126.99,158.49 126.99,159.67 C127.018906,161.341849 126.789538,163.008139 126.31,164.61 C125.882249,165.961574 125.11436,167.180555 124.08,168.15 L124.08,168.15 L124.08,168.15 Z M82.91,90.69 L126.99,90.69 L126.99,104.88 L82.91,104.88 L82.91,90.69 L82.91,90.69 Z M103.33,18.42 L95.28,45.21 L79.91,45.21 L96.37,0 L109.76,0 L126.99,45.21 L111.98,45.21 L103.33,18.42 L103.33,18.42 L103.33,18.42 Z M48.6,114.11 L36.41,122.96 L27.53,110.64 L18.7,122.96 L6.58,114.11 L15.46,101.85 L0.99,97.25 L5.68,83.02 L20.08,87.68 L20.08,72.61 L35.1,72.61 L35.1,87.68 L49.45,83.02 L54.13,97.25 L39.66,101.85 L48.6,114.11 L48.6,114.11 L48.6,114.11 Z M24.41,18.42 L16.36,45.21 L0.99,45.21 L17.44,0 L30.83,0 L48.06,45.21 L33.06,45.21 L24.41,18.42 L24.41,18.42 L24.41,18.42 Z M494.84,104.53 C494.84454,104.543002 494.847887,104.556391 494.85,104.57 C495.013037,105.458375 495.250542,106.331456 495.56,107.18 C496.310764,109.341585 497.78806,111.175836 499.74,112.37 C501.814714,113.606211 504.195503,114.233464 506.61,114.18 C508.767259,114.18504 510.914657,113.888848 512.99,113.3 C515.334496,112.59613 517.592104,111.630021 519.72,110.42 L522.37,108.95 L528.86,119.62 L526.46,121.21 C523.300209,123.353731 519.857098,125.046678 516.23,126.24 C512.731898,127.354991 509.081492,127.918408 505.41,127.91 C501.967367,127.934264 498.548822,127.334579 495.32,126.14 C492.211638,124.975418 489.403089,123.130386 487.1,120.74 C484.731694,118.233264 482.918886,115.255079 481.78,112 C480.484171,108.220615 479.854813,104.244831 479.92,100.25 C479.904247,96.7657167 480.433992,93.3004406 481.49,89.98 C482.504015,86.7789356 484.14981,83.8137843 486.33,81.26 C488.558697,78.6977328 491.314988,76.6475712 494.41,75.25 C497.906073,73.7296951 501.688325,72.9793837 505.5,73.05 C509.017317,72.9546254 512.516611,73.5843621 515.78,74.9 C518.452717,76.0263254 520.840657,77.7344374 522.77,79.9 C524.539795,81.9399313 525.904183,84.2987608 526.79,86.85 C527.63428,89.259743 528.230697,91.7492799 528.57,94.28 C528.73,95.47 528.84,96.72 528.89,97.99 C528.94,99.19 528.96,100.37 528.96,101.5 L528.96,104.53 L494.84,104.53 L494.84,104.53 Z M512.87,91.09 C512.581489,90.0931601 512.083758,89.1692896 511.41,88.38 C510.76998,87.6362149 509.955752,87.062476 509.04,86.71 C507.713229,86.2346222 506.308615,86.014091 504.9,86.06 C503.497033,86.0260682 502.099043,86.239321 500.77,86.69 C499.764507,87.0484787 498.847323,87.617883 498.08,88.36 C497.281078,89.1592356 496.651828,90.1116135 496.23,91.16 C496.12,91.43 496.01,91.72 495.9,92 L513.11,92 C513.04,91.69 512.96,91.39 512.87,91.09 L512.87,91.09 L512.87,91.09 Z M454.74,127.33 L442.01,127.33 L426.44,87.98 L421.69,87.98 L421.69,74.25 L444.38,74.25 L444.38,87.98 L441.22,87.98 L448.57,107.87 L455.74,87.98 L454.12,87.98 L454.12,74.25 L475.43,74.25 L475.43,87.98 L470.35,87.98 L454.74,127.33 L454.74,127.33 L454.74,127.33 Z M295.79,106.11 C295.79,108.87 296.37,110.9 297.52,112.14 C298.6,113.3 300.23,113.87 302.5,113.87 C304.186871,113.848696 305.860179,113.565313 307.46,113.03 C308.751545,112.629524 310.000826,112.103688 311.19,111.46 L311.19,87.98 L304.79,87.98 L304.79,74.26 L326.37,74.26 L326.37,112.89 L331.67,112.89 L331.67,126.61 L311.56,126.61 L311.56,124.71 C310.623691,125.151132 309.665818,125.544961 308.69,125.89 C305.735519,126.916078 302.627522,127.430132 299.5,127.41 C296.936107,127.437986 294.385169,127.042675 291.95,126.24 C289.601873,125.448111 287.476426,124.107708 285.75,122.33 C284.006094,120.46935 282.69484,118.246366 281.91,115.82 C281.020243,112.997382 280.594706,110.049017 280.65,107.09 L280.65,87.98 L274.2,87.98 L274.2,74.26 L295.79,74.26 L295.79,106.11 L295.79,106.11 L295.79,106.11 Z M241.57,112.89 L248.48,112.89 L248.48,64.73 L241.57,64.73 L241.57,51 L263.25,51 L263.25,112.89 L270.44,112.89 L270.44,126.61 L241.57,126.61 L241.57,112.89 L241.57,112.89 L241.57,112.89 Z M205.71,112.89 L212.62,112.89 L212.62,64.73 L205.71,64.73 L205.71,51 L227.39,51 L227.39,112.89 L234.57,112.89 L234.57,126.61 L205.71,126.61 L205.71,112.89 L205.71,112.89 L205.71,112.89 Z M170.06,112.89 L176.88,112.89 L176.88,87.98 L169.97,87.98 L169.97,74.26 L191.74,74.26 L191.74,112.89 L198.93,112.89 L198.93,126.61 L170.06,126.61 L170.06,112.89 L170.06,112.89 L170.06,112.89 Z M190.13,67.13 C188.44588,68.8578632 186.13282,69.8285545 183.72,69.8201356 C182.486811,69.8267462 181.265218,69.5817471 180.13,69.1 C179.033462,68.6430005 178.040336,67.9695794 177.21,67.12 C176.423058,66.3162513 175.786349,65.3781222 175.33,64.35 C174.833262,63.2536988 174.577507,62.0635856 174.579982,60.86 C174.580364,59.6685171 174.839683,58.4913483 175.34,57.41 C175.807365,56.3875517 176.461968,55.4616102 177.27,54.68 C178.096043,53.878329 179.066488,53.240414 180.13,52.8 C182.413065,51.8531987 184.979599,51.8567983 187.26,52.81 C188.308272,53.2522419 189.264683,53.8864578 190.08,54.68 C190.879625,55.4665739 191.53013,56.3915105 192,57.41 C192.504994,58.4897669 192.764544,59.6679873 192.760059,60.86 C192.763803,62.0658889 192.511577,63.2588485 192.02,64.36 C191.552854,65.3845154 190.913603,66.3214063 190.13,67.13 L190.13,67.13 L190.13,67.13 Z M355.33,110.94 C355.297947,111.539628 355.436649,112.136047 355.73,112.66 C356.043908,113.154035 356.468427,113.568283 356.97,113.87 C357.66828,114.281428 358.427876,114.578515 359.22,114.75 C361.055099,115.18042 362.964901,115.18042 364.8,114.75 C365.501893,114.581365 366.170966,114.297516 366.78,113.91 C367.221513,113.635855 367.599842,113.271159 367.89,112.84 C368.07858,112.52303 368.172285,112.158621 368.16,111.79 C368.18513,111.139629 367.943039,110.5073 367.49,110.04 C366.36559,109.091687 365.048536,108.39904 363.63,108.01 L354.46,104.69 C350.866311,103.599265 347.601207,101.629892 344.96,98.96 C342.635284,96.3749186 341.392979,92.9952749 341.49,89.52 C341.470807,87.2238645 341.94126,84.9500114 342.87,82.85 C343.814092,80.7762268 345.207766,78.9384907 346.95,77.47 C348.801108,75.9459984 350.925665,74.7886918 353.21,74.06 C355.812017,73.2336073 358.530173,72.8317929 361.26,72.87 C364.582441,72.7871323 367.890579,73.3333992 371.01,74.48 C373.466873,75.4981182 375.671621,77.0407595 377.47,79 L383.61,79 L383.61,92.72 L367.98,92.72 L367.98,89.7 C368.008739,89.1621943 367.87268,88.6284242 367.59,88.17 C367.247641,87.667991 366.79205,87.2535061 366.26,86.96 C365.556361,86.5567304 364.793728,86.2665248 364,86.1 C362.250621,85.6911113 360.430903,85.6876908 358.68,86.09 C358.088845,86.2260604 357.526705,86.4664938 357.02,86.8 C356.688902,87.0180823 356.411882,87.3087819 356.21,87.65 C356.05215,87.9521305 355.973044,88.2891904 355.98,88.63 C355.907301,89.1862963 356.091249,89.7454966 356.48,90.15 C357.589132,91.004425 358.85703,91.6298759 360.21,91.99 L369.38,95.13 C373.84,96.58 377.21,98.67 379.39,101.32 C381.646849,104.081661 382.851538,107.554001 382.79,111.12 C382.840183,115.968442 380.606517,120.558014 376.76,123.51 C374.785597,125.016213 372.552107,126.148209 370.17,126.85 C367.50186,127.63732 364.731767,128.024864 361.95,128 C358.344605,128.117175 354.760088,127.409164 351.47,125.93 C349.344766,124.901132 347.455214,123.443964 345.92,121.65 L339.6,121.65 L339.6,107.92 L355.33,107.92 L355.33,110.94 L355.33,110.94 L355.33,110.94 Z M406.1,69.1 C404.981687,69.5796639 403.776832,69.8247191 402.56,69.8200669 C401.331281,69.8242201 400.11411,69.5828258 398.98,69.11 C397.879344,68.6461084 396.882999,67.9660092 396.05,67.11 C395.26106,66.3116906 394.624012,65.3764491 394.17,64.35 C393.678469,63.2523597 393.426213,62.0626647 393.429951,60.86 C393.425858,59.6723295 393.681854,58.49816 394.18,57.42 C394.644705,56.3930823 395.299561,55.4633896 396.11,54.68 C398.769085,52.1201678 402.695057,51.3852761 406.1,52.81 C407.145639,53.2571347 408.1012,53.8907867 408.92,54.68 C409.723609,55.465392 410.377595,56.3904601 410.85,57.41 C411.347176,58.4920218 411.60309,59.6692246 411.600163,60.86 C411.607505,62.0662673 411.355116,63.2600012 410.86,64.36 C410.401033,65.3836874 409.764556,66.3180907 408.98,67.12 C408.158972,67.9622868 407.180434,68.6350314 406.1,69.1 L406.1,69.1 L406.1,69.1 Z M413.35,112.89 L420.53,112.89 L420.53,126.61 L391.67,126.61 L391.67,112.89 L398.49,112.89 L398.49,87.98 L391.58,87.98 L391.58,74.26 L413.35,74.26 L413.35,112.89 L413.35,112.89 L413.35,112.89 Z" id="Shape_1_copy"/>
        </g>
    </g>
</svg>