<svg width="75" height="75" fill="none" version="1.1" viewBox="0 0 75 75" xmlns="http://www.w3.org/2000/svg"><g transform="matrix(.26 0 0 .26 21 13)" fill="#000"><g transform="translate(2.4 .81)"><g fill="#000"><path d="m60 141c-2.3 0-4.6-0.16-6.9-0.49-26-3.8-45-28-41-55 1.8-13 8.5-24 19-32 10-7.7 23-11 36-9.2 3.7 0.53 6.3 4 5.7 7.7-0.53 3.7-3.9 6.3-7.7 5.7-9.2-1.3-18 1-26 6.6-7.4 5.6-12 14-14 23-2.7 19 11 37 30 39 9.2 1.3 18-1 26-6.6 7.4-5.6 12-14 14-23 1-7.3-0.23-15-3.7-21-1.8-3.3-0.5-7.4 2.8-9.2 3.3-1.8 7.4-0.5 9.2 2.8 4.8 9.1 6.6 19 5.2 29-1.8 13-8.5 24-19 32-8.5 6.4-19 9.7-29 9.7"/><path d="m114 136c-1.1 0-2.2-0.33-3.2-1-2.6-1.8-3.2-5.3-1.4-7.9 11-16 14-36 7.4-54-11-31-45-48-76-37-11 3.7-20 10-27 19-2 2.4-5.5 2.8-7.9 0.85-2.4-2-2.8-5.5-0.85-7.9 8.3-10 19-18 32-22 37-13 77 6.8 90 44 7.4 21 4.1 45-8.9 64-1.1 1.6-2.8 2.4-4.6 2.4"/><path d="m60 161c-13 0-26-3.8-37-11-15-10-26-25-30-43-2-9.3-2-19-0.12-28 0.38-1.8 2.2-3 4-2.6 1.8 0.38 3 2.2 2.6 4-1.7 8.3-1.7 17 0.11 25 3.4 16 13 30 27 39 14 9 30 12 46 8.7 5.6-1.2 11-3.1 16-5.7 1.7-0.87 3.7-0.23 4.6 1.4 0.87 1.7 0.23 3.7-1.4 4.6-5.6 2.9-12 5.1-18 6.4-4.8 1-9.5 1.5-14 1.5"/><path d="m60 186c-18 0-35-5.2-51-15-21-14-35-35-40-59-5.1-24-0.49-49 13-70 14-21 35-35 59-40 30-6.4 62 2.7 84 24 1.8 1.7 1.8 4.6 0.11 6.4-1.7 1.8-4.6 1.8-6.4 0.11-20-20-49-28-76-22-22 4.6-41 18-53 36-12 19-17 41-12 63 4.6 22 18 41 36 53 19 12 41 17 63 12 39-8.2 66-42 67-81 0.036-2.5 2-4.4 4.5-4.4h0.072c2.5 0.038 4.5 2.1 4.4 4.6-0.68 44-31 81-74 90-6.5 1.4-13 2-19 2"/><path d="m116 197c-2.4 0-4.6-1.2-5.9-3.4-1.8-3.3-0.7-7.4 2.6-9.2 43-25 64-77 48-125-18-55-78-86-133-68-43 14-72 53-73 98-0.09 3.7-3.2 6.7-6.9 6.6-3.7-0.09-6.7-3.2-6.6-6.9 1.2-51 34-95 82-111 63-20 130 14 150 77 17 54-5.5 113-55 140-1.1 0.6-2.2 0.88-3.3 0.88"/><path d="m60 209c-19 0-37-4.6-54-14-27-14-47-38-56-67-1.4-4.4-2.6-9-3.4-14-0.35-1.8 0.85-3.6 2.7-4 1.8-0.34 3.6 0.85 4 2.7 0.82 4.3 1.9 8.6 3.2 13 8.7 27 27 50 53 63 25 13 54 16 82 8.3 0.8-0.23 1.6-0.48 2.4-0.74 1.8-0.57 3.7 0.41 4.3 2.2 0.57 1.8-0.41 3.7-2.2 4.3-0.85 0.27-1.7 0.53-2.6 0.78-11 3.2-22 4.7-33 4.7"/><path d="m61 141c-2.3 0-4.6-0.16-6.9-0.49-26-3.8-45-28-41-55 1.8-13 8.5-24 19-32 10-7.7 23-11 36-9.2 3.7 0.53 6.3 4 5.7 7.7-0.53 3.7-3.9 6.3-7.7 5.7-9.2-1.3-18 1-26 6.6-7.4 5.6-12 14-14 23-2.7 19 11 37 30 39 9.2 1.3 18-1 26-6.6 7.4-5.6 12-14 14-23 1-7.3-0.23-15-3.7-21-1.8-3.3-0.5-7.4 2.8-9.2 3.3-1.8 7.4-0.5 9.2 2.8 4.8 9.1 6.6 19 5.2 29-1.8 13-8.5 24-19 32-8.5 6.4-19 9.7-29 9.7"/><path d="m114 135c-1.1 0-2.2-0.33-3.2-1-2.6-1.8-3.2-5.3-1.4-7.9 11-16 14-36 7.4-54-11-31-45-48-76-37-11 3.7-20 10-27 19-2 2.4-5.5 2.8-7.9 0.85-2.4-2-2.8-5.5-0.85-7.9 8.3-10 19-18 32-22 37-13 77 6.8 90 44 7.4 21 4.1 45-8.9 64-1.1 1.6-2.8 2.4-4.6 2.4"/><path d="m61 161c-13 0-26-3.8-37-11-15-10-26-25-30-43-2-9.3-2-19-0.12-28 0.37-1.8 2.2-3 4-2.6 1.8 0.38 3 2.2 2.6 4-1.7 8.3-1.7 17 0.11 25 3.4 16 13 30 27 39 14 9 30 12 46 8.7 5.6-1.2 11-3.1 16-5.7 1.7-0.87 3.7-0.23 4.6 1.4 0.87 1.7 0.23 3.7-1.4 4.6-5.6 2.9-12 5.1-18 6.4-4.8 1-9.5 1.5-14 1.5"/></g><path d="m61 186c-18 0-35-5.2-51-15-21-14-35-35-40-59-5.1-24-0.49-49 13-70 14-21 35-35 59-40 30-6.4 62 2.7 84 24 1.8 1.7 1.8 4.6 0.11 6.4-1.7 1.8-4.6 1.8-6.4 0.11-20-20-49-28-76-22-22 4.6-41 18-53 36-12 19-17 41-12 63 4.6 22 18 41 36 53 19 12 41 17 63 12 39-8.2 66-42 67-81 0.036-2.5 2-4.4 4.5-4.4h0.072c2.5 0.038 4.5 2.1 4.4 4.6-0.68 44-31 81-74 90-6.5 1.4-13 2-19 2" fill="#f00"/><path d="m116 197c-2.4 0-4.6-1.2-5.9-3.4-1.8-3.3-0.7-7.4 2.6-9.2 43-25 64-77 48-125-18-55-78-86-133-68-43 14-72 53-73 98-0.09 3.7-3.2 6.7-6.9 6.6-3.7-0.09-6.7-3.2-6.6-6.9 1.2-51 34-95 82-111 63-20 130 14 150 77 17 54-5.5 113-55 140-1.1 0.6-2.2 0.88-3.3 0.88" fill="#000"/><path d="m60 208c-19 0-37-4.6-54-14-27-14-47-38-56-67-1.4-4.4-2.6-9-3.4-14-0.35-1.8 0.85-3.6 2.7-4 1.8-0.34 3.6 0.86 4 2.7 0.82 4.3 1.9 8.6 3.2 13 8.7 27 27 50 53 63 25 13 54 16 82 8.3 0.8-0.23 1.6-0.48 2.4-0.74 1.8-0.57 3.7 0.41 4.3 2.2 0.57 1.8-0.41 3.7-2.2 4.3-0.85 0.27-1.7 0.53-2.6 0.78-11 3.2-22 4.7-33 4.7" fill="#000"/></g></g></svg>
