<?xml version="1.0" standalone="no"?>
<!DOCTYPE svg PUBLIC "-//W3C//DTD SVG 20010904//EN"
 "http://www.w3.org/TR/2001/REC-SVG-20010904/DTD/svg10.dtd">
<svg version="1.0" xmlns="http://www.w3.org/2000/svg"
 width="2210.000000pt" height="668.000000pt" viewBox="0 0 2210.000000 668.000000"
 preserveAspectRatio="xMidYMid meet">
<metadata>
Created by potrace 1.16, written by Peter Selinger 2001-2019
</metadata>
<g transform="translate(0.000000,668.000000) scale(0.100000,-0.100000)"
fill="#000000" stroke="none">
<path d="M2115 5154 c-494 -40 -946 -235 -1272 -547 -242 -232 -396 -500 -465
-807 -20 -91 -23 -132 -23 -300 0 -215 12 -296 66 -475 187 -608 746 -1038
1454 -1120 751 -87 1326 227 1501 820 21 72 27 118 31 230 7 192 6 196 -45 99
-148 -283 -452 -471 -887 -550 -76 -14 -153 -18 -315 -19 -190 0 -227 3 -319
23 -266 60 -480 177 -645 352 -248 264 -347 659 -243 965 122 356 473 668 934
828 587 205 1232 61 1786 -396 101 -84 298 -280 370 -367 20 -25 37 -39 37
-32 0 21 -123 257 -186 357 -323 515 -761 823 -1300 915 -116 20 -370 33 -479
24z"/>
<path d="M5260 3195 l0 -1265 195 0 195 0 0 1265 0 1265 -195 0 -195 0 0
-1265z"/>
<path d="M6020 3195 l0 -1265 190 0 190 0 2 960 3 961 645 -961 645 -960 203
0 202 0 0 1265 0 1265 -190 0 -190 0 -2 -941 -3 -941 -630 941 -630 940 -217
1 -218 0 0 -1265z"/>
<path d="M8380 4280 l0 -180 355 0 355 0 0 -1085 0 -1085 195 0 195 0 0 1085
0 1085 355 0 355 0 0 180 0 180 -905 0 -905 0 0 -180z"/>
</g>
</svg>
