<svg xmlns="http://www.w3.org/2000/svg" width="200px" height="200px">
    <path fill="#324856" d="M 88.5,6.5 C 129.677,4.49832 160.51,21.165 181,56.5C 181.898,60.7951 183.731,64.6284 186.5,68C 182.937,68.123 180.77,66.2896 180,62.5C 163.201,44.352 142.701,32.852 118.5,28C 88.1946,24.4151 63.3613,34.2484 44,57.5C 34.7484,70.9198 33.0818,85.2531 39,100.5C 45.3203,113.763 55.1536,123.596 68.5,130C 89.4962,136.034 110.163,135.034 130.5,127C 135.167,123.667 139.833,120.333 144.5,117C 148.036,112.763 151.202,108.263 154,103.5C 154.968,111.314 154.301,118.98 152,126.5C 142.919,146.635 127.419,158.469 105.5,162C 68.5488,166.691 39.3821,154.191 18,124.5C 1.10666,90.4701 5.60666,59.6367 31.5,32C 38.228,26.9411 45.228,22.2744 52.5,18C 64.0286,12.2924 76.0286,8.45907 88.5,6.5 Z"/>
    <path fill="#27a7df" d="M 93.5,36.5 C 110.644,35.08 127.311,37.2466 143.5,43C 173.613,56.478 189.613,79.8113 191.5,113C 190.614,128.056 186.114,141.889 178,154.5C 160.828,176.179 138.328,188.679 110.5,192C 69.337,194.506 38.5037,178.006 18,142.5C 17.1022,138.205 15.2689,134.372 12.5,131C 13.5,130.333 14.5,130.333 15.5,131C 37.627,160.062 66.9603,173.395 103.5,171C 129.377,166.675 148.543,153.175 161,130.5C 164.526,119.722 164.193,109.055 160,98.5C 153.68,85.2369 143.846,75.4036 130.5,69C 109.504,62.9658 88.8372,63.9658 68.5,72C 63.8333,75.3333 59.1667,78.6667 54.5,82C 50.9643,86.2372 47.7976,90.7372 45,95.5C 44.0319,87.6862 44.6986,80.0195 47,72.5C 56.3069,52.4373 71.8069,40.4373 93.5,36.5 Z"/>
    <path fill="#acdff4" d="M 95.5,75.5 C 115.047,75.119 130.714,82.619 142.5,98C 127.079,118.778 106.746,125.444 81.5,118C 72.6038,113.434 65.2704,107.101 59.5,99C 59.8623,97.7753 60.3623,96.6086 61,95.5C 65.5243,90.3121 70.691,85.8121 76.5,82C 82.7438,79.1931 89.0772,77.0265 95.5,75.5 Z"/>
</svg>
