<?xml version="1.0" encoding="UTF-8" standalone="no"?>
<svg
        viewBox="0 0 85.599045 89.39315"
        fill="none"
        version="1.1"
        width="85.599045"
        height="89.39315"
        xmlns="http://www.w3.org/2000/svg">
    <path
            fill-rule="evenodd"
            clip-rule="evenodd"
            d="m 4.4972394,17.216404 c 16.3893836,0 28.4349346,11.715709 28.4349346,24.721431 h 7.214915 5.304862 7.214915 c 0,-13.005722 12.045496,-24.721431 28.434939,-24.721431 V 4.696575 c -6.075418,0 -11.926659,1.2294534 -17.212934,3.4580895 C 49.379062,14.596811 43.27267,29.454888 42.799525,38.806332 v 0.0016 -7.9e-4 7.9e-4 -0.0016 C 42.326388,29.454276 36.218842,14.594731 21.706682,8.1533006 16.421593,5.9255219 10.571073,4.696575 4.4972394,4.696575 Z m 5.64e-5,54.960349 c 16.3893272,0 28.4348782,-11.71594 28.4348782,-24.721645 h 7.214915 12.519777 c 0,13.005705 12.045496,24.721645 28.434939,24.721645 v 12.519768 c -6.075991,0 -11.928905,-1.230179 -17.215189,-3.459594 C 49.380181,74.795396 43.27378,59.940973 42.799525,50.589915 v -0.0048 0.0032 l -5.64e-4,-0.0032 v 0.0048 c -0.474274,9.352167 -6.581811,24.2089 -21.091488,30.649312 -5.285271,2.228296 -11.13606,3.457348 -17.2101772,3.457348 z"
            fill="#5886fb"/>
</svg>
