<svg xmlns="http://www.w3.org/2000/svg" viewBox="0 0 474 440">
<defs>
<style>.cls-1{fill:#fff;}.cls-2{fill:url(#8dd4f58d-ed86-4d92-b105-df9ccc926575);}.cls-3{fill:url(#0ccf7420-3743-4ab0-ad9f-4f4e06b28fbe);}.cls-4{fill:#383838;}</style>
<linearGradient id="8dd4f58d-ed86-4d92-b105-df9ccc926575" x1="237" y1="-3914.06" x2="237" y2="-4030.04" gradientTransform="matrix(1, 0, 0, -1, 0, -3886.46)" gradientUnits="userSpaceOnUse"><stop offset="0" stop-color="#136342"/><stop offset="0.17" stop-color="#176846" stop-opacity="0.94"/><stop offset="0.39" stop-color="#227653" stop-opacity="0.78"/><stop offset="0.65" stop-color="#358e68" stop-opacity="0.5"/><stop offset="0.92" stop-color="#4fae85" stop-opacity="0.12"/><stop offset="1" stop-color="#57b98e" stop-opacity="0"/></linearGradient>
<radialGradient id="0ccf7420-3743-4ab0-ad9f-4f4e06b28fbe" cx="-464.58" cy="-1366.39" r="1.85" gradientTransform="matrix(-102.54, -0.36, -0.24, 69.3, -47810.52, 94664.86)" gradientUnits="userSpaceOnUse"><stop offset="0" stop-color="#57b98e"/><stop offset="1" stop-color="#136342"/></radialGradient>
</defs>
<path class="cls-1" d="M237,262.64A123.76,123.76,0,1,0,113.24,138.89,123.76,123.76,0,0,0,237,262.64Z"/>
<path class="cls-2" d="M133.83,157.45c.31-5.28,2.47-10.66,6.67-13.88,5-3.82,11.77-4,18.05-4q39.22-.2,78.45-.18t78.45.18c6.28,0,13.06.23,18.05,4,4.2,3.22,6.35,8.6,6.66,13.88A38.14,38.14,0,0,1,338.09,171a106.07,106.07,0,1,0-202.18,0,38.24,38.24,0,0,1-2.08-13.54Z"/>
<path class="cls-3" d="M340.17,157.45c-.31-5.28-2.47-10.66-6.67-13.88-5-3.82-11.77-4-18.05-4q-39.22-.2-78.45-.18t-78.45.18c-6.28,0-13.06.23-18.05,4-4.2,3.22-6.35,8.6-6.67,13.88s1,10.53,2.73,15.55a106.09,106.09,0,0,0,143.08,63,107.5,107.5,0,0,0,57.8-63C339.14,168,340.48,162.74,340.17,157.45Z"/>
<path class="cls-4" d="M263.42,422.77H246.88v-9.11c-6.79,7.1-16.58,11.2-28.41,11.2-20.52,0-38.83-16.57-38.83-41.35,0-24.62,18.31-41.35,38.83-41.35,11.83,0,21.62,4.1,28.41,11.21v-9h16.54Zm-17.14-39.26c0-16-12.49-26.21-25.13-26.21-14,0-25,10.18-25,26.21,0,16.19,10.94,26.21,25,26.21C233.79,409.72,246.28,399.7,246.28,383.51Z"/>
<path class="cls-4" d="M460.44,422.78H443.89v-9.12c-6.79,7.1-16.57,11.2-28.41,11.2-20.52,0-38.83-16.57-38.83-41.35,0-24.62,18.31-41.35,38.83-41.35,11.84,0,21.62,4.1,28.41,11.21V307h16.55ZM443.3,383.51c0-16-12.49-26.21-25.13-26.21-14,0-25,10.18-25,26.21,0,16.19,10.95,26.21,25,26.21C430.81,409.72,443.3,399.7,443.3,383.51Z"/>
<path class="cls-4" d="M360.11,375.09v47.68H343.56V378.44c0-12.91-7.48-21.51-18.8-21.51-14.18,0-23.58,9.56-23.58,29.47v36.37H284.64v-78.4h16.54v9.21c6.38-7.65,15.62-11.95,27.41-11.95C347.55,341.63,360.11,355.33,360.11,375.09Z"/>
<path class="cls-4" d="M30.11,307H13.56v115.8H30.11Z"/>
<path class="cls-4" d="M94.6,378l-18.8-4.14c-7-1.59-9.57-4.46-9.57-8.92,0-5.58,4.31-10.36,14-10.36,10.2,0,16.73,5.26,18,12.91H114.8c-1.44-16.85-16.49-26.13-34.06-26.13-19,0-31,10.37-31,25,0,11.15,7.63,18.46,21.33,21.49l17.21,3.51C95.55,393,98.9,396,98.9,400.81c0,6.21-6.06,10.52-15.62,10.52-10.35,0-18.9-4-20-13.39H46.72c.07.93-.82,26.93,35.13,26.93,19.76,0,33.57-8.95,33.57-25.52C115.42,388.2,107.35,380.73,94.6,378Z"/>
<path class="cls-4" d="M169.17,406.22v0c-6.18,0-11-.12-15.81-4.92s-4.88-9.74-4.88-16V307H131.94v78.49c0,10.22,1.2,19,9.8,27.62,8.18,8.18,16.95,9.73,26.7,9.69h4.88V406.23Z"/>
</svg>