<svg version="1.1" id="Layer_1" xmlns="http://www.w3.org/2000/svg" xmlns:xlink="http://www.w3.org/1999/xlink" x="0px" y="0px"
	 width="100%" viewBox="0 0 90 88" enable-background="new 0 0 90 88" xml:space="preserve">
<path fill="#778EB1" opacity="1.000000" stroke="none" 
	d="
M83.000000,89.000000 
	C58.645771,89.000000 34.291542,89.000000 9.225697,88.811569 
	C7.979949,88.090988 7.445820,87.558846 6.497884,87.014175 
	C5.056280,85.687729 3.286039,84.449860 3.142174,83.045403 
	C2.737144,79.091354 3.057982,75.067734 2.984176,71.073540 
	C2.918626,67.526062 4.563727,65.936310 8.099207,65.980896 
	C13.925127,66.054367 19.752657,65.998489 25.579510,66.000198 
	C32.742302,66.002296 38.356159,63.379623 40.877975,56.279133 
	C43.429523,49.094929 45.975266,41.879829 47.936920,34.521866 
	C50.715694,24.098936 57.097694,17.202087 65.193314,17.026655 
	C71.350235,16.893232 77.513763,17.079710 83.671677,16.971777 
	C87.461121,16.905359 89.042831,18.566444 89.030373,22.344044 
	C88.965042,42.155125 89.098648,61.967869 88.831161,81.775551 
	C88.807228,83.547096 86.408585,85.286575 84.824326,87.081909 
	C84.016121,87.371254 83.496414,87.619629 82.703934,88.156738 
	C82.620766,88.630310 82.810387,88.815155 83.000000,89.000000 
z"/>
<path fill="#000000" opacity="1.000000" stroke="none" 
	d="
M85.112823,87.040947 
	C86.408585,85.286575 88.807228,83.547096 88.831161,81.775551 
	C89.098648,61.967869 88.965042,42.155125 89.030373,22.344044 
	C89.042831,18.566444 87.461121,16.905359 83.671677,16.971777 
	C77.513763,17.079710 71.350235,16.893232 65.193314,17.026655 
	C57.097694,17.202087 50.715694,24.098936 47.936920,34.521866 
	C45.975266,41.879829 43.429523,49.094929 40.877975,56.279133 
	C38.356159,63.379623 32.742302,66.002296 25.579510,66.000198 
	C19.752657,65.998489 13.925127,66.054367 8.099207,65.980896 
	C4.563727,65.936310 2.918626,67.526062 2.984176,71.073540 
	C3.057982,75.067734 2.737144,79.091354 3.142174,83.045403 
	C3.286039,84.449860 5.056280,85.687729 6.677856,87.401260 
	C7.181090,88.200584 7.090545,88.600288 7.000000,89.000000 
	C5.003502,89.000000 3.007004,89.000000 1.007879,89.000000 
	C1.005253,59.721531 1.005253,30.443064 1.005253,1.082297 
	C30.892405,1.082297 60.785110,1.082297 90.838913,1.082297 
	C90.838913,30.332577 90.838913,59.666248 90.838913,89.000000 
	C88.647919,89.000000 86.318695,89.000000 83.494736,89.000000 
	C82.810387,88.815155 82.620766,88.630310 83.027191,88.211601 
	C84.119759,87.665466 84.616287,87.353210 85.112823,87.040947 
M36.873428,42.662033 
	C41.159985,39.203045 44.242611,35.153713 45.111141,29.405874 
	C46.105766,22.823523 47.771633,16.343811 49.101093,9.810396 
	C49.947601,5.650385 48.168636,3.061674 44.186413,3.033351 
	C32.022663,2.946838 19.852964,2.837662 7.699488,3.201659 
	C6.093190,3.249768 3.268306,5.945917 3.213082,7.494324 
	C2.821344,18.478271 2.883733,29.485580 3.144491,40.477306 
	C3.180394,41.990711 5.136469,44.767086 6.157476,44.745819 
	C16.167938,44.537300 26.351498,46.669998 36.873428,42.662033 
z"/>
<path fill="#899DC4" opacity="1.000000" stroke="none" 
	d="
M7.333333,89.000000 
	C7.090545,88.600288 7.181090,88.200584 7.091663,87.413788 
	C7.445820,87.558846 7.979949,88.090988 8.757039,88.811569 
	C8.555555,89.000000 8.111111,89.000000 7.333333,89.000000 
z"/>
<path fill="#899DC4" opacity="1.000000" stroke="none" 
	d="
M84.824326,87.081909 
	C84.616287,87.353210 84.119759,87.665466 83.299965,87.922867 
	C83.496414,87.619629 84.016121,87.371254 84.824326,87.081909 
z"/>
<path fill="#778EB1" opacity="1.000000" stroke="none" 
	d="
M36.512421,42.829609 
	C26.351498,46.669998 16.167938,44.537300 6.157476,44.745819 
	C5.136469,44.767086 3.180394,41.990711 3.144491,40.477306 
	C2.883733,29.485580 2.821344,18.478271 3.213082,7.494324 
	C3.268306,5.945917 6.093190,3.249768 7.699488,3.201659 
	C19.852964,2.837662 32.022663,2.946838 44.186413,3.033351 
	C48.168636,3.061674 49.947601,5.650385 49.101093,9.810396 
	C47.771633,16.343811 46.105766,22.823523 45.111141,29.405874 
	C44.242611,35.153713 41.159985,39.203045 36.512421,42.829609 
z"/>
</svg>