<?xml version="1.0" encoding="UTF-8" standalone="no"?>
<!-- Created with Inkscape (http://www.inkscape.org/) -->

<svg
   version="1.1"
   id="svg2"
   xml:space="preserve"
   width="191.03999"
   height="190.58667"
   viewBox="0 0 191.03999 190.58667"
   sodipodi:docname="Jamf-Icon-color-CMYK.eps"
   xmlns:inkscape="http://www.inkscape.org/namespaces/inkscape"
   xmlns:sodipodi="http://sodipodi.sourceforge.net/DTD/sodipodi-0.dtd"
   xmlns="http://www.w3.org/2000/svg"
   xmlns:svg="http://www.w3.org/2000/svg"><defs
     id="defs6" /><sodipodi:namedview
     id="namedview4"
     pagecolor="#ffffff"
     bordercolor="#666666"
     borderopacity="1.0"
     inkscape:pageshadow="2"
     inkscape:pageopacity="0.0"
     inkscape:pagecheckerboard="0" /><g
     id="g8"
     inkscape:groupmode="layer"
     inkscape:label="ink_ext_XXXXXX"
     transform="matrix(1.3333333,0,0,-1.3333333,0,190.58667)"><g
       id="g10"
       transform="scale(0.1)"><path
         d="M 78.4219,1429.44 C 35.1211,1429.44 0,1394.32 0,1351.02 V 808.723 C 0,766.52 34.2227,732.266 76.4258,732.266 H 349.734 c 125.114,0 296.856,25.707 344.047,247.867 0.035,0.031 46.86,222.457 74.629,354.327 10.344,49.02 -27.101,94.98 -77.187,94.98 H 78.4219"
         style="fill:#758ab5;fill-opacity:1;fill-rule:nonzero;stroke:none"
         id="path12" /><path
         d="M 1124.33,1172.22 C 939.785,1172.22 830.734,1094.5 781.051,927.711 781.148,928.043 652.512,530.484 652.512,530.484 605.383,399.922 529.523,346.141 391.039,346.141 H 73.3672 C 32.8242,346.141 0,313.281 0,272.77 V 70.1719 C 0,31.3906 31.3945,0 70.1719,0 H 1359.56 c 40.44,0 73.23,32.75 73.23,73.1992 V 1101.61 c 0,39.01 -31.62,70.61 -70.6,70.61 h -237.86"
         style="fill:#758ab5;fill-opacity:1;fill-rule:nonzero;stroke:none"
         id="path14" /></g></g></svg>
