<svg version="1.2" xmlns="http://www.w3.org/2000/svg" viewBox="0 0 90 88" width="90" height="88"><style>.a{fill:#778eb1}.b{fill:#899dc4}</style><path class="a" d="m82 88c-24.4 0-48.7 0-73.8-0.2-1.2-0.7-1.8-1.2-2.7-1.8-1.4-1.3-3.2-2.6-3.4-4-0.4-3.9 0-7.9-0.1-11.9-0.1-3.6 1.6-5.2 5.1-5.1 5.8 0.1 11.7 0 17.5 0 7.1 0 12.8-2.6 15.3-9.7 2.5-7.2 5.1-14.4 7-21.8 2.8-10.4 9.2-17.3 17.3-17.5 6.2-0.1 12.3 0.1 18.5 0 3.8-0.1 5.3 1.6 5.3 5.3 0 19.9 0.1 39.7-0.2 59.5 0 1.7-2.4 3.5-4 5.3-0.8 0.3-1.3 0.5-2.1 1.1-0.1 0.4 0.1 0.6 0.3 0.8z"/><path class="b" d="m7.3 89c-0.2-0.4-0.1-0.8-0.2-1.6 0.3 0.2 0.9 0.7 1.7 1.4-0.2 0.2-0.7 0.2-1.5 0.2z"/><path class="b" d="m84.8 87.1c-0.2 0.3-0.7 0.6-1.5 0.8 0.2-0.3 0.7-0.5 1.5-0.8z"/><path class="a" d="m33.5 41.8c-10.1 3.9-20.3 1.7-30.3 1.9-1.1 0.1-3-2.7-3.1-4.2-0.2-11-0.3-22 0.1-33 0.1-1.6 2.9-4.3 4.5-4.3 12.2-0.4 24.3-0.3 36.5-0.2 4 0.1 5.7 2.7 4.9 6.8-1.3 6.5-3 13-4 19.6-0.9 5.8-3.9 9.8-8.6 13.4z"/></svg>