<?xml version="1.0" encoding="UTF-8"?>
<svg version="1.1" xmlns="http://www.w3.org/2000/svg" width="75" height="75">
<path d="M0 0 C24.75 0 49.5 0 75 0 C75 24.75 75 49.5 75 75 C50.25 75 25.5 75 0 75 C0 50.25 0 25.5 0 0 Z " fill="#F26823" transform="translate(0,0)"/>
<path d="M0 0 C0.70374756 0.00644531 1.40749512 0.01289063 2.13256836 0.01953125 C9.47600748 0.2755117 14.86933765 2.36999512 20.3046875 7.40234375 C26.45344669 14.04861665 29.74611703 20.9569676 29.58984375 30.125 C28.52319118 37.57930759 25.04697574 44.99936441 19.3984375 50.03125 C12.68358012 54.62177068 5.38370048 57.56671482 -2.75 56.5 C-11.60771666 54.37293253 -18.6151072 50.13761366 -23.75 42.5 C-26.28525023 37.50778517 -27.30353945 33.18172616 -27.25 27.625 C-27.24355469 26.92318604 -27.23710937 26.22137207 -27.23046875 25.49829102 C-26.97192884 18.14266053 -24.84746398 13.73739048 -19.84765625 8.51171875 C-13.83648327 2.93898065 -8.35330698 -0.07994551 0 0 Z " fill="#FEFBFA" transform="translate(36.75,9.5)"/>
<path d="M0 0 C5.98110873 2.68516057 9.78600066 7.10369287 13.08984375 12.66015625 C14.70093778 19.58786056 14.2456645 25.43082877 10.98046875 31.75390625 C9.45317361 33.67716679 7.95797614 34.40516365 5.71484375 35.34765625 C5.05484375 34.35765625 4.39484375 33.36765625 3.71484375 32.34765625 C4.67390625 30.95546875 4.67390625 30.95546875 5.65234375 29.53515625 C8.61627553 24.95453441 9.24767259 21.7647495 8.71484375 16.34765625 C6.83498721 11.63923053 4.3058218 8.30655078 -0.16015625 5.84765625 C-4.56965483 3.99450863 -8.54159766 3.26528187 -13.13671875 5.078125 C-17.76912697 7.49289098 -21.37533771 10.54238242 -23.03515625 15.66015625 C-23.11765625 16.21703125 -23.20015625 16.77390625 -23.28515625 17.34765625 C-22.29515625 17.34765625 -21.30515625 17.34765625 -20.28515625 17.34765625 C-21.52711695 20.78693204 -22.84255909 23.59973444 -25.28515625 26.34765625 C-25.94515625 26.34765625 -26.60515625 26.34765625 -27.28515625 26.34765625 C-31.28515625 19.59765625 -31.28515625 19.59765625 -31.28515625 17.34765625 C-30.29515625 17.34765625 -29.30515625 17.34765625 -28.28515625 17.34765625 C-28.20265625 16.64640625 -28.12015625 15.94515625 -28.03515625 15.22265625 C-26.24248952 8.35076711 -21.35603406 3.79360384 -15.42578125 0.23046875 C-10.64558071 -1.74092782 -4.91463284 -1.40298066 0 0 Z " fill="#F26F2E" transform="translate(45.28515625,16.65234375)"/>
</svg>
