<?xml version="1.0" encoding="UTF-8"?>
<svg id="Layer_1" xmlns="http://www.w3.org/2000/svg" viewBox="57.93 58.1 389.02 72">
  <defs>
    <style>
      .cls-1 {
        fill: #ef4523;
      }

      .cls-2 {
        fill: #fff;
      }
    </style>
  </defs>
  <path class="cls-1" d="M179.47,121.68h-22.9l6.69-6.61c-2.74-4.55-4.31-9.89-4.31-15.59,0-16.74,13.46-30.2,30.2-30.2s30.27,13.46,30.27,30.2-12.92,29.79-29.22,30.29l.06-13.27c9.02-.52,16.17-8,16.17-17.15s-7.69-16.95-17.18-16.95-17.18,7.47-17.18,16.95c0,2.01.35,3.95.98,5.74l6.43-6.34v22.96"/>
  <polygon class="cls-2" points="230.67 121.76 218.21 73.91 233.51 73.91 239.95 104.56 240.36 104.56 247.27 73.91 262.2 73.91 269.3 104.34 269.7 104.34 275.97 73.91 291.26 73.91 278.77 121.76 262.48 121.76 255 93.88 254.47 93.88 246.99 121.76 230.67 121.76"/>
  <path class="cls-2" d="M294.96,121.76v-63.8h15.23v24.14h.31c.62-1.45,1.51-2.85,2.66-4.21,1.15-1.35,2.63-2.46,4.42-3.32,1.8-.86,3.95-1.29,6.46-1.29,3.32,0,6.43.87,9.33,2.62,2.9,1.74,5.24,4.43,7.02,8.07,1.79,3.63,2.68,8.27,2.68,13.89s-.86,9.96-2.57,13.61c-1.71,3.66-4.02,6.4-6.92,8.22-2.9,1.83-6.11,2.74-9.64,2.74-2.41,0-4.5-.39-6.26-1.18-1.77-.79-3.25-1.83-4.44-3.12-1.19-1.29-2.11-2.67-2.76-4.14h-.47v7.76h-15.08ZM309.88,97.83c0,2.58.35,4.82,1.04,6.73.7,1.91,1.7,3.39,3.02,4.44,1.32,1.05,2.9,1.57,4.75,1.57s3.46-.52,4.77-1.57c1.31-1.05,2.3-2.53,2.98-4.44.67-1.91,1.01-4.15,1.01-6.73s-.34-4.81-1.01-6.7c-.68-1.89-1.66-3.35-2.96-4.39-1.3-1.04-2.89-1.56-4.78-1.56s-3.46.51-4.77,1.53c-1.31,1.02-2.31,2.47-3.01,4.36-.7,1.89-1.04,4.14-1.04,6.76"/>
  <path class="cls-2" d="M393.64,100.73v-3.8c0-3.93-.57-7.41-1.71-10.45-1.14-3.04-2.74-5.6-4.8-7.68-2.06-2.08-4.5-3.64-7.32-4.7-2.82-1.06-5.94-1.59-9.35-1.59-4.82,0-9,1.03-12.55,3.1-3.55,2.07-6.3,4.95-8.26,8.66-1.95,3.71-2.93,8.03-2.93,12.97s.97,9.48,2.91,13.16c1.94,3.69,4.72,6.52,8.35,8.5,3.62,1.98,7.94,2.98,12.94,2.98,4.17,0,7.85-.64,11.03-1.92,3.18-1.28,5.75-3.07,7.71-5.39,1.96-2.32,3.23-5.04,3.82-8.18l-13.99-.4c-.39,1.06-.99,1.95-1.78,2.68-.79.73-1.73,1.28-2.84,1.65-1.1.37-2.33.56-3.68.56-1.95,0-3.63-.41-5.05-1.22-1.41-.81-2.5-1.95-3.27-3.41-.77-1.46-1.15-3.17-1.15-5.12v-.4h31.9ZM366.19,84.64c1.35-.76,2.88-1.14,4.58-1.14s3.17.36,4.47,1.07c1.3.72,2.32,1.71,3.07,2.98.75,1.27,1.13,2.71,1.15,4.33h-17.7c.08-1.54.48-2.93,1.22-4.16.79-1.3,1.86-2.33,3.21-3.08Z"/>
  <polygon class="cls-2" points="442.82 63.85 424.74 63.85 397.44 97.92 397.44 111.28 425.67 111.28 425.67 121.81 440.74 121.81 440.74 111.23 446.95 111.23 446.95 98.73 440.82 98.73 440.82 91.82 425.9 91.82 425.9 98.71 415.51 98.71 442.82 63.85"/>
  <polygon class="cls-2" points="87.55 121.67 105.08 121.67 87.47 94.78 104.4 74 87.21 74 73.8 91.07 73.11 91.07 73.11 58.1 57.93 58.1 57.93 121.67 73.11 121.67 73.11 107.36 76.19 103.64 87.55 121.67"/>
  <path class="cls-2" d="M123.58,94.48v27.19h-15.18v-47.68h14.43v8.75h.53c1.06-2.92,2.86-5.21,5.4-6.88,2.55-1.67,5.58-2.5,9.1-2.5s6.27.75,8.74,2.25c2.47,1.5,4.4,3.59,5.77,6.27,1.38,2.68,2.05,5.81,2.03,9.39v30.39h-15.18v-27.41c.02-2.65-.65-4.72-2-6.21-1.35-1.49-3.23-2.23-5.63-2.23-1.59,0-2.99.35-4.21,1.04-1.21.69-2.14,1.68-2.79,2.96-.65,1.28-.99,2.84-1.01,4.66Z"/>
</svg>