<svg xmlns="http://www.w3.org/2000/svg" width="120" height="60"><path d="m20.1 36.9.4-.1h2.2l.2.5v11.1c0 .6.1 1 .4 1.3s.8.4 1.3.4h4.2l.5.1.2.4.2 1.6v.3l-.5.2h-5c-.9 0-1.5-.1-2-.3-.6-.3-1-.6-1.4-1s-.5-.8-.6-1.4c-.2-.5-.2-1-.2-1.6V37.3l.1-.4z"/><path d="M80 51.4c0 .4-.1.6-.4.7a5 5 0 0 1-1 .4l-1.2.3h-1.2l-1 .1c-1 0-1.9 0-2.5-.3-.6-.2-1.1-.5-1.5-.8a2.8 2.8 0 0 1-.8-1.2c-.2-.4-.2-.9-.2-1.4l.2-1.5.8-1.3c.4-.4 1-.6 1.5-.9s1.4-.3 2.3-.3h2.4V44a1.3 1.3 0 0 0-.4-.6l-.7-.4-1.1-.2a5.7 5.7 0 0 0-1.6.3h-.3L73 43l-.3-1.3c0-.2 0-.4.2-.5a9 9 0 0 1 2.6-.4c1.5 0 2.6.3 3.4 1s1 1.7 1 3zm-2.6-4.2h-3c-.2 0-.5.1-.7.3l-.7.5c-.2.2-.2.6-.2 1 0 .7.2 1.1.6 1.4.5.2 1 .4 1.7.4h1.1l.6-.2a2 2 0 0 0 .6-.2v-3.2z" fill="#d32d27"/><path d="M50.1 49.2c0 .6 0 1-.3 1.5s-.5.8-.9 1.1l-1.4.7c-.6.2-1 .2-1.7.2h-1.1c-.4 0-.8 0-1.2-.2a7 7 0 0 1-1.2-.2l-1-.5c-.3-.1-.3-.3-.2-.5l.5-1.2a.6.6 0 0 1 .2-.3h.4c.5.3 1.1.5 1.7.6l1.8.2c.6 0 1-.1 1.4-.4s.4-.5.4-1c0-.3-.2-.7-.6-1s-1-.4-1.8-.7l-1.6-.7a5 5 0 0 1-1.2-.7 2.6 2.6 0 0 1-.7-.9l-.2-1.1c0-.5 0-1 .2-1.3.2-.4.5-.8.8-1l1.3-.8c.5-.2 1.1-.3 1.8-.3a12.3 12.3 0 0 1 1.9.1l1.8.5.2.2a.6.6 0 0 1 0 .3l-.5 1.3-.1.2h-.3a7.9 7.9 0 0 0-2.9-.5c-.5 0-1 .1-1.2.3s-.4.5-.4.8c0 .2 0 .4.2.5a1.3 1.3 0 0 0 .4.4 4.6 4.6 0 0 0 .7.4 16.2 16.2 0 0 0 1 .4l1.4.6c.5.2.9.4 1.2.7a3.6 3.6 0 0 1 .9 1c.2.3.4.8.4 1.3m8.2 3.2a6.4 6.4 0 0 1-1.5.3h-1.2c-1.2 0-2-.2-2.5-.7-.5-.6-.8-1.4-.8-2.4v-6.4h-1.8l-.1-.3.4-1.2.2-.3h1.3v-2.2c0-.3.2-.4.3-.4l.3-.2 1.6-.5h.3a.4.4 0 0 1 .1.4v2.8h2.2l.3.1V43a.6.6 0 0 1 0 .3H55v6c0 .5.1.8.4 1s.5.3 1 .3h.8l.4-.1c.1-.1.3 0 .4 0h.3v.1l.3 1.5v.2c0 .1 0 .2-.2.2z"/><path d="m63.5 52.4-.1.4-.6.1H61l-.1-.5v-14a3.6 3.6 0 0 1 0-.6c0-.2 0-.3.2-.4.1-.2.3-.3.5-.3h4.9a5.9 5.9 0 0 1 2 .4c.7.2 1.3.6 1.8 1s.8 1 1 1.6.4 1.3.4 2c0 .5 0 1-.2 1.6a4.5 4.5 0 0 1-2.4 3c-.8.5-1.7.7-2.9.7h-2.7v5zm5.7-11-.5-.8a2.8 2.8 0 0 0-.9-.7l-1.4-.2h-2.7v5.2h2.8c1 0 1.7-.2 2.1-.7s.7-1.1.7-1.9l-.1-.8zM89.8 51c-.2.4-.5.8-.9 1-.4.4-.8.6-1.4.7l-1.7.3h-1.1l-1.2-.2a7 7 0 0 1-1.2-.3l-1-.4c-.3-.2-.3-.3-.2-.6l.5-1.2a.6.6 0 0 1 .2-.2h.4c.5.3 1.1.4 1.7.6l1.8.2c.6 0 1-.2 1.3-.4s.5-.6.5-1-.2-.7-.6-1-1-.5-1.8-.8l-1.6-.6a5 5 0 0 1-1.2-.7 2.6 2.6 0 0 1-.7-1l-.2-1c0-.5 0-1 .2-1.4s.5-.7.8-1 .8-.6 1.3-.8 1.1-.2 1.8-.2a12.3 12.3 0 0 1 1.9 0l1.8.6s.2 0 .2.2a.6.6 0 0 1 0 .3l-.5 1.3-.1.2h-.3L87 43a10 10 0 0 0-1.5 0c-.5 0-.9 0-1.2.3s-.3.5-.3.8v.5a1.3 1.3 0 0 0 .5.4 4.6 4.6 0 0 0 .7.4 16.2 16.2 0 0 0 1 .4l1.5.5 1.2.7a3.6 3.6 0 0 1 .8 1c.2.4.3.8.3 1.4.1.5 0 1-.2 1.5zm10.2-1.6c0 .6 0 1.1-.3 1.6s-.5.8-1 1c-.3.4-.8.6-1.3.7l-1.7.3h-1.2l-1.2-.2a7 7 0 0 1-1.1-.3l-1-.4c-.3-.2-.3-.3-.2-.6l.5-1.2a.6.6 0 0 1 .2-.2h.4c.5.3 1 .4 1.7.6l1.7.2c.7 0 1.1-.2 1.4-.4s.5-.6.5-1-.2-.7-.7-1l-1.7-.8-1.7-.6a5 5 0 0 1-1-.7 2.6 2.6 0 0 1-.8-.9l-.2-1.2c0-.4 0-.9.2-1.3l.8-1c.3-.3.8-.6 1.3-.7s1.1-.3 1.8-.3a12.3 12.3 0 0 1 1.9 0l1.8.6s.2 0 .2.2a.6.6 0 0 1 0 .3l-.5 1.3s0 .2-.2.2h-.2c-.6-.3-1.1-.4-1.6-.4a10 10 0 0 0-1.4-.1c-.5 0-1 0-1.2.3s-.3.5-.3.8v.5a1.3 1.3 0 0 0 .5.4 4.6 4.6 0 0 0 .7.4 16.2 16.2 0 0 0 1 .4l1.4.5c.5.2.9.4 1.2.7a3.6 3.6 0 0 1 .9 1c.3.3.4.8.4 1.3" fill="#d32d27"/><path d="M40 51.2c0 .4 0 .6-.3.8a5 5 0 0 1-1 .3l-1.2.3-1.2.1h-1.1c-1 0-1.8 0-2.5-.3-.6-.1-1.1-.4-1.5-.7-.4-.4-.6-.8-.8-1.2l-.2-1.5.3-1.5c.1-.5.4-1 .8-1.3.4-.3.9-.6 1.5-.8S34 45 35 45h2.5v-.4l-.1-.8-.4-.6-.6-.4-1.2-.2a10.1 10.1 0 0 0-3 .5h-.4l-.2-.2-.3-1.3c0-.2 0-.4.2-.5a16.3 16.3 0 0 1 4.1-.7c1.6 0 2.7.4 3.4 1.1s1 1.7 1 3zm-2.5-4.1h-3l-.8.2c-.3.1-.5.4-.6.6s-.3.6-.3 1c0 .7.3 1.1.7 1.4.4.2 1 .3 1.7.3h1l.7-.1a2 2 0 0 0 .6-.2V47z"/><g fill="#d32d27"><path d="M82.3 8.4a1.3 1.3 0 1 1 2.7 0V30a1.3 1.3 0 1 1-2.7 0z"/><g transform="matrix(.58642 0 0 .58642 35 15.2)"><circle r="7.8" cy="7.8" cx="7.8"/><circle r="7.8" cy="7.8" cx="33.8"/><circle r="7.8" cy="7.8" cx="59.8"/></g></g></svg>