<svg xmlns="http://www.w3.org/2000/svg" width="75" height="75" viewBox="0 0 75 75">
  <path d="M46.55,6.656C44.762,5.265,35.822.1,23.505.1S2.249,5.265.461,6.656C.064,8.642.262,17.979,6.818,29.5c6.953,12.317,14.9,15.5,16.687,15.893h0C25.492,45,33.24,42.017,40.193,29.5,46.947,17.979,46.947,8.642,46.55,6.656ZM23.505,40.428h0c-2.781-.993-5.562-3.775-7.946-6.556a11.382,11.382,0,0,1,7.946-2.98h0a11.382,11.382,0,0,1,7.946,2.98C29.068,36.653,26.287,39.236,23.505,40.428ZM34.63,29.7a17.017,17.017,0,0,0-11.125-3.973h0A17.394,17.394,0,0,0,12.381,29.7a52.4,52.4,0,0,1-3.775-6.953,25.561,25.561,0,0,1,14.9-4.768h0a23.284,23.284,0,0,1,14.7,4.768A44.62,44.62,0,0,1,34.63,29.7Zm5.562-11.721a29.886,29.886,0,0,0-16.687-5.165h0A29.886,29.886,0,0,0,6.818,17.979,45.537,45.537,0,0,1,5.229,9.834a39.331,39.331,0,0,1,18.277-4.37h0a37.25,37.25,0,0,1,18.277,4.569A46.87,46.87,0,0,1,40.193,17.979Z" transform="translate(-0.338 -0.1)" fill="#3db249"/>
</svg>
