<?xml version="1.0" encoding="UTF-8" standalone="no"?>
<!DOCTYPE svg PUBLIC "-//W3C//DTD SVG 1.1//EN" "http://www.w3.org/Graphics/SVG/1.1/DTD/svg11.dtd">
<!-- Generated by Microsoft Visio, SVG Export test.svg M365securityposturelogo -->
<svg xmlns="http://www.w3.org/2000/svg" xmlns:xlink="http://www.w3.org/1999/xlink" xmlns:ev="http://www.w3.org/2001/xml-events"
		xmlns:v="http://schemas.microsoft.com/visio/2003/SVGExtensions/" width="2.02625in" height="2.11396in"
		viewBox="0 0 145.89 152.205" xml:space="preserve" color-interpolation-filters="sRGB" class="st2">
	<v:documentProperties v:langID="1033"/>

	<g v:mID="0" v:index="1" v:groupContext="foregroundPage">
		<v:pageProperties v:drawingScale="1" v:pageScale="1" v:drawingUnits="19" v:shadowOffsetX="8.99998"
				v:shadowOffsetY="-8.99998"/>
		<g transform="translate(18.1,-18.1)" v:mID="1" v:groupContext="group">
			<g v:mID="2" v:groupContext="shape" transform="translate(0,188.333) scale(1,-1)">
				<path d="M45.19 151.28 C41.24 150.11 39.24 149.13 34.37 145.96 C26.33 140.7 14.97 137.63 3.32 137.63 L0 137.63 L0
							 125.44 C0 118.71 0.24 111.11 0.54 108.47 C1.71 97.55 4.49 88.29 9.6 78.15 C18.28 60.89 32.08 47.24 49.63
							 38.61 L54.65 36.13 L59.13 38.18 C65.23 40.95 69.42 43.49 75.17 47.78 C92.58 60.94 103.74 78.74 108.42
							 100.97 C109.64 106.67 109.69 107.65 109.69 122.27 L109.69 137.63 L106.13 137.63 C98.52 137.63 89.56
							 139.33 83.36 141.97 C81.56 142.75 77.95 144.7 75.27 146.3 C72.59 147.96 68.64 149.86 66.54 150.59 C63.08
							 151.81 61.86 151.96 55.57 152.11 C49.68 152.2 47.97 152.06 45.19 151.28 ZM62.11 144.7 C64.15 144.26
							 66.98 143.14 69.42 141.77 C80.63 135.48 86.78 133.29 96.87 131.92 L102.86 131.09 L102.86 122.51 C102.86
							 106.08 100.67 95.36 94.82 83.27 C87.17 67.43 75.81 55.68 60.5 47.73 L54.94 44.85 L51.24 46.71 C42.95
							 50.8 33.25 58.21 27.49 64.89 C18.43 75.42 11.5 89.46 8.68 102.96 C7.95 106.52 7.65 110.28 7.46 118.96
							 L7.21 130.27 L8.34 130.51 C8.97 130.66 11.07 130.9 12.92 131.05 C21.01 131.83 31.35 135.38 38.17 139.72
							 C46.51 145.09 53.48 146.5 62.11 144.7 Z" class="st1"/>
			</g>
			<g v:mID="3" v:groupContext="shape" transform="translate(15.1127,202.812) scale(1,-1)">
				<path d="M33.88 151.57 C32.81 151.33 27.45 148.94 21.94 146.26 C12.72 141.77 9.07 140.45 1.37 138.75 L0 138.45 L0
							 133.43 C0 106.92 13.65 82.78 36.51 68.94 L39.58 67.09 L41.63 68.21 C55.62 76.2 65.47 86.54 72.15 100.19
							 C77.17 110.38 79.51 120.37 79.66 131.83 L79.71 138.6 L76.29 139.29 C70.54 140.45 63.03 143.19 54.6 147.23
							 C50.16 149.33 45.58 151.33 44.36 151.57 C41.73 152.2 36.56 152.16 33.88 151.57 ZM52.65 130.46 C52.65
							 130.36 50.99 127.2 48.99 123.49 L45.39 116.76 L52.41 116.62 C56.31 116.57 59.48 116.32 59.48 116.13
							 C59.48 115.5 28.47 84.78 28.13 85.12 C27.98 85.32 29.98 89.66 32.66 94.82 C35.34 99.99 37.54 104.33
							 37.54 104.53 C37.54 104.67 35.15 104.82 32.18 104.82 C29.25 104.82 26.81 104.92 26.81 105.06 C26.81
							 105.65 38.71 129.05 39.39 129.83 C40.03 130.51 41.05 130.66 46.41 130.66 C49.82 130.66 52.65 130.56
							 52.65 130.46 Z" class="st1"/>
			</g>
		</g>
	</g>
</svg>
