<svg width="70" height="70" viewBox="0 0 70 70" fill="none" xmlns="http://www.w3.org/2000/svg">
    <g>
        <path d="M36.4789 36.795L34.4382 35.7621L34.2925 35.9656C33.837 36.5915 33.1992 36.9045 32.4158 36.9045C31.0675 36.9045 30.0654 36.0282 30.0654 34.8858C30.0654 33.7277 31.0857 32.867 32.4158 32.867C33.2175 32.867 33.8005 33.1643 34.2925 33.8059L34.4382 34.0094L36.4789 32.9765L36.2967 32.7574C35.3128 31.5368 34.0556 30.9577 32.3976 30.9577C29.2819 30.9577 27.6056 32.9922 27.6056 34.9014C27.6056 36.8106 29.2819 38.8451 32.3976 38.8451C33.9827 38.8451 35.4768 38.1565 36.2967 37.0297L36.4789 36.795Z" fill="#C01818"/>
        <path d="M36.4789 38.8451H38.8813L39.5989 36.9915H43.2024L43.92 38.8451H46.338L42.0324 28H39.8797L40.4569 29.4471L36.4789 38.8451V38.8451ZM41.424 32.2762L42.3912 34.829H40.4257L41.424 32.2762Z" fill="#C01818"/>
        <path d="M47.3435 38.8451H49.6058V33.9672H51.0805V31.9185H49.6058V30.9592C49.6058 30.5365 49.8907 30.0975 50.4269 30.0975C50.7118 30.0975 50.8961 30.1463 51.0637 30.2113L51.3151 30.3088L52.2535 28.3089L52.0022 28.2276C51.5832 28.065 50.9967 28 50.5777 28C49.5555 28 48.7009 28.3252 48.1311 28.943C47.6284 29.4796 47.3435 30.2275 47.3435 31.0568V31.9348H46.338V33.9835H47.3435V38.8451Z" fill="#C01818"/>
        <path d="M24.3669 32.6387V38.8451H26.6197V28L22.1908 31.5234L17.7465 28V38.8289L19.9993 38.8451V32.6387L22.1908 34.3519L24.3669 32.6387Z" fill="#C01818"/>
        <path d="M56.8208 30.9577C53.8573 30.9577 52.2535 32.9846 52.2535 34.9014C52.2535 36.8182 53.8573 38.8451 56.8208 38.8451C58.1806 38.8293 59.4532 38.2794 60.4468 37.2582L58.5292 36.3155C58.0411 36.7711 57.431 37.0068 56.7685 37.0068C55.7923 37.0068 54.9381 36.4255 54.7115 35.6556H61.1267V35.1371C61.1441 32.2618 58.6164 30.9735 56.8208 30.9577ZM54.7638 33.943C55.0776 33.2202 55.74 32.8117 56.5942 32.8117C57.4658 32.8117 58.1457 33.2202 58.4944 33.9587L54.7638 33.943Z" fill="#C01818"/>
        <path d="M65.6941 30.9577C62.7305 30.9577 61.1268 32.9846 61.1268 34.9014C61.1268 36.8182 62.7305 38.8451 65.6941 38.8451C67.0538 38.8293 68.3264 38.2794 69.32 37.2582L67.4025 36.3155C66.9144 36.7711 66.3042 37.0068 65.6418 37.0068C64.6656 37.0068 63.8114 36.4254 63.5847 35.6556H69.9999V35.1371C70.0174 32.2618 67.4896 30.9577 65.6941 30.9577V30.9577ZM63.637 33.9273C63.9508 33.2045 64.6133 32.7803 65.4675 32.796C66.3391 32.796 67.0189 33.2045 67.3676 33.943L63.637 33.9273Z" fill="#C01818"/>
        <path d="M5.91549 30.7738L0 28V39.029L5.91549 41.8028V39.0951L2.42812 37.4605V31.847L5.91549 33.4815V30.7738Z" fill="#C01818"/>
        <path d="M5.91549 30.7738L12.8169 28V39.029L5.91549 41.8028V39.0951L9.99187 37.4605V31.847L5.91549 33.4815V30.7738Z" fill="#C01818"/>
    </g>
</svg>
