<?xml version="1.0" standalone="no"?>
<!DOCTYPE svg PUBLIC "-//W3C//DTD SVG 20010904//EN"
 "http://www.w3.org/TR/2001/REC-SVG-20010904/DTD/svg10.dtd">
<svg version="1.0" xmlns="http://www.w3.org/2000/svg"
 width="888.000000pt" height="379.000000pt" viewBox="0 0 888.000000 379.000000"
 preserveAspectRatio="xMidYMid meet">

<g transform="translate(0.000000,379.000000) scale(0.100000,-0.100000)"
fill="#000000" stroke="none">
<path d="M7525 3616 c-16 -7 -41 -26 -55 -40 -21 -24 -25 -39 -29 -107 l-3
-79 -39 0 c-37 0 -39 -2 -39 -30 0 -28 2 -30 40 -30 l40 0 0 -205 0 -205 35 0
35 0 0 205 0 205 55 0 c54 0 55 0 55 30 0 30 0 30 -56 30 l-56 0 4 71 c5 86
27 113 90 107 35 -3 38 -2 38 23 0 40 -54 52 -115 25z"/>
<path d="M4922 3598 c-7 -7 -12 -24 -12 -38 0 -31 17 -50 45 -50 28 0 45 19
45 50 0 31 -17 50 -45 50 -12 0 -26 -5 -33 -12z"/>
<path d="M4080 3250 l0 -330 35 0 35 0 0 273 0 272 122 -273 c103 -232 125
-272 141 -270 15 2 46 63 136 265 l116 263 3 -265 2 -265 40 0 40 0 0 331 0
330 -50 -3 -51 -3 -90 -200 c-50 -110 -103 -230 -118 -267 l-27 -67 -118 270
-118 269 -49 0 -49 0 0 -330z"/>
<path d="M1831 3556 c2 -2 33 -16 68 -30 54 -22 79 -26 155 -25 l91 1 -60 29
c-54 26 -70 29 -159 29 -55 0 -97 -2 -95 -4z"/>
<path d="M7763 3518 c-32 -11 -33 -12 -33 -69 l0 -59 -40 0 c-38 0 -40 -2 -40
-30 0 -28 2 -30 40 -30 l40 0 0 -162 c0 -135 3 -169 18 -198 21 -43 78 -67
135 -56 33 6 37 10 37 36 0 27 -2 28 -35 23 -26 -4 -41 -1 -55 12 -18 17 -20
31 -20 182 l0 163 55 0 c54 0 55 0 55 30 0 30 -1 30 -55 30 l-55 0 0 70 c0 39
-3 70 -7 69 -5 -1 -23 -6 -40 -11z"/>
<path d="M1033 3362 c-40 -26 -73 -50 -73 -54 0 -5 24 -8 53 -8 47 0 65 7 137
50 46 28 86 52 88 55 3 3 -26 5 -64 5 -65 0 -73 -3 -141 -48z"/>
<path d="M5261 3386 c-95 -32 -154 -123 -154 -241 0 -82 22 -135 78 -183 43
-38 71 -47 150 -47 84 0 125 19 125 56 0 32 -12 36 -50 14 -14 -8 -46 -14 -71
-15 -60 0 -107 31 -137 90 -28 55 -27 136 4 196 40 76 139 105 217 64 l37 -20
0 39 c0 46 -8 50 -95 57 -37 2 -77 -2 -104 -10z"/>
<path d="M5740 3393 c-24 -9 -51 -35 -71 -68 l-19 -30 0 48 0 47 -35 0 -35 0
0 -235 0 -235 35 0 35 0 0 138 c0 157 10 203 51 245 27 26 35 29 75 24 l45 -5
-3 37 c-3 32 -6 36 -33 38 -16 1 -37 -1 -45 -4z"/>
<path d="M6045 3391 c-74 -19 -128 -67 -155 -136 -20 -50 -16 -164 7 -215 70
-159 311 -174 402 -26 72 116 34 304 -71 359 -42 21 -136 31 -183 18z m142
-71 c50 -30 68 -73 68 -165 0 -58 -5 -89 -18 -113 -47 -87 -173 -98 -243 -20
-48 53 -57 172 -17 241 43 73 141 100 210 57z"/>
<path d="M6545 3391 c-73 -19 -115 -67 -115 -132 0 -52 32 -87 119 -126 42
-19 84 -42 94 -50 17 -16 23 -59 9 -79 -25 -38 -116 -45 -177 -14 -22 11 -41
20 -42 20 -2 0 -3 -18 -3 -39 l0 -40 57 -11 c173 -36 305 70 233 188 -15 24
-40 42 -88 63 -37 17 -77 35 -90 41 -43 22 -42 96 3 116 35 16 98 15 140 -2
l35 -15 0 33 c0 22 -6 36 -17 40 -28 11 -126 16 -158 7z"/>
<path d="M6995 3391 c-74 -19 -128 -67 -155 -136 -20 -50 -16 -164 7 -215 70
-159 311 -174 402 -26 72 116 34 304 -71 359 -42 21 -136 31 -183 18z m142
-71 c50 -30 68 -73 68 -165 0 -58 -5 -89 -18 -113 -47 -87 -173 -98 -243 -20
-48 53 -57 172 -17 241 43 73 141 100 210 57z"/>
<path d="M4920 3155 l0 -235 35 0 35 0 0 235 0 235 -35 0 -35 0 0 -235z"/>
<path d="M2617 3343 c24 -21 74 -48 115 -63 40 -15 82 -31 92 -35 32 -14 10
11 -40 46 -25 17 -82 44 -127 60 l-82 29 42 -37z"/>
<path d="M2041 3349 c-30 -5 -56 -11 -58 -12 -1 -2 24 -22 56 -44 l58 -42 108
12 108 12 -55 43 c-50 38 -60 42 -109 41 -30 -1 -78 -5 -108 -10z"/>
<path d="M1285 3290 c-44 -27 -93 -60 -109 -72 l-28 -24 75 -12 76 -13 91 55
c50 30 100 58 111 61 32 10 13 23 -61 39 -38 9 -70 16 -72 16 -2 0 -40 -22
-83 -50z"/>
<path d="M2645 3128 c14 -24 29 -48 33 -54 4 -5 41 -16 82 -22 41 -7 88 -15
104 -19 l29 -6 -32 46 c-17 26 -40 51 -49 56 -14 7 -169 41 -189 41 -2 0 8
-19 22 -42z"/>
<path d="M1859 3056 c-80 -35 -223 -118 -274 -160 -29 -24 -29 -25 -11 -39 11
-8 38 -24 60 -37 l41 -22 87 55 c81 51 261 137 287 137 6 0 11 3 11 8 0 9
-106 92 -117 91 -4 0 -42 -15 -84 -33z"/>
<path d="M766 2963 c-247 -334 -336 -767 -242 -1185 91 -402 360 -751 738
-958 43 -23 78 -39 78 -36 0 3 -7 48 -16 98 -23 126 -22 352 1 483 50 289 180
545 384 757 168 176 360 298 582 372 154 51 237 66 404 73 138 5 183 2 356
-24 35 -5 36 -5 31 26 -2 17 -9 34 -16 39 -16 14 -126 31 -243 38 l-102 7 -11
30 -10 30 -102 -6 c-57 -3 -136 -13 -177 -22 -66 -15 -76 -16 -85 -2 -6 8 -25
35 -43 61 l-32 46 -88 -31 c-48 -17 -132 -54 -186 -81 -108 -55 -98 -56 -168
9 l-36 34 -60 -45 c-33 -25 -92 -75 -131 -111 l-71 -66 -50 26 c-28 14 -54 25
-59 25 -11 0 -90 -109 -141 -196 l-42 -71 -55 15 c-66 19 -61 25 -104 -107
-39 -116 -66 -254 -76 -379 l-7 -94 -30 6 c-16 3 -34 6 -40 6 -6 0 -8 55 -5
160 l5 160 -48 0 -49 0 0 38 c0 20 11 86 25 146 14 60 23 111 22 112 -2 2 -29
5 -60 6 -35 2 -57 7 -57 15 0 21 61 186 91 246 l29 57 -65 0 c-36 0 -65 2 -65
5 0 29 103 192 186 296 l53 67 -37 6 c-101 16 -106 14 -176 -81z"/>
<path d="M1194 2897 c-44 -46 -103 -118 -132 -160 -59 -86 -64 -75 41 -95 l48
-10 46 62 c26 33 87 102 136 152 l88 92 -62 21 c-35 11 -68 21 -75 21 -6 0
-47 -37 -90 -83z"/>
<path d="M2431 2959 c-41 -5 -75 -10 -77 -11 -4 -5 77 -123 85 -123 100 7 201
19 201 24 0 3 -15 31 -33 61 -38 63 -45 65 -176 49z"/>
<path d="M2978 2860 l26 -59 71 -22 c38 -11 96 -31 128 -44 31 -13 57 -21 57
-18 0 3 -14 32 -31 64 -31 57 -34 59 -108 88 -70 27 -147 51 -163 51 -3 0 6
-27 20 -60z"/>
<path d="M4560 2330 l0 -350 35 0 35 0 0 150 c0 168 8 199 59 243 38 32 94 36
130 11 42 -30 51 -71 51 -244 l0 -160 41 0 41 0 -4 183 c-5 196 -11 225 -63
265 -59 47 -155 40 -216 -15 l-39 -35 0 151 0 151 -35 0 -35 0 0 -350z"/>
<path d="M4010 2605 l0 -35 95 0 95 0 0 -295 0 -295 35 0 35 0 0 295 0 295 95
0 95 0 0 35 0 35 -225 0 -225 0 0 -35z"/>
<path d="M6453 2578 c-32 -11 -33 -12 -33 -69 l0 -59 -40 0 c-38 0 -40 -2 -40
-30 0 -28 2 -30 40 -30 l40 0 0 -162 c0 -135 3 -169 18 -198 21 -43 78 -67
135 -56 33 6 37 10 37 36 0 27 -2 28 -35 23 -26 -4 -41 -1 -55 12 -18 17 -20
31 -20 182 l0 163 55 0 c54 0 55 0 55 30 0 30 -1 30 -55 30 l-55 0 0 70 c0 39
-3 70 -7 69 -5 -1 -23 -6 -40 -11z"/>
<path d="M3254 2538 c3 -13 6 -30 6 -39 0 -16 77 -55 87 -45 5 5 -16 76 -22
76 -1 0 -19 7 -40 16 -38 15 -38 15 -31 -8z"/>
<path d="M2420 2485 c0 -3 37 -40 81 -82 45 -43 110 -115 144 -161 157 -209
269 -518 241 -666 -4 -20 -10 -36 -14 -36 -4 0 -21 43 -36 95 -70 232 -215
472 -420 691 -52 57 -66 79 -66 103 0 24 -4 31 -19 31 -11 0 -22 -4 -25 -9 -3
-4 -20 -11 -37 -15 l-31 -6 30 -25 c28 -24 30 -28 20 -63 -22 -79 -105 -220
-181 -307 -27 -31 -37 -37 -48 -29 -24 19 -70 25 -105 14 -33 -11 -35 -10
-105 50 -65 56 -73 60 -87 46 -15 -14 -12 -19 28 -53 24 -21 55 -47 69 -59 22
-19 23 -23 11 -58 -11 -34 -11 -76 1 -115 6 -20 -165 -135 -319 -214 -95 -49
-131 -73 -135 -89 -4 -12 -5 -23 -3 -25 4 -5 200 92 275 136 36 22 101 64 144
95 74 53 78 54 104 41 32 -17 62 -19 96 -6 23 9 28 5 59 -42 90 -137 165 -299
204 -442 22 -83 23 -91 8 -100 -74 -44 -111 -109 -98 -172 6 -30 5 -31 -88
-71 -147 -64 -355 -142 -379 -142 -4 0 -11 10 -15 22 -3 12 -27 43 -51 69 -48
52 -127 89 -186 89 -38 0 -104 -17 -111 -29 -7 -10 28 -173 48 -230 9 -24 16
-45 16 -47 0 -5 -71 22 -144 55 -38 17 -70 31 -72 31 -2 0 -4 -15 -4 -34 0
-19 -6 -36 -13 -39 -8 -3 -63 -8 -123 -12 l-109 -7 -11 30 c-18 49 -68 74
-131 68 l-51 -6 -49 68 c-67 91 -116 174 -167 284 -41 87 -101 257 -93 264 2
2 32 -3 68 -10 35 -7 65 -12 67 -11 2 2 -1 12 -7 23 -7 13 -30 24 -63 32 -29
7 -60 16 -69 21 -22 11 -39 142 -40 314 -1 160 -10 256 -21 215 -28 -104 -32
-330 -9 -457 5 -24 5 -43 1 -43 -14 0 -97 69 -114 96 -17 24 -17 34 -6 103 17
105 54 228 96 320 26 58 34 88 32 117 -4 39 -4 38 -55 -66 -99 -202 -138 -390
-130 -630 14 -375 150 -678 425 -942 272 -261 614 -390 992 -375 215 9 357 45
556 142 291 141 545 414 659 709 200 518 95 1064 -283 1457 -77 80 -100 99
-123 99 -16 0 -29 -2 -29 -5z m1 -230 c153 -161 297 -401 368 -614 50 -149 51
-170 7 -230 -46 -62 -126 -136 -235 -217 l-83 -62 -36 24 c-20 14 -46 27 -58
30 -16 4 -24 16 -29 42 -25 134 -109 336 -202 484 -52 83 -58 97 -47 114 16
23 20 68 10 111 -7 29 -3 39 37 85 63 75 122 169 154 248 32 78 24 79 114 -15z
m-2034 -839 c25 -12 35 -26 43 -59 48 -190 168 -431 291 -588 53 -67 33 -90
-59 -69 -75 16 -190 71 -225 108 -36 38 -101 188 -131 306 -26 98 -46 248 -46
341 l0 56 48 -39 c26 -22 61 -47 79 -56z m2521 -53 l-3 -48 -11 70 c-8 51 -8
77 0 95 10 23 11 21 14 -23 2 -26 2 -68 0 -94z m-49 -134 c1 -67 -3 -84 -29
-135 -47 -89 -113 -176 -213 -281 -84 -88 -276 -257 -284 -250 -1 2 6 34 17
71 10 37 24 112 31 167 12 96 13 99 45 118 47 28 69 67 70 125 0 47 3 51 45
79 82 57 187 147 246 211 l58 64 7 -46 c3 -26 7 -81 7 -123z m-83 -362 c-53
-107 -123 -191 -208 -249 -57 -38 -164 -88 -189 -88 -6 0 27 30 73 67 108 88
250 231 313 316 27 38 51 63 53 57 2 -6 -17 -52 -42 -103z m-455 33 c16 0 19
-8 19 -49 0 -52 -22 -182 -41 -238 -6 -20 -17 -33 -27 -33 -27 0 -80 -37 -87
-61 -7 -21 -11 -22 -94 -16 -93 7 -248 43 -323 75 l-46 21 13 38 c8 21 14 56
15 79 l0 40 58 18 c75 24 325 122 381 151 l44 22 35 -23 c19 -13 43 -24 53
-24z m-1716 -228 c39 -11 82 -23 97 -26 19 -4 30 -16 38 -41 20 -60 87 -93
152 -73 35 10 38 9 85 -32 123 -108 317 -219 484 -274 121 -41 113 -46 -86
-52 -139 -5 -141 -5 -235 28 -118 42 -246 111 -349 188 -84 63 -225 206 -280
284 l-34 48 29 -15 c16 -8 61 -24 99 -35z m633 -66 c17 -46 84 -113 135 -137
63 -28 160 -26 223 6 28 14 62 38 77 53 l28 29 94 -33 c107 -37 234 -64 306
-64 26 0 50 -4 53 -8 11 -18 -255 -153 -407 -207 -72 -26 -81 -27 -138 -16
-192 38 -453 171 -611 311 -39 35 -42 39 -31 63 12 25 17 26 100 30 48 1 104
4 123 5 33 2 37 -1 48 -32z m1262 -118 c-84 -77 -187 -151 -272 -194 -82 -41
-89 -42 -57 -6 14 15 35 40 46 56 12 18 30 30 48 32 38 4 77 33 94 71 11 25
28 36 97 62 46 18 86 36 90 42 3 6 9 7 13 4 3 -4 -23 -34 -59 -67z m-329 -131
c-53 -76 -115 -128 -163 -137 -75 -15 -218 -23 -218 -14 0 5 28 20 63 33 69
27 230 106 292 145 22 13 43 22 47 20 5 -3 -5 -24 -21 -47z m-341 -198 c52 -1
53 -2 20 -10 -62 -15 -295 -32 -326 -24 -26 7 -22 9 46 26 48 11 98 16 140 13
36 -2 90 -4 120 -5z"/>
<path d="M5260 2453 c-24 -9 -51 -35 -71 -68 l-19 -30 0 48 0 47 -35 0 -35 0
0 -235 0 -235 35 0 35 0 0 138 c0 157 10 203 51 245 27 26 35 29 75 24 l45 -5
-3 37 c-3 32 -6 36 -33 38 -16 1 -37 -1 -45 -4z"/>
<path d="M5526 2445 c-89 -31 -139 -116 -139 -233 1 -112 34 -180 108 -220 41
-22 177 -22 228 1 32 14 37 20 37 50 l0 34 -47 -23 c-114 -58 -226 -9 -248
109 l-7 37 166 0 166 0 0 58 c0 62 -24 125 -58 155 -48 43 -136 57 -206 32z
m143 -71 c25 -21 51 -74 51 -106 0 -5 -58 -8 -129 -8 l-130 0 9 29 c29 101
129 144 199 85z"/>
<path d="M6007 2450 c-64 -16 -77 -27 -77 -65 0 -19 1 -35 3 -35 1 0 24 11 51
25 56 29 121 33 153 10 23 -16 52 -90 40 -101 -3 -4 -47 -13 -97 -20 -119 -18
-158 -36 -181 -88 -23 -51 -24 -88 -2 -133 41 -87 194 -96 260 -15 l23 27 0
-37 c0 -37 1 -38 35 -38 l35 0 0 183 c0 199 -7 230 -61 270 -31 22 -125 31
-182 17z m173 -265 c0 -87 -59 -155 -134 -155 -47 0 -86 36 -86 80 0 61 28 83
126 99 91 16 94 15 94 -24z"/>
<path d="M5670 1390 l0 -350 35 0 35 0 0 350 0 350 -35 0 -35 0 0 -350z"/>
<path d="M5890 1390 l0 -350 35 0 35 0 0 350 0 350 -35 0 -35 0 0 -350z"/>
<path d="M6122 1718 c-7 -7 -12 -24 -12 -38 0 -31 17 -50 45 -50 28 0 45 19
45 50 0 31 -17 50 -45 50 -12 0 -26 -5 -33 -12z"/>
<path d="M4080 1370 l0 -330 35 0 35 0 0 330 0 330 -35 0 -35 0 0 -330z"/>
<path d="M4903 1638 c-32 -11 -33 -12 -33 -69 l0 -59 -40 0 c-38 0 -40 -2 -40
-30 0 -28 2 -30 40 -30 l40 0 0 -162 c0 -135 3 -169 18 -198 21 -43 78 -67
135 -56 33 6 37 10 37 36 0 27 -2 28 -35 23 -26 -4 -41 -1 -55 12 -18 17 -20
31 -20 182 l0 163 55 0 c54 0 55 0 55 30 0 30 -1 30 -55 30 l-55 0 0 70 c0 39
-3 70 -7 69 -5 -1 -23 -6 -40 -11z"/>
<path d="M4486 1510 c-16 -5 -44 -24 -63 -42 l-33 -32 0 37 c0 36 -1 37 -35
37 l-35 0 0 -235 0 -235 35 0 35 0 0 152 c0 131 3 157 20 193 47 96 167 102
206 9 10 -24 14 -79 14 -194 l0 -160 41 0 41 0 -4 178 c-4 193 -14 235 -68
274 -30 22 -113 31 -154 18z"/>
<path d="M5276 1505 c-89 -31 -139 -116 -139 -233 1 -112 34 -180 108 -220 41
-22 177 -22 228 1 32 14 37 20 37 50 l0 34 -47 -23 c-114 -58 -226 -9 -248
109 l-7 37 166 0 166 0 0 58 c0 62 -24 125 -58 155 -48 43 -136 57 -206 32z
m143 -71 c25 -21 51 -74 51 -106 0 -5 -58 -8 -129 -8 l-130 0 9 29 c29 101
129 144 199 85z"/>
<path d="M6455 1505 c-52 -19 -111 -82 -126 -136 -6 -24 -12 -76 -11 -116 0
-123 61 -205 163 -219 60 -8 122 10 158 47 l31 31 0 -58 c0 -78 -28 -133 -81
-163 -35 -20 -51 -23 -108 -19 -36 3 -81 13 -99 22 l-32 17 0 -36 c0 -42 15
-50 107 -60 128 -15 223 30 267 125 19 41 21 67 24 308 l4 262 -41 0 c-40 0
-41 -1 -41 -32 -1 -28 -2 -30 -11 -15 -15 26 -86 57 -129 56 -19 0 -53 -6 -75
-14z m146 -60 c51 -27 69 -69 69 -160 0 -94 -18 -138 -69 -172 -63 -43 -151
-20 -186 47 -35 68 -28 196 15 248 42 50 114 66 171 37z"/>
<path d="M7016 1505 c-89 -31 -139 -116 -139 -233 1 -112 34 -180 108 -220 41
-22 177 -22 228 1 32 14 37 20 37 50 l0 34 -47 -23 c-114 -58 -226 -9 -248
109 l-7 37 166 0 166 0 0 58 c0 62 -24 125 -58 155 -48 43 -136 57 -206 32z
m143 -71 c25 -21 51 -74 51 -106 0 -5 -58 -8 -129 -8 l-130 0 9 29 c29 101
129 144 199 85z"/>
<path d="M7566 1510 c-16 -5 -44 -24 -63 -42 l-33 -32 0 37 c0 36 -1 37 -35
37 l-35 0 0 -235 0 -235 35 0 35 0 0 152 c0 131 3 157 20 193 47 96 167 102
206 9 10 -24 14 -79 14 -194 l0 -160 41 0 41 0 -4 178 c-4 193 -14 235 -68
274 -30 22 -113 31 -154 18z"/>
<path d="M8051 1506 c-95 -32 -154 -123 -154 -241 0 -82 22 -135 78 -183 43
-38 71 -47 150 -47 84 0 125 19 125 56 0 32 -12 36 -50 14 -14 -8 -46 -14 -71
-15 -60 0 -107 31 -137 90 -28 55 -27 136 4 196 40 76 139 105 217 64 l37 -20
0 39 c0 46 -8 50 -95 57 -37 2 -77 -2 -104 -10z"/>
<path d="M8476 1505 c-89 -31 -139 -116 -139 -233 1 -112 34 -180 108 -220 41
-22 177 -22 228 1 32 14 37 20 37 50 l0 34 -47 -23 c-114 -58 -226 -9 -248
109 l-7 37 166 0 166 0 0 58 c0 62 -24 125 -58 155 -48 43 -136 57 -206 32z
m143 -71 c25 -21 51 -74 51 -106 0 -5 -58 -8 -129 -8 l-130 0 9 29 c29 101
129 144 199 85z"/>
<path d="M6120 1275 l0 -235 35 0 35 0 0 235 0 235 -35 0 -35 0 0 -235z"/>
<path d="M4270 744 c-146 -39 -231 -160 -233 -329 -1 -96 12 -145 55 -210 73
-110 224 -151 391 -104 34 9 37 13 37 44 0 40 -1 40 -55 20 -22 -8 -69 -14
-105 -14 -106 -1 -181 46 -224 139 -28 62 -28 186 1 250 55 125 186 179 329
135 27 -8 50 -15 52 -15 1 0 2 17 2 39 l0 38 -57 12 c-73 14 -125 13 -193 -5z"/>
<path d="M5733 688 c-32 -11 -33 -12 -33 -69 l0 -59 -40 0 c-38 0 -40 -2 -40
-30 0 -28 2 -30 40 -30 l40 0 0 -162 c0 -135 3 -169 18 -198 21 -43 78 -67
135 -56 33 6 37 10 37 36 0 27 -2 28 -35 23 -26 -4 -41 -1 -55 12 -18 17 -20
31 -20 182 l0 163 55 0 c54 0 55 0 55 30 0 30 -1 30 -55 30 l-55 0 0 70 c0 39
-3 70 -7 69 -5 -1 -23 -6 -40 -11z"/>
<path d="M4756 555 c-89 -31 -139 -116 -139 -233 1 -112 34 -180 108 -220 41
-22 177 -22 228 1 32 14 37 20 37 50 l0 34 -47 -23 c-114 -58 -226 -9 -248
109 l-7 37 166 0 166 0 0 58 c0 62 -24 125 -58 155 -48 43 -136 57 -206 32z
m143 -71 c25 -21 51 -74 51 -106 0 -5 -58 -8 -129 -8 l-130 0 9 29 c29 101
129 144 199 85z"/>
<path d="M5316 560 c-16 -5 -44 -24 -63 -42 l-33 -32 0 37 c0 36 -1 37 -35 37
l-35 0 0 -235 0 -235 35 0 35 0 0 152 c0 131 3 157 20 193 47 96 167 102 206
9 10 -24 14 -79 14 -194 l0 -160 41 0 41 0 -4 177 c-4 194 -14 236 -68 275
-30 22 -113 31 -154 18z"/>
<path d="M6106 555 c-89 -31 -139 -116 -139 -233 1 -112 34 -180 108 -220 41
-22 177 -22 228 1 32 14 37 20 37 50 l0 34 -47 -23 c-114 -58 -226 -9 -248
109 l-7 37 166 0 166 0 0 58 c0 62 -24 125 -58 155 -48 43 -136 57 -206 32z
m143 -71 c25 -21 51 -74 51 -106 0 -5 -58 -8 -129 -8 l-130 0 9 29 c29 101
129 144 199 85z"/>
<path d="M6650 563 c-24 -9 -51 -35 -71 -68 l-19 -30 0 48 0 47 -35 0 -35 0 0
-235 0 -235 35 0 35 0 0 138 c0 157 10 203 51 245 27 26 35 29 75 24 l45 -5
-3 37 c-3 32 -6 36 -33 38 -16 1 -37 -1 -45 -4z"/>
</g>
</svg>
