<?xml version="1.0" encoding="UTF-8"?>
<svg xmlns="http://www.w3.org/2000/svg"  viewBox="0 0 96 96">
  <path d="M-.1 0h96v96h-96z" fill="#0e2343"></path>
  <defs>
    <path id="32107c20-0d95-48af-bb4f-166c97fbc658" d="M11.3 12.6H82v70.7H11.3z"></path>
  </defs>
  <clipPath id="a3cb2b70-ce10-473d-be64-4cd9106404dd">
    <use href="#32107c20-0d95-48af-bb4f-166c97fbc658"></use>
  </clipPath>
  <g clip-path="url(#a3cb2b70-ce10-473d-be64-4cd9106404dd)" fill="#fff">
    <path d="M79.6 43.3H58.8c-.3 0-.5-.4-.3-.6l16.6-16.6c.2-.2.2-.4.2-.6v-2.3c0-.2-.1-.4-.2-.6l-3-3c-.2-.2-.4-.2-.6-.2h-2.3c-.2 0-.4.1-.6.2L52 36.1c-.2.2-.6.1-.6-.3V15.1c0-.2-.1-.4-.2-.6l-1.7-1.7c-.2-.2-.4-.2-.6-.2h-4.3c-.2 0-.4.1-.6.2l-1.7 1.7c-.2.2-.2.4-.2.6v31.2c0 .2.1.4.2.6l5.4 5.4c.2.2.4.2.6.2h31.2c.2 0 .4-.1.6-.2l1.7-1.7c.2-.2.2-.4.2-.6v-4.3c0-.2-.1-.4-.2-.6l-1.7-1.7c-.1 0-.3-.1-.5-.1h0z" fill-rule="evenodd"></path>
    <path d="M23.6 64.6l-.6.6c-.2.2-.2.4 0 .6l5.9 5.9a.37.37 0 0 0 .6 0l.7-.7a.37.37 0 0 0 0-.6l-5.9-5.9c-.2-.1-.5-.1-.7.1z"></path>
    <path d="M18.3 52.6H20c.2 0 .3-.2.1-.4l-7.5-7.5c-.1-.1-.3-.1-.5 0l-.5.5-.3.3c-.1.1-.1.3 0 .5l6.4 6.4c.2.1.4.2.6.2h0z" fill-rule="evenodd"></path>
    <path d="M25.7 62.5l-.7.6c-.2.2-.2.4 0 .6l5.9 5.9a.37.37 0 0 0 .6 0l.7-.7a.37.37 0 0 0 0-.6l-5.9-5.9a.47.47 0 0 0-.6.1zm4.2-4.2l-.7.7c-.2.2-.2.4 0 .6l5.9 5.9c.2.2.4.2.6 0l.7-.7c.2-.2.2-.4 0-.6l-5.9-5.9c-.2-.1-.5-.1-.6 0zM19.5 68.7l-.7.7a.37.37 0 0 0 0 .6l5.9 5.9a.37.37 0 0 0 .6 0l.7-.7c.2-.2.2-.4 0-.6l-5.9-5.9c-.2-.2-.5-.2-.6 0zm2.1-2.1l-.7.7c-.2.2-.2.4 0 .6l5.9 5.9a.37.37 0 0 0 .6 0l.7-.7a.37.37 0 0 0 0-.6l-5.9-5.9c-.2-.1-.5-.1-.6 0z"></path>
    <path d="M18.1 71.4v1.7c0 .1 0 .2.1.3l3.1 3.1c.1.1.2.1.3.1h1.6c.2 0 .3-.2.1-.4l-4.9-4.9c0-.1-.3-.1-.3.1h0z" fill-rule="evenodd"></path>
    <path d="M31.9 56.3l-.7.7c-.2.2-.2.4 0 .6l5.9 5.9a.37.37 0 0 0 .6 0l.7-.7c.2-.2.2-.4 0-.6l-5.9-5.9c-.1-.2-.4-.2-.6 0zm-4.1 4.1l-.7.7c-.2.2-.2.4 0 .6l5.9 5.9c.2.2.4.2.6 0l.7-.7a.37.37 0 0 0 0-.6l-5.9-5.9c-.2-.1-.5-.1-.6 0zm6.2-6.2l-.7.7c-.2.2-.2.4 0 .6l5.9 5.9a.37.37 0 0 0 .6 0l.7-.7c.2-.2.2-.4 0-.6l-5.9-5.9a.37.37 0 0 0-.6 0z"></path>
    <g fill-rule="evenodd">
      <path d="M27.6 43.3h-1.7c-.2 0-.3.2-.1.4L51 69c.1.1.4 0 .4-.1V67c0-.1 0-.2-.1-.3L28 43.5c-.1-.1-.2-.2-.4-.2h0zm8.3 0h-1.7c-.2 0-.3.2-.1.4l17 17c.1.1.4 0 .4-.1v-1.8c0-.1 0-.2-.1-.3l-15.1-15c-.1-.1-.2-.2-.4-.2h0zm4.6 2.2v-1.9c0-.1-.1-.2-.2-.2h-1.9c-.2 0-.3.2-.1.4l1.9 1.9s.3 0 .3-.2zm1.6 16.8V64c0 .2.1.3.2.4l8.7 8.7c.1.1.4 0 .4-.1v-1.7c0-.2-.1-.3-.2-.4l-8.7-8.7c-.1-.2-.4-.1-.4.1h0zm9.1-8.1h-2c-.2 0-.3.2-.1.4l2 2c.1.1.4 0 .4-.1v-2c-.1-.2-.2-.3-.3-.3zM31.8 43.3H30c-.2 0-.3.2-.1.4L51 64.8c.1.1.4 0 .4-.1v-1.8c0-.1 0-.2-.1-.3L32.2 43.5a.76.76 0 0 0-.4-.2h0zm-5.2 9.3h1.7c.2 0 .3-.2.1-.4l-8.7-8.7a.76.76 0 0 0-.4-.2h-1.7c-.2 0-.3.2-.1.4l8.7 8.7c0 .1.2.2.4.2h0zm-4.2 0h1.7c.2 0 .3-.2.1-.4l-8.7-8.7a.76.76 0 0 0-.4-.2h-1.7c-.2 0-.3.2-.1.4l8.7 8.7a.76.76 0 0 0 .4.2h0zm-.8-8.9l8.7 8.7a.76.76 0 0 0 .4.2h1.7c.2 0 .3-.2.1-.4l-8.7-8.7a.76.76 0 0 0-.4-.2h-1.7c-.2 0-.3.2-.1.4h0zM14 52.6h1.8c.2 0 .3-.2.1-.4l-4.3-4.3c-.1-.1-.4 0-.4.1v1.8c0 .1 0 .2.1.3l2.3 2.3c.2.1.3.2.4.2h0zm28.1 13.8v1.7c0 .2.1.3.2.4l8.7 8.7c.1.1.4 0 .4-.1v-1.7c0-.2-.1-.3-.2-.4l-8.7-8.7c-.1-.2-.4-.1-.4.1h0zm0 10v-1.7c0-.2.2-.3.4-.1L50 82c.1.1.1.3 0 .5l-.5.5-.3.3c-.1.1-.3.1-.5 0l-6.4-6.4c-.1-.1-.2-.3-.2-.5h0zm0-4.1v-1.7c0-.2.2-.3.4-.1l8.7 8.7a.76.76 0 0 1 .2.4v1.7c0 .2-.2.3-.4.1l-8.7-8.7a.76.76 0 0 1-.2-.4zm0 8.4v-1.8c0-.2.2-.3.4-.1l4.3 4.3c.1.1 0 .4-.1.4h-1.8c-.1 0-.2 0-.3-.1L42.3 81c-.1-.1-.2-.2-.2-.3z"></path>
    </g>
  </g>
</svg>
