<svg xmlns="http://www.w3.org/2000/svg" viewBox="0 0 1000 156.5"><defs><style>.cls-1{fill:#ff8300;}.cls-2{fill:#00a6ce;}.cls-3{fill:#54565a;}</style></defs><g id="Layer_2" data-name="Layer 2"><g id="Layer_1-2" data-name="Layer 1"><path class="cls-1" d="M79.78,64.27A34.45,34.45,0,0,1,58.89,43.38,28.73,28.73,0,0,1,52.3,53c-6.43,6.43-14.46,9-22.81,9.32l.12.12A30.44,30.44,0,1,0,60.89,92.69c.61-8,3.07-15.66,9.25-21.83A34.33,34.33,0,0,1,79.78,64.27Z"/><path class="cls-2" d="M237.09,9.64a30.46,30.46,0,0,0-43.07,0,29.89,29.89,0,0,0-8.83,20.57h0c-.49,8.35-2.9,16.39-9.32,22.81a31.08,31.08,0,0,1-9.65,6.59,35,35,0,0,1,21.05,21A27.32,27.32,0,0,1,193.86,71c6.43-6.43,14.46-9,22.82-9.32h0a30,30,0,0,0,20.57-8.84A30.79,30.79,0,0,0,237.09,9.64ZM226.48,42.1a15.59,15.59,0,0,1-10.93,4.5,15.31,15.31,0,0,1-10.92-4.5,15.51,15.51,0,0,1,10.92-26.51,15.27,15.27,0,0,1,10.93,4.5,15.71,15.71,0,0,1,0,22Z"/><path class="cls-3" d="M175.38,71.34a30.33,30.33,0,0,0-20.68-8.88l.12-.12C146.46,62,138.43,59.61,132,53c-6.43-6.42-9-14.46-9.32-22.81l-.12.12A30.43,30.43,0,1,0,92.33,61.61c8,.61,15.66,3.08,21.83,9.25s8.77,13.84,9.25,21.84a30.45,30.45,0,1,0,52-21.36Z"/><path class="cls-3" d="M510.24,123.72c-15.42,0-25.06-9.48-25.06-24.58V6.59A6.25,6.25,0,0,1,491.6.16,6.34,6.34,0,0,1,498,6.59V38.08h22.66a6.19,6.19,0,1,1,0,12.37H498V98.5c0,8.84,4.34,13,13.5,13a20.28,20.28,0,0,0,6.91-1.12,5.66,5.66,0,0,1,2.25-.48,6.32,6.32,0,0,1,6.1,6.1,5.79,5.79,0,0,1-4.17,5.63A39.46,39.46,0,0,1,510.24,123.72Z"/><path class="cls-3" d="M578.37,123.72a58.48,58.48,0,0,1-32.78-10.92,6.76,6.76,0,0,1-2.41-5,6.56,6.56,0,0,1,6.43-6.43,7,7,0,0,1,4,1.29c8,5.78,16.39,8.67,25.22,8.67,10,0,16.88-5.3,16.88-12.69v-.32c0-6.91-6.75-10.13-19.45-13.66l-.32-.16-.32-.16c-12.85-3.7-28.76-8.36-28.76-24.27v-.32C546.88,45.47,559.09,35,576,35a57.45,57.45,0,0,1,27.32,7.55l.16.16a6.74,6.74,0,0,1,3.21,5.63,6.55,6.55,0,0,1-10,5.46c-6.91-4-14.14-6.27-21.05-6.27-9.32,0-15.75,4.66-15.75,11.41v.32c0,6.75,8.52,9.64,20.57,13.18,10.61,3,28.28,7.87,28.28,25.06v.32C608.74,112.8,596.05,123.72,578.37,123.72Z"/><path class="cls-3" d="M636.7,122.76a6.38,6.38,0,0,1-6.59-6.43V6.59a6.43,6.43,0,1,1,12.86,0V116.33A6,6,0,0,1,636.7,122.76Z"/><path class="cls-3" d="M758,124.05c-24.42,0-43.7-19.45-43.7-44.35v-.32c0-25.07,19.28-44.67,44-44.67,24.42,0,43.7,19.44,43.7,44.35v.32C802,104.44,782.76,124.05,758,124.05Zm0-76.81c-17.19,0-30.2,13.66-30.2,32v.32c0,18,13.33,32.29,30.53,32.29s30.2-13.65,30.2-32v-.32C788.54,61.38,775.21,47.24,758,47.24Z"/><path class="cls-3" d="M424.44,124.05c-23.94,0-41.94-19.13-41.94-44.51v-.32c0-24.91,17.84-44.51,40.65-44.51s39.37,18.64,39.37,44.18a6.64,6.64,0,0,1-6.43,6.27H412.23a6,6,0,1,1,0-12H448.7c-1.77-12.53-9.32-26-26-26C409,47.08,398.09,58,395.84,73.43L395.52,76a28.5,28.5,0,0,0,0,7.39v.16c1.6,16.55,13.49,28.12,28.76,28.12,9.32,0,17-3.21,24.26-10.28a5.81,5.81,0,0,1,4.34-1.77,6.31,6.31,0,0,1,6.43,6.27,6,6,0,0,1-2.09,4.5C447.9,119.87,438.1,124.05,424.44,124.05Z"/><path class="cls-3" d="M825.18,156.5a6.42,6.42,0,0,1-6.59-6.58V75.36c0-24.58,19-40.65,41.46-40.65,24.42,0,43.7,19.44,43.7,44.35v.32c0,25.06-19.28,44.67-44,44.67-11.09,0-21.05-4-28.28-11.41v37.28C831.45,153.77,828.87,156.5,825.18,156.5Zm6.27-73.27c1.44,16.23,12.37,27.64,27.15,28.44h1.61a28.42,28.42,0,0,0,14.62-3.85c.48-.32.8-.48,1.28-.81A27.81,27.81,0,0,0,885,97.53c.32-.48.48-.8.81-1.28A14.57,14.57,0,0,0,887,93.52a36.5,36.5,0,0,0,2.73-13.82v-.32A37.55,37.55,0,0,0,888,68.13a22.42,22.42,0,0,0-1.13-2.89,13.46,13.46,0,0,0-1.29-2.73,30.59,30.59,0,0,0-11.08-11.57,4.6,4.6,0,0,0-1.29-.65,13.94,13.94,0,0,0-2.73-1.12,39.32,39.32,0,0,0-5.78-1.61,19.86,19.86,0,0,0-3.06-.32h-1.6c-15.59,0-26.84,11.41-28.44,28.28h0v7.71Z"/><path class="cls-3" d="M699.53,122.92a6.41,6.41,0,0,1-4.66-1.93L655,80.66A6.26,6.26,0,0,1,654.7,72l.16-.33,36.31-33.58A6.21,6.21,0,0,1,695.35,36,6,6,0,0,1,700,37.44a6.57,6.57,0,0,1,.8,9.16l-.32.32L668.35,76.16l35.51,36a6.41,6.41,0,0,1,1.93,4.66,5.81,5.81,0,0,1-1.93,4.49A6.19,6.19,0,0,1,699.53,122.92Z"/><path class="cls-3" d="M357.27,124.05a6.52,6.52,0,0,1-6.58-6.59v-45c0-15.75-8.68-25.07-23.3-25.07s-23.3,9.32-23.3,25.07v45a6.52,6.52,0,0,1-6.59,6.59,6.3,6.3,0,0,1-6.43-6.59V71.18c0-21.85,13.82-36,35-36h2.25c21.37,0,35,14.14,35,36v46.28A5.88,5.88,0,0,1,357.27,124.05Z"/><path class="cls-3" d="M961.92,124.05C938,124.05,920,104.92,920,79.54v-.32c0-24.91,17.84-44.51,40.65-44.51S1000,53.35,1000,78.89a6.41,6.41,0,0,1-6.43,6.27h-43.7a6,6,0,1,1,0-12h36.47c-1.77-12.53-9.32-26-26-26-13.66,0-24.58,10.93-26.83,26.35L933.16,76a28.5,28.5,0,0,0,0,7.39v.16c1.6,16.55,13.49,28.12,28.76,28.12,9.32,0,17-3.21,24.26-10.28a5.81,5.81,0,0,1,4.34-1.77,6.32,6.32,0,0,1,6.43,6.27,6,6,0,0,1-2.09,4.5C985.38,119.87,975.42,124.05,961.92,124.05Z"/></g></g></svg>