<svg xmlns="http://www.w3.org/2000/svg" viewBox="0 0 153.05 76.27">
<defs>
    <style>.cls-1{fill:#ff8300;}.cls-2{fill:#55565a;}.cls-3{fill:#00a7ce;}
    </style>
</defs>
    <path class="cls-1" d="M109.49,187.31a18.83,18.83,0,0,1-4.06,6c-4,4-9,5.56-14.2,5.83l19.51,19.51c0.27-5.19,1.78-10.15,5.83-14.2a18.84,18.84,0,0,1,6-4.06A22.12,22.12,0,0,1,109.49,187.31Z" transform="translate(-72.86 -160.76)"/>
    <path class="cls-1" d="M105.2,231.48a18.94,18.94,0,1,0-26.79,0,18.94,18.94,0,0,0,26.79,0" transform="translate(-72.86 -160.76)"/>
    <path class="cls-2" d="M143.58,166.3a18.94,18.94,0,1,1-26.79,0,18.94,18.94,0,0,1,26.79,0" transform="translate(-72.86 -160.76)"/>
    <path class="cls-3" d="M220.36,166.3A18.94,18.94,0,0,0,188,179.12h0c-0.27,5.19-1.78,10.15-5.83,14.2a18.83,18.83,0,0,1-6,4.06,22.11,22.11,0,0,1,13.09,13.09,18.83,18.83,0,0,1,4.06-6c4-4,9-5.56,14.2-5.83h0A18.94,18.94,0,0,0,220.36,166.3Zm-6.55,20.24a9.69,9.69,0,1,1,2.84-6.85A9.62,9.62,0,0,1,213.81,186.54Z" transform="translate(-72.86 -160.76)"/>
    <path class="cls-2" d="M182,204.69a18.94,18.94,0,1,1-26.79,0,18.94,18.94,0,0,1,26.79,0" transform="translate(-72.86 -160.76)"/>
    <path class="cls-2" d="M155,193.32c-4-4-5.56-9-5.83-14.2l-19.51,19.51c5.19,0.27,10.15,1.78,14.2,5.83s5.56,9,5.83,14.2l19.51-19.51c-5.19-.27-10.15-1.78-14.2-5.83" transform="translate(-72.86 -160.76)"/>
</svg>