<?xml version="1.0" encoding="utf-8"?>
<svg version="1.1" xmlns="http://www.w3.org/2000/svg" xmlns:xlink="http://www.w3.org/1999/xlink" x="0px" y="0px"
	 viewBox="0 0 690.4 459.5" style="enable-background:new 0 0 690.4 459.5;" xml:space="preserve">
<style type="text/css">
	.st0{display:none;}
	.st1{display:inline;}
	.st2{fill:#40535D;}
	.st3{fill:#04AADA;}
	.st4{display:inline;fill:#40535D;}
	.st5{display:inline;fill:none;stroke:#596F7C;stroke-width:0.176;stroke-linecap:round;stroke-miterlimit:10;}
	.st6{display:inline;fill:#05AADA;}
	.st7{display:inline;fill:#40525C;}
	.st8{clip-path:url(#SVGID_2_);fill:#40525C;}
	.st9{clip-path:url(#SVGID_2_);fill:#05AADA;}
	.st10{clip-path:url(#SVGID_4_);fill:#05AADA;}
	.st11{clip-path:url(#SVGID_6_);fill:#05AADA;}
	.st12{clip-path:url(#SVGID_6_);fill:#40525C;}
	.st13{display:inline;fill:none;stroke:#05AADA;stroke-width:0.353;stroke-linecap:round;stroke-miterlimit:10;}
	.st14{fill:#FFFFFF;}
	.st15{fill:none;stroke:#000000;stroke-width:0.25;stroke-miterlimit:10;}
	.st16{display:inline;fill:none;}
	.st17{display:inline;fill:none;stroke:#000000;stroke-width:0.25;stroke-miterlimit:10;}
</style>
<g id="Ruler_marks" class="st0">
</g>
<g id="Full_Color">
	<g>
		<g>
			<g>
				<path class="st2" d="M299.5,310c0-0.5,0.5-1,1-1h6.3c0.5,0,1,0.5,1,1v34.7c0,0.5-0.5,1-1,1h-6.3c-0.5,0-1-0.5-1-1V310z"/>
				<path class="st2" d="M314.5,310c0-0.5,0.4-1,0.9-1h12.8c10.1,0,18.4,8.2,18.4,18.3c0,10.2-8.3,18.4-18.4,18.4h-12.8
					c-0.5,0-0.9-0.5-0.9-1V310z M328.2,337.9c5.9,0,9.8-4.7,9.8-10.6c0-5.9-3.8-10.6-9.8-10.6h-5.5v21.2H328.2z"/>
				<path class="st2" d="M352.2,310c0-0.5,0.4-1,1-1h21.7c0.6,0,1,0.5,1,1v5.7c0,0.5-0.4,1-1,1h-14.5v6.5h12c0.5,0,1,0.5,1,1v5.7
					c0,0.6-0.5,1-1,1h-12v7.1h14.5c0.6,0,1,0.5,1,1v5.7c0,0.5-0.4,1-1,1h-21.7c-0.6,0-1-0.5-1-1V310z"/>
				<path class="st2" d="M381.5,309.4c0-0.5,0.5-0.9,1-0.9h0.8c0.5,0,0.9,0.4,1.3,0.8l20.1,19.3h0.1V310c0-0.5,0.4-1,1-1h6.3
					c0.5,0,1,0.5,1,1v35.3c0,0.6-0.5,0.9-1,0.9h-0.5c-0.5,0-0.9-0.2-1.3-0.6l-20.4-20.5h-0.1v19.6c0,0.5-0.4,1-1,1h-6.2
					c-0.5,0-1-0.5-1-1L381.5,309.4z"/>
				<path class="st2" d="M428.4,316.7h-7.5c-0.6,0-1-0.5-1-1V310c0-0.5,0.4-1,1-1h23.3c0.6,0,1,0.5,1,1v5.7c0,0.5-0.4,1-1,1h-7.5v28
					c0,0.5-0.5,1-1,1h-6.3c-0.5,0-1-0.5-1-1V316.7z"/>
				<path class="st2" d="M452,310c0-0.5,0.5-1,1-1h6.3c0.5,0,1,0.5,1,1v34.7c0,0.5-0.5,1-1,1H453c-0.5,0-1-0.5-1-1V310z"/>
				<path class="st2" d="M475.2,316.7h-7.5c-0.6,0-1-0.5-1-1V310c0-0.5,0.4-1,1-1H491c0.6,0,1,0.5,1,1v5.7c0,0.5-0.4,1-1,1h-7.5v28
					c0,0.5-0.5,1-1,1h-6.3c-0.5,0-1-0.5-1-1V316.7z"/>
				<path class="st2" d="M508.3,328.4l-11.6-17.5c-0.4-0.7,0-1.5,0.8-1.5h6.8c0.4,0,0.7,0.3,0.8,0.5l7.3,10.7l7.3-10.7
					c0.2-0.2,0.4-0.5,0.8-0.5h6.8c0.8,0,1.3,0.8,0.8,1.5l-11.7,17.5V345c0,0.5-0.5,1-1,1h-6.2c-0.6,0-1-0.5-1-1V328.4z"/>
			</g>
		</g>
		<path class="st3" d="M316.4,168.1c0-1.8,1.6-3.2,3.4-3.2h2.7c1.8,0,3.1,1.3,4.5,2.7l69.3,66.6h0.2v-64.1c0-1.8,1.4-3.4,3.4-3.4
			h21.7c1.8,0,3.4,1.6,3.4,3.4v121.5c0,2.2-1.6,3.2-3.4,3.2h-1.8c-1.8,0-3.1-0.5-4.5-2l-70.2-70.6h-0.2v67.3c0,1.8-1.4,3.4-3.4,3.4
			H320c-1.8,0-3.4-1.6-3.4-3.4L316.4,168.1"/>
		<path class="st3" d="M446.8,170.1c0-1.8,1.4-3.4,3.4-3.4H525c2,0,3.4,1.6,3.4,3.4v19.7c0,1.8-1.4,3.4-3.4,3.4h-50v22.4h41.1
			c1.8,0,3.4,1.6,3.4,3.4v19.7c0,2-1.6,3.4-3.4,3.4H475v24.4h50c2,0,3.4,1.6,3.4,3.4v19.7c0,1.8-1.4,3.4-3.4,3.4h-74.7
			c-2,0-3.4-1.6-3.4-3.4V170.1"/>
		<path class="st3" d="M171.2,325.2c-35.1-19.9-56.9-57.1-57.2-97.5l11.3-0.1c0.3,36.3,19.9,69.8,51.5,87.7L171.2,325.2"/>
		<path class="st3" d="M284.3,324.4c-34.8,20.4-77.9,20.8-113,0.8l5.6-9.8c31.6,17.9,70.4,17.7,101.7-0.7L284.3,324.4"/>
		<path class="st3" d="M114,227.7c-0.3-40.4,21-77.9,55.8-98.3l5.7,9.7c-31.3,18.4-50.5,52.1-50.2,88.5L114,227.7"/>
		<path class="st3" d="M169.8,129.4c34.8-20.4,77.9-20.8,113-0.8l-5.6,9.8c-31.6-17.9-70.4-17.7-101.7,0.7L169.8,129.4"/>
		<path class="st3" d="M227,136.5c32.3,0,62.2,17.2,78.3,45.2l-9.8,5.7c-14.1-24.5-40.3-39.6-68.5-39.6V136.5"/>
		<path class="st3" d="M305.4,272.1c-16.2,28-46,45.2-78.3,45.2V306c28.3,0,54.4-15.1,68.5-39.6L305.4,272.1"/>
		<path class="st3" d="M227,317.3c-32.3,0-62.2-17.2-78.3-45.2l9.8-5.7C172.7,291,198.8,306,227,306V317.3"/>
		<path class="st3" d="M148.7,272.1c-16.2-28-16.2-62.5,0-90.4l9.8,5.7c-14.1,24.5-14.1,54.6,0,79.1L148.7,272.1"/>
		<path class="st3" d="M227,159.1c24.2,0,46.6,12.9,58.7,33.9c12.1,21,12.1,46.8,0,67.8c-12.1,21-34.5,33.9-58.7,33.9
			c-24.2,0-46.6-12.9-58.7-33.9c-12.1-21-12.1-46.8,0-67.8C180.4,172,202.8,159.1,227,159.1 M192.8,207.1c-7.1,12.2-7.1,27.3,0,39.6
			c7.1,12.2,20.1,19.8,34.3,19.8c14.1,0,27.2-7.5,34.3-19.8c7.1-12.2,7.1-27.3,0-39.6c-7.1-12.2-20.1-19.8-34.3-19.8
			C212.9,187.3,199.9,194.9,192.8,207.1z"/>
	</g>
	<g>
		<path class="st2" d="M547.7,170.4h-3.9c-0.3,0-0.5-0.2-0.5-0.5v-2.1c0-0.3,0.2-0.5,0.5-0.5H555c0.3,0,0.5,0.2,0.5,0.5v2.1
			c0,0.3-0.2,0.5-0.5,0.5h-3.9V185c0,0.3-0.2,0.5-0.5,0.5h-2.4c-0.3,0-0.5-0.2-0.5-0.5V170.4z"/>
		<path class="st2" d="M559.7,167.8c0-0.2,0.2-0.4,0.5-0.4h0.4c0.2,0,0.4,0.1,0.4,0.3l5.6,12.1c0.1,0,0.1,0,0.1,0l5.6-12.1
			c0.1-0.2,0.2-0.3,0.4-0.3h0.4c0.3,0,0.4,0.2,0.5,0.4l3,17.2c0.1,0.4-0.1,0.6-0.5,0.6h-2.3c-0.2,0-0.4-0.2-0.5-0.4l-1.5-9.7
			c0,0-0.1,0-0.1,0l-4.5,10c-0.1,0.2-0.2,0.3-0.4,0.3h-0.5c-0.2,0-0.4-0.1-0.4-0.3l-4.5-10c0,0-0.1,0-0.1,0l-1.5,9.7
			c0,0.2-0.2,0.4-0.5,0.4h-2.3c-0.3,0-0.5-0.2-0.5-0.6L559.7,167.8z"/>
	</g>
</g>
<g id="Full_Color_-_Dark" class="st0">
	<rect x="-19.5" y="-21" class="st4" width="729.3" height="497.8"/>
	<g class="st1">
		<g>
			<g>
				<path class="st14" d="M299.5,310c0-0.5,0.5-1,1-1h6.3c0.5,0,1,0.5,1,1v34.7c0,0.5-0.5,1-1,1h-6.3c-0.5,0-1-0.5-1-1V310z"/>
				<path class="st14" d="M314.5,310c0-0.5,0.4-1,0.9-1h12.8c10.1,0,18.4,8.2,18.4,18.3c0,10.2-8.3,18.4-18.4,18.4h-12.8
					c-0.5,0-0.9-0.5-0.9-1V310z M328.2,337.9c5.9,0,9.8-4.7,9.8-10.6c0-5.9-3.8-10.6-9.8-10.6h-5.5v21.2H328.2z"/>
				<path class="st14" d="M352.2,310c0-0.5,0.4-1,1-1h21.7c0.6,0,1,0.5,1,1v5.7c0,0.5-0.4,1-1,1h-14.5v6.5h12c0.5,0,1,0.5,1,1v5.7
					c0,0.6-0.5,1-1,1h-12v7.1h14.5c0.6,0,1,0.5,1,1v5.7c0,0.5-0.4,1-1,1h-21.7c-0.6,0-1-0.5-1-1V310z"/>
				<path class="st14" d="M381.5,309.4c0-0.5,0.5-0.9,1-0.9h0.8c0.5,0,0.9,0.4,1.3,0.8l20.1,19.3h0.1V310c0-0.5,0.4-1,1-1h6.3
					c0.5,0,1,0.5,1,1v35.3c0,0.6-0.5,0.9-1,0.9h-0.5c-0.5,0-0.9-0.2-1.3-0.6l-20.4-20.5h-0.1v19.6c0,0.5-0.4,1-1,1h-6.2
					c-0.5,0-1-0.5-1-1L381.5,309.4z"/>
				<path class="st14" d="M428.4,316.7h-7.5c-0.6,0-1-0.5-1-1V310c0-0.5,0.4-1,1-1h23.3c0.6,0,1,0.5,1,1v5.7c0,0.5-0.4,1-1,1h-7.5
					v28c0,0.5-0.5,1-1,1h-6.3c-0.5,0-1-0.5-1-1V316.7z"/>
				<path class="st14" d="M452,310c0-0.5,0.5-1,1-1h6.3c0.5,0,1,0.5,1,1v34.7c0,0.5-0.5,1-1,1H453c-0.5,0-1-0.5-1-1V310z"/>
				<path class="st14" d="M475.2,316.7h-7.5c-0.6,0-1-0.5-1-1V310c0-0.5,0.4-1,1-1H491c0.6,0,1,0.5,1,1v5.7c0,0.5-0.4,1-1,1h-7.5v28
					c0,0.5-0.5,1-1,1h-6.3c-0.5,0-1-0.5-1-1V316.7z"/>
				<path class="st14" d="M508.3,328.4l-11.6-17.5c-0.4-0.7,0-1.5,0.8-1.5h6.8c0.4,0,0.7,0.3,0.8,0.5l7.3,10.7l7.3-10.7
					c0.2-0.2,0.4-0.5,0.8-0.5h6.8c0.8,0,1.3,0.8,0.8,1.5l-11.7,17.5V345c0,0.5-0.5,1-1,1h-6.2c-0.6,0-1-0.5-1-1V328.4z"/>
			</g>
		</g>
		<path class="st3" d="M316.4,168.1c0-1.8,1.6-3.2,3.4-3.2h2.7c1.8,0,3.1,1.3,4.5,2.7l69.3,66.6h0.2v-64.1c0-1.8,1.4-3.4,3.4-3.4
			h21.7c1.8,0,3.4,1.6,3.4,3.4v121.5c0,2.2-1.6,3.2-3.4,3.2h-1.8c-1.8,0-3.1-0.5-4.5-2l-70.2-70.6h-0.2v67.3c0,1.8-1.4,3.4-3.4,3.4
			H320c-1.8,0-3.4-1.6-3.4-3.4L316.4,168.1"/>
		<path class="st3" d="M446.8,170.1c0-1.8,1.4-3.4,3.4-3.4H525c2,0,3.4,1.6,3.4,3.4v19.7c0,1.8-1.4,3.4-3.4,3.4h-50v22.4h41.1
			c1.8,0,3.4,1.6,3.4,3.4v19.7c0,2-1.6,3.4-3.4,3.4H475v24.4h50c2,0,3.4,1.6,3.4,3.4v19.7c0,1.8-1.4,3.4-3.4,3.4h-74.7
			c-2,0-3.4-1.6-3.4-3.4V170.1"/>
		<path class="st3" d="M171.2,325.2c-35.1-19.9-56.9-57.1-57.2-97.5l11.3-0.1c0.3,36.3,19.9,69.8,51.5,87.7L171.2,325.2"/>
		<path class="st3" d="M284.3,324.4c-34.8,20.4-77.9,20.8-113,0.8l5.6-9.8c31.6,17.9,70.4,17.7,101.7-0.7L284.3,324.4"/>
		<path class="st3" d="M114,227.7c-0.3-40.4,21-77.9,55.8-98.3l5.7,9.7c-31.3,18.4-50.5,52.1-50.2,88.5L114,227.7"/>
		<path class="st3" d="M169.8,129.4c34.8-20.4,77.9-20.8,113-0.8l-5.6,9.8c-31.6-17.9-70.4-17.7-101.7,0.7L169.8,129.4"/>
		<path class="st3" d="M227,136.5c32.3,0,62.2,17.2,78.3,45.2l-9.8,5.7c-14.1-24.5-40.3-39.6-68.5-39.6V136.5"/>
		<path class="st3" d="M305.4,272.1c-16.2,28-46,45.2-78.3,45.2V306c28.3,0,54.4-15.1,68.5-39.6L305.4,272.1"/>
		<path class="st3" d="M227,317.3c-32.3,0-62.2-17.2-78.3-45.2l9.8-5.7C172.7,291,198.8,306,227,306V317.3"/>
		<path class="st3" d="M148.7,272.1c-16.2-28-16.2-62.5,0-90.4l9.8,5.7c-14.1,24.5-14.1,54.6,0,79.1L148.7,272.1"/>
		<path class="st3" d="M227,159.1c24.2,0,46.6,12.9,58.7,33.9c12.1,21,12.1,46.8,0,67.8c-12.1,21-34.5,33.9-58.7,33.9
			c-24.2,0-46.6-12.9-58.7-33.9c-12.1-21-12.1-46.8,0-67.8C180.4,172,202.8,159.1,227,159.1 M192.8,207.1c-7.1,12.2-7.1,27.3,0,39.6
			c7.1,12.2,20.1,19.8,34.3,19.8c14.1,0,27.2-7.5,34.3-19.8c7.1-12.2,7.1-27.3,0-39.6c-7.1-12.2-20.1-19.8-34.3-19.8
			C212.9,187.3,199.9,194.9,192.8,207.1z"/>
	</g>
	<g class="st1">
		<path class="st14" d="M547.7,170.4h-3.9c-0.3,0-0.5-0.2-0.5-0.5v-2.1c0-0.3,0.2-0.5,0.5-0.5H555c0.3,0,0.5,0.2,0.5,0.5v2.1
			c0,0.3-0.2,0.5-0.5,0.5h-3.9V185c0,0.3-0.2,0.5-0.5,0.5h-2.4c-0.3,0-0.5-0.2-0.5-0.5V170.4z"/>
		<path class="st14" d="M559.7,167.8c0-0.2,0.2-0.4,0.5-0.4h0.4c0.2,0,0.4,0.1,0.4,0.3l5.6,12.1c0.1,0,0.1,0,0.1,0l5.6-12.1
			c0.1-0.2,0.2-0.3,0.4-0.3h0.4c0.3,0,0.4,0.2,0.5,0.4l3,17.2c0.1,0.4-0.1,0.6-0.5,0.6h-2.3c-0.2,0-0.4-0.2-0.5-0.4l-1.5-9.7
			c0,0-0.1,0-0.1,0l-4.5,10c-0.1,0.2-0.2,0.3-0.4,0.3h-0.5c-0.2,0-0.4-0.1-0.4-0.3l-4.5-10c0,0-0.1,0-0.1,0l-1.5,9.7
			c0,0.2-0.2,0.4-0.5,0.4h-2.3c-0.3,0-0.5-0.2-0.5-0.6L559.7,167.8z"/>
	</g>
</g>
<g id="Guides" class="st0">
	<line class="st17" x1="114" y1="0" x2="114" y2="459.5"/>
	<line class="st17" x1="576.6" y1="0" x2="576.6" y2="459.5"/>
	<line class="st17" x1="0" y1="113.9" x2="690.5" y2="113.9"/>
	<line class="st17" x1="0" y1="226.9" x2="690.5" y2="226.9"/>
	<line class="st17" x1="0" y1="345.7" x2="690.5" y2="345.7"/>
</g>
</svg>
