<?xml version="1.0" encoding="iso-8859-1"?>
<svg height="800px" width="800px" version="1.1" id="40c005b3-70e3-42b2-a975-517bc383403b" xmlns="http://www.w3.org/2000/svg"  
	 viewBox="0 0 512 512" xml:space="preserve">
<path fill="#E9F2F4" d="M512,256c0,141.384-114.616,256-256,256S0,397.386,0,256S114.616,0,256,0S512,114.616,512,256z"/>
<path fill="#CFDFE2" d="M489.739,256c0,129.091-104.648,233.739-233.739,233.739S22.261,385.091,22.261,256
	S126.909,22.261,256,22.261S489.739,126.909,489.739,256z"/>
<path fill="#A5A5A5" d="M467.478,256L467.478,256c0,17.519-14.202,31.722-31.722,31.722h-13.556
	c-4.389,23.133-13.48,44.6-26.253,63.363l9.591,9.591c12.388,12.388,12.388,32.473,0,44.861l0,0
	c-12.388,12.388-32.473,12.388-44.861,0l-9.591-9.591c-18.764,12.773-40.23,21.865-63.363,26.253v13.557
	c0,17.519-14.202,31.722-31.722,31.722s-31.722-14.202-31.722-31.722v-13.556c-23.133-4.389-44.6-13.48-63.363-26.253l-9.591,9.591
	c-12.388,12.388-32.473,12.388-44.861,0l0,0c-12.388-12.388-12.388-32.473,0-44.861l9.591-9.591
	c-12.774-18.765-21.867-40.231-26.256-63.364H76.243c-17.519,0-31.722-14.202-31.722-31.722l0,0
	c0-17.519,14.202-31.722,31.722-31.722h13.556c4.389-23.133,13.48-44.6,26.253-63.363l-9.591-9.591
	c-12.388-12.388-12.388-32.473,0-44.861l0,0c12.388-12.388,32.473-12.388,44.861,0l9.591,9.591
	c18.764-12.773,40.23-21.865,63.363-26.253V76.244c0-17.519,14.202-31.722,31.722-31.722s31.722,14.202,31.722,31.722v13.556
	c23.133,4.389,44.6,13.48,63.363,26.253l9.591-9.591c12.388-12.388,32.473-12.388,44.861,0l0,0
	c12.388,12.388,12.388,32.473,0,44.861l-9.591,9.591c12.773,18.764,21.865,40.23,26.253,63.363h13.558
	C453.276,224.278,467.478,238.481,467.478,256z"/>
<path fill="#777777" d="M389.565,256c0,73.766-59.799,133.565-133.565,133.565S122.435,329.766,122.435,256
	S182.234,122.435,256,122.435S389.565,182.234,389.565,256z"/>
<path fill="#84A7B7" d="M505.48,442.517l-96.108-96.355c-8.694-8.693-22.788-8.693-31.481,0l-25.115-25.115l0,0
	c30.761-45.461,26.021-107.777-14.237-148.035c-45.64-45.64-119.638-45.64-165.278,0s-45.64,119.638,0,165.279
	c40.257,40.257,102.573,44.997,148.034,14.237l0,0l25.115,25.115c-8.694,8.693-8.694,22.788,0,31.481l96.108,96.354
	c8.693,8.694,22.788,8.694,31.481,0l31.481-31.481C514.174,465.305,514.174,451.21,505.48,442.517z"/>
<path fill="#256277" d="M352.776,321.048l25.115,25.115l-31.481,31.481l-25.115-25.115
	c6.079-4.114,11.862-8.853,17.244-14.237C343.923,332.908,348.662,327.127,352.776,321.048z"/>
<path fill="#C3E4ED" d="M333.813,255.653c0,43.03-34.883,77.913-77.913,77.913s-77.913-34.883-77.913-77.913
	S212.87,177.74,255.9,177.74S333.813,212.623,333.813,255.653z"/>
<path fill="DCF3F9" d="M329.294,229.481l-99.566,99.566c-14.562-5.193-27.13-14.585-36.228-26.734l109.06-109.06
	C314.707,202.35,324.1,214.919,329.294,229.481z M282.071,182.259l-99.566,99.566c1.304,3.656,2.869,7.187,4.681,10.568
	L292.639,186.94C289.259,185.128,285.727,183.562,282.071,182.259z"/>
<path fill="#FFFFFF" d="M256.247,197.392c12.295,0,22.261,9.966,22.261,22.261s-9.966,22.261-22.261,22.261
	c-12.295,0-22.261-9.966-22.261-22.261S243.952,197.392,256.247,197.392z"/>
</svg>