<svg width="75" height="75" viewBox="0 0 75 75" fill="none" xmlns="http://www.w3.org/2000/svg">
    <path d="M0 51.0053H75V23.5714H0V51.0053Z" fill="#E32124"/>
    <path d="M65.3392 34.5458C65.3941 34.5458 65.4505 34.5458 65.4821 34.4895C65.4903 34.4661 65.4972 34.4414 65.4972 34.418C65.4972 34.3699 65.4738 34.3301 65.434 34.3067C65.3941 34.2902 65.3543 34.2902 65.2677 34.2902H65.2279V34.5376H65.3392V34.5458ZM65.2677 34.1556C65.3859 34.1556 65.4422 34.1556 65.4903 34.1789C65.6483 34.227 65.6648 34.3699 65.6648 34.418C65.6648 34.4263 65.6648 34.4579 65.6566 34.4895C65.6483 34.5211 65.6332 34.5857 65.5453 34.6406C65.5288 34.6489 65.5288 34.6489 65.5054 34.6571L65.7047 35.0226H65.5137L65.3392 34.6887H65.2279V35.0226H65.052V34.1556H65.2677ZM65.3392 35.3798C65.7679 35.3798 66.11 35.0308 66.11 34.609C66.11 34.1789 65.7679 33.8382 65.3392 33.8382C64.9174 33.8382 64.5752 34.1789 64.5752 34.609C64.5752 35.0308 64.9174 35.3798 65.3392 35.3798ZM64.7346 34.609C64.7346 34.2751 65.0053 33.9962 65.3392 33.9962C65.6799 33.9962 65.9506 34.2751 65.9506 34.609C65.9506 34.9347 65.6731 35.2136 65.3392 35.2136C65.0122 35.2136 64.7346 34.9347 64.7346 34.609ZM59.3745 39.5157C58.3577 39.5157 57.5058 38.8314 57.2434 37.9012H62.8742L63.6532 36.692H57.2365C57.4907 35.7618 58.3577 35.0707 59.3663 35.0707H63.2479L64.0187 33.8615H59.2797C57.3794 33.8615 55.8446 35.3963 55.8446 37.2884C55.8446 39.1818 57.3794 40.7152 59.2797 40.7152H63.351L64.1218 39.5074H59.3663L59.3745 39.5157ZM43.2407 40.7234C41.3486 40.7234 39.8138 39.1886 39.8138 37.2966C39.8138 35.4046 41.3486 33.8698 43.2407 33.8698H47.9797L47.2006 35.0776H43.3204C42.0961 35.0776 41.1027 36.0724 41.1027 37.2966C41.1027 38.5209 42.0961 39.5157 43.3204 39.5157H48.0759L47.2968 40.7234H43.2256H43.2407ZM18.1935 39.5157C19.4178 39.5157 20.4194 38.5209 20.4194 37.2966C20.4194 36.0724 19.426 35.0776 18.1935 35.0776H14.3847C13.1604 35.0776 12.1656 36.0724 12.1656 37.2966C12.1656 38.5209 13.1604 39.5157 14.3847 39.5157H18.1935ZM14.2968 40.7234C12.3965 40.7234 10.8617 39.1886 10.8617 37.2966C10.8617 35.4046 12.3965 33.8698 14.2968 33.8698H18.2814C20.1735 33.8698 21.7083 35.4046 21.7083 37.2966C21.7083 39.1886 20.1735 40.7234 18.2814 40.7234H14.2968ZM28.1799 38.5058C29.4688 38.5058 30.502 37.4642 30.502 36.1836C30.502 34.9031 29.4688 33.8615 28.1799 33.8615H22.4076V40.7234H23.7281V35.0707H28.0934C28.6979 35.0707 29.1981 35.5708 29.1981 36.1836C29.1981 36.7951 28.6979 37.2884 28.0934 37.2884H24.3711L28.2995 40.7234H30.2162L27.5685 38.5058H28.1799ZM49.9995 39.5157V33.8698H48.6873V40.0721C48.6873 40.2466 48.7519 40.406 48.8783 40.5324C49.0061 40.652 49.1806 40.7317 49.3633 40.7317H55.383L56.162 39.5225H50.0078L49.9995 39.5157ZM33.8574 38.3065H37.3804L35.52 35.3084L32.1014 40.7317H30.5501L34.7011 34.227C34.8838 33.9646 35.1861 33.8052 35.52 33.8052C35.8374 33.8052 36.1397 33.9563 36.3224 34.2119L40.4899 40.7317H38.9317L38.1994 39.5225H34.6379L33.8574 38.3148V38.3065Z" fill="#FEFEFE"/>
</svg>
