<?xml version="1.0" encoding="UTF-8"?>
<svg version="1.1" xmlns="http://www.w3.org/2000/svg" width="110" height="110">
<path d="M0 0 C5.46350578 -0.84053935 8.06566693 1.11646008 12.3046875 4.1484375 C15.48253943 6.33148361 18.76850875 8.23296512 22.125 10.125 C23.26195312 10.76695313 24.39890625 11.40890625 25.5703125 12.0703125 C26.70210937 12.70710937 27.83390625 13.34390625 29 14 C30.23868868 14.70586883 31.47681301 15.41272898 32.71435547 16.12060547 C33.79861816 16.74080566 34.88288086 17.36100586 36 18 C36.32303689 23.40714061 36.5579136 28.80861038 36.71411133 34.22314453 C36.77923155 36.06105367 36.86777109 37.89829559 36.98071289 39.73388672 C37.70731008 51.85260733 37.70731008 51.85260733 36 57 C32.23463001 61.08116842 28.07439165 62.90205475 23 65 C21.31704257 65.97144189 19.64905907 66.96973158 18.00390625 68.00390625 C16.5249838 68.85944942 15.04455749 69.71239923 13.5625 70.5625 C12.81291016 71.01173828 12.06332031 71.46097656 11.29101562 71.92382812 C7.93337565 73.8370049 5.77840513 75 1.86328125 75 C-1.50120684 73.82495368 -4.33428228 72.29571638 -7.375 70.4375 C-8.43460938 69.79683594 -9.49421875 69.15617187 -10.5859375 68.49609375 C-11.78089844 67.75552734 -11.78089844 67.75552734 -13 67 C-13 68.65 -13 70.3 -13 72 C-15.31 71.67 -17.62 71.34 -20 71 C-20 65.72 -20 60.44 -20 55 C-16.51750656 56.39299738 -14.03572738 57.48193225 -11.00390625 59.453125 C-10.28009766 59.906875 -9.55628906 60.360625 -8.81054688 60.828125 C-7.30752463 61.77877678 -5.81267121 62.74246398 -4.32617188 63.71875 C0.01339205 66.47583101 0.01339205 66.47583101 5 66.609375 C8.92161499 64.50559196 12.76551745 62.32129937 16.5625 60 C18.04095749 59.10085122 19.52137817 58.20492118 21.00390625 57.3125 C21.65174072 56.91675781 22.2995752 56.52101562 22.96704102 56.11328125 C25.24643538 54.865048 27.57278345 53.92274783 30 53 C31.12828697 43.11795958 32.2150201 32.57387427 29 23 C23.23730763 16.02442809 13.72644197 11.20326419 5 9 C0.4524361 9.46729249 -2.49076509 11.34553579 -6.3125 13.8125 C-11.09053172 16.85398956 -15.89583288 19.5460735 -21 22 C-22.54230977 23.54230977 -22.16247487 25.0040971 -22.20532227 27.15258789 C-22.22526749 28.03342545 -22.24521271 28.914263 -22.26576233 29.8217926 C-22.28247482 30.77907761 -22.29918732 31.73636261 -22.31640625 32.72265625 C-22.33718735 33.69786728 -22.35796844 34.67307831 -22.37937927 35.67784119 C-22.44498412 38.8059863 -22.50381028 41.93421822 -22.5625 45.0625 C-22.60567483 47.1777435 -22.64928877 49.29297809 -22.69335938 51.40820312 C-22.80067655 56.60537587 -22.9024222 61.80263577 -23 67 C-24.98 66.67 -26.96 66.34 -29 66 C-29.43349551 59.34959951 -29.72960513 52.70285575 -29.93383789 46.04150391 C-30.01899049 43.78035493 -30.13477275 41.52013329 -30.2824707 39.26220703 C-31.44618232 21.00522274 -31.44618232 21.00522274 -27.38128662 16.01135254 C-23.37517417 12.70951405 -18.93012017 10.65480586 -14.10287476 8.82427979 C-11.07485153 7.63736253 -8.3348416 6.09010581 -5.5 4.5 C-4.6440625 4.0565625 -3.788125 3.613125 -2.90625 3.15625 C-0.84753444 2.13907993 -0.84753444 2.13907993 0 0 Z " fill="#00C164" transform="translate(51,1)"/>
<path d="M0 0 C0.93585937 0.54527344 1.87171875 1.09054687 2.8359375 1.65234375 C3.49996582 2.01255615 4.16399414 2.37276855 4.84814453 2.74389648 C7.12740813 3.99621435 9.35633501 5.31381739 11.5859375 6.65234375 C12.35292969 7.10351562 13.11992188 7.5546875 13.91015625 8.01953125 C19.55820482 11.37461107 19.55820482 11.37461107 21.8359375 13.65234375 C22.43099933 18.06688174 22.39201962 22.51504593 22.4609375 26.96484375 C22.51894531 28.20169922 22.57695313 29.43855469 22.63671875 30.71289062 C22.76152217 39.59793402 22.76152217 39.59793402 20.24145508 42.46875 C18.16160031 43.76263781 16.09302226 44.70740536 13.8359375 45.65234375 C12.69151306 46.38250049 11.56347722 47.13926139 10.45703125 47.92578125 C9.40644531 48.61929688 8.35585937 49.3128125 7.2734375 50.02734375 C6.22027344 50.73632812 5.16710937 51.4453125 4.08203125 52.17578125 C-0.06547978 54.06237471 -1.78298437 53.87646852 -6.1640625 52.65234375 C-9.6103714 51.20084886 -12.84250345 49.48138221 -16.1015625 47.65234375 C-17.41350586 46.98525391 -17.41350586 46.98525391 -18.75195312 46.3046875 C-21.23077371 44.91530953 -23.20586138 43.7154178 -25.1640625 41.65234375 C-25.9054625 38.51441487 -25.7360704 35.80824941 -25.1640625 32.65234375 C-20.33532601 34.30926313 -16.30153571 36.97024579 -12.0390625 39.71484375 C-10.62165563 40.6253042 -9.20245332 41.53297714 -7.78125 42.4375 C-7.15847168 42.838479 -6.53569336 43.23945801 -5.89404297 43.65258789 C-4.02366071 44.8107467 -4.02366071 44.8107467 -1.1640625 45.65234375 C1.28940424 44.41831708 3.5679834 43.14915172 5.8984375 41.71484375 C12.60597089 37.65234375 12.60597089 37.65234375 14.8359375 37.65234375 C14.8359375 30.72234375 14.8359375 23.79234375 14.8359375 16.65234375 C12.3609375 15.66234375 12.3609375 15.66234375 9.8359375 14.65234375 C7.08579324 13.03508279 4.36364473 11.3807653 1.65234375 9.69921875 C-2.08334566 8.31064072 -3.57248679 9.05402286 -7.1640625 10.65234375 C-8.15148437 11.0596875 -9.13890625 11.46703125 -10.15625 11.88671875 C-13.35303473 13.56741316 -15.70090492 14.99144577 -18.1640625 17.65234375 C-19.11275099 22.44819991 -18.82629823 26.82939465 -18.1640625 31.65234375 C-21.07923542 30.57833267 -22.94216426 29.87424199 -25.1640625 27.65234375 C-26.80589532 22.53485677 -27.65472158 17.55938317 -25.1640625 12.65234375 C-19.31534224 6.97734785 -8.44908993 -0.92835679 0 0 Z " fill="#24B670" transform="translate(56.1640625,11.34765625)"/>
<path d="M0 0 C9.18762089 -0.48355899 9.18762089 -0.48355899 12.625 1.5625 C14.51879045 4.91967398 14.48258091 7.20829285 14 11 C12.9375 12.9375 12.9375 12.9375 11 14 C7.3125 14.1875 7.3125 14.1875 4 14 C4 15.32 4 16.64 4 18 C2.68 18 1.36 18 0 18 C0 12.06 0 6.12 0 0 Z M5 4 C4.67 5.65 4.34 7.3 4 9 C6.475 9.495 6.475 9.495 9 10 C9.33 8.35 9.66 6.7 10 5 C8.35 4.67 6.7 4.34 5 4 Z " fill="#333333" transform="translate(1,92)"/>
<path d="M0 0 C0 4.62 0 9.24 0 14 C-1.5675 14.061875 -3.135 14.12375 -4.75 14.1875 C-5.63171875 14.22230469 -6.5134375 14.25710937 -7.421875 14.29296875 C-10.51104409 13.94192681 -11.81363777 13.18636223 -14 11 C-14.55543436 7.18138879 -14.53382262 4.94632191 -12.625 1.5625 C-8.47360478 -0.90856858 -4.77353037 -0.25123844 0 0 Z M-9 4 C-9.33 5.65 -9.66 7.3 -10 9 C-7.525 9.495 -7.525 9.495 -5 10 C-4.67 8.35 -4.34 6.7 -4 5 C-5.65 4.67 -7.3 4.34 -9 4 Z " fill="#333333" transform="translate(31,92)"/>
<path d="M0 0 C1.32 0 2.64 0 4 0 C4 1.32 4 2.64 4 4 C4.763125 3.938125 5.52625 3.87625 6.3125 3.8125 C9 4 9 4 10.65625 5.15625 C12.53015399 7.72742059 12.29842721 9.5445625 12.1875 12.6875 C12.16042969 13.68136719 12.13335937 14.67523438 12.10546875 15.69921875 C12.07066406 16.45847656 12.03585938 17.21773437 12 18 C10.68 18 9.36 18 8 18 C8 14.7 8 11.4 8 8 C6.68 8 5.36 8 4 8 C4 11.3 4 14.6 4 18 C2.68 18 1.36 18 0 18 C0 12.06 0 6.12 0 0 Z " fill="#333333" transform="translate(45,88)"/>
<path d="M0 0 C1.32 0 2.64 0 4 0 C4.33 1.98 4.66 3.96 5 6 C5.66 5.34 6.32 4.68 7 4 C9.625 3.875 9.625 3.875 12 4 C10.70700306 6.88437779 9.34058637 8.87219421 7 11 C7.825 11.78375 8.65 12.5675 9.5 13.375 C12 16 12 16 12 18 C7.25 17.125 7.25 17.125 5 16 C4.67 16.66 4.34 17.32 4 18 C2.68 18 1.36 18 0 18 C0 12.06 0 6.12 0 0 Z " fill="#333333" transform="translate(98,88)"/>
<path d="M0 0 C3.04569423 2.31737605 4.73181298 3.77825913 5.5625 7.5625 C4.79326562 10.89584898 3.81374263 12.05202434 1 14 C-2.97487617 14.56783945 -5.06489221 14.62340519 -8.4375 12.375 C-10.47161336 9.28314769 -10.60605429 7.63632575 -10 4 C-7.2247536 -0.05612936 -4.80517165 -0.88258255 0 0 Z M-5 4 C-5.38218767 5.65614657 -5.71395102 7.32457024 -6 9 C-4.93354885 10.29633621 -4.93354885 10.29633621 -2.4375 10.0625 C-1.633125 10.041875 -0.82875 10.02125 0 10 C0.6814823 8.10820797 0.6814823 8.10820797 1 6 C0.34 5.34 -0.32 4.68 -1 4 C-2.32 4 -3.64 4 -5 4 Z " fill="#333333" transform="translate(76,92)"/>
<path d="M0 0 C2.375 2 2.375 2 4 4 C3.67 4.99 3.34 5.98 3 7 C2.4225 6.67 1.845 6.34 1.25 6 C-1.19883862 4.72924102 -1.19883862 4.72924102 -5 5 C-5 6.32 -5 7.64 -5 9 C-0.545 8.505 -0.545 8.505 4 8 C3.08996088 11.14377149 2.51511636 12.6565891 -0.25 14.5 C-4.01688201 15.18488764 -5.80318565 13.96168153 -9 12 C-10 11 -10 11 -10.3125 7.6875 C-10 4 -10 4 -8.375 1.5625 C-5.28314769 -0.47161336 -3.63632575 -0.60605429 0 0 Z " fill="#333333" transform="translate(92,92)"/>
<path d="M0 0 C1.32 0 2.64 0 4 0 C4 0.66 4 1.32 4 2 C5.32 2 6.64 2 8 2 C7.67 3.65 7.34 5.3 7 7 C6.34 7 5.68 7 5 7 C4.67 8.65 4.34 10.3 4 12 C5.32 12 6.64 12 8 12 C8 13.32 8 14.64 8 16 C5.6875 16.25 5.6875 16.25 3 16 C0.34684029 13.62130509 0.01896655 12.32875347 -0.1875 8.75 C-0.125625 7.8425 -0.06375 6.935 0 6 C-0.66 6 -1.32 6 -2 6 C-2 4.68 -2 3.36 -2 2 C-1.34 2 -0.68 2 0 2 C0 1.34 0 0.68 0 0 Z " fill="#333333" transform="translate(35,90)"/>
<path d="M0 0 C1.32 0 2.64 0 4 0 C4 5.94 4 11.88 4 18 C2.68 18 1.36 18 0 18 C0 12.06 0 6.12 0 0 Z " fill="#333333" transform="translate(60,88)"/>
</svg>
