<svg xmlns="http://www.w3.org/2000/svg" xmlns:xlink="http://www.w3.org/1999/xlink" viewBox="0 0 75 75"><defs><linearGradient id="A" x1="33.73" y1="19.21" x2="39.74" y2="36.65" gradientUnits="userSpaceOnUse"><stop offset="0" stop-color="#4875d9"/><stop offset="1" stop-color="#3364cd"/></linearGradient><linearGradient id="B" x1="37.53" y1="22.38" x2="37.46" y2="27.4" gradientUnits="userSpaceOnUse"><stop offset="0" stop-color="#ddeaff"/><stop offset="1" stop-color="#e3eeff"/></linearGradient><linearGradient id="C" x1="37.68" y1="27.75" x2="42.8" y2="30.8" gradientUnits="userSpaceOnUse"><stop offset="0" stop-color="#98c1f8"/><stop offset="1" stop-color="#73a5f2"/></linearGradient><linearGradient id="D" x1="37.1" y1="27.85" x2="32.4" y2="30.69" gradientUnits="userSpaceOnUse"><stop offset="0" stop-color="#abcafa"/><stop offset="1" stop-color="#b7d2fa"/></linearGradient><clipPath id="E"><path d="M28.87 36.8V23.62a1.52 1.52 0 0 1 .76-1.32l7.1-4.07a1.55 1.55 0 0 1 1.53 0l7.1 4.07a1.51 1.51 0 0 1 .77 1.32v8.13a1.51 1.51 0 0 1-.77 1.32l-7.1 4.07a1.55 1.55 0 0 1-1.53 0l-3.3-1.88a.51.51 0 0 0-.53 0l-3.37 1.93a.46.46 0 0 1-.68-.39z" fill="none"/></clipPath></defs><g><g><g fill="#122a57"><path d="M66.87 53.57H68a1.16 1.16 0 0 0 .8-.24 1.07 1.07 0 0 0 .25-.79v-.8a1 1 0 0 0-1-1.09h-1.18a1 1 0 0 0-1.06 1.09v.8a1.07 1.07 0 0 0 .26.79 1.13 1.13 0 0 0 .8.24zm0-4H68c.7 0 1-.37 1-1.1v-.7a1 1 0 0 0-.25-.78 1.11 1.11 0 0 0-.8-.25h-1.08a1.08 1.08 0 0 0-.8.25 1 1 0 0 0-.26.78v.7c0 .7.35 1.06 1.06 1.06zm1.36 5.28h-1.55a2.39 2.39 0 0 1-1.68-.59 2.1 2.1 0 0 1-.6-1.62v-.78a1.67 1.67 0 0 1 1-1.75 1.68 1.68 0 0 1-1-1.76v-.75A2.08 2.08 0 0 1 65 46a2.39 2.39 0 0 1 1.69-.55h1.55a2.35 2.35 0 0 1 1.68.55 2.08 2.08 0 0 1 .6 1.6v.75a2.13 2.13 0 0 1-.28 1.13 1.37 1.37 0 0 1-.72.63 1.68 1.68 0 0 1 1 1.76v.77a2.1 2.1 0 0 1-.6 1.62 2.35 2.35 0 0 1-1.69.55zm3.44-7.07v-.86a.38.38 0 0 1 .2-.35l1.53-.92a1 1 0 0 1 .47-.16h.88a.22.22 0 0 1 .25.25v8.86c0 .17-.08.25-.23.25h-1a.22.22 0 0 1-.25-.25V47l-1.6.92c-.15.08-.25 0-.25-.18zM1.28 57h-1a.24.24 0 0 1-.28-.27V46.9a.24.24 0 0 1 .27-.27h1c.2 0 .28.1.28.27v.57h.06a1.6 1.6 0 0 1 1.62-.84h.82a2.36 2.36 0 0 1 1.77.63 2.56 2.56 0 0 1 .62 1.84v3.18a2.54 2.54 0 0 1-.62 1.82 2.33 2.33 0 0 1-1.77.65h-.8a1.61 1.61 0 0 1-1.62-.85h-.06v2.82c0 .18-.1.27-.28.27zm1.6-3.6h.85a1 1 0 0 0 1.16-1.18v-3A1 1 0 0 0 3.72 48h-.85a1.17 1.17 0 0 0-1.31 1.35v2.7a1.17 1.17 0 0 0 1.31 1.34zm10.9 1.36H10.3a2.48 2.48 0 0 1-1.84-.66 2.46 2.46 0 0 1-.64-1.81v-3.2a2.47 2.47 0 0 1 .64-1.83 2.51 2.51 0 0 1 1.84-.64h1.32a2.51 2.51 0 0 1 1.84.64 2.44 2.44 0 0 1 .66 1.83v2c0 .2-.1.28-.3.28h-4.3c-.12 0-.17.06-.17.16v.7a1 1 0 0 0 1.17 1.16h3.24a.25.25 0 0 1 .29.29v.8c0 .2-.05.28-.3.28zm-4.24-4.43h2.87a.14.14 0 0 0 .16-.16v-1a1.24 1.24 0 0 0-.27-.88 1.16 1.16 0 0 0-.88-.29h-.88a1.2 1.2 0 0 0-.89.28 1.24 1.24 0 0 0-.27.88v1a.14.14 0 0 0 .16.17zm7.3 4.43h-1a.24.24 0 0 1-.27-.27v-7.6a.24.24 0 0 1 .27-.27h1c.2 0 .28.1.28.27v.6h.06a1.26 1.26 0 0 1 .62-.63 2.13 2.13 0 0 1 1-.24h.6a.24.24 0 0 1 .27.27v.83c0 .2-.1.28-.27.25h-1c-.9 0-1.33.48-1.33 1.45v5.05c.06.18-.03.27-.22.27zm3.83-9.47v-1.45a.23.23 0 0 1 .26-.26h1a.23.23 0 0 1 .26.26v1.45a.24.24 0 0 1-.26.27h-1a.24.24 0 0 1-.26-.27zm0 9.2v-7.6a.24.24 0 0 1 .26-.27h1c.2 0 .28.1.28.27v7.58a.29.29 0 0 1-.06.21.27.27 0 0 1-.2.06h-1a.24.24 0 0 1-.28-.27zm4.6.27h-1c-.2 0-.28-.1-.28-.27v-7.6c0-.18.1-.27.28-.27h1a.24.24 0 0 1 .27.27v.57h.06a1.77 1.77 0 0 1 1.7-.84h.53a2.1 2.1 0 0 1 2 1 1.75 1.75 0 0 1 .79-.78 2.46 2.46 0 0 1 1.14-.27h.5a2.36 2.36 0 0 1 1.79.64 2.55 2.55 0 0 1 .62 1.83v5.38c0 .18-.1.27-.28.27h-1a.24.24 0 0 1-.27-.27v-5.27A1 1 0 0 0 31.91 48h-.46c-.9 0-1.34.46-1.34 1.4v5.1c0 .18-.1.27-.3.27h-1a.24.24 0 0 1-.27-.27v-5.33A1 1 0 0 0 27.39 48h-.57a1.18 1.18 0 0 0-1.31 1.35v5.15a.24.24 0 0 1-.27.26zm16.8 0H38.6a2.27 2.27 0 0 1-2.49-2.47v-3.2a2.48 2.48 0 0 1 .65-1.83 2.51 2.51 0 0 1 1.84-.64h1.32a2.51 2.51 0 0 1 1.84.64 2.44 2.44 0 0 1 .66 1.83v2c0 .2-.1.28-.3.28h-4.3c-.12 0-.18.06-.18.16v.7a1 1 0 0 0 1.17 1.16H42c.2 0 .28.1.28.3v.8c.03.2-.06.28-.28.28zm-4.24-4.43h2.87a.14.14 0 0 0 .16-.16v-1a1.24 1.24 0 0 0-.27-.88 1.18 1.18 0 0 0-.88-.28h-.9a1.18 1.18 0 0 0-.88.28 1.24 1.24 0 0 0-.27.88v1a.14.14 0 0 0 .16.16zM44 48h-.77a.37.37 0 0 1-.22-.05.34.34 0 0 1 0-.2v-.83a.24.24 0 0 1 .27-.27H44a.14.14 0 0 0 .16-.16v-1.44c0-.18.1-.27.3-.27h1a.24.24 0 0 1 .27.27v1.43c0 .1.06.16.18.16h1.5c.2 0 .3.1.3.27v.83c0 .17-.1.25-.3.25H46c-.12 0-.18 0-.18.16v4.1c0 .78.4 1.16 1.2 1.16h.62c.2 0 .3.1.3.27v.83c0 .17-.1.26-.3.26h-.87a2.62 2.62 0 0 1-1.86-.64 2.35 2.35 0 0 1-.67-1.8v-4.17A.144.144 0 0 0 44 48zm10.84 6.77H51.4a2.27 2.27 0 0 1-2.49-2.47v-3.2a2.48 2.48 0 0 1 .65-1.83 2.51 2.51 0 0 1 1.84-.64h1.32a2.51 2.51 0 0 1 1.84.64 2.44 2.44 0 0 1 .66 1.83v2c0 .2-.1.28-.3.28h-4.3c-.12 0-.18.06-.18.16v.7a1 1 0 0 0 1.18 1.16h3.24a.25.25 0 0 1 .29.29v.8c0 .2-.1.28-.3.28zm-4.24-4.43h2.87a.14.14 0 0 0 .16-.16v-1a1.24 1.24 0 0 0-.27-.88 1.18 1.18 0 0 0-.88-.28h-.88a1.2 1.2 0 0 0-.89.28 1.24 1.24 0 0 0-.27.88v1a.14.14 0 0 0 .2.15zm7.3 4.43h-1a.24.24 0 0 1-.27-.27v-7.6a.24.24 0 0 1 .27-.27h1a.25.25 0 0 1 .28.27v.6h.06a1.26 1.26 0 0 1 .62-.63 2.13 2.13 0 0 1 1-.24h.6a.24.24 0 0 1 .27.27v.83c0 .2-.1.28-.27.25h-1c-.9 0-1.33.48-1.33 1.45v5.05a.25.25 0 0 1-.18.27z"/></g><path d="M45.4 22.3l-7.2-4.12a1.5 1.5 0 0 0-1.45 0L29.6 22.3a1.43 1.43 0 0 0-.73 1.24v13.37a.37.37 0 0 0 .56.32l3.56-2a.47.47 0 0 1 .39 0h0l3.35 1.92a1.5 1.5 0 0 0 1.45 0L45.4 33a1.43 1.43 0 0 0 .72-1.25v-8.2a1.42 1.42 0 0 0-.72-1.24z" fill="url(#A)"/><path d="M42.7 24.74l-5.18 2.97h-.02l-5.2-2.97v-.04l5.2-3 5.2 3.04z" fill="url(#B)"/><path d="M42.7 24.74v5.95l-5.2 2.95V27.7h.02l5.18-2.97z" fill="url(#C)"/><path d="M37.5 27.7v5.94h-.01l-5.2-2.95v-5.96l5.2 2.97z" fill="url(#D)"/><path d="M33.3 25.34h0" fill="none" stroke="#231f20" stroke-width=".16"/><g clip-path="url(#E)"><g opacity=".7"></g></g></g></g></svg>
