<?xml version="1.0" encoding="UTF-8" standalone="no"?>
<svg id="f66fb467-4817-4263-baf7-d026b9599734" viewBox="0 0 96 96" fill="none" xmlns="http://www.w3.org/2000/svg">
    <g clip-path="url(#d77b87ad-d741-4c79-b39e-154b6c24d5f6)">
        <mask id="1e405f54-49f4-437e-a3bb-921c2ac48065" maskUnits="userSpaceOnUse" x="12" y="0" width="72" height="96">
            <path d="M52 4a4 4 0 014-4h24a4 4 0 014 4v88a4 4 0 01-4 4H16a4 4 0 01-4-4V52a4 4 0 014-4h16V28a4 4 0 014-4h16V4z" fill="#fff"/>
        </mask>
        <g mask="url(#1e405f54-49f4-437e-a3bb-921c2ac48065)">
            <path d="M84 0v96H52V0h32z" fill="url(#a3d79613-a55a-4210-bbda-0cbbee6daa53)"/>
            <g filter="url(#398d7736-e001-4f9e-9b80-ca8b6c10010b)">
                <path d="M64 28.4v68H32v-72h28a4 4 0 014 4z" fill="#000" fill-opacity=".2"/>
            </g>
            <g filter="url(#a8f93c3d-b54f-423a-ae9e-ca3d2cb2bff3)">
                <path d="M64 30v68H32V26h28a4 4 0 014 4z" fill="#000" fill-opacity=".18"/>
            </g>
            <path d="M64 28v68H32V24h28a4 4 0 014 4z" fill="url(#b9b94c9b-38b9-4851-aa24-f1b7b0ad21bc)"/>
            <path d="M12 48v48h32V52a4 4 0 00-4-4H12z" fill="url(#76919a5c-aff2-4582-81a0-21b23e33611f)"/>
        </g>
    </g>
    <defs>
        <linearGradient id="a3d79613-a55a-4210-bbda-0cbbee6daa53" x1="46.666" y1="0" x2="88.865" y2="89.447" gradientUnits="userSpaceOnUse">
            <stop stop-color="#E6AD10"/>
            <stop offset="1" stop-color="#C87E0E"/>
        </linearGradient>
        <linearGradient id="b9b94c9b-38b9-4851-aa24-f1b7b0ad21bc" x1="31.997" y1="24" x2="67.486" y2="92.826" gradientUnits="userSpaceOnUse">
            <stop stop-color="#F6D751"/>
            <stop offset="1" stop-color="#E6AD10"/>
        </linearGradient>
        <linearGradient id="76919a5c-aff2-4582-81a0-21b23e33611f" x1="11.997" y1="48" x2="31.608" y2="94.478" gradientUnits="userSpaceOnUse">
            <stop stop-color="#F9E589"/>
            <stop offset="1" stop-color="#F6D751"/>
        </linearGradient>
        <filter id="398d7736-e001-4f9e-9b80-ca8b6c10010b" x="31.2" y="23.6" width="33.6" height="73.6" filterUnits="userSpaceOnUse" color-interpolation-filters="sRGB">
            <feFlood flood-opacity="0" result="BackgroundImageFix"/>
            <feBlend in="SourceGraphic" in2="BackgroundImageFix" result="shape"/>
            <feGaussianBlur stdDeviation=".4" result="effect1_foregroundBlur"/>
        </filter>
        <filter id="a8f93c3d-b54f-423a-ae9e-ca3d2cb2bff3" x="24" y="18" width="48" height="88" filterUnits="userSpaceOnUse" color-interpolation-filters="sRGB">
            <feFlood flood-opacity="0" result="BackgroundImageFix"/>
            <feBlend in="SourceGraphic" in2="BackgroundImageFix" result="shape"/>
            <feGaussianBlur stdDeviation="4" result="effect1_foregroundBlur"/>
        </filter>
        <clipPath id="d77b87ad-d741-4c79-b39e-154b6c24d5f6">
            <path fill="#fff" d="M0 0h96v96H0z"/>
        </clipPath>
    </defs>
</svg>