<svg id="logosandtypes_com" xmlns="http://www.w3.org/2000/svg" viewBox="0 0 150 150">
    <path d="M0 0h150v150H0V0z" fill="none"/>
    <path d="M130.1 34.1s-17.9-19-53.4-19-53.4 19-53.4 19-2 14.1-.7 42.4c2 42.8 54.1 68.5 54.1 68.5s52.2-25.7 54.1-68.5c1.3-28.3-.7-42.4-.7-42.4zm-28.5 67c-6.4-.6-13-2.4-16.1-4.1 7.8-5 17.9-14.6 17.9-26.4 0-14.7-12-26.7-26.7-26.7S50 56.2 50 71.3c0 12.6 6.7 22.5 19.9 29.5 8.6 4.5 21.5 7.8 35.1 9.6-2.3 3.4-8.3 9.1-11.8 11.1-16.3-2.7-30.6-8.3-40.4-16.8-10.5-9-16-20.8-16-34.1v-.3c.1-22 18-39.8 40-39.7 22 .1 39.8 18 39.7 40 .1 11.9-5.5 23.2-14.9 30.5z" fill="#ed2e26"/>
</svg>