<?xml version="1.0" encoding="UTF-8"?>
<svg version="1.1" xmlns="http://www.w3.org/2000/svg" width="3000" height="3000">
<path d="M0 0 C5.84635827 4.72543995 10.29573191 11.00485627 11.703125 18.4921875 C12.53477892 27.66764801 11.51702128 36.0079012 6.16015625 43.7109375 C3.35612973 47.04753656 0.26472008 49.91918841 -3.046875 52.7421875 C-16.91058203 64.59471846 -26.67791608 79.58435592 -35.296875 95.4921875 C-36.17472656 97.08740234 -36.17472656 97.08740234 -37.0703125 98.71484375 C-55.51819087 133.73242283 -66.90337657 183.95273121 -59.296875 223.4921875 C-57.40128949 225.85236471 -57.40128949 225.85236471 -54.18359375 225.53686523 C-52.78312305 225.44821682 -51.38338731 225.34755738 -49.984375 225.23828125 C-49.20312256 225.1857872 -48.42187012 225.13329315 -47.61694336 225.07920837 C-45.83970721 224.95890202 -44.0627833 224.83392739 -42.28613281 224.70526123 C-39.05877849 224.47521603 -35.83050637 224.26558825 -32.6015625 224.05908203 C-26.44078768 223.66288041 -20.28174142 223.24487248 -14.12304688 222.81762695 C-11.54387418 222.64038289 -8.96443631 222.46696141 -6.38476562 222.29711914 C-2.62564473 222.04929876 1.13249148 221.78966149 4.890625 221.52734375 C6.04876709 221.45330826 7.20690918 221.37927277 8.40014648 221.30299377 C9.46305908 221.22628952 10.52597168 221.14958527 11.62109375 221.07055664 C12.55719482 221.0069545 13.4932959 220.94335236 14.45776367 220.87782288 C16.89923432 220.68088598 16.89923432 220.68088598 18.703125 218.4921875 C19.18176898 215.75012823 19.18176898 215.75012823 19.37890625 212.5078125 C19.48170898 211.27329346 19.58451172 210.03877441 19.69042969 208.7668457 C19.74275757 208.11044098 19.79508545 207.45403625 19.84899902 206.77774048 C22.05961821 179.77215253 28.81986315 155.36228511 41.703125 131.4921875 C42.02925781 130.88004395 42.35539062 130.26790039 42.69140625 129.63720703 C59.01015934 99.20208237 86.25032467 69.81156405 119.703125 58.4921875 C129.65389018 56.10767234 138.95932792 57.39937369 147.953125 62.2421875 C155.45160973 68.37731137 159.75138556 75.33810116 161.05078125 85.10546875 C161.38069358 94.32867011 158.39522229 102.26491731 152.23046875 109.1328125 C147.3130243 113.93137367 141.68562869 116.64401443 135.56738281 119.5793457 C130.44795159 122.05325744 126.02984435 124.77932764 121.703125 128.4921875 C121.08824219 128.96527344 120.47335937 129.43835938 119.83984375 129.92578125 C98.45930124 147.10733946 85.08120346 177.75202958 81.703125 204.4921875 C81.63656188 207.12808708 81.60745089 209.73367346 81.640625 212.3671875 C81.64739258 213.39972656 81.64739258 213.39972656 81.65429688 214.453125 C81.66596164 216.13285085 81.68389229 217.81253125 81.703125 219.4921875 C84.75467135 221.23992432 87.11747167 221.79114141 90.61669922 221.97875977 C91.59226776 222.03544327 92.5678363 222.09212677 93.57296753 222.15052795 C94.62396637 222.20268967 95.67496521 222.25485138 96.7578125 222.30859375 C97.85094757 222.36998032 98.94408264 222.43136688 100.07034302 222.49461365 C103.57253992 222.68958526 107.0752437 222.87246642 110.578125 223.0546875 C114.03788438 223.24273889 117.49750053 223.43325099 120.95709229 223.62435913 C123.1842914 223.74636339 125.41162808 223.86588405 127.63909912 223.9828186 C134.53274245 224.34865227 141.39626938 224.83122678 148.26611328 225.51928711 C150.96603945 225.71082136 150.96603945 225.71082136 153.703125 223.4921875 C154.59812679 220.60796246 155.34008296 217.80263635 156.015625 214.8671875 C162.97262396 186.82733026 176.93823527 159.38779538 201.8671875 143.171875 C217.94956561 133.64649953 238.03889167 122.5233744 257.42578125 127.140625 C266.49802093 130.42177505 272.40350134 135.96545959 276.79296875 144.4765625 C279.78096095 151.09374694 279.77495768 159.12737491 278.0546875 166.1328125 C274.23732907 175.4641331 267.97449716 180.99694289 258.95703125 185.1953125 C255.6773595 186.50245658 252.40945101 187.52365703 249.015625 188.4921875 C237.02577352 191.97311212 228.26238316 199.84464363 222.125 210.6015625 C218.80401802 217.35300937 215.21451398 224.83249126 215.703125 232.4921875 C220.38926953 234.63599665 224.70567241 236.08800509 229.78515625 237.11328125 C231.18481726 237.40456036 232.5843046 237.69667488 233.98364258 237.98950195 C234.71966705 238.14150055 235.45569153 238.29349915 236.21401978 238.45010376 C279.0755231 247.3811228 320.00090664 261.38424669 360.37744141 278.12060547 C364.80527379 279.9467369 369.25008787 281.72853759 373.703125 283.4921875 C373.84298828 282.85007324 373.98285156 282.20795898 374.12695312 281.54638672 C383.45438408 239.32551559 401.78052527 201.54997799 429.703125 168.4921875 C430.56953713 167.43923527 431.4353993 166.38583031 432.30078125 165.33203125 C443.80463965 151.46644021 456.49390842 138.58017831 470.703125 127.4921875 C472.56003247 125.91206942 474.41403976 124.32853884 476.265625 122.7421875 C517.42870642 88.57998821 569.26914813 63.14100695 621.703125 52.4921875 C622.43257324 52.32992676 623.16202148 52.16766602 623.91357422 52.00048828 C636.26385051 49.2959871 648.67919136 49.18111055 661.265625 49.1171875 C662.08375671 49.10924164 662.90188843 49.10129578 663.74481201 49.09310913 C679.38600451 48.97653587 694.92178789 50.4545304 709.890625 55.2421875 C710.7146582 55.49967773 711.53869141 55.75716797 712.38769531 56.02246094 C753.5088449 69.24280737 781.15844972 99.16044097 800.86230469 136.70068359 C821.95755019 177.96499801 831.69299267 224.07760393 836.390625 269.8671875 C836.51010498 271.02968018 836.62958496 272.19217285 836.75268555 273.38989258 C838.38028017 290.28929829 838.91260034 307.20943163 838.890625 324.1796875 C838.89002075 325.05892883 838.8894165 325.93817017 838.88879395 326.84405518 C838.72607725 415.1773929 822.06043168 511.07574945 765.40625 602.84765625 C761.95903846 608.20032188 761.1147403 613.75304564 762.10694885 620.02464294 C764.0490308 628.06282724 769.30604636 635.2396132 773.89453125 641.98828125 C774.48048569 642.86130386 775.06644012 643.73432648 775.67015076 644.63380432 C777.5297885 647.40286154 779.39713783 650.16659572 781.265625 652.9296875 C792.4067612 669.44889634 803.38790627 686.05123848 813.578125 703.1796875 C814.30346436 704.39458862 814.30346436 704.39458862 815.04345703 705.6340332 C850.43778927 765.06565535 882.45804368 826.2863329 910.76428223 889.40026855 C911.68196111 891.44503037 912.60196261 893.4887327 913.52246094 895.53222656 C951.12094658 979.09171532 982.7953389 1065.52794957 1036.703125 1459.4921875 C1036.61191376 1460.7301709 1036.61191376 1460.7301709 1036.51885986 1461.99316406 C1029.92286177 1551.07405461 1014.89057307 1648.14545106 943.703125 1756.4921875 C942.96835938 1757.41902344 942.23359375 1758.34585938 941.4765625 1759.30078125 C932.70041177 1770.23220574 923.06375739 1780.23395983 913.203125 1790.1796875 C911.9042334 1791.49815674 911.9042334 1791.49815674 910.57910156 1792.84326172 C904.60281278 1798.82742292 898.33621503 1804.24994921 891.703125 1809.4921875 C891.11063965 1809.96954346 890.5181543 1810.44689941 889.90771484 1810.9387207 C825.6713856 1862.59517229 743.8449499 1883.41505374 663.140625 1890.1796875 C662.05964035 1890.27095917 662.05964035 1890.27095917 660.95681763 1890.36407471 C655.8751975 1890.78690669 650.79137335 1891.15869658 645.703125 1891.4921875 C644.95947693 1891.54131287 644.21582886 1891.59043823 643.449646 1891.64105225 C580.91104034 1895.59289959 517.8429644 1891.56140545 455.42578125 1887.58203125 C454.40799422 1887.5171428 454.40799422 1887.5171428 453.36964583 1887.45094347 C438.84119899 1886.52417083 424.31335436 1885.58887252 409.78728485 1884.62550354 C367.72953822 1881.83656526 325.68380664 1879.05302381 283.515625 1879.1171875 C282.82192684 1879.11742668 282.12822868 1879.11766586 281.41350937 1879.11791229 C245.43146019 1879.13331668 209.59470552 1881.08746001 173.703125 1883.4921875 C172.88859612 1883.54644646 172.07406723 1883.60070541 171.23485565 1883.65660858 C93.41244394 1888.84069311 15.76940568 1896.0264559 -215.05859947 1927.83461571 C-294.03461734 1940.37835901 -373.23696357 1950.32809919 -453.296875 1951.4921875 C-454.43415039 1951.50878418 -455.57142578 1951.52538086 -456.74316406 1951.54248047 C-464.26310285 1951.63314957 -471.77732095 1951.60283237 -479.296875 1951.4921875 C-480.53566406 1951.47430176 -481.77445313 1951.45641602 -483.05078125 1951.43798828 C-572.51935138 1949.92848162 -670.241473 1938.44519732 -804.36328125 1847.51464844 C-808.31258051 1843.38384098 -811.85286859 1839.04735139 -815.296875 1834.4921875 C-816.42155957 1833.04532767 -817.54659267 1831.59873872 -818.671875 1830.15234375 C-852.96441802 1785.67039975 -876.22776523 1734.36850008 -894.296875 1681.4921875 C-894.67553711 1680.38891113 -895.05419922 1679.28563477 -895.44433594 1678.14892578 C-922.83242355 1597.65930317 -932.9082759 1512.79910832 -935.859375 1416.0546875 C-935.88022156 1415.19512451 -935.90106812 1414.33556152 -935.92254639 1413.44995117 C-936.30370958 1397.46094536 -936.49925418 1381.48603722 -936.296875 1365.4921875 C-936.28827454 1364.78521729 -936.27967407 1364.07824707 -936.27081299 1363.34985352 C-935.11336202 1271.90871607 -924.98963709 1180.22242906 -897.296875 1063.4921875 C-897.01260651 1062.37544647 -897.01260651 1062.37544647 -896.72259521 1061.23614502 C-880.78172984 998.68060798 -859.00618469 937.80010591 -831.296875 879.4921875 C-830.30076147 877.37761349 -829.30466791 875.26303006 -828.30859375 873.1484375 C-818.10841575 851.59615485 -807.05830749 830.691091 -794.88964844 810.18554688 C-793.47296602 807.78995514 -792.07159881 805.38660098 -790.6796875 802.9765625 C-779.44918653 783.56601666 -767.04991516 764.92781351 -754.296875 746.4921875 C-753.63365234 745.53103027 -752.97042969 744.56987305 -752.28710938 743.57958984 C-739.63637998 725.2554389 -726.69935408 707.21847683 -713.15625 689.54296875 C-709.73194298 685.07159451 -706.35090476 680.56962847 -702.984375 676.0546875 C-691.90726558 661.23715941 -680.20843137 646.92416851 -668.484375 632.6171875 C-667.43443359 631.32941406 -667.43443359 631.32941406 -666.36328125 630.015625 C-664.94431909 628.28282811 -663.51397326 626.55930986 -662.07421875 624.84375 C-656.1468478 617.67926896 -651.99340588 611.11649394 -652.296875 601.4921875 C-653.19676036 594.44687144 -655.8628819 589.2274179 -659.546875 583.2421875 C-671.71352049 562.65578274 -681.4787241 541.07753321 -689.296875 518.4921875 C-689.80226807 517.06592041 -689.80226807 517.06592041 -690.31787109 515.61083984 C-703.9501743 477.08476555 -712.0834638 437.06911461 -717.03973389 396.56970215 C-717.28348452 394.6003729 -717.54005355 392.63264262 -717.79736328 390.66503906 C-720.46920278 369.57215103 -720.60915608 348.42303335 -720.66479111 327.19475555 C-720.67172145 324.97878459 -720.68336953 322.76288129 -720.69595337 320.54693604 C-720.8314554 292.84519867 -719.29204313 265.21139913 -714.609375 237.8671875 C-714.48437622 237.11800049 -714.35937744 236.36881348 -714.23059082 235.59692383 C-705.23306144 182.00233798 -687.03276501 130.35461281 -650.296875 89.4921875 C-649.37648438 88.46158203 -649.37648438 88.46158203 -648.4375 87.41015625 C-624.29257066 61.89063935 -586.92867669 49.766978 -552.57080078 48.38232422 C-539.36579141 48.09934275 -526.36756637 48.56235892 -513.296875 50.4921875 C-512.49137207 50.61045898 -511.68586914 50.72873047 -510.85595703 50.85058594 C-460.28331345 58.63708895 -408.10515896 83.31872595 -368.05859375 115.09960938 C-366.26701272 116.51579261 -364.4568308 117.90464123 -362.640625 119.2890625 C-355.77618771 124.55167437 -349.28400334 130.08690562 -342.97265625 136 C-340.72422114 138.09416292 -338.44296911 140.11959412 -336.109375 142.1171875 C-328.93502916 148.35380764 -322.39191477 155.20589708 -316.296875 162.4921875 C-315.6164917 163.30187988 -315.6164917 163.30187988 -314.92236328 164.12792969 C-301.18363349 180.54064044 -289.38224931 197.59255823 -279.296875 216.4921875 C-278.85601563 217.31638184 -278.41515625 218.14057617 -277.9609375 218.98974609 C-267.98799841 237.9572185 -259.74735335 259.5527969 -256.796875 280.8515625 C-256.52590358 283.63863176 -256.52590358 283.63863176 -254.296875 285.4921875 C-253.56259277 285.08661621 -253.56259277 285.08661621 -252.81347656 284.67285156 C-215.06440368 263.98629026 -173.94825434 249.58730348 -132.10546875 239.74926758 C-130.98269531 239.48138428 -129.85992188 239.21350098 -128.703125 238.9375 C-127.20749023 238.58969482 -127.20749023 238.58969482 -125.68164062 238.23486328 C-123.14115206 237.64638091 -123.14115206 237.64638091 -121.296875 235.4921875 C-121.02504626 233.20938324 -121.02504626 233.20938324 -121.11743164 230.53710938 C-121.12726578 229.50001831 -121.13709991 228.46292725 -121.14723206 227.39440918 C-121.16696579 226.26136353 -121.18669952 225.12831787 -121.20703125 223.9609375 C-121.22751273 221.53385667 -121.24768382 219.10677321 -121.26757812 216.6796875 C-121.31042554 212.87619266 -121.35820564 209.07286821 -121.41333008 205.26953125 C-121.7147943 182.86316562 -120.35999457 160.93908615 -115.609375 138.9921875 C-115.35518799 137.79916016 -115.10100098 136.60613281 -114.83911133 135.37695312 C-110.4076783 115.29026597 -104.02276516 96.11261382 -95.296875 77.4921875 C-94.9565625 76.76322266 -94.61625 76.03425781 -94.265625 75.28320312 C-82.77978674 50.94309665 -67.53053129 29.75617404 -48.734375 10.5546875 C-47.70848267 9.48963989 -47.70848267 9.48963989 -46.66186523 8.40307617 C-33.62590711 -4.6762165 -16.57350625 -10.87988676 0 0 Z " fill="#00FEAD" transform="translate(1445.296875,503.5078125)"/>
<path d="M0 0 C10.03543413 8.77869469 18.52251304 18.08530496 25.59082031 29.39160156 C26.11675781 30.14828125 26.64269531 30.90496094 27.18457031 31.68457031 C42.33082609 54.44423658 47.34707634 86.05759387 42.27832031 112.64160156 C41.73979318 114.89745944 41.17970479 117.14836254 40.59082031 119.39160156 C40.38585938 120.31328125 40.18089844 121.23496094 39.96972656 122.18457031 C36.11747778 138.38315682 27.31333356 158.78592332 12.96582031 168.09472656 C6.68861054 171.34542448 1.32193004 172.51309875 -5.75163269 172.53204346 C-7.67131363 172.54060867 -7.67131363 172.54060867 -9.629776 172.54934692 C-11.04086294 172.55059214 -12.45194999 172.55171727 -13.86303711 172.55273438 C-15.35492067 172.55736576 -16.84680306 172.56239085 -18.33868408 172.56777954 C-22.38645057 172.58087603 -26.4342005 172.5873433 -30.48198485 172.5917902 C-33.01400139 172.59472581 -35.54601345 172.59883157 -38.07802773 172.60329437 C-46.00911601 172.61696303 -53.940194 172.62663237 -61.87129325 172.63049626 C-71.00962017 172.6349734 -80.14779725 172.65250794 -89.28607863 172.68149686 C-96.36059026 172.70315558 -103.43505986 172.7132028 -110.50960428 172.71453738 C-114.72970461 172.71558256 -118.94966397 172.72142866 -123.16972923 172.73935699 C-127.14327697 172.75591 -131.11657886 172.75795839 -135.09014893 172.74921799 C-136.54209873 172.74845142 -137.99406216 172.75273971 -139.44597816 172.76267624 C-151.68175698 172.84145014 -161.84697582 171.48545202 -171.40917969 163.39160156 C-189.14127226 145.73496471 -195.59186027 115.86213493 -195.65917969 91.82910156 C-195.64687397 59.56104283 -182.59783538 31.39842303 -160.40917969 8.39160156 C-159.74144531 7.66070313 -159.07371094 6.92980469 -158.38574219 6.17675781 C-117.92532564 -36.92980412 -44.03966498 -36.94680805 0 0 Z " fill="#000000" transform="translate(1268.4091796875,1333.6083984375)"/>
<path d="M0 0 C1.39992188 1.16982422 1.39992188 1.16982422 2.828125 2.36328125 C3.82328125 3.19472656 4.8184375 4.02617188 5.84375 4.8828125 C25.33547635 21.70367 37.75044846 44.46818311 43.828125 69.36328125 C44.055 70.2553125 44.281875 71.14734375 44.515625 72.06640625 C50.7500639 101.67999103 43.34577292 132.91561584 27.828125 158.36328125 C23.06060362 165.46566567 15.93761575 170.63630125 7.828125 173.36328125 C3.28841433 174.12528804 -1.0790437 174.49121676 -5.6789093 174.50372314 C-7.57747177 174.51228836 -7.57747177 174.51228836 -9.51438904 174.52102661 C-10.89932241 174.52227166 -12.28425589 174.52339682 -13.66918945 174.52441406 C-15.14166385 174.52904825 -16.61413705 174.53407371 -18.08660889 174.53945923 C-22.07227546 174.55252548 -26.05792523 174.55901659 -30.04360986 174.56346989 C-32.53778001 174.56640934 -35.03194565 174.57051572 -37.52611351 174.57497406 C-45.34186477 174.5886324 -53.15760563 174.59830776 -60.97336799 174.60217595 C-69.97357453 174.60665586 -78.97362915 174.62420761 -87.97378951 174.65317655 C-94.94643152 174.67483526 -101.9190309 174.68488243 -108.89170617 174.68621707 C-113.04917934 174.68726189 -117.20650937 174.69310091 -121.36394691 174.71103668 C-125.2767849 174.72759059 -129.18937322 174.72963766 -133.10223389 174.72089767 C-134.53160969 174.72013126 -135.96099934 174.72441737 -137.39034081 174.73435593 C-150.8695784 174.82252406 -159.98344509 172.95520302 -169.94140625 163.72265625 C-180.19516053 153.07541704 -185.26704467 138.31362805 -189.171875 124.36328125 C-189.51347656 123.16058594 -189.85507813 121.95789062 -190.20703125 120.71875 C-194.35553331 102.9091342 -194.41488804 80.90808247 -189.171875 63.36328125 C-188.90503906 62.37714844 -188.63820313 61.39101562 -188.36328125 60.375 C-179.18882239 29.58959361 -156.87242473 3.71871219 -128.859375 -11.44921875 C-87.96617856 -32.72994285 -36.36548894 -28.7645056 0 0 Z " fill="#000000" transform="translate(1875.171875,1331.63671875)"/>
<path d="M0 0 C6.03887371 5.19953567 10.43538745 11.85507204 11.31518555 19.87207031 C11.50935146 28.40476746 9.79117383 34.79586416 6.375 42.5625 C5.88427002 43.7165332 5.39354004 44.87056641 4.88793945 46.05957031 C-9.60684901 79.57975873 -27.85291588 110.73789589 -51 139 C-51.67192383 139.82854492 -51.67192383 139.82854492 -52.35742188 140.67382812 C-59.76062969 149.73619458 -67.87926928 158.08564443 -76.125 166.375 C-76.63002045 166.88528748 -77.13504089 167.39557495 -77.65536499 167.92132568 C-84.42256832 174.74305782 -91.46760715 181.02105028 -99 187 C-100.17393015 187.97644658 -101.34501084 188.95634149 -102.51171875 189.94140625 C-119.84200105 204.35000493 -139.16151196 216.37262466 -159 227 C-159.92184082 227.4945166 -160.84368164 227.9890332 -161.79345703 228.49853516 C-204.51530335 251.16563638 -251.17816916 264.77537254 -299.125 270.25 C-299.84981567 270.33308411 -300.57463135 270.41616821 -301.32141113 270.50177002 C-318.22647218 272.41282286 -335.01632139 273.18667136 -352.02416992 273.18530273 C-355.03383762 273.18747927 -358.04313149 273.20568415 -361.05273438 273.22460938 C-380.35261364 273.28180164 -399.41894308 271.67548473 -418.5 268.8125 C-419.2079068 268.70740112 -419.9158136 268.60230225 -420.64517212 268.49401855 C-452.02023665 263.78656508 -482.90756554 255.74245784 -512.6875 244.8125 C-514.28899902 244.22505005 -514.28899902 244.22505005 -515.92285156 243.62573242 C-528.82926497 238.74247278 -540.36097599 234.37024562 -546.4375 221.25 C-549.47405938 212.66613302 -548.89048206 203.984907 -545.453125 195.609375 C-541.78492324 189.02238905 -535.8612816 183.23898921 -528.67431641 180.67456055 C-518.30545544 178.05915404 -508.87318647 180.45065685 -499.21136475 184.35803223 C-496.59466736 185.41493876 -493.95761512 186.41613947 -491.32110596 187.42236328 C-489.37723723 188.16539409 -487.43644067 188.91608089 -485.49560547 189.66699219 C-473.4574357 194.25760589 -461.10181505 197.58050628 -448.625 200.75 C-447.47177246 201.04422852 -446.31854492 201.33845703 -445.13037109 201.64160156 C-438.43659531 203.29896163 -431.78923566 204.56670896 -424.96362305 205.54223633 C-422.42585905 205.93422146 -419.97514453 206.42808939 -417.48046875 207.02734375 C-411.82148294 208.34635548 -406.08099806 208.9245561 -400.3125 209.5625 C-399.23033203 209.68818359 -398.14816406 209.81386719 -397.03320312 209.94335938 C-381.8708261 211.66002447 -366.86958026 212.20491206 -351.625 212.1875 C-350.16084656 212.18659363 -350.16084656 212.18659363 -348.66711426 212.18566895 C-325.68475314 212.14705263 -303.59317915 210.31797005 -281 206 C-280.20432617 205.84805176 -279.40865234 205.69610352 -278.58886719 205.53955078 C-251.07283473 200.1424963 -224.2886966 191.03059658 -199 179 C-197.93289795 178.49533203 -197.93289795 178.49533203 -196.84423828 177.98046875 C-158.4251138 159.68651524 -121.95561266 131.94195502 -96 98 C-95.2059375 96.9996875 -94.411875 95.999375 -93.59375 94.96875 C-74.45505854 70.75836103 -59.72704212 43.24609685 -47.96411133 14.77758789 C-44.02546292 5.26042903 -39.36227323 -0.49223881 -30 -5 C-18.93701901 -7.7240506 -9.43237164 -6.48648431 0 0 Z " fill="#000100" transform="translate(1837,1759)"/>
</svg>
