<svg xmlns="http://www.w3.org/2000/svg" viewBox="0 0 271.08 227.59">
    <defs>
        <style>
            .cls-1,.cls-2{fill:#2673b3;}.cls-2{fill-rule:evenodd;}
        </style>
    </defs>
    <g id="880399d4-65d8-4072-a6b6-8ecbc50381b1">
        <g id="0c79872f-d421-4210-ba81-f74ef50d14cd">
            <path class="cls-1" d="M37.46,179.65h30.4v7.21H46.06v13.26H65.77v7.21H46.06V227.1h-8.6Z"/>
            <path class="cls-1" d="M92.49,191.51h8.39V227.1H92.75v-6.33h-.37c-1.63,4-5.38,6.33-10.71,6.33-7,0-11.86-4.38-11.86-12.93V191.51H78.2v21.36c0,4.52,2.68,7.37,6.72,7.37,3.7,0,7.57-2.69,7.57-8.11Z"/>
            <path class="cls-1" d="M124,198h-7v18.4c0,3.38,1.69,4.12,3.8,4.12a10.76,10.76,0,0,0,2.45-.32l1.42,6.55a16.93,16.93,0,0,1-4.94.84c-6.3.18-11.17-3.11-11.12-9.8V198h-5v-6.49h5V183H117v8.52h7Z"/>
            <path class="cls-1" d="M150.45,191.51h8.39V227.1H150.7v-6.33h-.37c-1.62,4-5.37,6.33-10.7,6.33-7,0-11.86-4.38-11.86-12.93V191.51h8.38v21.36c0,4.52,2.69,7.37,6.72,7.37,3.71,0,7.58-2.69,7.58-8.11Z"/>
            <path class="cls-1" d="M164.19,191.51h8.13v5.93h.37a8.89,8.89,0,0,1,8.78-6.44,21.3,21.3,0,0,1,3,.23V199a16,16,0,0,0-3.89-.49c-4.61,0-8,3.2-8,7.72V227.1h-8.38Z"/>
            <path class="cls-1" d="M217.84,186.85a7.89,7.89,0,1,1,7.9,7.89A7.89,7.89,0,0,1,217.84,186.85Zm14.31,0a6.42,6.42,0,1,0-6.41,6.42A6.41,6.41,0,0,0,232.15,186.85Zm-9.09-3.73h3.49a2.23,2.23,0,0,1,2.27,2.28,2.33,2.33,0,0,1-1.25,2.11l1.55,2.89H227.7l-1.36-2.61h-2v2.61h-1.27Zm3.08,3.67a1.3,1.3,0,0,0,1.3-1.39,1.19,1.19,0,0,0-1.27-1.28h-1.84v2.67Z"/>
            <path class="cls-1" d="M184.5,209.51c0-11,6.65-18.46,16.85-18.46,8.75,0,16.26,5.49,16.26,18v2.57H192.82c.07,6.09,3.66,9,9.08,9,3.62,0,6.4-.88,7.53-3.9h8.18c-1.48,6.19-6.9,10.43-15.82,10.43C191.06,227.1,184.5,220.68,184.5,209.51ZM209.57,206c0-4.85-3.29-8.37-8.11-8.37a8.57,8.57,0,0,0-8.62,8.37Z"/>
            <path class="cls-1" d="M0,122.94H17.79c10.89,0,16.73,6.11,16.73,15.17,0,6.44-3.46,10.25-9,12.5l10.78,19.78H26.67l-10.6-19.78H8.6v19.78H0Zm16.52,20.54c6.37,0,9.24-1.79,9.24-6.68,0-4.11-2.87-6.68-9.29-6.68H8.6v13.36Z"/>
            <path class="cls-1" d="M72.18,152c0-10.87,6.58-18.4,17-18.4,8.68,0,14.71,5.07,15.29,12.79h-8a7,7,0,0,0-7.16-6c-5.17,0-8.62,4.3-8.62,11.49s3.39,11.65,8.62,11.65a6.94,6.94,0,0,0,7.16-6h8c-.61,7.55-6.3,12.86-15.25,12.86C78.6,170.39,72.18,162.81,72.18,152Z"/>
            <path class="cls-1" d="M106.59,152c0-11,6.62-18.4,17-18.4s17,7.37,17,18.4-6.63,18.35-17,18.35S106.59,163,106.59,152Zm25.6,0c0-6.51-2.83-11.72-8.51-11.72s-8.59,5.21-8.59,11.72,2.82,11.66,8.59,11.66S132.19,158.52,132.19,152Z"/>
            <path class="cls-1" d="M143.1,134.8h8.13v5.93h.37a8.9,8.9,0,0,1,8.78-6.44,20.15,20.15,0,0,1,3,.23v7.72a15.64,15.64,0,0,0-3.9-.49c-4.61,0-8,3.2-8,7.71v20.93H143.1Z"/>
            <path class="cls-1" d="M164.19,152.64c0-11.86,6.47-18.31,14.69-18.31a10.55,10.55,0,0,1,10.17,6.35h.35V122.94h8.41v47.45h-8.25v-5.61h-.51c-1.32,2.59-4.05,5.61-10.16,5.61C170.5,170.39,164.19,164.36,164.19,152.64Zm25.37,0c0-6.9-3-11.37-8.36-11.37-5.58,0-8.46,4.75-8.46,11.37s2.92,11.54,8.46,11.54C186.55,164.13,189.56,159.5,189.56,152.59Z"/>
            <path class="cls-1" d="M237.47,152.64c0-11.86,6.46-18.31,14.69-18.31a10.57,10.57,0,0,1,10.17,6.35h.34V122.94h8.41v47.45h-8.24v-5.61h-.51c-1.32,2.59-4.08,5.57-10.2,5.57C243.74,170.35,237.47,164.36,237.47,152.64Zm25.37,0c0-6.9-3-11.37-8.37-11.37-5.58,0-8.45,4.75-8.45,11.37s2.91,11.54,8.45,11.54C259.82,164.13,262.84,159.5,262.84,152.59Z"/>
            <path class="cls-1" d="M201.43,152.8c0-11,6.65-18.47,16.84-18.47,8.76,0,16.27,5.5,16.27,18v2.58H209.75c.07,6.09,3.66,9,9.08,9,3.61,0,6.39-.88,7.53-3.89h8.18c-1.48,6.19-6.9,10.43-15.83,10.43C208,170.39,201.43,164,201.43,152.8Zm25.07-3.57c-.05-4.84-3.29-8.36-8.11-8.36a8.56,8.56,0,0,0-8.62,8.36Z"/>
            <path class="cls-1" d="M36.81,152.8c0-11,6.65-18.47,16.84-18.47,8.76,0,16.27,5.5,16.27,18v2.58H45.13c.07,6.09,3.66,9,9.08,9,3.62,0,6.4-.88,7.53-3.89h8.18c-1.48,6.19-6.9,10.43-15.82,10.43C43.37,170.39,36.81,164,36.81,152.8Zm25.07-3.57c-.05-4.84-3.29-8.36-8.11-8.36a8.56,8.56,0,0,0-8.62,8.36Z"/>
            <path class="cls-2" d="M135.82,44.59a8,8,0,1,0,8,8h0A8,8,0,0,0,135.82,44.59Z"/>
            <path class="cls-2" d="M183.06,44.59a8,8,0,1,0,8,8h0A8,8,0,0,0,183.06,44.59Z"/>
            <path class="cls-2" d="M88,44.59a8,8,0,1,0,8,8h0A8,8,0,0,0,88,44.59Z"/>
            <path class="cls-2" d="M129,97.42h0V73.94h0a6.57,6.57,0,0,1,13.14,0h0V97.42h0v.14a6.57,6.57,0,1,1-13.14,0Z"/>
            <path class="cls-2" d="M152.73,85.4h0V19.71h0a6.57,6.57,0,1,1,13.14,0h0V85.4h0v.14a6.57,6.57,0,1,1-13.14,0Z"/>
            <path class="cls-2" d="M105.21,85.4h0V19.71a6.57,6.57,0,0,1,13.14,0V85.4h0v.14a6.57,6.57,0,1,1-13.14,0Z"/>
            <path class="cls-2" d="M129,30.05h0V6.57h0a6.57,6.57,0,0,1,13.14,0h0V30.05h0v.14a6.57,6.57,0,0,1-13.14,0Z"/>
        </g>
    </g>
</svg>
