<?xml version="1.0" encoding="utf-8"?>
<!-- Generator: Adobe Illustrator 25.3.1, SVG Export Plug-In . SVG Version: 6.00 Build 0)  -->
<svg version="1.1" id="407e94ce-6155-478f-842e-b05c07207cc2" xmlns="http://www.w3.org/2000/svg" x="0px" y="0px"
	 viewBox="0 0 128 128" xml:space="preserve">
<style type="text/css">
	.st0{fill:#1996A8;}
	.st1{fill:#F2A710;}
</style>
<path class="st0" d="M106.2,110.7V95.4c-0.6-15.7-5.6-18.5-23-18.5H44.3c-4.4,0-16.1,0.2-26.9-4.7C7.7,67.8,2.6,61.7,0,55.6v48.1
	C0,117.1,10.9,128,24.3,128h58.1C97.5,127.5,106.2,122.8,106.2,110.7z"/>
<path class="st1" d="M104,0c-3.2,0-6.6,0-10.1,0C78.2,0,45,0,45,0C33.1,0,23.1,3,23.1,18.5v13.7c0,14.5,7.3,17.7,25,18h34.1
	c9.5,0,21.5,0,32.3,5.5c6.7,3.4,10.9,7.5,13.5,12V24.3C128,11,117.2,0.2,104,0z"/>
</svg>
