<svg width="129" height="144" viewBox="0 0 129 144" fill="none" xmlns="http://www.w3.org/2000/svg">
<g clip-path="url(#48fada69-c3b0-457d-8fc2-03625d79efb3)">
<path d="M128.06 44.92V20L98.2001 10.65V25L88.7401 22V7.7L64.0001 0L39.3201 7.7V22L29.8601 25V10.65L0.000125663 20V38C-0.0138305 47.4746 1.13475 56.9151 3.42013 66.11L4.73013 71.32L64.0001 53L113.46 68.32C112.109 72.7847 110.462 77.1544 108.53 81.4L64.0001 67.59L9.55013 84.44L12.2601 89.81C16.212 97.6192 20.9713 104.993 26.4601 111.81L28.6301 114.5L64.0001 103.51L88.7101 111.15C81.406 119.204 73.102 126.292 64.0001 132.24C60.2088 129.791 56.5657 127.12 53.0901 124.24L41.6301 127.79C47.7296 133.414 54.4029 138.381 61.5401 142.61L64.0001 144L66.4601 142.65C67.2101 142.23 85.1501 132.2 101.57 111.77L106.25 105.94L64.0001 92.86L32.2401 102.69C29.303 98.8153 26.6111 94.7608 24.1801 90.55L64.0001 78.24L113.83 93.66L115.76 89.82C119.577 82.2726 122.542 74.3236 124.6 66.12L125.77 61.45L64.0001 42.32L12.1201 58.39C10.8142 51.6721 10.1612 44.8436 10.1701 38V27.44L19.6901 24.44V38.78L49.4901 29.49V15.19L64.0001 10.65L78.5401 15.19V29.49L108.34 38.78V24.47L117.86 27.47V41.75L128.06 44.92Z" fill="black"/>
</g>
<defs>
<clipPath id="48fada69-c3b0-457d-8fc2-03625d79efb3">
<rect width="128.06" height="144" fill="white"/>
</clipPath>
</defs>
</svg>
