<svg width="18" height="24" viewBox="0 0 18 24" fill="none" xmlns="http://www.w3.org/2000/svg">
<path d="M0.661835 9.68193C0.477692 9.65186 0.310211 9.55747 0.189148 9.41553C0.0680542 9.27358 0.00125122 9.0933 0.000610352 8.90674V3.89449C0.00106812 3.73473 0.0500793 3.57886 0.141113 3.44757C0.232178 3.31627 0.360962 3.21576 0.510437 3.15932L8.75919 0.0411415C8.90442 -0.0137138 9.06464 -0.0137138 9.20987 0.0411415L17.4586 3.15932C17.6081 3.21576 17.7369 3.31627 17.8279 3.44757C17.919 3.57886 17.968 3.73473 17.9684 3.89449V7.96015L15.2409 7.49816L15.2583 5.43184C15.2589 5.33323 15.2285 5.23691 15.1716 5.15641C15.1146 5.0759 15.0339 5.01523 14.9407 4.9829L9.19855 2.98183C9.13034 2.95795 9.05853 2.9459 8.98627 2.94617C8.91519 2.94652 8.84464 2.95858 8.77747 2.98183L3.06137 4.9829C2.96893 5.01519 2.88879 5.07538 2.83206 5.15519C2.77533 5.23499 2.74481 5.33045 2.74469 5.42836V6.85086C2.74503 6.96248 2.78488 7.07038 2.85718 7.15541C2.92947 7.24047 3.02957 7.29715 3.13968 7.31545L17.3116 9.71238C17.4943 9.74305 17.6602 9.83751 17.7798 9.97896C17.8994 10.1204 17.9651 10.2997 17.965 10.485V12.553L0.661835 9.68193Z" fill="#EA0485"/>
<path d="M17.3098 14.3148C17.496 14.3427 17.666 14.4362 17.7892 14.5786C17.9124 14.7209 17.9806 14.9027 17.9815 15.0909V20.1058C17.9818 20.2657 17.933 20.4219 17.8419 20.5533C17.7507 20.6848 17.6215 20.7851 17.4716 20.8409L9.2229 23.96C9.07739 24.0134 8.91769 24.0134 8.77222 23.96L0.523468 20.8409C0.373566 20.7851 0.244354 20.6848 0.153198 20.5533C0.0620728 20.4219 0.0133667 20.2657 0.0136414 20.1058V16.0375L2.74118 16.4995L2.72379 18.5658C2.72324 18.6644 2.75354 18.7607 2.81049 18.8412C2.86746 18.9217 2.94815 18.9824 3.04132 19.0147L8.78351 21.0158C8.85547 21.0403 8.93112 21.0521 9.00711 21.0506C9.0423 21.0501 9.0773 21.0466 9.11179 21.0403C9.14297 21.0345 9.17371 21.0263 9.20374 21.0158L14.919 19.0147C15.0113 18.9826 15.0914 18.9226 15.1482 18.8429C15.2049 18.7633 15.2355 18.6679 15.2357 18.5701V17.1468C15.2355 17.035 15.1958 16.9269 15.1234 16.8417C15.0511 16.7565 14.9509 16.6996 14.8407 16.6813L0.668762 14.2853C0.484344 14.2558 0.316559 14.1614 0.195618 14.0191C0.0746765 13.8768 0.00860596 13.6959 0.00927734 13.5092V11.4403L17.3098 14.3148Z" fill="#EA0485"/>
</svg>
