<?xml version="1.0" encoding="utf-8"?>
<svg version="1.1" xmlns="http://www.w3.org/2000/svg" x="0px" y="0px"
	 viewBox="0 0 1024 640" enable-background="new 0 0 1024 640" xml:space="preserve">
<g>
	<path fill="#393839" d="M79,628.75c-25.6,0-44.68-7.53-66-24.6c-2.26-1.76-2.51-3.77-1-6l17-24.38
		c1.16-1.828,3.583-2.369,5.41-1.209c0.211,0.134,0.408,0.287,0.59,0.459c15.07,10.54,30.38,17.07,46.7,17.32
		c16.31,0,27.86-5.53,27.86-16.57c0-12.8-15.06-16.82-32.38-20.34c-25.36-5.27-63-17.82-63-58.49c0-34.9,29.87-52,68-52
		c22.09,0,39.91,5.52,60.75,19.33c2.51,1.51,3,3.77,1.25,6l-16.06,24.1c-1.51,2.26-3.77,2.76-6.28,1.25
		c-12.425-8.037-26.873-12.388-41.67-12.55c-17.82,0-24.85,6-24.85,15.06c0,11.05,10.54,14.06,31.88,19.08
		c34.89,8.54,63.76,20.09,63.76,57.24C151,607.66,122.91,628.75,79,628.75z"/>
	<path fill="#393839" d="M279,569.25c0,2.76-1.51,4.27-4.52,4.27h-71v4c0,12.81,8.28,19.34,21.58,19.34c12.56,0,22.85-3.77,31.89-9
		c2.26-1.76,4.26-1.26,5.77,1l13,17.32c1.51,2.26,1.51,4.52-0.75,6.28C262.22,622.22,245.9,629,223.81,629
		c-32.63,0-59-17.32-59-52.22v-31.63c0-37.41,26.36-53.48,58.24-53.48c30.87,0,56,15.57,56,53.48L279,569.25z M222.77,523.56
		c-11.55,0-19.33,6-19.33,19.83v5.27h38.65v-5.27c0.04-13.56-7.99-19.83-19.28-19.83H222.77z"/>
	<path fill="#393839" d="M299.87,626c-3,0-4.52-1.76-4.52-4.52V507.24c-0.186-2.281,1.135-4.418,3.26-5.27
		c16.785-6.664,34.661-10.157,52.72-10.3c38.15,0,59.74,20.59,59.74,58.25v71.55c0,2.76-1.5,4.52-4.52,4.52h-29.62
		c-3,0-4.52-1.76-4.52-4.52v-71.55c0-18.33-7.78-24.1-21.08-24.1c-5.934-0.073-11.848,0.688-17.57,2.26v93.39
		c0,2.76-1.51,4.52-4.27,4.52L299.87,626z"/>
	<path fill="#393839" d="M479.35,629c-18.657-0.028-36.867-5.719-52.22-16.32c-2.51-1.76-2.76-3.76-1.25-6.27l11.79-20.09
		c1.76-2.76,3.52-3.26,6-1.51c10.541,7.325,23.063,11.267,35.9,11.3c10.54,0,17.82-3.51,17.82-10s-8-8.79-18.07-10.54
		C452,571,429.64,559.46,429.64,533.1c0-27.62,21.59-41.43,54.48-41.43c15.06,0,29.11,3.52,44.43,11.55c2.51,1.26,3,3.52,1.5,6
		l-11.54,19.58c-1.51,2.51-3.52,3-6,1.76c-8.994-4.698-18.974-7.193-29.12-7.28c-10.79,0-16.06,3-16.06,9.29c0,7,5.77,9,21.84,11.54
		c26.1,4.52,46.94,15.32,46.94,40.93C536.08,614.44,515.24,629,479.35,629z"/>
	<path fill="#393839" d="M661.58,569.25c0,2.76-1.5,4.27-4.51,4.27H586v4c0,12.81,8.29,19.34,21.59,19.34
		c12.55,0,22.85-3.77,31.88-9c2.26-1.76,4.27-1.26,5.78,1l13.05,17.32c1.51,2.26,1.51,4.52-0.75,6.28
		c-12.8,9.79-29.12,16.57-51.21,16.57c-32.64,0-59-17.32-59-52.22v-31.66c0-37.41,26.35-53.48,58.23-53.48
		c30.88,0,56,15.57,56,53.48L661.58,569.25z M605.35,523.56c-11.54,0-19.33,6-19.33,19.83v5.27h38.66v-5.27
		C624.68,529.83,616.65,523.56,605.35,523.56L605.35,523.56z"/>
	<path fill="#393839" d="M681.41,625.74c-3.007,0-4.513-1.507-4.52-4.52v-114c-0.054-2.248,1.225-4.315,3.26-5.27
		c14.419-6.885,30.212-10.407,46.19-10.3c7.54,0,15.32,1,24.35,2.52c2.76,0.5,4,2,4,4.77v23.09c0,3-1.76,4.52-4.77,4
		c-5.156-0.706-10.356-1.041-15.56-1c-7.53,0-14.31,1.26-19.08,3.27v92.89c0,3-1.51,4.52-4.27,4.52L681.41,625.74z"/>
	<path fill="#393839" d="M812.94,625.74c-2.208,0.055-4.172-1.394-4.77-3.52L766,500.21c-1.25-3,0.25-5,3.52-5h31.62
		c2.51,0,4.27,1.25,4.77,3.51l15.32,55c2.76,8.53,6.27,21.84,9,32.88H831c2.76-11,6.52-24.35,9-32.88l15.57-55
		c0.647-2.191,2.72-3.646,5-3.51h31.63c3.26,0,4.52,2,3.51,5l-42.67,122c-1,2.26-2.51,3.52-5,3.52L812.94,625.74z"/>
	<path fill="#393839" d="M956,491.67c34.65,0,55,18.08,55,56.24v68.79c0.132,2.363-1.462,4.477-3.77,5
		c-14.81,4.52-34.64,7.28-51.71,7.28c-36.15,0-59-13.56-59-43.18c0-26.11,20.59-39.16,54.73-39.16
		c7.134,0.072,14.256,0.573,21.33,1.5v-2.51c0-13.31-4.77-20.59-21.08-20.59c-11,0-24.1,3-31.38,7c-2.26,1.26-4.77,1-6-1.5
		L903.81,511c-1.26-2.51-1.26-4.27,0.5-5.53C916.11,498,934.44,491.67,956,491.67z M955.5,597.87c5.743-0.092,11.461-0.762,17.07-2
		v-22.1c-5.716-1.025-11.513-1.531-17.32-1.51c-13.81,0-19.83,4.52-19.83,12.55c0.02,8.79,8.05,13.06,20.1,13.06H955.5z"/>
</g>
<g>
	<polygon fill="#80BC00" points="685.57,322.24 511.44,422.72 333.5,320.04 333.72,319.92 333.59,319.84 333.5,319.9 333.5,197.56 
		393.19,232.42 393.19,285.6 393.19,285.6 511.81,354.05 586.36,311.03 333.5,164.75 333.5,119.72 	"/>
	<polygon fill="#80BC00" points="690.5,313.72 690.5,267.41 437.58,122.44 512.19,79.38 630.81,148.52 630.81,200.6 690.5,234.61 
		690.5,113.39 690.5,113.39 690.5,113.29 512.56,10.72 338.43,111.2 	"/>
</g>
</svg>
