<?xml version="1.0" encoding="UTF-8"?>
<svg version="1.1" xmlns="http://www.w3.org/2000/svg" width="168" height="168">
<path d="M0 0 C55.44 0 110.88 0 168 0 C168 55.44 168 110.88 168 168 C112.56 168 57.12 168 0 168 C0 112.56 0 57.12 0 0 Z " fill="#010101" transform="translate(0,0)"/>
<path d="M0 0 C13.2 0 26.4 0 40 0 C40 7.92 40 15.84 40 24 C36.37 24 32.74 24 29 24 C28.67 20.04 28.34 16.08 28 12 C22.39 11.67 16.78 11.34 11 11 C10.94498986 18.50811967 10.94262661 26.01378598 10.98779297 33.52197266 C10.99587425 36.0727486 10.98989044 38.62361126 10.96923828 41.17431641 C10.9419364 44.85432273 10.96620823 48.53104487 11 52.2109375 C10.9805835 53.34050873 10.96116699 54.47007996 10.94116211 55.63388062 C11.0988344 64.40701881 14.04757131 68.75645417 20 75 C21.09205424 76.32957197 22.1740432 77.66759136 23.23828125 79.01953125 C24.26231887 80.28442278 25.28706426 81.54874164 26.3125 82.8125 C26.86010986 83.48756592 27.40771973 84.16263184 27.97192383 84.8581543 C32.10604507 89.93827413 36.3072334 94.9573471 40.57348633 99.92700195 C42.53812721 102.22388453 44.31984442 104.47976664 46 107 C49.76158487 106.46390714 51.93185581 105.61328928 54.8203125 103.15625 C55.51479492 102.57399658 56.20927734 101.99174316 56.92480469 101.3918457 C57.65086914 100.76753662 58.37693359 100.14322754 59.125 99.5 C60.65351514 98.21208446 62.18216086 96.92432387 63.7109375 95.63671875 C64.44924805 95.00942871 65.18755859 94.38213867 65.94824219 93.73583984 C68.52122407 91.55903104 71.13076019 89.43338887 73.75 87.3125 C78.3805051 83.53162886 82.94862356 79.68055101 87.49902344 75.80395508 C88.99520042 74.53107758 90.4974805 73.26538446 92 72 C92.88945313 71.23300781 93.77890625 70.46601562 94.6953125 69.67578125 C97 68 97 68 100 68 C101.38671875 69.53125 101.38671875 69.53125 102.6875 71.5 C103.12449219 72.1496875 103.56148438 72.799375 104.01171875 73.46875 C104.33785156 73.9740625 104.66398437 74.479375 105 75 C103.62840255 78.17404746 102.15773943 79.97625583 99.47265625 82.13671875 C98.76842529 82.70938477 98.06419434 83.28205078 97.33862305 83.87207031 C96.58750244 84.47116211 95.83638184 85.07025391 95.0625 85.6875 C94.29268799 86.31108398 93.52287598 86.93466797 92.72973633 87.57714844 C91.19029855 88.82365937 89.64858976 90.06737147 88.10449219 91.30810547 C85.45265402 93.44003569 82.81903621 95.59306636 80.1875 97.75 C79.33800781 98.44351563 78.48851563 99.13703125 77.61328125 99.8515625 C75.20724587 101.82961849 72.81545706 103.82382786 70.42797852 105.82421875 C62.47835024 112.48286039 54.31890226 118.81182475 46 125 C34.00003406 112.25126771 34.00003406 112.25126771 28.96484375 105.56640625 C26.25571491 102.02784234 23.43974655 98.57980781 20.625 95.125 C19.77917358 94.08520996 19.77917358 94.08520996 18.91625977 93.02441406 C16.39836433 89.9320703 13.8753569 86.84422995 11.3359375 83.76953125 C10.56507812 82.83496094 9.79421875 81.90039062 9 80.9375 C8.01 79.74447266 8.01 79.74447266 7 78.52734375 C6.34 77.69332031 5.68 76.85929687 5 76 C4.1438208 75.11828125 3.2876416 74.2365625 2.40551758 73.328125 C-1.70060265 67.50449978 -0.61006082 60.03642615 -0.48828125 53.22265625 C-0.47894453 51.6856756 -0.47183248 50.14867998 -0.46684265 48.61167908 C-0.44783994 44.58521746 -0.39879936 40.55967155 -0.34332275 36.53356934 C-0.28294201 31.69282706 -0.2601818 26.85177692 -0.23105621 22.01076508 C-0.182728 14.67320841 -0.08687045 7.33765705 0 0 Z " fill="#FAFAFA" transform="translate(10,19)"/>
<path d="M0 0 C5.39352589 -0.02290785 10.78688421 -0.04283526 16.18041992 -0.05493164 C18.01668875 -0.05997231 19.85295354 -0.06680477 21.68920898 -0.07543945 C24.32276401 -0.08751672 26.95626616 -0.09323081 29.58984375 -0.09765625 C30.41588608 -0.10281754 31.24192841 -0.10797882 32.09300232 -0.11329651 C34.06236368 -0.11349205 36.03161614 -0.06204152 38 0 C39.84009052 1.84009052 39.16621717 4.80855199 39.19287109 7.27636719 C39.20513733 8.25940323 39.20513733 8.25940323 39.21765137 9.26229858 C39.24254979 11.44048133 39.25903489 13.61859859 39.2734375 15.796875 C39.27876118 16.53993141 39.28408485 17.28298782 39.28956985 18.0485611 C39.3163242 21.98353546 39.33568935 25.91847788 39.35009766 29.85351562 C39.36672719 33.91700357 39.41148278 37.97967752 39.4624691 42.04285812 C39.49614793 45.1673067 39.50767585 48.29156257 39.51332474 51.41617584 C39.5200385 52.91371105 39.53526412 54.41123352 39.55921555 55.90859222 C39.59087984 58.00841653 39.59090362 60.10605378 39.58349609 62.20605469 C39.59158295 63.39994812 39.5996698 64.59384155 39.60800171 65.82391357 C38.82049068 69.9377229 37.15407039 71.33607764 34 74 C33.03964844 74.83917969 32.07929688 75.67835937 31.08984375 76.54296875 C30.04112015 77.42692614 28.99025252 78.30834474 27.9375 79.1875 C27.37240723 79.6623584 26.80731445 80.1372168 26.22509766 80.62646484 C24.48551654 82.08685991 22.74304461 83.54374155 21 85 C19.95701554 85.87367917 18.91404619 86.74737636 17.87109375 87.62109375 C10.40202465 93.86317105 2.87648547 100.03474101 -4.67578125 106.17578125 C-10.21922196 110.69236175 -15.70207292 115.27232381 -21.15039062 119.90258789 C-25.57142694 123.65375025 -30.04705051 127.33361958 -34.5546875 130.98046875 C-36.76386742 132.80498315 -38.88155772 134.69712889 -41 136.625 C-42.485 137.800625 -42.485 137.800625 -44 139 C-48.06623972 137.64458676 -49.53046818 135.42990531 -52 132 C-50.76145489 128.28436466 -49.30982822 127.40541409 -46.25 125 C-45.25226563 124.20335937 -44.25453125 123.40671875 -43.2265625 122.5859375 C-42.69708008 122.1640918 -42.16759766 121.74224609 -41.62207031 121.30761719 C-38.91681322 119.12679886 -36.27187464 116.87602419 -33.625 114.625 C-33.08125732 114.16416016 -32.53751465 113.70332031 -31.97729492 113.22851562 C-29.23835094 110.90627119 -26.50516991 108.57747889 -23.77734375 106.2421875 C-17.70407672 101.05525923 -11.54016962 96.02713095 -5.23291016 91.12719727 C-0.6646161 87.56316757 3.75466449 83.84921471 8.14941406 80.07446289 C12.61752861 76.26201051 17.23947283 72.67735986 21.95141602 69.17163086 C24.93908202 66.99792439 24.93908202 66.99792439 27 64 C27.11902812 62.30536742 27.17714687 60.60628878 27.20532227 58.90771484 C27.22526749 57.84676605 27.24521271 56.78581726 27.26576233 55.69271851 C27.28247482 54.54373077 27.29918732 53.39474304 27.31640625 52.2109375 C27.3475779 50.45059677 27.3475779 50.45059677 27.37937927 48.6546936 C27.44491983 44.89485696 27.50378076 41.13494878 27.5625 37.375 C27.60568092 34.83072168 27.64929507 32.28645067 27.69335938 29.7421875 C27.80060586 23.49486553 27.90186061 17.2474714 28 11 C22.39 11 16.78 11 11 11 C11 15.29 11 19.58 11 24 C7.37 24 3.74 24 0 24 C0 16.08 0 8.16 0 0 Z " fill="#FAFAFA" transform="translate(115,19)"/>
<path d="M0 0 C15.84 0 31.68 0 48 0 C48 11.22 48 22.44 48 34 C44.37 34 40.74 34 37 34 C37 26.41 37 18.82 37 11 C28.09 11 19.18 11 10 11 C10 24.86 10 38.72 10 53 C6.7 53 3.4 53 0 53 C0 35.51 0 18.02 0 0 Z " fill="#FCFCFC" transform="translate(58,14)"/>
<path d="M0 0 C3.34998521 1.11666174 3.79340222 1.74694925 5.6875 4.5625 C6.12449219 5.20316406 6.56148437 5.84382813 7.01171875 6.50390625 C7.33785156 6.99761719 7.66398437 7.49132812 8 8 C1.78540674 13.75781465 -4.50524235 19.31619118 -11.1015625 24.63671875 C-13.78142419 26.82178118 -16.41814735 29.0475997 -19.04638672 31.29394531 C-32.74270624 43 -32.74270624 43 -35 43 C-35 31.12 -35 19.24 -35 7 C-31.37 7 -27.74 7 -24 7 C-23.67 10.96 -23.34 14.92 -23 19 C-20.29148438 16.77105451 -17.58318215 14.5418506 -14.875 12.3125 C-14.11445312 11.68666016 -13.35390625 11.06082031 -12.5703125 10.41601562 C-11.82265625 9.80048828 -11.075 9.18496094 -10.3046875 8.55078125 C-9.56959961 7.94959473 -8.83451172 7.3484082 -8.07714844 6.72900391 C-6.76893586 5.64005686 -5.47757388 4.53021595 -4.21191406 3.39208984 C-2.6328125 1.98046875 -2.6328125 1.98046875 0 0 Z " fill="#F8F8F8" transform="translate(93,67)"/>
</svg>
