<svg width="75" height="75" viewBox="0 0 75 75" fill="none" xmlns="http://www.w3.org/2000/svg">
    <g>
        <path d="M24.6429 42.5501L25.5874 40.369C26.6081 41.1264 27.9637 41.5203 29.3043 41.5203C30.2946 41.5203 30.9192 41.1417 30.9192 40.5661C30.9039 38.9604 24.9934 40.2177 24.9477 36.1885C24.9324 34.1435 26.7605 32.5683 29.3503 32.5683C30.8888 32.5683 32.4275 32.9469 33.5243 33.8104L32.6408 36.0369C31.6354 35.4006 30.3862 34.9464 29.1981 34.9464C28.3906 34.9464 27.8575 35.325 27.8575 35.8097C27.8728 37.3849 33.8289 36.5216 33.8899 40.3688C33.8899 42.4592 32.1076 43.9284 29.5484 43.9284C27.6746 43.9284 25.9533 43.4891 24.6433 42.5499L24.6429 42.5501ZM60.8837 39.581C60.4115 40.3989 59.528 40.9594 58.5074 40.9594C56.9992 40.9594 55.7807 39.7478 55.7807 38.2482C55.7807 36.7486 56.9992 35.537 58.5074 35.537C59.528 35.537 60.4115 36.0974 60.8837 36.9154L63.4886 35.4765C62.5136 33.7497 60.6399 32.5683 58.5071 32.5683C55.3538 32.5683 52.7946 35.113 52.7946 38.2484C52.7946 41.3839 55.3538 43.9286 58.5071 43.9286C60.6552 43.9286 62.5136 42.7621 63.4886 41.0203L60.8837 39.5814V39.581ZM35.2001 27.8571H38.46V43.7161H35.2001V27.8571ZM64.7682 27.8571V43.7161H68.028V38.96L71.8974 43.7161H76.0714L71.151 38.0662L75.7058 32.7951H71.7146L68.028 37.1727V27.8571H64.7682ZM48.1484 39.6112C47.6763 40.3836 46.7013 40.9592 45.6044 40.9592C44.0962 40.9592 42.8777 39.7476 42.8777 38.248C42.8777 36.7484 44.0962 35.5368 45.6044 35.5368C46.7011 35.5368 47.6761 36.1426 48.1484 36.9302V39.6112ZM48.1484 32.7951V34.0827C47.6153 33.1889 46.29 32.5679 44.9037 32.5679C42.0398 32.5679 39.7853 35.0823 39.7853 38.2328C39.7853 41.3833 42.0398 43.9281 44.9037 43.9281C46.29 43.9281 47.6153 43.3071 48.1484 42.4134V43.7009H51.4083V32.7951H48.1484Z" fill="black"/>
        <path d="M4.28576 39.6429C4.28576 40.8279 3.32793 41.7858 2.14288 41.7858C0.957829 41.7858 0 40.8279 0 39.6429C0 38.4578 0.957829 37.5 2.14288 37.5H4.28576V39.6429ZM5.35709 39.6429C5.35709 38.4578 6.31492 37.5 7.49997 37.5C8.68503 37.5 9.64286 38.4578 9.64286 39.6429V45C9.64286 46.185 8.68503 47.1429 7.49997 47.1429C6.31492 47.1429 5.35709 46.185 5.35709 45V39.6429Z" fill="#E01E5A"/>
        <path d="M7.50354 32.1357C6.32046 32.1357 5.36423 31.1795 5.36423 29.9964C5.36423 28.8134 6.32046 27.8571 7.50354 27.8571C8.68662 27.8571 9.64286 28.8134 9.64286 29.9964V32.1357H7.50354ZM7.50354 33.2215C8.68662 33.2215 9.64286 34.1777 9.64286 35.3607C9.64286 36.5438 8.68662 37.5 7.50354 37.5H2.13931C0.956234 37.5 0 36.5438 0 35.3607C0 34.1777 0.956234 33.2215 2.13931 33.2215H7.50354Z" fill="#36C5F0"/>
        <path d="M15.4761 35.3607C15.4761 34.1776 16.3275 33.2214 17.3809 33.2214C18.4343 33.2214 19.2857 34.1776 19.2857 35.3607C19.2857 36.5438 18.4343 37.5 17.3809 37.5H15.4761V35.3607ZM14.5239 35.3607C14.5239 36.5438 13.6725 37.5 12.6191 37.5C11.5657 37.5 10.7143 36.5438 10.7143 35.3607V29.9965C10.7143 28.8134 11.5657 27.8571 12.6191 27.8571C13.6725 27.8571 14.5239 28.8134 14.5239 29.9965V35.3607Z" fill="#2EB67D"/>
        <path d="M12.6159 42.8571C13.6675 42.8571 14.5175 43.8149 14.5175 45C14.5175 46.185 13.6675 47.1429 12.6159 47.1429C11.5643 47.1429 10.7143 46.185 10.7143 45V42.8571H12.6159ZM12.6159 41.7858C11.5643 41.7858 10.7143 40.8279 10.7143 39.6429C10.7143 38.4578 11.5643 37.5 12.6159 37.5H17.3841C18.4357 37.5 19.2857 38.4578 19.2857 39.6429C19.2857 40.8279 18.4357 41.7858 17.3841 41.7858H12.6159Z" fill="#ECB22E"/>
    </g>
</svg>
