<svg xmlns="http://www.w3.org/2000/svg" viewBox="0 0 154 45"><path d="M32.19 12.31a7.28 7.28 0 015.33 2.12 7.08 7.08 0 012.15 5.23A7.32 7.32 0 0132.31 27a7.14 7.14 0 01-5.26-2.14 7 7 0 01-2.15-5.16 7.46 7.46 0 011-3.74 7.11 7.11 0 012.66-2.7 7.19 7.19 0 013.63-.95zm.07 1.36a6 6 0 00-5.13 3 6.06 6.06 0 00-.78 3.06 5.89 5.89 0 005.91 5.93 6 6 0 003-.79 5.67 5.67 0 002.16-2.16 6.07 6.07 0 00.78-3.05 5.94 5.94 0 00-.78-3 5.82 5.82 0 00-2.19-2.16 5.92 5.92 0 00-2.97-.83zm11.2 13.47V12.26h.33l9.9 11.41V12.26h1.47v14.88h-.34L45 15.87v11.27zm15.73-14.89h1.39v14.86h-1.39zm50.34.01h-2.85l-4 10.74h8.07l1.55 4h2.93zm-3.39 9l2-5.07 2 5.07zm12.11-9h2.82v12.09h5.6V27h-8.42zm11.41 0h2.81v12.09h5.61V27h-8.42zM77.17 23.53a6.28 6.28 0 01-4.87 2.23A6.14 6.14 0 0167.84 24a5.78 5.78 0 01-1.76-4.3 5.94 5.94 0 01.79-3.06 5.81 5.81 0 012.22-2.18 6.26 6.26 0 013.12-.81 6.48 6.48 0 012.79.65 6.13 6.13 0 012.17 1.7v-1.9a8 8 0 00-1.41-1 8 8 0 00-3.57-.78 7.48 7.48 0 00-5.43 2.12 7 7 0 00-2.17 5.2 7.46 7.46 0 001.79 5 7.33 7.33 0 005.83 2.46 8.21 8.21 0 003.52-.74 8 8 0 001.44-1zM17.31 19c-3.35-.69-4-1.56-4-2.93 0-1.46 1.38-2.51 3.29-2.51a5.91 5.91 0 014.11 1.55l.12.1v-1.72a7.12 7.12 0 00-4.22-1.23C14 12.26 12 13.92 12 16.12c0 2.22 1.41 3.41 4.87 4.11 3.25.65 3.87 1.51 3.87 2.85 0 1.56-1.41 2.65-3.42 2.65a6.65 6.65 0 01-5-2l-.11-.11v1.7a8 8 0 005 1.68c2.84 0 4.82-1.64 4.82-4 .03-2.13-1.39-3.33-4.72-4zm81.11-6.74l-3.37 10.05-.08.22-.07-.22-3.32-10.09h-2.71l-3.33 10.09-.07.22-.07-.22-3.38-10.05h-3.35l5.34 14.84h2.75l3.35-9.68.07-.2.07.2 3.35 9.68h2.75l5.34-14.84h-3.27zm41.92 2.8a1.68 1.68 0 111.66-1.67 1.67 1.67 0 01-1.66 1.67zm0-3.13a1.46 1.46 0 101.46 1.46 1.46 1.46 0 00-1.46-1.46zm.41 2.44l-.46-.77h-.19v.77h-.51v-2h.88a.6.6 0 01.69.61.56.56 0 01-.37.55l.56.83zm-.65-1.66v.55h.25c.2 0 .29-.09.29-.26a.26.26 0 00-.29-.29z" fill="#666"/><path d="M107 33.29s-6.88-2.48-8.39-6.6c-1.7-4.61 4.59-5.67 11-5.48 3.47.09 7.71.62 7.71.62s-10 1.28-13.64 4.2 3.32 7.26 3.32 7.26z" fill="#ff791a"/></svg>