<svg xmlns="http://www.w3.org/2000/svg" id="d9ea0856-ca6b-43ff-9513-56cc72f7d9ec" viewBox="0 0 62 65" fill="#fff" fill-rule="evenodd" stroke="#000" stroke-linecap="round" stroke-linejoin="round">
    <g stroke="none" fill-rule="nonzero" transform="translate(0.5 0.5)">
        <path d="M27.7 64C12.396 64 0 51.594 0 36.3S12.406 8.6 27.7 8.6s27.7 12.406 27.7 27.7S42.9 64 27.7 64zm0-46.725c-5.1 0-9.855 1.97-13.333 5.565a18.85 18.85 0 0 0-5.565 13.45c0 5.102 1.97 9.855 5.565 13.45s8.348 5.565 13.333 5.565a18.85 18.85 0 0 0 13.45-5.565c3.595-3.595 5.565-8.348 5.565-13.45s-1.97-9.855-5.565-13.45c-3.7-3.594-8.464-5.565-13.45-5.565zM57.846 4.3h2.203v2.203h-2.203zm0-4.3h2.203v2.203h-2.203zM51.7 6.377h1.97v2.087H51.7z" fill="#ffb71b"/>
        <g fill="#231f20">
            <path d="M47.76 10.55h2.087v1.97H47.76zm6.028-1.97h2.32v2.087h-2.32zm-8 0h1.97v1.97h-1.97zm5.912 1.97h1.97v1.97H51.7zm3.943-8.463h2.077v2.087h-2.087zM51.7 4.3h3.942v2.203H51.7z"/>
            <path d="M49.846 6.377h1.97v4.174h-1.97zm0 6.145v2.087H47.76v-2.087h-3.362v1.507h-1.855v1.855h1.97v1.97h-1.97v-1.97h-2.087v3.13H38.37v1.97h-1.4v2.087h-1.5c-1.623 2.435-5.797 10.203-7.072 13.333-4.522-6.377-8.116-8.812-10.9-9.74-1.507-.464-3.362 1.16-.812 3.7 5.68 6.26 7.536 11.478 9.275 15.652.928 2.203 4.986 2.55 5.913.348 1.74-4.754 4.3-10.087 7.304-14.377v-2.203H40.8V27.7h1.74v-2.32h1.97v-2.32h-2.087v-2.087h2.087v2.087h1.97v-2.087h1.74V18.55h1.855v-1.623H51.7v-4.3h-1.855z"/>
        </g>
    </g>
</svg>