<?xml version="1.0" encoding="UTF-8" standalone="no"?>
<svg
   xmlns:dc="http://purl.org/dc/elements/1.1/"
   xmlns:cc="http://creativecommons.org/ns#"
   xmlns:rdf="http://www.w3.org/1999/02/22-rdf-syntax-ns#"
   xmlns:svg="http://www.w3.org/2000/svg"
   xmlns="http://www.w3.org/2000/svg"
   viewBox="0 0 800 533.33331"
   height="533.33331"
   width="800"
   xml:space="preserve"
   id="svg2"
   version="1.1"><metadata
     id="metadata8"><rdf:RDF><cc:Work
         rdf:about=""><dc:format>image/svg+xml</dc:format><dc:type
           rdf:resource="http://purl.org/dc/dcmitype/StillImage" /></cc:Work></rdf:RDF></metadata><defs
     id="defs6"><clipPath
       id="clipPath18"
       clipPathUnits="userSpaceOnUse"><path
         id="path16"
         d="m 300,233.511 -34.044,34.044 h 68.088 z m 69.711,69.763 -23.727,-23.726 h -91.968 l -23.727,23.726 -30.833,-30.835 5.516,-5.502 0.033,0.033 27.326,-27.326 5.221,-5.207 8.469,8.492 -29.593,29.52 13.835,13.836 L 300,216.549 v -0.001 0.001 l 69.738,69.736 13.834,-13.836 -29.593,-29.52 8.47,-8.492 5.221,5.207 27.324,27.326 0.033,-0.033 5.517,5.502 z" /></clipPath><radialGradient
       id="radialGradient38"
       spreadMethod="pad"
       gradientTransform="matrix(77.425636,0,0,-77.425636,300,259.91113)"
       gradientUnits="userSpaceOnUse"
       r="1"
       cy="0"
       cx="0"
       fy="0"
       fx="0"><stop
         id="stop24"
         offset="0"
         style="stop-opacity:1;stop-color:#c6c5c5" /><stop
         id="stop26"
         offset="0.005618"
         style="stop-opacity:1;stop-color:#c6c5c5" /><stop
         id="stop28"
         offset="0.05473245"
         style="stop-opacity:1;stop-color:#c6c5c5" /><stop
         id="stop30"
         offset="0.297753"
         style="stop-opacity:1;stop-color:#bdbcbc" /><stop
         id="stop32"
         offset="0.657303"
         style="stop-opacity:1;stop-color:#a7a5a6" /><stop
         id="stop34"
         offset="0.71491806"
         style="stop-opacity:1;stop-color:#a7a5a6" /><stop
         id="stop36"
         offset="1"
         style="stop-opacity:1;stop-color:#9a9898" /></radialGradient><clipPath
       id="clipPath48"
       clipPathUnits="userSpaceOnUse"><path
         id="path46"
         d="m 313.351,108.72 h -26.703 l -1.911,1.949 15.263,15.263 15.264,-15.263 z m 60.811,106.49 -27.766,-27.764 v -16.964 l 27.766,27.765 V 179.6 l -27.742,-27.742 -0.024,-10.316 -22.618,-22.43 -12.403,12.406 16.324,16.323 v 51.846 l 7.242,7.243 5.077,-5.075 16.931,16.933 -13.554,13.556 -27.69,-27.69 v -47.271 h -31.41 v 47.271 l -27.689,27.69 -13.555,-13.556 16.932,-16.933 5.075,5.075 7.244,-7.243 v -51.846 l 16.324,-16.323 -12.405,-12.406 -22.618,22.43 -0.022,10.316 -27.742,27.742 v 18.647 l 27.764,-27.765 v 16.964 l -27.764,27.764 v 14.177 l -11.994,11.994 v -66.749 l 27.952,-27.95 -0.023,-10.304 39.93,-39.652 h 36.592 l 39.93,39.652 -0.024,10.304 27.954,27.95 v 66.749 l -11.994,-11.994 z" /></clipPath><linearGradient
       id="linearGradient58"
       spreadMethod="pad"
       gradientTransform="matrix(172.31152,0,0,-172.31152,213.84473,169.05273)"
       gradientUnits="userSpaceOnUse"
       y2="0"
       x2="1"
       y1="0"
       x1="0"><stop
         id="stop54"
         offset="0"
         style="stop-opacity:1;stop-color:#153255" /><stop
         id="stop56"
         offset="1"
         style="stop-opacity:1;stop-color:#2954ac" /></linearGradient></defs><g
     transform="matrix(1.3333333,0,0,-1.3333333,0,533.33333)"
     id="g10"><g
       id="g12"><g
         clip-path="url(#clipPath18)"
         id="g14"><g
           id="g20"><g
             id="g22"><path
               id="path40"
               style="fill:url(#radialGradient38);stroke:none"
               d="m 300,233.511 -34.044,34.044 h 68.088 z m 69.711,69.763 -23.727,-23.726 h -91.968 l -23.727,23.726 -30.833,-30.835 5.516,-5.502 0.033,0.033 27.326,-27.326 5.221,-5.207 8.469,8.492 -29.593,29.52 13.835,13.836 L 300,216.549 v -0.001 0.001 l 69.738,69.736 13.834,-13.836 -29.593,-29.52 8.47,-8.492 5.221,5.207 27.324,27.326 0.033,-0.033 5.517,5.502 z" /></g></g></g></g><g
       id="g42"><g
         clip-path="url(#clipPath48)"
         id="g44"><g
           id="g50"><g
             id="g52"><path
               id="path60"
               style="fill:url(#linearGradient58);stroke:none"
               d="m 313.351,108.72 h -26.703 l -1.911,1.949 15.263,15.263 15.264,-15.263 z m 60.811,106.49 -27.766,-27.764 v -16.964 l 27.766,27.765 V 179.6 l -27.742,-27.742 -0.024,-10.316 -22.618,-22.43 -12.403,12.406 16.324,16.323 v 51.846 l 7.242,7.243 5.077,-5.075 16.931,16.933 -13.554,13.556 -27.69,-27.69 v -47.271 h -31.41 v 47.271 l -27.689,27.69 -13.555,-13.556 16.932,-16.933 5.075,5.075 7.244,-7.243 v -51.846 l 16.324,-16.323 -12.405,-12.406 -22.618,22.43 -0.022,10.316 -27.742,27.742 v 18.647 l 27.764,-27.765 v 16.964 l -27.764,27.764 v 14.177 l -11.994,11.994 v -66.749 l 27.952,-27.95 -0.023,-10.304 39.93,-39.652 h 36.592 l 39.93,39.652 -0.024,10.304 27.954,27.95 v 66.749 l -11.994,-11.994 z" /></g></g></g></g></g></svg>