<?xml version="1.0" encoding="UTF-8"?>
<svg xmlns="http://www.w3.org/2000/svg" xmlns:xlink="http://www.w3.org/1999/xlink" width="100%" height="100%" viewBox="0 0 1350 900" version="1.1">
    <defs>
        <clipPath id="984686e6-cd2a-41a3-992d-d63244aa496b">
            <path d="M 448 217 L 902 217 L 902 414 L 448 414 Z M 448 217 "/>
        </clipPath>
        <clipPath id="f690cb3f-76f4-46a2-912b-d4e2462d8a0e">
            <path d="M 675 374.835938 L 598.402344 298.1875 L 751.597656 298.1875 Z M 831.851562 217.769531 L 778.464844 271.1875 L 571.535156 271.1875 L 518.148438 217.769531 L 448.777344 287.191406 L 461.1875 299.578125 L 461.261719 299.503906 L 522.746094 361.027344 L 534.492188 372.75 L 553.546875 353.628906 L 486.964844 287.167969 L 518.089844 256.019531 L 675 413.023438 L 831.910156 256.019531 L 863.035156 287.167969 L 796.453125 353.628906 L 815.511719 372.75 L 827.257812 361.027344 L 888.738281 299.503906 L 888.8125 299.578125 L 901.222656 287.191406 Z M 831.851562 217.769531 "/>
        </clipPath>
        <radialGradient id="radial0" gradientUnits="userSpaceOnUse" cx="0" cy="0" fx="0" fy="0" r="1" gradientTransform="matrix(174.207677,0,0,174.316625,674.999983,315.39709)">
            <stop offset="0" style="stop-color:rgb(77.647059%,77.254902%,77.254902%);stop-opacity:1;"/>
            <stop offset="0.005618" style="stop-color:rgb(77.647059%,77.254902%,77.254902%);stop-opacity:1;"/>
            <stop offset="0.0547325" style="stop-color:rgb(77.647059%,77.254902%,77.254902%);stop-opacity:1;"/>
            <stop offset="0.297753" style="stop-color:rgb(74.117647%,73.72549%,73.72549%);stop-opacity:1;"/>
            <stop offset="0.657303" style="stop-color:rgb(65.490196%,64.705882%,65.098039%);stop-opacity:1;"/>
            <stop offset="0.714918" style="stop-color:rgb(65.490196%,64.705882%,65.098039%);stop-opacity:1;"/>
            <stop offset="1" style="stop-color:rgb(60.392157%,59.607843%,59.607843%);stop-opacity:1;"/>
        </radialGradient>
        <clipPath id="093d3339-fc7a-4f64-929c-91658bbf257a">
            <path d="M 481 357 L 869 357 L 869 683 L 481 683 Z M 481 357 "/>
        </clipPath>
        <clipPath id="38b5b9cd-85a5-41d7-baa7-6c51e1ac526b">
            <path d="M 705.039062 655.789062 L 644.957031 655.789062 L 640.660156 651.402344 L 675 617.039062 L 709.34375 651.402344 Z M 841.863281 416.039062 L 779.390625 478.546875 L 779.390625 516.738281 L 841.863281 454.226562 L 841.863281 496.210938 L 779.445312 558.667969 L 779.390625 581.894531 L 728.5 632.394531 L 700.59375 604.460938 L 737.324219 567.710938 L 737.324219 450.984375 L 753.617188 434.679688 L 765.039062 446.105469 L 803.136719 407.980469 L 772.640625 377.460938 L 710.335938 439.804688 L 710.335938 546.230469 L 639.664062 546.230469 L 639.664062 439.804688 L 577.363281 377.460938 L 546.863281 407.980469 L 584.960938 446.105469 L 596.378906 434.679688 L 612.679688 450.984375 L 612.679688 567.710938 L 649.410156 604.460938 L 621.496094 632.394531 L 570.605469 581.894531 L 570.558594 558.667969 L 508.136719 496.210938 L 508.136719 454.226562 L 570.605469 516.738281 L 570.605469 478.546875 L 508.136719 416.039062 L 508.136719 384.121094 L 481.152344 357.117188 L 481.152344 507.394531 L 544.042969 570.320312 L 543.992188 593.519531 L 633.832031 682.792969 L 716.164062 682.792969 L 806.007812 593.519531 L 805.953125 570.320312 L 868.851562 507.394531 L 868.851562 357.117188 L 841.863281 384.121094 Z M 841.863281 416.039062 "/>
        </clipPath>
        <linearGradient id="60c9c510-32a6-4b53-8b53-c9f206b00d71" gradientUnits="userSpaceOnUse" x1="0" y1="0" x2="1" y2="0" gradientTransform="matrix(387.70091,0,0,387.943375,481.15063,519.956334)">
            <stop offset="0" style="stop-color:rgb(8.235294%,19.607843%,33.333333%);stop-opacity:1;"/>
            <stop offset="1" style="stop-color:rgb(16.078431%,32.941176%,67.45098%);stop-opacity:1;"/>
        </linearGradient>
    </defs>
    <g id="surface1">
        <g clip-path="url(#984686e6-cd2a-41a3-992d-d63244aa496b)" clip-rule="nonzero">
            <g clip-path="url(#f690cb3f-76f4-46a2-912b-d4e2462d8a0e)" clip-rule="nonzero">
                <path style=" stroke:none;fill-rule:nonzero;fill:url(#radial0);" d="M 675 374.835938 L 598.402344 298.1875 L 751.597656 298.1875 Z M 831.851562 217.769531 L 778.464844 271.1875 L 571.535156 271.1875 L 518.148438 217.769531 L 448.777344 287.191406 L 461.1875 299.578125 L 461.261719 299.503906 L 522.746094 361.027344 L 534.492188 372.75 L 553.546875 353.628906 L 486.964844 287.167969 L 518.089844 256.019531 L 675 413.023438 L 831.910156 256.019531 L 863.035156 287.167969 L 796.453125 353.628906 L 815.511719 372.75 L 827.257812 361.027344 L 888.738281 299.503906 L 888.8125 299.578125 L 901.222656 287.191406 Z M 831.851562 217.769531 "/>
            </g>
        </g>
        <g clip-path="url(#093d3339-fc7a-4f64-929c-91658bbf257a)" clip-rule="nonzero">
            <g clip-path="url(#38b5b9cd-85a5-41d7-baa7-6c51e1ac526b)" clip-rule="nonzero">
                <path style=" stroke:none;fill-rule:nonzero;fill:url(#60c9c510-32a6-4b53-8b53-c9f206b00d71);" d="M 705.039062 655.789062 L 644.957031 655.789062 L 640.660156 651.402344 L 675 617.039062 L 709.34375 651.402344 Z M 841.863281 416.039062 L 779.390625 478.546875 L 779.390625 516.738281 L 841.863281 454.226562 L 841.863281 496.210938 L 779.445312 558.667969 L 779.390625 581.894531 L 728.5 632.394531 L 700.59375 604.460938 L 737.324219 567.710938 L 737.324219 450.984375 L 753.617188 434.679688 L 765.039062 446.105469 L 803.136719 407.980469 L 772.640625 377.460938 L 710.335938 439.804688 L 710.335938 546.230469 L 639.664062 546.230469 L 639.664062 439.804688 L 577.363281 377.460938 L 546.863281 407.980469 L 584.960938 446.105469 L 596.378906 434.679688 L 612.679688 450.984375 L 612.679688 567.710938 L 649.410156 604.460938 L 621.496094 632.394531 L 570.605469 581.894531 L 570.558594 558.667969 L 508.136719 496.210938 L 508.136719 454.226562 L 570.605469 516.738281 L 570.605469 478.546875 L 508.136719 416.039062 L 508.136719 384.121094 L 481.152344 357.117188 L 481.152344 507.394531 L 544.042969 570.320312 L 543.992188 593.519531 L 633.832031 682.792969 L 716.164062 682.792969 L 806.007812 593.519531 L 805.953125 570.320312 L 868.851562 507.394531 L 868.851562 357.117188 L 841.863281 384.121094 Z M 841.863281 416.039062 "/>
            </g>
        </g>
    </g>
</svg>