<svg width="301" height="97" viewBox="0 0 301 97" fill="none" xmlns="http://www.w3.org/2000/svg" id="26dcfe73-7289-4686-b2ea-190ad36e86af">
<g clip-path="url(#a41a6d8e-961c-465f-84f7-8226d8b1173f)">
<path d="M96.815 40.9268H84.5752V33.7158H117.914V40.9268H105.674V71.9714H96.8244V40.9268H96.815Z" fill="#2D2D2D"/>
<path d="M145.953 63.7678H128.187L124.797 71.9621H115.723L132.776 33.7065H141.523L158.633 71.9621H149.343L145.953 63.7678ZM143.171 57.0438L137.103 42.3972L131.034 57.0438H143.171Z" fill="#2D2D2D"/>
<path d="M162.622 33.7065H171.472V64.7512H190.661V71.9621H162.622V33.7065Z" fill="#2D2D2D"/>
<path d="M202.769 70.0609C199.576 68.3471 197.085 65.9871 195.277 62.981C193.47 59.9749 192.571 56.5941 192.571 52.8388C192.571 49.0835 193.47 45.7027 195.277 42.6966C197.085 39.6905 199.576 37.3305 202.769 35.6168C205.953 33.903 209.54 33.0508 213.511 33.0508C217.482 33.0508 221.05 33.9123 224.224 35.6168C227.39 37.3305 229.89 39.6905 231.716 42.6966C233.542 45.7027 234.451 49.0835 234.451 52.8388C234.451 56.5941 233.542 59.9749 231.716 62.981C229.89 65.9871 227.399 68.3471 224.224 70.0609C221.059 71.7746 217.482 72.6268 213.511 72.6268C209.54 72.6268 205.953 71.7746 202.769 70.0609ZM219.636 63.5242C221.462 62.4847 222.885 61.0331 223.925 59.1789C224.964 57.3246 225.479 55.2081 225.479 52.8388C225.479 50.4695 224.964 48.353 223.925 46.4988C222.885 44.6445 221.452 43.193 219.636 42.1535C217.809 41.114 215.777 40.5989 213.511 40.5989C211.254 40.5989 209.212 41.114 207.386 42.1535C205.56 43.193 204.137 44.6445 203.097 46.4988C202.058 48.353 201.543 50.4695 201.543 52.8388C201.543 55.2081 202.058 57.3246 203.097 59.1789C204.137 61.0331 205.57 62.4847 207.386 63.5242C209.212 64.5637 211.245 65.0787 213.511 65.0787C215.768 65.0787 217.809 64.5637 219.636 63.5242Z" fill="#2D2D2D"/>
<path d="M276.2 33.7065V71.9621H268.932L249.856 48.7278V71.9621H241.109V33.7065H248.433L267.453 56.9315V33.7065H276.2Z" fill="#2D2D2D"/>
<path d="M80.7076 62.7659C79.6119 63.2903 76.3903 64.6482 71.9607 65.2757C67.9338 65.8376 62.9329 65.7907 57.595 63.9084C48.0428 60.5276 41.5061 52.3521 39.1368 42.444C37.3013 42.2099 35.5125 41.7791 33.8081 41.0018C30.7364 39.5877 28.2079 37.106 26.5691 34.1561C25.7543 32.6858 25.155 31.0938 24.7617 29.4549C24.4246 28.0408 23.872 25.9431 24.2279 24.5103C24.8085 24.9598 25.2862 25.6903 25.82 26.2428C26.3818 26.8141 26.9625 27.3572 27.5712 27.8723C28.7886 28.9024 30.0996 29.8295 31.4763 30.6349C33.8924 32.049 36.5146 33.0791 39.2492 33.6972C39.6331 33.7815 40.0265 33.8564 40.4198 33.9313C41.272 34.0812 42.1242 34.1842 42.9858 34.2498C48.2207 34.6337 53.643 33.5006 58.5971 35.1956C61.9497 36.3475 64.8246 38.7542 66.7164 41.7604C66.8287 41.9383 67.1379 42.4253 67.5031 43.1464C67.7747 43.6896 68.093 44.3826 68.3927 45.1692C69.376 47.8382 69.5821 50.2075 69.6102 51.7996V51.8558C68.9546 50.4229 68.9452 49.3085 66.0515 47.5198C63.7477 46.0963 58.6813 44.0735 56.0497 43.4461C55.8531 46.3586 56.106 50.6571 58.9154 54.9181C63.2046 61.5203 71.9046 64.7138 80.7076 62.7659Z" fill="url(#bd427d7a-1f26-45a8-a8d1-1a9e9a14c68e)"/>
<path d="M69.582 51.8277L69.5726 51.7996C69.5539 50.2076 69.3385 47.8383 68.3552 45.1693C68.0555 44.3733 67.7465 43.6896 67.4655 43.1465C68.2522 43.6616 69.4041 44.6448 70.0315 46.2837C71.0991 49.0651 69.7693 51.4906 69.582 51.8277Z" fill="url(#3a3d3485-23cc-11eb-adc1-0242ac120002)"/>
<path d="M66.3511 43.6611C66.3136 43.5019 66.0514 42.3688 64.9651 41.8256C64.2627 41.4791 63.3543 41.6571 63.1015 41.6945C62.6707 41.3106 62.7924 41.1513 62.755 41.1794C62.652 41.2731 63.167 42.35 64.141 43.015C65.04 43.6424 65.9765 43.6705 66.3511 43.6611Z" fill="white"/>
</g>
<defs>
<linearGradient id="bd427d7a-1f26-45a8-a8d1-1a9e9a14c68e" x1="38.7792" y1="27.0484" x2="69.9871" y2="70.7276" gradientUnits="userSpaceOnUse">
<stop offset="0.2171" stop-color="#EA215A"/>
<stop offset="0.3653" stop-color="#EC2A52"/>
<stop offset="0.6111" stop-color="#F1443C"/>
<stop offset="0.9225" stop-color="#F96D19"/>
<stop offset="1" stop-color="#FB780F"/>
</linearGradient>
<linearGradient id="3a3d3485-23cc-11eb-adc1-0242ac120002" x1="68.8167" y1="43.9869" x2="69.2506" y2="49.0502" gradientUnits="userSpaceOnUse">
<stop offset="0.0903" stop-color="#EC2B51"/>
<stop offset="0.1827" stop-color="#EF3A44"/>
<stop offset="0.3807" stop-color="#F4552D"/>
<stop offset="0.5821" stop-color="#F8691C"/>
<stop offset="0.7868" stop-color="#FA7412"/>
<stop offset="1" stop-color="#FB780F"/>
</linearGradient>
<clipPath id="a41a6d8e-961c-465f-84f7-8226d8b1173f">
<rect width="252.255" height="48" fill="white" transform="translate(24.1128 24.5103)"/>
</clipPath>
</defs>
</svg>
