<svg id="87b003e3-ad99-4399-be20-ffcdafb8ac2b" xmlns="http://www.w3.org/2000/svg" viewBox="0 0 326 72.5">
    <path d="M322.46 21.53h.37c.44 0 .66-.17.66-.49a.4.4 0 00-.17-.36.89.89 0 00-.52-.11h-.34v1zm1.53.07a1.26 1.26 0 01-.57.34l.9 1.34h-.82l-.75-1.28h-.29v1.24h-.7v-3.19h1c1 0 1.49.33 1.49 1a.76.76 0 01-.22.56zm.15 2.22A2.18 2.18 0 00325 23a2.58 2.58 0 000-2.49 2.23 2.23 0 00-.87-.88 2.5 2.5 0 00-1.26-.31 2.46 2.46 0 00-1.24.31 2.27 2.27 0 00-.86.88 2.58 2.58 0 000 2.49 2.22 2.22 0 00.86.86 2.56 2.56 0 001.24.31 2.61 2.61 0 001.26-.31zm.32-4.71a2.95 2.95 0 011.54 2.6 2.93 2.93 0 01-.41 1.51 2.87 2.87 0 01-1.13 1.08 3.28 3.28 0 01-3.14 0 2.93 2.93 0 01-1.53-2.59 3 3 0 01.41-1.51 3 3 0 011.12-1.09 3.21 3.21 0 013.14 0zm-219.73 9.75a1 1 0 01-.73.29h-8.73a.37.37 0 00-.42.41v19.83c0 2.08.47 3.59 1.41 4.52a6.15 6.15 0 004.49 1.4h2.57a1 1 0 01.72.29.94.94 0 01.3.7v6.17c0 .6-.34 1-1 1.07l-4.45.08q-6.77 0-10.1-2.22T85.35 53V29.56c0-.27-.14-.41-.43-.41h-4.87a1 1 0 01-.73-.29.92.92 0 01-.3-.7V22.4a1 1 0 01.3-.7 1 1 0 01.73-.28h4.87a.37.37 0 00.43-.42v-9.62a.92.92 0 01.3-.7 1 1 0 01.73-.29h7.44a1 1 0 01.73.29.92.92 0 01.3.7V21a.37.37 0 00.42.42H104a1 1 0 01.73.28 1 1 0 01.3.7v5.76a.92.92 0 01-.3.7zm14.64 1.65a8 8 0 00-3 4.23 13.81 13.81 0 00-.68 3.62c-.12.28 0 .41.34.41h17.37c.28 0 .42-.13.42-.41a14.52 14.52 0 00-.51-3.12 8 8 0 00-3-4.61 9.42 9.42 0 00-5.68-1.63 8.69 8.69 0 00-5.26 1.53zM144 42.31l-.09 2.55a.89.89 0 01-1 1h-26.83c-.29 0-.43.14-.43.41a11.34 11.34 0 00.77 3.7q2.06 5.92 10 6a10.89 10.89 0 009.24-4.61 1 1 0 01.86-.49.81.81 0 01.59.25l5.31 4.19a.86.86 0 01.25 1.32 17.27 17.27 0 01-7.05 5.59 23.67 23.67 0 01-9.8 2 21.12 21.12 0 01-11.33-2.88 16.68 16.68 0 01-6.8-8.07q-2-4.44-2-12.34a24.27 24.27 0 011-7.73 16.52 16.52 0 016.46-9.09 19.41 19.41 0 0111.42-3.33q16.86 0 19 17a29.07 29.07 0 01.34 4.6zm35.76-17.6q4.16 3.95 4.15 10.77v27a.94.94 0 01-.3.7 1 1 0 01-.73.29H175a1 1 0 01-.72-.29.94.94 0 01-.3-.7v-25a8.56 8.56 0 00-2.23-6.13 7.76 7.76 0 00-5.9-2.35 8 8 0 00-6 2.31 8.29 8.29 0 00-2.26 6.09v25.07a.94.94 0 01-.3.7 1 1 0 01-.73.29h-7.87a1 1 0 01-.73-.29.94.94 0 01-.3-.7V22.4a1 1 0 01.3-.7 1 1 0 01.73-.28h7.87a1 1 0 01.73.28 1 1 0 01.3.7V25a.31.31 0 00.17.32c.11.06.2 0 .25-.16q3.51-4.44 10.61-4.44 6.93 0 11.08 3.95zm32 29.7a6.46 6.46 0 003-5.43v-3.87c0-.27-.14-.41-.43-.41h-7.18a13.4 13.4 0 00-7.15 1.64 5.25 5.25 0 00-2.62 4.66 4.71 4.71 0 002 4.08 8.64 8.64 0 005.17 1.44 12.11 12.11 0 007.19-2.14zm4.68-31.84a14.71 14.71 0 016.33 5 12.22 12.22 0 012.23 7.2v27.7a.94.94 0 01-.3.7 1 1 0 01-.73.29h-7.87a1 1 0 01-.73-.29.94.94 0 01-.3-.7v-2.63c0-.17 0-.26-.17-.29a.36.36 0 00-.34.12q-4.19 4.44-12.15 4.45A17.09 17.09 0 01191.85 61q-4.15-3.12-4.15-9.3a11.86 11.86 0 014.66-10q4.66-3.59 13.13-3.58h9.16a.37.37 0 00.42-.41v-2a6.35 6.35 0 00-2-5c-1.32-1.18-3.28-1.77-5.91-1.77a10.75 10.75 0 00-5.26 1.12 4.83 4.83 0 00-2.52 3.08 1 1 0 01-1.2.82l-8.3-1a2 2 0 01-.72-.29.47.47 0 01-.22-.54 11.51 11.51 0 015.65-8.13c3.27-2.14 7.4-3.21 12.36-3.21a23.25 23.25 0 019.49 1.81zM257 42.48q0-6.42-2.56-10a7.71 7.71 0 00-6.86-3.48 7.1 7.1 0 00-6.41 3.62c-1.43 2.25-2.14 5.52-2.14 9.79s.65 7.41 2 9.55a7.19 7.19 0 006.67 4 8.74 8.74 0 004.28-1 7.76 7.76 0 003-2.92q2.02-3.56 2.02-9.56zm10.18-.17a30 30 0 01-1.62 10.29 16.3 16.3 0 01-16.34 11.52 12.55 12.55 0 01-9.84-4.37c-.11-.16-.23-.21-.34-.16a.32.32 0 00-.17.33v2.55a.94.94 0 01-.3.7 1 1 0 01-.73.29H230a1 1 0 01-.73-.29.94.94 0 01-.3-.7V6.85a1 1 0 01.3-.7 1 1 0 01.73-.28h7.87a1 1 0 01.73.28 1 1 0 01.3.7v17.86a.33.33 0 00.1.29.29.29 0 00.34-.09 12.34 12.34 0 019.75-4.19 17.23 17.23 0 0110.48 3 17.62 17.62 0 016.12 8.48 33.12 33.12 0 011.45 10zm4.09 20.92a.92.92 0 01-.3-.7V6.92a.92.92 0 01.3-.7 1 1 0 01.73-.29h7.87a1 1 0 01.73.29.92.92 0 01.3.7v55.61a.92.92 0 01-.3.7 1 1 0 01-.73.29H272a1 1 0 01-.73-.29z" class="cls-1" />
    <path d="M298.38 30.44a8.06 8.06 0 00-2.95 4.24 13.29 13.29 0 00-.69 3.62c-.11.28 0 .41.34.41h17.37c.28 0 .43-.13.43-.41a15.31 15.31 0 00-.52-3.13 7.91 7.91 0 00-3-4.6 9.42 9.42 0 00-5.69-1.65 8.73 8.73 0 00-5.26 1.52zM323 42.25l-.08 2.55c0 .66-.34 1-1 1h-26.84a.37.37 0 00-.42.41 11.14 11.14 0 00.77 3.7q2 5.93 10 6a10.92 10.92 0 009.24-4.61 1 1 0 01.86-.49.85.85 0 01.6.24l5.3 4.2a.86.86 0 01.26 1.32 17.39 17.39 0 01-7.06 5.59 23.62 23.62 0 01-9.79 2 21.18 21.18 0 01-11.34-2.87 16.68 16.68 0 01-6.8-8.07q-2-4.44-2-12.34a23.91 23.91 0 011-7.73 16.47 16.47 0 016.52-9.15 19.3 19.3 0 0111.42-3.34q16.85 0 19 17a28.06 28.06 0 01.34 4.61zM71 44.37L57.15 59.89l12.12-23a5.56 5.56 0 00.63-2.2l1.92 5.71a4.08 4.08 0 01-.82 4zM50 67.84a4.08 4.08 0 01-3.81 1.29L27 65.37l24.84-1.27a5.47 5.47 0 002-.47l-3.76 4.21zm-37.72-7.43L5.77 41.09 19.6 62.9a5.36 5.36 0 001.08 1.24l-5.32-1a4.06 4.06 0 01-3.08-2.69zM3.21 27l13.85-15.5-12.13 23a5.64 5.64 0 00-.62 2.21L2.39 31a4 4 0 01.82-4zM24.15 3.54A4 4 0 0128 2.26L47.25 6 22.36 7.28a5.74 5.74 0 00-2 .47l3.76-4.21zM61.5 23.43l5.71 9a3.39 3.39 0 01.14 3.4l-5.76 10.96V24.31a4.31 4.31 0 00-.09-.88zM12.7 48L7 39a3.43 3.43 0 01-.14-3.41l5.76-10.99v22.48a5.24 5.24 0 00.08.88zm46.71-.88a2.67 2.67 0 01-1.32 2.3L38.43 60.75a2.64 2.64 0 01-2.66 0L16.12 49.38a2.68 2.68 0 01-1.33-2.3V24.31A2.65 2.65 0 0116.12 22l19.65-11.37a2.64 2.64 0 012.66 0L58.09 22a2.65 2.65 0 011.32 2.3v22.78zM52.77 9.65l6.81 10.74c-.13-.09-.26-.18-.4-.26L39.52 8.75l-.28-.15 10.48-.53a3.4 3.4 0 013.05 1.58zm-30.3-.2l12.06-.61L15 20.13l-.09.05 4.69-8.91a3.43 3.43 0 012.84-1.82zm-1 52.29L14.63 51c.13.09.26.18.4.26l19.65 11.38.28.14-10.48.54a3.43 3.43 0 01-3-1.58zm30.29.19l-12 .61 19.5-11.28.08-.06-4.69 8.92a3.41 3.41 0 01-2.84 1.81zM61.93 11l6.5 19.32L54.6 8.48a5.79 5.79 0 00-1.07-1.24l5.32 1A4.09 4.09 0 0161.93 11zm11.95 28.66L64 10.29a6.27 6.27 0 00-4.73-4.14L28.39.12a6.27 6.27 0 00-5.86 2l-21 23.47a6.24 6.24 0 00-1.2 6.13l9.89 29.38a6.25 6.25 0 004.72 4.14l30.88 6a5.91 5.91 0 001.18.12 6.29 6.29 0 004.68-2.09l20.94-23.45a6.29 6.29 0 001.26-6.16z" class="cls-1" />
</svg>