<?xml version="1.0" encoding="utf-8"?>
<svg version="1.1" id="6a93b7a7-e49e-470d-9466-540a52f619a7" xmlns="http://www.w3.org/2000/svg" x="0px" y="0px" viewBox="0 0 75 75" enable-background="new 0 0 75 75" xml:space="preserve">
<g>
	<path fill="#D71920" d="M7.2,44.6c0,0,0-0.1,0-0.1c0-0.1,0.1-0.3,0.1-0.4c0-0.1,0.1-0.2,0.1-0.4c0-0.1,0-0.1,0.1-0.2
		c0.7-1.7,1.6-3.5,2.6-5.2c0.1-0.3,0.3-0.6,0.4-0.9l-4.4,0l1.1-2.4c3.7-1,9.8-3.3,15.6-9l0.2-0.3h3.1l-4,8.8l6.4,0.1l-1.2,2.6
		L21,37.3c0,0-3,6-4,10.2c-0.8,4.8,0,8.3,4.3,9.7c2.6,0.8,5.9,0.6,9.5-0.4c8.2-2.6,17-8.2,23.5-15.7C64.8,28.8,65.1,16.2,54.7,13
		c-6.6-2.1-16,0.2-24.7,5.4c10.8-7,22.7-10.2,30.9-7.7c1.5,0.5,2.9,1.1,4,2C58.1,5.2,48.4,0.5,37.5,0.5c-20.4,0-37,16.6-37,37
		c0,7.5,2.3,14.6,6.1,20.4C5.2,54.3,5.4,49.7,7.2,44.6"/>
	<path fill="#D71920" d="M68.9,17.9c2.5,6.7-0.6,16.8-9.2,26.7C46.9,59.5,26.6,68.5,14.4,64.7c-1.5-0.5-2.8-1.1-3.9-1.9
		c6.8,7.2,16.3,11.7,27,11.7c20.4,0,37-16.6,37-37C74.5,30.3,72.4,23.6,68.9,17.9"/>
</g>
</svg>