<?xml version="1.0" standalone="no"?>
<!DOCTYPE svg PUBLIC "-//W3C//DTD SVG 20010904//EN"
 "http://www.w3.org/TR/2001/REC-SVG-20010904/DTD/svg10.dtd">
<svg version="1.0" xmlns="http://www.w3.org/2000/svg"
 width="1080.000000pt" height="1080.000000pt" viewBox="0 0 1080.000000 1080.000000"
 preserveAspectRatio="xMidYMid meet">

<g transform="translate(0.000000,1080.000000) scale(0.100000,-0.100000)"
fill="#000000" stroke="none">
<path d="M5925 6909 c-233 -23 -402 -187 -449 -438 -13 -65 -16 -152 -16 -397
l0 -314 -38 19 c-20 10 -56 24 -80 30 l-42 12 0 529 0 530 -215 0 -215 0 0
-525 0 -525 -135 0 -135 0 0 525 0 525 -215 0 -215 0 0 -810 c0 -512 -4 -810
-10 -810 -10 0 -340 420 -340 433 0 4 29 7 65 7 l66 0 -3 63 -3 62 -285 0
-285 0 -3 -62 -3 -63 66 0 c36 0 65 -3 65 -6 0 -3 -75 -102 -166 -220 l-167
-214 -93 0 -94 0 0 -65 0 -65 250 0 250 0 0 65 0 64 -65 3 -65 3 33 47 32 47
242 1 241 0 35 -47 36 -48 -65 -3 -64 -3 0 -64 0 -65 165 0 165 0 0 -177 c0
-213 14 -396 35 -478 65 -250 254 -395 516 -396 54 0 124 5 156 11 142 30 272
126 336 247 75 145 87 242 87 695 l0 337 42 12 c24 6 59 20 80 30 l37 19 4
-453 c3 -376 6 -461 19 -505 61 -199 181 -325 361 -377 39 -11 94 -17 166 -17
167 1 282 45 388 151 124 125 162 287 163 699 l0 172 -215 0 -215 0 0 -235 c0
-136 -5 -256 -11 -287 -28 -129 -153 -157 -211 -46 -21 41 -22 56 -26 321 l-4
277 176 0 176 0 0 65 0 65 -110 0 -110 0 0 50 0 50 223 0 c268 1 353 10 427
48 76 39 113 93 118 176 9 133 -76 213 -250 236 -40 5 -203 10 -361 10 l-289
0 4 288 c3 268 5 290 25 334 54 119 183 94 212 -42 6 -28 11 -143 11 -255 l0
-205 215 0 215 0 0 143 c-1 181 -15 355 -35 432 -72 271 -297 414 -600 384z
m-1057 -1316 l3 -103 -56 0 -55 0 0 98 c0 54 3 102 7 106 4 4 28 6 53 4 l45
-3 3 -102z m1652 96 c63 -14 90 -42 90 -94 0 -46 -23 -75 -73 -94 -17 -7 -125
-11 -278 -11 l-249 0 0 105 0 105 233 0 c127 0 252 -5 277 -11z m-2781 -101
l72 -103 -147 -3 c-81 -1 -149 0 -151 2 -6 6 136 206 146 206 5 0 40 -46 80
-102z m1599 70 c11 -13 23 -35 27 -49 10 -41 -26 -99 -61 -99 -2 0 -4 38 -4
85 0 47 4 85 8 85 5 0 18 -10 30 -22z m-468 -348 l0 -50 -55 0 -55 0 0 50 0
50 55 0 55 0 0 -50z m0 -433 c0 -284 -8 -332 -60 -382 -58 -56 -143 -33 -185
51 -18 36 -20 63 -23 312 l-4 272 136 0 136 0 0 -253z"/>
<path d="M1377 5824 c-4 -4 -7 -34 -7 -66 l0 -58 105 0 105 0 0 -220 0 -220
-105 0 -105 0 0 -65 0 -65 265 0 265 0 0 65 0 65 -78 0 -79 0 -7 143 c-4 78
-11 166 -15 195 -5 32 -4 49 2 43 5 -5 91 -121 191 -258 l182 -248 49 0 49 0
190 258 c104 142 190 256 192 254 2 -2 0 -26 -6 -53 -5 -27 -13 -113 -17 -191
l-6 -143 -79 0 -78 0 0 -65 0 -65 265 0 265 0 0 65 0 65 -100 0 -100 0 0 220
0 220 100 0 100 0 0 65 0 65 -198 0 -197 0 -185 -259 c-144 -203 -188 -257
-197 -248 -7 7 -92 122 -190 257 l-178 245 -196 3 c-107 1 -198 -1 -202 -4z"/>
<path d="M6890 5765 l0 -65 100 0 100 0 0 -220 0 -220 -100 0 -100 0 0 -65 0
-65 560 0 560 0 0 140 0 140 -75 0 -75 0 0 -75 0 -75 -300 0 -300 0 0 80 0 80
135 0 135 0 0 -40 0 -40 65 0 65 0 0 140 0 140 -65 0 -65 0 0 -40 0 -40 -135
0 -135 0 0 80 0 80 300 0 300 0 0 -80 0 -81 73 3 72 3 0 140 0 140 -557 3
-558 2 0 -65z"/>
<path d="M8188 5824 c-5 -4 -8 -33 -8 -65 l0 -58 103 -3 102 -3 3 -217 2 -218
-105 0 -105 0 0 -65 0 -65 285 0 285 0 0 65 0 65 -100 0 -100 0 0 80 0 80 98
0 c155 0 178 -10 302 -138 134 -138 170 -157 295 -157 80 0 94 3 130 26 80 53
124 128 125 212 l0 47 -70 0 -70 0 0 -37 c0 -55 -31 -99 -80 -114 -60 -18
-107 0 -193 75 -39 34 -81 68 -92 74 -17 9 -10 11 40 12 170 1 276 77 277 200
0 90 -58 161 -157 191 -45 13 -955 26 -967 13z m929 -150 c39 -29 42 -72 8
-104 l-27 -25 -274 -3 -274 -3 0 81 0 81 269 -3 c255 -3 271 -4 298 -24z"/>
</g>
</svg>
