<svg width="100%" height="100%" viewBox="0 0 16 15" fill="none" xmlns="http://www.w3.org/2000/svg">
<path d="M15.5877 2.107V6.29137L11.9716 8.39345V4.20413L15.5877 2.107Z" fill="#32BEDD"/>
<path d="M15.5877 2.10702L11.9716 4.2091L8.35059 2.10208L11.9716 0L15.5877 2.10702Z" fill="#9CEBFF"/>
<path d="M15.5877 6.29138L11.9716 4.20414V8.39346L15.5877 6.29138Z" fill="#50E6FF"/>
<g clip-path="url(#clip0)">
<path d="M10.8784 6.59946V11.9794L6.22916 14.682V9.29577L10.8784 6.59946Z" fill="#32BEDD"/>
<path d="M10.8784 6.59946L6.22913 9.30213L1.57352 6.5931L6.22913 3.89043L10.8784 6.59946Z" fill="#9CEBFF"/>
<path d="M6.22913 9.30213V14.682L1.57352 11.9794V6.5931L6.22913 9.30213Z" fill="#50E6FF"/>
<path d="M1.57352 11.9794L6.22913 9.29578V14.682L1.57352 11.9794Z" fill="#9CEBFF"/>
<path d="M10.8784 11.9794L6.22916 9.29578V14.682L10.8784 11.9794Z" fill="#50E6FF"/>
</g>
<path fill-rule="evenodd" clip-rule="evenodd" d="M11.9716 8.39347V4.2091L8.35059 2.10207V4.38211L11.3999 6.09709V8.06156L11.9716 8.39347Z" fill="#50E6FF"/>
<path fill-rule="evenodd" clip-rule="evenodd" d="M11.3999 8.06152L11.9717 8.39346V4.20414L10.0272 5.32502L11.3999 6.09708V8.06152Z" fill="#9CEBFF"/>
<defs>
<clipPath id="clip0">
<rect width="11.4482" height="11.4466" fill="white" transform="translate(0.587708 3.55339)"/>
</clipPath>
</defs>
</svg>
