<svg xmlns="http://www.w3.org/2000/svg" width="138.048" height="72.96" viewBox="0 0 103.503 54.707" color-interpolation-filters="sRGB" xmlns:v="https://vecta.io/nano"><path d="M61.861.13l-2.97.22-1.01.12c-1.27.15-4.23.89-5.57 1.39l-.96.36c-.75.27-3.29 1.61-4.36 2.31-1 .64-3.36 2.65-3.76 3.18-.08.12-.29.36-.47.56-.47.52-1.84 2.36-2.06 2.78l-.38.66-1.27 2.42c-.31.64-.98 2.34-1.13 2.84-.02.09-.13.45-.24.82l-.28.95-.14.47c-.02.09-.04.22-.04.28a1.07 1.07 0 0 1-.08.29c-.04.1-.09.31-.11.46l-.14.93-.14.96-.03.32h2.38 2.37l.05-.13a26.22 26.22 0 0 0 .25-1.26c.21-1.21.38-1.92.61-2.59 1.2-3.53 3.26-6.61 5.88-8.85.58-.48 1.82-1.41 2.1-1.55.1-.06.27-.15.37-.22.26-.17 1.68-.89 2.28-1.15 1.14-.5 3.73-1.26 4.84-1.43.24-.03.52-.08.6-.11.23-.08 1.32-.2 2.37-.27l1.51-.11c.33-.03.8-.05 1.04-.05.51 0 .44.11.62-.92.06-.34.13-.65.15-.69.03-.03.08-.19.09-.35.02-.17.1-.56.17-.88.18-.82.31-1.62.27-1.72-.02-.07-.22-.08-1.26-.07l-1.55.03zM61.7 8.6a16.4 16.4 0 0 0-3.33.47l-2.21.62-.76.27c-.37.12-2.1.98-2.41 1.19l-.53.33c-.94.55-2.89 2.34-3.66 3.35a17.29 17.29 0 0 0-2.26 3.77c-.49 1.08-1.17 3.05-1.23 3.54l-.04.31 2.41-.02 2.41-.01.23-.71c.79-2.35 2.01-4.17 3.78-5.62a11.96 11.96 0 0 1 3.86-2.07c.72-.2 2.82-.62 3.34-.66.25-.02.47-.05.5-.07.1-.06.71-2.42.71-2.73 0-.06.04-.18.08-.26s.09-.27.12-.42a6.37 6.37 0 0 1 .14-.68c.19-.73.2-.66-.07-.65l-1.08.05zM6.62 17.631c-.44.02-.48.03-.51.14l-.52 2.52-.27 1.26-.41 1.91-.89 4.14-.44 2.08-.07.33c-.04.05-.51 2.27-.89 4.16l-.5 2.34-.4 1.77-.25 1.2-.33 1.48-.26 1.22-.55 3.08c-.33 2.54-.01 4.65.95 6.32.31.53.89 1.09 1.72 1.64.95.64 1.47.84 2.9 1.14 1.04.22 1.83.27 3.87.24 1.98-.03 2.18-.05 3.81-.47 1.46-.37 2.97-1.1 4.12-1.97.76-.58 1.85-1.8 2.47-2.75a25.47 25.47 0 0 0 1.39-2.68l.36-.92c.13-.34.4-1.3.52-1.83.02-.1.06-.24.09-.3.04-.06.22-.84.4-1.74l.5-2.35.21-.98.2-.9.18-.9c.02-.15.05-.3.07-.33s.16-.67.31-1.42l.44-2.04.68-3.13.69-3.17.24-1.09.19-.84.25-1.15.21-.98c.05-.16.21-.9.36-1.64l.44-2.07.2-.86c.06-.28.04-.28-2.82-.28l-2.83.06c-.1.03-.17.07-.17.07 0 .06-.35 1.77-.41 2l-.2.94-.16.83-.1.52c-.03.16-.08.36-.12.43l-.29 1.42-.42 1.98-.3 1.46-.32 1.54-.43 2.04-.41 1.92-.38 1.8a1.73 1.73 0 0 1-.1.37.6.6 0 0 0-.07.27c0 .09-.05.35-.1.6l-.55 2.55-.52 2.46-.28 1.3c-.68 3.37-1.19 4.67-2.45 6.1-.52.59-.88.88-1.55 1.22-.94.5-1.81.69-3.14.69-.57 0-.93-.03-1.2-.09-2.05-.49-3.01-1.88-2.9-4.21.04-.67.21-1.76.46-2.86l.4-1.98.29-1.4c.02-.02.07-.21.11-.42l.66-3.13.23-1.06.29-1.36.35-1.72.26-1.23c.03-.09.06-.24.08-.32a1.15 1.15 0 0 1 .07-.28c.04-.11.16-.65.31-1.47l.16-.79.27-1.36.27-1.31c.05-.16.2-.92.36-1.66l.41-1.93.65-3.06c.04-.22.1-.48.14-.57.08-.24.06-.51-.04-.54-.09-.04-4.09-.03-4.99 0zm58.971 0c-.15.03-.21.21-.41 1.27l-.32 1.55-.66 3.06-1.11 5.34-.19.99c0 .07-.04.25-.08.4-.08.25-.25 1-.37 1.61l-.21 1.01-.24 1.09-.44 2.15-.17.88c-.02.14-.06.37-.1.49s-.09.36-.11.54-.1.61-.19.96l-.52 2.37-.6 2.91-.49 2.38-.3 1.43c-.03.13-.06.29-.06.36a.4.4 0 0 1-.08.23.46.46 0 0 0-.08.24c0 .07-.08.49-.17.92l-.22 1.07-.15.73-.44 2.2c0 .09.11.09 2.77.09h2.77l.06-.18c.04-.09.1-.38.15-.63l.23-1.01.21-1.01.35-1.61.33-1.5c.03-.19.15-.72.25-1.17l.25-1.12.21-.93.27-1.19.33-1.56.28-1.28.17-.71a15.9 15.9 0 0 0 .21-.98l.2-1.03.09-.47 6.41-.02 6.41-.01.2-1.02.29-1.51.43-2.16c.06-.09-.87-.1-5.89-.1-2.94 0-5.68-.02-6.09-.04-.88-.04-.82.05-.61-.93l.38-1.84.46-2.1.36-1.68.27-1.36.28-1.38.17-.83c.02-.02 2.89-.05 6.38-.07l6.38-.07c.06-.04.24-.73.45-1.73l.41-1.77.24-1.16v-.15l-9.11.01-9.24.03zm-5.611.145c-1.04.22-1.91.55-2.49.93-.62.41-1.63 1.37-1.96 1.86l-1.05 1.76-.04.12h2.7l2.82-.05c.06-.04.1-.12.1-.21 0-.08.04-.22.08-.31.04-.08.11-.33.14-.54.06-.36.31-1.46.6-2.62a8.43 8.43 0 0 0 .15-.78l.02-.29-.24.01c-.12 0-.5.06-.83.12zm39.144-.07c-.48.09-.65.16-1.07.42-1.02.61-1.59 1.39-1.81 2.48-.34 1.65.43 3.37 1.83 4.08 1.07.54 2.46.54 3.5-.02.64-.34 1.35-1.15 1.57-1.77.26-.78.36-2.54.14-2.78-.05-.06-.1-.16-.1-.22 0-.29-.72-1.18-1.3-1.63-.65-.49-1.87-.74-2.76-.56zm1.51.47c.77.23 1.43.78 1.76 1.48.25.53.35.92.39 1.67.03.52.02.66-.09 1.04-.16.59-.38.96-.84 1.42-.65.65-1.54 1.01-2.25.92-.49-.06-.79-.17-1.23-.46-1.34-.87-1.78-2.9-.99-4.56.2-.43.77-1.02 1.18-1.22.74-.38 1.44-.48 2.07-.29zm-2.154 1.658a21.24 21.24 0 0 0-.06 2.72l.04 1.04h.18c.11 0 .19-.02.19-.04.01-.03.02-.4.05-.83.03-.78.03-.8.16-.81.39-.06.75.16.93.56a5.43 5.43 0 0 0 .66 1.02c.08.07.18.1.38.1.15 0 .27-.02.27-.05s-.11-.22-.25-.42l-.39-.65c-.08-.15-.19-.32-.25-.37-.06-.06-.09-.16-.08-.25.02-.12.05-.15.25-.18.3-.03.5-.18.66-.48.1-.2.12-.31.1-.61-.01-.31-.04-.39-.18-.57-.28-.35-.54-.42-1.67-.45l-.96-.02-.03.29zm2.01.24a.73.73 0 0 1 .41.57c0 .2-.19.49-.36.55-.08.03-.43.05-.78.04l-.63-.01-.02-.57c-.01-.42.01-.58.06-.62.12-.07 1.12-.05 1.32.04zm-12.241-2.251c-.02.07-.07.31-.11.54l-.38 1.68c-.14.47-.54 2.32-.51 2.36.01.02 1.13.04 2.48.04h2.45v-.38c0-.57-.41-1.78-.77-2.25-.55-.72-1.69-1.61-2.51-1.94-.49-.2-.58-.21-.65-.05zm-46.538 8.276l-.59.11c-.47.08-1.28.33-1.89.6-1.32.57-3.04 1.84-3.73 2.74-.32.42-.48.53-.6.42-.09-.07-.11-.22-.03-.3.02-.03.06-.15.08-.27l.25-1.53.11-.85c0-.18-.02-.2-.17-.24-.2-.04-4.65.03-4.72.08-.07.04-.19.53-.4 1.64l-.39 1.82-.48 2.43c-.02.14-.06.3-.1.36-.03.06-.09.27-.12.46l-.61 2.97-.92 4.53-.13.65-.41 1.95-.36 1.62c-.01.02-.08.31-.13.64l-.35 1.76-.45 2.1-.27 1.28-.57 2.86v.14h2.66 2.66l.06-.23c.04-.13.09-.33.1-.45.02-.12.05-.24.08-.27.02-.03.1-.34.16-.69l.3-1.47.44-2.09.6-3.01.52-2.53.24-1.12a15.15 15.15 0 0 0 .22-1.01l.71-3.43.21-1.06c.23-1.14.47-2.05.58-2.19.03-.03.1-.19.16-.35.12-.33.56-1.11.82-1.45.08-.11.34-.39.55-.61 1.19-1.21 2.62-1.72 4.26-1.54 1.27.14 1.91.56 2.24 1.46.15.41.19 1.43.1 2.18a43.24 43.24 0 0 1-.52 2.82c-.05.18-.13.6-.19.93l-.69 3.09-.24 1.19-.29 1.41a13.94 13.94 0 0 0-.23 1.04c-.04.29-.15.83-.24 1.2l-.44 2.1c0 .08-.04.23-.08.34-.05.1-.08.26-.08.33 0 .08-.02.22-.05.31-.07.23-.23.96-.55 2.51l-.42 2-.12.72c.01.01 1.18.04 2.61.06l2.68-.03c.05-.05.12-.27.18-.59.08-.49.23-1.18.54-2.51l.74-3.44.27-1.23c.03-.09.08-.34.11-.57.04-.22.09-.43.11-.46.04-.03.06-.13.06-.22 0-.1.04-.29.08-.44s.08-.33.08-.4.09-.48.19-.93l.39-1.75.33-1.58.35-1.69.35-1.63.41-1.97.22-.98c.27-.92.34-1.61.35-2.83 0-1.48-.07-1.84-.5-2.73-.58-1.18-1.26-1.66-2.96-2.05-.49-.11-.75-.13-1.75-.16-.64-.01-1.27 0-1.39.03zm12.11.613c-.05.13-.58 2.63-.72 3.34l-.38 1.83-1.01 4.8-.41 1.9-.13.6c-.02.17-.19 1.01-.37 1.88l-.42 2.02-.27 1.31-.39 1.77-.32 1.61-.16.77-.38 1.86-.71 3.29c-.03.12-.02.15.09.18.07.02 1.24.03 2.61.03h2.48l.18-.78.26-1.23.57-2.76.41-1.87.19-.81c.04-.11.36-1.63.66-3.21.03-.15.07-.29.1-.32.02-.03.06-.17.08-.3.02-.14.12-.63.22-1.09l.66-3.15c.04-.22.1-.44.12-.49.03-.05.09-.33.14-.61l.5-2.34.59-2.79.25-1.1c.03-.08.16-.72.3-1.42l.33-1.57.15-.71.12-.56.04-.15h-2.68l-2.7.07zm32.551 0l-.17.83-.28 1.31-.24 1.14-.65 3.01-.19.92c-.04.27-.13.66-.19.87l-.21.98-.37 1.67-.62 2.81-.57 2.8-.25 1.09-.22 1.07-.37 1.74-.46 2.07-.78 3.63-.24 1.13v.12h2.69 2.7l.03-.25.26-1.15.21-.99c0-.07.07-.42.16-.79l.42-1.86.73-3.46.19-.9.16-.74.24-1.12.3-1.34.44-2.07.35-1.66c.04-.09.15-.63.25-1.2l.33-1.52.22-1.01.33-1.55.38-1.75.27-1.25.32-1.48.23-1.05.03-.12h-2.7l-2.73.07z"/></svg>