<?xml version="1.0" encoding="UTF-8" standalone="no"?>
<svg
   version="1.1"
   id="55724a71-d335-4a53-b7f1-9cebe6f91fec"
   width="377.94666"
   height="84.573334"
   viewBox="0 0 377.94666 84.573334"
   xmlns="http://www.w3.org/2000/svg">
  <g
     transform="matrix(1.3333333,0,0,-1.3333333,0,84.573333)">
    <g
       transform="scale(0.1)">
      <path
         d="M 358.668,12.6758 263.656,6.32813 V 58.5938 H 262.07 C 228.027,12.6758 194.773,0 138.559,0 55.4336,0 0,53.0469 0,138.574 v 276.348 l 100.551,12.652 V 165.488 c 0,-42.754 19.797,-78.3786 64.929,-78.3786 63.333,0 92.641,48.3006 92.641,98.9846 v 228.828 l 100.547,12.652 v -414.8982 0"
         fill="#231f20"
         fill-opacity="1"
         fill-rule="nonzero"
         stroke="none" />
      <path
         d="M 462.383,484.586 562.934,529.73 V 414.922 h 91.054 V 327.82 H 562.934 V 155.996 c 0,-38.789 16.632,-64.1405 75.214,-64.1405 11.09,0 23.766,0.8008 34.844,1.6015 L 648.453,3.16406 C 638.949,0.800781 621.523,0 608.863,0 524.141,0 462.383,45.1367 462.383,134.609 V 327.82 h -61.758 l 22.168,87.102 h 39.59 v 69.664 0"
         fill="#231f20"
         fill-opacity="1"
         fill-rule="nonzero"
         stroke="none" />
      <path
         d="m 881.211,414.922 95.012,9.492 v -51.465 c 30.877,34.832 54.637,54.625 102.937,54.625 39.59,0 75.21,-17.398 103.71,-51.469 35.63,34.852 64.93,51.469 113.22,51.469 61.76,0 130.64,-35.629 130.64,-128.277 V 12.6758 L 1326.17,6.32813 V 281.914 c 3.18,49.074 -24.54,58.582 -58.59,58.582 -41.16,0 -63.33,-30.887 -63.33,-80.789 V 12.6758 L 1103.69,6.32813 V 281.914 c 3.17,49.074 -24.53,58.582 -58.59,58.582 -41.16,0 -63.342,-30.887 -63.342,-80.789 V 12.6758 L 881.211,6.32813 v 408.59387 0"
         fill="#231f20"
         fill-opacity="1"
         fill-rule="nonzero"
         stroke="none" />
      <path
         d="m 1524.12,319.895 c 36.41,14.265 74.42,23.757 114.01,23.757 46.69,0 86.29,-10.312 86.29,-64.941 0,-10.313 -1.58,-18.203 -2.36,-26.914 -38.81,19.785 -67.31,26.914 -110.85,26.914 -75.22,0 -136.18,-64.102 -136.18,-136.973 C 1475.03,49.9023 1541.52,0 1627.04,0 c 37.21,0 72.84,14.2578 100.56,38.0078 V 3.16406 l 91.83,9.51174 V 314.355 c 0,81.551 -79.17,113.219 -151.2,113.219 -38.8,0 -78.4,-3.953 -116.41,-11.058 l -27.7,-96.621 z m 51.46,-178.157 c 0,35.625 38,57.813 73.63,57.813 35.61,0 73.63,-22.188 73.63,-57.813 0,-36.425 -38.02,-57.8122 -73.63,-57.8122 -35.63,0 -73.63,21.3872 -73.63,57.8122 v 0 0"
         fill="#231f20"
         fill-opacity="1"
         fill-rule="nonzero"
         stroke="none" />
      <path
         d="m 2186.81,305.645 c -26.13,15.82 -54.63,30.078 -85.51,30.078 -74.42,0 -129.84,-49.063 -129.84,-121.934 0,-69.668 63.33,-121.9335 115.6,-121.9335 41.16,0 64.11,9.4925 96.58,30.8785 l 55.42,-72.0504 C 2200.27,11.875 2140.1,0 2088.62,0 1984.9,0 1870.91,81.543 1870.91,216.953 c 0,121.945 103.71,210.621 220.89,210.621 58.59,0 103.72,-18.187 148.06,-46.715 l -53.05,-75.214 v 0"
         fill="#231f20"
         fill-opacity="1"
         fill-rule="nonzero"
         stroke="none" />
      <path
         d="M 2243.02,213.789 C 2243.02,92.6563 2347.53,0 2466.29,0 c 118.76,0 223.28,92.6563 223.28,213.789 0,121.152 -104.52,213.785 -223.28,213.785 -118.76,0 -223.27,-92.633 -223.27,-213.785 m 95.02,0 c 0,68.887 60.15,121.934 128.25,121.934 68.09,0 128.28,-53.047 128.28,-121.934 0,-68.887 -60.19,-121.9335 -128.28,-121.9335 -68.1,0 -128.25,53.0465 -128.25,121.9335 v 0 0"
         fill="#231f20"
         fill-opacity="1"
         fill-rule="nonzero"
         stroke="none" />
      <path
         d="m 2766.37,526.352 c 9.5,0 19.39,-2.559 19.39,-13.864 0,-9.105 -4.35,-14.441 -19,-14.441 h -19.58 v 28.305 h 19.19 z m -19.19,-37.813 h 16.62 l 23.14,-36.621 h 12.67 l -24.34,36.809 c 11.49,1.996 21.19,8.519 21.19,23.367 0,15.64 -8.93,23.746 -27.91,23.746 h -32.07 v -83.922 h 10.7 v 36.621 z m 16.21,-65.922 c 38.81,0 71.26,31.469 71.26,71.266 0,39.39 -32.45,70.859 -71.26,70.859 -39.18,0 -71.64,-31.469 -71.64,-70.859 0,-39.797 32.46,-71.266 71.64,-71.266 v 0 z m 59.79,71.266 c 0,-34.844 -25.74,-60.949 -59.79,-60.949 -34.23,0 -60.18,26.105 -60.18,60.949 0,34.254 25.95,60.582 60.18,60.582 34.05,0 59.79,-26.328 59.79,-60.582 v 0 0"
         fill="#231f20"
         fill-opacity="1"
         fill-rule="nonzero"
         stroke="none" />
      <path
         d="m 861.68,540.344 -93.977,93.996 -93.996,-93.996 93.996,-93.977 93.977,93.977 v 0"
         fill="#176fc1"
         fill-opacity="1"
         fill-rule="nonzero"
         stroke="none" />
      <path
         d="m 716.227,416.309 100.55,9.492 V 14.082 L 716.227,7.77344 v 408.53556 0"
         fill="#231f20"
         fill-opacity="1"
         fill-rule="nonzero"
         stroke="none" />
    </g>
  </g>
</svg>
