<svg xmlns="http://www.w3.org/2000/svg" viewBox="0 0 605.42 113.55"><defs><style>.cls-1{fill:#003646;}.cls-2{fill:#6fcad3;}.cls-3{fill:#f45687;}</style></defs><g id="3f26ddbd-5f37-4b8a-987f-e12ac11c844e"><path class="cls-1" d="M203.06,38.72,172.31,106H156.24L125.49,38.72h19.6L164.27,82.3l19.19-43.58Z"/><path class="cls-1" d="M270.9,38.72V106H252.42v-3.81a35.41,35.41,0,0,1-19.32,5.5c-18.62,0-33.57-15.8-33.57-35.26,0-19.61,14.95-35.4,33.57-35.4a35.33,35.33,0,0,1,19.32,5.5V38.72ZM252.42,83V61.71c-4.37-6.21-10.43-7.9-16.5-7.9-10.58,0-17.91,8.46-17.91,18.62,0,10,7.33,18.47,17.91,18.47C242,90.9,248.05,89.21,252.42,83Z"/><path class="cls-1" d="M301.5,5.86V106H283V5.86Z"/><path class="cls-1" d="M378,77.79H328.58c1.41,7.76,6.49,13.68,17.07,13.68,4.93,0,8.32-.85,10.72-3.81h20.45c-4.52,12.69-16.5,20-31.31,20-21.58,0-35.83-15.23-35.83-35.26S323.79,37,344.38,37C367.51,37,381.47,54.52,378,77.79ZM329,65.24h30.6c-1-8.61-6.49-12.56-15.09-12.56C335.49,52.68,330.7,58.18,329,65.24Z"/><path class="cls-1" d="M453.68,69.47V106H435.21V70.6c0-11-5.5-16.79-15.23-16.79-5.08,0-10.72,3-15.52,8.61V106H386V38.72h18.47V43.8A30.25,30.25,0,0,1,423.92,37C441.84,37,453.68,49.72,453.68,69.47Z"/><path class="cls-1" d="M512.07,80H531c-2.11,16.22-16.22,27.65-33.56,27.65-20.17,0-35.83-15.23-35.83-35.26S477.24,37,497.41,37c17.34,0,31.45,11.56,33.56,27.78h-18.9c-1.41-6.49-7.05-11-14.66-11-10.58,0-17.35,8.32-17.35,18.62s6.77,18.47,17.35,18.47C505,90.9,510.66,86.53,512.07,80Z"/><path class="cls-1" d="M604.88,77.79H555.51c1.41,7.76,6.49,13.68,17.07,13.68,4.93,0,8.32-.85,10.72-3.81h20.45c-4.52,12.69-16.5,20-31.31,20-21.58,0-35.83-15.23-35.83-35.26S550.72,37,571.31,37C594.44,37,608.4,54.52,604.88,77.79ZM555.94,65.24h30.6c-1-8.61-6.49-12.56-15.09-12.56C562.42,52.68,557.63,58.18,555.94,65.24Z"/><path class="cls-2" d="M102.77,1.76c-10-7-26.59,8-39.09,22.26l10.58,6.09c2.65-2.95,5.27-5.66,7.8-8,6.79-6.41,11.19-9,13.37-9.77,0,2.33-.87,7.34-4.53,15.93-4.26,10-11.07,21.93-19.17,33.56S54.8,84,46.89,91.41c-6.79,6.42-11.19,9-13.37,9.77,0-2.32.87-7.33,4.53-15.93a174.71,174.71,0,0,1,12.54-23.5l-10.36-6c-10.4,16.84-26.58,47.22-14,56a10,10,0,0,0,5.9,1.83c5.35,0,12.07-3.62,20.32-10.92,9.24-8.16,19.6-20.23,29.17-34C85.49,63,119.39,13.34,102.77,1.76Z"/><path class="cls-2" d="M67,55.63l-10.35,6A176,176,0,0,1,69.28,85.25c3.66,8.6,4.51,13.61,4.53,15.93-2.18-.82-6.58-3.36-13.37-9.77C52.52,84,43.7,73.43,35.6,61.79S20.69,38.24,16.43,28.23c-3.66-8.59-4.52-13.6-4.53-15.93,2.17.82,6.57,3.36,13.37,9.77,2.47,2.33,5,5,7.62,7.83l10.61-6C31,9.65,14.52-5.18,4.56,1.76-12.06,13.34,21.83,63,25.75,68.65c9.58,13.75,19.94,25.82,29.17,34,8.26,7.3,15,10.92,20.32,10.92a10.07,10.07,0,0,0,5.91-1.83C93.71,103,77.4,72.43,67,55.63Z"/><path class="cls-3" d="M65.77,46.7V35.49a2.59,2.59,0,0,0-1.29-2.24l-9.71-5.61a2.58,2.58,0,0,0-2.58,0l-9.72,5.61a2.6,2.6,0,0,0-1.28,2.24V46.7a2.59,2.59,0,0,0,1.28,2.24l9.72,5.61a2.58,2.58,0,0,0,2.58,0l9.71-5.61A2.57,2.57,0,0,0,65.77,46.7Z"/></g></svg>