<svg id="baacca57-1c1f-4e1e-9844-35bd5de60761" width="300" height="300" viewBox="0 0 300 51" fill="white" xmlns="http://www.w3.org/2000/svg">
<g id="cea9d0ff-870f-4921-93fe-7410e793e55b" clip-path="url(#715b430c-744d-4882-9843-56dfe0e96842)">
<path fill-rule="evenodd" clip-rule="evenodd" d="M11.13 0.0600586H0L29.45 43.2701L35 35.0801L11.13 0.0600586ZM280.63 32.8101H291.29C296.58 32.8101 300 36.1701 300 41.4201C300 46.6701 296.58 50.0601 291.29 50.0601H274.47C274.086 50.0896 273.699 50.0361 273.337 49.9032C272.975 49.7703 272.646 49.5612 272.372 49.29C272.098 49.0187 271.885 48.6917 271.749 48.3312C271.612 47.9706 271.555 47.5848 271.58 47.2001C271.561 46.8169 271.623 46.434 271.762 46.0765C271.901 45.7189 272.114 45.3946 272.386 45.1247C272.659 44.8549 272.986 44.6455 273.345 44.5103C273.704 44.3751 274.087 44.3171 274.47 44.3401H291C291.402 44.4004 291.812 44.3669 292.199 44.2421C292.585 44.1173 292.938 43.9046 293.228 43.6208C293.519 43.3369 293.74 42.9896 293.874 42.606C294.008 42.2225 294.051 41.8131 294 41.4101C294.043 41.0087 293.994 40.6029 293.857 40.2231C293.72 39.8434 293.499 39.4996 293.211 39.2176C292.922 38.9355 292.573 38.7227 292.19 38.5949C291.807 38.4672 291.4 38.4279 291 38.4801H280.25C274.96 38.4801 271.54 35.1001 271.54 29.8501C271.54 24.6001 274.96 21.2101 280.25 21.2101H296.25C296.63 21.1883 297.01 21.2471 297.366 21.3826C297.722 21.5182 298.044 21.7273 298.314 21.9965C298.583 22.2656 298.792 22.5885 298.927 22.9442C299.063 23.2998 299.122 23.6801 299.1 24.0601C299.128 24.4433 299.073 24.828 298.94 25.1884C298.808 25.5489 298.599 25.8769 298.329 26.1505C298.06 26.424 297.735 26.6369 297.376 26.7747C297.017 26.9126 296.634 26.9724 296.25 26.9501H280.63C280.229 26.8918 279.819 26.9268 279.434 27.0524C279.048 27.1779 278.696 27.3907 278.406 27.674C278.116 27.9574 277.895 28.3038 277.761 28.6864C277.626 29.069 277.581 29.4774 277.63 29.8801C277.587 30.2814 277.636 30.6872 277.773 31.067C277.91 31.4467 278.131 31.7906 278.419 32.0726C278.708 32.3546 279.057 32.5675 279.44 32.6952C279.823 32.8229 280.23 32.8622 280.63 32.8101ZM259.468 21.4075C259.845 21.2673 260.248 21.2102 260.65 21.2401C261.051 21.2119 261.454 21.2702 261.831 21.4109C262.207 21.5517 262.55 21.7718 262.834 22.0562C263.118 22.3406 263.338 22.6827 263.479 23.0595C263.62 23.4362 263.678 23.8388 263.65 24.2401V47.0601C263.65 47.8557 263.334 48.6188 262.771 49.1814C262.209 49.744 261.446 50.0601 260.65 50.0601C259.854 50.0601 259.091 49.744 258.529 49.1814C257.966 48.6188 257.65 47.8557 257.65 47.0601V24.2401C257.62 23.8384 257.677 23.4351 257.818 23.0576C257.958 22.6801 258.178 22.3372 258.462 22.0524C258.747 21.7677 259.09 21.5477 259.468 21.4075ZM198.49 21.2401H195.66C186.8 21.2401 181.09 26.9 181.09 35.66C181.09 44.4201 186.8 50.0601 195.66 50.0601H198.49C207.35 50.0601 213.07 44.4001 213.07 35.6401C213.07 26.8801 207.35 21.2401 198.49 21.2401ZM207 35.66C207 41.12 203.68 44.3701 198.14 44.3701H196C190.47 44.3701 187.17 41.12 187.17 35.66C187.17 30.2001 190.47 26.9501 196 26.9501H198.16C203.7 26.9501 207 30.21 207 35.66ZM108.28 26.0601C108.529 25.7443 108.708 25.3787 108.804 24.9879C108.9 24.5971 108.911 24.1902 108.836 23.7949C108.761 23.3995 108.602 23.0248 108.37 22.6962C108.138 22.3676 107.838 22.0927 107.49 21.8901C107.175 21.6322 106.808 21.4457 106.415 21.3435C106.021 21.2413 105.61 21.2258 105.209 21.298C104.809 21.3703 104.429 21.5286 104.096 21.7621C103.763 21.9955 103.485 22.2985 103.28 22.6501L90.2799 41.6501L77.2799 22.6501C77.0773 22.3024 76.8024 22.0023 76.4738 21.77C76.1452 21.5378 75.7705 21.3788 75.3751 21.3039C74.9798 21.229 74.5729 21.2399 74.1821 21.3359C73.7913 21.4318 73.4257 21.6106 73.1099 21.8601C72.7553 22.0596 72.4482 22.3338 72.2099 22.6637C71.9716 22.9935 71.8078 23.3712 71.7298 23.7706C71.6518 24.1701 71.6615 24.5816 71.7582 24.9769C71.855 25.3722 72.0364 25.7418 72.2899 26.0601C72.2899 26.0601 87.78 48.7001 87.9999 48.9401C88.2658 49.302 88.6163 49.5933 89.0207 49.7885C89.4251 49.9838 89.8712 50.077 90.3199 50.0601C90.7723 50.0709 91.2206 49.972 91.6264 49.7717C92.0322 49.5714 92.3834 49.2758 92.6499 48.9101C92.8599 48.6901 108.28 26.0601 108.28 26.0601ZM146.06 47.0601V24.2401C146.032 23.8364 146.093 23.4316 146.236 23.0535C146.38 22.6753 146.604 22.3329 146.893 22.0497C147.182 21.7664 147.529 21.5492 147.91 21.4129C148.291 21.2766 148.697 21.2244 149.1 21.2601H166.2C171.24 21.2601 174.5 24.7501 174.5 30.1601V30.5601C174.495 30.62 174.495 30.6802 174.5 30.7401C174.497 30.7767 174.497 30.8134 174.5 30.8501V31.2501C174.5 35.1901 172.73 38.1901 169.73 39.4701L174.01 45.7101C174.286 46.0665 174.459 46.492 174.51 46.9401C174.58 47.3011 174.574 47.6728 174.492 48.0314C174.411 48.3901 174.256 48.7278 174.036 49.0232C173.817 49.3185 173.539 49.565 173.219 49.747C172.9 49.9289 172.546 50.0424 172.18 50.0801H171.89C171.467 50.0702 171.053 49.9543 170.686 49.7429C170.319 49.5315 170.011 49.2314 169.79 48.8701L163.87 40.1901H152.11V47.0601C152.11 47.8623 151.791 48.6318 151.224 49.1991C150.657 49.7664 149.887 50.0851 149.085 50.0851C148.283 50.0851 147.513 49.7664 146.946 49.1991C146.379 48.6318 146.06 47.8623 146.06 47.0601ZM165.38 26.9501H152.11V34.3801H165.87C168.45 34.1101 168.77 31.7901 168.76 30.6801C168.75 29.5701 168.38 26.9501 165.38 26.9501ZM124.55 22.3501C124.79 22.6001 140.21 45.2701 140.21 45.2701L140.18 45.3101C140.632 45.9731 140.802 46.7886 140.653 47.5772C140.504 48.3658 140.048 49.0629 139.385 49.515C138.722 49.9672 137.906 50.1375 137.118 49.9884C136.329 49.8393 135.632 49.3831 135.18 48.7201L132 44.0601H112.47L109.29 48.6701C108.838 49.3331 108.141 49.7893 107.352 49.9384C106.564 50.0875 105.748 49.9172 105.085 49.465C104.422 49.0129 103.966 48.3158 103.817 47.5272C103.668 46.7386 103.838 45.9231 104.29 45.2601C104.29 45.2601 119.72 22.6101 119.92 22.3901C120.185 22.0225 120.536 21.7249 120.942 21.5229C121.348 21.3208 121.797 21.2203 122.25 21.2301C122.695 21.2173 123.137 21.3124 123.538 21.5075C123.938 21.7025 124.285 21.9916 124.55 22.3501ZM122.25 29.69L115.94 38.93H128.56L122.25 29.69ZM245.886 49.9145C246.268 50.0509 246.676 50.1006 247.08 50.0601C247.485 50.0978 247.894 50.0465 248.277 49.9096C248.66 49.7728 249.009 49.5538 249.299 49.2679C249.588 48.9821 249.812 48.6363 249.954 48.2549C250.096 47.8735 250.152 47.4657 250.12 47.0601V35.3901C250.12 26.8001 244.51 21.2401 235.83 21.2401H232.99C224.31 21.2401 218.7 26.8001 218.7 35.3901V47.0601C218.668 47.4621 218.724 47.8661 218.864 48.2444C219.003 48.6228 219.223 48.9663 219.509 49.2515C219.794 49.5366 220.137 49.7565 220.516 49.8961C220.894 50.0357 221.298 50.0916 221.7 50.0601C222.104 50.1006 222.512 50.0509 222.894 49.9145C223.277 49.778 223.624 49.5583 223.911 49.2712C224.198 48.9841 224.418 48.6368 224.554 48.2544C224.691 47.872 224.741 47.464 224.7 47.0601V35.3901C224.7 29.1201 229.14 26.8901 233.3 26.8901H235.48C239.64 26.8901 244.08 29.1201 244.08 35.3901V47.0601C244.039 47.464 244.089 47.872 244.226 48.2544C244.362 48.6368 244.582 48.9841 244.869 49.2712C245.156 49.5583 245.503 49.778 245.886 49.9145ZM31.87 46.8101L37.42 38.6301L40.21 42.7601C40.5894 43.2414 40.8611 43.7986 41.0066 44.3939C41.1521 44.9893 41.168 45.609 41.0533 46.211C40.9385 46.8131 40.6959 47.3835 40.3416 47.8836C39.9874 48.3838 39.5299 48.802 39 49.1101C38.5223 49.4962 37.9668 49.7745 37.3715 49.9259C36.7762 50.0772 36.1552 50.098 35.5511 49.9869C34.947 49.8758 34.374 49.6353 33.8716 49.282C33.3691 48.9287 32.949 48.4709 32.64 47.9401L31.87 46.8101ZM32.43 0.0600586H21.3L40.07 27.6101L45.6301 19.4201L32.43 0.0600586ZM48 22.9701L61.5299 42.7601C62.2169 43.7666 62.4758 45.0047 62.2498 46.2021C62.0238 47.3995 61.3314 48.4582 60.325 49.1451C59.3185 49.832 58.0803 50.0909 56.8829 49.8649C55.6855 49.639 54.6269 48.9466 53.9399 47.9401L42.45 31.1501L48 22.9701Z" fill="black"/>
</g>
<defs>
<clipPath id="715b430c-744d-4882-9843-56dfe0e96842">
<rect width="300" height="50.02" fill="white" transform="translate(0 0.0600586)"/>
</clipPath>
</defs>
</svg>
