<!-- Generated by IcoMoon.io -->
<svg version="1.1" xmlns="http://www.w3.org/2000/svg" width="100%" height="100%" viewBox="0 0 1024 1024">
<title></title>
<g id="icomoon-ignore">
</g>
<path fill="#7fba00" d="M512 1024c-24.576 0-49.152-10.24-67.584-28.672l-415.744-415.744c-18.432-18.432-28.672-43.008-28.672-67.584s10.24-49.152 28.672-67.584l415.744-415.744c18.432-18.432 43.008-28.672 67.584-28.672s49.152 10.24 67.584 28.672l417.792 417.792c18.432 18.432 28.672 40.96 28.672 67.584 0 24.576-10.24 49.152-28.672 67.584l-417.792 413.696c-18.432 18.432-43.008 28.672-67.584 28.672z"></path>
<path fill="#fff" d="M609.034 380.6c-28.631 21.893-62.341 32.543-95.846 32.543-47.514 0-94.495-21.34-125.563-61.952-53.043-69.263-39.956-168.325 29.43-221.409 28.611-22.016 62.382-32.522 95.826-32.522 47.514 0 94.515 21.34 125.563 61.972 53.064 69.284 39.834 168.366-29.409 221.368z"></path>
<path fill="#fff" opacity="0.15" d="M579.584 28.672c-18.432-18.432-43.008-28.672-67.584-28.672s-49.152 10.24-67.584 28.672l-415.744 415.744c-18.432 18.432-28.672 43.008-28.672 67.584s10.24 49.152 28.672 67.584l235.52 235.52 444.416-657.408-129.024-129.024z"></path>
<path fill="#fff" d="M512 933.888l135.168-135.168h-96.256v-406.548h-79.872v406.548h-94.208z"></path>
<path fill="#fff" d="M805.478 685.67v-191.16l-66.621 66.621-172.933-172.933-57.917 57.917 172.933 172.933-66.621 66.621z"></path>
<path fill="#fff" d="M218.829 686.387h191.14l-66.601-66.601 177.787-177.787-57.938-57.938-177.787 177.787-66.601-66.601z"></path>
<path fill="#59b4d9" d="M596.275 363.95c-24.822 18.985-54.067 28.221-83.108 28.221-41.206 0-81.961-18.493-108.872-53.719-45.998-60.068-34.652-145.961 25.518-192 24.822-19.087 54.088-28.201 83.087-28.201 41.206 0 81.961 18.493 108.872 53.74 46.039 60.068 34.57 145.981-25.498 191.959z"></path>
<path fill="#fff" d="M571.105 279.245c9.953 12.984 28.426 15.319 41.329 5.509 0.676-0.512 1.188-1.147 1.802-1.7 13.21 9.298 22.364 15.442 27.525 18.944 1.536-3.953 2.58-7.762 3.666-11.735-5.448-4.055-12.841-9.748-23.511-18.391 3.502-9.196 2.396-19.948-3.994-28.344-9.155-11.837-25.354-14.848-38.011-7.537-13.947-12.513-29.286-26.87-45.445-42.926 50.217-27.013 85.893-23.060 85.893-23.060-5.96-7.598-12.636-14.254-19.763-20.255-21.176-3.277-54.067-2.908-91.668 17.080l-0.020-0.020c-12.534-13.107-25.272-27.177-38.257-42.25-6.205 1.987-12.288 4.444-18.145 7.373 9.585 15.688 22.487 31.498 37.007 46.94v0c0.020 0.041 0.061 0.061 0.102 0.102-12.124 8.479-25.6 19.804-38.052 32.952-1.597 1.7-3.113 3.4-4.608 5.1-7.434-1.556-15.258-1.106-22.569 1.536-12.411-26.767-11.407-48.271-9.441-59.351-5.386 5.652-10.424 11.571-14.746 17.9-3.236 13.23-4.157 32.317 5.407 55.316-11.059 14.479-11.592 35-0.020 50.156 0.963 1.249 1.987 2.417 3.072 3.543-5.038 17.183-7.311 33.772-8.008 48.005 1.29 1.761 1.29 3.195 2.58 4.915 6.574 8.417 14.828 15.524 22.794 21.955-0.983-15.073 0.082-37.294 9.4-62.321 6.431 0.492 12.964-0.532 19.087-3.092 3.502 3.092 7.168 6.205 11.1 9.38 13.435 10.65 26.849 18.924 39.916 25.436-0.676 6.656 0.983 13.558 5.304 19.272 9.236 11.919 26.337 14.152 38.257 5.038 2.478-1.905 4.444-4.198 6.062-6.656 21.32 4.751 39.936 5.591 53.74 5.591 2.109 0 11.919-13.353 17.551-21.627-8.397 1.761-33.341 5.181-67.4-4.608-0.819-3.83-2.396-7.537-4.915-10.854-8.643-11.346-24.474-13.804-36.27-6.205-11.837-6.431-24.248-14.479-37.028-24.596-2.58-2.048-5.059-4.076-7.455-6.124 7.823-12.308 8.643-28.099 1.741-41.37 1.577-1.577 3.113-3.133 4.772-4.69 12.657-11.837 24.576-21.299 35.717-28.897-0.451-0.41-0.86-0.86-1.29-1.27 0.451 0.41 0.86 0.84 1.311 1.249 0 0 0 0-0.020 0 17.101 15.811 35.226 30.802 52.408 44.196-4.526 9.626-3.809 21.361 3.092 30.392z"></path>
</svg>
