<?xml version="1.0" encoding="UTF-8"?>
<svg version="1.1" xmlns="http://www.w3.org/2000/svg" width="128" height="128">
<path d="M0 0 C1.8014064 0.04785975 3.60284008 0.09470151 5.40429688 0.140625 C6.79491333 0.18799805 6.79491333 0.18799805 8.21362305 0.23632812 C11.81504 0.33423194 15.40940741 0.30625785 19.01159668 0.27075195 C22.54221475 0.24304805 26.07151788 0.26966069 29.60205078 0.30029297 C31.39924307 0.30852941 33.19655543 0.30200266 34.99365234 0.28173828 C51.91759502 0.10864215 51.91759502 0.10864215 57.11328125 4.38671875 C61.67348589 10.42634329 62.06989913 17.82001643 62.203125 25.125 C62.22532104 25.86618073 62.24751709 26.60736145 62.27038574 27.3710022 C62.40530661 39.3800892 58.84580307 46.82054311 50.53637695 55.39135742 C46.89259037 58.93772132 43.17842732 62.39584539 39.3125 65.69921875 C38.74237686 66.18703827 38.17225372 66.67485779 37.58485413 67.17745972 C33.6415139 70.33288191 33.6415139 70.33288191 30.78149414 70.23974609 C27.91787789 68.73608032 25.94887325 66.5592772 23.703125 64.25 C23.2174707 63.75338867 22.73181641 63.25677734 22.23144531 62.74511719 C18.90471931 59.31671052 15.70621647 55.79609312 12.65234375 52.12109375 C11.04863391 50.25315392 11.04863391 50.25315392 9.03515625 48.72265625 C5.64729959 45.95692098 4.16435052 44.44387627 3.578125 39.984375 C3.578125 36.73065848 3.70884686 33.55071373 4.015625 30.3125 C3.13519531 30.37050781 2.25476563 30.42851563 1.34765625 30.48828125 C-0.39451172 30.55595703 -0.39451172 30.55595703 -2.171875 30.625 C-3.32042969 30.68300781 -4.46898437 30.74101563 -5.65234375 30.80078125 C-8.984375 30.3125 -8.984375 30.3125 -11.87109375 28.41796875 C-14.8534041 24.03546094 -14.72209952 20.49782795 -14.609375 15.3125 C-14.62871094 14.42304687 -14.64804687 13.53359375 -14.66796875 12.6171875 C-14.66152344 11.75351562 -14.65507813 10.88984375 -14.6484375 10 C-14.64279785 9.22011719 -14.6371582 8.44023438 -14.63134766 7.63671875 C-12.47488206 -0.11028217 -6.78563443 -0.34324285 0 0 Z " fill="#122340" transform="translate(57.984375,43.6875)"/>
<path d="M0 0 C0.84175781 -0.01933594 1.68351562 -0.03867187 2.55078125 -0.05859375 C6.6974032 -0.02594318 8.98456204 0.30202737 12.5546875 2.5390625 C15.31877786 6.92386448 15.23552881 10.5406749 15.125 15.625 C15.15400391 16.95917969 15.15400391 16.95917969 15.18359375 18.3203125 C15.15160641 22.60661586 14.87556776 25.02921981 12.5546875 28.7109375 C8.30520972 31.37365375 4.92064106 31.36303157 0 31.25 C-0.84175781 31.26933594 -1.68351562 31.28867188 -2.55078125 31.30859375 C-6.6974032 31.27594318 -8.98456204 30.94797263 -12.5546875 28.7109375 C-15.31877786 24.32613552 -15.23552881 20.7093251 -15.125 15.625 C-15.14433594 14.73554687 -15.16367188 13.84609375 -15.18359375 12.9296875 C-15.15160641 8.64338414 -14.87556776 6.22078019 -12.5546875 2.5390625 C-8.30520972 -0.12365375 -4.92064106 -0.11303157 0 0 Z " fill="#0078D7" transform="translate(26.5,43.375)"/>
<path d="M0 0 C1.33417969 -0.02900391 1.33417969 -0.02900391 2.6953125 -0.05859375 C6.98161586 -0.02660641 9.40421981 0.24943224 13.0859375 2.5703125 C15.74865375 6.81979028 15.73803157 10.20435894 15.625 15.125 C15.65400391 16.38763672 15.65400391 16.38763672 15.68359375 17.67578125 C15.65094318 21.8224032 15.32297263 24.10956204 13.0859375 27.6796875 C8.70113552 30.44377786 5.0843251 30.36052881 0 30.25 C-0.88945313 30.26933594 -1.77890625 30.28867187 -2.6953125 30.30859375 C-6.98161586 30.27660641 -9.40421981 30.00056776 -13.0859375 27.6796875 C-15.74865375 23.43020972 -15.73803157 20.04564106 -15.625 15.125 C-15.64433594 14.28324219 -15.66367187 13.44148438 -15.68359375 12.57421875 C-15.65094318 8.4275968 -15.32297263 6.14043796 -13.0859375 2.5703125 C-8.70113552 -0.19377786 -5.0843251 -0.11052881 0 0 Z " fill="#0078D7" transform="translate(59,11.375)"/>
<path d="M0 0 C0.84175781 -0.01933594 1.68351562 -0.03867188 2.55078125 -0.05859375 C6.71820527 -0.02577939 8.98059697 0.29422927 12.5546875 2.5703125 C15.25937887 6.8174383 15.23842687 10.18715027 15.125 15.125 C15.15400391 16.38763672 15.15400391 16.38763672 15.18359375 17.67578125 C15.15077939 21.84320527 14.83077073 24.10559697 12.5546875 27.6796875 C8.3075617 30.38437887 4.93784973 30.36342687 0 30.25 C-0.84175781 30.26933594 -1.68351562 30.28867187 -2.55078125 30.30859375 C-6.71820527 30.27577939 -8.98059697 29.95577073 -12.5546875 27.6796875 C-15.25937887 23.4325617 -15.23842687 20.06284973 -15.125 15.125 C-15.14433594 14.28324219 -15.16367188 13.44148438 -15.18359375 12.57421875 C-15.15077939 8.40679473 -14.83077073 6.14440303 -12.5546875 2.5703125 C-8.3075617 -0.13437887 -4.93784973 -0.11342687 0 0 Z " fill="#0078D7" transform="translate(26.5,11.375)"/>
<path d="M0 0 C0.93134766 0.02255859 1.86269531 0.04511719 2.82226562 0.06835938 C5.1123396 0.12707922 7.39907875 0.20913142 9.6875 0.3125 C9.6875 1.3025 9.6875 2.2925 9.6875 3.3125 C8.71554688 4.14007813 7.74359375 4.96765625 6.7421875 5.8203125 C3.07782262 9.30372109 2.94090727 12.40077582 2.8046875 17.3046875 C2.80855469 18.73167969 2.80855469 18.73167969 2.8125 20.1875 C2.791875 21.16203125 2.77125 22.1365625 2.75 23.140625 C2.70310814 25.53210983 2.68303879 27.92065163 2.6875 30.3125 C0.62683896 30.4482683 -1.43642757 30.54483903 -3.5 30.625 C-4.64855469 30.68300781 -5.79710937 30.74101563 -6.98046875 30.80078125 C-10.3125 30.3125 -10.3125 30.3125 -13.19921875 28.41796875 C-16.1815291 24.03546094 -16.05022452 20.49782795 -15.9375 15.3125 C-15.95683594 14.42304687 -15.97617187 13.53359375 -15.99609375 12.6171875 C-15.96431479 8.35880741 -15.66740214 5.89424681 -13.41796875 2.20703125 C-8.93125583 -0.53014582 -5.14381107 -0.23628814 0 0 Z " fill="#0078D7" transform="translate(59.3125,43.6875)"/>
<path d="M0 0 C3.53571429 0.53571429 3.53571429 0.53571429 5 2 C5.25035974 5.30516934 5.18521952 8.62396041 5.1875 11.9375 C5.19974609 12.87013672 5.21199219 13.80277344 5.22460938 14.76367188 C5.22654297 15.65505859 5.22847656 16.54644531 5.23046875 17.46484375 C5.23457764 18.285896 5.23868652 19.10694824 5.24291992 19.95288086 C5 22 5 22 3 24 C-0.53571429 23.46428571 -0.53571429 23.46428571 -2 22 C-2.25035974 18.69483066 -2.18521952 15.37603959 -2.1875 12.0625 C-2.19974609 11.12986328 -2.21199219 10.19722656 -2.22460938 9.23632812 C-2.22654297 8.34494141 -2.22847656 7.45355469 -2.23046875 6.53515625 C-2.23663208 5.30357788 -2.23663208 5.30357788 -2.24291992 4.04711914 C-2 2 -2 2 0 0 Z " fill="#0078D7" transform="translate(23,92)"/>
<path d="M0 0 C3.53571429 0.53571429 3.53571429 0.53571429 5 2 C5.12514928 3.97619447 5.1757276 5.95738173 5.1875 7.9375 C5.20167969 9.01902344 5.21585938 10.10054687 5.23046875 11.21484375 C5 14 5 14 3 16 C-0.53571429 15.46428571 -0.53571429 15.46428571 -2 14 C-2.12514928 12.02380553 -2.1757276 10.04261827 -2.1875 8.0625 C-2.20167969 6.98097656 -2.21585938 5.89945312 -2.23046875 4.78515625 C-2 2 -2 2 0 0 Z " fill="#0078D7" transform="translate(14,100)"/>
<path d="M0 0 C8.58 0 17.16 0 26 0 C26 0.99 26 1.98 26 3 C17.42 3 8.84 3 0 3 C0 2.01 0 1.02 0 0 Z " fill="#0078D7" transform="translate(84,82)"/>
<path d="M0 0 C8.58 0 17.16 0 26 0 C26 0.99 26 1.98 26 3 C17.42 3 8.84 3 0 3 C0 2.01 0 1.02 0 0 Z " fill="#0078D7" transform="translate(84,71)"/>
<path d="M0 0 C8.58 0 17.16 0 26 0 C26 0.99 26 1.98 26 3 C17.42 3 8.84 3 0 3 C0 2.01 0 1.02 0 0 Z " fill="#0078D7" transform="translate(84,60)"/>
<path d="M0 0 C3.53571429 0.53571429 3.53571429 0.53571429 5 2 C5.27314815 7.73611111 5.27314815 7.73611111 5 10 C4.34 10.66 3.68 11.32 3 12 C-0.53571429 11.46428571 -0.53571429 11.46428571 -2 10 C-2.27314815 4.26388889 -2.27314815 4.26388889 -2 2 C-1.34 1.34 -0.68 0.68 0 0 Z " fill="#0078D7" transform="translate(32,104)"/>
<path d="M0 0 C1.32 0.99 2.64 1.98 4 3 C1.69 5.64 -0.62 8.28 -3 11 C-7 10 -7 10 -8.25 7.9375 C-8.62125 6.9784375 -8.62125 6.9784375 -9 6 C-7.125 4.9375 -7.125 4.9375 -5 4 C-4.34 4.33 -3.68 4.66 -3 5 C-2.690625 4.360625 -2.38125 3.72125 -2.0625 3.0625 C-1 1 -1 1 0 0 Z " fill="#0078D7" transform="translate(79,60)"/>
</svg>
