<?xml version="1.0" encoding="UTF-8" standalone="no"?>
<svg
   xmlns="http://www.w3.org/2000/svg"
   fill="#0177d7"
   width="100"
   height="105"
   viewBox="0 0 80 84"
   preserveAspectRatio="xMidYMid meet">
  <g
     transform="matrix(0.01398039,0,0,-0.01417719,-33.17809,96.411465)">
    <path
       d="M 53.902344 2.3261719 C 53.51133 2.3173111 53.384458 2.3836187 53.332031 2.5253906 L 53.332031 47.414062 L 97.615234 47.253906 C 98.052122 46.722262 98.17352 42.69957 98.121094 28.894531 L 98.068359 14.804688 L 96.933594 14.769531 C 83.687174 14.326494 76.468514 12.449492 68.447266 7.3457031 C 65.773516 5.6444403 65.232543 5.3601103 63.257812 4.5449219 C 60.985999 3.6234045 58.522637 2.9502762 56.058594 2.578125 C 54.9489 2.4186316 54.293358 2.3350326 53.902344 2.3261719 z M 46.603516 2.3652344 C 46.271481 2.3652344 45.171781 2.4888007 44.158203 2.6660156 C 39.597101 3.4457611 36.381203 4.7215433 32.449219 7.2734375 C 28.325004 9.9493821 25.598106 11.243728 21.351562 12.501953 C 17.244823 13.724736 10.342983 14.627759 4.2265625 14.769531 L 2.4785156 14.804688 L 2.4433594 28.982422 C 2.4084084 39.154556 2.4599081 43.763061 2.6171875 45.287109 L 2.828125 47.414062 L 47.214844 47.414062 L 47.214844 2.4003906 L 46.603516 2.3652344 z M 96.408203 53.349609 C 96.408203 53.774925 53.367188 53.474609 53.367188 53.474609 L 53.488281 103.32422 C 53.715463 103.32422 54.396979 102.95325 56.476562 101.73047 C 56.861023 101.50009 58.88927 100.16953 60.986328 98.769531 C 68.151278 93.967008 73.288398 89.733035 78.496094 84.345703 C 84.525137 78.090018 88.545713 72.612641 92.005859 65.931641 C 94.242722 61.589876 96.408203 55.636147 96.408203 53.775391 L 96.408203 53.349609 z M 47.214844 53.439453 L 4.2265625 53.527344 C 4.0867586 53.775445 4.4015166 55.406016 4.9257812 57.125 C 6.7432319 62.990812 10.271859 69.795831 14.326172 75.236328 C 18.957176 81.421127 25.265867 87.782195 32.623047 93.701172 C 37.271527 97.422684 45.921866 103.14648 46.917969 103.14648 L 47.214844 53.439453 z "
       transform="matrix(57.22301,0,0,-56.428672,2373.1877,6800.4636)"/>
  </g>
</svg>
