<svg id="svg" version="1.1" xmlns="http://www.w3.org/2000/svg" xmlns:xlink="http://www.w3.org/1999/xlink" width="400" height="417.2413793103448" viewBox="0, 0, 400,417.2413793103448"><g id="svgg"><path id="path0" d="M201.101 108.700 L 201.000 209.000 108.400 209.200 C 26.363 209.377,15.816 209.468,15.938 210.000 C 16.013 210.330,16.165 211.230,16.276 212.000 C 16.386 212.770,16.729 213.967,17.038 214.660 C 17.347 215.354,17.600 216.278,17.600 216.715 C 17.600 217.151,17.869 218.024,18.198 218.654 C 18.526 219.284,18.796 220.295,18.798 220.900 C 18.799 221.505,18.964 222.000,19.165 222.000 C 19.366 222.000,19.651 222.719,19.800 223.598 C 19.948 224.477,20.214 225.285,20.389 225.393 C 20.565 225.502,20.832 226.245,20.982 227.045 C 21.132 227.844,21.404 228.791,21.586 229.149 C 21.769 229.507,22.223 230.610,22.596 231.600 C 22.969 232.590,23.504 233.940,23.786 234.600 C 24.069 235.260,24.620 236.610,25.011 237.600 C 27.533 243.980,34.551 257.942,38.640 264.714 C 39.608 266.317,40.400 267.719,40.400 267.830 C 40.400 267.941,40.739 268.520,41.153 269.116 C 41.733 269.952,49.469 281.566,51.800 285.100 C 52.020 285.434,52.695 286.263,53.300 286.943 C 53.905 287.622,54.400 288.326,54.400 288.506 C 54.400 288.686,54.583 289.051,54.807 289.317 C 55.031 289.583,55.593 290.250,56.056 290.800 C 56.518 291.350,57.603 292.749,58.467 293.909 C 59.331 295.069,60.837 296.869,61.812 297.909 C 62.788 298.949,63.589 300.010,63.593 300.267 C 63.597 300.523,63.735 300.793,63.900 300.867 C 64.157 300.981,67.328 304.566,70.800 308.669 C 78.168 317.376,92.850 332.420,102.157 340.800 C 104.723 343.110,107.606 345.720,108.564 346.600 C 109.522 347.480,111.092 348.858,112.053 349.663 C 113.014 350.467,114.340 351.606,115.000 352.194 C 115.660 352.782,117.460 354.281,119.000 355.525 C 121.676 357.687,122.164 358.092,124.361 359.976 C 124.890 360.429,125.434 360.800,125.569 360.800 C 125.705 360.800,126.893 361.789,128.208 362.997 C 129.524 364.205,130.785 365.195,131.011 365.197 C 131.237 365.199,132.011 365.738,132.732 366.396 C 134.102 367.648,147.020 377.352,149.036 378.644 C 149.676 379.054,150.419 379.572,150.686 379.795 C 151.426 380.412,152.176 380.958,152.889 381.400 C 154.377 382.322,161.835 387.432,162.229 387.800 C 162.466 388.020,163.321 388.556,164.129 388.991 C 164.938 389.426,165.600 389.921,165.600 390.091 C 165.600 390.261,165.787 390.400,166.016 390.400 C 166.490 390.400,168.931 392.045,169.133 392.500 C 169.207 392.665,169.455 392.800,169.685 392.800 C 169.915 392.800,171.115 393.486,172.351 394.323 C 173.588 395.161,176.195 396.826,178.145 398.023 C 180.095 399.221,182.165 400.513,182.745 400.896 C 183.325 401.278,184.070 401.715,184.400 401.866 C 184.730 402.018,185.720 402.602,186.600 403.164 C 188.625 404.457,191.986 406.313,192.900 406.641 C 193.285 406.780,193.600 407.052,193.600 407.247 C 193.600 407.441,193.857 407.600,194.171 407.600 C 194.486 407.600,194.981 407.825,195.271 408.100 C 195.840 408.638,199.555 410.000,200.454 410.000 C 200.914 410.000,200.984 394.275,200.898 309.808 L 200.797 209.616 201.698 209.398 C 202.194 209.279,244.032 209.230,294.670 209.290 L 386.740 209.400 386.970 208.250 C 387.097 207.618,387.200 206.593,387.200 205.974 C 387.200 205.354,387.356 204.751,387.547 204.633 C 387.738 204.514,388.022 203.291,388.178 201.913 C 388.334 200.535,388.603 199.226,388.776 199.004 C 388.949 198.782,389.205 197.179,389.345 195.441 C 389.485 193.704,389.757 192.084,389.949 191.841 C 390.142 191.599,390.389 189.272,390.498 186.672 C 390.612 183.961,390.890 181.750,391.148 181.492 C 392.098 180.542,391.756 76.477,390.797 74.585 C 388.497 70.046,386.311 69.073,378.600 69.154 C 375.300 69.189,371.340 69.028,369.800 68.797 C 368.260 68.566,364.210 68.210,360.800 68.005 C 352.582 67.511,339.247 65.867,337.987 65.193 C 337.583 64.977,336.656 64.799,335.926 64.798 C 335.197 64.796,334.084 64.526,333.454 64.198 C 332.824 63.869,331.474 63.594,330.454 63.586 C 329.434 63.578,328.150 63.314,327.600 63.000 C 327.050 62.686,326.174 62.422,325.654 62.414 C 324.780 62.401,322.687 61.810,319.200 60.592 C 318.430 60.324,316.810 59.795,315.600 59.418 C 314.390 59.041,313.040 58.589,312.600 58.414 C 312.160 58.239,310.990 57.790,310.000 57.416 C 309.010 57.042,307.690 56.481,307.068 56.168 C 306.445 55.856,305.702 55.600,305.417 55.600 C 305.131 55.600,304.674 55.330,304.400 55.000 C 304.126 54.670,303.534 54.400,303.084 54.400 C 301.776 54.400,289.329 48.129,288.000 46.800 C 287.890 46.690,286.585 45.992,285.100 45.248 C 283.615 44.505,282.400 43.752,282.400 43.575 C 282.400 43.399,281.995 43.129,281.500 42.976 C 280.412 42.640,273.455 38.060,273.267 37.557 C 273.193 37.361,272.848 37.200,272.500 37.200 C 272.152 37.200,271.582 36.925,271.234 36.589 C 270.477 35.859,265.216 32.149,263.100 30.853 C 262.275 30.348,261.600 29.789,261.600 29.611 C 261.600 29.433,261.181 29.182,260.669 29.053 C 260.157 28.924,259.286 28.410,258.733 27.910 C 258.181 27.409,257.025 26.645,256.164 26.211 C 255.304 25.776,254.060 25.040,253.400 24.575 C 252.740 24.109,251.425 23.337,250.477 22.859 C 248.859 22.042,248.357 21.701,247.034 20.520 C 246.739 20.256,246.025 19.921,245.448 19.776 C 244.872 19.632,244.400 19.353,244.400 19.157 C 244.400 18.960,244.062 18.800,243.649 18.800 C 243.236 18.800,242.674 18.530,242.400 18.200 C 242.126 17.870,241.679 17.600,241.407 17.600 C 241.135 17.600,239.901 17.060,238.664 16.400 C 237.427 15.740,236.007 15.194,235.508 15.187 C 235.008 15.180,234.251 14.910,233.824 14.587 C 233.396 14.264,232.742 14.000,232.369 14.000 C 231.996 14.000,231.176 13.731,230.546 13.402 C 229.916 13.074,229.006 12.804,228.524 12.802 C 228.042 12.801,227.536 12.620,227.400 12.400 C 227.264 12.180,226.758 11.999,226.276 11.998 C 225.794 11.996,224.884 11.726,224.254 11.398 C 223.624 11.069,222.364 10.799,221.454 10.798 C 220.544 10.796,219.341 10.556,218.781 10.263 C 218.221 9.971,215.741 9.616,213.271 9.475 C 210.801 9.333,208.437 9.034,208.016 8.809 C 207.596 8.584,205.891 8.400,204.227 8.400 L 201.202 8.400 201.101 108.700 " stroke="none" fill="#087dd5" fill-rule="evenodd"></path><path id="path1" d="M0.000 208.600 L 0.000 417.200 200.000 417.200 L 400.000 417.200 400.000 208.600 L 400.000 0.000 200.000 0.000 L 0.000 0.000 0.000 208.600 M216.600 8.924 C 218.360 9.258,220.800 9.712,222.022 9.932 C 224.477 10.375,228.216 11.453,229.295 12.029 C 229.677 12.233,230.279 12.400,230.634 12.400 C 230.989 12.400,231.846 12.654,232.540 12.965 C 233.233 13.275,234.831 13.901,236.091 14.356 C 237.351 14.810,238.701 15.349,239.091 15.553 C 239.481 15.757,241.060 16.523,242.600 17.255 C 244.140 17.986,245.936 18.948,246.592 19.393 C 248.177 20.467,249.222 21.084,250.247 21.553 C 251.269 22.020,258.517 26.472,258.800 26.806 C 258.910 26.936,259.720 27.473,260.600 28.000 C 261.480 28.527,262.290 29.057,262.400 29.179 C 262.784 29.604,266.426 32.000,266.712 32.016 C 266.870 32.025,267.623 32.565,268.385 33.216 C 269.147 33.867,269.968 34.400,270.210 34.400 C 270.452 34.400,271.168 34.940,271.800 35.600 C 272.432 36.260,273.207 36.800,273.522 36.800 C 273.837 36.800,274.709 37.340,275.461 38.000 C 276.213 38.660,277.009 39.200,277.231 39.200 C 277.453 39.200,278.120 39.650,278.713 40.200 C 279.307 40.750,279.946 41.200,280.134 41.200 C 280.322 41.200,281.683 42.010,283.158 43.000 C 284.634 43.990,285.964 44.800,286.114 44.800 C 286.263 44.800,287.604 45.549,289.093 46.463 C 291.477 47.928,300.053 52.184,305.200 54.456 C 306.190 54.893,307.313 55.419,307.695 55.625 C 308.077 55.831,308.589 56.000,308.834 56.000 C 309.079 56.000,309.846 56.252,310.540 56.559 C 311.233 56.867,312.790 57.430,314.000 57.811 C 316.072 58.463,316.999 58.778,320.400 59.983 C 321.170 60.255,322.430 60.618,323.200 60.788 C 323.970 60.959,326.040 61.499,327.800 61.988 C 329.560 62.477,331.900 63.035,333.000 63.227 C 334.100 63.420,336.350 63.846,338.000 64.176 C 342.721 65.118,348.663 66.017,352.800 66.415 C 354.890 66.616,358.078 66.956,359.884 67.171 C 361.691 67.386,367.451 67.594,372.684 67.633 C 379.473 67.684,382.659 67.859,383.800 68.246 C 384.680 68.544,385.627 68.791,385.903 68.794 C 387.660 68.814,391.492 73.080,392.156 75.754 C 392.574 77.437,392.419 172.676,391.987 180.000 C 391.652 185.668,391.268 189.131,390.031 197.600 C 389.791 199.250,389.420 201.230,389.208 202.000 C 388.995 202.770,388.539 204.750,388.194 206.400 C 387.560 209.435,387.007 211.602,385.848 215.600 C 385.497 216.810,384.925 218.790,384.576 220.000 C 384.228 221.210,383.798 222.476,383.622 222.813 C 383.446 223.150,383.166 224.044,383.000 224.800 C 382.834 225.556,382.551 226.450,382.370 226.787 C 382.190 227.124,381.672 228.530,381.218 229.910 C 380.765 231.291,380.234 232.731,380.038 233.110 C 379.842 233.490,379.371 234.610,378.991 235.600 C 378.610 236.590,378.063 237.940,377.774 238.600 C 377.486 239.260,376.858 240.700,376.378 241.800 C 374.554 245.989,369.117 256.874,367.396 259.785 C 366.408 261.456,365.600 262.898,365.600 262.990 C 365.600 263.128,363.906 265.940,359.089 273.798 C 358.820 274.238,358.105 275.253,357.500 276.056 C 356.895 276.859,356.400 277.626,356.400 277.761 C 356.400 277.896,355.905 278.704,355.300 279.556 C 354.695 280.408,353.930 281.510,353.600 282.004 C 352.236 284.045,345.934 292.624,345.100 293.574 C 344.605 294.138,343.579 295.410,342.820 296.400 C 342.061 297.390,340.891 298.840,340.220 299.622 C 339.549 300.404,338.280 301.920,337.400 302.992 C 336.520 304.065,335.618 305.135,335.395 305.371 C 335.173 305.607,333.331 307.726,331.302 310.079 C 329.273 312.433,327.115 314.881,326.507 315.519 C 325.898 316.157,323.389 318.911,320.931 321.639 C 318.473 324.368,315.503 327.474,314.331 328.541 C 313.159 329.609,310.570 332.039,308.578 333.941 C 305.461 336.918,299.411 342.540,295.965 345.662 C 295.396 346.178,293.691 347.680,292.176 349.000 C 288.398 352.294,285.839 354.558,285.600 354.819 C 285.490 354.939,284.261 355.929,282.870 357.019 C 281.478 358.108,279.588 359.601,278.670 360.335 C 277.751 361.069,276.489 362.059,275.865 362.535 C 275.241 363.011,274.521 363.587,274.265 363.816 C 274.009 364.045,272.270 365.382,270.400 366.787 C 268.530 368.193,266.370 369.857,265.600 370.486 C 264.830 371.114,264.020 371.764,263.800 371.929 C 263.580 372.095,261.564 373.619,259.319 375.315 C 257.075 377.012,255.132 378.400,255.002 378.400 C 254.873 378.400,254.549 378.588,254.283 378.819 C 254.017 379.049,252.540 380.120,251.000 381.200 C 249.460 382.280,247.983 383.351,247.717 383.581 C 247.451 383.812,247.117 384.000,246.974 384.000 C 246.832 384.000,246.033 384.540,245.200 385.200 C 244.367 385.860,243.501 386.400,243.276 386.400 C 243.051 386.400,242.807 386.546,242.733 386.724 C 242.602 387.044,230.282 395.263,226.800 397.353 C 223.703 399.213,223.434 399.380,222.203 400.200 C 221.543 400.640,220.373 401.336,219.602 401.747 C 218.831 402.158,217.480 402.968,216.600 403.547 C 215.720 404.126,214.280 404.960,213.400 405.400 C 212.520 405.840,211.710 406.304,211.600 406.431 C 211.490 406.559,210.860 406.941,210.200 407.281 C 209.540 407.620,208.010 408.458,206.800 409.142 C 203.019 411.279,194.829 410.415,192.808 407.667 C 192.694 407.511,192.150 407.168,191.600 406.905 C 191.050 406.642,189.700 405.884,188.600 405.220 C 187.500 404.557,186.240 403.828,185.800 403.601 C 185.360 403.374,184.460 402.833,183.800 402.398 C 183.140 401.964,182.330 401.485,182.000 401.334 C 181.670 401.183,180.860 400.685,180.200 400.228 C 179.540 399.772,178.640 399.181,178.200 398.916 C 177.760 398.651,176.590 397.948,175.600 397.353 C 174.610 396.759,170.920 394.366,167.400 392.036 C 163.880 389.706,160.820 387.727,160.600 387.639 C 160.380 387.550,159.179 386.695,157.930 385.739 C 156.682 384.782,155.558 384.000,155.432 384.000 C 155.305 384.000,154.146 383.235,152.856 382.300 C 151.565 381.365,150.099 380.330,149.597 380.000 C 147.774 378.801,137.371 371.104,136.303 370.165 C 135.700 369.634,135.034 369.200,134.823 369.200 C 134.612 369.200,134.296 368.975,134.120 368.700 C 133.944 368.425,132.630 367.311,131.200 366.225 C 128.114 363.880,117.427 355.377,116.000 354.130 C 115.450 353.650,114.621 352.929,114.159 352.528 C 113.696 352.128,112.256 350.865,110.959 349.723 C 109.661 348.580,108.221 347.320,107.758 346.923 C 106.791 346.093,99.659 339.527,95.241 335.400 C 90.155 330.649,82.311 322.768,79.117 319.200 C 77.444 317.330,75.510 315.170,74.821 314.400 C 74.131 313.630,72.810 312.114,71.884 311.031 C 70.958 309.948,69.390 308.140,68.400 307.013 C 67.410 305.887,65.933 304.163,65.119 303.183 C 60.929 298.141,60.244 297.322,59.446 296.400 C 57.645 294.317,49.200 282.821,49.200 282.452 C 49.200 282.240,49.060 282.007,48.888 281.933 C 48.571 281.798,41.595 271.499,41.075 270.400 C 40.919 270.070,40.435 269.260,40.000 268.600 C 39.565 267.940,39.083 267.130,38.929 266.800 C 38.775 266.470,37.873 264.917,36.924 263.349 C 35.976 261.781,35.200 260.390,35.200 260.256 C 35.200 260.123,34.519 258.886,33.687 257.507 C 32.173 254.997,30.164 250.997,27.407 245.000 C 25.810 241.525,25.657 241.180,24.400 238.200 C 23.207 235.371,22.984 234.826,22.194 232.800 C 21.807 231.810,21.275 230.460,21.010 229.800 C 20.745 229.140,19.934 226.710,19.208 224.400 C 18.483 222.090,17.748 219.840,17.575 219.400 C 17.402 218.960,16.971 217.520,16.616 216.200 C 16.261 214.880,15.707 212.966,15.385 211.946 C 15.063 210.927,14.802 209.757,14.803 209.346 C 14.805 208.936,14.542 207.430,14.218 206.000 C 10.209 188.294,10.041 185.098,10.005 125.748 C 9.973 74.247,9.940 75.368,11.536 73.034 C 14.489 68.715,16.437 68.175,30.200 67.861 C 42.936 67.571,52.412 66.588,64.400 64.313 C 66.710 63.875,69.411 63.393,70.402 63.242 C 71.393 63.092,72.472 62.803,72.800 62.600 C 73.128 62.397,74.207 62.110,75.198 61.962 C 76.821 61.719,78.230 61.302,80.600 60.364 C 81.040 60.189,82.210 59.873,83.200 59.661 C 85.317 59.208,86.340 58.848,92.200 56.495 C 94.620 55.523,97.140 54.535,97.800 54.300 C 100.082 53.486,111.408 47.858,113.600 46.448 C 114.810 45.670,116.520 44.663,117.400 44.211 C 118.280 43.758,120.080 42.692,121.400 41.843 C 127.430 37.961,131.866 34.972,132.592 34.301 C 133.028 33.898,133.793 33.466,134.292 33.341 C 134.791 33.216,135.200 32.982,135.200 32.822 C 135.200 32.050,154.986 19.720,160.200 17.243 C 161.740 16.511,163.510 15.662,164.132 15.356 C 164.755 15.050,165.425 14.800,165.621 14.800 C 165.818 14.800,166.928 14.367,168.089 13.839 C 171.518 12.278,172.499 11.984,180.200 10.212 C 189.812 8.001,208.289 7.347,216.600 8.924 " stroke="none" fill="#fbfbfb" fill-rule="evenodd"></path><path id="path2" d="M193.783 8.782 C 193.333 8.964,191.173 9.244,188.983 9.404 C 186.792 9.564,184.820 9.833,184.600 10.003 C 184.380 10.172,183.037 10.443,181.616 10.604 C 180.195 10.766,178.755 11.044,178.416 11.222 C 177.751 11.571,174.939 12.333,173.000 12.689 C 172.340 12.811,171.445 13.155,171.011 13.455 C 170.577 13.755,169.917 14.000,169.543 14.000 C 169.170 14.000,168.310 14.270,167.632 14.600 C 166.955 14.930,165.845 15.470,165.168 15.800 C 164.490 16.130,163.612 16.400,163.217 16.400 C 162.821 16.400,162.274 16.670,162.000 17.000 C 161.726 17.330,161.175 17.600,160.775 17.600 C 160.375 17.600,159.943 17.769,159.815 17.976 C 159.687 18.184,158.731 18.768,157.691 19.276 C 156.651 19.784,155.710 20.309,155.600 20.443 C 155.490 20.577,154.140 21.363,152.600 22.189 C 151.060 23.016,149.710 23.819,149.600 23.975 C 149.490 24.131,149.130 24.382,148.800 24.534 C 148.470 24.685,147.660 25.165,147.000 25.600 C 146.340 26.035,145.530 26.528,145.200 26.695 C 144.077 27.265,141.001 29.399,140.867 29.700 C 140.793 29.865,140.549 30.000,140.324 30.000 C 140.099 30.000,139.233 30.540,138.400 31.200 C 137.567 31.860,136.686 32.400,136.442 32.400 C 136.199 32.400,136.000 32.584,136.000 32.810 C 136.000 33.035,135.595 33.395,135.100 33.609 C 133.932 34.114,132.925 34.789,131.700 35.887 C 131.156 36.375,130.339 36.892,129.885 37.037 C 129.430 37.181,128.597 37.727,128.033 38.249 C 127.470 38.772,126.884 39.200,126.732 39.200 C 126.581 39.200,124.826 40.280,122.832 41.600 C 120.839 42.920,119.026 44.000,118.804 44.000 C 118.582 44.000,118.400 44.145,118.400 44.323 C 118.400 44.501,117.680 44.964,116.799 45.352 C 115.919 45.741,114.961 46.296,114.670 46.587 C 114.380 46.878,113.311 47.494,112.295 47.957 C 111.279 48.419,110.337 48.978,110.201 49.199 C 110.064 49.420,109.625 49.600,109.225 49.600 C 108.825 49.600,108.274 49.870,108.000 50.200 C 107.726 50.530,107.186 50.800,106.800 50.800 C 106.414 50.800,105.874 51.070,105.600 51.400 C 105.326 51.730,104.764 52.000,104.351 52.000 C 103.938 52.000,103.600 52.177,103.600 52.392 C 103.600 52.608,103.105 52.905,102.500 53.052 C 101.895 53.199,101.045 53.563,100.611 53.860 C 100.177 54.157,99.544 54.400,99.203 54.400 C 98.863 54.400,97.152 55.120,95.400 56.000 C 93.648 56.880,91.841 57.600,91.384 57.600 C 90.927 57.600,90.204 57.864,89.776 58.187 C 89.349 58.510,88.527 58.780,87.949 58.787 C 87.371 58.794,86.674 59.070,86.400 59.400 C 86.126 59.730,85.316 60.000,84.600 60.000 C 83.884 60.000,83.074 60.270,82.800 60.600 C 82.526 60.930,81.715 61.200,80.997 61.200 C 80.279 61.200,79.176 61.469,78.546 61.798 C 77.916 62.126,76.836 62.396,76.146 62.398 C 75.456 62.399,74.376 62.669,73.746 62.998 C 73.116 63.326,71.936 63.596,71.124 63.598 C 70.312 63.599,69.544 63.767,69.417 63.972 C 69.291 64.177,68.155 64.459,66.894 64.599 C 65.632 64.739,64.240 65.015,63.800 65.213 C 62.931 65.603,58.686 66.229,53.000 66.805 C 51.020 67.006,48.590 67.349,47.600 67.567 C 46.610 67.786,43.730 67.977,41.200 67.992 C 38.670 68.007,35.880 68.184,35.000 68.386 C 34.120 68.588,29.652 68.837,25.072 68.940 C 18.203 69.095,16.620 69.239,16.040 69.764 C 15.653 70.114,15.155 70.400,14.933 70.400 C 14.389 70.400,12.371 72.734,11.480 74.393 C 10.664 75.913,10.401 178.383,11.205 181.800 C 11.412 182.680,11.585 184.419,11.590 185.665 C 11.596 186.910,11.870 189.340,12.200 191.065 C 12.530 192.789,12.806 195.100,12.814 196.200 C 12.822 197.300,13.086 198.650,13.400 199.200 C 13.714 199.750,13.986 200.920,14.003 201.800 C 14.021 202.680,14.295 204.120,14.612 205.000 C 14.929 205.880,15.191 207.230,15.194 208.000 L 15.200 209.400 107.700 209.301 C 158.575 209.246,200.425 209.117,200.700 209.013 C 201.098 208.863,201.200 188.416,201.200 108.613 L 201.200 8.400 197.900 8.425 C 196.085 8.439,194.232 8.600,193.783 8.782 M208.000 8.788 C 208.330 9.008,209.215 9.191,209.967 9.194 C 211.760 9.202,211.441 8.975,209.200 8.650 C 207.942 8.467,207.581 8.509,208.000 8.788 M212.500 9.487 C 213.105 9.578,214.095 9.578,214.700 9.487 C 215.305 9.395,214.810 9.320,213.600 9.320 C 212.390 9.320,211.895 9.395,212.500 9.487 M220.100 10.676 C 220.485 10.776,221.115 10.776,221.500 10.676 C 221.885 10.575,221.570 10.493,220.800 10.493 C 220.030 10.493,219.715 10.575,220.100 10.676 M233.824 14.587 C 234.251 14.910,234.870 15.174,235.200 15.173 C 235.548 15.172,235.380 14.932,234.800 14.600 C 233.485 13.848,232.836 13.840,233.824 14.587 M248.403 21.513 C 248.406 21.869,250.847 23.286,251.071 23.062 C 251.161 22.972,250.596 22.523,249.817 22.063 C 249.038 21.603,248.401 21.356,248.403 21.513 M253.177 24.429 C 254.111 25.106,254.951 25.582,255.045 25.488 C 255.229 25.305,252.196 23.200,251.749 23.200 C 251.601 23.200,252.244 23.753,253.177 24.429 M262.200 30.207 C 262.640 30.566,263.360 31.035,263.800 31.251 L 264.600 31.644 263.800 30.993 C 263.360 30.634,262.640 30.165,262.200 29.949 L 261.400 29.556 262.200 30.207 M264.800 31.743 C 264.800 31.843,265.719 32.585,266.842 33.392 C 267.965 34.199,268.765 34.668,268.621 34.434 C 268.320 33.948,264.800 31.468,264.800 31.743 M273.213 37.500 C 273.219 37.665,273.714 38.146,274.313 38.568 L 275.400 39.336 274.430 38.268 C 273.411 37.146,273.192 37.007,273.213 37.500 M277.040 40.309 C 279.514 42.067,280.857 42.876,281.024 42.710 C 281.202 42.531,276.223 39.200,275.777 39.200 C 275.614 39.200,276.182 39.699,277.040 40.309 M282.071 43.327 C 282.362 43.616,283.140 44.186,283.800 44.593 C 284.911 45.278,284.896 45.240,283.600 44.083 C 282.247 42.875,280.997 42.257,282.071 43.327 M298.170 52.352 C 298.290 52.545,298.795 52.806,299.294 52.932 C 300.168 53.152,300.173 53.140,299.424 52.580 C 298.564 51.938,297.832 51.804,298.170 52.352 M300.620 53.572 C 300.829 53.776,301.540 54.055,302.200 54.191 C 303.396 54.439,303.395 54.437,302.054 53.820 C 300.519 53.113,300.072 53.035,300.620 53.572 M315.546 59.416 C 316.286 59.737,317.006 59.994,317.146 59.986 C 317.666 59.957,315.376 58.828,314.800 58.830 C 314.470 58.831,314.806 59.094,315.546 59.416 M319.200 60.600 C 319.750 60.914,320.470 61.171,320.800 61.170 C 321.130 61.169,320.794 60.906,320.054 60.584 C 318.351 59.845,317.894 59.853,319.200 60.600 M323.146 61.816 C 323.886 62.137,324.876 62.388,325.346 62.373 C 325.826 62.358,325.412 62.098,324.400 61.779 C 322.080 61.048,321.422 61.067,323.146 61.816 M327.600 62.958 C 328.150 63.296,329.140 63.557,329.800 63.540 C 330.979 63.509,330.976 63.503,329.600 63.208 C 328.830 63.043,327.840 62.781,327.400 62.626 C 326.876 62.442,326.945 62.556,327.600 62.958 M333.052 63.973 C 333.300 64.242,334.290 64.533,335.252 64.618 C 336.910 64.766,336.928 64.756,335.600 64.441 C 334.830 64.258,333.840 63.967,333.400 63.795 C 332.780 63.553,332.702 63.593,333.052 63.973 M338.000 65.200 C 338.330 65.413,338.960 65.578,339.400 65.566 L 340.200 65.544 339.400 65.200 C 338.204 64.686,337.205 64.686,338.000 65.200 M341.100 65.882 C 341.595 65.978,342.405 65.978,342.900 65.882 C 343.395 65.787,342.990 65.709,342.000 65.709 C 341.010 65.709,340.605 65.787,341.100 65.882 M345.000 66.400 C 345.440 66.589,346.160 66.744,346.600 66.744 L 347.400 66.744 346.600 66.400 C 346.160 66.211,345.440 66.056,345.000 66.056 L 344.200 66.056 345.000 66.400 M350.100 67.076 C 350.485 67.176,351.115 67.176,351.500 67.076 C 351.885 66.975,351.570 66.893,350.800 66.893 C 350.030 66.893,349.715 66.975,350.100 67.076 M354.400 67.588 C 354.730 67.808,355.615 67.991,356.367 67.994 C 358.160 68.002,357.841 67.775,355.600 67.450 C 354.342 67.267,353.981 67.309,354.400 67.588 M366.200 68.447 C 370.224 68.896,383.770 69.237,383.413 68.880 C 383.267 68.733,380.504 68.604,377.274 68.592 C 374.043 68.580,369.510 68.462,367.200 68.330 C 363.311 68.108,363.237 68.116,366.200 68.447 M391.793 124.200 C 391.793 149.940,391.841 160.411,391.900 147.469 C 391.959 134.527,391.958 113.467,391.900 100.669 C 391.841 87.871,391.793 98.460,391.793 124.200 M390.954 181.777 C 390.832 182.094,390.803 182.679,390.889 183.077 C 390.987 183.528,391.124 183.312,391.254 182.500 C 391.471 181.138,391.330 180.796,390.954 181.777 M390.531 186.600 C 390.533 188.140,390.605 188.721,390.692 187.891 C 390.779 187.061,390.777 185.801,390.689 185.091 C 390.600 184.381,390.529 185.060,390.531 186.600 M389.754 192.177 C 389.632 192.494,389.603 193.079,389.689 193.477 C 389.787 193.928,389.924 193.712,390.054 192.900 C 390.271 191.538,390.130 191.196,389.754 192.177 M389.320 196.400 C 389.320 197.610,389.395 198.105,389.487 197.500 C 389.578 196.895,389.578 195.905,389.487 195.300 C 389.395 194.695,389.320 195.190,389.320 196.400 M388.554 199.377 C 388.432 199.694,388.403 200.279,388.489 200.677 C 388.587 201.128,388.724 200.912,388.854 200.100 C 389.071 198.738,388.930 198.396,388.554 199.377 M388.064 202.876 C 388.029 203.688,387.820 204.464,387.600 204.600 C 387.380 204.736,387.201 205.152,387.202 205.524 C 387.204 205.942,387.440 205.749,387.822 205.017 C 388.161 204.367,388.369 203.287,388.283 202.617 C 388.141 201.500,388.123 201.521,388.064 202.876 " stroke="none" fill="#34bcf4" fill-rule="evenodd"></path><path id="path3" d="M201.300 209.464 C 200.449 209.809,200.579 409.540,201.431 409.867 C 202.155 410.145,206.339 408.847,207.129 408.100 C 207.419 407.825,207.914 407.600,208.229 407.600 C 208.543 407.600,208.800 407.441,208.800 407.247 C 208.800 407.052,209.115 406.780,209.500 406.641 C 210.455 406.298,213.835 404.422,215.892 403.093 C 216.823 402.492,217.768 402.000,217.992 402.000 C 218.216 402.000,218.400 401.838,218.400 401.639 C 218.400 401.441,218.895 401.078,219.500 400.833 C 220.105 400.588,222.670 399.053,225.200 397.423 C 227.730 395.792,231.330 393.510,233.200 392.352 C 235.070 391.193,236.690 390.145,236.800 390.023 C 237.012 389.787,244.797 384.482,245.931 383.800 C 246.297 383.580,247.253 382.905,248.056 382.300 C 248.859 381.695,249.714 381.200,249.958 381.200 C 250.201 381.200,250.401 381.065,250.403 380.900 C 250.404 380.735,251.079 380.156,251.903 379.614 C 254.645 377.807,263.318 371.418,264.818 370.100 C 265.631 369.385,266.455 368.797,266.648 368.794 C 266.842 368.790,267.899 367.980,268.997 366.994 C 270.096 366.007,271.144 365.200,271.326 365.200 C 271.508 365.200,271.882 364.975,272.158 364.700 C 272.887 363.971,275.609 361.742,280.600 357.785 C 283.020 355.866,285.722 353.645,286.605 352.848 C 287.488 352.052,289.093 350.680,290.172 349.800 C 291.251 348.920,293.589 346.833,295.367 345.162 C 297.145 343.491,300.019 340.881,301.752 339.362 C 305.355 336.206,321.300 320.436,322.803 318.544 C 323.351 317.853,325.317 315.632,327.170 313.609 C 329.024 311.585,330.910 309.450,331.362 308.865 C 331.813 308.279,332.367 307.600,332.591 307.355 C 333.862 305.971,337.513 301.704,338.178 300.827 C 338.605 300.262,339.505 299.157,340.178 298.372 C 341.522 296.801,342.218 295.952,344.594 292.988 C 346.793 290.246,346.528 290.596,349.423 286.600 C 351.662 283.509,357.327 275.191,358.592 273.137 C 358.816 272.772,359.927 270.972,361.059 269.137 C 364.098 264.213,364.745 263.105,365.220 262.008 C 365.457 261.463,365.774 260.923,365.925 260.808 C 366.631 260.273,375.600 242.206,375.600 241.317 C 375.600 241.087,375.870 240.674,376.200 240.400 C 376.530 240.126,376.800 239.579,376.800 239.183 C 376.800 238.788,377.054 237.955,377.365 237.332 C 378.445 235.169,379.170 233.380,380.416 229.800 C 381.105 227.820,381.834 225.887,382.035 225.505 C 382.236 225.123,382.401 224.493,382.402 224.105 C 382.404 223.717,382.674 222.884,383.002 222.254 C 383.331 221.624,383.600 220.714,383.600 220.231 C 383.600 219.748,383.864 219.004,384.187 218.576 C 384.510 218.149,384.780 217.293,384.787 216.674 C 384.794 216.054,385.013 215.154,385.274 214.674 C 385.534 214.193,385.869 213.080,386.017 212.200 C 386.165 211.320,386.357 210.330,386.443 210.000 C 386.597 209.410,202.750 208.878,201.300 209.464 " stroke="none" fill="#0c5494" fill-rule="evenodd"></path><path id="path4" d="M188.000 8.812 C 179.088 10.160,172.537 11.814,168.089 13.839 C 166.928 14.367,165.818 14.800,165.621 14.800 C 165.425 14.800,164.755 15.050,164.132 15.356 C 163.510 15.662,161.740 16.511,160.200 17.243 C 157.965 18.305,147.424 24.508,142.601 27.600 C 138.822 30.023,135.200 32.578,135.200 32.822 C 135.200 32.982,134.791 33.216,134.292 33.341 C 133.793 33.466,133.028 33.898,132.592 34.301 C 131.866 34.972,127.430 37.961,121.400 41.843 C 120.080 42.692,118.280 43.758,117.400 44.211 C 116.520 44.663,114.810 45.670,113.600 46.448 C 111.408 47.858,100.082 53.486,97.800 54.300 C 97.140 54.535,94.620 55.523,92.200 56.495 C 86.340 58.848,85.317 59.208,83.200 59.661 C 82.210 59.873,81.040 60.189,80.600 60.364 C 78.230 61.302,76.821 61.719,75.198 61.962 C 74.207 62.110,73.128 62.397,72.800 62.600 C 72.472 62.803,71.393 63.092,70.402 63.242 C 69.411 63.393,66.710 63.875,64.400 64.313 C 52.412 66.588,42.936 67.571,30.200 67.861 C 16.437 68.175,14.489 68.715,11.536 73.034 C 9.940 75.368,9.973 74.247,10.005 125.748 C 10.041 185.098,10.209 188.294,14.218 206.000 C 14.542 207.430,14.805 208.936,14.803 209.346 C 14.802 209.757,15.063 210.927,15.385 211.946 C 15.707 212.966,16.261 214.880,16.616 216.200 C 16.971 217.520,17.402 218.960,17.575 219.400 C 17.748 219.840,18.483 222.090,19.208 224.400 C 19.934 226.710,20.745 229.140,21.010 229.800 C 21.275 230.460,21.807 231.810,22.194 232.800 C 22.984 234.826,23.207 235.371,24.400 238.200 C 25.657 241.180,25.810 241.525,27.407 245.000 C 30.164 250.997,32.173 254.997,33.687 257.507 C 34.519 258.886,35.200 260.123,35.200 260.256 C 35.200 260.390,35.976 261.781,36.924 263.349 C 37.873 264.917,38.775 266.470,38.929 266.800 C 39.083 267.130,39.565 267.940,40.000 268.600 C 40.435 269.260,40.919 270.070,41.075 270.400 C 41.595 271.499,48.571 281.798,48.888 281.933 C 49.060 282.007,49.200 282.240,49.200 282.452 C 49.200 282.821,57.645 294.317,59.446 296.400 C 60.244 297.322,60.929 298.141,65.119 303.183 C 65.933 304.163,67.410 305.887,68.400 307.013 C 69.390 308.140,70.958 309.948,71.884 311.031 C 72.810 312.114,74.131 313.630,74.821 314.400 C 75.510 315.170,77.444 317.330,79.117 319.200 C 82.311 322.768,90.155 330.649,95.241 335.400 C 99.659 339.527,106.791 346.093,107.758 346.923 C 108.221 347.320,109.661 348.580,110.959 349.723 C 112.256 350.865,113.696 352.128,114.159 352.528 C 114.621 352.929,115.450 353.650,116.000 354.130 C 117.427 355.377,128.114 363.880,131.200 366.225 C 132.630 367.311,133.944 368.425,134.120 368.700 C 134.296 368.975,134.612 369.200,134.823 369.200 C 135.034 369.200,135.700 369.634,136.303 370.165 C 137.371 371.104,147.774 378.801,149.597 380.000 C 150.099 380.330,151.565 381.365,152.856 382.300 C 154.146 383.235,155.305 384.000,155.432 384.000 C 155.558 384.000,156.682 384.782,157.930 385.739 C 159.179 386.695,160.380 387.550,160.600 387.639 C 160.820 387.727,163.880 389.706,167.400 392.036 C 170.920 394.366,174.610 396.759,175.600 397.353 C 176.590 397.948,177.760 398.651,178.200 398.916 C 178.640 399.181,179.540 399.772,180.200 400.228 C 180.860 400.685,181.670 401.183,182.000 401.334 C 182.330 401.485,183.140 401.964,183.800 402.398 C 184.460 402.833,185.360 403.374,185.800 403.601 C 186.240 403.828,187.500 404.557,188.600 405.220 C 189.700 405.884,191.050 406.642,191.600 406.905 C 192.150 407.168,192.694 407.511,192.808 407.667 C 194.829 410.415,203.019 411.279,206.800 409.142 C 208.010 408.458,209.540 407.620,210.200 407.281 C 210.860 406.941,211.490 406.559,211.600 406.431 C 211.710 406.304,212.520 405.840,213.400 405.400 C 214.280 404.960,215.720 404.126,216.600 403.547 C 217.480 402.968,218.831 402.158,219.602 401.747 C 220.373 401.336,221.543 400.640,222.203 400.200 C 223.434 399.380,223.703 399.213,226.800 397.353 C 230.282 395.263,242.602 387.044,242.733 386.724 C 242.807 386.546,243.051 386.400,243.276 386.400 C 243.501 386.400,244.367 385.860,245.200 385.200 C 246.033 384.540,246.832 384.000,246.974 384.000 C 247.117 384.000,247.451 383.812,247.717 383.581 C 247.983 383.351,249.460 382.280,251.000 381.200 C 252.540 380.120,254.017 379.049,254.283 378.819 C 254.549 378.588,254.873 378.400,255.002 378.400 C 255.132 378.400,257.075 377.012,259.319 375.315 C 261.564 373.619,263.580 372.095,263.800 371.929 C 264.020 371.764,264.830 371.114,265.600 370.486 C 266.370 369.857,268.530 368.193,270.400 366.787 C 272.270 365.382,274.009 364.045,274.265 363.816 C 274.521 363.587,275.241 363.011,275.865 362.535 C 276.489 362.059,277.751 361.069,278.670 360.335 C 279.588 359.601,281.478 358.108,282.870 357.019 C 284.261 355.929,285.490 354.939,285.600 354.819 C 285.839 354.558,288.398 352.294,292.176 349.000 C 293.691 347.680,295.396 346.178,295.965 345.662 C 299.411 342.540,305.461 336.918,308.578 333.941 C 310.570 332.039,313.159 329.609,314.331 328.541 C 315.503 327.474,318.473 324.368,320.931 321.639 C 323.389 318.911,325.898 316.157,326.507 315.519 C 327.115 314.881,329.273 312.433,331.302 310.079 C 333.331 307.726,335.173 305.607,335.395 305.371 C 335.618 305.135,336.520 304.065,337.400 302.992 C 338.280 301.920,339.549 300.404,340.220 299.622 C 340.891 298.840,342.061 297.390,342.820 296.400 C 343.579 295.410,344.605 294.138,345.100 293.574 C 345.934 292.624,352.236 284.045,353.600 282.004 C 353.930 281.510,354.695 280.408,355.300 279.556 C 355.905 278.704,356.400 277.896,356.400 277.761 C 356.400 277.626,356.895 276.859,357.500 276.056 C 358.105 275.253,358.820 274.238,359.089 273.798 C 363.906 265.940,365.600 263.128,365.600 262.990 C 365.600 262.898,366.408 261.456,367.396 259.785 C 369.117 256.874,374.554 245.989,376.378 241.800 C 376.858 240.700,377.486 239.260,377.774 238.600 C 378.063 237.940,378.610 236.590,378.991 235.600 C 379.371 234.610,379.842 233.490,380.038 233.110 C 380.234 232.731,380.765 231.291,381.218 229.910 C 381.672 228.530,382.190 227.124,382.370 226.787 C 382.551 226.450,382.834 225.556,383.000 224.800 C 383.166 224.044,383.446 223.150,383.622 222.813 C 383.798 222.476,384.228 221.210,384.576 220.000 C 384.925 218.790,385.497 216.810,385.848 215.600 C 387.007 211.602,387.560 209.435,388.194 206.400 C 388.539 204.750,388.995 202.770,389.208 202.000 C 391.876 192.321,392.346 181.022,392.398 125.354 C 392.422 98.709,392.314 76.389,392.156 75.754 C 391.492 73.080,387.660 68.814,385.903 68.794 C 385.627 68.791,384.680 68.544,383.800 68.246 C 382.659 67.859,379.473 67.684,372.684 67.633 C 367.451 67.594,361.691 67.386,359.884 67.171 C 358.078 66.956,354.890 66.616,352.800 66.415 C 348.663 66.017,342.721 65.118,338.000 64.176 C 336.350 63.846,334.100 63.420,333.000 63.227 C 331.900 63.035,329.560 62.477,327.800 61.988 C 326.040 61.499,323.970 60.959,323.200 60.788 C 322.430 60.618,321.170 60.255,320.400 59.983 C 316.999 58.778,316.072 58.463,314.000 57.811 C 312.790 57.430,311.233 56.867,310.540 56.559 C 309.846 56.252,309.079 56.000,308.834 56.000 C 308.589 56.000,308.077 55.831,307.695 55.625 C 307.313 55.419,306.190 54.893,305.200 54.456 C 300.053 52.184,291.477 47.928,289.093 46.463 C 287.604 45.549,286.263 44.800,286.114 44.800 C 285.964 44.800,284.634 43.990,283.158 43.000 C 281.683 42.010,280.322 41.200,280.134 41.200 C 279.946 41.200,279.307 40.750,278.713 40.200 C 278.120 39.650,277.453 39.200,277.231 39.200 C 277.009 39.200,276.213 38.660,275.461 38.000 C 274.709 37.340,273.837 36.800,273.522 36.800 C 273.207 36.800,272.432 36.260,271.800 35.600 C 271.168 34.940,270.452 34.400,270.210 34.400 C 269.968 34.400,269.147 33.867,268.385 33.216 C 267.623 32.565,266.870 32.025,266.712 32.016 C 266.426 32.000,262.784 29.604,262.400 29.179 C 262.290 29.057,261.480 28.527,260.600 28.000 C 259.720 27.473,258.910 26.936,258.800 26.806 C 258.517 26.472,251.269 22.020,250.247 21.553 C 249.222 21.084,248.177 20.467,246.592 19.393 C 245.936 18.948,244.140 17.986,242.600 17.255 C 241.060 16.523,239.481 15.757,239.091 15.553 C 238.701 15.349,237.351 14.810,236.091 14.356 C 234.831 13.901,233.233 13.275,232.540 12.965 C 231.846 12.654,230.989 12.400,230.634 12.400 C 230.279 12.400,229.677 12.233,229.295 12.029 C 228.216 11.453,224.477 10.375,222.022 9.932 C 220.800 9.712,218.360 9.258,216.600 8.924 C 211.349 7.928,194.288 7.860,188.000 8.812 M210.400 8.795 C 218.185 9.834,222.185 10.521,224.600 11.234 C 226.206 11.709,232.981 13.934,235.600 14.847 C 237.988 15.680,244.433 18.900,248.114 21.100 C 250.047 22.255,251.706 23.200,251.802 23.200 C 251.897 23.200,253.227 24.010,254.758 25.000 C 256.288 25.990,257.734 26.800,257.970 26.800 C 258.207 26.800,258.400 26.975,258.400 27.190 C 258.400 27.404,258.895 27.836,259.500 28.149 C 260.105 28.462,262.375 29.952,264.545 31.459 C 266.715 32.967,268.784 34.380,269.144 34.600 C 269.503 34.820,270.389 35.495,271.113 36.100 C 271.836 36.705,272.660 37.200,272.944 37.200 C 273.228 37.200,273.883 37.650,274.400 38.200 C 274.917 38.750,275.509 39.200,275.716 39.200 C 275.923 39.200,277.311 40.010,278.800 41.000 C 280.289 41.990,281.680 42.800,281.892 42.800 C 282.103 42.800,282.590 43.147,282.973 43.570 C 283.356 43.994,284.689 44.838,285.935 45.446 C 287.181 46.054,288.453 46.802,288.761 47.108 C 289.362 47.705,302.017 53.997,302.632 54.005 C 302.835 54.008,304.030 54.532,305.288 55.171 C 306.547 55.809,308.120 56.451,308.784 56.596 C 309.448 56.742,310.094 57.028,310.219 57.231 C 310.345 57.434,310.724 57.600,311.063 57.600 C 311.402 57.600,312.246 57.840,312.940 58.134 C 314.547 58.815,316.667 59.574,318.200 60.017 C 325.723 62.189,328.627 62.960,331.000 63.417 C 332.540 63.713,335.060 64.237,336.600 64.581 C 338.140 64.925,340.660 65.383,342.200 65.599 C 343.740 65.814,345.810 66.164,346.800 66.376 C 351.408 67.363,365.514 68.416,376.800 68.615 C 386.021 68.777,388.574 69.760,390.699 73.962 L 391.800 76.138 391.800 127.569 C 391.800 165.248,391.672 179.909,391.323 182.400 C 391.060 184.270,390.630 187.600,390.367 189.800 C 389.297 198.746,388.526 203.413,387.930 204.544 C 387.714 204.954,387.395 206.124,387.220 207.144 C 386.755 209.860,385.985 212.816,385.354 214.314 C 385.049 215.036,384.800 216.050,384.800 216.568 C 384.800 217.085,384.531 218.024,384.202 218.654 C 383.874 219.284,383.604 220.094,383.602 220.454 C 383.601 220.814,383.331 221.624,383.002 222.254 C 382.674 222.884,382.404 223.794,382.402 224.276 C 382.401 224.758,382.236 225.254,382.035 225.378 C 381.834 225.503,381.548 226.322,381.400 227.200 C 381.252 228.078,380.966 228.897,380.765 229.022 C 380.564 229.146,380.400 229.524,380.400 229.863 C 380.400 230.202,380.117 231.136,379.770 231.940 C 379.424 232.743,378.868 234.030,378.536 234.800 C 378.203 235.570,377.676 236.710,377.365 237.332 C 377.054 237.955,376.800 238.788,376.800 239.183 C 376.800 239.579,376.530 240.126,376.200 240.400 C 375.870 240.674,375.600 241.089,375.600 241.323 C 375.600 241.798,375.128 242.830,371.630 250.000 C 370.289 252.750,368.384 256.440,367.398 258.200 C 366.413 259.960,365.480 261.670,365.326 262.000 C 363.437 266.054,353.166 281.649,346.490 290.600 C 346.069 291.165,339.585 299.200,338.609 300.367 C 338.164 300.899,336.707 302.609,335.372 304.167 C 334.037 305.725,332.507 307.529,331.972 308.175 C 331.437 308.821,329.367 311.161,327.372 313.375 C 325.376 315.589,323.306 317.940,322.772 318.600 C 321.116 320.645,305.152 336.374,300.239 340.800 C 297.675 343.110,294.794 345.720,293.836 346.600 C 292.878 347.480,291.218 348.920,290.148 349.800 C 289.078 350.680,287.392 352.126,286.401 353.013 C 285.411 353.900,283.700 355.334,282.600 356.199 C 281.500 357.065,280.510 357.877,280.400 358.005 C 280.290 358.133,279.030 359.123,277.600 360.206 C 276.170 361.289,274.800 362.361,274.556 362.588 C 272.896 364.129,271.563 365.200,271.303 365.202 C 271.137 365.203,270.460 365.705,269.800 366.318 C 268.381 367.635,255.114 377.539,252.878 378.951 C 252.025 379.489,251.066 380.170,250.747 380.465 C 250.428 380.759,249.875 381.180,249.520 381.400 C 247.930 382.383,236.956 389.841,236.571 390.200 C 236.334 390.420,235.479 390.956,234.671 391.391 C 233.862 391.826,233.200 392.321,233.200 392.491 C 233.200 392.661,233.010 392.800,232.779 392.800 C 232.400 392.800,229.746 394.433,224.880 397.659 C 223.934 398.287,223.062 398.800,222.942 398.800 C 222.822 398.800,222.159 399.205,221.470 399.700 C 220.097 400.686,218.927 401.412,218.000 401.855 C 217.670 402.013,216.680 402.602,215.800 403.164 C 213.775 404.457,210.414 406.313,209.500 406.641 C 209.115 406.780,208.800 407.052,208.800 407.247 C 208.800 407.441,208.543 407.600,208.229 407.600 C 207.914 407.600,207.419 407.825,207.129 408.100 C 204.264 410.809,198.804 410.449,193.400 407.194 C 192.080 406.399,190.730 405.626,190.400 405.477 C 190.070 405.327,189.530 405.052,189.200 404.866 C 188.870 404.679,188.240 404.322,187.800 404.073 C 185.696 402.882,178.064 398.157,177.000 397.387 C 176.340 396.909,175.530 396.403,175.200 396.262 C 174.360 395.902,173.244 395.181,171.544 393.900 C 170.741 393.295,169.987 392.800,169.868 392.800 C 169.748 392.800,168.467 391.990,167.021 391.000 C 165.575 390.010,164.214 389.200,163.996 389.200 C 163.778 389.200,163.600 389.020,163.600 388.800 C 163.600 388.580,163.413 388.400,163.184 388.400 C 162.710 388.400,160.269 386.755,160.067 386.300 C 159.993 386.135,159.771 386.000,159.572 386.000 C 159.374 386.000,157.776 384.965,156.022 383.700 C 146.960 377.164,145.016 375.787,144.643 375.639 C 144.419 375.551,143.883 375.150,143.452 374.748 C 143.020 374.346,141.932 373.518,141.034 372.909 C 140.135 372.300,139.310 371.707,139.200 371.591 C 138.723 371.086,135.665 368.800,135.467 368.800 C 135.347 368.800,134.653 368.243,133.925 367.563 C 133.196 366.882,131.970 365.914,131.200 365.410 C 130.430 364.906,129.350 364.091,128.800 363.598 C 128.250 363.105,126.816 361.959,125.613 361.051 C 124.410 360.143,123.144 359.124,122.799 358.786 C 122.454 358.448,121.462 357.638,120.594 356.986 C 118.601 355.488,117.538 354.611,115.238 352.565 C 114.227 351.665,111.780 349.514,109.800 347.785 C 107.820 346.055,105.120 343.613,103.800 342.357 C 102.480 341.101,100.500 339.306,99.400 338.366 C 93.598 333.413,76.421 315.510,69.112 306.800 C 68.651 306.250,67.627 305.076,66.837 304.190 C 66.047 303.305,64.770 301.786,64.000 300.815 C 63.230 299.843,61.970 298.304,61.200 297.395 C 59.519 295.408,56.371 291.428,54.271 288.634 C 52.838 286.728,51.690 285.083,48.386 280.200 C 47.642 279.100,46.890 278.140,46.716 278.067 C 46.542 277.993,46.400 277.761,46.400 277.550 C 46.400 277.102,44.738 274.661,44.300 274.467 C 44.135 274.393,44.000 274.176,44.000 273.984 C 44.000 273.793,43.532 272.953,42.960 272.118 C 42.388 271.283,41.758 270.240,41.561 269.800 C 41.153 268.892,40.668 268.114,39.100 265.861 C 38.495 264.991,38.000 264.037,38.000 263.740 C 38.000 263.443,37.838 263.200,37.639 263.200 C 37.441 263.200,37.086 262.705,36.851 262.100 C 36.616 261.495,35.768 259.830,34.966 258.400 C 32.394 253.808,27.526 243.901,25.926 240.000 C 25.313 238.505,24.568 236.746,23.979 235.400 C 23.182 233.577,22.603 232.054,21.623 229.200 C 21.131 227.770,20.475 226.033,20.165 225.340 C 19.854 224.646,19.600 223.712,19.600 223.263 C 19.600 222.814,19.436 222.346,19.235 222.222 C 19.034 222.097,18.748 221.278,18.600 220.400 C 18.452 219.522,18.166 218.703,17.965 218.578 C 17.764 218.454,17.601 217.958,17.602 217.476 C 17.603 216.994,17.353 215.790,17.045 214.800 C 16.738 213.810,16.197 212.076,15.843 210.946 C 15.489 209.817,15.197 208.377,15.194 207.746 C 15.191 207.116,14.929 205.880,14.612 205.000 C 14.295 204.120,14.021 202.680,14.003 201.800 C 13.986 200.920,13.714 199.750,13.400 199.200 C 13.086 198.650,12.822 197.300,12.814 196.200 C 12.806 195.100,12.530 192.789,12.200 191.065 C 11.870 189.340,11.596 186.910,11.590 185.665 C 11.585 184.419,11.412 182.680,11.205 181.800 C 10.401 178.383,10.664 75.913,11.480 74.393 C 12.371 72.734,14.389 70.400,14.933 70.400 C 15.155 70.400,15.653 70.114,16.040 69.764 C 16.620 69.239,18.203 69.095,25.072 68.940 C 29.652 68.837,34.120 68.588,35.000 68.386 C 35.880 68.184,38.670 68.007,41.200 67.992 C 43.730 67.977,46.610 67.786,47.600 67.567 C 48.590 67.349,51.020 67.006,53.000 66.805 C 58.686 66.229,62.931 65.603,63.800 65.213 C 64.240 65.015,65.632 64.739,66.894 64.599 C 68.155 64.459,69.291 64.177,69.417 63.972 C 69.544 63.767,70.312 63.599,71.124 63.598 C 71.936 63.596,73.116 63.326,73.746 62.998 C 74.376 62.669,75.456 62.399,76.146 62.398 C 76.836 62.396,77.916 62.126,78.546 61.798 C 79.176 61.469,80.279 61.200,80.997 61.200 C 81.715 61.200,82.526 60.930,82.800 60.600 C 83.074 60.270,83.884 60.000,84.600 60.000 C 85.316 60.000,86.126 59.730,86.400 59.400 C 86.674 59.070,87.371 58.794,87.949 58.787 C 88.527 58.780,89.349 58.510,89.776 58.187 C 90.204 57.864,90.927 57.600,91.384 57.600 C 91.841 57.600,93.648 56.880,95.400 56.000 C 97.152 55.120,98.863 54.400,99.203 54.400 C 99.544 54.400,100.177 54.157,100.611 53.860 C 101.045 53.563,101.895 53.199,102.500 53.052 C 103.105 52.905,103.600 52.608,103.600 52.392 C 103.600 52.177,103.938 52.000,104.351 52.000 C 104.764 52.000,105.326 51.730,105.600 51.400 C 105.874 51.070,106.414 50.800,106.800 50.800 C 107.186 50.800,107.726 50.530,108.000 50.200 C 108.274 49.870,108.825 49.600,109.225 49.600 C 109.625 49.600,110.064 49.420,110.201 49.199 C 110.337 48.978,111.279 48.419,112.295 47.957 C 113.311 47.494,114.380 46.878,114.670 46.587 C 114.961 46.296,115.919 45.741,116.799 45.352 C 117.680 44.964,118.400 44.501,118.400 44.323 C 118.400 44.145,118.582 44.000,118.804 44.000 C 119.026 44.000,120.839 42.920,122.832 41.600 C 124.826 40.280,126.581 39.200,126.732 39.200 C 126.884 39.200,127.470 38.772,128.033 38.249 C 128.597 37.727,129.430 37.181,129.885 37.037 C 130.339 36.892,131.156 36.375,131.700 35.887 C 132.925 34.789,133.932 34.114,135.100 33.609 C 135.595 33.395,136.000 33.035,136.000 32.810 C 136.000 32.584,136.199 32.400,136.442 32.400 C 136.686 32.400,137.567 31.860,138.400 31.200 C 139.233 30.540,140.099 30.000,140.324 30.000 C 140.549 30.000,140.793 29.865,140.867 29.700 C 141.001 29.399,144.077 27.265,145.200 26.695 C 145.530 26.528,146.340 26.035,147.000 25.600 C 147.660 25.165,148.470 24.685,148.800 24.534 C 149.130 24.382,149.490 24.131,149.600 23.975 C 149.710 23.819,151.060 23.016,152.600 22.189 C 154.140 21.363,155.490 20.577,155.600 20.443 C 155.710 20.309,156.651 19.784,157.691 19.276 C 158.731 18.768,159.687 18.184,159.815 17.976 C 159.943 17.769,160.375 17.600,160.775 17.600 C 161.175 17.600,161.726 17.330,162.000 17.000 C 162.274 16.670,162.821 16.400,163.217 16.400 C 163.612 16.400,164.490 16.130,165.168 15.800 C 165.845 15.470,166.955 14.930,167.632 14.600 C 168.310 14.270,169.170 14.000,169.543 14.000 C 169.917 14.000,170.577 13.755,171.011 13.455 C 171.445 13.155,172.340 12.811,173.000 12.689 C 174.939 12.333,177.751 11.571,178.416 11.222 C 178.755 11.044,180.195 10.766,181.616 10.604 C 183.037 10.443,184.380 10.172,184.600 10.003 C 184.820 9.833,186.792 9.564,188.983 9.404 C 191.173 9.244,193.333 8.964,193.783 8.782 C 194.948 8.310,206.833 8.319,210.400 8.795 " stroke="none" fill="#72afdd" fill-rule="evenodd"></path></g></svg>