<svg id="0c54712c-4763-4d2f-8e82-61b96cc9351a" xmlns="http://www.w3.org/2000/svg" viewBox="0 0 1753 1753"><defs><style>.cls-1{fill:#0254ec;}.cls-2{fill:#fff;}</style></defs><rect class="cls-1" width="1753" height="1753"/><path class="cls-2" d="M880.83,638.34H988.49a7.23,7.23,0,0,1,7.23,7.23v484.18a7.23,7.23,0,0,1-7.23,7.23H880.83a7.23,7.23,0,0,1-7.23-7.23V645.57A7.23,7.23,0,0,1,880.83,638.34Z" transform="translate(0 0.11)"/><path class="cls-2" d="M828.37,638.3H715.21a7.25,7.25,0,0,0-6.76,4.67l-79.68,208.6a2.58,2.58,0,0,1-3.32,1.49,2.63,2.63,0,0,1-1.42-1.34L528.9,644.46A12.67,12.67,0,0,0,518.12,637h-.2a12.69,12.69,0,0,0-11.12,7.49L411.71,851.72a2.58,2.58,0,0,1-4.75-.15L327.28,643a7.26,7.26,0,0,0-6.75-4.67H207.37a7.26,7.26,0,0,0-6.75,9.91l187.13,487a2.58,2.58,0,0,0,4.71.23l114-228.15a12.78,12.78,0,0,1,22.91,0l114,228.15a2.59,2.59,0,0,0,3.47,1.14,2.53,2.53,0,0,0,1.24-1.37l187.13-487a7.28,7.28,0,0,0-6.84-9.94Z" transform="translate(0 0.11)"/><path class="cls-2" d="M873.19,645.45v483.87a7.22,7.22,0,0,0,7.22,7.23H988a7.23,7.23,0,0,0,7.23-7.23V645.45a7.23,7.23,0,0,0-7.23-7.23H880.41A7.22,7.22,0,0,0,873.19,645.45Zm168,481.8a6.43,6.43,0,0,0,5.84,9.3h390.66a7.28,7.28,0,0,0,7.34-7.23v-94.75a7.28,7.28,0,0,0-7.34-7.22h-197.1a6.43,6.43,0,0,1-5.73-9.5l204.93-370.14a6.43,6.43,0,0,0-5.74-9.49h-386.9a7.28,7.28,0,0,0-7.34,7.23V750.33a7.29,7.29,0,0,0,7.34,7.23H1219a6.43,6.43,0,0,1,5.84,9.3ZM828,638.18H714.9a7.25,7.25,0,0,0-6.76,4.67L628.51,851.32a2.57,2.57,0,0,1-4.74.15L528.7,644.33a12.68,12.68,0,0,0-10.77-7.46h-.08s-.05,0-.08,0a12.68,12.68,0,0,0-11.12,7.48L411.58,851.47a2.57,2.57,0,0,1-4.74-.15L327.21,642.85a7.25,7.25,0,0,0-6.76-4.67H207.37a7.27,7.27,0,0,0-6.75,9.9l187,486.73a2.58,2.58,0,0,0,4.71.23L506.23,907a12.77,12.77,0,0,1,22.89,0L643,1135a2.58,2.58,0,0,0,4.71-.23l187-486.73A7.27,7.27,0,0,0,828,638.18Zm787-90.28a2.48,2.48,0,0,1,1.93,2.42h0a2.48,2.48,0,0,1-1.93,2.42c-20.41,4.71-51.37,13.84-64,26.45s-21.73,43.55-26.44,64a2.47,2.47,0,0,1-2.42,1.92h0a2.47,2.47,0,0,1-2.42-1.92c-4.71-20.42-13.84-51.37-26.45-64s-43.55-21.73-64-26.44a2.47,2.47,0,0,1-1.92-2.42h0a2.49,2.49,0,0,1,1.92-2.42c20.42-4.71,51.37-13.84,64-26.44s21.74-43.56,26.45-64a2.48,2.48,0,0,1,2.41-1.93h0a2.48,2.48,0,0,1,2.42,1.93c4.71,20.41,13.85,51.37,26.45,64S1594.57,543.19,1615,547.9Z" transform="translate(0 0.11)"/></svg>