<?xml version="1.0" encoding="UTF-8"?>
<svg id="bbaffca0-911d-45ff-952e-92915756a877" xmlns="http://www.w3.org/2000/svg" version="1.1" viewBox="0 0 256 256">
  <!-- Generator: Adobe Illustrator 30.3.0, SVG Export Plug-In . SVG Version: 2.1.3 Build 182)  -->
  <defs>
    <style>
      .st0 {
        fill: none;
      }

      .st1, .st2 {
        fill-rule: evenodd;
      }

      .st1, .st3 {
        fill: #ff4c15;
      }

      .st2, .st4 {
        fill: #c0421a;
      }

      .st5 {
        clip-path: url(#bff3d701-71e4-4c91-98d1-d125f0e42dd5);
      }

      .st6 {
        clip-path: url(#257b47e3-a1c4-4b76-8c7d-46a3b22731b6);
      }

      .st7 {
        clip-path: url(#19e68259-cf50-444a-afa9-2b3c595529ab);
      }

      .st8 {
        clip-path: url(#1ddf6f63-4a46-4783-9c2d-caeac7dd36c0);
      }
    </style>
    <clipPath id="1ddf6f63-4a46-4783-9c2d-caeac7dd36c0">
      <path class="st0" d="M141.8,57.2s74.8,23.7,98.5,31.6c4.5,1.5,8.6,4.5,8.6,4.5,0,0-56.1,25.4-95.3,49.3-21.8,13.2-38.6,30.6-38.6,30.6l-61.5-14.2s12.7-22.5,33.3-46.4c23.3-26.9,55-55.5,55-55.5h0Z"/>
    </clipPath>
    <clipPath id="bff3d701-71e4-4c91-98d1-d125f0e42dd5">
      <rect class="st0" x="-373.8" y="-382.8" width="4150.1" height="2666.8"/>
    </clipPath>
    <clipPath id="19e68259-cf50-444a-afa9-2b3c595529ab">
      <path class="st0" d="M248.9,93.3l-41.4-56.6s-39.6-7.1-79.3-7.1-79.5,7.1-79.5,7.1L7.4,93.3s60.4-14.2,120.8-14.2,120.8,14.2,120.8,14.2M53.5,159.1l74.2,65,74.3-65s-37.2,7.1-74.2,7.1-74.3-7.1-74.3-7.1Z"/>
    </clipPath>
    <clipPath id="257b47e3-a1c4-4b76-8c7d-46a3b22731b6">
      <rect class="st0" x="-373.8" y="-382.8" width="4150.1" height="2666.8"/>
    </clipPath>
  </defs>
  <g>
    <path class="st2" d="M141.8,57.2s74.8,23.7,98.5,31.6c4.5,1.5,8.6,4.5,8.6,4.5,0,0-56.1,25.4-95.3,49.3-21.8,13.2-38.6,30.6-38.6,30.6l-61.5-14.2s12.7-22.5,33.3-46.4c23.3-26.9,55-55.5,55-55.5"/>
    <g class="st8">
      <g>
        <rect class="st4" x="-373.8" y="-382.8" width="4150.1" height="2666.8"/>
        <g class="st5">
          <rect class="st4" x="33.2" y="36.9" width="236" height="156.5"/>
        </g>
      </g>
    </g>
  </g>
  <g>
    <path class="st1" d="M248.9,93.3l-41.4-56.6s-39.6-7.1-79.3-7.1-79.5,7.1-79.5,7.1L7.4,93.3s60.4-14.2,120.8-14.2,120.8,14.2,120.8,14.2M53.5,159.1l74.2,65,74.3-65s-37.2,7.1-74.2,7.1-74.3-7.1-74.3-7.1"/>
    <g class="st7">
      <g>
        <rect class="st3" x="-373.8" y="-382.8" width="4150.1" height="2666.8"/>
        <g class="st6">
          <rect class="st3" x="-13" y="9.4" width="282.2" height="235"/>
        </g>
      </g>
    </g>
  </g>
</svg>