<?xml version="1.0" encoding="UTF-8" ?>
<!DOCTYPE svg PUBLIC "-//W3C//DTD SVG 1.1//EN" "http://www.w3.org/Graphics/SVG/1.1/DTD/svg11.dtd">
<svg width="1400pt" height="1400pt" viewBox="0 0 1400 1400" version="1.1" xmlns="http://www.w3.org/2000/svg">
<g id="#ffffffff">
<path fill="#ffffff" opacity="1.00" d=" M 0.00 0.00 L 1400.00 0.00 L 1400.00 1400.00 L 0.00 1400.00 L 0.00 0.00 M 126.38 600.71 C 106.97 601.99 87.53 603.90 68.40 607.40 C 54.28 626.78 40.06 646.09 25.95 665.48 C 63.59 657.41 101.92 652.09 140.44 651.10 C 115.06 675.67 91.33 702.35 73.54 733.03 C 98.89 755.47 124.40 777.74 149.89 800.02 C 175.36 777.72 200.84 755.42 226.25 733.04 C 209.89 735.94 193.38 738.01 176.81 739.26 C 166.22 739.87 155.46 740.81 144.93 740.00 C 165.96 720.48 191.59 707.12 216.74 693.77 C 235.57 684.02 254.58 674.62 273.87 665.80 L 274.68 666.09 C 273.62 663.70 271.72 661.85 270.30 659.70 C 257.45 642.22 244.74 624.64 231.82 607.23 C 197.02 601.59 161.63 598.51 126.38 600.71 M 487.31 626.75 C 487.32 673.74 487.30 720.74 487.32 767.73 C 495.81 767.77 504.31 767.75 512.80 767.75 C 512.91 740.36 512.49 712.93 512.80 685.57 C 527.24 699.63 541.18 714.27 555.46 728.52 C 569.71 714.23 583.64 699.53 598.16 685.56 C 598.25 712.95 598.01 740.35 598.08 767.75 C 606.57 767.75 615.06 767.77 623.56 767.73 C 623.57 720.74 623.57 673.74 623.56 626.74 C 600.86 649.19 578.17 671.66 555.48 694.11 C 532.66 671.75 510.06 649.18 487.31 626.75 M 1184.06 626.75 C 1184.07 673.75 1184.03 720.75 1184.08 767.75 C 1192.57 767.74 1201.06 767.77 1209.56 767.74 C 1209.54 740.38 1209.43 713.03 1209.40 685.68 C 1210.57 686.00 1211.24 687.10 1212.09 687.91 C 1225.46 701.45 1238.83 714.99 1252.19 728.53 C 1262.16 718.37 1272.20 708.28 1282.17 698.12 C 1286.50 694.02 1290.33 689.34 1294.96 685.59 C 1294.96 712.97 1294.77 740.36 1294.84 767.75 C 1303.32 767.76 1311.80 767.75 1320.29 767.75 C 1320.34 720.75 1320.30 673.74 1320.31 626.74 C 1297.59 649.18 1274.93 671.68 1252.20 694.11 C 1229.41 671.73 1206.80 649.18 1184.06 626.75 M 315.64 633.23 C 315.31 641.32 315.59 649.53 315.49 657.66 C 337.52 657.70 359.56 657.54 381.59 657.53 C 356.86 694.31 331.98 730.99 307.23 767.75 C 344.58 767.75 381.94 767.77 419.30 767.74 C 419.33 759.61 419.30 751.47 419.31 743.34 C 397.35 743.29 375.38 743.46 353.41 743.47 C 378.07 706.68 402.89 670.00 427.59 633.24 C 390.28 633.24 352.96 633.26 315.64 633.23 M 440.38 633.26 C 440.36 678.09 440.37 722.91 440.38 767.73 C 448.87 767.77 457.36 767.75 465.86 767.74 C 465.89 722.92 465.89 678.09 465.86 633.26 C 457.37 633.24 448.87 633.23 440.38 633.26 M 645.02 633.25 C 644.99 678.08 644.99 722.92 645.02 767.75 C 653.51 767.74 662.00 767.78 670.50 767.73 C 670.51 753.51 670.49 739.28 670.51 725.06 C 682.34 725.05 694.17 725.08 706.00 725.05 C 722.29 724.67 738.34 715.53 746.04 701.00 C 753.68 686.93 753.25 668.79 744.78 655.17 C 738.11 644.26 726.61 636.63 714.10 634.24 C 708.15 632.97 702.05 633.28 696.02 633.25 C 679.02 633.25 662.02 633.25 645.02 633.25 M 768.44 633.27 C 768.43 678.09 768.43 722.91 768.44 767.74 C 801.35 767.77 834.26 767.75 867.17 767.74 C 867.20 759.60 867.19 751.45 867.17 743.31 C 842.77 743.30 818.36 743.33 793.95 743.30 C 793.93 733.05 793.93 722.81 793.95 712.57 C 814.23 712.55 834.51 712.57 854.79 712.56 C 854.84 704.42 854.81 696.28 854.81 688.14 C 834.52 688.09 814.24 688.15 793.96 688.11 C 793.93 677.97 793.92 667.84 793.96 657.70 C 818.36 657.67 842.77 657.70 867.17 657.69 C 867.20 649.54 867.20 641.39 867.17 633.25 C 834.26 633.26 801.35 633.22 768.44 633.27 M 884.20 633.25 C 884.17 678.08 884.18 722.91 884.20 767.74 C 892.69 767.76 901.18 767.76 909.68 767.74 C 909.71 753.51 909.66 739.29 909.70 725.06 C 918.82 725.06 927.95 725.06 937.07 725.06 C 944.39 739.17 951.33 753.52 958.51 767.72 C 967.97 767.79 977.44 767.75 986.90 767.73 C 979.08 752.08 971.24 736.44 963.46 720.77 C 973.46 716.36 981.94 708.41 986.49 698.42 C 992.91 684.49 991.86 667.30 983.48 654.40 C 976.53 643.54 964.74 636.12 952.07 634.02 C 946.77 633.03 941.37 633.27 936.02 633.25 C 918.75 633.25 901.47 633.24 884.20 633.25 M 1008.52 633.24 C 1008.48 678.08 1008.48 722.92 1008.52 767.76 C 1017.00 767.75 1025.49 767.76 1033.98 767.75 C 1034.02 722.92 1034.01 678.08 1033.98 633.25 C 1025.49 633.24 1017.01 633.25 1008.52 633.24 M 1055.44 633.26 C 1055.42 659.20 1055.44 685.13 1055.44 711.06 C 1055.31 721.11 1055.09 731.53 1059.10 740.97 C 1064.53 755.10 1077.68 765.28 1092.21 768.75 C 1104.63 771.79 1117.96 771.51 1130.12 767.46 C 1140.30 764.05 1149.51 757.37 1155.23 748.22 C 1160.35 740.16 1162.64 730.55 1162.63 721.06 C 1162.62 691.80 1162.64 662.53 1162.62 633.27 C 1154.12 633.22 1145.63 633.25 1137.14 633.25 C 1137.09 662.51 1137.14 691.78 1137.12 721.05 C 1137.11 727.41 1134.93 733.85 1130.62 738.59 C 1119.72 750.64 1098.30 750.62 1087.42 738.56 C 1083.12 733.80 1080.94 727.36 1080.95 720.99 C 1080.91 691.74 1080.97 662.50 1080.92 633.25 C 1072.43 633.25 1063.93 633.23 1055.44 633.26 M 1352.46 734.70 C 1342.70 736.82 1336.75 748.33 1340.64 757.53 C 1343.71 766.13 1354.19 770.66 1362.66 767.48 C 1371.25 764.73 1376.12 754.51 1373.24 746.04 C 1370.72 737.53 1360.97 732.28 1352.46 734.70 Z" />
<path fill="#ffffff" opacity="1.00" d=" M 670.51 657.69 C 681.99 657.71 693.48 657.63 704.96 657.73 C 714.79 657.93 723.36 666.16 724.61 675.80 C 726.25 685.23 720.87 695.47 711.92 699.08 C 707.87 700.92 703.35 700.64 699.03 700.62 C 689.52 700.60 680.01 700.66 670.50 700.60 C 670.51 686.30 670.48 671.99 670.51 657.69 Z" />
<path fill="#ffffff" opacity="1.00" d=" M 909.71 657.70 C 921.12 657.70 932.53 657.65 943.95 657.72 C 950.67 657.88 957.10 661.67 960.64 667.36 C 965.13 674.32 965.17 683.81 960.75 690.81 C 957.08 696.84 950.16 700.78 943.08 700.63 C 931.94 700.59 920.81 700.68 909.69 700.59 C 909.71 686.29 909.66 671.99 909.71 657.70 Z" />
<path fill="#ffffff" opacity="1.00" d=" M 1353.22 737.20 C 1361.83 734.58 1371.13 742.04 1370.83 750.94 C 1371.35 758.62 1364.84 766.06 1357.00 765.92 C 1349.01 766.31 1342.18 758.83 1342.69 750.97 C 1342.64 744.71 1347.06 738.66 1353.22 737.20 M 1350.08 741.25 C 1350.04 747.95 1350.06 754.66 1350.07 761.36 C 1350.86 761.36 1352.45 761.37 1353.24 761.37 C 1353.28 758.49 1353.19 755.62 1353.28 752.76 C 1354.33 752.72 1355.39 752.73 1356.48 752.77 C 1358.38 755.59 1360.09 758.53 1362.00 761.36 C 1362.85 761.36 1364.55 761.36 1365.40 761.36 C 1363.51 758.42 1361.62 755.49 1359.71 752.58 C 1364.72 752.56 1366.66 745.83 1363.21 742.69 C 1359.33 740.19 1354.40 741.63 1350.08 741.25 Z" />
<path fill="#ffffff" opacity="1.00" d=" M 1353.26 743.88 C 1355.45 743.98 1357.75 743.58 1359.92 744.21 C 1362.37 744.95 1362.33 749.05 1359.90 749.78 C 1357.75 750.40 1355.45 750.08 1353.27 750.18 C 1353.22 748.07 1353.23 745.97 1353.26 743.88 Z" />
</g>
<g id="#64798eff">
<path fill="#64798e" opacity="1.00" d=" M 126.38 600.71 C 161.63 598.51 197.02 601.59 231.82 607.23 C 244.74 624.64 257.45 642.22 270.30 659.70 C 271.72 661.85 273.62 663.70 274.68 666.09 L 273.87 665.80 C 271.37 664.80 268.75 664.16 266.12 663.66 C 224.77 655.50 182.64 650.18 140.44 651.10 C 101.92 652.09 63.59 657.41 25.95 665.48 C 40.06 646.09 54.28 626.78 68.40 607.40 C 87.53 603.90 106.97 601.99 126.38 600.71 Z" />
<path fill="#64798e" opacity="1.00" d=" M 73.54 733.03 C 74.13 733.07 75.32 733.17 75.91 733.21 C 90.43 736.23 105.23 737.72 119.99 739.05 C 128.29 739.59 136.60 740.46 144.93 740.00 C 155.46 740.81 166.22 739.87 176.81 739.26 C 193.38 738.01 209.89 735.94 226.25 733.04 C 200.84 755.42 175.36 777.72 149.89 800.02 C 124.40 777.74 98.89 755.47 73.54 733.03 Z" />
</g>
<g id="#000000ff">
<path fill="#000000" opacity="1.00" d=" M 487.31 626.75 C 510.06 649.18 532.66 671.75 555.48 694.11 C 578.17 671.66 600.86 649.19 623.56 626.74 C 623.57 673.74 623.57 720.74 623.56 767.73 C 615.06 767.77 606.57 767.75 598.08 767.75 C 598.01 740.35 598.25 712.95 598.16 685.56 C 583.64 699.53 569.71 714.23 555.46 728.52 C 541.18 714.27 527.24 699.63 512.80 685.57 C 512.49 712.93 512.91 740.36 512.80 767.75 C 504.31 767.75 495.81 767.77 487.32 767.73 C 487.30 720.74 487.32 673.74 487.31 626.75 Z" />
<path fill="#000000" opacity="1.00" d=" M 1184.06 626.75 C 1206.80 649.18 1229.41 671.73 1252.20 694.11 C 1274.93 671.68 1297.59 649.18 1320.31 626.74 C 1320.30 673.74 1320.34 720.75 1320.29 767.75 C 1311.80 767.75 1303.32 767.76 1294.84 767.75 C 1294.77 740.36 1294.96 712.97 1294.96 685.59 C 1290.33 689.34 1286.50 694.02 1282.17 698.12 C 1272.20 708.28 1262.16 718.37 1252.19 728.53 C 1238.83 714.99 1225.46 701.45 1212.09 687.91 C 1211.24 687.10 1210.57 686.00 1209.40 685.68 C 1209.43 713.03 1209.54 740.38 1209.56 767.74 C 1201.06 767.77 1192.57 767.74 1184.08 767.75 C 1184.03 720.75 1184.07 673.75 1184.06 626.75 Z" />
<path fill="#000000" opacity="1.00" d=" M 315.64 633.23 C 352.96 633.26 390.28 633.24 427.59 633.24 C 402.89 670.00 378.07 706.68 353.41 743.47 C 375.38 743.46 397.35 743.29 419.31 743.34 C 419.30 751.47 419.33 759.61 419.30 767.74 C 381.94 767.77 344.58 767.75 307.23 767.75 C 331.98 730.99 356.86 694.31 381.59 657.53 C 359.56 657.54 337.52 657.70 315.49 657.66 C 315.59 649.53 315.31 641.32 315.64 633.23 Z" />
<path fill="#000000" opacity="1.00" d=" M 440.38 633.26 C 448.87 633.23 457.37 633.24 465.86 633.26 C 465.89 678.09 465.89 722.92 465.86 767.74 C 457.36 767.75 448.87 767.77 440.38 767.73 C 440.37 722.91 440.36 678.09 440.38 633.26 Z" />
<path fill="#000000" opacity="1.00" d=" M 645.02 633.25 C 662.02 633.25 679.02 633.25 696.02 633.25 C 702.05 633.28 708.15 632.97 714.10 634.24 C 726.61 636.63 738.11 644.26 744.78 655.17 C 753.25 668.79 753.68 686.93 746.04 701.00 C 738.34 715.53 722.29 724.67 706.00 725.05 C 694.17 725.08 682.34 725.05 670.51 725.06 C 670.49 739.28 670.51 753.51 670.50 767.73 C 662.00 767.78 653.51 767.74 645.02 767.75 C 644.99 722.92 644.99 678.08 645.02 633.25 M 670.51 657.69 C 670.48 671.99 670.51 686.30 670.50 700.60 C 680.01 700.66 689.52 700.60 699.03 700.62 C 703.35 700.64 707.87 700.92 711.92 699.08 C 720.87 695.47 726.25 685.23 724.61 675.80 C 723.36 666.16 714.79 657.93 704.96 657.73 C 693.48 657.63 681.99 657.71 670.51 657.69 Z" />
<path fill="#000000" opacity="1.00" d=" M 768.44 633.27 C 801.35 633.22 834.26 633.26 867.17 633.25 C 867.20 641.39 867.20 649.54 867.17 657.69 C 842.77 657.70 818.36 657.67 793.96 657.70 C 793.92 667.84 793.93 677.97 793.96 688.11 C 814.24 688.15 834.52 688.09 854.81 688.14 C 854.81 696.28 854.84 704.42 854.79 712.56 C 834.51 712.57 814.23 712.55 793.95 712.57 C 793.93 722.81 793.93 733.05 793.95 743.30 C 818.36 743.33 842.77 743.30 867.17 743.31 C 867.19 751.45 867.20 759.60 867.17 767.74 C 834.26 767.75 801.35 767.77 768.44 767.74 C 768.43 722.91 768.43 678.09 768.44 633.27 Z" />
<path fill="#000000" opacity="1.00" d=" M 884.20 633.25 C 901.47 633.24 918.75 633.25 936.02 633.25 C 941.37 633.27 946.77 633.03 952.07 634.02 C 964.74 636.12 976.53 643.54 983.48 654.40 C 991.86 667.30 992.91 684.49 986.49 698.42 C 981.94 708.41 973.46 716.36 963.46 720.77 C 971.24 736.44 979.08 752.08 986.90 767.73 C 977.44 767.75 967.97 767.79 958.51 767.72 C 951.33 753.52 944.39 739.17 937.07 725.06 C 927.95 725.06 918.82 725.06 909.70 725.06 C 909.66 739.29 909.71 753.51 909.68 767.74 C 901.18 767.76 892.69 767.76 884.20 767.74 C 884.18 722.91 884.17 678.08 884.20 633.25 M 909.71 657.70 C 909.66 671.99 909.71 686.29 909.69 700.59 C 920.81 700.68 931.94 700.59 943.08 700.63 C 950.16 700.78 957.08 696.84 960.75 690.81 C 965.17 683.81 965.13 674.32 960.64 667.36 C 957.10 661.67 950.67 657.88 943.95 657.72 C 932.53 657.65 921.12 657.70 909.71 657.70 Z" />
<path fill="#000000" opacity="1.00" d=" M 1008.52 633.24 C 1017.01 633.25 1025.49 633.24 1033.98 633.25 C 1034.01 678.08 1034.02 722.92 1033.98 767.75 C 1025.49 767.76 1017.00 767.75 1008.52 767.76 C 1008.48 722.92 1008.48 678.08 1008.52 633.24 Z" />
<path fill="#000000" opacity="1.00" d=" M 1055.44 633.26 C 1063.93 633.23 1072.43 633.25 1080.92 633.25 C 1080.97 662.50 1080.91 691.74 1080.95 720.99 C 1080.94 727.36 1083.12 733.80 1087.42 738.56 C 1098.30 750.62 1119.72 750.64 1130.62 738.59 C 1134.93 733.85 1137.11 727.41 1137.12 721.05 C 1137.14 691.78 1137.09 662.51 1137.14 633.25 C 1145.63 633.25 1154.12 633.22 1162.62 633.27 C 1162.64 662.53 1162.62 691.80 1162.63 721.06 C 1162.64 730.55 1160.35 740.16 1155.23 748.22 C 1149.51 757.37 1140.30 764.05 1130.12 767.46 C 1117.96 771.51 1104.63 771.79 1092.21 768.75 C 1077.68 765.28 1064.53 755.10 1059.10 740.97 C 1055.09 731.53 1055.31 721.11 1055.44 711.06 C 1055.44 685.13 1055.42 659.20 1055.44 633.26 Z" />
<path fill="#000000" opacity="1.00" d=" M 1352.46 734.70 C 1360.97 732.28 1370.72 737.53 1373.24 746.04 C 1376.12 754.51 1371.25 764.73 1362.66 767.48 C 1354.19 770.66 1343.71 766.13 1340.64 757.53 C 1336.75 748.33 1342.70 736.82 1352.46 734.70 M 1353.22 737.20 C 1347.06 738.66 1342.64 744.71 1342.69 750.97 C 1342.18 758.83 1349.01 766.31 1357.00 765.92 C 1364.84 766.06 1371.35 758.62 1370.83 750.94 C 1371.13 742.04 1361.83 734.58 1353.22 737.20 Z" />
<path fill="#000000" opacity="1.00" d=" M 1350.08 741.25 C 1354.40 741.63 1359.33 740.19 1363.21 742.69 C 1366.66 745.83 1364.72 752.56 1359.71 752.58 C 1361.62 755.49 1363.51 758.42 1365.40 761.36 C 1364.55 761.36 1362.85 761.36 1362.00 761.36 C 1360.09 758.53 1358.38 755.59 1356.48 752.77 C 1355.39 752.73 1354.33 752.72 1353.28 752.76 C 1353.19 755.62 1353.28 758.49 1353.24 761.37 C 1352.45 761.37 1350.86 761.36 1350.07 761.36 C 1350.06 754.66 1350.04 747.95 1350.08 741.25 M 1353.26 743.88 C 1353.23 745.97 1353.22 748.07 1353.27 750.18 C 1355.45 750.08 1357.75 750.40 1359.90 749.78 C 1362.33 749.05 1362.37 744.95 1359.92 744.21 C 1357.75 743.58 1355.45 743.98 1353.26 743.88 Z" />
</g>
<g id="#4c596aff">
<path fill="#4c596a" opacity="1.00" d=" M 140.44 651.10 C 182.64 650.18 224.77 655.50 266.12 663.66 C 268.75 664.16 271.37 664.80 273.87 665.80 C 254.58 674.62 235.57 684.02 216.74 693.77 C 191.59 707.12 165.96 720.48 144.93 740.00 C 136.60 740.46 128.29 739.59 119.99 739.05 C 105.23 737.72 90.43 736.23 75.91 733.21 C 75.32 733.17 74.13 733.07 73.54 733.03 C 91.33 702.35 115.06 675.67 140.44 651.10 Z" />
</g>
</svg>
