<?xml version="1.0" encoding="UTF-8"?>
<svg id="a038cbe9-0385-4d35-9259-17d680090fe7" xmlns="http://www.w3.org/2000/svg" viewBox="0 0 144 144">
  <defs>
    <style>
      .cls-1 {
        fill: #526370;
      }

      .cls-2 {
        fill: none;
      }

      .cls-3 {
        fill: #57a646;
      }
    </style>
  </defs>
  <rect class="cls-2" width="144" height="144"/>
  <g>
    <path class="cls-3" d="m118.88,72.12l-.19-.17-.21.15c-.75.53-1.59,1.07-2.58,1.66l-.32.19.23.29c1.26,1.62,1.91,3.26,1.92,4.9.01,1.75-.98,3.68-2.88,5.59-5.56,5.6-19.73,11.58-42.85,11.58-31.33,0-45.6-10.05-45.73-17.18-.03-1.55.86-3.31,2.56-5.07l.29-.3-.36-.21c-1.09-.63-2.12-1.3-3.07-1.99l-.21-.15-.2.17c-3.31,2.9-4.99,6.31-4.99,10.12,0,15.47,32.32,23.24,50.41,23.24,13.75,0,53-4.27,53-23.24,0-3.54-1.62-6.76-4.83-9.58Z"/>
    <path class="cls-3" d="m45.27,61.71l-4.25.93,4.18,1.22c1.19.34,2.42.67,3.68.95l.25.06.25-.06c6.76-1.52,14.38-2.29,22.63-2.29s16.31.7,23.02,2.09l.25.05.24-.06c.87-.21,1.69-.43,2.49-.66l4.18-1.2-4.24-.95c-9.68-2.18-19.75-2.95-25.94-2.95-6.62,0-17.12.75-26.73,2.86Z"/>
    <path class="cls-3" d="m70.7,53.7c13.75,0,53-4.27,53-23.23,0-7.29-6.96-13.21-20.13-17.12-11.01-3.27-23.89-4.43-31.58-4.43-17.89,0-51.71,4.5-51.71,21.55,0,15.47,32.32,23.23,50.41,23.23Zm47.03-25.8c.01,1.75-.98,3.68-2.88,5.59-5.56,5.6-19.73,11.58-42.86,11.58-31.33,0-45.6-10.05-45.73-17.18-.03-1.52.83-3.21,2.48-4.89,5.35-5.45,19.53-11.28,43.26-11.28,31.34,0,45.67,8.39,45.73,16.18Z"/>
    <path class="cls-3" d="m45.27,34.77l-4.26.94,4.18,1.22c1.19.35,2.43.67,3.67.95l.25.06.25-.06c6.77-1.52,14.39-2.29,22.63-2.29s16.3.71,23.02,2.1l.25.05.24-.06c.87-.21,1.69-.43,2.49-.66l4.18-1.2-4.24-.95c-9.68-2.18-19.75-2.95-25.94-2.95-6.62,0-17.12.75-26.73,2.86Z"/>
    <path class="cls-3" d="m70.7,80.63c13.75,0,53-4.27,53-23.23,0-3.54-1.62-6.77-4.83-9.59l-.19-.17-.21.15c-.74.53-1.58,1.07-2.58,1.66l-.32.19.23.29c1.26,1.62,1.91,3.26,1.92,4.9.01,1.75-.98,3.68-2.88,5.59-5.56,5.6-19.73,11.58-42.85,11.58-31.33,0-45.6-10.05-45.73-17.18-.03-1.55.86-3.31,2.56-5.07l.29-.3-.36-.21c-1.09-.64-2.13-1.31-3.07-1.99l-.21-.15-.2.17c-3.31,2.9-4.99,6.31-4.99,10.12,0,15.47,32.32,23.23,50.41,23.23Z"/>
  </g>
  <g>
    <path class="cls-1" d="m28.87,127.38c-.52-.63-.99-1.14-1.48-1.61l-10.82-10.41v17.82h2.86v-11.1c.39.5.82.97,1.27,1.41l11.03,10.6v-17.82h-2.86v11.12Z"/>
    <path class="cls-1" d="m68.61,124.78c-.53-.37-1.13-.67-1.78-.89-.63-.21-1.28-.39-1.94-.55-.66-.16-1.31-.3-1.92-.43-.6-.12-1.15-.28-1.62-.47-.45-.18-.8-.41-1.06-.68-.23-.25-.35-.57-.35-.98,0-.47.09-.86.26-1.16.17-.3.41-.55.7-.73.31-.19.66-.33,1.06-.41.42-.09.85-.13,1.28-.13,1.05,0,1.91.24,2.57.72.63.46,1.01,1.24,1.12,2.3l.03.33h2.77v-.38c-.04-.95-.23-1.78-.56-2.48-.34-.7-.8-1.29-1.39-1.75-.58-.46-1.26-.79-2.02-1.01-.73-.2-1.56-.31-2.38-.31s-1.6.1-2.34.3c-.75.2-1.43.51-2.02.93-.6.42-1.09.96-1.45,1.61-.37.66-.55,1.44-.55,2.32,0,.81.17,1.51.5,2.06.32.54.77.99,1.31,1.34.52.33,1.12.6,1.77.8.63.19,1.28.36,1.94.51.65.15,1.29.29,1.91.43.6.13,1.14.31,1.61.52.44.2.8.46,1.06.76.24.28.36.67.36,1.14,0,.52-.1.95-.31,1.27-.21.33-.49.59-.83.79-.36.2-.78.35-1.23.43-1.08.2-2.14.17-3.11-.09-.53-.14-1-.36-1.4-.65-.39-.29-.71-.66-.95-1.11-.24-.44-.36-.98-.36-1.61v-.37h-2.79v.37c0,1.05.19,1.97.58,2.74.38.78.91,1.42,1.57,1.92.65.49,1.42.86,2.27,1.1.84.24,1.75.36,2.7.36.77,0,1.56-.09,2.34-.27.79-.18,1.52-.49,2.16-.9.65-.42,1.2-.96,1.61-1.63.43-.68.64-1.5.64-2.43,0-.87-.17-1.61-.49-2.2-.32-.58-.76-1.07-1.3-1.45Z"/>
    <path class="cls-1" d="m87.16,126.49c0,2.89-1.28,4.29-3.92,4.29s-3.92-1.4-3.92-4.29v-10.22h-3.04v10.48c0,4.56,2.34,6.87,6.96,6.87s6.99-2.31,6.99-6.87v-10.48h-3.07v10.22Z"/>
    <path class="cls-1" d="m109.52,127.38c-.51-.62-.99-1.14-1.48-1.61l-10.82-10.41v17.82h2.86v-11.1c.39.5.82.98,1.27,1.41l11.03,10.6v-17.82h-2.86v11.12Z"/>
    <rect class="cls-1" x="119.52" y="116.27" width="3.07" height="16.91"/>
  </g>
  <path class="cls-1" d="m44.64,115.35l-8.3,17.82h3.25l1.92-4.25h6.29l1.87,4.25h3.27l-8.3-17.82Zm-2.27,11.14l1.69-3.77c.18-.44.39-1.04.6-1.87.23.83.44,1.43.62,1.87l1.69,3.77h-4.6Z"/>
  <path class="cls-1" d="m129.81,131.2c0,.3-.05.56-.16.81-.1.24-.24.45-.42.62-.18.17-.38.31-.62.4-.23.09-.48.14-.74.14-.28,0-.55-.05-.78-.15-.24-.1-.44-.24-.61-.41-.17-.18-.3-.38-.4-.63-.1-.24-.14-.5-.14-.78,0-.3.05-.56.16-.81.1-.24.24-.45.42-.62.18-.17.38-.31.62-.4.24-.09.48-.14.74-.14s.5.05.74.14c.23.1.44.23.62.4.18.17.32.38.42.62.1.24.16.51.16.81Zm-.42,0c0-.24-.04-.46-.12-.66-.08-.2-.19-.37-.32-.52-.14-.14-.3-.26-.48-.34-.18-.08-.38-.12-.59-.12s-.41.04-.6.12c-.18.08-.35.19-.48.34-.14.14-.24.32-.32.52s-.12.42-.12.66c0,.23.03.44.11.63.07.2.17.37.3.52s.29.26.48.35.4.13.63.13c.21,0,.41-.04.59-.12s.34-.19.48-.34c.14-.14.24-.32.32-.51.08-.2.12-.42.12-.66Zm-1.9,1.13h-.36v-2.19h.83c.26,0,.46.05.6.15.13.1.2.26.2.48,0,.2-.05.34-.16.43s-.24.15-.41.16l.61.96h-.41l-.56-.93h-.34v.93Zm.4-1.24c.07,0,.13,0,.19,0,.06,0,.12-.02.16-.04.05-.02.08-.06.11-.1.03-.04.04-.11.04-.19,0-.07-.02-.12-.05-.16-.03-.04-.07-.07-.11-.09-.05-.02-.1-.03-.15-.04-.06,0-.11,0-.16,0h-.43v.64h.4Z"/>
</svg>