<svg id="svg" version="1.1" width="100%" height="100%" viewBox="0 0 400 254.54545454545456" xmlns="http://www.w3.org/2000/svg" xmlns:xlink="http://www.w3.org/1999/xlink" ><g id="svgg"><path id="path0" d="M259.958 89.323 C 258.106 90.129,258.002 89.094,261.695 106.474 C 265.617 124.926,265.666 125.059,268.962 126.437 C 270.680 127.154,276.753 126.476,276.505 125.594 C 276.446 125.384,276.214 124.363,275.991 123.325 C 275.660 121.789,275.510 121.461,275.186 121.559 C 270.297 123.037,270.810 124.044,266.793 105.091 C 265.126 97.224,263.705 90.544,263.635 90.247 C 263.376 89.143,261.471 88.665,259.958 89.323 M275.758 89.147 C 273.688 89.665,273.540 90.362,274.515 94.992 C 274.970 97.149,275.271 98.952,275.186 99.000 C 275.100 99.048,274.458 99.222,273.758 99.386 C 273.058 99.550,272.485 99.780,272.485 99.896 C 272.485 100.012,272.662 100.912,272.878 101.896 L 273.271 103.685 274.714 103.384 C 275.786 103.160,276.182 103.154,276.256 103.360 C 276.311 103.512,277.074 107.018,277.951 111.152 C 278.829 115.285,279.742 119.109,279.981 119.649 C 281.495 123.073,284.763 124.323,289.426 123.263 L 291.069 122.889 290.613 120.785 C 290.059 118.230,290.277 118.427,288.396 118.782 C 286.619 119.117,285.838 118.891,285.057 117.818 C 284.706 117.336,281.455 103.169,281.455 102.122 C 281.455 102.007,282.497 101.709,283.770 101.458 C 285.044 101.208,286.145 100.908,286.216 100.793 C 286.436 100.438,285.563 96.969,285.256 96.975 C 285.099 96.978,283.996 97.195,282.807 97.458 C 280.213 98.032,280.672 98.556,279.662 93.869 C 278.677 89.296,278.785 89.544,277.628 89.222 C 276.678 88.959,276.534 88.953,275.758 89.147 M299.275 93.133 C 292.296 94.464,289.398 100.980,291.706 110.154 C 293.455 117.107,296.991 120.485,302.520 120.485 C 309.843 120.485,314.383 115.152,313.496 107.592 C 312.201 96.554,307.327 91.598,299.275 93.133 M303.462 98.073 C 307.461 99.741,309.951 109.965,307.246 113.611 C 305.504 115.960,301.467 116.275,299.311 114.230 C 297.193 112.221,295.383 104.656,296.262 101.490 C 297.035 98.705,300.751 96.942,303.462 98.073 M196.242 102.828 C 194.239 103.936,194.086 102.339,197.932 120.414 C 201.698 138.113,201.811 138.436,204.717 139.790 C 206.351 140.550,211.717 140.364,212.564 139.517 C 212.882 139.199,211.797 135.023,211.423 135.128 C 208.425 135.975,207.051 135.718,206.413 134.193 C 206.128 133.511,199.758 104.102,199.758 103.468 C 199.758 102.801,197.149 102.327,196.242 102.828 M244.037 104.866 C 240.294 105.702,238.112 106.925,236.600 109.036 C 235.393 110.722,235.298 110.452,237.621 111.914 L 239.604 113.161 240.313 112.090 C 242.247 109.171,247.860 108.180,250.116 110.359 C 251.456 111.653,252.316 115.044,251.358 115.256 C 251.045 115.325,249.092 115.754,247.019 116.208 C 238.382 118.102,235.568 122.261,238.719 128.476 C 241.361 133.687,250.416 134.091,254.042 129.161 C 254.802 128.127,254.902 128.159,255.156 129.517 C 255.250 130.016,255.451 130.422,255.603 130.419 C 256.000 130.411,260.181 129.476,260.286 129.371 C 260.546 129.110,256.238 110.036,255.662 108.898 C 253.725 105.077,249.560 103.633,244.037 104.866 M219.236 110.149 C 211.320 112.154,208.805 121.492,213.546 131.273 C 218.463 141.415,233.383 138.536,233.890 127.347 C 234.418 115.687,227.842 107.969,219.236 110.149 M224.123 115.119 C 227.397 116.606,230.063 126.109,228.189 129.613 C 226.446 132.871,222.292 133.587,219.676 131.079 C 217.094 128.604,215.536 120.340,217.086 117.343 C 218.235 115.120,221.710 114.022,224.123 115.119 M105.576 121.335 C 85.218 125.699,85.153 125.722,83.495 129.111 C 82.226 131.704,82.200 131.507,86.420 151.394 C 90.889 172.450,90.881 172.428,94.102 174.181 C 96.699 175.595,96.915 175.567,116.926 171.295 C 135.862 167.253,136.160 167.168,137.750 165.357 C 140.089 162.693,140.214 160.804,138.562 153.071 L 137.366 147.475 136.700 147.807 C 133.968 149.170,132.558 142.822,135.170 140.919 L 135.854 140.420 134.075 131.968 C 132.124 122.697,131.644 121.243,130.052 119.775 C 126.780 116.760,126.981 116.747,105.576 121.335 M181.515 118.185 C 176.952 119.049,174.671 120.419,172.790 123.425 L 172.391 124.062 174.378 125.295 L 176.364 126.527 176.848 125.870 C 178.421 123.738,180.689 122.658,183.632 122.638 C 186.640 122.619,187.848 123.851,188.714 127.824 C 188.887 128.620,189.297 128.460,184.303 129.538 C 175.837 131.366,172.946 134.855,175.016 140.745 C 177.121 146.734,185.779 147.979,190.570 142.981 L 191.735 141.766 191.890 142.459 C 192.248 144.057,192.011 143.977,194.676 143.392 C 196.009 143.099,197.133 142.816,197.174 142.763 C 197.374 142.500,193.143 123.649,192.633 122.536 C 190.881 118.708,186.926 117.161,181.515 118.185 M253.182 120.909 C 253.926 125.030,252.512 126.931,248.072 127.773 C 243.136 128.710,240.427 123.309,244.607 120.863 C 245.283 120.468,251.348 118.892,252.520 118.808 C 252.683 118.796,252.957 119.667,253.182 120.909 M157.697 123.244 C 155.221 123.909,153.554 125.002,152.678 126.537 C 152.073 127.597,151.758 127.775,151.758 127.057 C 151.758 124.991,147.536 124.822,146.807 126.860 C 146.602 127.434,153.728 162.165,154.214 162.959 C 154.348 163.177,158.924 162.369,159.218 162.075 C 159.266 162.027,158.698 159.135,157.956 155.648 C 157.213 152.162,156.606 149.211,156.606 149.092 C 156.606 148.972,157.204 149.189,157.934 149.573 C 162.357 151.900,168.705 149.610,170.414 145.071 C 172.089 140.625,169.800 129.302,166.440 125.409 C 164.644 123.329,160.868 122.394,157.697 123.244 M321.515 127.946 C 320.241 128.927,320.386 131.287,321.772 132.133 C 323.658 133.283,325.576 132.100,325.576 129.788 C 325.576 127.936,323.029 126.780,321.515 127.946 M324.480 128.303 C 326.259 129.849,324.646 132.860,322.449 132.094 C 320.938 131.567,320.516 129.788,321.597 128.503 C 322.381 127.572,323.545 127.491,324.480 128.303 M161.870 128.881 C 165.514 131.809,166.848 142.551,163.845 144.783 C 158.799 148.532,153.697 143.039,153.697 133.859 C 153.697 129.040,158.459 126.140,161.870 128.881 M322.517 128.652 C 321.971 128.759,322.120 130.677,322.719 131.273 C 322.883 131.435,322.911 131.342,322.805 130.990 C 322.588 130.270,322.993 130.090,323.520 130.672 C 323.759 130.936,324.063 131.152,324.196 131.152 C 324.330 131.152,324.267 130.961,324.058 130.727 C 323.812 130.453,323.724 130.058,323.811 129.611 C 323.930 128.995,323.581 128.418,323.152 128.522 C 323.085 128.538,322.799 128.596,322.517 128.652 M313.021 129.452 C 311.633 130.082,311.073 131.285,311.566 132.580 C 312.017 133.766,312.720 134.053,315.182 134.057 C 317.479 134.061,317.988 134.322,317.727 135.360 C 317.397 136.676,314.493 137.055,313.574 135.901 C 312.759 134.880,311.653 135.144,312.045 136.267 C 313.105 139.308,319.296 137.998,319.265 134.739 C 319.249 133.117,318.334 132.606,315.440 132.606 C 313.840 132.606,313.195 132.514,312.979 132.254 C 311.852 130.895,315.187 129.468,316.477 130.758 C 316.963 131.244,318.303 131.432,318.303 131.013 C 318.303 129.279,315.335 128.402,313.021 129.452 M323.515 129.455 C 323.515 129.980,322.569 129.908,322.467 129.374 C 322.400 129.030,322.508 128.948,322.948 129.011 C 323.260 129.055,323.515 129.255,323.515 129.455 M308.328 130.467 C 307.587 130.665,307.181 131.074,305.823 132.990 C 303.959 135.619,303.941 135.622,303.534 133.344 C 303.300 132.034,303.135 131.637,302.826 131.640 C 301.778 131.650,301.769 131.879,302.659 136.102 C 303.130 138.337,303.515 140.191,303.515 140.222 C 303.515 140.254,303.852 140.230,304.263 140.170 C 304.888 140.078,304.987 139.976,304.869 139.545 C 304.451 138.026,304.446 137.254,304.850 136.637 C 305.416 135.774,305.483 135.794,307.515 137.455 C 308.766 138.477,309.499 138.908,309.981 138.905 C 311.526 138.897,311.374 138.541,309.050 136.727 C 307.806 135.755,306.691 134.874,306.572 134.768 C 306.453 134.661,307.074 133.594,307.963 132.378 C 308.846 131.170,309.489 130.193,309.391 130.207 C 309.292 130.221,308.814 130.338,308.328 130.467 M122.695 132.603 C 123.191 133.187,123.303 134.641,123.667 145.212 C 123.934 152.956,123.925 153.635,123.543 154.373 C 122.700 155.999,120.806 156.253,119.911 154.860 C 119.516 154.245,118.606 135.038,118.923 133.994 C 119.473 132.179,121.652 131.375,122.695 132.603 M189.947 133.733 C 191.086 138.503,188.655 141.321,183.394 141.330 C 179.234 141.336,178.042 135.995,181.774 134.073 C 182.313 133.795,189.373 132.145,189.531 132.260 C 189.574 132.290,189.761 132.953,189.947 133.733 M294.688 133.357 C 293.499 133.610,292.472 133.871,292.406 133.937 C 292.265 134.078,293.806 141.649,294.058 142.057 C 294.157 142.216,294.484 142.267,294.839 142.178 L 295.450 142.024 295.081 140.343 C 294.642 138.341,294.519 138.510,296.682 138.140 C 298.746 137.786,299.041 137.954,299.636 139.826 C 299.975 140.890,300.051 140.964,300.727 140.886 C 301.621 140.782,301.714 140.702,301.392 140.309 C 301.252 140.139,301.011 139.524,300.855 138.942 C 300.700 138.360,300.326 137.637,300.025 137.336 C 299.552 136.863,299.521 136.728,299.799 136.348 C 300.441 135.471,299.948 133.355,299.019 132.999 C 298.378 132.753,296.983 132.868,294.688 133.357 M298.286 134.442 C 299.350 135.505,298.662 136.335,296.269 136.876 C 294.248 137.332,294.349 137.376,294.155 135.960 L 294.006 134.867 295.669 134.488 C 297.828 133.995,297.839 133.995,298.286 134.442 M285.979 135.064 C 280.182 135.927,281.349 144.529,287.182 143.927 C 290.077 143.628,291.513 141.980,291.352 139.140 C 291.179 136.070,289.217 134.581,285.979 135.064 M130.046 135.600 C 130.669 136.222,130.743 136.863,131.031 144.121 C 131.155 147.254,131.128 147.577,130.669 148.318 C 129.699 149.882,127.488 150.093,126.913 148.676 C 126.553 147.788,126.249 137.444,126.561 136.690 C 127.223 135.093,128.987 134.541,130.046 135.600 M115.391 136.603 C 116.001 137.252,117.285 162.652,116.801 164.503 C 116.083 167.252,112.797 167.038,112.567 164.228 C 112.173 159.394,111.562 138.361,111.797 137.689 C 112.335 136.144,114.380 135.526,115.391 136.603 M280.193 136.415 C 279.395 136.537,279.350 136.684,279.138 139.879 C 278.888 143.649,278.897 143.647,277.008 140.360 C 275.331 137.444,274.864 137.072,273.779 137.792 C 273.758 137.807,273.603 139.313,273.434 141.140 C 273.265 142.966,273.048 144.412,272.951 144.352 C 272.853 144.292,272.084 142.988,271.241 141.455 C 270.399 139.921,269.597 138.678,269.461 138.691 C 268.052 138.828,268.046 138.803,270.403 142.909 C 271.627 145.042,272.705 146.761,272.799 146.727 C 272.893 146.694,273.227 146.667,273.542 146.667 C 274.099 146.667,274.124 146.576,274.423 143.576 C 274.841 139.377,274.806 139.390,276.718 142.711 C 277.626 144.286,278.387 145.599,278.409 145.628 C 278.431 145.657,278.770 145.595,279.164 145.490 L 279.879 145.299 280.374 140.771 C 280.646 138.280,280.864 136.259,280.858 136.279 C 280.853 136.299,280.554 136.360,280.193 136.415 M288.639 136.708 C 290.328 137.738,290.564 140.616,289.057 141.802 C 286.405 143.887,283.113 141.897,283.734 138.584 C 284.097 136.649,286.829 135.604,288.639 136.708 M264.364 139.786 C 263.564 139.972,262.134 140.291,261.187 140.495 C 259.541 140.849,259.470 140.893,259.583 141.484 C 259.709 142.145,259.617 142.139,262.091 141.652 C 262.710 141.531,262.740 141.581,263.142 143.430 C 264.375 149.098,264.221 148.664,264.933 148.485 C 265.286 148.397,265.593 148.306,265.615 148.283 C 265.636 148.261,265.339 146.770,264.955 144.970 C 264.570 143.170,264.252 141.575,264.249 141.425 C 264.245 141.276,264.897 141.025,265.697 140.868 C 267.159 140.580,267.275 140.483,267.004 139.777 C 266.831 139.326,266.333 139.328,264.364 139.786 M254.696 141.862 C 252.978 142.228,251.519 142.582,251.453 142.648 C 251.326 142.775,252.862 150.417,253.087 150.782 C 253.193 150.953,255.680 150.520,259.300 149.699 C 259.699 149.609,259.787 149.447,259.696 148.973 C 259.556 148.238,259.808 148.245,256.788 148.887 C 253.944 149.490,254.156 149.549,253.941 148.100 L 253.775 146.989 255.797 146.567 C 258.624 145.977,258.667 145.960,258.667 145.453 C 258.667 144.708,258.297 144.676,255.848 145.207 C 253.166 145.788,253.401 145.844,253.197 144.567 L 253.039 143.575 254.822 143.183 C 255.803 142.967,256.961 142.722,257.394 142.638 C 258.179 142.485,258.296 142.273,257.983 141.568 C 257.838 141.242,257.436 141.278,254.696 141.862 M248.331 143.198 L 247.814 143.299 248.399 146.006 C 249.198 149.701,249.246 149.683,245.939 146.923 C 243.123 144.572,242.310 144.154,241.559 144.670 C 240.971 145.074,242.991 153.102,243.657 153.007 C 244.507 152.884,244.502 152.980,243.822 149.756 C 243.477 148.123,243.220 146.763,243.249 146.732 C 243.279 146.701,244.688 147.828,246.379 149.236 C 249.169 151.558,249.522 151.781,250.182 151.636 C 251.073 151.441,251.073 151.576,250.166 147.345 C 249.284 143.229,249.228 143.021,249.014 143.063 C 248.923 143.081,248.616 143.142,248.331 143.198 M108.371 147.281 C 109.037 147.989,108.960 147.119,109.446 159.515 C 109.759 167.493,109.754 168.183,109.377 168.970 C 108.517 170.762,106.243 170.997,105.583 169.361 C 105.110 168.191,104.456 149.453,104.853 148.465 C 105.533 146.774,107.327 146.169,108.371 147.281 M100.857 153.095 C 101.777 153.571,101.787 153.625,102.045 159.752 C 102.217 163.839,102.197 165.115,101.953 165.691 C 101.247 167.359,99.671 167.939,98.526 166.954 L 97.821 166.347 97.610 160.745 C 97.376 154.514,97.457 153.984,98.769 153.184 C 99.674 152.632,99.940 152.621,100.857 153.095 M93.962 154.934 C 94.611 155.650,94.770 159.347,94.201 160.448 C 92.713 163.326,90.182 161.992,90.182 158.330 C 90.182 155.027,92.313 153.113,93.962 154.934 " stroke="none" fill="#fcfbfb" fill-rule="evenodd"></path><path id="path1" d="M189.084 77.321 C 113.413 93.419,51.384 106.635,51.240 106.689 C 51.012 106.776,72.051 206.677,72.363 206.990 C 72.482 207.109,347.863 148.622,348.263 148.393 C 348.486 148.265,341.858 116.651,327.864 51.091 C 327.487 49.322,327.090 48.011,326.936 48.025 C 326.788 48.039,264.754 61.222,189.084 77.321 M262.337 88.975 C 263.660 89.343,263.496 88.773,266.913 104.850 C 270.860 123.423,270.409 122.335,273.900 121.670 L 275.802 121.307 276.234 123.502 C 276.471 124.709,276.679 125.801,276.696 125.929 C 276.795 126.666,271.055 127.228,269.163 126.666 C 265.705 125.639,265.416 124.881,261.579 106.788 C 259.826 98.521,258.337 91.529,258.270 91.251 C 258.107 90.570,259.211 89.280,260.202 88.993 C 261.236 88.694,261.322 88.693,262.337 88.975 M278.271 89.317 C 278.898 89.641,278.995 89.914,279.748 93.499 C 280.723 98.140,280.419 97.797,283.042 97.217 C 284.236 96.954,285.324 96.735,285.461 96.733 C 285.687 96.728,286.673 100.801,286.490 100.984 C 286.447 101.028,285.388 101.286,284.138 101.559 C 282.887 101.832,281.811 102.108,281.747 102.173 C 281.568 102.351,284.631 116.634,285.011 117.392 C 285.643 118.655,286.368 118.917,288.310 118.584 C 289.253 118.422,290.103 118.375,290.200 118.478 C 290.372 118.662,291.152 122.182,291.152 122.776 C 291.152 123.803,284.822 124.128,282.992 123.194 C 280.251 121.796,279.760 120.626,277.580 110.324 C 275.912 102.436,276.188 103.164,274.992 103.496 C 273.151 104.007,273.115 103.980,272.637 101.676 C 272.399 100.531,272.240 99.568,272.284 99.535 C 272.328 99.503,273.000 99.339,273.778 99.171 C 275.046 98.897,275.179 98.811,275.062 98.342 C 274.125 94.602,273.483 90.824,273.711 90.397 C 274.386 89.137,276.812 88.562,278.271 89.317 M303.895 92.871 C 309.543 93.913,312.738 98.776,313.694 107.784 C 314.422 114.649,310.871 119.521,304.406 120.525 C 296.561 121.744,291.271 115.620,290.736 104.701 C 290.346 96.735,296.219 91.456,303.895 92.871 M299.271 98.392 C 295.779 99.978,295.266 105.842,298.079 111.987 C 301.098 118.582,309.165 115.478,308.122 108.124 C 306.931 99.728,303.831 96.320,299.271 98.392 M199.373 102.876 C 199.754 103.128,200.412 105.887,203.052 118.315 C 207.009 136.940,206.602 135.959,210.073 135.234 C 211.714 134.891,211.878 134.892,211.978 135.247 C 213.163 139.454,213.102 139.673,210.599 140.205 C 206.078 141.167,203.145 140.091,201.596 136.903 C 201.068 135.817,194.424 105.726,194.424 104.422 C 194.424 102.911,197.822 101.849,199.373 102.876 M251.946 105.035 C 255.525 106.673,255.943 107.614,258.547 119.859 C 259.678 125.182,260.577 129.554,260.545 129.574 C 260.240 129.762,255.416 130.634,255.249 130.531 C 255.129 130.457,255.029 130.157,255.027 129.864 C 255.019 128.786,254.647 128.631,254.056 129.461 C 252.431 131.743,247.105 133.351,243.592 132.622 C 236.289 131.106,235.234 120.549,242.072 117.418 C 243.248 116.880,250.160 115.169,251.212 115.157 C 252.049 115.147,251.384 112.116,250.248 110.766 C 248.164 108.289,242.166 109.266,240.342 112.379 C 239.742 113.403,239.668 113.452,239.184 113.138 C 238.899 112.954,237.930 112.340,237.030 111.774 C 235.100 110.559,235.142 110.734,236.373 109.014 C 238.154 106.527,240.585 105.305,245.576 104.388 C 247.172 104.094,250.668 104.450,251.946 105.035 M224.534 109.849 C 229.587 110.922,232.455 114.914,233.810 122.759 C 235.234 131.001,231.874 136.417,224.681 137.477 C 217.138 138.588,212.380 133.409,211.118 122.716 C 210.122 114.267,216.505 108.144,224.534 109.849 M221.212 114.832 C 216.833 115.810,215.691 118.885,217.290 125.395 C 218.572 130.615,220.331 132.530,223.649 132.319 C 227.962 132.044,229.508 128.248,227.919 121.836 C 226.620 116.596,224.276 114.149,221.212 114.832 M127.800 118.000 C 131.265 119.536,131.889 120.870,134.174 131.623 C 136.249 141.386,136.161 140.765,135.498 140.975 C 134.637 141.248,134.062 142.508,134.063 144.121 C 134.064 147.121,134.895 148.311,136.552 147.685 C 137.578 147.298,137.479 147.051,138.784 153.272 C 140.621 162.027,139.940 165.062,135.675 167.141 C 134.155 167.882,99.739 175.273,97.809 175.273 C 94.413 175.273,91.048 172.844,90.203 169.782 C 88.448 163.425,82.374 132.812,82.602 131.476 C 83.095 128.602,84.986 126.108,87.340 125.228 C 87.903 125.018,96.218 123.160,105.818 121.101 C 124.895 117.007,125.401 116.936,127.800 118.000 M188.606 118.368 C 190.406 119.018,192.235 120.880,192.949 122.789 C 193.413 124.027,197.333 141.799,197.333 142.661 C 197.333 142.979,195.511 143.503,193.038 143.897 L 192.015 144.060 191.855 143.055 L 191.694 142.051 190.574 143.215 C 188.198 145.685,183.244 146.867,179.691 145.812 C 174.639 144.312,172.560 136.861,176.096 132.928 C 177.900 130.921,179.387 130.326,186.012 128.957 L 188.630 128.417 188.480 127.663 C 187.681 123.652,185.983 122.314,182.425 122.891 C 179.608 123.348,177.241 124.883,176.659 126.630 C 176.556 126.937,172.365 124.351,172.364 123.981 C 172.363 123.500,173.857 121.458,174.752 120.716 C 177.917 118.094,184.677 116.948,188.606 118.368 M248.871 119.776 C 243.388 121.005,241.591 123.047,243.393 126.002 C 245.549 129.539,253.362 127.189,253.327 123.014 C 253.322 122.388,253.192 121.653,252.721 119.576 C 252.571 118.918,252.737 118.909,248.871 119.776 M162.757 123.032 C 164.465 123.477,166.078 124.548,167.076 125.900 C 170.317 130.290,172.226 141.520,170.432 145.641 C 168.626 149.789,162.225 151.933,157.953 149.820 C 156.677 149.189,156.660 148.727,158.166 155.782 C 158.902 159.228,159.424 162.120,159.327 162.208 C 159.126 162.392,154.169 163.467,154.066 163.350 C 153.947 163.214,146.424 127.605,146.424 127.177 C 146.424 126.549,147.463 125.647,148.568 125.316 C 149.783 124.952,151.758 125.551,151.758 126.283 C 151.758 127.077,152.063 127.015,152.738 126.084 C 154.665 123.424,159.088 122.077,162.757 123.032 M324.868 127.947 C 326.469 129.377,325.910 132.059,323.899 132.601 C 321.472 133.254,319.585 130.745,320.823 128.512 C 321.586 127.135,323.639 126.849,324.868 127.947 M158.114 128.278 C 153.986 129.011,152.943 132.366,154.699 139.268 C 155.988 144.338,158.138 146.385,161.433 145.679 C 164.856 144.945,166.029 142.425,165.208 137.572 C 163.990 130.375,161.879 127.609,158.114 128.278 M321.775 128.545 C 320.294 130.191,321.859 132.788,323.800 131.904 C 324.144 131.747,324.385 131.595,324.334 131.567 C 324.284 131.538,323.927 131.242,323.542 130.909 L 322.841 130.303 323.001 130.970 C 323.119 131.462,323.070 131.636,322.813 131.636 C 322.591 131.636,322.369 131.193,322.202 130.412 C 321.787 128.479,321.801 128.447,322.970 128.532 C 323.977 128.604,324.000 128.626,324.000 129.478 C 324.000 130.376,324.497 131.248,324.876 131.013 C 324.994 130.940,325.091 130.500,325.091 130.035 C 325.091 128.278,322.901 127.294,321.775 128.545 M316.985 129.082 C 317.817 129.429,318.718 130.827,318.346 131.191 C 317.935 131.594,316.929 131.475,316.419 130.964 C 315.536 130.081,313.408 130.394,313.071 131.455 C 312.816 132.260,313.346 132.487,315.307 132.412 C 318.860 132.276,320.404 133.820,319.147 136.252 C 317.736 138.980,311.765 138.547,311.758 135.716 C 311.757 135.209,313.259 134.807,313.414 135.273 C 313.874 136.652,316.117 136.850,317.331 135.619 L 317.939 135.002 317.363 134.528 C 316.872 134.124,316.560 134.077,315.275 134.208 C 312.574 134.485,311.273 133.676,311.273 131.717 C 311.273 129.447,314.403 128.003,316.985 129.082 M322.766 129.303 C 322.563 129.831,322.705 129.973,323.157 129.694 C 323.434 129.523,323.447 129.411,323.218 129.182 C 322.989 128.953,322.890 128.979,322.766 129.303 M308.242 132.303 C 306.338 134.873,306.212 134.303,309.192 136.606 C 311.967 138.751,311.984 138.784,310.426 139.017 C 309.357 139.178,309.290 139.148,307.533 137.712 C 305.487 136.040,305.555 136.065,304.986 136.767 C 304.609 137.233,304.594 137.447,304.854 138.693 C 305.171 140.213,305.085 140.364,303.902 140.364 C 303.395 140.364,303.305 140.105,302.571 136.545 C 302.137 134.445,301.728 132.497,301.662 132.216 C 301.562 131.796,301.680 131.676,302.324 131.547 C 303.310 131.350,303.262 131.289,303.731 133.354 L 304.125 135.088 305.754 132.774 C 307.386 130.456,307.604 130.292,309.149 130.215 C 309.798 130.183,309.777 130.231,308.242 132.303 M119.855 132.945 C 118.860 133.940,118.882 133.316,119.395 145.800 C 119.738 154.170,119.773 154.531,120.282 155.073 C 121.229 156.080,122.921 155.556,123.512 154.072 C 123.895 153.109,123.174 133.748,122.724 132.938 C 122.120 131.848,120.949 131.851,119.855 132.945 M185.818 133.183 C 180.300 134.449,178.857 135.828,179.977 138.762 C 181.513 142.782,189.587 141.329,190.007 136.956 C 190.129 135.684,189.666 132.347,189.372 132.384 C 189.284 132.395,187.685 132.754,185.818 133.183 M299.333 132.978 C 300.096 133.513,300.501 135.015,300.151 136.017 C 299.925 136.668,299.944 136.882,300.258 137.229 C 300.468 137.461,300.795 138.168,300.985 138.799 C 301.175 139.431,301.461 140.104,301.619 140.295 C 302.008 140.763,301.465 141.118,300.492 141.033 C 299.859 140.977,299.732 140.833,299.457 139.852 C 298.969 138.116,298.613 137.909,296.775 138.293 C 294.847 138.695,294.916 138.595,295.273 140.485 C 295.439 141.364,295.534 142.116,295.484 142.158 C 295.264 142.342,293.818 142.515,293.818 142.357 C 293.818 142.261,293.434 140.388,292.965 138.195 C 292.496 136.003,292.150 134.096,292.196 133.959 C 292.440 133.226,298.498 132.394,299.333 132.978 M296.121 134.569 C 293.932 135.059,294.092 134.942,294.307 135.896 C 294.569 137.060,294.532 137.044,296.235 136.709 C 298.309 136.301,298.908 135.799,298.346 134.940 C 297.903 134.264,297.661 134.224,296.121 134.569 M289.164 135.128 C 292.126 136.670,292.528 141.382,289.853 143.215 C 285.293 146.339,279.820 141.169,282.828 136.579 C 283.784 135.119,287.507 134.267,289.164 135.128 M127.697 135.535 C 125.947 136.554,126.195 148.882,127.977 149.447 C 130.493 150.246,131.060 148.511,130.727 141.038 C 130.473 135.347,129.878 134.264,127.697 135.535 M112.605 136.828 C 111.689 137.744,111.686 137.879,112.232 151.799 C 112.695 163.609,112.793 165.032,113.186 165.576 C 114.019 166.729,115.698 166.369,116.473 164.872 C 116.798 164.243,116.346 146.363,115.805 138.489 C 115.657 136.320,113.982 135.451,112.605 136.828 M280.966 136.788 C 280.953 138.711,280.010 145.299,279.723 145.481 C 279.317 145.738,278.063 145.764,278.055 145.515 C 278.052 145.415,277.356 144.150,276.509 142.705 L 274.967 140.076 274.650 143.378 C 274.312 146.902,274.189 147.139,272.840 146.870 C 272.353 146.773,268.042 139.466,268.211 139.026 C 268.274 138.862,268.663 138.678,269.075 138.617 C 269.808 138.510,269.860 138.570,271.362 141.273 L 272.898 144.039 273.048 142.948 C 273.130 142.348,273.271 140.976,273.361 139.899 C 273.534 137.825,273.662 137.591,274.739 137.397 C 275.383 137.281,275.502 137.418,277.040 140.039 C 277.932 141.560,278.683 142.718,278.710 142.614 C 278.737 142.510,278.873 141.123,279.011 139.533 C 279.271 136.544,279.396 136.253,280.424 136.246 C 280.830 136.243,280.969 136.382,280.966 136.788 M285.167 136.958 C 283.260 138.120,283.446 141.212,285.481 142.178 C 288.683 143.698,291.453 139.732,288.942 137.222 C 288.036 136.316,286.407 136.202,285.167 136.958 M267.222 139.817 C 267.393 140.709,267.309 140.795,266.095 140.977 C 264.290 141.248,264.317 141.132,265.153 145.007 C 265.565 146.918,265.883 148.495,265.860 148.512 C 265.837 148.528,265.435 148.611,264.967 148.695 L 264.116 148.849 263.391 145.394 C 262.579 141.531,262.856 141.846,260.485 142.084 C 259.555 142.178,259.512 142.151,259.442 141.436 L 259.370 140.691 262.715 139.950 C 267.035 138.994,267.065 138.993,267.222 139.817 M258.256 141.758 C 258.425 142.619,258.355 142.668,256.485 143.013 C 253.200 143.620,253.099 143.668,253.344 144.522 C 253.638 145.546,253.459 145.517,256.121 144.970 C 258.798 144.419,258.611 144.390,258.809 145.380 C 258.950 146.082,258.911 146.127,258.024 146.288 C 257.511 146.381,256.368 146.619,255.484 146.817 L 253.876 147.177 254.119 148.134 C 254.403 149.253,254.384 149.250,257.302 148.605 C 258.485 148.343,259.549 148.188,259.666 148.261 C 259.925 148.421,259.952 149.818,259.697 149.819 C 259.464 149.821,253.822 151.008,253.317 151.162 C 252.967 151.268,250.864 142.705,251.180 142.456 C 251.336 142.332,257.057 141.138,257.608 141.113 C 257.987 141.097,258.160 141.269,258.256 141.758 M250.267 147.038 C 251.253 151.678,251.254 151.628,250.170 151.845 C 249.492 151.980,249.160 151.779,246.710 149.743 C 245.220 148.504,243.876 147.415,243.724 147.323 C 243.553 147.220,243.677 148.222,244.053 149.972 C 244.702 152.994,244.664 153.200,243.459 153.208 C 243.096 153.211,242.876 153.032,242.789 152.667 C 242.375 150.913,241.212 145.159,241.212 144.861 C 241.212 143.535,242.857 144.149,245.712 146.542 C 249.003 149.301,248.924 149.310,248.268 146.249 C 247.611 143.177,247.615 143.084,248.424 142.962 C 248.791 142.906,249.152 142.844,249.227 142.824 C 249.302 142.804,249.770 144.700,250.267 147.038 M105.667 147.564 C 105.323 147.937,104.970 148.444,104.883 148.690 C 104.671 149.288,105.460 168.697,105.724 169.398 C 106.237 170.761,108.423 170.497,109.209 168.977 C 109.789 167.855,109.043 148.560,108.384 147.636 C 107.734 146.725,106.475 146.691,105.667 147.564 M98.882 153.333 C 97.718 153.966,97.612 154.668,97.795 160.558 C 97.939 165.183,98.024 166.025,98.399 166.545 C 99.056 167.458,100.136 167.470,101.132 166.577 L 101.939 165.853 101.882 161.654 C 101.766 153.184,101.339 151.998,98.882 153.333 M92.000 154.658 C 89.716 155.592,89.658 161.697,91.933 161.697 C 93.082 161.697,94.245 160.585,94.341 159.394 C 94.631 155.790,93.723 153.953,92.000 154.658 " stroke="none" fill="#fcc424" fill-rule="evenodd"></path><path id="path2" d="M301.518 92.778 C 301.820 92.836,302.256 92.833,302.488 92.773 C 302.719 92.712,302.473 92.665,301.939 92.667 C 301.406 92.670,301.216 92.720,301.518 92.778 M301.152 97.864 C 301.385 97.925,301.767 97.925,302.000 97.864 C 302.233 97.803,302.042 97.753,301.576 97.753 C 301.109 97.753,300.918 97.803,301.152 97.864 M210.978 120.606 C 210.980 121.273,211.027 121.517,211.083 121.148 C 211.139 120.780,211.137 120.234,211.080 119.936 C 211.022 119.638,210.977 119.939,210.978 120.606 M159.822 122.841 C 160.190 122.896,160.735 122.895,161.034 122.837 C 161.332 122.780,161.030 122.734,160.364 122.736 C 159.697 122.738,159.453 122.785,159.822 122.841 M315.094 132.535 C 315.395 132.593,315.832 132.591,316.063 132.530 C 316.295 132.470,316.048 132.422,315.515 132.425 C 314.982 132.427,314.792 132.477,315.094 132.535 M313.879 134.232 C 314.179 134.289,314.670 134.289,314.970 134.232 C 315.270 134.174,315.024 134.127,314.424 134.127 C 313.824 134.127,313.579 134.174,313.879 134.232 M190.122 136.364 C 190.124 136.897,190.174 137.087,190.232 136.785 C 190.290 136.483,190.288 136.047,190.227 135.815 C 190.166 135.584,190.119 135.830,190.122 136.364 M286.606 136.410 C 286.839 136.471,287.221 136.471,287.455 136.410 C 287.688 136.349,287.497 136.299,287.030 136.299 C 286.564 136.299,286.373 136.349,286.606 136.410 M222.488 137.626 C 222.789 137.684,223.226 137.682,223.457 137.621 C 223.689 137.560,223.442 137.513,222.909 137.516 C 222.376 137.518,222.186 137.568,222.488 137.626 M123.208 139.152 C 123.208 139.618,123.258 139.809,123.319 139.576 C 123.380 139.342,123.380 138.961,123.319 138.727 C 123.258 138.494,123.208 138.685,123.208 139.152 M119.087 140.364 C 119.087 140.830,119.136 141.021,119.197 140.788 C 119.258 140.555,119.258 140.173,119.197 139.939 C 119.136 139.706,119.087 139.897,119.087 140.364 M182.973 141.262 C 183.274 141.320,183.710 141.318,183.942 141.257 C 184.174 141.197,183.927 141.149,183.394 141.152 C 182.861 141.155,182.671 141.204,182.973 141.262 M115.935 142.061 C 115.935 142.527,115.985 142.718,116.046 142.485 C 116.107 142.252,116.107 141.870,116.046 141.636 C 115.985 141.403,115.935 141.594,115.935 142.061 M130.723 142.061 C 130.723 142.527,130.773 142.718,130.834 142.485 C 130.895 142.252,130.895 141.870,130.834 141.636 C 130.773 141.403,130.723 141.594,130.723 142.061 M111.819 143.394 C 111.821 143.927,111.871 144.117,111.929 143.815 C 111.987 143.514,111.985 143.077,111.924 142.846 C 111.863 142.614,111.816 142.861,111.819 143.394 M126.602 143.515 C 126.602 143.982,126.652 144.173,126.713 143.939 C 126.774 143.706,126.774 143.324,126.713 143.091 C 126.652 142.858,126.602 143.048,126.602 143.515 M123.450 145.455 C 123.450 145.921,123.500 146.112,123.561 145.879 C 123.622 145.645,123.622 145.264,123.561 145.030 C 123.500 144.797,123.450 144.988,123.450 145.455 M119.329 146.667 C 119.329 147.133,119.379 147.324,119.440 147.091 C 119.501 146.858,119.501 146.476,119.440 146.242 C 119.379 146.009,119.329 146.200,119.329 146.667 M116.177 148.364 C 116.177 148.830,116.227 149.021,116.288 148.788 C 116.349 148.555,116.349 148.173,116.288 147.939 C 116.227 147.706,116.177 147.897,116.177 148.364 M112.056 149.576 C 112.056 150.042,112.106 150.233,112.167 150.000 C 112.228 149.767,112.228 149.385,112.167 149.152 C 112.106 148.918,112.056 149.109,112.056 149.576 M108.905 151.515 C 108.905 151.982,108.955 152.173,109.016 151.939 C 109.077 151.706,109.077 151.324,109.016 151.091 C 108.955 150.858,108.905 151.048,108.905 151.515 M123.697 151.636 C 123.700 152.170,123.750 152.359,123.808 152.058 C 123.866 151.756,123.864 151.320,123.803 151.088 C 123.742 150.856,123.695 151.103,123.697 151.636 M119.571 152.727 C 119.571 153.194,119.621 153.385,119.682 153.152 C 119.743 152.918,119.743 152.536,119.682 152.303 C 119.621 152.070,119.571 152.261,119.571 152.727 M104.784 152.970 C 104.784 153.436,104.833 153.627,104.894 153.394 C 104.955 153.161,104.955 152.779,104.894 152.545 C 104.833 152.312,104.784 152.503,104.784 152.970 M116.420 154.667 C 116.420 155.133,116.470 155.324,116.531 155.091 C 116.592 154.858,116.592 154.476,116.531 154.242 C 116.470 154.009,116.420 154.200,116.420 154.667 M97.521 155.879 C 97.521 156.479,97.568 156.724,97.626 156.424 C 97.683 156.124,97.683 155.633,97.626 155.333 C 97.568 155.033,97.521 155.279,97.521 155.879 M112.299 155.879 C 112.299 156.345,112.349 156.536,112.410 156.303 C 112.471 156.070,112.471 155.688,112.410 155.455 C 112.349 155.221,112.299 155.412,112.299 155.879 M94.359 157.818 C 94.359 158.285,94.409 158.476,94.470 158.242 C 94.531 158.009,94.531 157.627,94.470 157.394 C 94.409 157.161,94.359 157.352,94.359 157.818 M109.147 157.818 C 109.147 158.285,109.197 158.476,109.258 158.242 C 109.319 158.009,109.319 157.627,109.258 157.394 C 109.197 157.161,109.147 157.352,109.147 157.818 M90.238 159.030 C 90.238 159.497,90.288 159.688,90.349 159.455 C 90.410 159.221,90.410 158.839,90.349 158.606 C 90.288 158.373,90.238 158.564,90.238 159.030 M105.026 159.030 C 105.026 159.497,105.076 159.688,105.137 159.455 C 105.198 159.221,105.198 158.839,105.137 158.606 C 105.076 158.373,105.026 158.564,105.026 159.030 M101.874 160.970 C 101.874 161.436,101.924 161.627,101.985 161.394 C 102.046 161.161,102.046 160.779,101.985 160.545 C 101.924 160.312,101.874 160.503,101.874 160.970 M116.662 160.970 C 116.662 161.436,116.712 161.627,116.773 161.394 C 116.834 161.161,116.834 160.779,116.773 160.545 C 116.712 160.312,116.662 160.503,116.662 160.970 M97.753 162.182 C 97.753 162.648,97.803 162.839,97.864 162.606 C 97.925 162.373,97.925 161.991,97.864 161.758 C 97.803 161.524,97.753 161.715,97.753 162.182 M112.541 162.182 C 112.541 162.648,112.591 162.839,112.652 162.606 C 112.713 162.373,112.713 161.991,112.652 161.758 C 112.591 161.524,112.541 161.715,112.541 162.182 M109.390 164.121 C 109.390 164.588,109.439 164.779,109.500 164.545 C 109.561 164.312,109.561 163.930,109.500 163.697 C 109.439 163.464,109.390 163.655,109.390 164.121 M105.268 165.333 C 105.268 165.800,105.318 165.991,105.379 165.758 C 105.440 165.524,105.440 165.142,105.379 164.909 C 105.318 164.676,105.268 164.867,105.268 165.333 " stroke="none" fill="#fcd46e" fill-rule="evenodd"></path><path id="path3" d="M290.750 103.879 C 290.751 104.945,290.793 105.352,290.844 104.781 C 290.896 104.211,290.895 103.339,290.843 102.842 C 290.791 102.346,290.749 102.812,290.750 103.879 M247.457 104.414 C 247.759 104.472,248.195 104.470,248.427 104.409 C 248.659 104.348,248.412 104.301,247.879 104.304 C 247.345 104.306,247.156 104.356,247.457 104.414 M246.367 109.265 C 246.735 109.321,247.281 109.319,247.579 109.262 C 247.877 109.204,247.576 109.158,246.909 109.160 C 246.242 109.162,245.998 109.209,246.367 109.265 M221.879 109.743 C 222.112 109.804,222.494 109.804,222.727 109.743 C 222.961 109.682,222.770 109.632,222.303 109.632 C 221.836 109.632,221.645 109.682,221.879 109.743 M228.848 112.076 C 228.848 112.118,229.203 112.472,229.636 112.864 L 230.424 113.576 229.712 112.788 C 229.049 112.053,228.848 111.889,228.848 112.076 M124.182 117.500 C 124.415 117.561,124.797 117.561,125.030 117.500 C 125.264 117.439,125.073 117.390,124.606 117.390 C 124.139 117.390,123.948 117.439,124.182 117.500 M302.121 120.652 C 302.355 120.713,302.736 120.713,302.970 120.652 C 303.203 120.591,303.012 120.541,302.545 120.541 C 302.079 120.541,301.888 120.591,302.121 120.652 M285.519 123.812 C 285.955 123.866,286.610 123.865,286.974 123.810 C 287.338 123.754,286.982 123.710,286.182 123.711 C 285.382 123.713,285.084 123.758,285.519 123.812 M234.017 126.545 C 234.017 127.412,234.061 127.767,234.115 127.333 C 234.169 126.900,234.169 126.191,234.115 125.758 C 234.061 125.324,234.017 125.679,234.017 126.545 M228.681 126.667 C 228.683 127.467,228.728 127.765,228.782 127.329 C 228.836 126.893,228.835 126.239,228.779 125.874 C 228.724 125.510,228.680 125.867,228.681 126.667 M270.970 126.959 C 271.270 127.017,271.761 127.017,272.061 126.959 C 272.361 126.901,272.115 126.854,271.515 126.854 C 270.915 126.854,270.670 126.901,270.970 126.959 M246.000 127.929 C 246.300 127.986,246.791 127.986,247.091 127.929 C 247.391 127.871,247.145 127.824,246.545 127.824 C 245.945 127.824,245.700 127.871,246.000 127.929 M314.970 128.894 C 315.203 128.955,315.585 128.955,315.818 128.894 C 316.052 128.833,315.861 128.784,315.394 128.784 C 314.927 128.784,314.736 128.833,314.970 128.894 M314.727 130.349 C 314.961 130.410,315.342 130.410,315.576 130.349 C 315.809 130.288,315.618 130.238,315.152 130.238 C 314.685 130.238,314.494 130.288,314.727 130.349 M118.865 136.485 C 118.865 137.352,118.909 137.706,118.963 137.273 C 119.017 136.839,119.017 136.130,118.963 135.697 C 118.909 135.264,118.865 135.618,118.865 136.485 M123.231 136.848 C 123.232 137.782,123.276 138.134,123.328 137.631 C 123.381 137.128,123.380 136.364,123.326 135.934 C 123.273 135.504,123.230 135.915,123.231 136.848 M280.396 136.406 C 280.547 136.516,280.731 136.824,280.805 137.091 C 280.910 137.473,280.929 137.452,280.893 136.989 C 280.869 136.666,280.685 136.357,280.485 136.304 C 280.245 136.239,280.215 136.273,280.396 136.406 M174.369 137.697 C 174.369 138.297,174.416 138.542,174.474 138.242 C 174.532 137.942,174.532 137.452,174.474 137.152 C 174.416 136.852,174.369 137.097,174.369 137.697 M126.381 139.394 C 126.381 140.261,126.425 140.615,126.478 140.182 C 126.532 139.748,126.532 139.039,126.478 138.606 C 126.425 138.173,126.381 138.527,126.381 139.394 M111.590 139.515 C 111.592 140.315,111.637 140.613,111.691 140.177 C 111.745 139.742,111.744 139.087,111.688 138.723 C 111.633 138.359,111.589 138.715,111.590 139.515 M115.956 139.879 C 115.956 140.745,116.000 141.100,116.054 140.667 C 116.108 140.233,116.108 139.524,116.054 139.091 C 116.000 138.658,115.956 139.012,115.956 139.879 M130.744 139.879 C 130.744 140.745,130.788 141.100,130.842 140.667 C 130.896 140.233,130.896 139.524,130.842 139.091 C 130.788 138.658,130.744 139.012,130.744 139.879 M291.463 139.515 C 291.465 140.182,291.512 140.426,291.568 140.057 C 291.624 139.689,291.622 139.143,291.565 138.845 C 291.507 138.547,291.461 138.848,291.463 139.515 M170.970 139.758 C 170.973 140.291,171.023 140.481,171.081 140.179 C 171.139 139.877,171.136 139.441,171.076 139.209 C 171.015 138.978,170.968 139.224,170.970 139.758 M206.970 140.535 C 207.270 140.593,207.761 140.593,208.061 140.535 C 208.361 140.477,208.115 140.430,207.515 140.430 C 206.915 140.430,206.670 140.477,206.970 140.535 M119.110 142.667 C 119.111 143.600,119.155 143.952,119.207 143.449 C 119.260 142.946,119.259 142.183,119.205 141.752 C 119.152 141.322,119.109 141.733,119.110 142.667 M123.473 143.152 C 123.475 144.085,123.518 144.437,123.571 143.934 C 123.623 143.431,123.622 142.667,123.569 142.237 C 123.515 141.807,123.472 142.218,123.473 143.152 M170.965 142.303 C 170.965 142.770,171.015 142.961,171.076 142.727 C 171.137 142.494,171.137 142.112,171.076 141.879 C 171.015 141.645,170.965 141.836,170.965 142.303 M133.879 143.636 C 133.882 144.170,133.932 144.359,133.990 144.058 C 134.048 143.756,134.045 143.320,133.985 143.088 C 133.924 142.856,133.877 143.103,133.879 143.636 M111.835 145.697 C 111.835 146.564,111.879 146.918,111.933 146.485 C 111.987 146.052,111.987 145.342,111.933 144.909 C 111.879 144.476,111.835 144.830,111.835 145.697 M126.623 145.697 C 126.623 146.564,126.667 146.918,126.721 146.485 C 126.775 146.052,126.775 145.342,126.721 144.909 C 126.667 144.476,126.623 144.830,126.623 145.697 M116.199 146.182 C 116.199 147.048,116.243 147.403,116.297 146.970 C 116.350 146.536,116.350 145.827,116.297 145.394 C 116.243 144.961,116.199 145.315,116.199 146.182 M130.987 146.182 C 130.987 147.048,131.031 147.403,131.084 146.970 C 131.138 146.536,131.138 145.827,131.084 145.394 C 131.031 144.961,130.987 145.315,130.987 146.182 M181.762 146.115 C 182.198 146.169,182.852 146.168,183.216 146.113 C 183.581 146.057,183.224 146.013,182.424 146.015 C 181.624 146.016,181.326 146.061,181.762 146.115 M119.350 148.848 C 119.350 149.715,119.394 150.070,119.448 149.636 C 119.502 149.203,119.502 148.494,119.448 148.061 C 119.394 147.627,119.350 147.982,119.350 148.848 M123.714 149.333 C 123.714 150.200,123.758 150.555,123.812 150.121 C 123.866 149.688,123.866 148.979,123.812 148.545 C 123.758 148.112,123.714 148.467,123.714 149.333 M108.921 149.576 C 108.921 150.309,108.967 150.609,109.022 150.242 C 109.078 149.876,109.078 149.276,109.022 148.909 C 108.967 148.542,108.921 148.842,108.921 149.576 M112.080 151.879 C 112.081 152.812,112.124 153.164,112.177 152.661 C 112.229 152.158,112.229 151.395,112.175 150.964 C 112.121 150.534,112.078 150.945,112.080 151.879 M116.443 152.364 C 116.444 153.297,116.488 153.649,116.541 153.146 C 116.593 152.643,116.592 151.879,116.539 151.449 C 116.485 151.019,116.442 151.430,116.443 152.364 M104.805 155.152 C 104.805 156.018,104.849 156.373,104.903 155.939 C 104.956 155.506,104.956 154.797,104.903 154.364 C 104.849 153.930,104.805 154.285,104.805 155.152 M109.170 155.515 C 109.172 156.448,109.215 156.801,109.268 156.298 C 109.320 155.795,109.319 155.031,109.266 154.601 C 109.212 154.170,109.169 154.582,109.170 155.515 M112.322 158.182 C 112.323 159.115,112.367 159.467,112.419 158.964 C 112.472 158.461,112.471 157.698,112.417 157.267 C 112.364 156.837,112.321 157.248,112.322 158.182 M97.532 158.303 C 97.532 159.170,97.576 159.524,97.630 159.091 C 97.684 158.658,97.684 157.948,97.630 157.515 C 97.576 157.082,97.532 157.436,97.532 158.303 M101.898 158.667 C 101.899 159.600,101.943 159.952,101.995 159.449 C 102.048 158.946,102.047 158.183,101.993 157.752 C 101.940 157.322,101.897 157.733,101.898 158.667 M116.686 158.667 C 116.687 159.600,116.731 159.952,116.783 159.449 C 116.835 158.946,116.835 158.183,116.781 157.752 C 116.727 157.322,116.685 157.733,116.686 158.667 M105.049 161.333 C 105.050 162.267,105.094 162.619,105.147 162.116 C 105.199 161.613,105.198 160.849,105.145 160.419 C 105.091 159.988,105.048 160.400,105.049 161.333 M109.413 161.818 C 109.414 162.752,109.458 163.104,109.510 162.601 C 109.563 162.098,109.562 161.334,109.508 160.904 C 109.455 160.473,109.412 160.885,109.413 161.818 M97.775 164.364 C 97.775 165.230,97.819 165.585,97.872 165.152 C 97.926 164.718,97.926 164.009,97.872 163.576 C 97.819 163.142,97.775 163.497,97.775 164.364 M112.551 163.879 C 112.551 164.479,112.598 164.724,112.656 164.424 C 112.714 164.124,112.714 163.633,112.656 163.333 C 112.598 163.033,112.551 163.279,112.551 163.879 M102.122 164.242 C 102.124 164.776,102.174 164.965,102.232 164.664 C 102.290 164.362,102.288 163.926,102.227 163.694 C 102.166 163.462,102.119 163.709,102.122 164.242 M105.287 167.394 C 105.289 168.194,105.334 168.492,105.388 168.056 C 105.442 167.621,105.441 166.966,105.385 166.602 C 105.330 166.237,105.286 166.594,105.287 167.394 M109.637 167.394 C 109.640 167.927,109.689 168.117,109.747 167.815 C 109.805 167.514,109.803 167.077,109.742 166.846 C 109.682 166.614,109.634 166.861,109.637 167.394 M97.273 175.204 C 97.639 175.259,98.239 175.259,98.606 175.204 C 98.973 175.148,98.673 175.103,97.939 175.103 C 97.206 175.103,96.906 175.148,97.273 175.204 " stroke="none" fill="#fce0a5" fill-rule="evenodd"></path><path id="path4" d="M293.563 95.939 L 292.727 96.848 293.636 96.013 C 294.136 95.554,294.545 95.144,294.545 95.104 C 294.545 94.919,294.340 95.093,293.563 95.939 M253.576 106.015 C 253.576 106.057,253.930 106.412,254.364 106.803 L 255.152 107.515 254.439 106.727 C 253.776 105.993,253.576 105.828,253.576 106.015 M174.167 121.273 L 173.455 122.061 174.242 121.349 C 174.676 120.957,175.030 120.602,175.030 120.561 C 175.030 120.373,174.830 120.538,174.167 121.273 M165.576 124.439 C 165.576 124.481,165.930 124.836,166.364 125.227 L 167.152 125.939 166.439 125.152 C 165.776 124.417,165.576 124.252,165.576 124.439 M153.318 125.394 L 152.606 126.182 153.394 125.470 C 153.827 125.078,154.182 124.724,154.182 124.682 C 154.182 124.495,153.982 124.660,153.318 125.394 M239.273 130.015 C 239.273 130.057,239.627 130.412,240.061 130.803 L 240.848 131.515 240.136 130.727 C 239.473 129.993,239.273 129.828,239.273 130.015 M215.515 134.667 C 215.967 135.133,216.392 135.515,216.459 135.515 C 216.525 135.515,216.210 135.133,215.758 134.667 C 215.305 134.200,214.881 133.818,214.814 133.818 C 214.747 133.818,215.063 134.200,215.515 134.667 M91.394 172.197 C 91.394 172.239,91.748 172.593,92.182 172.985 L 92.970 173.697 92.258 172.909 C 91.594 172.175,91.394 172.010,91.394 172.197 " stroke="none" fill="#fccc4c" fill-rule="evenodd"></path></g></svg>
