<?xml version="1.0" encoding="UTF-8" standalone="no"?>
<svg
   xmlns:dc="http://purl.org/dc/elements/1.1/"
   xmlns:cc="http://creativecommons.org/ns#"
   xmlns:rdf="http://www.w3.org/1999/02/22-rdf-syntax-ns#"
   xmlns:svg="http://www.w3.org/2000/svg"
   xmlns="http://www.w3.org/2000/svg"
   xmlns:sodipodi="http://sodipodi.sourceforge.net/DTD/sodipodi-0.dtd"
   xmlns:inkscape="http://www.inkscape.org/namespaces/inkscape"
   version="1.1"
   id="Layer_1"
   x="0px"
   y="0px"
   viewBox="0 0 75 75"
   style="enable-background:new 0 0 75 75;"
   xml:space="preserve"
   sodipodi:docname="awake_arista-stacked75x75.svgz"><metadata
   id="metadata292"><rdf:RDF><cc:Work
       rdf:about=""><dc:format>image/svg+xml</dc:format><dc:type
         rdf:resource="http://purl.org/dc/dcmitype/StillImage" /></cc:Work></rdf:RDF></metadata><defs
   id="defs290" /><sodipodi:namedview
   pagecolor="#ffffff"
   bordercolor="#666666"
   borderopacity="1"
   objecttolerance="10"
   gridtolerance="10"
   guidetolerance="10"
   inkscape:pageopacity="0"
   inkscape:pageshadow="2"
   inkscape:window-width="640"
   inkscape:window-height="480"
   id="namedview288" />
<style
   type="text/css"
   id="style2">
	.st0{enable-background:new    ;}
	.st1{fill:#9898AF;}
	.st2{fill:url(#SVGID_1_);}
	.st3{fill:url(#SVGID_2_);}
	.st4{fill:url(#SVGID_3_);}
	.st5{fill:url(#SVGID_4_);}
	.st6{fill:url(#SVGID_5_);}
	.st7{fill:url(#SVGID_6_);}
	.st8{fill:url(#SVGID_7_);}
	.st9{fill:url(#SVGID_8_);}
	.st10{fill:url(#SVGID_9_);}
	.st11{fill:url(#SVGID_10_);}
	.st12{fill:url(#SVGID_11_);}
	.st13{fill:url(#SVGID_12_);}
	.st14{fill:url(#SVGID_13_);}
	.st15{fill:url(#SVGID_14_);}
	.st16{fill:url(#SVGID_15_);}
	.st17{fill:url(#SVGID_16_);}
	.st18{fill:url(#SVGID_17_);}
	.st19{fill:#173A61;}
</style>
<g
   class="st0"
   id="g52">
	<path
   class="st1"
   d="M2.49,40.29H1.36v-0.53h2.88v0.53H3.12v2.86H2.49V40.29z"
   id="path4" />
	<path
   class="st1"
   d="M7.21,41.67v1.48H6.6v-1.41c0-0.46-0.23-0.68-0.62-0.68c-0.43,0-0.72,0.26-0.72,0.78v1.31H4.66v-3.6h0.61v1.31   c0.2-0.21,0.5-0.33,0.86-0.33C6.75,40.54,7.21,40.89,7.21,41.67z"
   id="path6" />
	<path
   class="st1"
   d="M10.42,42.05H8.39c0.07,0.38,0.39,0.62,0.84,0.62c0.29,0,0.52-0.09,0.7-0.28l0.32,0.37   c-0.23,0.28-0.6,0.42-1.04,0.42c-0.87,0-1.43-0.56-1.43-1.33c0-0.77,0.57-1.32,1.34-1.32c0.76,0,1.31,0.53,1.31,1.34   C10.43,41.92,10.43,41.99,10.42,42.05z M8.39,41.65h1.47c-0.05-0.37-0.33-0.63-0.73-0.63C8.73,41.02,8.45,41.27,8.39,41.65z"
   id="path8" />
	<path
   class="st1"
   d="M15.43,39.76v3.39h-0.52l-1.87-2.3v2.3h-0.63v-3.39h0.52l1.87,2.3v-2.3H15.43z"
   id="path10" />
	<path
   class="st1"
   d="M16.34,39.76h1.48c1.1,0,1.85,0.68,1.85,1.7c0,1.02-0.75,1.7-1.85,1.7h-1.48V39.76z M17.79,42.62   c0.76,0,1.25-0.46,1.25-1.16c0-0.7-0.49-1.16-1.25-1.16h-0.82v2.33L17.79,42.62L17.79,42.62z"
   id="path12" />
	<path
   class="st1"
   d="M22.56,43.15l-0.69-0.99c-0.04,0-0.09,0-0.13,0h-0.76v0.99h-0.63v-3.39h1.4c0.89,0,1.45,0.46,1.45,1.21   c0,0.51-0.26,0.89-0.72,1.07l0.78,1.11L22.56,43.15L22.56,43.15z M21.71,40.29h-0.74v1.35h0.74c0.55,0,0.84-0.25,0.84-0.68   S22.26,40.29,21.71,40.29z"
   id="path14" />
	<path
   class="st1"
   d="M24.94,42.79l0.22-0.49c0.27,0.22,0.7,0.37,1.12,0.37c0.53,0,0.75-0.19,0.75-0.44c0-0.73-2.02-0.25-2.02-1.51   c0-0.55,0.44-1.01,1.37-1.01c0.41,0,0.83,0.11,1.13,0.3l-0.2,0.49c-0.31-0.18-0.64-0.27-0.93-0.27c-0.52,0-0.74,0.2-0.74,0.46   c0,0.72,2.01,0.25,2.01,1.5c0,0.54-0.44,1.01-1.37,1.01C25.74,43.2,25.22,43.04,24.94,42.79z"
   id="path16" />
	<path
   class="st1"
   d="M30.63,42.05H28.6c0.07,0.38,0.39,0.62,0.84,0.62c0.29,0,0.52-0.09,0.7-0.28l0.32,0.37   c-0.23,0.28-0.6,0.42-1.04,0.42c-0.87,0-1.43-0.56-1.43-1.33c0-0.77,0.57-1.32,1.34-1.32c0.76,0,1.31,0.53,1.31,1.34   C30.65,41.92,30.64,41.99,30.63,42.05z M28.6,41.65h1.47c-0.05-0.37-0.33-0.63-0.73-0.63C28.94,41.02,28.66,41.27,28.6,41.65z"
   id="path18" />
	<path
   class="st1"
   d="M31.01,41.86c0-0.78,0.58-1.32,1.4-1.32c0.5,0,0.91,0.21,1.1,0.6l-0.47,0.27c-0.15-0.25-0.39-0.36-0.65-0.36   c-0.45,0-0.78,0.31-0.78,0.81c0,0.5,0.34,0.81,0.78,0.81c0.26,0,0.49-0.11,0.65-0.36l0.47,0.27c-0.2,0.39-0.6,0.61-1.1,0.61   C31.6,43.19,31.01,42.63,31.01,41.86z"
   id="path20" />
	<path
   class="st1"
   d="M36.55,40.56v2.59h-0.58v-0.33c-0.19,0.24-0.5,0.36-0.83,0.36c-0.66,0-1.11-0.36-1.11-1.14v-1.48h0.61v1.4   c0,0.47,0.22,0.69,0.61,0.69c0.42,0,0.71-0.26,0.71-0.78v-1.31H36.55z"
   id="path22" />
	<path
   class="st1"
   d="M38.84,40.54v0.58c-0.05-0.01-0.1-0.02-0.14-0.02c-0.46,0-0.75,0.27-0.75,0.8v1.26h-0.6v-2.59h0.58v0.38   C38.1,40.67,38.41,40.54,38.84,40.54z"
   id="path24" />
	<path
   class="st1"
   d="M39.27,39.78c0-0.2,0.17-0.36,0.39-0.36c0.22,0,0.39,0.15,0.39,0.35c0,0.21-0.16,0.38-0.39,0.38   C39.44,40.14,39.27,39.98,39.27,39.78z M39.35,40.56h0.61v2.59h-0.61V40.56z"
   id="path26" />
	<path
   class="st1"
   d="M42.31,43.01c-0.15,0.12-0.36,0.17-0.58,0.17c-0.57,0-0.89-0.3-0.89-0.87v-1.25h-0.43v-0.48h0.43v-0.59h0.61   v0.59h0.69v0.48h-0.69v1.23c0,0.25,0.13,0.39,0.36,0.39c0.13,0,0.25-0.03,0.34-0.11L42.31,43.01z"
   id="path28" />
	<path
   class="st1"
   d="M45.18,40.56l-1.21,2.8c-0.24,0.59-0.57,0.76-1,0.76c-0.26,0-0.53-0.09-0.69-0.24l0.24-0.45   c0.12,0.11,0.28,0.18,0.45,0.18c0.21,0,0.34-0.1,0.46-0.36l0.04-0.1l-1.13-2.6h0.63l0.81,1.91l0.82-1.91L45.18,40.56L45.18,40.56z"
   id="path30" />
	<path
   class="st1"
   d="M46.96,39.76h1.48c1.1,0,1.85,0.68,1.85,1.7c0,1.02-0.75,1.7-1.85,1.7h-1.48V39.76z M48.41,42.62   c0.76,0,1.25-0.46,1.25-1.16c0-0.7-0.49-1.16-1.25-1.16h-0.82v2.33L48.41,42.62L48.41,42.62z"
   id="path32" />
	<path
   class="st1"
   d="M50.82,39.78c0-0.2,0.17-0.36,0.39-0.36c0.22,0,0.39,0.15,0.39,0.35c0,0.21-0.16,0.38-0.39,0.38   C50.99,40.14,50.82,39.98,50.82,39.78z M50.9,40.56h0.61v2.59H50.9V40.56z"
   id="path34" />
	<path
   class="st1"
   d="M54.73,40.56l-1.11,2.59h-0.63l-1.11-2.59h0.63l0.8,1.92l0.83-1.92H54.73z"
   id="path36" />
	<path
   class="st1"
   d="M55.02,39.78c0-0.2,0.17-0.36,0.39-0.36c0.22,0,0.39,0.15,0.39,0.35c0,0.21-0.16,0.38-0.39,0.38   C55.19,40.14,55.02,39.98,55.02,39.78z M55.1,40.56h0.61v2.59H55.1V40.56z"
   id="path38" />
	<path
   class="st1"
   d="M56.21,42.9l0.23-0.46c0.23,0.15,0.58,0.26,0.9,0.26c0.38,0,0.54-0.11,0.54-0.29c0-0.49-1.6-0.03-1.6-1.06   c0-0.49,0.44-0.81,1.14-0.81c0.34,0,0.74,0.08,0.97,0.22l-0.23,0.46c-0.25-0.15-0.49-0.19-0.74-0.19c-0.37,0-0.54,0.12-0.54,0.29   c0,0.52,1.6,0.06,1.6,1.07c0,0.48-0.45,0.8-1.17,0.8C56.87,43.19,56.44,43.06,56.21,42.9z"
   id="path40" />
	<path
   class="st1"
   d="M58.92,39.78c0-0.2,0.17-0.36,0.39-0.36c0.22,0,0.39,0.15,0.39,0.35c0,0.21-0.16,0.38-0.39,0.38   C59.08,40.14,58.92,39.98,58.92,39.78z M59,40.56h0.61v2.59H59V40.56z"
   id="path42" />
	<path
   class="st1"
   d="M60.19,41.86c0-0.78,0.58-1.32,1.38-1.32c0.8,0,1.38,0.55,1.38,1.32c0,0.78-0.58,1.33-1.38,1.33   C60.77,43.19,60.19,42.63,60.19,41.86z M62.34,41.86c0-0.49-0.33-0.81-0.77-0.81c-0.44,0-0.76,0.32-0.76,0.81   c0,0.49,0.33,0.81,0.76,0.81C62.01,42.67,62.34,42.35,62.34,41.86z"
   id="path44" />
	<path
   class="st1"
   d="M66.08,41.67v1.48h-0.61v-1.41c0-0.46-0.23-0.68-0.62-0.68c-0.43,0-0.72,0.26-0.72,0.78v1.31h-0.61v-2.59h0.58   v0.33c0.2-0.24,0.51-0.36,0.89-0.36C65.62,40.54,66.08,40.89,66.08,41.67z"
   id="path46" />
	<path
   class="st1"
   d="M67.97,41.86c0-0.78,0.58-1.32,1.38-1.32c0.8,0,1.38,0.55,1.38,1.32c0,0.78-0.58,1.33-1.38,1.33   C68.55,43.19,67.97,42.63,67.97,41.86z M70.12,41.86c0-0.49-0.33-0.81-0.77-0.81c-0.44,0-0.76,0.32-0.76,0.81   c0,0.49,0.33,0.81,0.76,0.81C69.79,42.67,70.12,42.35,70.12,41.86z"
   id="path48" />
	<path
   class="st1"
   d="M71.98,40.43v0.15h0.71v0.48H72v2.08h-0.61v-2.08h-0.43v-0.48h0.43v-0.17c0-0.54,0.32-0.9,0.93-0.9   c0.21,0,0.41,0.04,0.55,0.14l-0.17,0.46c-0.09-0.06-0.21-0.11-0.33-0.11C72.11,40.01,71.98,40.15,71.98,40.43z"
   id="path50" />
</g>
<g
   id="g273">
	
		<linearGradient
   id="SVGID_1_"
   gradientUnits="userSpaceOnUse"
   x1="64.1892"
   y1="-106.4975"
   x2="64.2444"
   y2="-93.828"
   gradientTransform="matrix(1 0 0 1 0 132)">
		<stop
   offset="0"
   style="stop-color:#2A225B"
   id="stop54" />
		<stop
   offset="0.05"
   style="stop-color:#2C245F"
   id="stop56" />
		<stop
   offset="0.81"
   style="stop-color:#363390"
   id="stop58" />
	</linearGradient>
	<path
   class="st2"
   d="M64.22,38.26c-0.53,0-0.96-0.43-0.96-0.96V26.43c0-0.53,0.43-0.96,0.96-0.96c0.53,0,0.96,0.43,0.96,0.96   c0,0,0,0,0,0v10.88C65.17,37.84,64.74,38.26,64.22,38.26z"
   id="path61" />
	
		<linearGradient
   id="SVGID_2_"
   gradientUnits="userSpaceOnUse"
   x1="67.6277"
   y1="-106.4214"
   x2="67.6277"
   y2="-92.6967"
   gradientTransform="matrix(1 0 0 1 0 132)">
		<stop
   offset="0"
   style="stop-color:#6564AD"
   id="stop63" />
		<stop
   offset="0.2"
   style="stop-color:#6462AC"
   id="stop65" />
		<stop
   offset="0.42"
   style="stop-color:#605EAA"
   id="stop67" />
		<stop
   offset="0.64"
   style="stop-color:#5655A4"
   id="stop69" />
		<stop
   offset="0.88"
   style="stop-color:#46429A"
   id="stop71" />
		<stop
   offset="1"
   style="stop-color:#363390"
   id="stop73" />
	</linearGradient>
	<path
   class="st3"
   d="M71.04,32.82h-6.82c-0.53,0-0.96-0.43-0.96-0.96s0.43-0.96,0.96-0.96h6.82c0.53,0,0.96,0.43,0.96,0.96   C72,32.4,71.57,32.82,71.04,32.82C71.04,32.82,71.04,32.82,71.04,32.82z"
   id="path76" />
	
		<linearGradient
   id="SVGID_3_"
   gradientUnits="userSpaceOnUse"
   x1="68.1113"
   y1="-106.4214"
   x2="68.1113"
   y2="-92.6967"
   gradientTransform="matrix(1 0 0 1 0 132)">
		<stop
   offset="0"
   style="stop-color:#6564AD"
   id="stop78" />
		<stop
   offset="0.2"
   style="stop-color:#6462AC"
   id="stop80" />
		<stop
   offset="0.42"
   style="stop-color:#605EAA"
   id="stop82" />
		<stop
   offset="0.64"
   style="stop-color:#5655A4"
   id="stop84" />
		<stop
   offset="0.88"
   style="stop-color:#46429A"
   id="stop86" />
		<stop
   offset="1"
   style="stop-color:#363390"
   id="stop88" />
	</linearGradient>
	<path
   class="st4"
   d="M64.22,27.38c-0.53,0-0.96-0.43-0.96-0.96s0.43-0.96,0.96-0.96l7.79-0.01l0,0c0.53,0,0.96,0.43,0.96,0.96   s-0.43,0.96-0.96,0.96L64.22,27.38L64.22,27.38z"
   id="path91" />
	
		<linearGradient
   id="SVGID_4_"
   gradientUnits="userSpaceOnUse"
   x1="68.1113"
   y1="-106.4214"
   x2="68.1113"
   y2="-92.6967"
   gradientTransform="matrix(1 0 0 1 0 132)">
		<stop
   offset="0"
   style="stop-color:#6564AD"
   id="stop93" />
		<stop
   offset="0.2"
   style="stop-color:#6462AC"
   id="stop95" />
		<stop
   offset="0.42"
   style="stop-color:#605EAA"
   id="stop97" />
		<stop
   offset="0.64"
   style="stop-color:#5655A4"
   id="stop99" />
		<stop
   offset="0.88"
   style="stop-color:#46429A"
   id="stop101" />
		<stop
   offset="1"
   style="stop-color:#363390"
   id="stop103" />
	</linearGradient>
	<path
   class="st5"
   d="M64.22,38.28c-0.53,0-0.96-0.43-0.96-0.96c0-0.53,0.43-0.96,0.96-0.96l7.79-0.01l0,0   c0.53,0,0.96,0.43,0.96,0.96c0,0.53-0.43,0.96-0.96,0.96L64.22,38.28L64.22,38.28z"
   id="path106" />
	
		<linearGradient
   id="SVGID_5_"
   gradientUnits="userSpaceOnUse"
   x1="14.8129"
   y1="-106.5013"
   x2="19.4167"
   y2="-94.0601"
   gradientTransform="matrix(1 0 0 1 0 132)">
		<stop
   offset="0"
   style="stop-color:#2A225B"
   id="stop108" />
		<stop
   offset="0.05"
   style="stop-color:#2C245F"
   id="stop110" />
		<stop
   offset="0.81"
   style="stop-color:#363390"
   id="stop112" />
	</linearGradient>
	<path
   class="st6"
   d="M19.17,38.25c-0.4,0-0.76-0.25-0.9-0.63l-4.02-10.88c-0.17-0.5,0.09-1.04,0.59-1.22   c0.48-0.17,1.02,0.08,1.2,0.55l4.02,10.88c0.18,0.5-0.07,1.05-0.57,1.23C19.4,38.23,19.29,38.25,19.17,38.25z"
   id="path115" />
	
		<linearGradient
   id="SVGID_6_"
   gradientUnits="userSpaceOnUse"
   x1="22.9227"
   y1="-106.2455"
   x2="27.6742"
   y2="-93.5108"
   gradientTransform="matrix(1 0 0 1 0 132)">
		<stop
   offset="0"
   style="stop-color:#2A225B"
   id="stop117" />
		<stop
   offset="0.05"
   style="stop-color:#2C245F"
   id="stop119" />
		<stop
   offset="0.81"
   style="stop-color:#363390"
   id="stop121" />
	</linearGradient>
	<path
   class="st7"
   d="M27.21,38.25c-0.4,0-0.76-0.25-0.9-0.62l-4.02-10.89c-0.17-0.5,0.09-1.04,0.59-1.22   c0.48-0.17,1.02,0.08,1.2,0.55l4.02,10.88c0.18,0.5-0.07,1.05-0.57,1.23C27.43,38.23,27.32,38.25,27.21,38.25z"
   id="path124" />
	
		<linearGradient
   id="SVGID_7_"
   gradientUnits="userSpaceOnUse"
   x1="21.1774"
   y1="-106.4214"
   x2="21.1774"
   y2="-92.6967"
   gradientTransform="matrix(1 0 0 1 0 132)">
		<stop
   offset="0"
   style="stop-color:#6564AD"
   id="stop126" />
		<stop
   offset="0.2"
   style="stop-color:#6462AC"
   id="stop128" />
		<stop
   offset="0.42"
   style="stop-color:#605EAA"
   id="stop130" />
		<stop
   offset="0.64"
   style="stop-color:#5655A4"
   id="stop132" />
		<stop
   offset="0.88"
   style="stop-color:#46429A"
   id="stop134" />
		<stop
   offset="1"
   style="stop-color:#363390"
   id="stop136" />
	</linearGradient>
	<path
   class="st8"
   d="M19.17,38.25c-0.11,0-0.23-0.02-0.33-0.06c-0.5-0.18-0.75-0.73-0.57-1.23l4.02-10.88   c0.19-0.49,0.75-0.73,1.24-0.54c0.48,0.19,0.72,0.72,0.55,1.2l-4.02,10.89C19.93,38,19.57,38.25,19.17,38.25z"
   id="path139" />
	
		<linearGradient
   id="SVGID_8_"
   gradientUnits="userSpaceOnUse"
   x1="29.2128"
   y1="-106.4214"
   x2="29.2128"
   y2="-92.6967"
   gradientTransform="matrix(1 0 0 1 0 132)">
		<stop
   offset="0"
   style="stop-color:#6564AD"
   id="stop141" />
		<stop
   offset="0.2"
   style="stop-color:#6462AC"
   id="stop143" />
		<stop
   offset="0.42"
   style="stop-color:#605EAA"
   id="stop145" />
		<stop
   offset="0.64"
   style="stop-color:#5655A4"
   id="stop147" />
		<stop
   offset="0.88"
   style="stop-color:#46429A"
   id="stop149" />
		<stop
   offset="1"
   style="stop-color:#363390"
   id="stop151" />
	</linearGradient>
	<path
   class="st9"
   d="M27.21,38.25c-0.11,0-0.23-0.02-0.33-0.06c-0.5-0.18-0.75-0.73-0.57-1.23l4.02-10.88   c0.19-0.49,0.75-0.73,1.24-0.54c0.48,0.19,0.72,0.72,0.55,1.2L28.1,37.63C27.97,38,27.61,38.25,27.21,38.25z"
   id="path154" />
	
		<linearGradient
   id="SVGID_9_"
   gradientUnits="userSpaceOnUse"
   x1="6.5632"
   y1="-106.5202"
   x2="11.9206"
   y2="-93.6923"
   gradientTransform="matrix(1 0 0 1 0 132)">
		<stop
   offset="0"
   style="stop-color:#2A225B"
   id="stop156" />
		<stop
   offset="0.05"
   style="stop-color:#2C245F"
   id="stop158" />
		<stop
   offset="0.81"
   style="stop-color:#363390"
   id="stop160" />
	</linearGradient>
	<path
   class="st10"
   d="M11.57,38.25c-0.38,0-0.73-0.23-0.88-0.58L6,26.79c-0.21-0.48,0.02-1.05,0.5-1.26   c0.48-0.21,1.05,0.02,1.26,0.5l4.69,10.88c0.21,0.48-0.02,1.05-0.5,1.26C11.83,38.23,11.7,38.25,11.57,38.25z"
   id="path163" />
	
		<linearGradient
   id="SVGID_10_"
   gradientUnits="userSpaceOnUse"
   x1="4.5268"
   y1="-106.4214"
   x2="4.5268"
   y2="-92.6967"
   gradientTransform="matrix(1 0 0 1 0 132)">
		<stop
   offset="0"
   style="stop-color:#6564AD"
   id="stop165" />
		<stop
   offset="0.2"
   style="stop-color:#6462AC"
   id="stop167" />
		<stop
   offset="0.42"
   style="stop-color:#605EAA"
   id="stop169" />
		<stop
   offset="0.64"
   style="stop-color:#5655A4"
   id="stop171" />
		<stop
   offset="0.88"
   style="stop-color:#46429A"
   id="stop173" />
		<stop
   offset="1"
   style="stop-color:#363390"
   id="stop175" />
	</linearGradient>
	<path
   class="st11"
   d="M2.18,38.25c-0.53,0-0.96-0.43-0.96-0.96c0-0.13,0.03-0.26,0.08-0.38l4.69-10.88   c0.21-0.48,0.77-0.71,1.26-0.5c0.48,0.21,0.71,0.77,0.5,1.26l0,0L3.06,37.67C2.91,38.03,2.56,38.25,2.18,38.25z"
   id="path178" />
	
		<linearGradient
   id="SVGID_11_"
   gradientUnits="userSpaceOnUse"
   x1="6.8631"
   y1="-106.4214"
   x2="6.8631"
   y2="-92.6967"
   gradientTransform="matrix(1 0 0 1 0 132)">
		<stop
   offset="0"
   style="stop-color:#6564AD"
   id="stop180" />
		<stop
   offset="0.2"
   style="stop-color:#6462AC"
   id="stop182" />
		<stop
   offset="0.42"
   style="stop-color:#605EAA"
   id="stop184" />
		<stop
   offset="0.64"
   style="stop-color:#5655A4"
   id="stop186" />
		<stop
   offset="0.88"
   style="stop-color:#46429A"
   id="stop188" />
		<stop
   offset="1"
   style="stop-color:#363390"
   id="stop190" />
	</linearGradient>
	<path
   class="st12"
   d="M10.13,34.97H3.6c-0.53,0-0.96-0.43-0.96-0.96c0-0.53,0.43-0.96,0.96-0.96c0,0,0,0,0,0h6.53   c0.53,0,0.96,0.43,0.96,0.96C11.08,34.54,10.66,34.97,10.13,34.97L10.13,34.97z"
   id="path193" />
	
		<linearGradient
   id="SVGID_12_"
   gradientUnits="userSpaceOnUse"
   x1="39.1509"
   y1="-106.4895"
   x2="44.4304"
   y2="-93.9314"
   gradientTransform="matrix(1 0 0 1 0 132)">
		<stop
   offset="0"
   style="stop-color:#2A225B"
   id="stop195" />
		<stop
   offset="0.05"
   style="stop-color:#2C245F"
   id="stop197" />
		<stop
   offset="0.81"
   style="stop-color:#363390"
   id="stop199" />
	</linearGradient>
	<path
   class="st13"
   d="M44.16,38.25c-0.38,0-0.73-0.23-0.88-0.58l-4.69-10.89c-0.2-0.49,0.03-1.05,0.52-1.25   c0.48-0.2,1.02,0.02,1.23,0.49l4.69,10.88c0.21,0.49-0.02,1.05-0.5,1.26C44.42,38.23,44.29,38.25,44.16,38.25L44.16,38.25z"
   id="path202" />
	
		<linearGradient
   id="SVGID_13_"
   gradientUnits="userSpaceOnUse"
   x1="37.1171"
   y1="-106.4214"
   x2="37.1171"
   y2="-92.6967"
   gradientTransform="matrix(1 0 0 1 0 132)">
		<stop
   offset="0"
   style="stop-color:#6564AD"
   id="stop204" />
		<stop
   offset="0.2"
   style="stop-color:#6462AC"
   id="stop206" />
		<stop
   offset="0.42"
   style="stop-color:#605EAA"
   id="stop208" />
		<stop
   offset="0.64"
   style="stop-color:#5655A4"
   id="stop210" />
		<stop
   offset="0.88"
   style="stop-color:#46429A"
   id="stop212" />
		<stop
   offset="1"
   style="stop-color:#363390"
   id="stop214" />
	</linearGradient>
	<path
   class="st14"
   d="M34.77,38.25c-0.53,0-0.96-0.43-0.96-0.96c0-0.13,0.03-0.26,0.08-0.38l4.69-10.88   c0.21-0.48,0.77-0.71,1.26-0.5c0.48,0.21,0.71,0.77,0.5,1.26l-4.69,10.88C35.5,38.03,35.15,38.25,34.77,38.25z"
   id="path217" />
	
		<linearGradient
   id="SVGID_14_"
   gradientUnits="userSpaceOnUse"
   x1="39.4545"
   y1="-106.4214"
   x2="39.4545"
   y2="-92.6967"
   gradientTransform="matrix(1 0 0 1 0 132)">
		<stop
   offset="0"
   style="stop-color:#6564AD"
   id="stop219" />
		<stop
   offset="0.2"
   style="stop-color:#6462AC"
   id="stop221" />
		<stop
   offset="0.42"
   style="stop-color:#605EAA"
   id="stop223" />
		<stop
   offset="0.64"
   style="stop-color:#5655A4"
   id="stop225" />
		<stop
   offset="0.88"
   style="stop-color:#46429A"
   id="stop227" />
		<stop
   offset="1"
   style="stop-color:#363390"
   id="stop229" />
	</linearGradient>
	<path
   class="st15"
   d="M42.72,34.97h-6.53c-0.53,0-0.96-0.43-0.96-0.96c0-0.53,0.43-0.96,0.96-0.96c0,0,0,0,0,0h6.53   c0.53,0,0.96,0.43,0.96,0.96C43.68,34.54,43.25,34.97,42.72,34.97C42.72,34.97,42.72,34.97,42.72,34.97z"
   id="path232" />
	
		<linearGradient
   id="SVGID_15_"
   gradientUnits="userSpaceOnUse"
   x1="51.8919"
   y1="-101.665"
   x2="58.5599"
   y2="-94.1075"
   gradientTransform="matrix(1 0 0 1 0 132)">
		<stop
   offset="0"
   style="stop-color:#2A225B"
   id="stop234" />
		<stop
   offset="0.05"
   style="stop-color:#2C245F"
   id="stop236" />
		<stop
   offset="0.81"
   style="stop-color:#363390"
   id="stop238" />
	</linearGradient>
	<path
   class="st16"
   d="M58,38.2c-0.27,0-0.53-0.12-0.72-0.32l-5.46-6.17c-0.35-0.4-0.31-1,0.08-1.35c0.4-0.35,1-0.31,1.35,0.08   l5.46,6.17c0.35,0.4,0.31,1-0.08,1.35C58.46,38.12,58.23,38.2,58,38.2L58,38.2z"
   id="path241" />
	
		<linearGradient
   id="SVGID_16_"
   gradientUnits="userSpaceOnUse"
   x1="50.3085"
   y1="-106.4214"
   x2="50.3085"
   y2="-92.6967"
   gradientTransform="matrix(1 0 0 1 0 132)">
		<stop
   offset="0"
   style="stop-color:#6564AD"
   id="stop243" />
		<stop
   offset="0.2"
   style="stop-color:#6462AC"
   id="stop245" />
		<stop
   offset="0.42"
   style="stop-color:#605EAA"
   id="stop247" />
		<stop
   offset="0.64"
   style="stop-color:#5655A4"
   id="stop249" />
		<stop
   offset="0.88"
   style="stop-color:#46429A"
   id="stop251" />
		<stop
   offset="1"
   style="stop-color:#363390"
   id="stop253" />
	</linearGradient>
	<path
   class="st17"
   d="M50.31,38.25c-0.53,0-0.96-0.43-0.96-0.96l0,0V26.41c0-0.53,0.43-0.96,0.96-0.96c0.53,0,0.96,0.43,0.96,0.96   c0,0,0,0,0,0V37.3C51.26,37.82,50.84,38.25,50.31,38.25z"
   id="path256" />
	
		<linearGradient
   id="SVGID_17_"
   gradientUnits="userSpaceOnUse"
   x1="53.995"
   y1="-106.4214"
   x2="53.995"
   y2="-92.6967"
   gradientTransform="matrix(1 0 0 1 0 132)">
		<stop
   offset="0"
   style="stop-color:#6564AD"
   id="stop258" />
		<stop
   offset="0.2"
   style="stop-color:#6462AC"
   id="stop260" />
		<stop
   offset="0.42"
   style="stop-color:#605EAA"
   id="stop262" />
		<stop
   offset="0.64"
   style="stop-color:#5655A4"
   id="stop264" />
		<stop
   offset="0.88"
   style="stop-color:#46429A"
   id="stop266" />
		<stop
   offset="1"
   style="stop-color:#363390"
   id="stop268" />
	</linearGradient>
	<path
   class="st18"
   d="M50.31,34.1c-0.53,0-0.96-0.43-0.96-0.96c0-0.27,0.11-0.52,0.31-0.7l7.38-6.85c0.4-0.35,1-0.32,1.35,0.08   c0.34,0.38,0.32,0.96-0.05,1.32l-7.38,6.85C50.78,34.01,50.55,34.1,50.31,34.1z"
   id="path271" />
</g>
<path
   class="st19"
   d="M43.03,45.11c0.05,0,0.09,0,0.13,0c1.61,0,3.21-0.01,4.82,0c0.76,0.01,1.46,0.56,1.66,1.32  c0.21,0.83-0.18,1.67-0.97,2.05c-0.25,0.12-0.52,0.17-0.8,0.16c-0.16,0-0.31,0-0.47,0c-0.04,0-0.07,0.02-0.11,0.03  c0.02,0.03,0.02,0.08,0.05,0.1c0.43,0.41,0.87,0.83,1.3,1.24c0.34,0.32,0.67,0.64,1.01,0.96c0.02,0.02,0.03,0.03,0.05,0.06  c-0.04,0.01-0.07,0.02-0.1,0.02c-0.38,0-0.76,0-1.15,0c-0.1,0-0.16-0.03-0.23-0.1c-0.67-0.64-1.33-1.28-2-1.92  c-0.44-0.42-0.88-0.84-1.33-1.27c-0.02-0.02-0.04-0.04-0.07-0.09c0.07,0,0.11,0,0.15,0c0.98,0,1.96,0,2.93,0  c0.52,0,0.88-0.42,0.81-0.93c-0.05-0.37-0.39-0.66-0.8-0.67c-0.19-0.01-0.38,0-0.57,0c-1.02,0-2.04,0-3.06,0  c-0.18,0-0.17,0-0.17,0.18c0,1.55,0,3.09,0,4.64c0,0.13-0.03,0.17-0.16,0.16c-0.31-0.01-0.61,0-0.93,0  C43.03,49.06,43.03,47.09,43.03,45.11z"
   id="path275" />
<path
   class="st19"
   d="M59.27,45.11c-0.2,0.32-0.38,0.62-0.58,0.91c-0.02,0.04-0.11,0.05-0.17,0.05c-1.22,0-2.44,0-3.66,0  c-0.26,0-0.49,0.07-0.67,0.27c-0.22,0.25-0.26,0.54-0.11,0.84c0.13,0.26,0.35,0.41,0.65,0.41c0.73,0,1.46,0,2.19,0  c0.38,0,0.76,0,1.13,0.02c0.73,0.04,1.38,0.59,1.54,1.29c0.18,0.76-0.15,1.53-0.81,1.91c-0.28,0.16-0.58,0.24-0.9,0.24  c-1.52,0-3.04,0-4.56,0c-0.03,0-0.06,0-0.12,0c0.03-0.07,0.06-0.13,0.1-0.19c0.14-0.23,0.29-0.45,0.42-0.68  c0.05-0.09,0.13-0.08,0.21-0.08c1.3,0,2.61,0,3.91,0c0.4,0,0.68-0.2,0.8-0.56c0.15-0.47-0.22-0.96-0.72-0.96c-0.88,0-1.75,0-2.63,0  c-0.3,0-0.62,0-0.91-0.05c-1.08-0.22-1.68-1.42-1.18-2.43c0.26-0.52,0.67-0.83,1.23-0.93c0.14-0.03,0.29-0.04,0.43-0.05  c1.42,0,2.84,0,4.27,0C59.18,45.11,59.21,45.11,59.27,45.11z"
   id="path277" />
<path
   class="st19"
   d="M67.35,48.36c0.78,0,1.52,0,2.29,0c-0.02,0.06-0.03,0.09-0.04,0.12c-0.15,0.25-0.31,0.51-0.47,0.76  c-0.05,0.08-0.11,0.1-0.2,0.1c-0.68,0-1.35,0-2.03,0c-0.12,0-0.19,0.03-0.26,0.14c-0.31,0.5-0.63,1-0.95,1.5  c-0.02,0.03-0.05,0.06-0.07,0.06c-0.37,0-0.74,0-1.15,0c0.11-0.17,0.2-0.32,0.29-0.47c0.71-1.12,1.43-2.24,2.14-3.36  c0.38-0.61,0.77-1.21,1.16-1.81c0.22-0.34,0.69-0.4,0.98-0.12c0.12,0.12,0.2,0.27,0.29,0.41c0.35,0.55,0.7,1.1,1.05,1.65  c0.58,0.91,1.17,1.83,1.75,2.74c0.18,0.28,0.36,0.56,0.54,0.84c0.02,0.03,0.04,0.07,0.08,0.12c-0.12,0-0.22,0-0.32,0  c-0.24,0-0.48-0.01-0.72,0c-0.1,0-0.15-0.03-0.2-0.11c-0.42-0.67-0.85-1.34-1.28-2.01c-0.51-0.8-1.02-1.6-1.52-2.4  c-0.05-0.08-0.09-0.13-0.16-0.02C68.15,47.11,67.77,47.72,67.35,48.36z"
   id="path279" />
<path
   class="st19"
   d="M42.57,51.04c-0.06,0-0.1,0.01-0.13,0.01c-0.2,0-0.41-0.02-0.61,0.01c-0.32,0.05-0.49-0.09-0.65-0.36  c-0.52-0.86-1.08-1.7-1.62-2.55c-0.34-0.53-0.67-1.06-1-1.58c-0.09-0.15-0.12-0.14-0.2,0c-0.36,0.56-0.72,1.12-1.07,1.68  c-0.02,0.03-0.03,0.07-0.07,0.13c0.77,0,1.51,0,2.3,0c-0.09,0.15-0.17,0.28-0.24,0.4c-0.1,0.16-0.2,0.33-0.31,0.48  c-0.03,0.05-0.11,0.09-0.17,0.09c-0.68,0.01-1.37,0.01-2.05,0c-0.11,0-0.17,0.03-0.23,0.13c-0.31,0.5-0.63,1-0.96,1.5  c-0.02,0.03-0.07,0.08-0.1,0.08c-0.36,0.01-0.72,0-1.11,0c0.04-0.08,0.07-0.14,0.1-0.19c0.53-0.84,1.06-1.67,1.6-2.51  c0.6-0.95,1.21-1.89,1.81-2.84c0.15-0.23,0.33-0.39,0.61-0.4c0.24-0.01,0.41,0.11,0.53,0.3c0.24,0.37,0.48,0.75,0.72,1.12  c0.47,0.74,0.94,1.48,1.41,2.22c0.47,0.74,0.95,1.49,1.42,2.23C42.54,50.98,42.55,51,42.57,51.04z"
   id="path281" />
<path
   class="st19"
   d="M63.55,51.04c-0.37,0-0.71,0-1.09,0c0-0.05,0-0.11,0-0.16c0-1.54,0-3.09,0-4.63c0-0.18,0-0.18-0.18-0.18  c-0.77,0-1.54,0-2.31,0c-0.04,0-0.08,0-0.15,0c0.04-0.07,0.06-0.13,0.09-0.18c0.16-0.24,0.31-0.47,0.48-0.71  c0.03-0.04,0.08-0.07,0.12-0.07c1.77,0,3.55,0,5.32,0c0.02,0,0.03,0,0.07,0.01c0,0.29,0,0.59-0.01,0.88c0,0.02-0.08,0.06-0.13,0.06  c-0.67,0-1.34,0-2.01,0c-0.21,0-0.21,0-0.21,0.21c0,1.53,0,3.06,0,4.59C63.55,50.92,63.55,50.97,63.55,51.04z"
   id="path283" />
<path
   class="st19"
   d="M51.94,51.05c-0.35,0-0.67,0-1,0c-0.03,0-0.07-0.05-0.09-0.08c-0.02-0.03,0-0.08,0-0.12c0-1.14,0-2.28,0-3.41  c0-0.72,0.02-1.45,0.02-2.17c0-0.11,0.04-0.14,0.15-0.14c0.23,0.01,0.47,0,0.71,0c0.21,0,0.22,0,0.22,0.22c0,0.45,0,0.91,0,1.36  c0,1.39,0,2.78,0,4.16C51.94,50.91,51.94,50.97,51.94,51.05z"
   id="path285" />
</svg>
