<svg xmlns="http://www.w3.org/2000/svg" xmlns:xlink="http://www.w3.org/1999/xlink" viewBox="0 0 1147.4 765.4" xmlns:v="https://vecta.io/nano"><linearGradient id="A" gradientUnits="userSpaceOnUse"><stop offset="0" stop-color="#2b205b"/><stop offset=".5" stop-color="#2c215f"/><stop offset=".81" stop-color="#352e92"/></linearGradient><linearGradient id="B" x1="872.804" x2="873.414" xlink:href="#A" y1="313.11" y2="452.99"/><linearGradient id="C" gradientUnits="userSpaceOnUse"><stop offset="0" stop-color="#6c60ec"/><stop offset=".2" stop-color="#695de7"/><stop offset=".42" stop-color="#6156da"/><stop offset=".64" stop-color="#544ac4"/><stop offset=".88" stop-color="#4139a5"/><stop offset="1" stop-color="#352e92"/></linearGradient><linearGradient id="D" x1="910.778" x2="910.778" xlink:href="#C" y1="313.95" y2="465.48"/><linearGradient id="E" x1="916.11" x2="916.11" xlink:href="#C" y1="313.95" y2="465.48"/><linearGradient id="F" x1="327.652" x2="378.482" xlink:href="#A" y1="313.069" y2="450.429"/><linearGradient id="G" gradientUnits="userSpaceOnUse"><stop offset="0" stop-color="#2b205b"/><stop offset=".05" stop-color="#2c215f"/><stop offset=".81" stop-color="#352e92"/></linearGradient><linearGradient id="H" x1="417.196" x2="469.656" xlink:href="#G" y1="315.892" y2="456.492"/><linearGradient id="I" x1="397.934" x2="397.934" xlink:href="#C" y1="313.95" y2="465.48"/><linearGradient id="J" x1="486.669" x2="486.669" xlink:href="#C" y1="313.95" y2="465.48"/><linearGradient id="K" x1="236.567" x2="295.717" xlink:href="#G" y1="312.861" y2="454.491"/><linearGradient id="L" x1="214.099" x2="214.099" xlink:href="#C" y1="313.95" y2="465.48"/><linearGradient id="M" x1="239.87" x2="239.87" xlink:href="#C" y1="313.95" y2="465.48"/><linearGradient id="N" x1="596.356" x2="654.646" xlink:href="#G" y1="313.202" y2="451.852"/><linearGradient id="O" x1="573.927" x2="573.927" xlink:href="#C" y1="313.95" y2="465.48"/><linearGradient id="P" x1="599.71" x2="599.71" xlink:href="#C" y1="313.95" y2="465.48"/><linearGradient id="Q" x1="737.038" x2="810.658" xlink:href="#G" y1="366.462" y2="449.902"/><linearGradient id="R" x1="719.56" x2="719.56" xlink:href="#C" y1="313.95" y2="465.48"/><linearGradient id="S" x1="760.257" x2="760.257" xlink:href="#C" y1="313.95" y2="465.48"/><path d="M873.1 454c-5.8 0-10.6-4.7-10.6-10.6V323.3c0-5.8 4.7-10.6 10.6-10.6 5.8 0 10.6 4.7 10.6 10.6v120.2c0 5.8-4.8 10.5-10.6 10.5z" fill="url(#B)"/><path d="m948.4 393.9h-75.3c-5.8 0-10.6-4.7-10.6-10.6 0-5.8 4.7-10.5 10.6-10.6h75.3c5.8 0 10.6 4.7 10.6 10.6s-4.7 10.6-10.6 10.6z" fill="url(#D)"/><g fill="url(#E)"><use xlink:href="#U"/><use xlink:href="#U" y="120.3"/></g><path d="m375.8 453.9c-4.4 0-8.4-2.8-9.9-6.9l-44.3-120.2c-1.9-5.5 1-11.5 6.5-13.4 5.4-1.9 11.2.8 13.3 6.1l44.4 120.2c2 5.5-.8 11.5-6.2 13.6-1.3.4-2.6.6-3.8.6z" fill="url(#F)"/><path d="m464.5 453.9c-4.4 0-8.4-2.7-9.9-6.9l-44.4-120.2c-1.9-5.5 1-11.5 6.5-13.4 5.4-1.9 11.2.8 13.3 6.1l44.4 120.2c2 5.5-.8 11.6-6.3 13.6-1.1.4-2.4.6-3.6.6z" fill="url(#H)"/><path d="m375.8 453.9c-1.2 0-2.5-.2-3.7-.7-5.5-2-8.3-8.1-6.2-13.6l44.4-120.2c2.1-5.4 8.3-8.1 13.7-6 5.3 2.1 8 7.9 6.1 13.3l-44.4 120.3c-1.5 4.1-5.5 6.9-9.9 6.9z" fill="url(#I)"/><path d="m464.5 453.9c-1.2 0-2.5-.2-3.7-.7-5.5-2-8.3-8.1-6.2-13.6l44.4-120.1c2.1-5.4 8.3-8.1 13.7-6 5.3 2.1 8 7.9 6.1 13.3l-44.4 120.2c-1.5 4.1-5.5 6.9-9.9 6.9z" fill="url(#J)"/><path d="m291.9 453.9c-4.2 0-8-2.5-9.7-6.4l-51.8-120.2c-2.3-5.4.2-11.6 5.5-13.9 5.4-2.3 11.6.2 13.9 5.5l51.8 120.2c2.3 5.4-.2 11.6-5.5 13.9-1.4.6-2.8.9-4.2.9z" fill="url(#K)"/><path d="m188.2 453.9c-5.8 0-10.6-4.8-10.6-10.6 0-1.4.3-2.8.9-4.1l51.8-120.2c2.3-5.4 8.5-7.8 13.9-5.5s7.8 8.5 5.5 13.9l-51.8 120.1c-1.7 3.9-5.5 6.4-9.7 6.4z" fill="url(#L)"/><path d="m275.9 417.7h-72.1c-5.8 0-10.6-4.7-10.6-10.6s4.7-10.6 10.6-10.6h72.1c5.8 0 10.6 4.7 10.6 10.6s-4.7 10.6-10.6 10.6z" fill="url(#M)"/><path d="m651.7 453.9c-4.2 0-8-2.5-9.7-6.4l-51.8-120.2c-2.2-5.4.4-11.6 5.8-13.8 5.3-2.2 11.3.2 13.6 5.4l51.8 120.2c2.3 5.4-.2 11.6-5.6 13.9-1.3.6-2.7.9-4.1.9z" fill="url(#N)"/><path d="M548 453.9c-5.8 0-10.6-4.8-10.6-10.6 0-1.4.3-2.8.9-4.2L590.1 319c2.3-5.4 8.5-7.8 13.9-5.5s7.8 8.5 5.5 13.9l-51.8 120.1c-1.6 3.9-5.5 6.4-9.7 6.4z" fill="url(#O)"/><path d="m635.8 417.7h-72.1c-5.8 0-10.6-4.7-10.6-10.6 0-5.8 4.7-10.6 10.6-10.6h72.1c5.8 0 10.6 4.7 10.6 10.6-.1 5.8-4.8 10.6-10.6 10.6z" fill="url(#P)"/><path d="M804.5 453.4a10.49 10.49 0 0 1-7.9-3.6l-60.3-68.2a10.49 10.49 0 1 1 15.8-14l60.3 68.2a10.58 10.58 0 0 1-.9 14.9c-2 1.7-4.5 2.6-7 2.7z" fill="url(#Q)"/><path d="M719.6 453.9c-5.8 0-10.6-4.7-10.6-10.5V323.2c0-5.8 4.7-10.6 10.6-10.6 5.8 0 10.6 4.7 10.6 10.6v120.2c-.1 5.7-4.8 10.5-10.6 10.5z" fill="url(#R)"/><path d="m719.6 408c-5.8 0-10.6-4.7-10.6-10.6 0-2.9 1.2-5.7 3.4-7.7l81.5-75.6c4.4-3.9 11-3.5 14.9.9 3.8 4.2 3.5 10.7-.5 14.6l-81.5 75.6c-2 1.8-4.6 2.8-7.2 2.8z" fill="url(#S)"/><defs ><path id="U" d="m873.1 333.9c-5.8 0-10.6-4.7-10.6-10.6 0-5.8 4.7-10.5 10.6-10.6l86-.1c5.8 0 10.6 4.7 10.6 10.6 0 5.8-4.7 10.5-10.6 10.6z"/></defs></svg>