<svg xmlns="http://www.w3.org/2000/svg" viewBox="0 0 1147.36 765.39">
  <defs>
    <style>.cls-1{fill:#352e92;}.cls-2{fill:#6c60ec;}</style>
  </defs>
  <g id="1828d4cc-f19f-4f85-90ff-72abc847eafe">
    <path class="cls-1" d="M873.11,454a10.56,10.56,0,0,1-10.56-10.56V323.3a10.56,10.56,0,1,1,21.12,0V443.46A10.56,10.56,0,0,1,873.11,454Z"/>
    <path class="cls-2" d="M948.43,393.94H873.11a10.56,10.56,0,0,1,0-21.12h75.32a10.56,10.56,0,1,1,0,21.12Z"/>
    <path class="cls-2" d="M873.11,333.86a10.56,10.56,0,0,1,0-21.12l86-.15h0a10.56,10.56,0,0,1,0,21.12l-86.06.15Z"/>
    <path class="cls-2" d="M873.11,454.16a10.56,10.56,0,0,1,0-21.12l86-.14h0a10.56,10.56,0,0,1,0,21.12l-86.06.14Z"/>
    <path class="cls-1" d="M375.8,453.89a10.56,10.56,0,0,1-9.91-6.91L321.54,326.82a10.56,10.56,0,0,1,19.81-7.31L385.7,439.67a10.56,10.56,0,0,1-6.25,13.56A10.67,10.67,0,0,1,375.8,453.89Z"/>
    <path class="cls-1" d="M464.51,453.89A10.56,10.56,0,0,1,454.6,447L410.25,326.82a10.56,10.56,0,0,1,19.81-7.31l44.35,120.16a10.58,10.58,0,0,1-9.9,14.22Z"/>
    <path class="cls-2" d="M375.8,453.89a10.45,10.45,0,0,1-3.66-.66,10.56,10.56,0,0,1-6.25-13.56l44.35-120.16a10.56,10.56,0,0,1,19.81,7.31L385.7,447A10.57,10.57,0,0,1,375.8,453.89Z"/>
    <path class="cls-2" d="M464.51,453.89a10.45,10.45,0,0,1-3.66-.66,10.56,10.56,0,0,1-6.25-13.56L499,319.51a10.56,10.56,0,0,1,19.81,7.31L474.41,447A10.57,10.57,0,0,1,464.51,453.89Z"/>
    <path class="cls-1" d="M291.87,453.89a10.55,10.55,0,0,1-9.7-6.39L230.36,327.34a10.56,10.56,0,0,1,19.4-8.36l51.8,120.16a10.57,10.57,0,0,1-9.69,14.75Z"/>
    <path class="cls-2" d="M188.19,453.89a10.58,10.58,0,0,1-9.7-14.75L230.3,319a10.56,10.56,0,0,1,19.4,8.36L197.89,447.5A10.55,10.55,0,0,1,188.19,453.89Z"/>
    <path class="cls-2" d="M275.93,417.66H203.81a10.56,10.56,0,1,1,0-21.12h72.12a10.56,10.56,0,1,1,0,21.12Z"/>
    <path class="cls-1" d="M651.72,453.89A10.57,10.57,0,0,1,642,447.5l-51.8-120.16A10.56,10.56,0,0,1,609.6,319l51.81,120.16a10.58,10.58,0,0,1-9.69,14.75Z"/>
    <path class="cls-2" d="M548,453.89a10.57,10.57,0,0,1-9.69-14.75L590.14,319a10.56,10.56,0,0,1,19.4,8.36L557.73,447.5A10.55,10.55,0,0,1,548,453.89Z"/>
    <path class="cls-2" d="M635.77,417.66H563.65a10.56,10.56,0,1,1,0-21.12h72.12a10.56,10.56,0,1,1,0,21.12Z"/>
    <path class="cls-1" d="M804.47,453.35a10.56,10.56,0,0,1-7.92-3.57l-60.32-68.17a10.56,10.56,0,0,1,15.82-14l60.32,68.17a10.57,10.57,0,0,1-7.9,17.56Z"/>
    <path class="cls-2" d="M719.57,453.88A10.56,10.56,0,0,1,709,443.32V323.16a10.56,10.56,0,1,1,21.12,0V443.32A10.56,10.56,0,0,1,719.57,453.88Z"/>
    <path class="cls-2" d="M719.57,408a10.56,10.56,0,0,1-7.18-18.3l81.54-75.61a10.56,10.56,0,0,1,14.36,15.48l-81.54,75.61A10.52,10.52,0,0,1,719.57,408Z"/>
  </g>
</svg>
