<svg xmlns="http://www.w3.org/2000/svg" width="149" height="100" viewBox="0 0 349 136" clip-path="url(#clip-AI_Logo-_349_by_349)" xmlns:v="https://vecta.io/nano"><path fill="#fff" d="M0 0h349v136H0z"/><g fill="none" stroke="#007bc0"><g stroke-miterlimit="10"><path d="M46.74 108.889S19.68 97.966 11 63.959V39.452s34.719-22.567 71.582 0v23.384S79.11 91.734 46.74 108.889z" stroke-width="3"/><path d="M12.273 42.466h5.752"/><path d="M12.273 47.612h6.7l5.449-5.712m-12.149 8.28h9.869l3.35-3.754h9.768m-22.987 6.151H26.34"/><path stroke-width="1.5" d="M12.273 55.907h5.853"/><path d="M12.031 58.642h1.978l3.774 4.541H31.77l4-4.541m-8.925.075l4.763-5.439h10.979m-29.95 12.115H44.16l7.548-6.8h14.251"/><path d="M13.543 68.619h22.224l7.651-6.9h14.17m-43.183 9.783h33.67m-32.129 3.147h15.787l4.023 4.235m-8.74.516l4.581 5.1h10.578m-21.28-.908h4.186m-2.344 3.426h10.727m-9.243 2.82H40.31l3.546 3.688 9.889.1m-27.758-1.809h11.525l5.222 5.51m-11.951-1.295h5.651"/></g><circle cx="19.042" cy="42.505" r="1.238"/><circle cx="25.385" cy="41.344" r="1.238"/><circle cx="36.499" cy="46.517" r="1.238"/><circle cx="27.579" cy="52.752" r="1.238"/><circle cx="19.218" cy="56.082" r="1.238" stroke-width="1.5"/><circle cx="26.3" cy="59.541" r="1.238"/><circle cx="36.652" cy="58.135" r="1.238"/><circle cx="67.197" cy="58.766" r="1.238"/><circle cx="58.825" cy="61.895" r="1.238"/><circle cx="49.313" cy="71.677" r="1.238"/><circle cx="36.582" cy="79.845" r="1.238"/><circle cx="26.57" cy="78.691" r="1.238"/><circle cx="26.319" cy="83.767" r="1.238"/><circle cx="34.771" cy="87.106" r="1.238"/><circle cx="43.682" cy="84.676" r="1.238"/><circle cx="54.98" cy="93.8" r="1.238"/><circle cx="43.682" cy="98.302" r="1.238"/><circle cx="37.672" cy="96.279" r="1.238"/><circle cx="43.716" cy="53.453" r="1.238"/></g><text transform="translate(101.502 77)" fill="#007bc0" font-size="56" font-family="BoschSans-Black, Bosch Sans" font-weight="800"><tspan x="0" y="0">AI</tspan><tspan font-family="BoschSans-Bold, Bosch Sans" font-weight="700" fill="#000" y="0">Shield</tspan></text><text font-size="21" font-family="BoschSans-Regular, Bosch Sans"><tspan x="101.502" y="108.656">Powered by Bosch</tspan></text></svg>