<svg width="154" height="32" viewBox="0 0 154 32" fill="none" xmlns="http://www.w3.org/2000/svg">
<g clip-path="url(#clip0_3357_3353)">
<path d="M23.2198 19.1018L12.0635 17.246L0.0531441 15.2576V18.0281C0.0501651 18.2769 0.137509 18.5184 0.299288 18.7083C0.461067 18.8982 0.686477 19.0239 0.933952 19.0621L12.1303 20.9577L19.9638 22.2833C20.1091 22.315 20.2399 22.393 20.3363 22.5055C20.4327 22.618 20.4892 22.7588 20.4974 22.9063V24.7886C20.4949 24.9192 20.4527 25.046 20.3766 25.1524C20.3004 25.2588 20.1938 25.3399 20.0705 25.3852L12.3838 28.0364C12.3004 28.0556 12.2137 28.0556 12.1303 28.0364C12.0335 28.0568 11.9334 28.0568 11.8366 28.0364L4.1234 25.3852C3.99906 25.3415 3.89129 25.2608 3.81486 25.154C3.73843 25.0473 3.69697 24.9196 3.69627 24.7886V22.0182L0.0264282 21.4084V26.8168C0.0289648 27.0308 0.096594 27.239 0.220444 27.4141C0.344294 27.5892 0.518596 27.7229 0.720388 27.7978L11.77 31.9602C11.8765 32.0013 11.9894 32.0237 12.1036 32.0264C12.2049 32.0233 12.3045 32.0008 12.3972 31.9602L23.4468 27.7978C23.6486 27.7229 23.8229 27.5892 23.9467 27.4141C24.0706 27.239 24.1382 27.0308 24.1407 26.8168V20.1888C24.1362 19.9302 24.0421 19.6809 23.8744 19.483C23.7067 19.2851 23.4756 19.1505 23.2198 19.1018Z" fill="url(#paint0_linear_3357_3353)"/>
<path d="M0.880644 12.9377L12.0637 14.7936L24.0741 16.782V14.0115C24.0743 13.76 23.9845 13.5165 23.8208 13.3247C23.657 13.1329 23.4297 13.0051 23.1799 12.9643L12.0236 11.0819L4.19015 9.75634C4.04486 9.7247 3.91399 9.6466 3.81759 9.53409C3.72119 9.42157 3.66454 9.28079 3.65632 9.13327V7.23767C3.65973 7.10894 3.70241 6.98428 3.77866 6.88014C3.85491 6.776 3.96121 6.69728 4.08345 6.6544L11.73 4.0032C11.8275 3.99072 11.9261 3.99072 12.0236 4.0032C12.121 3.98942 12.2199 3.98942 12.3173 4.0032L20.0305 6.6544C20.1538 6.69563 20.2612 6.77394 20.3378 6.87844C20.4143 6.98294 20.4561 7.10846 20.4577 7.23767V10.0082L24.1275 10.6312V5.183C24.126 4.97041 24.0585 4.76343 23.9343 4.59027C23.8101 4.41711 23.6353 4.2862 23.4335 4.21534L12.3173 0.0396672C12.2203 0.0213829 12.1206 0.0213829 12.0236 0.0396672C11.9268 0.0196552 11.8269 0.0196552 11.73 0.0396672L0.66708 4.21534C0.466702 4.28674 0.293615 4.41814 0.171697 4.59148C0.049779 4.76483 -0.0149644 4.97155 -0.0135219 5.183V11.811C-0.0368646 12.0766 0.0427027 12.341 0.208839 12.5503C0.374974 12.7597 0.61523 12.8983 0.880644 12.9377Z" fill="url(#paint1_linear_3357_3353)"/>
<g style="mix-blend-mode:multiply" opacity="0.15">
<path style="mix-blend-mode:multiply" opacity="0.15" d="M23.2195 19.1017L12.0899 17.2458V20.9576L19.9233 22.2832C20.0686 22.3148 20.1995 22.3929 20.2959 22.5054C20.3923 22.6179 20.449 22.7587 20.4572 22.9062V24.7885C20.4546 24.9191 20.4125 25.0459 20.3363 25.1523C20.2601 25.2587 20.1533 25.3398 20.03 25.3851L12.3434 28.0363C12.26 28.0555 12.1733 28.0555 12.0899 28.0363V32.0131C12.1911 32.0099 12.2908 31.9874 12.3835 31.9468L23.4331 27.7844C23.6348 27.7095 23.8092 27.5758 23.933 27.4007C24.0569 27.2256 24.1245 27.0174 24.127 26.8035V20.1755C24.1201 19.921 24.0266 19.6763 23.8618 19.4813C23.697 19.2864 23.4706 19.1525 23.2195 19.1017Z" fill="url(#paint2_linear_3357_3353)"/>
<path style="mix-blend-mode:multiply" opacity="0.15" d="M24.1137 14.0115C24.1139 13.76 24.024 13.5165 23.8602 13.3247C23.6964 13.1329 23.4693 13.0051 23.2195 12.9642L12.0899 11.0819V14.7936L24.1003 16.782L24.1137 14.0115Z" fill="url(#paint3_linear_3357_3353)"/>
<path style="mix-blend-mode:multiply" opacity="0.15" d="M23.4464 4.24176L12.33 0.0661621H12.0899V4.04296C12.1784 4.03046 12.2682 4.03046 12.3567 4.04296L20.0701 6.69417C20.1934 6.7354 20.3007 6.8137 20.3772 6.9182C20.4537 7.0227 20.4956 7.14823 20.4971 7.27743V10.0479L24.1669 10.671V5.22277C24.1663 5.00466 24.0963 4.79231 23.9669 4.61612C23.8375 4.43993 23.6553 4.30887 23.4464 4.24176Z" fill="url(#paint4_linear_3357_3353)"/>
</g>
<path d="M41.7427 23.1715C46.24 23.1715 48.2016 21.7796 48.2016 19.0753C48.2016 16.623 46.8672 15.483 43.6111 14.9926L40.6619 14.5418C38.5934 14.2104 38.0996 13.8923 38.0996 13.2162C38.0996 12.5402 38.8202 11.9701 41.1822 11.9701C43.2907 11.9701 44.0781 12.3678 44.3716 12.8185C44.4701 13.0901 44.5111 13.379 44.4919 13.667H47.6813C47.6955 13.1279 47.6187 12.5902 47.4544 12.0762C46.8272 10.2734 44.9588 9.26595 41.0221 9.26595C36.8585 9.26595 34.8168 10.8036 34.8168 13.0439C34.8168 15.5227 36.1513 16.7954 39.1138 17.2196L41.8762 17.6438C44.038 17.9752 44.9188 18.227 44.9188 19.1417C44.9188 20.0564 44.1049 20.6131 41.6761 20.6131C39.2473 20.6131 38.1663 20.3877 37.9395 19.6322C37.8601 19.3701 37.8241 19.097 37.8328 18.8235H34.5899C34.5902 19.2686 34.6348 19.7127 34.7233 20.1491C35.2838 22.2966 37.379 23.1715 41.7427 23.1715ZM57.3296 23.1715C59.0467 23.2698 60.7522 22.8392 62.2138 21.9387C63.3508 21.1765 64.149 20.0087 64.4424 18.6777H61.2262C61.1526 18.9666 61.015 19.2356 60.8234 19.4649C60.6318 19.6943 60.391 19.8782 60.1187 20.0033C59.2508 20.4234 58.2949 20.6325 57.3296 20.6131C56.1335 20.6807 54.9571 20.2865 54.0467 19.5128C53.7645 19.2475 53.538 18.9294 53.3799 18.5768C53.2219 18.2242 53.1356 17.844 53.126 17.4581H64.5758C64.808 15.5366 64.3802 13.5934 63.3616 11.9436C62.6455 11.0414 61.7173 10.3278 60.6585 9.86556C59.5998 9.40327 58.4429 9.20645 57.2896 9.2924C56.1155 9.22361 54.9421 9.43714 53.8688 9.91483C52.7955 10.3925 51.854 11.1203 51.1242 12.0364C50.2298 13.2399 49.7606 14.7032 49.7898 16.1988C49.714 17.7152 50.1406 19.2145 51.0042 20.4673C52.3387 22.3364 54.6073 23.1449 57.3296 23.1449V23.1715ZM61.3331 14.9527H53.126C53.1956 14.2026 53.5484 13.5065 54.1135 13.0042C55.0266 12.2656 56.1798 11.8838 57.3564 11.9304C58.5309 11.8732 59.6824 12.2671 60.5724 13.0306C60.8118 13.2911 60.9966 13.5965 61.1158 13.9289C61.235 14.2612 61.2861 14.6138 61.2663 14.966L61.3331 14.9527ZM69.9939 22.9063V14.9527C70.0123 14.5769 70.1067 14.2086 70.2717 13.8699C70.4367 13.5311 70.6687 13.2289 70.9541 12.9814C71.2394 12.7339 71.5722 12.5461 71.9323 12.4293C72.2924 12.3125 72.6724 12.269 73.0498 12.3015C74.7446 12.3015 75.7188 13.2162 75.7188 14.6479V22.9196H78.8683V14.8467C78.8662 14.4738 78.9433 14.1047 79.0946 13.7635C79.2459 13.4222 79.468 13.1165 79.7464 12.8663C80.0247 12.6161 80.353 12.427 80.7099 12.3114C81.0668 12.1958 81.4442 12.1563 81.8175 12.1955C84.0861 12.1955 84.5798 13.4018 84.5798 14.7407V15.8409C84.4929 18.1878 84.5376 20.5378 84.7134 22.8798H87.7026C87.5959 22.7473 87.569 19.1681 87.569 13.6006C87.569 11.0555 86.3547 9.23941 82.9384 9.23941C80.7098 9.23941 78.9349 10.0481 78.4412 11.6785C78.1084 10.872 77.518 10.1964 76.7609 9.75568C76.0038 9.31499 75.1219 9.1336 74.2509 9.23941C73.3586 9.16179 72.4634 9.34981 71.6791 9.77947C70.8949 10.2091 70.2571 10.861 69.8472 11.652V9.49128H66.6043V22.9196L69.9939 22.9063ZM93.0938 27.082V21.0903C93.7114 21.7694 94.4818 22.2939 95.3422 22.6211C96.2026 22.9482 97.1287 23.0686 98.0449 22.9726C102.048 22.9726 104.477 20.5336 104.477 15.9735C104.477 11.4134 101.982 9.18641 98.0715 9.18641C95.7094 9.18641 93.7477 10.1276 93.0938 11.5062L92.9871 9.47801H89.771V27.082H93.0938ZM97.0973 20.2684C94.4283 20.2684 93.0938 18.8633 93.0938 16.1988C93.025 15.6555 93.0804 15.1039 93.2556 14.5847C93.4308 14.0655 93.7215 13.5923 94.1061 13.2C94.4907 12.8078 94.9594 12.5066 95.4773 12.3189C95.9951 12.1313 96.5488 12.0619 97.0973 12.1159C100.113 12.1159 101.101 13.7465 101.101 16.1988C101.101 18.6512 99.9799 20.2684 96.9906 20.2684H97.0973ZM113.472 23.1052C115.189 23.2035 116.894 22.773 118.356 21.8724C119.498 21.1127 120.301 19.9446 120.598 18.6114H117.342C117.268 18.9003 117.13 19.1693 116.939 19.3987C116.747 19.628 116.506 19.8119 116.234 19.937C115.366 20.3572 114.41 20.5662 113.445 20.5468C112.248 20.6187 111.07 20.2239 110.162 19.4466C109.877 19.1831 109.649 18.8653 109.491 18.5123C109.333 18.1593 109.248 17.7782 109.241 17.3919H120.718C120.964 15.4697 120.535 13.5219 119.503 11.8773C118.789 10.9762 117.864 10.2632 116.807 9.80091C115.751 9.33862 114.596 9.14124 113.445 9.22614C112.269 9.1563 111.093 9.36926 110.017 9.84695C108.942 10.3246 107.998 11.053 107.266 11.9701C106.372 13.1736 105.903 14.6369 105.932 16.1325C105.85 17.6496 106.277 19.1508 107.146 20.4009C108.414 22.3363 110.642 23.1449 113.365 23.1449L113.472 23.1052ZM117.475 14.8865H109.268C109.331 14.1345 109.685 13.436 110.255 12.9378C111.168 12.1993 112.322 11.8175 113.498 11.8641C114.673 11.8068 115.824 12.2008 116.714 12.9643C116.95 13.2381 117.128 13.5569 117.236 13.901C117.343 14.2452 117.379 14.6075 117.342 14.966L117.475 14.8865ZM126.136 22.8401V16.2916C126.099 15.779 126.173 15.2646 126.351 14.7823C126.53 14.2999 126.809 13.8607 127.171 13.4936C127.533 13.1265 127.969 12.8399 128.451 12.6527C128.933 12.4655 129.449 12.382 129.966 12.4076C131.023 12.3741 132.079 12.5175 133.089 12.8318V9.54427C132.28 9.35578 131.45 9.2668 130.62 9.27921C128.525 9.27921 126.429 10.4192 126.069 11.9304V9.65034H122.813V22.9196L126.136 22.8401ZM138.627 7.88727V4.62634H135.01V7.88727H138.627ZM147.661 23.0654C152.158 23.0654 154.12 21.6736 154.12 18.9694C154.12 16.517 152.786 15.377 149.529 14.8865L146.58 14.4357C144.512 14.1043 144.018 13.7862 144.018 13.1101C144.018 12.4341 144.739 11.8641 147.101 11.8641C149.196 11.8641 149.983 12.2618 150.277 12.7125C150.386 12.9814 150.432 13.2717 150.41 13.5609H153.6C153.609 13.0211 153.528 12.4835 153.359 11.9701C152.746 10.1673 150.877 9.15987 146.94 9.15987C142.763 9.15987 140.735 10.6975 140.735 12.9378C140.735 15.4167 142.07 16.6893 145.032 17.1135L147.795 17.5377C149.956 17.8691 150.837 18.121 150.837 19.0356C150.837 19.9503 150.023 20.507 147.594 20.507C145.166 20.507 144.085 20.2817 143.844 19.5261C143.775 19.2623 143.744 18.9901 143.751 18.7175H140.348C140.348 19.1626 140.393 19.6067 140.482 20.0431C141.095 22.2966 143.164 23.1715 147.528 23.1715L147.661 23.0654ZM138.627 22.8401V9.51781H135.01V22.9196L138.627 22.8401Z" fill="white"/>
</g>
<defs>
<linearGradient id="paint0_linear_3357_3353" x1="-0.0136066" y1="23.6354" x2="24.114" y2="23.6354" gradientUnits="userSpaceOnUse">
<stop stop-color="#EE4036"/>
<stop offset="0.19" stop-color="#EE3C3C"/>
<stop offset="0.43" stop-color="#ED2F4C"/>
<stop offset="0.71" stop-color="#EC1B67"/>
<stop offset="1" stop-color="#EB008B"/>
</linearGradient>
<linearGradient id="paint1_linear_3357_3353" x1="25082.5" y1="-42522.9" x2="25518.6" y2="-42522.9" gradientUnits="userSpaceOnUse">
<stop stop-color="#EE4036"/>
<stop offset="0.19" stop-color="#EE3C3C"/>
<stop offset="0.43" stop-color="#ED2F4C"/>
<stop offset="0.71" stop-color="#EC1B67"/>
<stop offset="1" stop-color="#EB008B"/>
</linearGradient>
<linearGradient id="paint2_linear_3357_3353" x1="12.0899" y1="24.6295" x2="24.1404" y2="24.6295" gradientUnits="userSpaceOnUse">
<stop/>
<stop offset="1" stop-color="white"/>
</linearGradient>
<linearGradient id="paint3_linear_3357_3353" x1="12611.7" y1="4281.69" x2="12720" y2="4281.69" gradientUnits="userSpaceOnUse">
<stop/>
<stop offset="1" stop-color="white"/>
</linearGradient>
<linearGradient id="paint4_linear_3357_3353" x1="12667.5" y1="7876.57" x2="12776.5" y2="7876.57" gradientUnits="userSpaceOnUse">
<stop/>
<stop offset="1" stop-color="white"/>
</linearGradient>
<clipPath id="clip0_3357_3353">
<rect width="154" height="32" fill="white"/>
</clipPath>
</defs>
</svg>
