<!-- Generated by IcoMoon.io -->
<svg version="1.1" xmlns="http://www.w3.org/2000/svg" width="100%" height="100%" viewBox="0 0 32 32">
<path fill="#e4002b" d="M13.545 31.814c-1.659-0.254-4.25-1.202-5.79-2.116-1.507-0.897-3.962-3.183-4.859-4.521-0.965-1.439-1.879-3.454-2.337-5.147-0.372-1.405-0.44-2.032-0.44-4.030s0.068-2.624 0.44-3.996c1.219-4.673 4.267-8.33 8.618-10.396 2.337-1.101 4.131-1.49 6.823-1.49 4.588 0 8.245 1.524 11.429 4.775 8.669 8.889 4.301 23.771-7.822 26.684-1.355 0.322-4.622 0.457-6.061 0.237z"></path>
<path fill="#e4002b" d="M28.377 30.205c-0.914-0.914-0.085-2.506 1.151-2.201 0.22 0.051 0.542 0.22 0.677 0.372 0.372 0.372 0.356 1.473-0.034 1.812-0.389 0.356-1.456 0.372-1.795 0.017zM29.68 30.019c-0.119-0.034-0.22-0.186-0.22-0.322s-0.068-0.237-0.169-0.237c-0.085 0-0.169 0.102-0.169 0.237s-0.102 0.288-0.203 0.322c-0.119 0.051 0.051 0.085 0.372 0.085s0.491-0.034 0.389-0.085zM28.614 29.257c-0.017-0.44-0.051-0.508-0.169-0.271-0.102 0.152-0.119 0.389-0.068 0.542 0.152 0.423 0.237 0.322 0.237-0.271zM30.138 29.308c0-0.525-0.525-1.050-1.016-1.016-0.135 0-0.051 0.085 0.22 0.186 0.474 0.169 0.525 0.271 0.457 0.948-0.017 0.203 0.051 0.372 0.152 0.372s0.186-0.22 0.186-0.491z"></path>
<path fill="#f7afbc" d="M12.614 27.479c-1.879-0.085-5.232-0.406-6.942-0.66-1.473-0.22-1.744-0.305-2.066-0.711-0.474-0.576-0.474-0.711 0-0.711 0.847 0 0.863-0.102 0.66-2.912-0.119-1.422-0.203-3.945-0.203-5.621v-3.031l-1.101 0.085-1.101 0.102v-0.83c0-0.44 0.085-0.864 0.186-0.914 0.102-0.068 0.61-0.152 1.151-0.203l0.982-0.102 0.085-1.151c0.169-2.37 1.642-4.182 4.453-5.503 1.812-0.847 3.505-1.253 5.215-1.253 1.304 0 1.727 0.186 3.251 1.422l0.508 0.406-0.525 0.66c-0.288 0.356-0.66 0.677-0.83 0.694-0.169 0.034-0.88-0.203-1.608-0.542-0.711-0.339-1.727-0.711-2.235-0.813-0.83-0.169-0.999-0.169-1.388 0.102-0.66 0.423-0.779 0.914-0.897 3.454l-0.102 2.269 2.692-0.051 2.692-0.068 0.051 0.61c0.051 0.593 0.034 0.61-0.982 1.050-0.914 0.406-1.27 0.457-2.828 0.457h-1.795l0.119 5.299c0.085 2.895 0.186 5.587 0.237 5.96 0.152 0.83 0.762 1.185 2.337 1.355l1.084 0.119v0.576c0 0.322-0.017 0.559-0.034 0.542-0.034-0.017-0.508-0.051-1.067-0.085z"></path>
<path fill="#f7afbc" d="M18.116 27.429c-2.032-0.356-2.184-0.44-2.692-1.575-0.254-0.576-0.576-1.338-0.711-1.693l-0.22-0.626 0.914-0.931c0.508-0.508 0.999-0.931 1.101-0.931s0.593 0.66 1.101 1.473c1.744 2.76 2.32 3.183 4.487 3.183 1.592 0 2.438-0.372 3.285-1.388 0.982-1.185 1.050-2.489 0.237-3.911-0.982-1.71-4.334-3.031-8.889-3.505-0.643-0.068-1.151-0.169-1.151-0.237 0-0.051 0.897-2.811 2.015-6.112l1.998-6.011 1.761 0.017c0.982 0.017 2.641 0.169 3.708 0.322 1.067 0.169 2.286 0.356 2.692 0.406 0.525 0.068 0.83 0.22 1.067 0.525 0.288 0.406 0.288 0.508 0.085 1.659-0.135 0.677-0.288 1.27-0.339 1.321s-0.914 0.017-1.93-0.102c-0.999-0.119-2.844-0.22-4.097-0.237l-2.269-0.017-0.372 1.117-0.389 1.134 1.219 0.119c5.706 0.542 9.143 2.929 9.752 6.739 0.423 2.692-0.677 5.57-2.76 7.23-1.050 0.847-2.59 1.608-3.928 1.947-1.067 0.271-4.284 0.322-5.672 0.085z"></path>
<path fill="#fff" d="M17.981 27.327c-0.779-0.135-1.558-0.322-1.761-0.423-0.186-0.102-0.593-0.728-0.897-1.388-0.914-2.032-0.914-1.896 0.102-2.929 0.491-0.508 0.948-0.914 1.016-0.914 0.051 0 0.576 0.711 1.151 1.575 1.727 2.624 2.506 3.166 4.555 3.166 3.589 0 5.401-3.589 3.031-6.061-0.66-0.694-2.353-1.575-3.928-2.049-1.439-0.423-3.928-0.863-4.927-0.863h-0.711l2.032-6.129c1.117-3.386 2.066-6.18 2.099-6.214 0.119-0.119 4.521 0.339 6.722 0.694 2.709 0.457 2.743 0.474 2.353 2.387l-0.254 1.304-0.525-0.085c-0.931-0.152-4.368-0.406-6.095-0.457l-1.676-0.051-0.389 1.168c-0.22 0.643-0.372 1.202-0.339 1.236 0.017 0.034 0.728 0.135 1.558 0.237 6.163 0.762 9.38 3.42 9.38 7.755 0 2.286-0.694 3.945-2.269 5.537-2.387 2.387-5.875 3.234-10.226 2.506z"></path>
<path fill="#fff" d="M9.82 27.242c-0.796-0.068-2.438-0.254-3.674-0.423-2.083-0.271-2.252-0.322-2.574-0.762l-0.356-0.474 0.542-0.152 0.559-0.135-0.017-1.439c0-0.779-0.068-3.352-0.152-5.689l-0.135-4.284h-2.201l0.119-0.626c0.051-0.356 0.102-0.745 0.102-0.847 0-0.119 0.203-0.22 0.474-0.22 0.254 0 0.728-0.051 1.067-0.102l0.626-0.102 0.102-1.134c0.152-1.473 0.694-2.641 1.744-3.674 1.558-1.524 3.674-2.523 6.366-2.946 1.981-0.322 2.794-0.169 4.064 0.779 0.576 0.44 1.084 0.83 1.117 0.847 0.102 0.085-1.084 1.422-1.27 1.422-0.102 0-0.864-0.305-1.693-0.694-0.864-0.406-1.862-0.728-2.387-0.779-0.813-0.085-0.914-0.051-1.371 0.406-0.559 0.559-0.677 1.117-0.745 3.911l-0.051 1.558h5.333v0.559c0 0.491-0.085 0.593-0.796 0.948-0.643 0.305-1.202 0.406-2.743 0.474l-1.93 0.102 0.102 5.604c0.068 3.081 0.169 5.774 0.22 5.994 0.152 0.542 0.931 0.88 2.286 0.999 1.151 0.102 1.168 0.102 1.168 0.576v0.491l-1.219-0.017c-0.677-0.017-1.879-0.085-2.675-0.169z"></path>
</svg>
