<svg id="a949bbb6-6d51-4e9b-b73e-d1f2070c8dbd" xmlns="http://www.w3.org/2000/svg" viewBox="0 0 73 73.04"><path id="a201a3aa-59b7-4110-92df-cba76dad51ef" d="M49.16,32h0a.57.57,0,0,0-.63.63h0a2.61,2.61,0,0,0-1.72-.71,1.71,1.71,0,0,0-1.89,2v5.58a1.75,1.75,0,0,0,1.89,1.94,2.74,2.74,0,0,0,1.7-.71v2.66c0,.55-.26.79-.81.79H47c-.59,0-.85-.24-.85-.77v-.08c0-.24-.1-.53-.59-.53h-.06a.52.52,0,0,0-.59.57v.08c0,1.28.69,1.93,2,1.93h.65a1.91,1.91,0,0,0,2.17-2.11V32.61C49.81,32.19,49.59,32,49.16,32Zm-.65,7.41a2.33,2.33,0,0,1-1.5.73.72.72,0,0,1-.81-.82V34c0-.59.24-.85.79-.85a2.25,2.25,0,0,1,1.52.83Zm-6.39,3a.58.58,0,0,0,.65-.65V32.67a.57.57,0,0,0-.65-.64h0a.58.58,0,0,0-.65.64v9.07a.59.59,0,0,0,.65.65Zm0-13.37h0a.62.62,0,0,0-.67.67v.45a.62.62,0,0,0,.67.67h0a.61.61,0,0,0,.67-.67v-.45A.61.61,0,0,0,42.12,29ZM38.39,42.39a.58.58,0,0,0,.65-.65V29.43a.58.58,0,0,0-.65-.65h0a.58.58,0,0,0-.65.65V41.74a.59.59,0,0,0,.65.65Zm-3.34-4.63a.66.66,0,0,0,.73-.73V34.28A2.06,2.06,0,0,0,33.46,32H33.2a2.05,2.05,0,0,0-2.31,2.32v5.88a2,2,0,0,0,2.31,2.31h.26a2.05,2.05,0,0,0,2.32-2.31v-.67a.57.57,0,0,0-.63-.63h0a.57.57,0,0,0-.63.63v.71c0,.69-.33,1-1,1h-.22c-.69,0-1-.32-1-1V37.76Zm-2.8-3.52a.89.89,0,0,1,1-1h.2c.69,0,1,.33,1,1v2.25H32.23V34.24Zm-4.83-2.19h0a.56.56,0,0,0-.63.6v9.11a.58.58,0,0,0,.63.65h0a.58.58,0,0,0,.65-.65V34.15a3.18,3.18,0,0,1,1.16-.67c.56-.16.69-.5.69-.77v-.12a.57.57,0,0,0-.59-.65c-.39,0-.79.29-1.24.86v-.19A.59.59,0,0,0,27.42,32.05ZM22.68,32h-.39A2.05,2.05,0,0,0,20,34.28v5.88a2,2,0,0,0,2.31,2.31h.39A2,2,0,0,0,25,40.16V34.28A2,2,0,0,0,22.68,32Zm1,8.24a.86.86,0,0,1-1,1h-.37a.86.86,0,0,1-1-1v-6c0-.69.32-1,1-1h.37c.69,0,1,.33,1,1Zm-6-4.2h0a.58.58,0,0,0,.65-.65V34.24A2,2,0,0,0,16.05,32h-.33a2.05,2.05,0,0,0-2.31,2.32v5.88a2,2,0,0,0,2.31,2.31h.33a2,2,0,0,0,2.29-2.31V38.74a.58.58,0,0,0-.65-.63h0a.57.57,0,0,0-.63.63V40.2a.86.86,0,0,1-1,1h-.29a.86.86,0,0,1-1-1v-6c0-.69.32-1,1-1H16c.69,0,1,.33,1,1v1.11A.57.57,0,0,0,17.63,36Zm37.19-4a2.66,2.66,0,0,0-1.75.75V29.45a.58.58,0,0,0-.65-.65h0a.57.57,0,0,0-.62.65V41.76a.57.57,0,0,0,.62.65h0a.58.58,0,0,0,.65-.65V34a2.5,2.5,0,0,1,1.52-.77c.51,0,.75.26.75.81v7.75a.59.59,0,0,0,.65.65h0a.58.58,0,0,0,.63-.65V33.81A1.66,1.66,0,0,0,54.82,32Zm4.76,10.43h0a.59.59,0,0,1-.65-.65V33.3h-.16a.56.56,0,0,1-.61-.61v0a.54.54,0,0,1,.61-.58h.18V31a.59.59,0,0,1,.65-.65h0a.58.58,0,0,1,.65.65v1.08h.63a.52.52,0,0,1,.59.58v0a.54.54,0,0,1-.59.61h-.63v8.44A.6.6,0,0,1,59.58,42.39Z" transform="translate(-1 -0.98)"/><path id="f6598a2b-3c00-4d19-b9dc-59da3af4d8b7" d="M66.07,38.84a28.67,28.67,0,0,1-56.7,4.5,30,30,0,0,1-.56-5.72A28.68,28.68,0,0,1,37.48,8.93V1A36.52,36.52,0,1,0,74,38.84Z" transform="translate(-1 -0.98)" fill="#00ff17"/></svg>
