<svg xmlns="http://www.w3.org/2000/svg" viewBox="0 0 1400.73 512.73"><path class="cls-1" d="M318.22,162.19l-9.69-3.41-66.85-23.52c-2.67-.94-3.75.33-2.4,2.81,0,0,.66,1.22,2.38,4.16,10.62,17.37,39.23,55.59,39.23,55.59,1.7,2.26.93,3.26-1.7,2.23l-20.3-6.56a17.06,17.06,0,0,1-8.07-5.37l-8.56-11.69a11.84,11.84,0,0,0-8.12-4.37l-6.36,0a11.89,11.89,0,0,0-8.12,4.38l-8.61,11.76A17.1,17.1,0,0,1,203,193.6L183.18,200c-2.62,1-3.39,0-1.7-2.22,0,0,28.62-38.22,39.24-55.59,1.79-3,2.57-4.48,2.57-4.48,1.35-2.48.28-3.72-2.38-2.75l-65.2,23.73c-2.65,1-7,2.52-9.67,3.46l-6.84,2.4a7.78,7.78,0,0,0-4.85,6.84v89.71a20.14,20.14,0,0,0,2.83,9.43l8.12,12.35a20.14,20.14,0,0,1,2.83,9.43v23.44a14.06,14.06,0,0,0,3.66,8.73l53.27,52.41c2,2,3.44,1.3,3.17-1.51,0,0-3.63-37.45-7-59.9s-14.26-48.83-14.26-48.83a9.93,9.93,0,0,0-7-5.46L171.13,260a7,7,0,0,1-5.67-5.81l-1.6-14.2a3.4,3.4,0,0,1,4.42-3.95l36.81,8.48a5.7,5.7,0,0,1,4.28,6.24L205.31,279a10,10,0,0,0,3.28,8.3l19.53,15.67a6.53,6.53,0,0,0,7.93-.1l18.32-15.47a10.36,10.36,0,0,0,3.2-8.4l-4.06-28.2a5.67,5.67,0,0,1,4.28-6.21L296,236a3.43,3.43,0,0,1,4.43,4l-1.6,14.2a6.8,6.8,0,0,1-5.68,5.7l-12.6,1.45a8.26,8.26,0,0,0-6.46,5.54s-6.38,23.17-11.4,48.37-8.05,60.15-8.05,60.15c-.25,2.82,1.2,3.5,3.21,1.52l53.27-52.41a14.06,14.06,0,0,0,3.66-8.73V292.35a18.58,18.58,0,0,1,3-9.3l9.13-12.61a18.67,18.67,0,0,0,3-9.3V171.43a7.78,7.78,0,0,0-4.85-6.84Z" fill="#33058d" fill-rule="evenodd"/><path class="cls-2" d="M458.89,202.26l52.33,134.06-19.38.67-14-36.48H423.18l-13.41,35.91H391.22l50.51-134.16ZM450,227.71l-21.5,57.61h43.6Z" fill="#33058d"/><path class="cls-2" d="M543.33,336.42H524.39v-98.7h10.66l6.11,15.58A90.68,90.68,0,0,1,557,242.65c6.12-3.29,15.5-4.93,20.11-4.93l.12,15.19q-7.5,0-17,5a77.35,77.35,0,0,0-17,12.14Z" fill="#33058d"/><path class="cls-2" d="M729.83,247.34q7.5,9.78,7.5,26v63.13H718.39V275.06q0-10.24-3.46-15.78t-11.54-5.52c-3.81,0-8.16,1.28-13,3.84a78.62,78.62,0,0,0-14.6,10.16c.13,1.19.2,3,.2,5.53v63.13H657V275.06q0-10.24-3.45-15.78c-2.31-3.68-6.15-5.52-11.55-5.52-4.07,0-8.65,1.41-13.71,4.24A91.3,91.3,0,0,0,613,269v67.47H594.09v-98.7h13.22l3.35,15.64A66.13,66.13,0,0,1,627.73,242,43.37,43.37,0,0,1,646,237.58q9.46,0,16.08,4.14a25.88,25.88,0,0,1,10,11.64A66.13,66.13,0,0,1,689.09,242a43.37,43.37,0,0,1,18.25-4.44Q722.33,237.58,729.83,247.34Z" fill="#33058d"/><path class="cls-2" d="M883.66,336.42H864.72v-98.7h10.65l6.12,15.58a90.3,90.3,0,0,1,15.88-10.65c6.12-3.29,15.5-4.93,20.1-4.93l.12,15.19q-7.5,0-17,5a77.11,77.11,0,0,0-17,12.14Z" fill="#33058d"/><path class="cls-2" d="M1039.32,336.42V200.87l18.94-2.17V336.42Z" fill="#33058d"/><path class="cls-2" d="M1173.52,336.42l34-49.67-34.18-48.26h20.1L1219.51,274l26.17-35.55h20.11l-36.19,48.26,36.78,49.67h-20.91l-25.93-35.6-24.91,35.6Z" fill="#33058d"/><path class="cls-2" d="M810.61,236.3H789.54c-9.62,0-17.33,2.79-22.92,8.31s-8.43,13.27-8.43,23v38.4c0,9.77,2.84,17.52,8.43,23s13.3,8.31,22.92,8.31h21.07c9.62,0,17.34-2.8,22.93-8.31s8.42-13.28,8.42-23v-38.4c0-9.77-2.83-17.52-8.43-23S820.24,236.3,810.61,236.3ZM823.67,268v37.61c0,10.26-4.65,15-14.64,15h-17.9c-10,0-14.64-4.78-14.64-15V268c0-10.26,4.65-15,14.64-15H809C819,253,823.67,257.78,823.67,268Z" fill="#33058d"/><path class="cls-2" d="M1154.72,244.61c-5.59-5.52-13.3-8.31-22.92-8.31h-21.07c-9.63,0-17.34,2.79-22.92,8.31s-8.43,13.27-8.43,23v38.4c0,9.77,2.84,17.52,8.43,23s13.3,8.31,22.92,8.31h21.07c9.62,0,17.33-2.8,22.92-8.31s8.43-13.28,8.43-23v-38.4C1163.15,257.88,1160.31,250.13,1154.72,244.61ZM1144.85,268v37.61c0,10.26-4.65,15-14.64,15h-17.89c-10,0-14.65-4.78-14.65-15V268c0-10.26,4.66-15,14.65-15h17.89C1140.2,253,1144.85,257.78,1144.85,268Z" fill="#33058d"/><path class="cls-2" d="M984.3,236.11H972.19c-11.69,0-18.31,2.14-22,4.28V197.5l-18.49,2.56V337.4H984.3c9.49,0,17.14-2.8,22.72-8.31s8.43-13.28,8.43-23V267.26c0-9.63-2.83-17.31-8.43-22.84S993.79,236.11,984.3,236.11Zm-30,20.88c2.61-2.61,7.57-4.17,13.27-4.17h12.7c10.86,0,16.85,5.41,16.85,15.24v37.39c0,10.4-4.72,15.24-14.84,15.24l-32.13,0,0-51.82C950.17,263.75,951.58,259.76,954.34,257Z" fill="#33058d"/></svg>