<svg id="eff7ab4f-ddde-4551-be77-59acdb215c4e" xmlns="http://www.w3.org/2000/svg" viewBox="0 0 179.1 124.5">
	<style type="text/css">
		.st0{fill:#1b75bb;}
	</style>
	<path class="st0" d="M140.7,48.8a39.3,39.3,0,0,0-12.4,2,39,39,0,0,0-38-48.2C74.4,2.6,60,14.4,54.6,25.7a5,5,0,0,0,2.1,6.6,4.9,4.9,0,0,0,4.7-.2,6.1,6.1,0,0,0,1.9-2c5.6-9,15-17.8,27-17.8a29.4,29.4,0,0,1,29.4,29.4c0,7.2-2.3,14.2-7,19s-7.2,6.3-10.6,7.8L91.8,59.1a4.6,4.6,0,0,0-6.5.3l-.3.3a4.6,4.6,0,0,0,.3,6.5l31.2,28.6a4.7,4.7,0,0,0,6.6-.2l.3-.3a4.7,4.7,0,0,0-.3-6.6l-10.2-9.3a34.9,34.9,0,0,1,6.9-11.1,29.4,29.4,0,1,1,20.9,50c-7.7,0-14.2-3.4-19.9-7.8-1.7-1.3-38.8-34.4-50.6-46.3-8.1-8-18.1-14.4-30.4-14.4A39.2,39.2,0,1,0,75.5,104l9.9,9.1a4.7,4.7,0,0,0,6.6-.3h0a4.6,4.6,0,0,0-.3-6.5l-31-28.4a4.6,4.6,0,0,0-6.5.3h0a4.5,4.5,0,0,0,.3,6.5L67.8,97a29.4,29.4,0,1,1-28-38.4c8,0,15,3.5,20.6,8.3.1.1,42.4,38.2,50,45.8s18.1,14.4,30.3,14.4a39.2,39.2,0,0,0,0-78.3Z" transform="translate(-0.7 -2.6)"/>
</svg>