<?xml version="1.0" encoding="utf-8"?>
<!-- Generator: Adobe Illustrator 23.1.1, SVG Export Plug-In . SVG Version: 6.00 Build 0)  -->
<svg version="1.1" id="Layer_1" xmlns="http://www.w3.org/2000/svg" xmlns:xlink="http://www.w3.org/1999/xlink" x="0px" y="0px"
	 viewBox="0 0 1215 360" style="enable-background:new 0 0 1215 360;" xml:space="preserve">
<style type="text/css">
	.st0{fill:#1B75BB;}
	.st1{fill:#AAAAAA;}
	.st2{fill:#3D3D3D;}
</style>
<g>
	<path class="st0" d="M308.7,147.3c-8.9,0-17.4,1.5-25.4,4.1c1.4-6,2.2-12.3,2.2-18.8c0-44.2-35.9-80.1-80.1-80.1
		c-32.5,0-62.1,24.3-73.2,47.4c-2.4,5-0.5,10.9,4.4,13.4c3.2,1.6,6.8,1.4,9.7-0.4c1.6-0.9,2.7-2.4,3.8-4
		c11.4-18.4,30.9-36.5,55.3-36.5c33.2,0,60.2,26.9,60.2,60.2c0,14.8-4.5,29.1-14.3,38.9c-7.9,7.9-14.7,13.1-21.7,16.2l-21.1-19.3
		c-3.9-3.5-9.9-3.3-13.4,0.6l-0.5,0.6c-3.5,3.9-3.3,9.9,0.6,13.4l64,58.6c3.9,3.5,9.9,3.3,13.4-0.6l0.5-0.6
		c3.5-3.9,3.3-9.9-0.6-13.4l-20.8-19c2.5-7.2,8.6-17.2,14.1-22.8c10.9-11.1,26-17.9,42.8-17.9c33.2,0,60.2,26.9,60.2,60.2
		c0,33.2-26.9,60.2-60.2,60.2c-15.7,0-29.2-7.1-40.8-15.9c-3.5-2.6-79.4-70.6-103.7-94.9c-16.4-16.4-37-29.5-62.1-29.5
		c-44.2,0-80.1,35.9-80.1,80.1s35.9,80.1,80.1,80.1c32.5,0,60.5-19.4,73-47.2l20.3,18.6c3.9,3.5,9.9,3.3,13.4-0.6h0
		c3.5-3.9,3.3-9.9-0.6-13.4l-63.4-58.1c-3.9-3.5-9.9-3.3-13.4,0.6h0c-3.5,3.9-3.3,9.9,0.6,13.4l27.3,25
		c-7.8,24.2-30.5,41.7-57.2,41.7c-33.2,0-60.2-26.9-60.2-60.2c0-33.2,26.9-60.2,60.2-60.2c16.3,0,30.5,7.2,42,17.1
		c0.2,0.2,87,78.1,102.5,93.7c16.4,16.4,37,29.5,62,29.5c44.2,0,80.1-35.9,80.1-80.1S352.9,147.3,308.7,147.3z"/>
	<g>
		<g>
			<path class="st1" d="M766.5,261c2.4,1.4,4.3,3.1,5.4,5.1c0.2,0.3,0.2,0.6,0.2,1c0,0.3-0.1,0.6-0.3,0.9c-0.2,0.3-0.4,0.5-0.8,0.6
				c-0.2,0.1-0.4,0.1-0.7,0.1c-0.7,0-1.3-0.3-1.7-0.9c-2.4-3.5-5.8-5.2-10.3-5.2c-3.3,0-5.9,0.8-7.8,2.3s-2.8,3.6-2.8,6.3
				c0,2.2,0.9,4.1,2.8,5.7c1.8,1.5,4.7,2.6,8.6,3.3c5.1,0.8,8.8,2.4,11.1,4.7c2.3,2.3,3.5,5.3,3.5,8.9c0,2.8-0.6,5.2-1.8,7.2
				c-1.2,2-3,3.6-5.2,4.7c-2.2,1.1-4.8,1.6-7.7,1.6c-3.8,0-7-0.8-9.8-2.3c-2.8-1.5-4.8-3.7-6.2-6.4c-0.1-0.2-0.2-0.5-0.2-0.7
				c0-0.5,0.2-0.9,0.5-1.2c0.3-0.3,0.8-0.5,1.4-0.5c0.8,0,1.4,0.4,1.7,1.1c1.1,2,2.7,3.6,4.8,4.7c2.1,1.1,4.7,1.7,7.7,1.7
				c3.5,0,6.2-0.9,8.2-2.6c2-1.7,3-4.2,3-7.3c0-2.7-1-5-2.9-6.8c-1.9-1.8-4.8-2.9-8.6-3.5c-4.5-0.6-8-2.1-10.5-4.4
				c-2.6-2.3-3.8-5-3.8-8.3c0-2.3,0.6-4.4,1.8-6.2c1.2-1.8,2.9-3.2,5-4.2c2.1-1,4.6-1.5,7.4-1.5C761.4,258.9,764.1,259.6,766.5,261z
				"/>
			<path class="st1" d="M801.8,304.7v-43.4c0-0.5,0.2-1,0.5-1.3c0.3-0.3,0.8-0.5,1.3-0.5h29c0.5,0,0.9,0.2,1.3,0.5
				c0.4,0.3,0.5,0.8,0.5,1.3c0,0.5-0.2,0.9-0.5,1.3c-0.4,0.4-0.8,0.5-1.3,0.5h-27.2v18.1h19.9c0.5,0,1,0.2,1.3,0.5
				c0.3,0.3,0.5,0.8,0.5,1.3c0,0.5-0.2,1-0.5,1.3c-0.3,0.4-0.8,0.5-1.3,0.5h-19.9v18.1h27.2c0.5,0,0.9,0.2,1.3,0.5
				c0.4,0.4,0.5,0.8,0.5,1.3c0,0.5-0.2,1-0.5,1.3c-0.4,0.3-0.8,0.5-1.3,0.5h-29c-0.5,0-1-0.2-1.3-0.5
				C801.9,305.7,801.8,305.2,801.8,304.7"/>
			<path class="st1" d="M897.2,264.2c0.4,0.3,0.5,0.7,0.5,1.2c0,0.5-0.2,0.9-0.5,1.3c-0.3,0.4-0.8,0.6-1.3,0.6
				c-0.4,0-0.9-0.2-1.5-0.7c-3.1-2.7-7.1-4.1-12.1-4.1c-3.5,0-6.8,0.9-9.9,2.8c-3.1,1.9-5.5,4.4-7.3,7.6c-1.8,3.2-2.7,6.5-2.7,10.1
				c0,3.7,0.9,7.1,2.7,10.3c1.8,3.2,4.2,5.7,7.3,7.5c3.1,1.8,6.4,2.8,10,2.8c4.7,0,8.9-1.5,12.5-4.4c0.3-0.2,0.6-0.3,0.9-0.3
				c0.5,0,0.9,0.2,1.3,0.5c0.4,0.4,0.6,0.8,0.6,1.3c0,0.5-0.1,0.9-0.4,1.3c-3.5,3.5-8.4,5.2-14.8,5.2c-4.2,0-8.1-1.1-11.7-3.3
				c-3.6-2.2-6.5-5.1-8.6-8.9c-2.1-3.7-3.2-7.7-3.2-12c0-4.3,1.1-8.3,3.2-12c2.1-3.7,5-6.6,8.6-8.8c3.6-2.2,7.5-3.3,11.8-3.3
				C887.9,258.9,892.9,260.7,897.2,264.2z"/>
			<path class="st1" d="M925.9,260c0.3-0.3,0.8-0.5,1.3-0.5c0.6,0,1,0.2,1.3,0.5c0.3,0.3,0.5,0.8,0.5,1.3v29.9
				c0,2.4,0.6,4.6,1.8,6.6c1.2,1.9,2.9,3.4,5.1,4.5c2.2,1.1,4.7,1.6,7.5,1.6c2.8,0,5.3-0.5,7.5-1.6c2.2-1.1,3.9-2.6,5.2-4.5
				c1.2-1.9,1.9-4.1,1.9-6.6v-29.9c0-0.6,0.2-1,0.5-1.3c0.3-0.3,0.8-0.5,1.3-0.5c0.6,0,1,0.2,1.3,0.5c0.3,0.3,0.5,0.8,0.5,1.3v29.9
				c0,3.2-0.8,6-2.3,8.5c-1.5,2.5-3.7,4.4-6.4,5.8c-2.8,1.4-5.9,2.1-9.4,2.1s-6.6-0.7-9.4-2.1c-2.8-1.4-4.9-3.3-6.4-5.8
				c-1.5-2.5-2.3-5.3-2.3-8.5v-29.9C925.4,260.7,925.6,260.3,925.9,260z"/>
			<path class="st1" d="M1020.8,305.1c0,0.4-0.2,0.8-0.5,1c-0.3,0.2-0.8,0.4-1.5,0.4c-0.4,0-0.7-0.1-1-0.2c-0.2-0.2-0.5-0.4-0.7-0.7
				l-11.1-17.7h-1.1h-9.7v16.9c0,0.5-0.2,1-0.5,1.3c-0.3,0.3-0.8,0.5-1.3,0.5c-0.5,0-1-0.2-1.3-0.5c-0.3-0.3-0.5-0.8-0.5-1.3v-43.4
				c0-0.6,0.2-1,0.5-1.3c0.3-0.3,0.8-0.5,1.3-0.5h11.5c2.9,0,5.5,0.6,7.8,1.8c2.3,1.2,4.1,2.9,5.4,5.1c1.3,2.2,1.9,4.6,1.9,7.4
				c0,3.3-0.9,6.1-2.7,8.5c-1.8,2.4-4.3,4-7.4,4.9l10.4,16.6C1020.7,304.3,1020.8,304.8,1020.8,305.1z M1005.1,284.2
				c2.2,0,4.2-0.4,5.9-1.3c1.7-0.9,3.1-2.1,4.1-3.7c1-1.6,1.5-3.4,1.5-5.4c0-2-0.5-3.9-1.5-5.5c-1-1.6-2.3-2.9-4.1-3.8
				c-1.7-0.9-3.7-1.4-5.9-1.4h-9.7v21.1H1005.1z"/>
			<path class="st1" d="M1046.9,260c0.3-0.3,0.8-0.5,1.3-0.5c0.5,0,1,0.2,1.3,0.5c0.3,0.3,0.5,0.8,0.5,1.3v43.4c0,0.5-0.2,1-0.5,1.3
				c-0.3,0.3-0.8,0.5-1.3,0.5c-0.5,0-1-0.2-1.3-0.5c-0.3-0.3-0.5-0.8-0.5-1.3v-43.4C1046.4,260.8,1046.6,260.3,1046.9,260z"/>
			<path class="st1" d="M1111.9,259.9c0.3,0.3,0.5,0.7,0.5,1.2c0,0.5-0.2,0.9-0.5,1.2c-0.3,0.3-0.7,0.5-1.2,0.5h-15.2v42
				c0,0.5-0.2,1-0.5,1.3c-0.3,0.3-0.8,0.5-1.3,0.5s-1-0.2-1.3-0.5c-0.3-0.3-0.5-0.8-0.5-1.3v-42h-15.2c-0.5,0-0.9-0.2-1.2-0.5
				c-0.3-0.3-0.5-0.7-0.5-1.2c0-0.5,0.2-0.9,0.5-1.2c0.3-0.3,0.7-0.5,1.2-0.5h34.1C1111.2,259.5,1111.6,259.6,1111.9,259.9z"/>
			<path class="st1" d="M1168.7,260c0.3,0.3,0.5,0.7,0.5,1.2c0,0.4-0.1,0.8-0.3,1.1l-16.6,26.6v15.8c0,0.5-0.2,1-0.5,1.3
				c-0.3,0.3-0.8,0.5-1.3,0.5s-1-0.2-1.3-0.5c-0.3-0.3-0.5-0.8-0.5-1.3v-15.8l-16.6-26.6c-0.2-0.4-0.4-0.8-0.4-1.1
				c0-0.5,0.2-0.9,0.5-1.2c0.3-0.3,0.7-0.5,1.3-0.5s1,0.2,1.4,0.7l15.6,25.4l15.4-25c0.3-0.4,0.6-0.7,0.8-0.9
				c0.3-0.2,0.6-0.2,0.9-0.2C1168.1,259.5,1168.4,259.6,1168.7,260z"/>
		</g>
		<g>
			<path class="st2" d="M534.3,118.7c7.5,3.4,13.5,8.2,18.1,14.3c1.2,2,1.8,3.7,1.8,5.3c0,2.6-1.2,4.7-3.7,6.2
				c-1.1,0.8-2.5,1.1-4.3,1.1c-3.2,0-5.9-1.1-8-3.4c-7.5-8.5-17.7-12.8-30.6-12.8c-8.4,0-15.1,1.7-20.1,5.1c-5,3.4-7.5,7.7-7.5,12.9
				c0,5.5,2.4,9.9,7.1,13.1c4.7,3.3,13.1,5.9,25.2,7.9c16.3,2.7,28,7.2,35,13.4c7,6.2,10.5,13.8,10.5,23c0,7-2.1,13.3-6.3,18.7
				c-4.2,5.5-10,9.8-17.5,12.8c-7.5,3-15.9,4.6-25.4,4.6c-9.5,0-18.5-1.6-27.2-4.8c-8.7-3.2-15.7-7.7-21-13.5
				c-1.5-1.8-2.3-3.6-2.3-5.3c0-2.6,1.2-4.9,3.7-6.9c1.8-1.4,3.7-2.1,5.7-2.1c2.6,0,4.8,1.1,6.6,3.2c3.7,4.3,8.5,7.5,14.5,9.8
				c6,2.3,12.7,3.4,20,3.4c10.7,0,18.7-1.8,24-5.5c5.3-3.7,8.1-8.5,8.2-14.4c0-5.5-2.7-10.1-8-13.7c-5.3-3.7-13.8-6.4-25.4-8.2
				c-14.9-2.4-26.1-6.7-33.5-12.7c-7.4-6-11.1-13.3-11.1-21.8c0-11.1,4.3-19.7,12.9-25.8c8.6-6.1,19.4-9.1,32.4-9.1
				C518,113.6,526.8,115.3,534.3,118.7z"/>
			<path class="st2" d="M677.4,121.8c9.6,5.5,17.2,13.1,22.8,22.9c5.6,9.8,8.3,20.7,8.3,32.7c0,12-2.7,22.9-8.2,32.6
				c-5.5,9.7-13.1,17.3-22.7,22.7c-9.7,5.5-20.5,8.2-32.6,8.2s-22.9-2.7-32.6-8.2c-9.7-5.5-17.3-13.1-22.7-22.7
				c-5.5-9.7-8.2-20.5-8.2-32.6c0-12,2.7-22.9,8.2-32.7c5.5-9.8,13.1-17.4,22.7-22.9c9.7-5.5,20.5-8.2,32.6-8.2
				S667.8,116.3,677.4,121.8z M621.3,135.7c-7.1,4.1-12.7,9.8-16.7,17c-4,7.2-6.1,15.4-6.1,24.6c0,9,2,17.1,6.1,24.4
				c4,7.2,9.6,12.9,16.7,17c7.1,4.1,15,6.2,23.7,6.2c8.8,0,16.8-2.1,23.8-6.2c7-4.1,12.5-9.8,16.5-17c4-7.2,5.9-15.4,5.9-24.4
				c0-9.1-2-17.3-5.9-24.6c-4-7.2-9.5-12.9-16.5-17c-7-4.1-14.9-6.2-23.8-6.2C636.2,129.6,628.4,131.6,621.3,135.7z"/>
			<path class="st2" d="M831.2,120.2c8.6,4.6,15.4,11.2,20.2,20c4.9,8.8,7.3,19.2,7.3,31.4v59.4c0,2.4-0.8,4.5-2.5,6.2
				c-1.7,1.7-3.7,2.5-6.2,2.5c-2.6,0-4.7-0.8-6.4-2.5c-1.7-1.7-2.5-3.7-2.5-6.2v-59.4c0-13.6-3.8-23.9-11.3-31S812.4,130,800.2,130
				c-7.5,0-14.2,1.4-20.2,4.3c-6,2.9-10.8,6.9-14.3,12c-3.5,5.1-5.3,10.8-5.3,17v67.7c0,2.6-0.8,4.7-2.4,6.3
				c-1.6,1.6-3.7,2.4-6.3,2.4c-2.6,0-4.7-0.8-6.4-2.4c-1.7-1.6-2.5-3.7-2.5-6.3V123.6c0-2.6,0.8-4.7,2.5-6.4
				c1.7-1.7,3.8-2.5,6.4-2.5c2.6,0,4.7,0.8,6.3,2.5c1.6,1.7,2.4,3.8,2.4,6.4v7.8c5-5.6,11.1-10.1,18.3-13.3
				c7.2-3.2,14.9-4.8,23.3-4.8C812.8,113.3,822.5,115.6,831.2,120.2z"/>
			<path class="st2" d="M969.3,115.8c3.7,1.7,5.6,4,5.6,7.1c0,0.9-0.1,1.6-0.2,2.1c-0.6,2.1-1.6,3.6-2.9,4.3
				c-1.3,0.8-3.1,1.1-5.4,1.1c-1.4,0-3.7-0.2-7.1-0.5c-1.2-0.2-3.1-0.2-5.5-0.2c-11.4,0-20.8,3.1-28,9.1c-7.2,6.1-10.9,14-10.9,23.8
				v68.4c0,2.7-0.8,4.9-2.3,6.4c-1.5,1.5-3.7,2.3-6.4,2.3c-2.7,0-4.9-0.8-6.4-2.3c-1.5-1.5-2.3-3.7-2.3-6.4V123.4
				c0-2.7,0.8-4.9,2.3-6.4c1.5-1.5,3.7-2.3,6.4-2.3c2.7,0,4.9,0.8,6.4,2.3c1.5,1.5,2.3,3.7,2.3,6.4v10.1
				c4.4-6.4,10.1-11.4,16.9-14.9c6.9-3.5,14.3-5.3,22.2-5.3C960.4,113.3,965.5,114.2,969.3,115.8z"/>
			<path class="st2" d="M1082.4,121.9c9.7,5.6,17.3,13.2,22.9,23c5.6,9.8,8.3,20.6,8.3,32.5v53.7c0,2.4-0.8,4.5-2.5,6.2
				c-1.7,1.7-3.8,2.5-6.4,2.5c-2.6,0-4.7-0.8-6.4-2.4c-1.7-1.6-2.5-3.7-2.5-6.3v-13.7c-5.3,7.3-12.1,13.1-20.3,17.3
				c-8.2,4.2-17.3,6.3-27.2,6.3c-11.6,0-22.1-2.8-31.4-8.3c-9.4-5.6-16.8-13.2-22.2-22.9c-5.4-9.7-8.1-20.5-8.1-32.4
				c0-11.9,2.8-22.7,8.3-32.5c5.6-9.8,13.2-17.4,22.9-23c9.7-5.6,20.5-8.3,32.4-8.3C1062,113.6,1072.7,116.3,1082.4,121.9z
				 M1073.6,218.7c7-4.1,12.5-9.8,16.6-17c4-7.2,6.1-15.4,6.1-24.4c0-9-2-17.1-6.1-24.4c-4-7.2-9.6-13-16.6-17.1
				c-7-4.2-14.9-6.3-23.6-6.3c-8.7,0-16.6,2.1-23.7,6.3c-7.1,4.2-12.7,9.9-16.7,17.1c-4,7.2-6.1,15.4-6.1,24.4c0,9,2,17.1,6.1,24.4
				c4,7.2,9.6,12.9,16.7,17c7.1,4.1,15,6.2,23.7,6.2C1058.8,224.9,1066.6,222.9,1073.6,218.7z"/>
			<path class="st2" d="M1184.1,52.5c2.6,0,4.7,0.9,6.4,2.6c1.7,1.8,2.5,3.9,2.5,6.5c0,2.4-0.8,4.4-2.5,5.9l-25.6,25.8
				c-1.5,1.5-3.5,2.3-5.9,2.3c-2.6,0-4.7-0.9-6.4-2.6c-1.7-1.8-2.5-3.8-2.5-6.3c0-2.4,0.7-4.4,2.1-5.9l25.8-25.8
				C1179.6,53.4,1181.6,52.5,1184.1,52.5z"/>
			<path class="st2" d="M1154.1,117.2c1.7-1.7,3.8-2.5,6.4-2.5c2.6,0,4.7,0.8,6.3,2.5c1.6,1.7,2.4,3.8,2.4,6.4v107.2
				c0,2.6-0.8,4.7-2.4,6.4c-1.6,1.7-3.7,2.5-6.3,2.5c-2.6,0-4.7-0.8-6.4-2.5c-1.7-1.7-2.5-3.8-2.5-6.4V123.6
				C1151.6,121,1152.4,118.9,1154.1,117.2z"/>
		</g>
	</g>
</g>
</svg>
