<svg version="1.1" xmlns="http://www.w3.org/2000/svg" viewBox="-20 50 690.000000 150">
<style type="text/css">
	.st0{fill:#15BCD4;}
	.st1{fill:#182F57;}
</style>
<g>
	<path class="st0" d="M26.9,126.7v47.4h-7.6V119c0-3,1.6-4.9,4.2-4.9c1.2,0,2.4,0.6,3.8,1.9l44.9,45.9v-47.4h7.6V170
		c0,3-1.7,4.8-4,4.8c-1.4,0-2.9-0.8-4.1-2L26.9,126.7z"/>
	<path class="st0" d="M117.1,174.1c-16.3,0-28.3-13-28.3-30.3c0-17.5,12-29,28.3-29h31.6v7.9h-31.6c-11.7,0-20.4,8.8-20.4,21.5
		c0,12.6,8.6,21.9,20.4,21.9h31.6v7.9H117.1z"/>
	<path class="st1" d="M177.5,157.1v-7.7h25.6c8.4,0,13.3-5.5,13.3-13.5c0-8.2-4.9-13.3-13.3-13.3h-33.3v51.4h-7.9v-59.3h41.2
		c13.3,0,21,8.2,21,21c0,12.6-7.7,21.4-21,21.4H177.5z"/>
	<path class="st1" d="M289.6,174.1l-15.7-16.8h-26V150h26.5c8.6,0,13-4.8,13-13.9c0-9.1-4.8-13.3-13-13.3h-34.2v51.4h-7.9v-59.3
		h42.1c13.1,0,20.9,8.2,20.9,21.2c0,9.9-4.5,17-12.5,19.9l18,18.2H289.6z"/>
	<path class="st1" d="M332.2,174.1c-16.3,0-28.3-13-28.3-30.3c0-17.5,12-29,28.3-29h14.2c16.8,0,28.5,11.8,28.5,29
		c0,17.2-11.9,30.3-28.5,30.3H332.2z M346.4,166.2c12,0,20.6-9.4,20.6-21.9c0-12.6-8.5-21.5-20.6-21.5h-14.2
		c-11.7,0-20.4,8.8-20.4,21.5c0,12.6,8.6,21.9,20.4,21.9H346.4z"/>
	<path class="st1" d="M402.5,174.1v-51.4h-23.2v-7.9h54.4v7.9h-23.2v51.4H402.5z"/>
	<path class="st1" d="M441.4,174.1v-59.3h52v7.9h-44.1v43.5h44.2v7.9H441.4z M456.9,147.6v-7.3h34.3v7.3H456.9z"/>
	<path class="st1" d="M529.8,174.1c-16.3,0-28.3-13-28.3-30.3c0-17.5,12-29,28.3-29h31.6v7.9h-31.6c-11.7,0-20.4,8.8-20.4,21.5
		c0,12.6,8.6,21.9,20.4,21.9h31.6v7.9H529.8z"/>
	<path class="st1" d="M590.3,174.1v-51.4H567v-7.9h54.4v7.9h-23.2v51.4H590.3z"/>
</g>
<g>
	<path class="st1" d="M630.2,127.5v-11.9h-4v-2.2h10.6v2.2h-4.1v11.9H630.2z M638.5,127.5v-14.1h3.8l3.8,10.8l3.9-10.8h3.6v14.1
		h-2.6v-8.2c0-0.2,0-0.6,0-1.3c0-0.6,0.1-1.1,0.1-1.4h-0.2l-4,10.8h-2.1l-3.8-10.8h-0.2c0,0.4,0.1,0.9,0.1,1.4c0,0.5,0,0.9,0,1v8.4
		H638.5z"/>
</g>
</svg>
