<svg xmlns="http://www.w3.org/2000/svg">
	<g id="svgg">
		<path id="path0" d="M382.565 0.903 C 382.313 1.562,382.550 1.747,383.752 1.833 L 384.917 1.917 384.962 5.495 C 385.011 9.376,385.024 9.429,385.904 9.263 L 386.500 9.152 386.500 5.680 C 386.500 1.696,386.431 1.874,388.006 1.801 C 389.081 1.750,389.083 1.749,389.083 1.250 L 389.083 0.750 385.871 0.705 C 383.176 0.667,382.644 0.699,382.565 0.903 M390.542 0.839 C 390.167 0.989,390.167 0.994,390.167 5.070 L 390.167 9.152 390.739 9.259 C 391.638 9.428,391.667 9.353,391.667 6.834 C 391.667 2.891,392.235 2.722,393.176 6.386 C 393.266 6.736,393.443 7.186,393.568 7.386 C 393.693 7.586,393.845 8.030,393.905 8.373 C 394.179 9.938,395.641 9.513,396.064 7.745 C 396.345 6.569,397.616 3.667,397.850 3.667 C 398.093 3.667,398.167 4.322,398.210 6.833 L 398.250 9.250 398.750 9.250 L 399.250 9.250 399.250 5.000 L 399.250 0.750 398.551 0.699 C 397.749 0.641,397.239 1.018,397.079 1.787 C 397.026 2.042,396.877 2.475,396.747 2.750 C 396.618 3.025,396.460 3.475,396.397 3.750 C 396.334 4.025,396.144 4.511,395.974 4.831 C 395.805 5.150,395.667 5.604,395.667 5.839 C 395.667 6.912,394.602 7.006,394.328 5.958 C 394.226 5.569,393.998 4.945,393.821 4.572 C 393.645 4.200,393.500 3.765,393.500 3.606 C 393.500 3.447,393.394 3.112,393.264 2.861 C 393.135 2.610,392.976 2.125,392.912 1.782 C 392.726 0.793,391.686 0.379,390.542 0.839 M90.272 1.875 C 90.140 2.365,90.140 37.968,90.272 38.458 C 90.404 38.952,94.712 39.056,94.899 38.570 C 94.954 38.425,95.000 31.159,95.000 22.423 C 95.000 8.928,95.035 6.511,95.236 6.345 C 95.676 5.979,117.352 6.190,118.500 6.571 C 120.531 7.245,123.000 8.896,123.000 9.580 C 123.000 9.697,123.105 9.880,123.234 9.986 C 123.362 10.093,123.518 10.384,123.580 10.632 C 123.642 10.880,123.818 11.222,123.971 11.392 C 124.381 11.847,124.389 17.638,123.981 18.107 C 123.833 18.277,123.661 18.630,123.598 18.892 C 123.261 20.311,120.929 22.456,119.335 22.814 C 118.945 22.902,118.545 23.055,118.447 23.153 C 118.322 23.278,115.545 23.333,109.480 23.333 C 104.648 23.333,100.575 23.379,100.430 23.434 C 100.140 23.546,100.032 27.363,100.307 27.796 C 100.657 28.348,119.921 27.872,120.853 27.288 C 121.071 27.152,121.449 26.994,121.692 26.937 C 123.006 26.633,126.289 24.095,126.588 23.152 C 126.644 22.977,126.752 22.833,126.828 22.833 C 126.905 22.833,127.046 22.608,127.142 22.333 C 127.238 22.058,127.391 21.833,127.484 21.833 C 127.576 21.833,127.700 21.574,127.760 21.256 C 127.819 20.938,127.969 20.595,128.093 20.492 C 128.216 20.390,128.369 19.957,128.433 19.531 C 128.497 19.104,128.651 18.513,128.775 18.216 C 129.095 17.449,129.093 11.668,128.772 11.033 C 128.647 10.786,128.493 10.283,128.429 9.917 C 127.968 7.251,124.479 3.327,122.036 2.725 C 121.787 2.664,121.433 2.519,121.250 2.402 C 121.067 2.286,120.346 2.112,119.649 2.017 C 118.952 1.921,118.178 1.766,117.930 1.672 C 117.633 1.559,112.822 1.500,103.925 1.500 L 90.372 1.500 90.272 1.875 M134.862 1.886 L 134.500 2.271 134.500 20.190 L 134.500 38.109 134.886 38.471 C 135.486 39.035,138.910 39.025,139.062 38.458 C 139.117 38.252,139.163 30.982,139.164 22.302 C 139.166 9.861,139.211 6.491,139.375 6.385 C 139.678 6.189,160.572 6.125,161.942 6.316 C 163.203 6.492,164.448 6.794,164.833 7.017 C 164.971 7.097,165.330 7.273,165.631 7.408 C 166.200 7.664,166.390 7.814,167.286 8.708 C 167.816 9.237,167.944 9.453,168.698 11.083 C 169.253 12.285,169.268 17.478,168.719 18.667 C 168.529 19.079,168.322 19.585,168.259 19.792 C 168.196 19.998,168.079 20.167,168.000 20.167 C 167.921 20.167,167.803 20.335,167.738 20.542 C 167.608 20.953,166.469 22.167,166.212 22.167 C 166.124 22.167,165.916 22.317,165.750 22.500 C 165.584 22.683,165.327 22.833,165.178 22.833 C 165.029 22.833,164.759 22.937,164.578 23.064 C 163.868 23.561,161.879 23.667,153.194 23.667 C 145.452 23.667,144.525 23.695,144.434 23.930 C 144.379 24.075,144.333 25.086,144.333 26.176 L 144.333 28.158 152.598 28.204 L 160.862 28.250 161.278 28.750 C 161.890 29.485,163.749 31.510,165.083 32.894 C 165.725 33.559,167.169 35.084,168.292 36.281 C 169.414 37.479,170.541 38.546,170.795 38.651 C 171.587 38.979,176.732 38.823,176.800 38.469 C 176.835 38.285,175.132 36.460,171.868 33.184 C 166.230 27.528,166.157 27.443,166.707 27.126 C 166.914 27.007,167.233 26.820,167.417 26.710 C 167.600 26.601,168.133 26.284,168.600 26.007 C 169.500 25.475,171.479 23.484,171.878 22.709 C 172.009 22.457,172.312 21.887,172.552 21.444 C 174.386 18.059,174.304 11.659,172.377 7.852 C 171.363 5.850,167.967 2.673,166.833 2.666 C 166.696 2.665,166.361 2.548,166.088 2.406 C 165.816 2.264,165.095 2.086,164.487 2.009 C 163.879 1.933,163.225 1.787,163.035 1.685 C 162.789 1.554,158.711 1.500,148.957 1.500 L 135.225 1.500 134.862 1.886 M194.833 1.757 C 194.421 1.888,193.783 1.999,193.417 2.005 C 193.050 2.010,192.450 2.130,192.083 2.270 C 191.717 2.411,191.154 2.582,190.833 2.651 C 190.512 2.719,190.100 2.863,189.917 2.971 C 189.733 3.079,189.396 3.241,189.167 3.333 C 188.938 3.424,188.602 3.593,188.421 3.708 C 186.131 5.161,185.685 5.500,184.511 6.680 C 183.875 7.319,182.938 8.484,182.766 8.848 C 182.683 9.023,182.560 9.167,182.491 9.167 C 182.422 9.167,182.285 9.373,182.185 9.625 C 182.086 9.877,181.933 10.196,181.846 10.333 C 181.678 10.598,181.240 11.556,180.676 12.896 C 180.487 13.343,180.333 13.873,180.333 14.074 C 180.333 14.275,180.185 14.997,180.004 15.678 C 179.629 17.089,179.529 22.029,179.850 23.250 C 179.947 23.617,180.128 24.367,180.253 24.917 C 180.531 26.147,181.117 27.851,181.337 28.070 C 181.427 28.160,181.500 28.326,181.500 28.439 C 181.500 28.717,181.768 29.310,182.167 29.917 C 182.348 30.192,182.591 30.600,182.707 30.824 C 183.691 32.736,188.075 36.498,190.000 37.085 C 190.229 37.154,190.565 37.314,190.745 37.439 C 190.926 37.564,191.226 37.667,191.412 37.668 C 191.598 37.668,191.966 37.782,192.231 37.919 C 192.495 38.057,193.433 38.251,194.314 38.349 C 195.195 38.447,196.001 38.598,196.105 38.685 C 196.796 39.259,210.163 38.583,211.455 37.910 C 211.709 37.777,212.052 37.668,212.217 37.668 C 212.639 37.666,215.727 36.111,216.583 35.469 C 216.675 35.400,217.088 35.043,217.500 34.674 C 217.912 34.306,218.305 34.003,218.373 34.002 C 218.693 33.997,221.518 30.117,221.742 29.375 C 221.805 29.169,221.917 29.000,221.993 29.000 C 222.068 29.000,222.177 28.745,222.236 28.433 C 222.294 28.122,222.453 27.775,222.588 27.663 C 222.723 27.551,222.833 27.278,222.833 27.056 C 222.833 26.835,222.983 26.359,223.167 26.000 C 223.350 25.641,223.500 25.059,223.500 24.708 C 223.500 24.357,223.629 23.623,223.786 23.077 C 224.193 21.661,224.194 17.415,223.787 16.286 C 223.629 15.847,223.500 15.225,223.500 14.903 C 223.500 14.580,223.394 14.112,223.264 13.861 C 223.135 13.610,222.975 13.108,222.910 12.744 C 222.845 12.381,222.694 11.971,222.575 11.833 C 222.456 11.696,222.309 11.380,222.247 11.132 C 222.185 10.884,222.029 10.593,221.900 10.486 C 221.772 10.380,221.667 10.213,221.667 10.117 C 221.667 9.359,217.970 5.172,216.799 4.603 C 216.680 4.546,216.208 4.275,215.750 4.001 C 215.292 3.727,214.729 3.425,214.500 3.330 C 214.271 3.235,213.858 3.055,213.583 2.929 C 212.812 2.576,210.884 2.055,209.500 1.827 C 207.545 1.504,195.804 1.448,194.833 1.757 M227.437 1.811 C 227.200 2.073,227.163 2.433,227.203 4.103 L 227.250 6.083 234.333 6.167 C 238.229 6.212,241.510 6.311,241.625 6.385 C 241.789 6.491,241.833 9.849,241.833 22.252 C 241.833 33.836,241.884 38.096,242.027 38.409 C 242.293 38.992,245.856 39.080,246.161 38.511 C 246.276 38.295,246.333 33.009,246.333 22.543 C 246.333 9.298,246.370 6.847,246.570 6.574 C 246.796 6.264,247.122 6.246,253.945 6.167 L 261.083 6.083 261.131 4.183 C 261.175 2.419,261.152 2.256,260.810 1.892 L 260.442 1.500 244.080 1.500 C 228.324 1.500,227.708 1.512,227.437 1.811 M266.506 1.865 C 265.970 2.440,265.970 37.893,266.506 38.469 L 266.846 38.833 282.563 38.833 L 298.280 38.833 298.473 38.409 C 298.736 37.832,298.731 34.464,298.467 34.200 C 298.314 34.048,295.035 34.000,284.723 34.000 C 271.502 34.000,271.174 33.992,271.006 33.678 C 270.734 33.170,270.769 6.561,271.042 6.385 C 271.156 6.311,277.400 6.212,284.917 6.167 L 298.583 6.083 298.631 4.257 C 298.660 3.143,298.603 2.250,298.486 1.966 L 298.293 1.500 282.570 1.500 L 266.846 1.500 266.506 1.865 M319.500 1.651 C 319.362 1.728,318.632 1.880,317.877 1.988 C 317.122 2.096,316.297 2.292,316.044 2.424 C 315.791 2.557,315.448 2.665,315.283 2.666 C 315.118 2.666,314.705 2.808,314.366 2.980 C 314.027 3.152,313.375 3.471,312.917 3.688 C 312.458 3.905,312.046 4.126,312.000 4.178 C 311.954 4.230,311.575 4.505,311.157 4.789 C 310.255 5.402,309.249 6.258,308.765 6.824 C 308.573 7.049,308.248 7.408,308.042 7.624 C 307.835 7.839,307.667 8.068,307.666 8.133 C 307.666 8.197,307.489 8.456,307.273 8.707 C 307.057 8.958,306.601 9.745,306.259 10.457 C 305.917 11.168,305.493 12.027,305.318 12.366 C 305.143 12.705,305.000 13.139,305.000 13.330 C 305.000 13.521,304.881 13.956,304.736 14.297 C 303.975 16.081,303.963 23.683,304.719 25.117 C 304.874 25.410,305.000 25.839,305.000 26.071 C 305.000 26.650,306.031 28.929,307.067 30.642 C 308.167 32.458,310.187 34.553,311.917 35.670 C 313.506 36.696,313.712 36.821,314.000 36.931 C 314.137 36.984,314.558 37.171,314.935 37.347 C 315.312 37.523,315.747 37.667,315.902 37.667 C 316.056 37.667,316.411 37.785,316.690 37.929 C 316.969 38.073,317.915 38.265,318.793 38.354 C 319.670 38.444,320.521 38.589,320.683 38.675 C 320.859 38.770,325.028 38.833,331.046 38.833 L 341.113 38.833 341.307 38.409 C 341.569 37.832,341.564 34.464,341.300 34.200 C 341.149 34.049,338.577 33.999,330.758 33.997 C 322.178 33.995,320.303 33.954,319.750 33.755 C 319.383 33.623,318.839 33.511,318.541 33.507 C 318.243 33.503,317.719 33.350,317.377 33.167 C 317.035 32.983,316.664 32.833,316.554 32.833 C 316.443 32.833,316.067 32.667,315.718 32.463 C 312.628 30.658,311.514 29.320,309.569 25.083 C 309.443 24.808,309.296 24.246,309.242 23.833 C 309.189 23.421,309.031 22.633,308.892 22.083 C 308.487 20.480,308.874 16.561,309.585 15.058 C 309.721 14.769,309.833 14.457,309.833 14.365 C 309.833 14.188,310.505 12.884,310.973 12.150 C 312.303 10.067,313.889 8.609,315.755 7.756 C 317.620 6.903,317.800 6.833,318.156 6.833 C 318.351 6.833,318.790 6.704,319.130 6.546 C 319.690 6.287,320.796 6.250,330.583 6.171 L 341.417 6.083 341.464 4.257 C 341.493 3.143,341.437 2.250,341.319 1.966 L 341.126 1.500 330.438 1.505 C 324.560 1.508,319.637 1.573,319.500 1.651 M345.416 2.042 C 345.361 2.340,345.339 3.371,345.367 4.333 L 345.417 6.083 352.500 6.167 C 356.396 6.212,359.677 6.311,359.792 6.385 C 359.956 6.491,360.000 9.862,360.000 22.314 L 360.000 38.109 360.386 38.471 C 360.986 39.035,364.410 39.025,364.562 38.458 C 364.617 38.252,364.663 30.982,364.664 22.302 C 364.666 9.861,364.711 6.491,364.875 6.385 C 364.990 6.311,368.271 6.212,372.167 6.167 L 379.250 6.083 379.298 4.257 C 379.327 3.143,379.270 2.250,379.152 1.966 L 378.960 1.500 362.237 1.500 L 345.515 1.500 345.416 2.042 M208.870 6.556 C 209.210 6.708,209.683 6.833,209.920 6.833 C 210.322 6.833,211.595 7.307,212.167 7.670 C 212.304 7.757,212.642 7.944,212.917 8.085 C 213.922 8.602,214.159 8.789,215.362 10.008 C 216.578 11.239,217.500 12.436,217.500 12.780 C 217.500 12.879,217.608 13.049,217.739 13.158 C 217.871 13.267,218.031 13.594,218.094 13.884 C 218.158 14.174,218.305 14.563,218.420 14.748 C 218.535 14.932,218.679 15.383,218.740 15.750 C 218.801 16.117,218.968 16.730,219.111 17.113 C 219.423 17.953,219.383 22.785,219.061 23.183 C 218.956 23.311,218.817 23.754,218.750 24.167 C 218.684 24.579,218.488 25.231,218.315 25.616 C 218.142 26.000,218.000 26.350,218.000 26.393 C 218.000 26.625,216.594 28.843,216.095 29.398 C 215.774 29.755,215.491 30.093,215.464 30.148 C 215.245 30.614,212.185 32.666,211.333 32.918 C 211.104 32.985,210.833 33.107,210.732 33.188 C 209.342 34.295,194.894 34.214,192.735 33.088 C 192.468 32.949,192.128 32.835,191.979 32.834 C 191.830 32.834,191.614 32.721,191.500 32.583 C 191.386 32.446,191.194 32.333,191.074 32.333 C 190.824 32.333,188.586 30.574,188.083 29.982 C 187.208 28.953,186.333 27.777,186.333 27.631 C 186.333 27.542,186.183 27.279,186.000 27.045 C 185.817 26.812,185.667 26.454,185.667 26.248 C 185.667 26.042,185.560 25.786,185.430 25.677 C 185.299 25.569,185.141 25.174,185.078 24.799 C 185.014 24.424,184.858 23.868,184.731 23.564 C 184.406 22.787,184.404 17.104,184.728 16.483 C 184.853 16.244,185.006 15.707,185.069 15.288 C 185.132 14.870,185.292 14.437,185.425 14.327 C 185.558 14.216,185.667 13.958,185.667 13.752 C 185.667 13.546,185.798 13.199,185.958 12.979 C 186.119 12.759,186.325 12.460,186.417 12.313 C 186.977 11.418,187.347 10.969,188.324 9.999 C 189.449 8.883,190.214 8.282,190.873 7.997 C 191.080 7.908,191.362 7.764,191.500 7.677 C 192.390 7.119,193.771 6.700,195.917 6.337 C 197.542 6.062,208.168 6.241,208.870 6.556 M276.072 17.885 C 276.026 18.005,276.010 18.962,276.036 20.010 L 276.083 21.917 286.625 21.960 L 297.167 22.002 297.167 19.835 L 297.167 17.667 286.661 17.667 C 278.150 17.667,276.140 17.708,276.072 17.885 " stroke="none" fill="#193158" fill-rule="evenodd"/>
		<path id="path1" d="M1.565 1.320 C 1.148 1.500,0.500 2.283,0.500 2.606 C 0.500 2.731,0.388 2.833,0.250 2.833 C 0.029 2.833,0.000 4.923,0.000 20.640 L 0.000 38.446 0.425 38.640 C 1.117 38.956,4.773 38.898,4.899 38.570 C 4.954 38.425,5.000 31.871,5.000 24.007 C 5.000 12.767,5.045 9.672,5.208 9.541 C 5.361 9.419,5.838 9.816,7.000 11.035 C 10.929 15.154,16.675 21.076,23.545 28.083 C 26.151 30.742,28.613 33.289,29.016 33.743 C 30.056 34.915,33.308 38.121,33.987 38.644 C 34.834 39.297,36.597 39.289,37.284 38.630 C 38.195 37.758,38.177 38.180,38.128 19.083 L 38.083 1.417 35.792 1.370 L 33.500 1.324 33.500 15.651 C 33.500 25.187,33.442 30.131,33.326 30.435 L 33.153 30.892 32.624 30.251 C 32.334 29.899,30.781 28.289,29.173 26.674 C 27.565 25.058,23.100 20.515,19.250 16.577 C 15.400 12.640,10.600 7.730,8.583 5.667 C 6.567 3.604,4.742 1.775,4.527 1.602 C 4.087 1.245,2.160 1.062,1.565 1.320 M59.295 1.593 C 59.244 1.645,58.690 1.759,58.065 1.848 C 54.125 2.406,50.011 4.882,47.568 8.167 C 46.185 10.027,45.489 11.564,44.472 15.000 C 44.314 15.535,44.250 16.919,44.251 19.833 C 44.251 24.160,44.236 24.045,45.192 26.917 C 47.189 32.916,52.539 37.544,58.611 38.527 C 60.280 38.797,81.121 38.912,81.433 38.653 C 81.842 38.314,81.764 34.230,81.344 34.006 C 81.132 33.892,77.549 33.833,70.870 33.833 C 61.488 33.833,60.601 33.809,59.183 33.512 C 47.205 31.005,45.147 12.966,56.236 7.674 C 58.817 6.441,58.713 6.451,70.417 6.388 C 76.192 6.357,81.085 6.294,81.292 6.246 C 81.731 6.146,81.886 2.120,81.467 1.700 C 81.260 1.494,59.500 1.389,59.295 1.593 " stroke="none" fill="#1acbdc" fill-rule="evenodd"/>
		<path id="path2" d="M0.000 1.083 C 0.000 2.170,0.174 2.442,0.492 1.849 C 1.286 0.364,3.783 0.375,5.333 1.870 C 6.616 3.108,12.833 9.452,12.833 9.524 C 12.833 9.592,19.897 16.799,29.083 26.105 C 30.825 27.869,32.456 29.558,32.708 29.859 L 33.167 30.405 33.167 15.990 C 33.167 2.916,33.192 1.538,33.439 1.185 C 33.719 0.786,37.690 0.680,38.292 1.056 C 38.556 1.221,38.601 37.584,38.338 37.747 C 38.249 37.802,38.054 38.103,37.906 38.416 C 37.722 38.804,37.456 39.044,37.068 39.172 C 36.756 39.275,36.500 39.428,36.500 39.513 C 36.500 39.607,107.381 39.667,218.250 39.667 L 400.000 39.667 400.000 24.667 L 400.000 9.667 399.026 9.667 C 397.646 9.667,397.500 9.463,397.500 7.538 C 397.500 5.908,397.274 5.370,397.094 6.571 C 397.033 6.975,396.875 7.396,396.742 7.507 C 396.609 7.617,396.500 7.918,396.500 8.174 C 396.500 9.038,395.771 9.667,394.769 9.667 C 393.806 9.667,393.500 9.471,393.500 8.855 C 393.500 8.628,393.381 8.312,393.236 8.151 C 393.091 7.991,392.931 7.554,392.881 7.182 C 392.831 6.810,392.687 6.420,392.562 6.315 C 392.436 6.211,392.333 5.948,392.333 5.730 C 392.333 5.512,392.261 5.333,392.172 5.333 C 392.078 5.333,391.990 6.228,391.963 7.458 L 391.917 9.583 390.968 9.633 C 390.155 9.676,389.994 9.634,389.838 9.342 C 389.624 8.943,389.681 0.976,389.901 0.375 C 390.015 0.065,389.981 0.000,389.705 0.000 C 389.398 0.000,389.378 0.083,389.456 1.046 C 389.559 2.328,389.434 2.463,388.078 2.532 L 387.083 2.583 387.038 5.904 C 386.986 9.745,387.001 9.702,385.682 9.633 L 384.750 9.583 384.705 6.042 L 384.660 2.500 383.651 2.500 C 382.294 2.500,382.094 2.290,382.212 0.990 L 382.302 -0.000 191.151 -0.000 L 0.000 0.000 0.000 1.083 M392.500 0.076 C 392.500 0.117,392.688 0.339,392.917 0.568 C 393.146 0.797,393.333 1.167,393.333 1.389 C 393.333 1.611,393.438 1.879,393.565 1.985 C 393.693 2.091,393.849 2.524,393.913 2.948 C 393.976 3.372,394.124 3.814,394.241 3.932 C 394.358 4.049,394.503 4.449,394.562 4.822 C 394.711 5.751,395.243 5.784,395.413 4.875 C 395.478 4.531,395.632 4.063,395.755 3.833 C 395.879 3.604,396.024 3.143,396.078 2.808 C 396.132 2.474,396.286 2.108,396.421 1.996 C 396.556 1.884,396.667 1.576,396.667 1.311 C 396.667 1.036,396.810 0.708,397.000 0.545 C 397.579 0.049,397.390 0.000,394.917 0.000 C 393.587 0.000,392.500 0.034,392.500 0.076 M119.710 1.375 C 119.955 1.535,120.447 1.667,120.805 1.667 C 121.203 1.667,121.620 1.796,121.879 2.000 C 122.112 2.183,122.455 2.333,122.641 2.333 C 122.828 2.333,123.031 2.416,123.094 2.517 C 123.156 2.618,123.461 2.807,123.770 2.936 C 124.080 3.065,124.333 3.245,124.333 3.336 C 124.333 3.426,124.433 3.500,124.554 3.500 C 125.173 3.500,127.739 6.414,128.088 7.513 C 128.155 7.727,128.313 8.004,128.439 8.129 C 128.564 8.255,128.667 8.522,128.667 8.723 C 128.667 8.924,128.817 9.368,129.000 9.710 C 129.234 10.146,129.333 10.651,129.333 11.396 C 129.333 12.138,129.409 12.522,129.583 12.667 C 129.935 12.958,129.930 15.941,129.578 16.407 C 129.412 16.626,129.333 17.143,129.333 18.011 C 129.333 18.937,129.265 19.349,129.088 19.496 C 128.953 19.608,128.793 19.974,128.733 20.308 C 128.673 20.643,128.530 21.029,128.415 21.167 C 128.300 21.304,128.150 21.600,128.082 21.824 C 127.818 22.685,126.603 24.227,124.986 25.751 C 124.841 25.888,124.632 26.000,124.522 26.000 C 124.413 26.000,124.281 26.110,124.229 26.244 C 124.178 26.378,123.974 26.538,123.776 26.600 C 123.578 26.662,123.238 26.852,123.019 27.023 C 122.801 27.194,122.454 27.333,122.248 27.333 C 122.042 27.333,121.786 27.439,121.679 27.569 C 121.571 27.698,121.105 27.856,120.643 27.920 C 120.181 27.983,119.604 28.139,119.360 28.267 C 118.826 28.545,100.103 28.612,99.667 28.337 C 99.401 28.170,99.195 24.407,99.405 23.570 C 99.628 22.681,99.766 22.668,109.033 22.654 C 117.458 22.643,119.253 22.566,119.475 22.208 C 119.536 22.108,119.811 21.971,120.085 21.903 C 120.359 21.835,120.681 21.642,120.801 21.473 C 120.921 21.305,121.127 21.167,121.259 21.167 C 121.392 21.167,121.500 21.054,121.500 20.917 C 121.500 20.779,121.607 20.667,121.739 20.667 C 121.870 20.667,122.025 20.517,122.083 20.333 C 122.142 20.150,122.258 20.000,122.342 20.000 C 122.427 20.000,122.601 19.747,122.731 19.437 C 122.860 19.127,123.049 18.823,123.150 18.761 C 123.251 18.698,123.333 18.441,123.333 18.189 C 123.333 17.937,123.443 17.585,123.578 17.407 C 123.931 16.940,123.936 12.902,123.584 12.227 C 123.447 11.965,123.335 11.586,123.334 11.385 C 123.334 11.184,123.251 10.969,123.150 10.906 C 123.049 10.844,122.860 10.539,122.731 10.230 C 122.601 9.920,122.422 9.667,122.331 9.667 C 122.241 9.667,122.167 9.572,122.167 9.457 C 122.167 9.341,121.931 9.060,121.643 8.832 C 121.354 8.603,120.979 8.285,120.809 8.125 C 120.639 7.965,120.360 7.833,120.189 7.833 C 120.018 7.833,119.664 7.665,119.402 7.458 L 118.925 7.083 107.129 7.032 L 95.333 6.982 95.333 22.985 C 95.333 38.636,95.326 38.992,95.011 39.161 C 94.358 39.510,90.433 39.377,89.939 38.988 L 89.500 38.642 89.500 20.167 L 89.500 1.691 89.950 1.337 L 90.400 0.983 104.832 1.033 C 118.247 1.080,119.296 1.104,119.710 1.375 M164.710 1.375 C 164.955 1.535,165.356 1.667,165.601 1.667 C 165.846 1.667,166.355 1.808,166.732 1.981 C 167.108 2.154,167.604 2.382,167.833 2.488 C 168.296 2.701,168.677 2.926,169.407 3.417 C 170.209 3.956,172.000 5.857,172.106 6.282 C 172.161 6.498,172.346 6.751,172.519 6.844 C 172.692 6.936,172.833 7.166,172.833 7.355 C 172.833 7.543,172.983 7.888,173.167 8.121 C 173.350 8.354,173.500 8.754,173.500 9.009 C 173.500 9.264,173.588 9.502,173.696 9.538 C 173.876 9.598,174.050 10.441,174.526 13.571 C 174.704 14.738,174.670 15.158,174.115 18.657 C 173.992 19.431,173.804 20.093,173.696 20.129 C 173.588 20.165,173.500 20.413,173.500 20.681 C 173.500 20.948,173.350 21.317,173.167 21.500 C 172.983 21.683,172.833 21.972,172.833 22.141 C 172.833 22.310,172.683 22.584,172.500 22.750 C 172.317 22.916,172.167 23.150,172.167 23.270 C 172.167 23.390,171.548 24.121,170.792 24.893 C 169.538 26.174,168.955 26.599,167.625 27.199 C 166.950 27.504,166.800 27.320,171.875 32.412 C 178.119 38.677,178.339 38.954,177.250 39.187 C 175.685 39.522,170.000 39.301,170.000 38.906 C 170.000 38.787,169.850 38.642,169.667 38.583 C 169.483 38.525,169.333 38.422,169.333 38.355 C 169.333 38.287,168.471 37.336,167.417 36.241 C 166.363 35.146,165.500 34.212,165.498 34.167 C 165.496 34.121,164.783 33.347,163.914 32.448 C 163.045 31.548,162.333 30.788,162.333 30.759 C 162.333 30.729,161.852 30.209,161.263 29.603 L 160.192 28.500 152.129 28.500 C 146.081 28.500,144.017 28.450,143.867 28.300 C 143.512 27.945,143.596 23.782,143.966 23.448 C 144.233 23.206,145.275 23.172,153.757 23.130 C 162.431 23.087,163.293 23.058,163.750 22.793 C 164.025 22.633,164.378 22.502,164.534 22.501 C 164.830 22.500,165.774 21.916,166.250 21.441 C 166.401 21.290,166.593 21.167,166.679 21.167 C 166.764 21.167,166.833 21.054,166.833 20.917 C 166.833 20.779,166.907 20.667,166.998 20.667 C 167.088 20.667,167.268 20.413,167.397 20.104 C 167.527 19.794,167.715 19.490,167.816 19.427 C 167.917 19.365,168.000 19.128,168.000 18.900 C 168.000 18.673,168.157 18.180,168.348 17.804 C 168.818 16.883,168.777 12.524,168.292 11.838 C 168.131 11.611,168.000 11.218,168.000 10.963 C 168.000 10.708,167.869 10.358,167.708 10.184 C 167.548 10.009,167.229 9.594,167.000 9.260 C 166.771 8.927,166.377 8.542,166.125 8.406 C 165.873 8.270,165.667 8.093,165.667 8.014 C 165.667 7.935,165.406 7.822,165.088 7.762 C 164.770 7.702,164.437 7.525,164.350 7.368 C 164.202 7.104,163.330 7.083,152.053 7.083 L 139.917 7.083 139.874 22.864 L 139.832 38.644 139.374 39.005 C 138.796 39.462,134.451 39.455,134.161 38.996 C 133.976 38.704,133.943 1.680,134.128 1.392 C 134.449 0.889,163.943 0.873,164.710 1.375 M210.341 1.351 C 210.566 1.497,211.145 1.655,211.627 1.701 C 212.109 1.747,212.640 1.908,212.806 2.059 C 212.973 2.210,213.273 2.333,213.472 2.333 C 213.671 2.333,214.114 2.483,214.456 2.667 C 214.799 2.850,215.176 3.000,215.294 3.000 C 215.413 3.000,215.554 3.113,215.606 3.250 C 215.659 3.388,215.844 3.500,216.018 3.500 C 216.191 3.500,216.483 3.650,216.667 3.833 C 216.850 4.017,217.074 4.167,217.165 4.167 C 217.256 4.167,217.424 4.317,217.539 4.500 C 217.653 4.683,217.824 4.833,217.918 4.833 C 218.115 4.833,219.924 6.584,220.417 7.253 C 220.600 7.501,220.881 7.825,221.042 7.973 C 221.202 8.120,221.333 8.320,221.333 8.417 C 221.333 8.513,221.483 8.721,221.667 8.878 C 221.850 9.035,222.000 9.306,222.000 9.481 C 222.000 9.655,222.105 9.838,222.234 9.888 C 222.363 9.937,222.518 10.202,222.578 10.477 C 222.639 10.752,222.796 11.066,222.927 11.176 C 223.059 11.285,223.167 11.571,223.168 11.812 C 223.168 12.053,223.318 12.475,223.500 12.750 C 223.683 13.027,223.832 13.532,223.832 13.881 C 223.833 14.228,223.965 14.712,224.125 14.957 C 224.384 15.352,224.417 15.889,224.417 19.743 C 224.417 23.609,224.385 24.128,224.125 24.495 C 223.965 24.722,223.833 25.191,223.833 25.538 C 223.833 25.884,223.683 26.448,223.500 26.790 C 223.317 27.132,223.167 27.572,223.167 27.769 C 223.167 27.965,223.062 28.213,222.934 28.319 C 222.806 28.425,222.654 28.764,222.596 29.073 C 222.538 29.382,222.380 29.677,222.245 29.729 C 222.110 29.780,222.000 29.975,222.000 30.161 C 222.000 30.348,221.850 30.650,221.667 30.833 C 221.483 31.017,221.333 31.230,221.333 31.308 C 221.333 31.385,221.183 31.584,221.000 31.750 C 220.817 31.916,220.667 32.136,220.667 32.239 C 220.667 32.512,218.046 35.134,217.481 35.426 C 217.216 35.563,217.000 35.744,217.000 35.829 C 217.000 35.982,216.554 36.263,215.553 36.741 C 215.261 36.881,214.979 37.065,214.926 37.151 C 214.873 37.237,214.611 37.356,214.343 37.415 C 214.075 37.473,213.767 37.629,213.658 37.761 C 213.549 37.892,213.249 38.000,212.991 38.000 C 212.734 38.000,212.408 38.116,212.267 38.257 C 212.125 38.399,211.613 38.556,211.130 38.606 C 210.646 38.657,209.987 38.819,209.667 38.966 C 208.436 39.530,194.187 39.421,193.609 38.843 C 193.513 38.746,193.166 38.667,192.839 38.667 C 192.512 38.667,191.965 38.517,191.623 38.333 C 191.281 38.150,190.877 38.000,190.726 38.000 C 190.461 38.000,188.672 37.200,188.500 37.004 C 188.454 36.952,188.210 36.819,187.958 36.709 C 187.706 36.598,187.500 36.431,187.500 36.337 C 187.500 36.243,187.394 36.167,187.264 36.167 C 186.625 36.167,182.500 31.976,182.500 31.326 C 182.500 31.238,182.423 31.167,182.330 31.167 C 182.236 31.167,182.069 30.960,181.958 30.708 C 181.847 30.456,181.716 30.212,181.666 30.167 C 181.459 29.976,180.667 28.281,180.666 28.026 C 180.665 27.874,180.515 27.525,180.333 27.250 C 180.151 26.975,180.002 26.522,180.001 26.244 C 180.000 25.965,179.850 25.443,179.667 25.083 C 179.404 24.568,179.333 24.100,179.333 22.881 C 179.333 21.960,179.266 21.333,179.167 21.333 C 179.068 21.333,179.000 20.726,179.000 19.843 C 179.000 19.024,179.075 18.307,179.167 18.250 C 179.258 18.193,179.333 17.457,179.333 16.613 C 179.333 15.397,179.403 14.949,179.667 14.456 C 179.850 14.114,180.000 13.581,180.000 13.271 C 180.000 12.961,180.111 12.616,180.246 12.504 C 180.381 12.392,180.542 12.026,180.605 11.692 C 180.668 11.357,180.841 10.896,180.991 10.667 C 181.508 9.875,181.672 9.582,181.852 9.125 C 181.951 8.873,182.103 8.667,182.188 8.667 C 182.274 8.667,182.392 8.535,182.450 8.375 C 182.685 7.728,185.174 5.014,185.542 5.004 C 185.610 5.002,185.801 4.869,185.964 4.708 C 186.429 4.252,188.321 3.000,188.547 2.999 C 188.659 2.998,188.975 2.849,189.250 2.667 C 189.525 2.485,189.932 2.335,190.154 2.334 C 190.375 2.334,190.691 2.212,190.855 2.064 C 191.019 1.915,191.512 1.755,191.952 1.708 C 192.391 1.662,192.847 1.546,192.965 1.452 C 193.616 0.935,209.562 0.842,210.341 1.351 M261.504 1.333 C 261.590 1.471,261.663 2.640,261.664 3.933 C 261.668 7.239,262.502 6.906,254.068 6.964 L 247.172 7.011 247.127 22.914 C 247.092 35.690,247.041 38.859,246.867 39.033 C 246.550 39.350,241.827 39.340,241.443 39.022 C 241.192 38.813,241.165 37.438,241.126 22.939 L 241.083 7.083 234.131 7.000 C 225.825 6.900,226.606 7.162,226.532 4.453 C 226.463 1.958,226.611 1.284,227.257 1.143 C 228.425 0.888,261.338 1.071,261.504 1.333 M298.708 1.175 L 299.333 1.349 299.333 3.837 L 299.333 6.326 298.882 6.621 C 298.463 6.896,297.495 6.922,285.007 7.000 L 271.583 7.083 271.541 20.073 C 271.507 30.354,271.542 33.090,271.707 33.195 C 271.822 33.268,278.008 33.329,285.452 33.331 C 298.663 33.333,298.992 33.341,299.161 33.656 C 299.258 33.837,299.333 35.074,299.333 36.481 L 299.333 38.984 298.708 39.158 C 298.022 39.349,267.135 39.376,266.250 39.187 L 265.750 39.080 265.750 20.167 L 265.750 1.253 266.250 1.146 C 267.135 0.957,298.022 0.985,298.708 1.175 M341.542 1.175 L 342.167 1.349 342.167 3.837 L 342.167 6.326 341.716 6.621 C 341.299 6.895,340.413 6.923,329.817 7.000 C 319.247 7.077,318.344 7.106,318.048 7.373 C 317.872 7.532,317.471 7.711,317.156 7.771 C 316.841 7.830,316.471 7.975,316.333 8.093 C 316.196 8.211,315.883 8.357,315.637 8.419 C 315.392 8.480,315.150 8.636,315.101 8.765 C 315.051 8.894,314.907 9.000,314.781 9.000 C 314.334 9.000,311.333 12.164,311.333 12.636 C 311.333 12.722,311.228 12.880,311.100 12.986 C 310.971 13.093,310.815 13.384,310.753 13.632 C 310.691 13.880,310.543 14.196,310.424 14.333 C 310.305 14.471,310.157 14.933,310.096 15.361 C 310.034 15.789,309.875 16.230,309.742 16.340 C 309.380 16.640,309.390 22.970,309.753 23.672 C 309.892 23.941,310.051 24.495,310.107 24.904 C 310.163 25.313,310.303 25.683,310.417 25.727 C 310.531 25.771,310.676 26.013,310.739 26.265 C 310.802 26.517,310.999 26.908,311.177 27.134 C 311.355 27.360,311.500 27.621,311.500 27.714 C 311.500 28.090,313.825 30.667,314.165 30.667 C 314.249 30.667,314.377 30.761,314.450 30.875 C 314.655 31.197,315.902 32.000,316.197 32.000 C 316.341 32.000,316.545 32.103,316.649 32.229 C 316.753 32.354,317.109 32.501,317.440 32.555 C 317.771 32.609,318.190 32.787,318.371 32.951 C 318.681 33.231,319.420 33.253,330.226 33.301 C 340.666 33.346,341.770 33.377,341.958 33.624 C 342.104 33.815,342.167 34.663,342.167 36.442 L 342.167 38.987 341.474 39.174 C 340.197 39.518,319.054 39.321,318.349 38.958 C 318.037 38.798,317.511 38.667,317.180 38.667 C 316.849 38.667,316.299 38.517,315.956 38.333 C 315.614 38.150,315.177 38.000,314.985 38.000 C 314.793 38.000,314.445 37.850,314.212 37.667 C 313.979 37.483,313.689 37.333,313.568 37.333 C 313.366 37.333,312.364 36.740,311.882 36.336 C 311.771 36.243,311.607 36.167,311.516 36.167 C 311.426 36.167,311.254 36.029,311.134 35.860 C 311.015 35.691,310.825 35.522,310.713 35.485 C 310.366 35.369,307.833 32.794,307.833 32.557 C 307.833 32.434,307.740 32.331,307.625 32.327 C 307.404 32.321,306.500 31.003,306.500 30.687 C 306.500 30.584,306.434 30.500,306.353 30.500 C 306.272 30.500,306.003 30.069,305.755 29.542 C 305.507 29.015,305.161 28.306,304.986 27.967 C 304.810 27.628,304.667 27.131,304.667 26.862 C 304.667 26.594,304.561 26.287,304.432 26.180 C 304.303 26.072,304.145 25.520,304.080 24.951 C 304.016 24.382,303.877 23.812,303.773 23.683 C 303.463 23.302,303.411 16.577,303.714 16.114 C 303.845 15.914,304.006 15.248,304.072 14.635 C 304.139 14.005,304.294 13.435,304.429 13.323 C 304.560 13.215,304.668 12.929,304.669 12.688 C 304.670 12.447,304.780 12.063,304.913 11.833 C 305.045 11.604,305.201 11.304,305.258 11.167 C 305.657 10.214,306.230 9.167,306.353 9.167 C 306.434 9.167,306.500 9.054,306.500 8.917 C 306.500 8.779,306.650 8.517,306.833 8.333 C 307.017 8.150,307.167 7.926,307.167 7.835 C 307.167 7.744,307.317 7.576,307.500 7.461 C 307.683 7.347,307.833 7.195,307.833 7.125 C 307.833 6.961,309.204 5.500,309.357 5.500 C 309.421 5.500,309.785 5.200,310.167 4.833 C 310.548 4.467,310.967 4.167,311.097 4.167 C 311.227 4.167,311.333 4.088,311.333 3.991 C 311.333 3.895,311.558 3.738,311.833 3.642 C 312.108 3.546,312.333 3.403,312.333 3.324 C 312.333 3.245,312.633 3.090,313.000 2.980 C 313.367 2.870,313.667 2.721,313.667 2.648 C 313.667 2.575,313.948 2.465,314.292 2.404 C 314.635 2.343,315.151 2.152,315.436 1.980 C 315.722 1.808,316.251 1.667,316.611 1.667 C 316.972 1.667,317.351 1.582,317.454 1.479 C 317.905 1.028,340.006 0.749,341.542 1.175 M379.724 1.312 C 379.957 1.505,380.000 1.911,380.000 3.933 L 380.000 6.326 379.549 6.621 C 379.142 6.888,378.440 6.925,372.258 7.000 L 365.417 7.083 365.333 22.833 C 365.272 34.519,365.199 38.669,365.053 38.917 C 364.790 39.362,359.939 39.437,359.663 39.000 C 359.566 38.847,359.504 32.580,359.503 22.875 L 359.500 7.000 352.555 7.000 C 346.326 7.000,345.578 6.972,345.305 6.724 C 344.853 6.315,344.841 1.443,345.292 1.178 C 345.781 0.890,379.374 1.021,379.724 1.312 M81.800 1.367 C 82.087 1.654,82.079 6.262,81.792 6.448 C 81.677 6.523,76.971 6.631,71.333 6.688 C 60.932 6.795,58.539 6.918,57.818 7.383 C 57.597 7.525,57.135 7.693,56.792 7.756 C 56.448 7.819,56.167 7.928,56.167 7.998 C 56.167 8.069,55.923 8.226,55.625 8.349 C 55.085 8.570,54.896 8.693,54.360 9.167 C 54.205 9.304,53.877 9.547,53.631 9.706 C 52.260 10.596,50.440 13.621,49.745 16.167 C 49.343 17.638,49.205 22.529,49.551 23.059 C 49.679 23.256,49.836 23.763,49.899 24.187 C 49.962 24.610,50.161 25.245,50.340 25.597 C 50.520 25.949,50.667 26.371,50.667 26.535 C 50.667 26.699,50.744 26.833,50.837 26.833 C 50.931 26.833,51.080 27.022,51.168 27.252 C 51.521 28.182,53.775 30.689,54.917 31.424 C 55.778 31.978,57.202 32.667,57.486 32.667 C 57.636 32.667,57.945 32.798,58.171 32.958 C 58.552 33.228,59.440 33.254,69.993 33.297 C 80.239 33.340,81.433 33.372,81.701 33.615 C 82.071 33.950,82.157 38.609,81.800 38.967 C 81.559 39.208,60.610 39.235,59.250 38.996 C 57.451 38.680,54.899 37.943,54.167 37.527 C 54.029 37.449,53.729 37.285,53.500 37.163 C 52.636 36.702,52.403 36.569,51.917 36.255 C 50.167 35.125,47.389 32.320,47.099 31.390 C 47.038 31.193,46.878 30.989,46.744 30.937 C 46.610 30.886,46.498 30.748,46.496 30.630 C 46.494 30.513,46.346 30.229,46.167 30.000 C 45.987 29.771,45.839 29.461,45.837 29.312 C 45.835 29.163,45.726 28.951,45.594 28.842 C 45.462 28.733,45.302 28.405,45.238 28.114 C 45.175 27.823,45.026 27.359,44.908 27.084 C 43.685 24.220,43.272 15.528,44.301 14.289 C 44.402 14.167,44.536 13.747,44.599 13.357 C 44.661 12.967,44.852 12.374,45.023 12.039 C 45.194 11.704,45.333 11.300,45.333 11.141 C 45.333 10.983,45.409 10.806,45.503 10.748 C 45.596 10.691,45.782 10.405,45.916 10.114 C 46.613 8.598,49.546 5.167,50.365 4.907 C 50.531 4.854,50.667 4.754,50.667 4.684 C 50.667 4.613,51.023 4.337,51.458 4.069 C 51.894 3.802,52.400 3.489,52.583 3.374 C 52.767 3.260,53.104 3.091,53.333 3.000 C 53.563 2.908,53.880 2.758,54.040 2.667 C 54.545 2.376,55.714 1.984,56.833 1.730 C 57.429 1.595,58.179 1.422,58.500 1.345 C 59.481 1.110,81.563 1.130,81.800 1.367 M194.669 7.117 C 194.166 7.155,193.641 7.289,193.502 7.414 C 193.363 7.539,193.025 7.694,192.750 7.759 C 192.475 7.825,192.137 7.975,192.000 8.093 C 191.862 8.211,191.547 8.358,191.299 8.420 C 191.050 8.482,190.760 8.638,190.653 8.766 C 190.546 8.895,190.381 9.000,190.285 9.000 C 190.190 9.000,189.993 9.116,189.847 9.258 C 189.702 9.400,189.190 9.881,188.708 10.328 C 188.227 10.774,187.833 11.221,187.833 11.320 C 187.833 11.419,187.772 11.500,187.696 11.500 C 187.531 11.500,186.734 12.691,186.585 13.162 C 186.526 13.348,186.411 13.500,186.330 13.500 C 186.248 13.500,186.131 13.781,186.069 14.125 C 186.007 14.469,185.873 14.900,185.771 15.083 C 185.083 16.324,184.570 21.428,185.056 22.199 C 185.189 22.410,185.349 23.085,185.411 23.698 C 185.476 24.336,185.626 24.897,185.762 25.010 C 185.893 25.119,186.000 25.393,186.000 25.619 C 186.000 25.846,186.150 26.221,186.333 26.455 C 186.517 26.688,186.667 27.018,186.667 27.189 C 186.667 27.360,186.729 27.500,186.805 27.500 C 186.881 27.500,187.192 27.883,187.495 28.351 C 188.093 29.274,189.375 30.667,189.626 30.667 C 189.712 30.667,189.917 30.817,190.083 31.000 C 190.249 31.183,190.488 31.333,190.614 31.333 C 190.741 31.333,190.884 31.439,190.934 31.568 C 190.984 31.698,191.225 31.853,191.470 31.915 C 191.716 31.976,192.029 32.122,192.167 32.240 C 192.304 32.358,192.707 32.499,193.062 32.554 C 193.417 32.608,193.857 32.787,194.038 32.951 C 194.533 33.399,209.431 33.415,209.681 32.968 C 209.773 32.804,210.148 32.640,210.581 32.575 C 210.989 32.514,211.405 32.364,211.506 32.243 C 211.607 32.121,211.910 31.973,212.178 31.914 C 212.447 31.855,212.667 31.736,212.667 31.649 C 212.667 31.563,212.854 31.420,213.083 31.333 C 213.313 31.246,213.500 31.103,213.500 31.015 C 213.500 30.928,213.657 30.806,213.848 30.745 C 214.265 30.613,215.790 29.066,215.926 28.637 C 215.979 28.470,216.088 28.333,216.169 28.333 C 216.319 28.333,216.615 27.856,217.096 26.833 C 217.247 26.512,217.440 26.206,217.525 26.153 C 217.609 26.100,217.723 25.762,217.778 25.403 C 217.833 25.044,217.978 24.635,218.100 24.494 C 218.776 23.710,218.750 15.832,218.071 15.450 C 217.940 15.377,217.833 15.089,217.833 14.810 C 217.833 14.531,217.683 14.112,217.500 13.879 C 217.317 13.646,217.167 13.313,217.167 13.139 C 217.167 12.965,217.057 12.781,216.923 12.729 C 216.789 12.678,216.629 12.474,216.569 12.276 C 216.444 11.872,216.417 11.840,214.922 10.313 C 214.327 9.707,213.614 9.116,213.337 9.002 C 213.060 8.887,212.833 8.733,212.833 8.660 C 212.833 8.586,212.603 8.476,212.322 8.414 C 212.041 8.352,211.774 8.205,211.728 8.087 C 211.683 7.969,211.356 7.826,211.002 7.770 C 210.647 7.713,210.226 7.535,210.066 7.375 C 209.780 7.089,197.677 6.887,194.669 7.117 M5.294 9.869 C 5.272 9.895,5.216 16.479,5.169 24.500 L 5.083 39.083 2.542 39.129 C 0.434 39.167,0.000 39.217,0.000 39.421 C 0.000 39.636,2.183 39.667,17.417 39.667 C 33.847 39.667,35.979 39.612,34.375 39.231 C 33.945 39.129,28.167 33.609,28.167 33.301 C 28.167 33.155,26.060 31.114,25.821 31.028 C 25.736 30.997,25.667 30.871,25.667 30.747 C 25.667 30.624,25.517 30.475,25.333 30.417 C 25.150 30.358,25.000 30.246,25.000 30.167 C 25.000 30.088,23.577 28.574,21.839 26.803 C 20.100 25.032,17.418 22.282,15.880 20.692 C 6.873 11.382,5.340 9.814,5.294 9.869 M297.243 16.937 C 298.141 17.282,298.389 21.399,297.561 22.227 L 297.121 22.667 286.613 22.667 L 276.105 22.667 275.719 22.304 C 274.984 21.613,275.217 17.157,276.000 16.941 C 276.409 16.828,296.949 16.824,297.243 16.937 " stroke="none" fill="#fbfbfb" fill-rule="evenodd"/>
		<path id="path3" d="M382.448 0.608 C 381.791 1.264,382.516 2.167,383.700 2.167 C 384.881 2.167,384.717 1.634,384.825 5.833 L 384.917 9.417 385.681 9.466 C 386.812 9.540,386.820 9.514,386.871 5.654 L 386.917 2.250 388.083 2.167 L 389.250 2.083 389.250 1.333 L 389.250 0.583 385.906 0.538 C 384.067 0.514,382.511 0.545,382.448 0.608 M390.075 0.711 C 390.031 0.827,390.014 2.834,390.039 5.170 L 390.083 9.417 390.804 9.469 C 391.960 9.552,392.000 9.458,392.000 6.702 C 392.000 5.369,392.049 4.326,392.108 4.386 C 392.242 4.520,392.799 6.049,393.002 6.844 C 393.086 7.171,393.269 7.659,393.410 7.928 C 393.550 8.197,393.665 8.543,393.666 8.696 C 393.671 10.222,395.916 9.593,396.345 7.946 C 396.609 6.934,397.117 5.664,397.374 5.375 C 397.516 5.214,397.669 4.933,397.713 4.750 C 397.758 4.567,397.803 5.470,397.814 6.758 C 397.837 9.567,398.015 9.826,399.625 9.395 L 400.000 9.294 400.000 5.000 L 400.000 0.706 399.625 0.605 C 397.811 0.119,397.150 0.512,396.509 2.460 C 396.229 3.309,395.927 4.134,395.837 4.294 C 395.748 4.453,395.593 4.907,395.495 5.302 C 395.261 6.235,394.682 6.253,394.465 5.333 C 394.390 5.012,394.243 4.602,394.139 4.420 C 394.035 4.239,393.852 3.752,393.733 3.337 C 393.288 1.787,392.896 0.808,392.660 0.659 C 392.279 0.418,390.171 0.461,390.075 0.711 M389.083 1.250 C 389.083 1.749,389.081 1.750,388.006 1.801 C 386.431 1.874,386.500 1.696,386.500 5.680 L 386.500 9.152 385.904 9.263 C 385.024 9.429,385.011 9.376,384.962 5.495 L 384.917 1.917 383.752 1.833 C 382.799 1.765,382.576 1.695,382.529 1.449 C 382.382 0.675,382.463 0.657,385.871 0.705 L 389.083 0.750 389.083 1.250 M392.444 0.913 C 392.637 1.048,392.847 1.438,392.912 1.782 C 392.976 2.125,393.135 2.610,393.264 2.861 C 393.394 3.112,393.500 3.447,393.500 3.606 C 393.500 3.765,393.645 4.200,393.821 4.572 C 393.998 4.945,394.226 5.569,394.328 5.958 C 394.602 7.006,395.667 6.912,395.667 5.839 C 395.667 5.604,395.805 5.150,395.974 4.831 C 396.144 4.511,396.334 4.025,396.397 3.750 C 396.460 3.475,396.618 3.025,396.747 2.750 C 396.877 2.475,397.026 2.042,397.079 1.787 C 397.239 1.018,397.749 0.641,398.551 0.699 L 399.250 0.750 399.250 5.000 L 399.250 9.250 398.750 9.250 L 398.250 9.250 398.210 6.833 C 398.167 4.322,398.093 3.667,397.850 3.667 C 397.616 3.667,396.345 6.569,396.064 7.745 C 395.641 9.513,394.179 9.938,393.905 8.373 C 393.845 8.030,393.693 7.586,393.568 7.386 C 393.443 7.186,393.266 6.736,393.176 6.386 C 392.235 2.722,391.667 2.891,391.667 6.834 C 391.667 9.353,391.638 9.428,390.739 9.259 L 390.167 9.152 390.167 5.070 C 390.167 0.994,390.167 0.989,390.542 0.839 C 391.123 0.605,392.056 0.641,392.444 0.913 M90.053 1.539 C 89.872 1.819,89.787 37.693,89.966 38.382 L 90.105 38.917 92.594 38.917 L 95.083 38.917 95.170 22.750 C 95.217 13.858,95.273 6.565,95.295 6.542 C 95.484 6.338,116.539 6.537,117.333 6.750 C 117.837 6.885,118.452 6.997,118.700 6.998 C 119.718 7.003,122.829 9.206,122.833 9.925 C 122.833 10.021,122.917 10.184,123.020 10.287 C 124.576 11.843,124.455 17.230,122.807 19.764 C 120.817 22.823,119.377 23.167,108.546 23.167 C 101.994 23.167,100.168 23.213,99.935 23.383 C 99.532 23.678,99.589 27.911,100.000 28.171 C 100.632 28.569,117.621 28.357,119.417 27.928 C 124.142 26.799,127.781 23.654,128.582 20.005 C 128.644 19.725,128.819 19.254,128.972 18.957 C 129.384 18.157,129.383 11.166,128.971 10.411 C 128.819 10.133,128.642 9.608,128.577 9.244 C 128.511 8.881,128.364 8.471,128.249 8.333 C 128.134 8.196,127.982 7.896,127.913 7.667 C 127.778 7.222,126.537 5.525,125.839 4.829 C 124.426 3.422,122.288 2.252,120.137 1.707 C 118.713 1.346,90.281 1.188,90.053 1.539 M134.329 1.761 C 134.106 2.347,134.108 37.991,134.331 38.577 L 134.495 39.009 136.865 38.963 C 139.235 38.917,139.235 38.917,139.351 38.500 C 139.415 38.271,139.474 31.055,139.483 22.464 C 139.500 7.094,139.505 6.842,139.829 6.669 C 140.402 6.362,161.614 6.549,163.167 6.874 C 165.896 7.446,167.460 8.730,168.359 11.138 C 169.209 13.413,168.806 19.124,167.732 20.015 C 167.604 20.121,167.500 20.289,167.500 20.389 C 167.500 20.637,166.146 22.000,165.900 22.000 C 165.791 22.000,165.662 22.105,165.612 22.234 C 165.563 22.363,165.275 22.523,164.972 22.589 C 164.669 22.656,164.236 22.832,164.010 22.980 C 163.647 23.218,162.468 23.260,153.932 23.333 L 144.265 23.417 144.149 23.833 C 143.901 24.726,143.984 27.960,144.262 28.238 C 144.493 28.469,145.474 28.500,152.536 28.500 L 160.547 28.500 160.982 28.967 C 161.408 29.424,162.974 31.099,167.909 36.375 L 170.365 39.000 173.839 39.000 C 177.119 39.000,177.936 38.890,177.382 38.523 C 177.294 38.465,177.144 38.275,177.050 38.102 C 176.955 37.929,174.618 35.520,171.856 32.748 C 166.616 27.489,166.565 27.427,167.267 27.160 C 173.186 24.910,176.263 14.635,172.930 8.250 C 172.786 7.975,172.668 7.693,172.668 7.623 C 172.662 6.978,170.279 4.362,168.833 3.417 C 165.612 1.310,165.837 1.333,148.848 1.333 L 134.492 1.333 134.329 1.761 M193.417 1.606 C 190.462 2.312,188.140 3.295,186.722 4.439 C 186.340 4.748,185.952 5.000,185.861 5.000 C 185.769 5.000,185.669 5.067,185.639 5.148 C 185.608 5.230,185.265 5.561,184.875 5.885 C 183.972 6.636,182.684 8.233,181.895 9.583 C 181.478 10.297,180.667 11.987,180.667 12.143 C 180.667 12.233,180.559 12.519,180.427 12.778 C 179.062 15.470,179.061 24.040,180.426 26.722 C 180.559 26.981,180.667 27.267,180.667 27.357 C 180.667 27.447,180.845 27.910,181.062 28.385 C 181.280 28.861,181.508 29.363,181.569 29.500 C 182.342 31.242,185.063 34.423,186.770 35.581 C 187.309 35.947,187.787 36.290,187.833 36.345 C 188.280 36.876,191.897 38.229,194.250 38.745 C 195.876 39.102,208.113 39.121,209.302 38.769 C 209.732 38.641,210.458 38.463,210.917 38.372 C 212.300 38.098,214.702 37.076,215.971 36.221 C 216.975 35.545,219.333 33.625,219.333 33.484 C 219.333 33.408,219.467 33.212,219.630 33.048 C 221.339 31.333,223.145 27.776,223.759 24.917 C 223.877 24.367,224.053 23.617,224.150 23.250 C 225.196 19.283,223.458 11.271,220.890 8.218 C 220.722 8.018,220.321 7.535,220.000 7.147 C 219.679 6.759,219.203 6.248,218.942 6.012 C 218.681 5.776,218.231 5.369,217.942 5.107 C 216.374 3.685,213.650 2.446,210.211 1.592 C 208.748 1.228,194.946 1.240,193.417 1.606 M226.944 1.444 C 226.737 1.652,226.818 6.085,227.033 6.300 C 227.182 6.449,228.998 6.500,234.173 6.500 L 241.113 6.500 241.307 6.925 C 241.449 7.237,241.500 11.496,241.500 23.073 C 241.500 37.258,241.526 38.808,241.764 38.899 C 241.909 38.954,243.035 39.000,244.268 39.000 L 246.508 39.000 246.671 38.572 C 246.772 38.306,246.833 32.313,246.833 22.645 C 246.833 12.279,246.890 7.038,247.006 6.822 C 247.172 6.512,247.426 6.500,254.017 6.500 C 258.412 6.500,260.970 6.438,261.178 6.327 C 261.542 6.132,261.665 2.623,261.337 1.761 L 261.175 1.333 244.115 1.333 C 234.732 1.333,227.006 1.383,226.944 1.444 M266.033 1.533 C 265.743 1.824,265.743 38.510,266.033 38.800 C 266.285 39.052,298.436 39.088,298.833 38.837 C 299.343 38.515,299.294 34.445,298.774 33.926 L 298.348 33.500 285.021 33.500 C 277.691 33.500,271.575 33.454,271.430 33.399 C 271.083 33.266,271.021 7.046,271.367 6.700 C 271.519 6.548,274.773 6.500,284.996 6.500 C 297.122 6.500,298.463 6.474,298.812 6.229 C 299.298 5.889,299.316 1.801,298.833 1.496 C 298.436 1.245,266.285 1.281,266.033 1.533 M318.000 1.594 C 317.679 1.715,317.229 1.819,317.000 1.825 C 316.454 1.838,313.539 2.891,312.833 3.330 C 312.696 3.416,312.246 3.688,311.833 3.936 C 310.096 4.978,308.025 6.972,306.920 8.667 C 306.100 9.924,304.833 12.482,304.833 12.882 C 304.833 13.032,304.724 13.402,304.590 13.703 C 303.922 15.207,303.481 20.113,303.837 22.083 C 303.920 22.542,304.071 23.476,304.174 24.160 C 304.277 24.843,304.467 25.609,304.597 25.860 C 304.727 26.111,304.833 26.432,304.833 26.574 C 304.833 27.027,306.496 30.598,306.992 31.212 C 307.083 31.324,307.523 31.868,307.970 32.420 C 308.864 33.525,311.458 36.000,311.723 36.000 C 311.815 36.000,312.009 36.106,312.154 36.235 C 313.036 37.025,316.265 38.260,318.667 38.727 C 320.301 39.044,341.181 39.144,341.667 38.837 C 342.106 38.559,342.131 34.533,341.697 33.996 L 341.363 33.583 329.973 33.499 L 318.583 33.415 317.750 33.018 C 317.292 32.800,316.581 32.468,316.171 32.281 C 313.546 31.080,310.698 27.839,309.992 25.250 C 309.917 24.975,309.743 24.443,309.604 24.067 C 309.028 22.505,309.117 16.761,309.735 15.583 C 309.880 15.308,309.998 14.959,309.999 14.807 C 310.000 14.546,310.799 12.845,311.005 12.667 C 311.058 12.621,311.282 12.283,311.503 11.917 C 312.510 10.244,315.666 7.671,316.717 7.666 C 316.827 7.665,317.142 7.545,317.417 7.400 C 318.723 6.707,320.273 6.611,331.073 6.552 C 340.566 6.500,341.422 6.472,341.714 6.207 C 342.135 5.826,342.094 1.767,341.667 1.496 C 341.247 1.231,318.714 1.324,318.000 1.594 M345.240 1.550 C 345.194 1.669,345.178 2.812,345.203 4.091 L 345.250 6.417 352.325 6.460 C 357.730 6.493,359.430 6.552,359.530 6.710 C 359.603 6.824,359.663 13.943,359.664 22.531 C 359.666 32.266,359.728 38.306,359.829 38.572 L 359.992 39.000 362.323 39.000 C 364.458 39.000,364.670 38.973,364.827 38.678 C 364.943 38.462,365.000 33.142,365.000 22.600 C 365.000 7.194,365.007 6.841,365.322 6.673 C 365.529 6.562,368.041 6.500,372.333 6.500 C 376.625 6.500,379.137 6.438,379.344 6.327 C 379.736 6.118,379.843 1.910,379.467 1.533 C 379.162 1.228,345.357 1.245,345.240 1.550 M117.930 1.672 C 118.178 1.766,118.952 1.921,119.649 2.017 C 120.346 2.112,121.067 2.286,121.250 2.402 C 121.433 2.519,121.787 2.664,122.036 2.725 C 124.479 3.327,127.968 7.251,128.429 9.917 C 128.493 10.283,128.647 10.786,128.772 11.033 C 129.093 11.668,129.095 17.449,128.775 18.216 C 128.651 18.513,128.497 19.104,128.433 19.531 C 128.369 19.957,128.216 20.390,128.093 20.492 C 127.969 20.595,127.819 20.938,127.760 21.256 C 127.700 21.574,127.576 21.833,127.484 21.833 C 127.391 21.833,127.238 22.058,127.142 22.333 C 127.046 22.608,126.905 22.833,126.828 22.833 C 126.752 22.833,126.644 22.977,126.588 23.152 C 126.289 24.095,123.006 26.633,121.692 26.937 C 121.449 26.994,121.071 27.152,120.853 27.288 C 119.921 27.872,100.657 28.348,100.307 27.796 C 100.032 27.363,100.140 23.546,100.430 23.434 C 100.575 23.379,104.648 23.333,109.480 23.333 C 115.545 23.333,118.322 23.278,118.447 23.153 C 118.545 23.055,118.945 22.902,119.335 22.814 C 120.929 22.456,123.261 20.311,123.598 18.892 C 123.661 18.630,123.833 18.277,123.981 18.107 C 124.389 17.638,124.381 11.847,123.971 11.392 C 123.818 11.222,123.642 10.880,123.580 10.632 C 123.518 10.384,123.362 10.093,123.234 9.986 C 123.105 9.880,123.000 9.697,123.000 9.580 C 123.000 8.896,120.531 7.245,118.500 6.571 C 117.352 6.190,95.676 5.979,95.236 6.345 C 95.035 6.511,95.000 8.928,95.000 22.423 C 95.000 31.159,94.954 38.425,94.899 38.570 C 94.712 39.056,90.404 38.952,90.272 38.458 C 90.140 37.968,90.140 2.365,90.272 1.875 L 90.372 1.500 103.925 1.500 C 112.822 1.500,117.633 1.559,117.930 1.672 M163.035 1.685 C 163.225 1.787,163.879 1.933,164.487 2.009 C 165.095 2.086,165.816 2.264,166.088 2.406 C 166.361 2.548,166.696 2.665,166.833 2.666 C 167.967 2.673,171.363 5.850,172.377 7.852 C 174.304 11.659,174.386 18.059,172.552 21.444 C 172.312 21.887,172.009 22.457,171.878 22.709 C 171.479 23.484,169.500 25.475,168.600 26.007 C 168.133 26.284,167.600 26.601,167.417 26.710 C 167.233 26.820,166.914 27.007,166.707 27.126 C 166.157 27.443,166.230 27.528,171.868 33.184 C 175.132 36.460,176.835 38.285,176.800 38.469 C 176.732 38.823,171.587 38.979,170.795 38.651 C 170.541 38.546,169.414 37.479,168.292 36.281 C 167.169 35.084,165.725 33.559,165.083 32.894 C 163.749 31.510,161.890 29.485,161.278 28.750 L 160.862 28.250 152.598 28.204 L 144.333 28.158 144.333 26.176 C 144.333 25.086,144.379 24.075,144.434 23.930 C 144.525 23.695,145.452 23.667,153.194 23.667 C 161.879 23.667,163.868 23.561,164.578 23.064 C 164.759 22.937,165.029 22.833,165.178 22.833 C 165.327 22.833,165.584 22.683,165.750 22.500 C 165.916 22.317,166.124 22.167,166.212 22.167 C 166.469 22.167,167.608 20.953,167.738 20.542 C 167.803 20.335,167.921 20.167,168.000 20.167 C 168.079 20.167,168.196 19.998,168.259 19.792 C 168.322 19.585,168.529 19.079,168.719 18.667 C 169.268 17.478,169.253 12.285,168.698 11.083 C 167.944 9.453,167.816 9.237,167.286 8.708 C 166.390 7.814,166.200 7.664,165.631 7.408 C 165.330 7.273,164.971 7.097,164.833 7.017 C 164.448 6.794,163.203 6.492,161.942 6.316 C 160.572 6.125,139.678 6.189,139.375 6.385 C 139.211 6.491,139.166 9.861,139.164 22.302 C 139.163 30.982,139.117 38.252,139.062 38.458 C 138.910 39.025,135.486 39.035,134.886 38.471 L 134.500 38.109 134.500 20.190 L 134.500 2.271 134.862 1.886 L 135.225 1.500 148.957 1.500 C 158.711 1.500,162.789 1.554,163.035 1.685 M209.500 1.827 C 210.884 2.055,212.812 2.576,213.583 2.929 C 213.858 3.055,214.271 3.235,214.500 3.330 C 214.729 3.425,215.292 3.727,215.750 4.001 C 216.208 4.275,216.680 4.546,216.799 4.603 C 217.970 5.172,221.667 9.359,221.667 10.117 C 221.667 10.213,221.772 10.380,221.900 10.486 C 222.029 10.593,222.185 10.884,222.247 11.132 C 222.309 11.380,222.456 11.696,222.575 11.833 C 222.694 11.971,222.845 12.381,222.910 12.744 C 222.975 13.108,223.135 13.610,223.264 13.861 C 223.394 14.112,223.500 14.580,223.500 14.903 C 223.500 15.225,223.629 15.847,223.787 16.286 C 224.194 17.415,224.193 21.661,223.786 23.077 C 223.629 23.623,223.500 24.357,223.500 24.708 C 223.500 25.059,223.350 25.641,223.167 26.000 C 222.983 26.359,222.833 26.835,222.833 27.056 C 222.833 27.278,222.723 27.551,222.588 27.663 C 222.453 27.775,222.294 28.122,222.236 28.433 C 222.177 28.745,222.068 29.000,221.993 29.000 C 221.917 29.000,221.805 29.169,221.742 29.375 C 221.518 30.117,218.693 33.997,218.373 34.002 C 218.305 34.003,217.912 34.306,217.500 34.674 C 217.088 35.043,216.675 35.400,216.583 35.469 C 215.727 36.111,212.639 37.666,212.217 37.668 C 212.052 37.668,211.709 37.777,211.455 37.910 C 210.163 38.583,196.796 39.259,196.105 38.685 C 196.001 38.598,195.195 38.447,194.314 38.349 C 193.433 38.251,192.495 38.057,192.231 37.919 C 191.966 37.782,191.598 37.668,191.412 37.668 C 191.226 37.667,190.926 37.564,190.745 37.439 C 190.565 37.314,190.229 37.154,190.000 37.085 C 188.075 36.498,183.691 32.736,182.707 30.824 C 182.591 30.600,182.348 30.192,182.167 29.917 C 181.768 29.310,181.500 28.717,181.500 28.439 C 181.500 28.326,181.427 28.160,181.337 28.070 C 181.117 27.851,180.531 26.147,180.253 24.917 C 180.128 24.367,179.947 23.617,179.850 23.250 C 179.529 22.029,179.629 17.089,180.004 15.678 C 180.185 14.997,180.333 14.275,180.333 14.074 C 180.333 13.873,180.487 13.343,180.676 12.896 C 181.240 11.556,181.678 10.598,181.846 10.333 C 181.933 10.196,182.086 9.877,182.185 9.625 C 182.285 9.373,182.422 9.167,182.491 9.167 C 182.560 9.167,182.683 9.023,182.766 8.848 C 182.938 8.484,183.875 7.319,184.511 6.680 C 185.685 5.500,186.131 5.161,188.421 3.708 C 188.602 3.593,188.938 3.424,189.167 3.333 C 189.396 3.241,189.733 3.079,189.917 2.971 C 190.100 2.863,190.512 2.719,190.833 2.651 C 191.154 2.582,191.717 2.411,192.083 2.270 C 192.450 2.130,193.050 2.010,193.417 2.005 C 193.783 1.999,194.421 1.888,194.833 1.757 C 195.804 1.448,207.545 1.504,209.500 1.827 M260.810 1.892 C 261.152 2.256,261.175 2.419,261.131 4.183 L 261.083 6.083 253.945 6.167 C 247.122 6.246,246.796 6.264,246.570 6.574 C 246.370 6.847,246.333 9.298,246.333 22.543 C 246.333 33.009,246.276 38.295,246.161 38.511 C 245.856 39.080,242.293 38.992,242.027 38.409 C 241.884 38.096,241.833 33.836,241.833 22.252 C 241.833 9.849,241.789 6.491,241.625 6.385 C 241.510 6.311,238.229 6.212,234.333 6.167 L 227.250 6.083 227.203 4.103 C 227.133 1.151,224.869 1.500,244.080 1.500 L 260.442 1.500 260.810 1.892 M298.486 1.966 C 298.603 2.250,298.660 3.143,298.631 4.257 L 298.583 6.083 284.917 6.167 C 277.400 6.212,271.156 6.311,271.042 6.385 C 270.769 6.561,270.734 33.170,271.006 33.678 C 271.174 33.992,271.502 34.000,284.723 34.000 C 295.035 34.000,298.314 34.048,298.467 34.200 C 298.731 34.464,298.736 37.832,298.473 38.409 L 298.280 38.833 282.563 38.833 L 266.846 38.833 266.506 38.469 C 265.970 37.893,265.970 2.440,266.506 1.865 L 266.846 1.500 282.570 1.500 L 298.293 1.500 298.486 1.966 M341.319 1.966 C 341.437 2.250,341.493 3.143,341.464 4.257 L 341.417 6.083 330.583 6.171 C 320.796 6.250,319.690 6.287,319.130 6.546 C 318.790 6.704,318.351 6.833,318.156 6.833 C 317.800 6.833,317.620 6.903,315.755 7.756 C 313.518 8.780,311.773 10.570,310.265 13.390 C 310.028 13.834,309.833 14.273,309.833 14.365 C 309.833 14.457,309.721 14.769,309.585 15.058 C 308.874 16.561,308.487 20.480,308.892 22.083 C 309.031 22.633,309.189 23.421,309.242 23.833 C 309.296 24.246,309.443 24.808,309.569 25.083 C 311.514 29.320,312.628 30.658,315.718 32.463 C 316.067 32.667,316.443 32.833,316.554 32.833 C 316.664 32.833,317.035 32.983,317.377 33.167 C 317.719 33.350,318.243 33.503,318.541 33.507 C 318.839 33.511,319.383 33.623,319.750 33.755 C 320.303 33.954,322.178 33.995,330.758 33.997 C 338.577 33.999,341.149 34.049,341.300 34.200 C 341.564 34.464,341.569 37.832,341.307 38.409 L 341.113 38.833 331.046 38.833 C 325.028 38.833,320.859 38.770,320.683 38.675 C 320.521 38.589,319.670 38.444,318.793 38.354 C 317.915 38.265,316.969 38.073,316.690 37.929 C 316.411 37.785,316.056 37.667,315.902 37.667 C 315.747 37.667,315.312 37.523,314.935 37.347 C 314.558 37.171,314.137 36.984,314.000 36.931 C 313.712 36.821,313.506 36.696,311.917 35.670 C 310.187 34.553,308.167 32.458,307.067 30.642 C 306.031 28.929,305.000 26.650,305.000 26.071 C 305.000 25.839,304.874 25.410,304.719 25.117 C 303.963 23.683,303.975 16.081,304.736 14.297 C 304.881 13.956,305.000 13.521,305.000 13.330 C 305.000 13.139,305.143 12.705,305.318 12.366 C 305.493 12.027,305.917 11.168,306.259 10.457 C 306.601 9.745,307.057 8.958,307.273 8.707 C 307.489 8.456,307.666 8.197,307.666 8.133 C 307.667 8.068,307.835 7.839,308.042 7.624 C 308.248 7.408,308.573 7.049,308.765 6.824 C 309.249 6.258,310.255 5.402,311.157 4.789 C 311.575 4.505,311.954 4.230,312.000 4.178 C 312.046 4.126,312.458 3.905,312.917 3.688 C 313.375 3.471,314.027 3.152,314.366 2.980 C 314.705 2.808,315.118 2.666,315.283 2.666 C 315.448 2.665,315.791 2.557,316.044 2.424 C 316.297 2.292,317.122 2.096,317.877 1.988 C 318.632 1.880,319.362 1.728,319.500 1.651 C 319.637 1.573,324.560 1.508,330.438 1.505 L 341.126 1.500 341.319 1.966 M379.152 1.966 C 379.270 2.250,379.327 3.143,379.298 4.257 L 379.250 6.083 372.167 6.167 C 368.271 6.212,364.990 6.311,364.875 6.385 C 364.711 6.491,364.666 9.861,364.664 22.302 C 364.663 30.982,364.617 38.252,364.562 38.458 C 364.410 39.025,360.986 39.035,360.386 38.471 L 360.000 38.109 360.000 22.314 C 360.000 9.862,359.956 6.491,359.792 6.385 C 359.677 6.311,356.396 6.212,352.500 6.167 L 345.417 6.083 345.367 4.333 C 345.339 3.371,345.361 2.340,345.416 2.042 L 345.515 1.500 362.237 1.500 L 378.960 1.500 379.152 1.966 M195.917 6.337 C 193.771 6.700,192.390 7.119,191.500 7.677 C 191.362 7.764,191.080 7.908,190.873 7.997 C 190.214 8.282,189.449 8.883,188.324 9.999 C 187.347 10.969,186.977 11.418,186.417 12.313 C 186.325 12.460,186.119 12.759,185.958 12.979 C 185.798 13.199,185.667 13.546,185.667 13.752 C 185.667 13.958,185.558 14.216,185.425 14.327 C 185.292 14.437,185.132 14.870,185.069 15.288 C 185.006 15.707,184.853 16.244,184.728 16.483 C 184.404 17.104,184.406 22.787,184.731 23.564 C 184.858 23.868,185.014 24.424,185.078 24.799 C 185.141 25.174,185.299 25.569,185.430 25.677 C 185.560 25.786,185.667 26.042,185.667 26.248 C 185.667 26.454,185.817 26.812,186.000 27.045 C 186.183 27.279,186.333 27.542,186.333 27.631 C 186.333 27.777,187.208 28.953,188.083 29.982 C 188.586 30.574,190.824 32.333,191.074 32.333 C 191.194 32.333,191.386 32.446,191.500 32.583 C 191.614 32.721,191.830 32.834,191.979 32.834 C 192.128 32.835,192.468 32.949,192.735 33.088 C 194.894 34.214,209.342 34.295,210.732 33.188 C 210.833 33.107,211.104 32.985,211.333 32.918 C 212.185 32.666,215.245 30.614,215.464 30.148 C 215.491 30.093,215.774 29.755,216.095 29.398 C 216.594 28.843,218.000 26.625,218.000 26.393 C 218.000 26.350,218.142 26.000,218.315 25.616 C 218.488 25.231,218.684 24.579,218.750 24.167 C 218.817 23.754,218.956 23.311,219.061 23.183 C 219.383 22.785,219.423 17.953,219.111 17.113 C 218.968 16.730,218.801 16.117,218.740 15.750 C 218.679 15.383,218.535 14.932,218.420 14.748 C 218.305 14.563,218.158 14.174,218.094 13.884 C 218.031 13.594,217.871 13.267,217.739 13.158 C 217.608 13.049,217.500 12.879,217.500 12.780 C 217.500 12.436,216.578 11.239,215.362 10.008 C 214.159 8.789,213.922 8.602,212.917 8.085 C 212.642 7.944,212.304 7.757,212.167 7.670 C 211.595 7.307,210.322 6.833,209.920 6.833 C 209.683 6.833,209.210 6.708,208.870 6.556 C 208.168 6.241,197.542 6.062,195.917 6.337 M208.686 6.869 C 209.567 7.016,210.430 7.213,210.602 7.307 C 210.775 7.402,211.367 7.682,211.917 7.929 C 214.064 8.895,217.333 12.029,217.333 13.122 C 217.333 13.216,217.446 13.386,217.583 13.500 C 217.721 13.614,217.833 13.831,217.833 13.981 C 217.833 14.132,217.983 14.535,218.167 14.877 C 218.350 15.219,218.500 15.694,218.500 15.934 C 218.500 16.173,218.617 16.820,218.760 17.371 C 219.440 19.995,218.430 25.805,216.957 27.750 C 215.102 30.198,214.839 30.462,213.165 31.549 C 210.305 33.404,209.437 33.538,200.750 33.463 C 194.443 33.408,194.227 33.395,193.467 33.036 C 193.037 32.833,192.600 32.667,192.496 32.667 C 191.806 32.667,187.833 29.711,187.833 29.198 C 187.833 29.098,187.731 28.957,187.606 28.883 C 187.481 28.810,187.237 28.496,187.064 28.187 C 186.579 27.316,186.419 27.054,186.222 26.809 C 186.122 26.685,185.989 26.396,185.926 26.167 C 185.862 25.938,185.707 25.525,185.582 25.250 C 184.832 23.611,184.421 19.431,184.828 17.583 C 185.228 15.771,185.933 13.570,186.243 13.167 C 186.349 13.029,186.523 12.710,186.631 12.458 C 186.738 12.206,186.903 12.000,186.996 12.000 C 187.090 12.000,187.167 11.898,187.167 11.774 C 187.167 11.649,187.832 10.906,188.646 10.122 C 190.566 8.271,192.532 7.270,194.969 6.905 C 195.842 6.774,196.595 6.627,196.643 6.579 C 196.860 6.362,207.124 6.609,208.686 6.869 M275.926 17.537 C 275.517 18.121,275.553 21.679,275.971 22.058 C 276.339 22.390,296.565 22.488,297.178 22.161 C 297.470 22.004,297.500 21.794,297.500 19.900 C 297.500 16.806,298.928 17.167,286.670 17.167 L 276.186 17.167 275.926 17.537 M297.167 19.835 L 297.167 22.002 286.625 21.960 L 276.083 21.917 276.036 20.010 C 276.010 18.962,276.026 18.005,276.072 17.885 C 276.140 17.708,278.150 17.667,286.661 17.667 L 297.167 17.667 297.167 19.835 " stroke="none" fill="#8c94ac" fill-rule="evenodd"/>
		<path id="path4" d="M382.272 0.375 C 381.863 1.901,382.252 2.500,383.651 2.500 L 384.660 2.500 384.705 6.042 L 384.750 9.583 385.682 9.633 C 387.001 9.702,386.986 9.745,387.038 5.904 L 387.083 2.583 388.078 2.532 C 389.467 2.461,389.805 1.907,389.395 0.375 C 389.236 -0.217,382.430 -0.217,382.272 0.375 M389.867 0.553 C 389.576 1.357,389.588 8.995,389.880 9.395 C 390.158 9.775,391.844 9.726,391.972 9.333 C 392.041 9.123,392.012 9.118,391.789 9.302 C 391.634 9.430,391.226 9.499,390.804 9.469 L 390.083 9.417 390.083 5.000 L 390.083 0.583 391.209 0.534 C 392.845 0.462,392.937 0.565,393.733 3.337 C 393.852 3.752,394.035 4.239,394.139 4.420 C 394.243 4.602,394.390 5.012,394.465 5.333 C 394.682 6.253,395.261 6.235,395.495 5.302 C 395.593 4.907,395.749 4.450,395.841 4.287 C 395.933 4.124,396.243 3.277,396.530 2.405 C 397.145 0.532,397.275 0.427,398.861 0.541 C 400.075 0.628,400.132 0.608,399.762 0.238 C 398.942 -0.582,396.667 0.226,396.667 1.337 C 396.667 1.588,396.556 1.884,396.421 1.996 C 396.286 2.108,396.132 2.474,396.078 2.808 C 396.024 3.143,395.879 3.604,395.755 3.833 C 395.632 4.063,395.478 4.531,395.413 4.875 C 395.243 5.784,394.711 5.751,394.562 4.822 C 394.503 4.449,394.358 4.049,394.241 3.932 C 394.124 3.814,393.976 3.372,393.913 2.948 C 393.849 2.524,393.693 2.091,393.565 1.985 C 393.438 1.879,393.333 1.614,393.333 1.395 C 393.333 0.544,392.511 0.000,391.224 0.000 L 390.067 0.000 389.867 0.553 M389.250 1.333 L 389.250 2.083 388.083 2.167 L 386.917 2.250 386.871 5.654 C 386.820 9.514,386.812 9.540,385.681 9.466 L 384.917 9.417 384.825 5.833 C 384.717 1.634,384.881 2.167,383.700 2.167 C 382.600 2.167,382.333 1.986,382.333 1.244 C 382.333 0.479,382.281 0.490,385.906 0.538 L 389.250 0.583 389.250 1.333 M1.469 1.063 C 0.341 1.734,-0.416 2.833,0.250 2.833 C 0.388 2.833,0.500 2.722,0.500 2.586 C 0.500 1.791,1.425 1.250,2.783 1.250 C 4.383 1.250,3.920 0.897,8.583 5.667 C 10.600 7.730,15.400 12.640,19.250 16.577 C 23.100 20.515,27.565 25.058,29.173 26.674 C 30.781 28.289,32.334 29.899,32.624 30.251 L 33.153 30.892 33.326 30.435 C 33.442 30.131,33.500 25.187,33.500 15.651 L 33.500 1.324 35.792 1.370 L 38.083 1.417 38.128 19.083 C 38.177 38.180,38.195 37.758,37.284 38.630 C 36.597 39.289,34.834 39.297,33.987 38.644 C 33.308 38.121,30.056 34.915,29.016 33.743 C 28.613 33.289,26.151 30.742,23.545 28.083 C 16.675 21.076,10.929 15.154,7.000 11.035 C 5.838 9.816,5.361 9.419,5.208 9.541 C 5.045 9.672,4.999 12.781,4.997 24.062 C 4.996 31.957,4.933 38.515,4.856 38.635 C 4.700 38.882,0.817 38.856,0.292 38.604 C 0.061 38.494,-0.000 38.539,-0.000 38.820 C -0.000 39.169,0.044 39.175,2.542 39.129 L 5.083 39.083 5.169 24.500 C 5.216 16.479,5.272 9.895,5.294 9.869 C 5.340 9.814,6.873 11.382,15.880 20.692 C 17.418 22.282,20.100 25.032,21.839 26.803 C 23.577 28.574,25.000 30.088,25.000 30.167 C 25.000 30.246,25.150 30.358,25.333 30.417 C 25.517 30.475,25.667 30.624,25.667 30.747 C 25.667 30.871,25.736 30.997,25.821 31.028 C 26.060 31.114,28.167 33.155,28.167 33.301 C 28.167 33.609,33.945 39.129,34.375 39.231 C 34.627 39.291,34.833 39.413,34.833 39.503 C 34.833 39.593,35.208 39.667,35.667 39.667 C 36.125 39.667,36.500 39.597,36.500 39.513 C 36.500 39.428,36.756 39.275,37.068 39.172 C 37.456 39.044,37.722 38.804,37.906 38.416 C 38.054 38.103,38.249 37.802,38.338 37.747 C 38.601 37.584,38.556 1.221,38.292 1.056 C 37.690 0.680,33.719 0.786,33.439 1.185 C 33.192 1.538,33.167 2.916,33.167 15.990 L 33.167 30.405 32.708 29.859 C 32.456 29.558,30.825 27.869,29.083 26.105 C 19.897 16.799,12.833 9.592,12.833 9.524 C 12.833 9.452,6.616 3.108,5.333 1.870 C 4.088 0.669,2.641 0.367,1.469 1.063 M89.950 1.337 L 89.500 1.691 89.500 20.167 L 89.500 38.642 89.939 38.988 C 90.433 39.377,94.358 39.510,95.011 39.161 C 95.326 38.992,95.333 38.636,95.333 22.985 L 95.333 6.982 107.129 7.032 L 118.925 7.083 119.402 7.458 C 119.664 7.665,120.018 7.833,120.189 7.833 C 120.360 7.833,120.639 7.965,120.809 8.125 C 120.979 8.285,121.354 8.603,121.643 8.832 C 121.931 9.060,122.167 9.341,122.167 9.457 C 122.167 9.572,122.241 9.667,122.331 9.667 C 122.422 9.667,122.601 9.920,122.731 10.230 C 122.860 10.539,123.049 10.844,123.150 10.906 C 123.251 10.969,123.334 11.184,123.334 11.385 C 123.335 11.586,123.447 11.965,123.584 12.227 C 123.936 12.902,123.931 16.940,123.578 17.407 C 123.443 17.585,123.333 17.937,123.333 18.189 C 123.333 18.441,123.251 18.698,123.150 18.761 C 123.049 18.823,122.860 19.127,122.731 19.437 C 122.601 19.747,122.427 20.000,122.342 20.000 C 122.258 20.000,122.142 20.150,122.083 20.333 C 122.025 20.517,121.870 20.667,121.739 20.667 C 121.607 20.667,121.500 20.779,121.500 20.917 C 121.500 21.054,121.392 21.167,121.259 21.167 C 121.127 21.167,120.921 21.305,120.801 21.473 C 120.681 21.642,120.359 21.835,120.085 21.903 C 119.811 21.971,119.536 22.108,119.475 22.208 C 119.253 22.566,117.458 22.643,109.033 22.654 C 99.766 22.668,99.628 22.681,99.405 23.570 C 99.195 24.407,99.401 28.170,99.667 28.337 C 100.103 28.612,118.826 28.545,119.360 28.267 C 119.604 28.139,120.181 27.983,120.643 27.920 C 121.105 27.856,121.571 27.698,121.679 27.569 C 121.786 27.439,122.042 27.333,122.248 27.333 C 122.454 27.333,122.801 27.194,123.019 27.023 C 123.238 26.852,123.578 26.662,123.776 26.600 C 123.974 26.538,124.178 26.378,124.229 26.244 C 124.281 26.110,124.413 26.000,124.522 26.000 C 124.632 26.000,124.841 25.888,124.986 25.751 C 125.398 25.363,126.312 24.443,126.561 24.167 C 127.039 23.634,127.963 22.212,128.082 21.824 C 128.150 21.600,128.300 21.304,128.415 21.167 C 128.530 21.029,128.673 20.643,128.733 20.308 C 128.793 19.974,128.953 19.608,129.088 19.496 C 129.260 19.353,129.327 18.988,129.313 18.271 L 129.292 17.250 129.164 18.128 C 129.093 18.611,128.961 19.099,128.870 19.211 C 128.780 19.324,128.652 19.663,128.588 19.965 C 127.803 23.634,124.164 26.794,119.417 27.928 C 117.621 28.357,100.632 28.569,100.000 28.171 C 99.589 27.911,99.532 23.678,99.935 23.383 C 100.168 23.213,101.994 23.167,108.546 23.167 C 119.377 23.167,120.817 22.823,122.807 19.764 C 124.455 17.230,124.576 11.843,123.020 10.287 C 122.917 10.184,122.833 10.021,122.833 9.925 C 122.829 9.206,119.718 7.003,118.700 6.998 C 118.452 6.997,117.837 6.885,117.333 6.750 C 116.539 6.537,95.484 6.338,95.295 6.542 C 95.273 6.565,95.217 13.858,95.170 22.750 L 95.083 38.917 92.591 38.917 L 90.098 38.917 89.982 38.500 C 89.831 37.956,89.831 2.378,89.982 1.833 L 90.098 1.417 104.508 1.417 C 119.930 1.418,120.058 1.424,121.839 2.261 C 123.595 3.086,123.982 3.301,124.667 3.829 C 126.048 4.896,127.715 6.887,127.924 7.718 C 127.984 7.957,128.138 8.240,128.266 8.347 C 128.395 8.454,128.503 8.700,128.507 8.895 C 128.511 9.090,128.632 9.550,128.776 9.917 C 128.920 10.283,129.094 10.958,129.162 11.417 L 129.286 12.250 129.310 11.291 C 129.326 10.615,129.235 10.149,129.000 9.710 C 128.817 9.368,128.667 8.924,128.667 8.723 C 128.667 8.522,128.564 8.255,128.439 8.129 C 128.313 8.004,128.155 7.727,128.088 7.513 C 127.739 6.414,125.173 3.500,124.554 3.500 C 124.433 3.500,124.333 3.426,124.333 3.336 C 124.333 3.245,124.080 3.065,123.770 2.936 C 123.461 2.807,123.156 2.618,123.094 2.517 C 123.031 2.416,122.828 2.333,122.641 2.333 C 122.455 2.333,122.112 2.183,121.879 2.000 C 121.620 1.796,121.203 1.667,120.805 1.667 C 120.447 1.667,119.955 1.535,119.710 1.375 C 119.296 1.104,118.247 1.080,104.832 1.033 L 90.400 0.983 89.950 1.337 M134.667 1.119 C 134.438 1.164,134.195 1.286,134.128 1.392 C 133.943 1.680,133.976 38.704,134.161 38.996 C 134.451 39.455,138.796 39.462,139.374 39.005 L 139.832 38.644 139.874 22.864 L 139.917 7.083 152.053 7.083 C 163.330 7.083,164.202 7.104,164.350 7.368 C 164.437 7.525,164.770 7.702,165.088 7.762 C 165.406 7.822,165.667 7.935,165.667 8.014 C 165.667 8.093,165.873 8.270,166.125 8.406 C 166.377 8.542,166.771 8.927,167.000 9.260 C 167.229 9.594,167.548 10.009,167.708 10.184 C 167.869 10.358,168.000 10.708,168.000 10.963 C 168.000 11.218,168.131 11.611,168.292 11.838 C 168.777 12.524,168.818 16.883,168.348 17.804 C 168.157 18.180,168.000 18.673,168.000 18.900 C 168.000 19.128,167.917 19.365,167.816 19.427 C 167.715 19.490,167.527 19.794,167.397 20.104 C 167.268 20.413,167.088 20.667,166.998 20.667 C 166.907 20.667,166.833 20.779,166.833 20.917 C 166.833 21.054,166.764 21.167,166.679 21.167 C 166.593 21.167,166.401 21.290,166.250 21.441 C 165.774 21.916,164.830 22.500,164.534 22.501 C 164.378 22.502,164.025 22.633,163.750 22.793 C 163.293 23.058,162.431 23.087,153.757 23.130 C 142.443 23.186,143.667 22.849,143.667 25.909 C 143.667 28.107,143.762 28.500,144.295 28.500 C 144.475 28.500,144.468 28.444,144.262 28.238 C 143.984 27.960,143.901 24.726,144.149 23.833 L 144.265 23.417 153.932 23.333 C 162.468 23.260,163.647 23.218,164.010 22.980 C 164.236 22.832,164.669 22.656,164.972 22.589 C 165.275 22.523,165.563 22.363,165.612 22.234 C 165.662 22.105,165.791 22.000,165.900 22.000 C 166.146 22.000,167.500 20.637,167.500 20.389 C 167.500 20.289,167.604 20.121,167.732 20.015 C 168.806 19.124,169.209 13.413,168.359 11.138 C 167.460 8.730,165.896 7.446,163.167 6.874 C 161.614 6.549,140.402 6.362,139.829 6.669 C 139.505 6.842,139.500 7.094,139.483 22.464 C 139.474 31.055,139.415 38.271,139.351 38.500 C 139.235 38.917,139.235 38.917,136.865 38.963 L 134.495 39.009 134.331 38.577 C 134.108 37.991,134.106 2.347,134.329 1.761 L 134.492 1.333 148.848 1.333 C 165.837 1.333,165.612 1.310,168.833 3.417 C 170.279 4.362,172.662 6.978,172.668 7.623 C 172.668 7.693,172.786 7.975,172.930 8.250 C 174.575 11.401,174.594 19.318,172.961 21.296 C 172.865 21.412,172.840 21.562,172.907 21.629 C 173.096 21.818,173.500 21.151,173.500 20.649 C 173.500 20.399,173.588 20.165,173.696 20.129 C 173.804 20.093,173.992 19.431,174.115 18.657 C 174.670 15.158,174.704 14.738,174.526 13.571 C 174.050 10.441,173.876 9.598,173.696 9.538 C 173.588 9.502,173.500 9.264,173.500 9.009 C 173.500 8.754,173.350 8.354,173.167 8.121 C 172.983 7.888,172.833 7.543,172.833 7.355 C 172.833 7.166,172.692 6.936,172.519 6.844 C 172.346 6.751,172.161 6.498,172.106 6.282 C 172.000 5.857,170.209 3.956,169.407 3.417 C 168.677 2.926,168.296 2.701,167.833 2.488 C 167.604 2.382,167.108 2.154,166.732 1.981 C 166.355 1.808,165.846 1.667,165.601 1.667 C 165.356 1.667,164.955 1.535,164.710 1.375 C 164.278 1.092,136.039 0.851,134.667 1.119 M194.215 1.156 C 193.646 1.225,193.083 1.358,192.965 1.452 C 192.847 1.546,192.391 1.662,191.952 1.708 C 191.512 1.755,191.019 1.915,190.855 2.064 C 190.691 2.212,190.375 2.334,190.154 2.334 C 189.932 2.335,189.525 2.485,189.250 2.667 C 188.975 2.849,188.659 2.998,188.547 2.999 C 188.321 3.000,186.429 4.252,185.964 4.708 C 185.801 4.869,185.610 5.002,185.542 5.004 C 185.174 5.014,182.685 7.728,182.450 8.375 C 182.392 8.535,182.274 8.667,182.188 8.667 C 182.103 8.667,181.951 8.873,181.852 9.125 C 181.672 9.582,181.508 9.875,180.991 10.667 C 180.841 10.896,180.668 11.357,180.605 11.692 C 180.542 12.026,180.381 12.392,180.246 12.504 C 180.104 12.621,180.007 12.964,180.017 13.312 L 180.034 13.917 180.166 13.360 C 180.238 13.053,180.381 12.719,180.482 12.618 C 180.584 12.516,180.667 12.331,180.667 12.206 C 180.667 12.000,181.410 10.414,181.895 9.583 C 182.684 8.233,183.972 6.636,184.875 5.885 C 185.265 5.561,185.608 5.230,185.639 5.148 C 185.669 5.067,185.769 5.000,185.861 5.000 C 185.952 5.000,186.340 4.748,186.722 4.439 C 188.184 3.260,190.636 2.234,193.500 1.604 C 195.297 1.209,208.630 1.199,210.211 1.592 C 213.650 2.446,216.374 3.685,217.942 5.107 C 218.231 5.369,218.681 5.776,218.942 6.012 C 219.203 6.248,219.679 6.759,220.000 7.147 C 220.321 7.535,220.722 8.018,220.890 8.218 C 222.083 9.636,223.171 12.169,223.993 15.437 C 224.378 16.967,224.479 22.002,224.150 23.250 C 224.053 23.617,223.877 24.367,223.759 24.917 C 223.145 27.776,221.339 31.333,219.630 33.048 C 219.467 33.212,219.333 33.408,219.333 33.484 C 219.333 33.625,216.975 35.545,215.971 36.221 C 214.702 37.076,212.300 38.098,210.917 38.372 C 210.458 38.463,209.732 38.641,209.302 38.769 C 208.113 39.121,195.876 39.102,194.250 38.745 C 191.897 38.229,188.280 36.876,187.833 36.345 C 187.787 36.290,187.309 35.947,186.770 35.581 C 185.063 34.423,182.342 31.242,181.569 29.500 C 181.508 29.363,181.280 28.861,181.062 28.385 C 180.845 27.910,180.667 27.418,180.667 27.294 C 180.667 27.169,180.584 26.984,180.482 26.882 C 180.381 26.781,180.238 26.447,180.166 26.140 L 180.034 25.583 180.018 26.167 C 180.009 26.494,180.148 26.970,180.333 27.250 C 180.515 27.525,180.665 27.874,180.666 28.026 C 180.667 28.281,181.459 29.976,181.666 30.167 C 181.716 30.212,181.847 30.456,181.958 30.708 C 182.069 30.960,182.236 31.167,182.330 31.167 C 182.423 31.167,182.500 31.238,182.500 31.326 C 182.500 31.976,186.625 36.167,187.264 36.167 C 187.394 36.167,187.500 36.243,187.500 36.337 C 187.500 36.431,187.706 36.598,187.958 36.709 C 188.210 36.819,188.454 36.952,188.500 37.004 C 188.672 37.200,190.461 38.000,190.726 38.000 C 190.877 38.000,191.281 38.150,191.623 38.333 C 191.965 38.517,192.512 38.667,192.839 38.667 C 193.166 38.667,193.513 38.746,193.609 38.843 C 194.187 39.421,208.436 39.530,209.667 38.966 C 209.987 38.819,210.646 38.657,211.130 38.606 C 211.613 38.556,212.125 38.399,212.267 38.257 C 212.408 38.116,212.734 38.000,212.991 38.000 C 213.249 38.000,213.549 37.892,213.658 37.761 C 213.767 37.629,214.075 37.473,214.343 37.415 C 214.611 37.356,214.873 37.237,214.926 37.151 C 214.979 37.065,215.261 36.881,215.553 36.741 C 216.554 36.263,217.000 35.982,217.000 35.829 C 217.000 35.744,217.216 35.563,217.481 35.426 C 218.046 35.134,220.667 32.512,220.667 32.239 C 220.667 32.136,220.817 31.916,221.000 31.750 C 221.183 31.584,221.333 31.385,221.333 31.308 C 221.333 31.230,221.483 31.017,221.667 30.833 C 221.850 30.650,222.000 30.348,222.000 30.161 C 222.000 29.975,222.110 29.780,222.245 29.729 C 222.380 29.677,222.538 29.382,222.596 29.073 C 222.654 28.764,222.806 28.425,222.934 28.319 C 223.062 28.213,223.167 27.965,223.167 27.769 C 223.167 27.572,223.317 27.132,223.500 26.790 C 223.683 26.448,223.833 25.884,223.833 25.538 C 223.833 25.191,223.965 24.722,224.125 24.495 C 224.385 24.128,224.417 23.609,224.417 19.743 C 224.417 15.889,224.384 15.352,224.125 14.957 C 223.965 14.712,223.833 14.228,223.832 13.881 C 223.832 13.532,223.683 13.027,223.500 12.750 C 223.318 12.475,223.168 12.053,223.168 11.812 C 223.167 11.571,223.059 11.285,222.927 11.176 C 222.796 11.066,222.639 10.752,222.578 10.477 C 222.518 10.202,222.363 9.937,222.234 9.888 C 222.105 9.838,222.000 9.655,222.000 9.481 C 222.000 9.306,221.850 9.035,221.667 8.878 C 221.483 8.721,221.333 8.513,221.333 8.417 C 221.333 8.320,221.202 8.120,221.042 7.973 C 220.881 7.825,220.600 7.501,220.417 7.253 C 219.924 6.584,218.115 4.833,217.918 4.833 C 217.824 4.833,217.653 4.683,217.539 4.500 C 217.424 4.317,217.256 4.167,217.165 4.167 C 217.074 4.167,216.850 4.017,216.667 3.833 C 216.483 3.650,216.191 3.500,216.018 3.500 C 215.844 3.500,215.659 3.388,215.606 3.250 C 215.554 3.113,215.413 3.000,215.294 3.000 C 215.176 3.000,214.799 2.850,214.456 2.667 C 214.114 2.483,213.671 2.333,213.472 2.333 C 213.273 2.333,212.973 2.210,212.806 2.059 C 212.640 1.908,212.109 1.747,211.627 1.701 C 211.145 1.655,210.566 1.497,210.341 1.351 C 209.889 1.056,196.381 0.893,194.215 1.156 M227.257 1.143 C 226.611 1.284,226.463 1.958,226.532 4.453 C 226.606 7.162,225.825 6.900,234.131 7.000 L 241.083 7.083 241.126 22.939 C 241.165 37.438,241.192 38.813,241.443 39.022 C 241.827 39.340,246.550 39.350,246.867 39.033 C 247.041 38.859,247.092 35.690,247.127 22.914 L 247.172 7.011 254.068 6.964 C 262.502 6.906,261.668 7.239,261.664 3.933 C 261.663 2.640,261.590 1.471,261.504 1.333 C 261.338 1.071,228.425 0.888,227.257 1.143 M266.250 1.146 L 265.750 1.253 265.750 20.167 L 265.750 39.080 266.250 39.187 C 267.135 39.376,298.022 39.349,298.708 39.158 L 299.333 38.984 299.333 36.481 C 299.333 35.074,299.258 33.837,299.161 33.656 C 298.992 33.341,298.663 33.333,285.452 33.331 C 278.008 33.329,271.822 33.268,271.707 33.195 C 271.542 33.090,271.507 30.354,271.541 20.073 L 271.583 7.083 285.007 7.000 C 297.495 6.922,298.463 6.896,298.882 6.621 L 299.333 6.326 299.333 3.837 L 299.333 1.349 298.708 1.175 C 298.022 0.985,267.135 0.957,266.250 1.146 M318.612 1.168 C 318.078 1.236,317.557 1.376,317.454 1.479 C 317.351 1.582,316.972 1.667,316.611 1.667 C 316.251 1.667,315.722 1.808,315.436 1.980 C 315.151 2.152,314.635 2.343,314.292 2.404 C 313.948 2.465,313.667 2.575,313.667 2.648 C 313.667 2.721,313.367 2.870,313.000 2.980 C 312.633 3.090,312.333 3.245,312.333 3.324 C 312.333 3.403,312.108 3.546,311.833 3.642 C 311.558 3.738,311.333 3.895,311.333 3.991 C 311.333 4.088,311.227 4.167,311.097 4.167 C 310.967 4.167,310.548 4.467,310.167 4.833 C 309.785 5.200,309.421 5.500,309.357 5.500 C 309.204 5.500,307.833 6.961,307.833 7.125 C 307.833 7.195,307.683 7.347,307.500 7.461 C 307.317 7.576,307.167 7.744,307.167 7.835 C 307.167 7.926,307.017 8.150,306.833 8.333 C 306.650 8.517,306.500 8.779,306.500 8.917 C 306.500 9.054,306.434 9.167,306.353 9.167 C 306.230 9.167,305.657 10.214,305.258 11.167 C 305.201 11.304,305.045 11.604,304.913 11.833 C 304.780 12.063,304.670 12.447,304.669 12.688 C 304.668 12.929,304.560 13.215,304.429 13.323 C 304.294 13.435,304.139 14.005,304.072 14.635 C 304.006 15.248,303.845 15.914,303.714 16.114 C 303.411 16.577,303.463 23.302,303.773 23.683 C 303.877 23.812,304.016 24.382,304.080 24.951 C 304.145 25.520,304.303 26.072,304.432 26.180 C 304.561 26.287,304.667 26.594,304.667 26.862 C 304.667 27.131,304.810 27.628,304.986 27.967 C 305.161 28.306,305.507 29.015,305.755 29.542 C 306.003 30.069,306.272 30.500,306.353 30.500 C 306.434 30.500,306.500 30.584,306.500 30.687 C 306.500 31.003,307.404 32.321,307.625 32.327 C 307.740 32.331,307.833 32.434,307.833 32.557 C 307.833 32.794,310.366 35.369,310.713 35.485 C 310.825 35.522,311.015 35.691,311.134 35.860 C 311.254 36.029,311.426 36.167,311.516 36.167 C 311.607 36.167,311.771 36.243,311.882 36.336 C 312.364 36.740,313.366 37.333,313.568 37.333 C 313.689 37.333,313.979 37.483,314.212 37.667 C 314.445 37.850,314.793 38.000,314.985 38.000 C 315.177 38.000,315.614 38.150,315.956 38.333 C 316.299 38.517,316.849 38.667,317.180 38.667 C 317.511 38.667,318.037 38.798,318.349 38.958 C 319.054 39.321,340.197 39.518,341.474 39.174 L 342.167 38.987 342.167 36.442 C 342.167 34.663,342.104 33.815,341.958 33.624 C 341.770 33.377,340.666 33.346,330.226 33.301 C 319.420 33.253,318.681 33.231,318.371 32.951 C 318.190 32.787,317.771 32.609,317.440 32.555 C 317.109 32.501,316.753 32.354,316.649 32.229 C 316.545 32.103,316.341 32.000,316.197 32.000 C 315.902 32.000,314.655 31.197,314.450 30.875 C 314.377 30.761,314.249 30.667,314.165 30.667 C 313.825 30.667,311.500 28.090,311.500 27.714 C 311.500 27.621,311.355 27.360,311.177 27.134 C 310.999 26.908,310.802 26.517,310.739 26.265 C 310.676 26.013,310.531 25.771,310.417 25.727 C 310.303 25.683,310.163 25.313,310.107 24.904 C 310.051 24.495,309.892 23.941,309.753 23.672 C 309.390 22.970,309.380 16.640,309.742 16.340 C 309.875 16.230,310.034 15.789,310.096 15.361 C 310.157 14.933,310.305 14.471,310.424 14.333 C 310.543 14.196,310.691 13.880,310.753 13.632 C 310.815 13.384,310.971 13.093,311.100 12.986 C 311.228 12.880,311.333 12.722,311.333 12.636 C 311.333 12.164,314.334 9.000,314.781 9.000 C 314.907 9.000,315.051 8.894,315.101 8.765 C 315.150 8.636,315.392 8.480,315.637 8.419 C 315.883 8.357,316.196 8.211,316.333 8.093 C 316.471 7.975,316.841 7.830,317.156 7.771 C 317.471 7.711,317.872 7.532,318.048 7.373 C 318.344 7.106,319.247 7.077,329.817 7.000 C 340.413 6.923,341.299 6.895,341.716 6.621 L 342.167 6.326 342.167 3.837 L 342.167 1.349 341.542 1.175 C 340.819 0.975,320.176 0.968,318.612 1.168 M345.292 1.178 C 344.841 1.443,344.853 6.315,345.305 6.724 C 345.578 6.972,346.326 7.000,352.555 7.000 L 359.500 7.000 359.503 22.875 C 359.504 32.580,359.566 38.847,359.663 39.000 C 359.939 39.437,364.790 39.362,365.053 38.917 C 365.199 38.669,365.272 34.519,365.333 22.833 L 365.417 7.083 372.258 7.000 C 378.440 6.925,379.142 6.888,379.549 6.621 L 380.000 6.326 380.000 3.933 C 380.000 1.911,379.957 1.505,379.724 1.312 C 379.374 1.021,345.781 0.890,345.292 1.178 M58.500 1.345 C 58.179 1.422,57.429 1.595,56.833 1.730 C 55.714 1.984,54.545 2.376,54.040 2.667 C 53.880 2.758,53.563 2.908,53.333 3.000 C 53.104 3.091,52.767 3.260,52.583 3.374 C 52.400 3.489,51.894 3.802,51.458 4.069 C 51.023 4.337,50.667 4.613,50.667 4.684 C 50.667 4.754,50.531 4.854,50.365 4.907 C 49.546 5.167,46.613 8.598,45.916 10.114 C 45.782 10.405,45.596 10.691,45.503 10.748 C 45.409 10.806,45.333 10.983,45.333 11.141 C 45.333 11.300,45.194 11.704,45.023 12.039 C 44.852 12.374,44.661 12.967,44.599 13.357 C 44.536 13.747,44.402 14.167,44.301 14.289 C 43.272 15.528,43.685 24.220,44.908 27.084 C 45.026 27.359,45.175 27.823,45.238 28.114 C 45.302 28.405,45.462 28.733,45.594 28.842 C 45.726 28.951,45.835 29.163,45.837 29.312 C 45.839 29.461,45.987 29.771,46.167 30.000 C 46.346 30.229,46.494 30.513,46.496 30.630 C 46.498 30.748,46.610 30.886,46.744 30.937 C 46.878 30.989,47.038 31.193,47.099 31.390 C 47.389 32.320,50.167 35.125,51.917 36.255 C 52.403 36.569,52.636 36.702,53.500 37.163 C 53.729 37.285,54.029 37.449,54.167 37.527 C 54.899 37.943,57.451 38.680,59.250 38.996 C 60.610 39.235,81.559 39.208,81.800 38.967 C 82.157 38.609,82.071 33.950,81.701 33.615 C 81.433 33.372,80.239 33.340,69.993 33.297 C 59.440 33.254,58.552 33.228,58.171 32.958 C 57.945 32.798,57.636 32.667,57.486 32.667 C 57.202 32.667,55.778 31.978,54.917 31.424 C 53.775 30.689,51.521 28.182,51.168 27.252 C 51.080 27.022,50.931 26.833,50.837 26.833 C 50.744 26.833,50.667 26.699,50.667 26.535 C 50.667 26.371,50.520 25.949,50.340 25.597 C 50.161 25.245,49.962 24.610,49.899 24.187 C 49.836 23.763,49.679 23.256,49.551 23.059 C 49.205 22.529,49.343 17.638,49.745 16.167 C 50.440 13.621,52.260 10.596,53.631 9.706 C 53.877 9.547,54.205 9.304,54.360 9.167 C 54.896 8.693,55.085 8.570,55.625 8.349 C 55.923 8.226,56.167 8.069,56.167 7.998 C 56.167 7.928,56.448 7.819,56.792 7.756 C 57.135 7.693,57.597 7.525,57.818 7.383 C 58.539 6.918,60.932 6.795,71.333 6.688 C 76.971 6.631,81.677 6.523,81.792 6.448 C 82.079 6.262,82.087 1.654,81.800 1.367 C 81.563 1.130,59.481 1.110,58.500 1.345 M261.337 1.761 C 261.665 2.623,261.542 6.132,261.178 6.327 C 260.970 6.438,258.412 6.500,254.017 6.500 C 247.426 6.500,247.172 6.512,247.006 6.822 C 246.890 7.038,246.833 12.279,246.833 22.645 C 246.833 32.313,246.772 38.306,246.671 38.572 L 246.508 39.000 244.268 39.000 C 243.035 39.000,241.909 38.954,241.764 38.899 C 241.526 38.808,241.500 37.258,241.500 23.073 C 241.500 11.496,241.449 7.237,241.307 6.925 L 241.113 6.500 234.173 6.500 C 228.998 6.500,227.182 6.449,227.033 6.300 C 226.818 6.085,226.737 1.652,226.944 1.444 C 227.006 1.383,234.732 1.333,244.115 1.333 L 261.175 1.333 261.337 1.761 M298.833 1.496 C 299.316 1.801,299.298 5.889,298.812 6.229 C 298.463 6.474,297.122 6.500,284.996 6.500 C 274.773 6.500,271.519 6.548,271.367 6.700 C 271.021 7.046,271.083 33.266,271.430 33.399 C 271.575 33.454,277.691 33.500,285.021 33.500 L 298.348 33.500 298.774 33.926 C 299.294 34.445,299.343 38.515,298.833 38.837 C 298.436 39.088,266.285 39.052,266.033 38.800 C 265.743 38.510,265.743 1.824,266.033 1.533 C 266.285 1.281,298.436 1.245,298.833 1.496 M341.667 1.496 C 342.094 1.767,342.135 5.826,341.714 6.207 C 341.422 6.472,340.566 6.500,331.073 6.552 C 320.273 6.611,318.723 6.707,317.417 7.400 C 317.142 7.545,316.827 7.665,316.717 7.666 C 315.666 7.671,312.510 10.244,311.503 11.917 C 311.282 12.283,311.058 12.621,311.005 12.667 C 310.799 12.845,310.000 14.546,309.999 14.807 C 309.998 14.959,309.880 15.308,309.735 15.583 C 309.117 16.761,309.028 22.505,309.604 24.067 C 309.743 24.443,309.917 24.975,309.992 25.250 C 310.698 27.839,313.546 31.080,316.171 32.281 C 316.581 32.468,317.292 32.800,317.750 33.018 L 318.583 33.415 329.973 33.499 L 341.363 33.583 341.697 33.996 C 342.131 34.533,342.106 38.559,341.667 38.837 C 341.181 39.144,320.301 39.044,318.667 38.727 C 316.265 38.260,313.036 37.025,312.154 36.235 C 312.009 36.106,311.815 36.000,311.723 36.000 C 311.458 36.000,308.864 33.525,307.970 32.420 C 307.523 31.868,307.083 31.324,306.992 31.212 C 306.496 30.598,304.833 27.027,304.833 26.574 C 304.833 26.432,304.727 26.111,304.597 25.860 C 304.467 25.609,304.277 24.843,304.174 24.160 C 304.071 23.476,303.920 22.542,303.837 22.083 C 303.481 20.113,303.922 15.207,304.590 13.703 C 304.724 13.402,304.833 13.032,304.833 12.882 C 304.833 12.482,306.100 9.924,306.920 8.667 C 308.025 6.972,310.096 4.978,311.833 3.936 C 312.246 3.688,312.696 3.416,312.833 3.330 C 313.539 2.891,316.454 1.838,317.000 1.825 C 317.229 1.819,317.679 1.715,318.000 1.594 C 318.714 1.324,341.247 1.231,341.667 1.496 M379.467 1.533 C 379.843 1.910,379.736 6.118,379.344 6.327 C 379.137 6.438,376.625 6.500,372.333 6.500 C 368.041 6.500,365.529 6.562,365.322 6.673 C 365.007 6.841,365.000 7.194,365.000 22.600 C 365.000 33.142,364.943 38.462,364.827 38.678 C 364.670 38.973,364.458 39.000,362.323 39.000 L 359.992 39.000 359.829 38.572 C 359.728 38.306,359.666 32.266,359.664 22.531 C 359.663 13.943,359.603 6.824,359.530 6.710 C 359.430 6.552,357.730 6.493,352.325 6.460 L 345.250 6.417 345.203 4.091 C 345.178 2.812,345.194 1.669,345.240 1.550 C 345.357 1.245,379.162 1.228,379.467 1.533 M81.467 1.700 C 81.886 2.120,81.731 6.146,81.292 6.246 C 81.085 6.294,76.192 6.357,70.417 6.388 C 58.713 6.451,58.817 6.441,56.236 7.674 C 45.147 12.966,47.205 31.005,59.183 33.512 C 60.601 33.809,61.488 33.833,70.870 33.833 C 77.549 33.833,81.132 33.892,81.344 34.006 C 81.764 34.230,81.842 38.314,81.433 38.653 C 81.121 38.912,60.280 38.797,58.611 38.527 C 52.539 37.544,47.189 32.916,45.192 26.917 C 44.236 24.045,44.251 24.160,44.251 19.833 C 44.250 16.919,44.314 15.535,44.472 15.000 C 45.489 11.564,46.185 10.027,47.568 8.167 C 50.011 4.882,54.125 2.406,58.065 1.848 C 58.690 1.759,59.244 1.645,59.295 1.593 C 59.500 1.389,81.260 1.494,81.467 1.700 M392.000 4.806 C 392.000 5.096,392.075 5.333,392.167 5.333 C 392.258 5.333,392.333 5.512,392.333 5.730 C 392.333 5.948,392.436 6.211,392.562 6.315 C 392.687 6.420,392.831 6.810,392.881 7.182 C 392.931 7.554,393.091 7.991,393.236 8.151 C 393.381 8.312,393.500 8.628,393.500 8.855 C 393.500 9.471,393.806 9.667,394.769 9.667 C 395.771 9.667,396.500 9.038,396.500 8.174 C 396.500 7.918,396.609 7.617,396.742 7.507 C 396.875 7.396,397.033 6.975,397.094 6.571 C 397.275 5.362,397.500 5.913,397.500 7.567 C 397.500 9.470,397.646 9.667,399.055 9.667 C 399.575 9.667,400.000 9.595,400.000 9.508 C 400.000 9.415,399.654 9.390,399.170 9.447 C 397.876 9.601,397.837 9.523,397.814 6.771 C 397.803 5.476,397.758 4.567,397.713 4.750 C 397.669 4.933,397.516 5.214,397.374 5.375 C 397.117 5.664,396.609 6.934,396.345 7.946 C 395.916 9.593,393.671 10.222,393.666 8.696 C 393.665 8.543,393.550 8.197,393.410 7.928 C 393.269 7.659,393.086 7.171,393.002 6.844 C 392.550 5.080,392.000 3.961,392.000 4.806 M196.643 6.579 C 196.595 6.627,195.842 6.774,194.969 6.905 C 192.532 7.270,190.566 8.271,188.646 10.122 C 187.832 10.906,187.167 11.649,187.167 11.774 C 187.167 11.898,187.090 12.000,186.996 12.000 C 186.903 12.000,186.738 12.206,186.631 12.458 C 186.523 12.710,186.349 13.029,186.243 13.167 C 185.933 13.570,185.228 15.771,184.828 17.583 C 184.421 19.431,184.832 23.611,185.582 25.250 C 185.707 25.525,185.862 25.938,185.926 26.167 C 185.989 26.396,186.122 26.685,186.222 26.809 C 186.419 27.054,186.579 27.316,187.064 28.187 C 187.237 28.496,187.481 28.810,187.606 28.883 C 187.731 28.957,187.833 29.098,187.833 29.198 C 187.833 29.711,191.806 32.667,192.496 32.667 C 192.600 32.667,193.037 32.833,193.467 33.036 C 195.113 33.814,208.477 33.655,210.748 32.831 C 213.131 31.967,214.793 30.607,216.957 27.750 C 218.430 25.805,219.440 19.995,218.760 17.371 C 218.617 16.820,218.500 16.173,218.500 15.934 C 218.500 15.694,218.350 15.219,218.167 14.877 L 217.833 14.255 217.833 14.786 C 217.833 15.078,217.940 15.377,218.071 15.450 C 218.750 15.832,218.776 23.710,218.100 24.494 C 217.978 24.635,217.833 25.044,217.778 25.403 C 217.723 25.762,217.609 26.100,217.525 26.153 C 217.440 26.206,217.247 26.512,217.096 26.833 C 216.615 27.856,216.319 28.333,216.169 28.333 C 216.088 28.333,215.979 28.470,215.926 28.637 C 215.790 29.066,214.265 30.613,213.848 30.745 C 213.657 30.806,213.500 30.928,213.500 31.015 C 213.500 31.103,213.313 31.246,213.083 31.333 C 212.854 31.420,212.667 31.563,212.667 31.649 C 212.667 31.736,212.447 31.855,212.178 31.914 C 211.910 31.973,211.607 32.121,211.506 32.243 C 211.405 32.364,210.989 32.514,210.581 32.575 C 210.148 32.640,209.773 32.804,209.681 32.968 C 209.431 33.415,194.533 33.399,194.038 32.951 C 193.857 32.787,193.417 32.608,193.062 32.554 C 192.707 32.499,192.304 32.358,192.167 32.240 C 192.029 32.122,191.716 31.976,191.470 31.915 C 191.225 31.853,190.984 31.698,190.934 31.568 C 190.884 31.439,190.741 31.333,190.614 31.333 C 190.488 31.333,190.249 31.183,190.083 31.000 C 189.917 30.817,189.712 30.667,189.626 30.667 C 189.375 30.667,188.093 29.274,187.495 28.351 C 187.192 27.883,186.881 27.500,186.805 27.500 C 186.729 27.500,186.667 27.360,186.667 27.189 C 186.667 27.018,186.517 26.688,186.333 26.455 C 186.150 26.221,186.000 25.846,186.000 25.619 C 186.000 25.393,185.893 25.119,185.762 25.010 C 185.626 24.897,185.476 24.336,185.411 23.698 C 185.349 23.085,185.189 22.410,185.056 22.199 C 184.570 21.428,185.083 16.324,185.771 15.083 C 185.873 14.900,186.007 14.469,186.069 14.125 C 186.131 13.781,186.248 13.500,186.330 13.500 C 186.411 13.500,186.526 13.348,186.585 13.162 C 186.734 12.691,187.531 11.500,187.696 11.500 C 187.772 11.500,187.833 11.419,187.833 11.320 C 187.833 11.221,188.227 10.774,188.708 10.328 C 189.190 9.881,189.702 9.400,189.847 9.258 C 189.993 9.116,190.190 9.000,190.285 9.000 C 190.381 9.000,190.546 8.895,190.653 8.766 C 190.760 8.638,191.050 8.482,191.299 8.420 C 191.547 8.358,191.862 8.211,192.000 8.093 C 192.137 7.975,192.475 7.825,192.750 7.759 C 193.025 7.694,193.389 7.515,193.559 7.362 C 194.044 6.925,209.627 6.937,210.065 7.375 C 210.226 7.535,210.647 7.713,211.002 7.770 C 211.356 7.826,211.683 7.969,211.728 8.087 C 211.774 8.205,212.041 8.352,212.322 8.414 C 212.603 8.476,212.833 8.586,212.833 8.660 C 212.833 8.733,213.060 8.887,213.337 9.002 C 213.614 9.116,214.327 9.707,214.922 10.313 C 216.417 11.840,216.444 11.872,216.569 12.276 C 216.629 12.474,216.789 12.678,216.923 12.729 C 217.057 12.781,217.167 12.967,217.167 13.143 C 217.167 13.555,217.820 14.381,217.828 13.979 C 217.831 13.830,217.721 13.614,217.583 13.500 C 217.446 13.386,217.333 13.216,217.333 13.122 C 217.333 12.029,214.064 8.895,211.917 7.929 C 211.367 7.682,210.775 7.402,210.602 7.307 C 209.621 6.771,197.105 6.117,196.643 6.579 M129.333 14.595 C 129.333 16.508,129.359 16.697,129.578 16.407 C 129.930 15.941,129.935 12.958,129.583 12.667 C 129.363 12.484,129.333 12.715,129.333 14.595 M179.616 14.539 C 179.408 14.975,179.340 15.526,179.358 16.609 L 179.384 18.083 179.494 16.833 C 179.554 16.146,179.699 15.301,179.815 14.957 C 180.104 14.101,179.963 13.806,179.616 14.539 M276.000 16.941 C 275.217 17.157,274.984 21.613,275.719 22.304 L 276.105 22.667 286.613 22.667 L 297.121 22.667 297.561 22.227 C 298.389 21.399,298.141 17.282,297.243 16.937 C 296.949 16.824,276.409 16.828,276.000 16.941 M297.327 17.489 C 297.669 18.127,297.546 21.964,297.178 22.161 C 296.565 22.488,276.339 22.390,275.971 22.058 C 275.553 21.679,275.517 18.121,275.926 17.537 L 276.186 17.167 286.670 17.167 C 296.866 17.167,297.160 17.176,297.327 17.489 M179.111 18.278 C 178.929 18.460,178.981 21.333,179.167 21.333 C 179.266 21.333,179.333 20.694,179.333 19.750 C 179.333 18.166,179.319 18.070,179.111 18.278 M179.359 22.880 C 179.341 23.907,179.413 24.529,179.602 24.964 C 179.922 25.701,180.120 25.397,179.826 24.621 C 179.713 24.325,179.568 23.483,179.503 22.750 L 179.385 21.417 179.359 22.880 M172.265 22.694 C 171.420 24.204,168.738 26.601,167.267 27.160 C 166.565 27.427,166.616 27.489,171.856 32.748 C 174.618 35.520,176.955 37.929,177.050 38.102 C 177.144 38.275,177.294 38.465,177.382 38.523 C 177.936 38.890,177.119 39.000,173.839 39.000 L 170.365 39.000 167.909 36.375 C 163.262 31.407,161.416 29.433,160.957 28.941 C 160.704 28.669,160.454 28.490,160.402 28.543 C 160.350 28.595,160.763 29.101,161.320 29.667 C 161.877 30.233,162.333 30.722,162.333 30.754 C 162.333 30.786,163.045 31.548,163.914 32.448 C 164.783 33.347,165.496 34.121,165.498 34.167 C 165.500 34.212,166.363 35.146,167.417 36.241 C 168.471 37.336,169.333 38.287,169.333 38.355 C 169.333 38.422,169.483 38.525,169.667 38.583 C 169.850 38.642,170.000 38.787,170.000 38.906 C 170.000 39.301,175.685 39.522,177.250 39.187 C 178.339 38.954,178.119 38.677,171.875 32.412 C 166.800 27.320,166.950 27.504,167.625 27.199 C 168.955 26.599,169.538 26.174,170.792 24.893 C 171.548 24.121,172.167 23.402,172.167 23.297 C 172.167 23.191,172.323 22.938,172.515 22.734 C 172.707 22.530,172.838 22.242,172.807 22.095 C 172.771 21.927,172.569 22.151,172.265 22.694 " stroke="none" fill="#c4ccd4" fill-rule="evenodd"/>
	</g>
</svg>