<svg xmlns="http://www.w3.org/2000/svg" viewBox="0 0 300 300">
<g>
	<g>
		<path fill="#10BBD3" d="M53.7,174.3H19.3c-3.7,0-6.8-3-6.8-6.8v-34.4c0-3.7,3-6.8,6.8-6.8h34.4c3.7,0,6.8,3,6.8,6.8v5.5h-3.3v-5.5
			c0-1.9-1.5-3.4-3.4-3.4H19.3c-1.9,0-3.4,1.5-3.4,3.4v34.4c0,1.9,1.5,3.4,3.4,3.4h34.4c1.9,0,3.4-1.5,3.4-3.4v-5.5h3.3v5.5
			C60.5,171.2,57.4,174.3,53.7,174.3z"/>
	</g>
	<g>
		<path fill="#182E56" d="M71.3,143.1h3.3v8.9c0,4.9-2.5,7.3-8.8,7.3c-6.3,0-8.8-2.3-8.8-7.3v-8.9h3.5v8.9c0,2.8,1.2,3.9,5.3,3.9
			c4.1,0,5.3-1.1,5.3-3.9V143.1z"/>
		<path fill="#182E56" d="M86.5,159.1c-4.6,0-7.9-3.5-7.9-8.2c0-4.7,3.3-7.8,7.9-7.8h8.8v3.4h-8.8c-2.6,0-4.5,1.9-4.5,4.6
			c0,2.6,1.9,4.6,4.5,4.6h8.8v3.4H86.5z"/>
		<path fill="#182E56" d="M99.6,159.1v-16h3.4v12.6h10.3v3.4H99.6z"/>
		<path fill="#182E56" d="M117.4,159.1v-16h14.5v3.4h-11.1v9.1h11.1v3.4H117.4z M122.8,152.3v-2.7h8.5v2.7H122.8z"/>
		<path fill="#182E56" d="M150.2,143.1h3.3v8.9c0,4.9-2.5,7.3-8.8,7.3c-6.3,0-8.8-2.3-8.8-7.3v-8.9h3.5v8.9c0,2.8,1.2,3.9,5.3,3.9
			c4.1,0,5.3-1.1,5.3-3.9V143.1z"/>
		<path fill="#182E56" d="M158.1,159.1v-3.4h12.1c1.2,0,1.9-0.6,1.9-1.6c0-1.1-0.7-1.7-1.9-1.7h-7.2c-3.1,0-5.1-1.9-5.1-4.6
			c0-2.6,1.8-4.6,5.1-4.6h11.6v3.4H163c-1,0-1.6,0.5-1.6,1.5c0,1,0.6,1.5,1.6,1.5h7.2c3.4,0,5.2,1.5,5.2,4.7c0,2.7-1.7,4.8-5.2,4.8
			H158.1z"/>
		<path fill="#10BBD3" d="M195.9,159.1c-4.6,0-7.9-3.5-7.9-8.2c0-4.7,3.3-7.8,7.9-7.8h8.8v3.4h-8.8c-2.6,0-4.5,1.9-4.5,4.6
			c0,2.6,1.9,4.6,4.5,4.6h8.8v3.4H195.9z"/>
		<path fill="#10BBD3" d="M216.2,159.1v-5.8l-8.3-10.2h4.6l5.6,7.1l5.6-7.1h4.4l-8.4,10.2v5.8H216.2z"/>
		<path fill="#10BBD3" d="M231.6,159.1v-16h11.8c3.2,0,5.4,1.4,5.4,4.2c0,1.9-0.9,2.9-1.8,3.3c1.2,0.5,2.2,1.8,2.2,3.4
			c0,3.2-2.1,5.1-5.3,5.1H231.6z M237.1,152.3v-2.7h6.4c1.3,0,1.8-0.5,1.8-1.5c0-1.2-0.9-1.6-2.4-1.6h-7.9v9.2h8.1
			c1.5,0,2.4-0.5,2.4-1.7c0-1.1-0.7-1.7-1.9-1.7H237.1z"/>
		<path fill="#10BBD3" d="M253.5,159.1v-16H268v3.4h-11.1v9.1h11.1v3.4H253.5z M258.9,152.3v-2.7h8.5v2.7H258.9z"/>
		<path fill="#10BBD3" d="M286.7,159.1l-3.9-4.4h-5v-2.9h6.2c1.7,0,2.6-1,2.6-2.7c0-1.7-1-2.6-2.6-2.6h-8.2v12.6h-3.4v-16h11.6
			c3.7,0,6,2.3,6,5.9c0,2.6-1.2,4.4-3.2,5.2l4.8,4.8H286.7z"/>
	</g>
	<g>
		<path fill="#182E56" d="M25.4,141.2v23.3h-3.7v-27.1c0-1.5,0.8-2.4,2-2.4c0.6,0,1.2,0.3,1.8,0.9l22.1,22.6v-23.3h3.7v27.3
			c0,1.5-0.8,2.4-2,2.4c-0.7,0-1.4-0.4-2-1L25.4,141.2z"/>
	</g>
</g>
</svg>
