<svg xmlns:xlink="http://www.w3.org/1999/xlink" width="75" height="75" viewBox="0 0 75 75">
  <defs>
    <path id="imperva_wordmark_1color_darkgrey_min-a" d="M32.1320346,33.865368 C34.2760462,33.865368 35.4965368,35.6464646 35.4965368,37.724531 C35.4965368,39.8025974 34.2760462,41.5672439 32.1320346,41.5672439 C31.340404,41.5672439 30.6148629,41.1878788 30.2849928,40.7922078 L30.2849928,44.4242424 L28.2399711,44.4242424 L28.2399711,34.030303 L30.2849928,34.030303 L30.2849928,34.6405483 C30.6148629,34.244733 31.340404,33.865368 32.1320346,33.865368 Z M39.7424242,33.865368 C41.8864358,33.865368 42.991342,35.3497835 42.991342,37.5265512 L42.991342,38.1864358 L38.2415584,38.1864358 C38.4064935,39.3903319 39.2806638,39.8851371 40.3691198,39.8851371 C41.1772006,39.8851371 41.7545455,39.7036075 42.4800866,39.241847 L42.4800866,40.9239538 C41.8698413,41.3692641 41.0453102,41.5672439 40.0558442,41.5672439 C37.8128427,41.5672439 36.2790765,40.115873 36.2790765,37.7741703 C36.2790765,35.4650794 37.730303,33.865368 39.7424242,33.865368 Z M59.7279942,33.865368 C61.7565657,33.865368 62.9767677,34.9044733 62.9767677,36.7020202 L62.9767677,41.4023088 L60.931746,41.4023088 L60.931746,41.0064935 C60.6844156,41.2539683 59.9588745,41.5343434 59.1507937,41.5343434 C57.6665224,41.5343434 56.4294372,40.6767677 56.4294372,39.1428571 C56.4294372,37.7409812 57.6665224,36.7845599 59.282684,36.7845599 C59.9258297,36.7845599 60.6350649,36.9988456 60.931746,37.2132756 L60.931746,36.8010101 C60.931746,36.0919192 60.321645,35.6464646 59.282684,35.6464646 C58.5405483,35.6464646 57.8479076,35.861039 57.2707071,36.2402597 L57.2707071,34.4756133 C57.7984127,34.1457431 58.7548341,33.865368 59.7279942,33.865368 L59.7279942,33.865368 Z M51.0945166,34.030303 L52.7932179,38.9284271 L54.4590188,34.030303 L56.5204906,34.030303 L53.7167388,41.4025974 L51.7378066,41.4025974 L48.9506494,34.030303 L51.0945166,34.030303 L51.0945166,34.030303 Z M47.7847042,33.865368 C48.1310245,33.865368 48.4444444,33.9314574 48.5598846,33.9974026 L48.5598846,36.0424242 C48.2795094,35.8774892 47.9167388,35.7949495 47.5373737,35.7949495 C46.844733,35.7949495 46.2839827,36.1578644 46.1356421,36.8340548 L46.1356421,41.4023088 L44.0904762,41.4023088 L44.0904762,34.0300144 L46.1356421,34.0300144 L46.1356421,34.7556999 C46.4489177,34.2279942 47.0591631,33.8650794 47.7847042,33.8650794 L47.7847042,33.865368 Z M24.5011544,33.865368 C26.0184704,33.865368 26.9253968,34.9209235 26.9253968,36.5865801 L26.9253968,41.4023088 L24.8803752,41.4023088 L24.8803752,37.0154401 C24.8803752,36.2238095 24.5340548,35.6961039 23.8249639,35.6961039 C23.2972583,35.6961039 22.8189033,36.0258297 22.687013,36.6526696 L22.687013,41.4023088 L20.6255411,41.4023088 L20.6255411,37.0154401 C20.6255411,36.2238095 20.2955267,35.6961039 19.5864358,35.6961039 C19.0587302,35.6961039 18.563925,36.0258297 18.4320346,36.6526696 L18.4320346,41.4023088 L16.3871573,41.4023088 L16.3871573,34.0300144 L18.4320346,34.0300144 L18.4320346,34.6402597 C18.7949495,34.1784993 19.4709957,33.8650794 20.2955267,33.8650794 C21.169697,33.8650794 21.8623377,34.261039 22.2746032,34.8051948 C22.7529582,34.2774892 23.4620491,33.8650794 24.5011544,33.8650794 L24.5011544,33.865368 Z M15.0444444,34.030303 L15.0444444,41.4025974 L13.0038961,41.4025974 L13.0038961,34.030303 L15.0444444,34.030303 Z M59.62886,38.2193362 C58.9857143,38.2193362 58.325974,38.4997114 58.325974,39.1264069 C58.325974,39.7695527 58.9857143,40.0334776 59.62886,40.0334776 C60.2060606,40.0334776 60.7503608,39.7861472 60.9316017,39.3903319 L60.9316017,38.862482 C60.7503608,38.466811 60.2060606,38.2193362 59.62886,38.2193362 Z M31.6699856,35.6464646 C31.0597403,35.6464646 30.5318903,36.0093795 30.2845599,36.5041847 L30.2845599,38.9284271 C30.5318903,39.4396825 31.0761905,39.7861472 31.6699856,39.7861472 C32.7748918,39.7861472 33.4344877,38.8955267 33.4344877,37.724531 C33.4344877,36.5370851 32.7748918,35.6464646 31.6699856,35.6464646 Z M39.7919192,35.4981241 C39.1157287,35.4981241 38.5383838,35.9269841 38.3075036,36.8505051 L41.0948052,36.8505051 C41.0453102,36.0588745 40.6,35.4981241 39.7919192,35.4981241 L39.7919192,35.4981241 Z"/>
  </defs>
  <g fill="none" fill-rule="evenodd">
    <polygon fill="#FFF" points="62.977 42.375 62.977 44.42 60.932 44.42 60.932 42.375 62.977 42.375"/>
    <polygon fill="#FFF" points="15.045 31.013 15.045 33.058 13.004 33.058 13.004 31.013"/>
    <use fill="#FFF" xlink:href="#imperva_wordmark_1color_darkgrey_min-a"/>
  </g>
</svg>
