<?xml version="1.0" standalone="no"?>
<svg width="1056" height="816" xmlns="http://www.w3.org/2000/svg" id="svgvm0"><g transform="translate(5,5)" style="font-family: sans-serif;"><g><g transform="translate(0, 0)"><g transform="translate(0,5)"><rect class="header-box" width="509.5897435897436" height="86" stroke="black" fill="white" rx="5"/><rect class="label-cover" x="8" y="-9.666666984558105" width="43.364585876464844" height="17.33333396911621" fill="white" rx="5"/><text class="header-box-label" x="10" font-size="12" y="3">domain</text><g class="header-box-content" transform="translate(5, 0)"><g transform="translate(0, 4.095238095238102)"><text font-size="12"><tspan x="4" y="42.4047619047619">Enterprise ATT&amp;CK v11</tspan></text></g></g></g></g><g transform="translate(536.4102564102565, 0)"><g transform="translate(0,5)"><rect class="header-box" width="509.5897435897436" height="86" stroke="black" fill="white" rx="5"/><rect class="label-cover" x="8" y="-9.666666984558105" width="53.35416793823242" height="17.33333396911621" fill="white" rx="5"/><text class="header-box-label" x="10" font-size="12" y="3">platforms</text><g class="header-box-content" transform="translate(5, 0)"><g transform="translate(0, 4.095238095238102)"><text font-size="12"><tspan x="4" y="42.4047619047619">IaaS</tspan></text></g></g></g></g></g><g transform="translate(0,97)"><g><g class="tactic initial-access" transform="translate(0, 0)"><g class="techniques"><g class="technique T1190" transform="translate(0, 50.71428571428571)"><rect class="cell" height="50.71428571428571" width="86.36697247706422" fill="#8ec843" stroke="#6B7279"/><polygon class="sidebar" transform="translate(0, 50.71428571428571)" points="0,0 12,0 12,0" fill="#6B7279" visibility="hidden"/><text font-size="6.31289500509684" fill="black"><tspan x="4" y="13.190476190476186">Exploit</tspan><tspan x="4" y="27.857142857142854">Public-Facing</tspan><tspan x="4" y="42.52380952380952">Application</tspan></text></g><g class="technique T1199" transform="translate(0, 101.42857142857142)"><rect class="cell" height="50.71428571428571" width="86.36697247706422" fill="white" stroke="#6B7279"/><polygon class="sidebar" transform="translate(0, 50.71428571428571)" points="0,0 12,0 12,0" fill="#6B7279" visibility="hidden"/><text font-size="6.31289500509684" fill="black"><tspan x="4" y="20.607142857142854">Trusted</tspan><tspan x="4" y="35.107142857142854">Relationship</tspan></text></g><g class="technique T1078" transform="translate(0, 152.14285714285714)"><rect class="cell" height="50.71428571428571" width="86.36697247706422" fill="#8ec843" stroke="#6B7279"/><polygon class="sidebar" transform="translate(0, 50.71428571428571)" points="0,0 12,0 12,12" fill="#6B7279" visibility="hidden"/><text font-size="6.31289500509684" fill="black"><tspan x="4" y="21.607142857142854">Valid</tspan><tspan x="4" y="36.107142857142854">Accounts</tspan></text></g></g><g class="subtechniques"/><g class="tactic-label"><text font-size="9.46934250764526" fill="black" font-weight="bold"><tspan text-anchor="middle" x="43.18348623853211" y="21.607142857142854">Initial</tspan><tspan text-anchor="middle" x="43.18348623853211" y="36.107142857142854">Access</tspan></text></g></g><g class="tactic execution" transform="translate(95.96330275229357, 0)"><g class="techniques"><g class="technique T1204" transform="translate(0, 50.71428571428571)"><rect class="cell" height="50.71428571428571" width="86.36697247706422" fill="white" stroke="#6B7279"/><polygon class="sidebar" transform="translate(0, 50.71428571428571)" points="0,0 12,0 12,12" fill="#6B7279" visibility="hidden"/><text font-size="6.31289500509684" fill="black"><tspan x="4" y="21.607142857142854">User</tspan><tspan x="4" y="36.107142857142854">Execution</tspan></text></g></g><g class="subtechniques"/><g class="tactic-label"><text font-size="9.46934250764526" fill="black" font-weight="bold"><tspan text-anchor="middle" x="43.18348623853211" y="28.857142857142854">Execution</tspan></text></g></g><g class="tactic persistence" transform="translate(191.92660550458714, 0)"><g class="techniques"><g class="technique T1098" transform="translate(0, 50.71428571428571)"><rect class="cell" height="50.71428571428571" width="86.36697247706422" fill="#8ec843" stroke="#6B7279"/><polygon class="sidebar" transform="translate(0, 50.71428571428571)" points="0,0 12,0 12,12" fill="#6B7279" visibility="hidden"/><text font-size="6.31289500509684" fill="black"><tspan x="4" y="20.607142857142854">Account</tspan><tspan x="4" y="35.107142857142854">Manipulation</tspan></text></g><g class="technique T1136" transform="translate(0, 101.42857142857142)"><rect class="cell" height="50.71428571428571" width="86.36697247706422" fill="white" stroke="#6B7279"/><polygon class="sidebar" transform="translate(0, 50.71428571428571)" points="0,0 12,0 12,12" fill="#6B7279" visibility="hidden"/><text font-size="6.31289500509684" fill="black"><tspan x="4" y="21.607142857142854">Create</tspan><tspan x="4" y="36.107142857142854">Account</tspan></text></g><g class="technique T1525" transform="translate(0, 152.14285714285714)"><rect class="cell" height="50.71428571428571" width="86.36697247706422" fill="white" stroke="#6B7279"/><polygon class="sidebar" transform="translate(0, 50.71428571428571)" points="0,0 12,0 12,0" fill="#6B7279" visibility="hidden"/><text font-size="6.31289500509684" fill="black"><tspan x="4" y="14.190476190476186">Implant</tspan><tspan x="4" y="28.857142857142854">Internal</tspan><tspan x="4" y="43.52380952380952">Image</tspan></text></g><g class="technique T1078" transform="translate(0, 202.85714285714283)"><rect class="cell" height="50.71428571428571" width="86.36697247706422" fill="#8ec843" stroke="#6B7279"/><polygon class="sidebar" transform="translate(0, 50.71428571428571)" points="0,0 12,0 12,12" fill="#6B7279" visibility="hidden"/><text font-size="6.31289500509684" fill="black"><tspan x="4" y="21.607142857142854">Valid</tspan><tspan x="4" y="36.107142857142854">Accounts</tspan></text></g></g><g class="subtechniques"/><g class="tactic-label"><text font-size="9.46934250764526" fill="black" font-weight="bold"><tspan text-anchor="middle" x="43.18348623853211" y="28.857142857142854">Persistence</tspan></text></g></g><g class="tactic privilege-escalation" transform="translate(287.88990825688074, 0)"><g class="techniques"><g class="technique T1078" transform="translate(0, 50.71428571428571)"><rect class="cell" height="50.71428571428571" width="86.36697247706422" fill="#8ec843" stroke="#6B7279"/><polygon class="sidebar" transform="translate(0, 50.71428571428571)" points="0,0 12,0 12,12" fill="#6B7279" visibility="hidden"/><text font-size="6.31289500509684" fill="black"><tspan x="4" y="21.607142857142854">Valid</tspan><tspan x="4" y="36.107142857142854">Accounts</tspan></text></g></g><g class="subtechniques"/><g class="tactic-label"><text font-size="9.46934250764526" fill="black" font-weight="bold"><tspan text-anchor="middle" x="43.18348623853211" y="21.607142857142854">Privilege</tspan><tspan text-anchor="middle" x="43.18348623853211" y="36.107142857142854">Escalation</tspan></text></g></g><g class="tactic defense-evasion" transform="translate(383.8532110091743, 0)"><g class="techniques"><g class="technique T1562" transform="translate(0, 50.71428571428571)"><rect class="cell" height="50.71428571428571" width="86.36697247706422" fill="white" stroke="#6B7279"/><polygon class="sidebar" transform="translate(0, 50.71428571428571)" points="0,0 12,0 12,12" fill="#6B7279" visibility="hidden"/><text font-size="6.31289500509684" fill="black"><tspan x="4" y="21.607142857142854">Impair</tspan><tspan x="4" y="36.107142857142854">Defenses</tspan></text></g><g class="technique T1578" transform="translate(0, 101.42857142857142)"><rect class="cell" height="50.71428571428571" width="86.36697247706422" fill="white" stroke="#6B7279"/><polygon class="sidebar" transform="translate(0, 50.71428571428571)" points="0,0 12,0 12,12" fill="#6B7279" visibility="hidden"/><text font-size="6.31289500509684" fill="black"><tspan x="4" y="13.190476190476186">Modify</tspan><tspan x="4" y="27.857142857142854">Cloud Compute</tspan><tspan x="4" y="42.52380952380952">Infrastructure</tspan></text></g><g class="technique T1535" transform="translate(0, 152.14285714285714)"><rect class="cell" height="50.71428571428571" width="86.36697247706422" fill="#8ec843" stroke="#6B7279"/><polygon class="sidebar" transform="translate(0, 50.71428571428571)" points="0,0 12,0 12,0" fill="#6B7279" visibility="hidden"/><text font-size="6.31289500509684" fill="black"><tspan x="4" y="19.607142857142854">Unused/Unsupported</tspan><tspan x="4" y="34.107142857142854">Cloud Regions</tspan></text></g><g class="technique T1550" transform="translate(0, 202.85714285714283)"><rect class="cell" height="50.71428571428571" width="86.36697247706422" fill="white" stroke="#6B7279"/><polygon class="sidebar" transform="translate(0, 50.71428571428571)" points="0,0 12,0 12,12" fill="#6B7279" visibility="hidden"/><text font-size="6.31289500509684" fill="black"><tspan x="4" y="13.190476190476186">Use Alternate</tspan><tspan x="4" y="27.857142857142854">Authentication</tspan><tspan x="4" y="42.52380952380952">Material</tspan></text></g><g class="technique T1078" transform="translate(0, 253.57142857142858)"><rect class="cell" height="50.71428571428571" width="86.36697247706422" fill="#8ec843" stroke="#6B7279"/><polygon class="sidebar" transform="translate(0, 50.71428571428571)" points="0,0 12,0 12,12" fill="#6B7279" visibility="hidden"/><text font-size="6.31289500509684" fill="black"><tspan x="4" y="21.607142857142854">Valid</tspan><tspan x="4" y="36.107142857142854">Accounts</tspan></text></g></g><g class="subtechniques"/><g class="tactic-label"><text font-size="9.46934250764526" fill="black" font-weight="bold"><tspan text-anchor="middle" x="43.18348623853211" y="21.607142857142854">Defense</tspan><tspan text-anchor="middle" x="43.18348623853211" y="36.107142857142854">Evasion</tspan></text></g></g><g class="tactic credential-access" transform="translate(479.81651376146783, 0)"><g class="techniques"><g class="technique T1110" transform="translate(0, 50.71428571428571)"><rect class="cell" height="50.71428571428571" width="86.36697247706422" fill="#8ec843" stroke="#6B7279"/><polygon class="sidebar" transform="translate(0, 50.71428571428571)" points="0,0 12,0 12,12" fill="#6B7279" visibility="hidden"/><text font-size="6.31289500509684" fill="black"><tspan x="4" y="21.607142857142854">Brute</tspan><tspan x="4" y="36.107142857142854">Force</tspan></text></g><g class="technique T1606" transform="translate(0, 101.42857142857142)"><rect class="cell" height="50.71428571428571" width="86.36697247706422" fill="white" stroke="#6B7279"/><polygon class="sidebar" transform="translate(0, 50.71428571428571)" points="0,0 12,0 12,12" fill="#6B7279" visibility="hidden"/><text font-size="6.31289500509684" fill="black"><tspan x="4" y="21.607142857142854">Forge Web</tspan><tspan x="4" y="36.107142857142854">Credentials</tspan></text></g><g class="technique T1621" transform="translate(0, 152.14285714285714)"><rect class="cell" height="50.71428571428571" width="86.36697247706422" fill="white" stroke="#6B7279"/><polygon class="sidebar" transform="translate(0, 50.71428571428571)" points="0,0 12,0 12,0" fill="#6B7279" visibility="hidden"/><text font-size="6.31289500509684" fill="black"><tspan x="4" y="9.214285714285714">Multi-Factor</tspan><tspan x="4" y="21.64285714285714">Authentication</tspan><tspan x="4" y="34.07142857142857">Request</tspan><tspan x="4" y="46.49999999999999">Generation</tspan></text></g><g class="technique T1040" transform="translate(0, 202.85714285714283)"><rect class="cell" height="50.71428571428571" width="86.36697247706422" fill="white" stroke="#6B7279"/><polygon class="sidebar" transform="translate(0, 50.71428571428571)" points="0,0 12,0 12,0" fill="#6B7279" visibility="hidden"/><text font-size="6.31289500509684" fill="black"><tspan x="4" y="21.607142857142854">Network</tspan><tspan x="4" y="36.107142857142854">Sniffing</tspan></text></g><g class="technique T1552" transform="translate(0, 253.57142857142858)"><rect class="cell" height="50.71428571428571" width="86.36697247706422" fill="white" stroke="#6B7279"/><polygon class="sidebar" transform="translate(0, 50.71428571428571)" points="0,0 12,0 12,12" fill="#6B7279" visibility="hidden"/><text font-size="6.31289500509684" fill="black"><tspan x="4" y="21.607142857142854">Unsecured</tspan><tspan x="4" y="36.107142857142854">Credentials</tspan></text></g></g><g class="subtechniques"/><g class="tactic-label"><text font-size="9.46934250764526" fill="black" font-weight="bold"><tspan text-anchor="middle" x="43.18348623853211" y="21.607142857142854">Credential</tspan><tspan text-anchor="middle" x="43.18348623853211" y="36.107142857142854">Access</tspan></text></g></g><g class="tactic discovery" transform="translate(575.7798165137615, 0)"><g class="techniques"><g class="technique T1087" transform="translate(0, 50.71428571428571)"><rect class="cell" height="50.71428571428571" width="86.36697247706422" fill="#8ec843" stroke="#6B7279"/><polygon class="sidebar" transform="translate(0, 50.71428571428571)" points="0,0 12,0 12,12" fill="#6B7279" visibility="hidden"/><text font-size="6.31289500509684" fill="black"><tspan x="4" y="21.607142857142854">Account</tspan><tspan x="4" y="36.107142857142854">Discovery</tspan></text></g><g class="technique T1580" transform="translate(0, 101.42857142857142)"><rect class="cell" height="50.71428571428571" width="86.36697247706422" fill="white" stroke="#6B7279"/><polygon class="sidebar" transform="translate(0, 50.71428571428571)" points="0,0 12,0 12,0" fill="#6B7279" visibility="hidden"/><text font-size="6.31289500509684" fill="black"><tspan x="4" y="13.190476190476186">Cloud</tspan><tspan x="4" y="27.857142857142854">Infrastructure</tspan><tspan x="4" y="42.52380952380952">Discovery</tspan></text></g><g class="technique T1538" transform="translate(0, 152.14285714285714)"><rect class="cell" height="50.71428571428571" width="86.36697247706422" fill="white" stroke="#6B7279"/><polygon class="sidebar" transform="translate(0, 50.71428571428571)" points="0,0 12,0 12,0" fill="#6B7279" visibility="hidden"/><text font-size="6.31289500509684" fill="black"><tspan x="4" y="14.190476190476186">Cloud</tspan><tspan x="4" y="28.857142857142854">Service</tspan><tspan x="4" y="43.52380952380952">Dashboard</tspan></text></g><g class="technique T1526" transform="translate(0, 202.85714285714283)"><rect class="cell" height="50.71428571428571" width="86.36697247706422" fill="white" stroke="#6B7279"/><polygon class="sidebar" transform="translate(0, 50.71428571428571)" points="0,0 12,0 12,0" fill="#6B7279" visibility="hidden"/><text font-size="6.31289500509684" fill="black"><tspan x="4" y="14.190476190476186">Cloud</tspan><tspan x="4" y="28.857142857142854">Service</tspan><tspan x="4" y="43.52380952380952">Discovery</tspan></text></g><g class="technique T1619" transform="translate(0, 253.57142857142858)"><rect class="cell" height="50.71428571428571" width="86.36697247706422" fill="white" stroke="#6B7279"/><polygon class="sidebar" transform="translate(0, 50.71428571428571)" points="0,0 12,0 12,0" fill="#6B7279" visibility="hidden"/><text font-size="6.31289500509684" fill="black"><tspan x="4" y="10.214285714285714">Cloud</tspan><tspan x="4" y="22.64285714285714">Storage</tspan><tspan x="4" y="35.07142857142857">Object</tspan><tspan x="4" y="47.49999999999999">Discovery</tspan></text></g><g class="technique T1046" transform="translate(0, 304.2857142857143)"><rect class="cell" height="50.71428571428571" width="86.36697247706422" fill="#8ec843" stroke="#6B7279"/><polygon class="sidebar" transform="translate(0, 50.71428571428571)" points="0,0 12,0 12,0" fill="#6B7279" visibility="hidden"/><text font-size="6.31289500509684" fill="black"><tspan x="4" y="14.190476190476186">Network</tspan><tspan x="4" y="28.857142857142854">Service</tspan><tspan x="4" y="43.52380952380952">Discovery</tspan></text></g><g class="technique T1040" transform="translate(0, 355)"><rect class="cell" height="50.71428571428571" width="86.36697247706422" fill="white" stroke="#6B7279"/><polygon class="sidebar" transform="translate(0, 50.71428571428571)" points="0,0 12,0 12,0" fill="#6B7279" visibility="hidden"/><text font-size="6.31289500509684" fill="black"><tspan x="4" y="21.607142857142854">Network</tspan><tspan x="4" y="36.107142857142854">Sniffing</tspan></text></g><g class="technique T1201" transform="translate(0, 405.71428571428567)"><rect class="cell" height="50.71428571428571" width="86.36697247706422" fill="white" stroke="#6B7279"/><polygon class="sidebar" transform="translate(0, 50.71428571428571)" points="0,0 12,0 12,0" fill="#6B7279" visibility="hidden"/><text font-size="6.31289500509684" fill="black"><tspan x="4" y="14.190476190476186">Password</tspan><tspan x="4" y="28.857142857142854">Policy</tspan><tspan x="4" y="43.52380952380952">Discovery</tspan></text></g><g class="technique T1069" transform="translate(0, 456.42857142857144)"><rect class="cell" height="50.71428571428571" width="86.36697247706422" fill="white" stroke="#6B7279"/><polygon class="sidebar" transform="translate(0, 50.71428571428571)" points="0,0 12,0 12,12" fill="#6B7279" visibility="hidden"/><text font-size="6.31289500509684" fill="black"><tspan x="4" y="14.190476190476186">Permission</tspan><tspan x="4" y="28.857142857142854">Groups</tspan><tspan x="4" y="43.52380952380952">Discovery</tspan></text></g><g class="technique T1518" transform="translate(0, 507.14285714285717)"><rect class="cell" height="50.71428571428571" width="86.36697247706422" fill="white" stroke="#6B7279"/><polygon class="sidebar" transform="translate(0, 50.71428571428571)" points="0,0 12,0 12,12" fill="#6B7279" visibility="hidden"/><text font-size="6.31289500509684" fill="black"><tspan x="4" y="21.607142857142854">Software</tspan><tspan x="4" y="36.107142857142854">Discovery</tspan></text></g><g class="technique T1082" transform="translate(0, 557.8571428571429)"><rect class="cell" height="50.71428571428571" width="86.36697247706422" fill="white" stroke="#6B7279"/><polygon class="sidebar" transform="translate(0, 50.71428571428571)" points="0,0 12,0 12,0" fill="#6B7279" visibility="hidden"/><text font-size="6.31289500509684" fill="black"><tspan x="4" y="14.190476190476186">System</tspan><tspan x="4" y="28.857142857142854">Information</tspan><tspan x="4" y="43.52380952380952">Discovery</tspan></text></g><g class="technique T1614" transform="translate(0, 608.5714285714286)"><rect class="cell" height="50.71428571428571" width="86.36697247706422" fill="white" stroke="#6B7279"/><polygon class="sidebar" transform="translate(0, 50.71428571428571)" points="0,0 12,0 12,0" fill="#6B7279" visibility="hidden"/><text font-size="6.31289500509684" fill="black"><tspan x="4" y="14.190476190476186">System</tspan><tspan x="4" y="28.857142857142854">Location</tspan><tspan x="4" y="43.52380952380952">Discovery</tspan></text></g><g class="technique T1049" transform="translate(0, 659.2857142857143)"><rect class="cell" height="50.71428571428571" width="86.36697247706422" fill="white" stroke="#6B7279"/><polygon class="sidebar" transform="translate(0, 50.71428571428571)" points="0,0 12,0 12,0" fill="#6B7279" visibility="hidden"/><text font-size="6.31289500509684" fill="black"><tspan x="4" y="10.214285714285714">System</tspan><tspan x="4" y="22.64285714285714">Network</tspan><tspan x="4" y="35.07142857142857">Connections</tspan><tspan x="4" y="47.49999999999999">Discovery</tspan></text></g></g><g class="subtechniques"/><g class="tactic-label"><text font-size="9.46934250764526" fill="black" font-weight="bold"><tspan text-anchor="middle" x="43.18348623853211" y="28.857142857142854">Discovery</tspan></text></g></g><g class="tactic lateral-movement" transform="translate(671.743119266055, 0)"><g class="techniques"><g class="technique T1550" transform="translate(0, 50.71428571428571)"><rect class="cell" height="50.71428571428571" width="86.36697247706422" fill="white" stroke="#6B7279"/><polygon class="sidebar" transform="translate(0, 50.71428571428571)" points="0,0 12,0 12,12" fill="#6B7279" visibility="hidden"/><text font-size="6.31289500509684" fill="black"><tspan x="4" y="13.190476190476186">Use Alternate</tspan><tspan x="4" y="27.857142857142854">Authentication</tspan><tspan x="4" y="42.52380952380952">Material</tspan></text></g></g><g class="subtechniques"/><g class="tactic-label"><text font-size="9.46934250764526" fill="black" font-weight="bold"><tspan text-anchor="middle" x="43.18348623853211" y="21.607142857142854">Lateral</tspan><tspan text-anchor="middle" x="43.18348623853211" y="36.107142857142854">Movement</tspan></text></g></g><g class="tactic collection" transform="translate(767.7064220183486, 0)"><g class="techniques"><g class="technique T1119" transform="translate(0, 50.71428571428571)"><rect class="cell" height="50.71428571428571" width="86.36697247706422" fill="white" stroke="#6B7279"/><polygon class="sidebar" transform="translate(0, 50.71428571428571)" points="0,0 12,0 12,0" fill="#6B7279" visibility="hidden"/><text font-size="6.31289500509684" fill="black"><tspan x="4" y="21.607142857142854">Automated</tspan><tspan x="4" y="36.107142857142854">Collection</tspan></text></g><g class="technique T1530" transform="translate(0, 101.42857142857142)"><rect class="cell" height="50.71428571428571" width="86.36697247706422" fill="white" stroke="#6B7279"/><polygon class="sidebar" transform="translate(0, 50.71428571428571)" points="0,0 12,0 12,0" fill="#6B7279" visibility="hidden"/><text font-size="6.31289500509684" fill="black"><tspan x="4" y="10.214285714285714">Data</tspan><tspan x="4" y="22.64285714285714">from Cloud</tspan><tspan x="4" y="35.07142857142857">Storage</tspan><tspan x="4" y="47.49999999999999">Object</tspan></text></g><g class="technique T1213" transform="translate(0, 152.14285714285714)"><rect class="cell" height="50.71428571428571" width="86.36697247706422" fill="white" stroke="#6B7279"/><polygon class="sidebar" transform="translate(0, 50.71428571428571)" points="0,0 12,0 12,0" fill="#6B7279" visibility="hidden"/><text font-size="6.31289500509684" fill="black"><tspan x="4" y="13.190476190476186">Data from</tspan><tspan x="4" y="27.857142857142854">Information</tspan><tspan x="4" y="42.52380952380952">Repositories</tspan></text></g><g class="technique T1074" transform="translate(0, 202.85714285714283)"><rect class="cell" height="50.71428571428571" width="86.36697247706422" fill="white" stroke="#6B7279"/><polygon class="sidebar" transform="translate(0, 50.71428571428571)" points="0,0 12,0 12,12" fill="#6B7279" visibility="hidden"/><text font-size="6.31289500509684" fill="black"><tspan x="4" y="21.607142857142854">Data</tspan><tspan x="4" y="36.107142857142854">Staged</tspan></text></g></g><g class="subtechniques"/><g class="tactic-label"><text font-size="9.46934250764526" fill="black" font-weight="bold"><tspan text-anchor="middle" x="43.18348623853211" y="28.857142857142854">Collection</tspan></text></g></g><g class="tactic exfiltration" transform="translate(863.6697247706421, 0)"><g class="techniques"><g class="technique T1537" transform="translate(0, 50.71428571428571)"><rect class="cell" height="50.71428571428571" width="86.36697247706422" fill="white" stroke="#6B7279"/><polygon class="sidebar" transform="translate(0, 50.71428571428571)" points="0,0 12,0 12,0" fill="#6B7279" visibility="hidden"/><text font-size="6.31289500509684" fill="black"><tspan x="4" y="10.214285714285714">Transfer</tspan><tspan x="4" y="22.64285714285714">Data</tspan><tspan x="4" y="35.07142857142857">to Cloud</tspan><tspan x="4" y="47.49999999999999">Account</tspan></text></g></g><g class="subtechniques"/><g class="tactic-label"><text font-size="9.46934250764526" fill="black" font-weight="bold"><tspan text-anchor="middle" x="43.18348623853211" y="27.857142857142854">Exfiltration</tspan></text></g></g><g class="tactic impact" transform="translate(959.6330275229357, 0)"><g class="techniques"><g class="technique T1485" transform="translate(0, 50.71428571428571)"><rect class="cell" height="50.71428571428571" width="86.36697247706422" fill="#8ec843" stroke="#6B7279"/><polygon class="sidebar" transform="translate(0, 50.71428571428571)" points="0,0 12,0 12,0" fill="#6B7279" visibility="hidden"/><text font-size="6.31289500509684" fill="black"><tspan x="4" y="21.607142857142854">Data</tspan><tspan x="4" y="36.107142857142854">Destruction</tspan></text></g><g class="technique T1486" transform="translate(0, 101.42857142857142)"><rect class="cell" height="50.71428571428571" width="86.36697247706422" fill="#8ec843" stroke="#6B7279"/><polygon class="sidebar" transform="translate(0, 50.71428571428571)" points="0,0 12,0 12,0" fill="#6B7279" visibility="hidden"/><text font-size="6.31289500509684" fill="black"><tspan x="4" y="14.190476190476186">Data</tspan><tspan x="4" y="28.857142857142854">Encrypted</tspan><tspan x="4" y="43.52380952380952">for Impact</tspan></text></g><g class="technique T1491" transform="translate(0, 152.14285714285714)"><rect class="cell" height="50.71428571428571" width="86.36697247706422" fill="white" stroke="#6B7279"/><polygon class="sidebar" transform="translate(0, 50.71428571428571)" points="0,0 12,0 12,12" fill="#6B7279" visibility="hidden"/><text font-size="6.31289500509684" fill="black"><tspan x="4" y="28.857142857142854">Defacement</tspan></text></g><g class="technique T1499" transform="translate(0, 202.85714285714283)"><rect class="cell" height="50.71428571428571" width="86.36697247706422" fill="#8ec843" stroke="#6B7279"/><polygon class="sidebar" transform="translate(0, 50.71428571428571)" points="0,0 12,0 12,12" fill="#6B7279" visibility="hidden"/><text font-size="6.31289500509684" fill="black"><tspan x="4" y="14.190476190476186">Endpoint</tspan><tspan x="4" y="28.857142857142854">Denial of</tspan><tspan x="4" y="43.52380952380952">Service</tspan></text></g><g class="technique T1498" transform="translate(0, 253.57142857142858)"><rect class="cell" height="50.71428571428571" width="86.36697247706422" fill="white" stroke="#6B7279"/><polygon class="sidebar" transform="translate(0, 50.71428571428571)" points="0,0 12,0 12,12" fill="#6B7279" visibility="hidden"/><text font-size="6.31289500509684" fill="black"><tspan x="4" y="14.190476190476186">Network</tspan><tspan x="4" y="28.857142857142854">Denial of</tspan><tspan x="4" y="43.52380952380952">Service</tspan></text></g><g class="technique T1496" transform="translate(0, 304.2857142857143)"><rect class="cell" height="50.71428571428571" width="86.36697247706422" fill="#8ec843" stroke="#6B7279"/><polygon class="sidebar" transform="translate(0, 50.71428571428571)" points="0,0 12,0 12,0" fill="#6B7279" visibility="hidden"/><text font-size="6.31289500509684" fill="black"><tspan x="4" y="21.607142857142854">Resource</tspan><tspan x="4" y="36.107142857142854">Hijacking</tspan></text></g></g><g class="subtechniques"/><g class="tactic-label"><text font-size="9.46934250764526" fill="black" font-weight="bold"><tspan text-anchor="middle" x="43.18348623853211" y="28.857142857142854">Impact</tspan></text></g></g></g></g></g></svg>