<?xml version="1.0" standalone="no"?>
<svg width="1056" height="816" xmlns="http://www.w3.org/2000/svg" id="svgvm0"><g transform="translate(5,5)" style="font-family: sans-serif;"><g><g transform="translate(0, 0)"><g transform="translate(0,5)"><rect class="header-box" width="509.5897435897436" height="86" stroke="black" fill="white" rx="5"/><rect class="label-cover" x="8" y="-9.666666984558105" width="43.364585876464844" height="17.33333396911621" fill="white" rx="5"/><text class="header-box-label" x="10" font-size="12" y="3">domain</text><g class="header-box-content" transform="translate(5, 0)"><g transform="translate(0, 4.095238095238102)"><text font-size="12"><tspan x="4" y="42.4047619047619">Enterprise ATT&amp;CK v11</tspan></text></g></g></g></g><g transform="translate(536.4102564102565, 0)"><g transform="translate(0,5)"><rect class="header-box" width="509.5897435897436" height="86" stroke="black" fill="white" rx="5"/><rect class="label-cover" x="8" y="-9.666666984558105" width="53.35416793823242" height="17.33333396911621" fill="white" rx="5"/><text class="header-box-label" x="10" font-size="12" y="3">platforms</text><g class="header-box-content" transform="translate(5, 0)"><g transform="translate(0, 4.095238095238102)"><text font-size="12"><tspan x="4" y="42.4047619047619">Azure AD</tspan></text></g></g></g></g></g><g transform="translate(0,97)"><g><g class="tactic initial-access" transform="translate(0, 0)"><g class="techniques"><g class="technique T1078" transform="translate(0, 118.33333333333333)"><rect class="cell" height="118.33333333333333" width="136.43478260869566" fill="#8ec843" stroke="#6B7279"/><polygon class="sidebar" transform="translate(0, 118.33333333333333)" points="0,0 12,0 12,12" fill="#6B7279" visibility="hidden"/><text font-size="12" fill="black"><tspan x="4" y="62.666666666666664">Valid Accounts</tspan></text></g></g><g class="subtechniques"/><g class="tactic-label"><text font-size="12" fill="black" font-weight="bold"><tspan text-anchor="middle" x="68.21739130434783" y="62.666666666666664">Initial Access</tspan></text></g></g><g class="tactic persistence" transform="translate(151.59420289855072, 0)"><g class="techniques"><g class="technique T1098" transform="translate(0, 118.33333333333333)"><rect class="cell" height="118.33333333333333" width="136.43478260869566" fill="#8ec843" stroke="#6B7279"/><polygon class="sidebar" transform="translate(0, 118.33333333333333)" points="0,0 12,0 12,12" fill="#6B7279" visibility="hidden"/><text font-size="12" fill="black"><tspan x="4" y="55.416666666666664">Account</tspan><tspan x="4" y="69.91666666666666">Manipulation</tspan></text></g><g class="technique T1136" transform="translate(0, 236.66666666666666)"><rect class="cell" height="118.33333333333333" width="136.43478260869566" fill="#8ec843" stroke="#6B7279"/><polygon class="sidebar" transform="translate(0, 118.33333333333333)" points="0,0 12,0 12,12" fill="#6B7279" visibility="hidden"/><text font-size="12" fill="black"><tspan x="4" y="62.666666666666664">Create Account</tspan></text></g><g class="technique T1078" transform="translate(0, 355)"><rect class="cell" height="118.33333333333333" width="136.43478260869566" fill="#8ec843" stroke="#6B7279"/><polygon class="sidebar" transform="translate(0, 118.33333333333333)" points="0,0 12,0 12,12" fill="#6B7279" visibility="hidden"/><text font-size="12" fill="black"><tspan x="4" y="62.666666666666664">Valid Accounts</tspan></text></g></g><g class="subtechniques"/><g class="tactic-label"><text font-size="12" fill="black" font-weight="bold"><tspan text-anchor="middle" x="68.21739130434783" y="62.666666666666664">Persistence</tspan></text></g></g><g class="tactic privilege-escalation" transform="translate(303.18840579710144, 0)"><g class="techniques"><g class="technique T1484" transform="translate(0, 118.33333333333333)"><rect class="cell" height="118.33333333333333" width="136.43478260869566" fill="white" stroke="#6B7279"/><polygon class="sidebar" transform="translate(0, 118.33333333333333)" points="0,0 12,0 12,12" fill="#6B7279" visibility="hidden"/><text font-size="12" fill="black"><tspan x="4" y="55.416666666666664">Domain Policy</tspan><tspan x="4" y="69.91666666666666">Modification</tspan></text></g><g class="technique T1078" transform="translate(0, 236.66666666666666)"><rect class="cell" height="118.33333333333333" width="136.43478260869566" fill="#8ec843" stroke="#6B7279"/><polygon class="sidebar" transform="translate(0, 118.33333333333333)" points="0,0 12,0 12,12" fill="#6B7279" visibility="hidden"/><text font-size="12" fill="black"><tspan x="4" y="62.666666666666664">Valid Accounts</tspan></text></g></g><g class="subtechniques"/><g class="tactic-label"><text font-size="12" fill="black" font-weight="bold"><tspan text-anchor="middle" x="68.21739130434783" y="55.416666666666664">Privilege</tspan><tspan text-anchor="middle" x="68.21739130434783" y="69.91666666666666">Escalation</tspan></text></g></g><g class="tactic defense-evasion" transform="translate(454.78260869565213, 0)"><g class="techniques"><g class="technique T1484" transform="translate(0, 118.33333333333333)"><rect class="cell" height="118.33333333333333" width="136.43478260869566" fill="white" stroke="#6B7279"/><polygon class="sidebar" transform="translate(0, 118.33333333333333)" points="0,0 12,0 12,12" fill="#6B7279" visibility="hidden"/><text font-size="12" fill="black"><tspan x="4" y="55.416666666666664">Domain Policy</tspan><tspan x="4" y="69.91666666666666">Modification</tspan></text></g><g class="technique T1078" transform="translate(0, 236.66666666666666)"><rect class="cell" height="118.33333333333333" width="136.43478260869566" fill="#8ec843" stroke="#6B7279"/><polygon class="sidebar" transform="translate(0, 118.33333333333333)" points="0,0 12,0 12,12" fill="#6B7279" visibility="hidden"/><text font-size="12" fill="black"><tspan x="4" y="62.666666666666664">Valid Accounts</tspan></text></g></g><g class="subtechniques"/><g class="tactic-label"><text font-size="12" fill="black" font-weight="bold"><tspan text-anchor="middle" x="68.21739130434783" y="62.666666666666664">Defense Evasion</tspan></text></g></g><g class="tactic credential-access" transform="translate(606.3768115942029, 0)"><g class="techniques"><g class="technique T1110" transform="translate(0, 118.33333333333333)"><rect class="cell" height="118.33333333333333" width="136.43478260869566" fill="#8ec843" stroke="#6B7279"/><polygon class="sidebar" transform="translate(0, 118.33333333333333)" points="0,0 12,0 12,12" fill="#6B7279" visibility="hidden"/><text font-size="12" fill="black"><tspan x="4" y="62.666666666666664">Brute Force</tspan></text></g><g class="technique T1606" transform="translate(0, 236.66666666666666)"><rect class="cell" height="118.33333333333333" width="136.43478260869566" fill="white" stroke="#6B7279"/><polygon class="sidebar" transform="translate(0, 118.33333333333333)" points="0,0 12,0 12,12" fill="#6B7279" visibility="hidden"/><text font-size="12" fill="black"><tspan x="4" y="55.416666666666664">Forge</tspan><tspan x="4" y="69.91666666666666">Web Credentials</tspan></text></g><g class="technique T1621" transform="translate(0, 355)"><rect class="cell" height="118.33333333333333" width="136.43478260869566" fill="white" stroke="#6B7279"/><polygon class="sidebar" transform="translate(0, 118.33333333333333)" points="0,0 12,0 12,0" fill="#6B7279" visibility="hidden"/><text font-size="12" fill="black"><tspan x="4" y="40.541666666666664">Multi-Factor</tspan><tspan x="4" y="55.291666666666664">Authentication</tspan><tspan x="4" y="70.04166666666666">Request</tspan><tspan x="4" y="84.79166666666666">Generation</tspan></text></g><g class="technique T1528" transform="translate(0, 473.3333333333333)"><rect class="cell" height="118.33333333333333" width="136.43478260869566" fill="#8ec843" stroke="#6B7279"/><polygon class="sidebar" transform="translate(0, 118.33333333333333)" points="0,0 12,0 12,0" fill="#6B7279" visibility="hidden"/><text font-size="12" fill="black"><tspan x="4" y="48">Steal</tspan><tspan x="4" y="62.666666666666664">Application</tspan><tspan x="4" y="77.33333333333333">Access Token</tspan></text></g><g class="technique T1552" transform="translate(0, 591.6666666666667)"><rect class="cell" height="118.33333333333333" width="136.43478260869566" fill="white" stroke="#6B7279"/><polygon class="sidebar" transform="translate(0, 118.33333333333333)" points="0,0 12,0 12,0" fill="#6B7279" visibility="hidden"/><text font-size="12" fill="black"><tspan x="4" y="55.416666666666664">Unsecured</tspan><tspan x="4" y="69.91666666666666">Credentials</tspan></text></g></g><g class="subtechniques"/><g class="tactic-label"><text font-size="12" fill="black" font-weight="bold"><tspan text-anchor="middle" x="68.21739130434783" y="55.416666666666664">Credential</tspan><tspan text-anchor="middle" x="68.21739130434783" y="69.91666666666666">Access</tspan></text></g></g><g class="tactic discovery" transform="translate(757.9710144927536, 0)"><g class="techniques"><g class="technique T1087" transform="translate(0, 118.33333333333333)"><rect class="cell" height="118.33333333333333" width="136.43478260869566" fill="#8ec843" stroke="#6B7279"/><polygon class="sidebar" transform="translate(0, 118.33333333333333)" points="0,0 12,0 12,12" fill="#6B7279" visibility="hidden"/><text font-size="12" fill="black"><tspan x="4" y="55.416666666666664">Account</tspan><tspan x="4" y="69.91666666666666">Discovery</tspan></text></g><g class="technique T1538" transform="translate(0, 236.66666666666666)"><rect class="cell" height="118.33333333333333" width="136.43478260869566" fill="white" stroke="#6B7279"/><polygon class="sidebar" transform="translate(0, 118.33333333333333)" points="0,0 12,0 12,0" fill="#6B7279" visibility="hidden"/><text font-size="12" fill="black"><tspan x="4" y="55.416666666666664">Cloud Service</tspan><tspan x="4" y="69.91666666666666">Dashboard</tspan></text></g><g class="technique T1526" transform="translate(0, 355)"><rect class="cell" height="118.33333333333333" width="136.43478260869566" fill="white" stroke="#6B7279"/><polygon class="sidebar" transform="translate(0, 118.33333333333333)" points="0,0 12,0 12,0" fill="#6B7279" visibility="hidden"/><text font-size="12" fill="black"><tspan x="4" y="55.416666666666664">Cloud Service</tspan><tspan x="4" y="69.91666666666666">Discovery</tspan></text></g><g class="technique T1069" transform="translate(0, 473.3333333333333)"><rect class="cell" height="118.33333333333333" width="136.43478260869566" fill="white" stroke="#6B7279"/><polygon class="sidebar" transform="translate(0, 118.33333333333333)" points="0,0 12,0 12,12" fill="#6B7279" visibility="hidden"/><text font-size="12" fill="black"><tspan x="4" y="48">Permission</tspan><tspan x="4" y="62.666666666666664">Groups</tspan><tspan x="4" y="77.33333333333333">Discovery</tspan></text></g><g class="technique T1518" transform="translate(0, 591.6666666666667)"><rect class="cell" height="118.33333333333333" width="136.43478260869566" fill="white" stroke="#6B7279"/><polygon class="sidebar" transform="translate(0, 118.33333333333333)" points="0,0 12,0 12,12" fill="#6B7279" visibility="hidden"/><text font-size="12" fill="black"><tspan x="4" y="55.416666666666664">Software</tspan><tspan x="4" y="69.91666666666666">Discovery</tspan></text></g></g><g class="subtechniques"/><g class="tactic-label"><text font-size="12" fill="black" font-weight="bold"><tspan text-anchor="middle" x="68.21739130434783" y="62.666666666666664">Discovery</tspan></text></g></g><g class="tactic impact" transform="translate(909.5652173913043, 0)"><g class="techniques"><g class="technique T1499" transform="translate(0, 118.33333333333333)"><rect class="cell" height="118.33333333333333" width="136.43478260869566" fill="#8ec843" stroke="#6B7279"/><polygon class="sidebar" transform="translate(0, 118.33333333333333)" points="0,0 12,0 12,12" fill="#6B7279" visibility="hidden"/><text font-size="12" fill="black"><tspan x="4" y="55.416666666666664">Endpoint Denial</tspan><tspan x="4" y="69.91666666666666">of Service</tspan></text></g><g class="technique T1498" transform="translate(0, 236.66666666666666)"><rect class="cell" height="118.33333333333333" width="136.43478260869566" fill="white" stroke="#6B7279"/><polygon class="sidebar" transform="translate(0, 118.33333333333333)" points="0,0 12,0 12,12" fill="#6B7279" visibility="hidden"/><text font-size="12" fill="black"><tspan x="4" y="55.416666666666664">Network Denial</tspan><tspan x="4" y="69.91666666666666">of Service</tspan></text></g></g><g class="subtechniques"/><g class="tactic-label"><text font-size="12" fill="black" font-weight="bold"><tspan text-anchor="middle" x="68.21739130434783" y="62.666666666666664">Impact</tspan></text></g></g></g></g></g></svg>