<?xml version="1.0" standalone="no"?>
<svg width="1056" height="816" xmlns="http://www.w3.org/2000/svg" id="svgvm4"><g transform="translate(5,5)" style="font-family: sans-serif;"><g><g transform="translate(0, 0)"><g transform="translate(0,5)"><rect class="header-box" width="251.56962025316454" height="86" stroke="black" fill="white" rx="5"/><rect class="label-cover" x="8" y="-9.666666984558105" width="34.6953125" height="17.33333396911621" fill="white" rx="5"/><text class="header-box-label" x="10" font-size="12" y="3">about</text><g class="header-box-content" transform="translate(5, 0)"><g transform="translate(0, 2.0975609756097526)"><text font-size="12"><tspan x="4" y="16.176829268292682">GCP Layer Json</tspan><tspan x="4" y="30.676829268292682">File for Microsoft Sentinel</tspan></text><line x1="0" x2="241.56962025316454" y1="39.853658536585364" y2="39.853658536585364" stroke="#dddddd"/></g><g transform="translate(0, 44.048780487804876)"><text font-size="12"><tspan x="4" y="16.176829268292682">GCP ATT&amp;CK Matrix Coverage</tspan><tspan x="4" y="30.676829268292682">for Microsoft Sentinel</tspan></text></g></g></g></g><g transform="translate(264.8101265822785, 0)"><g transform="translate(0,5)"><rect class="header-box" width="251.56962025316454" height="86" stroke="black" fill="white" rx="5"/><rect class="label-cover" x="8" y="-9.666666984558105" width="43.364585876464844" height="17.33333396911621" fill="white" rx="5"/><text class="header-box-label" x="10" font-size="12" y="3">domain</text><g class="header-box-content" transform="translate(5, 0)"><g transform="translate(0, 4.095238095238102)"><text font-size="12"><tspan x="4" y="42.4047619047619">Enterprise ATT&amp;CK v10</tspan></text></g></g></g></g><g transform="translate(529.620253164557, 0)"><g transform="translate(0,5)"><rect class="header-box" width="251.56962025316454" height="86" stroke="black" fill="white" rx="5"/><rect class="label-cover" x="8" y="-9.666666984558105" width="53.35416793823242" height="17.33333396911621" fill="white" rx="5"/><text class="header-box-label" x="10" font-size="12" y="3">platforms</text><g class="header-box-content" transform="translate(5, 0)"><g transform="translate(0, 4.095238095238102)"><text font-size="12"><tspan x="4" y="42.4047619047619">IaaS</tspan></text></g></g></g></g><g transform="translate(794.4303797468355, 0)"><g transform="translate(0,5)"><rect class="header-box" width="251.56962025316454" height="86" stroke="black" fill="white" rx="5"/><rect class="label-cover" x="8" y="-9.666666984558105" width="40.04166793823242" height="17.33333396911621" fill="white" rx="5"/><text class="header-box-label" x="10" font-size="12" y="3">legend</text><g class="header-box-content" transform="translate(5, 0)"><g transform="translate(0, 2.0975609756097526)"><g transform="translate(0, 5)"><g class="legendCells"><g class="cell" transform="translate(0,0)"><rect class="swatch" height="15" width="40.26160337552742" style="fill: rgb(255, 102, 102);"/><text class="label" transform="translate(20.130802154541016,&#10;          25)" style="text-anchor: middle;">0.0</text></g><g class="cell" transform="translate(40.26160430908203,0)"><rect class="swatch" height="15" width="40.26160337552742" style="fill: rgb(255, 154, 102);"/><text class="label" transform="translate(20.130802154541016,&#10;          25)" style="text-anchor: middle;">0.20</text></g><g class="cell" transform="translate(80.52320861816406,0)"><rect class="swatch" height="15" width="40.26160337552742" style="fill: rgb(255, 205, 102);"/><text class="label" transform="translate(20.130802154541016,&#10;          25)" style="text-anchor: middle;">0.40</text></g><g class="cell" transform="translate(120.7848129272461,0)"><rect class="swatch" height="15" width="40.26160337552742" style="fill: rgb(232, 225, 95);"/><text class="label" transform="translate(20.130802154541016,&#10;          25)" style="text-anchor: middle;">0.60</text></g><g class="cell" transform="translate(161.04641723632812,0)"><rect class="swatch" height="15" width="40.26160337552742" style="fill: rgb(187, 212, 81);"/><text class="label" transform="translate(20.130802154541016,&#10;          25)" style="text-anchor: middle;">0.80</text></g><g class="cell" transform="translate(201.30802154541016,0)"><rect class="swatch" height="15" width="40.26160337552742" style="fill: rgb(142, 200, 67);"/><text class="label" transform="translate(20.130802154541016,&#10;          25)" style="text-anchor: middle;">1.0</text></g></g></g><line x1="0" x2="241.56962025316454" y1="39.853658536585364" y2="39.853658536585364" stroke="#dddddd"/></g><g transform="translate(0, 44.048780487804876)"><g transform="translate(0, 5)"><g class="legendCells"><g class="cell" transform="translate(0,0)"><rect class="swatch" height="15" width="241.56962025316454" style="fill: rgb(102, 255, 243);"/><text class="label" transform="translate(120.7848129272461,&#10;          25)" style="text-anchor: middle;">Techniques researched</text></g></g></g></g></g></g></g></g><g transform="translate(0,97)"><g><g class="tactic initial-access" transform="translate(0, 0)"><g class="techniques"><g class="technique T1190" transform="translate(0, 54.61538461538462)"><rect class="cell" height="54.61538461538462" width="86.36697247706422" fill="white" stroke="#6B7279"/><polygon class="sidebar" transform="translate(0, 54.61538461538462)" points="0,0 12,0 12,0" fill="#6B7279" visibility="hidden"/><text font-size="6.31289500509684" fill="black"><tspan x="4" y="15.141025641025642">Exploit</tspan><tspan x="4" y="29.80769230769231">Public-Facing</tspan><tspan x="4" y="44.47435897435898">Application</tspan></text></g><g class="technique T1199" transform="translate(0, 109.23076923076924)"><rect class="cell" height="54.61538461538462" width="86.36697247706422" fill="white" stroke="#6B7279"/><polygon class="sidebar" transform="translate(0, 54.61538461538462)" points="0,0 12,0 12,0" fill="#6B7279" visibility="hidden"/><text font-size="6.31289500509684" fill="black"><tspan x="4" y="22.55769230769231">Trusted</tspan><tspan x="4" y="37.05769230769231">Relationship</tspan></text></g><g class="technique T1078" transform="translate(0, 163.84615384615387)"><rect class="cell" height="54.61538461538462" width="86.36697247706422" fill="#8ec843" stroke="#6B7279"/><polygon class="sidebar" transform="translate(0, 54.61538461538462)" points="0,0 12,0 12,12" fill="#6B7279" visibility="hidden"/><text font-size="6.31289500509684" fill="black"><tspan x="4" y="23.55769230769231">Valid</tspan><tspan x="4" y="38.05769230769231">Accounts</tspan></text></g></g><g class="subtechniques"/><g class="tactic-label"><text font-size="9.46934250764526" fill="black" font-weight="bold"><tspan text-anchor="middle" x="43.18348623853211" y="23.55769230769231">Initial</tspan><tspan text-anchor="middle" x="43.18348623853211" y="38.05769230769231">Access</tspan></text></g></g><g class="tactic execution" transform="translate(95.96330275229357, 0)"><g class="techniques"><g class="technique T1204" transform="translate(0, 54.61538461538462)"><rect class="cell" height="54.61538461538462" width="86.36697247706422" fill="white" stroke="#6B7279"/><polygon class="sidebar" transform="translate(0, 54.61538461538462)" points="0,0 12,0 12,12" fill="#6B7279" visibility="hidden"/><text font-size="6.31289500509684" fill="black"><tspan x="4" y="23.55769230769231">User</tspan><tspan x="4" y="38.05769230769231">Execution</tspan></text></g></g><g class="subtechniques"/><g class="tactic-label"><text font-size="9.46934250764526" fill="black" font-weight="bold"><tspan text-anchor="middle" x="43.18348623853211" y="30.80769230769231">Execution</tspan></text></g></g><g class="tactic persistence" transform="translate(191.92660550458714, 0)"><g class="techniques"><g class="technique T1098" transform="translate(0, 54.61538461538462)"><rect class="cell" height="54.61538461538462" width="86.36697247706422" fill="white" stroke="#6B7279"/><polygon class="sidebar" transform="translate(0, 54.61538461538462)" points="0,0 12,0 12,12" fill="#6B7279" visibility="hidden"/><text font-size="6.31289500509684" fill="black"><tspan x="4" y="22.55769230769231">Account</tspan><tspan x="4" y="37.05769230769231">Manipulation</tspan></text></g><g class="technique T1136" transform="translate(0, 109.23076923076924)"><rect class="cell" height="54.61538461538462" width="86.36697247706422" fill="white" stroke="#6B7279"/><polygon class="sidebar" transform="translate(0, 54.61538461538462)" points="0,0 12,0 12,12" fill="#6B7279" visibility="hidden"/><text font-size="6.31289500509684" fill="black"><tspan x="4" y="23.55769230769231">Create</tspan><tspan x="4" y="38.05769230769231">Account</tspan></text></g><g class="technique T1525" transform="translate(0, 163.84615384615387)"><rect class="cell" height="54.61538461538462" width="86.36697247706422" fill="white" stroke="#6B7279"/><polygon class="sidebar" transform="translate(0, 54.61538461538462)" points="0,0 12,0 12,0" fill="#6B7279" visibility="hidden"/><text font-size="6.31289500509684" fill="black"><tspan x="4" y="16.141025641025642">Implant</tspan><tspan x="4" y="30.80769230769231">Internal</tspan><tspan x="4" y="45.47435897435898">Image</tspan></text></g><g class="technique T1078" transform="translate(0, 218.46153846153848)"><rect class="cell" height="54.61538461538462" width="86.36697247706422" fill="#8ec843" stroke="#6B7279"/><polygon class="sidebar" transform="translate(0, 54.61538461538462)" points="0,0 12,0 12,12" fill="#6B7279" visibility="hidden"/><text font-size="6.31289500509684" fill="black"><tspan x="4" y="23.55769230769231">Valid</tspan><tspan x="4" y="38.05769230769231">Accounts</tspan></text></g></g><g class="subtechniques"/><g class="tactic-label"><text font-size="9.46934250764526" fill="black" font-weight="bold"><tspan text-anchor="middle" x="43.18348623853211" y="30.80769230769231">Persistence</tspan></text></g></g><g class="tactic privilege-escalation" transform="translate(287.88990825688074, 0)"><g class="techniques"><g class="technique T1078" transform="translate(0, 54.61538461538462)"><rect class="cell" height="54.61538461538462" width="86.36697247706422" fill="#8ec843" stroke="#6B7279"/><polygon class="sidebar" transform="translate(0, 54.61538461538462)" points="0,0 12,0 12,12" fill="#6B7279" visibility="hidden"/><text font-size="6.31289500509684" fill="black"><tspan x="4" y="23.55769230769231">Valid</tspan><tspan x="4" y="38.05769230769231">Accounts</tspan></text></g></g><g class="subtechniques"/><g class="tactic-label"><text font-size="9.46934250764526" fill="black" font-weight="bold"><tspan text-anchor="middle" x="43.18348623853211" y="23.55769230769231">Privilege</tspan><tspan text-anchor="middle" x="43.18348623853211" y="38.05769230769231">Escalation</tspan></text></g></g><g class="tactic defense-evasion" transform="translate(383.8532110091743, 0)"><g class="techniques"><g class="technique T1562" transform="translate(0, 54.61538461538462)"><rect class="cell" height="54.61538461538462" width="86.36697247706422" fill="white" stroke="#6B7279"/><polygon class="sidebar" transform="translate(0, 54.61538461538462)" points="0,0 12,0 12,12" fill="#6B7279" visibility="hidden"/><text font-size="6.31289500509684" fill="black"><tspan x="4" y="23.55769230769231">Impair</tspan><tspan x="4" y="38.05769230769231">Defenses</tspan></text></g><g class="technique T1578" transform="translate(0, 109.23076923076924)"><rect class="cell" height="54.61538461538462" width="86.36697247706422" fill="white" stroke="#6B7279"/><polygon class="sidebar" transform="translate(0, 54.61538461538462)" points="0,0 12,0 12,12" fill="#6B7279" visibility="hidden"/><text font-size="6.31289500509684" fill="black"><tspan x="4" y="15.141025641025642">Modify</tspan><tspan x="4" y="29.80769230769231">Cloud Compute</tspan><tspan x="4" y="44.47435897435898">Infrastructure</tspan></text></g><g class="technique T1535" transform="translate(0, 163.84615384615387)"><rect class="cell" height="54.61538461538462" width="86.36697247706422" fill="white" stroke="#6B7279"/><polygon class="sidebar" transform="translate(0, 54.61538461538462)" points="0,0 12,0 12,0" fill="#6B7279" visibility="hidden"/><text font-size="6.31289500509684" fill="black"><tspan x="4" y="21.55769230769231">Unused/Unsupported</tspan><tspan x="4" y="36.05769230769231">Cloud Regions</tspan></text></g><g class="technique T1550" transform="translate(0, 218.46153846153848)"><rect class="cell" height="54.61538461538462" width="86.36697247706422" fill="white" stroke="#6B7279"/><polygon class="sidebar" transform="translate(0, 54.61538461538462)" points="0,0 12,0 12,12" fill="#6B7279" visibility="hidden"/><text font-size="6.31289500509684" fill="black"><tspan x="4" y="15.141025641025642">Use Alternate</tspan><tspan x="4" y="29.80769230769231">Authentication</tspan><tspan x="4" y="44.47435897435898">Material</tspan></text></g><g class="technique T1078" transform="translate(0, 273.0769230769231)"><rect class="cell" height="54.61538461538462" width="86.36697247706422" fill="#8ec843" stroke="#6B7279"/><polygon class="sidebar" transform="translate(0, 54.61538461538462)" points="0,0 12,0 12,12" fill="#6B7279" visibility="hidden"/><text font-size="6.31289500509684" fill="black"><tspan x="4" y="23.55769230769231">Valid</tspan><tspan x="4" y="38.05769230769231">Accounts</tspan></text></g></g><g class="subtechniques"/><g class="tactic-label"><text font-size="9.46934250764526" fill="black" font-weight="bold"><tspan text-anchor="middle" x="43.18348623853211" y="23.55769230769231">Defense</tspan><tspan text-anchor="middle" x="43.18348623853211" y="38.05769230769231">Evasion</tspan></text></g></g><g class="tactic credential-access" transform="translate(479.81651376146783, 0)"><g class="techniques"><g class="technique T1110" transform="translate(0, 54.61538461538462)"><rect class="cell" height="54.61538461538462" width="86.36697247706422" fill="#8ec843" stroke="#6B7279"/><polygon class="sidebar" transform="translate(0, 54.61538461538462)" points="0,0 12,0 12,12" fill="#6B7279" visibility="hidden"/><text font-size="6.31289500509684" fill="black"><tspan x="4" y="23.55769230769231">Brute</tspan><tspan x="4" y="38.05769230769231">Force</tspan></text></g><g class="technique T1606" transform="translate(0, 109.23076923076924)"><rect class="cell" height="54.61538461538462" width="86.36697247706422" fill="white" stroke="#6B7279"/><polygon class="sidebar" transform="translate(0, 54.61538461538462)" points="0,0 12,0 12,12" fill="#6B7279" visibility="hidden"/><text font-size="6.31289500509684" fill="black"><tspan x="4" y="23.55769230769231">Forge Web</tspan><tspan x="4" y="38.05769230769231">Credentials</tspan></text></g><g class="technique T1552" transform="translate(0, 163.84615384615387)"><rect class="cell" height="54.61538461538462" width="86.36697247706422" fill="white" stroke="#6B7279"/><polygon class="sidebar" transform="translate(0, 54.61538461538462)" points="0,0 12,0 12,12" fill="#6B7279" visibility="hidden"/><text font-size="6.31289500509684" fill="black"><tspan x="4" y="23.55769230769231">Unsecured</tspan><tspan x="4" y="38.05769230769231">Credentials</tspan></text></g></g><g class="subtechniques"/><g class="tactic-label"><text font-size="9.46934250764526" fill="black" font-weight="bold"><tspan text-anchor="middle" x="43.18348623853211" y="23.55769230769231">Credential</tspan><tspan text-anchor="middle" x="43.18348623853211" y="38.05769230769231">Access</tspan></text></g></g><g class="tactic discovery" transform="translate(575.7798165137615, 0)"><g class="techniques"><g class="technique T1087" transform="translate(0, 54.61538461538462)"><rect class="cell" height="54.61538461538462" width="86.36697247706422" fill="white" stroke="#6B7279"/><polygon class="sidebar" transform="translate(0, 54.61538461538462)" points="0,0 12,0 12,12" fill="#6B7279" visibility="hidden"/><text font-size="6.31289500509684" fill="black"><tspan x="4" y="23.55769230769231">Account</tspan><tspan x="4" y="38.05769230769231">Discovery</tspan></text></g><g class="technique T1580" transform="translate(0, 109.23076923076924)"><rect class="cell" height="54.61538461538462" width="86.36697247706422" fill="white" stroke="#6B7279"/><polygon class="sidebar" transform="translate(0, 54.61538461538462)" points="0,0 12,0 12,0" fill="#6B7279" visibility="hidden"/><text font-size="6.31289500509684" fill="black"><tspan x="4" y="15.141025641025642">Cloud</tspan><tspan x="4" y="29.80769230769231">Infrastructure</tspan><tspan x="4" y="44.47435897435898">Discovery</tspan></text></g><g class="technique T1538" transform="translate(0, 163.84615384615387)"><rect class="cell" height="54.61538461538462" width="86.36697247706422" fill="white" stroke="#6B7279"/><polygon class="sidebar" transform="translate(0, 54.61538461538462)" points="0,0 12,0 12,0" fill="#6B7279" visibility="hidden"/><text font-size="6.31289500509684" fill="black"><tspan x="4" y="16.141025641025642">Cloud</tspan><tspan x="4" y="30.80769230769231">Service</tspan><tspan x="4" y="45.47435897435898">Dashboard</tspan></text></g><g class="technique T1526" transform="translate(0, 218.46153846153848)"><rect class="cell" height="54.61538461538462" width="86.36697247706422" fill="white" stroke="#6B7279"/><polygon class="sidebar" transform="translate(0, 54.61538461538462)" points="0,0 12,0 12,0" fill="#6B7279" visibility="hidden"/><text font-size="6.31289500509684" fill="black"><tspan x="4" y="16.141025641025642">Cloud</tspan><tspan x="4" y="30.80769230769231">Service</tspan><tspan x="4" y="45.47435897435898">Discovery</tspan></text></g><g class="technique T1619" transform="translate(0, 273.0769230769231)"><rect class="cell" height="54.61538461538462" width="86.36697247706422" fill="white" stroke="#6B7279"/><polygon class="sidebar" transform="translate(0, 54.61538461538462)" points="0,0 12,0 12,0" fill="#6B7279" visibility="hidden"/><text font-size="6.31289500509684" fill="black"><tspan x="4" y="10.701923076923077">Cloud</tspan><tspan x="4" y="24.105769230769234">Storage</tspan><tspan x="4" y="37.50961538461539">Object</tspan><tspan x="4" y="50.91346153846154">Discovery</tspan></text></g><g class="technique T1046" transform="translate(0, 327.69230769230774)"><rect class="cell" height="54.61538461538462" width="86.36697247706422" fill="white" stroke="#6B7279"/><polygon class="sidebar" transform="translate(0, 54.61538461538462)" points="0,0 12,0 12,0" fill="#6B7279" visibility="hidden"/><text font-size="6.31289500509684" fill="black"><tspan x="4" y="16.141025641025642">Network</tspan><tspan x="4" y="30.80769230769231">Service</tspan><tspan x="4" y="45.47435897435898">Scanning</tspan></text></g><g class="technique T1201" transform="translate(0, 382.30769230769226)"><rect class="cell" height="54.61538461538462" width="86.36697247706422" fill="white" stroke="#6B7279"/><polygon class="sidebar" transform="translate(0, 54.61538461538462)" points="0,0 12,0 12,0" fill="#6B7279" visibility="hidden"/><text font-size="6.31289500509684" fill="black"><tspan x="4" y="16.141025641025642">Password</tspan><tspan x="4" y="30.80769230769231">Policy</tspan><tspan x="4" y="45.47435897435898">Discovery</tspan></text></g><g class="technique T1069" transform="translate(0, 436.92307692307696)"><rect class="cell" height="54.61538461538462" width="86.36697247706422" fill="white" stroke="#6B7279"/><polygon class="sidebar" transform="translate(0, 54.61538461538462)" points="0,0 12,0 12,12" fill="#6B7279" visibility="hidden"/><text font-size="6.31289500509684" fill="black"><tspan x="4" y="16.141025641025642">Permission</tspan><tspan x="4" y="30.80769230769231">Groups</tspan><tspan x="4" y="45.47435897435898">Discovery</tspan></text></g><g class="technique T1518" transform="translate(0, 491.53846153846155)"><rect class="cell" height="54.61538461538462" width="86.36697247706422" fill="white" stroke="#6B7279"/><polygon class="sidebar" transform="translate(0, 54.61538461538462)" points="0,0 12,0 12,12" fill="#6B7279" visibility="hidden"/><text font-size="6.31289500509684" fill="black"><tspan x="4" y="23.55769230769231">Software</tspan><tspan x="4" y="38.05769230769231">Discovery</tspan></text></g><g class="technique T1082" transform="translate(0, 546.1538461538462)"><rect class="cell" height="54.61538461538462" width="86.36697247706422" fill="white" stroke="#6B7279"/><polygon class="sidebar" transform="translate(0, 54.61538461538462)" points="0,0 12,0 12,0" fill="#6B7279" visibility="hidden"/><text font-size="6.31289500509684" fill="black"><tspan x="4" y="16.141025641025642">System</tspan><tspan x="4" y="30.80769230769231">Information</tspan><tspan x="4" y="45.47435897435898">Discovery</tspan></text></g><g class="technique T1614" transform="translate(0, 600.7692307692307)"><rect class="cell" height="54.61538461538462" width="86.36697247706422" fill="white" stroke="#6B7279"/><polygon class="sidebar" transform="translate(0, 54.61538461538462)" points="0,0 12,0 12,0" fill="#6B7279" visibility="hidden"/><text font-size="6.31289500509684" fill="black"><tspan x="4" y="16.141025641025642">System</tspan><tspan x="4" y="30.80769230769231">Location</tspan><tspan x="4" y="45.47435897435898">Discovery</tspan></text></g><g class="technique T1049" transform="translate(0, 655.3846153846155)"><rect class="cell" height="54.61538461538462" width="86.36697247706422" fill="white" stroke="#6B7279"/><polygon class="sidebar" transform="translate(0, 54.61538461538462)" points="0,0 12,0 12,0" fill="#6B7279" visibility="hidden"/><text font-size="6.31289500509684" fill="black"><tspan x="4" y="10.701923076923077">System</tspan><tspan x="4" y="24.105769230769234">Network</tspan><tspan x="4" y="37.50961538461539">Connections</tspan><tspan x="4" y="50.91346153846154">Discovery</tspan></text></g></g><g class="subtechniques"/><g class="tactic-label"><text font-size="9.46934250764526" fill="black" font-weight="bold"><tspan text-anchor="middle" x="43.18348623853211" y="30.80769230769231">Discovery</tspan></text></g></g><g class="tactic lateral-movement" transform="translate(671.743119266055, 0)"><g class="techniques"><g class="technique T1550" transform="translate(0, 54.61538461538462)"><rect class="cell" height="54.61538461538462" width="86.36697247706422" fill="white" stroke="#6B7279"/><polygon class="sidebar" transform="translate(0, 54.61538461538462)" points="0,0 12,0 12,12" fill="#6B7279" visibility="hidden"/><text font-size="6.31289500509684" fill="black"><tspan x="4" y="15.141025641025642">Use Alternate</tspan><tspan x="4" y="29.80769230769231">Authentication</tspan><tspan x="4" y="44.47435897435898">Material</tspan></text></g></g><g class="subtechniques"/><g class="tactic-label"><text font-size="9.46934250764526" fill="black" font-weight="bold"><tspan text-anchor="middle" x="43.18348623853211" y="23.55769230769231">Lateral</tspan><tspan text-anchor="middle" x="43.18348623853211" y="38.05769230769231">Movement</tspan></text></g></g><g class="tactic collection" transform="translate(767.7064220183486, 0)"><g class="techniques"><g class="technique T1530" transform="translate(0, 54.61538461538462)"><rect class="cell" height="54.61538461538462" width="86.36697247706422" fill="white" stroke="#6B7279"/><polygon class="sidebar" transform="translate(0, 54.61538461538462)" points="0,0 12,0 12,0" fill="#6B7279" visibility="hidden"/><text font-size="6.31289500509684" fill="black"><tspan x="4" y="10.701923076923077">Data</tspan><tspan x="4" y="24.105769230769234">from Cloud</tspan><tspan x="4" y="37.50961538461539">Storage</tspan><tspan x="4" y="50.91346153846154">Object</tspan></text></g><g class="technique T1213" transform="translate(0, 109.23076923076924)"><rect class="cell" height="54.61538461538462" width="86.36697247706422" fill="white" stroke="#6B7279"/><polygon class="sidebar" transform="translate(0, 54.61538461538462)" points="0,0 12,0 12,0" fill="#6B7279" visibility="hidden"/><text font-size="6.31289500509684" fill="black"><tspan x="4" y="15.141025641025642">Data from</tspan><tspan x="4" y="29.80769230769231">Information</tspan><tspan x="4" y="44.47435897435898">Repositories</tspan></text></g><g class="technique T1074" transform="translate(0, 163.84615384615387)"><rect class="cell" height="54.61538461538462" width="86.36697247706422" fill="white" stroke="#6B7279"/><polygon class="sidebar" transform="translate(0, 54.61538461538462)" points="0,0 12,0 12,12" fill="#6B7279" visibility="hidden"/><text font-size="6.31289500509684" fill="black"><tspan x="4" y="23.55769230769231">Data</tspan><tspan x="4" y="38.05769230769231">Staged</tspan></text></g></g><g class="subtechniques"/><g class="tactic-label"><text font-size="9.46934250764526" fill="black" font-weight="bold"><tspan text-anchor="middle" x="43.18348623853211" y="30.80769230769231">Collection</tspan></text></g></g><g class="tactic exfiltration" transform="translate(863.6697247706421, 0)"><g class="techniques"><g class="technique T1537" transform="translate(0, 54.61538461538462)"><rect class="cell" height="54.61538461538462" width="86.36697247706422" fill="white" stroke="#6B7279"/><polygon class="sidebar" transform="translate(0, 54.61538461538462)" points="0,0 12,0 12,0" fill="#6B7279" visibility="hidden"/><text font-size="6.31289500509684" fill="black"><tspan x="4" y="10.701923076923077">Transfer</tspan><tspan x="4" y="24.105769230769234">Data</tspan><tspan x="4" y="37.50961538461539">to Cloud</tspan><tspan x="4" y="50.91346153846154">Account</tspan></text></g></g><g class="subtechniques"/><g class="tactic-label"><text font-size="9.46934250764526" fill="black" font-weight="bold"><tspan text-anchor="middle" x="43.18348623853211" y="29.80769230769231">Exfiltration</tspan></text></g></g><g class="tactic impact" transform="translate(959.6330275229357, 0)"><g class="techniques"><g class="technique T1485" transform="translate(0, 54.61538461538462)"><rect class="cell" height="54.61538461538462" width="86.36697247706422" fill="#8ec843" stroke="#6B7279"/><polygon class="sidebar" transform="translate(0, 54.61538461538462)" points="0,0 12,0 12,0" fill="#6B7279" visibility="hidden"/><text font-size="6.31289500509684" fill="black"><tspan x="4" y="23.55769230769231">Data</tspan><tspan x="4" y="38.05769230769231">Destruction</tspan></text></g><g class="technique T1486" transform="translate(0, 109.23076923076924)"><rect class="cell" height="54.61538461538462" width="86.36697247706422" fill="#8ec843" stroke="#6B7279"/><polygon class="sidebar" transform="translate(0, 54.61538461538462)" points="0,0 12,0 12,0" fill="#6B7279" visibility="hidden"/><text font-size="6.31289500509684" fill="black"><tspan x="4" y="16.141025641025642">Data</tspan><tspan x="4" y="30.80769230769231">Encrypted</tspan><tspan x="4" y="45.47435897435898">for Impact</tspan></text></g><g class="technique T1491" transform="translate(0, 163.84615384615387)"><rect class="cell" height="54.61538461538462" width="86.36697247706422" fill="white" stroke="#6B7279"/><polygon class="sidebar" transform="translate(0, 54.61538461538462)" points="0,0 12,0 12,12" fill="#6B7279" visibility="hidden"/><text font-size="6.31289500509684" fill="black"><tspan x="4" y="30.80769230769231">Defacement</tspan></text></g><g class="technique T1499" transform="translate(0, 218.46153846153848)"><rect class="cell" height="54.61538461538462" width="86.36697247706422" fill="#8ec843" stroke="#6B7279"/><polygon class="sidebar" transform="translate(0, 54.61538461538462)" points="0,0 12,0 12,12" fill="#6B7279" visibility="hidden"/><text font-size="6.31289500509684" fill="black"><tspan x="4" y="16.141025641025642">Endpoint</tspan><tspan x="4" y="30.80769230769231">Denial of</tspan><tspan x="4" y="45.47435897435898">Service</tspan></text></g><g class="technique T1498" transform="translate(0, 273.0769230769231)"><rect class="cell" height="54.61538461538462" width="86.36697247706422" fill="white" stroke="#6B7279"/><polygon class="sidebar" transform="translate(0, 54.61538461538462)" points="0,0 12,0 12,12" fill="#6B7279" visibility="hidden"/><text font-size="6.31289500509684" fill="black"><tspan x="4" y="16.141025641025642">Network</tspan><tspan x="4" y="30.80769230769231">Denial of</tspan><tspan x="4" y="45.47435897435898">Service</tspan></text></g><g class="technique T1496" transform="translate(0, 327.69230769230774)"><rect class="cell" height="54.61538461538462" width="86.36697247706422" fill="#8ec843" stroke="#6B7279"/><polygon class="sidebar" transform="translate(0, 54.61538461538462)" points="0,0 12,0 12,0" fill="#6B7279" visibility="hidden"/><text font-size="6.31289500509684" fill="black"><tspan x="4" y="23.55769230769231">Resource</tspan><tspan x="4" y="38.05769230769231">Hijacking</tspan></text></g></g><g class="subtechniques"/><g class="tactic-label"><text font-size="9.46934250764526" fill="black" font-weight="bold"><tspan text-anchor="middle" x="43.18348623853211" y="30.80769230769231">Impact</tspan></text></g></g></g></g></g></svg>