<?xml version="1.0" standalone="no"?>
<svg width="1056" height="816" xmlns="http://www.w3.org/2000/svg" id="svgvm1"><g transform="translate(5,5)" style="font-family: sans-serif;"><g><g transform="translate(0, 0)"><g transform="translate(0,5)"><rect class="header-box" width="509.5897435897436" height="86" stroke="black" fill="white" rx="5"/><rect class="label-cover" x="8" y="-9.666666984558105" width="43.364585876464844" height="17.33333396911621" fill="white" rx="5"/><text class="header-box-label" x="10" font-size="12" y="3">domain</text><g class="header-box-content" transform="translate(5, 0)"><g transform="translate(0, 4.095238095238102)"><text font-size="12"><tspan x="4" y="42.4047619047619">Enterprise ATT&amp;CK v11</tspan></text></g></g></g></g><g transform="translate(536.4102564102565, 0)"><g transform="translate(0,5)"><rect class="header-box" width="509.5897435897436" height="86" stroke="black" fill="white" rx="5"/><rect class="label-cover" x="8" y="-9.666666984558105" width="53.35416793823242" height="17.33333396911621" fill="white" rx="5"/><text class="header-box-label" x="10" font-size="12" y="3">platforms</text><g class="header-box-content" transform="translate(5, 0)"><g transform="translate(0, 4.095238095238102)"><text font-size="12"><tspan x="4" y="42.4047619047619">Office 365</tspan></text></g></g></g></g></g><g transform="translate(0,97)"><g><g class="tactic initial-access" transform="translate(0, 0)"><g class="techniques"><g class="technique T1566" transform="translate(0, 101.42857142857142)"><rect class="cell" height="101.42857142857142" width="105.7752808988764" fill="#8ec843" stroke="#6B7279"/><polygon class="sidebar" transform="translate(0, 101.42857142857142)" points="0,0 12,0 12,12" fill="#6B7279" visibility="hidden"/><text font-size="10.126725521669341" fill="black"><tspan x="4" y="54.21428571428571">Phishing</tspan></text></g><g class="technique T1078" transform="translate(0, 202.85714285714283)"><rect class="cell" height="101.42857142857142" width="105.7752808988764" fill="#8ec843" stroke="#6B7279"/><polygon class="sidebar" transform="translate(0, 101.42857142857142)" points="0,0 12,0 12,12" fill="#6B7279" visibility="hidden"/><text font-size="10.126725521669341" fill="black"><tspan x="4" y="46.96428571428571">Valid</tspan><tspan x="4" y="61.46428571428571">Accounts</tspan></text></g></g><g class="subtechniques"/><g class="tactic-label"><text font-size="12" fill="black" font-weight="bold"><tspan text-anchor="middle" x="52.8876404494382" y="46.96428571428571">Initial</tspan><tspan text-anchor="middle" x="52.8876404494382" y="61.46428571428571">Access</tspan></text></g></g><g class="tactic persistence" transform="translate(117.52808988764045, 0)"><g class="techniques"><g class="technique T1098" transform="translate(0, 101.42857142857142)"><rect class="cell" height="101.42857142857142" width="105.7752808988764" fill="#8ec843" stroke="#6B7279"/><polygon class="sidebar" transform="translate(0, 101.42857142857142)" points="0,0 12,0 12,12" fill="#6B7279" visibility="hidden"/><text font-size="10.126725521669341" fill="black"><tspan x="4" y="46.96428571428571">Account</tspan><tspan x="4" y="61.46428571428571">Manipulation</tspan></text></g><g class="technique T1136" transform="translate(0, 202.85714285714283)"><rect class="cell" height="101.42857142857142" width="105.7752808988764" fill="#8ec843" stroke="#6B7279"/><polygon class="sidebar" transform="translate(0, 101.42857142857142)" points="0,0 12,0 12,12" fill="#6B7279" visibility="hidden"/><text font-size="10.126725521669341" fill="black"><tspan x="4" y="46.96428571428571">Create</tspan><tspan x="4" y="61.46428571428571">Account</tspan></text></g><g class="technique T1137" transform="translate(0, 304.2857142857143)"><rect class="cell" height="101.42857142857142" width="105.7752808988764" fill="white" stroke="#6B7279"/><polygon class="sidebar" transform="translate(0, 101.42857142857142)" points="0,0 12,0 12,12" fill="#6B7279" visibility="hidden"/><text font-size="10.126725521669341" fill="black"><tspan x="4" y="39.54761904761904">Office</tspan><tspan x="4" y="54.21428571428571">Application</tspan><tspan x="4" y="68.88095238095238">Startup</tspan></text></g><g class="technique T1078" transform="translate(0, 405.71428571428567)"><rect class="cell" height="101.42857142857142" width="105.7752808988764" fill="#8ec843" stroke="#6B7279"/><polygon class="sidebar" transform="translate(0, 101.42857142857142)" points="0,0 12,0 12,12" fill="#6B7279" visibility="hidden"/><text font-size="10.126725521669341" fill="black"><tspan x="4" y="46.96428571428571">Valid</tspan><tspan x="4" y="61.46428571428571">Accounts</tspan></text></g></g><g class="subtechniques"/><g class="tactic-label"><text font-size="12" fill="black" font-weight="bold"><tspan text-anchor="middle" x="52.8876404494382" y="54.21428571428571">Persistence</tspan></text></g></g><g class="tactic privilege-escalation" transform="translate(235.0561797752809, 0)"><g class="techniques"><g class="technique T1078" transform="translate(0, 101.42857142857142)"><rect class="cell" height="101.42857142857142" width="105.7752808988764" fill="#8ec843" stroke="#6B7279"/><polygon class="sidebar" transform="translate(0, 101.42857142857142)" points="0,0 12,0 12,12" fill="#6B7279" visibility="hidden"/><text font-size="10.126725521669341" fill="black"><tspan x="4" y="46.96428571428571">Valid</tspan><tspan x="4" y="61.46428571428571">Accounts</tspan></text></g></g><g class="subtechniques"/><g class="tactic-label"><text font-size="12" fill="black" font-weight="bold"><tspan text-anchor="middle" x="52.8876404494382" y="46.96428571428571">Privilege</tspan><tspan text-anchor="middle" x="52.8876404494382" y="61.46428571428571">Escalation</tspan></text></g></g><g class="tactic defense-evasion" transform="translate(352.5842696629213, 0)"><g class="techniques"><g class="technique T1564" transform="translate(0, 101.42857142857142)"><rect class="cell" height="101.42857142857142" width="105.7752808988764" fill="white" stroke="#6B7279"/><polygon class="sidebar" transform="translate(0, 101.42857142857142)" points="0,0 12,0 12,12" fill="#6B7279" visibility="hidden"/><text font-size="10.126725521669341" fill="black"><tspan x="4" y="46.96428571428571">Hide</tspan><tspan x="4" y="61.46428571428571">Artifacts</tspan></text></g><g class="technique T1562" transform="translate(0, 202.85714285714283)"><rect class="cell" height="101.42857142857142" width="105.7752808988764" fill="#8ec843" stroke="#6B7279"/><polygon class="sidebar" transform="translate(0, 101.42857142857142)" points="0,0 12,0 12,0" fill="#6B7279" visibility="hidden"/><text font-size="10.126725521669341" fill="black"><tspan x="4" y="46.96428571428571">Impair</tspan><tspan x="4" y="61.46428571428571">Defenses</tspan></text></g><g class="technique T1550" transform="translate(0, 304.2857142857143)"><rect class="cell" height="101.42857142857142" width="105.7752808988764" fill="white" stroke="#6B7279"/><polygon class="sidebar" transform="translate(0, 101.42857142857142)" points="0,0 12,0 12,12" fill="#6B7279" visibility="hidden"/><text font-size="10.126725521669341" fill="black"><tspan x="4" y="39.54761904761904">Use Alternate</tspan><tspan x="4" y="54.21428571428571">Authentication</tspan><tspan x="4" y="68.88095238095238">Material</tspan></text></g><g class="technique T1078" transform="translate(0, 405.71428571428567)"><rect class="cell" height="101.42857142857142" width="105.7752808988764" fill="#8ec843" stroke="#6B7279"/><polygon class="sidebar" transform="translate(0, 101.42857142857142)" points="0,0 12,0 12,12" fill="#6B7279" visibility="hidden"/><text font-size="10.126725521669341" fill="black"><tspan x="4" y="46.96428571428571">Valid</tspan><tspan x="4" y="61.46428571428571">Accounts</tspan></text></g></g><g class="subtechniques"/><g class="tactic-label"><text font-size="12" fill="black" font-weight="bold"><tspan text-anchor="middle" x="52.8876404494382" y="46.96428571428571">Defense</tspan><tspan text-anchor="middle" x="52.8876404494382" y="61.46428571428571">Evasion</tspan></text></g></g><g class="tactic credential-access" transform="translate(470.1123595505618, 0)"><g class="techniques"><g class="technique T1110" transform="translate(0, 101.42857142857142)"><rect class="cell" height="101.42857142857142" width="105.7752808988764" fill="#8ec843" stroke="#6B7279"/><polygon class="sidebar" transform="translate(0, 101.42857142857142)" points="0,0 12,0 12,12" fill="#6B7279" visibility="hidden"/><text font-size="10.126725521669341" fill="black"><tspan x="4" y="54.21428571428571">Brute Force</tspan></text></g><g class="technique T1606" transform="translate(0, 202.85714285714283)"><rect class="cell" height="101.42857142857142" width="105.7752808988764" fill="white" stroke="#6B7279"/><polygon class="sidebar" transform="translate(0, 101.42857142857142)" points="0,0 12,0 12,12" fill="#6B7279" visibility="hidden"/><text font-size="10.126725521669341" fill="black"><tspan x="4" y="46.96428571428571">Forge Web</tspan><tspan x="4" y="61.46428571428571">Credentials</tspan></text></g><g class="technique T1621" transform="translate(0, 304.2857142857143)"><rect class="cell" height="101.42857142857142" width="105.7752808988764" fill="white" stroke="#6B7279"/><polygon class="sidebar" transform="translate(0, 101.42857142857142)" points="0,0 12,0 12,0" fill="#6B7279" visibility="hidden"/><text font-size="10.126725521669341" fill="black"><tspan x="4" y="32.08928571428571">Multi-Factor</tspan><tspan x="4" y="46.83928571428571">Authentication</tspan><tspan x="4" y="61.58928571428571">Request</tspan><tspan x="4" y="76.33928571428571">Generation</tspan></text></g><g class="technique T1528" transform="translate(0, 405.71428571428567)"><rect class="cell" height="101.42857142857142" width="105.7752808988764" fill="white" stroke="#6B7279"/><polygon class="sidebar" transform="translate(0, 101.42857142857142)" points="0,0 12,0 12,0" fill="#6B7279" visibility="hidden"/><text font-size="10.126725521669341" fill="black"><tspan x="4" y="32.08928571428571">Steal</tspan><tspan x="4" y="46.83928571428571">Application</tspan><tspan x="4" y="61.58928571428571">Access</tspan><tspan x="4" y="76.33928571428571">Token</tspan></text></g><g class="technique T1539" transform="translate(0, 507.14285714285717)"><rect class="cell" height="101.42857142857142" width="105.7752808988764" fill="white" stroke="#6B7279"/><polygon class="sidebar" transform="translate(0, 101.42857142857142)" points="0,0 12,0 12,0" fill="#6B7279" visibility="hidden"/><text font-size="10.126725521669341" fill="black"><tspan x="4" y="39.54761904761904">Steal</tspan><tspan x="4" y="54.21428571428571">Web Session</tspan><tspan x="4" y="68.88095238095238">Cookie</tspan></text></g><g class="technique T1552" transform="translate(0, 608.5714285714286)"><rect class="cell" height="101.42857142857142" width="105.7752808988764" fill="white" stroke="#6B7279"/><polygon class="sidebar" transform="translate(0, 101.42857142857142)" points="0,0 12,0 12,0" fill="#6B7279" visibility="hidden"/><text font-size="10.126725521669341" fill="black"><tspan x="4" y="46.96428571428571">Unsecured</tspan><tspan x="4" y="61.46428571428571">Credentials</tspan></text></g></g><g class="subtechniques"/><g class="tactic-label"><text font-size="12" fill="black" font-weight="bold"><tspan text-anchor="middle" x="52.8876404494382" y="46.96428571428571">Credential</tspan><tspan text-anchor="middle" x="52.8876404494382" y="61.46428571428571">Access</tspan></text></g></g><g class="tactic discovery" transform="translate(587.6404494382023, 0)"><g class="techniques"><g class="technique T1087" transform="translate(0, 101.42857142857142)"><rect class="cell" height="101.42857142857142" width="105.7752808988764" fill="#8ec843" stroke="#6B7279"/><polygon class="sidebar" transform="translate(0, 101.42857142857142)" points="0,0 12,0 12,12" fill="#6B7279" visibility="hidden"/><text font-size="10.126725521669341" fill="black"><tspan x="4" y="46.96428571428571">Account</tspan><tspan x="4" y="61.46428571428571">Discovery</tspan></text></g><g class="technique T1538" transform="translate(0, 202.85714285714283)"><rect class="cell" height="101.42857142857142" width="105.7752808988764" fill="white" stroke="#6B7279"/><polygon class="sidebar" transform="translate(0, 101.42857142857142)" points="0,0 12,0 12,0" fill="#6B7279" visibility="hidden"/><text font-size="10.126725521669341" fill="black"><tspan x="4" y="39.54761904761904">Cloud</tspan><tspan x="4" y="54.21428571428571">Service</tspan><tspan x="4" y="68.88095238095238">Dashboard</tspan></text></g><g class="technique T1526" transform="translate(0, 304.2857142857143)"><rect class="cell" height="101.42857142857142" width="105.7752808988764" fill="white" stroke="#6B7279"/><polygon class="sidebar" transform="translate(0, 101.42857142857142)" points="0,0 12,0 12,0" fill="#6B7279" visibility="hidden"/><text font-size="10.126725521669341" fill="black"><tspan x="4" y="39.54761904761904">Cloud</tspan><tspan x="4" y="54.21428571428571">Service</tspan><tspan x="4" y="68.88095238095238">Discovery</tspan></text></g><g class="technique T1069" transform="translate(0, 405.71428571428567)"><rect class="cell" height="101.42857142857142" width="105.7752808988764" fill="white" stroke="#6B7279"/><polygon class="sidebar" transform="translate(0, 101.42857142857142)" points="0,0 12,0 12,12" fill="#6B7279" visibility="hidden"/><text font-size="10.126725521669341" fill="black"><tspan x="4" y="39.54761904761904">Permission</tspan><tspan x="4" y="54.21428571428571">Groups</tspan><tspan x="4" y="68.88095238095238">Discovery</tspan></text></g><g class="technique T1518" transform="translate(0, 507.14285714285717)"><rect class="cell" height="101.42857142857142" width="105.7752808988764" fill="white" stroke="#6B7279"/><polygon class="sidebar" transform="translate(0, 101.42857142857142)" points="0,0 12,0 12,12" fill="#6B7279" visibility="hidden"/><text font-size="10.126725521669341" fill="black"><tspan x="4" y="46.96428571428571">Software</tspan><tspan x="4" y="61.46428571428571">Discovery</tspan></text></g></g><g class="subtechniques"/><g class="tactic-label"><text font-size="12" fill="black" font-weight="bold"><tspan text-anchor="middle" x="52.8876404494382" y="54.21428571428571">Discovery</tspan></text></g></g><g class="tactic lateral-movement" transform="translate(705.1685393258426, 0)"><g class="techniques"><g class="technique T1534" transform="translate(0, 101.42857142857142)"><rect class="cell" height="101.42857142857142" width="105.7752808988764" fill="white" stroke="#6B7279"/><polygon class="sidebar" transform="translate(0, 101.42857142857142)" points="0,0 12,0 12,0" fill="#6B7279" visibility="hidden"/><text font-size="10.126725521669341" fill="black"><tspan x="4" y="46.96428571428571">Internal</tspan><tspan x="4" y="61.46428571428571">Spearphishing</tspan></text></g><g class="technique T1080" transform="translate(0, 202.85714285714283)"><rect class="cell" height="101.42857142857142" width="105.7752808988764" fill="white" stroke="#6B7279"/><polygon class="sidebar" transform="translate(0, 101.42857142857142)" points="0,0 12,0 12,0" fill="#6B7279" visibility="hidden"/><text font-size="10.126725521669341" fill="black"><tspan x="4" y="39.54761904761904">Taint</tspan><tspan x="4" y="54.21428571428571">Shared</tspan><tspan x="4" y="68.88095238095238">Content</tspan></text></g><g class="technique T1550" transform="translate(0, 304.2857142857143)"><rect class="cell" height="101.42857142857142" width="105.7752808988764" fill="white" stroke="#6B7279"/><polygon class="sidebar" transform="translate(0, 101.42857142857142)" points="0,0 12,0 12,12" fill="#6B7279" visibility="hidden"/><text font-size="10.126725521669341" fill="black"><tspan x="4" y="39.54761904761904">Use Alternate</tspan><tspan x="4" y="54.21428571428571">Authentication</tspan><tspan x="4" y="68.88095238095238">Material</tspan></text></g></g><g class="subtechniques"/><g class="tactic-label"><text font-size="12" fill="black" font-weight="bold"><tspan text-anchor="middle" x="52.8876404494382" y="46.96428571428571">Lateral</tspan><tspan text-anchor="middle" x="52.8876404494382" y="61.46428571428571">Movement</tspan></text></g></g><g class="tactic collection" transform="translate(822.6966292134831, 0)"><g class="techniques"><g class="technique T1213" transform="translate(0, 101.42857142857142)"><rect class="cell" height="101.42857142857142" width="105.7752808988764" fill="white" stroke="#6B7279"/><polygon class="sidebar" transform="translate(0, 101.42857142857142)" points="0,0 12,0 12,12" fill="#6B7279" visibility="hidden"/><text font-size="10.126725521669341" fill="black"><tspan x="4" y="39.54761904761904">Data from</tspan><tspan x="4" y="54.21428571428571">Information</tspan><tspan x="4" y="68.88095238095238">Repositories</tspan></text></g><g class="technique T1114" transform="translate(0, 202.85714285714283)"><rect class="cell" height="101.42857142857142" width="105.7752808988764" fill="#8ec843" stroke="#6B7279"/><polygon class="sidebar" transform="translate(0, 101.42857142857142)" points="0,0 12,0 12,12" fill="#6B7279" visibility="hidden"/><text font-size="10.126725521669341" fill="black"><tspan x="4" y="46.96428571428571">Email</tspan><tspan x="4" y="61.46428571428571">Collection</tspan></text></g></g><g class="subtechniques"/><g class="tactic-label"><text font-size="12" fill="black" font-weight="bold"><tspan text-anchor="middle" x="52.8876404494382" y="54.21428571428571">Collection</tspan></text></g></g><g class="tactic impact" transform="translate(940.2247191011236, 0)"><g class="techniques"><g class="technique T1531" transform="translate(0, 101.42857142857142)"><rect class="cell" height="101.42857142857142" width="105.7752808988764" fill="white" stroke="#6B7279"/><polygon class="sidebar" transform="translate(0, 101.42857142857142)" points="0,0 12,0 12,0" fill="#6B7279" visibility="hidden"/><text font-size="10.126725521669341" fill="black"><tspan x="4" y="39.54761904761904">Account</tspan><tspan x="4" y="54.21428571428571">Access</tspan><tspan x="4" y="68.88095238095238">Removal</tspan></text></g><g class="technique T1499" transform="translate(0, 202.85714285714283)"><rect class="cell" height="101.42857142857142" width="105.7752808988764" fill="white" stroke="#6B7279"/><polygon class="sidebar" transform="translate(0, 101.42857142857142)" points="0,0 12,0 12,12" fill="#6B7279" visibility="hidden"/><text font-size="10.126725521669341" fill="black"><tspan x="4" y="39.54761904761904">Endpoint</tspan><tspan x="4" y="54.21428571428571">Denial</tspan><tspan x="4" y="68.88095238095238">of Service</tspan></text></g><g class="technique T1498" transform="translate(0, 304.2857142857143)"><rect class="cell" height="101.42857142857142" width="105.7752808988764" fill="white" stroke="#6B7279"/><polygon class="sidebar" transform="translate(0, 101.42857142857142)" points="0,0 12,0 12,12" fill="#6B7279" visibility="hidden"/><text font-size="10.126725521669341" fill="black"><tspan x="4" y="39.54761904761904">Network</tspan><tspan x="4" y="54.21428571428571">Denial</tspan><tspan x="4" y="68.88095238095238">of Service</tspan></text></g></g><g class="subtechniques"/><g class="tactic-label"><text font-size="12" fill="black" font-weight="bold"><tspan text-anchor="middle" x="52.8876404494382" y="54.21428571428571">Impact</tspan></text></g></g></g></g></g></svg>