<?xml version="1.0" standalone="no"?>
<svg width="1056" height="816" xmlns="http://www.w3.org/2000/svg" id="svgvm0"><g transform="translate(5,5)" style="font-family: sans-serif;"><g><g transform="translate(0, 0)"><g transform="translate(0,5)"><rect class="header-box" width="251.56962025316454" height="86" stroke="black" fill="white" rx="5"/><rect class="label-cover" x="8" y="-9.666666984558105" width="34.6953125" height="17.33333396911621" fill="white" rx="5"/><text class="header-box-label" x="10" font-size="12" y="3">about</text><g class="header-box-content" transform="translate(5, 0)"><g transform="translate(0, 2.0975609756097526)"><text font-size="12"><tspan x="4" y="16.176829268292682">SaaS Layer Json</tspan><tspan x="4" y="30.676829268292682">File for Microsoft Sentinel</tspan></text><line x1="0" x2="241.56962025316454" y1="39.853658536585364" y2="39.853658536585364" stroke="#dddddd"/></g><g transform="translate(0, 44.048780487804876)"><text font-size="12"><tspan x="4" y="16.176829268292682">SaaS ATT&amp;CK Matrix Coverage</tspan><tspan x="4" y="30.676829268292682">for Microsoft Sentinel</tspan></text></g></g></g></g><g transform="translate(264.8101265822785, 0)"><g transform="translate(0,5)"><rect class="header-box" width="251.56962025316454" height="86" stroke="black" fill="white" rx="5"/><rect class="label-cover" x="8" y="-9.666666984558105" width="43.364585876464844" height="17.33333396911621" fill="white" rx="5"/><text class="header-box-label" x="10" font-size="12" y="3">domain</text><g class="header-box-content" transform="translate(5, 0)"><g transform="translate(0, 4.095238095238102)"><text font-size="12"><tspan x="4" y="42.4047619047619">Enterprise ATT&amp;CK v10</tspan></text></g></g></g></g><g transform="translate(529.620253164557, 0)"><g transform="translate(0,5)"><rect class="header-box" width="251.56962025316454" height="86" stroke="black" fill="white" rx="5"/><rect class="label-cover" x="8" y="-9.666666984558105" width="53.35416793823242" height="17.33333396911621" fill="white" rx="5"/><text class="header-box-label" x="10" font-size="12" y="3">platforms</text><g class="header-box-content" transform="translate(5, 0)"><g transform="translate(0, 4.095238095238102)"><text font-size="12"><tspan x="4" y="42.4047619047619">SaaS</tspan></text></g></g></g></g><g transform="translate(794.4303797468355, 0)"><g transform="translate(0,5)"><rect class="header-box" width="251.56962025316454" height="86" stroke="black" fill="white" rx="5"/><rect class="label-cover" x="8" y="-9.666666984558105" width="40.04166793823242" height="17.33333396911621" fill="white" rx="5"/><text class="header-box-label" x="10" font-size="12" y="3">legend</text><g class="header-box-content" transform="translate(5, 0)"><g transform="translate(0, 2.0975609756097526)"><g transform="translate(0, 5)"><g class="legendCells"><g class="cell" transform="translate(0,0)"><rect class="swatch" height="15" width="40.26160337552742" style="fill: rgb(255, 102, 102);"/><text class="label" transform="translate(20.130802154541016,&#10;          25)" style="text-anchor: middle;">0.0</text></g><g class="cell" transform="translate(40.26160430908203,0)"><rect class="swatch" height="15" width="40.26160337552742" style="fill: rgb(255, 154, 102);"/><text class="label" transform="translate(20.130802154541016,&#10;          25)" style="text-anchor: middle;">0.20</text></g><g class="cell" transform="translate(80.52320861816406,0)"><rect class="swatch" height="15" width="40.26160337552742" style="fill: rgb(255, 205, 102);"/><text class="label" transform="translate(20.130802154541016,&#10;          25)" style="text-anchor: middle;">0.40</text></g><g class="cell" transform="translate(120.7848129272461,0)"><rect class="swatch" height="15" width="40.26160337552742" style="fill: rgb(232, 225, 95);"/><text class="label" transform="translate(20.130802154541016,&#10;          25)" style="text-anchor: middle;">0.60</text></g><g class="cell" transform="translate(161.04641723632812,0)"><rect class="swatch" height="15" width="40.26160337552742" style="fill: rgb(187, 212, 81);"/><text class="label" transform="translate(20.130802154541016,&#10;          25)" style="text-anchor: middle;">0.80</text></g><g class="cell" transform="translate(201.30802154541016,0)"><rect class="swatch" height="15" width="40.26160337552742" style="fill: rgb(142, 200, 67);"/><text class="label" transform="translate(20.130802154541016,&#10;          25)" style="text-anchor: middle;">1.0</text></g></g></g><line x1="0" x2="241.56962025316454" y1="39.853658536585364" y2="39.853658536585364" stroke="#dddddd"/></g><g transform="translate(0, 44.048780487804876)"><g transform="translate(0, 5)"><g class="legendCells"><g class="cell" transform="translate(0,0)"><rect class="swatch" height="15" width="241.56962025316454" style="fill: rgb(102, 255, 243);"/><text class="label" transform="translate(120.7848129272461,&#10;          25)" style="text-anchor: middle;">Techniques researched</text></g></g></g></g></g></g></g></g><g transform="translate(0,97)"><g><g class="tactic initial-access" transform="translate(0, 0)"><g class="techniques"><g class="technique T1189" transform="translate(0, 118.33333333333333)"><rect class="cell" height="118.33333333333333" width="105.7752808988764" fill="#8ec843" stroke="#6B7279"/><polygon class="sidebar" transform="translate(0, 118.33333333333333)" points="0,0 12,0 12,0" fill="#6B7279" visibility="hidden"/><text font-size="10.126725521669341" fill="black"><tspan x="4" y="55.416666666666664">Drive-by</tspan><tspan x="4" y="69.91666666666666">Compromise</tspan></text></g><g class="technique T1566" transform="translate(0, 236.66666666666666)"><rect class="cell" height="118.33333333333333" width="105.7752808988764" fill="white" stroke="#6B7279"/><polygon class="sidebar" transform="translate(0, 118.33333333333333)" points="0,0 12,0 12,12" fill="#6B7279" visibility="hidden"/><text font-size="10.126725521669341" fill="black"><tspan x="4" y="62.666666666666664">Phishing</tspan></text></g><g class="technique T1199" transform="translate(0, 355)"><rect class="cell" height="118.33333333333333" width="105.7752808988764" fill="white" stroke="#6B7279"/><polygon class="sidebar" transform="translate(0, 118.33333333333333)" points="0,0 12,0 12,0" fill="#6B7279" visibility="hidden"/><text font-size="10.126725521669341" fill="black"><tspan x="4" y="55.416666666666664">Trusted</tspan><tspan x="4" y="69.91666666666666">Relationship</tspan></text></g><g class="technique T1078" transform="translate(0, 473.3333333333333)"><rect class="cell" height="118.33333333333333" width="105.7752808988764" fill="#8ec843" stroke="#6B7279"/><polygon class="sidebar" transform="translate(0, 118.33333333333333)" points="0,0 12,0 12,12" fill="#6B7279" visibility="hidden"/><text font-size="10.126725521669341" fill="black"><tspan x="4" y="55.416666666666664">Valid</tspan><tspan x="4" y="69.91666666666666">Accounts</tspan></text></g></g><g class="subtechniques"/><g class="tactic-label"><text font-size="12" fill="black" font-weight="bold"><tspan text-anchor="middle" x="52.8876404494382" y="55.416666666666664">Initial</tspan><tspan text-anchor="middle" x="52.8876404494382" y="69.91666666666666">Access</tspan></text></g></g><g class="tactic persistence" transform="translate(117.52808988764045, 0)"><g class="techniques"><g class="technique T1078" transform="translate(0, 118.33333333333333)"><rect class="cell" height="118.33333333333333" width="105.7752808988764" fill="#8ec843" stroke="#6B7279"/><polygon class="sidebar" transform="translate(0, 118.33333333333333)" points="0,0 12,0 12,12" fill="#6B7279" visibility="hidden"/><text font-size="10.126725521669341" fill="black"><tspan x="4" y="55.416666666666664">Valid</tspan><tspan x="4" y="69.91666666666666">Accounts</tspan></text></g></g><g class="subtechniques"/><g class="tactic-label"><text font-size="12" fill="black" font-weight="bold"><tspan text-anchor="middle" x="52.8876404494382" y="62.666666666666664">Persistence</tspan></text></g></g><g class="tactic privilege-escalation" transform="translate(235.0561797752809, 0)"><g class="techniques"><g class="technique T1078" transform="translate(0, 118.33333333333333)"><rect class="cell" height="118.33333333333333" width="105.7752808988764" fill="#8ec843" stroke="#6B7279"/><polygon class="sidebar" transform="translate(0, 118.33333333333333)" points="0,0 12,0 12,12" fill="#6B7279" visibility="hidden"/><text font-size="10.126725521669341" fill="black"><tspan x="4" y="55.416666666666664">Valid</tspan><tspan x="4" y="69.91666666666666">Accounts</tspan></text></g></g><g class="subtechniques"/><g class="tactic-label"><text font-size="12" fill="black" font-weight="bold"><tspan text-anchor="middle" x="52.8876404494382" y="55.416666666666664">Privilege</tspan><tspan text-anchor="middle" x="52.8876404494382" y="69.91666666666666">Escalation</tspan></text></g></g><g class="tactic defense-evasion" transform="translate(352.5842696629213, 0)"><g class="techniques"><g class="technique T1550" transform="translate(0, 118.33333333333333)"><rect class="cell" height="118.33333333333333" width="105.7752808988764" fill="#8ec843" stroke="#6B7279"/><polygon class="sidebar" transform="translate(0, 118.33333333333333)" points="0,0 12,0 12,12" fill="#6B7279" visibility="hidden"/><text font-size="10.126725521669341" fill="black"><tspan x="4" y="48">Use Alternate</tspan><tspan x="4" y="62.666666666666664">Authentication</tspan><tspan x="4" y="77.33333333333333">Material</tspan></text></g><g class="technique T1078" transform="translate(0, 236.66666666666666)"><rect class="cell" height="118.33333333333333" width="105.7752808988764" fill="#8ec843" stroke="#6B7279"/><polygon class="sidebar" transform="translate(0, 118.33333333333333)" points="0,0 12,0 12,12" fill="#6B7279" visibility="hidden"/><text font-size="10.126725521669341" fill="black"><tspan x="4" y="55.416666666666664">Valid</tspan><tspan x="4" y="69.91666666666666">Accounts</tspan></text></g></g><g class="subtechniques"/><g class="tactic-label"><text font-size="12" fill="black" font-weight="bold"><tspan text-anchor="middle" x="52.8876404494382" y="55.416666666666664">Defense</tspan><tspan text-anchor="middle" x="52.8876404494382" y="69.91666666666666">Evasion</tspan></text></g></g><g class="tactic credential-access" transform="translate(470.1123595505618, 0)"><g class="techniques"><g class="technique T1110" transform="translate(0, 118.33333333333333)"><rect class="cell" height="118.33333333333333" width="105.7752808988764" fill="#8ec843" stroke="#6B7279"/><polygon class="sidebar" transform="translate(0, 118.33333333333333)" points="0,0 12,0 12,12" fill="#6B7279" visibility="hidden"/><text font-size="10.126725521669341" fill="black"><tspan x="4" y="62.666666666666664">Brute Force</tspan></text></g><g class="technique T1606" transform="translate(0, 236.66666666666666)"><rect class="cell" height="118.33333333333333" width="105.7752808988764" fill="white" stroke="#6B7279"/><polygon class="sidebar" transform="translate(0, 118.33333333333333)" points="0,0 12,0 12,12" fill="#6B7279" visibility="hidden"/><text font-size="10.126725521669341" fill="black"><tspan x="4" y="55.416666666666664">Forge Web</tspan><tspan x="4" y="69.91666666666666">Credentials</tspan></text></g><g class="technique T1528" transform="translate(0, 355)"><rect class="cell" height="118.33333333333333" width="105.7752808988764" fill="#8ec843" stroke="#6B7279"/><polygon class="sidebar" transform="translate(0, 118.33333333333333)" points="0,0 12,0 12,0" fill="#6B7279" visibility="hidden"/><text font-size="10.126725521669341" fill="black"><tspan x="4" y="40.541666666666664">Steal</tspan><tspan x="4" y="55.291666666666664">Application</tspan><tspan x="4" y="70.04166666666666">Access</tspan><tspan x="4" y="84.79166666666666">Token</tspan></text></g><g class="technique T1539" transform="translate(0, 473.3333333333333)"><rect class="cell" height="118.33333333333333" width="105.7752808988764" fill="white" stroke="#6B7279"/><polygon class="sidebar" transform="translate(0, 118.33333333333333)" points="0,0 12,0 12,0" fill="#6B7279" visibility="hidden"/><text font-size="10.126725521669341" fill="black"><tspan x="4" y="48">Steal</tspan><tspan x="4" y="62.666666666666664">Web Session</tspan><tspan x="4" y="77.33333333333333">Cookie</tspan></text></g><g class="technique T1552" transform="translate(0, 591.6666666666667)"><rect class="cell" height="118.33333333333333" width="105.7752808988764" fill="white" stroke="#6B7279"/><polygon class="sidebar" transform="translate(0, 118.33333333333333)" points="0,0 12,0 12,0" fill="#6B7279" visibility="hidden"/><text font-size="10.126725521669341" fill="black"><tspan x="4" y="55.416666666666664">Unsecured</tspan><tspan x="4" y="69.91666666666666">Credentials</tspan></text></g></g><g class="subtechniques"/><g class="tactic-label"><text font-size="12" fill="black" font-weight="bold"><tspan text-anchor="middle" x="52.8876404494382" y="55.416666666666664">Credential</tspan><tspan text-anchor="middle" x="52.8876404494382" y="69.91666666666666">Access</tspan></text></g></g><g class="tactic discovery" transform="translate(587.6404494382023, 0)"><g class="techniques"><g class="technique T1087" transform="translate(0, 118.33333333333333)"><rect class="cell" height="118.33333333333333" width="105.7752808988764" fill="#8ec843" stroke="#6B7279"/><polygon class="sidebar" transform="translate(0, 118.33333333333333)" points="0,0 12,0 12,12" fill="#6B7279" visibility="hidden"/><text font-size="10.126725521669341" fill="black"><tspan x="4" y="55.416666666666664">Account</tspan><tspan x="4" y="69.91666666666666">Discovery</tspan></text></g><g class="technique T1526" transform="translate(0, 236.66666666666666)"><rect class="cell" height="118.33333333333333" width="105.7752808988764" fill="white" stroke="#6B7279"/><polygon class="sidebar" transform="translate(0, 118.33333333333333)" points="0,0 12,0 12,0" fill="#6B7279" visibility="hidden"/><text font-size="10.126725521669341" fill="black"><tspan x="4" y="48">Cloud</tspan><tspan x="4" y="62.666666666666664">Service</tspan><tspan x="4" y="77.33333333333333">Discovery</tspan></text></g><g class="technique T1069" transform="translate(0, 355)"><rect class="cell" height="118.33333333333333" width="105.7752808988764" fill="white" stroke="#6B7279"/><polygon class="sidebar" transform="translate(0, 118.33333333333333)" points="0,0 12,0 12,12" fill="#6B7279" visibility="hidden"/><text font-size="10.126725521669341" fill="black"><tspan x="4" y="48">Permission</tspan><tspan x="4" y="62.666666666666664">Groups</tspan><tspan x="4" y="77.33333333333333">Discovery</tspan></text></g><g class="technique T1518" transform="translate(0, 473.3333333333333)"><rect class="cell" height="118.33333333333333" width="105.7752808988764" fill="white" stroke="#6B7279"/><polygon class="sidebar" transform="translate(0, 118.33333333333333)" points="0,0 12,0 12,12" fill="#6B7279" visibility="hidden"/><text font-size="10.126725521669341" fill="black"><tspan x="4" y="55.416666666666664">Software</tspan><tspan x="4" y="69.91666666666666">Discovery</tspan></text></g></g><g class="subtechniques"/><g class="tactic-label"><text font-size="12" fill="black" font-weight="bold"><tspan text-anchor="middle" x="52.8876404494382" y="62.666666666666664">Discovery</tspan></text></g></g><g class="tactic lateral-movement" transform="translate(705.1685393258426, 0)"><g class="techniques"><g class="technique T1534" transform="translate(0, 118.33333333333333)"><rect class="cell" height="118.33333333333333" width="105.7752808988764" fill="#8ec843" stroke="#6B7279"/><polygon class="sidebar" transform="translate(0, 118.33333333333333)" points="0,0 12,0 12,0" fill="#6B7279" visibility="hidden"/><text font-size="10.126725521669341" fill="black"><tspan x="4" y="55.416666666666664">Internal</tspan><tspan x="4" y="69.91666666666666">Spearphishing</tspan></text></g><g class="technique T1080" transform="translate(0, 236.66666666666666)"><rect class="cell" height="118.33333333333333" width="105.7752808988764" fill="white" stroke="#6B7279"/><polygon class="sidebar" transform="translate(0, 118.33333333333333)" points="0,0 12,0 12,0" fill="#6B7279" visibility="hidden"/><text font-size="10.126725521669341" fill="black"><tspan x="4" y="48">Taint</tspan><tspan x="4" y="62.666666666666664">Shared</tspan><tspan x="4" y="77.33333333333333">Content</tspan></text></g><g class="technique T1550" transform="translate(0, 355)"><rect class="cell" height="118.33333333333333" width="105.7752808988764" fill="#8ec843" stroke="#6B7279"/><polygon class="sidebar" transform="translate(0, 118.33333333333333)" points="0,0 12,0 12,12" fill="#6B7279" visibility="hidden"/><text font-size="10.126725521669341" fill="black"><tspan x="4" y="48">Use Alternate</tspan><tspan x="4" y="62.666666666666664">Authentication</tspan><tspan x="4" y="77.33333333333333">Material</tspan></text></g></g><g class="subtechniques"/><g class="tactic-label"><text font-size="12" fill="black" font-weight="bold"><tspan text-anchor="middle" x="52.8876404494382" y="55.416666666666664">Lateral</tspan><tspan text-anchor="middle" x="52.8876404494382" y="69.91666666666666">Movement</tspan></text></g></g><g class="tactic collection" transform="translate(822.6966292134831, 0)"><g class="techniques"><g class="technique T1213" transform="translate(0, 118.33333333333333)"><rect class="cell" height="118.33333333333333" width="105.7752808988764" fill="#8ec843" stroke="#6B7279"/><polygon class="sidebar" transform="translate(0, 118.33333333333333)" points="0,0 12,0 12,12" fill="#6B7279" visibility="hidden"/><text font-size="10.126725521669341" fill="black"><tspan x="4" y="48">Data from</tspan><tspan x="4" y="62.666666666666664">Information</tspan><tspan x="4" y="77.33333333333333">Repositories</tspan></text></g></g><g class="subtechniques"/><g class="tactic-label"><text font-size="12" fill="black" font-weight="bold"><tspan text-anchor="middle" x="52.8876404494382" y="62.666666666666664">Collection</tspan></text></g></g><g class="tactic impact" transform="translate(940.2247191011236, 0)"><g class="techniques"><g class="technique T1499" transform="translate(0, 118.33333333333333)"><rect class="cell" height="118.33333333333333" width="105.7752808988764" fill="#8ec843" stroke="#6B7279"/><polygon class="sidebar" transform="translate(0, 118.33333333333333)" points="0,0 12,0 12,12" fill="#6B7279" visibility="hidden"/><text font-size="10.126725521669341" fill="black"><tspan x="4" y="48">Endpoint</tspan><tspan x="4" y="62.666666666666664">Denial</tspan><tspan x="4" y="77.33333333333333">of Service</tspan></text></g><g class="technique T1498" transform="translate(0, 236.66666666666666)"><rect class="cell" height="118.33333333333333" width="105.7752808988764" fill="white" stroke="#6B7279"/><polygon class="sidebar" transform="translate(0, 118.33333333333333)" points="0,0 12,0 12,12" fill="#6B7279" visibility="hidden"/><text font-size="10.126725521669341" fill="black"><tspan x="4" y="48">Network</tspan><tspan x="4" y="62.666666666666664">Denial</tspan><tspan x="4" y="77.33333333333333">of Service</tspan></text></g></g><g class="subtechniques"/><g class="tactic-label"><text font-size="12" fill="black" font-weight="bold"><tspan text-anchor="middle" x="52.8876404494382" y="62.666666666666664">Impact</tspan></text></g></g></g></g></g></svg>