<svg viewBox="0 0 24 24" fill="none" xmlns="http://www.w3.org/2000/svg">
<path d="M5.25013 9.73727C6.22954 10.7367 7.18371 11.974 7.40553 13.2803C7.80476 11.0412 10.8172 7.99338 13.0657 7.60731C10.8318 7.24529 7.76049 4.17251 7.4057 1.92969C7.00347 4.14262 3.97003 7.21782 1.74537 7.60403C3.04192 7.82759 4.25472 8.76468 5.25013 9.73727Z" fill="#D71920"/>
<path d="M23.0823 3.32764C20.7707 0.566093 16.4733 1.40949 13.154 2.7593C18.4218 1.09472 23.2524 3.28502 20.7317 9.54611C19.483 12.6243 16.3421 15.7728 13.3322 17.5526C11.7428 18.5801 10.0427 19.4455 8.19006 19.7046C5.3398 20.0957 3.63165 18.6242 4.35663 15.6837C4.53945 14.9657 4.87226 14.2408 5.20268 13.5356C4.65872 12.2446 3.48837 10.9239 2.23238 10.5569C1.55533 11.5756 1.06272 12.4977 0.561495 13.9235C-0.572812 16.9878 -0.202302 21.4873 3.67365 22.4609C10.7668 23.8741 20.362 16.3346 23.0931 10.0515C24.262 7.40345 24.3456 4.95588 23.0823 3.32764Z" fill="#D71920"/>
</svg>
