<svg width="75" height="75" viewBox="0 0 75 75" fill="none" xmlns="http://www.w3.org/2000/svg">
    <path d="M75 38.3612C75 35.8121 74.7892 33.2491 74.3393 30.7413H38.2521V45.1819H58.9176C58.06 49.8393 55.3046 53.9592 51.2699 56.5773V65.9471H63.5989C70.8388 59.4158 75 49.7704 75 38.3612Z" fill="#4285F4"/>
    <path d="M38.2521 75C48.5707 75 57.2727 71.6792 63.6129 65.947L51.2839 56.5772C47.8537 58.8646 43.4254 60.1598 38.2661 60.1598C28.2849 60.1598 19.8219 53.5596 16.7853 44.6858H4.06274V54.345C10.5576 67.008 23.7863 75 38.2521 75V75Z" fill="#34A853"/>
    <path d="M16.7715 44.6859C15.1688 40.0285 15.1688 34.9853 16.7715 30.328V20.6688H4.06292C-1.3635 31.2649 -1.3635 43.7489 4.06292 54.345L16.7715 44.6859V44.6859Z" fill="#FBBC04"/>
    <path d="M38.2521 14.8401C43.7066 14.7575 48.9784 16.7692 52.9287 20.462L63.8519 9.75561C56.9353 3.38964 47.7553 -0.11027 38.2521 -3.63953e-05C23.7863 -3.63953e-05 10.5576 7.99188 4.06274 20.6687L16.7713 30.3279C19.7938 21.4403 28.2708 14.8401 38.2521 14.8401V14.8401Z" fill="#EA4335"/>
</svg>