<?xml version="1.0" encoding="utf-8"?>
<!-- Generator: Adobe Illustrator 24.0.0, SVG Export Plug-In . SVG Version: 6.00 Build 0)  -->
<svg version="1.1" id="63704a45-f0fc-4504-9a85-f7189eca0ee4" xmlns="http://www.w3.org/2000/svg" x="0px" y="0px"
	 viewBox="0 0 400 287.1" xml:space="preserve">
<style type="text/css">
	.st0{fill:#58468C;}
	.st1{fill:#ECF1FF;}
	.st2{fill:#5580FF;}
</style>
<g>
	<g transform="rotate(0 0 195.6166)">
		<g transform="matrix(1 0 0 1 0 0)">
			<path class="st0" d="M0.1,286.2l30.1-64.2H44l31,64.2H61.4l-5.1-10.8H18.7l-5,10.8H0.1z M23.7,264.7h27.4l-13.9-29.2L23.7,264.7z
				 M85.1,286.2v-64.2h32.7c4.9,0,9.2,0.5,12.8,1.6c3.6,1.1,6.6,2.5,9,4.4c2.4,2,4.2,4.3,5.4,7.1c1.1,2.8,1.8,6,1.8,9.5l0,0
				c0,2.4-0.3,4.7-0.8,6.8c-0.6,2.1-1.4,4.1-2.7,5.9c-1.2,1.8-2.7,3.4-4.5,4.8c-1.8,1.4-4,2.6-6.3,3.5l0,0l14,20.5h-15.9L118.3,268
				h-0.4L98.2,268v18.3H85.1L85.1,286.2z M98,256.7h20c2.5,0,4.7-0.3,6.5-0.8c1.8-0.6,3.4-1.3,4.7-2.5c1.3-1.1,2.2-2.3,2.8-3.8
				c0.6-1.6,0.9-3.2,0.9-5l0,0c0-3.6-1.2-6.3-3.7-8.3c-2.5-2-6.2-3-11.1-3l0,0h-20L98,256.7L98,256.7z M157.6,253.5L157.6,253.5
				c0-4.5,0.8-8.7,2.5-12.7c1.7-4,4.2-7.3,7.5-10.2c3.2-2.9,7.3-5.1,12-6.8c4.7-1.7,10.2-2.5,16.3-2.5l0,0c2.2,0,4.4,0.1,6.6,0.4
				c2.2,0.2,4.4,0.6,6.6,1.1c2.2,0.5,4.3,1.1,6.3,1.8c2,0.7,4,1.7,5.9,2.7l0,0l-6,9.9c-1.1-0.6-2.4-1.3-3.8-1.8s-3-1-4.6-1.3
				c-1.6-0.4-3.3-0.6-5-0.8c-1.8-0.2-3.5-0.3-5.2-0.3l0,0c-4.1,0-7.7,0.5-10.9,1.6c-3.2,1.1-5.9,2.5-8,4.3c-2.2,1.8-3.9,4.1-5,6.6
				c-1.1,2.5-1.8,5.4-1.8,8.5l0,0c0,3.2,0.6,6.1,1.8,8.7c1.2,2.7,2.9,4.9,5.1,6.8c2.2,1.9,4.9,3.4,8,4.5c3.2,1.1,6.6,1.6,10.6,1.6
				l0,0c3.1,0,5.9-0.4,8.5-1.1c2.6-0.7,4.8-1.7,6.8-3c1.9-1.3,3.5-2.8,4.7-4.7c1.2-1.8,2-3.9,2.4-6.1l0,0h-22.4V250h34.1v0.1
				l0.1-0.1c0.7,3.3,0.9,6.5,0.6,9.6c-0.3,3.1-1,6.1-2.1,8.7c-1.1,2.8-2.8,5.3-4.8,7.6c-2,2.3-4.4,4.2-7.3,5.9s-6.1,3-9.6,3.9
				c-3.6,0.9-7.5,1.3-11.8,1.3l0,0c-6,0-11.4-0.9-16-2.6c-4.7-1.8-8.7-4.2-12-7.2c-3.3-3-5.8-6.6-7.5-10.7
				C158.4,262.5,157.6,258.2,157.6,253.5z M242.3,253.9L242.3,253.9c0-4.9,0.9-9.3,2.7-13.3c1.8-4,4.2-7.5,7.5-10.4
				c3.2-2.9,7.1-5.1,11.6-6.7c4.5-1.6,9.5-2.4,15-2.4l0,0c5.4,0,10.4,0.8,15,2.4c4.5,1.6,8.4,3.8,11.6,6.7c3.2,2.9,5.7,6.3,7.5,10.4
				c1.8,4,2.7,8.5,2.7,13.3l0,0c0,4.9-0.9,9.3-2.7,13.4s-4.3,7.5-7.5,10.5c-3.2,2.9-7.1,5.2-11.6,6.8s-9.5,2.5-15,2.5l0,0
				c-5.5,0-10.5-0.8-15-2.5c-4.5-1.6-8.4-3.9-11.6-6.8c-3.2-2.9-5.7-6.4-7.5-10.5C243.2,263.2,242.3,258.8,242.3,253.9z
				 M255.4,253.9L255.4,253.9c0,3.3,0.6,6.3,1.8,9c1.2,2.7,2.8,4.9,4.9,6.8c2.1,1.9,4.7,3.3,7.5,4.3s6.1,1.6,9.5,1.6l0,0
				c3.4,0,6.5-0.5,9.4-1.6c2.9-1,5.4-2.5,7.5-4.3c2.1-1.9,3.8-4.2,5-6.8c1.2-2.7,1.8-5.6,1.8-9l0,0c0-3.3-0.6-6.3-1.8-9
				c-1.2-2.6-2.8-4.9-5-6.6c-2.1-1.8-4.6-3.2-7.5-4.2s-6.1-1.4-9.4-1.4l0,0c-3.4,0-6.6,0.5-9.5,1.4s-5.4,2.4-7.5,4.2
				c-2.1,1.8-3.8,4-4.9,6.6C256,247.6,255.4,250.6,255.4,253.9z M326.3,277.6l6.9-10.6c2.3,1.3,4.7,2.5,7.1,3.5
				c2.4,1.1,4.9,1.9,7.5,2.7c2.6,0.7,5.3,1.3,8.1,1.7c2.8,0.4,5.9,0.6,9.1,0.6l0,0c3.9,0,7.1-0.3,9.9-0.7c2.7-0.5,4.9-1.2,6.6-2.1
				c1.7-0.9,3-1.9,3.7-3.2c0.8-1.2,1.1-2.5,1.1-4l0,0c0-2.3-1-4.2-2.9-5.5c-2-1.3-4.9-2-9-2l0,0c-1.8,0-3.7,0.1-5.6,0.4
				c-2,0.2-4,0.5-6,0.7c-2,0.3-4,0.5-6,0.7c-2,0.2-3.8,0.4-5.5,0.4l0,0c-2.9,0-5.6-0.4-8.3-1.1c-2.7-0.7-5-1.8-7.1-3.3
				c-2-1.5-3.7-3.3-4.9-5.6c-1.2-2.2-1.8-4.8-1.8-7.8l0,0c0-1.8,0.2-3.5,0.7-5.2c0.5-1.8,1.3-3.4,2.3-4.9c1.1-1.6,2.4-3,4.1-4.4
				c1.7-1.3,3.7-2.5,6.1-3.5c2.4-1,5.1-1.8,8.3-2.3c3.1-0.6,6.6-0.8,10.7-0.8l0,0c2.9,0,5.8,0.1,8.7,0.5c2.9,0.3,5.7,0.7,8.5,1.3
				c2.8,0.6,5.4,1.3,8,2c2.5,0.8,4.9,1.7,7.1,2.7l0,0l-5.7,10.5c-1.8-0.8-3.7-1.6-5.8-2.2c-2-0.6-4.2-1.3-6.5-1.8
				c-2.3-0.5-4.7-0.9-7.1-1.1c-2.4-0.3-4.9-0.4-7.4-0.4l0,0c-3.6,0-6.6,0.3-8.8,0.8c-2.3,0.5-4.2,1.2-5.5,2
				c-1.3,0.8-2.3,1.7-2.8,2.7s-0.8,2-0.8,3l0,0c0,1.9,0.8,3.5,2.6,4.7c1.8,1.3,4.2,1.9,7.8,1.9l0,0c1.4,0,3-0.1,4.9-0.4
				c1.8-0.2,3.8-0.4,5.8-0.6c2-0.2,4.1-0.5,6.3-0.6c2.1-0.2,4.2-0.4,6.2-0.4l0,0c3.8,0,7.1,0.4,10,1.3c2.9,0.8,5.4,2,7.3,3.6
				c2,1.6,3.5,3.5,4.5,5.7c1.1,2.2,1.6,4.7,1.6,7.5l0,0c0,3.7-0.8,7-2.5,9.9c-1.8,2.9-4.2,5.4-7.3,7.3c-3.2,2-7,3.5-11.4,4.5
				s-9.5,1.6-15,1.6l0,0c-3.6,0-7.1-0.2-10.6-0.6s-6.8-1.1-9.9-1.9c-3.2-0.8-6.1-1.8-9-3C331.3,280.3,328.7,279.1,326.3,277.6
				L326.3,277.6z"/>
		</g>
	</g>
	<g transform="rotate(0 103.78280000000001 0)">
		<g transform="matrix(1 0 0 1 0 0)">
			<g>
				<path class="st1" d="M282.4,47.7l0.2,94.9l-82.8,47.7l-0.3-94.9L282.4,47.7z"/>
				<path class="st2" d="M199.6,95.4l-82.3-47.7L200.1,0l82.3,47.7L199.6,95.4L199.6,95.4z"/>
				<path class="st0" d="M199.9,190.3l-82.3-47.7l-0.2-94.9l82.3,47.7L199.9,190.3L199.9,190.3z"/>
				<path class="st1" d="M154.7,120.9l-0.1-52.2l45.6-26.3l0.1,52.2L154.7,120.9L154.7,120.9z"/>
				<path class="st2" d="M200.3,94.7l45.4,26.3L200,147.3L154.7,121L200.3,94.7L200.3,94.7z"/>
				<path class="st0" d="M200.1,42.4l45.4,26.3l0.1,52.2l-45.4-26.3L200.1,42.4L200.1,42.4z"/>
			</g>
		</g>
	</g>
</g>
</svg>
