<?xml version="1.0" encoding="utf-8"?>
<!-- Generator: Adobe Illustrator 19.2.1, SVG Export Plug-In . SVG Version: 6.00 Build 0)  -->
<!DOCTYPE svg PUBLIC "-//W3C//DTD SVG 1.1//EN" "http://www.w3.org/Graphics/SVG/1.1/DTD/svg11.dtd">
<svg version="1.1" id="Layer_1" xmlns="http://www.w3.org/2000/svg" xmlns:xlink="http://www.w3.org/1999/xlink" x="0px" y="0px"
	 viewBox="0 0 233 73" style="enable-background:new 0 0 233 73;" xml:space="preserve">
<style type="text/css">
	.st0{fill:#010101;}
	.st1{fill:#939598;}
	.st2{fill:#4FC0B0;}
</style>
<g>
	<path class="st0" d="M204.2,15c0-0.3,0.1-0.5,0.3-0.7c0.2-0.2,0.4-0.2,0.7-0.2h22.1c0.2,0,0.5,0.1,0.7,0.2c0.2,0.1,0.3,0.4,0.3,0.7
		v5.1c0,0.2-0.1,0.5-0.2,0.7c-0.2,0.2-0.4,0.3-0.7,0.3h-7.1v22.5c0,0.2-0.1,0.5-0.3,0.7c-0.2,0.2-0.4,0.3-0.7,0.3h-6
		c-0.2,0-0.5-0.1-0.7-0.3c-0.2-0.2-0.3-0.4-0.3-0.7V21.1h-7.1c-0.3,0-0.5-0.1-0.7-0.3c-0.2-0.2-0.3-0.4-0.3-0.8V15L204.2,15z
		 M183,34.4c-0.1-0.1-0.3-0.1-0.4-0.1c-0.2,0-0.4,0.1-0.7,0.3l-3.6,3.4c-0.3,0.3-0.5,0.6-0.5,0.8c0,0.2,0.1,0.5,0.5,0.8l0.1,0.1
		l0.1,0.1l0.1,0.1l0.1,0.1l0.1,0.1c0.2,0.2,0.5,0.5,0.9,0.9s0.9,0.8,1.4,1.2c1.3,1,2.7,1.7,4.3,2.3c1.5,0.6,3.1,0.9,4.6,0.9
		c1.6,0,3.2-0.2,4.7-0.7c1.5-0.5,2.7-1.1,3.8-2c1.1-0.9,1.9-1.9,2.6-3.1c0.6-1.2,0.9-2.6,0.9-4.1c0-1.4-0.2-2.7-0.7-3.6
		c-0.5-1-1.2-1.9-2.1-2.6c-0.9-0.7-1.9-1.4-3.2-1.9c-1.2-0.5-2.6-1-4-1.5c-0.7-0.2-1.4-0.5-2-0.7s-1.1-0.4-1.4-0.7
		c-0.4-0.2-0.7-0.5-0.9-0.8c-0.2-0.3-0.3-0.6-0.3-1c0-0.4,0.1-0.7,0.3-1c0.2-0.3,0.4-0.5,0.7-0.6c0.3-0.2,0.6-0.3,1.1-0.3
		c0.4-0.1,0.8-0.1,1.2-0.1c0.4,0,0.9,0.1,1.3,0.2c0.4,0.1,0.8,0.3,1.2,0.5c0.4,0.2,0.7,0.4,1.1,0.7c0.3,0.2,0.6,0.5,0.9,0.7l0.2,0.2
		c0.2,0.2,0.3,0.3,0.5,0.4c0.1,0.1,0.3,0.2,0.5,0.2c0.2,0,0.5-0.1,0.7-0.3l3.1-3.3c0.2-0.2,0.3-0.3,0.4-0.5c0.1-0.1,0.1-0.3,0.1-0.5
		c0-0.2-0.1-0.4-0.3-0.6c-0.2-0.2-0.4-0.5-0.7-0.8s-0.7-0.6-1.1-0.9c-0.4-0.3-0.9-0.6-1.4-0.9c-1.1-0.6-2.2-1.1-3.4-1.4
		c-1.1-0.3-2.3-0.4-3.6-0.4c-1.6,0-3.1,0.2-4.5,0.6c-1.4,0.4-2.5,1-3.4,1.8c-1,0.7-1.7,1.6-2.2,2.7c-0.5,1-0.8,2.2-0.8,3.5
		c0,1.2,0.2,2.3,0.6,3.3c0.4,1,1,1.9,1.8,2.7c0.8,0.8,1.8,1.5,3.1,2.2c1.2,0.7,2.7,1.2,4.3,1.9c0.3,0.1,0.8,0.3,1.3,0.5
		c0.5,0.2,1,0.4,1.5,0.7c0.5,0.2,0.9,0.6,1.2,0.9c0.3,0.3,0.5,0.7,0.5,1.1c0,0.4-0.1,0.7-0.2,1.1c-0.1,0.3-0.3,0.6-0.6,0.9
		c-0.3,0.2-0.6,0.5-1.1,0.6c-0.5,0.1-1.1,0.2-1.8,0.2c-0.7,0-1.5-0.1-2.2-0.4c-0.7-0.2-1.4-0.6-2.1-1.1c-0.5-0.3-0.9-0.6-1.2-1
		c-0.3-0.3-0.7-0.6-0.9-0.8C183.3,34.6,183.2,34.5,183,34.4 M162.8,23.7c-0.2,0.7-2.9,8.7-3.2,9.4h6.3L162.8,23.7z M177.6,44.3
		c-0.1,0.2-0.4,0.2-0.8,0.2h-5.9c-0.3,0-0.6-0.1-0.7-0.2c-0.2-0.1-0.3-0.3-0.4-0.6c-0.3-0.7-1.3-3.5-1.6-4.1h-10.9
		c-0.2,0.7-1.3,3.5-1.6,4.1c-0.2,0.5-0.5,0.8-1.1,0.8h-6.1c-0.2,0-0.5-0.1-0.6-0.2c-0.2-0.2-0.2-0.3-0.1-0.6L159,14.9
		c0-0.1,0.1-0.2,0.1-0.3c0.1-0.1,0.2-0.2,0.3-0.3c0.1-0.1,0.2-0.1,0.3-0.2c0.1-0.1,0.2-0.1,0.3-0.1h5.3c0.2,0,0.4,0.1,0.6,0.2
		c0.2,0.1,0.3,0.3,0.3,0.4l0.5,1.2l10.8,27.8C177.7,43.9,177.7,44.2,177.6,44.3 M137.5,24.2c0,0.4-0.1,0.9-0.2,1.2
		c-0.1,0.4-0.3,0.8-0.6,1.1c-0.2,0.3-0.6,0.6-1,0.9s-0.8,0.3-1.3,0.4c-0.2,0.1-0.5,0.1-0.6,0.1s-0.4,0.1-0.7,0.1h-3.8v-7.5h2.8
		c0.4,0,0.8,0,1.1,0.1c0.3,0.1,0.7,0.1,1.1,0.1c0.5,0.1,0.9,0.2,1.2,0.5c0.4,0.2,0.7,0.5,1,0.9c0.3,0.3,0.5,0.7,0.6,1.1
		C137.4,23.4,137.5,23.8,137.5,24.2 M146.5,43.9c0-0.2-0.1-0.4-0.2-0.7c-0.1-0.2-0.3-0.5-0.3-0.7l-5.3-10c0.7-0.4,1.4-0.9,2-1.5
		c0.6-0.6,1.2-1.2,1.6-2c0.5-0.7,0.8-1.5,1.1-2.4c0.2-0.9,0.4-1.8,0.4-2.7c0-1.4-0.2-2.7-0.8-3.9c-0.5-1.2-1.2-2.3-2.2-3.2
		c-0.9-0.9-2-1.6-3.2-2.2c-1.2-0.5-2.6-0.8-4-0.8h-13.3c-0.3,0-0.5,0.1-0.7,0.2c-0.1,0.2-0.2,0.4-0.2,0.7v28.7
		c0,0.3,0.1,0.5,0.2,0.7c0.2,0.1,0.4,0.2,0.7,0.2h6.1c0.6,0,1-0.3,1-0.9v-9.2h3.3l5,9.4c0.1,0.2,0.2,0.4,0.3,0.6
		c0.2,0.1,0.4,0.2,0.6,0.2h7.1c0.2,0,0.5-0.1,0.6-0.2C146.4,44.3,146.5,44.1,146.5,43.9 M93.2,15c0-0.3,0.1-0.5,0.3-0.7
		c0.2-0.2,0.4-0.2,0.7-0.2h22.1c0.2,0,0.5,0.1,0.7,0.2c0.2,0.1,0.3,0.4,0.3,0.7v5.1c0,0.2-0.1,0.5-0.2,0.7c-0.2,0.2-0.4,0.3-0.7,0.3
		h-7.1v22.5c0,0.2-0.1,0.5-0.3,0.7c-0.2,0.2-0.4,0.3-0.7,0.3h-6c-0.2,0-0.5-0.1-0.7-0.3c-0.2-0.2-0.3-0.4-0.3-0.7V21.1h-7.1
		c-0.3,0-0.5-0.1-0.7-0.3s-0.3-0.4-0.3-0.8V15L93.2,15L93.2,15z M62.1,43.7c0,0.2,0.1,0.5,0.2,0.6c0.1,0.2,0.4,0.2,0.7,0.2h5.8
		c0.3,0,0.6-0.1,0.7-0.2c0.1-0.1,0.2-0.4,0.2-0.7V26.1c1.8,3,9,14.9,10.8,17.9c0.1,0.2,0.3,0.3,0.4,0.5c0.1,0.1,0.3,0.2,0.5,0.2H88
		c0.3,0,0.5-0.1,0.7-0.2c0.2-0.1,0.2-0.3,0.2-0.6V15c0-0.3-0.1-0.5-0.3-0.7c-0.2-0.1-0.4-0.2-0.7-0.2h-5.8c-0.2,0-0.4,0.1-0.6,0.2
		c-0.2,0.1-0.3,0.3-0.3,0.6v16.4c-1.8-2.8-8.6-13.8-10.4-16.6c-0.1-0.2-0.3-0.4-0.5-0.5c-0.2-0.1-0.4-0.1-0.6-0.1H63
		c-0.3,0-0.5,0.1-0.7,0.3c-0.1,0.2-0.2,0.4-0.2,0.6L62.1,43.7L62.1,43.7z"/>
	<path class="st0" d="M41,38.6c0-0.4,0.1-1.8,1.5-1.8c0,0,4.3-0.2,6.3-3.2c2.1-3.1,1.2-7.1-0.5-9.3c-2.1-2.7-5.2-2.6-5.4-2.6
		c-0.2,0-1.9,0.1-1.9-1.5s0-4.5,0-4.8c0-0.3,0.1-1.6,1.6-1.6c4.5,0,7.7,1.4,10.4,3.5c3.9,3.1,5.7,8.1,5.7,11.6
		c0,3.3-0.6,4.7-1.1,6.3c-0.7,2.2-2.8,4.8-4.1,6C48.4,45.5,42.7,45,42.7,45s-1.5-0.1-1.5-1.6C41,42.4,41,38.6,41,38.6z"/>
</g>
<polygon class="st1" points="37,3.4 37,3.4 37,54.4 35.1,54.4 35.1,3.4 "/>
<path class="st1" d="M217.3,63.2l4.8-8.7h-2.3l-3.7,6.4l-3.7-6.4h-2.2l4.9,8.8v4.3h2.2V63.2L217.3,63.2z M203,56.5v-2h-10.5v2h4.1
	v11.1h2.2V56.5H203z M183.6,54.5h-2.2v13.1h2.2V54.5z M163,61.6v-5.2h3.1c2,0,3.2,0.8,3.2,2.6s-1.2,2.7-3.2,2.7L163,61.6L163,61.6z
	 M169.2,67.6h2.5l-2.9-4.4c1.8-0.7,2.7-2.2,2.7-4.3c0-2.8-1.9-4.5-5.3-4.5h-5.3v13.1h2.2v-4h3.1c0.2,0,0.4,0,0.6-0.1L169.2,67.6z
	 M150.7,54.5h-2.2v7.7c0,2.2-1.4,3.5-3.5,3.5c-2.2,0-3.5-1.4-3.5-3.5v-7.7h-2.2v7.7c0,3.4,2.2,5.5,5.7,5.5c3.5,0,5.7-2.1,5.7-5.5
	L150.7,54.5L150.7,54.5z M125.2,54.4c-3.9,0-6.9,2.8-6.9,6.6c0,3.8,2.9,6.7,6.8,6.7c1.8,0,3.7-0.9,5.1-2.2l-1.3-1.5
	c-1,1-2.3,1.5-3.6,1.5c-2.6,0-4.7-2-4.7-4.6c0-2.6,2-4.6,4.7-4.6c1.4,0,2.7,0.6,3.6,1.6l1.3-1.6C129,55.2,127.2,54.4,125.2,54.4
	 M109.5,56.5v-2h-9.4v13.1h9.6v-2h-7.4V62h6.4v-2h-6.4v-3.5H109.5L109.5,56.5z M85.8,54.4c-2.8,0-4.8,1.4-4.8,3.6
	c0,4.6,7.1,3.1,7.1,6c0,1-0.9,1.6-2.4,1.6c-1.4,0-3.1-0.7-4.4-1.9l-1,1.9c1.4,1.2,3.3,2.1,5.4,2.1c2.9,0,4.9-1.5,4.9-3.8
	c0.1-4.7-7.1-3.2-7.1-6c0-0.9,0.9-1.4,2.1-1.4c1,0,2.4,0.3,3.9,1.2l0.9-1.9C89.2,54.9,87.5,54.4,85.8,54.4"/>
<path class="st2" d="M31,38.4c0,0-0.1-1.5-1.5-1.5c-1.5,0-5.6,0-7,0c-3,0-5-0.2-7-3.2c-2-3.1-1.2-7,0.5-9.3c2-2.7,5.1-2.6,5.9-2.6
	s6.9,0,7.3,0c1,0,1.9-0.3,1.9-1.5c0-1.5,0-4.3,0-4.8c0-0.8-0.5-1.6-1.6-1.6c-1.5,0-3.9,0-8,0c-4,0-7.4,1.4-10,3.5
	c-3.9,3.1-5.7,8.1-5.7,11.6c0,3.3,0.6,4.7,1.1,6.3c0.7,2.2,5.1,9.9,14.5,9.9c6.2,0,7.7,0,8.1,0c0.7,0,1.8-0.2,1.8-1.6
	C31,41.9,31,38.4,31,38.4z"/>
</svg>
