<svg width="106" height="32" fill="none" xmlns="http://www.w3.org/2000/svg"><g clip-path="url(#a)"><path d="M14.72 0c.283.086.574.137.837.28 1.049.567 1.575 1.446 1.562 2.65 0 .083-.005.166-.006.248-.029.686-.33 1.245-.81 1.71a2.738 2.738 0 0 1-1.777.798c-.692.045-1.32-.121-1.877-.524a2.854 2.854 0 0 1-1.05-1.439c-.046-.14-.037-.29-.064-.432-.077-.732.027-1.424.449-2.044C12.435.585 13.05.173 13.839.034c.028-.005.057-.023.084-.036h.798V0Z" fill="#4165F2"/><path d="M106 20.419c-.5-.002-.999-.01-1.5-.004-.133 0-.169-.035-.169-.17.003-4.207.003-8.41 0-12.617 0-.136.038-.17.169-.167.501.01 1 .006 1.5.01v12.948ZM45.953 16.16c0 1.168.01 2.337-.004 3.504-.007.708-.045 1.413-.175 2.113-.219 1.175-.881 1.842-2.047 2.051-.923.166-1.853.13-2.782.078-.385-.02-.768-.067-1.153-.097-.106-.008-.149-.04-.146-.16.01-.35.01-.702 0-1.053-.003-.128.034-.157.159-.154.765.026 1.53.077 2.295.063.361-.007.72-.032 1.073-.116.58-.136.902-.503.994-1.088.1-.633.097-1.271.097-1.909 0-.041.016-.096-.044-.112-.048-.011-.067.03-.083.063-.34.7-.94 1-1.67 1.091-.538.067-1.076.074-1.607-.036-.89-.184-1.353-.697-1.518-1.655a8.44 8.44 0 0 1-.118-1.427c0-1.864.001-3.728-.005-5.592 0-.171.042-.211.207-.206.431.012.862.01 1.291 0 .146-.004.189.033.187.185-.006 1.634-.005 3.27-.003 4.903 0 .44.022.879.073 1.317.08.683.296.92.963 1.014.39.054.784.055 1.172-.023.563-.113.897-.468 1.024-1.024.125-.558.125-1.128.128-1.695.008-1.487.006-2.975-.002-4.462 0-.182.053-.22.22-.215.425.01.85.01 1.273 0 .153-.004.2.032.2.196-.006 1.48-.004 2.962-.004 4.443l.005.003Z" fill="#1E2C4F"/><path d="M26.733 12.112c-.36.248-.746.45-1.122.668-1.31.766-2.623 1.526-3.936 2.286-.547.317-1.096.632-1.641.95-.082.048-.193.069-.222.185-.038.024-.073.008-.11-.006-.802-.484-1.623-.94-2.428-1.421-.087-.051-.182-.094-.206-.211-.026-.184-.014-.37-.014-.555v-2.486c0-.095-.008-.191.022-.284a.128.128 0 0 1 .046-.06c.412-.233.826-.463 1.236-.7 1.25-.722 2.496-1.446 3.745-2.17.526-.306 1.048-.613 1.574-.92.076-.044.15-.097.238-.113.027.088-.041.126-.089.173-1.028 1.012-1.15 2.578-.268 3.723.419.542.973.877 1.65 1.012.459.09.904.052 1.348-.079.058-.017.12-.05.177.007v.001Z" fill="#A1E0D9"/><path d="m17.122 11.18-.008.045c-.291.224-.616.397-.934.576-.612.343-1.209.711-1.822 1.053-.055.03-.11.064-.171.082-.074.012-.136-.021-.196-.056-.79-.466-1.59-.92-2.38-1.385-.033-.019-.066-.038-.09-.068-.011-.02-.01-.037.005-.053 0-2.63.001-5.261.003-7.89 0-.065.003-.129.006-.19.103.456.263.888.56 1.259.522.654 1.184 1.039 2.027 1.084 1.182.064 2.058-.44 2.66-1.452.183-.31.255-.659.332-1.005.002.05.005.102.005.151 0 2.617.002 5.233.003 7.85Z" fill="#92B0F8"/><path d="m11.526 11.374.005.043a.26.26 0 0 1 .057.179c-.002.924.017 1.85-.01 2.773-.022.122-.122.173-.214.226-.814.462-1.615.943-2.43 1.403-.109.063-.218.127-.315.21-.044.019-.073 0-.093-.04-.704-.413-1.407-.825-2.112-1.236-1.438-.836-2.878-1.669-4.317-2.505-.064-.037-.123-.085-.185-.128.07-.064.144-.024.216-.01.974.209 1.853.02 2.593-.67.44-.41.716-.925.815-1.522.129-.771-.019-1.484-.475-2.125-.093-.131-.21-.238-.317-.355-.047-.053-.125-.096-.088-.19.413.192.793.443 1.188.67 1.872 1.082 3.741 2.17 5.61 3.256.021.013.048.014.072.022v-.001ZM19.736 16.17l.078.033 4.666 2.705c.56.324 1.117.647 1.675.973.08.047.173.077.226.16-.063.056-.131.027-.198.011-.988-.227-1.883-.035-2.623.677a2.782 2.782 0 0 0-.356 3.585c.115.166.236.331.391.467.035.03.084.064.05.128-.497-.24-.96-.54-1.436-.816-1.668-.962-3.331-1.93-4.998-2.898-.02-.012-.04-.03-.06-.044-.06-.07-.05-.155-.05-.237 0-1.009 0-2.016-.004-3.024 0-.157.046-.26.187-.341.729-.425 1.464-.84 2.19-1.27.08-.047.16-.1.26-.108l.002-.002Z" fill="#72DEF8"/><path d="m8.525 16.168.078.035c.062-.026.11.013.158.04.892.513 1.78 1.034 2.673 1.549.055.032.109.066.133.13a.241.241 0 0 1 .014.065c.018.934.006 1.867.006 2.8a.34.34 0 0 1-.019.113.127.127 0 0 1-.044.059c-.708.407-1.416.812-2.123 1.221-1.243.721-2.485 1.444-3.729 2.163-.26.152-.511.324-.793.441-.02-.1.058-.149.114-.204.789-.801.99-1.75.697-2.82-.276-1.003-1.296-1.821-2.32-1.912a3.116 3.116 0 0 0-1.068.081c-.065.018-.135.047-.198-.012.78-.458 1.56-.917 2.342-1.37 1.347-.784 2.693-1.562 4.04-2.344.016-.01.027-.026.04-.038v.003Z" fill="#A1E0D9"/><path d="m11.526 20.96.006-.041c.163-.143.363-.226.547-.336.67-.404 1.35-.79 2.029-1.18a.166.166 0 0 1 .084-.005c.473.242.92.528 1.381.79.494.282.984.573 1.477.854a.216.216 0 0 1 .072.059c.012.018.01.035-.003.053v7.502c0 .051-.003.102-.005.152-.095-.008-.074-.088-.085-.146-.214-1.173-1.17-2.105-2.341-2.247-1.51-.183-2.719.762-3.053 2.092-.017.067-.001.16-.098.187-.002-.064-.006-.128-.006-.19l-.005-7.545v.001Z" fill="#92B0F8"/><path d="M79.92 20.414c.375-.608.732-1.187 1.09-1.764.543-.874 1.085-1.75 1.633-2.621.065-.104.057-.171-.005-.27-.836-1.351-1.67-2.704-2.503-4.058-.03-.048-.057-.096-.104-.175h.6c.374 0 .748.004 1.122-.004.115-.001.18.036.24.136.563.939 1.13 1.872 1.697 2.807.117.194.124.194.24 0 .565-.928 1.129-1.857 1.686-2.79.068-.116.141-.154.271-.153.53.007 1.058.004 1.62.004l-.687 1.107c-.641 1.038-1.283 2.077-1.93 3.111-.063.103-.058.171.004.272.876 1.4 1.749 2.805 2.62 4.209.033.053.062.107.11.189h-.186c-.45 0-.9-.02-1.348.008-.266.016-.4-.084-.532-.306-.555-.935-1.128-1.857-1.695-2.784-.117-.19-.148-.192-.263 0-.58.956-1.163 1.91-1.735 2.872-.096.165-.203.22-.39.214-.505-.014-1.012-.004-1.553-.004h-.002ZM73.037 11.382c.623.03 1.323.069 2.012.217.127.027.179.066.174.208-.013.35-.008.702 0 1.053.002.117-.035.136-.14.12a14.176 14.176 0 0 0-2.59-.148c-.17.006-.343.02-.51.05-.554.094-.768.33-.818.905a3.23 3.23 0 0 0 .033.782c.04.25.192.392.43.45.44.105.89.126 1.333.191.493.074.992.104 1.481.22.61.148.96.533 1.088 1.139.164.77.178 1.547.023 2.318-.183.908-.756 1.413-1.708 1.573-.908.152-1.815.093-2.725.02-.404-.034-.804-.094-1.207-.13-.114-.012-.15-.048-.149-.162.007-.358.008-.714 0-1.072-.003-.138.045-.159.165-.143.911.114 1.826.159 2.745.14.24-.005.479-.034.713-.093.368-.095.578-.326.61-.709a3.93 3.93 0 0 0-.016-.973c-.055-.337-.157-.452-.494-.513-.436-.077-.874-.131-1.313-.194-.388-.056-.778-.097-1.165-.163-.828-.14-1.216-.514-1.384-1.347a5.118 5.118 0 0 1-.02-1.976c.17-.913.763-1.482 1.693-1.645.18-.032.362-.056.545-.077.372-.04.744-.044 1.197-.035l-.003-.006Z" fill="#1E2C4F"/><path d="M4.657 7.425c.195.248.428.46.596.736.594.98.475 2.41-.28 3.262-.804.907-1.794 1.17-2.949.89-.036-.01-.074-.01-.11-.014C1.282 12.028.74 11.641.4 11.024c-.534-.97-.544-1.959.033-2.907.581-.954 1.462-1.39 2.574-1.342.624.025 1.158.284 1.65.65Z" fill="#00A4F6"/><path d="M2.104 19.92c.214-.016.415-.096.629-.122 1.547-.187 2.919.95 3.101 2.401.124.982-.163 1.807-.871 2.487-.032.03-.057.068-.086.101-.573.435-1.207.672-1.935.652-1.336-.036-2.505-1.133-2.67-2.47-.147-1.195.492-2.4 1.578-2.92.086-.04.168-.086.252-.13h.002Z" fill="#1FC8C9"/><path d="M11.535 28.697c.108-.454.263-.887.56-1.256.536-.668 1.219-1.046 2.08-1.087.851-.042 1.575.25 2.165.858.41.424.67.934.742 1.532.004.024.02.044.03.067.055.7-.058 1.362-.465 1.945-.556.795-1.307 1.202-2.29 1.244-1.244.053-2.578-.897-2.812-2.367-.05-.31-.029-.624-.01-.936Z" fill="#4165F2"/><path d="M23.646 24.907c-.273-.275-.521-.566-.694-.919-.85-1.728.244-3.816 2.138-4.06.38-.05.77-.037 1.146.081.047.015.098.02.147.029.987.404 1.63 1.105 1.85 2.17.31 1.5-.744 3.05-2.241 3.305-.876.15-1.65-.074-2.346-.609v.003Z" fill="#00A4F6"/><path d="M26.733 12.112c-.25.061-.496.131-.756.159-1.62.175-3.057-1.172-3.052-2.77.003-.842.288-1.553.906-2.124.032-.028.057-.067.084-.1.59-.451 1.245-.681 1.994-.648 1.323.058 2.498 1.212 2.612 2.537a2.873 2.873 0 0 1-1.788 2.946Z" fill="#1FC8C9"/><path d="M32.318 16.024c.02-.887.027-1.787.22-2.671.241-1.098.892-1.723 1.987-1.894 1.02-.16 2.029-.068 3.037.123.115.022.166.065.161.198-.011.33-.016.665 0 .996.008.172-.043.2-.198.172a8.263 8.263 0 0 0-1.852-.116c-.163.008-.33.022-.49.056-.627.126-.937.468-1.043 1.144-.116.74-.122 1.487-.113 2.233.008.574.016 1.15.132 1.714.149.732.486 1.028 1.224 1.105.754.078 1.504.02 2.248-.1.124-.019.166-.009.163.13-.01.357-.004.715-.001 1.073 0 .076-.007.137-.098.153-1.171.216-2.345.344-3.52.063-1.01-.243-1.554-.913-1.713-2.015-.11-.778-.128-1.562-.149-2.358l.005-.006ZM100.712 13.925c0-2.081.003-4.161-.004-6.242 0-.192.053-.229.229-.224.425.014.849.011 1.272 0 .152-.005.184.041.184.189-.005 3.849-.003 7.698-.003 11.546 0 .358-.005.715.003 1.073.003.121-.035.148-.151.147a37.86 37.86 0 0 0-1.348 0c-.153.003-.186-.045-.185-.192.005-2.1.003-4.2.003-6.3v.003ZM64.573 15.97c0-1.418.004-2.835-.004-4.253 0-.16.04-.2.198-.196.399.013.798.008 1.196.002.106 0 .136.027.139.135.011.427.033.854.055 1.28.004.063-.033.16.065.175.09.013.081-.086.097-.139.288-.998.985-1.467 1.975-1.562.183-.017.415-.11.533-.006.12.104.033.348.036.53.008.32-.005.638.005.958.005.146-.029.198-.185.195a3.015 3.015 0 0 0-.954.134c-.764.234-1.166.787-1.33 1.548a7.311 7.311 0 0 0-.15 1.52c-.003 1.316-.003 2.63.002 3.945 0 .14-.025.186-.174.183-.431-.012-.862-.012-1.291 0-.168.004-.222-.034-.22-.216.007-1.412.004-2.822.004-4.233h.003ZM97.077 15.96c0-1.416.003-2.834-.003-4.25 0-.154.043-.19.19-.188.443.01.887.008 1.329 0 .127-.001.174.024.172.165-.004 2.854-.004 5.707 0 8.559 0 .134-.037.17-.17.17-.45-.009-.9-.01-1.349 0-.152.002-.172-.054-.172-.188.005-1.423.003-2.847.003-4.27v.002ZM78.83 15.976c0 1.416-.002 2.834.003 4.25 0 .15-.035.194-.185.19a25.541 25.541 0 0 0-1.31 0c-.154.004-.208-.03-.203-.196.013-.401.005-.804.005-1.207 0-2.425.001-4.851-.005-7.276 0-.18.05-.22.22-.216.431.013.862.01 1.291 0 .143-.003.19.029.189.184-.007 1.422-.003 2.847-.003 4.27l-.002.001Z" fill="#1E2C4F"/><path d="m17.12 21.155-.005-.043c-.053-.062-.06-.139-.06-.216 0-1.05-.01-2.1.004-3.15-.011-.97-.003-1.936-.003-2.905 0-.051.003-.102.02-.15a.12.12 0 0 1 .048-.058l2.376 1.38c.083.048.157.105.236.158-.377.265-.789.473-1.183.708-.434.258-.871.508-1.312.756-.104.06-.085.144-.085.23v3.287c-.011 0-.022.003-.034.005l-.003-.002Z" fill="#60D8F0"/><path d="M97.913 9.195c-.247 0-.494-.003-.74 0-.088 0-.137-.01-.136-.122.006-.497.005-.994 0-1.493 0-.092.03-.12.12-.12.507.004 1.013.005 1.52 0 .103 0 .126.037.126.133-.003.49-.004.983 0 1.474 0 .102-.031.13-.13.128-.253-.007-.506-.002-.758-.002l-.002.002ZM77.975 9.195c-.241 0-.482-.005-.721.001-.1.004-.144-.015-.143-.132.007-.49.005-.982 0-1.474 0-.1.029-.13.129-.13.499.005 1 .007 1.498 0 .116 0 .132.044.132.144-.005.485-.005.97 0 1.455 0 .109-.029.14-.136.137-.254-.008-.506-.003-.76-.003v.002ZM95.155 11.714c0-.144-.026-.198-.183-.193-.412.013-.824.006-1.234.001-.094 0-.132.018-.135.123-.008.274-.025.549-.052.82-.008.076.043.197-.052.22-.103.024-.105-.11-.138-.176-.235-.467-.588-.787-1.089-.947-.717-.23-1.441-.238-2.173-.086-.738.152-1.221.601-1.483 1.306a5.575 5.575 0 0 0-.285 1.282c-.103.883-.112 1.768-.082 2.655.024.721.074 1.44.272 2.138.216.762.654 1.314 1.454 1.506.561.134 1.13.148 1.697.075.722-.093 1.345-.358 1.674-1.08.02-.041.045-.065.086-.052.059.019.033.075.035.115.005.6 0 1.199-.083 1.795-.098.71-.427 1.058-1.127 1.194a5.456 5.456 0 0 1-.981.091c-.797.012-1.594-.025-2.39-.057-.081-.003-.148-.02-.144.105.006.371.004.74 0 1.111 0 .09.03.119.117.13.396.053.79.097 1.19.115.948.043 1.895.085 2.838-.08 1.206-.21 1.874-.874 2.096-2.092.125-.686.161-1.38.168-2.076.008-1.187.001-2.373.001-3.561 0-1.461-.001-2.924.003-4.385v.003Zm-1.807 6.019c-.162.817-.596 1.194-1.426 1.23a4.88 4.88 0 0 1-.89-.034c-.556-.08-.83-.326-.955-.881-.105-.464-.114-.935-.128-1.407-.008-.241 0-.484 0-.727.017-.713-.02-1.43.13-2.134.096-.453.35-.734.817-.81.447-.071.893-.095 1.34-.018.597.1.914.497 1.072 1.053.138.484.152.981.156 1.479.004.753.031 1.505-.116 2.25v-.001ZM54.78 15.151c-.026-.753-.082-1.5-.307-2.227-.242-.778-.724-1.3-1.541-1.46a4.632 4.632 0 0 0-1.68-.021c-.403.067-.785.188-1.103.465-.171.148-.3.327-.415.518-.027.046-.035.127-.11.11-.09-.02-.036-.106-.049-.162-.006-.03 0-.064 0-.095 0-1.538-.003-3.076.005-4.615 0-.175-.047-.21-.209-.205-.425.011-.85.013-1.272 0-.166-.005-.206.038-.206.208.006 2.094.005 4.186.005 6.28v2.144c0 1.378.001 2.758-.003 4.136 0 .147.033.195.185.19.4-.011.798-.01 1.196 0 .117.003.152-.034.157-.147.013-.286.035-.572.055-.859.005-.057-.033-.144.045-.166.098-.027.1.075.125.133.228.513.6.853 1.142 1.01a4.38 4.38 0 0 0 2.194.054c.665-.147 1.121-.553 1.38-1.19.178-.442.269-.902.324-1.37.108-.909.114-1.82.083-2.732v.001Zm-1.785 2.826c-.112.664-.346.905-1 1.008a3.85 3.85 0 0 1-1.133.01c-.583-.082-.94-.423-1.106-.986-.125-.426-.149-.864-.166-1.304a15.73 15.73 0 0 1 .053-2.252 2.89 2.89 0 0 1 .127-.577c.178-.552.547-.87 1.123-.94.45-.056.897-.04 1.339.057.352.079.573.306.684.647.165.51.16 1.043.187 1.57.01.178 0 .357 0 .536.002.745.02 1.493-.108 2.231Z" fill="#1E2C4F"/><path d="M14.189 12.912c.52-.307 1.039-.616 1.56-.921.375-.22.75-.438 1.126-.657.076-.045.148-.098.238-.11 0 1.06.001 2.118.003 3.178 0 .076.005.153.006.228l-.01.003c-.112.013-.19-.062-.275-.112-.836-.486-1.673-.968-2.508-1.454-.061-.036-.144-.061-.14-.157v.002Z" fill="#5D9BD4"/><path d="M14.188 12.912c.39.271.813.487 1.22.727.567.334 1.136.663 1.703.996v3.101c-.23.193-.5.318-.756.467-.67.393-1.343.782-2.015 1.172-.047.028-.093.067-.155.047h-.073c-.272-.089-.499-.265-.744-.404-.566-.32-1.125-.652-1.687-.978-.056-.032-.111-.061-.148-.115l-.01-.035a.504.504 0 0 1-.058-.276v-2.898c0-.096.007-.19.059-.275l.005-3.026c.307.135.586.322.876.488.543.312 1.083.63 1.625.943.048.027.104.043.157.064l.001.002Z" fill="#3796EA"/><path d="M11.526 14.443v3.448c-.975-.563-1.949-1.125-2.923-1.69.017-.145.158-.158.247-.21.889-.523 1.782-1.035 2.676-1.55v.002Z" fill="#60D8F0"/><path d="M11.535 17.926c.322.135.607.334.908.504.505.286 1.004.58 1.505.873.058.035.11.081.166.121-.228.18-.49.307-.74.453-.543.32-1.09.636-1.636.95-.065.037-.138.06-.208.089 0-.998.003-1.995.005-2.991v.001Z" fill="#5D9BD4"/><path d="m14.187 19.426 1.823-1.073c.289-.17.577-.336.865-.505.076-.045.15-.094.238-.11l.001 3.374c-.393-.172-.749-.41-1.12-.625-.605-.348-1.205-.706-1.807-1.061Z" fill="#429AF2"/><path d="M62.788 13.423c-.146-1.095-.69-1.712-1.735-1.918a7.21 7.21 0 0 0-2.959.03c-.983.216-1.576.831-1.77 1.834a9.425 9.425 0 0 0-.158 1.365c-.052 1.224-.07 2.449.127 3.664.193 1.184.802 1.8 1.98 2.025.651.125 1.307.138 1.966.119a14.91 14.91 0 0 0 2.151-.199c.16-.027.252-.069.238-.271-.024-.319-.013-.638-.003-.958.003-.13-.035-.162-.16-.149-.485.052-.968.107-1.454.133-.69.037-1.379.062-2.065-.058-.641-.113-.918-.398-1.028-1.043-.074-.443-.06-.89-.087-1.335-.008-.14.072-.134.167-.134H62.747c.09 0 .17.016.17-.13-.004-.996.004-1.99-.13-2.98v.005Zm-1.66 1.909c-.526-.005-1.05-.002-1.576-.002s-1.038-.001-1.557.002c-.111 0-.16-.008-.156-.152.016-.465.034-.929.113-1.39.093-.541.394-.862.944-.94a4.48 4.48 0 0 1 1.378-.002c.566.095.816.38.917 1.008.071.441.082.887.089 1.335 0 .126-.046.144-.154.142l.002-.001Z" fill="#1E2C4F"/></g><defs><clipPath id="a"><path fill="#fff" d="M0 0h106v32H0z"/></clipPath></defs></svg>