<?xml version="1.0" encoding="UTF-8"?>
<svg viewBox="0 0 151 46" xmlns="http://www.w3.org/2000/svg">
<g>
<path d="m45.43 22.86c0-2.95 0.93-5.21 2.8-6.77 1.86-1.56 4.06-2.34 6.59-2.34 2.03 0 3.78 0.44 5.24 1.31v3.47c-1.32-0.94-2.89-1.42-4.71-1.42-1.68 0-3.11 0.47-4.29 1.4-1.18 0.93-1.77 2.33-1.77 4.2 0 1.82 0.58 3.21 1.75 4.16 1.17 0.96 2.58 1.44 4.23 1.44 1.79 0 3.45-0.44 4.96-1.31v3.51c-1.63 0.78-3.51 1.17-5.63 1.17-2.48 0-4.63-0.76-6.45-2.28-1.81-1.53-2.72-3.71-2.72-6.54"/>
<path d="m66.04 17.01c0.66-1.06 1.64-1.89 2.94-2.48 1.3-0.59 2.7-0.81 4.22-0.67v3.72c-1.51-0.21-2.88-0.01-4.11 0.6-1.23 0.62-2.1 1.52-2.62 2.73v10.31h-3.79v-17h3.36v2.79z"/>
<path d="m88.14 14.21h3.79v17h-3.36v-2.34c-1.56 1.87-3.53 2.8-5.92 2.8-2.2 0-3.91-0.64-5.15-1.91-1.24-1.28-1.86-2.95-1.86-5.03v-10.52h3.79v10.03c0 2.72 1.32 4.07 3.97 4.07 1.86 0 3.45-0.94 4.75-2.83v-11.27z"/>
<path d="m98.24 16.55c1.56-1.86 3.53-2.8 5.92-2.8 2.13 0 3.83 0.64 5.1 1.93 1.27 1.29 1.91 2.96 1.91 5.01v10.52h-3.79v-10.02c0-1.32-0.37-2.33-1.1-3.03-0.73-0.7-1.69-1.05-2.87-1.05-1.87 0-3.45 0.94-4.75 2.83v11.26h-3.79v-17h3.36v2.35z"/>
<path d="m113.1 22.86c0-2.95 0.93-5.21 2.8-6.77 1.86-1.56 4.06-2.34 6.59-2.34 2.03 0 3.78 0.44 5.24 1.31v3.47c-1.32-0.94-2.89-1.42-4.71-1.42-1.68 0-3.11 0.47-4.29 1.4-1.18 0.93-1.77 2.33-1.77 4.2 0 1.82 0.58 3.21 1.75 4.16 1.17 0.96 2.58 1.44 4.23 1.44 1.79 0 3.45-0.44 4.96-1.31v3.51c-1.63 0.78-3.51 1.17-5.63 1.17-2.48 0-4.63-0.76-6.45-2.28-1.81-1.53-2.72-3.71-2.72-6.54"/>
<path d="m130.43 6.42h3.79v9.67c1.51-1.56 3.34-2.34 5.49-2.34 2.13 0 3.83 0.64 5.1 1.93 1.28 1.29 1.91 2.96 1.91 5.01v10.52h-3.79v-10.02c0-1.32-0.37-2.33-1.1-3.03-0.73-0.7-1.69-1.05-2.87-1.05-1.86 0-3.45 0.95-4.75 2.83v11.26h-3.79v-24.78z"/>
<path d="m39.38 32.64v-19.85l-17.2-9.93-17.19 9.93v19.85l17.19 9.93z" fill="#773b8d"/>
<path d="m24.5 26.03c0-0.16 0.02-0.32 0.07-0.48 0.050001-0.16 0.1-0.31 0.15-0.44 0.050001-0.13 0.14-0.27 0.27-0.42 0.13-0.15 0.24-0.28 0.33-0.39 0.09-0.11 0.24-0.23 0.43-0.39 0.2-0.15 0.35-0.27 0.48-0.34 0.12-0.08 0.31-0.19 0.56-0.34 0.25-0.15 0.43-0.26 0.55-0.34 0.12-0.08 0.33-0.2 0.62-0.38 0.29-0.18 0.49-0.3 0.6-0.37 1.38-0.81 2.47-1.64 3.27-2.49 0.8-0.85 1.2-1.88 1.2-3.08 0-1.45-0.52-2.56-1.56-3.34-1.04-0.78-2.4-1.17-4.09-1.17-1.91 0-3.64 0.52-5.2 1.55v2.59c1.71-1.12 3.26-1.71 4.96-1.71 1.01 0 1.79 0.18 2.35 0.54 0.56 0.36 0.84 0.89 0.84 1.58 0 0.75-0.31 1.44-0.94 2.05-0.38 0.34-1.24 0.9-2.58 1.67-1.33 0.81-2.23 1.39-2.71 1.76-0.85 0.66-1.48 1.41-1.92 2.23v-5.9h-2.76l-8.56 10.51v2.29h8.72v3.28h2.6v-6.07h10.93v-2.43l-8.61 0.030001zm-4.92 2.85h-5.72l5.72-7.02v7.02z" fill="#fff"/>
</g>
</svg>
