<?xml version="1.0" encoding="UTF-8" standalone="no"?>
<!-- Created with Inkscape (http://www.inkscape.org/) -->

<svg
   version="1.1"
   id="svg1"
   width="579.19434"
   height="584.7475"
   viewBox="0 0 579.19434 584.7475"
   xmlns="http://www.w3.org/2000/svg"
   xmlns:svg="http://www.w3.org/2000/svg">
  <defs
     id="defs1" />
  <g
     id="g1"
     transform="translate(-1505.6427,-0.389983)">
    <path
       style="fill:#fdfcfe"
       d="M 1299.5995,296.38998 V -18.610017 h 500 500 v 314.999997 315 h -500 -500 z"
       id="path9" />
    <path
       style="fill:#cbbbf2"
       d="m 1545.8267,582.87841 c -4,-1.91864 -7.6225,-3.48843 -8.0499,-3.48843 -1.3988,0 -12.5938,-8.67448 -16.3021,-12.63181 -8.4181,-8.98331 -15.3863,-21.73991 -16.8895,-30.91934 -1.1775,-7.19088 -1.1725,-38.74926 0.01,-53.94885 0.9637,-12.40172 3.3218,-31.06091 5.4342,-43 0.7785,-4.4 2.1694,-12.725 3.0909,-18.5 2.9814,-18.68472 5.5327,-33.35207 6.9577,-40 0.7662,-3.575 1.679,-8.075 2.0282,-10 0.5563,-3.06578 2.7225,-12.9817 6.9906,-32 1.2795,-5.70147 8.3789,-32.73837 10.8971,-41.5 8.0504,-28.01011 14.9148,-47.71233 28.7434,-82.5 6.337,-15.94161 27.7435,-59.17093 36.396,-73.5 9.5008,-15.73404 23.4665,-36.5 24.5472,-36.5 0.5062,0 0.9204,-0.61164 0.9204,-1.35921 0,-0.74757 1.7365,-3.335067 3.8588,-5.749997 2.1223,-2.41493 5.1598,-6.24139 6.75,-8.50324 6.8039,-9.678392 35.716,-40.38755 38.0237,-40.38755 0.509,0 2.4873,-1.47986 4.3963,-3.288578 6.5333,-6.190231 15.6254,-13.711422 16.5753,-13.711422 0.5221,0 3.3449,-1.8 6.2728,-4 2.928,-2.2 5.7761,-4 6.3292,-4 0.5531,0 2.6455,-1.2375 4.6496,-2.75 2.0041,-1.5125 5.2189,-3.510406 7.1439,-4.439792 10.7302,-5.180541 18.9058,-8.634564 22,-9.294575 1.925,-0.410618 4.009,-1.155303 4.6311,-1.654854 4.1521,-3.334198 11.2007,-3.618105 86.6191,-3.48887 41.1126,0.07045 74.8626,0.371137 75,0.668194 0.1374,0.297057 -2.4158,3.557459 -5.6737,7.245339 -6.9272,7.841517 -13.815,17.508794 -13.3804,18.779924 0.1671,0.488874 2.7789,-2.292596 5.8039,-6.181045 6.8988,-8.868017 17.7581,-19.210085 22.9541,-21.860887 3.6242,-1.848945 5.8551,-2.023434 25.8703,-2.023434 h 21.9041 l 7.6217,6.009636 c 21.935,17.295483 42.4351,53.4898 60.3152,106.490361 14.3625,42.57338 29.7417,106.61362 31.0019,129.09448 0.5445,9.71216 0.3464,12.00175 -1.5898,18.37618 -4.4251,14.56883 -13.6209,24.22757 -27.6674,29.06025 -13.115,4.51225 -23.2444,5.14655 -95.4101,5.9746 -71.0326,0.81505 -74.6835,1.03952 -86.5972,5.32438 -20.723,7.45314 -31.5202,19.96042 -39.9657,46.29532 -6.2387,19.45347 -7.7405,30.24206 -11.397,81.87479 -4.9564,69.98781 -6.9649,89.31047 -11.0546,106.35329 -5.9811,24.92416 -16.0325,38.34121 -36.0609,48.13556 l -10.2473,5.01115 -98.0886,-0.0116 -98.0887,-0.0116 z M 1892.0348,31.491944 c -0.6277,-0.627692 -2.4127,1.912097 -2.3882,3.398039 0.01,0.55 0.6726,0.13285 1.4744,-0.926999 0.8018,-1.05985 1.213,-2.171818 0.9138,-2.47104 z m 41.0647,553.126186 c -1.65,-0.9704 -5.7,-2.85137 -9,-4.17994 -7.5967,-3.0584 -20.5703,-10.67161 -27.5884,-16.1895 -22.8225,-17.94398 -39.2961,-45.16712 -44.9484,-74.27873 -2.1041,-10.83667 -2.5944,-31.31158 -0.9479,-39.57998 2.7089,-13.60324 3.9102,-18.01658 6.2607,-23 1.4267,-3.025 2.9232,-6.85 3.3256,-8.5 0.9326,-3.8243 4.4208,-10.40589 8.3383,-15.73293 1.6831,-2.28859 3.0601,-4.70102 3.0601,-5.36095 0,-1.72108 33.9095,-34.40612 35.695,-34.40612 0.8193,0 2.6337,-0.9 4.0321,-2 1.3985,-1.1 3.3268,-2 4.2853,-2 0.9585,0 2.3029,-0.675 2.9876,-1.5 0.6847,-0.825 1.8321,-1.5 2.5498,-1.5 0.7177,0 4.3265,-1.575 8.0197,-3.5 3.6931,-1.925 7.7982,-3.5 9.1223,-3.5 1.3241,0 3.6718,-0.65376 5.2169,-1.45281 2.5278,-1.30717 11.6507,-2.65193 28.4782,-4.19782 3.2378,-0.29745 6.8378,-0.0829 8,0.47677 1.1622,0.55968 6.0957,1.28385 10.9634,1.60927 5.3296,0.35631 9.6945,1.18299 10.9725,2.07813 1.1672,0.81755 3.4846,1.50077 5.1497,1.51826 1.6651,0.0175 3.901,0.6925 4.9686,1.5 1.0677,0.80751 2.8242,1.4682 3.9035,1.4682 2.8867,0 12.6567,4.83421 16.4402,8.13463 1.8066,1.57595 4.0809,2.86537 5.0538,2.86537 0.973,0 3.2956,1.575 5.1614,3.5 1.8658,1.925 4.1379,3.5 5.0492,3.5 2.2547,0 18.9508,15.75445 18.9508,17.88199 0,0.93587 2.0554,3.70779 4.5676,6.1598 2.5121,2.45202 6.1298,7.60821 8.0392,11.45821 1.9094,3.85 3.8559,7.675 4.3256,8.5 0.4697,0.825 1.3492,2.625 1.9545,4 0.6053,1.375 2.6354,4.62425 4.5113,7.22057 3.1046,4.29685 3.4708,5.55347 4.0803,14 0.3682,5.10368 0.5237,21.37508 0.3455,36.15865 -0.3206,26.59585 -0.3477,26.89495 -2.574,28.37197 -1.2375,0.82101 -2.257,2.45037 -2.2655,3.62078 -0.026,3.54679 -7.4724,19.13564 -13.3875,28.02543 -12.6381,18.99385 -28.6275,32.61837 -51.2619,43.68006 l -14.1649,6.92254 -37.3351,-0.004 c -33.8687,-0.003 -37.6136,-0.16755 -40.3351,-1.76811 z"
       id="path8" />
    <path
       style="fill:#9eacf7"
       d="m 1561.0995,585.35566 c -8.3212,-0.49402 -9.8296,-0.93723 -20,-5.87677 -9.0727,-4.40643 -12.1388,-6.51188 -17.5,-12.01712 -6.8753,-7.06007 -13.4592,-17.27407 -16.4834,-25.57179 -1.4635,-4.01548 -1.908,-8.93808 -2.2574,-25 -0.5595,-25.71936 1.264,-46.20602 7.6548,-86 0.5299,-3.3 1.6676,-10.5 2.5282,-16 7.5424,-48.20643 20.6715,-103.2863 34.9204,-146.5 17.7454,-53.81783 41.8685,-105.7286 64.5935,-139 1.6905,-2.475 4.7942,-7.21521 6.8972,-10.5338 2.103,-3.31859 5.6963,-7.63676 7.9852,-9.59593 2.2888,-1.95917 4.1615,-4.09729 4.1615,-4.75138 0,-1.96707 3.1314,-6.118887 4.615,-6.118887 0.826,0 1.385,1.05276 1.385,2.608407 0,2.26436 0.3212,2.5278 2.4349,1.99728 1.3392,-0.33611 38.4299,-0.61952 82.4238,-0.62978 46.365,-0.0108 80.126,-0.39629 80.3151,-0.91702 0.1913,-0.52697 2.1866,-0.53613 4.8262,-0.0222 2.475,0.4819 13.1144,0.89579 23.643,0.91974 16.1211,0.0367 19.2339,-0.19324 19.7186,-1.45645 0.3166,-0.825 0.9887,-1.499997 1.4935,-1.499997 1.5227,0 1.8704,5.716057 0.4982,8.188957 -1.4815,2.66969 -1.8605,11.73236 -0.4291,10.26104 0.5083,-0.5225 2.4823,-5 4.3868,-9.95 22.2126,-57.733855 42.105,-90.993861 63.0349,-105.393953 l 4.5145,-3.106024 h 21.6457 21.6458 l 6.1524,4.734171 c 7.8191,6.016668 12.5302,10.871739 19.6647,20.265829 25.8008,33.972005 48.3616,95.066897 67.551,182.928817 4.6733,21.39709 6.1946,35.74936 4.7671,44.97199 -2.5439,16.43444 -12.7865,28.93823 -27.9901,34.16903 -12.6579,4.35494 -24.9766,5.10869 -96.797,5.92277 -64.1088,0.72666 -68.508,0.89108 -76.8772,2.87332 -12.8,3.03166 -22.7454,8.27588 -30.7125,16.1948 -7.801,7.75376 -12.489,15.77812 -17.1991,29.43927 -7.4849,21.70907 -8.8222,31.39163 -13.6733,99 -3.4702,48.36404 -3.6817,50.87854 -5.6354,67 -4.1607,34.33299 -10.7696,51.55295 -24.5361,63.9302 -3.1467,2.82913 -9.4401,6.73265 -15.6401,9.70084 l -10.3747,4.96678 -89.1758,0.20109 c -49.0467,0.1106 -93.2258,-0.0394 -98.1758,-0.33323 z m 371.5,-1.95385 c -1.925,-1.0448 -7.0889,-3.52585 -11.4753,-5.51344 -18.474,-8.37101 -38.1873,-25.23653 -49.6793,-42.50264 -8.9364,-13.42632 -15.8592,-30.41482 -18.947,-46.49575 -1.7749,-9.24319 -1.4856,-37.15882 0.4326,-41.74982 0.7546,-1.80587 1.7059,-5.51081 2.1142,-8.2332 0.4082,-2.72239 2.2751,-7.7887 4.1485,-11.25847 1.8735,-3.46978 3.4063,-7.13671 3.4063,-8.14874 0,-2.03977 3.6173,-7.10977 5.0726,-7.10977 0.5101,0 0.9274,0.68065 0.9274,1.51254 0,1.18128 0.8762,0.95946 4.0004,-1.01282 2.2003,-1.38895 6.5453,-3.1882 9.6556,-3.99834 3.1103,-0.81013 6.3726,-2.09747 7.2496,-2.86075 2.0012,-1.74186 7.1407,-3.28253 13.5294,-4.05579 2.7143,-0.32852 5.8643,-1.19958 7,-1.9357 1.1358,-0.73612 4.765,-1.67315 8.065,-2.08228 3.3,-0.40914 7.575,-0.96942 9.5,-1.24507 8.4835,-1.2148 44.6174,-1.4464 48.4207,-0.31035 2.1564,0.64411 6.2064,1.34389 9,1.55505 12.2496,0.92594 14.5142,1.45385 28.0986,6.55039 2.7607,1.03572 5.6408,1.88312 6.4004,1.88312 0.7595,0 3.6758,1.08786 6.4806,2.41746 2.8049,1.3296 7.1247,3.35616 9.5997,4.50346 7.086,3.28476 17.3081,9.09674 19.5,11.08713 1.1,0.99886 3.4254,2.41818 5.1676,3.15403 3.8904,1.64324 19.268,15.48176 27.9557,25.1578 2.7908,3.10827 3.1962,4.36773 3.8074,11.82938 0.3762,4.59291 0.7292,14.33164 0.7845,21.64162 0.092,12.17757 -0.082,13.53799 -2.0805,16.24085 -1.1996,1.62248 -2.4637,4.41658 -2.8093,6.20912 -0.8642,4.48357 -7.1973,18.00948 -11.8268,25.25915 -12.1813,19.07558 -29.5116,34.36865 -49.4986,43.67977 -4.675,2.1779 -10.3296,4.82841 -12.5657,5.89002 -3.7946,1.80147 -6.5292,1.92726 -41,1.88594 -34.3404,-0.0412 -37.1801,-0.17767 -40.4343,-1.9439 z M 1670.412,100.70687 c 0.7219,-0.28887 1.5844,-0.25335 1.9167,0.0789 0.3323,0.3323 -0.2584,0.56864 -1.3125,0.52522 -1.165,-0.048 -1.4019,-0.28494 -0.6042,-0.60416 z m 40.4565,-0.01 c 0.973,-0.25354 2.323,-0.23687 3,0.037 0.6771,0.27393 -0.119,0.48137 -1.769,0.46099 -1.65,-0.0204 -2.2039,-0.2445 -1.231,-0.49804 z m 78.481,0.0307 c 0.6875,-0.27741 1.8125,-0.27741 2.5,0 0.6875,0.27741 0.125,0.50439 -1.25,0.50439 -1.375,0 -1.9375,-0.22698 -1.25,-0.50439 z"
       id="path7" />
    <path
       style="fill:#5993f7"
       d="m 1554.802,583.84516 c -7.8156,-2.12227 -19.8333,-7.93616 -25.9488,-12.55341 -9.6897,-7.31581 -18.5765,-21.46531 -21.7724,-34.66596 -1.5259,-6.30288 -1.6826,-10.47142 -1.1845,-31.5 0.3157,-13.32969 1.0552,-27.16081 1.6432,-30.73581 0.5881,-3.575 2.1911,-14.825 3.5622,-25 2.2269,-16.52599 3.162,-22.72974 6.4814,-43 6.0578,-36.99367 18.8816,-91.46976 29.1718,-123.92403 11.3656,-35.84599 27.7563,-77.59081 37.1228,-94.54669 1.528,-2.76611 3.6865,-6.94178 4.7968,-9.27928 2.7131,-5.71221 4.2034,-5.45617 3.7715,0.648 l -0.3465,4.89799 5.5,0.482 c 3.7913,0.33225 5.9822,0.0608 7.0519,-0.87374 1.1651,-1.01773 3.5335,-1.20353 9.5,-0.74526 9.7898,0.75193 11.3662,0.73597 19.1981,-0.19435 3.5355,-0.41997 6.252,-0.35635 6.2545,0.14647 0.01,1.27524 6.9499,1.50338 10.5465,0.34652 2.0119,-0.64714 4.8711,-0.63617 8.3954,0.0322 3.7953,0.71976 5.7292,0.69435 6.6714,-0.0876 0.9691,-0.80422 2.6154,-0.77205 6.1046,0.11927 3.5955,0.91851 6.484,0.95386 11.6744,0.14289 3.7933,-0.59267 7.6183,-0.71503 8.5,-0.27192 0.8818,0.44312 5.4282,0.44858 10.1032,0.0121 13.3061,-1.24221 23.2298,-1.21198 26.5,0.0807 2.3276,0.92009 4.1636,0.90993 8.1913,-0.0453 3.9506,-0.93699 5.8626,-0.95696 8,-0.0836 1.9181,0.78376 4.5527,0.86808 8.3087,0.26592 3.025,-0.48496 7.975,-0.54247 11,-0.12779 3.025,0.41467 6.175,0.44709 7,0.072 0.825,-0.37503 8.925,-0.53762 18,-0.3613 16.1705,0.31419 18.1054,0.3234 27.75,0.13213 2.6125,-0.0518 5.875,0.0384 7.25,0.20037 1.375,0.16201 3.6756,-0.0385 5.1125,-0.4455 2.5672,-0.72725 2.6245,-0.63372 3.3069,5.39817 1.0876,9.61315 2.8676,7.33323 7.0192,-8.99046 5.2151,-20.5054 19.3415,-65.10982 26.7616,-84.499997 17.9316,-46.859124 35.601,-75.700148 55.5071,-90.601826 l 5.2073,-3.898084 h 21.5854 21.5854 l 5.2073,3.855921 c 30.4098,22.517958 57.85,81.183609 79.5831,170.144076 8.8874,36.37874 11.7175,50.56472 12.7095,63.70534 1.95,25.83104 -9.3492,42.99306 -32.0853,48.73354 -12.3308,3.11332 -25.2504,3.75306 -91.5,4.53082 -57.896,0.6797 -68.5549,1.03352 -74.914,2.48678 -27.5622,6.2988 -40.7223,18.31209 -51.0267,46.58009 -8.176,22.42921 -9.375,31.07482 -14.556,104.96343 -3.617,51.58253 -5.08,65.71996 -8.5989,83.08911 -3.365,16.60958 -7.4559,26.47085 -14.7243,35.49294 -5.8333,7.24078 -12.6658,12.10821 -23.999,17.0968 l -8.6811,3.82115 -93.5,0.19684 c -78.6605,0.1656 -94.3408,-0.0315 -98.7975,-1.24166 z m 384.2975,0.53765 c -1.65,-0.35693 -3.9,-1.15708 -5,-1.77811 -1.1,-0.62103 -5.6538,-2.66365 -10.1196,-4.53914 -9.3844,-3.94112 -25.326,-14.20967 -33.5999,-21.64288 -7.2863,-6.54592 -18.5806,-21.55114 -24.2643,-32.23659 -8.1156,-15.25776 -12.8569,-33.68627 -12.5542,-48.79611 0.1768,-8.82682 1.2285,-10.64531 2.9102,-5.0321 1.4014,4.67722 1.9877,4.87461 4.9891,1.67971 1.2155,-1.29382 4.1065,-2.91273 6.4243,-3.59759 2.3179,-0.68487 5.7894,-2.07075 7.7144,-3.07976 1.925,-1.009 9.125,-3.73299 16,-6.05332 11.8605,-4.00295 13.0883,-4.21729 24,-4.18979 6.325,0.0159 12.0517,-0.41232 12.7261,-0.95168 0.685,-0.54792 3.3327,-0.70019 6,-0.34506 11.8423,1.57669 15.5186,1.72485 16.5755,0.66803 1.3732,-1.3732 7.3661,-1.44515 8.1984,-0.0984 0.3399,0.55 1.7165,1 3.059,1 1.3426,0 2.441,-0.45 2.441,-1 0,-1.12001 7.1544,-1.18106 11,-0.0939 1.375,0.38873 3.671,0.27032 5.1022,-0.26313 1.8996,-0.70803 3.9753,-0.52078 7.6879,0.69354 2.7971,0.9149 6.0563,1.66345 7.2426,1.66345 3.0746,0 15.8626,3.99423 19.7554,6.17045 1.8084,1.01097 5.4082,2.31328 7.9996,2.89402 2.5913,0.58073 5.6117,1.85597 6.7119,2.83386 1.1002,0.9779 3.4185,2.337 5.1516,3.02024 1.7332,0.68323 4.1741,2.33106 5.4243,3.66184 1.2502,1.33077 2.9008,2.41959 3.6679,2.41959 3.9865,0 28.0794,22.74341 31.7351,29.95756 2.8324,5.58944 3.8784,6.05822 6.4451,2.88844 3.2588,-4.02447 3.0402,0.37621 -0.4331,8.71823 -11.3889,27.35324 -33.9899,49.23032 -62.9905,60.97302 -3.85,1.55891 -7.6158,3.30012 -8.3685,3.86935 -1.5234,1.15217 -66.555,1.68438 -71.6315,0.58623 z m -346.5,-411.74268 c 0,-0.47734 0.6526,-1.7414 1.4503,-2.80902 1.3991,-1.87274 1.4301,-1.86131 0.8793,0.32445 -0.5689,2.25724 -2.3296,4.13508 -2.3296,2.48457 z"
       id="path6" />
    <path
       style="fill:#3c83f3"
       d="m 1552.0995,581.93468 c -15.3201,-5.09744 -24.1719,-10.61574 -31.0159,-19.33563 -11.4377,-14.57286 -14.5046,-25.30321 -14.4402,-50.52242 0.024,-9.45266 0.4618,-20.56165 0.9726,-24.68665 0.5107,-4.125 1.386,-11.55 1.9449,-16.5 1.6974,-15.03039 4.8928,-38.47648 6.5418,-48 0.8572,-4.95 2.0258,-11.925 2.5971,-15.5 1.5998,-10.01168 5.8758,-32.81226 7.4078,-39.5 0.756,-3.3 2.3399,-10.275 3.5198,-15.5 6.7373,-29.83459 19.5543,-74.82642 22.0635,-77.45 0.5502,-0.57529 0.9086,1.05273 0.9086,4.12756 0,3.29343 -0.5271,5.51497 -1.5,6.32244 -0.9856,0.81802 -1.5,3.04965 -1.5,6.50814 0,2.89478 -0.6722,6.55218 -1.4938,8.12755 -1.6927,3.24552 -2.0192,10.92919 -0.5043,11.86547 0.551,0.34055 1.4399,-0.53289 1.9752,-1.94099 1.2426,-3.26823 2.805,-3.26337 4.0506,0.0126 1.195,3.1433 4.4575,2.94472 4.5028,-0.27408 0.017,-1.19106 1.2339,-3.11209 2.7046,-4.26896 2.2564,-1.77489 2.9856,-1.90886 4.6686,-0.85777 1.4829,0.92609 1.7197,1.57689 0.923,2.53685 -0.5894,0.71016 -1.6915,1.2912 -2.4491,1.2912 -0.7577,0 -1.3776,0.375 -1.3776,0.83333 0,1.67056 1.259,2.02189 3.1078,0.86727 1.4554,-0.90892 2.329,-0.90892 3.7844,0 2.2166,1.3843 2.8069,0.93939 4.6758,-3.5244 1.1654,-2.78358 1.7606,-3.21412 3.6618,-2.64902 1.2486,0.37112 2.8327,1.39034 3.5202,2.26492 0.6875,0.87459 1.25,1.10591 1.25,0.51404 0,-0.59187 1.1946,-1.85887 2.6547,-2.81557 2.5254,-1.65467 2.622,-1.6541 1.9828,0.0117 -0.6474,1.68708 0.8202,4.4977 2.3486,4.4977 0.4076,0 1.918,-1.17681 3.3563,-2.61513 1.8512,-1.85117 3.1326,-2.39049 4.3864,-1.84614 2.79,1.21133 21.0643,1.67644 23.0133,0.58572 1.253,-0.7012 2.2112,-0.57169 3.342,0.45169 1.2809,1.15915 2.6257,1.23734 7.0007,0.40704 2.9783,-0.56524 8.4668,-0.9052 12.1965,-0.75545 l 6.7812,0.27227 -3.0402,2.5 c -3.8358,3.15411 -3.8424,4.5 -0.022,4.5 1.6869,0 3,-0.53169 3,-1.21482 0,-0.66815 0.9,-1.69648 2,-2.28518 1.1,-0.5887 2,-1.69921 2,-2.4678 0,-1.86948 3.7589,-2.97718 5.4212,-1.59757 0.7289,0.60493 2.1019,0.80187 3.051,0.43764 1.52,-0.58327 1.5721,-0.41613 0.4369,1.40154 -1.7271,2.76557 0.2566,5.22619 4.2133,5.22619 2.336,0 2.8776,-0.43286 2.8776,-2.3 0,-1.265 -0.5625,-2.89058 -1.25,-3.61239 -1.0181,-1.06892 -0.8588,-1.1946 0.8588,-0.67743 1.3194,0.39728 2.5818,0.065 3.3724,-0.8876 1.642,-1.97847 3.6439,-1.9417 4.4202,0.0812 0.3671,0.95669 1.2472,1.36132 2.1813,1.00288 0.8612,-0.33049 2.2396,0.0728 3.063,0.89624 1.7062,1.70618 3.3543,1.96306 3.3543,0.52281 0,-0.53588 1.2953,-1.64418 2.8785,-2.4629 2.6514,-1.37109 3.0188,-1.33365 4.655,0.47432 2.1097,2.33116 5.0224,2.5625 5.8281,0.4629 0.3166,-0.825 1.5422,-1.5 2.7236,-1.5 1.6318,0 2.0264,0.46514 1.6419,1.93531 -0.6711,2.56644 1.8743,6.06469 4.4129,6.06469 2.561,0 1.9676,-2.16705 -0.9547,-3.48713 -1.202,-0.54293 -2.1854,-1.27418 -2.1854,-1.62501 0,-1.70367 12.8564,-2.53908 15.8157,-1.0277 0.9264,0.47309 4.8251,0.5205 8.664,0.10536 6.2162,-0.67226 7.1247,-0.5476 8.3067,1.13983 0.7298,1.04205 1.7515,1.89464 2.2703,1.89464 1.618,0 1.0317,-2.84916 -0.8067,-3.9199 -1.5607,-0.90901 -1.5051,-1.02257 0.5136,-1.04969 1.8823,-0.0253 3.6951,0.66296 7.1469,2.71346 0.2258,0.13413 -0.416,1.15726 -1.4263,2.27363 -1.464,1.61765 -1.584,2.27875 -0.591,3.25613 0.9871,0.97162 1.7408,0.65513 3.6284,-1.52363 1.3104,-1.5125 2.9891,-2.75 3.7304,-2.75 0.7414,0 1.7755,-0.39315 2.298,-0.87366 0.5225,-0.48051 2.8845,-1.11564 5.2489,-1.4114 3.5426,-0.44314 4.1009,-0.29911 3.1733,0.81861 -1.7588,2.11914 -0.778,5.92276 1.6153,6.26471 2.9479,0.42118 5.0774,-2.29214 3.3924,-4.32243 -0.6957,-0.83829 -1.0883,-1.64069 -0.8724,-1.78312 3.3558,-2.21403 6.058,-2.92721 7.109,-1.87625 0.9014,0.9014 0.7215,1.51295 -0.7702,2.61868 -1.8132,1.34395 -1.8329,1.55772 -0.289,3.12536 1.5328,1.5563 1.8313,1.56089 3.9725,0.0611 1.2734,-0.89188 3.5427,-1.62161 5.043,-1.62161 1.5282,0 3.1464,-0.74803 3.6797,-1.70096 1.0796,-1.92914 7.3486,-2.20693 9.5006,-0.42098 0.9272,0.76955 1.6189,0.74995 2.4379,-0.0691 0.8579,-0.8579 1.3144,-0.66467 1.8282,0.77379 0.9196,2.5747 3.4361,5.41903 4.7858,5.40942 0.6022,-0.004 1.6166,-1.1324 2.2542,-2.50691 0.9853,-2.12428 0.8721,-2.70021 -0.7551,-3.83988 -1.7901,-1.25387 -1.7238,-1.34618 1.0235,-1.42429 2.1322,-0.0606 2.9275,0.37745 2.9002,1.59768 -0.021,0.92466 0.2214,6.49553 0.5379,12.37971 0.4406,8.19424 0.2311,11.52232 -0.8952,14.21789 -1.6621,3.97803 -1.9948,13.58364 -0.4705,13.58364 0.55,0 1.0077,-1.6875 1.0171,-3.75 0.01,-2.0625 0.9018,-7.125 1.9829,-11.25 1.0812,-4.125 1.976,-9.3 1.9884,-11.5 0.013,-2.2 0.4164,-5.575 0.8976,-7.5 0.4812,-1.925 1.632,-8.225 2.5574,-14 0.9254,-5.775 2.2899,-13.65 3.0322,-17.5 0.7423,-3.85 2.5332,-13.525 3.9799,-21.5 9.2235,-50.84479 21.9633,-102.74033 35.2277,-143.5 17.4533,-53.631131 40.1897,-94.729431 61.0923,-110.429801 l 6.7245,-5.05097 21.1845,-0.0096 21.1845,-0.0096 7.6184,6.054117 c 29.2408,23.236578 55.8188,82.017237 77.5555,171.524014 9.4962,39.10322 11.2917,49.36423 11.3602,64.92187 0.055,12.37067 -0.2064,14.6688 -2.2413,19.74666 -1.283,3.20136 -4.4467,8.09225 -7.143,11.04243 -13.3724,14.63152 -27.569,16.70915 -114.2062,16.71373 -32.7329,0.002 -56.7868,0.42856 -62.3126,1.10572 -32.7635,4.01501 -50.4006,16.61041 -61.2064,43.70997 -10.7321,26.915 -11.7369,33.20788 -16.3153,102.18149 -3.4859,52.51545 -5.1842,69.98907 -8.8588,91.14501 -1.6419,9.45335 -7.0057,24.00673 -11.2621,30.5572 -7.2379,11.13903 -16.0878,17.4279 -32.2825,22.94051 l -6.9252,2.35725 -92.0748,-0.0631 -92.0749,-0.0631 z m 119.5,-263.5447 c 0,-2.36851 -0.6335,-2.5093 -2.5714,-0.57143 -1.9379,1.93788 -1.7971,2.57143 0.5714,2.57143 1.3333,0 2,-0.66667 2,-2 z m -126.0153,-3.25 c 0.01,-0.4125 -0.4347,-0.75 -0.9847,-0.75 -0.55,0 -0.9931,1.0125 -0.9847,2.25 0.012,1.81944 0.2008,1.96296 0.9847,0.75 0.5332,-0.825 0.9763,-1.8375 0.9847,-2.25 z m 62.0153,2.25 c 0,-0.55 -0.45,-1 -1,-1 -0.55,0 -1,0.45 -1,1 0,0.55 0.45,1 1,1 0.55,0 1,-0.45 1,-1 z m 174,0 c 0,-0.55 -0.45,-1 -1,-1 -0.55,0 -1,0.45 -1,1 0,0.55 0.45,1 1,1 0.55,0 1,-0.45 1,-1 z m -212,-5.60699 c 0,-0.21615 -0.675,-0.39301 -1.5,-0.39301 -0.825,0 -1.5,0.43588 -1.5,0.96862 0,0.53273 0.675,0.70959 1.5,0.39301 0.825,-0.31659 1.5,-0.75246 1.5,-0.96862 z m 46.329,-3.46404 c -1.5441,-1.54406 -6.829,-0.75008 -6.829,1.02595 0,2.05686 4.6556,3.07041 6.4571,1.40577 1.0478,-0.96817 1.1523,-1.6513 0.3719,-2.43172 z m 65.671,-0.58396 c 0,-1.84489 -1.0651,-1.64038 -3.9466,0.75774 -1.9904,1.65652 -2.1811,2.2003 -1.0228,2.91614 1.6168,0.99928 4.9694,-1.47926 4.9694,-3.67388 z m -84,1.15499 c 0,-1.83333 -0.5333,-2.5 -2,-2.5 -1.4667,0 -2,0.66667 -2,2.5 0,1.83333 0.5333,2.5 2,2.5 1.4667,0 2,-0.66667 2,-2.5 z m 122,1.32874 c 0,-1.66027 -3.0544,-4.82874 -4.655,-4.82874 -1.6691,0 -1.7652,3.17984 -0.145,4.8 1.5386,1.53863 4.8,1.55816 4.8,0.0287 z m 10.4573,-0.75964 c 0.7395,-1.1966 -1.1416,-2.38223 -2.4736,-1.55902 -1.1184,0.69118 -0.3842,2.48992 1.0163,2.48992 0.4851,0 1.1409,-0.41891 1.4573,-0.9309 z m 208.0423,273.18201 c -2.1998,-0.83934 -6.9246,-2.65268 -10.4996,-4.02964 -14.2664,-5.49494 -32.4522,-18.17952 -42.9638,-29.96733 -6.9894,-7.83786 -16.1892,-21.71359 -17.3023,-26.09619 -0.5732,-2.25701 -0.5247,-2.27862 1.3357,-0.59501 1.0617,0.96087 1.9304,2.20204 1.9304,2.75816 0,0.55612 0.6854,1.72387 1.523,2.59501 0.8376,0.87114 2.8368,3.30072 4.4425,5.39907 8.2708,10.80804 15.0345,16.28976 15.0345,12.18482 0,-0.825 0.8788,-1.5 1.953,-1.5 1.0741,0 3.1029,-0.52398 4.5085,-1.16441 2.0057,-0.91388 3.1017,-0.87212 5.0939,0.19408 1.9985,1.06956 3.4253,1.12175 6.7086,0.2454 2.7886,-0.74433 4.78,-0.78668 6.0111,-0.12784 1.0125,0.54189 5.5274,1.10946 10.0329,1.26128 4.5056,0.15181 8.9486,0.6083 9.8734,1.01442 1.0808,0.47464 2.7572,-0.0569 4.693,-1.48819 2.752,-2.03464 3.3842,-2.12225 7.3343,-1.01631 3.0144,0.84399 5.119,0.90747 6.9541,0.20976 1.4474,-0.55028 2.9235,-0.70856 3.2803,-0.35173 0.6347,0.63469 14.1176,1.4323 22.0569,1.30483 2.2,-0.0353 18.5313,-0.076 36.2919,-0.0904 22.9146,-0.0186 32.8369,-0.36659 34.1688,-1.19837 2.1127,-1.31939 5.0393,0.32414 5.0393,2.82995 0,2.63657 5.8962,0.84971 8.6483,-2.62087 0.6535,-0.82413 1.4941,-1.19247 1.8681,-0.81853 1.8843,1.88433 -14.9731,18.94303 -25.8615,26.17037 -6.117,4.06025 -19.9987,10.97674 -25.3893,12.65013 -2.0711,0.64292 -5.1156,1.74669 -6.7656,2.45282 -4.7366,2.02707 -64.6099,1.85151 -70.0004,-0.20525 z m -72.7704,-63.85528 c -0.4011,-0.40104 -0.7292,-1.41916 -0.7292,-2.2625 0,-1.12559 0.2958,-1.2375 1.1125,-0.42083 0.6119,0.61188 0.94,1.63 0.7292,2.2625 -0.2109,0.6325 -0.7115,0.82187 -1.1125,0.42083 z M 1553.6148,268.699 c 0.01,-0.99496 0.4515,-2.48402 0.9847,-3.30902 0.7582,-1.17323 0.9727,-0.91378 0.9847,1.19098 0.01,1.48004 -0.4347,2.9691 -0.9847,3.30902 -0.55,0.33992 -0.9931,-0.19602 -0.9847,-1.19098 z"
       id="path5" />
    <path
       style="fill:#2b68e0"
       d="m 1562.5995,583.25647 c -27.4313,-3.15963 -48.0182,-20.90566 -53.061,-45.73887 -2.513,-12.37577 -3.2264,-24.35235 -2.0326,-34.12762 0.5709,-4.675 1.7345,-16.15 2.5859,-25.5 0.8513,-9.35 1.9889,-18.03367 2.5278,-19.29705 0.539,-1.26338 0.9799,-5.10634 0.9799,-8.5399 0,-3.43357 0.6103,-8.6999 1.3563,-11.70295 1.571,-6.32417 3.5226,-17.68445 4.0304,-23.4601 0.1934,-2.2 0.2269,0.275 0.074,5.5 -0.4393,15.0595 -2.3739,37.28538 -3.4641,39.79705 -1.0974,2.52833 -1.3923,26.4743 -0.339,27.52761 1.1256,1.12566 3.342,-1.45283 3.342,-3.88809 0,-1.27519 0.45,-2.59665 1,-2.93657 0.55,-0.33992 1,-0.0842 1,0.56821 0,0.82089 1.54,1.03828 5,0.70581 2.75,-0.26424 5,-0.0965 5,0.37277 0,0.46927 1.485,0.85321 3.3,0.85321 1.815,0 3.84,0.54 4.5,1.2 0.7898,0.78979 1.2,0.82966 1.2,0.11663 0,-0.59585 0.9,-1.31872 2,-1.60638 1.2692,-0.3319 2,-0.0307 2,0.82435 0,2.00645 1.893,2.79904 3.5,1.4654 0.7768,-0.6447 1.9516,-0.83891 2.6107,-0.43158 0.7308,0.45169 0.9366,0.31718 0.5275,-0.34481 -0.369,-0.59698 -0.2135,-1.36807 0.3455,-1.71353 0.5589,-0.34546 1.0163,-0.15156 1.0163,0.4309 0,0.58246 0.9,1.05902 2,1.05902 1.1,0 2,-0.58024 2,-1.28942 0,-1.71954 5.1939,-1.60066 6.5676,0.15032 0.8965,1.1427 1.3009,1.12777 2.5218,-0.0932 0.9419,-0.94194 2.1508,-1.18185 3.4323,-0.68118 3.1983,1.24953 4.4783,1.0247 4.4783,-0.78652 0,-1.32222 0.2667,-1.43333 1.2,-0.5 0.66,0.66 2.1825,1.2 3.3834,1.2 1.3949,0 2.4303,0.81251 2.8673,2.25 0.4143,1.36311 0.8873,1.75728 1.1999,1 0.2839,-0.6875 0.9883,-1.25 1.5654,-1.25 0.5772,0 1.8493,-0.92232 2.827,-2.04961 1.0995,-1.26765 2.0251,-1.64917 2.4263,-1 0.3568,0.57729 1.7472,1.04961 3.0897,1.04961 1.4587,0 2.441,0.57989 2.441,1.44098 0,2.52365 2.0747,2.83746 4.3885,0.66379 2.8097,-2.63955 3.6732,-2.6307 7.1102,0.0729 2.6544,2.08796 2.8232,2.10271 4.0988,0.35819 0.7317,-1.00069 1.5373,-2.31812 1.7903,-2.92762 0.3024,-0.72869 0.7429,-0.76574 1.2861,-0.10819 0.4543,0.55 1.8433,1.86151 3.0866,2.91447 2.231,1.88954 2.2896,1.88774 4.5,-0.13872 2.1168,-1.94074 9.7395,-3.65599 9.7395,-2.19158 0,1.22646 4.0233,1.76953 6.9312,0.93557 2.1014,-0.60269 3.2634,-0.39653 4.4494,0.78941 1.2537,1.25372 1.8694,1.34085 2.8123,0.39799 0.6639,-0.66398 2.4671,-1.20719 4.0071,-1.20719 1.9161,0 2.8,-0.51215 2.8,-1.62244 0,-1.3071 0.283,-1.38755 1.4562,-0.41391 0.8009,0.66469 1.9221,0.92056 2.4916,0.5686 0.5695,-0.35196 2.1097,0.4343 3.4226,1.74725 1.313,1.31294 3.0042,2.4465 3.7584,2.51901 6.145,0.59087 22.6575,0.66473 22.3083,0.0998 -0.2419,-0.39147 0.3483,-0.51993 1.3115,-0.28545 1.1292,0.27486 2.5204,-0.68753 3.9159,-2.70887 l 2.1646,-3.1352 1.6111,3.11562 c 1.6927,3.27324 2.5433,3.72405 4.1098,2.17799 0.5225,-0.51569 3.3209,-1.14253 6.2186,-1.39297 2.8977,-0.25044 5.9352,-1.00861 6.75,-1.68482 1.0318,-0.85631 1.4814,-0.8888 1.4814,-0.10703 0,0.61734 0.9,1.12244 2,1.12244 1.1,0 2,-0.4 2,-0.88889 0,-1.23433 3.2378,-0.85813 4.7324,0.54987 1.2046,1.13475 5.2669,0.72791 5.2683,-0.52761 4e-4,-0.34835 1.1254,-0.69827 2.5,-0.77758 1.8258,-0.10535 2.4993,0.35951 2.4993,1.725 0,1.56851 0.5228,1.77014 3.25,1.25336 1.7875,-0.33872 4.0079,-1.00247 4.9343,-1.475 0.9263,-0.47253 3.0638,-0.85915 4.75,-0.85915 1.7689,0 3.0792,-0.52874 3.0975,-1.25 0.018,-0.71886 0.6397,-0.44696 1.4626,0.63992 1.2661,1.67242 2.0104,1.77529 6.4682,0.89388 2.7706,-0.54781 5.0374,-0.61077 5.0374,-0.13991 0,0.47086 0.923,0.85611 2.051,0.85611 1.4079,0 2.5205,1.12352 3.548,3.58265 1.2265,2.93558 1.7554,3.36814 2.9279,2.39499 1.0625,-0.88174 1.167,-1.68108 0.4058,-3.10331 -1.2651,-2.36397 -0.4362,-3.87435 2.1263,-3.87435 1.1692,0 1.9542,-0.69583 1.9743,-1.75 0.03,-1.57337 0.2065,-1.54811 1.75,0.25032 2.527,2.94445 7.3372,4.92279 8.276,3.40377 0.458,-0.74106 2.0247,-0.98987 4.1061,-0.65209 2.4463,0.39697 4.0259,0.0115 5.7829,-1.41124 2.2184,-1.79633 2.4843,-2.96065 3.2311,-14.14908 0.7862,-11.77986 2.1239,-24.24078 3.8316,-35.69168 0.4511,-3.025 0.8898,-9.55 0.9749,-14.5 0.085,-4.95 0.5007,-9.88517 0.9236,-10.96704 1.6282,-4.16525 1.9372,6.98552 0.5378,19.41035 -0.7778,6.90618 -1.6574,21.10669 -1.9546,31.55669 -0.2972,10.45 -0.9696,22.6 -1.4942,27 -0.5247,4.4 -1.4425,12.95 -2.0398,19 -1.2502,12.66344 -3.174,23.60491 -6.154,35 -4.9759,19.02727 -13.91,30.68733 -29.2321,38.15118 -4.9101,2.39185 -9.7772,4.34882 -10.8158,4.34882 -1.0385,0 -2.8003,0.48812 -3.9151,1.08472 -2.2325,1.19482 -173.9173,1.92489 -183.8417,0.78177 z m -33.5,-98.08954 c 0.55,-0.41048 -0.2926,-0.75322 -1.8724,-0.76164 -2.4608,-0.0131 -2.6912,0.20312 -1.6075,1.50886 0.6957,0.83829 1.5383,1.18102 1.8724,0.76163 0.3341,-0.41939 1.0575,-1.09838 1.6075,-1.50885 z m 31.2708,0.41055 c 0.2199,-0.65946 -0.5166,-1.1875 -1.6561,-1.1875 -1.4381,0 -1.8749,0.46137 -1.4601,1.54226 0.655,1.70679 2.499,1.49685 3.1162,-0.35476 z m 388.4982,97.11951 c 0.973,-0.25354 2.323,-0.23687 3,0.0371 0.6771,0.27393 -0.119,0.48137 -1.769,0.46099 -1.65,-0.0204 -2.2039,-0.2445 -1.231,-0.49804 z m 46.481,0.0307 c 0.6875,-0.27741 1.8125,-0.27741 2.5,0 0.6875,0.27741 0.125,0.50439 -1.25,0.50439 -1.375,0 -1.9375,-0.22698 -1.25,-0.50439 z m 15.3932,-3.22803 c -1.6935,-1.07309 -0.7195,-1.65242 4.3057,-2.56098 2.1719,-0.39269 4.8596,-1.35179 5.9725,-2.13134 1.113,-0.77955 2.7684,-1.41737 3.6787,-1.41737 0.9102,0 2.1739,-0.62517 2.808,-1.38926 1.225,-1.47603 6.0919,-2.79898 6.0919,-1.65594 0,0.60745 -3.1182,2.15342 -16.5657,8.21311 -4.6671,2.10307 -4.4982,2.07778 -6.2911,0.94178 z m -81.6707,-1.46364 c -1.0849,-0.74466 -3.3225,-1.83413 -4.9725,-2.42104 -2.8507,-1.01401 -2.8756,-1.06945 -0.5,-1.11425 1.375,-0.0259 3.3735,0.61355 4.4411,1.42105 1.0677,0.80751 3.1786,1.4682 4.691,1.4682 1.5124,0 3.028,0.45 3.3679,1 0.9284,1.50212 -4.7393,1.21666 -7.0275,-0.35395 z m -13.0314,-6.11425 c -1.6307,-1.23344 -1.6809,-1.47328 -0.3135,-1.5 0.8951,-0.0175 2.1877,0.6432 2.8724,1.4682 1.5956,1.92255 -0.032,1.94278 -2.5589,0.0318 z m 118.5589,-3.53179 c 0,-0.55 1.0125,-0.99311 2.25,-0.98469 1.8194,0.0124 1.963,0.20082 0.75,0.98469 -1.9388,1.25292 -3,1.25292 -3,0 z m -130.5,-4 c -0.3399,-0.55 -0.168,-1 0.382,-1 0.55,0 1.2781,0.45 1.618,1 0.3399,0.55 0.168,1 -0.382,1 -0.55,0 -1.2781,-0.45 -1.618,-1 z m -233.5091,-81.48899 c 0.6796,-0.81894 1.6544,-1.2302 2.1662,-0.91391 0.5118,0.31629 1.5858,0.0312 2.3867,-0.63345 1.1732,-0.97364 1.4562,-0.89319 1.4562,0.41391 0,1.86612 1.1226,2.09981 2.6672,0.55522 0.7563,-0.75629 1.2425,-0.61062 1.6686,0.5 0.5055,1.31725 -0.3701,1.56722 -5.4896,1.56722 -5.2809,0 -5.9267,-0.19805 -4.8553,-1.48899 z m -148.9119,-83.96101 c -0.058,-2.89963 0.2168,-3.65417 1.0335,-2.8375 0.7895,0.78947 0.8124,1.9364 0.079,3.95 -1.0221,2.80599 -1.0344,2.79364 -1.1125,-1.1125 z m 286.921,-41.86854 c 0,-1.34011 0.5955,-2.93076 1.3233,-3.53477 1.0594,-0.87925 1.2358,-0.50249 0.8847,1.8898 -0.5451,3.71392 -2.208,4.9528 -2.208,1.64497 z m 2.7093,-6.34287 c -0.6138,-0.99308 0.7374,-13.63426 1.6078,-15.04267 0.2915,-0.4717 1.6925,-9.16875 3.1132,-19.32678 8.7353,-62.45734 19.7273,-117.70401 33.1846,-166.78816 19.895,-72.564577 45.828,-125.082886 71.1606,-144.110781 l 6.7245,-5.05097 21.1845,-0.0096 21.1845,-0.0096 7.6184,6.054117 c 28.0098,22.258315 54.1875,78.425037 74.5463,159.945854 9.5866,38.38687 13.4128,57.29684 14.4672,71.5 1.9026,25.62802 -8.058,41.54376 -29.7182,47.48616 -12.6159,3.46112 -26.2389,4.18659 -93.7827,4.99424 -56.2116,0.67215 -66.5598,1.02512 -72.9733,2.48908 -10.3878,2.37114 -15.6392,4.21729 -22.0267,7.74365 -13.5181,7.46291 -22.1125,18.18013 -29.5867,36.89442 -5.1783,12.9659 -5.9395,14.4681 -6.704,13.23104 z"
       id="path4" />
    <path
       style="fill:#1b46b3"
       d="m 1813.6604,342.25045 c -0.034,-1.45174 0.5981,-6.17674 1.4036,-10.5 0.8055,-4.32326 2.6182,-15.96047 4.0283,-25.86047 4.7944,-33.66243 12.3539,-77.47575 16.9948,-98.5 24.7798,-112.255357 52.6441,-178.013619 85.8724,-202.654445 l 5.86,-4.345552 h 20.4486 20.4487 l 4.1913,3.215005 c 18.5209,14.206536 33.2935,35.853323 48.6475,71.284995 11.017,25.423367 23.9026,67.451607 33.4187,108.999997 8.8473,38.62816 9.913,45.59488 9.408,61.5 -0.3802,11.97008 -0.7247,14.1233 -3.0401,19 -2.9539,6.22125 -5.6744,9.54825 -10.7427,13.13773 -7.154,5.06656 -19,8.70611 -19,5.83752 0,-1.26709 4.3105,-2.97525 7.5079,-2.97525 5.3179,0 14.0967,-7.23685 19.0669,-15.71786 2.5483,-4.34826 2.6401,-5.03969 2.5442,-19.14665 -0.068,-10.07458 -0.5913,-16.34947 -1.6775,-20.13549 -0.8679,-3.025 -2.0485,-8.425 -2.6235,-12 -1.1716,-7.28446 -1.7602,-8.34314 -4.1325,-7.43282 -1.2535,0.48101 -1.4135,1.07261 -0.6672,2.46704 1.4384,2.68762 1.2322,3.14046 -1.2683,2.78533 -1.611,-0.2288 -2.3399,-1.10054 -2.5664,-3.06955 -0.3273,-2.84422 -2.1836,-3.90688 -2.1836,-1.25 0,1.82722 -1.1428,1.92417 -2.9472,0.25 -1.0954,-1.01642 -1.241,-0.94635 -0.7793,0.375 0.4224,1.20885 -0.052,1.625 -1.8528,1.625 -1.8814,0 -2.4207,-0.52909 -2.4207,-2.375 0,-1.30625 0.45,-2.375 1,-2.375 0.55,0 1,-0.45 1,-1 0,-1.48524 -2.9325,-1.21031 -4.5714,0.42857 -0.7857,0.78572 -1.4286,2.05109 -1.4286,2.81194 0,1.57401 -4.7193,5.32206 -8.5212,6.76756 -2.0167,0.76675 -2.6778,0.63702 -3.1602,-0.62018 -0.3355,-0.87436 -0.049,-1.93656 0.637,-2.36045 0.8008,-0.49493 0.1684,-0.92902 -1.7675,-1.21315 -2.1272,-0.3122 -3.3995,0.0916 -4.3221,1.37164 -0.8413,1.16728 -2.5763,1.81407 -4.866,1.81407 -2.4113,0 -4.0232,0.64475 -5,2 -0.7928,1.1 -2.4993,2 -3.7922,2 -2.3615,0 -5.2078,2.0632 -5.2078,3.77493 0,1.28933 -2.9617,7.08335 -3.9251,7.67877 -0.4391,0.27141 -2.2107,0.60108 -3.9368,0.7326 -1.9934,0.15189 -3.3453,0.89118 -3.7056,2.02642 -0.7077,2.22979 -4.4325,2.38819 -4.4325,0.18849 0,-0.87933 1.35,-2.85988 3,-4.40121 1.65,-1.54133 3,-3.07188 3,-3.40121 0,-0.32933 -1.7007,-0.59879 -3.7792,-0.59879 -2.6321,0 -4.2168,0.60709 -5.2208,2 -0.7928,1.1 -2.2384,2 -3.2123,2 -0.9739,0 -2.3328,0.9 -3.0198,2 -0.8667,1.38791 -2.332,2 -4.7877,2 -2.3915,0 -4.006,0.64836 -4.9802,2 -0.7928,1.1 -2.2422,2 -3.2208,2 -0.9785,0 -1.7792,0.40777 -1.7792,0.90616 0,0.49839 -2.25,1.21562 -5,1.59384 -5.4889,0.75492 -6.1193,1.79467 -2.8218,4.65453 1.6577,1.43772 1.8998,2.16748 1.0132,3.05405 -0.8866,0.88658 -1.7787,0.5883 -3.7337,-1.2483 -1.6114,-1.51387 -2.3406,-1.81879 -1.9567,-0.81818 0.4169,1.08635 -0.076,1.77497 -1.5451,2.15917 -1.2795,0.33462 -1.872,1.02538 -1.4564,1.69796 0.3854,0.62361 -0.1318,1.76459 -1.1494,2.5355 -2.1669,1.64166 -3.7354,1.89771 -2.8501,0.46527 0.3415,-0.55249 -0.38,-1 -1.6122,-1 -1.2267,0 -3.0439,-0.73625 -4.0382,-1.63612 -1.681,-1.52131 -1.851,-1.50377 -2.4225,0.25 -1.8066,5.54432 -2.7953,7.38612 -3.9651,7.38612 -0.7124,0 -1.4786,0.54971 -1.7025,1.22157 -0.2445,0.7333 -2.3762,1.23865 -5.3334,1.26431 -4.7215,0.041 -4.9185,0.15493 -4.7426,2.74383 0.2405,3.53887 -4.5468,8.77029 -8.0257,8.77029 -3.0428,0 -4.2606,1.56871 -2.6884,3.46308 0.8835,1.06456 0.7334,1.61289 -0.6639,2.42579 -0.993,0.57767 -1.4129,1.064 -0.9331,1.08072 0.4799,0.0167 0.3123,0.70541 -0.3724,1.53041 -0.6847,0.825 -0.8523,1.53458 -0.3724,1.57685 0.4798,0.0423 -0.8762,0.60477 -3.0134,1.25 -2.1372,0.64523 -3.9372,1.62315 -4,2.17315 -0.2052,1.79733 15.9881,2.3665 75.5586,2.65577 32.2701,0.1567 58.4968,0.56988 58.2815,0.91817 -0.8761,1.41751 -19.9651,2.12484 -78.9543,2.9256 -63.9845,0.86857 -72.7335,1.43008 -87.2748,5.6013 -17.9452,5.14763 -32.6815,17.69116 -40.2853,34.29067 -7.1731,15.65938 -7.8139,16.79553 -7.879,13.96896 z m 109.9391,-90.86047 c 0,-0.55 0.9,-1 2,-1 1.1,0 2,-0.45 2,-1 0,-1.48524 -2.9325,-1.21031 -4.5714,0.42857 -1.6754,1.67533 -1.8247,2.57143 -0.4286,2.57143 0.55,0 1,-0.45 1,-1 z m 14,-7.33333 c 0,-3.12879 -0.9344,-3.87509 -2.6739,-2.1356 -1.1851,1.18505 -1.2079,1.69408 -0.131,2.91435 1.8871,2.13815 2.8049,1.88333 2.8049,-0.77875 z m 56.1544,-24.91232 c -0.561,-0.56095 -1.8377,-0.68686 -2.8372,-0.2798 -1.7106,0.69671 -1.6999,0.78514 0.1828,1.50765 2.4288,0.9321 4.0598,0.17762 2.6544,-1.22785 z m 36.1877,-10.20342 c 0.3716,-0.96852 0.075,-1.26467 -0.893,-0.89301 -1.7556,0.67369 -1.9052,-0.80186 -0.2491,-2.45792 0.9333,-0.93333 0.8153,-1.2 -0.5314,-1.2 -1.9806,0 -3.1548,2.29051 -2.307,4.5 0.7343,1.91344 3.2534,1.94568 3.9805,0.0509 z m -72.3421,32.44907 c 0,-0.55 0.45,-1 1,-1 0.55,0 1,0.45 1,1 0,0.55 -0.45,1 -1,1 -0.55,0 -1,-0.45 -1,-1 z m 16,-7 c 0,-1.61905 0.6667,-2 3.5,-2 1.925,0 3.5,0.45 3.5,1 0,0.55 -0.4766,1 -1.059,1 -0.5825,0 -0.7809,0.45 -0.441,1 0.3606,0.58342 -0.6563,1 -2.441,1 -2.3923,0 -3.059,-0.43587 -3.059,-2 z m 32,-14 c 0,-1.47407 0.6667,-2 2.5352,-2 2.2253,0 2.4043,0.24446 1.4648,2 -0.5887,1.1 -1.7295,2 -2.5352,2 -0.8056,0 -1.4648,-0.9 -1.4648,-2 z"
       id="path3" />
    <path
       style="fill:#15399e"
       d="m 1816.0957,333.13998 c 0.3602,-1.7875 1.2711,-5.95 2.0241,-9.25 0.753,-3.3 1.6333,-8.475 1.9563,-11.5 0.5479,-5.13246 0.9504,-7.92209 3.4989,-24.25 0.5366,-3.4375 1.6682,-10.75 2.5147,-16.25 0.8466,-5.5 2.4514,-15.4 3.5663,-22 1.1149,-6.6 2.1745,-12.9 2.3546,-14 2.5628,-15.64984 9.8551,-48.66501 17.2285,-78 19.4803,-77.502011 47.4383,-135.4182 73.8258,-152.933218 l 5.3735,-3.566779 h 20.0892 20.0892 l 3.9582,2.867286 c 9.3258,6.755592 18.9091,17.254497 26.5955,29.136455 7.7226,11.937809 23.9757,45.869364 25.9883,54.255709 0.3643,1.5177 1.0624,3.00675 1.5515,3.30902 0.4891,0.30226 0.8892,1.64964 0.8892,2.99417 0,1.34454 0.9,4.12381 2,6.176177 2.1531,4.01721 2.6051,7.26118 1.0118,7.26118 -0.5435,0 -1.2746,-1.7915 -1.6248,-3.98112 -0.3501,-2.18962 -1.2554,-4.494717 -2.0118,-5.122447 -0.7564,-0.62772 -1.3752,-2.64539 -1.3752,-4.48369 0,-2.31892 -0.6124,-3.67013 -2,-4.41274 -1.1,-0.5887 -2.003,-2.06703 -2.0066,-3.28518 0,-1.21815 -0.9006,-3.56482 -1.9934,-5.21482 -1.0927,-1.65 -1.9898,-3.805722 -1.9934,-4.790493 0,-0.98477 -0.8121,-3.00977 -1.7967,-4.5 -2.6323,-3.98442 -3.7834,-6.040717 -7.2025,-12.86723 -1.6962,-3.386748 -3.7418,-6.410125 -4.5457,-6.718615 -0.8039,-0.308491 -1.4617,-1.448458 -1.4617,-2.53326 0,-2.775399 -2.0611,-3.72726 -3.5783,-1.652481 -0.8644,1.182172 -1.9549,1.527613 -3.3873,1.072985 -1.8903,-0.599944 -2.0487,-0.372758 -1.5053,2.159303 0.5242,2.44335 0.4272,2.61215 -0.711,1.236075 -1.6908,-2.0443 -10.8181,-3.217421 -10.8181,-1.390436 0,1.097548 -2.0598,2.484152 -3.6902,2.484152 -0.2896,0 -0.2507,-1.099432 0.087,-2.443183 0.5976,-2.381055 0.5431,-2.406641 -2.1416,-1.006161 -1.5151,0.790363 -4.1691,1.439795 -5.8978,1.443183 -3.0787,0.006 -5.0297,2.108579 -3.8012,4.096403 0.3092,0.500367 0.086,0.909758 -0.4968,0.909758 -0.5824,0 -1.059,-0.45 -1.059,-1 0,-0.55 -1.8,-1 -4,-1 -2.2,0 -4.0562,0.45 -4.125,1 -0.069,0.55 -0.1909,1.5625 -0.2714,2.25 -0.085,0.729938 -1.2504,1.135141 -2.7999,0.973928 -1.4594,-0.151839 -2.9388,0.185661 -3.2876,0.75 -0.3488,0.56434 -1.6201,1.036709 -2.8251,1.04971 -1.3778,0.01486 -3.2828,1.49945 -5.1328,4 -1.8445,2.493147 -3.745,3.976362 -5.095,3.976362 -1.1843,0 -2.9677,0.9 -3.9632,2 -0.9955,1.1 -2.2318,2 -2.7473,2 -1.471,0 -5.7545,3.664828 -5.0763,4.343079 1.0488,1.048813 -1.599,3.391443 -4.4859,3.968816 -1.8524,0.370495 -4.3192,2.554835 -7.4765,6.620515 -2.5915,3.33717 -5.1136,6.06759 -5.6045,6.06759 -0.491,0 -1.1511,1.0125 -1.467,2.25 -0.3159,1.2375 -2.6147,4.371127 -5.1084,6.963627 -2.4938,2.5925 -4.5341,5.37234 -4.5341,6.17742 0,0.80509 -1.2078,2.41385 -2.684,3.57503 -3.8647,3.04001 -7.9643,9.31783 -6.4207,9.83235 0.7699,0.25665 0.1467,1.40132 -1.6639,3.05596 -3.1476,2.87641 -4.512,5.4417 -4.6856,8.80947 -0.061,1.19013 -1.0777,2.99013 -2.2587,4 -3.3219,2.84062 -7.2871,9.35707 -7.2871,11.97569 0,1.29825 -0.4315,2.36045 -0.9589,2.36045 -0.5274,0 -1.758,2.25 -2.7347,5 -0.9767,2.75 -2.1202,5 -2.5411,5 -0.4209,0 -0.7653,1.02487 -0.7653,2.27749 0,1.25263 -0.6749,3.24106 -1.4998,4.41875 -0.8249,1.17769 -1.249,2.79475 -0.9425,3.59347 0.3065,0.79871 -0.1436,1.72115 -1.0002,2.04986 -0.8566,0.32871 -1.5575,1.21765 -1.5575,1.97541 0,1.29188 -1.8984,5.91281 -4.0982,9.9757 -0.5332,0.98487 -0.6977,2.23058 -0.3654,2.76823 0.3323,0.53766 -0.3261,2.4828 -1.4631,4.32252 -3.1032,5.02113 -9.6234,25.57349 -9.1735,28.91587 0.1331,0.98851 -0.6899,3.37673 -1.8289,5.30716 -1.139,1.93042 -2.0709,5.26033 -2.0709,7.39979 0,2.22875 -1.0676,5.89782 -2.5,8.59177 -1.375,2.58602 -2.5,6.19411 -2.5,8.01797 0,1.82386 -0.6263,5.24434 -1.3918,7.60106 -1.4118,4.34656 -3.8688,20.48385 -3.7233,24.45499 0.044,1.19352 -0.5848,3.44352 -1.3966,5 -0.8118,1.55648 -1.4787,5.33145 -1.4821,8.38883 0,3.33085 -0.5947,6.33689 -1.4744,7.5 -1.6087,2.12694 -2.0271,5.44113 -0.6868,5.44113 0.4648,0 1.6653,-0.90635 2.6678,-2.01412 2.6794,-2.96076 12.0626,-8.98588 13.9941,-8.98588 0.9838,0 -0.7659,2.03367 -4.2651,4.9576 -8.0331,6.71228 -13.535,14.12805 -19.1357,25.7924 -3.3105,6.89456 -4.6131,7.97707 -3.6099,3 z m 31.3163,-36.43311 c 0.7219,-0.28887 1.5844,-0.25335 1.9167,0.0789 0.3323,0.33229 -0.2584,0.56864 -1.3125,0.52522 -1.165,-0.048 -1.4019,-0.28494 -0.6042,-0.60416 z m 186.3454,-181.31689 c 0,-1.375 0.227,-1.9375 0.5044,-1.25 0.2774,0.6875 0.2774,1.8125 0,2.5 -0.2774,0.6875 -0.5044,0.125 -0.5044,-1.25 z"
       id="path2" />
  </g>
</svg>
