<?xml version="1.0" encoding="utf-8"?>
<!-- Generator: Adobe Illustrator 25.0.0, SVG Export Plug-In . SVG Version: 6.00 Build 0)  -->
<svg version="1.1" xmlns="http://www.w3.org/2000/svg" x="0px" y="0px"
	 viewBox="0 0 1000 370.3" style="enable-background:new 0 0 1000 370.3;" xml:space="preserve">
<style type="text/css">
	.st0{fill:#00204D;}
</style>
<g>
	<path class="st0" d="M172.5,106.5h25l65.7,157.4h-24.1l-11.3-28.7h-85.4l-11.6,28.7h-24.1L172.5,106.5z M219.9,215.5l-7.4-18.1
		h-55.1l-7.2,18.1H219.9z M205.3,178.9l-4.2-10.2c-6.7-16.7-12.5-30.6-16.2-41c-3.5,10.4-9.3,24.3-16,41l-4.2,10.2H205.3z
		 M265.1,202.7c0-37.7,27.8-63.4,63.7-63.4c30.8,0,54.2,17.6,59.5,47.9h-23.8c-5.3-18.7-18.1-27.1-36.1-27.1
		c-25.2,0-39.6,18.5-39.6,42.6c0,25.2,15.3,42.6,39.8,42.6c17.8,0,31-9,36.1-25.2h23.8c-7.4,29.6-31,46.1-60.9,46.1
		C289.1,266.2,265.1,239.3,265.1,202.7z M406.2,141.6h21.3l0.9,15.5c7.6-10.9,19-17.8,33.3-17.8h2.1V165h-3.5
		c-24.3,0-31,13.9-31,35.6v63.2h-23.1V141.6z M467.6,202.7c0-37.5,28-63.4,64.1-63.4c37.5,0,64.1,27.3,64.1,63.4
		c0,36.6-27.1,63.4-64.1,63.4S467.6,239.3,467.6,202.7z M572.2,202.5c0-24.1-15.7-42.4-40.5-42.4c-25.2,0-40.3,18.5-40.3,42.4
		c0,25.5,16.9,42.8,40.5,42.8C555.8,245.3,572.2,227,572.2,202.5z M612.9,141.6h20.6l1.6,12.7c9.5-9.9,22.4-15,39.1-15
		c28.9,0,45.1,17.1,45.1,47.4v77.1h-23.1v-72.7c0-19.9-7.9-30.8-26.9-30.8c-20.6,0-33.3,13.2-33.3,33.1v70.4h-23.1V141.6z
		 M744.6,141.6h22.9v122.2h-22.9V141.6z M791.4,226.1h22.5c2.3,14.8,14.1,21.3,31.5,21.3c14.4,0,25.2-5.6,25.2-16.9
		c0-7.9-3.7-11.1-9.5-13.2c-5.6-2.1-11.3-3-22.9-4.9c-12-1.8-20.4-3.7-27.6-7.2c-11.1-5.3-15.5-15.3-15.5-26.4
		c0-25.9,20.4-39.6,46.5-39.6c28.5,0,47.4,13.2,48.8,39.8h-22c-1.4-14.1-12.5-21.1-26.8-21.1c-15.3,0-24.3,7.6-24.3,18
		c0,6.7,3.2,10.2,9.3,12.5c6,2.3,17.1,3.5,26.6,4.9c9,1.4,17.4,3,25,7.2c10.2,5.5,15,16.2,15,27.1c0,11.6-4.4,21.8-12.7,28.5
		c-8.8,7.2-20.4,10-35.2,10C815.5,266.2,793.7,255.1,791.4,226.1z"/>
</g>
</svg>
