<?xml version="1.0" encoding="UTF-8"?>
<svg id="Layer_1" data-name="Layer_1" xmlns="http://www.w3.org/2000/svg" viewBox="0 0 676.24 176.42">
  <defs>
    <style>
      .cls-1 {
        fill: #001e45;
      }
    </style>
  </defs>
  <g>
    <path class="cls-1" d="M419.67,46.35h1.81l8.99,20.91h-2.86l-2.51-5.85h-9.2l-2.51,5.85h-2.72l8.99-20.91Zm4.49,12.79l-3.66-8.61-3.66,8.61h7.32Z"/>
    <path class="cls-1" d="M432.5,61.16v-8.96h2.65v8.71c0,3.38,1.32,4.49,3.52,4.49s4.95-1.88,4.95-4.32v-8.89h2.65v15.05h-2.3l-.17-2.89c-1.12,1.81-3.35,3.31-5.85,3.31-4.01,0-5.44-2.79-5.44-6.52Z"/>
    <path class="cls-1" d="M449.6,66.14l.52-2.09c1.01,.63,2.96,1.57,5.12,1.57,1.88,0,3.35-.66,3.35-2.34,0-1.32-1.36-2.06-3.83-2.68-3.21-.8-4.67-2.51-4.67-4.46,0-2.37,1.81-4.39,5.51-4.39,2.51,0,4.67,1.25,4.67,1.25l-.52,2.02c-1.05-.7-2.65-1.22-4.15-1.22-2.06,0-3.07,.77-3.07,1.99,0,1.29,1.26,2.06,3.24,2.54,3.45,.84,5.26,2.4,5.26,4.39,0,3.17-2.4,4.98-5.85,4.98-3.24,0-5.58-1.57-5.58-1.57Z"/>
    <path class="cls-1" d="M466.29,54.01h-3.38v-1.81h3.38v-4.11h2.65v4.11h3.41v1.81h-3.41v13.24h-2.65v-13.24Z"/>
    <path class="cls-1" d="M475.12,52.2h2.3l.17,2.89c.98-1.85,3.31-3.31,5.85-3.31v2.86c-2.86-.52-5.68,1.12-5.68,3.66v8.96h-2.65v-15.05Z"/>
    <path class="cls-1" d="M485.1,59.73c0-4.39,3.03-7.95,7.18-7.95,2.47,0,4.67,1.22,5.92,3.14l.1-2.72h2.3v15.05h-2.3l-.1-2.72c-1.25,1.92-3.45,3.14-5.92,3.14-4.15,0-7.18-3.56-7.18-7.95Zm13.03,0c0-3.62-2.33-5.82-5.19-5.82s-5.19,2.2-5.19,5.82,2.33,5.82,5.19,5.82,5.19-2.2,5.19-5.82Z"/>
    <path class="cls-1" d="M505.01,46.35h2.65v20.91h-2.65v-20.91Z"/>
    <path class="cls-1" d="M512.01,46.35h2.65v2.89h-2.65v-2.89Zm0,5.85h2.65v15.05h-2.65v-15.05Z"/>
    <path class="cls-1" d="M518.23,59.73c0-4.39,3.03-7.95,7.18-7.95,2.47,0,4.67,1.22,5.92,3.14l.1-2.72h2.3v15.05h-2.3l-.1-2.72c-1.25,1.92-3.45,3.14-5.92,3.14-4.15,0-7.18-3.56-7.18-7.95Zm13.03,0c0-3.62-2.33-5.82-5.19-5.82s-5.19,2.2-5.19,5.82,2.33,5.82,5.19,5.82,5.19-2.2,5.19-5.82Z"/>
    <path class="cls-1" d="M538.15,52.2h2.3l.17,2.89c1.12-1.81,3.31-3.31,5.85-3.31,4.01,0,5.44,2.79,5.44,6.52v8.96h-2.65v-8.71c0-3.38-1.32-4.49-3.52-4.49s-4.95,1.88-4.95,4.32v8.89h-2.65v-15.05Z"/>
    <path class="cls-1" d="M411.59,88.28c0-6.76,5.23-10.91,11.26-10.91,2.86,0,5.61,.77,7.35,2.09v4.81c-1.67-1.43-3.9-2.44-6.41-2.44-3.52,0-6.2,2.27-6.2,6.45s2.68,6.45,6.2,6.45c2.51,0,4.74-1.01,6.41-2.44v4.81c-1.74,1.32-4.5,2.09-7.35,2.09-6.03,0-11.26-4.15-11.26-10.91Z"/>
    <path class="cls-1" d="M439.98,105.53h-5.16l3.24-7.63-5.99-14.22h5.19l3.41,8.75,3.41-8.75h5.05l-9.17,21.85Z"/>
    <path class="cls-1" d="M461.59,99.15c-1.74,0-4.01-.73-5.3-2.54l-.14,2.13h-4.98v-20.91h5.4v7.63c1.32-1.57,3.31-2.2,5.02-2.2,4.04,0,6.97,3.31,6.97,7.95s-2.93,7.95-6.97,7.95Zm-1.81-12.06c-1.92,0-3.38,1.5-3.38,4.11s1.46,4.11,3.38,4.11,3.38-1.5,3.38-4.11-1.46-4.11-3.38-4.11Z"/>
    <path class="cls-1" d="M485.51,91.8h-9.23c.04,1.92,1.15,3.69,4.43,3.69,1.71,0,3.66-.7,4.77-1.6v3.48c-1.39,1.08-3.56,1.78-6.41,1.78-4.81,0-8.12-3.38-8.12-8.05s3.8-7.84,7.84-7.84,6.97,2.37,6.97,6.06c0,.77-.1,1.95-.24,2.47Zm-4.46-2.51c.35-1.57-.38-2.96-2.16-2.96-1.26,0-2.23,.77-2.51,2.96h4.67Z"/>
    <path class="cls-1" d="M494.68,91.21v7.53h-5.4v-15.05h5.05l.17,2.65c.77-1.67,2.79-3.07,5.33-3.07v5.02c-2.65-.84-5.16,.35-5.16,2.93Z"/>
    <path class="cls-1" d="M508.69,96.43l1.25-4.11c1.57,1.32,3.83,2.79,6.59,2.79,1.71,0,3.03-.66,3.03-2.13,0-1.36-.91-1.85-3.9-2.61-4.77-1.12-6.41-3.66-6.41-6.76,0-3.8,3-6.27,7.67-6.27,2.75,0,5.23,.98,6.87,2.13l-1.15,3.76c-1.57-.98-3.76-1.81-5.79-1.81-1.5,0-2.44,.63-2.44,1.67,0,.98,.63,1.53,3,2.13,5.23,1.22,7.35,3.41,7.35,7.18,0,4.91-3.97,6.76-8.22,6.76-3.59,0-6.2-1.36-7.84-2.72Z"/>
    <path class="cls-1" d="M541.76,91.8h-9.23c.04,1.92,1.15,3.69,4.43,3.69,1.71,0,3.66-.7,4.77-1.6v3.48c-1.39,1.08-3.55,1.78-6.41,1.78-4.81,0-8.12-3.38-8.12-8.05s3.8-7.84,7.84-7.84,6.97,2.37,6.97,6.06c0,.77-.1,1.95-.24,2.47Zm-4.46-2.51c.35-1.57-.38-2.96-2.16-2.96-1.26,0-2.23,.77-2.51,2.96h4.67Z"/>
    <path class="cls-1" d="M544.63,91.17c0-4.7,3.56-7.91,8.02-7.91,2.33,0,4.32,.59,5.51,1.5v3.83c-1.22-1.01-2.54-1.39-4.01-1.39-2.34,0-4.11,1.5-4.11,3.97s1.78,4.04,4.11,4.04c1.46,0,2.86-.42,4.01-1.43v3.87c-1.19,.94-3.17,1.5-5.51,1.5-4.46,0-8.02-3.28-8.02-7.98Z"/>
    <path class="cls-1" d="M577.58,98.73h-5.05l-.17-2.68c-.91,1.99-3.24,3.1-5.26,3.1-4.01,0-5.58-2.79-5.58-6.52v-8.96h5.4v7.98c0,2.44,.66,3.31,2.23,3.31,1.67,0,3.03-1.6,3.03-3.35v-7.95h5.4v15.05Z"/>
    <path class="cls-1" d="M586.98,91.21v7.53h-5.4v-15.05h5.05l.17,2.65c.77-1.67,2.79-3.07,5.33-3.07v5.02c-2.65-.84-5.16,.35-5.16,2.93Z"/>
    <path class="cls-1" d="M594.49,81.55v-3.73h5.4v3.73h-5.4Zm0,17.18v-15.05h5.4v15.05h-5.4Z"/>
    <path class="cls-1" d="M610.77,87.13v11.6h-5.4v-11.6h-2.93v-3.45h2.93v-4.11h5.4v4.11h2.93v3.45h-2.93Z"/>
    <path class="cls-1" d="M622.99,105.53h-5.16l3.24-7.63-5.99-14.22h5.19l3.41,8.75,3.41-8.75h5.05l-9.17,21.85Z"/>
    <path class="cls-1" d="M411.69,119.76c0-6.76,5.09-10.91,11.12-10.91,2.65,0,5.51,.87,7.25,2.2v2.89c-1.71-1.53-4.01-2.75-7.25-2.75-4.81,0-8.22,3.35-8.22,8.57s3.41,8.57,8.22,8.57c3.24,0,5.54-1.22,7.25-2.75v2.89c-1.74,1.32-4.6,2.2-7.25,2.2-6.03,0-11.12-4.15-11.12-10.91Z"/>
    <path class="cls-1" d="M432.67,122.58c0-4.84,3.59-7.84,7.28-7.84s6.41,2.44,6.41,5.85c0,.52-.1,1.18-.21,1.71h-10.87c-.21,2.65,1.04,6.17,5.85,6.17,1.71,0,3.8-.84,4.95-1.95v2.34c-1.43,1.15-3.66,1.78-5.85,1.78-4.43,0-7.56-3.38-7.56-8.05Zm11.15-2.13c.31-2.02-1.29-3.62-3.76-3.62-2.13,0-4.08,1.15-4.53,3.62h8.29Z"/>
    <path class="cls-1" d="M450.16,115.16h2.3l.17,2.89c1.12-1.81,3.31-3.31,5.85-3.31,4.01,0,5.44,2.79,5.44,6.52v8.96h-2.65v-8.71c0-3.38-1.32-4.49-3.52-4.49s-4.95,1.88-4.95,4.32v8.89h-2.65v-15.05Z"/>
    <path class="cls-1" d="M469.7,116.97h-3.38v-1.81h3.38v-4.11h2.65v4.11h3.41v1.81h-3.41v13.24h-2.65v-13.24Z"/>
    <path class="cls-1" d="M478.53,115.16h2.3l.17,2.89c.98-1.85,3.31-3.31,5.85-3.31v2.86c-2.86-.52-5.68,1.12-5.68,3.66v8.96h-2.65v-15.05Z"/>
    <path class="cls-1" d="M488.52,122.58c0-4.84,3.59-7.84,7.28-7.84s6.41,2.44,6.41,5.85c0,.52-.1,1.18-.21,1.71h-10.87c-.21,2.65,1.04,6.17,5.85,6.17,1.71,0,3.8-.84,4.95-1.95v2.34c-1.43,1.15-3.66,1.78-5.85,1.78-4.43,0-7.56-3.38-7.56-8.05Zm11.15-2.13c.31-2.02-1.29-3.62-3.76-3.62-2.13,0-4.08,1.15-4.53,3.62h8.29Z"/>
  </g>
  <g>
    <path class="cls-1" d="M206.86,114.32c-6.97,6.97-16.24,10.81-26.1,10.81-20.36,0-36.92-16.56-36.92-36.92s16.56-36.92,36.92-36.92c9.86,0,19.13,3.84,26.1,10.81,1.39,1.4,3.66,1.4,5.05,0,1.4-1.4,1.4-3.66,0-5.05-8.32-8.32-19.39-12.91-31.16-12.91-24.3,0-44.07,19.77-44.07,44.06s19.77,44.07,44.07,44.07c11.77,0,22.83-4.58,31.16-12.91,1.4-1.4,1.4-3.66,0-5.05s-3.66-1.4-5.05,0Z"/>
    <path class="cls-1" d="M380.06,114.32c-1.4-1.4-3.66-1.4-5.05,0-6.97,6.97-16.24,10.81-26.1,10.81-20.36,0-36.92-16.56-36.92-36.92s16.56-36.92,36.92-36.92c9.86,0,19.13,3.84,26.1,10.81,1.39,1.4,3.66,1.4,5.05,0,1.4-1.4,1.4-3.66,0-5.05-8.32-8.32-19.39-12.91-31.16-12.91-24.3,0-44.07,19.77-44.07,44.06s19.77,44.07,44.07,44.07c11.77,0,22.83-4.58,31.16-12.91,1.4-1.4,1.4-3.66,0-5.05Z"/>
    <path class="cls-1" d="M89.75,44.52c-1.76-.88-3.91-.17-4.79,1.6L44.47,127.16c-.88,1.77-.17,3.91,1.6,4.79,.51,.26,1.06,.38,1.59,.38,1.31,0,2.57-.72,3.2-1.98L91.35,49.32c.88-1.77,.17-3.91-1.6-4.79Z"/>
    <path class="cls-1" d="M116.57,96.61c-.08-.16-.22-.26-.32-.4-.15-.21-.28-.43-.47-.6-.17-.16-.37-.26-.56-.38-.2-.12-.38-.25-.6-.34-.24-.09-.49-.11-.75-.15-.17-.03-.33-.1-.5-.1h-29.31c-1.97,0-3.57,1.6-3.57,3.57s1.6,3.57,3.57,3.57h27.1l14.28,28.57c.63,1.25,1.89,1.98,3.2,1.98,.54,0,1.08-.12,1.59-.38,1.77-.88,2.48-3.03,1.6-4.79l-15.26-30.55Z"/>
    <path class="cls-1" d="M270.56,87.81c-1.85-.68-3.91,.26-4.59,2.11-.68,1.85,.26,3.91,2.11,4.59,9.72,3.59,13.16,7.24,13.16,13.93,0,10.84-10.68,16.69-20.74,16.69s-18.05-3.32-25.84-11.11c-1.39-1.4-3.66-1.4-5.05,0-1.4,1.4-1.4,3.66,0,5.05,9.13,9.13,18.66,13.2,30.89,13.2,6.79,0,13.58-2.14,18.64-5.88,5.96-4.4,9.25-10.78,9.25-17.96,0-12.38-9.01-17.38-17.83-20.63Z"/>
    <path class="cls-1" d="M247.34,87.09c.48,.22,.99,.32,1.49,.32,1.35,0,2.65-.77,3.25-2.09,.82-1.79,.03-3.92-1.76-4.74-7.39-3.38-10.55-7.17-10.55-12.67,0-8.02,7.93-16.69,20.74-16.69,10.78,0,17.69,3.33,21.11,10.18,.88,1.77,3.03,2.48,4.79,1.6,1.77-.88,2.48-3.03,1.6-4.79-4.69-9.38-13.94-14.13-27.51-14.13s-27.88,9.11-27.88,23.83c0,11.14,8.4,16.28,14.72,19.17Z"/>
  </g>
</svg>