<svg id="aa3e18b6-fa4c-4344-99db-0608b547b652" xmlns="http://www.w3.org/2000/svg" viewBox="0 0 393.03 211.14">
    <path class="cls-1" d="M213.21,79.47H203.07L182.8,132h18l3.85-12.34a7.5,7.5,0,1,1,6.87,0L215.4,132h18Z"/>
    <path class="cls-2" d="M246.09,78.91h18.29a43.6,43.6,0,0,1,12.39,1.55C293,85.26,293,111.66,275,116.14l13.26,15.5H277.32l-12.63-14.39h-8.6v14.39h-10Zm10,28.46h11.18c3.19,0,11.31.08,11.31-9.44,0-9.13-9-9.28-11.69-9.28h-10.8Z"/>
    <rect class="cls-2" x="303.97" y="79.09" width="9.93" height="52.55"/>
    <path class="cls-2" d="M92.85,93l8.48,22.42H84.71ZM87.78,78.9,67.46,131.64H78.58l2.44-6.8h23.65l2.64,6.8h10.76L97.92,78.9Z"/>
    <path class="cls-2" d="M177,102.4H151.53v9.11h14.75a11.33,11.33,0,0,1-5.56,9.1,16.18,16.18,0,0,1-8.48,2.12,17.88,17.88,0,0,1-13-5.13A16.76,16.76,0,0,1,134,105.1,16.37,16.37,0,0,1,139,93a17.28,17.28,0,0,1,12.61-5,19.46,19.46,0,0,1,12,4l4.78-8.85c-5.56-4-13.08-4.68-16.82-4.68q-12.71,0-20.64,8.89a25.53,25.53,0,0,0-6.7,17.61,27.52,27.52,0,0,0,3.62,13.76,25.4,25.4,0,0,0,9.85,9.82A28.65,28.65,0,0,0,151.87,132a25.58,25.58,0,0,0,12.92-3.16,24.2,24.2,0,0,0,9-9.14c2.32-4,3.46-10.71,3.46-15.17l-.06-2.09Z"/>
    <path class="cls-2" d="M323.33,128.54h.48a1.43,1.43,0,0,0,.38,0,.58.58,0,0,0,.26-.13.48.48,0,0,0,.14-.2.8.8,0,0,0,0-.28,1,1,0,0,0,0-.26.55.55,0,0,0-.15-.19.42.42,0,0,0-.22-.11,1.71,1.71,0,0,0-.36,0h-.54Zm0,.47v1.45h-.63V126.8h1.17a1.88,1.88,0,0,1,1.06.25,1,1,0,0,1,.33.77,1,1,0,0,1-.21.65,1.16,1.16,0,0,1-.66.38.53.53,0,0,1,.12.1.44.44,0,0,1,.1.15l.93,1.36h-.6a.2.2,0,0,1-.2-.1l-.83-1.24a.38.38,0,0,0-.09-.09l-.15,0Zm-2-.37a2.38,2.38,0,0,0,.11.7,2.65,2.65,0,0,0,.25.64,2.83,2.83,0,0,0,.39.52,3.22,3.22,0,0,0,.52.41,2.47,2.47,0,0,0,.63.26,2.68,2.68,0,0,0,.69.1,2.63,2.63,0,0,0,1.85-.77,2.51,2.51,0,0,0,.55-.83,2.79,2.79,0,0,0,.11-1.74,3,3,0,0,0-.26-.64,4.09,4.09,0,0,0-.4-.53,2.41,2.41,0,0,0-.54-.41,2.13,2.13,0,0,0-.61-.27,2.74,2.74,0,0,0-.7-.09,2.47,2.47,0,0,0-1,.21,2.62,2.62,0,0,0-1.58,2.44m-.41,0a2.63,2.63,0,0,1,.12-.8,3.19,3.19,0,0,1,.29-.72,3.15,3.15,0,0,1,.48-.61,2.87,2.87,0,0,1,.61-.46,2.14,2.14,0,0,1,.71-.3,2.66,2.66,0,0,1,.79-.12,2.74,2.74,0,0,1,.81.12,2.34,2.34,0,0,1,.71.3,3.41,3.41,0,0,1,.6.46,2.53,2.53,0,0,1,.48.61,3.23,3.23,0,0,1,.3.72,3,3,0,0,1,.12.8,2.9,2.9,0,0,1-.12.79,3.12,3.12,0,0,1-.3.73,2.26,2.26,0,0,1-.48.59,2.71,2.71,0,0,1-.6.47,2.64,2.64,0,0,1-.71.31,3.1,3.1,0,0,1-.81.11,3,3,0,0,1-.79-.11,2.39,2.39,0,0,1-.71-.31,2.36,2.36,0,0,1-.61-.47,2.75,2.75,0,0,1-.48-.59,3.09,3.09,0,0,1-.29-.73,2.56,2.56,0,0,1-.12-.79"/>
</svg>