<?xml version="1.0" standalone="no"?>
<!DOCTYPE svg PUBLIC "-//W3C//DTD SVG 20010904//EN"
 "http://www.w3.org/TR/2001/REC-SVG-20010904/DTD/svg10.dtd">
<svg version="1.0" id="02ea04f9-92a9-4c01-9f1c-02fa569b9e85"
    xmlns="http://www.w3.org/2000/svg" 
    xmlns:xlink="http://www.w3.org/1999/xlink" x="0px" y="0px" viewBox="0 0 75.000000 75.000000" style=" enable-background:new 0 0 75.000000 75.000000;" xml:space="preserve">
    <g transform="translate(0.000000,75.000000) scale(0.100000,-0.100000)" fill="#048404" stroke="none">
        <path d="M65 741 c-50 -21 -60 -47 -63 -161 l-4 -109 87 -170 c48 -94 91 -171 96 -171 10 0 60 93 212 393 l115 227 -211 -1 c-117 0 -221 -4 -232 -8z"></path>
        <path d="M680 634 c35 -65 65 -121 67 -123 1 -2 3 35 3 82 0 80 -2 89 -27 117 -19 20 -41 33 -67 37 l-39 6 63 -119z"></path>
        <path d="M527 573 c-19 -38 -91 -179 -160 -314 -70 -135 -127 -249 -127 -252 0 -4 95 -7 210 -7 169 0 217 3 240 15 48 25 60 61 60 175 l0 100 -91 175 c-50 96 -93 175 -95 175 -2 0 -19 -30 -37 -67z"></path>
        <path d="M1 167 c-1 -90 14 -129 59 -152 31 -16 60 -20 59 -7 0 4 -27 59 -59 122 l-59 115 0 -78z"></path>
    </g>
</svg>
