<?xml version="1.0" encoding="utf-8"?>
<svg xmlns="http://www.w3.org/2000/svg" viewBox="384.983 210.715 48.114 55.843" width="48.114px" height="55.843px">
  <path d="M 397.012 245.55 L 384.983 238.584 L 397.012 231.615 L 397.012 245.55 Z" fill="#4B499E" transform="matrix(1, 0, 0, 1, 3.552713678800501e-15, 7.105427357601002e-15)"/>
  <path d="M 421.067 245.55 L 409.038 238.584 L 421.067 231.615 L 421.067 245.55 Z" fill="#4B499E" transform="matrix(1, 0, 0, 1, 3.552713678800501e-15, 7.105427357601002e-15)"/>
  <path d="M 384.983 252.516 L 384.983 238.581 L 397.012 245.55 L 384.983 252.516 Z" fill="#4B499E" transform="matrix(1, 0, 0, 1, 3.552713678800501e-15, 7.105427357601002e-15)"/>
  <path d="M 384.983 238.584 L 384.983 224.65 L 397.012 231.615 L 384.983 238.584 Z" fill="#4B499E" transform="matrix(1, 0, 0, 1, 3.552713678800501e-15, 7.105427357601002e-15)"/>
  <path d="M 397.012 231.616 L 384.983 224.65 L 397.012 217.681 L 409.041 224.65 L 397.012 231.616 Z" fill="#4B499E" transform="matrix(1, 0, 0, 1, 3.552713678800501e-15, 7.105427357601002e-15)"/>
  <path d="M 397.012 259.484 L 384.983 252.518 L 397.012 245.55 L 409.041 252.518 L 397.012 259.484 Z" fill="#4B499E" transform="matrix(1, 0, 0, 1, 3.552713678800501e-15, 7.105427357601002e-15)"/>
  <path d="M 421.067 259.484 L 409.038 252.518 L 421.067 245.55 L 433.096 252.518 L 421.067 259.484 Z" fill="#4B499E" transform="matrix(1, 0, 0, 1, 3.552713678800501e-15, 7.105427357601002e-15)"/>
  <path d="M 409.038 266.451 L 397.012 259.485 L 409.038 252.516 L 421.067 259.485 L 409.038 266.451 Z" fill="#4B499E" transform="matrix(1, 0, 0, 1, 3.552713678800501e-15, 7.105427357601002e-15)"/>
  <path d="M 409.038 224.649 L 397.012 217.684 L 409.038 210.715 L 421.067 217.684 L 409.038 224.649 Z" fill="#4B499E" transform="matrix(1, 0, 0, 1, 3.552713678800501e-15, 7.105427357601002e-15)"/>
  <path d="M 421.067 231.616 L 409.038 224.65 L 421.067 217.681 L 433.096 224.65 L 421.067 231.616 Z" fill="#4B499E" transform="matrix(1, 0, 0, 1, 3.552713678800501e-15, 7.105427357601002e-15)"/>
  <path d="M 397.012 245.55 L 384.983 238.584 L 397.012 231.615 L 397.012 245.55 Z" fill="#8781BD" transform="matrix(1, 0, 0, 1, 3.552713678800501e-15, 7.105427357601002e-15)"/>
  <path d="M 421.067 245.55 L 409.038 238.584 L 421.067 231.615 L 421.067 245.55 Z" fill="#9791C6" transform="matrix(1, 0, 0, 1, 3.552713678800501e-15, 7.105427357601002e-15)"/>
  <path d="M 384.983 252.516 L 384.983 238.581 L 397.012 245.55 L 384.983 252.516 Z" fill="#9791C6" transform="matrix(1, 0, 0, 1, 3.552713678800501e-15, 7.105427357601002e-15)"/>
  <path d="M 384.983 238.584 L 384.983 224.65 L 397.012 231.615 L 384.983 238.584 Z" fill="#7872B5" transform="matrix(1, 0, 0, 1, 3.552713678800501e-15, 7.105427357601002e-15)"/>
  <path d="M 397.012 231.616 L 384.983 224.65 L 397.012 217.681 L 409.041 224.65 L 397.012 231.616 Z" fill="#6964AD" transform="matrix(1, 0, 0, 1, 3.552713678800501e-15, 7.105427357601002e-15)"/>
  <path d="M 397.001 259.476 L 384.983 252.53 L 397.012 245.556 L 409.126 252.479 L 397.001 259.476 Z" fill="#BBB7DB" transform="matrix(1, 0, 0, 1, 3.552713678800501e-15, 7.105427357601002e-15)"/>
  <path d="M 421.067 259.484 L 409.038 252.518 L 421.067 245.55 L 433.096 252.518 L 421.067 259.484 Z" fill="white" transform="matrix(1, 0, 0, 1, 3.552713678800501e-15, 7.105427357601002e-15)"/>
  <path d="M 409.038 266.451 L 397.012 259.485 L 409.038 252.516 L 421.067 259.485 L 409.038 266.451 Z" fill="#CFCCE6" transform="matrix(1, 0, 0, 1, 3.552713678800501e-15, 7.105427357601002e-15)"/>
  <path d="M 409.038 224.649 L 397.012 217.684 L 409.038 210.715 L 421.067 217.684 L 409.038 224.649 Z" fill="#5A56A5" transform="matrix(1, 0, 0, 1, 3.552713678800501e-15, 7.105427357601002e-15)"/>
  <path opacity="0.6" d="M 384.983 238.636 L 397.012 245.616 L 397.012 231.655 L 384.983 238.636 Z" fill="#6633FF" transform="matrix(1, 0, 0, 1, 3.552713678800501e-15, 7.105427357601002e-15)"/>
  <path opacity="0.6" d="M 409.039 238.636 L 421.068 245.616 L 421.068 231.655 L 409.039 238.636 Z" fill="#6633FF" transform="matrix(1, 0, 0, 1, 3.552713678800501e-15, 7.105427357601002e-15)"/>
  <path opacity="0.7" d="M 397.012 231.654 L 384.983 224.676 L 384.983 238.635 L 397.012 231.654 Z" fill="#6633FF" transform="matrix(1, 0, 0, 1, 3.552713678800501e-15, 7.105427357601002e-15)"/>
  <path opacity="0.5" d="M 397.012 245.616 L 384.983 238.635 L 384.983 252.597 L 397.012 245.616 Z" fill="#6633FF" transform="matrix(1, 0, 0, 1, 3.552713678800501e-15, 7.105427357601002e-15)"/>
  <path opacity="0.42" d="M 397.012 245.616 L 384.983 252.597 L 397.012 259.578 L 409.039 252.597 L 397.012 245.616 Z" fill="#6633FF" transform="matrix(1, 0, 0, 1, 3.552713678800501e-15, 7.105427357601002e-15)"/>
  <path opacity="0.8" d="M 397.012 217.696 L 384.983 224.676 L 397.012 231.654 L 409.039 224.676 L 397.012 217.696 Z" fill="#6633FF" transform="matrix(1, 0, 0, 1, 3.552713678800501e-15, 7.105427357601002e-15)"/>
  <path d="M 421.068 217.696 L 409.039 224.676 L 421.068 231.654 L 433.097 224.676 L 421.068 217.696 Z" fill="#6633FF" transform="matrix(1, 0, 0, 1, 3.552713678800501e-15, 7.105427357601002e-15)"/>
  <path opacity="0.9" d="M 409.039 210.715 L 397.012 217.696 L 409.039 224.677 L 421.068 217.696 L 409.039 210.715 Z" fill="#6633FF" transform="matrix(1, 0, 0, 1, 3.552713678800501e-15, 7.105427357601002e-15)"/>
  <path opacity="0.35" d="M 409.039 252.597 L 397.012 259.578 L 409.039 266.558 L 421.068 259.578 L 409.039 252.597 Z" fill="#6633FF" transform="matrix(1, 0, 0, 1, 3.552713678800501e-15, 7.105427357601002e-15)"/>
  <path opacity="0.27" d="M 421.068 245.616 L 409.039 252.597 L 421.068 259.578 L 433.097 252.597 L 421.068 245.616 Z" fill="#6633FF" transform="matrix(1, 0, 0, 1, 3.552713678800501e-15, 7.105427357601002e-15)"/>
</svg>
