<?xml version="1.0" encoding="utf-8"?>
<!-- Generator: Adobe Illustrator 24.1.2, SVG Export Plug-In . SVG Version: 6.00 Build 0)  -->
<svg version="1.1" id="_x30_1" xmlns="http://www.w3.org/2000/svg" xmlns:xlink="http://www.w3.org/1999/xlink" x="0px" y="0px"
     viewBox="0 0 1400 1400" style="enable-background:new 0 0 1400 1400;" xml:space="preserve">
<path fill="#0031E2" class="st0" d="M591.14,543.961l108.89,108.382l108.86-108.382l-108.86-108.41L591.14,543.961z M1225.818,624.094L700.988,75
    l-524.77,549.094l39.841,37.864c8.777,8.389,219.009,205.319,484.928,205.319c265.98,0,476.151-196.93,484.958-205.319
    L1225.818,624.094z M700.988,756.649c-157.119,0-296.595-88.31-363.876-139.146l363.876-380.74l363.906,380.74
    C997.583,668.368,858.107,756.649,700.988,756.649z M244.567,1079.689v36.726c-7.159-13.629-17.375-24.443-30.645-32.501
    c-13.271-8.06-28.249-12.073-44.964-12.073c-14.888,0-28.698,3.266-41.369,9.765c-12.642,6.5-23.635,15.428-32.862,26.722
    c-9.226,11.292-16.446,24.712-21.688,40.171c-5.212,15.486-7.819,32.083-7.819,49.726c0.03,18.273,2.696,35.048,8.088,50.386
    c5.362,15.337,12.971,28.727,22.827,40.171c9.826,11.473,21.538,20.37,35.108,26.72c13.57,6.321,28.548,9.497,44.964,9.497
    c16.086,0,29.746-3.474,40.92-10.455c11.174-6.979,20.34-17.104,27.5-30.435v36.248l71.565-0.031l-0.06-240.637H244.567z
     M244.597,1228.361c-5.931,10.515-12.941,18.812-20.999,24.864c-8.058,6.052-17.584,9.047-28.638,9.076
    c-8.058,0-15.487-1.616-22.347-4.882c-6.89-3.236-12.761-7.67-17.674-13.241c-4.913-5.571-8.807-12.162-11.653-19.741
    c-2.816-7.579-4.254-15.847-4.254-24.864c0-8.327,1.258-16.386,3.804-24.144c2.516-7.729,6.171-14.62,10.934-20.67
    c4.793-6.052,10.365-10.844,16.805-14.41c6.381-3.565,13.48-5.332,21.239-5.332c11.323,0,21.748,3.864,31.304,11.592
    c9.526,7.76,16.715,18.094,21.478,31.124V1228.361z M602.844,1255.083c-7.369,4.523-15.457,6.8-24.294,6.8
    c-7.07,0-13.78-1.558-20.101-4.673c-6.351-3.116-11.863-7.489-16.596-13.091c-4.703-5.602-8.387-12.371-11.054-20.339
    c-2.636-7.939-3.984-16.746-3.984-26.422c0-19.322,4.913-34.75,14.798-46.281c9.886-11.533,22.168-17.315,36.906-17.315
    c17.674,0,31.064,7.787,40.201,23.365l68.929-21.988c-9.137-19.32-22.826-34.988-41.1-47c-18.273-11.983-40.8-17.975-67.611-17.975
    c-19.741,0-37.325,3.446-52.812,10.305c-15.457,6.86-28.488,16.146-39.092,27.83c-10.604,11.683-18.723,25.253-24.295,40.681
    c-5.602,15.457-8.388,31.572-8.388,48.408c0,16.836,2.816,32.953,8.418,48.379c5.602,15.459,13.78,28.998,24.534,40.681
    c10.754,11.683,23.875,21.028,39.332,28.038C542.094,1321.495,559.558,1325,579,1325c26.811,0,49.547-6.081,68.27-18.244
    c18.693-12.162,32.323-27.769,40.86-46.792l-68.958-22.406C615.665,1244.718,610.214,1250.589,602.844,1255.083z M352.948,997.371
    l0.09,327.629l71.835-0.029l-0.09-327.63L352.948,997.371z M780.262,1061.905v-65.094l-71.864,0.029l0.03,65.096L780.262,1061.905z
     M1326.602,1149.018c-5.452-15.188-13.48-28.577-24.085-40.171c-10.604-11.623-23.575-20.849-38.883-27.649
    c-15.308-6.802-32.832-10.186-52.573-10.186c-19.711,0-37.325,3.415-52.783,10.215c-15.427,6.831-28.458,16.117-39.062,27.888
    c-10.604,11.773-18.693,25.493-24.295,41.131c-5.572,15.636-8.387,32.293-8.387,49.936c0.03,16.415,2.816,32.112,8.417,47.15
    c5.602,15.009,13.78,28.248,24.534,39.692c10.755,11.473,23.845,20.52,39.302,27.17c15.487,6.652,32.922,9.976,52.363,9.976
    c26.781,0,49.757-6.05,68.899-18.123c19.112-12.102,33.251-27.74,42.388-46.941l-60.092-17.644
    c-3.235,8.986-9.616,16.117-19.202,21.388c-9.556,5.273-19.501,7.91-29.806,7.91c-12.971,0-24.534-4.255-34.689-12.762
    c-10.155-8.507-15.817-20.969-17.015-37.416l171.378-0.029c0.599-3.086,1.049-6.739,1.318-10.934
    c0.299-4.165,0.449-8.418,0.449-12.762C1334.78,1180.142,1332.053,1164.175,1326.602,1149.018z M1160.316,1174.601
    c1.468-15.157,6.68-27.319,15.667-36.456c8.987-9.138,20.37-13.72,34.21-13.72c13.54,0,24.893,4.492,34.03,13.449
    c9.137,8.987,14.409,21.209,15.906,36.697L1160.316,1174.601z M708.428,1088.867l0.06,235.604l71.865-0.029l-0.09-235.604
    L708.428,1088.867z M990.401,996.841l0.06,128.842c-7.519-12.97-17.854-23.306-31.034-30.974
    c-13.181-7.67-28.189-11.533-44.964-11.504c-14.978,0-28.848,3.086-41.579,9.286c-12.731,6.202-23.725,14.709-33.011,25.464
    c-9.286,10.784-16.476,23.575-21.568,38.313c-5.093,14.768-7.639,30.556-7.639,47.39c0,17.404,2.786,33.402,8.328,48.02
    c5.542,14.618,13.271,27.38,23.186,38.284c9.885,10.934,21.628,19.412,35.288,25.462c13.63,6.021,28.518,9.047,44.724,9.047
    c31.154,0,54.071-12.702,68.749-38.103v33.67l71.505-0.029l-0.12-323.196L990.401,996.841z M970.241,1256.051
    c-8.957,5.782-18.723,8.657-29.207,8.657c-8.088,0-15.577-1.468-22.467-4.434c-6.89-2.935-12.821-7.069-17.764-12.371
    c-4.943-5.302-8.837-11.654-11.683-19.053c-2.846-7.368-4.284-15.336-4.284-23.904c0-7.968,1.258-15.728,3.804-23.246
    c2.546-7.518,6.231-14.08,11.024-19.681c4.793-5.602,10.335-10.125,16.626-13.541c6.291-3.384,13.33-5.063,21.119-5.063
    c10.784-0.029,21.209,3.684,31.244,11.054c10.035,7.368,17.464,17.104,22.257,29.206l0.03,48.678
    C986.148,1242.42,979.258,1250.299,970.241,1256.051z"/>
</svg>
