<?xml version="1.0" standalone="no"?>
<!DOCTYPE svg PUBLIC "-//W3C//DTD SVG 20010904//EN"
 "http://www.w3.org/TR/2001/REC-SVG-20010904/DTD/svg10.dtd">
<svg version="1.0" xmlns="http://www.w3.org/2000/svg"
 width="72.000000pt" height="72.000000pt" viewBox="0 0 72.000000 72.000000"
 preserveAspectRatio="xMidYMid meet">
<metadata>
Created by potrace 1.15, written by Peter Selinger 2001-2017
</metadata>
<g transform="translate(0.000000,72.000000) scale(0.100000,-0.100000)"
fill="#000000" stroke="none">
<path d="M206 564 c-121 -127 -148 -159 -139 -172 18 -30 117 -91 181 -111 79
-26 142 -26 225 -1 64 20 187 99 187 121 0 11 -290 319 -300 319 -3 0 -72 -70
-154 -156z m252 -53 c51 -55 92 -102 92 -104 0 -11 -74 -48 -126 -63 -34 -10
-69 -13 -93 -9 -41 7 -161 60 -161 71 0 7 183 203 190 204 3 0 47 -45 98 -99z"/>
<path d="M520 170 c0 -27 -2 -29 -29 -24 -39 8 -71 -24 -71 -71 0 -53 27 -74
94 -74 l56 0 1 32 c0 29 1 30 9 10 17 -42 77 -56 118 -27 27 18 28 31 5 37
-17 4 -17 5 0 6 23 1 23 53 -1 74 -19 17 -78 23 -99 9 -7 -4 -16 -19 -22 -32
-8 -21 -10 -16 -10 33 -1 54 -2 57 -26 57 -21 0 -25 -5 -25 -30z"/>
<path d="M270 153 c-34 -12 -50 -37 -50 -75 0 -67 63 -101 118 -62 20 14 22
14 22 0 0 -10 9 -16 25 -16 24 0 25 2 25 70 0 68 -1 70 -25 70 -14 0 -25 -5
-25 -11 0 -6 -7 -3 -16 5 -8 9 -19 16 -24 16 -5 0 -14 2 -22 4 -7 3 -20 2 -28
-1z"/>
<path d="M10 130 c-5 -10 -10 -36 -10 -58 0 -54 21 -71 93 -71 l57 0 0 74 0
73 -65 1 c-54 0 -66 -3 -75 -19z"/>
</g>
</svg>
