<?xml version="1.0" encoding="utf-8"?>
<!-- Generator: Adobe Illustrator 26.0.1, SVG Export Plug-In . SVG Version: 6.00 Build 0)  -->
<svg version="1.1" id="Layer_1" xmlns="http://www.w3.org/2000/svg" x="0px" y="0px"
	 viewBox="0 0 581 768" style="enable-background:new 0 0 581 768;" xml:space="preserve">
<style type="text/css">
	.st0{fill:#01214F;}
	.st1{fill:#1979D3;}
</style>
<path class="st0" d="M13.5,753.9c92.4-219,184.5-437.4,276.6-655.8c2.2,1.1,2.3,3.2,3,4.8c47.7,112.9,95.4,225.8,143.2,338.6
	c1.9,4.5,1.1,6.7-2.7,9.3c-21.8,15-46.1,24.2-71.6,30.5c-4.3,1-5.6-1-7-4.4c-20.7-48.7-41.6-97.3-62.4-146c-0.6-1.5-1.3-3-2-4.6
	c-3.1,1.3-4,3.9-5,6.4c-20.8,49.1-41.5,98.2-62.4,147.3c-1.6,3.8-0.8,5,2.8,6.4c17.7,6.7,35.6,12.7,54.5,15
	c12.8,1.5,25.8,2.6,38.7,1.9c15.3-0.8,30.4-2.6,45.5-6.4c11.9-3,23.6-6.2,34.9-10.8c12.8-5.2,25.2-11.4,36.4-19.6
	c7-5.2,8.2-4.8,11.5,3.2c8.3,20.4,16.4,41,25.4,61.1c33.2,73.3,62.9,148.1,94.7,222c0.1,0.1-0.1,0.4-0.3,1.1c-6.9,0-13.9,0-20.9,0
	c-22.5,0-45-0.1-67.5,0.1c-4.2,0-5.9-1.4-7.5-5.1c-25.3-59.5-50.9-118.8-76-178.4c-2.1-4.9-4.1-4.9-8.4-3.8c-15,4-30.3,6.5-45.7,8.4
	c-11.9,1.5-23.9,1.2-35.8,1.5c-11.9,0.3-24-1-36-2.5c-8.5-1.1-17-2.8-25.5-4.1c-8.1-1.2-16.1-3.9-23.9-6.8
	c-8.5-3.1-17.5-4.8-25.4-9.4c-3.7-2.2-3.1,1.8-3.7,3.1c-10.9,25.4-21.6,50.8-32.4,76.3c-16.3,38.5-32.6,77-48.7,115.6
	c-1.5,3.6-3.2,5.2-7.4,5.2C73.1,753.8,43.9,753.9,13.5,753.9z"/>
<path class="st1" d="M110.7,487.2c-10.3-9.1-19-19.2-27.4-29.6c-10.6-13.2-19.8-27.4-27.2-42.5c-8-16.5-14.5-33.7-19.2-51.6
	c-5.7-21.7-7.4-43.9-9-66c-0.6-8.8-0.1-17.7,0.6-26.6c0.8-10.7,2.1-21.2,4-31.7c2.1-11.5,5.3-22.6,9.1-33.7
	c4.5-13.1,9.9-25.7,16.3-37.8c7-13.3,15.3-25.8,24.1-38c6.8-9.6,14-18.9,22.2-27.2c8.5-8.7,16.8-17.6,26.4-25.3
	c10.4-8.4,20.6-16.9,31.9-23.9c11.1-7,22.8-13.2,34.6-19c11.9-5.9,24.3-10.4,36.9-13.9c15.1-4.2,30.4-8.1,46.1-10.1
	C289,9,298,8.9,306.8,8.6c12-0.4,24-1.1,36.2,0.1c11.5,1.1,23.1,1.6,34.5,3.4c8.4,1.3,16.7,3.4,25,5.4c9.8,2.4,19.3,5.8,29.1,8.5
	c8,2.2,15.4,6.7,23.1,10c17.9,7.8,34,18.7,50.6,28.8c5,3,4.2,6.4,1,10.2c-6.9,8.1-14.1,15.9-20.7,24.3c-6.3,8.1-14.3,14.7-19.4,23.7
	c-0.9,1.5-2,2.2-3.7,0.6c-10.3-9.4-22.6-16.1-34.6-22.6c-11.7-6.3-24.4-10.5-37.1-14.7c-12.7-4.2-25.6-6.3-38.7-7.9
	c-14.4-1.8-28.8-1.9-43.3-1c-18.6,1.1-36.3,5.8-54.1,10.8c-12.2,3.5-23.8,8.1-34.8,13.9c-15.3,8.1-29.5,18-42.7,29.4
	c-14.4,12.4-26.7,26.6-37.4,42.2c-9.7,14.2-17.1,29.6-23,45.7c-6.6,18.3-10.5,37.2-11.8,56.7c-1,14.7-0.9,29.4,1.6,43.7
	c3.7,21.5,9.3,42.7,20.3,62c5,8.8,9,18.2,15.8,25.9c1.1,1.3,2.2,3.2,1.1,5.7C132.7,437.9,121.8,462.4,110.7,487.2z"/>
<path class="st1" d="M482.3,527.1c-8.3-20-16.5-40-24.9-60c-4-9.5-3.7-9.1,3.6-15.6c11.3-10,23.3-19.6,32.3-32
	c1.3-1.8,2.3-1.8,4.1-0.4c13.7,10.9,27.3,21.8,41.7,31.8c4.4,3,8.8,6.5,12.9,10.2c2.2,2,2.7,2.9,0.1,6.1
	c-15.4,18.8-34.3,33.7-52.9,48.9C493.9,520.4,487.9,523.5,482.3,527.1z"/>
</svg>
