<svg id="a83c8bf3-9d01-4119-a370-7b60339b1063" xmlns="http://www.w3.org/2000/svg" viewBox="0 0 486.17 662.32"><defs><style>.e4c1ccd2-7556-4cd4-9577-179a193e294c{fill:#00214f;}.a504cd53-70b3-4690-9fef-e4a169657670{fill:#1979d4;}</style></defs><path class="e4c1ccd2-7556-4cd4-9577-179a193e294c" d="M245.67,117.43l128,303c-17.18,14.74-41.21,24.13-70.19,30.36L245.17,315.4l-59,137s35,17.93,78.4,16.88,78.08-12.4,114.41-35.77L486.17,686.42H404l-69.76-164s-30.07,10.95-75.43,10.68c-52.35.26-97.71-19.81-97.71-19.81L87.72,686.42H5.17Z" transform="translate(0 -24.1)"/><path class="a504cd53-70b3-4690-9fef-e4a169657670" d="M109.41,409.8A195.23,195.23,0,0,1,62.9,283c0-108.26,87.76-196,196-196a195.64,195.64,0,0,1,152.25,72.54L457,116.28A258.36,258.36,0,0,0,258.93,24.1C115.92,24.1,0,140,0,283A258.21,258.21,0,0,0,81,471.14l28.39-61.35Z" transform="translate(0 -24.1)"/><path class="a504cd53-70b3-4690-9fef-e4a169657670" d="M423.77,391.94a196.9,196.9,0,0,1-35,35.4l25.27,59.44c19.68-13.49,37.41-28.87,52.67-47.14Z" transform="translate(0 -24.1)"/></svg>