<svg id="svg" version="1.1" xmlns="http://www.w3.org/2000/svg" xmlns:xlink="http://www.w3.org/1999/xlink" width="400" height="331.9838056680162" viewBox="0, 0, 400,331.9838056680162"><g id="svgg"><path id="path0" d="M198.670 44.088 C 197.449 46.960,196.962 48.114,193.023 57.475 C 190.295 63.959,189.930 64.824,186.780 72.259 C 185.852 74.452,184.178 78.414,183.060 81.063 C 181.943 83.713,180.677 86.703,180.247 87.708 C 179.816 88.713,178.468 91.927,177.249 94.850 C 175.280 99.578,173.895 102.869,170.750 110.299 C 170.247 111.487,168.610 115.374,167.112 118.937 C 165.615 122.500,164.037 126.238,163.607 127.243 C 163.177 128.248,161.911 131.238,160.794 133.887 C 159.676 136.537,158.032 140.424,157.140 142.525 C 153.667 150.707,152.492 153.524,152.492 153.666 C 152.492 153.748,151.688 155.573,150.706 157.721 C 148.543 162.453,145.183 170.304,145.183 170.625 C 145.183 170.753,144.895 171.472,144.543 172.223 C 144.192 172.974,143.351 174.934,142.674 176.578 C 141.997 178.223,141.089 180.357,140.655 181.322 C 140.222 182.287,139.867 183.197,139.867 183.345 C 139.867 183.493,139.110 185.394,138.184 187.571 C 134.005 197.400,130.025 206.837,128.388 210.797 C 127.124 213.856,125.519 217.656,124.740 219.435 C 124.500 219.983,123.305 222.824,122.085 225.748 C 120.864 228.671,119.454 232.035,118.951 233.223 C 118.449 234.410,117.277 237.176,116.349 239.369 C 115.420 241.561,113.744 245.523,112.625 248.173 C 111.505 250.822,109.859 254.709,108.967 256.811 C 105.068 265.990,103.403 269.983,103.182 270.681 L 102.945 271.429 119.193 271.429 L 135.442 271.429 135.863 270.515 C 136.095 270.012,136.948 268.032,137.758 266.113 C 138.569 264.194,139.583 261.802,140.013 260.797 C 140.442 259.792,142.023 256.055,143.525 252.492 C 145.028 248.929,147.048 244.145,148.015 241.860 C 148.982 239.576,150.330 236.362,151.011 234.718 C 152.440 231.269,153.973 227.659,154.820 225.748 C 155.145 225.017,156.158 222.625,157.072 220.432 C 158.607 216.749,161.103 210.825,163.510 205.150 C 164.053 203.870,164.651 202.413,164.839 201.910 C 165.027 201.408,165.298 200.997,165.440 200.997 C 166.004 200.997,168.106 202.020,168.106 202.294 C 168.106 202.454,168.592 202.664,169.186 202.760 C 170.946 203.045,173.165 203.686,174.585 204.319 C 175.316 204.645,176.658 205.086,177.567 205.298 C 178.476 205.511,179.319 205.846,179.440 206.041 C 179.561 206.237,179.815 206.302,180.005 206.184 C 180.194 206.067,180.996 206.181,181.786 206.437 C 183.124 206.871,184.674 207.140,187.831 207.486 C 188.538 207.563,189.285 207.761,189.492 207.926 C 190.230 208.516,198.263 209.008,207.143 209.008 C 213.778 209.008,222.794 208.425,223.422 207.955 C 223.605 207.819,224.950 207.532,226.412 207.318 C 227.874 207.104,229.529 206.790,230.090 206.621 C 230.651 206.451,231.481 206.312,231.934 206.312 C 232.387 206.312,232.900 206.174,233.073 206.006 C 233.897 205.206,235.852 205.220,236.192 206.028 C 237.445 209.004,246.568 230.341,246.979 231.255 C 247.259 231.880,248.843 235.606,250.499 239.535 C 252.154 243.463,253.872 247.500,254.317 248.505 C 254.762 249.510,256.310 253.098,257.758 256.478 C 262.333 267.159,264.078 271.165,264.215 271.302 C 264.288 271.375,271.691 271.396,280.666 271.349 L 296.985 271.262 295.208 267.110 C 294.230 264.826,292.428 260.565,291.202 257.641 C 289.977 254.718,288.622 251.503,288.192 250.498 C 287.762 249.493,286.496 246.503,285.378 243.854 C 284.261 241.204,282.618 237.317,281.728 235.216 C 280.837 233.115,279.193 229.228,278.073 226.578 C 274.921 219.117,272.977 214.535,270.785 209.400 C 269.677 206.804,268.771 204.604,268.771 204.510 C 268.771 204.416,268.414 203.549,267.979 202.585 C 266.622 199.580,265.212 196.233,264.756 194.934 C 264.515 194.248,264.157 193.688,263.959 193.688 C 263.762 193.688,263.398 192.978,263.151 192.110 C 262.903 191.242,262.440 190.083,262.122 189.535 C 261.804 188.987,261.290 187.755,260.979 186.798 C 260.668 185.841,260.290 184.981,260.138 184.887 C 259.986 184.793,259.595 183.857,259.269 182.807 C 258.942 181.756,258.406 180.449,258.076 179.900 C 257.747 179.352,257.477 178.710,257.476 178.472 C 257.476 178.235,257.166 177.413,256.787 176.645 C 256.409 175.877,255.799 174.427,255.433 173.422 C 254.604 171.152,253.744 169.435,253.434 169.435 C 252.762 169.435,251.315 170.227,249.805 171.420 C 248.875 172.156,247.915 172.757,247.672 172.757 C 247.430 172.757,247.182 172.870,247.121 173.007 C 247.060 173.144,246.262 173.630,245.349 174.086 C 244.435 174.543,243.613 174.992,243.522 175.084 C 243.308 175.298,242.120 175.864,240.033 176.745 C 239.120 177.131,237.774 177.731,237.043 178.079 C 236.312 178.428,235.116 178.812,234.385 178.934 C 233.654 179.057,232.848 179.323,232.592 179.527 C 232.044 179.963,227.796 181.029,226.523 181.049 C 226.035 181.057,225.586 181.214,225.525 181.399 C 225.397 181.784,222.085 182.387,220.091 182.390 C 219.355 182.391,218.390 182.646,217.947 182.957 C 216.890 183.696,198.503 183.859,198.054 183.133 C 197.911 182.901,197.505 182.746,197.152 182.788 C 195.651 182.968,189.434 181.897,187.792 181.175 C 187.199 180.914,186.155 180.629,185.472 180.542 C 184.789 180.454,183.630 180.114,182.896 179.786 C 181.377 179.105,179.547 178.427,178.571 178.181 C 175.571 177.426,175.392 176.938,176.862 173.521 C 177.475 172.096,178.737 169.136,179.665 166.944 C 180.594 164.751,182.260 160.833,183.368 158.237 C 184.476 155.642,185.382 153.441,185.382 153.347 C 185.382 153.253,185.742 152.387,186.182 151.422 C 186.622 150.457,187.535 148.322,188.211 146.678 C 188.887 145.033,189.705 143.090,190.029 142.359 C 190.353 141.628,191.986 137.741,193.659 133.721 C 197.480 124.538,198.358 122.571,198.958 121.844 C 199.857 120.756,199.326 119.752,205.326 133.887 C 207.536 139.095,210.440 145.897,211.780 149.003 C 213.119 152.110,215.044 156.595,216.058 158.970 C 217.071 161.346,219.082 166.055,220.526 169.435 L 223.151 175.581 224.692 175.502 C 230.336 175.209,249.449 166.828,251.299 163.836 C 251.447 163.596,250.288 160.685,246.449 151.661 C 245.905 150.382,245.115 148.513,244.694 147.508 C 244.273 146.503,243.105 143.738,242.098 141.362 C 241.092 138.987,239.415 135.025,238.372 132.558 C 237.329 130.091,235.651 126.130,234.643 123.754 C 233.634 121.379,232.516 118.688,232.158 117.774 C 231.800 116.860,231.300 115.664,231.047 115.116 C 230.794 114.568,230.151 113.073,229.618 111.794 C 228.540 109.205,224.339 99.239,221.426 92.359 C 220.381 89.892,219.189 87.051,218.777 86.047 C 218.364 85.042,217.326 82.575,216.470 80.565 C 214.168 75.160,211.923 69.868,209.635 64.452 C 208.515 61.802,206.839 57.841,205.911 55.648 C 204.982 53.455,203.811 50.689,203.308 49.502 C 202.806 48.314,201.909 46.146,201.316 44.684 C 199.871 41.125,199.924 41.137,198.670 44.088 M37.982 278.067 C 34.959 278.710,32.112 281.031,30.451 284.207 L 29.402 286.213 29.300 300.900 C 29.194 316.152,29.237 316.693,30.591 317.047 C 32.512 317.549,32.890 316.278,32.890 309.312 L 32.890 302.979 41.777 303.068 L 50.664 303.156 50.848 309.801 C 50.950 313.455,51.062 316.477,51.098 316.517 C 51.673 317.146,52.627 317.263,53.345 316.793 L 54.153 316.264 54.151 301.570 C 54.149 285.847,54.116 285.489,52.414 282.902 C 49.691 278.763,43.877 276.815,37.982 278.067 M58.122 278.423 C 57.450 279.095,57.441 279.344,57.540 294.619 L 57.641 310.133 58.425 311.628 C 60.443 315.479,65.523 318.283,67.709 316.752 C 69.158 315.737,68.219 313.621,66.319 313.621 C 64.695 313.621,62.492 311.998,61.502 310.072 C 61.243 309.566,61.130 304.716,61.130 294.093 C 61.130 279.739,61.094 278.808,60.522 278.291 C 59.710 277.556,58.947 277.598,58.122 278.423 M73.944 278.263 C 72.711 279.496,73.495 282.724,75.028 282.724 C 76.358 282.724,76.744 282.151,76.744 280.178 C 76.744 277.920,75.285 276.922,73.944 278.263 M82.539 278.212 C 81.558 278.930,81.538 308.115,82.517 310.926 C 84.312 316.080,92.691 319.647,92.691 315.256 C 92.691 314.175,92.144 313.818,89.943 313.460 C 85.941 312.809,85.382 311.061,85.382 299.180 L 85.382 289.369 86.637 289.369 C 88.313 289.369,89.369 288.596,89.369 287.368 C 89.369 286.195,88.603 285.714,86.733 285.714 L 85.382 285.714 85.382 282.250 C 85.382 277.958,84.534 276.753,82.539 278.212 M289.686 278.421 C 288.569 279.537,288.820 308.969,289.967 311.462 C 291.749 315.333,297.019 318.330,299.271 316.752 C 300.778 315.696,299.886 313.654,297.907 313.632 C 296.121 313.612,293.773 311.792,293.044 309.862 C 292.814 309.252,292.691 303.705,292.691 293.884 C 292.691 279.732,292.655 278.808,292.083 278.291 C 291.272 277.556,290.509 277.598,289.686 278.421 M305.518 278.365 C 305.000 278.938,304.961 280.294,305.051 294.727 L 305.150 310.465 306.103 312.186 C 308.356 316.251,314.607 318.763,315.649 316.023 C 316.106 314.821,315.249 313.621,313.935 313.621 C 309.190 313.621,308.306 311.291,308.306 298.795 L 308.306 289.369 309.727 289.369 C 313.477 289.369,313.699 285.920,309.966 285.654 L 308.472 285.548 308.381 282.060 C 308.272 277.868,307.209 276.497,305.518 278.365 M321.484 278.157 C 319.904 279.313,320.687 282.724,322.533 282.724 C 323.840 282.724,324.252 282.156,324.252 280.356 C 324.252 278.084,322.974 277.068,321.484 278.157 M46.013 281.856 C 50.077 283.780,50.831 285.639,50.831 293.729 L 50.831 299.668 41.860 299.668 L 32.890 299.668 32.890 293.571 C 32.890 285.790,33.434 284.160,36.656 282.279 C 39.231 280.776,43.340 280.590,46.013 281.856 M73.972 286.322 C 73.037 287.354,73.144 315.669,74.086 316.611 C 74.886 317.411,75.056 317.424,76.006 316.759 L 76.744 316.241 76.744 301.500 C 76.744 288.542,76.681 286.695,76.222 286.236 C 75.528 285.543,74.647 285.576,73.972 286.322 M103.527 286.240 C 101.205 286.980,98.567 289.683,97.868 292.038 C 97.245 294.137,97.111 307.526,97.686 310.210 C 99.877 320.423,117.260 318.866,117.274 308.455 C 117.278 305.239,114.607 305.479,113.996 308.750 C 113.396 311.962,111.183 313.621,107.497 313.621 C 102.600 313.621,100.495 311.142,100.726 305.648 L 100.831 303.156 107.657 302.990 C 116.883 302.766,117.276 302.480,117.276 296.013 C 117.276 288.155,111.159 283.807,103.527 286.240 M129.070 286.065 C 126.944 286.579,124.575 288.598,123.425 290.875 L 122.425 292.857 122.322 304.231 L 122.219 315.605 123.068 316.453 C 123.886 317.271,124.600 317.249,125.581 316.373 C 125.673 316.292,125.822 310.940,125.914 304.482 C 126.073 293.223,126.108 292.700,126.775 291.801 C 130.116 287.295,138.176 288.813,139.045 294.111 C 139.597 297.478,142.530 297.519,142.522 294.160 C 142.508 288.536,135.727 284.456,129.070 286.065 M196.154 286.006 C 193.282 286.752,190.981 288.885,189.840 291.860 C 188.790 294.596,188.885 309.110,189.967 311.462 C 193.525 319.192,205.267 319.160,208.695 311.411 C 209.293 310.058,209.334 309.273,209.239 300.905 L 209.136 291.860 208.262 290.518 C 205.744 286.650,200.787 284.802,196.154 286.006 M220.138 286.240 C 217.816 286.980,215.179 289.683,214.479 292.038 C 213.007 296.994,213.860 317.276,215.541 317.276 C 217.236 317.276,217.276 316.997,217.276 305.069 C 217.276 290.415,217.581 289.662,223.627 289.420 C 226.952 289.287,228.016 289.681,229.468 291.584 L 230.399 292.804 230.565 304.525 C 230.683 312.863,230.844 316.359,231.121 316.637 C 231.656 317.171,233.234 317.128,233.588 316.570 C 234.132 315.711,233.955 292.831,233.393 291.488 C 231.449 286.834,225.572 284.507,220.138 286.240 M245.681 286.086 C 242.132 286.888,239.073 290.950,239.084 294.847 C 239.097 299.406,241.659 301.694,248.259 303.040 C 254.871 304.388,256.354 305.666,255.489 309.272 C 253.959 315.652,242.525 314.874,242.525 308.390 C 242.525 306.479,240.347 305.603,239.356 307.115 C 236.906 310.854,242.929 317.066,249.003 317.067 C 260.852 317.067,263.278 302.728,251.827 300.371 C 243.819 298.722,242.691 298.047,242.691 294.906 C 242.691 287.686,254.484 286.962,255.656 294.111 C 256.208 297.478,259.141 297.519,259.133 294.160 C 259.119 288.495,252.528 284.539,245.681 286.086 M264.650 286.343 C 263.730 287.360,263.986 309.861,264.939 311.783 C 268.024 318.005,277.118 319.110,281.965 313.852 C 283.985 311.660,284.049 311.175,284.051 298.130 C 284.053 285.273,284.048 285.238,282.123 285.914 L 281.229 286.228 281.063 297.903 L 280.897 309.579 279.900 310.984 C 277.706 314.079,272.228 314.711,269.474 312.187 C 267.545 310.419,267.457 309.792,267.449 297.781 C 267.443 288.210,267.373 286.690,266.920 286.236 C 266.220 285.536,265.343 285.578,264.650 286.343 M321.727 285.969 C 320.676 286.670,320.598 287.746,320.598 301.495 C 320.598 310.287,320.722 315.557,320.938 315.961 C 321.529 317.065,322.525 317.396,323.444 316.793 L 324.252 316.264 324.252 301.539 C 324.252 285.212,324.116 284.373,321.727 285.969 M335.548 286.081 C 332.669 286.913,329.876 289.853,329.266 292.693 C 327.985 298.667,328.940 317.276,330.528 317.276 C 332.147 317.276,332.212 316.816,332.305 304.622 L 332.392 293.131 333.334 291.773 C 335.684 288.384,342.100 288.353,344.593 291.720 C 345.680 293.188,345.831 294.873,345.844 305.648 C 345.858 316.673,345.905 317.027,347.342 317.027 C 348.789 317.027,348.827 316.706,348.832 304.301 L 348.837 292.489 347.981 290.771 C 345.993 286.781,340.413 284.676,335.548 286.081 M360.938 286.006 C 358.066 286.752,355.765 288.885,354.624 291.860 C 353.574 294.596,353.669 309.110,354.751 311.462 C 357.025 316.403,363.415 318.662,368.549 316.341 C 370.732 315.353,370.880 315.391,370.607 316.860 C 370.051 319.859,368.384 321.200,364.707 321.603 C 361.451 321.961,360.305 323.479,362.302 324.788 C 365.126 326.638,371.396 323.774,373.293 319.767 C 374.516 317.184,374.526 293.813,373.305 291.196 C 371.349 287.004,365.899 284.717,360.938 286.006 M111.322 290.124 C 113.414 291.534,113.953 292.750,113.953 296.051 C 113.953 299.836,114.216 299.707,106.735 299.592 L 100.831 299.502 100.831 296.320 C 100.831 291.098,102.473 289.390,107.509 289.376 C 109.766 289.370,110.382 289.491,111.322 290.124 M203.548 290.219 C 205.803 291.864,207.145 304.267,205.649 309.649 C 204.424 314.061,197.335 315.187,194.086 311.486 C 192.705 309.913,192.636 309.340,192.754 300.472 L 192.857 292.804 193.814 291.550 C 195.565 289.256,201.176 288.488,203.548 290.219 M368.332 290.234 C 370.425 291.795,370.587 292.486,370.706 300.332 C 370.765 304.261,370.718 308.117,370.600 308.901 C 369.729 314.724,359.943 315.460,357.828 309.862 C 357.355 308.610,357.356 294.045,357.829 292.796 C 359.045 289.587,365.389 288.039,368.332 290.234 " stroke="none" fill="#103f75" fill-rule="evenodd"></path><path id="path1" d="M0.000 166.113 L 0.000 332.226 200.000 332.226 L 400.000 332.226 400.000 166.113 L 400.000 0.000 200.000 0.000 L 0.000 0.000 0.000 166.113 M223.256 10.065 C 223.713 10.122,224.311 10.260,224.585 10.372 C 224.859 10.485,226.130 10.675,227.409 10.795 C 232.117 11.238,235.445 11.798,235.998 12.241 C 236.208 12.409,236.902 12.631,237.542 12.734 C 239.535 13.057,242.306 13.818,243.594 14.396 C 244.273 14.701,245.111 14.950,245.455 14.950 C 246.415 14.950,248.173 15.639,248.173 16.015 C 248.173 16.199,248.396 16.264,248.669 16.160 C 248.943 16.055,249.852 16.263,250.690 16.622 C 251.529 16.982,252.485 17.276,252.816 17.276 C 253.147 17.276,253.492 17.471,253.584 17.709 C 253.675 17.948,254.401 18.348,255.197 18.600 C 255.993 18.851,257.256 19.403,258.003 19.827 C 258.750 20.251,259.572 20.601,259.830 20.604 C 260.088 20.607,260.957 21.056,261.761 21.601 C 262.565 22.146,263.492 22.591,263.821 22.591 C 264.150 22.591,264.538 22.778,264.684 23.007 C 264.973 23.458,265.806 24.027,267.110 24.663 C 267.566 24.885,268.649 25.557,269.515 26.155 C 270.381 26.753,271.209 27.243,271.355 27.243 C 271.500 27.243,272.137 27.685,272.770 28.226 C 273.403 28.766,274.096 29.215,274.310 29.222 C 274.865 29.242,276.744 30.880,276.744 31.346 C 276.744 31.560,275.623 33.033,274.252 34.620 C 272.882 36.207,271.761 37.604,271.761 37.726 C 271.761 37.847,271.109 38.589,270.313 39.374 C 269.517 40.159,268.786 41.002,268.689 41.248 C 268.592 41.493,267.075 43.298,265.319 45.258 C 263.563 47.217,262.126 48.974,262.126 49.161 C 262.126 49.349,261.977 49.502,261.794 49.502 C 261.611 49.502,261.462 49.717,261.462 49.980 C 261.462 50.893,260.739 50.899,259.795 49.994 C 259.273 49.495,258.566 48.918,258.223 48.712 C 256.156 47.473,255.150 46.742,255.150 46.479 C 255.150 46.314,254.923 46.179,254.647 46.179 C 253.981 46.179,252.767 45.482,252.254 44.805 C 252.028 44.507,251.458 44.165,250.987 44.047 C 250.516 43.929,249.518 43.389,248.770 42.846 C 248.021 42.304,247.169 41.856,246.877 41.850 C 246.585 41.844,245.748 41.471,245.017 41.021 C 244.286 40.571,243.360 40.202,242.960 40.201 C 242.559 40.200,242.140 40.050,242.027 39.867 C 241.914 39.684,241.544 39.535,241.204 39.535 C 240.865 39.535,240.537 39.393,240.476 39.220 C 240.415 39.047,239.842 38.815,239.203 38.704 C 238.563 38.593,237.545 38.211,236.941 37.856 C 236.337 37.500,235.542 37.209,235.175 37.209 C 234.808 37.209,234.235 37.063,233.901 36.885 C 233.568 36.706,232.793 36.483,232.179 36.389 C 230.101 36.071,229.071 35.792,228.600 35.421 C 228.247 35.141,228.094 35.161,227.979 35.503 C 227.871 35.823,227.758 35.845,227.593 35.578 C 227.324 35.142,223.307 34.606,218.272 34.334 C 216.354 34.231,214.653 34.024,214.492 33.874 C 214.332 33.725,213.921 33.777,213.579 33.991 C 213.100 34.289,212.804 34.284,212.297 33.967 C 211.522 33.483,210.561 33.433,210.116 33.853 C 209.943 34.017,207.685 34.240,205.098 34.348 C 202.512 34.456,199.998 34.695,199.512 34.880 C 199.026 35.065,198.069 35.216,197.387 35.216 C 196.705 35.216,195.970 35.392,195.755 35.607 C 195.540 35.822,194.651 36.111,193.779 36.251 C 190.599 36.759,188.559 37.274,187.901 37.735 C 187.530 37.994,186.850 38.207,186.388 38.207 C 185.926 38.208,185.097 38.484,184.545 38.820 C 183.993 39.157,182.984 39.537,182.302 39.665 C 181.621 39.793,181.063 40.021,181.063 40.172 C 181.063 40.323,180.490 40.538,179.790 40.650 C 179.090 40.762,178.258 41.140,177.941 41.490 C 177.624 41.840,176.843 42.225,176.206 42.344 C 175.568 42.464,174.778 42.830,174.450 43.158 C 174.122 43.486,173.352 43.929,172.739 44.143 C 172.125 44.357,171.287 44.848,170.876 45.234 C 170.464 45.620,169.393 46.402,168.494 46.972 C 165.559 48.831,164.214 49.778,163.280 50.644 C 162.775 51.112,162.228 51.495,162.065 51.495 C 161.902 51.495,161.115 52.168,160.316 52.990 C 159.517 53.812,158.747 54.485,158.606 54.485 C 158.170 54.485,156.811 55.904,156.811 56.359 C 156.811 56.594,156.474 56.966,156.063 57.185 C 155.085 57.706,153.156 59.527,153.156 59.929 C 153.156 60.102,152.785 60.630,152.331 61.102 C 150.896 62.594,148.111 66.249,147.809 67.035 C 147.649 67.451,147.292 67.878,147.015 67.984 C 146.738 68.090,146.512 68.363,146.512 68.590 C 146.512 68.817,146.091 69.586,145.577 70.299 C 145.063 71.012,144.371 72.118,144.039 72.757 C 142.701 75.334,141.775 77.260,141.723 77.575 C 141.693 77.757,141.425 78.281,141.129 78.738 C 140.832 79.194,140.396 80.241,140.161 81.063 C 139.926 81.885,139.644 82.633,139.534 82.724 C 139.194 83.007,138.206 85.866,138.206 86.565 C 138.206 86.929,137.996 87.527,137.740 87.893 C 137.483 88.259,137.182 89.132,137.071 89.833 C 136.959 90.534,136.798 91.221,136.713 91.359 C 136.627 91.498,136.470 92.336,136.364 93.223 C 136.257 94.109,136.045 94.987,135.892 95.174 C 134.613 96.741,134.429 118.510,135.678 120.426 C 135.918 120.795,136.210 121.844,136.326 122.757 C 136.730 125.944,137.084 127.746,137.437 128.405 C 137.632 128.771,138.058 129.967,138.385 131.063 C 138.967 133.017,139.365 134.077,140.365 136.346 C 140.640 136.967,140.864 137.638,140.864 137.836 C 140.864 138.034,141.312 138.925,141.860 139.816 C 142.409 140.707,142.857 141.595,142.857 141.791 C 142.857 141.986,143.424 143.016,144.116 144.079 C 144.809 145.143,145.536 146.387,145.733 146.844 C 145.930 147.301,146.634 148.324,147.298 149.118 C 148.925 151.064,148.931 151.023,146.305 156.725 C 145.864 157.682,145.117 159.327,144.645 160.379 C 144.172 161.431,143.441 163.040,143.019 163.953 C 142.597 164.867,142.077 166.175,141.864 166.860 C 141.651 167.546,141.369 168.106,141.237 168.106 C 141.105 168.106,140.811 168.667,140.583 169.352 C 140.174 170.584,139.554 171.970,137.620 175.983 L 136.626 178.045 133.928 175.375 C 132.444 173.907,131.229 172.517,131.229 172.287 C 131.229 172.056,130.851 171.695,130.389 171.485 C 129.927 171.274,129.451 170.839,129.331 170.518 C 129.212 170.196,128.842 169.738,128.510 169.499 C 128.178 169.261,127.907 168.886,127.907 168.667 C 127.907 168.447,127.234 167.521,126.412 166.609 C 125.589 165.697,124.611 164.328,124.237 163.568 C 123.863 162.808,123.353 162.107,123.103 162.011 C 122.643 161.835,122.527 161.653,120.804 158.433 C 120.277 157.449,119.750 156.570,119.632 156.478 C 119.514 156.387,119.126 155.640,118.771 154.817 C 118.416 153.995,117.962 153.218,117.762 153.091 C 117.562 152.964,117.109 151.954,116.756 150.848 C 116.402 149.742,115.943 148.837,115.735 148.837 C 115.528 148.837,115.259 148.175,115.137 147.366 C 115.016 146.556,114.646 145.547,114.315 145.123 C 113.984 144.699,113.612 143.978,113.489 143.522 C 112.877 141.244,112.484 140.002,112.282 139.701 C 112.159 139.518,111.797 138.248,111.478 136.877 C 111.159 135.507,110.698 133.937,110.453 133.389 C 110.208 132.841,109.919 131.719,109.809 130.897 C 109.699 130.075,109.419 127.907,109.186 126.080 C 108.953 124.252,108.672 122.533,108.562 122.259 C 107.844 120.476,107.366 107.235,107.799 101.163 C 108.162 96.084,108.213 95.694,108.583 95.249 C 108.857 94.919,108.856 94.703,108.578 94.425 C 108.297 94.144,108.297 93.932,108.579 93.593 C 108.936 93.162,109.695 89.248,109.678 87.922 C 109.674 87.583,109.961 86.763,110.317 86.100 C 110.673 85.436,110.963 84.614,110.963 84.272 C 110.963 83.396,111.972 79.604,112.259 79.403 C 112.550 79.198,113.953 74.927,113.953 74.246 C 113.953 73.975,114.079 73.754,114.233 73.754 C 114.386 73.754,114.717 73.119,114.969 72.342 C 115.221 71.566,115.609 70.781,115.831 70.598 C 116.054 70.415,116.521 69.444,116.870 68.439 C 117.218 67.434,118.199 65.494,119.050 64.128 C 119.902 62.762,120.598 61.525,120.598 61.379 C 120.598 61.048,122.677 58.006,123.392 57.291 C 123.683 57.001,123.920 56.587,123.920 56.372 C 123.921 56.156,124.593 55.123,125.415 54.076 C 126.238 53.029,126.910 52.020,126.910 51.833 C 126.910 51.647,127.060 51.495,127.243 51.495 C 127.425 51.495,127.575 51.336,127.575 51.141 C 127.575 50.742,129.550 48.306,132.143 45.509 C 133.102 44.474,133.893 43.492,133.901 43.325 C 133.909 43.159,134.656 42.452,135.562 41.753 C 136.468 41.055,137.209 40.327,137.209 40.136 C 137.209 39.696,139.564 37.397,140.305 37.112 C 140.613 36.994,140.864 36.664,140.864 36.378 C 140.864 36.093,141.144 35.752,141.487 35.621 C 141.830 35.489,142.914 34.686,143.896 33.836 C 148.034 30.252,149.319 29.236,149.714 29.236 C 149.945 29.236,150.253 29.035,150.399 28.790 C 150.545 28.545,151.113 28.068,151.661 27.730 C 152.209 27.393,153.263 26.636,154.003 26.049 C 154.743 25.462,155.924 24.741,156.627 24.447 C 157.330 24.154,158.070 23.714,158.272 23.470 C 158.473 23.226,159.161 22.829,159.801 22.589 C 160.440 22.348,161.262 21.897,161.628 21.585 C 161.993 21.274,163.000 20.755,163.866 20.433 C 164.731 20.111,165.601 19.652,165.799 19.413 C 165.997 19.175,166.634 18.877,167.216 18.751 C 167.797 18.625,168.671 18.240,169.158 17.896 C 169.645 17.552,170.508 17.177,171.075 17.064 C 171.643 16.951,172.187 16.728,172.286 16.568 C 172.384 16.409,172.829 16.279,173.275 16.279 C 173.721 16.279,174.086 16.130,174.086 15.947 C 174.086 15.764,174.451 15.615,174.897 15.615 C 175.343 15.615,175.792 15.479,175.894 15.314 C 175.997 15.148,176.828 14.910,177.742 14.784 C 178.656 14.658,179.516 14.374,179.652 14.152 C 179.883 13.778,182.669 13.087,185.382 12.732 C 186.022 12.648,186.993 12.377,187.542 12.130 C 188.784 11.570,194.046 10.626,195.911 10.629 C 196.676 10.630,197.395 10.482,197.508 10.299 C 197.781 9.858,200.234 9.871,200.508 10.315 C 200.651 10.546,200.857 10.553,201.119 10.335 C 201.750 9.811,219.474 9.595,223.256 10.065 M200.996 43.189 C 201.244 43.829,201.868 45.290,202.384 46.437 C 202.900 47.583,203.322 48.605,203.322 48.707 C 203.322 48.893,204.717 52.158,206.185 55.409 C 206.620 56.373,206.977 57.252,206.977 57.360 C 206.977 57.469,207.373 58.474,207.858 59.593 C 209.805 64.088,212.204 69.736,216.271 79.402 C 218.952 85.775,219.360 86.737,220.704 89.867 C 221.332 91.329,222.628 94.394,223.584 96.678 C 224.540 98.962,225.737 101.802,226.246 102.990 C 227.435 105.769,230.133 112.203,231.886 116.445 C 232.642 118.272,233.469 120.216,233.724 120.764 C 233.980 121.312,235.188 124.153,236.409 127.076 C 237.631 130.000,238.983 133.181,239.415 134.146 C 239.846 135.111,240.199 135.989,240.199 136.098 C 240.199 136.206,240.700 137.435,241.311 138.829 C 241.923 140.222,242.799 142.259,243.259 143.355 C 243.719 144.452,244.853 147.143,245.780 149.336 C 250.630 160.803,251.413 162.669,251.587 163.168 C 252.375 165.423,238.051 172.578,227.097 175.400 C 222.619 176.554,223.847 178.068,217.947 164.120 C 216.286 160.191,214.635 156.368,214.280 155.623 C 213.924 154.879,213.404 153.621,213.124 152.828 C 212.845 152.035,212.493 151.224,212.344 151.025 C 212.194 150.827,211.873 150.141,211.631 149.502 C 211.389 148.862,210.931 147.741,210.614 147.010 C 210.296 146.279,208.671 142.467,207.002 138.538 C 205.333 134.610,203.602 130.573,203.155 129.568 C 202.709 128.563,201.761 126.351,201.049 124.652 L 199.754 121.562 198.880 122.601 C 198.400 123.172,198.007 123.778,198.007 123.949 C 198.007 124.269,195.768 129.694,194.652 132.082 C 194.304 132.825,194.020 133.531,194.020 133.651 C 194.020 133.772,193.571 134.850,193.023 136.047 C 192.475 137.243,192.027 138.302,192.027 138.399 C 192.027 138.495,191.747 139.202,191.405 139.968 C 191.063 140.735,190.220 142.708,189.530 144.352 C 188.268 147.363,185.718 153.401,182.724 160.465 C 181.834 162.566,180.195 166.453,179.082 169.103 C 177.969 171.752,176.764 174.560,176.403 175.341 C 176.043 176.123,175.748 176.809,175.748 176.866 C 175.748 176.923,176.383 177.155,177.159 177.381 C 177.936 177.607,179.169 178.062,179.900 178.393 C 180.631 178.724,182.089 179.250,183.140 179.561 C 184.190 179.873,185.052 180.301,185.055 180.513 C 185.058 180.754,185.166 180.730,185.345 180.447 C 185.582 180.072,185.764 180.083,186.420 180.512 C 186.854 180.795,188.779 181.276,190.698 181.580 C 192.616 181.884,194.454 182.271,194.783 182.441 C 196.514 183.335,216.362 183.489,218.340 182.623 C 218.942 182.359,220.706 181.980,222.259 181.780 C 226.440 181.242,228.290 180.849,229.402 180.263 C 229.950 179.975,230.801 179.737,231.293 179.736 C 231.784 179.735,232.279 179.585,232.392 179.402 C 232.505 179.219,232.953 179.070,233.389 179.070 C 233.824 179.070,234.272 178.920,234.385 178.738 C 234.498 178.555,234.864 178.405,235.198 178.405 C 235.531 178.405,236.233 178.182,236.756 177.909 C 237.279 177.636,237.949 177.412,238.244 177.411 C 238.539 177.410,239.143 177.124,239.585 176.776 C 240.027 176.428,241.004 175.978,241.755 175.776 C 242.506 175.574,243.193 175.222,243.280 174.994 C 243.367 174.766,244.205 174.304,245.141 173.967 C 246.087 173.627,246.844 173.149,246.844 172.890 C 246.844 172.634,247.082 172.425,247.374 172.425 C 248.002 172.425,249.858 171.437,250.331 170.850 C 250.718 170.371,253.129 169.103,253.653 169.103 C 254.134 169.103,254.942 170.561,255.630 172.671 C 255.942 173.628,256.323 174.489,256.477 174.584 C 256.631 174.679,257.080 175.801,257.475 177.076 C 257.870 178.352,258.319 179.474,258.473 179.569 C 258.627 179.664,259.010 180.515,259.324 181.459 C 259.637 182.404,260.153 183.635,260.471 184.196 C 260.788 184.757,261.248 185.926,261.493 186.794 C 261.738 187.662,262.032 188.372,262.146 188.372 C 262.259 188.372,262.557 189.007,262.808 189.784 C 263.058 190.561,263.674 192.036,264.177 193.063 C 264.680 194.090,265.408 195.732,265.794 196.712 C 266.180 197.692,266.859 199.285,267.301 200.253 C 267.744 201.221,268.106 202.090,268.106 202.184 C 268.106 202.278,269.013 204.479,270.121 207.075 C 272.312 212.210,274.256 216.791,277.409 224.252 C 278.528 226.902,280.173 230.789,281.063 232.890 C 281.954 234.992,283.598 238.879,284.718 241.528 C 285.837 244.178,287.482 248.065,288.372 250.166 C 292.270 259.364,294.005 263.483,295.159 266.279 C 296.236 268.890,296.819 270.246,297.265 271.182 C 297.331 271.321,289.823 271.396,280.580 271.349 L 263.774 271.262 262.097 267.442 C 261.174 265.341,260.126 262.874,259.767 261.960 C 259.408 261.047,258.897 259.850,258.632 259.302 C 258.367 258.754,255.898 252.998,253.146 246.512 C 247.440 233.063,246.730 231.405,245.639 228.977 C 245.205 228.012,244.850 227.130,244.850 227.016 C 244.850 226.902,244.493 226.046,244.056 225.115 C 243.619 224.184,242.341 221.254,241.216 218.605 C 240.091 215.955,238.719 212.741,238.167 211.462 C 237.614 210.183,236.843 208.389,236.452 207.475 C 236.060 206.561,235.713 205.767,235.679 205.711 C 235.565 205.518,231.400 206.375,230.399 206.798 C 229.171 207.316,223.453 208.209,219.435 208.510 C 217.791 208.633,216.359 208.866,216.253 209.028 C 215.945 209.500,199.445 209.474,198.874 209.001 C 198.550 208.731,198.330 208.716,198.183 208.954 C 197.933 209.358,196.678 209.430,196.678 209.040 C 196.678 208.896,194.772 208.597,192.442 208.376 C 190.112 208.155,187.832 207.906,187.375 207.824 C 186.919 207.741,185.723 207.571,184.718 207.446 C 183.713 207.320,182.698 207.065,182.462 206.879 C 182.226 206.693,181.286 206.423,180.373 206.279 C 179.459 206.134,178.246 205.784,177.677 205.500 C 177.108 205.216,176.329 204.978,175.946 204.972 C 175.563 204.965,174.875 204.746,174.419 204.485 C 173.962 204.224,173.214 204.004,172.757 203.996 C 172.301 203.989,171.478 203.685,170.930 203.322 C 170.382 202.959,169.604 202.661,169.202 202.660 C 168.353 202.657,166.777 201.999,166.777 201.647 C 166.777 201.514,166.496 201.333,166.153 201.243 C 165.501 201.073,165.383 201.313,161.390 210.963 C 160.672 212.699,159.874 214.568,159.617 215.116 C 158.846 216.764,155.150 225.539,155.150 225.723 C 155.150 225.817,154.792 226.683,154.354 227.648 C 153.917 228.613,153.006 230.748,152.330 232.392 C 151.655 234.037,150.742 236.171,150.302 237.136 C 149.862 238.101,149.502 238.988,149.502 239.108 C 149.502 239.227,149.218 239.933,148.871 240.676 C 148.524 241.419,147.680 243.372,146.996 245.017 C 145.766 247.974,143.340 253.723,140.197 261.130 C 139.306 263.231,137.976 266.370,137.243 268.106 L 135.909 271.262 119.284 271.349 C 107.316 271.411,102.658 271.332,102.658 271.068 C 102.658 270.866,102.873 270.304,103.137 269.819 C 103.400 269.334,104.168 267.591,104.843 265.947 C 105.518 264.302,106.482 261.985,106.986 260.797 C 107.489 259.610,108.685 256.769,109.644 254.485 C 111.282 250.581,113.138 246.190,116.944 237.209 C 120.578 228.633,122.557 223.940,123.668 221.262 C 126.442 214.579,128.369 210.015,129.108 208.379 C 129.544 207.414,129.900 206.546,129.900 206.449 C 129.900 206.352,130.713 204.376,131.705 202.057 C 134.350 195.879,137.437 188.562,138.599 185.714 C 139.159 184.344,139.876 182.625,140.193 181.894 C 140.510 181.163,140.965 180.042,141.204 179.402 C 141.444 178.762,141.751 178.090,141.888 177.907 C 142.024 177.724,142.471 176.603,142.880 175.415 C 143.289 174.228,143.808 172.957,144.033 172.591 C 144.259 172.226,144.696 171.144,145.004 170.187 C 145.313 169.229,145.690 168.370,145.842 168.276 C 145.994 168.182,146.385 167.246,146.711 166.195 C 147.038 165.145,147.574 163.837,147.904 163.289 C 148.233 162.741,148.503 162.121,148.504 161.911 C 148.504 161.701,149.327 159.813,150.332 157.714 C 151.337 155.616,152.159 153.800,152.159 153.679 C 152.159 153.558,153.066 151.335,154.174 148.739 C 156.366 143.604,158.309 139.022,161.462 131.561 C 164.614 124.100,166.558 119.519,168.750 114.384 C 169.858 111.788,170.764 109.586,170.764 109.492 C 170.764 109.397,171.213 108.340,171.761 107.143 C 172.309 105.946,172.757 104.883,172.757 104.782 C 172.757 104.680,173.222 103.525,173.790 102.215 C 174.359 100.905,175.018 99.385,175.256 98.837 C 175.494 98.289,176.247 96.495,176.929 94.850 C 178.098 92.030,179.996 87.527,183.721 78.738 C 184.611 76.636,186.257 72.749,187.377 70.100 C 188.497 67.450,190.226 63.385,191.218 61.066 C 192.211 58.747,193.023 56.771,193.023 56.674 C 193.023 56.577,193.383 55.709,193.823 54.744 C 194.263 53.779,195.176 51.645,195.852 50.000 C 196.528 48.355,197.438 46.221,197.876 45.256 C 198.313 44.291,198.671 43.417,198.671 43.313 C 198.671 43.209,198.915 42.610,199.213 41.982 C 199.823 40.696,200.105 40.886,200.996 43.189 M273.090 154.651 C 273.710 155.291,274.382 155.814,274.585 155.814 C 274.787 155.814,275.468 156.351,276.098 157.007 C 276.727 157.662,277.710 158.447,278.281 158.751 C 278.852 159.054,280.750 160.461,282.499 161.877 C 284.247 163.293,285.834 164.452,286.024 164.452 C 286.215 164.452,287.193 165.162,288.196 166.030 C 289.200 166.898,290.547 168.034,291.190 168.554 C 292.375 169.514,292.761 170.764,291.872 170.764 C 291.604 170.764,291.210 171.100,290.995 171.512 C 290.780 171.923,289.729 173.094,288.658 174.115 C 287.587 175.136,286.711 176.150,286.711 176.368 C 286.711 176.586,286.453 176.864,286.137 176.985 C 285.409 177.265,283.389 179.271,283.389 179.715 C 283.389 179.899,282.903 180.297,282.309 180.600 C 281.358 181.085,280.364 181.892,277.076 184.845 C 276.620 185.255,275.797 185.880,275.249 186.232 C 274.701 186.585,273.980 187.211,273.647 187.623 C 273.314 188.035,272.865 188.374,272.650 188.376 C 272.318 188.379,269.142 190.573,267.871 191.678 C 267.350 192.131,266.777 192.124,266.777 191.665 C 266.777 191.466,266.329 190.334,265.781 189.150 C 265.233 187.966,264.784 186.816,264.784 186.596 C 264.784 186.375,264.581 185.899,264.334 185.539 C 264.086 185.179,263.550 183.912,263.143 182.724 C 262.735 181.537,262.290 180.415,262.154 180.233 C 262.017 180.050,261.710 179.377,261.470 178.738 C 261.231 178.098,260.776 176.977,260.460 176.246 C 260.144 175.515,259.642 174.351,259.345 173.660 C 259.047 172.968,258.804 172.196,258.804 171.943 C 258.804 171.691,258.686 171.434,258.542 171.373 C 256.817 170.645,256.858 166.459,258.596 165.908 C 258.981 165.785,259.821 165.204,260.462 164.616 C 261.103 164.027,262.767 162.505,264.159 161.234 C 267.250 158.410,270.575 154.856,270.863 154.070 C 271.184 153.192,271.842 153.364,273.090 154.651 M48.041 278.651 C 54.048 281.743,54.591 283.509,54.746 300.472 C 54.896 316.947,54.852 317.276,52.487 317.276 C 50.694 317.276,50.498 316.518,50.498 309.555 L 50.498 303.311 41.777 303.400 L 33.056 303.488 32.966 310.042 C 32.867 317.272,32.804 317.465,30.639 317.213 C 28.965 317.018,28.913 316.567,28.913 301.993 C 28.913 284.006,29.516 281.781,35.216 278.733 C 38.462 276.997,44.751 276.957,48.041 278.651 M60.332 277.663 C 61.390 278.369,61.462 279.426,61.462 294.225 C 61.462 312.478,61.333 311.969,66.274 313.276 C 68.662 313.907,69.304 314.918,68.295 316.457 C 66.680 318.922,60.280 316.105,58.259 312.041 C 57.346 310.203,57.122 279.014,58.016 278.026 C 58.586 277.396,59.676 277.225,60.332 277.663 M76.469 277.958 C 77.275 278.688,77.313 281.580,76.527 282.449 C 75.106 284.019,73.090 282.786,73.090 280.347 C 73.090 277.838,74.912 276.550,76.469 277.958 M85.050 278.073 C 85.626 278.649,85.714 279.181,85.714 282.060 L 85.714 285.382 87.006 285.382 C 88.648 285.382,89.784 286.263,89.784 287.536 C 89.784 288.774,88.928 289.369,87.146 289.369 L 85.714 289.369 85.714 299.180 C 85.714 311.435,86.028 312.354,90.529 313.289 C 94.052 314.020,93.944 317.280,90.397 317.273 C 87.333 317.266,83.844 314.761,82.366 311.507 C 81.462 309.516,81.381 279.006,82.277 278.016 C 82.999 277.219,84.221 277.244,85.050 278.073 M179.089 278.465 C 184.169 280.800,188.154 288.519,185.308 290.513 C 183.797 291.571,182.067 290.366,182.053 288.244 C 182.001 280.960,169.660 278.672,165.623 285.198 L 164.618 286.823 164.513 296.533 C 164.446 302.695,164.537 306.722,164.761 307.556 C 167.043 316.029,180.653 315.457,182.057 306.829 C 182.675 303.033,186.047 302.755,186.047 306.500 C 186.047 318.154,167.088 321.511,161.786 310.797 C 160.572 308.346,160.319 288.015,161.463 284.955 C 163.821 278.653,172.526 275.448,179.089 278.465 M291.894 277.663 C 292.951 278.369,293.023 279.426,293.023 294.225 C 293.023 312.411,292.979 312.242,297.969 313.312 C 301.672 314.106,301.057 317.532,297.270 317.211 C 294.020 316.935,291.289 314.957,289.829 311.821 L 289.043 310.133 289.040 294.378 C 289.037 280.182,289.091 278.564,289.586 278.016 C 290.149 277.394,291.241 277.227,291.894 277.663 M308.030 277.958 C 308.544 278.424,308.638 279.038,308.638 281.945 L 308.638 285.382 309.785 285.382 C 312.268 285.382,313.554 286.913,312.466 288.573 C 312.031 289.238,311.670 289.369,310.273 289.369 L 308.602 289.369 308.703 299.419 C 308.828 311.814,308.964 312.180,313.923 313.413 C 317.519 314.308,316.872 317.494,313.155 317.196 C 309.592 316.910,306.626 314.629,305.361 311.200 C 304.288 308.293,304.248 279.141,305.316 278.073 C 306.124 277.265,307.213 277.219,308.030 277.958 M323.724 277.844 C 325.387 279.060,324.530 283.056,322.607 283.056 C 321.166 283.056,320.598 282.282,320.598 280.318 C 320.598 277.791,322.065 276.631,323.724 277.844 M38.346 281.864 C 34.127 283.185,33.093 285.370,32.942 293.272 L 32.827 299.336 41.663 299.336 L 50.498 299.336 50.498 293.294 C 50.498 286.390,50.212 285.330,47.792 283.258 C 45.700 281.468,41.562 280.857,38.346 281.864 M76.338 285.899 L 77.076 286.416 77.076 301.324 C 77.076 317.614,77.117 317.276,75.169 317.276 C 73.034 317.276,73.090 317.699,73.090 301.468 L 73.090 286.759 73.965 286.071 C 75.014 285.246,75.369 285.220,76.338 285.899 M112.207 286.365 C 116.402 288.190,118.452 292.634,117.645 298.156 C 116.982 302.689,116.179 303.103,107.641 303.322 L 101.163 303.488 101.072 305.814 C 100.871 310.938,102.542 313.037,106.983 313.239 C 111.017 313.422,112.979 312.044,113.631 308.567 C 114.320 304.897,117.856 304.947,117.703 308.625 C 117.298 318.388,102.219 320.811,97.955 311.797 L 97.010 309.801 97.010 301.608 C 97.010 292.013,97.263 290.864,99.960 288.201 C 102.813 285.385,108.121 284.589,112.207 286.365 M135.833 285.864 C 140.503 287.107,144.477 293.338,142.406 296.171 C 141.300 297.683,138.870 296.606,138.870 294.604 C 138.870 289.206,129.755 287.374,126.999 292.218 C 126.273 293.493,126.257 293.760,126.246 304.485 C 126.235 316.592,126.170 317.034,124.370 317.211 C 122.247 317.419,122.259 317.489,122.261 304.710 C 122.263 291.968,122.320 291.520,124.265 289.060 C 126.815 285.835,131.186 284.627,135.833 285.864 M202.566 285.852 C 208.415 287.409,209.635 290.069,209.635 301.272 C 209.635 314.236,207.766 317.110,199.336 317.110 C 194.076 317.110,191.668 315.770,189.829 311.821 C 188.839 309.695,188.604 294.332,189.522 291.731 C 191.246 286.845,196.834 284.326,202.566 285.852 M228.818 286.365 C 233.863 288.559,234.385 290.270,234.385 304.595 C 234.385 317.455,234.413 317.276,232.392 317.276 C 230.387 317.276,230.414 317.433,230.233 304.536 C 230.044 291.161,230.135 291.598,227.236 290.116 C 223.663 288.291,218.881 289.949,217.939 293.341 C 217.755 294.001,217.611 299.246,217.610 305.289 C 217.608 317.112,217.581 317.276,215.615 317.276 C 213.586 317.276,213.580 317.232,213.689 304.109 C 213.801 290.604,213.736 290.953,216.669 288.093 C 219.442 285.389,224.815 284.625,228.818 286.365 M252.916 286.048 C 256.321 287.099,258.639 289.778,259.313 293.436 C 259.772 295.931,258.571 297.410,256.673 296.689 C 255.842 296.373,255.687 296.052,255.326 293.917 C 254.258 287.600,243.542 288.008,242.929 294.389 C 242.645 297.346,243.909 298.330,249.530 299.521 C 257.987 301.314,260.803 304.687,258.978 310.835 C 256.498 319.183,242.184 319.573,239.388 311.367 C 238.392 308.445,238.949 305.980,240.605 305.980 C 241.827 305.980,242.461 306.608,242.697 308.052 C 243.841 315.057,254.737 315.334,255.398 308.375 C 255.663 305.592,254.648 304.794,249.386 303.648 C 241.278 301.882,238.868 299.925,238.872 295.110 C 238.879 287.905,245.370 283.717,252.916 286.048 M267.066 285.963 C 267.742 286.530,267.762 286.844,267.850 298.007 C 267.963 312.409,268.322 313.270,274.223 313.284 C 280.040 313.297,280.399 312.422,280.399 298.191 L 280.399 287.013 281.214 286.198 C 282.247 285.165,282.874 285.169,283.922 286.217 L 284.757 287.052 284.654 298.593 L 284.551 310.133 283.555 312.093 C 279.933 319.217,268.592 319.255,264.846 312.156 L 263.953 310.465 263.855 298.624 L 263.756 286.784 264.647 286.083 C 265.731 285.230,266.165 285.209,267.066 285.963 M323.769 286.198 L 324.585 287.013 324.585 301.406 C 324.585 317.278,324.585 317.276,322.596 317.276 C 320.544 317.276,320.598 317.705,320.598 301.324 L 320.598 286.416 321.336 285.899 C 322.349 285.190,322.819 285.247,323.769 286.198 M343.768 286.365 C 345.675 287.195,347.393 288.886,348.574 291.098 C 349.723 293.251,349.973 315.476,348.860 316.589 C 347.990 317.459,346.704 317.468,345.847 316.611 C 345.209 315.973,345.183 315.504,345.183 304.635 C 345.183 295.233,345.099 293.160,344.685 292.359 C 342.406 287.953,334.203 288.611,332.899 293.305 C 332.703 294.011,332.561 299.061,332.560 305.375 C 332.558 317.225,332.550 317.276,330.650 317.276 C 328.562 317.276,328.571 317.333,328.571 304.778 C 328.571 291.647,328.653 291.187,331.500 288.276 C 334.327 285.386,339.619 284.562,343.768 286.365 M367.394 285.864 C 370.579 286.711,372.777 288.777,373.907 291.985 C 374.670 294.154,374.661 316.339,373.895 318.918 C 372.522 323.542,365.063 327.325,362.043 324.929 C 359.990 323.300,361.305 321.529,364.720 321.324 C 367.897 321.133,370.427 319.013,370.431 316.539 L 370.432 315.637 369.186 316.373 C 367.482 317.380,361.008 317.462,359.077 316.502 C 357.290 315.613,355.509 313.746,354.613 311.821 C 353.623 309.695,353.388 294.332,354.306 291.731 C 356.036 286.828,361.617 284.326,367.394 285.864 M104.848 289.715 C 102.279 290.483,101.002 292.878,100.999 296.934 L 100.997 299.350 107.226 299.260 L 113.455 299.169 113.550 296.163 C 113.717 290.844,110.081 288.150,104.848 289.715 M196.013 290.112 C 193.215 291.612,193.035 292.286,193.029 301.307 C 193.024 308.496,193.076 309.201,193.708 310.506 C 195.463 314.132,202.127 314.396,204.631 310.939 L 205.648 309.535 205.648 301.573 C 205.648 293.973,205.614 293.553,204.913 292.305 C 203.364 289.548,199.049 288.486,196.013 290.112 M360.797 290.112 C 357.999 291.612,357.819 292.286,357.813 301.307 C 357.808 308.496,357.860 309.201,358.492 310.506 C 360.247 314.132,366.911 314.396,369.415 310.939 L 370.432 309.535 370.432 301.573 C 370.432 294.159,370.385 293.529,369.750 292.398 C 368.157 289.565,363.864 288.469,360.797 290.112 " stroke="none" fill="#fbfbfb" fill-rule="evenodd"></path><path id="path2" d="M197.560 10.216 C 197.475 10.353,198.125 10.465,199.003 10.465 C 199.882 10.465,200.532 10.353,200.447 10.216 C 200.362 10.079,199.713 9.967,199.003 9.967 C 198.294 9.967,197.644 10.079,197.560 10.216 M201.210 10.222 C 201.124 10.362,201.675 10.429,202.437 10.371 C 204.672 10.198,204.944 10.047,203.093 10.005 C 202.144 9.984,201.297 10.082,201.210 10.222 M220.930 10.095 C 220.930 10.166,221.371 10.288,221.909 10.367 C 222.448 10.446,222.813 10.389,222.720 10.239 C 222.556 9.973,220.930 9.842,220.930 10.095 M180.731 13.621 L 179.568 13.866 180.628 13.910 C 181.211 13.934,181.781 13.804,181.894 13.621 C 182.007 13.439,182.053 13.309,181.996 13.333 C 181.940 13.357,181.370 13.487,180.731 13.621 M240.532 13.751 C 240.532 13.822,241.044 13.941,241.671 14.014 C 242.298 14.087,242.737 14.029,242.648 13.884 C 242.487 13.624,240.532 13.501,240.532 13.751 M154.919 25.440 L 153.987 26.294 155.066 25.543 C 155.660 25.130,156.146 24.745,156.146 24.688 C 156.146 24.426,155.779 24.651,154.919 25.440 M276.034 30.644 C 276.283 30.961,276.397 31.455,276.287 31.741 C 276.172 32.040,276.227 32.174,276.416 32.057 C 276.923 31.744,276.805 31.026,276.163 30.522 C 275.637 30.110,275.625 30.121,276.034 30.644 M214.583 33.986 C 214.730 34.132,215.882 34.206,217.143 34.149 L 219.435 34.046 216.875 33.884 C 215.468 33.794,214.436 33.840,214.583 33.986 M203.204 34.142 C 203.117 34.283,203.631 34.342,204.347 34.274 C 205.062 34.205,205.648 34.090,205.648 34.018 C 205.648 33.771,203.362 33.887,203.204 34.142 M207.232 34.128 C 207.829 34.202,208.726 34.200,209.225 34.124 C 209.724 34.049,209.236 33.988,208.140 33.990 C 207.043 33.992,206.635 34.054,207.232 34.128 M178.792 90.214 C 178.235 91.435,178.341 91.696,178.943 90.585 C 179.224 90.067,179.392 89.580,179.316 89.504 C 179.240 89.428,179.004 89.747,178.792 90.214 M108.344 120.495 C 108.323 121.444,108.421 122.291,108.561 122.378 C 108.701 122.464,108.768 121.913,108.709 121.151 C 108.537 118.916,108.386 118.644,108.344 120.495 M135.919 122.323 C 135.898 123.180,135.999 123.954,136.143 124.043 C 136.288 124.133,136.354 123.656,136.290 122.983 C 136.096 120.929,135.959 120.687,135.919 122.323 M109.993 131.459 C 109.979 132.225,110.085 132.924,110.230 133.014 C 110.374 133.103,110.438 132.626,110.372 131.953 C 110.190 130.115,110.022 129.896,109.993 131.459 M257.848 170.107 C 258.351 171.595,258.634 171.884,258.329 170.598 C 258.199 170.050,257.950 169.455,257.775 169.277 C 257.600 169.098,257.633 169.472,257.848 170.107 M254.945 171.902 C 255.332 173.100,255.752 174.081,255.879 174.083 C 256.152 174.087,254.930 170.412,254.522 170.004 C 254.369 169.850,254.559 170.704,254.945 171.902 M143.504 173.634 C 143.321 174.116,143.232 174.572,143.308 174.648 C 143.383 174.723,143.604 174.329,143.798 173.771 C 144.230 172.532,143.969 172.410,143.504 173.634 M259.582 173.864 C 259.702 174.199,259.801 174.656,259.801 174.881 C 259.801 175.105,260.017 175.578,260.282 175.933 C 260.685 176.473,260.681 176.336,260.255 175.084 C 259.976 174.262,259.661 173.515,259.555 173.423 C 259.449 173.331,259.461 173.530,259.582 173.864 M256.292 174.946 C 256.434 175.295,256.689 176.062,256.859 176.649 C 257.029 177.236,257.337 177.822,257.544 177.949 C 257.803 178.110,257.840 177.984,257.662 177.546 C 257.519 177.196,257.264 176.430,257.095 175.843 C 256.925 175.255,256.617 174.670,256.410 174.542 C 256.150 174.382,256.114 174.507,256.292 174.946 M261.399 178.571 C 261.567 178.937,261.787 179.460,261.889 179.734 C 262.049 180.165,262.077 180.162,262.100 179.715 C 262.114 179.430,261.894 178.907,261.610 178.552 C 261.101 177.917,261.098 177.918,261.399 178.571 M258.686 180.888 C 258.968 181.715,259.326 182.470,259.482 182.567 C 259.639 182.663,259.536 182.066,259.254 181.239 C 258.972 180.412,258.614 179.656,258.458 179.559 C 258.302 179.463,258.404 180.061,258.686 180.888 M224.252 181.605 C 223.978 181.677,222.633 181.877,221.262 182.048 L 218.771 182.360 221.593 182.196 C 223.145 182.105,224.557 181.888,224.732 181.713 C 224.907 181.538,224.983 181.413,224.900 181.434 C 224.818 181.455,224.527 181.532,224.252 181.605 M139.857 182.410 C 139.656 182.786,139.541 183.241,139.601 183.422 C 139.661 183.602,139.882 183.295,140.092 182.739 C 140.529 181.582,140.398 181.400,139.857 182.410 M190.532 181.903 C 191.153 182.183,195.044 182.619,194.781 182.379 C 194.636 182.248,193.547 182.053,192.359 181.947 C 191.171 181.840,190.349 181.821,190.532 181.903 M263.598 183.887 C 263.728 184.435,263.977 185.030,264.152 185.208 C 264.327 185.387,264.294 185.013,264.079 184.378 C 263.576 182.890,263.293 182.601,263.598 183.887 M260.419 185.004 C 260.757 185.963,261.201 186.915,261.407 187.121 C 261.612 187.326,261.487 186.693,261.130 185.714 C 260.772 184.735,260.327 183.782,260.142 183.597 C 259.957 183.412,260.081 184.045,260.419 185.004 M265.390 188.357 C 265.696 189.079,265.993 189.538,266.050 189.376 C 266.155 189.077,265.210 187.043,264.966 187.043 C 264.893 187.043,265.084 187.634,265.390 188.357 M262.420 189.852 C 263.104 191.653,263.569 192.217,263.086 190.660 C 262.894 190.041,262.657 189.273,262.559 188.953 C 262.461 188.634,262.263 188.372,262.120 188.372 C 261.976 188.372,262.111 189.038,262.420 189.852 M263.708 192.867 C 263.794 193.318,263.983 193.688,264.127 193.688 C 264.435 193.688,264.152 192.418,263.795 192.198 C 263.661 192.115,263.622 192.416,263.708 192.867 M182.629 206.988 C 182.933 207.261,186.558 207.710,186.289 207.440 C 186.189 207.341,185.267 207.146,184.238 207.006 C 183.209 206.867,182.485 206.858,182.629 206.988 M227.741 207.045 C 226.462 207.219,225.306 207.466,225.173 207.594 C 225.039 207.722,226.036 207.673,227.388 207.485 C 228.740 207.297,229.958 207.031,230.095 206.894 C 230.232 206.757,230.281 206.664,230.205 206.687 C 230.129 206.710,229.020 206.872,227.741 207.045 M199.419 209.199 C 199.738 209.283,200.262 209.283,200.581 209.199 C 200.901 209.116,200.640 209.047,200.000 209.047 C 199.360 209.047,199.099 209.116,199.419 209.199 M201.546 209.219 C 201.462 209.356,202.111 209.468,202.990 209.468 C 203.869 209.468,204.518 209.356,204.434 209.219 C 204.349 209.082,203.699 208.970,202.990 208.970 C 202.281 208.970,201.631 209.082,201.546 209.219 M205.201 209.219 C 205.116 209.356,205.766 209.468,206.645 209.468 C 207.523 209.468,208.173 209.356,208.088 209.219 C 208.004 209.082,207.354 208.970,206.645 208.970 C 205.935 208.970,205.286 209.082,205.201 209.219 M208.854 209.219 C 208.769 209.356,209.919 209.428,211.409 209.379 C 216.066 209.225,216.593 209.084,212.727 209.026 C 210.682 208.995,208.940 209.082,208.854 209.219 M289.060 252.326 C 289.060 252.508,289.274 253.032,289.535 253.488 C 289.796 253.945,290.010 254.169,290.010 253.987 C 290.010 253.804,289.796 253.281,289.535 252.824 C 289.274 252.367,289.060 252.143,289.060 252.326 M292.715 260.963 C 292.715 261.146,292.928 261.669,293.189 262.126 C 293.451 262.583,293.664 262.807,293.664 262.625 C 293.664 262.442,293.451 261.919,293.189 261.462 C 292.928 261.005,292.715 260.781,292.715 260.963 M73.150 280.264 C 73.100 281.654,73.223 282.070,73.837 282.590 C 74.579 283.218,74.581 283.218,74.025 282.556 C 73.717 282.189,73.407 281.142,73.337 280.230 L 73.209 278.571 73.150 280.264 M85.529 282.060 L 85.548 285.548 86.963 285.581 L 88.377 285.613 87.057 285.479 L 85.737 285.345 85.623 281.958 L 85.510 278.571 85.529 282.060 M304.805 294.186 C 304.804 302.774,304.847 306.335,304.900 302.099 C 304.953 297.864,304.953 290.837,304.900 286.485 C 304.848 282.132,304.805 285.598,304.805 294.186 M61.283 294.020 C 61.283 302.334,61.326 305.735,61.378 301.578 C 61.431 297.421,61.431 290.619,61.378 286.462 C 61.326 282.305,61.283 285.706,61.283 294.020 M292.844 294.020 C 292.844 302.334,292.887 305.735,292.940 301.578 C 292.993 297.421,292.993 290.619,292.940 286.462 C 292.887 282.305,292.844 285.706,292.844 294.020 M324.343 280.399 C 324.343 281.221,324.408 281.557,324.487 281.146 C 324.566 280.735,324.566 280.062,324.487 279.651 C 324.408 279.240,324.343 279.576,324.343 280.399 M172.508 281.301 C 173.011 281.377,173.833 281.377,174.336 281.301 C 174.838 281.225,174.427 281.163,173.422 281.163 C 172.417 281.163,172.006 281.225,172.508 281.301 M179.070 282.828 C 179.070 282.885,179.556 283.371,180.150 283.908 L 181.229 284.884 180.253 283.804 C 179.344 282.798,179.070 282.572,179.070 282.828 M106.222 285.622 C 106.812 285.695,107.858 285.696,108.547 285.625 C 109.237 285.553,108.754 285.493,107.475 285.491 C 106.196 285.490,105.632 285.548,106.222 285.622 M131.139 285.622 C 131.729 285.695,132.775 285.696,133.464 285.625 C 134.154 285.553,133.671 285.493,132.392 285.491 C 131.113 285.490,130.549 285.548,131.139 285.622 M198.256 285.622 C 198.850 285.696,199.821 285.696,200.415 285.622 C 201.009 285.549,200.523 285.488,199.336 285.488 C 198.148 285.488,197.662 285.549,198.256 285.622 M222.833 285.622 C 223.423 285.695,224.469 285.696,225.159 285.625 C 225.848 285.553,225.365 285.493,224.086 285.491 C 222.807 285.490,222.243 285.548,222.833 285.622 M247.750 285.622 C 248.340 285.695,249.386 285.696,250.076 285.625 C 250.765 285.553,250.282 285.493,249.003 285.491 C 247.724 285.490,247.160 285.548,247.750 285.622 M309.219 285.617 C 309.630 285.696,310.303 285.696,310.714 285.617 C 311.125 285.537,310.789 285.473,309.967 285.473 C 309.145 285.473,308.808 285.537,309.219 285.617 M337.783 285.622 C 338.373 285.695,339.420 285.696,340.109 285.625 C 340.798 285.553,340.316 285.493,339.037 285.491 C 337.757 285.490,337.194 285.548,337.783 285.622 M363.040 285.622 C 363.634 285.696,364.605 285.696,365.199 285.622 C 365.793 285.549,365.307 285.488,364.120 285.488 C 362.932 285.488,362.446 285.549,363.040 285.622 M73.164 301.392 C 73.123 309.558,73.202 316.309,73.339 316.394 C 73.565 316.534,73.561 305.450,73.329 291.860 C 73.279 288.937,73.205 293.226,73.164 301.392 M263.937 298.173 C 263.937 304.568,263.982 307.137,264.036 303.882 C 264.091 300.627,264.090 295.395,264.036 292.254 C 263.981 289.114,263.937 291.777,263.937 298.173 M114.618 288.206 C 115.238 288.846,115.820 289.369,115.911 289.369 C 116.002 289.369,115.570 288.846,114.950 288.206 C 114.330 287.566,113.748 287.043,113.657 287.043 C 113.566 287.043,113.998 287.566,114.618 288.206 M125.062 288.123 L 124.086 289.203 125.166 288.227 C 126.173 287.317,126.399 287.043,126.142 287.043 C 126.085 287.043,125.599 287.529,125.062 288.123 M231.229 288.206 C 231.849 288.846,232.431 289.369,232.522 289.369 C 232.614 289.369,232.181 288.846,231.561 288.206 C 230.942 287.566,230.360 287.043,230.268 287.043 C 230.177 287.043,230.609 287.566,231.229 288.206 M241.673 288.123 L 240.698 289.203 241.777 288.227 C 242.784 287.317,243.010 287.043,242.753 287.043 C 242.696 287.043,242.210 287.529,241.673 288.123 M280.548 298.173 C 280.548 304.385,280.593 306.880,280.647 303.716 C 280.702 300.553,280.702 295.470,280.647 292.421 C 280.592 289.372,280.548 291.960,280.548 298.173 M284.534 298.007 C 284.534 304.128,284.579 306.632,284.634 303.571 C 284.689 300.511,284.689 295.502,284.634 292.442 C 284.579 289.381,284.534 291.885,284.534 298.007 M324.405 301.495 C 324.405 309.535,324.449 312.776,324.501 308.698 C 324.554 304.620,324.554 298.042,324.501 294.080 C 324.448 290.119,324.405 293.455,324.405 301.495 M29.056 301.827 C 29.056 309.502,29.099 312.594,29.153 308.699 C 29.206 304.803,29.206 298.524,29.152 294.745 C 29.099 290.966,29.056 294.153,29.056 301.827 M50.572 293.931 L 50.498 299.325 41.777 299.419 L 33.056 299.513 41.788 299.590 C 48.674 299.651,50.554 299.577,50.684 299.239 C 50.774 299.002,50.803 296.498,50.747 293.674 L 50.646 288.538 50.572 293.931 M54.636 302.159 C 54.637 309.468,54.680 312.411,54.734 308.699 C 54.787 304.986,54.787 299.006,54.734 295.410 C 54.680 291.813,54.636 294.850,54.636 302.159 M85.529 299.003 C 85.529 304.394,85.575 306.599,85.631 303.904 C 85.686 301.208,85.686 296.798,85.631 294.103 C 85.575 291.408,85.529 293.613,85.529 299.003 M102.471 291.113 L 101.495 292.193 102.575 291.217 C 103.581 290.307,103.807 290.033,103.551 290.033 C 103.493 290.033,103.007 290.519,102.471 291.113 M136.213 290.137 C 136.213 290.194,136.699 290.680,137.292 291.217 L 138.372 292.193 137.396 291.113 C 136.487 290.106,136.213 289.881,136.213 290.137 M219.082 291.113 L 218.106 292.193 219.186 291.217 C 219.780 290.680,220.266 290.194,220.266 290.137 C 220.266 289.881,219.992 290.106,219.082 291.113 M252.824 290.137 C 252.824 290.194,253.310 290.680,253.904 291.217 L 254.983 292.193 254.008 291.113 C 253.098 290.106,252.824 289.881,252.824 290.137 M334.032 291.113 L 333.056 292.193 334.136 291.217 C 334.730 290.680,335.216 290.194,335.216 290.137 C 335.216 289.881,334.942 290.106,334.032 291.113 M328.644 304.548 C 328.604 310.979,328.684 316.309,328.821 316.394 C 329.048 316.535,329.042 307.507,328.808 297.010 C 328.757 294.726,328.683 298.118,328.644 304.548 M142.609 294.518 C 142.612 295.249,142.680 295.509,142.760 295.096 C 142.839 294.683,142.836 294.085,142.753 293.767 C 142.670 293.449,142.605 293.787,142.609 294.518 M259.220 294.518 C 259.224 295.249,259.292 295.509,259.371 295.096 C 259.451 294.683,259.448 294.085,259.364 293.767 C 259.281 293.449,259.216 293.787,259.220 294.518 M113.733 296.013 C 113.733 297.384,113.792 297.944,113.863 297.259 C 113.935 296.574,113.935 295.453,113.863 294.767 C 113.792 294.082,113.733 294.643,113.733 296.013 M126.063 304.651 C 126.063 310.772,126.107 313.277,126.162 310.216 C 126.217 307.155,126.217 302.147,126.162 299.086 C 126.107 296.026,126.063 298.530,126.063 304.651 M242.609 294.850 C 242.612 295.581,242.680 295.841,242.760 295.428 C 242.839 295.015,242.836 294.417,242.753 294.099 C 242.670 293.781,242.605 294.120,242.609 294.850 M345.257 304.671 C 345.192 314.394,345.250 315.902,345.706 316.465 C 345.993 316.819,346.105 316.885,345.955 316.611 C 345.804 316.337,345.602 311.030,345.506 304.817 L 345.332 293.522 345.257 304.671 M117.703 295.515 C 117.705 296.429,117.770 296.763,117.846 296.258 C 117.923 295.753,117.921 295.005,117.842 294.597 C 117.763 294.188,117.701 294.601,117.703 295.515 M192.833 301.495 C 192.834 305.698,192.881 307.371,192.939 305.214 C 192.997 303.056,192.997 299.618,192.939 297.573 C 192.881 295.527,192.833 297.292,192.833 301.495 M230.381 304.983 C 230.381 311.105,230.426 313.609,230.481 310.548 C 230.536 307.488,230.536 302.479,230.481 299.419 C 230.426 296.358,230.381 298.862,230.381 304.983 M234.368 304.817 C 234.368 310.847,234.413 313.361,234.468 310.403 C 234.523 307.445,234.523 302.512,234.468 299.440 C 234.413 296.367,234.368 298.787,234.368 304.817 M349.318 304.983 C 349.318 311.105,349.363 313.609,349.418 310.548 C 349.473 307.488,349.473 302.479,349.418 299.419 C 349.363 296.358,349.318 298.862,349.318 304.983 M357.618 301.495 C 357.618 305.698,357.665 307.371,357.723 305.214 C 357.781 303.056,357.781 299.618,357.723 297.573 C 357.665 295.527,357.617 297.292,357.618 301.495 M205.787 301.329 C 205.787 304.892,205.836 306.350,205.896 304.568 C 205.955 302.787,205.955 299.871,205.896 298.090 C 205.836 296.308,205.787 297.766,205.787 301.329 M103.405 299.582 C 104.821 299.645,107.139 299.645,108.555 299.582 C 109.971 299.520,108.812 299.469,105.980 299.469 C 103.148 299.469,101.989 299.520,103.405 299.582 M111.711 303.219 C 112.031 303.303,112.554 303.303,112.874 303.219 C 113.194 303.135,112.932 303.067,112.292 303.067 C 111.653 303.067,111.391 303.135,111.711 303.219 M50.637 309.801 C 50.637 313.272,50.686 314.648,50.746 312.856 C 50.806 311.065,50.806 308.225,50.746 306.544 C 50.685 304.863,50.637 306.329,50.637 309.801 M259.236 307.973 C 259.236 308.978,259.298 309.390,259.374 308.887 C 259.450 308.385,259.450 307.562,259.374 307.060 C 259.298 306.557,259.236 306.968,259.236 307.973 M204.318 311.379 C 203.829 312.047,203.749 312.279,204.107 311.987 C 204.652 311.545,205.476 310.299,205.224 310.299 C 205.160 310.299,204.753 310.785,204.318 311.379 M369.102 311.379 C 368.613 312.047,368.533 312.279,368.892 311.987 C 369.436 311.545,370.260 310.299,370.008 310.299 C 369.944 310.299,369.537 310.785,369.102 311.379 M99.668 314.452 C 100.288 315.091,100.870 315.615,100.961 315.615 C 101.052 315.615,100.620 315.091,100.000 314.452 C 99.380 313.812,98.798 313.289,98.707 313.289 C 98.616 313.289,99.048 313.812,99.668 314.452 M106.229 313.529 C 106.823 313.603,107.795 313.603,108.389 313.529 C 108.983 313.456,108.497 313.395,107.309 313.395 C 106.121 313.395,105.635 313.456,106.229 313.529 M198.256 313.529 C 198.850 313.603,199.821 313.603,200.415 313.529 C 201.009 313.456,200.523 313.395,199.336 313.395 C 198.148 313.395,197.662 313.456,198.256 313.529 M248.090 313.529 C 248.684 313.603,249.655 313.603,250.249 313.529 C 250.843 313.456,250.357 313.395,249.169 313.395 C 247.982 313.395,247.496 313.456,248.090 313.529 M266.445 314.452 C 267.065 315.091,267.647 315.615,267.738 315.615 C 267.830 315.615,267.397 315.091,266.777 314.452 C 266.158 313.812,265.576 313.289,265.484 313.289 C 265.393 313.289,265.825 313.812,266.445 314.452 M273.007 313.529 C 273.600 313.603,274.572 313.603,275.166 313.529 C 275.760 313.456,275.274 313.395,274.086 313.395 C 272.899 313.395,272.413 313.456,273.007 313.529 M306.312 313.393 C 306.312 313.450,306.798 313.936,307.392 314.473 L 308.472 315.449 307.496 314.369 C 306.586 313.362,306.312 313.136,306.312 313.393 M363.040 313.529 C 363.634 313.603,364.605 313.603,365.199 313.529 C 365.793 313.456,365.307 313.395,364.120 313.395 C 362.932 313.395,362.446 313.456,363.040 313.529 M363.875 321.501 C 364.380 321.577,365.128 321.575,365.536 321.496 C 365.945 321.417,365.532 321.355,364.618 321.357 C 363.704 321.360,363.370 321.424,363.875 321.501 M363.543 325.488 C 364.048 325.564,364.795 325.562,365.204 325.483 C 365.613 325.404,365.199 325.342,364.286 325.344 C 363.372 325.347,363.038 325.411,363.543 325.488 " stroke="none" fill="#9aa4b4" fill-rule="evenodd"></path><path id="path3" d="M258.702 171.517 C 258.966 172.291,259.323 173.067,259.495 173.243 C 259.667 173.419,259.568 172.858,259.275 171.997 C 258.982 171.137,258.625 170.360,258.481 170.272 C 258.338 170.183,258.437 170.744,258.702 171.517 M260.188 174.834 C 260.376 175.428,260.607 176.250,260.702 176.661 C 260.797 177.072,260.996 177.409,261.145 177.409 C 261.417 177.409,261.173 176.355,260.509 174.668 C 260.009 173.398,259.773 173.521,260.188 174.834 M261.794 178.493 C 261.794 178.878,262.923 181.942,263.161 182.204 C 263.317 182.374,263.282 182.000,263.085 181.373 C 262.888 180.746,262.649 179.894,262.553 179.480 C 262.410 178.860,261.794 178.059,261.794 178.493 M264.018 184.142 C 264.282 184.915,264.639 185.692,264.811 185.868 C 264.983 186.043,264.884 185.483,264.591 184.622 C 264.297 183.761,263.940 182.985,263.797 182.896 C 263.654 182.808,263.753 183.368,264.018 184.142 M198.505 183.254 C 200.061 183.504,202.250 183.535,202.108 183.306 C 202.023 183.169,201.029 183.077,199.897 183.102 C 198.766 183.127,198.140 183.195,198.505 183.254 M214.873 183.297 C 215.470 183.371,216.367 183.370,216.866 183.294 C 217.366 183.218,216.877 183.158,215.781 183.159 C 214.684 183.161,214.276 183.223,214.873 183.297 M259.495 183.408 C 259.480 183.693,259.701 184.216,259.985 184.571 C 260.494 185.206,260.497 185.205,260.196 184.551 C 260.028 184.186,259.807 183.663,259.706 183.389 C 259.546 182.958,259.517 182.961,259.495 183.408 M261.517 188.389 C 261.712 188.947,261.932 189.341,262.008 189.266 C 262.172 189.101,261.545 187.375,261.321 187.375 C 261.235 187.375,261.323 187.832,261.517 188.389 M265.552 187.708 C 265.654 187.982,265.920 188.767,266.144 189.452 C 266.367 190.137,266.659 190.698,266.791 190.698 C 267.102 190.698,266.176 187.977,265.716 187.542 C 265.476 187.314,265.424 187.366,265.552 187.708 M41.117 277.644 C 41.530 277.723,42.128 277.720,42.446 277.637 C 42.763 277.554,42.425 277.489,41.694 277.492 C 40.963 277.496,40.704 277.564,41.117 277.644 M308.429 282.060 C 308.429 283.978,308.483 284.763,308.551 283.804 C 308.618 282.845,308.618 281.275,308.551 280.316 C 308.483 279.356,308.429 280.141,308.429 282.060 M76.835 280.399 C 76.835 281.221,76.899 281.557,76.979 281.146 C 77.058 280.735,77.058 280.062,76.979 279.651 C 76.899 279.240,76.835 279.576,76.835 280.399 M32.371 281.146 L 31.395 282.226 32.475 281.250 C 33.482 280.341,33.708 280.066,33.451 280.066 C 33.394 280.066,32.908 280.552,32.371 281.146 M284.203 298.173 C 284.203 304.568,284.247 307.137,284.302 303.882 C 284.356 300.627,284.356 295.395,284.302 292.254 C 284.247 289.114,284.203 291.777,284.203 298.173 M76.897 301.495 C 76.897 309.535,76.940 312.776,76.993 308.698 C 77.046 304.620,77.046 298.042,76.993 294.080 C 76.940 290.119,76.897 293.455,76.897 301.495 M267.591 298.007 C 267.591 304.128,267.636 306.632,267.690 303.571 C 267.745 300.511,267.745 295.502,267.690 292.442 C 267.636 289.381,267.591 291.885,267.591 298.007 M280.879 297.674 C 280.879 303.613,280.924 306.042,280.979 303.073 C 281.035 300.104,281.035 295.245,280.979 292.276 C 280.924 289.306,280.879 291.736,280.879 297.674 M54.305 301.827 C 54.305 309.502,54.349 312.594,54.402 308.699 C 54.455 304.803,54.455 298.524,54.402 294.745 C 54.348 290.966,54.305 294.153,54.305 301.827 M308.453 299.003 C 308.453 304.394,308.498 306.599,308.554 303.904 C 308.610 301.208,308.610 296.798,308.554 294.103 C 308.498 291.408,308.453 293.613,308.453 299.003 M348.987 304.485 C 348.987 310.880,349.032 313.450,349.086 310.195 C 349.140 306.939,349.140 301.707,349.086 298.567 C 349.031 295.426,348.987 298.090,348.987 304.485 M117.387 295.681 C 117.387 297.051,117.446 297.612,117.518 296.927 C 117.589 296.242,117.589 295.120,117.518 294.435 C 117.446 293.750,117.387 294.311,117.387 295.681 M234.036 304.651 C 234.036 310.955,234.081 313.534,234.136 310.382 C 234.190 307.230,234.190 302.072,234.136 298.920 C 234.081 295.768,234.036 298.347,234.036 304.651 M100.782 296.512 C 100.781 298.156,100.838 298.871,100.907 298.100 C 100.977 297.329,100.978 295.983,100.909 295.110 C 100.840 294.236,100.783 294.867,100.782 296.512 M332.375 304.651 C 332.375 310.772,332.420 313.277,332.475 310.216 C 332.529 307.155,332.529 302.147,332.475 299.086 C 332.420 296.026,332.375 298.530,332.375 304.651 M345.663 305.316 C 345.663 311.254,345.708 313.684,345.764 310.714 C 345.819 307.745,345.819 302.886,345.764 299.917 C 345.708 296.948,345.663 299.377,345.663 305.316 M37.312 303.239 C 39.836 303.295,43.872 303.295,46.282 303.238 C 48.692 303.182,46.628 303.135,41.694 303.135 C 36.761 303.136,34.789 303.182,37.312 303.239 M100.805 303.435 C 100.711 303.679,100.686 305.062,100.749 306.508 L 100.863 309.136 100.930 306.238 L 100.997 303.341 105.731 303.238 L 110.465 303.136 105.720 303.063 C 102.012 303.006,100.939 303.087,100.805 303.435 M117.353 308.306 C 117.353 308.945,117.421 309.207,117.505 308.887 C 117.588 308.567,117.588 308.044,117.505 307.724 C 117.421 307.404,117.353 307.666,117.353 308.306 M114.763 314.369 L 113.787 315.449 114.867 314.473 C 115.874 313.563,116.100 313.289,115.843 313.289 C 115.786 313.289,115.300 313.775,114.763 314.369 M281.377 314.535 L 280.233 315.781 281.478 314.636 C 282.638 313.570,282.877 313.289,282.623 313.289 C 282.568 313.289,282.007 313.850,281.377 314.535 " stroke="none" fill="#7c8494" fill-rule="evenodd"></path><path id="path4" d="M203.156 183.389 L 202.159 183.642 203.053 183.682 C 203.545 183.703,204.040 183.571,204.153 183.389 C 204.266 183.206,204.312 183.074,204.255 183.096 C 204.199 183.117,203.704 183.249,203.156 183.389 M206.146 183.389 L 204.485 183.617 206.044 183.669 C 206.901 183.697,207.694 183.571,207.807 183.389 C 207.920 183.206,207.966 183.080,207.910 183.109 C 207.854 183.137,207.060 183.263,206.146 183.389 M209.801 183.389 L 208.140 183.617 209.698 183.669 C 210.555 183.697,211.349 183.571,211.462 183.389 C 211.575 183.206,211.621 183.080,211.564 183.109 C 211.508 183.137,210.714 183.263,209.801 183.389 M40.787 281.304 C 41.384 281.378,42.281 281.376,42.780 281.301 C 43.279 281.225,42.791 281.164,41.694 281.166 C 40.598 281.168,40.190 281.230,40.787 281.304 M97.152 301.495 C 97.152 305.515,97.200 307.114,97.258 305.048 C 97.317 302.982,97.316 299.693,97.258 297.739 C 97.199 295.785,97.151 297.475,97.152 301.495 M209.444 301.495 C 209.444 305.515,209.492 307.114,209.551 305.048 C 209.609 302.982,209.609 299.693,209.550 297.739 C 209.491 295.785,209.444 297.475,209.444 301.495 M213.770 304.983 C 213.770 310.922,213.815 313.351,213.870 310.382 C 213.925 307.413,213.925 302.554,213.870 299.585 C 213.815 296.615,213.770 299.045,213.770 304.983 M374.236 305.482 C 374.236 311.694,374.280 314.189,374.335 311.025 C 374.390 307.862,374.390 302.778,374.335 299.730 C 374.280 296.681,374.235 299.269,374.236 305.482 M217.424 305.316 C 217.424 311.254,217.469 313.684,217.524 310.714 C 217.579 307.745,217.579 302.886,217.524 299.917 C 217.469 296.948,217.424 299.377,217.424 305.316 M370.573 301.495 C 370.573 305.332,370.621 306.856,370.680 304.882 C 370.739 302.908,370.739 299.769,370.679 297.906 C 370.620 296.043,370.572 297.658,370.573 301.495 " stroke="none" fill="#7f8c9c" fill-rule="evenodd"></path><path id="path5" d="M204.801 9.948 C 204.627 10.120,202.361 10.338,199.765 10.432 C 194.851 10.610,189.257 11.387,187.542 12.129 C 186.993 12.366,185.573 12.735,184.385 12.950 C 183.198 13.164,182.084 13.478,181.910 13.647 C 181.737 13.815,181.185 13.953,180.684 13.953 C 180.183 13.953,179.690 14.089,179.587 14.255 C 179.485 14.420,178.643 14.660,177.717 14.787 C 176.790 14.915,175.958 15.212,175.868 15.449 C 175.777 15.685,175.036 15.978,174.221 16.100 C 173.406 16.223,172.182 16.593,171.502 16.923 C 168.524 18.369,167.169 18.937,166.699 18.937 C 166.421 18.937,166.015 19.153,165.795 19.418 C 165.576 19.682,164.698 20.156,163.844 20.470 C 162.991 20.784,161.993 21.298,161.628 21.611 C 161.262 21.925,159.917 22.743,158.638 23.429 C 157.359 24.115,155.836 25.029,155.255 25.461 C 154.673 25.893,154.106 26.246,153.995 26.246 C 153.725 26.246,151.965 27.491,150.357 28.821 C 149.638 29.414,148.868 29.900,148.647 29.900 C 148.425 29.900,148.158 30.124,148.053 30.397 C 147.949 30.670,147.414 31.166,146.866 31.499 C 143.623 33.472,129.575 47.479,129.570 48.746 C 129.569 48.971,129.217 49.384,128.789 49.665 C 128.360 49.946,127.842 50.543,127.637 50.992 C 127.433 51.441,126.576 52.655,125.734 53.688 C 124.892 54.722,124.073 55.909,123.915 56.326 C 123.756 56.744,122.945 57.981,122.112 59.076 C 121.279 60.171,120.598 61.234,120.598 61.437 C 120.598 61.641,120.191 62.440,119.694 63.213 C 118.416 65.199,116.611 68.730,116.611 69.244 C 116.611 69.483,116.340 70.034,116.009 70.470 C 115.361 71.323,114.158 74.241,114.090 75.125 C 114.067 75.423,113.803 76.017,113.502 76.445 C 113.202 76.874,112.956 77.527,112.956 77.898 C 112.955 78.268,112.688 79.020,112.363 79.568 C 111.815 80.491,111.329 82.169,110.776 85.050 C 110.653 85.689,110.393 86.512,110.197 86.877 C 110.001 87.243,109.813 87.766,109.779 88.040 C 109.744 88.314,109.537 89.585,109.317 90.864 C 109.098 92.143,108.872 93.826,108.816 94.604 C 108.760 95.382,108.530 96.242,108.303 96.514 C 108.002 96.877,107.990 97.128,108.257 97.450 C 108.477 97.715,108.502 98.012,108.319 98.197 C 107.407 99.125,107.392 117.566,108.303 118.771 C 108.441 118.953,108.739 121.346,108.964 124.086 C 109.212 127.097,109.557 129.361,109.837 129.806 C 110.091 130.210,110.299 130.900,110.299 131.338 C 110.299 132.253,111.521 137.329,111.940 138.153 C 112.094 138.456,112.469 139.601,112.772 140.698 C 113.337 142.733,113.706 143.713,114.462 145.183 C 114.697 145.640,114.995 146.576,115.124 147.264 C 115.253 147.952,115.544 148.624,115.771 148.759 C 115.998 148.893,116.441 149.786,116.755 150.744 C 117.069 151.701,117.454 152.563,117.610 152.659 C 117.766 152.755,118.331 153.692,118.866 154.739 C 121.035 158.991,121.691 160.095,122.943 161.611 C 123.663 162.482,124.252 163.338,124.252 163.513 C 124.252 163.861,125.841 166.078,126.473 166.611 C 127.060 167.107,129.568 170.539,129.568 170.846 C 129.568 170.993,129.942 171.255,130.399 171.429 C 130.855 171.602,131.229 171.964,131.229 172.232 C 131.229 172.500,131.547 172.942,131.935 173.214 C 132.323 173.486,132.811 174.052,133.021 174.472 C 133.230 174.892,133.698 175.390,134.060 175.577 C 134.422 175.765,135.162 176.339,135.706 176.854 L 136.695 177.790 137.201 176.686 C 137.479 176.078,137.799 175.507,137.911 175.415 C 138.024 175.324,138.230 174.875,138.368 174.419 C 138.627 173.567,139.373 171.884,143.010 163.953 C 143.429 163.040,144.103 161.470,144.508 160.465 C 145.223 158.690,145.943 157.089,147.709 153.346 C 148.698 151.250,148.600 150.610,147.001 148.739 C 146.408 148.045,145.437 146.550,144.842 145.417 C 144.246 144.283,143.574 143.131,143.348 142.857 C 143.121 142.583,142.824 141.985,142.687 141.528 C 142.550 141.071,142.145 140.282,141.787 139.775 C 141.430 139.267,140.986 138.295,140.801 137.615 C 140.617 136.935,140.274 136.154,140.039 135.880 C 139.804 135.606,139.358 134.485,139.046 133.389 C 138.735 132.292,138.284 130.947,138.044 130.399 C 137.279 128.652,136.877 127.174,136.877 126.104 C 136.877 125.532,136.670 124.769,136.416 124.407 C 136.163 124.045,135.872 123.003,135.771 122.090 C 135.669 121.178,135.435 119.311,135.250 117.940 C 134.315 111.012,134.798 98.900,136.236 93.206 C 136.607 91.735,136.990 90.083,137.086 89.535 C 137.182 88.987,137.474 88.207,137.734 87.802 C 137.993 87.398,138.208 86.800,138.211 86.473 C 138.218 85.554,139.269 82.680,140.797 79.402 C 141.095 78.762,141.346 78.089,141.356 77.904 C 141.366 77.720,141.708 77.030,142.116 76.370 C 142.524 75.710,142.858 74.964,142.859 74.712 C 142.861 74.459,143.608 73.157,144.521 71.818 C 145.433 70.479,146.179 69.272,146.179 69.135 C 146.179 68.998,147.002 67.814,148.007 66.504 C 149.012 65.194,149.834 64.021,149.834 63.898 C 149.834 63.115,161.182 51.495,161.946 51.495 C 162.125 51.495,162.575 51.158,162.946 50.745 C 163.317 50.333,164.021 49.791,164.509 49.540 C 164.998 49.290,166.088 48.514,166.933 47.816 C 167.777 47.118,168.798 46.444,169.201 46.318 C 169.604 46.193,170.432 45.655,171.041 45.124 C 171.649 44.593,172.584 44.071,173.117 43.965 C 173.650 43.858,174.086 43.579,174.086 43.345 C 174.086 43.110,174.845 42.724,175.773 42.486 C 176.701 42.249,177.598 41.795,177.767 41.479 C 177.953 41.132,178.666 40.816,179.569 40.680 C 180.391 40.557,181.063 40.341,181.063 40.200 C 181.063 40.060,181.325 39.860,181.645 39.755 C 181.964 39.651,183.048 39.265,184.053 38.897 C 185.058 38.529,186.147 38.223,186.473 38.217 C 186.800 38.211,187.408 37.982,187.825 37.709 C 188.602 37.200,190.698 36.675,193.355 36.323 C 194.178 36.215,195.049 35.967,195.293 35.774 C 195.738 35.420,197.542 35.078,201.089 34.675 C 202.145 34.556,203.088 34.329,203.185 34.172 C 203.447 33.748,205.648 33.827,205.648 34.260 C 205.648 34.515,205.807 34.501,206.153 34.214 C 206.761 33.709,218.738 33.651,219.371 34.149 C 219.589 34.321,220.216 34.464,220.764 34.468 C 221.312 34.472,223.032 34.651,224.585 34.865 C 226.138 35.080,228.004 35.332,228.732 35.426 C 229.461 35.519,230.241 35.750,230.467 35.937 C 230.692 36.124,231.293 36.317,231.801 36.365 C 233.510 36.527,236.036 37.271,237.577 38.066 C 238.419 38.500,239.180 38.782,239.270 38.692 C 239.489 38.473,241.761 39.438,242.023 39.862 C 242.138 40.048,242.517 40.199,242.865 40.199 C 243.579 40.199,245.954 41.229,246.124 41.611 C 246.185 41.748,246.461 41.860,246.737 41.860 C 247.377 41.860,249.253 42.894,249.601 43.439 C 249.747 43.667,250.137 43.854,250.468 43.854 C 250.799 43.854,251.726 44.376,252.528 45.013 C 253.330 45.651,254.221 46.174,254.508 46.176 C 254.795 46.178,255.641 46.703,256.388 47.342 C 257.136 47.982,257.882 48.505,258.047 48.505 C 258.212 48.505,258.777 48.953,259.302 49.502 C 260.443 50.693,260.971 50.752,261.503 49.751 C 261.722 49.340,263.071 47.733,264.502 46.179 C 265.933 44.626,267.105 43.169,267.107 42.940 C 267.108 42.712,267.249 42.525,267.420 42.525 C 267.591 42.525,268.151 41.935,268.666 41.214 C 269.180 40.493,271.046 38.258,272.813 36.247 C 274.579 34.237,276.119 32.292,276.236 31.926 C 276.473 31.178,275.578 29.568,274.925 29.568 C 274.698 29.568,273.856 29.046,273.053 28.409 C 272.251 27.771,271.340 27.248,271.030 27.246 C 270.719 27.244,270.345 27.056,270.199 26.827 C 269.929 26.404,269.005 25.755,268.106 25.356 C 267.832 25.234,266.786 24.595,265.781 23.936 C 264.776 23.277,263.430 22.528,262.791 22.271 C 262.151 22.015,261.271 21.534,260.836 21.202 C 260.400 20.870,259.874 20.598,259.668 20.598 C 259.461 20.598,258.398 20.168,257.304 19.642 C 256.210 19.117,254.792 18.462,254.153 18.187 C 253.513 17.912,252.121 17.293,251.058 16.811 C 249.995 16.329,248.979 16.025,248.801 16.136 C 248.622 16.246,248.085 16.080,247.607 15.767 C 246.805 15.241,244.211 14.505,241.611 14.064 C 241.017 13.963,240.532 13.780,240.532 13.657 C 240.532 13.404,238.363 12.774,236.379 12.450 C 235.648 12.330,234.900 12.117,234.718 11.975 C 234.402 11.731,232.713 11.411,230.297 11.139 C 229.694 11.071,228.647 10.932,227.972 10.829 C 227.297 10.726,225.479 10.557,223.933 10.453 C 222.387 10.349,220.925 10.100,220.683 9.899 C 220.360 9.631,220.020 9.654,219.403 9.984 C 218.740 10.339,218.429 10.349,217.924 10.034 C 217.038 9.481,209.191 9.491,208.301 10.047 C 207.776 10.375,207.507 10.375,206.981 10.047 C 206.197 9.557,205.239 9.513,204.801 9.948 M269.435 155.968 C 266.854 158.924,259.758 165.467,258.582 165.976 C 257.339 166.514,257.141 167.070,257.720 168.409 C 258.875 171.081,259.144 171.688,260.115 173.838 C 260.673 175.072,261.130 176.268,261.131 176.496 C 261.131 176.724,261.402 177.359,261.731 177.907 C 262.060 178.455,262.597 179.763,262.923 180.813 C 263.250 181.864,263.641 182.800,263.793 182.894 C 263.945 182.988,264.323 183.847,264.633 184.805 C 264.944 185.762,265.458 186.993,265.777 187.542 C 266.095 188.090,266.552 189.227,266.791 190.070 C 267.186 191.456,268.439 192.157,268.439 190.991 C 268.439 190.830,268.594 190.698,268.785 190.698 C 269.163 190.698,271.443 189.123,273.367 187.532 C 274.037 186.979,274.996 186.319,275.498 186.064 C 276.001 185.810,276.412 185.427,276.412 185.213 C 276.412 184.999,276.748 184.667,277.159 184.474 C 277.571 184.281,278.868 183.286,280.042 182.261 C 281.216 181.237,282.364 180.399,282.594 180.399 C 282.824 180.399,283.101 180.118,283.210 179.775 C 283.318 179.432,284.188 178.421,285.142 177.528 C 287.623 175.206,292.359 170.128,292.359 169.790 C 292.359 169.401,290.099 167.442,289.651 167.442 C 289.453 167.442,288.711 166.844,288.001 166.113 C 287.292 165.382,286.580 164.784,286.419 164.784 C 286.118 164.784,282.640 162.222,281.700 161.309 C 281.410 161.027,281.010 160.797,280.810 160.797 C 280.610 160.797,280.169 160.444,279.829 160.012 C 279.489 159.580,278.768 158.995,278.227 158.713 C 277.685 158.430,276.803 157.737,276.267 157.173 C 275.730 156.608,275.096 156.146,274.859 156.146 C 274.621 156.146,273.864 155.548,273.177 154.818 C 271.622 153.166,271.978 153.056,269.435 155.968 M170.518 277.764 C 166.644 278.438,163.731 280.577,162.057 283.977 L 160.963 286.199 160.963 297.502 L 160.963 308.804 161.781 310.465 C 166.066 319.175,179.962 319.746,184.455 311.397 C 186.370 307.837,186.412 304.590,184.549 304.123 C 183.351 303.822,182.523 304.684,182.276 306.492 C 181.215 314.226,169.768 316.500,165.615 309.801 L 164.618 308.193 164.517 298.135 C 164.404 286.878,164.512 286.055,166.380 283.981 C 171.262 278.561,181.190 281.084,182.229 288.009 C 182.548 290.138,182.920 290.698,184.013 290.698 C 186.084 290.698,186.499 288.687,185.193 284.986 C 183.329 279.702,177.074 276.624,170.518 277.764 " stroke="none" fill="#5e98da" fill-rule="evenodd"></path></g></svg>