<svg width="158" height="33" viewBox="0 0 158 33" fill="none" xmlns="http://www.w3.org/2000/svg" id="a166d46e-ac10-4db3-a73e-d088c061fe23">
<path d="M54.9256 19.0989H48.5815L47.4567 21.3189H44.8926L50.4561 10.8213H53.0805L58.6439 21.3189H56.049L54.9242 19.0989H54.9256ZM53.9213 17.1493L51.7468 12.8753L49.5723 17.1493H53.9213Z" fill="white"/>
<path d="M72.0221 10.8213V21.3189H69.9226L62.3948 13.7309V21.3189H60.0703V10.8213H62.6197L69.6976 18.0197V10.8213H72.0221Z" fill="white"/>
<path d="M76.0834 10.8213L80.0428 18.9342L83.9874 10.8213H86.5824L81.288 21.3189H78.7533L73.459 10.8213H76.0834Z" fill="white"/>
<path d="M88.0039 21.3189V10.8213H90.4034V21.3189H88.0039Z" fill="white"/>
<path d="M103.045 19.2488V21.3189H93.2227V10.8213H95.6221V19.2488H103.045Z" fill="white"/>
<path d="M103.676 16.0704C103.676 12.5609 106.255 10.4922 110.349 10.4922C114.444 10.4922 117.023 12.5623 117.023 16.0704C117.023 19.5785 114.444 21.6486 110.349 21.6486C106.255 21.6486 103.676 19.5785 103.676 16.0704ZM114.578 16.0704C114.578 13.8209 112.943 12.5609 110.349 12.5609C107.756 12.5609 106.121 13.8209 106.121 16.0704C106.121 18.3199 107.741 19.5799 110.349 19.5799C112.958 19.5799 114.578 18.3199 114.578 16.0704Z" fill="white"/>
<path d="M131.255 19.1889C130.205 20.6136 128.135 21.6486 125.286 21.6486C121.072 21.6486 118.508 19.5785 118.508 16.0704C118.508 12.5623 121.072 10.4922 125.286 10.4922C127.865 10.4922 129.695 11.467 130.745 12.4873L128.87 13.8517C127.956 12.9519 126.891 12.5315 125.3 12.5315C122.556 12.5315 120.951 13.7312 120.951 16.0704C120.951 18.4096 122.601 19.6093 125.39 19.6093C126.965 19.6093 128.254 19.2639 129.004 18.3641V17.3438H125.045V15.3942H131.254V19.1889H131.255Z" fill="white"/>
<path d="M133.428 21.3189V10.8213H135.827V21.3189H133.428Z" fill="white"/>
<path d="M147.914 17.8686L150.104 18.9639C149.114 20.4489 147.09 21.6486 144.345 21.6486C140.4 21.6486 137.836 19.5638 137.836 16.0704C137.836 12.577 140.4 10.4922 144.449 10.4922C147.088 10.4922 149.113 11.7066 150.073 13.1621L147.869 14.2574C147.119 13.0871 145.98 12.5623 144.42 12.5623C141.931 12.5623 140.281 13.762 140.281 16.0717C140.281 18.3815 141.931 19.5812 144.42 19.5812C145.98 19.5812 147.134 19.0711 147.914 17.8713V17.8686Z" fill="white"/>
<path d="M152.663 10.8317H151.905V12.2215H151.509V10.8317H150.756V10.4902H152.661V10.8317H152.663Z" fill="white"/>
<path d="M155.253 10.4902V12.2215H154.857V11.0165L154.098 11.9444H154.078L153.318 11.0165V12.2215H152.936V10.4902H153.365L154.098 11.4061L154.83 10.4902H155.253Z" fill="white"/>
<path d="M20.266 22.0427L16.6199 10.7042H12.2481C11.6965 10.7042 11.1408 10.7524 10.5998 10.8475C8.42534 11.2277 6.43828 12.3712 5.00156 14.065C3.54876 15.7789 2.74805 17.9628 2.74805 20.2136C2.74805 22.7537 3.73622 25.1424 5.53045 26.938C7.32469 28.7336 9.41484 29.4687 11.9522 29.4687H11.9656C14.0839 29.466 16.1459 28.7483 17.8089 27.4428L15.384 25.0152L14.5271 25.5535L14.5217 25.5562L14.5164 25.5589L14.5057 25.5642C13.7023 25.9311 12.8426 26.1186 11.9536 26.1186C8.56057 26.1186 6.0955 23.6106 6.0955 20.2136C6.0955 16.8166 8.85515 14.0543 12.2481 14.0543C12.7007 14.0543 13.3086 14.1387 13.7491 14.2378L16.3883 22.5462L19.6112 25.7718H25.7986L22.0897 22.0414H20.266V22.0427ZM36.4516 9.32369C34.6333 7.50401 32.2164 6.50112 29.6442 6.50112C29.4286 6.50112 29.2023 6.50915 28.9747 6.52522L28.8221 6.53593L28.7324 6.4114C27.9075 5.27728 26.8163 4.33464 25.5764 3.68925C24.295 3.0211 22.8502 2.66895 21.3947 2.66895C19.4492 2.66895 17.5947 3.27684 16.0321 4.42569C14.6141 5.46876 13.5483 6.87201 12.927 8.50022H16.6092C17.8478 6.98717 19.5657 6.15298 21.467 6.15298C22.7364 6.15298 23.9642 6.52254 25.018 7.22417C26.041 7.90437 26.8377 8.84701 27.3345 9.95971C28.0937 9.64505 28.897 9.48437 29.7272 9.48437C30.0097 9.48437 30.2949 9.50312 30.5761 9.54195C32.0691 9.74413 33.4416 10.4806 34.4418 11.6174C35.4514 12.7649 36.007 14.2391 36.007 15.7696C36.007 19.2362 33.1912 22.0547 29.7286 22.0547H25.3728L29.0725 25.7744H29.6442C32.215 25.7744 34.6333 24.7729 36.4516 22.9519C38.2699 21.1322 39.2715 18.7113 39.2715 16.1378C39.2715 13.5643 38.2699 11.1447 36.4516 9.32369Z" fill="url(#afc2d7f7-d7db-47cb-88e5-1b61ecfd22d9)"/>
<defs>
<linearGradient id="afc2d7f7-d7db-47cb-88e5-1b61ecfd22d9" x1="2.74805" y1="22.9874" x2="39.2715" y2="11.4333" gradientUnits="userSpaceOnUse">
<stop stop-color="#309DDF"/>
<stop offset="1" stop-color="#00B8AA"/>
</linearGradient>
</defs>
</svg>
