<svg fill="none" xmlns="http://www.w3.org/2000/svg" viewBox="0 0 75 75">
  <defs/>
  <path d="M15.4 25.1a9 9 0 00-1.8 1.9l.7 1.3a17.8 17.8 0 011.6-2l-1.5 2 2.8-.3c.2-1.5-.3-2.2-.3-2.2s-.7-1.2-1.5-.7zM14.2 32.8zM13.5 35.2zM8.7 40.6a151.8 151.8 0 012.8-6.8c0-.2.2-.4.3-.5V33l-.1-.2-.4.8-.2.5a88 88 0 00-2.6 6.2l-.1.3-.4 1 .1.3h.1l.5-1.4zM13 36.4h-.2v.1H13.1z" fill="#A00"/>
  <path d="M13 36.4h-.2v.1H13.1zM13.3 35.3zM13.3 35.3zM12.3 31.8a43.3 43.3 0 011.3-2.4l.7-1.1-.7-1.3a14 14 0 00-.7 1 39.2 39.2 0 00-2.1 3.1l.9 1.9.6-1.2zM8.1 42.1c0 .4-.2.7-.3 1v.2l-.4 1c.3 0 .5.4.7.8 0-.4-.2-.8-.5-1 1.3 0 2.5-.3 3-1.3l.2-.3c-.3.4-.6.5-1.2.5.9-.4 1.4-.8 1.8-1.5 0-.2.2-.3.3-.5-.8.8-1.8 1-2.8.9h-.7v.2zM8.5 40.5a128.7 128.7 0 012.6-6.3l.2-.5.4-.7-1-1.9A43 43 0 009 34.5l-.1.2a28.4 28.4 0 00-1.3 3.2l-.2.6-.3 1.5.9 1.8.4-1v-.2z" fill="#A00"/>
  <path d="M7 40l-.2 1.7c-.3-.4-1-.8-1-.8.5.8 1 1.6 1 2.4-.3 0-.7 0-1.2-.2l1 .6c-.4 0-.9.3-1.3.7.6-.3 1.2-.4 1.6-.3A138 138 0 005 50c.2 0 .3-.2.4-.4 0-.4.8-2.9 2-6.2v-.3h.1L8 42v-.3L7.2 40zM11.8 33.1v.2l-.3.5a56.5 56.5 0 00-1.3 3l-.5 1.3a114 114 0 00-1 2.5L8.2 42h.7c.9-.2 2-.8 2.8-1.7a7 7 0 001-1.3 12.2 12.2 0 001-2.7 2.6 2.6 0 01-.9.3c.8-.3 1.3-1 1.7-1.7a2.9 2.9 0 01-1.2.5 3.3 3.3 0 001-.7 4.3 4.3 0 00.4-.5l.1-.2a8.6 8.6 0 00.6-1.5h-.1l-1 .4H14l-2.3.3z" fill="#A00"/>
  <path d="M14.4 28.3a35.7 35.7 0 00-2.6 4.8l2.4-.3c.6-.3 1-.6 1.2-1l.3-.4a14.7 14.7 0 001.4-3V28l-2.7.3zM13 36.5zM13 36.5zM13 36.5zM13.3 35.3zM13.3 35.3zM13.3 35.3zM46.5 41.9l-.8-.2a8.5 8.5 0 01-1.2-.8 5.4 5.4 0 01-1-1 11.1 11.1 0 01-.7-1.4v-.2l-.2-1V36c0-.7.2-1 .4-1.6v-.2h.1l.3-.5 1-1a4.8 4.8 0 011.6-.9l1-.1c.6 0 1.2 0 1.7.2a2.4 2.4 0 01.7.3l.8.6.6.9c.1.2.1.2 0 .2a4 4 0 00-.2.2l-.3.1c-.2.2-.2.2-.3 0-.2-.4-.9-1.1-1.4-1.3-.5-.2-.9-.3-1.4-.3a3.2 3.2 0 00-2 .6H45l-.6.7a5 5 0 00-.8 1.4 4.9 4.9 0 00.7 4.2l.7.7a5 5 0 00.9.5 3.2 3.2 0 001.2.3 3 3 0 001.8-.5c.4-.3 1-.8 1.1-1.1 0-.2.2-.3.2-.3l.8.5a2.2 2.2 0 01-.4.6 4.2 4.2 0 01-3.4 1.7h-.8zm-29.7 0v-.2a3.8 3.8 0 00.3-.5 112.9 112.9 0 003-7.2 65.4 65.4 0 01.8-2.1v-.2h.9v.2a54.7 54.7 0 002 4.6 87 87 0 002.1 5.3h-1.1a6.4 6.4 0 00-.3-.9 17 17 0 00-.7-1.6V39l-.2-.3v-.1h-4.4l-.1.2a20.8 20.8 0 00-.8 1.8 9.7 9.7 0 01-.3.7l-.1.4h-1.1zm6.5-4l-.2-.6v-.1L23 37a24.8 24.8 0 01-1-2.5 33.7 33.7 0 00-.7-1.4v.2A36.8 36.8 0 0020 36l-.7 1.6v.2h4zm3.7-6.2h2l3 .1a3.6 3.6 0 01.8.5c.5.4 1 1.1 1.1 1.8.2.7.1 1.5-.1 2.2a3 3 0 01-1.9 1.7h-2l-2 .1V42h-1V31.7zm4.4 5.5c.7-.1 1.2-.7 1.5-1.5v-1.4c0-.4-.3-.8-.6-1a2.4 2.4 0 00-.5-.5h-.1l-2-.2H28v4.6h3.4zm2 4.6l.2-.3a139.8 139.8 0 003.2-8 18.5 18.5 0 01.7-1.5v-.3h.9v.1a104.4 104.4 0 002.8 6.8 17.3 17.3 0 00.7 1.7 2.8 2.8 0 01.2.4 11.5 11.5 0 01.5 1.1h-1.1a14.4 14.4 0 01-.8-1.8 16.5 16.5 0 01-.5-1.2v-.1h-4.4l-.2.5a220.2 220.2 0 01-1 2.3l-.1.4h-1zm6.6-4a9.4 9.4 0 00-.4-1 4.1 4.1 0 00-.2-.4l-.2-.4a14 14 0 01-.6-1.6 13.1 13.1 0 01-.5-1.3c0-.1-.1-.1-.2 0a2.8 2.8 0 01-.2.6v.2a423.4 423.4 0 00-1.7 4 55.4 55.4 0 004 0zm12.4 4v-10h1v4.4h5.9v-4.5h1v10.2h-1V37h-5.9v4.7h-1zm10-10.1H69v1h-5.5v3.5h4.8v1h-4.8v3.7H69v1h-6.6V31.7z" fill="#A00"/>
</svg>
