<svg width="20" height="20" viewBox="0 0 20 20" fill="none" xmlns="http://www.w3.org/2000/svg">
<g id="0b7af754-ddf9-44b7-9bd0-99e1105c3d12">
<path d="M3.68199 3.17836L4.89299 1.76736C4.94842 1.70424 5.01673 1.65373 5.09332 1.61924C5.1699 1.58474 5.25299 1.56705 5.33699 1.56736H16.95C17.0644 1.55688 17.1797 1.57073 17.2884 1.60801C17.397 1.64528 17.4966 1.70513 17.5804 1.78362C17.6643 1.86211 17.7306 1.95747 17.775 2.06342C17.8194 2.16937 17.8409 2.28352 17.838 2.39836V16.8984C17.8381 16.98 17.8211 17.0607 17.788 17.1354C17.7549 17.2111 17.7066 17.2792 17.646 17.3354L16.338 18.5264H4.46699L3.66699 18.1894L3.68199 3.17836Z" fill="#005BA1"/>
<path d="M4.65625 3.16733L5.39825 2.32133C5.44693 2.26496 5.50734 2.21991 5.57525 2.18933C5.64304 2.15834 5.71671 2.14231 5.79125 2.14233H16.6373C16.7757 2.14233 16.9085 2.19733 17.0064 2.29522C17.1043 2.39312 17.1593 2.52589 17.1593 2.66433V16.4523C17.159 16.525 17.1437 16.5968 17.1143 16.6633C17.0848 16.7297 17.0419 16.7893 16.9883 16.8383L15.8302 17.8933L4.65625 3.16733Z" fill="white"/>
<path d="M15.759 3.1674H3.723C3.71561 3.16727 3.70827 3.16862 3.70141 3.17139C3.69456 3.17416 3.68833 3.17828 3.6831 3.1835C3.67787 3.18873 3.67375 3.19496 3.67099 3.20181C3.66822 3.20867 3.66687 3.21601 3.667 3.2234V18.1844C3.66684 18.235 3.67675 18.2851 3.69615 18.3318C3.71555 18.3785 3.74406 18.4208 3.78 18.4564C3.85243 18.5279 3.95023 18.5678 4.052 18.5674H15.762C15.864 18.5671 15.9618 18.5265 16.0339 18.4543C16.1061 18.3822 16.1467 18.2844 16.147 18.1824V3.5474C16.1471 3.49655 16.1369 3.44621 16.117 3.3994C16.0976 3.35258 16.069 3.31008 16.033 3.2744C15.9967 3.23864 15.954 3.21013 15.907 3.1904C15.8597 3.17286 15.8094 3.16504 15.759 3.1674Z" fill="url(#f47ac10b-58cc-4372-a567-0e02b2c3d479)"/>
<path d="M12.7857 7.26734H7.32273C7.25113 7.26734 7.18245 7.29579 7.13182 7.34642C7.08118 7.39706 7.05273 7.46573 7.05273 7.53734V9.38134C7.05273 9.45295 7.08118 9.52163 7.13182 9.57226C7.18245 9.6229 7.25113 9.65134 7.32273 9.65134H12.7877C12.8593 9.65134 12.928 9.6229 12.9787 9.57226C13.0293 9.52163 13.0577 9.45295 13.0577 9.38134V7.53934C13.058 7.50355 13.0511 7.46806 13.0376 7.43494C13.024 7.40182 13.004 7.37173 12.9787 7.34642C12.9533 7.3211 12.9233 7.30108 12.8901 7.2875C12.857 7.27393 12.8215 7.26708 12.7857 7.26734Z" fill="white"/>
<path d="M4.06601 4.67737H2.79801C2.64153 4.67737 2.49146 4.73953 2.38081 4.85017C2.27017 4.96082 2.20801 5.11089 2.20801 5.26737V5.52837C2.20801 5.68485 2.27017 5.83491 2.38081 5.94556C2.49146 6.05621 2.64153 6.11837 2.79801 6.11837H4.06601C4.22249 6.11837 4.37255 6.05621 4.4832 5.94556C4.59385 5.83491 4.65601 5.68485 4.65601 5.52837V5.26737C4.65601 5.11089 4.59385 4.96082 4.4832 4.85017C4.37255 4.73953 4.22249 4.67737 4.06601 4.67737Z" fill="#005BA1"/>
<path d="M4.06601 7.41541H2.79801C2.64153 7.41541 2.49146 7.47757 2.38081 7.58821C2.27017 7.69886 2.20801 7.84893 2.20801 8.00541V8.26741C2.20801 8.34488 2.22327 8.42161 2.25292 8.49319C2.28257 8.56477 2.32603 8.62981 2.38081 8.6846C2.4356 8.73939 2.50064 8.78284 2.57222 8.81249C2.64381 8.84214 2.72053 8.85741 2.79801 8.85741H4.06601C4.22249 8.85741 4.37255 8.79524 4.4832 8.6846C4.59385 8.57395 4.65601 8.42388 4.65601 8.26741V8.00541C4.65601 7.84893 4.59385 7.69886 4.4832 7.58821C4.37255 7.47757 4.22249 7.41541 4.06601 7.41541Z" fill="#005BA1"/>
<path d="M4.06601 10.1533H2.79801C2.64153 10.1533 2.49146 10.2155 2.38081 10.3261C2.27017 10.4368 2.20801 10.5868 2.20801 10.7433V11.0043C2.20801 11.1608 2.27017 11.3109 2.38081 11.4215C2.49146 11.5322 2.64153 11.5943 2.79801 11.5943H4.06601C4.22249 11.5943 4.37255 11.5322 4.4832 11.4215C4.59385 11.3109 4.65601 11.1608 4.65601 11.0043V10.7433C4.65601 10.5868 4.59385 10.4368 4.4832 10.3261C4.37255 10.2155 4.22249 10.1533 4.06601 10.1533Z" fill="#005BA1"/>
<path d="M4.06601 12.8904H2.79801C2.64153 12.8904 2.49146 12.9525 2.38081 13.0632C2.27017 13.1738 2.20801 13.3239 2.20801 13.4804V13.7414C2.20801 13.8979 2.27017 14.0479 2.38081 14.1586C2.49146 14.2692 2.64153 14.3314 2.79801 14.3314H4.06601C4.22249 14.3314 4.37255 14.2692 4.4832 14.1586C4.59385 14.0479 4.65601 13.8979 4.65601 13.7414V13.4804C4.65601 13.3239 4.59385 13.1738 4.4832 13.0632C4.37255 12.9525 4.22249 12.8904 4.06601 12.8904Z" fill="#005BA1"/>
<path d="M4.06601 15.6284H2.79801C2.64153 15.6284 2.49146 15.6906 2.38081 15.8012C2.27017 15.9119 2.20801 16.0619 2.20801 16.2184V16.4794C2.20801 16.6359 2.27017 16.786 2.38081 16.8966C2.49146 17.0073 2.64153 17.0694 2.79801 17.0694H4.06601C4.22249 17.0694 4.37255 17.0073 4.4832 16.8966C4.59385 16.786 4.65601 16.6359 4.65601 16.4794V16.2184C4.65601 16.0619 4.59385 15.9119 4.4832 15.8012C4.37255 15.6906 4.22249 15.6284 4.06601 15.6284Z" fill="#005BA1"/>
<defs>
<linearGradient id="f47ac10b-58cc-4372-a567-0e02b2c3d479" x1="9.907" y1="18.5694" x2="9.907" y2="3.1624" gradientUnits="userSpaceOnUse">
<stop stop-color="#0078D4"/>
<stop offset="0.817" stop-color="#5EA0EF"/>
</linearGradient>
</defs>
</g>
</svg>
