<svg width="97" height="34" viewBox="0 0 97 34" fill="none" xmlns="http://www.w3.org/2000/svg">
<path d="M59.9287 0H54.3857V33.409H59.9287V0Z" fill="#231F20"/>
<path d="M0 33.4105L2.76445 27.8815L16.7055 22.3003L6.18126 33.4105H0Z" fill="#231F20"/>
<path d="M16.7042 12.3625L11.733 22.3009H5.55371L16.7042 0L33.4097 33.411H27.2284L16.7042 12.3625Z" fill="#231F20"/>
<path d="M96.4663 33.4105L93.7018 27.8815L79.7607 22.3003L90.287 33.4105H96.4663Z" fill="#231F20"/>
<path d="M79.7601 12.3625L84.7313 22.3009H90.9126L79.7601 0L63.0566 33.411H69.2359L79.7601 12.3625Z" fill="#231F20"/>
<path d="M44.1586 20.9237C46.328 19.7321 48.0393 17.8526 49.0228 15.5813C50.0063 13.31 50.2062 10.776 49.591 8.37862C48.9757 5.9812 47.5802 3.85664 45.6245 2.33969C43.6687 0.822728 41.2638 -0.0003989 38.7887 1.45022e-07H21.457L24.2497 5.59132H38.7887C40.2435 5.61902 41.6292 6.21636 42.6482 7.25493C43.6672 8.29351 44.2381 9.69042 44.2381 11.1454C44.2381 12.6004 43.6672 13.9973 42.6482 15.0359C41.6292 16.0744 40.2435 16.6718 38.7887 16.6995H29.8128L32.6095 22.3029H38.6679L44.221 33.411H50.4002L44.1586 20.9237Z" fill="#231F20"/>
</svg>
