<?xml version="1.0" encoding="utf-8"?>
<!-- Generator: Adobe Illustrator 24.1.3, SVG Export Plug-In . SVG Version: 6.00 Build 0)  -->
<svg version="1.1" id="Layer_1" xmlns="http://www.w3.org/2000/svg" xmlns:xlink="http://www.w3.org/1999/xlink" x="0px" y="0px"
	 viewBox="0 0 3301 1212" style="enable-background:new 0 0 3301 1212;" xml:space="preserve">
<style type="text/css">
	.st0{enable-background:new    ;}
	.st1{fill:#9898AF;}
	.st2{fill:url(#SVGID_1_);}
	.st3{fill:url(#SVGID_2_);}
	.st4{fill:url(#SVGID_3_);}
	.st5{fill:url(#SVGID_4_);}
	.st6{fill:url(#SVGID_5_);}
	.st7{fill:url(#SVGID_6_);}
	.st8{fill:url(#SVGID_7_);}
	.st9{fill:url(#SVGID_8_);}
	.st10{fill:url(#SVGID_9_);}
	.st11{fill:url(#SVGID_10_);}
	.st12{fill:url(#SVGID_11_);}
	.st13{fill:url(#SVGID_12_);}
	.st14{fill:url(#SVGID_13_);}
	.st15{fill:url(#SVGID_14_);}
	.st16{fill:url(#SVGID_15_);}
	.st17{fill:url(#SVGID_16_);}
	.st18{fill:url(#SVGID_17_);}
	.st19{fill:#153960;}
</style>
<g class="st0">
	<path class="st1" d="M58,692.8H6.3v-24.5h132.5v24.5H87v131.6H58V692.8z"/>
	<path class="st1" d="M275.3,756.2v68.2h-27.9v-64.7c0-21.2-10.5-31.4-28.3-31.4c-19.8,0-33.2,12-33.2,35.9v60.2H158V658.9h27.9
		v60.2c9.1-9.8,23.2-15.2,39.7-15.2C254.1,704,275.3,720.3,275.3,756.2z"/>
	<path class="st1" d="M423.3,773.8h-93.4c3.3,17.4,17.8,28.5,38.6,28.5c13.4,0,23.9-4.2,32.3-12.9l14.9,17.2
		c-10.7,12.7-27.4,19.4-48,19.4c-39.9,0-65.8-25.6-65.8-61.1s26.1-60.9,61.6-60.9c34.8,0,60.2,24.3,60.2,61.6
		C423.8,767.8,423.6,771.1,423.3,773.8z M329.7,755.3h67.6c-2.2-17.2-15.4-29-33.7-29C345.5,726.3,332.3,737.9,329.7,755.3z"/>
	<path class="st1" d="M653.5,668.3v156.1h-23.9l-86.1-105.7v105.7h-28.8V668.3h23.9L624.7,774V668.3H653.5z"/>
	<path class="st1" d="M695.4,668.3h68.2c50.6,0,85.2,31.2,85.2,78.1c0,46.8-34.6,78.1-85.2,78.1h-68.2V668.3z M762.3,799.9
		c34.8,0,57.3-21.2,57.3-53.5c0-32.3-22.5-53.5-57.3-53.5h-37.9v107.1H762.3z"/>
	<path class="st1" d="M981.8,824.4l-31.9-45.7c-2,0.2-4,0.2-6,0.2h-35.2v45.5h-29V668.3h64.2c41,0,66.5,21,66.5,55.5
		c0,23.6-12,41-33.2,49.3l35.9,51.3H981.8z M942.5,692.8h-33.9V755h33.9c25.4,0,38.6-11.6,38.6-31.2
		C981.1,704.2,968,692.8,942.5,692.8z"/>
	<path class="st1" d="M1091.1,807.9l10-22.5c12.5,10,32.3,17.2,51.5,17.2c24.3,0,34.6-8.7,34.6-20.3c0-33.7-92.8-11.6-92.8-69.6
		c0-25.2,20.1-46.6,62.9-46.6c18.7,0,38.4,4.9,52,13.8l-9.1,22.5c-14.1-8.3-29.4-12.3-43-12.3c-24.1,0-33.9,9.4-33.9,21.2
		c0,33.2,92.6,11.6,92.6,68.9c0,25-20.3,46.4-63.1,46.4C1128.3,826.6,1104,819.1,1091.1,807.9z"/>
	<path class="st1" d="M1353.3,773.8h-93.4c3.3,17.4,17.8,28.5,38.6,28.5c13.4,0,23.9-4.2,32.3-12.9l14.9,17.2
		c-10.7,12.7-27.4,19.4-48,19.4c-39.9,0-65.8-25.6-65.8-61.1s26.1-60.9,61.6-60.9c34.8,0,60.2,24.3,60.2,61.6
		C1353.8,767.8,1353.6,771.1,1353.3,773.8z M1259.7,755.3h67.6c-2.2-17.2-15.4-29-33.7-29C1275.5,726.3,1262.3,737.9,1259.7,755.3z"
		/>
	<path class="st1" d="M1370.7,764.9c0-35.7,26.8-60.9,64.5-60.9c23.2,0,41.7,9.6,50.8,27.7l-21.4,12.5
		c-7.1-11.4-17.8-16.5-29.7-16.5c-20.5,0-36.1,14.3-36.1,37.2c0,23.2,15.6,37.2,36.1,37.2c11.8,0,22.5-5.1,29.7-16.5l21.4,12.5
		c-9.1,17.8-27.7,27.9-50.8,27.9C1397.5,826,1370.7,800.5,1370.7,764.9z"/>
	<path class="st1" d="M1625.4,705.3v119.1h-26.5v-15.2c-8.9,10.9-23,16.7-38.4,16.7c-30.6,0-51.3-16.7-51.3-52.6v-68h27.9v64.2
		c0,21.6,10.3,31.9,27.9,31.9c19.4,0,32.6-12,32.6-35.9v-60.2H1625.4z"/>
	<path class="st1" d="M1730.9,704v26.5c-2.5-0.4-4.5-0.7-6.5-0.7c-21.2,0-34.6,12.5-34.6,36.8v57.8H1662V705.3h26.5v17.4
		C1696.6,710.2,1711,704,1730.9,704z"/>
	<path class="st1" d="M1750.7,669c0-9.4,7.6-16.7,17.8-16.7c10.3,0,17.8,6.9,17.8,16.1c0,9.8-7.4,17.4-17.8,17.4
		C1758.3,685.7,1750.7,678.3,1750.7,669z M1754.5,705.3h27.9v119.1h-27.9V705.3z"/>
	<path class="st1" d="M1890.6,817.9c-6.7,5.4-16.7,8-26.8,8c-26.1,0-41-13.8-41-40.1v-57.3h-19.6v-22.3h19.6V679h27.9v27.2h31.9
		v22.3h-31.9v56.6c0,11.6,5.8,17.8,16.5,17.8c5.8,0,11.4-1.6,15.6-4.9L1890.6,817.9z"/>
	<path class="st1" d="M2022.8,705.3L1967.1,834c-10.9,27-26.1,35.2-45.9,35.2c-11.8,0-24.3-4-31.9-10.9l11.2-20.5
		c5.4,5.1,12.9,8.3,20.5,8.3c9.8,0,15.6-4.7,21-16.5l2-4.7l-52-119.5h29l37.5,88.1l37.7-88.1H2022.8z"/>
	<path class="st1" d="M2104.4,668.3h68.2c50.6,0,85.2,31.2,85.2,78.1c0,46.8-34.6,78.1-85.2,78.1h-68.2V668.3z M2171.4,799.9
		c34.8,0,57.3-21.2,57.3-53.5c0-32.3-22.5-53.5-57.3-53.5h-37.9v107.1H2171.4z"/>
	<path class="st1" d="M2282.2,669c0-9.4,7.6-16.7,17.8-16.7c10.3,0,17.8,6.9,17.8,16.1c0,9.8-7.4,17.4-17.8,17.4
		C2289.8,685.7,2282.2,678.3,2282.2,669z M2286,705.3h27.9v119.1H2286V705.3z"/>
	<path class="st1" d="M2461.9,705.3l-51.1,119.1h-28.8L2331,705.3h29l37,88.3l38.1-88.3H2461.9z"/>
	<path class="st1" d="M2475.5,669c0-9.4,7.6-16.7,17.8-16.7c10.3,0,17.8,6.9,17.8,16.1c0,9.8-7.4,17.4-17.8,17.4
		C2483.1,685.7,2475.5,678.3,2475.5,669z M2479.3,705.3h27.9v119.1h-27.9V705.3z"/>
	<path class="st1" d="M2530.2,812.6l10.7-21.2c10.5,6.9,26.5,11.8,41.5,11.8c17.6,0,25-4.9,25-13.2c0-22.7-73.6-1.3-73.6-48.8
		c0-22.5,20.3-37.2,52.4-37.2c15.8,0,33.9,3.8,44.6,10.3l-10.7,21.2c-11.4-6.7-22.7-8.9-34.1-8.9c-16.9,0-25,5.6-25,13.4
		c0,24.1,73.6,2.7,73.6,49.3c0,22.3-20.5,36.8-54,36.8C2560.7,826,2540.9,820.2,2530.2,812.6z"/>
	<path class="st1" d="M2654.9,669c0-9.4,7.6-16.7,17.8-16.7c10.3,0,17.8,6.9,17.8,16.1c0,9.8-7.4,17.4-17.8,17.4
		C2662.4,685.7,2654.9,678.3,2654.9,669z M2658.6,705.3h27.9v119.1h-27.9V705.3z"/>
	<path class="st1" d="M2713.3,764.9c0-35.7,26.8-60.9,63.3-60.9c37,0,63.6,25.2,63.6,60.9s-26.5,61.1-63.6,61.1
		C2740,826,2713.3,800.5,2713.3,764.9z M2812.1,764.9c0-22.7-15.2-37.2-35.5-37.2c-20.1,0-35.2,14.5-35.2,37.2s15.2,37.2,35.2,37.2
		C2796.9,802.1,2812.1,787.6,2812.1,764.9z"/>
	<path class="st1" d="M2984.3,756.2v68.2h-27.9v-64.7c0-21.2-10.5-31.4-28.3-31.4c-19.8,0-33.2,12-33.2,35.9v60.2h-27.9V705.3h26.5
		v15.4c9.1-10.9,23.6-16.7,41-16.7C2963.1,704,2984.3,720.3,2984.3,756.2z"/>
	<path class="st1" d="M3071.4,764.9c0-35.7,26.8-60.9,63.3-60.9c37,0,63.6,25.2,63.6,60.9s-26.5,61.1-63.6,61.1
		C3098.2,826,3071.4,800.5,3071.4,764.9z M3170.2,764.9c0-22.7-15.2-37.2-35.5-37.2c-20.1,0-35.2,14.5-35.2,37.2
		s15.2,37.2,35.2,37.2C3155.1,802.1,3170.2,787.6,3170.2,764.9z"/>
	<path class="st1" d="M3255.9,699.1v7.1h32.8v22.3h-31.9v95.9h-27.9v-95.9h-19.6v-22.3h19.6v-7.6c0-25,14.9-41.3,42.6-41.3
		c9.6,0,19,2,25.2,6.5l-7.8,21c-4.2-2.9-9.6-4.9-15.4-4.9C3261.9,679.9,3255.9,686.4,3255.9,699.1z"/>
</g>
<g>
	
		<linearGradient id="SVGID_1_" gradientUnits="userSpaceOnUse" x1="2897.3152" y1="1199.7721" x2="2899.8574" y2="616.7832" gradientTransform="matrix(1 0 0 -1 0 1212)">
		<stop  offset="0" style="stop-color:#2B205B"/>
		<stop  offset="5.000000e-02" style="stop-color:#2C215F"/>
		<stop  offset="0.81" style="stop-color:#352E92"/>
	</linearGradient>
	<path class="st2" d="M2898.6,599.4c-24.3,0-44-19.7-44-44V54.7c0-24.3,19.7-44,44-44c24.3,0,44,19.7,44,44c0,0,0,0,0,0.1v500.8
		C2942.6,579.8,2922.9,599.4,2898.6,599.4z"/>
	
		<linearGradient id="SVGID_2_" gradientUnits="userSpaceOnUse" x1="3055.5835" y1="1196.2712" x2="3055.5835" y2="564.7277" gradientTransform="matrix(1 0 0 -1 0 1212)">
		<stop  offset="0" style="stop-color:#6C60EC"/>
		<stop  offset="0.2" style="stop-color:#695DE7"/>
		<stop  offset="0.42" style="stop-color:#6156DA"/>
		<stop  offset="0.64" style="stop-color:#544AC4"/>
		<stop  offset="0.88" style="stop-color:#4139A5"/>
		<stop  offset="1" style="stop-color:#352E92"/>
	</linearGradient>
	<path class="st3" d="M3212.5,349.1h-313.9c-24.3,0-44-19.7-44-44c0-24.3,19.7-44,44-44h313.9c24.3,0,44,19.7,44,44
		C3256.6,329.4,3236.9,349.1,3212.5,349.1C3212.6,349.1,3212.5,349.1,3212.5,349.1z"/>
	
		<linearGradient id="SVGID_3_" gradientUnits="userSpaceOnUse" x1="3077.8066" y1="1196.2712" x2="3077.8066" y2="564.7277" gradientTransform="matrix(1 0 0 -1 0 1212)">
		<stop  offset="0" style="stop-color:#6C60EC"/>
		<stop  offset="0.2" style="stop-color:#695DE7"/>
		<stop  offset="0.42" style="stop-color:#6156DA"/>
		<stop  offset="0.64" style="stop-color:#544AC4"/>
		<stop  offset="0.88" style="stop-color:#4139A5"/>
		<stop  offset="1" style="stop-color:#352E92"/>
	</linearGradient>
	<path class="st4" d="M2898.6,98.7c-24.3,0-44-19.7-44-44c0-24.3,19.7-44,44-44l358.4-0.6l0,0c24.3,0,44,19.7,44,44
		c0,24.3-19.7,44-44,44l-358.7,0.6H2898.6z"/>
	
		<linearGradient id="SVGID_4_" gradientUnits="userSpaceOnUse" x1="3077.8066" y1="1196.2712" x2="3077.8066" y2="564.7277" gradientTransform="matrix(1 0 0 -1 0 1212)">
		<stop  offset="0" style="stop-color:#6C60EC"/>
		<stop  offset="0.2" style="stop-color:#695DE7"/>
		<stop  offset="0.42" style="stop-color:#6156DA"/>
		<stop  offset="0.64" style="stop-color:#544AC4"/>
		<stop  offset="0.88" style="stop-color:#4139A5"/>
		<stop  offset="1" style="stop-color:#352E92"/>
	</linearGradient>
	<path class="st5" d="M2898.6,600.1c-24.3,0-44-19.7-44-44c0-24.3,19.7-44,44-44l358.4-0.6l0,0c24.3,0,44,19.7,44,44
		c0,24.3-19.7,44-44,44l-358.7,0.6H2898.6z"/>
	
		<linearGradient id="SVGID_5_" gradientUnits="userSpaceOnUse" x1="625.2418" y1="1199.9413" x2="837.0901" y2="627.4551" gradientTransform="matrix(1 0 0 -1 0 1212)">
		<stop  offset="0" style="stop-color:#2B205B"/>
		<stop  offset="5.000000e-02" style="stop-color:#2C215F"/>
		<stop  offset="0.81" style="stop-color:#352E92"/>
	</linearGradient>
	<path class="st6" d="M825.9,599c-18.4,0-34.9-11.5-41.3-28.8L599.8,69.4c-8-23,4.2-48,27.2-56c22.3-7.7,46.8,3.5,55.4,25.5
		l184.8,500.8c8.4,22.8-3.3,48.1-26,56.5C836.3,598,831.1,598.9,825.9,599z"/>
	
		<linearGradient id="SVGID_6_" gradientUnits="userSpaceOnUse" x1="998.442" y1="1188.179" x2="1217.0837" y2="602.1894" gradientTransform="matrix(1 0 0 -1 0 1212)">
		<stop  offset="0" style="stop-color:#2B205B"/>
		<stop  offset="5.000000e-02" style="stop-color:#2C215F"/>
		<stop  offset="0.81" style="stop-color:#352E92"/>
	</linearGradient>
	<path class="st7" d="M1195.6,599c-18.4,0-34.9-11.4-41.3-28.7L969.5,69.4c-8-23,4.2-48,27.2-56c22.3-7.7,46.8,3.5,55.4,25.5
		l184.8,500.8c8.4,22.9-3.4,48.2-26.2,56.6C1205.9,598,1200.8,599,1195.6,599z"/>
	
		<linearGradient id="SVGID_7_" gradientUnits="userSpaceOnUse" x1="918.1645" y1="1196.2712" x2="918.1645" y2="564.7277" gradientTransform="matrix(1 0 0 -1 0 1212)">
		<stop  offset="0" style="stop-color:#6C60EC"/>
		<stop  offset="0.2" style="stop-color:#695DE7"/>
		<stop  offset="0.42" style="stop-color:#6156DA"/>
		<stop  offset="0.64" style="stop-color:#544AC4"/>
		<stop  offset="0.88" style="stop-color:#4139A5"/>
		<stop  offset="1" style="stop-color:#352E92"/>
	</linearGradient>
	<path class="st8" d="M825.9,599c-5.2,0-10.4-0.9-15.3-2.8c-22.8-8.4-34.5-33.7-26-56.5L969.5,38.9c8.9-22.6,34.4-33.8,57-24.9
		c22,8.6,33.2,33.1,25.5,55.4L867.2,570.3C860.8,587.5,844.3,599,825.9,599z"/>
	
		<linearGradient id="SVGID_8_" gradientUnits="userSpaceOnUse" x1="1287.9924" y1="1196.2712" x2="1287.9924" y2="564.7277" gradientTransform="matrix(1 0 0 -1 0 1212)">
		<stop  offset="0" style="stop-color:#6C60EC"/>
		<stop  offset="0.2" style="stop-color:#695DE7"/>
		<stop  offset="0.42" style="stop-color:#6156DA"/>
		<stop  offset="0.64" style="stop-color:#544AC4"/>
		<stop  offset="0.88" style="stop-color:#4139A5"/>
		<stop  offset="1" style="stop-color:#352E92"/>
	</linearGradient>
	<path class="st9" d="M1195.6,599c-5.2,0-10.4-0.9-15.3-2.8c-22.8-8.4-34.5-33.7-26-56.5l185-500.8c8.9-22.6,34.4-33.8,57-24.9
		c22,8.6,33.2,33.1,25.5,55.4l-185,500.9C1230.5,587.5,1214,599,1195.6,599z"/>
	
		<linearGradient id="SVGID_9_" gradientUnits="userSpaceOnUse" x1="245.6222" y1="1200.8092" x2="492.1463" y2="610.5266" gradientTransform="matrix(1 0 0 -1 0 1212)">
		<stop  offset="0" style="stop-color:#2B205B"/>
		<stop  offset="5.000000e-02" style="stop-color:#2C215F"/>
		<stop  offset="0.81" style="stop-color:#352E92"/>
	</linearGradient>
	<path class="st10" d="M476.1,599c-17.6,0-33.5-10.5-40.4-26.6L219.8,71.5c-9.6-22.3,0.7-48.2,23-57.8c22.3-9.6,48.2,0.7,57.8,23
		l215.9,500.8c9.6,22.3-0.7,48.3-23,57.9C488,597.7,482.1,599,476.1,599z"/>
	
		<linearGradient id="SVGID_10_" gradientUnits="userSpaceOnUse" x1="151.9811" y1="1196.2712" x2="151.9811" y2="564.7277" gradientTransform="matrix(1 0 0 -1 0 1212)">
		<stop  offset="0" style="stop-color:#6C60EC"/>
		<stop  offset="0.2" style="stop-color:#695DE7"/>
		<stop  offset="0.42" style="stop-color:#6156DA"/>
		<stop  offset="0.64" style="stop-color:#544AC4"/>
		<stop  offset="0.88" style="stop-color:#4139A5"/>
		<stop  offset="1" style="stop-color:#352E92"/>
	</linearGradient>
	<path class="st11" d="M44,599c-24.4-0.1-44.1-19.8-44-44.2c0-5.9,1.2-11.8,3.6-17.3L219.5,36.8c9.6-22.3,35.5-32.6,57.8-23
		c22.3,9.6,32.6,35.5,23,57.8l0,0L84.4,572.3C77.5,588.5,61.6,599,44,599z"/>
	
		<linearGradient id="SVGID_11_" gradientUnits="userSpaceOnUse" x1="259.3878" y1="1196.2712" x2="259.3878" y2="564.7277" gradientTransform="matrix(1 0 0 -1 0 1212)">
		<stop  offset="0" style="stop-color:#6C60EC"/>
		<stop  offset="0.2" style="stop-color:#695DE7"/>
		<stop  offset="0.42" style="stop-color:#6156DA"/>
		<stop  offset="0.64" style="stop-color:#544AC4"/>
		<stop  offset="0.88" style="stop-color:#4139A5"/>
		<stop  offset="1" style="stop-color:#352E92"/>
	</linearGradient>
	<path class="st12" d="M409.7,448H109.1c-24.3,0-44-19.7-44-44c0-24.3,19.7-44,44-44c0,0,0,0,0.1,0h300.6c24.3,0,44,19.7,44,44
		C453.7,428.2,434.1,448,409.7,448C409.7,448,409.7,448,409.7,448z"/>
	
		<linearGradient id="SVGID_12_" gradientUnits="userSpaceOnUse" x1="1745.1428" y1="1199.3901" x2="1988.0828" y2="621.5276" gradientTransform="matrix(1 0 0 -1 0 1212)">
		<stop  offset="0" style="stop-color:#2B205B"/>
		<stop  offset="5.000000e-02" style="stop-color:#2C215F"/>
		<stop  offset="0.81" style="stop-color:#352E92"/>
	</linearGradient>
	<path class="st13" d="M1975.9,599c-17.6,0-33.5-10.5-40.5-26.6L1719.5,71.5c-9.2-22.5,1.6-48.2,24.1-57.4c21.9-9,47,1,56.8,22.6
		l215.9,500.8c9.6,22.4-0.8,48.3-23.1,57.9C1987.7,597.8,1981.8,599,1975.9,599L1975.9,599z"/>
	
		<linearGradient id="SVGID_13_" gradientUnits="userSpaceOnUse" x1="1651.6622" y1="1196.2712" x2="1651.6622" y2="564.7277" gradientTransform="matrix(1 0 0 -1 0 1212)">
		<stop  offset="0" style="stop-color:#6C60EC"/>
		<stop  offset="0.2" style="stop-color:#695DE7"/>
		<stop  offset="0.42" style="stop-color:#6156DA"/>
		<stop  offset="0.64" style="stop-color:#544AC4"/>
		<stop  offset="0.88" style="stop-color:#4139A5"/>
		<stop  offset="1" style="stop-color:#352E92"/>
	</linearGradient>
	<path class="st14" d="M1543.6,599c-24.3,0-44-19.8-44-44.1c0-6,1.2-11.9,3.6-17.3l216-500.7c9.6-22.3,35.5-32.6,57.8-23
		s32.6,35.5,23,57.8l-215.9,500.7C1577.2,588.5,1561.2,599,1543.6,599z"/>
	
		<linearGradient id="SVGID_14_" gradientUnits="userSpaceOnUse" x1="1759.1215" y1="1196.2712" x2="1759.1215" y2="564.7277" gradientTransform="matrix(1 0 0 -1 0 1212)">
		<stop  offset="0" style="stop-color:#6C60EC"/>
		<stop  offset="0.2" style="stop-color:#695DE7"/>
		<stop  offset="0.42" style="stop-color:#6156DA"/>
		<stop  offset="0.64" style="stop-color:#544AC4"/>
		<stop  offset="0.88" style="stop-color:#4139A5"/>
		<stop  offset="1" style="stop-color:#352E92"/>
	</linearGradient>
	<path class="st15" d="M1909.4,448h-300.6c-24.3,0-44-19.7-44-44c0-24.3,19.7-44,44-44c0,0,0,0,0.1,0h300.6c24.3,0,44,19.7,44,44
		C1953.5,428.2,1933.8,448,1909.4,448C1909.5,448,1909.4,448,1909.4,448z"/>
	
		<linearGradient id="SVGID_15_" gradientUnits="userSpaceOnUse" x1="2331.4722" y1="977.4122" x2="2638.304" y2="629.6526" gradientTransform="matrix(1 0 0 -1 0 1212)">
		<stop  offset="0" style="stop-color:#2B205B"/>
		<stop  offset="5.000000e-02" style="stop-color:#2C215F"/>
		<stop  offset="0.81" style="stop-color:#352E92"/>
	</linearGradient>
	<path class="st16" d="M2612.5,596.7c-12.6,0-24.6-5.4-33-14.9l-251.4-284.1c-16.1-18.2-14.4-46,3.8-62.1
		c18.2-16.1,46-14.4,62.1,3.8l251.4,284.1c16.1,18.3,14.3,46.1-3.9,62.2C2633.5,592.7,2623.2,596.6,2612.5,596.7L2612.5,596.7z"/>
	
		<linearGradient id="SVGID_16_" gradientUnits="userSpaceOnUse" x1="2258.6296" y1="1196.2712" x2="2258.6296" y2="564.7277" gradientTransform="matrix(1 0 0 -1 0 1212)">
		<stop  offset="0" style="stop-color:#6C60EC"/>
		<stop  offset="0.2" style="stop-color:#695DE7"/>
		<stop  offset="0.42" style="stop-color:#6156DA"/>
		<stop  offset="0.64" style="stop-color:#544AC4"/>
		<stop  offset="0.88" style="stop-color:#4139A5"/>
		<stop  offset="1" style="stop-color:#352E92"/>
	</linearGradient>
	<path class="st17" d="M2258.7,598.9c-24.3,0-44-19.7-44.1-44c0,0,0,0,0,0V54.1c0-24.3,19.7-44,44-44c24.3,0,44,19.7,44,44
		c0,0,0,0,0,0.1v500.8C2302.6,579.2,2283,598.9,2258.7,598.9z"/>
	
		<linearGradient id="SVGID_17_" gradientUnits="userSpaceOnUse" x1="2428.2458" y1="1196.2712" x2="2428.2458" y2="564.7277" gradientTransform="matrix(1 0 0 -1 0 1212)">
		<stop  offset="0" style="stop-color:#6C60EC"/>
		<stop  offset="0.2" style="stop-color:#695DE7"/>
		<stop  offset="0.42" style="stop-color:#6156DA"/>
		<stop  offset="0.64" style="stop-color:#544AC4"/>
		<stop  offset="0.88" style="stop-color:#4139A5"/>
		<stop  offset="1" style="stop-color:#352E92"/>
	</linearGradient>
	<path class="st18" d="M2258.7,407.7c-24.3,0-44-19.7-44-44c0-12.2,5.1-23.9,14.1-32.2l339.8-315.1c18.2-16.1,46-14.5,62.1,3.7
		c15.6,17.6,14.6,44.4-2.3,60.8L2288.6,396C2280.5,403.5,2269.8,407.7,2258.7,407.7z"/>
</g>
<path class="st19" d="M1923.6,914.3c2.2,0,4.2,0,6.2,0c73.9,0,147.7-0.4,221.6,0.2c35.1,0.3,67.4,25.9,76.3,60.6
	c9.7,38.3-8.4,76.7-44.8,94.2c-11.5,5.5-24.1,7.6-36.9,7.3c-7.2-0.1-14.3-0.2-21.5,0c-1.7,0-3.3,0.9-5,1.4c0.7,1.6,1.1,3.5,2.2,4.6
	c19.9,19,39.9,38,59.8,56.9c15.5,14.8,31,29.6,46.4,44.4c0.7,0.7,1.2,1.5,2.3,2.9c-1.9,0.3-3.2,0.7-4.4,0.8
	c-17.6,0-35.2-0.2-52.8,0.1c-4.5,0.1-7.4-1.6-10.5-4.6c-30.7-29.6-61.4-59-92.2-88.4c-20.3-19.4-40.7-38.8-61-58.3
	c-0.9-0.9-1.7-2-3.3-4.1c3.2,0,5.1,0,7.1,0c45,0,90,0,135,0c23.9,0,40.7-19.4,37.4-42.9c-2.3-16.8-18-30.2-36.8-31
	c-8.8-0.4-17.6-0.1-26.4-0.1c-46.9,0-93.7,0-140.6,0c-8.1,0-8,0-8,8.3c0,71.2-0.1,142.4,0.1,213.6c0,5.9-1.5,7.7-7.5,7.5
	c-14.1-0.5-28.1-0.1-42.7-0.1C1923.6,1096.3,1923.6,1005.6,1923.6,914.3z"/>
<path class="st19" d="M2670.9,914.6c-9.2,14.7-17.6,28.5-26.5,41.8c-1.1,1.7-5.1,2.2-7.7,2.2c-56.1,0.1-112.1,0-168.2,0
	c-11.9,0-22.7,3.1-30.8,12.4c-10.2,11.7-12,25-5.2,38.6c6,11.9,16.2,18.9,29.9,19c33.5,0.2,67.1,0,100.6,0.1
	c17.4,0.1,34.8-0.1,52.1,0.8c33.4,1.7,63.5,27.2,71,59.5c8.3,35.2-6.8,70.5-37.1,87.7c-12.9,7.3-26.5,11-41.4,10.9
	c-70-0.2-139.9-0.1-209.9-0.1c-1.4,0-2.8-0.1-5.3-0.2c1.6-3.3,2.8-6.2,4.4-8.9c6.4-10.4,13.3-20.6,19.5-31.1
	c2.5-4.2,5.9-3.7,9.5-3.7c59.9,0,119.9,0,179.8,0c18.2,0,31.5-9.4,36.7-25.8c6.8-21.5-10-44.3-33.1-44.4
	c-40.3-0.1-80.6,0.2-120.9-0.1c-14-0.1-28.4,0.2-42.1-2.5c-49.9-10.1-77.2-65.5-54.1-111.6c11.8-23.7,30.8-38,56.7-42.9
	c6.5-1.3,13.3-2,19.9-2.1c65.5-0.2,130.9-0.1,196.4-0.1C2666.7,914.3,2668.1,914.4,2670.9,914.6z"/>
<path class="st19" d="M3042.9,1064c35.8,0,70,0,105.3,0c-0.9,2.6-1.2,4.2-2,5.4c-7.1,11.7-14.4,23.3-21.5,34.9
	c-2.1,3.5-4.9,4.7-9.1,4.7c-31.1-0.2-62.2,0-93.3-0.2c-5.5,0-8.8,1.6-11.8,6.5c-14.3,23.2-29.1,46.2-43.9,69.2
	c-0.8,1.2-2.3,2.9-3.4,2.9c-17.1,0.2-34.2,0.1-52.7,0.1c5-7.9,9.2-14.7,13.5-21.5c32.9-51.6,65.7-103.2,98.6-154.8
	c17.7-27.9,35.3-55.8,53.3-83.5c10.3-15.8,31.6-18.4,45-5.3c5.4,5.3,9.1,12.4,13.3,18.9c16.1,25.2,32.1,50.5,48.2,75.8
	c26.9,42.1,53.8,84.1,80.7,126.2c8.2,12.9,16.5,25.7,24.7,38.6c1,1.5,1.8,3,3.5,5.7c-5.6,0-10.2,0-14.8,0c-11,0-22.1-0.3-33.1,0.1
	c-4.5,0.2-7.1-1.4-9.3-5c-19.5-30.8-39.2-61.5-58.8-92.3c-23.4-36.8-46.8-73.6-70.1-110.5c-2.2-3.5-4.2-5.9-7.4-1
	C3079.7,1006.7,3061.9,1034.5,3042.9,1064z"/>
<path class="st19" d="M1902.3,1187.2c-2.7,0.2-4.5,0.4-6.2,0.4c-9.4,0-19-1.1-28.2,0.3c-14.8,2.1-22.6-4.2-30.1-16.7
	c-24-39.6-49.6-78.2-74.4-117.2c-15.5-24.3-30.8-48.6-46.2-72.9c-4.2-6.7-5.3-6.6-9.4-0.2c-16.5,25.8-33,51.6-49.4,77.4
	c-0.9,1.4-1.6,3-3,5.8c35.5,0,69.7,0,105.7,0c-4.3,7.1-7.7,12.7-11.2,18.3c-4.6,7.4-9,15.1-14.1,22.2c-1.6,2.2-5.1,4.1-7.8,4.1
	c-31.5,0.3-63,0.3-94.5,0.1c-5,0-8,1.4-10.8,5.8c-14.4,23.2-29.2,46.1-44.1,69.1c-1.1,1.6-3.2,3.7-4.8,3.7
	c-16.5,0.3-33.1,0.2-50.9,0.2c1.9-3.5,3.1-6.3,4.8-8.9c24.5-38.5,49-77,73.5-115.4c27.8-43.6,55.8-87,83.3-130.8
	c6.8-10.8,15.1-17.8,28.2-18.2c10.9-0.3,18.7,4.9,24.4,13.6c11.1,17.1,22.1,34.3,33.1,51.5c21.7,34,43.4,68,65.1,102
	c21.8,34.2,43.7,68.4,65.5,102.6C1901,1184.7,1901.4,1185.4,1902.3,1187.2z"/>
<path class="st19" d="M2868.1,1187.2c-16.9,0-32.9,0-50.2,0c0-2.5,0-5,0-7.5c0-71,0-142,0-213c0-8.5,0-8.5-8.2-8.4
	c-35.4,0-70.8,0-106.2,0c-1.8,0-3.6,0-6.7,0c1.7-3.3,2.8-5.8,4.2-8.1c7.2-10.9,14.4-21.8,21.9-32.5c1.2-1.7,3.7-3.3,5.6-3.4
	c81.6-0.2,163.3-0.1,244.9-0.1c0.8,0,1.6,0.2,3.1,0.5c0,13.5,0.1,27-0.3,40.4c0,1.1-3.8,2.9-5.9,2.9c-30.9,0.2-61.8,0.1-92.7,0.1
	c-9.7,0-9.7,0-9.7,9.7c0,70.4,0.1,140.8,0.1,211.1C2868.1,1181.7,2868.1,1184.3,2868.1,1187.2z"/>
<path class="st19" d="M2333.6,1187.6c-16,0-31,0.1-45.9-0.2c-1.4,0-3.2-2.3-4-3.9c-0.7-1.5-0.2-3.6-0.2-5.5
	c0-52.4-0.1-104.8,0-157.1c0.1-33.3,0.7-66.7,0.8-100c0-5.2,1.8-6.6,6.8-6.4c10.8,0.3,21.7,0.1,32.5,0.1c9.8,0,9.9,0,9.9,10.2
	c0,20.9,0,41.7,0,62.6c0,63.8,0,127.7,0,191.5C2333.6,1181.4,2333.6,1184,2333.6,1187.6z"/>
</svg>
