<svg viewBox="0 0 147.75 63.06" xmlns="http://www.w3.org/2000/svg"><path class="cls-1" d="M8.62 42.75 32.49 7.46a1.2 1.2 0 0 1 2.13 0l8.84 13.17L46.4 25h-5.1a4 4 0 0 0-2.93 1.5L27.81 42.75Z"/><path class="cls-2" d="m32.18 54.66 9.4-18.77a.55.55 0 0 1 .54-.32.57.57 0 0 1 .54.32l9.39 18.77a.45.45 0 0 1-.43.73h-2.46a1.4 1.4 0 0 1-.71-.22 1.18 1.18 0 0 1-.48-.54L47.15 53a1.43 1.43 0 0 0-.5-.51 1.28 1.28 0 0 0-.69-.22h-7.69a1.37 1.37 0 0 0-.7.22 1.15 1.15 0 0 0-.49.54l-.78 1.6a1.43 1.43 0 0 1-.5.54 1.33 1.33 0 0 1-.69.22h-2.47a.5.5 0 0 1-.47-.22.54.54 0 0 1 .01-.51ZM40.11 49h4a.48.48 0 0 0 .47-.23.55.55 0 0 0 0-.53l-2.11-4.46c-.09-.22-.21-.33-.35-.33s-.26.11-.35.33l-2.14 4.46a.57.57 0 0 0 0 .54.51.51 0 0 0 .48.22ZM57.4 55.39h-2.14a.82.82 0 0 1-.6-.25.81.81 0 0 1-.24-.59V36.41a.82.82 0 0 1 .84-.84h8.18a7.55 7.55 0 0 1 2.78.49 7 7 0 0 1 2.14 1.41 5.54 5.54 0 0 1 .81 1 6.06 6.06 0 0 1 .6 1.16 7.77 7.77 0 0 1 .49 2.76 6.81 6.81 0 0 1-1.11 3.93 6.33 6.33 0 0 1-2.25 2 .76.76 0 0 0-.38.45.6.6 0 0 0 .14.56c.66.9 1.3 1.75 1.91 2.55s1.23 1.66 1.88 2.56a.67.67 0 0 1 .12.6.42.42 0 0 1-.45.3h-2.73a1.69 1.69 0 0 1-.73-.19 1.8 1.8 0 0 1-.6-.46l-.91-1.24c-.29-.4-.6-.81-.9-1.23l-1.79-2.51a1.51 1.51 0 0 0-.59-.49 1.63 1.63 0 0 0-.74-.19h-2.08a.85.85 0 0 0-.6.24.81.81 0 0 0-.24.6v4.63a.84.84 0 0 1-.23.59.74.74 0 0 1-.58.3Zm1.65-9.67h4.39a3.06 3.06 0 0 0 1-.21 2.76 2.76 0 0 0 1-.63 3.67 3.67 0 0 0 .71-1 3.37 3.37 0 0 0 .27-1.46 5.48 5.48 0 0 0-.11-1 4.18 4.18 0 0 0-.16-.58 9.19 9.19 0 0 0-.25-.55 2.7 2.7 0 0 0-.92-.92 2.93 2.93 0 0 0-1.59-.38h-4.34a.85.85 0 0 0-.6.24.81.81 0 0 0-.24.6v5.11a.81.81 0 0 0 .24.6.85.85 0 0 0 .6.18ZM95.41 36v18.55a.81.81 0 0 1-.24.59.75.75 0 0 1-.57.25h-2.14a.78.78 0 0 1-.59-.25.82.82 0 0 1-.25-.59v-8.34c0-.24-.05-.38-.14-.42s-.23 0-.37.23L86 52.16a.64.64 0 0 1-1.06 0L79.79 46c-.14-.18-.27-.25-.37-.22s-.17.17-.17.41v8.34a.81.81 0 0 1-.24.59.79.79 0 0 1-.6.25H76.3a.85.85 0 0 1-.84-.84V36a.37.37 0 0 1 .33-.41.56.56 0 0 1 .54.22l8.55 10.59a.74.74 0 0 0 1.09 0l8.58-10.56a.55.55 0 0 1 .54-.22.36.36 0 0 1 .32.38ZM104.54 55.39h-2.14a.73.73 0 0 1-.58-.25.8.8 0 0 1-.23-.59V36.44a.81.81 0 0 1 .23-.6.75.75 0 0 1 .58-.24h2.14a.81.81 0 0 1 .59.24.82.82 0 0 1 .25.6v18.11a.82.82 0 0 1-.25.59.78.78 0 0 1-.59.25ZM111.08 52.11l1.13-1.68a.75.75 0 0 1 .52-.35.82.82 0 0 1 .62.14 23.48 23.48 0 0 0 2.38 1.29 7.4 7.4 0 0 0 3.33.76 5 5 0 0 0 1.63-.24 3.81 3.81 0 0 0 1.19-.6 2.6 2.6 0 0 0 .73-.84 1.83 1.83 0 0 0 .24-.92 1.52 1.52 0 0 0-.38-1 3.08 3.08 0 0 0-1-.68c-.2-.09-.42-.17-.65-.25l-.79-.21c-.27-.07-.54-.14-.82-.19l-.88-.16-.65-.13-.73-.14a8.84 8.84 0 0 1-1.63-.41 7.86 7.86 0 0 1-1.65-.68 5.59 5.59 0 0 1-1.46-1 4.47 4.47 0 0 1-1-1.52 5.08 5.08 0 0 1-.38-2.06 5.19 5.19 0 0 1 2.49-4.71 8.24 8.24 0 0 1 2.43-.92 12.54 12.54 0 0 1 2.6-.27 14.63 14.63 0 0 1 2.22.16c.33.06.64.13.94.21l.88.25c.28.11.56.24.84.37l.78.42.51.32c.17.11.35.22.55.33a.85.85 0 0 1 .35.54.83.83 0 0 1-.16.62l-1.14 1.63a.86.86 0 0 1-1.19.21 10.3 10.3 0 0 0-2-1 7.06 7.06 0 0 0-2.73-.52h-.53c-.19 0-.38 0-.58.08a5.4 5.4 0 0 0-1.19.41 4.7 4.7 0 0 0-.5.29 2.19 2.19 0 0 0-.4.34 1.55 1.55 0 0 0-.35 1 1.3 1.3 0 0 0 .43 1 3.54 3.54 0 0 0 1.11.68q.35.14.72.24c.24.08.5.15.77.22s.54.14.8.19.52.12.77.19l.62.13a6.38 6.38 0 0 0 .71.14l.78.15a8.19 8.19 0 0 1 .81.23l.45.13.45.17c.21.09.46.2.74.35a5.7 5.7 0 0 1 .72.43 4 4 0 0 1 .39.29l.34.31a4.61 4.61 0 0 1 1 1.57 5.76 5.76 0 0 1 .4 2.27 6.29 6.29 0 0 1-.54 2.68 4.84 4.84 0 0 1-1.54 1.87 6.82 6.82 0 0 1-2.38 1.14 12.1 12.1 0 0 1-3.06.38 13.69 13.69 0 0 1-2.74-.25 9.37 9.37 0 0 1-2.14-.62c-.32-.13-.64-.27-.94-.42a9.84 9.84 0 0 1-.9-.5l-.54-.34-.57-.39a.78.78 0 0 1-.35-.52.88.88 0 0 1 .12-.61ZM130.19 53.06a2.76 2.76 0 0 1 .09-.71 2.6 2.6 0 0 1 .26-.64 3.74 3.74 0 0 1 .41-.55 2.6 2.6 0 0 1 .53-.41 2.75 2.75 0 0 1 .63-.28 2.61 2.61 0 0 1 .69-.09 2.69 2.69 0 0 1 .7.09 2.57 2.57 0 0 1 .63.28 2.41 2.41 0 0 1 .54.41 3.15 3.15 0 0 1 .41.55 2.6 2.6 0 0 1 .26.64 2.39 2.39 0 0 1 .1.71 2.66 2.66 0 0 1-.21 1 2.78 2.78 0 0 1-.56.86 2.71 2.71 0 0 1-.84.57 2.53 2.53 0 0 1-1 .21 2.61 2.61 0 0 1-.69-.09 3.23 3.23 0 0 1-.63-.27A3.06 3.06 0 0 1 131 55a3.74 3.74 0 0 1-.41-.55 2.77 2.77 0 0 1-.26-.64 2.84 2.84 0 0 1-.14-.75Zm.65 0a2.27 2.27 0 0 0 .15.83 2.06 2.06 0 0 0 .42.66 1.87 1.87 0 0 0 .59.45 2 2 0 0 0 .77.16 2.1 2.1 0 0 0 .79-.16 2 2 0 0 0 .63-.45 2.06 2.06 0 0 0 .42-.66 2.27 2.27 0 0 0 .15-.83 2.16 2.16 0 0 0-.15-.81 2 2 0 0 0-1-1.11 1.93 1.93 0 0 0-.79-.17 1.81 1.81 0 0 0-.77.17 1.84 1.84 0 0 0-.62.44 2 2 0 0 0-.42.67 2.16 2.16 0 0 0-.17.81Zm1-1.35H133a1 1 0 0 1 .36.06.88.88 0 0 1 .28.17.73.73 0 0 1 .17.27.78.78 0 0 1 .07.35.82.82 0 0 1 0 .28.67.67 0 0 1-.12.2.64.64 0 0 1-.15.14.43.43 0 0 1-.16.07v.05l.05.08.5 1h-.69l-.45-1h-.35v1h-.63Zm1 1.25a.4.4 0 0 0 .29-.11.39.39 0 0 0 .1-.29.4.4 0 0 0-.1-.3.41.41 0 0 0-.28-.1h-.35V53Z"/></svg>