<?xml version="1.0" encoding="utf-8"?>
<!-- Generator: Adobe Illustrator 25.2.3, SVG Export Plug-In . SVG Version: 6.00 Build 0)  -->
<svg version="1.1" id="5c7c3fda-a84b-41c7-9418-e49f71bd5f72" xmlns="http://www.w3.org/2000/svg"  x="0px" y="0px"
	 viewBox="0 0 75 75" enable-background="new 0 0 75 75" xml:space="preserve">
<g>
	<path fill="#FF8300" d="M42.56,39.4L42.56,39.4c-0.02,3.67-2.94,6.65-6.53,6.65s-6.51-2.98-6.53-6.65l0,0v-5.67
		c0,0,3.11,0.77,3.14,4.09v1.54c0,2,1.52,3.63,3.39,3.63s3.39-1.63,3.39-3.63v-3.26v-0.02v0.06c0.13-2.76,2.47-3.65,3.07-3.94h0.07
		v3.88V39.4z M25.76,32.78c0.86,0,1.69,0.16,2.44,0.44v3.5c-0.65-0.56-1.51-0.89-2.44-0.89c-2.06,0-3.73,1.62-3.73,3.63v6.59h-3.14
		v-6.47v-0.12v-5.44c0,0,1.29,0.06,2.12,0.63C22.24,33.49,23.91,32.78,25.76,32.78 M10.77,43.08c-2.09,0-3.78-1.65-3.78-3.68
		c0-2.03,1.69-3.68,3.78-3.68s3.78,1.65,3.78,3.68S12.86,43.08,10.77,43.08 M10.77,32.78c-3.77,0-6.82,2.97-6.82,6.63
		c0,3.66,3.05,6.63,6.82,6.63c1.56,0,2.99-0.51,4.14-1.37c0.71,1.15,2.68,1.37,2.68,1.37v-1.07v-5.27v-0.29
		C17.6,35.76,14.54,32.78,10.77,32.78 M65.18,43.08c-2.09,0-3.78-1.65-3.78-3.68c0-2.03,1.69-3.68,3.78-3.68
		c2.09,0,3.78,1.65,3.78,3.68S67.27,43.08,65.18,43.08 M65.18,32.78c-3.77,0-6.82,2.97-6.82,6.63c0,3.66,3.05,6.63,6.82,6.63
		c1.56,0,2.99-0.51,4.14-1.37c0.7,1.15,2.68,1.37,2.68,1.37v-1.07v-5.27v-0.29C72,35.76,68.94,32.78,65.18,32.78 M50.75,43.08
		c-2.09,0-3.78-1.65-3.78-3.68c0-2.03,1.69-3.68,3.78-3.68s3.78,1.65,3.78,3.68S52.84,43.08,50.75,43.08 M50.75,32.78
		c-1.39,0-2.68,0.41-3.76,1.1v-1.04c-0.13-2.77-2.4-3.65-3-3.94h-0.07v10.51v0.42v5.15v1.11c0,0,2.04-0.21,2.81-1.33
		c1.13,0.81,2.51,1.29,4.02,1.29c3.77,0,6.82-2.97,6.82-6.63C57.58,35.76,54.52,32.78,50.75,32.78"/>
</g>
</svg>
