<?xml version="1.0" encoding="UTF-8"?>
<!DOCTYPE svg PUBLIC "-//W3C//DTD SVG 1.1//EN" "http://www.w3.org/Graphics/SVG/1.1/DTD/svg11.dtd">
<svg xmlns="http://www.w3.org/2000/svg" version="1.1" width="800px" height="800px"  >
<g><path  fill="#2581ff" d="M 394.5,-0.5 C 398.833,-0.5 403.167,-0.5 407.5,-0.5C 412.709,1.86958 416.876,5.53625 420,10.5C 546.543,262.919 672.543,515.586 798,768.5C 800.297,782.074 795.13,791.574 782.5,797C 734.531,798.152 686.531,798.652 638.5,798.5C 592.5,798.333 546.5,798.167 500.5,798C 492.8,797.233 486.634,793.733 482,787.5C 435.667,694.833 389.333,602.167 343,509.5C 290.411,391.252 282.078,269.919 318,145.5C 332.711,97.6723 353.377,52.6723 380,10.5C 383.906,5.40438 388.739,1.73772 394.5,-0.5 Z"/></g>
<g><path fill="#0558d3" d="M 309.5,481.5 C 309.565,481.938 309.399,482.272 309,482.5C 270.97,447.3 233.136,411.967 195.5,376.5C 200.465,361.851 210.465,356.351 225.5,360C 228.661,361.413 231.661,363.08 234.5,365C 266.512,399.207 291.512,438.04 309.5,481.5 Z"/></g>
<g><path fill="#095dd8" d="M 195.5,376.5 C 233.136,411.967 270.97,447.3 309,482.5C 309.399,482.272 309.565,481.938 309.5,481.5C 321.104,508.221 330.104,535.887 336.5,564.5C 335.448,564.649 334.448,564.483 333.5,564C 280.964,514.628 228.297,465.461 175.5,416.5C 181.659,402.849 188.325,389.516 195.5,376.5 Z"/></g>
<g><path fill="#0b61dc" d="M 175.5,416.5 C 228.297,465.461 280.964,514.628 333.5,564C 334.448,564.483 335.448,564.649 336.5,564.5C 338.933,577.766 340.933,591.099 342.5,604.5C 283.223,549.727 224.057,494.727 165,439.5C 164.617,440.056 164.117,440.389 163.5,440.5C 166.992,432.182 170.992,424.182 175.5,416.5 Z"/></g>
<g><path fill="#0e64df" d="M 342.5,604.5 C 343.768,614.118 344.435,623.784 344.5,633.5C 281.172,574.839 218.172,515.839 155.5,456.5C 157.659,450.849 160.326,445.516 163.5,440.5C 164.117,440.389 164.617,440.056 165,439.5C 224.057,494.727 283.223,549.727 342.5,604.5 Z"/></g>
<g><path fill="#1068e2" d="M 155.5,456.5 C 218.172,515.839 281.172,574.839 344.5,633.5C 345.516,648.152 345.516,662.819 344.5,677.5C 339.726,673.902 335.06,670.069 330.5,666C 266.964,606.295 203.297,546.795 139.5,487.5C 144.595,476.975 149.928,466.642 155.5,456.5 Z"/></g>
<g><path fill="#156de8" d="M 139.5,487.5 C 203.297,546.795 266.964,606.295 330.5,666C 335.06,670.069 339.726,673.902 344.5,677.5C 343.101,695.562 340.101,713.229 335.5,730.5C 263.447,663.111 191.114,596.111 118.5,529.5C 125.5,515.5 132.5,501.5 139.5,487.5 Z"/></g>
<g><path fill="#1973ee" d="M 118.5,529.5 C 191.114,596.111 263.447,663.111 335.5,730.5C 332.339,747.316 327.006,763.316 319.5,778.5C 248.956,711.22 177.956,644.386 106.5,578C 103.603,575.59 100.603,573.423 97.5,571.5C 104.5,557.5 111.5,543.5 118.5,529.5 Z"/></g>
<g><path fill="#1d79f4" d="M 97.5,571.5 C 100.603,573.423 103.603,575.59 106.5,578C 177.956,644.386 248.956,711.22 319.5,778.5C 314.089,794.051 303.089,800.718 286.5,798.5C 286.5,798.167 286.5,797.833 286.5,797.5C 218.14,733.139 149.474,669.139 80.5,605.5C 86.1667,594.167 91.8333,582.833 97.5,571.5 Z"/></g>
<g><path fill="#207df7" d="M 80.5,605.5 C 149.474,669.139 218.14,733.139 286.5,797.5C 274.829,797.667 263.162,797.5 251.5,797C 196.167,745 140.833,693 85.5,641C 80.2745,636.266 74.9411,631.766 69.5,627.5C 73.1667,620.167 76.8333,612.833 80.5,605.5 Z"/></g>
<g><path fill="#2380fb" d="M 69.5,627.5 C 74.9411,631.766 80.2745,636.266 85.5,641C 140.833,693 196.167,745 251.5,797C 263.162,797.5 274.829,797.667 286.5,797.5C 286.5,797.833 286.5,798.167 286.5,798.5C 257.5,798.5 228.5,798.5 199.5,798.5C 194.074,791.57 188.074,785.07 181.5,779C 138.663,739.662 95.9961,700.162 53.5,660.5C 58.5634,649.373 63.8967,638.373 69.5,627.5 Z"/></g>
<g><path fill="#2684fe" d="M 53.5,660.5 C 95.9961,700.162 138.663,739.662 181.5,779C 188.074,785.07 194.074,791.57 199.5,798.5C 139.832,798.667 80.1657,798.5 20.5,798C 10.0645,796.718 3.06455,791.218 -0.5,781.5C -0.5,776.833 -0.5,772.167 -0.5,767.5C 17.2289,731.709 35.2289,696.042 53.5,660.5 Z"/></g>
</svg>
