<?xml version="1.0" encoding="utf-8"?>
<!-- Generator: Adobe Illustrator 25.1.0, SVG Export Plug-In . SVG Version: 6.00 Build 0)  -->
<svg version="1.1" id="Layer_1" xmlns="http://www.w3.org/2000/svg" xmlns:xlink="http://www.w3.org/1999/xlink" x="0px" y="0px"
	 viewBox="0 0 75 75" style="enable-background:new 0 0 75 75;" xml:space="preserve">
<style type="text/css">
	.st0{fill:#0052CC;}
	.st1{fill-rule:evenodd;clip-rule:evenodd;fill:#0052CC;}
</style>
<g>
	<path class="st0" d="M4.4,31.1C3.8,32,3.5,33,3.4,34c-0.1,1,0.1,2.1,0.6,3l1.5,3c0,0,0.1,0.1,0.1,0.1c0,0,0.1,0,0.1,0h3.1
		c0,0,0.1,0,0.1,0c0,0,0.1-0.1,0.1-0.1c0,0,0-0.1,0-0.1c0,0,0-0.1,0-0.1l-4.3-8.7c0,0-0.1-0.1-0.1-0.1c0,0-0.1,0-0.1,0
		c0,0-0.1,0-0.1,0S4.4,31.1,4.4,31.1L4.4,31.1z M2.7,35.2c0,0-0.1-0.1-0.1-0.1c0,0-0.1,0-0.1,0c0,0-0.1,0-0.1,0c0,0-0.1,0.1-0.1,0.1
		L0,39.8c0,0.1,0,0.1,0,0.2c0,0.1,0.1,0.1,0.1,0.2c0,0,0.1,0,0.1,0h3.1c0.1,0,0.1,0,0.1,0c0,0,0.1-0.1,0.1-0.1
		C4.3,38.6,3.9,36.5,2.7,35.2L2.7,35.2z M43.7,37.2c-2-0.4-2.5-1.3-2.5-2.4c0-1.4,1-2.2,3-2.2c0.9,0,1.7,0.2,2.5,0.5v1.7
		c-0.8-0.4-1.7-0.6-2.6-0.6c-0.7,0-1.1,0.2-1.1,0.6c0,0.3,0.3,0.6,1.4,0.8c2,0.4,2.7,1,2.7,2.4c0,1.4-0.8,2.3-3,2.3
		c-1.5,0-2.3-0.3-2.9-0.6v-1.8c0.9,0.5,1.9,0.8,2.9,0.8c0.9,0,1.1-0.3,1.1-0.6C45.2,37.6,45,37.4,43.7,37.2L43.7,37.2z M68.4,32.6
		v7.6H70v-5.8l0.7,1.5l2.3,4.2h2v-7.6h-1.6v4.9l-0.6-1.4l-1.8-3.5H68.4L68.4,32.6z M56.4,32.6h1.8v7.6h-1.8V32.6L56.4,32.6z
		 M54.4,38c0-1.3-0.7-1.9-2.7-2.4c-1.1-0.2-1.4-0.5-1.4-0.8c0-0.4,0.4-0.6,1.1-0.6c0.9,0,1.7,0.3,2.6,0.6V33
		c-0.8-0.4-1.6-0.5-2.5-0.5c-2,0-3,0.9-3,2.2c0,1.1,0.5,2,2.5,2.4c1.2,0.3,1.5,0.4,1.5,0.9c0,0.4-0.3,0.6-1.1,0.6
		c-1,0-2-0.3-2.9-0.8v1.8c0.6,0.3,1.4,0.6,2.9,0.6C53.5,40.3,54.4,39.4,54.4,38L54.4,38z M27.5,40.2v-7.6h1.8v5.9h2.4l-0.6,1.6H27.5
		L27.5,40.2z M20.4,32.6v1.6h2v5.9h1.8v-5.9h2.1v-1.6H20.4L20.4,32.6z"/>
	<path class="st0" d="M15.5,32.6h2.3l2.6,7.6h-2L18,38.9c-0.9,0.3-1.9,0.3-2.8,0l-0.4,1.3h-2L15.5,32.6L15.5,32.6z M15.7,37.4
		c0.3,0.1,0.6,0.1,1,0.1c0.3,0,0.7,0,1-0.1l-1-3.3L15.7,37.4L15.7,37.4z"/>
	<path class="st1" d="M37.4,32.6h-2.3l-2.6,7.6h2l0.4-1.3c0.9,0.3,1.9,0.3,2.8,0l0.4,1.3h2L37.4,32.6L37.4,32.6z M36.2,37.6
		c-0.3,0-0.7,0-1-0.1l1-3.3l1,3.3C36.9,37.5,36.5,37.6,36.2,37.6L36.2,37.6z"/>
	<path class="st0" d="M62.2,32.6h2.3l2.6,7.6h-2l-0.4-1.3c-0.9,0.3-1.9,0.3-2.8,0l-0.4,1.3h-2L62.2,32.6L62.2,32.6z M62.4,37.4
		c0.3,0.1,0.6,0.1,1,0.1c0.3,0,0.7,0,1-0.1l-1-3.3L62.4,37.4L62.4,37.4z"/>
</g>
</svg>
