<svg xmlns="http://www.w3.org/2000/svg" xmlns:xlink="http://www.w3.org/1999/xlink" width="586.667" height="153.333" viewBox="0 0 440 115"><path d="M42.4 56.1C35 71 29.1 83.9 29.4 84.6c.3.8 1.1 1.4 1.9 1.4 1.6 0 29.2-54.5 28.2-55.9-1.9-3.2-4.3.4-17.1 26zm66-25.9c-5.7 1.8-12.7 8-15.7 13.8-6.1 12.1-4.4 23.3 5.1 33 6.8 6.9 13.9 9.6 22.9 8.7 8.4-.9 19.7-7.6 17.8-10.6-.8-1.3-4.5-1.5-4.5-.2 0 .5-2.3 2.1-5.2 3.5-19 9.5-39.5-7.8-33.8-28.5 1.3-4.5 7.2-11.4 11.9-13.8 8.2-4.2 18.2-3.3 25.6 2.3 3.7 2.8 5 3.2 6 1.5 1.1-1.6-3.5-5.9-9-8.5-5.4-2.6-15.1-3.1-21.1-1.2zm52.1.8c-10.8 5.4-11.6 19.3-1.4 24.6 5.3 2.7 7-1.2 1.9-4.2-8.3-5-4.7-16.1 5.9-17.9 5.4-.9 11.8 1.1 15.1 4.7 2.7 2.9 6 3.4 6 .9 0-1.9-5.5-7.4-8.7-8.7-4.9-2.1-14.1-1.8-18.8.6zm55 .4c-21.8 10.3-22.5 40.5-1.2 51.3 6.6 3.3 13.9 4 20.8 2 5.7-1.7 12.9-6.9 12.9-9.3 0-2.2-2.4-1.7-8 1.8-7.4 4.6-15.8 5.1-23.4 1.4-19.7-9.6-17-37.8 4.1-44.2 7.5-2.3 16.3-.4 22 4.8 2.4 2.2 5.3 1.8 5.3-.6 0-1.8-7.1-6.8-11.9-8.4-5.8-2-15-1.5-20.6 1.2zm54.7 5.6c-1.7 3.8-2.6 7-2 7 .5 0 1.2-.9 1.5-2 .4-1.5 1.4-2 3.8-2 2.5 0 3.5.5 4 2 .5 1.7 2.5 2.9 2.5 1.6 0-.8-5.9-13.6-6.3-13.6-.2 0-1.8 3.1-3.5 7zm5.2 1.1c-.7 1.2-3.4 1.1-3.4 0 0-.5.3-1.7.7-2.7.6-1.6.7-1.6 1.9.1.7 1 1.1 2.2.8 2.6zm53.9-1.1c0 4.1.2 5.8.4 3.7a46.95 46.95 0 0 0 0-7.5c-.2-2-.4-.3-.4 3.8zm3.7-6a1.08 1.08 0 0 0 1 1c.6 0 1-.5 1-1a.94.94 0 0 0-1-1c-.5 0-1 .4-1 1zm-30.2 2.1c-1.3 1.4-1.4 1.8-.3 2.3.8.3 1.5 2.4 1.8 4.8l.4 4.3.1-4.8c.1-3 .7-4.7 1.5-4.7s.9-.3.1-.8c-.6-.4-1.3-1.2-1.5-1.7-.2-.6-1.1-.4-2.1.6zm-20.4 5.4.1 5h3.8l3.7.1-.2-5.1c-.1-4.3-.2-4.5-.5-1.3-.3 2.4-1.1 4.2-2.3 4.8-2.3 1.2-3.7-.3-4.3-5-.3-2.3-.4-1.8-.3 1.5zm11.3-3.8c-1.5 1.4-.6 3.4 1.9 4.3 3 1.2 2.7 3.6-.5 3.3-1.3-.2-2 .1-1.6.7 1.4 2.3 6.5.3 6.5-2.6 0-.7-1.4-1.7-3.2-2.3-3.3-1.2-3-2.5.7-3.4 1.6-.4 1.5-.5-.6-.6-1.4 0-2.9.2-3.2.6zm15.3 4.4c0 2.7.5 4.9 1 4.9.6 0 1-1.6 1-3.6 0-2.3.6-4.1 1.7-4.9 1.5-1.1 1.4-1.3-1-1.3-2.6 0-2.7.3-2.7 4.9zm8.2-3.9c-1.6 1.6-1.5 6.3.2 7.7.7.6 2.8.9 4.7.7 3.2-.3 3.4-.5 3.7-4.8l.3-4.5-3.9-.1c-2.1-.1-4.4.4-5 1zm5.6 1c1.8 1.8 1.4 4.6-.7 5.8-1.5.7-2.3.6-3.5-.6-1.9-1.8-1.9-2-.6-4.5 1.2-2.2 3-2.5 4.8-.7zM333 39c0 2.7.5 5 1 5 .6 0 1-2.3 1-5 0-2.8-.4-5-1-5-.5 0-1 2.2-1 5zm5-3.1c-2.4 4.6.2 8.2 5.6 7.8 3.3-.2 3.4-.3 3.4-4.7v-4.5l-4-.3c-3-.2-4.1.2-5 1.7zm7 1c2 3.8-1.3 7.1-4.6 4.7-1.2-.9-1.5-2-1-3.9.8-3.2 4-3.6 5.6-.8zm5 2.2c0 2.7.5 4.9 1 4.9.6 0 1-1.8 1-3.9 0-2.6.5-4.1 1.6-4.5 2.4-.9 3.4.2 3.4 3.9 0 1.9.5 3.7 1.1 4 .7.5.9-.9.7-4.2l-.3-4.8-4.2-.1-4.3-.2v4.9zm-79.4 13c-3 2.4-3.4 6.3-1 9.7 1.3 1.9 2.4 2.2 5.7 2 2.8-.2 4.3-.8 4.5-1.8.2-1.1-.7-1.5-3.5-1.5-3.2 0-3.9-.4-4.1-2.3-.5-3.4 1.6-5.5 5-4.8 3.5.7 4-1.9.6-2.8-3.6-.9-4.3-.7-7.2 1.5zm62 .1c-1.9 2.7-.6 5.5 3 6.4 3.5.9 2.3 3-1.5 2.6-2.3-.2-3.1.2-2.9 1 .3.8 2.2 1.3 4.9 1.3 4.2 0 4.4-.1 4.7-3.3.3-2.9 0-3.4-2.7-4.3-3.7-1.3-4.1-3.3-.6-2.7 2.8.6 3.6-1.6.9-2.6-2.8-1.1-4.2-.7-5.8 1.6zM294 57.4v6.3l4.5.1c4.5.1 6.5-1.4 6.5-5.2 0-2.5-3.1-4.8-5.6-4.2-1.9.5-2.4.2-2.4-1.4 0-1.1-.7-2-1.5-2-1.2 0-1.5 1.4-1.5 6.4zm6.8 1.8c-.2 1.3-1 2.3-1.8 2.3s-1.6-1-1.8-2.3c-.3-1.7.2-2.2 1.8-2.2s2.1.5 1.8 2.2zM387 52c0 .5.7 1 1.5 1s1.5-.5 1.5-1c0-.6-.7-1-1.5-1s-1.5.4-1.5 1zm6.3 1.5c-1.6 1.7-1.7 3.5-.3 3.5.6 0 1 1.6 1 3.5 0 2.4.5 3.5 1.5 3.5s1.5-1.1 1.5-3.5c0-1.9.5-3.5 1-3.5 1.5 0 1.2-1.9-.4-3.6-1.8-1.7-2.7-1.7-4.3.1z"/><use xlink:href="#a"/><path d="M307.9 56.1c-2.1 2.1-1.9 5.6.5 7.2 1.6 1 6.9.4 7.3-.9.2-.7-.5-1-2-.7-1.4.3-2.8 0-3.1-.6-.5-.7.4-1.1 2.3-1.1 2.3 0 3.1-.5 3.1-1.8 0-4.3-4.7-5.5-8.1-2.1zm5.1.9c0 .5-.7 1-1.6 1-.8 0-1.2-.5-.9-1 .3-.6 1-1 1.6-1 .5 0 .9.4.9 1z"/><use xlink:href="#b"/><path d="M344.7 55.8c-2.1 2.3-2.2 5.6-.3 7.1 1.7 1.4 8.2 1.1 7.8-.4-.2-.6-1.4-.9-2.7-.7-1.4.2-2.5-.1-2.5-.7 0-.5 1.2-1.1 2.7-1.3 3.2-.4 3.9-2 1.8-4.2-2.2-2.1-4.8-2-6.8.2zm4.8 1.2c.3.5-.1 1-.9 1-.9 0-1.6-.5-1.6-1 0-.6.4-1 .9-1 .6 0 1.3.4 1.6 1zm6.6-1.1c-2.5 2.5-2.6 4.4-.5 6.5 1.9 2 7.4 2.1 7.4.3 0-.8-1-1.3-2.2-1.3-3.2.1-3.2-3.8 0-4.2 1.3-.2 2.1-.9 1.9-1.5-.6-2.1-4.5-1.9-6.6.2zm9.6-1.3c-.9 1-.9 6.6.1 8.1.4.6 2.9 1.1 5.5 1.1h4.8l-.3-4.6c-.2-3.4-.7-4.8-2-5s-1.7.5-2 3.5c-.4 4.6-2.1 4.7-2.8.2-.5-3.2-2-4.6-3.3-3.3z"/><use xlink:href="#b" x="60"/><path d="M387 59c0 3.8.4 5 1.5 5s1.5-1.2 1.5-5-.4-5-1.5-5-1.5 1.2-1.5 5z"/><use xlink:href="#a" x="119"/><path d="M173.7 57.6c-1.5 1.5-.6 3.2 2.2 4.4 4.7 1.9 7.1 4.7 7.1 8.4 0 7-6.3 11.1-16 10.4-4.7-.3-6.9-1.1-10.4-3.6-7.4-5.3-10.8-3.2-4.2 2.6 10.4 9.1 28 7.6 33.4-2.8 2.7-5.4 2.8-8.5.2-12.7-2.8-4.7-10.2-8.7-12.3-6.7zM54.1 61.9c-.8.5-1.1 1.6-.8 2.5.5 1.3 2.3 1.6 9.9 1.6h9.3l5 9.7c4.9 9.5 7 11.9 8 9.1.6-1.6-7.8-19.9-10.2-22.3-1.6-1.7-18.7-2.2-21.2-.6zm216 11c-5.5 5.5 1 14.3 8.3 11.5 2.8-1.1 1.7-2-1.9-1.6-1.9.2-4.2-.1-5-.8-2.1-1.8-1.8-6.4.6-8.5 1.7-1.6 2.5-1.7 5-.8 2.3.9 2.9.9 2.6 0-.7-2.2-7.4-2-9.6.2zm36 .3c0 .9-.9 1.9-1.8 2.1-1.6.4-1.6.5-.1.6 1.3.1 1.8 1.3 2.1 4.8l.3 4.8.2-4.7c.2-3.5.6-4.8 2-5.1 1.5-.4 1.5-.5 0-.6-.9 0-1.9-.9-2.1-1.9-.4-1.5-.5-1.5-.6 0zm-22.8 2.4c-.7.3-1.3 2.1-1.3 4 0 2.7.5 3.7 2.4 4.6 1.5.6 3.2.7 4.3.2 1.5-.7 1.2-.9-1.4-1.2-4.6-.5-5.2-3.2-.7-3.2 3.1 0 3.5-.3 3.2-2.3-.3-2.2-3.7-3.3-6.5-2.1zm5.2 1.4c.4.6-.5 1-1.9 1s-2.6-.5-2.6-1c0-.6.9-1 1.9-1 1.1 0 2.3.4 2.6 1zm4.5 2.7c0 5.3 1.8 5.7 2.2.5.2-2.9.7-3.7 2.3-3.7s2.1.8 2.3 3.7c.4 4.6 2.2 5.1 2.2.5s-1.1-5.8-5.3-5.5c-3.6.3-3.7.4-3.7 4.5zm18 0c0 2.3.5 4.3 1 4.3.6 0 1-1.3 1-2.9 0-1.9.8-3.5 2.1-4.5 2.1-1.4 2.1-1.5-1-1.4-3 .1-3.1.3-3.1 4.5zm8.2-3.5C316.4 79 319 85 323 85c3.1 0 3.3-1.8.3-2.2-1.6-.2-2.9-1-3.1-1.9-.2-1.2.4-1.5 2.6-1.1 3.4.5 4.9-1.2 3.2-3.3-1.5-1.8-5.2-1.9-6.8-.3zm5.3.8c.4.6-.5 1-2 1s-2.4-.4-2-1c.3-.6 1.2-1 2-1s1.7.4 2 1z"/><defs><path id="a" d="M282 55.5c0 .9.7 3 1.6 4.7 1.3 2.4 1.4 3.6.5 5.6-.7 1.3-1 2.7-.7 3 1.3 1.3 3.4-1.1 5.3-6l2.8-7.1c1.2-2.9-2-2-3.4 1l-1.3 2.8-1.4-2.8c-1.6-3-3.4-3.6-3.4-1.2z"/><path id="b" d="M318.5 54.8c-.3.3-.5 2.5-.5 4.9 0 3.6.3 4.3 2 4.3 1.6 0 2-.7 2-3 0-1.8.6-3.3 1.5-3.6 2.6-1 1.6-3.1-1.5-3.1-1.6 0-3.2.3-3.5.5z"/></defs></svg>