<?xml version="1.0" encoding="utf-8"?>
<!-- Generator: Adobe Illustrator 27.9.1, SVG Export Plug-In . SVG Version: 6.00 Build 0)  -->
<svg version="1.1" id="Ebene_1" xmlns="http://www.w3.org/2000/svg" x="0px" y="0px"
	 viewBox="0 0 566.9 283.5" style="enable-background:new 0 0 566.9 283.5;" xml:space="preserve">
<style type="text/css">
	.st0{fill:#F39100;}
	.st1{fill:#191817;}
	.st2{fill:#F29100;}
</style>
<g>
	<path class="st0" d="M227.7,121.4c0,2.8-0.5,5.5-1.6,7.9c-1,2.4-2.4,4.6-4.2,6.4c-1.8,1.8-3.8,3.3-6.2,4.3
		c-2.4,1.1-4.9,1.6-7.6,1.6c-3.6,0-6.9-0.9-9.8-2.8c-2.9-1.9-5.2-4.4-6.8-7.5v9.4h-2.8V84.4h2.8v26.8c1.6-3.1,3.9-5.6,6.8-7.5
		c2.9-1.9,6.2-2.9,9.8-2.9c2.7,0,5.2,0.5,7.6,1.6c2.4,1.1,4.4,2.6,6.2,4.4c1.8,1.9,3.2,4,4.2,6.5
		C227.2,115.9,227.7,118.6,227.7,121.4z M224.9,121.4c0-2.4-0.4-4.7-1.3-6.9c-0.9-2.2-2-4-3.6-5.6c-1.5-1.6-3.3-2.9-5.3-3.8
		c-2-0.9-4.2-1.4-6.5-1.4c-2.3,0-4.4,0.5-6.4,1.4c-2,0.9-3.8,2.2-5.3,3.8c-1.5,1.6-2.7,3.5-3.6,5.6c-0.9,2.2-1.3,4.5-1.3,6.9
		c0,2.4,0.4,4.7,1.3,6.8s2.1,4,3.6,5.6c1.5,1.6,3.3,2.8,5.3,3.7s4.2,1.4,6.4,1.4c2.3,0,4.5-0.5,6.5-1.4s3.8-2.2,5.3-3.7
		c1.5-1.6,2.7-3.4,3.6-5.6S224.9,123.8,224.9,121.4z"/>
	<path class="st0" d="M264.1,140.8c-0.4-0.7-0.6-1.5-0.8-2.5c-0.2-0.9-0.3-2-0.3-3.2v-0.8c-1.6,2.2-3.8,4-6.7,5.2s-6.3,1.9-10.1,1.9
		c-1.7,0-3.4-0.2-5.1-0.6c-1.7-0.4-3.2-1.1-4.5-2c-1.3-0.9-2.4-2-3.3-3.4c-0.8-1.4-1.2-3-1.2-4.8c0-2.2,0.5-4,1.4-5.5
		c0.9-1.4,2.2-2.5,3.7-3.4c1.6-0.9,3.3-1.5,5.3-1.9c2-0.4,4-0.7,6.1-0.9c2.2-0.2,4.1-0.4,5.9-0.7c1.8-0.3,3.3-0.6,4.5-1.1
		c1.3-0.5,2.2-1.1,2.9-1.8c0.7-0.7,1-1.7,1-2.9c0-1.8-0.4-3.3-1.2-4.4c-0.8-1.1-1.8-2-3-2.7c-1.2-0.7-2.6-1.1-4-1.4
		c-1.5-0.3-2.9-0.4-4.4-0.4c-3.6,0-6.5,0.7-8.8,2.1c-2.3,1.4-3.8,3.5-4.7,6.1h-2.9c0.9-3.5,2.7-6.2,5.5-8.1
		c2.8-1.9,6.4-2.9,10.9-2.9c4.9,0,8.7,1,11.4,3c2.7,2,4,4.9,4,8.6v22.1c0,1,0.1,2.1,0.3,3.4c0.2,1.2,0.5,2.2,0.8,3H264.1z
		 M263,117.7c-0.8,0.7-1.7,1.3-2.7,1.7s-2.2,0.8-3.4,1.1c-1.2,0.3-2.5,0.5-3.9,0.6c-1.3,0.2-2.7,0.3-4,0.4c-5,0.5-8.6,1.5-10.7,2.9
		c-2.1,1.4-3.2,3.5-3.2,6.1c0,1.6,0.4,3,1.2,4c0.8,1.1,1.8,1.9,2.9,2.5s2.3,1,3.6,1.3c1.3,0.3,2.4,0.4,3.4,0.4
		c2.1,0,4.2-0.2,6.2-0.7c2-0.5,3.8-1.2,5.4-2.2c1.6-1,2.9-2.2,3.8-3.7c1-1.5,1.4-3.3,1.4-5.4V117.7z"/>
	<path class="st0" d="M307.3,129.7c0,1.4-0.1,2.7-0.6,4c-0.4,1.3-1.1,2.4-2.1,3.4c-1.4,1.5-3.2,2.6-5.5,3.4
		c-2.2,0.8-4.7,1.2-7.4,1.2c-4.9,0-9-1-12.3-3.1c-3.2-2.1-5.2-5.1-5.8-9.1h2.8c0.7,3.2,2.4,5.6,5,7.2c2.6,1.6,6,2.4,10.2,2.4
		c2.4,0,4.5-0.4,6.4-1.1c1.9-0.7,3.4-1.6,4.5-2.8c1.4-1.5,2-3.3,1.9-5.4c-0.1-2.4-1.2-4.2-3.3-5.5c-2.1-1.3-5.5-2.3-10.3-3
		c-1.7-0.3-3.4-0.5-5.2-0.9c-1.8-0.3-3.4-0.8-4.9-1.5c-1.5-0.7-2.7-1.6-3.6-2.8c-1-1.2-1.5-2.7-1.5-4.7c0-1.3,0.3-2.6,0.9-3.9
		c0.6-1.3,1.5-2.4,2.8-3.4c1.2-1,2.8-1.8,4.6-2.4c1.8-0.6,4-0.9,6.4-0.9c4.3,0,7.9,0.9,10.6,2.8s4.5,4.6,5.4,8.1h-2.9
		c-0.8-2.6-2.3-4.7-4.5-6.1c-2.2-1.4-5-2.2-8.5-2.2c-1.8,0-3.4,0.2-4.8,0.6c-1.5,0.4-2.7,1-3.8,1.7c-1.1,0.7-1.9,1.6-2.5,2.5
		c-0.6,1-0.9,2-0.9,3.1c0,2.2,1.1,3.8,3.2,4.8c2.1,1,5.3,1.7,9.6,2.3c2,0.3,4,0.7,5.9,1.2c1.9,0.5,3.6,1.1,5,2
		c1.5,0.8,2.7,1.9,3.6,3.2C306.7,126.1,307.2,127.7,307.3,129.7z"/>
	<path class="st0" d="M314.7,121.2c0,2.5,0.5,4.9,1.4,7c0.9,2.2,2.1,4,3.7,5.6c1.5,1.6,3.3,2.8,5.4,3.7c2.1,0.9,4.3,1.3,6.7,1.3
		c2.3,0,4.3-0.3,5.9-0.9c1.7-0.6,3.1-1.3,4.4-2.3c1.2-1,2.2-2,3-3.3c0.8-1.2,1.4-2.5,1.9-3.8h3c-1.4,4.2-3.6,7.5-6.7,9.7
		c-3.1,2.2-6.9,3.3-11.5,3.3c-2.8,0-5.4-0.5-7.8-1.6c-2.4-1.1-4.5-2.5-6.3-4.3c-1.8-1.8-3.2-4-4.2-6.4s-1.6-5.1-1.6-7.9
		c0-2.8,0.5-5.5,1.5-8s2.4-4.7,4.2-6.5c1.8-1.9,3.8-3.3,6.2-4.4c2.4-1.1,4.9-1.6,7.6-1.6c2.9,0,5.6,0.6,8,1.8
		c2.4,1.2,4.5,2.8,6.2,4.7c1.7,1.9,3,4.1,4,6.5c0.9,2.4,1.4,4.9,1.3,7.3H314.7z M347.8,118.4c-0.4-2.1-1-4.1-2-5.9
		c-1-1.8-2.2-3.3-3.7-4.7c-1.5-1.3-3.1-2.3-5-3.1c-1.8-0.8-3.8-1.1-5.8-1.1c-2.1,0-4,0.4-5.9,1.1c-1.8,0.8-3.5,1.8-4.9,3.1
		c-1.4,1.3-2.6,2.9-3.6,4.7c-1,1.8-1.6,3.7-1.9,5.9H347.8z"/>
</g>
<g>
	<path class="st1" d="M211,195.8h-5.9l-16.6-44.9h6L208,189l13.6-38.1h5.9L211,195.8z"/>
	<path class="st1" d="M240,195.8h-5.5v-44.9h5.5V195.8z"/>
	<path class="st1" d="M283,183c0,2.2-0.4,4.1-1.2,5.8c-0.8,1.7-2,3.1-3.5,4.2c-1.5,1.1-3.3,2-5.4,2.6c-2.1,0.6-4.4,0.9-6.9,0.9
		c-2.6,0-5-0.4-7.1-1.1c-2.1-0.7-3.9-1.7-5.4-3.1c-1.5-1.3-2.7-2.9-3.5-4.8c-0.8-1.9-1.2-3.9-1.2-6.2h5.7c0,3,1.1,5.4,3.2,7.2
		c2.1,1.7,4.9,2.6,8.3,2.6c3.9,0,6.8-0.7,8.6-2.2c1.9-1.5,2.8-3.5,2.8-6.1c0-0.9-0.1-1.8-0.4-2.6c-0.3-0.8-0.8-1.5-1.7-2.2
		c-0.8-0.6-2-1.2-3.5-1.8c-1.5-0.5-3.5-1-6-1.5c-2.5-0.4-4.7-1-6.7-1.6c-1.9-0.6-3.6-1.5-4.9-2.4c-1.3-1-2.4-2.1-3-3.5
		c-0.7-1.4-1-3-1-5s0.4-3.7,1.1-5.2c0.7-1.6,1.8-2.9,3.1-4s3-2,5-2.6c1.9-0.6,4.1-0.9,6.5-0.9c2.5,0,4.7,0.3,6.6,1
		c2,0.7,3.6,1.6,5,2.8c1.4,1.2,2.4,2.7,3.2,4.4c0.7,1.7,1.1,3.7,1.1,5.8h-5.5c0-2.6-0.9-4.7-2.6-6.3c-1.8-1.6-4.3-2.4-7.7-2.4
		c-3.5,0-6.1,0.7-7.7,2c-1.6,1.4-2.5,3.1-2.5,5.2c0,1,0.2,1.9,0.5,2.6c0.3,0.7,0.9,1.4,1.7,2c0.8,0.6,2,1.1,3.5,1.6
		c1.5,0.5,3.4,0.9,5.6,1.4c2.5,0.5,4.7,1,6.6,1.7c2,0.6,3.6,1.4,5,2.5c1.4,1,2.4,2.3,3.2,3.7C282.7,179.1,283,180.9,283,183z"/>
	<path class="st1" d="M296.4,195.8h-5.5v-44.9h5.5V195.8z"/>
	<path class="st1" d="M392.5,195.8h-6.1l-24.1-36.6v36.6h-5.5v-44.9h6.1l24.1,36.5v-36.5h5.5V195.8z"/>
</g>
<path class="st1" d="M326.7,149.6c-13,0-23.5,10.5-23.5,23.5c0,13,10.5,23.5,23.5,23.5c13,0,23.5-10.5,23.5-23.5
	C350.2,160.2,339.7,149.6,326.7,149.6z M326.7,191.2c-9.9,0-18-8.1-18-18c0-9.9,8.1-18,18-18s18,8.1,18,18
	C344.7,183.1,336.6,191.2,326.7,191.2z"/>
<path class="st2" d="M326.7,160.8c-0.6,0-1.2,0.1-1.7,0.1c1.6,1.1,2.7,2.9,2.7,5c0,3.3-2.7,6-6,6c-2.8,0-5.2-2-5.8-4.6
	c-0.9,1.7-1.4,3.7-1.4,5.8c0,6.8,5.5,12.3,12.3,12.3S339,180,339,173.2S333.5,160.8,326.7,160.8z"/>
</svg>
