<?xml version="1.0" encoding="UTF-8"?>
<svg width="75" height="75" version="1.1" viewBox="0 0 75 75" xml:space="preserve"
    xmlns="http://www.w3.org/2000/svg"
    xmlns:cc="http://creativecommons.org/ns#"
    xmlns:dc="http://purl.org/dc/elements/1.1/"
    xmlns:rdf="http://www.w3.org/1999/02/22-rdf-syntax-ns#">
    <defs>
        <clipPath id="ee8933ee-63d2-4270-b241-573f5e6c0651">
            <path d="m0 200h300v-200h-300z"/>
        </clipPath>
    </defs>
    <g transform="matrix(1.3333 0 0 -1.3333 0 266.67)">
        <g clip-path="url(#ee8933ee-63d2-4270-b241-573f5e6c0651)">
            <g transform="matrix(.71291 0 0 .71291 50.614 191.12)">
                <path d="m0 0c-9.689 0.346-19.841 4.206-30.129 11.443-0.433 0.319-0.971 0.494-1.516 0.494l-0.847-0.022-0.63-0.443c-10.324-7.263-20.47-11.121-30.159-11.472-0.013 0-0.026 1e-3 -0.04 1e-3v-4e-3c-1.356-0.065-2.415-1.156-2.415-2.498v-27.289c0-9.959 5.1-18.831 15.156-26.368 7.674-5.752 15.788-8.812 18.048-9.598l0.449-0.157h0.438l0.461 6e-3 0.391 0.136c2.305 0.804 10.423 3.871 18.085 9.616 10.055 7.537 15.153 16.409 15.153 26.365v27.289c0 1.354-1.073 2.452-2.445 2.501m-31.646 6.688c6.43-4.355 12.828-7.474 19.136-9.351-2.986-1.419-5.696-3.4-8.11-5.943-5.733-6.039-9.08-14.485-11.022-22.86-0.041 2e-3 -0.083 3e-3 -0.124 5e-3 -1.942 8.373-5.289 16.816-11.022 22.855-2.402 2.529-5.095 4.505-8.064 5.923 6.33 1.873 12.75 4.998 19.206 9.371m-29.26-11.542c5.8-0.489 10.59-2.785 14.583-6.989 4.855-5.11 7.814-12.378 9.609-19.767-6.777-0.676-14.029-3.394-21.191-9.553-1.988 3.599-3.001 7.396-3.001 11.373zm5.699-40.327c6.612 5.843 13.281 8.36 19.477 8.924 0.991-5.449 1.424-10.731 1.594-15.022-0.141-3.919-0.069-7.02 3e-3 -8.754-3.393 1.428-8.551 3.929-13.52 7.652-3.043 2.282-5.554 4.688-7.554 7.2m39.569-7.197c-5.028-3.769-10.262-6.292-13.638-7.705 0.073 1.732 0.149 4.881 3e-3 8.863 0.167 4.208 0.59 9.36 1.541 14.687 9.155-1.446 16.431-6.31 19.579-8.733-1.988-2.481-4.477-4.856-7.485-7.112m10.156 11.041c-3.676 2.71-11.53 7.708-21.31 9.36 1.785 7.511 4.766 14.929 9.703 20.13 4.02 4.233 8.852 6.529 14.704 6.999v-24.942c0-4.043-1.045-7.898-3.097-11.547" fill="#259fdb"/>
            </g>
        </g>
    </g>
</svg>
