<?xml version="1.0" encoding="UTF-8"?>
<svg version="1.1" xmlns="http://www.w3.org/2000/svg" width="1260" height="1260">
<path d="M0 0 C1.16623343 0.29549373 1.16623343 0.29549373 2.35602713 0.59695703 C2.35662421 1.26620053 2.3572213 1.93544403 2.35783648 2.62496763 C2.39370835 42.26485323 2.45031324 81.90466052 2.53394808 121.54447539 C2.54396588 126.30106401 2.55380995 131.05765298 2.56354666 135.81424218 C2.56548803 136.76121783 2.5674294 137.70819347 2.56942961 138.68386534 C2.60047469 154.02946011 2.61743725 169.37503991 2.62922135 184.72066018 C2.64161993 200.459535 2.66909201 216.19833111 2.71064019 231.93715626 C2.73581271 241.65365195 2.74914168 251.37001715 2.7474567 261.08654591 C2.74742701 267.74401742 2.76200118 274.40135572 2.78819141 281.05877534 C2.80288038 284.90330999 2.81100381 288.74757148 2.80182981 292.59212953 C2.79206287 296.75547925 2.8129834 300.91810174 2.83704519 305.08139306 C2.82928478 306.30317231 2.82152436 307.52495155 2.81352878 308.78375441 C2.82497637 309.895955 2.83642395 311.00815559 2.84821844 312.15405923 C2.84973732 313.11551111 2.8512562 314.07696298 2.85282111 315.06754977 C3.52647421 318.4537236 4.556719 319.59899243 7.35602713 321.59695703 C10.36604437 322.19680705 10.36604437 322.19680705 13.78002596 322.1019724 C14.42592374 322.10797656 15.07182152 322.11398071 15.73729196 322.12016681 C17.91075847 322.13547864 20.08311746 322.12222447 22.2565856 322.10920984 C23.8267558 322.11436701 25.39692106 322.12128027 26.9670766 322.12980282 C31.28881487 322.14817624 35.61021527 322.14161732 39.93196666 322.13110346 C44.5897959 322.12411761 49.24755129 322.1401437 53.90535879 322.15344507 C61.97787429 322.1733775 70.05029527 322.17879007 78.12283278 322.17450792 C89.79550299 322.16842406 101.46805217 322.18525738 113.14069787 322.20791785 C132.07925225 322.24415245 151.01778288 322.26329256 169.95636892 322.27102929 C188.35318992 322.27859463 206.74998915 322.29169347 225.14679861 322.31399804 C226.28024063 322.31536874 227.41368266 322.31673944 228.58147141 322.31815168 C240.94553859 322.33326746 253.30960314 322.34999565 265.67366648 322.36797315 C266.75910361 322.36954512 267.84454075 322.37111709 268.96286992 322.3727367 C277.8945693 322.38568075 277.8945693 322.38568075 281.97711448 322.39175431 C294.69867459 322.41059978 307.42021873 322.42445972 320.14179216 322.42954997 C328.1162314 322.43278165 336.09066399 322.43902998 344.0650992 322.44767823 C349.56164313 322.45341806 355.05816689 322.45502074 360.55471332 322.45344434 C363.87665333 322.45352696 367.19857817 322.45770306 370.52051333 322.46313945 C372.05068319 322.46480163 373.58085601 322.46473189 375.11102559 322.46283414 C377.17723671 322.46049005 379.24334824 322.46417078 381.30955172 322.46946508 C382.46135351 322.46995483 383.6131553 322.47044458 384.79986018 322.47094917 C387.35602713 322.59695703 387.35602713 322.59695703 388.35602713 323.59695703 C388.45450924 325.5082061 388.48125762 327.42315784 388.48137629 329.33694249 C388.48513157 331.2234393 388.48513157 331.2234393 388.48896271 333.14804715 C388.48668538 334.56470764 388.48431717 335.98136799 388.48186827 337.39802819 C388.48291004 338.89284633 388.48439027 340.38766421 388.48627263 341.88248152 C388.49019893 346.02825123 388.48781997 350.17399793 388.48449468 354.31976731 C388.48197437 358.81559846 388.48521134 363.31142589 388.48773801 367.80725652 C388.49136308 375.69936157 388.49123197 383.59145978 388.48869085 391.48356515 C388.48492244 403.21902505 388.48683476 414.95447914 388.48989916 426.68993899 C388.49517677 447.64434438 388.4947038 468.59874673 388.49182025 489.55315241 C388.48930912 507.89021318 388.48864592 526.22727283 388.48984289 544.56433374 C388.48995747 546.38567261 388.48995747 546.38567261 388.49007436 548.24380621 C388.49038568 553.17218949 388.49070407 558.10057278 388.49103413 563.02895607 C388.49409621 609.30327725 388.49131478 655.57759649 388.48593723 701.85191737 C388.48119128 743.00423632 388.4816159 784.15655217 388.48639822 825.30887109 C388.49174766 871.49613792 388.49387909 917.68340304 388.49078596 963.87067014 C388.49046522 968.79030687 388.49015238 973.70994359 388.48984289 978.62958032 C388.48976381 979.84100622 388.48968474 981.05243211 388.48960326 982.30056789 C388.48846364 1000.63043367 388.48980006 1018.96029821 388.49232244 1037.29016382 C388.49517485 1058.12267919 388.49448156 1078.95519103 388.4890417 1099.78770596 C388.48609452 1111.46076164 388.48592936 1123.13380969 388.48968788 1134.80686518 C388.4919182 1142.58903766 388.49055672 1150.37120398 388.48618311 1158.15337554 C388.48378794 1162.59736425 388.4830246 1167.04133772 388.48658909 1171.48532599 C388.48979163 1175.5188758 388.48848772 1179.55239669 388.48340843 1183.58594434 C388.48239161 1185.04494962 388.48309227 1186.50395722 388.48561437 1187.96296068 C388.48877264 1189.92762894 388.48528717 1191.89230465 388.48137629 1193.85697156 C388.48127465 1195.4960703 388.48127465 1195.4960703 388.48117096 1197.16828215 C388.35602713 1199.59695703 388.35602713 1199.59695703 387.35602713 1200.59695703 C384.86084083 1200.69852703 382.39320365 1200.73426554 379.89738512 1200.72838479 C378.70600614 1200.73146374 378.70600614 1200.73146374 377.49055889 1200.7346049 C374.79449034 1200.74031765 372.09847218 1200.73881239 369.40239859 1200.73739892 C367.46348418 1200.73998019 365.52457031 1200.74299268 363.58565718 1200.74640232 C358.22990263 1200.75450503 352.87416146 1200.75626372 347.5184015 1200.75699979 C341.751713 1200.75884494 335.98503153 1200.76639003 330.21834707 1200.77313501 C317.58909936 1200.786747 304.95985481 1200.79274888 292.33060098 1200.79714566 C284.44086769 1200.79990601 276.55113563 1200.80414325 268.66140318 1200.80864984 C246.81147314 1200.82085145 224.96154425 1200.83118097 203.11161089 1200.83452493 C201.6973936 1200.83474656 200.28317631 1200.83496835 198.86895901 1200.83519028 C197.45133657 1200.83541092 196.03371412 1200.8356314 194.61609167 1200.83585173 C191.77216065 1200.83629428 188.92822963 1200.83674139 186.08429861 1200.8371914 C185.37916428 1200.83730079 184.67402994 1200.83741018 183.9475279 1200.83752289 C161.13209329 1200.84114587 138.31669061 1200.85703256 115.5012682 1200.88038177 C91.36587752 1200.90503642 67.23050505 1200.9187006 43.09510142 1200.91989285 C29.94533342 1200.92080758 16.79560713 1200.92650795 3.64585066 1200.94471246 C-7.56409288 1200.9601764 -18.77398186 1200.96519738 -29.98393405 1200.95697436 C-35.69618198 1200.95308862 -41.40832027 1200.95389461 -47.12055445 1200.9680317 C-119.475459 1201.13659952 -184.10370556 1183.61438452 -237.64397287 1132.59695703 C-238.24435373 1132.02525781 -238.84473459 1131.45355859 -239.46330881 1130.86453515 C-248.35716092 1122.3334163 -256.32931771 1113.51005366 -263.64397287 1103.59695703 C-264.48109587 1102.49009801 -265.31833479 1101.38332666 -266.15569162 1100.27664453 C-300.69944361 1053.96122618 -313.18578771 999.45782965 -313.0249238 942.58227807 C-313.0283901 939.86775983 -313.03304012 937.15326635 -313.03910553 934.43875498 C-313.04982257 928.59114805 -313.04968592 922.74362455 -313.04196405 916.89601403 C-313.03051336 908.20069119 -313.03647036 899.50543741 -313.04558898 890.81011487 C-313.06130562 875.27625309 -313.06005025 859.74242855 -313.05135224 844.20856331 C-313.0437842 830.6252668 -313.04184546 817.04198388 -313.04542017 803.4586857 C-313.04564933 802.55517699 -313.04587848 801.65166829 -313.04611458 800.72078054 C-313.04704868 797.0526837 -313.04800389 793.38458686 -313.04899387 789.71649003 C-313.05815114 755.37756299 -313.04987933 721.0386596 -313.03370318 686.69973622 C-313.01944668 656.20371256 -313.02076078 625.70772647 -313.03508615 595.21170312 C-313.0511477 560.90553193 -313.05752327 526.59938154 -313.04824936 492.29320711 C-313.04728726 488.63765294 -313.04634873 484.98209876 -313.04542017 481.32654458 C-313.04518294 480.42652649 -313.04494571 479.52650839 -313.04470128 478.59921702 C-313.04129006 465.01327196 -313.04527701 451.42734198 -313.05285883 437.84139901 C-313.06142986 422.40643982 -313.05930542 406.97152348 -313.0430166 391.53656964 C-313.03420281 382.89999211 -313.03364004 374.26350739 -313.04495512 365.62693225 C-313.05167827 359.85949463 -313.0475029 354.09213147 -313.03444081 348.32470489 C-313.02730106 345.03840771 -313.02651907 341.75233182 -313.03565876 338.4660341 C-313.04475432 334.92475397 -313.03545122 331.38398187 -313.0214963 327.84272844 C-313.02851979 326.82484752 -313.03554329 325.80696661 -313.04277962 324.75824082 C-312.97591025 316.29323584 -311.66825589 308.94236 -305.60057688 302.69061548 C-304.80083696 301.85363752 -304.00109705 301.01665956 -303.17712259 300.15431863 C-302.34118319 299.3103893 -301.50524378 298.46645997 -300.64397287 297.59695703 C-299.84084414 296.76641179 -299.0377154 295.93586656 -298.21024942 295.08015329 C-295.60486786 292.40058787 -292.97488285 289.74729027 -290.33830881 287.09842187 C-289.34001362 286.09219911 -288.34189054 285.08580559 -287.34392405 284.07925683 C-284.10903409 280.81851383 -280.86901952 277.56289002 -277.62834787 274.30789453 C-276.50629653 273.18047355 -275.38424913 272.05304865 -274.2622056 270.9256199 C-269.59911287 266.24097745 -264.93461718 261.55773948 -260.26640558 256.87819749 C-253.59872716 250.19421764 -246.93975051 243.50182377 -240.29231668 236.79770774 C-235.600191 232.06694484 -230.89857817 227.34574642 -226.18974376 222.6316151 C-223.38274633 219.82096382 -220.58009244 217.00627863 -217.78751993 214.18128854 C-215.16843507 211.53222278 -212.53783293 208.89517327 -209.89781809 206.26697046 C-208.46984562 204.83932503 -207.05430975 203.39927418 -205.6391511 201.95892602 C-204.3609852 200.69323785 -204.3609852 200.69323785 -203.05699778 199.40198022 C-202.32111303 198.66278533 -201.58522829 197.92359044 -200.82704401 197.16199571 C-198.20394941 195.28150522 -196.80478689 195.18184251 -193.64397287 195.59695703 C-191.99266507 197.24826483 -192.51785546 199.16964492 -192.51681435 201.4441945 C-192.51390232 202.50230224 -192.51099028 203.56040998 -192.50799 204.6505816 C-192.51081032 206.41931786 -192.51081032 206.41931786 -192.51368761 208.22378618 C-192.51174418 209.46864421 -192.50980075 210.71350225 -192.50779843 211.99608326 C-192.5024893 215.48286643 -192.50346556 218.96962497 -192.50537156 222.45641064 C-192.50634037 226.23815777 -192.50152052 230.01989797 -192.49739254 233.80164236 C-192.49093971 240.4405162 -192.48817487 247.07938374 -192.48776674 253.71826059 C-192.48712363 263.59115428 -192.48074188 273.46403825 -192.47301994 283.33692865 C-192.46092389 298.92664874 -192.45227239 314.51636839 -192.4459818 330.10609183 C-192.43595766 354.86745254 -192.41670799 379.62879942 -192.39443941 404.39015184 C-192.38590763 413.91316861 -192.37764168 423.43618562 -192.36933565 432.95920259 C-192.36841064 434.01737091 -192.36748563 435.07553924 -192.36653259 436.16577328 C-192.34452547 461.37411567 -192.32474392 486.58245961 -192.30608225 511.79080468 C-192.30526257 512.89422097 -192.30444289 513.99763725 -192.30359837 515.13449039 C-192.28452617 540.86123572 -192.26756384 566.58798097 -192.25523996 592.31473047 C-192.2547103 593.42006873 -192.25418063 594.52540699 -192.25363491 595.66424035 C-192.24938363 604.57284045 -192.24520716 613.48144059 -192.24105011 622.39004073 C-192.22384268 659.13949831 -192.19661565 695.88893709 -192.15788973 732.63837851 C-192.15242801 737.83176652 -192.147095 743.02515465 -192.14184809 748.21854287 C-192.14081371 749.24064669 -192.13977933 750.26275051 -192.1387136 751.31582717 C-192.12240209 767.75240138 -192.11686066 784.18896239 -192.11555043 800.62554392 C-192.11404395 817.15890964 -192.10185878 833.69223961 -192.07879402 850.22558956 C-192.06543846 860.04191279 -192.06038102 869.85815791 -192.06734038 879.6744882 C-192.07117518 886.24200244 -192.06407896 892.80944777 -192.0483246 899.37694404 C-192.03967298 903.11244348 -192.03557066 906.84778341 -192.04489847 910.5832849 C-192.15075054 956.96141199 -180.11030833 997.3030464 -147.64397287 1031.59695703 C-146.82412912 1032.4812539 -146.00428537 1033.36555078 -145.15959787 1034.27664453 C-116.14951411 1064.57415805 -74.72656951 1079.51485056 -33.38952553 1080.68943125 C-30.12310387 1080.7240858 -26.85803399 1080.73042101 -23.59143686 1080.72394067 C-22.3565259 1080.72550066 -21.12161495 1080.72706065 -19.84928244 1080.72866791 C-16.46621305 1080.73193579 -13.0832002 1080.73080146 -9.7001344 1080.7276817 C-6.03498361 1080.72540036 -2.36983744 1080.72892053 1.2953124 1080.73166162 C8.45462208 1080.73608778 15.61392122 1080.73515737 22.77323129 1080.73224898 C28.58952007 1080.72998444 34.40580592 1080.72968696 40.22209501 1080.73077279 C41.05194036 1080.73092603 41.8817857 1080.73107926 42.73677788 1080.73123714 C44.42279921 1080.73155687 46.10882053 1080.73188109 47.79484186 1080.73220973 C63.56775609 1080.73505476 79.34066449 1080.73179182 95.11357776 1080.72640936 C108.65069595 1080.7219331 122.18780557 1080.7227259 135.72492361 1080.72732812 C151.4610371 1080.73267546 167.19714551 1080.73478973 182.93325979 1080.73171586 C184.60948408 1080.73139731 186.28570837 1080.73108294 187.96193266 1080.73077279 C188.78661378 1080.73061852 189.61129489 1080.73046424 190.46096634 1080.73030529 C196.27663673 1080.72944129 202.09230388 1080.73090031 207.90797377 1080.73325235 C214.98520168 1080.73605189 222.06241849 1080.73530842 229.13964512 1080.7299716 C232.75117051 1080.7273381 236.36267737 1080.72632376 239.97420263 1080.72962075 C243.88291604 1080.73313529 247.79159888 1080.7289479 251.70031118 1080.72394067 C252.84930747 1080.72617139 253.99830376 1080.72840211 255.18211812 1080.73070043 C256.22447615 1080.72809269 257.26683419 1080.72548494 258.34077883 1080.72279817 C259.24337944 1080.72263582 260.14598006 1080.72247346 261.0759322 1080.72230619 C263.52121972 1080.68837914 263.52121972 1080.68837914 266.35602713 1079.59695703 C267.7024547 1076.90410188 267.50551712 1074.78891347 267.53302908 1071.77371484 C267.54586432 1070.55194543 267.55869955 1069.33017602 267.57192373 1068.0713833 C267.58009237 1066.73095366 267.58753587 1065.39051944 267.59430838 1064.05008203 C267.5983839 1063.37538621 267.60245943 1062.7006904 267.60665846 1062.00554925 C267.62752153 1058.432506 267.64182058 1054.85950115 267.65119314 1051.28641015 C267.66224144 1047.60316964 267.69662128 1043.92053597 267.73636484 1040.23750955 C267.76256869 1037.39953791 267.77088839 1034.56170982 267.77447462 1031.72362787 C267.78168897 1029.70843658 267.80811484 1027.69334356 267.83486319 1025.67831689 C267.96211038 1016.76273779 267.96211038 1016.76273779 263.35602713 1009.59695703 C259.82783175 1007.13049471 257.4547118 1006.22171679 253.15994596 1006.2177828 C252.12815611 1006.20955965 251.09636626 1006.20133651 250.03331006 1006.19286418 C248.90638536 1006.199076 247.77946067 1006.20528781 246.61838675 1006.21168786 C245.41596661 1006.20645217 244.21354647 1006.20121647 242.97468936 1006.19582212 C239.63990913 1006.18426731 236.30561972 1006.18610263 232.97085977 1006.19353527 C229.37278367 1006.19827365 225.77476378 1006.18571254 222.17670584 1006.17517358 C215.94040948 1006.15919084 209.7041781 1006.15392348 203.46786261 1006.15570146 C194.43487529 1006.15808639 185.40199158 1006.14208555 176.36903135 1006.12124891 C161.69201538 1006.08770859 147.01500867 1006.06605861 132.33796072 1006.05325586 C131.45950091 1006.05248637 130.5810411 1006.05171688 129.6759613 1006.05092407 C126.11746953 1006.04782236 122.55897774 1006.04473954 119.00048593 1006.04168403 C109.22625647 1006.03316861 99.45203026 1006.02226367 89.67780447 1006.01028711 C88.36627043 1006.00868508 88.36627043 1006.00868508 87.02824076 1006.00705069 C72.4180653 1005.98891998 57.80791171 1005.96290232 43.1977576 1005.93215597 C34.19574713 1005.91365739 25.19378593 1005.90268964 16.19175617 1005.90163404 C10.01272935 1005.90052542 3.83373618 1005.89252416 -2.3452764 1005.8792504 C-5.9035601 1005.87187608 -9.46177011 1005.86769905 -13.02006006 1005.87236863 C-42.85889981 1005.90737185 -69.53697627 1003.54786855 -92.20159006 982.05105859 C-106.86464267 967.26887488 -116.76709749 947.42698235 -116.76981401 926.38025457 C-116.77126746 925.67295602 -116.7727209 924.96565747 -116.77421838 924.23692563 C-116.77786766 921.86698007 -116.77439695 919.49709926 -116.77095652 917.12715417 C-116.77210875 915.41089604 -116.77369696 913.69463816 -116.77568376 911.9783808 C-116.77986285 907.26220769 -116.77779279 902.54605479 -116.77469754 897.82988161 C-116.772438 892.74402945 -116.77592577 887.65818081 -116.77867746 882.57232934 C-116.7831277 872.61053805 -116.78216214 862.64875428 -116.77926482 852.68696269 C-116.7770085 844.59500758 -116.77669926 836.50305459 -116.77778864 828.41109926 C-116.77794187 827.260426 -116.77809511 826.10975275 -116.77825298 824.92421061 C-116.7785727 822.58687055 -116.77889691 820.24953048 -116.77922557 817.91219041 C-116.78207801 795.9888837 -116.7787967 774.06558116 -116.77342521 752.14227513 C-116.76895441 733.31149318 -116.76973583 714.48071739 -116.77434397 695.64993554 C-116.77968876 673.79852263 -116.78180648 651.94711338 -116.7787317 630.09569991 C-116.77841314 627.7683786 -116.77809877 625.44105729 -116.77778864 623.11373597 C-116.77763436 621.96854085 -116.77748009 620.82334573 -116.77732114 619.64344772 C-116.77645592 611.55416542 -116.7779189 603.46488544 -116.78026819 595.3756035 C-116.7830652 585.52803799 -116.78232991 575.68048045 -116.77698745 565.83291586 C-116.77434955 560.8040091 -116.7733469 555.77511565 -116.7766366 550.74620897 C-116.77959758 546.15055301 -116.77801012 541.55492285 -116.77265905 536.95926926 C-116.77153404 535.28918639 -116.77212786 533.61910138 -116.77453484 531.94901987 C-116.77753754 529.6941327 -116.77449572 527.43933607 -116.76981401 525.18445379 C-116.76965166 523.92741445 -116.76948931 522.67037511 -116.76932204 521.37524366 C-116.64397287 518.59695703 -116.64397287 518.59695703 -115.64397287 517.59695703 C-113.66360584 517.49775116 -111.67963844 517.47032257 -109.69678831 517.46946508 C-108.39570751 517.46645743 -107.09462671 517.46344978 -105.75411922 517.46035099 C-104.29128165 517.46203888 -102.82844417 517.46380996 -101.36560678 517.46565515 C-99.82634401 517.46395465 -98.28708167 517.46180573 -96.74782008 517.45924389 C-93.38757917 517.45463132 -90.02735672 517.45322905 -86.66711283 517.45420915 C-81.20085022 517.45579654 -75.73460604 517.45061141 -70.26834726 517.44458276 C-62.33168465 517.43645655 -54.39502525 517.43152136 -46.45835924 517.4282921 C-33.9177742 517.42280468 -21.3772165 517.40591637 -8.8366456 517.38695031 C-4.54965167 517.380593 -0.26265766 517.37428464 4.02433634 517.36797315 C5.0958199 517.36638939 6.16730347 517.36480562 7.27125623 517.36317387 C19.47814079 517.34522406 31.68502728 517.32900436 43.8919158 517.31399804 C45.00826636 517.31262217 46.12461692 517.3112463 47.27479628 517.30982874 C65.36401902 517.28790059 83.45323477 517.2771435 101.54246845 517.2696273 C120.0996242 517.26156105 138.65671983 517.2382855 157.21384126 517.20167363 C168.66778754 517.17962381 180.12161026 517.16999156 191.5755767 517.17617396 C199.42444189 517.17934446 207.27320147 517.16804553 215.12203398 517.14527955 C219.65338081 517.13258993 224.18449243 517.1264681 228.71584845 517.13769609 C232.86309073 517.14784039 237.00987572 517.13966573 241.15706382 517.11683313 C242.65846959 517.11182558 244.15991619 517.11359195 245.66130229 517.1227658 C247.7007266 517.13424865 249.74024949 517.1187809 251.77963686 517.1019724 C253.47959111 517.10050719 253.47959111 517.10050719 255.21388787 517.09901237 C260.03230581 516.32911891 263.21891218 514.04393087 266.20676565 510.24190027 C267.58409192 507.07208219 267.73673129 504.73135881 267.74421072 501.27786523 C267.7536672 500.0233909 267.76312368 498.76891656 267.77286673 497.47642785 C267.76749845 496.11686142 267.76134585 494.75729789 267.75446463 493.39773828 C267.75648661 491.99719861 267.75939908 490.59665997 267.76316214 489.1961239 C267.76757533 486.26835315 267.76118427 483.34085778 267.74714041 480.41311914 C267.73000112 476.65675772 267.7399253 472.90103714 267.7578578 469.14469892 C267.7686826 466.25624496 267.76525623 463.36794381 267.75747442 460.47948533 C267.75547124 459.09396744 267.75793587 457.70843574 267.76491308 456.32293397 C267.7725104 454.39124701 267.75888246 452.45951142 267.74421072 450.52786523 C267.74182394 449.42819925 267.73943716 448.32853326 267.73697805 447.19554406 C267.61126425 446.33801034 267.48555044 445.48047662 267.35602713 444.59695703 C263.79448062 442.22259269 262.28156356 442.34440361 258.05507612 442.33803731 C257.41033219 442.33434085 256.76558825 442.33064438 256.10130662 442.3268359 C253.9260312 442.31681522 251.7510145 442.32109124 249.57572317 442.32521325 C248.00642 442.32092911 246.43711901 442.31576686 244.86782134 442.3097986 C240.54391491 442.29589284 236.2200787 442.29444312 231.89615321 442.29494184 C227.23764066 442.29330856 222.5791593 442.28018993 217.92066336 442.26840478 C209.84542727 442.24951453 201.77020635 442.23782084 193.69495153 442.23086625 C182.01831057 442.22071277 170.34171558 442.19866106 158.66509844 442.17348034 C139.72045019 442.13285779 120.77579756 442.10040536 101.83112478 442.07376367 C100.12941259 442.07136772 100.12941259 442.07136772 98.39332236 442.06892336 C97.25739748 442.06732446 96.12147259 442.06572556 94.95112574 442.06407821 C78.84080923 442.04138356 62.73049723 442.01675315 46.62018728 441.98977929 C45.48648254 441.98788315 44.35277779 441.985987 43.18471836 441.9840334 C24.31001473 441.95230133 5.43531993 441.91655507 -13.43937242 441.87873781 C-25.09304012 441.85564969 -36.74670175 441.83671286 -48.40038441 441.82307107 C-56.3781067 441.81357168 -64.35581885 441.80074672 -72.33353175 441.78526222 C-76.9431846 441.77646225 -81.55282485 441.76938037 -86.1624856 441.76662141 C-90.37522975 441.76408505 -94.58794072 441.75706089 -98.8006718 441.74634916 C-100.33154288 441.74328869 -101.8624185 441.74195291 -103.39329256 441.74243747 C-105.4604698 441.74286207 -107.52754168 441.73725971 -109.59470415 441.7300356 C-110.74704802 441.72846171 -111.89939188 441.72688781 -113.08665526 441.72526622 C-115.64397287 441.59695703 -115.64397287 441.59695703 -116.64397287 440.59695703 C-116.74576503 438.89141209 -116.77689199 437.18162395 -116.78098726 435.47304899 C-116.78606181 434.35557155 -116.79113635 433.23809411 -116.79636467 432.08675373 C-116.79686242 430.84360241 -116.79736018 429.6004511 -116.79787302 428.31962854 C-116.8044464 426.3565746 -116.8044464 426.3565746 -116.81115258 424.353863 C-116.82315287 420.70412261 -116.82877455 417.05439546 -116.83333373 413.40463918 C-116.83927712 409.47463123 -116.85089043 405.5446392 -116.86162424 401.61464196 C-116.88618251 392.11252219 -116.90078309 382.61039712 -116.91368431 373.10825536 C-116.91739461 370.42476667 -116.921368 367.74127851 -116.92543697 365.05779034 C-116.95067858 348.39926129 -116.97273528 331.74073144 -116.98516512 315.08218747 C-116.98809492 311.22065555 -116.99105656 307.35912365 -116.99407053 303.49759179 C-116.99481658 302.53780244 -116.99556263 301.57801309 -116.99633129 300.58913922 C-117.00897758 285.05037279 -117.04218811 269.51172098 -117.08387236 253.9730081 C-117.12630686 238.02393236 -117.14986216 222.07491525 -117.15508568 206.12578321 C-117.15849876 197.16937049 -117.17024112 188.21313666 -117.20318842 179.25677949 C-117.23121135 171.62639192 -117.24217862 163.99621987 -117.23099296 156.36578483 C-117.22581139 152.47382965 -117.2286596 148.58232562 -117.2534585 144.69043618 C-117.27600145 141.12270094 -117.27517304 137.55573957 -117.25625463 133.98799031 C-117.25214492 132.09557308 -117.27256362 130.20315079 -117.29404151 128.31085098 C-117.19844181 117.99352045 -114.2784662 110.61928547 -106.9382844 103.24962121 C-106.02149408 102.31728662 -105.10470377 101.38495202 -104.16013193 100.42436486 C-103.15695437 99.42931029 -102.15351242 98.43452221 -101.14983225 97.43997461 C-100.08230297 96.36401648 -99.01582898 95.28701048 -97.95032358 94.20904809 C-95.07566928 91.30751341 -92.18554961 88.42187889 -89.29138994 85.53981501 C-86.87311149 83.12869664 -84.46272566 80.70976459 -82.05228996 78.29080963 C-76.36991977 72.58854542 -70.6749815 66.89905964 -64.97160959 61.21780664 C-59.08752388 55.35615338 -53.22381032 49.47467562 -47.36982536 43.58297312 C-42.33600165 38.51795911 -37.29065524 33.46463773 -32.23565578 28.42075729 C-29.21929531 25.41088968 -26.20735907 22.39691484 -23.20615244 19.37192994 C-20.38933766 16.53393269 -17.55841228 13.71082479 -14.71580172 10.89867288 C-13.67417103 9.86339023 -12.63764979 8.82293815 -11.60662889 7.77708894 C-10.20150401 6.35339881 -8.77608584 4.94982176 -7.34966135 3.54747277 C-6.16061071 2.35986714 -6.16061071 2.35986714 -4.94753885 1.14826947 C-2.64397287 -0.40304297 -2.64397287 -0.40304297 0 0 Z M6.04352713 643.15945703 C2.98118346 647.58284233 3.21038416 651.17272842 3.21558523 656.41488916 C3.21261411 657.339331 3.20964299 658.26377284 3.20658183 659.21622807 C3.19786743 662.33305559 3.19638427 665.44984483 3.19489431 668.56668359 C3.19026805 670.79366909 3.18524365 673.0206538 3.17984915 675.24763757 C3.16670399 681.31177789 3.16027598 687.37590713 3.15583849 693.44005948 C3.15291095 697.22617316 3.14880674 701.01228379 3.14433432 704.79839593 C3.13222191 715.27950265 3.12184126 725.76060757 3.11845922 736.24172097 C3.11823966 736.91278911 3.11802009 737.58385725 3.11779387 738.27526079 C3.1175756 738.94794503 3.11735732 739.62062927 3.11713243 740.31369787 C3.11668896 741.67683504 3.11624239 743.03997221 3.11579275 744.40310937 C3.11557132 745.07927406 3.11534989 745.75543875 3.11512175 746.45209327 C3.11117476 757.40547257 3.0937247 768.3587853 3.07043323 779.31213889 C3.04671724 790.55585565 3.0345152 801.79954018 3.03309131 813.04328591 C3.03204189 819.35697385 3.02610504 825.67056797 3.00827169 831.98423272 C2.99182306 837.92346184 2.98961997 843.86252629 2.9984107 849.80177003 C2.99918282 851.98265855 2.9948155 854.16355581 2.98495245 856.34442216 C2.97228307 859.32017555 2.97808271 862.29534133 2.98853445 865.27109033 C2.98047805 866.1354943 2.97242164 866.99989828 2.9641211 867.89049631 C3.00508486 872.87242645 3.60203409 876.27755126 6.35602713 880.59695703 C10.24647747 884.1956236 13.22100101 885.71829969 18.50063848 885.7311781 C19.34875986 885.73563595 20.19688124 885.74009379 21.07070327 885.74468672 C22.00269034 885.74450236 22.93467741 885.744318 23.89490652 885.74412805 C24.88483406 885.74780474 25.8747616 885.75148142 26.89468694 885.75526953 C30.22718312 885.76632346 33.55964815 885.7701531 36.89215994 885.77395898 C39.27530406 885.78022229 41.6584472 885.78686897 44.04158926 885.7938717 C51.20394484 885.81311036 58.366301 885.82370125 65.5286752 885.83259949 C68.90189002 885.83698329 72.27510328 885.84234984 75.64831686 885.84758836 C86.8620523 885.8645996 98.07578677 885.87909387 109.28953314 885.8863371 C112.19923037 885.88824698 115.10892759 885.89016732 118.01862478 885.89212304 C118.74181149 885.89260678 119.46499821 885.89309052 120.21009967 885.89358892 C131.92580808 885.90188962 143.6414144 885.92722763 155.35707822 885.95970372 C167.38619106 885.99277679 179.41525202 886.01078606 191.44441056 886.01398134 C198.19800587 886.01614616 204.95145228 886.02489065 211.70500326 886.05044252 C218.05794865 886.07368011 224.4106259 886.07797366 230.76360273 886.06768113 C233.09565703 886.06718463 235.42772433 886.07353856 237.75973845 886.08723718 C240.94321962 886.10489154 244.1257318 886.09788106 247.30921316 886.08470422 C248.23227735 886.09567347 249.15534153 886.10664271 250.10637736 886.11794436 C256.03394807 886.05870063 259.48196999 885.01848055 264.35602713 881.59695703 C268.74441933 876.76972561 268.50451752 871.88782527 268.50319815 865.65877038 C268.50871318 864.27082598 268.50871318 864.27082598 268.51433963 862.85484231 C268.52539019 859.74112434 268.52922261 856.62743973 268.53302908 853.51370507 C268.53929261 851.28657183 268.54593931 849.05943963 268.5529418 846.83230859 C268.5703598 840.77236292 268.5809054 834.71242514 268.58914733 828.65246063 C268.59429499 824.86851932 268.60037077 821.08458046 268.60665846 817.30064088 C268.62352764 806.82378454 268.63816326 796.34692933 268.6454072 785.8700617 C268.64731708 783.15182953 268.64923741 780.43359737 268.65119314 777.71536523 C268.65167688 777.03976604 268.65216062 776.36416686 268.65265902 775.66809497 C268.66096125 764.72122423 268.68630232 753.7744627 268.71877382 742.82763966 C268.75184091 731.5884129 268.76952276 720.3492396 268.77305144 709.10995781 C268.77540536 702.79960434 268.78441063 696.48942354 268.80951262 690.17911607 C268.83274098 684.24394313 268.83704755 678.3090572 268.82675123 672.37385064 C268.82625452 670.19456862 268.83261476 668.01527271 268.84630728 665.83603364 C268.86394711 662.86237432 268.85695873 659.88975388 268.84377432 656.9160946 C268.85474356 656.05237275 268.86571281 655.18865089 268.87701446 654.29875565 C268.81933607 648.9158181 267.9097902 645.88302928 264.35602713 641.59695703 C260.84210742 638.50896699 257.85056075 637.47341463 253.20862246 637.46552926 C252.35988438 637.46168812 251.5111463 637.45784697 250.63668889 637.45388943 C249.70401969 637.45475591 248.7713505 637.45562239 247.81041861 637.45651513 C246.32446895 637.45205845 246.32446895 637.45205845 244.80850011 637.44751173 C241.47366668 637.43880803 238.13886908 637.43731507 234.80402517 637.43582422 C232.41925876 637.43119725 230.0344931 637.42617275 227.6497283 637.42077905 C221.16004194 637.40764187 214.67036245 637.40117102 208.18066525 637.39676839 C204.12870846 637.39400601 200.07675405 637.38976867 196.02479887 637.38526422 C184.80677042 637.3730716 173.58874388 637.36277223 162.37070894 637.35938913 C161.65269414 637.35916956 160.93467934 637.35894999 160.19490652 637.35872377 C159.11530356 637.35839636 159.11530356 637.35839636 158.01389045 637.35806233 C156.55542624 637.35761886 155.09696203 637.3571723 153.63849783 637.35672265 C152.5533243 637.35639051 152.5533243 637.35639051 151.44622806 637.35605165 C139.72339773 637.35210352 128.00062955 637.33464902 116.27782323 637.31136313 C104.24306474 637.28765048 92.20833743 637.27518732 80.1735552 637.27402121 C73.41610934 637.2731044 66.65874448 637.26735077 59.90132093 637.2492016 C53.54594849 637.23275815 47.19072994 637.23054734 40.83534384 637.2393406 C38.50126182 637.24011296 36.16717165 637.23574225 33.83311033 637.22588235 C30.64941773 637.21322086 27.46627498 637.21900838 24.28258657 637.22946435 C23.35660955 637.22140795 22.43063252 637.21335154 21.47659558 637.205051 C15.02988853 637.25464792 10.54686546 638.1692713 6.04352713 643.15945703 Z " fill="#FF5500" transform="translate(493.64397287368774,29.40304297208786)"/>
<path d="M0 0 C3.25128416 -0.37630766 4.61827086 -0.27805064 7.30635929 1.6799469 C8.10035853 2.47335983 8.89435778 3.26677277 9.7124176 4.08422852 C11.08977081 5.44260078 11.08977081 5.44260078 12.49494934 6.82841492 C13.5002177 7.84499997 14.50522925 8.86183902 15.51000977 9.87890625 C16.57709348 10.94085184 17.64524624 12.00172413 18.71438599 13.06159973 C21.61646208 15.94513236 24.50254149 18.84420185 27.3855145 21.74681854 C30.40678375 24.78446604 33.44062956 27.80950765 36.47264099 30.83642578 C41.56637368 35.92563419 46.64980847 41.02495703 51.72729492 46.13037109 C57.58904786 52.02411711 63.46659761 57.90173428 69.35299641 63.77085781 C75.0204056 69.42236875 80.67640915 75.08516418 86.32734489 80.75314331 C88.72907859 83.16173136 91.13469065 85.56634348 93.54355049 87.96780396 C96.38535532 90.80191382 99.21699375 93.64581536 102.04127884 96.49738121 C103.07623402 97.53918996 104.11455309 98.57767001 105.15654945 99.61243629 C113.53639822 107.94084659 119.08490787 114.83735164 119.13871691 127.01169032 C119.13649147 128.22377782 119.13649147 128.22377782 119.13422108 129.46035194 C119.13657331 130.32641868 119.13892554 131.19248542 119.14134905 132.08479661 C119.14804263 135.00695247 119.14758072 137.92906391 119.14717102 140.85122681 C119.15046942 142.95945058 119.15419493 145.06767372 119.1583125 147.17589605 C119.1683433 152.98515925 119.17205103 158.79441212 119.17470181 164.60368276 C119.17860164 170.8628987 119.18818016 177.12210643 119.19691467 183.38131714 C119.21575298 197.78985984 119.22593628 212.19840067 119.23437535 226.60695243 C119.23858171 233.7268318 119.24380371 240.84671032 119.24905988 247.96658897 C119.2669501 272.3377024 119.28194624 296.70881606 119.28938007 321.07993507 C119.28985483 322.60999655 119.29033072 324.14005802 119.29080774 325.67011949 C119.29104411 326.42889354 119.29128049 327.1876676 119.29152403 327.96943481 C119.29272523 331.81377035 119.29394068 335.65810588 119.29516602 339.50244141 C119.29552624 340.64682189 119.29552624 340.64682189 119.29589374 341.81432117 C119.30378687 366.55064057 119.32721895 391.28691202 119.35972196 416.02321048 C119.39402145 442.17444983 119.41373132 468.32566113 119.41702431 494.47692335 C119.41744185 497.3478803 119.41792142 500.21883723 119.41844749 503.08979416 C119.41863228 504.15016338 119.41863228 504.15016338 119.4188208 505.2319542 C119.42115266 516.6072228 119.43681181 527.9824357 119.45728934 539.35768445 C119.47754741 550.79246853 119.48269136 562.22716656 119.47351871 573.66197212 C119.46896616 579.85657235 119.47091592 586.05099176 119.49028015 592.24556732 C119.50785598 597.91696387 119.50695926 603.58804693 119.49138286 609.25944655 C119.48899832 611.31063914 119.49337396 613.36185312 119.50521151 615.41301294 C119.63269123 638.96169541 119.63269123 638.96169541 110.8883667 647.97358704 C110.09769554 648.80150064 109.30702438 649.62941425 108.49239349 650.48241615 C107.25865871 651.72862016 107.25865871 651.72862016 106 653 C104.80514858 654.23738954 104.80514858 654.23738954 103.58615875 655.49977684 C101.00455306 658.15947795 98.39863442 660.79325857 95.78613281 663.42260742 C94.79769956 664.42061064 93.80942827 665.41877429 92.82130432 666.41708374 C89.61902744 669.65030916 86.41157877 672.87837424 83.203125 676.10546875 C82.38114892 676.93239082 82.38114892 676.93239082 81.54256725 677.77601838 C76.36919201 682.98009302 71.19380109 688.18215536 66.01358414 693.37942028 C59.41078473 700.00421996 52.81832503 706.63895883 46.23918462 713.28725737 C41.59548327 717.97810471 36.94043081 722.65749221 32.27673793 727.32846338 C29.49636677 730.11379347 26.72130007 732.9039722 23.95835114 735.70659447 C21.36764371 738.33402802 18.76323102 740.94703702 16.14744377 743.5494957 C14.73209035 744.96492911 13.33168138 746.39525649 11.93171692 747.82591248 C11.08802048 748.65991577 10.24432404 749.49391907 9.37506104 750.35319519 C8.28229544 751.4523087 8.28229544 751.4523087 7.16745377 752.57362652 C5 754 5 754 2.28905869 753.7904253 C0 753 0 753 -1 752 C-1.0979581 750.35875002 -1.12523005 748.71325159 -1.12534916 747.06908089 C-1.12785268 745.99228315 -1.1303562 744.9154854 -1.13293558 743.80605742 C-1.13059442 742.60599705 -1.12825325 741.40593668 -1.12584114 740.16951084 C-1.12729458 738.90267593 -1.12874802 737.63584101 -1.13024551 736.33061716 C-1.13417109 732.78231274 -1.13179321 729.2340352 -1.12846755 725.68573118 C-1.1259469 721.83754897 -1.12918435 717.98937112 -1.13171089 714.14118952 C-1.13533571 707.38617449 -1.13520499 700.63116744 -1.13266373 693.87615204 C-1.12889507 683.83147205 -1.13080776 673.78679885 -1.13387203 663.74211891 C-1.13914952 645.80635023 -1.13867671 627.87058511 -1.13579312 609.93481609 C-1.13328187 594.23870857 -1.13261885 578.54260236 -1.13381577 562.84649467 C-1.13389215 561.80709358 -1.13396854 560.76769248 -1.13404724 559.69679438 C-1.13435855 555.4779777 -1.13467695 551.25916101 -1.135007 547.04034432 C-1.13806908 507.42827316 -1.1352877 467.81620428 -1.1299101 428.20413347 C-1.12516451 392.97959362 -1.12558848 357.75505739 -1.13037109 322.53051758 C-1.13572111 282.99441883 -1.1378516 243.45832209 -1.13475883 203.92222303 C-1.13443809 199.71058905 -1.13412525 195.49895507 -1.13381577 191.28732109 C-1.13373669 190.25023958 -1.13365761 189.21315806 -1.13357614 188.14464984 C-1.13243672 172.45571167 -1.13377256 156.76677495 -1.13629532 141.07783699 C-1.1391484 123.24527183 -1.13845299 105.41271079 -1.13301457 87.58014614 C-1.13006847 77.58919151 -1.1299007 67.5982458 -1.13366075 57.60729139 C-1.13589237 50.94508372 -1.1345272 44.28288325 -1.13015598 37.62067665 C-1.12776264 33.81718042 -1.12699378 30.01370199 -1.13056196 26.21020628 C-1.13435508 22.12556588 -1.13052208 18.04096975 -1.12584114 13.9563303 C-1.12935289 12.15975149 -1.12935289 12.15975149 -1.13293558 10.32687816 C-1.13043207 9.2475769 -1.12792855 8.16827564 -1.12534916 7.05626827 C-1.1252814 6.12092023 -1.12521365 5.18557219 -1.12514383 4.22188026 C-1 2 -1 2 0 0 Z " fill="#FF5500" transform="translate(959,414)"/>
</svg>
