<svg width="500" height="502" viewBox="0 0 500 502" fill="none" xmlns="http://www.w3.org/2000/svg">
<path d="M80.6689 501.216V471.844H100.216V476.097H85.7899V484.186H99.2955V488.439H85.7899V496.98H100.216V501.233H80.6689V501.216Z" fill="black"/>
<path d="M115.544 501.216V471.844H119.537L135.334 492.345V471.844H140.298V501.216H136.34L120.509 480.628V501.216H115.544Z" fill="black"/>
<path d="M163.803 501.216V476.305H153.717V471.844H179.218V476.305H169.132V501.216H163.803Z" fill="black"/>
<path d="M192.585 501.216V471.844H212.132V476.097H197.706V484.186H211.211V488.439H197.706V496.98H212.132V501.233H192.585V501.216Z" fill="black"/>
<path d="M227.459 501.216V471.844H240.218C243.447 471.844 245.929 472.608 247.683 474.153C249.436 475.698 250.304 477.85 250.304 480.628C250.304 482.815 249.731 484.638 248.603 486.061C247.457 487.484 245.825 488.457 243.69 488.96C245.113 489.411 246.276 490.47 247.197 492.171L252.109 501.216H246.242L241.155 491.842C240.652 490.922 240.062 490.297 239.385 489.967C238.708 489.637 237.84 489.463 236.781 489.463H232.823V501.216H227.494H227.459ZM232.806 485.506H239.298C243.187 485.506 245.131 483.926 245.131 480.749C245.131 477.572 243.187 476.045 239.298 476.045H232.806V485.506Z" fill="black"/>
<path d="M266.049 501.216V471.844H278.808C282.037 471.844 284.519 472.642 286.272 474.257C288.026 475.871 288.894 478.128 288.894 481.009C288.894 483.891 288.026 486.148 286.272 487.78C284.519 489.411 282.037 490.21 278.808 490.21H271.395V501.216H266.066H266.049ZM271.378 486.009H277.957C281.794 486.009 283.703 484.342 283.703 481.009C283.703 477.676 281.794 476.045 277.957 476.045H271.378V486.009Z" fill="black"/>
<path d="M303.216 501.216V471.844H315.975C319.204 471.844 321.686 472.608 323.439 474.153C325.193 475.698 326.061 477.85 326.061 480.628C326.061 482.815 325.488 484.638 324.359 486.061C323.214 487.484 321.582 488.457 319.447 488.96C320.87 489.411 322.033 490.47 322.953 492.171L327.866 501.216H321.999L316.912 491.842C316.409 490.922 315.819 490.297 315.142 489.967C314.465 489.637 313.597 489.463 312.538 489.463H308.58V501.216H303.251H303.216ZM308.545 485.506H315.038C318.926 485.506 320.87 483.926 320.87 480.749C320.87 477.572 318.926 476.045 315.038 476.045H308.545V485.506Z" fill="black"/>
<path d="M341.806 501.216V471.844H347.135V501.216H341.806Z" fill="black"/>
<path d="M373.642 501.631C371.333 501.631 369.198 501.336 367.219 500.729C365.24 500.139 363.574 499.323 362.22 498.298L363.851 494.097C365.205 495.07 366.698 495.816 368.33 496.354C369.962 496.875 371.733 497.153 373.642 497.153C375.829 497.153 377.426 496.788 378.433 496.042C379.44 495.313 379.926 494.358 379.926 493.195C379.926 492.223 379.579 491.459 378.867 490.903C378.156 490.348 376.94 489.897 375.222 489.532L370.639 488.577C365.414 487.466 362.81 484.793 362.81 480.54C362.81 478.7 363.296 477.103 364.268 475.749C365.24 474.395 366.594 473.336 368.313 472.589C370.031 471.843 372.028 471.461 374.267 471.461C376.263 471.461 378.138 471.756 379.891 472.364C381.645 472.954 383.103 473.804 384.266 474.881L382.634 478.873C380.325 476.929 377.531 475.957 374.215 475.957C372.305 475.957 370.795 476.356 369.719 477.172C368.643 477.971 368.087 479.03 368.087 480.332C368.087 481.338 368.417 482.137 369.094 482.727C369.771 483.317 370.899 483.786 372.514 484.116L377.062 485.071C379.805 485.661 381.853 486.564 383.207 487.813C384.561 489.063 385.221 490.73 385.221 492.813C385.221 494.566 384.752 496.111 383.797 497.43C382.843 498.75 381.506 499.809 379.77 500.538C378.034 501.267 375.986 501.649 373.625 501.649L373.642 501.631Z" fill="black"/>
<path d="M399.802 501.216V471.844H419.348V476.097H404.923V484.186H418.428V488.439H404.923V496.98H419.348V501.233H399.802V501.216Z" fill="black"/>
<path d="M0.0351562 454.397V412.439H17.5333C21.8905 412.439 25.2756 413.412 27.6885 415.321C30.0841 417.248 31.2819 419.939 31.2819 423.393C31.2819 425.65 30.6917 427.594 29.4939 429.226C28.2961 430.858 26.6817 432.038 24.6159 432.802C27.0289 433.444 28.921 434.607 30.2751 436.308C31.6291 438.01 32.3061 440.18 32.3061 442.801C32.3061 446.533 31.0736 449.397 28.5912 451.394C26.1088 453.407 22.6717 454.397 18.2624 454.397H0.0525193H0.0351562ZM5.9894 430.754H16.5786C22.3766 430.754 25.2756 428.497 25.2756 423.966C25.2756 419.435 22.3766 417.179 16.5786 417.179H5.9894V430.754ZM5.9894 449.623H17.5333C23.3661 449.623 26.2824 447.262 26.2824 442.54C26.2824 437.819 23.3661 435.51 17.5333 435.51H5.9894V449.623Z" fill="black"/>
<path d="M49.1445 454.397V412.439H55.3418V449.102H76.1209V454.397H49.1619H49.1445Z" fill="black"/>
<path d="M106.986 454.918C102.976 454.918 99.5038 454.033 96.5701 452.262C93.6364 450.492 91.3623 447.992 89.7479 444.763C88.1335 441.534 87.335 437.733 87.335 433.358C87.335 428.983 88.1335 425.147 89.7479 421.936C91.3623 418.724 93.619 416.242 96.5701 414.488C99.5038 412.735 102.976 411.867 106.986 411.867C110.996 411.867 114.415 412.735 117.367 414.488C120.318 416.242 122.609 418.707 124.206 421.936C125.821 425.147 126.619 428.931 126.619 433.306C126.619 437.68 125.821 441.534 124.206 444.763C122.592 447.992 120.318 450.492 117.367 452.262C114.415 454.033 110.944 454.918 106.986 454.918ZM106.986 449.572C111.152 449.572 114.398 448.148 116.724 445.319C119.05 442.489 120.213 438.496 120.213 433.393C120.213 428.289 119.068 424.296 116.759 421.484C114.45 418.672 111.204 417.266 107.003 417.266C102.802 417.266 99.5906 418.672 97.2645 421.484C94.9383 424.296 93.7753 428.272 93.7753 433.393C93.7753 438.514 94.9383 442.489 97.2645 445.319C99.5906 448.148 102.837 449.572 107.003 449.572H106.986Z" fill="black"/>
<path d="M161.148 454.918C157.138 454.918 153.666 454.033 150.732 452.262C147.798 450.492 145.524 447.992 143.91 444.763C142.296 441.534 141.497 437.733 141.497 433.358C141.497 428.983 142.296 425.147 143.91 421.936C145.524 418.724 147.781 416.242 150.732 414.488C153.666 412.735 157.138 411.867 161.148 411.867C165.158 411.867 168.578 412.735 171.529 414.488C174.48 416.242 176.771 418.707 178.368 421.936C179.983 425.147 180.781 428.931 180.781 433.306C180.781 437.68 179.983 441.534 178.368 444.763C176.754 447.992 174.48 450.492 171.529 452.262C168.578 454.033 165.106 454.918 161.148 454.918ZM161.148 449.572C165.314 449.572 168.56 448.148 170.886 445.319C173.212 442.489 174.376 438.496 174.376 433.393C174.376 428.289 173.23 424.296 170.921 421.484C168.612 418.672 165.366 417.266 161.165 417.266C156.964 417.266 153.753 418.672 151.427 421.484C149.1 424.296 147.937 428.272 147.937 433.393C147.937 438.514 149.1 442.489 151.427 445.319C153.753 448.148 156.999 449.572 161.165 449.572H161.148Z" fill="black"/>
<path d="M197.323 454.397V412.439H212.148C219.057 412.439 224.386 414.245 228.136 417.856C231.886 421.466 233.76 426.639 233.76 433.392C233.76 440.145 231.886 445.318 228.136 448.963C224.386 452.592 219.057 454.414 212.148 454.414H197.323V454.397ZM203.503 449.206H211.784C222.147 449.206 227.32 443.929 227.32 433.375C227.32 422.82 222.147 417.595 211.784 417.595H203.503V449.206Z" fill="black"/>
<path d="M250.356 454.397V412.439H256.554V430.528H280.058V412.439H286.186V454.397H280.058V435.701H256.554V454.397H250.356Z" fill="black"/>
<path d="M322.501 454.918C318.491 454.918 315.019 454.033 312.086 452.262C309.152 450.492 306.878 447.992 305.264 444.763C303.649 441.534 302.851 437.733 302.851 433.358C302.851 428.983 303.649 425.147 305.264 421.936C306.878 418.724 309.135 416.242 312.086 414.488C315.019 412.735 318.491 411.867 322.501 411.867C326.511 411.867 329.931 412.735 332.882 414.488C335.833 416.242 338.125 418.707 339.722 421.936C341.336 425.147 342.135 428.931 342.135 433.306C342.135 437.68 341.336 441.534 339.722 444.763C338.107 447.992 335.833 450.492 332.882 452.262C329.931 454.033 326.459 454.918 322.501 454.918ZM322.501 449.572C326.668 449.572 329.914 448.148 332.24 445.319C334.566 442.489 335.729 438.496 335.729 433.393C335.729 428.289 334.583 424.296 332.275 421.484C329.966 418.672 326.72 417.266 322.519 417.266C318.318 417.266 315.106 418.672 312.78 421.484C310.454 424.296 309.291 428.272 309.291 433.393C309.291 438.514 310.454 442.489 312.78 445.319C315.106 448.148 318.352 449.572 322.519 449.572H322.501Z" fill="black"/>
<path d="M375.534 454.919C369.945 454.919 365.657 453.444 362.706 450.475C359.755 447.524 358.279 443.184 358.279 437.473V412.406H364.477V437.352C364.477 445.493 368.174 449.555 375.552 449.555C382.93 449.555 386.627 445.493 386.627 437.352V412.406H392.703V437.473C392.703 443.184 391.262 447.524 388.363 450.475C385.464 453.426 381.194 454.919 375.569 454.919H375.534Z" fill="black"/>
<path d="M410.757 454.397V412.439H415.461L439.504 444.172V412.439H445.215V454.397H440.632L416.468 422.56V454.397H410.757Z" fill="black"/>
<path d="M463.563 454.397V412.439H478.388C485.297 412.439 490.627 414.245 494.376 417.856C498.126 421.466 500.001 426.639 500.001 433.392C500.001 440.145 498.126 445.318 494.376 448.963C490.627 452.609 485.297 454.414 478.388 454.414H463.563V454.397ZM469.743 449.206H478.024C488.387 449.206 493.56 443.929 493.56 433.375C493.56 422.82 488.387 417.595 478.024 417.595H469.743V449.206Z" fill="black"/>
<path d="M492.935 328.212C492.935 328.212 492.883 328.212 492.848 328.212L483.318 302.278C484.88 300.993 485.887 299.066 485.887 296.879C485.887 294.31 484.498 292.088 482.432 290.855L483.595 285.057C487.085 284.64 489.793 281.689 489.793 278.096C489.793 274.208 486.633 271.048 482.745 271.048C482.311 271.048 481.877 271.1 481.46 271.17L452.314 227.685C453.165 226.522 453.703 225.081 453.703 223.536C453.703 219.647 450.543 216.488 446.655 216.488C445.613 216.488 444.641 216.731 443.756 217.13L416.311 188.574C416.797 187.619 417.075 186.56 417.075 185.432C417.075 181.544 413.915 178.384 410.027 178.384C408.864 178.384 407.77 178.697 406.798 179.2L384.109 157.97C384.491 157.102 384.699 156.147 384.699 155.157C384.699 151.269 381.54 148.11 377.652 148.11C376.489 148.11 375.395 148.422 374.423 148.925L356.421 132.087C356.803 131.219 357.011 130.264 357.011 129.275C357.011 125.386 353.852 122.227 349.964 122.227C347.898 122.227 346.075 123.13 344.773 124.536L284.953 99.2258C284.953 95.3373 281.794 92.1953 277.905 92.1953C275.388 92.1953 273.201 93.5146 271.951 95.4935L216.731 87.0569C216.123 83.776 213.259 81.2762 209.805 81.2762C206.732 81.2762 204.145 83.2552 203.173 85.998H169.965C168.993 83.2378 166.406 81.2762 163.351 81.2762C159.723 81.2762 156.772 84.019 156.39 87.543L126.671 94.4693C125.421 92.5077 123.234 91.2058 120.751 91.2058C117.47 91.2058 114.728 93.4625 113.946 96.5177L92.6813 98.4446C91.5703 96.0317 89.14 94.3304 86.2931 94.3304C84.21 94.3304 82.3525 95.2505 81.0506 96.7087L56.4524 86.6576C56.4698 86.432 56.5219 86.2063 56.5219 85.9806C56.5219 82.0921 53.3625 78.9327 49.474 78.9327C48.2589 78.9327 47.1131 79.2799 46.1063 79.8181L27.6707 61.3825L19.8417 43.8843C21.404 42.5997 22.4282 40.6555 22.4282 38.4682C22.4282 35.1005 20.05 32.2883 16.8906 31.5939L16.04 1.59705L12.03 0L5.2425 6.78749L4.6002 8.03736L0.156227 32.5834V33.3819L3.48921 53.5708C1.40609 54.8033 0 57.0427 0 59.6292C0 63.5177 3.15939 66.6771 7.04787 66.6771C7.42978 66.6771 7.79432 66.625 8.1415 66.5729L15.606 79.1584C14.5818 80.3736 13.9569 81.9359 13.9569 83.6371C13.9569 87.5256 17.1163 90.685 21.0048 90.685C22.3761 90.685 23.6434 90.2684 24.737 89.5914L59.0216 116.793C58.7612 117.522 58.5876 118.304 58.5876 119.137C58.5876 123.025 61.747 126.185 65.6355 126.185C67.9443 126.185 69.958 125.056 71.2599 123.355L91.9001 129.934C91.9869 132.556 93.4972 134.795 95.6845 135.941L91.2405 167.847C88.029 168.507 85.5987 171.336 85.5987 174.756C85.5987 178.176 87.8901 180.832 90.9801 181.578L92.7855 199.337C90.4072 200.465 88.7407 202.878 88.7407 205.69C88.7407 207.617 89.5046 209.353 90.7544 210.62L79.8875 232.788C79.6618 232.771 79.4362 232.719 79.2105 232.719C75.322 232.719 72.1626 235.878 72.1626 239.767C72.1626 240.826 72.4056 241.815 72.8223 242.718L52.4598 263.115C51.5398 262.681 50.5329 262.421 49.4393 262.421C45.5508 262.421 42.3914 265.58 42.3914 269.468C42.3914 271.795 43.5371 273.843 45.273 275.128L36.5587 303.736C32.8264 303.909 29.8233 306.965 29.8233 310.749C29.8233 314.533 32.9827 317.797 36.8712 317.797C37.2878 317.797 37.6697 317.745 38.069 317.675L55.4456 348.627C54.3172 349.877 53.6055 351.526 53.6055 353.331C53.6055 357.22 56.7649 360.379 60.6534 360.379C63.6913 360.379 66.2431 358.452 67.2499 355.762L105.788 356.265L108.044 353.192L104.156 341.301C105.701 340.017 106.725 338.09 106.725 335.902C106.725 332.014 103.566 328.855 99.6771 328.855C98.0974 328.855 96.6392 329.393 95.4588 330.278L76.0858 320.21C76.1379 319.897 76.19 319.585 76.19 319.255C76.19 316.668 74.7839 314.429 72.7181 313.214L77.2315 289.987C80.634 289.484 83.2378 286.585 83.2378 283.043C83.2378 282.175 83.0643 281.342 82.7691 280.561L106.308 260.702C107.35 261.31 108.548 261.691 109.85 261.691C113.738 261.691 116.898 258.532 116.898 254.644C116.898 253.324 116.516 252.109 115.891 251.05L131.67 232.25C132.434 232.545 133.267 232.719 134.118 232.719C134.448 232.719 134.76 232.667 135.073 232.632L147.398 256.501C146.217 257.768 145.471 259.452 145.471 261.31C145.471 263.479 146.478 265.389 148.005 266.691L140.09 287.956C140.09 287.956 140.02 287.956 139.985 287.956C136.097 287.956 132.938 291.115 132.938 295.004C132.938 298.892 136.062 302.017 139.951 302.052L154.567 344.183C153.317 345.45 152.536 347.203 152.536 349.13C152.536 353.019 155.696 356.178 159.584 356.178C160.504 356.178 161.389 355.987 162.188 355.657L179.408 372.183C179.009 373.069 178.766 374.041 178.766 375.082C178.766 378.971 181.925 382.13 185.814 382.13C188.887 382.13 191.456 380.169 192.428 377.426H219.491L221.626 374.11L216.644 363.018C217.911 361.75 218.71 359.98 218.71 358.036C218.71 354.147 215.55 350.988 211.662 350.988C209.874 350.988 208.242 351.682 207.01 352.776L195.136 347.047C195.171 346.787 195.205 346.544 195.205 346.283C195.205 342.464 192.15 339.357 188.348 339.253L175.19 298.597C176.874 297.313 177.968 295.299 177.968 293.025C177.968 291.168 177.238 289.501 176.075 288.251L191.473 258.862C191.803 258.914 192.115 258.966 192.463 258.966C196.351 258.966 199.51 255.807 199.51 251.918C199.51 249.262 198.035 246.988 195.865 245.79L200.743 216.557C202.201 216.297 203.503 215.62 204.493 214.613L245.2 234.055C245.183 234.264 245.131 234.472 245.131 234.698C245.131 236.798 246.068 238.656 247.526 239.958L234.472 275.041C234.472 275.041 234.403 275.041 234.368 275.041C230.479 275.041 227.32 278.2 227.32 282.089C227.32 284.831 228.9 287.175 231.191 288.338L225.81 329.636C222.65 330.33 220.272 333.142 220.272 336.51C220.272 340.399 223.432 343.558 227.32 343.558C227.806 343.558 228.275 343.506 228.726 343.419L244.731 371.263C244.02 372.374 243.586 373.676 243.586 375.1C243.586 378.988 246.745 382.148 250.634 382.148C253.706 382.148 256.275 380.186 257.247 377.443H297.799L299.847 373.919L291.602 359.494C292.66 358.261 293.337 356.682 293.337 354.911C293.337 351.022 290.178 347.863 286.29 347.863C284.345 347.863 282.575 348.644 281.307 349.929L263.792 341.544C263.809 341.301 263.861 341.058 263.861 340.815C263.861 337.933 262.125 335.451 259.643 334.358L262.212 299.17C265.493 298.563 267.976 295.698 267.976 292.244C267.976 290.629 267.403 289.154 266.483 287.956L284.311 263.341C284.936 263.532 285.595 263.653 286.29 263.653C289.814 263.653 292.713 261.067 293.233 257.681L298.806 256.623C299.899 258.48 301.791 259.782 304.031 260.042L306.756 272.107C304.69 273.34 303.302 275.562 303.302 278.148C303.302 282.037 306.461 285.196 310.35 285.196C310.488 285.196 310.627 285.161 310.766 285.161L328.907 333.819C327.344 335.104 326.32 337.048 326.32 339.235C326.32 343.124 329.48 346.283 333.368 346.283C334.392 346.283 335.382 346.058 336.25 345.658L354.598 365.622C354.321 366.368 354.147 367.184 354.147 368.035C354.147 371.923 357.306 375.082 361.195 375.082C364.042 375.082 366.472 373.399 367.583 370.968H406.312L408.239 367.271L394.334 347.481C394.941 346.44 395.306 345.242 395.306 343.957C395.306 340.069 392.147 336.909 388.258 336.909C386.262 336.909 384.474 337.743 383.189 339.062L367.792 332.656C367.809 332.448 367.861 332.257 367.861 332.049C367.861 328.386 365.049 325.4 361.473 325.07L349.356 275.371C351.144 274.19 352.342 272.229 352.498 269.954L364.788 266.5C366.073 268.288 368.156 269.468 370.517 269.468C372.461 269.468 374.214 268.687 375.482 267.42L388.328 273.513C388.328 273.704 388.275 273.895 388.275 274.103C388.275 276.186 389.196 278.044 390.636 279.329L382.408 298.945C382.269 298.945 382.148 298.91 382.009 298.91C378.12 298.91 374.961 302.069 374.961 305.958C374.961 309.846 378.12 313.006 382.009 313.006C382.825 313.006 383.588 312.832 384.318 312.589L406.19 339.86C405.531 340.937 405.114 342.204 405.114 343.558C405.114 347.446 408.273 350.606 412.162 350.606C416.05 350.606 419.21 347.446 419.21 343.558C419.21 341.805 418.55 340.208 417.474 338.975L426.587 322.987C426.935 323.074 427.317 323.109 427.681 323.143L432.212 341.961C430.285 343.211 429 345.381 429 347.863C429 351.752 432.16 354.911 436.048 354.911C438.479 354.911 440.614 353.678 441.881 351.821L471.166 359.494C471.982 362.497 474.69 364.719 477.936 364.719C481.825 364.719 484.984 361.56 484.984 357.671C484.984 356.265 484.568 354.98 483.856 353.887L491.251 342.221C491.754 342.343 492.275 342.412 492.813 342.412C496.702 342.412 499.861 339.253 499.861 335.364C499.861 331.476 496.702 328.316 492.813 328.316L492.935 328.212ZM412.266 336.423C412.266 336.423 412.197 336.423 412.162 336.423L398.535 280.318C400.861 279.172 402.475 276.794 402.475 274.017C402.475 272.697 402.093 271.465 401.451 270.406L442.923 229.455C443.218 229.646 443.513 229.802 443.825 229.941L434.607 275.926C430.823 276.048 427.785 279.138 427.785 282.957C427.785 285.804 429.486 288.234 431.917 289.362L427.976 309.048C424.244 309.239 421.276 312.294 421.276 316.061C421.276 317.675 421.831 319.133 422.751 320.331L413.516 336.562C413.117 336.493 412.7 336.441 412.283 336.441L412.266 336.423ZM363.625 261.9L351.352 265.337C350.068 263.532 347.985 262.334 345.606 262.334C343.228 262.334 341.093 263.532 339.826 265.372L311.912 254.123C311.964 253.758 312.016 253.394 312.016 253.012C312.016 251.675 311.617 250.443 310.975 249.366L336.684 224.456C337.795 225.167 339.097 225.601 340.52 225.601C341.51 225.601 342.447 225.393 343.298 225.029L365.465 257.577C364.406 258.723 363.729 260.233 363.625 261.9ZM340.485 338.871L354.772 335.364C355.727 337.083 357.341 338.367 359.32 338.836L359.164 361.299C358.678 361.455 358.209 361.664 357.758 361.924L339.756 342.343C340.242 341.388 340.537 340.329 340.537 339.183C340.537 339.079 340.503 338.975 340.503 338.871H340.485ZM316.53 281.603C317.137 280.561 317.502 279.381 317.502 278.096C317.502 274.555 314.88 271.638 311.478 271.152L308.735 258.983C309.534 258.48 310.228 257.82 310.766 257.057L338.68 268.305C338.628 268.67 338.576 269.034 338.576 269.416C338.576 273.062 341.353 276.03 344.912 276.395L356.89 325.504L316.547 281.62L316.53 281.603ZM279.641 356.768L255.668 369.961C254.401 368.729 252.665 367.948 250.755 367.948C250.009 367.948 249.297 368.104 248.62 368.312L232.84 340.885C233.361 340.26 233.76 339.548 234.038 338.784L249.904 341.249C250.165 344.912 253.185 347.794 256.9 347.794C258.845 347.794 260.615 347.012 261.882 345.728L279.398 354.112C279.381 354.355 279.329 354.598 279.329 354.841C279.329 355.518 279.45 356.143 279.624 356.768H279.641ZM240.27 285.994L254.036 291.497C254.019 291.723 253.967 291.931 253.967 292.174C253.967 293.771 254.522 295.23 255.425 296.41L230.705 329.219L235.948 288.876C237.736 288.494 239.263 287.435 240.27 285.994ZM250.373 338.142L234.403 335.659C234.246 334.184 233.639 332.847 232.701 331.788L257.629 298.719L255.06 333.976C252.925 334.566 251.189 336.111 250.391 338.142H250.373ZM261.014 285.127C261.014 285.127 260.98 285.127 260.962 285.127L254.626 241.225C257.369 240.253 259.331 237.666 259.331 234.611C259.331 233.292 258.949 232.059 258.306 231L270.979 219.335C271.899 219.994 272.975 220.428 274.138 220.602L282.939 250.408C280.787 251.623 279.329 253.88 279.329 256.518C279.329 258.011 279.797 259.383 280.578 260.511L262.629 285.3C262.108 285.179 261.57 285.092 261.014 285.092V285.127ZM152.623 254.192C152.293 254.192 151.981 254.244 151.668 254.296L139.343 230.427C139.517 230.254 139.673 230.045 139.812 229.855L185.658 250.46C185.571 250.911 185.519 251.38 185.519 251.849C185.519 251.849 185.519 251.883 185.519 251.901L158.924 258.15C157.779 255.824 155.4 254.192 152.623 254.192ZM109.936 247.544C109.798 247.544 109.676 247.578 109.555 247.578L99.2431 211.783C101.413 210.586 102.889 208.294 102.889 205.638C102.889 202.323 100.597 199.563 97.5072 198.816L95.7018 181.058C95.7018 181.058 95.7713 181.023 95.806 181.005L128.667 221.314C127.73 222.512 127.157 223.987 127.157 225.619C127.157 226.921 127.539 228.136 128.164 229.177L112.384 248.012C111.62 247.735 110.804 247.544 109.936 247.544ZM27.7228 85.7723L42.5824 87.1437C43.1552 90.4593 46.0369 92.9764 49.5087 92.9764C49.9601 92.9764 50.4114 92.9243 50.8454 92.8375L60.3756 111.777L27.6881 85.8591C27.6881 85.8591 27.6881 85.807 27.7054 85.7723H27.7228ZM71.9196 115.873L82.1616 107.02C83.3246 107.871 84.7655 108.409 86.3104 108.409C86.7791 108.409 87.2305 108.357 87.6818 108.27L94.7471 124.067C94.2263 124.449 93.7749 124.918 93.3757 125.438L72.7008 118.842C72.666 117.783 72.3709 116.776 71.9196 115.891V115.873ZM347.238 135.715C348.089 136.062 349.009 136.271 349.981 136.271C351.144 136.271 352.238 135.958 353.21 135.455L371.211 152.293C370.829 153.161 370.621 154.116 370.621 155.105C370.621 158.161 372.583 160.747 375.308 161.719L372.201 188.019C369.961 188.262 368.035 189.529 366.941 191.369L322.38 176.804C322.38 176.648 322.432 176.492 322.432 176.336C322.432 174.773 321.911 173.333 321.043 172.17L347.255 135.715H347.238ZM309.308 172.829L264.816 160.087C264.816 159.966 264.851 159.844 264.851 159.706C264.851 157.154 263.479 154.932 261.431 153.699L277.141 106.152C277.402 106.187 277.662 106.239 277.94 106.239C278.565 106.239 279.155 106.135 279.745 105.979L311.339 170.59C310.506 171.18 309.829 171.944 309.308 172.829ZM216.661 128.823C217.009 127.99 217.2 127.087 217.2 126.15C217.2 125.768 217.147 125.404 217.095 125.039L271.951 102.854C272.506 103.774 273.27 104.555 274.19 105.145L258.463 152.762C258.237 152.744 258.029 152.692 257.803 152.692C255.998 152.692 254.366 153.387 253.116 154.515L216.679 128.841L216.661 128.823ZM215.932 122.105C214.926 120.664 213.398 119.606 211.61 119.241L211.228 95.1984C213.311 94.7818 215.03 93.4451 216.019 91.6571L270.649 100.007L215.932 122.14V122.105ZM208.086 95.0769L208.485 119.31C205.413 120.074 203.121 122.817 203.121 126.133C203.121 126.515 203.173 126.879 203.225 127.244L183.661 135.16C182.481 133.285 180.433 132.017 178.072 131.896L166.875 94.3999C168.333 93.5666 169.461 92.2473 170.034 90.6503H203.243C204.024 92.8375 205.829 94.504 208.103 95.0942L208.086 95.0769ZM135.837 218.762L136.149 163.559C136.861 163.403 137.538 163.108 138.145 162.761L193.278 206.524C192.844 207.444 192.567 208.468 192.567 209.561C192.567 209.596 192.567 209.631 192.567 209.683L140.471 222.477C139.551 220.637 137.85 219.265 135.802 218.779L135.837 218.762ZM195.24 204.076L140.471 160.608C141.218 159.48 141.669 158.143 141.669 156.685C141.669 156.303 141.617 155.939 141.565 155.574L172.152 143.214C173.437 144.881 175.433 145.974 177.707 145.974C178.141 145.974 178.558 145.922 178.974 145.853L196.177 203.468C195.848 203.659 195.553 203.868 195.257 204.093L195.24 204.076ZM163.403 95.3373C163.559 95.3373 163.698 95.3026 163.854 95.2852L174.947 132.417C172.413 133.493 170.642 135.993 170.642 138.909C170.642 139.413 170.694 139.899 170.798 140.367L140.385 152.658C139.117 150.835 137 149.637 134.604 149.637C132.573 149.637 130.75 150.505 129.466 151.877L105.302 132.695C105.736 131.774 106.013 130.75 106.013 129.657C106.013 127.834 105.302 126.167 104.156 124.918L118.147 104.729C118.963 105.058 119.849 105.249 120.769 105.249C124.397 105.249 127.348 102.489 127.747 98.9654L157.466 92.0564C158.716 94.018 160.903 95.3199 163.386 95.3199L163.403 95.3373ZM115.596 102.941L101.604 123.13C100.788 122.8 99.9028 122.609 98.9827 122.609C98.514 122.609 98.0627 122.661 97.6114 122.748L90.5461 106.951C91.796 105.996 92.7334 104.659 93.1326 103.08L114.398 101.153C114.71 101.812 115.11 102.42 115.596 102.958V102.941ZM103.357 135.142L127.903 154.619C127.695 155.279 127.556 155.956 127.556 156.685C127.556 160.018 129.882 162.813 133.007 163.542L132.694 218.745C132.139 218.866 131.618 219.074 131.115 219.317L98.2536 179.009C99.191 177.811 99.7639 176.336 99.7639 174.704C99.7639 171.979 98.2016 169.652 95.9622 168.472L100.406 136.566C101.517 136.34 102.524 135.819 103.375 135.142H103.357ZM186.977 247.613L141.131 227.008C141.218 226.556 141.27 226.088 141.27 225.619C141.27 225.584 141.27 225.549 141.27 225.497L193.365 212.704C194.008 213.971 194.997 214.995 196.23 215.689L191.352 244.922C189.564 245.235 188.036 246.224 186.977 247.613ZM203.798 203.902C202.618 203.034 201.194 202.496 199.615 202.496C199.458 202.496 199.32 202.531 199.163 202.548L181.839 144.568C183.592 143.284 184.738 141.235 184.738 138.892C184.738 138.631 184.686 138.371 184.668 138.128L204.388 130.16C205.656 131.983 207.773 133.181 210.169 133.181C211.974 133.181 213.606 132.486 214.856 131.358L251.293 157.032C250.946 157.865 250.755 158.768 250.755 159.706C250.755 160.886 251.068 161.98 251.588 162.969L203.816 203.902H203.798ZM263.948 163.108L308.388 175.832C308.388 176.006 308.336 176.18 308.336 176.353C308.336 177.62 308.7 178.801 309.291 179.842L278.964 207.773C277.853 207.062 276.551 206.628 275.128 206.628C274.52 206.628 273.93 206.732 273.357 206.871L261.24 165.833C262.386 165.191 263.306 164.254 263.948 163.108ZM286.394 249.488C286.238 249.488 286.099 249.523 285.96 249.54L277.332 220.324C280.144 219.387 282.175 216.783 282.175 213.658C282.175 212.322 281.776 211.072 281.134 210.013L311.391 182.151C312.52 182.932 313.891 183.401 315.384 183.401C316.286 183.401 317.154 183.21 317.953 182.898L335.868 213.311C334.41 214.596 333.472 216.47 333.472 218.571C333.472 219.908 333.871 221.157 334.514 222.216L308.805 247.127C307.694 246.398 306.392 245.981 304.968 245.981C301.444 245.981 298.545 248.568 298.024 251.953L292.452 253.012C291.237 250.929 288.98 249.505 286.394 249.505V249.488ZM345.138 213.276C343.905 212.2 342.291 211.506 340.52 211.506C339.86 211.506 339.218 211.627 338.611 211.801L320.522 181.127C320.887 180.728 321.199 180.294 321.477 179.825L365.969 194.372C365.951 194.58 365.899 194.789 365.899 195.014C365.899 196.004 366.108 196.941 366.472 197.792L345.12 213.276H345.138ZM375.325 188.4L378.433 162.101C379.318 162.014 380.151 161.754 380.898 161.355L403.586 182.585C403.204 183.453 402.996 184.408 402.996 185.415C402.996 188.366 404.802 190.883 407.371 191.924L402.059 223.605C401.069 223.657 400.149 223.918 399.316 224.352L378.537 199.302C379.44 198.122 380.012 196.646 380.012 195.032C380.012 191.977 378.051 189.39 375.325 188.418V188.4ZM402.927 237.597C406.607 237.354 409.523 234.333 409.523 230.601C409.523 227.65 407.718 225.133 405.149 224.091L410.461 192.41C411.346 192.358 412.179 192.167 412.943 191.803L440.388 220.342C439.902 221.296 439.607 222.373 439.607 223.518C439.607 224.89 440.024 226.174 440.701 227.251L399.281 268.149C398.899 267.906 398.5 267.68 398.083 267.524L402.927 237.614V237.597ZM471.791 296.879C471.791 297.052 471.826 297.226 471.843 297.382L463.25 300.021C462.035 297.92 459.778 296.48 457.175 296.48C455.838 296.48 454.605 296.879 453.529 297.521L441.048 286.238C441.482 285.404 441.759 284.502 441.829 283.512L475.888 279.641C476.305 281.481 477.45 283.043 478.995 284.016L477.815 289.918C474.395 290.404 471.774 293.32 471.774 296.861L471.791 296.879ZM475.888 276.499L441.395 280.422C440.718 278.686 439.381 277.28 437.68 276.534L446.898 230.532C447.436 230.514 447.939 230.427 448.425 230.306L477.398 273.531C476.686 274.381 476.148 275.371 475.888 276.499ZM431.066 309.568L434.989 290.004C436.5 289.97 437.888 289.466 439.017 288.633L451.272 299.708C450.561 300.819 450.127 302.121 450.127 303.545C450.127 305.784 451.186 307.763 452.835 309.048L437.697 340.919C437.437 340.867 437.177 340.85 436.899 340.815L432.333 321.859C434.173 320.592 435.389 318.474 435.389 316.061C435.389 313.144 433.618 310.627 431.084 309.568H431.066ZM440.492 342.273L455.63 310.402C456.116 310.506 456.636 310.575 457.157 310.575C457.487 310.575 457.799 310.523 458.112 310.471L473.805 351.96C472.885 352.654 472.138 353.574 471.652 354.633L443.131 347.169C442.957 345.172 441.968 343.436 440.492 342.256V342.273ZM478.058 350.536C477.589 350.536 477.12 350.588 476.669 350.675L461.063 309.412C461.237 309.291 461.393 309.152 461.566 309.013L486.824 331.84C486.251 332.865 485.904 334.01 485.904 335.26C485.904 336.909 486.494 338.385 487.432 339.583L480.262 350.901C479.568 350.675 478.839 350.519 478.075 350.519L478.058 350.536ZM488.022 328.716L463.511 306.565C463.945 305.645 464.205 304.638 464.205 303.545C464.205 303.371 464.17 303.198 464.153 303.041L472.746 300.403C473.961 302.503 476.218 303.944 478.822 303.944C478.856 303.944 478.874 303.944 478.908 303.944L488.022 328.733V328.716ZM344.721 133.858L318.647 170.121C317.675 169.6 316.564 169.288 315.384 169.288C315.002 169.288 314.62 169.34 314.255 169.409L282.523 104.503C282.852 104.225 283.148 103.913 283.408 103.583L342.985 128.806C342.985 128.945 342.95 129.084 342.95 129.223C342.95 131.011 343.645 132.625 344.738 133.858H344.721ZM79.2973 101.014C79.2973 101.118 79.2626 101.222 79.2626 101.344C79.2626 102.541 79.5924 103.652 80.1132 104.642L69.9059 113.478C68.7255 112.592 67.2846 112.054 65.6876 112.054C65.1495 112.054 64.6113 112.124 64.1079 112.245L53.6923 91.5703C53.9701 91.362 54.2478 91.1363 54.5082 90.8933L79.2973 101.014ZM42.9816 83.2552C42.8775 83.4982 42.8254 83.7586 42.7386 84.019L27.9832 82.6476C27.5318 79.1931 24.5981 76.5198 21.0221 76.5198C20.5534 76.5198 20.1021 76.5719 19.6507 76.6587L12.273 64.2468C12.7591 63.7086 13.1757 63.0837 13.4882 62.4067L23.7996 63.9864L24.06 64.3509L42.9643 83.2552H42.9816ZM11.0405 43.9017L8.05472 52.1473L5.36402 35.8643L8.50605 37.201C8.43661 37.6002 8.38453 37.9995 8.38453 38.4335C8.38453 40.6555 9.42609 42.6171 11.0405 43.9017ZM22.2199 60.584L14.0957 59.3515C14.0089 56.9559 12.7417 54.8554 10.8496 53.6402L13.8701 45.2904C14.3735 45.4119 14.8943 45.4814 15.4324 45.4814C15.4324 45.4814 15.4498 45.4814 15.4671 45.4814L22.2199 60.6013V60.584ZM9.13098 9.54762L11.5439 7.13467L12.2557 32.1668C11.2488 32.6702 10.3809 33.4167 9.72121 34.3193L4.99947 32.3057L9.11363 9.54762H9.13098ZM95.0422 212.599C95.3026 212.634 95.563 212.686 95.8407 212.686C95.9796 212.686 96.1011 212.651 96.2226 212.651L106.534 248.446C104.364 249.644 102.889 251.936 102.889 254.592C102.889 255.459 103.062 256.293 103.357 257.074L79.8181 276.933C79.3494 276.655 78.8286 276.43 78.2905 276.273L80.252 246.676C83.6718 246.19 86.3278 243.291 86.3278 239.732C86.3278 237.77 85.5293 236 84.2273 234.715L95.0595 212.634L95.0422 212.599ZM92.7855 336.597L66.2952 348.991C65.6702 348.193 64.8891 347.533 63.9864 347.064L69.1074 326.251C69.1074 326.251 69.1768 326.251 69.2289 326.251C71.0863 326.251 72.7702 325.522 74.0201 324.341L92.9243 334.167C92.7855 334.705 92.6987 335.26 92.6987 335.85C92.6987 336.111 92.7507 336.354 92.7681 336.597H92.7855ZM43.1552 313.96C52.4251 316.425 58.3793 318.005 62.1984 319.012C62.1984 319.081 62.181 319.133 62.181 319.203C62.181 321.963 63.7781 324.324 66.0695 325.47L60.9659 346.249C60.9659 346.249 60.8096 346.231 60.7228 346.231C60.3583 346.231 59.9937 346.283 59.6465 346.335L42.2178 315.297C42.5824 314.88 42.8775 314.446 43.1379 313.96H43.1552ZM62.9969 315.974C57.928 314.637 50.6718 312.71 43.9711 310.922C43.9711 310.836 43.9885 310.749 43.9885 310.662C43.9885 308.336 42.8428 306.288 41.1068 305.003L49.8212 276.395C51.8696 276.308 53.6576 275.336 54.8901 273.878L69.4546 281.255C69.3157 281.811 69.2289 282.366 69.2289 282.957C69.2289 285.543 70.635 287.782 72.7008 288.998L68.1873 312.224C65.9133 312.572 64.0037 313.978 62.9969 315.957V315.974ZM77.1274 246.381L75.1658 276.03C73.4472 276.308 71.9543 277.193 70.878 278.478L56.3136 271.1C56.4524 270.545 56.5392 269.989 56.5392 269.399C56.5392 268.305 56.2789 267.299 55.8275 266.378L76.1553 246.016C76.4677 246.172 76.7802 246.294 77.11 246.398L77.1274 246.381ZM102.646 351.456L69.3504 351.022L93.8097 339.565C95.0595 341.544 97.2468 342.881 99.7639 342.881C99.7986 342.881 99.816 342.881 99.8507 342.881L102.646 351.456ZM152.519 268.288C152.519 268.288 152.588 268.288 152.623 268.288C156.511 268.288 159.671 265.129 159.671 261.24C159.671 261.24 159.671 261.205 159.671 261.188L186.265 254.939C186.578 255.564 186.96 256.119 187.411 256.623L172.013 286.012C171.684 285.96 171.371 285.908 171.024 285.908C167.517 285.908 164.636 288.477 164.097 291.827L146.825 292.921C146.426 291.584 145.645 290.421 144.603 289.536L152.519 268.271V268.288ZM204.909 359.546L188.574 368.486C187.758 368.156 186.873 367.965 185.935 367.965C184.79 367.965 183.731 368.26 182.793 368.746L165.833 352.481C166.267 351.699 166.545 350.831 166.667 349.894L181.63 348.453C182.568 351.248 185.172 353.279 188.296 353.279C190.223 353.279 191.977 352.498 193.261 351.231L204.857 356.838C204.805 357.202 204.736 357.584 204.736 357.966C204.736 358.504 204.805 359.025 204.927 359.546H204.909ZM147.033 296.046L164.306 294.952C164.879 296.896 166.25 298.476 168.055 299.326L158.838 341.805L144.481 300.403C145.818 299.344 146.738 297.816 147.033 296.063V296.046ZM181.301 345.311L166.302 346.752C165.59 344.686 163.976 343.089 161.91 342.395L170.989 300.49L183.974 340.642C182.533 341.753 181.526 343.402 181.283 345.311H181.301ZM192.532 372.652C192.254 371.871 191.838 371.159 191.334 370.534L206.298 362.358C207.583 363.972 209.544 365.014 211.766 365.014C212.009 365.014 212.252 364.962 212.495 364.945L215.967 372.652H192.532ZM206.593 210.273C206.61 210.03 206.662 209.787 206.662 209.544C206.662 208.364 206.35 207.27 205.829 206.281L253.602 165.347C254.782 166.215 256.206 166.753 257.786 166.753C257.942 166.753 258.081 166.719 258.22 166.701L270.51 208.329C269.017 209.614 268.062 211.506 268.062 213.641C268.062 214.839 268.392 215.967 268.93 216.957L256.171 228.709C255.06 227.98 253.724 227.546 252.3 227.546C250.321 227.546 248.533 228.362 247.266 229.681L206.61 210.256L206.593 210.273ZM251.658 242.527L257.907 285.873C256.709 286.463 255.703 287.383 255.008 288.512L241.398 283.078C241.451 282.714 241.503 282.366 241.503 281.984C241.503 279.815 240.496 277.905 238.968 276.603L251.64 242.527H251.658ZM257.369 372.652C257.369 372.652 257.369 372.617 257.369 372.6L281.169 359.494C282.453 360.935 284.311 361.872 286.411 361.872C286.845 361.872 287.262 361.82 287.661 361.75L293.893 372.652H257.386H257.369ZM316.13 285.786L355.032 328.125C354.303 329.236 353.869 330.556 353.869 331.979C353.869 332.101 353.904 332.222 353.904 332.344L339.635 335.85C338.437 333.646 336.146 332.135 333.455 332.135C333.455 332.135 333.42 332.135 333.403 332.135L316.113 285.804L316.13 285.786ZM368.121 366.194C367.982 365.656 367.792 365.17 367.531 364.684L384.717 349.859C385.793 350.519 387.043 350.918 388.38 350.918C389.248 350.918 390.081 350.745 390.845 350.45L401.903 366.194H368.104H368.121ZM381.384 343.28C381.384 343.488 381.332 343.679 381.332 343.87C381.332 345.276 381.748 346.578 382.46 347.672L365.5 362.306C364.58 361.629 363.486 361.178 362.289 361.004L362.445 338.854C363.816 338.558 365.049 337.847 365.986 336.875L381.384 343.28ZM377.6 263.098C377.634 262.855 377.669 262.612 377.669 262.351C377.669 258.463 374.51 255.303 370.621 255.303C369.701 255.303 368.833 255.494 368.035 255.807L345.797 223.171C346.874 221.939 347.551 220.324 347.551 218.554C347.551 217.564 347.342 216.627 346.978 215.793L368.33 200.292C369.562 201.368 371.177 202.045 372.947 202.045C374.093 202.045 375.152 201.75 376.107 201.264L396.886 226.313C395.983 227.494 395.41 228.969 395.41 230.584C395.41 233.535 397.233 236.069 399.819 237.111L394.976 267.021C393.153 267.125 391.522 267.906 390.341 269.139L377.582 263.08L377.6 263.098ZM395.08 281.047C395.202 281.047 395.306 281.082 395.427 281.082C395.445 281.082 395.48 281.082 395.497 281.082L408.655 335.208L388.102 309.586C388.762 308.509 389.178 307.242 389.178 305.888C389.178 303.823 388.275 301.982 386.852 300.698L395.098 281.064L395.08 281.047Z" fill="#2C2677"/>
</svg>
