<?xml version="1.0" encoding="utf-8"?>
<svg id="fccf43b4-e775-4089-a7da-34f55d068a81" xmlns="http://www.w3.org/2000/svg" viewBox="24.1692 13.63 395.5663 399.04" width="395.566px" height="399.04px">
  <defs>
    <clipPath id="e2ddcd6c-76f1-4b9c-aed7-25ff6905e8e3">
      <rect class="cls-2" x="-45.7" y="-32.62" width="533.58" height="488.8"/>
    </clipPath>
    <linearGradient id="ed09fc78-429f-458c-9dcf-52c721c1f0bb" x1="127.1" y1="204.31" x2="471.45" y2="117.7" gradientUnits="userSpaceOnUse">
      <stop offset="0.03" stop-color="#f68749"/>
      <stop offset="0.06" stop-color="#f47d4b"/>
      <stop offset="0.1" stop-color="#f26354"/>
      <stop offset="0.16" stop-color="#ed3961"/>
      <stop offset="0.19" stop-color="#eb2069"/>
      <stop offset="0.67" stop-color="#6854a3"/>
      <stop offset="0.74" stop-color="#6854a3"/>
      <stop offset="0.81" stop-color="#6854a3"/>
      <stop offset="0.86" stop-color="#6854a3"/>
      <stop offset="0.97" stop-color="#6854a3"/>
    </linearGradient>
    <linearGradient id="06ff1d33-8700-4f67-b5d4-8d28d07d16cc" x1="127.1" y1="340.66" x2="310.68" y2="340.66" gradientUnits="userSpaceOnUse">
      <stop offset="0" stop-color="#f68749"/>
      <stop offset="0.28" stop-color="#f3864a"/>
      <stop offset="0.45" stop-color="#eb834f"/>
      <stop offset="0.58" stop-color="#dd7e58"/>
      <stop offset="0.7" stop-color="#c97665"/>
      <stop offset="0.8" stop-color="#af6d75"/>
      <stop offset="0.9" stop-color="#906289"/>
      <stop offset="0.99" stop-color="#6b55a0"/>
      <stop offset="1" stop-color="#6854a3"/>
    </linearGradient>
    <linearGradient id="f1ec762c-348e-4628-a149-4c817b482f56" x1="9.24" y1="168.11" x2="71.65" y2="60.02" gradientUnits="userSpaceOnUse">
      <stop offset="0" stop-color="#f68749"/>
      <stop offset="0.02" stop-color="#f5834a"/>
      <stop offset="0.21" stop-color="#f15f55"/>
      <stop offset="0.41" stop-color="#ee435d"/>
      <stop offset="0.6" stop-color="#ec2f64"/>
      <stop offset="0.8" stop-color="#eb2367"/>
      <stop offset="1" stop-color="#eb2069"/>
    </linearGradient>
    <linearGradient id="a3daae18-c229-475a-8fb7-1add25277a94" x1="25.78" y1="217.22" x2="72.79" y2="147.7" gradientUnits="userSpaceOnUse">
      <stop offset="0" stop-color="#f68749"/>
      <stop offset="0.2" stop-color="#f5834a"/>
      <stop offset="0.4" stop-color="#f4774d"/>
      <stop offset="0.59" stop-color="#f26453"/>
      <stop offset="0.78" stop-color="#ef495c"/>
      <stop offset="0.97" stop-color="#eb2666"/>
      <stop offset="1" stop-color="#eb2069"/>
    </linearGradient>
    <linearGradient id="e8ea3332-372e-4a95-9cae-bd44284282e2" x1="186.14" y1="145.78" x2="400.78" y2="206.7" gradientUnits="userSpaceOnUse">
      <stop offset="0" stop-color="#eb2069"/>
      <stop offset="0.07" stop-color="#d22973"/>
      <stop offset="0.18" stop-color="#b13682"/>
      <stop offset="0.29" stop-color="#96418e"/>
      <stop offset="0.42" stop-color="#824997"/>
      <stop offset="0.57" stop-color="#734f9d"/>
      <stop offset="0.73" stop-color="#6a52a1"/>
      <stop offset="1" stop-color="#6854a3"/>
    </linearGradient>
    <style>
      .cls-1 {
        fill: #6753a3;
      }

      .cls-2, .cls-3, .cls-4, .cls-5 {
        fill: none;
      }

      .cls-6 {
        fill: url(#e8ea3332-372e-4a95-9cae-bd44284282e2);
      }

      .cls-7 {
        fill: url(#a3daae18-c229-475a-8fb7-1add25277a94);
      }

      .cls-8 {
        fill: url(#f1ec762c-348e-4628-a149-4c817b482f56);
      }

      .cls-9 {
        fill: url(#06ff1d33-8700-4f67-b5d4-8d28d07d16cc);
      }

      .cls-3 {
        stroke-width: 2.24px;
      }

      .cls-3, .cls-4, .cls-5 {
        stroke: #2e2e31;
      }

      .cls-10 {
        fill: #2e2e31;
      }

      .cls-11 {
        fill: url(#ed09fc78-429f-458c-9dcf-52c721c1f0bb);
      }

      .cls-12 {
        clip-path: url(#clippath-1);
      }

      .cls-13 {
        clip-path: url(#clippath-2);
      }

      .cls-14 {
        fill: #ed2069;
      }

      .cls-4 {
        stroke-width: 5.6px;
      }

      .cls-15 {
        fill: #f6884b;
      }

      .cls-16 {
        fill: #fff;
      }

      .cls-17 {
        fill: #2e2d31;
      }

      .cls-18 {
        fill: #f68749;
      }

      .cls-5 {
        stroke-width: 1.53px;
      }

      .cls-19 {
        clip-path: url(#e2ddcd6c-76f1-4b9c-aed7-25ff6905e8e3);
      }
    </style>
  </defs>
  <g id="13629f2e-761f-4bbb-8fc5-1a4bd220ef8d" transform="matrix(0.9999999999999999, 0, 0, 0.9999999999999999, -7.105427357601002e-15, 0)">
    <g class="cls-19">
      <g>
        <path class="cls-11" d="M419.61,70.85c-10.44-8.48-23.77-16.63-39.27-24.01,3.9,11.91,7.52,24.43,10.87,37.56,4.85,18.99-23.65,26.25-28.49,7.26-5.59-21.93-11.83-41.65-18.65-59.33-10.97-3.66-22.54-6.93-34.52-9.72,32.78,44.72,19.25,111.18,77.8,100.43,19.28-3.54,24.59,25.37,5.32,28.92-123.06,22.61-47.53-138.33-176.05-138.33-71,0-86.89,56.71-86.89,112.37,0,16.09,2.63,32.58,2.63,45.07,0,43.43-26.7,75.63-67.93,85.55,3.95,7.71,8.16,15.26,12.65,22.63,28.26-5.25,50.69-20.22,67.51-42.16,11.93-15.55,35.26,2.34,23.33,17.9-19.7,25.66-44.31,42.64-73.11,50.59,3.84,5.2,7.84,10.27,11.99,15.23,16.8-6.03,29.09-11.61,38.61-16.3,14.01-6.87,33.51-20.31,49.69-20.31,7.55,0,15.7,1.85,24.14,4.37,40.07,12.09,74.33,27.57,115.32,35.26,4.64-5.45,9.1-11,13.37-16.71-114.07-22.31-195.94-81.4-195.94-191.89,0-36.42,14.16-79.03,64.98-79.03,41.11,0,54.31,27.3,65.52,59.6,23.32,67.25,53.77,88.06,124.69,87.51,9.14-35.24,13.39-72.9,12.42-112.47"/>
        <path class="cls-18" d="M169.92,380.18c16.16,11.95,33.52,22.8,52.05,32.49,13.42-7.03,37.6-22.04,38.43-22.87-4.21-1.83-7.23-3.05-9.15-3.89-15.1-6.6-30.81-14.48-47.48-15.81-4.36-.35-8.78-.09-13.01,1.07-3.9,1.06-7.62,2.68-11.26,4.42-1.87.89-3.72,1.83-5.58,2.75-.42.21-3.59,2.15-4,1.84Z"/>
        <path class="cls-9" d="M127.1,343.17c5.83,5.89,11.88,11.62,18.17,17.14l3.82-1.86c14-6.88,31.01-19.03,47.18-19.03,7.53,0,18.81,1.81,27.22,4.37,24.31,7.31,44.64,15.07,68.1,22.43,3.38-2.82,6.04-4.97,9.32-7.91,3.09-2.77,8.17-7.9,9.77-9.38-2.73-.99-27.69-9.5-33.38-11.44-12.66-4.33-24.7-9.34-37.5-13.21-12.39-3.75-26.56-9.07-39.63-9.07-14.37-.86-26.77,5.6-39.51,11.72-11.18,5.38-22.04,11.6-33.55,16.26Z"/>
        <path class="cls-8" d="M55.65,50.79c-12.15,6.29-22.72,13.05-31.34,20.06-1,39.87,3.34,77.77,12.6,113.23,12.8-6.65,13.98-19.26,13.25-43.13-1.02-33.11-2.25-61.36,5.5-90.17Z"/>
        <path class="cls-7" d="M129.45,23.78c-12.7,3.12-24.88,6.78-36.35,10.87-8.52,17.4-12.28,34.48-13.76,50.9-4.09,45.43,15.83,106.08-33.81,126.77,2.01,5.74,4.15,11.39,6.42,16.97,97.97-28.28,11.01-139.06,77.51-205.52Z"/>
        <path class="cls-6" d="M400.02,214.04l.67-1.98-3.17-.27c-36.24-2.67-65.35-11.36-88.99-26.58-20.8-13.4-34.46-30.26-41.74-51.55-2.41-7.05-4.42-13.6-6.36-19.94-8.92-29.1-15.36-50.13-42.98-50.13s-39.89,17.11-39.89,52.3c3.32,87.68,66.04,145.6,186.41,172.31l.76.16,1.12-1.85h0l.77-1.25c1.03-1.69,2.02-3.51,3-5.34.04-.08.09-.16.14-.24,1.2-2.26,2.37-4.57,3.51-6.85.56-1.12,1.12-2.23,1.67-3.33.6-1.17,1.2-2.33,1.77-3.4l.76-1.43.82-1.51h-.01s1.02-1.92,1.02-1.92l-3.45-.6c-50.06-8.81-92.4-26.11-122.45-50.02-33.85-26.94-49.77-64.15-46.04-107.61.68-7.89,5.3-10.7,9.4-10.7,4.58,0,10.03,3.5,11.91,11.31,17.05,70.93,49.83,118.29,160.42,135.2l1.16.2.81-2.16.23-.56,1.14-2.69c1.13-2.66,2.1-4.93,3.03-7.22,1.14-2.77,2.24-5.61,3.55-9.38l.3-.9.72-2.06h-.03Z"/>
      </g>
    </g>
  </g>
</svg>