<?xml version="1.0" encoding="iso-8859-1"?>
<!-- Generator: Adobe Illustrator 27.8.0, SVG Export Plug-In . SVG Version: 6.00 Build 0)  -->
<svg version="1.1" xmlns="http://www.w3.org/2000/svg" x="0px" y="0px"
	 viewBox="0 0 2000 900" xml:space="preserve">
<g id="background">
	<rect fill="#FFFFFF" width="2000" height="900"/>
</g>
<g id="Layer_1">
	<path fill="#006EFF" d="M813.703,441.053c-4.675-5.809-13.657-13.68-30.503-13.68c-25.667,0-43.453,20.604-43.453,47.21
		c0,26.586,16.668,47.175,44.377,47.175c12.554,0,24.347-4.865,30.903-15.728h0.383l2.353,13.477h18.976V381.393H799.85v1.643
		l7.039,4.547c6.405,4.062,7.386,6.033,7.386,11.719v41.751H813.703z M815.026,474.583c0,14.036-9.921,26.958-26.399,26.958
		c-16.482,0-26.407-12.922-26.407-26.958c0-14.056,9.925-26.979,26.407-26.979C805.105,447.603,815.026,460.527,815.026,474.583z
		 M620.951,429.632h34.566v89.875h-22.474v-70.679h-0.014c0-7.461-0.434-8.64-8.492-14.861l-3.586-2.868V429.632z M500.13,386.918
		v1.966l6.802,5.803c8.147,6.654,9.211,7.928,9.211,13.951v110.867h47.765c25.093,0,50.181-8.963,50.181-37.82
		c0-17.024-11.98-30.151-28.648-32.014v-0.373c13.671-4.132,23.034-14.055,23.034-29.03c0-24.158-20.59-33.34-40.629-33.34h-48.447
		v-0.011H500.13z M539.751,407.155h19.471c13.175,0,17.252,1.824,21.229,5.617c3.027,2.854,4.436,6.822,4.436,11.422
		c0,4.294-1.479,8.115-4.593,11.088c-3.903,3.735-9.256,5.575-19.005,5.575h-21.538V407.155z M539.751,461.083h22.666
		c19.099,0,28.072,4.877,28.072,18.737c0,17.408-16.833,19.474-29.002,19.474h-21.735V461.083z M706.037,403.578v26.054h24.015
		v19.095h-24.015v40.732c0,16.23,11.082,16.595,26.739,12.004l0.72,0.464L722.35,519.8c-18.318,4.966-38.893-0.318-38.893-29.718
		v-41.355l-0.023,4.937c0-5.817-0.939-5.52-13.564-15.899l-8.152-7.055v-1.078h21.826l8.218-26.054H706.037z M644.098,412.588
		c-8.239,0-14.219-6.374-14.219-13.478c0-7.126,5.98-13.498,14.219-13.498c8.247,0,14.611,5.812,14.611,13.498
		C658.709,406.773,652.345,412.588,644.098,412.588z M896.919,427.373c-27.181,0-46.959,18.931-46.959,47.21
		c0,28.261,20.817,47.175,50.86,47.175c8.778,0,16.982-1.522,23.986-4.451l12.814-21.365l-1.704-0.883
		c-11.012,5.755-22.61,8.724-33.075,8.724c-15.489,0-28.89-7.881-30.418-21.338h68.547v-6.206
		C940.969,444.994,921.984,427.373,896.919,427.373z M872.422,465.591c1.69-12.941,9.937-21.361,23.235-21.361
		c14.035,0,22.649,8.251,22.853,21.361H872.422z M1488.606,506.688c0.547-0.246,1.024-0.566,1.446-0.962
		c0.421-0.419,0.748-0.911,0.983-1.497c0.234-0.589,0.359-1.275,0.359-2.058c0-1.611-0.465-2.858-1.402-3.705
		c-0.941-0.865-2.419-1.29-4.472-1.29h-6.913v18.036h2.217v-8.014h3.736l5.07,8.014h2.607l-5.37-8.014
		C1487.483,507.098,1488.059,506.911,1488.606,506.688z M1483.761,505.321h-2.937v-6.255h4.078c0.544,0,1.082,0.048,1.589,0.131
		c0.509,0.074,0.959,0.245,1.368,0.479c0.396,0.239,0.72,0.552,0.965,0.941c0.228,0.394,0.348,0.915,0.348,1.554
		c0,0.767-0.153,1.348-0.452,1.787c-0.315,0.433-0.714,0.746-1.215,0.934c-0.505,0.199-1.101,0.313-1.761,0.358
		C1485.099,505.299,1484.431,505.321,1483.761,505.321z M1363.757,427.373c-27.152,0-46.916,18.931-46.916,47.21
		c0,28.261,20.802,47.175,50.839,47.175c8.779,0,17-1.522,23.995-4.451l12.798-21.365l-1.701-0.883
		c-10.989,5.755-22.616,8.724-33.062,8.724c-15.497,0-28.892-7.881-30.407-21.338h68.553
		C1410.81,447.227,1391.891,427.373,1363.757,427.373z M1339.302,465.591c1.694-12.941,9.924-21.361,23.211-21.361
		c14.059,0,22.67,8.251,22.862,21.361H1339.302z M1495.381,495.104c-1.395-1.41-3.045-2.512-4.944-3.308
		c-1.909-0.796-3.961-1.193-6.167-1.193c-2.213,0-4.263,0.397-6.172,1.193c-1.89,0.796-3.549,1.898-4.948,3.308
		c-1.401,1.414-2.498,3.062-3.296,4.965c-0.782,1.911-1.181,3.949-1.181,6.134c0,2.201,0.4,4.254,1.181,6.132
		c0.798,1.899,1.896,3.543,3.296,4.942c1.399,1.399,3.059,2.495,4.948,3.279c1.909,0.8,3.959,1.203,6.172,1.203
		c2.206,0,4.258-0.402,6.167-1.203c1.9-0.784,3.549-1.88,4.944-3.279c1.397-1.4,2.495-3.043,3.284-4.942
		c0.804-1.878,1.204-3.931,1.204-6.132c0-2.185-0.4-4.222-1.204-6.134C1497.876,498.166,1496.778,496.518,1495.381,495.104z
		 M1496.422,511.435c-0.672,1.63-1.584,3.042-2.758,4.235c-1.176,1.215-2.563,2.161-4.166,2.864
		c-1.616,0.694-3.361,1.046-5.228,1.046c-1.903,0-3.658-0.352-5.274-1.046c-1.603-0.703-2.997-1.649-4.166-2.864
		c-1.175-1.193-2.095-2.605-2.749-4.235c-0.659-1.62-0.978-3.365-0.978-5.232c0-1.886,0.319-3.626,0.978-5.25
		c0.655-1.616,1.574-3.03,2.749-4.236c1.17-1.194,2.564-2.15,4.166-2.836c1.616-0.714,3.371-1.064,5.274-1.064
		c1.867,0,3.611,0.35,5.228,1.064c1.603,0.685,2.99,1.642,4.166,2.836c1.174,1.207,2.086,2.62,2.758,4.236
		c0.679,1.624,1.017,3.365,1.017,5.25C1497.438,508.069,1497.1,509.815,1496.422,511.435z M1444.86,429.59v14.275h0.377
		c4.862-10.311,14.767-16.491,26.582-16.491c2.794,0,5.428,0.576,8.059,1.324v21.717c-3.747-0.938-7.308-1.687-10.865-1.687
		c-21.152,0-24.153,17.775-24.153,22.669v48.111h-22.489v-66.406c0-11.325-0.584-13.001-9.72-18.798l-5.649-3.714l-0.048-1H1444.86z
		 M1008.677,379.888l5.209,19l-1.067,0.891c-17.992-7.085-31.932-2.558-31.932,13.155v16.33h20.878v19.174h-20.878v71.07h-22.558
		v-63.308c0-7.549-1.506-9.203-10.47-16.274l-11.434-9.297v-1.364h21.904v-16.397C958.329,388.464,974.233,372.997,1008.677,379.888
		z M1049.773,427.373c-27.166,0-46.945,18.931-46.945,47.21c0,28.261,20.815,47.175,50.86,47.175c8.759,0,16.982-1.522,23.986-4.451
		l12.818-21.365l-1.721-0.883c-11.001,5.755-22.601,8.724-33.069,8.724c-15.493,0-28.868-7.881-30.397-21.338h68.524
		C1096.815,447.227,1077.891,427.373,1049.773,427.373z M1025.306,465.591c1.664-12.941,9.922-21.361,23.231-21.361
		c14.034,0,22.638,8.251,22.828,21.361H1025.306z M1280.681,441.053c-4.683-5.809-13.646-13.68-30.509-13.68
		c-25.651,0-43.45,20.604-43.45,47.21c0,26.586,16.653,47.175,44.365,47.175c12.566,0,24.357-4.865,30.912-15.728h0.372
		l2.371,13.477h18.975V381.393h-37.758v1.643l3.132,2.081c10.824,6.818,12.176,8.83,12.176,20.537v35.399H1280.681z
		 M1281.998,474.583c0,14.036-9.932,26.958-26.412,26.958c-16.468,0-26.387-12.922-26.387-26.958
		c0-14.056,9.92-26.979,26.387-26.979C1272.066,447.603,1281.998,460.527,1281.998,474.583z M1112.256,429.59v0.042h19.177v13.695
		h0.373c7.401-10.999,18.615-15.954,28.607-15.954c21.237,0,33.45,14.554,33.45,35.388v56.745h-22.477v-49.999
		c0-9.903-2.492-21.905-18.242-21.905c-14.8,0-20.586,10.871-20.586,22.836v49.068h-22.481v-66.406
		c0-11.325-0.588-13.001-9.756-18.798l-5.605-3.714v-1H1112.256z"/>
</g>
</svg>
