<svg id="Layer_1" data-name="Layer 1" xmlns="http://www.w3.org/2000/svg" viewBox="0 0 175 40">
  <g>
    <g id="BitSight">
      <g id="T_2_" data-name="T (2)">
        <path d="M154.33,11.49h-8.84V6.75h23.43v4.74H160V37.76h-5.66Z" style="fill: #1a345f"/>
      </g>
      <g id="H">
        <path d="M123.11,6.75V19.17h13.11V6.75h5.67v31h-5.67V24.1H123.11V37.76h-5.66v-31Z" style="fill: #1a345f"/>
      </g>
      <g id="G">
        <path d="M113.76,36.34a30.93,30.93,0,0,1-10,1.75c-5.25,0-9.2-1.34-12.15-4.15a15.39,15.39,0,0,1-4.33-11.41c0-9.8,7-16.11,17.26-16.11a20.41,20.41,0,0,1,8.24,1.48l-1.24,4.55a16.79,16.79,0,0,0-7-1.33c-6.63,0-11.28,3.91-11.28,11.13,0,7,4.33,11.23,10.77,11.23a10.79,10.79,0,0,0,4.28-.64V25.11H102.8V20.64h11Z" style="fill: #1a345f"/>
      </g>
      <g id="I_2_" data-name="I (2)">
        <path d="M83.62,6.75v31H78v-31Z" style="fill: #1a345f"/>
      </g>
      <g id="S">
        <path d="M55.75,31.6a15.65,15.65,0,0,0,7.5,2c3.63,0,5.66-1.71,5.66-4.24,0-2.35-1.56-3.72-5.52-5.15-5.11-1.84-8.38-4.56-8.38-9C55,10.11,59.25,6.24,66,6.24A16.52,16.52,0,0,1,73.42,7.8L72,12.36a13.11,13.11,0,0,0-6.17-1.47c-3.59,0-5.15,1.93-5.15,3.72,0,2.4,1.79,3.5,5.94,5.11,5.38,2,8,4.74,8,9.21,0,5-3.77,9.29-11.78,9.29a18.41,18.41,0,0,1-8.37-1.93Z" style="fill: #1a345f"/>
      </g>
      <g id="T">
        <path d="M39.73,10.15H30.29V6.75h23v3.4H43.78V37.76H39.73Z" style="fill: #0aa3d2"/>
      </g>
      <g id="I">
        <path d="M26.84,6.75v31h-4v-31Z" style="fill: #0aa3d2"/>
      </g>
      <g id="B">
        <path d="M0,7.16a38.71,38.71,0,0,1,7.32-.64c4,0,6.58.68,8.51,2.25a6.52,6.52,0,0,1,2.58,5.48c0,3-2,5.61-5.25,6.81v.09c2.95.74,6.4,3.18,6.4,7.78a8.37,8.37,0,0,1-2.62,6.21c-2.17,2-5.66,2.9-10.73,2.9A45.64,45.64,0,0,1,0,37.67Zm4,12.7H7.64c4.23,0,6.72-2.21,6.72-5.2C14.36,11,11.6,9.6,7.55,9.6A18.08,18.08,0,0,0,4,9.87ZM4,34.73a21.37,21.37,0,0,0,3.36.18c4.14,0,8-1.52,8-6,0-4.23-3.63-6-8-6H4Z" style="fill: #0aa3d2"/>
      </g>
    </g>
    <g>
      <path d="M172.06,2.73a3,3,0,0,1,.64-.06,1.07,1.07,0,0,1,.74.21.65.65,0,0,1,.2.49.66.66,0,0,1-.48.65h0a.66.66,0,0,1,.37.52,4.57,4.57,0,0,0,.2.7h-.34a3.2,3.2,0,0,1-.17-.61c-.08-.35-.22-.48-.52-.5h-.31V5.25h-.33Zm.33,1.16h.34c.35,0,.58-.19.58-.48s-.24-.48-.59-.48a1.21,1.21,0,0,0-.33,0Z" style="fill: #1a345f"/>
      <path d="M172.8,6.18A2.2,2.2,0,1,1,175,4,2.21,2.21,0,0,1,172.8,6.18Zm0-4.09A1.89,1.89,0,1,0,174.68,4,1.89,1.89,0,0,0,172.8,2.09Z" style="fill: #1a345f"/>
    </g>
  </g>
</svg>
