<svg xmlns="http://www.w3.org/2000/svg" xmlns:xlink="http://www.w3.org/1999/xlink" version="1.1" x="0px" y="0px"
     style="enable-background:new 0 0 595.3 595.3;" xml:space="preserve" viewBox="105.32 103.56 383.57 383.31">
<style type="text/css">
	.st0 {
        fill: #65B32E;
    }

    .st1 {
        fill: #9D9D9C;
    }
</style>
    <g id="Ebene_3">
	<g>
		<path
            d="M297.2,252.7c23-0.5,42.8,19.3,42.5,43c-0.3,22.6-19.5,42.4-43.3,42c-22.4-0.4-42.3-19.5-41.7-43.6    C255.2,271.8,274.1,252.3,297.2,252.7z" />
        <path class="st0"
              d="M426.9,397.6c-6.3-6.3-12.3-12.3-18.6-18.6c11.8-16.1,20.5-34,24.8-54c4.3-19.8,4.3-39.5,0.1-59.3    c-4.3-20-12.8-38-24.9-54.3c1.3-2,15.1-16.1,18.5-18.8c0.6,0.6,1.5,1.1,2,1.8c4.5,6.1,8.8,12.3,12.5,18.9    c5.7,10.1,10.4,20.7,13.9,31.8c2.4,7.7,4.4,15.5,5.6,23.5c1,6.7,2,13.4,1.9,20.3c0,1.9,0.6,3.8,0.5,5.7c-0.3,5.5-0.9,11-1.1,16.5    c-0.5,9.8-2.6,19.3-5.2,28.7c-2.4,8.7-5.5,17.2-9.4,25.4c-5,10.7-11.2,20.8-18.4,30.2c-0.3,0.4-0.7,0.8-1,1.2    C427.7,397,427.3,397.3,426.9,397.6z" />
        <path
            d="M399.8,165.2c-6.5,6.5-12.5,12.6-18.9,19c-24.5-18.2-52.4-27.9-83.6-27.9c-31.2,0-59.2,9.5-83.8,27.9    c-6.3-6.3-12.5-12.5-18.6-18.6c5-6,26.5-19.3,45.3-26c31.1-11.2,62.8-13.1,95-5.6C359.1,139.4,380.7,149.8,399.8,165.2z" />
        <path class="st0"
              d="M167.2,192.6c6.5,6.5,12.6,12.6,18.9,18.9c-11.9,16-20.4,34-24.8,53.9c-4.3,19.9-4.3,39.8,0,59.7    c4.3,20,13,37.9,24.8,54c-6.4,6.4-12.4,12.4-18.6,18.6c-0.5-0.5-1.3-1-1.9-1.7c-4.5-6.1-8.8-12.3-12.5-18.9    c-5.8-10.2-10.5-20.9-14-32.1c-2.4-7.5-4.1-15.1-5.5-22.9c-1.7-9.9-2-19.9-1.9-29.9c0-1.1,0-2.1,0-3.2c-0.1-5.1,0.6-10.2,1.2-15.2    c0.8-6.9,2.2-13.6,3.9-20.3c2.1-8.4,5-16.5,8.4-24.4c4.4-10.1,9.7-19.7,16-28.7C163.2,197.7,165.2,195.2,167.2,192.6z" />
        <path
            d="M194.4,425c6.5-6.5,12.6-12.6,18.9-18.9c24.7,18.4,52.7,28.1,83.8,28c31.1,0,59.2-9.5,83.7-27.9    c6.3,6.3,12.5,12.5,18.6,18.7c-6.4,7-28.9,20.5-48.7,27.2c-32.1,10.7-64.6,11.8-97.3,3C231.7,449.1,212.1,439.1,194.4,425z" />
        <path
            d="M481.1,311.7c2.6-0.9,5-0.6,7.7-0.3c0,1.6,0.2,3.1,0,4.5c-1.2,7.6-2.3,15.3-4,22.9c-3.8,17.2-10.2,33.4-18.5,48.8    c-5.4,10-11.6,19.4-18.9,28.1c-5,6-10.1,11.8-15.6,17.3c-6.5,6.6-13.7,12.4-21.2,17.9c-10.5,7.7-21.6,14.1-33.4,19.5    c-13,6-26.5,10.6-40.6,13.2c-6.1,1.1-12.1,2.1-18.2,3.1c-1.5,0.2-3.1,0-4.8,0c-0.6-2.6-0.4-5-0.1-7.7    c44.3-4.6,82.7-21.9,114.2-53.4C459.2,394.2,476.4,355.9,481.1,311.7z" />
        <path
            d="M280.6,479.2c0.8,2.6,0.5,4.9,0.3,7.5c-1.4,0-2.8,0.3-4.1,0.1c-6-0.9-12-1.8-17.9-2.8c-11.6-2.1-22.8-5.5-33.6-10    c-7.6-3.1-15-6.8-22.2-10.6c-8.7-4.6-16.8-10.2-24.5-16.3c-3.7-3-7.4-6.1-11-9.3c-2.2-2-4.5-4-6.6-6.1    c-11.5-11.5-21.5-24.3-29.8-38.3c-10-16.9-17.3-34.9-21.8-54.1c-1.6-6.8-2.3-13.8-3.5-20.7c-0.4-2.3-0.9-4.6-0.3-7.1    c2.4-0.5,4.8-0.6,7.3,0.1c0.3,1.5,0.8,2.9,0.9,4.4c0.7,7.9,2.2,15.6,4,23.2c3.1,12.8,7.5,25.1,13.3,36.9    c5.2,10.5,11.3,20.5,18.4,29.9c6.5,8.6,13.7,16.6,21.6,24c10.3,9.6,21.5,18.1,33.8,25.1c11.4,6.5,23.4,11.9,35.9,15.9    c8.5,2.7,17.2,4.9,26,6.1C271.4,477.7,275.9,478.4,280.6,479.2z" />
        <path
            d="M488.8,279c-2.7,0-5,0-7.6,0c-0.5-3.4-1-6.7-1.5-10.1c-1.7-13.1-4.8-25.9-9.6-38.3c-2.3-5.9-4.8-11.9-7.6-17.6    c-6.2-12.5-13.7-24-22.5-34.8c-5.9-7.2-12.3-13.9-19.2-20.1c-9.1-8.4-19.2-15.6-29.8-21.9c-11.9-7.1-24.4-12.6-37.5-16.8    c-8.5-2.7-17.1-4.9-26-6.1c-4.6-0.6-9.2-1.4-14-2.1c-0.4-2.5-0.7-5,0.3-7.6c1.5,0,2.9-0.1,4.3,0c18.4,2.2,36.2,6.5,53.3,13.7    c15.5,6.5,30,14.8,43.3,25.1c7.3,5.7,14.4,11.7,20.8,18.5c11.1,11.6,20.8,24.3,28.8,38.2c7.3,12.6,13,25.9,17.2,39.8    c2.8,9.1,4.9,18.3,6.1,27.7c0.3,2.4,0.8,4.8,1.1,7.2C488.9,275.4,488.8,277,488.8,279z" />
        <path
            d="M113.2,279c-2.6,0-4.9,0-7.5,0c0-1.5-0.3-3-0.1-4.4c0.8-5.8,1.6-11.6,2.7-17.3c2.4-12.1,5.9-23.9,10.7-35.3    c5.5-13.3,12.5-25.9,20.7-37.7c8.5-12.3,18.6-23,29.6-33.1c9.7-8.9,20.4-16.4,31.8-23c12.8-7.3,26.2-13.2,40.3-17.5    c7.6-2.3,15.4-4.1,23.3-5.3c3.7-0.6,7.3-1.2,11-1.7c1.7-0.2,3.4,0,5.2,0c0.8,2.5,0.3,4.9,0.4,7.4c-1.7,0.3-3.3,0.8-4.8,0.9    c-9,0.8-17.8,2.6-26.6,4.9c-10.6,2.8-20.9,6.6-30.8,11.2c-12.5,5.8-24.1,13.1-35.1,21.5c-8.4,6.4-16.1,13.7-23.2,21.5    c-8.4,9.2-15.8,19.3-22.2,30c-7.3,12.2-13,25.1-17.2,38.7c-3,9.5-5.3,19.2-6.5,29.2C114.2,272.1,113.7,275.3,113.2,279z" />
        <path class="st0"
              d="M403.7,249.2c1,2.3,1.8,3.9,2.4,5.5c2.5,7,4.5,14.2,5.8,21.5c0.4,2.1,0,3.7-2.1,5.1    c-10,6.8-19.9,13.9-29.8,20.9c-0.6,0.4-1.2,0.9-1.8,1.4c-1.3,1.1-2.8,1.5-4.5,1.2c-5.3-0.9-10.6-1.8-15.9-2.8    c-0.5-0.1-0.9-0.5-1.3-0.6c0-4.2,0-8.1,0-12.3c1.5-1.6,3.9-1,5.8-1.5c4.7-1.1,9.5-1.9,14.4-2.6c1.7-0.2,2.7-1.1,3.6-2.3    c3.6-5.1,7.1-10.3,10.7-15.5C395,261.4,399.2,255.6,403.7,249.2z" />
        <path
            d="M314,352.5c1.1,2.9,2.2,5.7,3.2,8.5c1.3,3.5,2.6,7,3.7,10.5c0.5,1.6,1.3,2.5,2.8,3.2c10.7,4.9,21.4,9.9,32.2,14.9    c1.5,0.7,3,1.5,5,2.4c-1.1,0.8-1.7,1.5-2.5,1.9c-7.5,4.5-15.3,8.4-23.6,11.1c-1.7,0.6-2.8,0.3-4-0.9c-9.5-9.5-19-19-28.5-28.5    c-0.9-0.9-1.3-1.8-1.3-3.1c0-5.3,0-10.7,0-16c0-1.4,0.5-2.2,2-2.4C306.5,353.6,310,353.1,314,352.5z" />
        <path
            d="M293.5,235.8c-4.5,0.7-8.6,1.4-13,2.1c-1.1-2.9-2.2-5.8-3.3-8.8c-1.3-3.5-2.6-7-3.8-10.5c-0.4-1.3-1.2-2.2-2.4-2.7    c-7.9-3.6-15.8-7.3-23.7-11c-4.4-2.1-8.8-4.2-13.7-6.5c1.2-0.9,1.9-1.5,2.8-2c7.4-4.4,15.1-8.2,23.4-11c1.7-0.6,2.8-0.4,4,0.8    c9.5,9.5,19,19,28.5,28.5c0.6,0.6,1.3,1.6,1.3,2.4C293.5,223.2,293.5,229.4,293.5,235.8z" />
        <path class="st0"
              d="M186.1,261.8c3.1-10.5,7.3-19.9,12.9-28.5c5,0.3,9.7,0.6,14.5,1c5,0.4,9.9,0.8,14.9,1.3    c4.4,0.4,8.9,0.9,13.3,1.2c1.3,0.1,2.2,0.7,3,1.6c2.6,3.1,5.2,6.2,7.7,9.3c1.1,1.4,2.3,2.7,3.5,4.3c-2.9,3.4-5.5,6.7-8.3,10    c-2.2-1.2-4.3-2.3-6.3-3.4c-3.6-2.1-7.2-4.2-10.7-6.3c-1.7-1-3.3-1.3-5.4-0.7c-11.6,3.3-23.4,6.3-35,9.4    C188.9,261.2,187.7,261.5,186.1,261.8z" />
        <path class="st0"
              d="M181.4,301.9c-0.6-11-0.1-21.2,2.5-31.4c6.4-1.7,12.8-3.4,19.1-5.1c7.3-1.9,14.5-3.8,21.8-5.8    c1.3-0.4,2.5-0.4,3.7,0.3c5,2.9,10.1,5.9,15.2,8.9c-1.5,4.2-3,8.2-4.6,12.4c-6.7-1.2-13.2-2.4-19.7-3.6c-1.6-0.3-2.9-0.1-4.2,0.8    c-7.3,5.1-14.6,10.3-21.9,15.4C189.5,296.3,185.7,298.9,181.4,301.9z" />
        <path class="st0"
              d="M355.2,281c-1.5-4-2.9-7.9-4.5-12.2c2.1-1.3,4.4-2.7,6.6-4c3.6-2.1,7.2-4.1,10.8-6.1c1.4-0.8,2.3-1.9,2.8-3.6    c3.1-12.1,6.4-24.2,9.7-36.3c0.2-0.8,0.6-1.5,0.9-2.3c4.3,2.5,15.7,18,18.2,24.9c-2.9,4.3-5.9,8.7-8.9,13    c-3.8,5.5-7.7,10.9-11.6,16.4c-0.9,1.3-2,2.5-2.8,3.9c-1.2,2.3-3,3.4-5.5,3.7C365.8,279.2,360.6,280.1,355.2,281z" />
        <path class="st0"
              d="M410.3,320c-13.5,3.6-26.9,7.1-40.3,10.7c-1.4,0.4-2.7,0.6-4-0.2c-4.9-2.9-9.9-5.8-14.8-8.7    c-0.2-0.1-0.2-0.3-0.3-0.5c1.5-4,2.9-7.9,4.5-12c4.1,0.7,8.2,1.4,12.2,2.1c2.7,0.5,5.4,1.1,8.1,1.6c1.3,0.3,2.5-0.1,3.6-0.9    c5.1-3.6,10.2-7.2,15.4-10.8c5.7-4,11.5-8,17.2-12c0.2-0.2,0.6-0.2,0.8-0.3C414.2,292.9,412.7,313.9,410.3,320z" />
        <path class="st0"
              d="M237.9,289c0,4.2,0,8.1,0,12.3c-0.4,0.2-1,0.7-1.7,0.8c-5.3,0.9-10.6,2-16,2.6c-3.2,0.4-5.4,1.6-7.2,4.4    c-6.5,9.7-13.3,19.2-20,28.8c-0.6,0.9-1.4,1.8-2.5,3c-0.9-2.1-1.7-3.8-2.3-5.5c-2.6-6.9-4.4-13.9-5.7-21.1c-0.4-2.1-0.1-3.7,2-5.2    c8.4-5.7,16.7-11.7,25.1-17.5c2.4-1.7,5-3.3,7.3-5.1c1-0.8,2.1-1.1,3.3-0.9c5.6,1,11.2,2.1,16.8,3.1    C237.3,288.7,237.6,288.9,237.9,289z" />
        <path class="st0"
              d="M239.2,309.3c1.5,3.9,2.9,7.9,4.5,12.2c-2.4,1.4-4.9,3-7.4,4.4c-3.3,1.9-6.6,3.8-10,5.7    c-1.6,0.9-2.4,2-2.9,3.9c-3.1,12-6.3,24-9.6,35.9c-0.2,0.8-0.6,1.6-0.9,2.3c-4.1-2.1-15.5-17.6-18.3-24.8c2.9-4.3,5.9-8.6,8.9-13    c3.8-5.5,7.7-10.9,11.6-16.4c1-1.4,2.2-2.7,2.9-4.2c1.2-2.4,3.3-3.2,5.6-3.6C228.8,311,233.9,310.2,239.2,309.3z" />
        <path
            d="M310.8,180c10,0.9,18.7,3.4,27.3,6.5c2.5,0.9,3.4,2.2,3.4,4.9c0,3.7,0.7,7.4,1,11.1c0.3,2.6,0.5,5.3,0.7,7.9    c0.3,3.7,0.5,7.4,0.8,11.1c0.2,3,0.5,5.9,0.7,8.9c0,0.9,0,2-0.5,2.7c-3.7,4.5-7.5,9-11.3,13.4c-0.1,0.2-0.4,0.2-0.7,0.4    c-3.5-2-7.1-4-10.6-6.1c-0.1-2.2,1-4,1.6-5.8c1.6-4.5,3.2-9,4.9-13.5c0.7-1.8,0.5-3.3-0.3-4.9c-5.1-10.7-10.1-21.4-15.1-32.1    C312,183.2,311.6,181.8,310.8,180z" />
        <path
            d="M283,410.3c-9.3-0.8-17.9-3.3-26.3-6.2c-0.7-0.2-1.3-0.6-2-0.9c-1.3-0.5-1.7-1.4-1.8-2.7c-0.4-5.7-0.8-11.4-1.3-17.2    c-0.5-5.9-1.2-11.8-1.8-17.8c-0.2-2.4-0.2-4.9-0.4-7.6c4-4.8,8.2-9.7,12.4-14.8c3.8,2.2,7.4,4.2,11.2,6.4    c-0.6,1.8-1.1,3.6-1.7,5.4c-1.6,4.5-3.2,9-4.9,13.5c-0.7,1.8-0.6,3.4,0.2,5.2c5.1,10.7,10.1,21.4,15.1,32.1    C282.4,407.2,283.2,408.4,283,410.3z" />
        <path class="st0"
              d="M338.6,338.2c2.7-3.3,5.4-6.5,8.2-9.9c2.5,1.4,4.8,2.7,7.1,4c3.6,2.1,7.2,4.1,10.8,6.2    c1.3,0.7,2.5,0.8,3.9,0.4c11.9-3.3,23.8-6.4,35.7-9.6c1.1-0.3,2.2-0.5,3.4-0.8c0,4.8-8.3,23.5-12.6,28.4c-4.5-0.3-9-0.6-13.6-0.9    c-5-0.4-9.9-0.8-14.9-1.3c-4.6-0.4-9.3-0.9-13.9-1.2c-1.5-0.1-2.4-0.9-3.2-1.9c-3.3-3.9-6.6-7.8-9.8-11.7    C339.3,339.5,339.1,338.9,338.6,338.2z" />
        <path
            d="M321.4,349.6c3.7-2.1,7.3-4.2,11.1-6.4c4.8,5.6,9.5,11.3,14.7,17.3c13.9,1.2,28.1,2.5,42.4,3.8    c-1.4,4.3-14.1,17.6-21.5,22.6c-3.5-1.6-7.2-3.3-10.8-5c-8.8-4.1-17.5-8.2-26.4-12.2c-2.1-0.9-3.5-2.1-4.2-4.4    c-1.4-4.6-3.2-9-4.8-13.5C321.7,351.1,321.6,350.4,321.4,349.6z" />
        <path
            d="M270.5,182.3c10.6-2.8,20.8-3.6,31.2-3.1c1.2,2.4,2.3,4.6,3.4,7c4.1,8.7,8.1,17.4,12.1,26.1c0.6,1.4,1.1,2.8,1.8,4.1    c1.4,2.3,1.3,4.5,0.3,7c-1.5,3.6-2.8,7.4-4.1,11.1c-0.4,1.2-1,2.3-1.5,3.6c-4.3-0.7-8.4-1.4-12.9-2.2c0-1.3,0-2.3,0-3.4    c0-5.3-0.1-10.7,0-16c0.1-2.4-0.6-4.2-2.4-5.9c-8.7-8.5-17.3-17.2-25.9-25.8C272.2,184.1,271.6,183.5,270.5,182.3z" />
        <path
            d="M273,240.7c-3.6,2.1-7.1,4.1-10.9,6.3c-0.8-0.8-1.7-1.6-2.5-2.5c-3.7-4.4-7.4-8.8-11-13.2c-0.7-0.8-1.3-1.3-2.3-1.4    c-3.4-0.3-6.7-0.8-10.1-1.1c-7.1-0.7-14.2-1.3-21.3-1.9c-3.4-0.3-6.7-0.5-10.7-0.8c6.4-8.9,13.9-15.8,21.9-22.6    c3.1,1.4,6.1,2.7,9.1,4.1c9.6,4.4,19.1,8.9,28.7,13.4c1.8,0.8,3.1,1.9,3.8,4c1.5,4.7,3.3,9.2,4.9,13.8    C272.7,239.2,272.8,239.9,273,240.7z" />
        <path
            d="M323.6,407.7c-0.7,0.4-1.1,0.8-1.6,0.9c-4.5,0.7-9,1.5-13.5,2c-4.5,0.4-9.1,0.4-13.7,0.7c-1.6,0.1-2.5-0.5-3.2-2    c-3.9-8.4-7.8-16.8-11.8-25.2c-1.7-3.7-3.4-7.3-5.1-11c-0.6-1.3-1.1-2.5-0.5-4c1.9-5.1,3.7-10.2,5.6-15.3c0.2-0.5,0.5-0.9,0.8-1.4    c4.2,0.7,8.2,1.3,12.6,2c0.1,0.8,0.2,1.8,0.2,2.7c0,5.7,0.1,11.3,0,17c-0.1,2.3,0.6,4,2.3,5.6c8.5,8.4,16.9,16.9,25.4,25.3    C321.9,405.9,322.7,406.7,323.6,407.7z" />
        <path
            d="M375.3,209.3c-1.4,5.3-2.7,10.3-4.1,15.4c-2.2,8.2-4.5,16.4-6.6,24.6c-0.5,2-1.3,3.5-3.1,4.5c-4.8,2.7-9.6,5.5-14.6,8.4    c-2.8-3.3-5.5-6.6-8.4-10c1.6-2,3.1-4,4.8-5.9c2.7-3.3,5.5-6.5,8.3-9.7c1.6-1.8,1.3-4,1.2-6.1c-0.3-4.1-0.8-8.2-1.2-12.4    c-0.4-3.6-0.8-7.2-1.1-10.8c-0.4-4.9-0.7-9.7-1-14.6c0-0.2,0.2-0.3,0.6-0.8C359.3,196.3,367.4,202.3,375.3,209.3z" />
        <path
            d="M244.4,398.5c-9.3-4.6-17.4-10.5-25.2-17.3c0.6-2.2,1.1-4.4,1.7-6.5c3-11.2,6-22.3,8.9-33.5c0.6-2.2,1.6-3.7,3.6-4.8    c4.7-2.5,9.2-5.2,14.1-8c2.8,3.3,5.5,6.5,8.4,10c-1.6,2-3.1,4-4.8,5.9c-2.7,3.2-5.3,6.4-8.1,9.5c-1.5,1.7-1.7,3.6-1.5,5.6    c0.4,3.6,0.8,7.2,1.2,10.8c0.6,6.9,1.3,13.7,1.9,20.6c0.2,2.2,0.3,4.4,0.4,6.7C245,397.6,244.7,397.8,244.4,398.5z" />
	</g>
</g>
    <g id="Ebene_4">
	<g>
		<g>
			<g>
				<path class="st1"
                      d="M297.2,306.1c0.3,0,0.6,0.3,0.6,0.6l-0.1,25.8c0,0.3-0.3,0.6-0.6,0.6c-0.3,0-0.6-0.3-0.6-0.6l0.1-25.8      C296.5,306.3,296.8,306.1,297.2,306.1z" />
			</g>
		</g>
        <g>
			<g>
				<path class="st1"
                      d="M295.4,305.9c0.3,0.1,0.6,0.4,0.5,0.7l-4.1,25.5c-0.1,0.3-0.4,0.6-0.7,0.5c-0.3-0.1-0.6-0.4-0.5-0.7      l4.1-25.5C294.8,306.1,295.1,305.9,295.4,305.9z" />
			</g>
		</g>
        <g>
			<g>
				<path class="st1"
                      d="M293.8,305.5c0.3,0.1,0.5,0.5,0.4,0.8l-8.1,24.5c-0.1,0.3-0.5,0.5-0.8,0.4c-0.3-0.1-0.5-0.5-0.4-0.8      l8.1-24.5C293.1,305.6,293.4,305.4,293.8,305.5z" />
			</g>
		</g>
        <g>
			<g>
				<path class="st1"
                      d="M292.2,304.8c0.3,0.2,0.4,0.5,0.3,0.8l-11.8,22.9c-0.2,0.3-0.5,0.4-0.8,0.3s-0.4-0.5-0.3-0.8l11.8-22.9      C291.5,304.8,291.9,304.7,292.2,304.8z" />
			</g>
		</g>
        <g>
			<g>
				<path class="st1"
                      d="M290.7,303.9c0.3,0.2,0.3,0.6,0.1,0.9l-15.2,20.8c-0.2,0.3-0.6,0.3-0.9,0.1s-0.3-0.6-0.1-0.9l15.2-20.8      C290.1,303.8,290.4,303.7,290.7,303.9z" />
			</g>
		</g>
        <g>
			<g>
				<path class="st1"
                      d="M289.4,302.8c0.2,0.2,0.2,0.6,0,0.9l-18.3,18.2c-0.2,0.2-0.6,0.2-0.9,0c-0.2-0.2-0.2-0.6,0-0.9l18.3-18.2      C288.8,302.6,289.2,302.6,289.4,302.8z" />
			</g>
		</g>
        <g>
			<g>
				<path class="st1"
                      d="M288.3,301.5c0.2,0.3,0.1,0.7-0.1,0.9l-20.9,15.1c-0.3,0.2-0.7,0.1-0.9-0.1c-0.2-0.3-0.1-0.7,0.1-0.9      l20.9-15.1C287.7,301.2,288.1,301.2,288.3,301.5z" />
			</g>
		</g>
        <g>
			<g>
				<path class="st1"
                      d="M287.4,300c0.2,0.3,0,0.7-0.3,0.8l-23,11.6c-0.3,0.2-0.7,0-0.8-0.3s0-0.7,0.3-0.8l23-11.6      C286.9,299.6,287.3,299.7,287.4,300z" />
			</g>
		</g>
        <g>
			<g>
				<path class="st1"
                      d="M286.8,298.4c0.1,0.3-0.1,0.7-0.4,0.8l-24.6,7.9c-0.3,0.1-0.7-0.1-0.8-0.4c-0.1-0.3,0.1-0.7,0.4-0.8      L286,298C286.3,297.9,286.7,298.1,286.8,298.4z" />
			</g>
		</g>
        <g>
			<g>
				<path class="st1"
                      d="M286.4,296.8c0.1,0.3-0.2,0.7-0.5,0.7l-25.5,3.9c-0.3,0.1-0.7-0.2-0.7-0.5c-0.1-0.3,0.2-0.7,0.5-0.7      l25.5-3.9C286,296.2,286.3,296.4,286.4,296.8z" />
			</g>
		</g>
        <g>
			<g>
				<path class="st1"
                      d="M286.2,295.1c0,0.3-0.3,0.6-0.6,0.6l-25.8-0.1c-0.3,0-0.6-0.3-0.6-0.6s0.3-0.6,0.6-0.6l25.8,0.1      C286,294.4,286.2,294.7,286.2,295.1z" />
			</g>
		</g>
        <g>
			<g>
				<path class="st1"
                      d="M286.4,293.3c-0.1,0.3-0.4,0.6-0.7,0.5l-25.5-4.1c-0.3-0.1-0.6-0.4-0.5-0.7c0.1-0.3,0.4-0.6,0.7-0.5      l25.5,4.1C286.2,292.7,286.4,293,286.4,293.3z" />
			</g>
		</g>
        <g>
			<g>
				<path class="st1"
                      d="M286.8,291.7c-0.1,0.3-0.5,0.5-0.8,0.4l-24.5-8.1c-0.3-0.1-0.5-0.5-0.4-0.8c0.1-0.3,0.5-0.5,0.8-0.4      l24.5,8.1C286.7,291,286.9,291.3,286.8,291.7z" />
			</g>
		</g>
        <g>
			<g>
				<path class="st1"
                      d="M287.4,290.1c-0.2,0.3-0.5,0.4-0.8,0.3l-22.9-11.8c-0.3-0.2-0.4-0.5-0.3-0.8s0.5-0.4,0.8-0.3l22.9,11.8      C287.5,289.4,287.6,289.8,287.4,290.1z" />
			</g>
		</g>
        <g>
			<g>
				<path class="st1"
                      d="M288.4,288.6c-0.2,0.3-0.6,0.3-0.9,0.1l-20.8-15.2c-0.3-0.2-0.3-0.6-0.1-0.9s0.6-0.3,0.9-0.1l20.8,15.2      C288.5,288,288.6,288.3,288.4,288.6z" />
			</g>
		</g>
        <g>
			<g>
				<path class="st1"
                      d="M289.5,287.3c-0.2,0.2-0.6,0.2-0.9,0L270.4,269c-0.2-0.2-0.2-0.6,0-0.9c0.2-0.2,0.6-0.2,0.9,0l18.2,18.3      C289.7,286.7,289.7,287.1,289.5,287.3z" />
			</g>
		</g>
        <g>
			<g>
				<path class="st1"
                      d="M290.8,286.2c-0.3,0.2-0.7,0.1-0.9-0.1l-15.1-20.9c-0.2-0.3-0.1-0.7,0.1-0.9c0.3-0.2,0.7-0.1,0.9,0.1      l15.1,20.9C291.1,285.6,291.1,286,290.8,286.2z" />
			</g>
		</g>
        <g>
			<g>
				<path class="st1"
                      d="M292.3,285.3c-0.3,0.2-0.7,0-0.8-0.3l-11.6-23c-0.2-0.3,0-0.7,0.3-0.8s0.7,0,0.8,0.3l11.6,23      C292.7,284.8,292.6,285.2,292.3,285.3z" />
			</g>
		</g>
        <g>
			<g>
				<path class="st1"
                      d="M293.8,284.7c-0.3,0.1-0.7-0.1-0.8-0.4l-7.9-24.6c-0.1-0.3,0.1-0.7,0.4-0.8c0.3-0.1,0.7,0.1,0.8,0.4      l7.9,24.6C294.4,284.2,294.2,284.6,293.8,284.7z" />
			</g>
		</g>
        <g>
			<g>
				<path class="st1"
                      d="M295.5,284.3c-0.3,0.1-0.7-0.2-0.7-0.5l-3.9-25.5c-0.1-0.3,0.2-0.7,0.5-0.7c0.3-0.1,0.7,0.2,0.7,0.5      l3.9,25.5C296.1,283.9,295.9,284.2,295.5,284.3z" />
			</g>
		</g>
        <g>
			<g>
				<path class="st1"
                      d="M297.2,284.1c-0.3,0-0.6-0.3-0.6-0.6l0.1-25.8c0-0.3,0.3-0.6,0.6-0.6s0.6,0.3,0.6,0.6l-0.1,25.8      C297.9,283.9,297.6,284.1,297.2,284.1z" />
			</g>
		</g>
        <g>
			<g>
				<path class="st1"
                      d="M298.9,284.3c-0.3-0.1-0.6-0.4-0.5-0.7l4.1-25.5c0.1-0.3,0.4-0.6,0.7-0.5c0.3,0.1,0.6,0.4,0.5,0.7      l-4.1,25.5C299.6,284.1,299.3,284.3,298.9,284.3z" />
			</g>
		</g>
        <g>
			<g>
				<path class="st1"
                      d="M300.6,284.7c-0.3-0.1-0.5-0.5-0.4-0.8l8.1-24.5c0.1-0.3,0.5-0.5,0.8-0.4c0.3,0.1,0.5,0.5,0.4,0.8      l-8.1,24.5C301.3,284.6,300.9,284.8,300.6,284.7z" />
			</g>
		</g>
        <g>
			<g>
				<path class="st1"
                      d="M302.2,285.3c-0.3-0.2-0.4-0.5-0.3-0.8l11.8-22.9c0.2-0.3,0.5-0.4,0.8-0.3s0.4,0.5,0.3,0.8L303,285.1      C302.9,285.4,302.5,285.5,302.2,285.3z" />
			</g>
		</g>
        <g>
			<g>
				<path class="st1"
                      d="M303.7,286.3c-0.3-0.2-0.3-0.6-0.1-0.9l15.2-20.8c0.2-0.3,0.6-0.3,0.9-0.1s0.3,0.6,0.1,0.9l-15.2,20.8      C304.3,286.4,303.9,286.5,303.7,286.3z" />
			</g>
		</g>
        <g>
			<g>
				<path class="st1"
                      d="M305,287.4c-0.2-0.2-0.2-0.6,0-0.9l18.3-18.2c0.2-0.2,0.6-0.2,0.9,0c0.2,0.2,0.2,0.6,0,0.9l-18.3,18.2      C305.6,287.6,305.2,287.6,305,287.4z" />
			</g>
		</g>
        <g>
			<g>
				<path class="st1"
                      d="M306.1,288.7c-0.2-0.3-0.1-0.7,0.1-0.9l20.9-15.1c0.3-0.2,0.7-0.1,0.9,0.1c0.2,0.3,0.1,0.7-0.1,0.9      L307,288.8C306.7,289,306.3,289,306.1,288.7z" />
			</g>
		</g>
        <g>
			<g>
				<path class="st1"
                      d="M307,290.2c-0.2-0.3,0-0.7,0.3-0.8l23-11.6c0.3-0.2,0.7,0,0.8,0.3s0,0.7-0.3,0.8l-23,11.6      C307.5,290.6,307.1,290.5,307,290.2z" />
			</g>
		</g>
        <g>
			<g>
				<path class="st1"
                      d="M307.6,291.7c-0.1-0.3,0.1-0.7,0.4-0.8l24.6-7.9c0.3-0.1,0.7,0.1,0.8,0.4c0.1,0.3-0.1,0.7-0.4,0.8      l-24.6,7.9C308.1,292.3,307.7,292.1,307.6,291.7z" />
			</g>
		</g>
        <g>
			<g>
				<path class="st1"
                      d="M308,293.4c-0.1-0.3,0.2-0.7,0.5-0.7l25.5-3.9c0.3-0.1,0.7,0.2,0.7,0.5c0.1,0.3-0.2,0.7-0.5,0.7l-25.5,3.9      C308.4,294,308.1,293.8,308,293.4z" />
			</g>
		</g>
        <g>
			<g>
				<path class="st1"
                      d="M308.2,295.1c0-0.3,0.3-0.6,0.6-0.6l25.8,0.1c0.3,0,0.6,0.3,0.6,0.6c0,0.3-0.3,0.6-0.6,0.6l-25.8-0.1      C308.4,295.8,308.2,295.5,308.2,295.1z" />
			</g>
		</g>
        <g>
			<g>
				<path class="st1"
                      d="M308,296.8c0.1-0.3,0.4-0.6,0.7-0.5l25.5,4.1c0.3,0.1,0.6,0.4,0.5,0.7c-0.1,0.3-0.4,0.6-0.7,0.5l-25.5-4.1      C308.2,297.5,308,297.2,308,296.8z" />
			</g>
		</g>
        <g>
			<g>
				<path class="st1"
                      d="M307.6,298.5c0.1-0.3,0.5-0.5,0.8-0.4l24.5,8.1c0.3,0.1,0.5,0.5,0.4,0.8c-0.1,0.3-0.5,0.5-0.8,0.4      l-24.5-8.1C307.7,299.2,307.5,298.8,307.6,298.5z" />
			</g>
		</g>
        <g>
			<g>
				<path class="st1"
                      d="M306.9,300.1c0.2-0.3,0.5-0.4,0.8-0.3l22.9,11.8c0.3,0.2,0.4,0.5,0.3,0.8s-0.5,0.4-0.8,0.3l-22.9-11.8      C306.9,300.8,306.8,300.4,306.9,300.1z" />
			</g>
		</g>
        <g>
			<g>
				<path class="st1"
                      d="M306,301.6c0.2-0.3,0.6-0.3,0.9-0.1l20.8,15.2c0.3,0.2,0.3,0.6,0.1,0.9s-0.6,0.3-0.9,0.1l-20.8-15.2      C305.9,302.2,305.8,301.8,306,301.6z" />
			</g>
		</g>
        <g>
			<g>
				<path class="st1"
                      d="M304.9,302.9c0.2-0.2,0.6-0.2,0.9,0l18.2,18.3c0.2,0.2,0.2,0.6,0,0.9c-0.2,0.2-0.6,0.2-0.9,0l-18.2-18.3      C304.7,303.5,304.7,303.1,304.9,302.9z" />
			</g>
		</g>
        <g>
			<g>
				<path class="st1"
                      d="M303.6,304c0.3-0.2,0.7-0.1,0.9,0.1l15.1,20.9c0.2,0.3,0.1,0.7-0.1,0.9c-0.3,0.2-0.7,0.1-0.9-0.1      l-15.1-20.9C303.3,304.6,303.3,304.2,303.6,304z" />
			</g>
		</g>
        <g>
			<g>
				<path class="st1"
                      d="M302.1,304.9c0.3-0.2,0.7,0,0.8,0.3l11.6,23c0.2,0.3,0,0.7-0.3,0.8s-0.7,0-0.8-0.3l-11.6-23      C301.7,305.4,301.8,305,302.1,304.9z" />
			</g>
		</g>
        <g>
			<g>
				<path class="st1"
                      d="M300.5,305.5c0.3-0.1,0.7,0.1,0.8,0.4l7.9,24.6c0.1,0.3-0.1,0.7-0.4,0.8c-0.3,0.1-0.7-0.1-0.8-0.4      l-7.9-24.6C300,306,300.2,305.6,300.5,305.5z" />
			</g>
		</g>
        <g>
			<g>
				<path class="st1"
                      d="M298.9,305.9c0.3-0.1,0.7,0.2,0.7,0.5l3.9,25.5c0.1,0.3-0.2,0.7-0.5,0.7c-0.3,0.1-0.7-0.2-0.7-0.5      l-3.9-25.5C298.3,306.3,298.5,306,298.9,305.9z" />
			</g>
		</g>
	</g>
</g>
</svg>
