<svg width="396" height="120" viewBox="0 0 99 30" fill="none" xmlns="http://www.w3.org/2000/svg">
<path fill-rule="evenodd" clip-rule="evenodd" d="M17.5195 29.8452C27.1952 29.8452 35.0389 23.1641 35.0389 14.9226C35.0389 6.68107 27.1952 0 17.5195 0C7.84373 0 0 6.68107 0 14.9226C0 23.1641 7.84373 29.8452 17.5195 29.8452ZM1.6238 14.8876C1.6238 10.354 5.49537 6.78674 10.0139 7.15703L13.5033 7.44299C14.0902 7.49107 14.6799 7.49189 15.267 7.44543L19.2159 7.13284C23.7334 6.77525 27.5967 10.3448 27.5967 14.8765C27.5967 19.1664 24.1188 22.6443 19.8289 22.6443H9.38037C5.09653 22.6443 1.6238 19.1715 1.6238 14.8876ZM7.32057 11.7933C6.82222 11.534 6.20652 11.7253 5.94546 12.2218C5.68424 12.7186 5.87752 13.3316 6.37617 13.5912L8.4864 14.6896L6.31599 15.8018C5.81567 16.0582 5.61854 16.67 5.8766 17.1684C6.1345 17.6665 6.74894 17.8619 7.24895 17.6057L11.1657 15.5986C11.5038 15.4252 11.7171 15.0788 11.7183 14.6999C11.7195 14.3208 11.5084 13.9731 11.1715 13.7977L7.32057 11.7933ZM16.781 13.4633C16.0845 13.452 15.539 14.0237 15.5279 14.7039C15.5167 15.384 16.0431 15.9733 16.7396 15.9847L21.1843 16.0572C21.8808 16.0684 22.4263 15.4967 22.4375 14.8166C22.4486 14.1364 21.9222 13.5472 21.2257 13.5358L16.781 13.4633Z" fill="#0C1930"/>
<path d="M54.827 13.1037C52.9034 11.9544 50.3386 11.8065 47.8231 13.4933V7.4759V7.34766H47.6949H44.4741H44.3458V7.4759V19.0373C44.3458 21.607 45.4655 23.8759 47.976 24.9856C49.2288 25.5381 50.7578 25.76 52.2277 25.5775C53.6975 25.395 55.118 24.7982 56.1292 23.7032C57.3524 22.3814 57.959 20.7636 57.959 18.8646C58.0873 16.507 56.795 14.2825 54.827 13.1037ZM53.5249 21.3505C52.9034 21.9819 52.1093 22.2975 51.1426 22.2975C50.1758 22.2975 49.3867 21.9819 48.7603 21.3505C48.1388 20.7044 47.8231 19.8758 47.8231 18.8597C47.8231 17.8436 48.1388 17.0249 48.7603 16.3935C49.3817 15.7474 50.1758 15.4219 51.1426 15.4219C52.1093 15.4219 52.8985 15.7474 53.5249 16.3935C54.1612 17.0249 54.4867 17.8436 54.4867 18.8597C54.4867 19.8758 54.1661 20.7044 53.5249 21.3505Z" fill="#0C1930"/>
<path d="M59.9813 25.1879V25.3162H60.1096H63.3304H63.4586V25.1879V6.71638V6.58813H63.3304H60.1096H59.9813V6.71638V25.1879Z" fill="#0C1930"/>
<path d="M66.388 10.5245C66.8122 10.9388 67.3103 11.146 67.8775 11.146C68.4596 11.146 68.9577 10.9388 69.3671 10.5245C69.7913 10.0954 70.0034 9.59232 70.0034 9.02017C70.0034 8.44309 69.7913 7.93999 69.3671 7.51581C68.9627 7.08177 68.4645 6.86475 67.8775 6.86475C67.3103 6.86475 66.8122 7.08177 66.388 7.51088C65.9835 7.93999 65.7764 8.44309 65.7764 9.01524C65.7764 9.59232 65.9835 10.0954 66.388 10.5245Z" fill="#0C1930"/>
<path d="M66.1515 25.1881V25.3163H66.2797H69.5005H69.6288V25.1881V12.5367V12.4084H69.5005H66.2797H66.1515V12.5367V25.1881Z" fill="#0C1930"/>
<path d="M84.1147 25.316H84.243V25.1878V17.4193C84.243 15.7572 83.7843 14.4402 82.857 13.4834C81.9494 12.5265 80.7903 12.053 79.3945 12.053C77.8211 12.053 76.6176 12.5511 75.7988 13.5623V12.5363V12.4081H75.6706H72.4498H72.3215V12.5363V25.1878V25.316H72.4498H75.6706H75.7988V25.1878V18.3565C75.7988 17.3306 76.0454 16.5809 76.514 16.0926C76.9875 15.5993 77.6139 15.3478 78.4179 15.3478C79.138 15.3478 79.7052 15.5648 80.1245 15.9939C80.5437 16.4033 80.7607 17.005 80.7607 17.8238V25.1878V25.316H80.889H84.1147V25.316Z" fill="#0C1930"/>
<path d="M98.3794 25.3159H98.6458L98.4781 25.1038L93.3731 18.7855L98.3301 12.6151L98.4978 12.408H98.2315H94.3842H94.3201L94.2807 12.4573L90.2164 17.725V7.47565V7.34741H90.0882H86.8674H86.7391V7.47565V25.1876V25.3159H86.8674H90.0882H90.2164V25.1876V19.8114L94.5322 25.2666L94.5717 25.3159H94.6309H98.3794Z" fill="#0C1930"/>
</svg>

