<svg width="617" height="526" viewBox="0 0 617 526" fill="none" xmlns="http://www.w3.org/2000/svg">
<path fill-rule="evenodd" clip-rule="evenodd" d="M308.5 525.544C478.88 525.544 617 407.897 617 262.772C617 117.647 478.88 0 308.5 0C138.12 0 0 117.647 0 262.772C0 407.897 138.12 525.544 308.5 525.544ZM28.5889 262.173C28.5889 182.341 96.7634 119.525 176.33 126.045L237.776 131.081C248.109 131.927 258.494 131.942 268.831 131.124L338.369 125.619C417.916 119.323 485.945 182.178 485.945 261.977C485.945 337.519 424.704 398.76 349.162 398.76H165.174C89.7402 398.76 28.5889 337.608 28.5889 262.173ZM128.908 207.65C120.133 203.084 109.291 206.453 104.694 215.197C100.094 223.944 103.497 234.739 112.278 239.31L149.437 258.652L111.218 278.237C102.408 282.751 98.9371 293.524 103.481 302.301C108.023 311.072 118.842 314.513 127.647 310.001L196.617 274.657C202.571 271.605 206.326 265.505 206.347 258.833C206.369 252.158 202.651 246.035 196.718 242.946L128.908 207.65ZM295.497 237.081C283.232 236.882 273.627 246.949 273.43 258.926C273.233 270.902 282.503 281.279 294.767 281.479L373.034 282.756C385.299 282.955 394.905 272.888 395.101 260.911C395.298 248.933 386.029 238.558 373.764 238.358L295.497 237.081Z" fill="#0C1930"/>
</svg>
