<svg width="2000" height="2000" viewBox="0 0 2000 2000" fill="none" xmlns="http://www.w3.org/2000/svg">
<path d="M1000 2000C1552.28 2000 2000 1552.28 2000 1000C2000 447.715 1552.28 0 1000 0C447.715 0 0 447.715 0 1000C0 1552.28 447.715 2000 1000 2000Z" fill="white"/>
<path d="M393.507 204.844C359.449 274.165 332.167 346.898 311.904 422.543C299.916 467.258 290.437 512.985 283.735 558.455C282.697 565.453 281.726 572.479 280.822 579.504C278.503 597.438 276.574 615.427 275.104 633.187C268.389 714.067 270.088 796.229 280.161 877.393C299.768 1035.35 350.417 1185.97 430.704 1325.04C510.991 1464.09 616.104 1583.26 743.115 1679.24C808.556 1728.69 879.107 1771.35 952.813 1806.06V1806.08L998.594 1827.64C992.027 1830.36 985.473 1833.05 978.92 1835.63C936.309 1852.53 891.972 1867.19 847.108 1879.22C767.057 1900.67 685.338 1913.75 603.38 1918.26C248.395 1764.72 0 1411.37 0 999.998C0 675.759 154.315 387.563 393.507 204.844Z" fill="#FF801E"/>
<path d="M1000 0C1508.76 0 1928.78 379.929 1991.82 871.543C1948.1 805.634 1897.71 744.074 1841 687.361C1808.23 654.58 1773.36 623.512 1737.36 594.992C1731.84 590.623 1726.26 586.295 1720.63 581.993C1706.33 571.057 1691.7 560.404 1676.93 550.169C1610.22 503.903 1538.22 464.299 1462.93 432.448C1316.3 370.446 1160.54 339 999.977 339C839.416 339 683.655 370.446 537.037 432.448C461.429 464.434 389.192 504.201 322.349 550.642L280.789 579.512C281.706 572.486 282.664 565.46 283.702 558.462C290.404 512.992 299.883 467.266 311.871 422.551C332.132 346.915 359.41 274.192 393.462 204.88C561.7 76.348 771.934 0 1000 0Z" fill="#00B0F0"/>
<path d="M1720.67 581.992C1726.29 586.28 1731.87 590.622 1737.39 594.991C1773.38 623.511 1808.25 654.58 1841.03 687.361C1897.72 744.048 1948.1 805.581 1991.81 871.464C1997.21 913.547 2000 956.448 2000 1000C2000 1552.28 1552.28 2000 999.998 2000C859.074 2000 724.958 1970.85 603.352 1918.25C685.323 1913.74 767.056 1900.67 847.121 1879.21C891.984 1867.18 936.336 1852.53 978.934 1835.63C985.487 1833.04 992.054 1830.37 998.607 1827.63C1014.92 1820.82 1031.2 1813.61 1047.22 1806.07C1120.91 1771.36 1191.46 1728.7 1256.91 1679.25C1383.93 1583.28 1489.03 1464.1 1569.32 1325.05C1649.6 1185.98 1700.25 1035.37 1719.86 877.399C1729.92 796.249 1731.63 714.087 1724.92 633.193L1720.67 581.992Z" fill="#0E0F3B"/>
<path d="M1014.89 1443.07C750.203 1443.07 552.602 1258.46 552.602 1000.5C552.602 742.532 750.203 557.922 1016.11 557.922C1163.7 557.922 1286.9 611.715 1367.4 709.522L1240.55 826.89C1183.22 760.871 1111.25 726.638 1025.87 726.638C866.08 726.638 752.642 839.116 752.642 1000.5C752.642 1161.88 866.08 1274.36 1025.87 1274.36C1111.25 1274.36 1183.22 1240.12 1240.55 1172.88L1367.4 1290.25C1286.9 1389.28 1163.7 1443.07 1014.89 1443.07Z" fill="#0E0F3B"/>
</svg>
