<svg id="f7e8d9c0-b1a2-4c3d-8e5f-6a7b8c9d0e1f" xmlns="http://www.w3.org/2000/svg" viewBox="0 0 210 178">
  <g>
    <path fill="#ffad5b" d="M202.58,58.73c-7.98-12.52-20.37-21.17-34.86-24.38-3.34-.74-6.69-1.15-10.03-1.27C140.76,12.02,115.77,0,88.62,0,39.75,0,0,39.75,0,88.62s39.75,88.63,88.62,88.63c27.14,0,52.15-12.02,69.07-33.09,9.82-.33,19.42-3.25,27.92-8.68,12.52-7.98,21.17-20.37,24.38-34.86,3.2-14.5.57-29.37-7.41-41.89ZM88.62,168.15c-43.85,0-79.53-35.68-79.53-79.53S44.77,9.1,88.62,9.1c22.15,0,42.69,8.91,57.66,24.73-7.19,1.24-14.12,3.9-20.45,7.94-1.99,1.27-3.86,2.66-5.65,4.14-9.1-6.72-20.15-10.4-31.55-10.4-29.29,0-53.11,23.83-53.11,53.11s23.83,53.12,53.11,53.12c11.38,0,22.44-3.67,31.53-10.38,6.74,5.62,14.76,9.59,23.57,11.54.86.19,1.72.35,2.58.5-14.97,15.84-35.53,24.76-57.68,24.76ZM108.86,118.52c1.45,2.27,3.04,4.4,4.76,6.41-7.32,5.04-16.04,7.79-25,7.79-24.31,0-44.09-19.78-44.09-44.09s19.78-44.09,44.09-44.09c8.97,0,17.67,2.74,24.99,7.78-5.95,6.89-10.14,15.18-12.16,24.32-3.2,14.5-.57,29.37,7.41,41.89ZM201.11,98.66c-2.68,12.12-9.92,22.48-20.39,29.16-5.15,3.29-10.78,5.48-16.61,6.56l-37.99-22.49-1.39,2.06,27.59,21.06c-2.21-.17-4.43-.49-6.64-.98-12.12-2.68-22.48-9.92-29.16-20.39-6.68-10.47-8.88-22.91-6.2-35.03,2.68-12.12,9.92-22.48,20.39-29.16,6.43-4.1,13.61-6.51,21-7.14l-27.36,20.52,1.37,2.07,37.96-22.05c.69.12,1.37.25,2.06.4,12.12,2.68,22.48,9.92,29.16,20.39,6.68,10.47,8.88,22.91,6.2,35.03Z"/>
    <polygon fill="#ffad5b" points="129.66 72.61 171.78 58.18 168.86 51.05 128.72 70.31 129.66 72.61"/>
    <polygon fill="#ffad5b" points="132 80.94 176.13 75.01 174.65 67.45 131.52 78.5 132 80.94"/>
    <polygon fill="#ffad5b" points="132.67 89.56 177.11 92.36 177.14 84.66 132.68 87.08 132.67 89.56"/>
    <polygon fill="#ffad5b" points="131.65 98.16 174.69 109.57 176.22 102.02 132.14 95.73 131.65 98.16"/>
    <polygon fill="#ffad5b" points="128.97 106.39 168.95 125.98 171.93 118.87 129.93 104.1 128.97 106.39"/>
  </g>
</svg>