<svg xmlns="http://www.w3.org/2000/svg" version="1.0" viewBox="0 0 828 395"><path d="M700 127.5V149h-16v17h15.8l.4 19.2c.6 22 1.5 26.1 7.9 35.7 6.5 9.7 17.9 16.7 30.2 18.5l4.8.7-.3-8.3-.3-8.2-4.5-.8c-9.9-1.7-18.8-10.6-21-21.1-.6-2.9-.9-12-.8-20.2l.3-15 13.3-.3 13.2-.3V149h-27v-43h-16zm-575.2-18.4c-20.7 3.1-39.6 16.7-48.8 35.1-5.4 10.9-7.4 20.6-6.7 33.2.9 17.3 6.7 30.5 18.8 42.5 7.6 7.6 14.7 12.2 25.1 15.9 6.5 2.4 8.7 2.7 20.3 2.7 10.1 0 14.2-.4 18.5-1.9 13.7-4.6 25.9-13.2 33.4-23.5 3.2-4.3 9.6-16.1 9.6-17.5 0-.3-4-.6-9-.6h-8.9l-3.4 5.3c-6.4 10-18 18.1-29.8 20.7-7.7 1.7-19.9.8-27.1-1.9-8-3.1-16.7-9.9-21.7-17.1-15.8-22.5-10.2-53.6 12.1-68.2 14.6-9.5 30.9-10.9 46.4-3.8 7.3 3.3 17 11.9 20.9 18.6l2.6 4.4h9c8.9 0 9 0 8.4-2.3-3.2-10.4-16.6-26.4-27.7-33-12.1-7.2-28.9-10.6-42-8.6m418.7 2.1c2.6 12.4 11.4 20.8 23.2 22.4 13.3 1.7 26.8-8.2 28.9-21.4l.7-4.2h-53.5zM305 154.8c0 49.8.2 52.3 5.7 62.4 3.8 7 13.9 16.1 21 19 4.9 1.9 7.6 2.3 16.8 2.3 10.3 0 11.4-.2 17.7-3.2 17.5-8.3 27.8-27.3 24.9-45.9-2.8-18.1-16.5-32.7-34.2-36.5-10-2.2-24.2.6-32.1 6.2l-2.8 2V109h-17zm56 17.8c14.8 8 18.3 27.5 7.3 40.3-7.4 8.7-20.8 11.7-30.8 7-9.8-4.6-16.4-16.5-15.2-27.2 1.2-9.9 9.4-19.7 19.1-22.7 5.3-1.6 13.9-.5 19.6 2.6m-154-19.8c0 .4 7.6 20 16.9 43.6l16.9 42.8-10.9 27.1c-6 14.9-10.9 27.3-10.9 27.5 0 .1 4.1.1 9.1 0l9.1-.3 2.5-6c5.3-13 52.6-132.1 53-133.8.5-1.5-.4-1.7-8.5-1.7h-9l-9.6 24.2c-5.2 13.4-10.8 27.6-12.3 31.5-1.5 4-3 7.3-3.3 7.3s-6.1-14.2-13-31.5L224.5 152h-8.7c-4.9 0-8.8.4-8.8.8m229.8.2c-6.8 1.7-15.5 6.8-20.7 12.1-20.8 21.1-14.8 56.6 11.8 69.7 7.3 3.6 7.7 3.7 19 3.7 11.1 0 11.9-.1 18.4-3.3 7.5-3.7 15.6-11.2 18.7-17.3l2-3.9h-9.6c-8.9 0-10 .2-13.1 2.6-5.1 3.9-9.7 5.4-16.5 5.4-9.8 0-17.3-4.3-23.1-13-3.5-5.1-4.1-5 32.1-5.2l33.7-.3-.1-9c0-6.7-.6-10.4-2.3-14.7-4.2-10.9-14-20.7-24.8-24.9-6.5-2.4-19.4-3.4-25.5-1.9m20.9 18.9c5.8 2.9 9.5 6.3 12.1 11l2.3 4.1h-25c-13.8 0-25.1-.4-25.1-.8 0-1.3 5.3-8.3 8.3-11.1 6.5-6 19.2-7.5 27.4-3.2m79.3-18.3c-15.2 4.1-27.5 17.3-30.9 33.2-.6 3-1.1 15.3-1.1 28.7V239h16.9l.3-25.3.3-25.2 3-5.4c1.6-2.9 4.5-6.6 6.4-8.2 3.7-3 10.9-5.9 14.8-5.9 2.2 0 2.3-.3 2.3-8.5V152l-3.2.1c-1.8 0-5.8.7-8.8 1.5m25 42.4v44h17v-88h-17zm63.9-42.6c-11.9 3.3-22.6 12.6-28.2 24.3l-3.2 6.8-.3 27.2-.3 27.3h15.9l.4-24.8c.4-27.5.7-28.8 7.4-36.2 5.8-6.4 10.5-8.5 19.4-8.5 8.8 0 13.6 2.1 19.3 8.4 6.5 7.2 6.7 8.5 6.7 36.2V239h17.1l-.3-27.3-.3-27.2-3.2-6.8c-9.2-19.4-30.6-29.7-50.4-24.3"/></svg>