<svg width="75" height="75" viewBox="0 0 75 75" fill="none" xmlns="http://www.w3.org/2000/svg">
<path d="M31.5194 26.8645C31.5194 26.0684 30.871 25.4209 30.0762 25.4209C29.2805 25.4209 28.6321 26.0684 28.6321 26.8645V33.8793C28.6321 34.6801 29.2805 35.3257 30.0762 35.3257C30.871 35.3257 31.5194 34.6801 31.5194 33.8793V26.8645Z" fill="#15495D"/>
<path d="M7.732 30.8458C7.732 30.0496 7.08363 29.404 6.28883 29.404C5.49402 29.404 4.84473 30.0496 4.84473 30.8458V33.8789C4.84473 34.6796 5.49402 35.3262 6.28883 35.3262C7.08363 35.3262 7.732 34.6796 7.732 33.8789V30.8458Z" fill="#15495D"/>
<path d="M15.661 26.8645C15.661 26.0684 15.0126 25.4209 14.2178 25.4209C13.4221 25.4209 12.7737 26.0684 12.7737 26.8645V33.8793C12.7737 34.6801 13.4221 35.3257 14.2178 35.3257C15.0126 35.3257 15.661 34.6801 15.661 33.8793V26.8645Z" fill="#15495D"/>
<path d="M23.5902 21.4176C23.5902 20.6214 22.9418 19.9749 22.147 19.9749C21.3513 19.9749 20.7029 20.6214 20.7029 21.4176V36.7615C20.7029 37.5622 21.3513 38.2087 22.147 38.2087C22.9418 38.2087 23.5902 37.5622 23.5902 36.7615V21.4176Z" fill="#15495D"/>
<path d="M39.4393 30.8458C39.4393 30.0496 38.7956 29.404 38.0045 29.404C37.2097 29.404 36.5613 30.0496 36.5613 30.8458V33.8789C36.5613 34.6796 37.2097 35.3262 38.0045 35.3262C38.7956 35.3262 39.4393 34.6796 39.4393 33.8789V30.8458Z" fill="#15495D"/>
<path d="M47.372 26.8645C47.372 26.0684 46.7282 25.4209 45.9325 25.4209C45.1395 25.4209 44.4939 26.0684 44.4939 26.8645V33.8793C44.4939 34.6801 45.1395 35.3257 45.9325 35.3257C46.7282 35.3257 47.372 34.6801 47.372 33.8793V26.8645Z" fill="#15495D"/>
<path d="M55.3063 21.4176C55.3063 20.6214 54.6625 19.9749 53.8668 19.9749C53.072 19.9749 52.4282 20.6214 52.4282 21.4176V36.7615C52.4282 37.5622 53.072 38.2087 53.8668 38.2087C54.6625 38.2087 55.3063 37.5622 55.3063 36.7615V21.4176Z" fill="#15495D"/>
<path d="M63.2393 26.8645C63.2393 26.0684 62.5955 25.4209 61.7823 25.4209C60.9875 25.4209 60.3428 26.0684 60.3428 26.8645V33.8793C60.3428 34.6801 60.9875 35.3257 61.7823 35.3257C62.5955 35.3257 63.2393 34.6801 63.2393 33.8793V26.8645Z" fill="#15495D"/>
<path d="M71.1555 30.8458C71.1555 30.0496 70.5099 29.404 69.716 29.404C68.9212 29.404 68.2756 30.0496 68.2756 30.8458V33.8789C68.2756 34.6796 68.9212 35.3262 69.716 35.3262C70.5099 35.3262 71.1555 34.6796 71.1555 33.8789V30.8458Z" fill="#15495D"/>
<path d="M49.9514 46.5751C49.8326 46.5142 48.896 45.9582 47.5053 45.9582C45.6256 45.9582 44.3215 47.2706 44.3215 49.0402C44.3215 50.7572 45.5694 52.1251 47.5053 52.1251C48.872 52.1251 49.8234 51.5811 49.9514 51.5118V54.6133C49.5867 54.7158 48.593 55.0243 47.3017 55.0243C44.0313 55.0243 41.1606 52.7633 41.1606 49.0402C41.1606 45.5897 43.7578 43.059 47.3017 43.059C48.6657 43.059 49.676 43.3924 49.9514 43.4737V46.5751Z" fill="#C5112E"/>
<path d="M19.6023 46.5751C19.4853 46.5142 18.5496 45.9582 17.1598 45.9582C15.2764 45.9582 13.9732 47.2706 13.9732 49.0402C13.9732 50.7572 15.2221 52.1251 17.1598 52.1251C18.5266 52.1251 19.477 51.5811 19.6023 51.5118V54.6133C19.2403 54.7158 18.2493 55.0243 16.9508 55.0243C13.6822 55.0243 10.8152 52.7633 10.8152 49.0402C10.8152 45.5897 13.4124 43.059 16.9508 43.059C18.3184 43.059 19.3287 43.3924 19.6023 43.4737V46.5751Z" fill="#C5112E"/>
<path d="M65.1874 49.0401C65.1874 52.3457 62.6418 55.0242 59.0988 55.0242C55.5548 55.0242 53.0129 52.3457 53.0129 49.0401C53.0129 45.7401 55.5548 43.0589 59.0988 43.0589C62.6418 43.0589 65.1874 45.7401 65.1874 49.0401ZM59.0988 46.0015C57.3738 46.0015 56.0927 47.3629 56.0927 49.0401C56.0927 50.7211 57.3738 52.0816 59.0988 52.0816C60.8219 52.0816 62.1058 50.7211 62.1058 49.0401C62.1058 47.3629 60.8219 46.0015 59.0988 46.0015Z" fill="#C5112E"/>
<path d="M37.5335 45.8906C37.4902 45.8767 36.2662 45.5377 35.2605 45.5377C34.0955 45.5377 33.4618 45.9294 33.4618 46.4854C33.4618 47.1882 34.3165 47.4339 34.7945 47.5854L35.5967 47.8412C37.4838 48.4434 38.3439 49.7392 38.3439 51.1468C38.3439 54.0497 35.7984 55.025 33.5733 55.025C32.0269 55.025 30.5782 54.7396 30.4355 54.7092V52.0501C30.6915 52.1147 31.9109 52.4796 33.1809 52.4796C34.6278 52.4796 35.2927 52.0556 35.2927 51.4008C35.2927 50.8152 34.7171 50.4772 33.996 50.25C33.8201 50.1909 33.5558 50.1077 33.3753 50.0486C31.7562 49.5351 30.406 48.581 30.406 46.6682C30.406 44.507 32.0196 43.056 34.6996 43.056C36.1152 43.056 37.4469 43.4005 37.5335 43.4236V45.8906Z" fill="#C5112E"/>
<path d="M26.5064 54.8193H23.5989V43.264H26.5064V54.8193Z" fill="#C5112E"/>
<path d="M69.4917 53.2973V53.4783H68.9778V54.8185H68.7669V53.4783H68.2502V53.2973H69.4917Z" fill="#C5112E"/>
<path d="M69.4917 53.2973H69.8223L70.2764 54.5451H70.2837L70.7231 53.2973H71.0472V54.8185H70.8308V53.5716H70.8234L70.363 54.8185H70.1622L69.7137 53.5716H69.7035V54.8185H69.4917V53.2973Z" fill="#C5112E"/>
</svg>
