<?xml version="1.0" encoding="utf-8"?>
<svg version="1.1" xmlns="http://www.w3.org/2000/svg" x="0px" y="0px"
	 viewBox="0 0 75 75" enable-background="new 0 0 75 75" xml:space="preserve">
<g id="c49e758f-6cff-494b-83ea-d7304e56cd0e">
	<rect fill="#691CC2" width="75" height="75"/>
</g>
<g id="bb20f20d-7062-4b85-b7d5-f9fcde4d55c0">
	<g>
		<g>
			<path fill="#CCADFF" d="M7.8,38.3c0-4.2,2.9-7.2,7.1-7.2c2.8,0,5.1,1.4,6,3.5c0.1,0.2,0.1,0.4,0.1,0.6c0,0.5-0.4,0.8-0.9,0.8
				c-0.4,0-0.7-0.2-0.9-0.6c-0.7-1.7-2.4-2.7-4.4-2.7c-3.1,0-5.3,2.3-5.3,5.6c0,3.3,2.2,5.6,5.3,5.6c2,0,3.6-1,4.4-3
				c0.2-0.4,0.4-0.6,0.9-0.6c0.5,0,0.9,0.4,0.9,0.9c0,0.2,0,0.3-0.1,0.6c-0.9,2.3-3.2,3.8-6.1,3.8C10.7,45.5,7.8,42.6,7.8,38.3"/>
		</g>
		<g>
			<path fill="#CCADFF" d="M31.5,44.3c0,0.6-0.3,1-0.9,1s-0.9-0.4-0.9-1V27.7c0-0.6,0.3-1,0.9-1c0.6,0,0.9,0.3,0.9,1v3.8h3.1
				c0.6,0,0.9,0.3,0.9,0.8c0,0.5-0.3,0.8-0.9,0.8h-3.1V44.3z"/>
			<path fill="#CCADFF" d="M45.4,32.4c0,0.5-0.4,0.8-0.9,0.8c-0.2,0-0.4-0.1-0.7-0.2c-0.4-0.2-0.9-0.3-1.4-0.3c-1.9,0-3.2,1.6-3.2,3.6
				v7.9c0,0.6-0.3,1-0.9,1c-0.6,0-0.9-0.3-0.9-1v-12c0-0.6,0.3-1,0.9-1c0.6,0,0.9,0.3,0.9,1v0.3c0.8-1,2-1.5,3.3-1.5
				c1.1,0,1.8,0.2,2.3,0.5C45.2,31.9,45.4,32.1,45.4,32.4"/>
			<path fill="#CCADFF" d="M47.2,32.3c0-0.6,0.3-1,0.9-1c0.6,0,0.9,0.3,0.9,1v12c0,0.6-0.3,1-0.9,1c-0.6,0-0.9-0.4-0.9-1V32.3z"/>
			<path fill="#CCADFF" d="M24.2,32.3c0-0.6,0.3-1,0.9-1s0.9,0.3,0.9,1v12c0,0.6-0.3,1-0.9,1c-0.6,0-0.9-0.4-0.9-1V32.3z"/>
			<path fill="#CCADFF" d="M26.5,28.1c0,0.8-0.6,1.4-1.4,1.4c-0.8,0-1.4-0.6-1.4-1.4c0-0.8,0.6-1.4,1.4-1.4
				C25.9,26.8,26.5,27.4,26.5,28.1"/>
			<path fill="#CCADFF" d="M58.3,39.4l-4.9,5.5c-0.2,0.2-0.4,0.3-0.7,0.3c-0.5,0-0.9-0.4-0.9-0.8c0-0.2,0.1-0.4,0.3-0.6l5.1-5.6
				l-4.9-5.5c-0.2-0.2-0.3-0.4-0.3-0.6c0-0.4,0.4-0.8,0.9-0.8c0.3,0,0.5,0.1,0.7,0.3l4.8,5.4l4.8-5.4c0.2-0.2,0.4-0.3,0.7-0.3
				c0.5,0,0.9,0.4,0.9,0.8c0,0.2-0.1,0.4-0.3,0.6l-4.9,5.5l5.1,5.6c0.2,0.2,0.3,0.4,0.3,0.6c0,0.4-0.4,0.8-0.9,0.8
				c-0.3,0-0.5-0.1-0.7-0.3L58.3,39.4z"/>
			<path fill="#CCADFF" d="M59.7,28.1c0,0.8-0.6,1.4-1.4,1.4s-1.4-0.6-1.4-1.4c0-0.8,0.6-1.4,1.4-1.4S59.7,27.4,59.7,28.1"/>
		</g>
	</g>
</g>
</svg>
