<?xml version="1.0" encoding="utf-8"?>
<!-- Generator: Adobe Illustrator 25.4.1, SVG Export Plug-In . SVG Version: 6.00 Build 0)  -->
<svg version="1.1" id="9b820c71-8a9d-4764-a394-2da57de28d48" xmlns="http://www.w3.org/2000/svg" x="0px" y="0px"
	 viewBox="0 0 1266.3 278" xml:space="preserve">
<style type="text/css">
	.st0{fill:#E20AB7;}
	.st1{fill:none;}
</style>
<path d="M1185.3,153.6v41.6h-21.9v-41.3l-46.3-76.7h23.4l34.5,57.5l34.9-57.5h21.6L1185.3,153.6z"/>
<path d="M455.6,77.2h21.9v99.4h61.7v18.5h-83.6V77.2z"/>
<path d="M1031.4,95.8h-39.1V77.2h100.1v18.5h-39.1v99.4h-21.9V95.8z"/>
<path d="M912.3,77.1c-33.1,0-59.9,26.8-59.9,59.9c0,33.1,26.8,59.9,59.9,59.9c33.1,0,59.9-26.8,59.9-59.9
	C972.3,103.9,945.4,77.1,912.3,77.1z M912.3,176.8c-22,0-39.8-17.8-39.8-39.8s17.8-39.8,39.8-39.8c22,0,39.8,17.8,39.8,39.8
	S934.3,176.8,912.3,176.8z"/>
<g>
	<polygon points="632.2,77.2 610.6,77.2 557.5,195.2 580.1,195.2 621.2,99.1 662.5,195.2 685.4,195.2 	"/>
</g>
<g>
	<path d="M790.9,156.4c16-6.2,25.1-19.4,25.1-37.2c0-26.1-19.2-42-50.2-42h-48.5v18.6l47.5,0c19.2,0,29.2,8.6,29.2,23.4
		c0,14.8-9.9,23.6-29.2,23.6l-47.5,0v52.4h21.9v-34.4h26.6c1.5,0,3,0,4.6-0.2l24.1,34.5H818L790.9,156.4z"/>
</g>
<path d="M371.9,96.7L371.9,96.7l45.7-0.1V76.9h-45.7c-33,0.2-59.7,26.9-59.7,59.9c0,33,26.7,59.8,59.7,59.9v0.1h45.7v-18.9h-45.7v0
	c-22.3-0.2-40.3-18.3-40.3-40.6C331.6,114.9,349.6,96.8,371.9,96.7z"/>
<path class="st0" d="M248.8,94.9l-9.3,9.2c-3.8-47.6-43.9-52.8-53-53.3l8.4-8.9c-15.6-13.9-30.5-18.4-43.5-18.4v58.3
	c-0.9,0-1.7-0.1-2.6-0.1c0,0-0.1,0-0.1,0c-31.8,0.1-57.5,25.8-57.5,57.6c0,31.8,25.7,57.5,57.5,57.6c0,0,0.1,0,0.1,0
	c0.9,0,1.8,0,2.6-0.1v56c13,0,27.9-4.5,43.5-18.4l-7.1-7.5c10.9-0.9,48.4-7.4,51.9-53.5l8.8,8.4C289.9,135.5,248.8,94.9,248.8,94.9z
	 M237.5,106.1l-31.2,30.8c-0.5-11-4-21.2-9.8-29.7L237.5,106.1z M184.6,52.7L184.4,94c-7.9-6.2-17.4-10.4-27.9-11.8L184.6,52.7z
	 M123.9,139.4c0-13.8,11.2-24.9,24.9-24.9c13.8,0,24.9,11.2,24.9,24.9c0,13.8-11.2,24.9-24.9,24.9
	C135.1,164.3,123.9,153.1,123.9,139.4z M158.5,196.2c9.8-1.6,18.7-5.7,26.1-11.6l0.2,39.3L158.5,196.2z M197.1,170.8
	c5.5-8.4,8.8-18.3,9.2-29l31.5,30L197.1,170.8z"/>
<path class="st0" d="M135.2,209.7c-34.8-5.3-61.5-35.3-61.5-71.5c0-36.2,26.7-66.3,61.5-71.5V24C77,29.6,31.5,78.6,31.5,138.2
	c0,59.6,45.5,108.6,103.7,114.2V209.7z"/>
<rect x="2.4" y="2.8" class="st1" width="1260.8" height="273.4"/>
</svg>
