<?xml version="1.0" encoding="utf-8"?>
<!-- Generator: Adobe Illustrator 27.0.0, SVG Export Plug-In . SVG Version: 6.00 Build 0)  -->
<svg version="1.1" id="5ed7158a-ace6-424f-af2e-61911ed7e222" xmlns="http://www.w3.org/2000/svg" x="0px" y="0px"
	 viewBox="0 0 75 75">
<g>
	<path fill="#CE202D" d="M74,38.1c0,15.1-12.2,27.3-27.3,27.3S19.4,53.1,19.4,38.1c0-15.1,12.2-27.3,27.3-27.3S74,23,74,38.1"/>
	<path fill="#102437" d="M27.9,38.1c0,7.5-6.1,13.6-13.6,13.6c-7.5,0-13.6-6.1-13.6-13.6c0-7.5,6.1-13.5,13.6-13.5
		C21.8,24.5,27.9,30.6,27.9,38.1"/>
	<path fill="#FFFFFF" d="M11.5,35.1c-0.5,0-1,0.1-1.5,0.4c-0.4,0.3-0.8,0.6-1,1.1C8.8,37,8.7,37.5,8.7,38c0,0.5,0.1,1.1,0.4,1.5
		c0.2,0.5,0.6,0.8,1,1.1c0.4,0.3,0.9,0.4,1.5,0.4c0.5,0,1-0.1,1.5-0.4c0.4-0.3,0.8-0.7,1.1-1.3h2.8c-0.2,0.8-0.6,1.5-1.1,2.1
		c-0.5,0.6-1.1,1.1-1.9,1.4c-0.7,0.3-1.5,0.5-2.3,0.5c-0.7,0-1.5-0.1-2.1-0.4c-0.7-0.3-1.3-0.6-1.8-1.1c-0.6-0.5-1-1.1-1.2-1.7
		C6.2,39.4,6,38.7,6,37.9c0-0.9,0.2-1.7,0.7-2.5c0.5-0.8,1.1-1.4,2-1.9c0.8-0.5,1.7-0.7,2.7-0.7c0.7,0,1.4,0.1,2,0.3
		c0.6,0.2,1.2,0.5,1.7,0.9c1,0.8,1.6,1.8,1.8,2.8h-2.8c-0.2-0.5-0.6-1-1-1.3C12.6,35.2,12.1,35.1,11.5,35.1"/>
	<polygon fill="#FFFFFF" points="35.8,33 35.8,35.3 32,35.3 32,37 35.6,37 35.6,39.3 32,39.3 32,43.1 28.8,43.1 28.8,33 	"/>
	<polygon fill="#FFFFFF" points="43.9,33 43.9,35.3 39.9,35.3 39.9,36.8 43.8,36.8 43.8,39.1 39.9,39.1 39.9,40.9 43.9,40.9 43.9,43.1
		36.8,43.1 36.8,33 	"/>
	<polygon fill="#FFFFFF" points="72.2,33 72.2,35.3 68.3,35.3 68.3,36.8 72.1,36.8 72.1,39.1 68.3,39.1 68.3,40.9 72.2,40.9 72.2,43.1
		65.2,43.1 65.2,33 	"/>
	<polygon fill="#FFFFFF" points="47.8,43.1 44.9,43.1 44.9,33 47.5,33 52,39.4 51.9,33 54.7,33 54.7,43.1 52.1,43.1 47.7,36.9 	"/>
	<path fill="#FFFFFF" d="M60,35c-0.3,0-0.6,0.1-0.8,0.2c-0.2,0.2-0.3,0.3-0.3,0.6c0,0.3,0.1,0.5,0.4,0.7c0.3,0.2,0.8,0.4,1.6,0.7
		c0.9,0.3,1.6,0.6,2.1,0.9c0.5,0.3,0.9,0.6,1.1,1c0.2,0.3,0.3,0.7,0.3,1.2c0,1-0.4,1.7-1.2,2.3c-0.8,0.5-1.9,0.8-3.2,0.8
		c-1.4,0-2.5-0.3-3.3-0.9c-0.8-0.6-1.2-1.4-1.2-2.5v-0.2h3.2c0,0.4,0.1,0.8,0.4,1c0.2,0.3,0.6,0.4,1,0.4c0.3,0,0.6-0.1,0.9-0.3
		c0.2-0.2,0.4-0.4,0.4-0.7c0-0.3-0.2-0.6-0.6-0.8c-0.4-0.2-0.9-0.4-1.6-0.6c0,0-0.1,0-0.2,0c-0.1,0-0.1,0-0.2-0.1
		c-1-0.3-1.8-0.7-2.3-1.2c-0.5-0.5-0.7-1-0.7-1.7c0-0.6,0.2-1.1,0.6-1.5c0.4-0.5,0.9-0.8,1.6-1.1c0.7-0.3,1.4-0.4,2.2-0.4
		c0.8,0,1.6,0.1,2.2,0.4c0.7,0.3,1.2,0.6,1.5,1.1c0.3,0.4,0.5,1,0.5,1.7h-3.2c-0.1-0.4-0.2-0.6-0.4-0.8C60.6,35,60.3,35,60,35"/>
	<path fill="#FFFFFF" d="M16.7,38.3c0-1,0.2-2,0.7-2.8c0.5-0.8,1.1-1.5,2-2c0.8-0.5,1.8-0.7,2.8-0.7c1,0,1.9,0.2,2.8,0.7
		c0.9,0.5,1.5,1.1,2,1.9c0.5,0.8,0.7,1.7,0.7,2.6c0,1-0.2,1.9-0.7,2.7c-0.5,0.8-1.1,1.5-2,1.9c-0.8,0.5-1.7,0.7-2.7,0.7
		c-1,0-1.9-0.2-2.8-0.6c-0.9-0.4-1.6-1-2.1-1.8C17,40.1,16.7,39.3,16.7,38.3 M25.2,38.1c0-0.5-0.1-1-0.4-1.5c-0.2-0.5-0.6-0.8-1-1.1
		c-0.4-0.3-0.9-0.4-1.5-0.4c-0.6,0-1,0.1-1.5,0.4c-0.4,0.3-0.8,0.6-1,1.1c-0.2,0.5-0.4,0.9-0.4,1.5c0,0.6,0.1,1.1,0.4,1.5
		c0.2,0.5,0.6,0.8,1,1.1c0.4,0.3,0.9,0.4,1.5,0.4c0.5,0,1-0.1,1.5-0.4c0.4-0.3,0.8-0.6,1-1.1C25,39.1,25.2,38.6,25.2,38.1
		 M25.2,38.1c0-0.5-0.1-1-0.4-1.5c-0.2-0.5-0.6-0.8-1-1.1c-0.4-0.3-0.9-0.4-1.5-0.4c-0.6,0-1,0.1-1.5,0.4c-0.4,0.3-0.8,0.6-1,1.1
		c-0.2,0.5-0.4,0.9-0.4,1.5c0,0.6,0.1,1.1,0.4,1.5c0.2,0.5,0.6,0.8,1,1.1c0.4,0.3,0.9,0.4,1.5,0.4c0.5,0,1-0.1,1.5-0.4
		c0.4-0.3,0.8-0.6,1-1.1C25,39.1,25.2,38.6,25.2,38.1"/>
	<path fill="#CE202D" d="M25.2,38.1c0-0.5-0.1-1-0.4-1.5c-0.2-0.5-0.6-0.8-1-1.1c-0.4-0.3-0.9-0.4-1.5-0.4c-0.6,0-1,0.1-1.5,0.4
		c-0.4,0.3-0.8,0.6-1,1.1c-0.2,0.5-0.4,0.9-0.4,1.5c0,0.6,0.1,1.1,0.4,1.5c0.2,0.5,0.6,0.8,1,1.1c0.4,0.3,0.9,0.4,1.5,0.4
		c0.5,0,1-0.1,1.5-0.4c0.4-0.3,0.8-0.6,1-1.1C25,39.1,25.2,38.6,25.2,38.1"/>
</g>
</svg>
