<?xml version="1.0" encoding="utf-8"?>
<svg version="1.1" id="85b34df6-e677-4b21-9f8c-ac790e1d1e23" width="80" height="40" viewBox="0 0 80 40" fill="none" xmlns="http://www.w3.org/2000/svg">
<g clip-path="url(#clip0_216_5179)">
<path d="M60.5773 2.93756C48.0863 -2.82444 28.3503 0.152558 16.5873 9.57056C4.84733 18.9706 5.41633 31.2866 17.8333 37.0606C30.3253 42.8206 50.0613 39.8436 61.8233 30.4256C73.5633 21.0256 72.9943 8.70956 60.5773 2.93456M52.8153 26.2766C45.7433 31.9386 33.8933 33.7356 26.3633 30.2976C18.8633 26.8216 18.5123 19.3906 25.5923 13.7226C32.6723 8.05456 44.5153 6.26356 52.0453 9.69956C59.5453 13.1746 59.8963 20.6066 52.8163 26.2746" fill="#CAD4EB"/>
<path d="M0 29.0942V10.5752H4.092V26.3282H8.345V29.0942H0Z" fill="#4A38D6"/>
<path d="M14.6551 29.3682C13.5045 29.4269 12.3584 29.1857 11.3291 28.6682C10.5403 28.2167 9.94308 27.4932 9.6491 26.6332C9.30346 25.5748 9.14112 24.4652 9.1691 23.3522V10.5752H13.2121V23.9752C13.2123 24.358 13.2431 24.7403 13.3041 25.1182C13.3485 25.4614 13.4869 25.7857 13.7041 26.0552C13.9662 26.2908 14.3062 26.4211 14.6586 26.4211C15.011 26.4211 15.351 26.2908 15.6131 26.0552C15.8224 25.7834 15.9529 25.4592 15.9901 25.1182C16.0431 24.7395 16.0699 24.3576 16.0701 23.9752V10.5752H20.1421V23.3552C20.1704 24.4692 20.0039 25.5795 19.6501 26.6362C19.3512 27.4934 18.7552 28.2153 17.9701 28.6712C16.9451 29.1897 15.8022 29.431 14.6551 29.3712" fill="#4A38D6"/>
<path d="M22.2217 29.0942L22.5417 10.5752H26.9317L28.9667 21.3432L31.1617 10.5752H35.3907L35.7097 29.0942H32.8097L32.4667 16.7712L30.3157 29.0942H27.7327L25.4457 16.6842L25.1717 29.0992L22.2217 29.0942Z" fill="#4A38D6"/>
<path d="M44.0791 29.0942V10.5752H46.9601L50.7601 19.4922V10.5752H54.1441V29.0942H51.3781L47.5781 19.4942V29.0942H44.0791Z" fill="#4A38D6"/>
<path d="M55.5557 29.0952L59.0557 10.5762H63.7197L67.1727 29.0952H63.3997L62.7767 25.1842H60.0557L59.4157 29.0932L55.5557 29.0952ZM60.4257 22.7392H62.3917L61.4087 15.5142L60.4257 22.7392Z" fill="#4A38D6"/>
<path d="M68.4053 29.0942V10.5751H73.5053C74.6018 10.5551 75.6955 10.6938 76.7523 10.9871C77.6111 11.2227 78.3647 11.7423 78.8903 12.4611C79.4526 13.3589 79.7204 14.4098 79.6563 15.4672C79.6636 16.1499 79.6023 16.8317 79.4733 17.5021C79.3669 18.0606 79.1362 18.5879 78.7983 19.0451C78.4245 19.5157 77.942 19.8884 77.3923 20.1312L79.9303 29.0932H75.7003L73.6653 20.7931H72.4993V29.0932L68.4053 29.0942ZM72.4983 18.4402H73.6413C74.1111 18.4667 74.5789 18.3596 74.9903 18.1312C75.3127 17.9221 75.5513 17.6064 75.6643 17.2391C75.8032 16.7838 75.8687 16.3091 75.8583 15.8331C75.8942 15.1879 75.7435 14.546 75.4243 13.9842C75.2367 13.7459 74.991 13.5598 74.7109 13.4437C74.4307 13.3276 74.1254 13.2854 73.8243 13.3211H72.4983V18.4402Z" fill="#4A38D6"/>
<path d="M41.7668 10.5752H37.6748V29.0942H41.7668V10.5752Z" fill="#4A38D6"/>
</g>
<defs>
<clipPath id="559022cd-9a3f-4283-bf3e-34830988e838">
<rect width="79.928" height="40" fill="white"/>
</clipPath>
</defs>
</svg>
