<svg xmlns="http://www.w3.org/2000/svg" width="216" height="216" viewBox="0 0 216 216" version="1.1"><path d="M 89 49.433 C 71.880 54.204, 59.348 68.075, 56.700 85.186 C 53.930 103.082, 64.135 122.069, 80.940 130.287 C 87.375 133.434, 87.809 133.502, 103.710 133.833 L 119.920 134.171 122.460 131.631 C 125.997 128.094, 125.979 122.269, 122.421 118.924 C 120.021 116.669, 118.888 116.463, 106.171 115.967 C 90.602 115.361, 87.059 114.128, 80.722 107.114 C 71.900 97.350, 72.539 82.419, 82.165 73.362 C 89.335 66.616, 89.772 66.532, 119.266 66.190 C 149.778 65.837, 147.529 66.554, 150.046 56.378 C 152.242 47.500, 153.907 47.988, 121.781 48.089 C 102.421 48.151, 92.081 48.574, 89 49.433 M 93.923 84.923 C 89.823 89.023, 89.883 93.882, 94.077 97.411 C 96.969 99.845, 97.798 100, 107.895 100 C 120.869 100, 127.039 101.629, 132.828 106.585 C 146.602 118.375, 143.825 140.050, 127.571 147.619 C 122.651 149.910, 121.724 149.981, 96.372 149.990 C 76.681 149.998, 69.998 150.308, 69.243 151.250 C 68.003 152.797, 65 163.093, 65 165.797 C 65 166.891, 65.712 168.059, 66.582 168.393 C 69.220 169.405, 115.040 169.057, 122 167.971 C 142.216 164.819, 158.237 148.127, 159.707 128.685 C 160.667 115.995, 156.822 105, 148.200 95.783 C 138.568 85.485, 128.866 82, 109.834 82 L 96.846 82 93.923 84.923" stroke="none" fill="#f9fbf7" fill-rule="evenodd"/><path d="M 0 108.004 L 0 216.009 108.250 215.754 L 216.500 215.500 216.754 107.750 L 217.009 0 108.504 0 L 0 0 0 108.004 M 0.482 108.500 C 0.482 167.900, 0.603 192.053, 0.750 162.173 C 0.897 132.294, 0.897 83.694, 0.750 54.173 C 0.603 24.653, 0.482 49.100, 0.482 108.500 M 89 49.433 C 71.880 54.204, 59.348 68.075, 56.700 85.186 C 53.930 103.082, 64.135 122.069, 80.940 130.287 C 87.375 133.434, 87.809 133.502, 103.710 133.833 L 119.920 134.171 122.460 131.631 C 125.997 128.094, 125.979 122.269, 122.421 118.924 C 120.021 116.669, 118.888 116.463, 106.171 115.967 C 90.602 115.361, 87.059 114.128, 80.722 107.114 C 71.900 97.350, 72.539 82.419, 82.165 73.362 C 89.335 66.616, 89.772 66.532, 119.266 66.190 C 149.778 65.837, 147.529 66.554, 150.046 56.378 C 152.242 47.500, 153.907 47.988, 121.781 48.089 C 102.421 48.151, 92.081 48.574, 89 49.433 M 93.923 84.923 C 89.823 89.023, 89.883 93.882, 94.077 97.411 C 96.969 99.845, 97.798 100, 107.895 100 C 120.869 100, 127.039 101.629, 132.828 106.585 C 146.602 118.375, 143.825 140.050, 127.571 147.619 C 122.651 149.910, 121.724 149.981, 96.372 149.990 C 76.681 149.998, 69.998 150.308, 69.243 151.250 C 68.003 152.797, 65 163.093, 65 165.797 C 65 166.891, 65.712 168.059, 66.582 168.393 C 69.220 169.405, 115.040 169.057, 122 167.971 C 142.216 164.819, 158.237 148.127, 159.707 128.685 C 160.667 115.995, 156.822 105, 148.200 95.783 C 138.568 85.485, 128.866 82, 109.834 82 L 96.846 82 93.923 84.923" stroke="none" fill="#64bc1c" fill-rule="evenodd"/></svg>