<?xml version="1.0" encoding="UTF-8"?>
<svg id="11e4c987-5560-4f7f-b43e-1c68ad084a3f" width="1626" height="267.4" version="1.1" viewBox="0 0 1626 267.4" xml:space="preserve" xmlns="http://www.w3.org/2000/svg">
<style type="text/css">
	.st0{fill:#0B2E44;}
	.st1{fill:#FF4A6A;}
</style>
<g transform="translate(-236.8,-266.3)">
			
				<path class="st0" d="m359 467.3c-12.7 4.8-27 7.2-43.1 7.2-52.7 0-79.1-25.5-79.1-76.5 0-48.3 26.4-72.4 79.1-72.4 16.1 0 30.5 2.4 43.1 7.2v24.6c-12.7-5.5-26.4-8.2-41.1-8.2-35.3 0-52.9 16.3-52.9 48.8 0 35.3 17.6 52.9 52.9 52.9 14.7 0 28.4-2.7 41.1-8.2z"/>
				<path class="st0" d="m373.2 400.2c0-49.8 24.6-74.7 73.7-74.7 48.4 0 72.6 24.9 72.6 74.7 0 49.5-24.2 74.3-72.6 74.3-47 0-71.5-24.8-73.7-74.3zm73.7 50.6c29.6 0 44.4-17.1 44.4-51.2 0-33.6-14.8-50.4-44.4-50.4-30.3 0-45.5 16.8-45.5 50.4 0 34.2 15.2 51.2 45.5 51.2z"/>
				<path class="st0" d="m540.9 473.4v-146.8h28.2l49.8 111.4 48.8-111.4h27.2v146.9h-25.2v-102.4l-39.8 102.3h-23.2l-40.7-102.3v102.3z"/>
				<path class="st0" d="m725.7 473.4v-146.8h28.3l49.8 111.4 48.8-111.4h27.2v146.9h-25.2v-102.4l-39.8 102.3h-23.2l-40.7-102.3v102.3z"/>
				<path class="st0" d="m1046 326.6-64.4 146.9h-29.3l-61.6-146.9h32.4l45.4 112.4 45.4-112.5h32.1z"/>
				<path class="st0" d="m1016 473.4 62.3-146.9h29.3l63.7 146.9h-29.3l-18.5-40.1h-46l9.4-23.6h29.5l-24-55.2-48.4 118.8h-28z"/>
				<path class="st0" d="m1175 415.7v-89.1h27.2v89.1c0 23.4 12 35.1 35.9 35.1 24 0 35.9-11.7 35.9-35.1v-89.1h27.2v89.1c0 39.2-21.1 58.7-63.2 58.7s-63-19.5-63-58.7z"/>
				<path class="st0" d="m1356 326.6v123.2h68.6v23.6h-95.8v-146.8z"/>
				<path class="st0" d="m1521 326.6v23.6h-42.1v123.2h-27.2v-123.2h-42.1v-23.6z"/>
			
		
		
			
				<path class="st0" d="m1548 331.4c1.7 0 2.9 0.3 3.7 1s1.2 1.7 1.2 3-0.4 2.2-1.1 2.8-1.6 0.9-2.6 1l4 6.2h-2.3l-3.8-6h-2.3v6h-2.2v-14.1h5.4zm-0.9 6.2h1.4c0.4 0 0.8-0.1 1.2-0.3 0.3-0.2 0.6-0.4 0.8-0.7s0.3-0.7 0.3-1.3c0-0.5-0.1-0.8-0.3-1.1s-0.4-0.5-0.7-0.6-0.6-0.3-1-0.3c-0.4-0.1-0.7-0.1-1.1-0.1h-2.9v4.5h2.3z"/>
			
			<path class="st0" d="m1547 326.4c-6.6 0-12 5.4-12 12s5.4 12 12 12 12-5.4 12-12-5.4-12-12-12zm0 22.3c-5.7 0-10.3-4.6-10.3-10.3s4.6-10.3 10.3-10.3 10.3 4.6 10.3 10.3-4.6 10.3-10.3 10.3z"/>
		
	
	
		<path id="52c3a064-831c-4926-873f-364c977658d6" class="st1" d="m1745 266.3-118.1 68.1v131.1l118.1 68.2 118.1-68.2v-131.1zm97.7 187.5-97.7 56.4-97.7-56.4v-107.6l97.7-56.4 97.7 56.4z"/>
		<path id="faedd9eb-4c18-47d3-ad83-2443eddefe64" class="st1" d="m1738 483c0 1-1.1 1.6-2 1.1l-68.7-39.7c-1.2-0.7-2-2-2-3.4v-76.8c0-1 1.1-1.6 2-1.1l68.7 39.7c1.2 0.7 2 2 2 3.4z"/>
		<path id="886bfc75-882b-490b-9695-b0b028cf8175" class="st1" d="m1814 352.6-65.8 38c-1.6 0.9-3.6 0.9-5.2 0l-65.8-38c-0.9-0.5-0.9-1.8 0-2.3l65.8-38c1.6-0.9 3.6-0.9 5.2 0l65.8 38c0.8 0.6 0.8 1.8 0 2.3z"/>
		<path id="97189196-4a52-417e-b6f9-6a76cefd4e54" class="st1" d="m1814 449.7-59.7 34.4c-0.9 0.5-2-0.1-2-1.1v-68.9c0-1 1.1-1.6 2-1.1l59.7 34.4c0.8 0.5 0.8 1.7 0 2.3z"/>
	
</g>
</svg>
