<?xml version="1.0" encoding="UTF-8" standalone="no"?>
<!-- Generator: Adobe Illustrator 25.2.1, SVG Export Plug-In . SVG Version: 6.00 Build 0)  -->

<svg
   version="1.1" id="83961dcd-3765-437f-8c58-f06b9bec12f1"
   x="0px"
   y="0px"
   width="120"
   height="120"
   viewBox="0 0 120 120"
   xml:space="preserve"
   xmlns="http://www.w3.org/2000/svg"
   xmlns:svg="http://www.w3.org/2000/svg">
<style
   type="text/css">
	.st0{fill:#00CCCC;}
</style>
		<path
   class="st0"
   d="m 57.078,35.814 c 0.481,0.278 0.449,0.662 -0.072,0.855 l -30.5,11.3 c -0.325,0.162 -0.719,0.029 -0.881,-0.295 -0.056,-0.112 -0.078,-0.238 -0.065,-0.363 V 18.623 c 0,-0.555 0.393,-0.782 0.874,-0.505 z M 64.334,40 C 63.77,39.715 63.118,39.66 62.514,39.846 L 26.5,53.188 c -0.549,0.235 -0.917,0.763 -0.946,1.36 V 56.7 c 0.002,0.557 0.452,1.007 1.009,1.009 h 67.423 c 0.555,0 0.616,-0.227 0.135,-0.5 z" />
		<path
   class="st0"
   d="m 26.434,102.196 c -0.481,0.277 -0.874,0.05 -0.874,-0.505 V 73.003 c -0.013,-0.125 0.009,-0.25 0.065,-0.363 0.162,-0.325 0.556,-0.457 0.881,-0.295 l 30.5,11.3 c 0.521,0.193 0.553,0.577 0.072,0.855 z"/>
		<path
   class="st0"
   d="m 94.121,63.105 c 0.481,-0.273 0.42,-0.5 -0.135,-0.5 H 26.563 c -0.557,0.002 -1.007,0.452 -1.009,1.009 v 2.152 c 0.029,0.597 0.397,1.125 0.946,1.36 l 36.014,13.342 c 0.604,0.186 1.256,0.131 1.82,-0.154 z"/>
</svg>
