<svg xmlns="http://www.w3.org/2000/svg"
viewBox = "0 0 350 350"
width="350"
height="350">
<g fill="None" fill-opacity="0.0" stroke="#000000" stroke-opacity="0.00" stroke-width="0.3"><path d="
M 0.00 350.00 
L 350.00 350.00
L 350.00 0.00
L 0.00 0.00
L 0.00 350.00
M 200.00 112.00 
C 223.88 81.94 280.36 100.20 278.00 140.00
C 272.67 140.00 267.33 140.00 262.00 140.00
C 264.46 104.74 204.76 104.99 207.00 140.00
C 201.67 140.00 196.33 140.00 191.00 140.00
C 191.76 112.95 167.34 90.24 140.93 90.07 C 114.52 89.90 88.72 112.49 90.00 140.00
C 84.67 140.00 79.33 140.00 74.00 140.00
C 73.35 109.53 95.90 82.82 125.02 76.02 C 154.15 69.23 188.51 83.24 200.00 112.00
M 89.00 157.00 
C 98.17 154.72 108.41 156.63 118.00 156.00
C 118.00 161.00 118.00 166.00 118.00 171.00
C 108.33 171.00 98.67 171.00 89.00 171.00
C 89.01 186.18 87.45 203.32 94.80 211.25 C 102.15 219.18 113.95 220.81 123.00 216.00
C 126.00 221.57 127.14 224.51 130.00 230.00
C 123.72 231.05 116.05 235.51 108.25 233.60 C 100.45 231.70 97.77 230.72 91.70 226.30 C 85.62 221.88 81.15 217.83 78.61 211.25 C 76.07 204.67 74.46 200.88 74.00 190.00 C 73.54 179.12 75.52 165.92 74.00 154.00 C 72.48 142.08 96.41 142.62 89.00 157.00
M 66.00 167.00 
C 63.75 171.18 58.08 173.37 57.00 178.00
C 42.89 163.19 16.62 173.70 16.02 194.03 C 15.42 214.35 42.77 227.83 56.00 211.00
C 68.00 215.64 66.74 224.25 59.25 227.39 C 51.76 230.53 47.95 233.32 39.00 233.00 C 30.04 232.68 27.49 230.97 21.08 227.87 C 14.67 224.77 9.13 218.02 6.61 212.25 C 4.08 206.47 0.18 200.03 2.11 192.11 C 4.04 184.18 3.40 178.16 8.39 172.25 C 13.38 166.33 20.98 160.87 25.92 158.87 C 30.86 156.88 41.96 155.66 48.25 157.19 C 54.55 158.72 60.47 161.55 66.00 167.00
M 209.00 202.00 
C 188.33 202.00 167.67 202.00 147.00 202.00
C 154.36 220.25 177.85 224.51 190.00 209.00
C 193.50 213.04 197.41 213.54 201.00 218.00
C 191.96 230.99 173.38 235.15 159.77 231.79 C 146.16 228.43 137.24 216.58 133.80 202.75 C 130.36 188.93 135.46 171.71 148.25 163.81 C 161.04 155.92 175.20 152.95 188.77 161.58 C 202.34 170.20 210.85 183.74 209.00 202.00
M 276.00 160.00 
C 273.49 165.35 270.11 167.84 270.00 173.00
C 259.54 169.95 245.73 170.11 238.43 181.77 C 231.13 193.43 234.07 216.34 235.00 233.00
C 230.00 233.00 225.00 233.00 220.00 233.00
C 221.67 208.26 221.67 181.72 220.00 157.00
C 225.00 157.00 230.00 157.00 235.00 157.00
C 234.83 159.72 235.61 162.67 234.00 165.00
C 245.53 155.68 261.72 154.60 276.00 160.00
M 332.00 164.00 
C 331.46 154.02 342.27 157.52 349.00 157.00
C 349.00 182.33 349.00 207.67 349.00 233.00
C 342.23 232.49 331.50 235.98 332.00 226.00
C 309.52 245.05 271.77 225.46 271.02 195.97 C 270.27 166.48 308.33 143.83 332.00 164.00 Z"/>
</g>
<g fill="None" fill-opacity="0.0" stroke="#4E5CE7" stroke-opacity="0.93" stroke-width="0.3"><path d="
M 200.00 112.00 
C 188.51 83.24 154.15 69.23 125.02 76.02 C 95.90 82.82 73.35 109.53 74.00 140.00
C 79.33 140.00 84.67 140.00 90.00 140.00
C 88.72 112.49 114.52 89.90 140.93 90.07 C 167.34 90.24 191.76 112.95 191.00 140.00
C 196.33 140.00 201.67 140.00 207.00 140.00
C 204.76 104.99 264.46 104.74 262.00 140.00
C 267.33 140.00 272.67 140.00 278.00 140.00
C 280.36 100.20 223.88 81.94 200.00 112.00 Z"/>
</g>
<g fill="None" fill-opacity="0.0" stroke="#000000" stroke-opacity="0.95" stroke-width="0.3"><path d="
M 89.00 157.00 
C 96.41 142.62 72.48 142.08 74.00 154.00 C 75.52 165.92 73.54 179.12 74.00 190.00 C 74.46 200.88 76.07 204.67 78.61 211.25 C 81.15 217.83 85.62 221.88 91.70 226.30 C 97.77 230.72 100.45 231.70 108.25 233.60 C 116.05 235.51 123.72 231.05 130.00 230.00
C 127.14 224.51 126.00 221.57 123.00 216.00
C 113.95 220.81 102.15 219.18 94.80 211.25 C 87.45 203.32 89.01 186.18 89.00 171.00
C 98.67 171.00 108.33 171.00 118.00 171.00
C 118.00 166.00 118.00 161.00 118.00 156.00
C 108.41 156.63 98.17 154.72 89.00 157.00 Z"/>
</g>
<g fill="None" fill-opacity="0.0" stroke="#000000" stroke-opacity="0.96" stroke-width="0.3"><path d="
M 66.00 167.00 
C 60.47 161.55 54.55 158.72 48.25 157.19 C 41.96 155.66 30.86 156.88 25.92 158.87 C 20.98 160.87 13.38 166.33 8.39 172.25 C 3.40 178.16 4.04 184.18 2.11 192.11 C 0.18 200.03 4.08 206.47 6.61 212.25 C 9.13 218.02 14.67 224.77 21.08 227.87 C 27.49 230.97 30.04 232.68 39.00 233.00 C 47.95 233.32 51.76 230.53 59.25 227.39 C 66.74 224.25 68.00 215.64 56.00 211.00
C 42.77 227.83 15.42 214.35 16.02 194.03 C 16.62 173.70 42.89 163.19 57.00 178.00
C 58.08 173.37 63.75 171.18 66.00 167.00 Z"/>
</g>
<g fill="None" fill-opacity="0.0" stroke="#000000" stroke-opacity="0.97" stroke-width="0.3"><path d="
M 209.00 202.00 
C 210.85 183.74 202.34 170.20 188.77 161.58 C 175.20 152.95 161.04 155.92 148.25 163.81 C 135.46 171.71 130.36 188.93 133.80 202.75 C 137.24 216.58 146.16 228.43 159.77 231.79 C 173.38 235.15 191.96 230.99 201.00 218.00
C 197.41 213.54 193.50 213.04 190.00 209.00
C 177.85 224.51 154.36 220.25 147.00 202.00
C 167.67 202.00 188.33 202.00 209.00 202.00
M 193.00 188.00 
C 177.67 188.00 162.33 188.00 147.00 188.00
C 153.72 166.30 187.88 165.58 193.00 188.00 Z"/>
</g>
<g fill="None" fill-opacity="0.0" stroke="#000000" stroke-opacity="0.96" stroke-width="0.3"><path d="
M 276.00 160.00 
C 261.72 154.60 245.53 155.68 234.00 165.00
C 235.61 162.67 234.83 159.72 235.00 157.00
C 230.00 157.00 225.00 157.00 220.00 157.00
C 221.67 181.72 221.67 208.26 220.00 233.00
C 225.00 233.00 230.00 233.00 235.00 233.00
C 234.07 216.34 231.13 193.43 238.43 181.77 C 245.73 170.11 259.54 169.95 270.00 173.00
C 270.11 167.84 273.49 165.35 276.00 160.00 Z"/>
</g>
<g fill="None" fill-opacity="0.0" stroke="#000000" stroke-opacity="0.95" stroke-width="0.3"><path d="
M 332.00 164.00 
C 308.33 143.83 270.27 166.48 271.02 195.97 C 271.77 225.46 309.52 245.05 332.00 226.00
C 331.50 235.98 342.23 232.49 349.00 233.00
C 349.00 207.67 349.00 182.33 349.00 157.00
C 342.27 157.52 331.46 154.02 332.00 164.00
M 306.00 171.00 
C 323.82 169.39 338.62 185.35 332.61 203.75 C 326.59 222.16 305.14 221.65 292.75 210.25 C 280.36 198.85 287.38 172.68 306.00 171.00 Z"/>
</g>
<g fill="None" fill-opacity="0.0" stroke="#000000" stroke-opacity="0.06" stroke-width="0.3"><path d="
M 193.00 188.00 
C 187.88 165.58 153.72 166.30 147.00 188.00
C 162.33 188.00 177.67 188.00 193.00 188.00 Z"/>
</g>
<g fill="None" fill-opacity="0.0" stroke="#000000" stroke-opacity="0.02" stroke-width="0.3"><path d="
M 306.00 171.00 
C 287.38 172.68 280.36 198.85 292.75 210.25 C 305.14 221.65 326.59 222.16 332.61 203.75 C 338.62 185.35 323.82 169.39 306.00 171.00 Z"/>
</g>
<g fill="#000000" fill-opacity="0.00" stroke="None">
<path d="
M 0.00 350.00 
L 350.00 350.00
L 350.00 0.00
L 0.00 0.00
L 0.00 350.00
M 200.00 112.00 
C 223.88 81.94 280.36 100.20 278.00 140.00
C 272.67 140.00 267.33 140.00 262.00 140.00
C 264.46 104.74 204.76 104.99 207.00 140.00
C 201.67 140.00 196.33 140.00 191.00 140.00
C 191.76 112.95 167.34 90.24 140.93 90.07 C 114.52 89.90 88.72 112.49 90.00 140.00
C 84.67 140.00 79.33 140.00 74.00 140.00
C 73.35 109.53 95.90 82.82 125.02 76.02 C 154.15 69.23 188.51 83.24 200.00 112.00
M 89.00 157.00 
C 98.17 154.72 108.41 156.63 118.00 156.00
C 118.00 161.00 118.00 166.00 118.00 171.00
C 108.33 171.00 98.67 171.00 89.00 171.00
C 89.01 186.18 87.45 203.32 94.80 211.25 C 102.15 219.18 113.95 220.81 123.00 216.00
C 126.00 221.57 127.14 224.51 130.00 230.00
C 123.72 231.05 116.05 235.51 108.25 233.60 C 100.45 231.70 97.77 230.72 91.70 226.30 C 85.62 221.88 81.15 217.83 78.61 211.25 C 76.07 204.67 74.46 200.88 74.00 190.00 C 73.54 179.12 75.52 165.92 74.00 154.00 C 72.48 142.08 96.41 142.62 89.00 157.00
M 66.00 167.00 
C 63.75 171.18 58.08 173.37 57.00 178.00
C 42.89 163.19 16.62 173.70 16.02 194.03 C 15.42 214.35 42.77 227.83 56.00 211.00
C 68.00 215.64 66.74 224.25 59.25 227.39 C 51.76 230.53 47.95 233.32 39.00 233.00 C 30.04 232.68 27.49 230.97 21.08 227.87 C 14.67 224.77 9.13 218.02 6.61 212.25 C 4.08 206.47 0.18 200.03 2.11 192.11 C 4.04 184.18 3.40 178.16 8.39 172.25 C 13.38 166.33 20.98 160.87 25.92 158.87 C 30.86 156.88 41.96 155.66 48.25 157.19 C 54.55 158.72 60.47 161.55 66.00 167.00
M 209.00 202.00 
C 188.33 202.00 167.67 202.00 147.00 202.00
C 154.36 220.25 177.85 224.51 190.00 209.00
C 193.50 213.04 197.41 213.54 201.00 218.00
C 191.96 230.99 173.38 235.15 159.77 231.79 C 146.16 228.43 137.24 216.58 133.80 202.75 C 130.36 188.93 135.46 171.71 148.25 163.81 C 161.04 155.92 175.20 152.95 188.77 161.58 C 202.34 170.20 210.85 183.74 209.00 202.00
M 276.00 160.00 
C 273.49 165.35 270.11 167.84 270.00 173.00
C 259.54 169.95 245.73 170.11 238.43 181.77 C 231.13 193.43 234.07 216.34 235.00 233.00
C 230.00 233.00 225.00 233.00 220.00 233.00
C 221.67 208.26 221.67 181.72 220.00 157.00
C 225.00 157.00 230.00 157.00 235.00 157.00
C 234.83 159.72 235.61 162.67 234.00 165.00
C 245.53 155.68 261.72 154.60 276.00 160.00
M 332.00 164.00 
C 331.46 154.02 342.27 157.52 349.00 157.00
C 349.00 182.33 349.00 207.67 349.00 233.00
C 342.23 232.49 331.50 235.98 332.00 226.00
C 309.52 245.05 271.77 225.46 271.02 195.97 C 270.27 166.48 308.33 143.83 332.00 164.00 Z"/>
</g>
<g fill="#4E5CE7" fill-opacity="0.93" stroke="None">
<path d="
M 200.00 112.00 
C 188.51 83.24 154.15 69.23 125.02 76.02 C 95.90 82.82 73.35 109.53 74.00 140.00
C 79.33 140.00 84.67 140.00 90.00 140.00
C 88.72 112.49 114.52 89.90 140.93 90.07 C 167.34 90.24 191.76 112.95 191.00 140.00
C 196.33 140.00 201.67 140.00 207.00 140.00
C 204.76 104.99 264.46 104.74 262.00 140.00
C 267.33 140.00 272.67 140.00 278.00 140.00
C 280.36 100.20 223.88 81.94 200.00 112.00 Z"/>
</g>
<g fill="#000000" fill-opacity="0.95" stroke="None">
<path d="
M 89.00 157.00 
C 96.41 142.62 72.48 142.08 74.00 154.00 C 75.52 165.92 73.54 179.12 74.00 190.00 C 74.46 200.88 76.07 204.67 78.61 211.25 C 81.15 217.83 85.62 221.88 91.70 226.30 C 97.77 230.72 100.45 231.70 108.25 233.60 C 116.05 235.51 123.72 231.05 130.00 230.00
C 127.14 224.51 126.00 221.57 123.00 216.00
C 113.95 220.81 102.15 219.18 94.80 211.25 C 87.45 203.32 89.01 186.18 89.00 171.00
C 98.67 171.00 108.33 171.00 118.00 171.00
C 118.00 166.00 118.00 161.00 118.00 156.00
C 108.41 156.63 98.17 154.72 89.00 157.00 Z"/>
</g>
<g fill="#000000" fill-opacity="0.96" stroke="None">
<path d="
M 66.00 167.00 
C 60.47 161.55 54.55 158.72 48.25 157.19 C 41.96 155.66 30.86 156.88 25.92 158.87 C 20.98 160.87 13.38 166.33 8.39 172.25 C 3.40 178.16 4.04 184.18 2.11 192.11 C 0.18 200.03 4.08 206.47 6.61 212.25 C 9.13 218.02 14.67 224.77 21.08 227.87 C 27.49 230.97 30.04 232.68 39.00 233.00 C 47.95 233.32 51.76 230.53 59.25 227.39 C 66.74 224.25 68.00 215.64 56.00 211.00
C 42.77 227.83 15.42 214.35 16.02 194.03 C 16.62 173.70 42.89 163.19 57.00 178.00
C 58.08 173.37 63.75 171.18 66.00 167.00 Z"/>
</g>
<g fill="#000000" fill-opacity="0.97" stroke="None">
<path d="
M 209.00 202.00 
C 210.85 183.74 202.34 170.20 188.77 161.58 C 175.20 152.95 161.04 155.92 148.25 163.81 C 135.46 171.71 130.36 188.93 133.80 202.75 C 137.24 216.58 146.16 228.43 159.77 231.79 C 173.38 235.15 191.96 230.99 201.00 218.00
C 197.41 213.54 193.50 213.04 190.00 209.00
C 177.85 224.51 154.36 220.25 147.00 202.00
C 167.67 202.00 188.33 202.00 209.00 202.00
M 193.00 188.00 
C 177.67 188.00 162.33 188.00 147.00 188.00
C 153.72 166.30 187.88 165.58 193.00 188.00 Z"/>
</g>
<g fill="#000000" fill-opacity="0.96" stroke="None">
<path d="
M 276.00 160.00 
C 261.72 154.60 245.53 155.68 234.00 165.00
C 235.61 162.67 234.83 159.72 235.00 157.00
C 230.00 157.00 225.00 157.00 220.00 157.00
C 221.67 181.72 221.67 208.26 220.00 233.00
C 225.00 233.00 230.00 233.00 235.00 233.00
C 234.07 216.34 231.13 193.43 238.43 181.77 C 245.73 170.11 259.54 169.95 270.00 173.00
C 270.11 167.84 273.49 165.35 276.00 160.00 Z"/>
</g>
<g fill="#000000" fill-opacity="0.95" stroke="None">
<path d="
M 332.00 164.00 
C 308.33 143.83 270.27 166.48 271.02 195.97 C 271.77 225.46 309.52 245.05 332.00 226.00
C 331.50 235.98 342.23 232.49 349.00 233.00
C 349.00 207.67 349.00 182.33 349.00 157.00
C 342.27 157.52 331.46 154.02 332.00 164.00
M 306.00 171.00 
C 323.82 169.39 338.62 185.35 332.61 203.75 C 326.59 222.16 305.14 221.65 292.75 210.25 C 280.36 198.85 287.38 172.68 306.00 171.00 Z"/>
</g>
<g fill="#000000" fill-opacity="0.06" stroke="None">
<path d="
M 193.00 188.00 
C 187.88 165.58 153.72 166.30 147.00 188.00
C 162.33 188.00 177.67 188.00 193.00 188.00 Z"/>
</g>
<g fill="#000000" fill-opacity="0.02" stroke="None">
<path d="
M 306.00 171.00 
C 287.38 172.68 280.36 198.85 292.75 210.25 C 305.14 221.65 326.59 222.16 332.61 203.75 C 338.62 185.35 323.82 169.39 306.00 171.00 Z"/>
</g>
</svg>