<?xml version="1.0" encoding="utf-8"?>
<!-- Generator: Adobe Illustrator 27.0.1, SVG Export Plug-In . SVG Version: 6.00 Build 0)  -->
<svg version="1.1" id="Layer_1"  x="0px" y="0px"
	 viewBox="0 0 620.1 620.1" style="enable-background:new 0 0 620.1 620.1;" space="preserve">
<style type="text/css">
	.st0{fill-rule:evenodd;clip-rule:evenodd;}
	.st1{fill-rule:evenodd;clip-rule:evenodd;fill:#191919;}
	.st2{fill-rule:evenodd;clip-rule:evenodd;fill:#7A7A7A;}
	.st3{fill-rule:evenodd;clip-rule:evenodd;fill:#BA2025;}
	.st4{fill:#14130F;}
	.st5{fill:#FFFFFF;}
	.st6{fill:#807C7B;}
	
		.st7{clip-path:url(#SVGID_00000015314705250900888350000004293820893667159462_);fill:url(#SVGID_00000100345374105258907410000013174609535819639462_);}
	.st8{fill:none;stroke:#FFFFFF;stroke-width:6.0624;stroke-miterlimit:10;}
	.st9{fill:#F37558;}
	.st10{fill:#CE0018;}
	.st11{fill:#363C52;}
</style>
<g>
	<path class="st4" d="M588.8,303.5c0,151.1-122.5,273.5-273.5,273.5S41.8,454.6,41.8,303.5S164.3,30,315.3,30
		S588.8,152.5,588.8,303.5 M315.3,120.3c-101.2,0-183.2,82-183.2,183.2s82,183.2,183.2,183.2s183.2-82,183.2-183.2
		S416.5,120.3,315.3,120.3"/>
	<path class="st5" d="M407.6,303.5c0,51-41.3,92.3-92.3,92.3c-51,0-92.3-41.3-92.3-92.3s41.3-92.3,92.3-92.3
		C366.3,211.3,407.6,252.6,407.6,303.5"/>
	<path class="st6" d="M498.6,303.5c0,101.2-82,183.2-183.2,183.2s-183.2-82-183.2-183.2c0-101.2,82-183.2,183.2-183.2
		S498.6,202.3,498.6,303.5 M315.3,211.3c-51,0-92.3,41.3-92.3,92.3c0,51,41.3,92.3,92.3,92.3s92.3-41.3,92.3-92.3
		C407.6,252.6,366.3,211.3,315.3,211.3"/>
	<g>
		<defs>
			<path id="SVGID_1_" d="M62,162.7C37.3,205,24.3,253.6,24.3,303.2c0,50.8,13.7,100.5,39.6,143.5l2.1,3.5l241.9-145.7L64.1,159.2
				L62,162.7z"/>
		</defs>
		<clipPath id="SVGID_00000173162641344484642690000005627004592198075062_">
			<use href="#SVGID_1_"  style="overflow:visible;"/>
		</clipPath>
		
			<linearGradient id="SVGID_00000016797961648004891140000004688457361552148658_" gradientUnits="userSpaceOnUse" x1="-1798.5496" y1="1335.283" x2="-1797.2262" y2="1335.283" gradientTransform="matrix(0.9159 -94.3428 -94.3428 -0.9159 127787.875 -168155.5)">
			<stop  offset="0" style="stop-color:#B72025"/>
			<stop  offset="1" style="stop-color:#151410"/>
		</linearGradient>
		
			<polygon style="clip-path:url(#SVGID_00000173162641344484642690000005627004592198075062_);fill:url(#SVGID_00000016797961648004891140000004688457361552148658_);" points="
			21.4,450.1 24.3,156.5 310.7,159.2 307.9,452.9 		"/>
	</g>
	<g>
		<path class="st8" d="M63.9,446.7C38,403.6,24.3,354,24.3,303.2c0-49.6,13.1-98.1,37.8-140.4l2.1-3.5l243.8,145.2L66,450.1
			L63.9,446.7z"/>
	</g>
</g>
</svg>
