<svg version="1.1" id="4c4e8e3c-bbe4-4b5b-82ec-fa11debb3ee4" xmlns="http://www.w3.org/2000/svg" x="0px" y="0px" viewBox="0 0 620.1 620.1" space="preserve">
<style type="text/css">.st4{fill:#14130f}.st5{fill:#fff}.st6{fill:#807c7b}.st7{clip-path:url(#ee77e82b-f07e-47a7-b7a4-2d4b5add8653);fill:url(#e034be07-26a1-4faa-b277-6d0d198607de)}.st8{fill:none;stroke:#fff;stroke-width:6.0624;stroke-miterlimit:10}</style>
<linearGradient id="e034be07-26a1-4faa-b277-6d0d198607de" gradientUnits="userSpaceOnUse" x1="-1798.5496" y1="1335.283" x2="-1797.2262" y2="1335.283" gradientTransform="matrix(0.9159 -94.3428 -94.3428 -0.9159 127787.875 -168155.5)">
<stop offset="0" stop-color="#b72025"/>
<stop offset="1" stop-color="#151410"/>
</linearGradient>
<g>
<path class="st4" d="M588.8,303.5c0,151.1-122.5,273.5-273.5,273.5S41.8,454.6,41.8,303.5S164.3,30,315.3,30 S588.8,152.5,588.8,303.5 M315.3,120.3c-101.2,0-183.2,82-183.2,183.2s82,183.2,183.2,183.2s183.2-82,183.2-183.2 S416.5,120.3,315.3,120.3"/>
<path class="st5" d="M407.6,303.5c0,51-41.3,92.3-92.3,92.3c-51,0-92.3-41.3-92.3-92.3s41.3-92.3,92.3-92.3 C366.3,211.3,407.6,252.6,407.6,303.5"/>
<path class="st6" d="M498.6,303.5c0,101.2-82,183.2-183.2,183.2s-183.2-82-183.2-183.2c0-101.2,82-183.2,183.2-183.2 S498.6,202.3,498.6,303.5 M315.3,211.3c-51,0-92.3,41.3-92.3,92.3c0,51,41.3,92.3,92.3,92.3s92.3-41.3,92.3-92.3 C407.6,252.6,366.3,211.3,315.3,211.3"/>
<g>
<defs>
<path id="20e7e3d6-b249-48cf-ab37-6120d34a93fc" d="M62,162.7C37.3,205,24.3,253.6,24.3,303.2c0,50.8,13.7,100.5,39.6,143.5l2.1,3.5l241.9-145.7L64.1,159.2 L62,162.7z"/>
</defs>
<clipPath id="ee77e82b-f07e-47a7-b7a4-2d4b5add8653">
<use href="#20e7e3d6-b249-48cf-ab37-6120d34a93fc"/>
</clipPath>
<polygon class="st7" points="21.4,450.1 24.3,156.5 310.7,159.2 307.9,452.9"/>
</g>
<g>
<path class="st8" d="M63.9,446.7C38,403.6,24.3,354,24.3,303.2c0-49.6,13.1-98.1,37.8-140.4l2.1-3.5l243.8,145.2L66,450.1 L63.9,446.7z"/>
</g>
</g>
</svg>