<svg xmlns="http://www.w3.org/2000/svg" width="40" height="40" viewBox="0 4 40 40">
  <g>
    <g>
      <path d="M38.121,28.7a3.565,3.565,0,0,0-5.033-.147A3.627,3.627,0,0,0,32,30.7a7.4,7.4,0,0,1-.576.62,10.823,10.823,0,0,1-7.768,3.24,10.981,10.981,0,0,1-7.809-3.247,11.169,11.169,0,0,1-1.164-1.4l-.449-.635H8.083l1.2,2.214a16.739,16.739,0,0,0,2.75,3.669,16.46,16.46,0,0,0,23.218,0c.139-.141.271-.28.4-.42V34.7l.042.044v-.051l.023-.022a3.63,3.63,0,0,0,2.236-.966A3.547,3.547,0,0,0,38.121,28.7Z" fill="#3b1c34"/>
      <path d="M14.683,17.157a13.4,13.4,0,0,1,1.155-1.39,11.087,11.087,0,0,1,7.818-3.223,10.925,10.925,0,0,1,7.776,3.215c.1.1.192.212.289.318a3.635,3.635,0,0,0,.994,2.19A3.543,3.543,0,1,0,37.8,13.328a3.631,3.631,0,0,0-2.173-1.06l-.022.021c-.116-.12-.233-.24-.348-.339a16.378,16.378,0,0,0-23.221-.007,15.782,15.782,0,0,0-2.751,3.635l-1.2,2.214h6.151Z" fill="#3b1c34"/>
    </g>
    <path d="M18.656,20.475a2.978,2.978,0,0,0-2.125.864H5.15a2.973,2.973,0,0,0-2.123-.864,3.06,3.06,0,1,0,2.107,5.289H16.55a3.078,3.078,0,0,0,2.106.83,3.06,3.06,0,0,0,0-6.119Z" fill="#5dcfca"/>
  </g>
</svg>
