<svg xmlns="http://www.w3.org/2000/svg" width="41" height="40" fill="none"><g clip-path="url(#a)"><path fill="#013170" d="M18.868.063A19.46 19.46 0 0 1 32.853 4.47a19.4 19.4 0 0 1 5.457 6.548 19.2 19.2 0 0 1 2.106 8.226 19 19 0 0 1-1.04 7.414 19.1 19.1 0 0 1-3.832 6.455c-3.852 4.372-8.49 6.65-14.658 6.807-5.717.151-10.637-1.589-14.706-5.502C2.11 30.504.106 25.674 0 20.027A19.77 19.77 0 0 1 4.55 7.52a19.8 19.8 0 0 1 6.354-5.24A20 20 0 0 1 18.868.063M27.47 4.03a15.7 15.7 0 0 0-8.795-1.473A18.6 18.6 0 0 0 14.37 3.6a19.3 19.3 0 0 0-4.145 2.163A16.3 16.3 0 0 0 7.95 7.601c-.815.812-1.507 1.739-2.24 2.626q-.25.316-.44.667c.3-.104.95-.429 1.25-.533.298-.104.667-.273 1.013-.365.235-.064.381.081.317.313l-1.295 4.714-.1.295c-.352-.168-2.642-1.563-2.791-1.287-.147.278.1.284.24.36l1.002.58 1.384.747c-.311.366-3.687 3.797-3.764 3.954-.07.151-.035.215 0 .239a.35.35 0 0 0 .276 0c.076-.03.134-.122.199-.186 1.02-1.05 3.184-3.358 3.254-3.48 0 0 1.718 3.927 2.557 5.916l-1.625-.233c-1.319-.18-2.644-.365-3.97-.527a.65.65 0 0 0-.486.191c-.216.244.194.58.381.73l2.592 1.74 2.434 1.676a1.7 1.7 0 0 0-.153.318c-.228 1.079-.47 2.163-.674 3.247a.776.776 0 0 0 .416.911 68 68 0 0 1 3.588 2.21c1.173.765 4.333 2.846 4.726 3.136s.669.51.669.51c.117.284.586 1.276.586 1.276l.833.034 1.343.03c1.95.04 3.896-.179 5.787-.65l.17-.04q.652-.176 1.278-.43a15 15 0 0 0 1.823-.858 23 23 0 0 0 2.211-1.409 19 19 0 0 0 1.759-1.479 16.5 16.5 0 0 0 1.612-1.808q.76-.947 1.367-1.995.658-1.216 1.172-2.498a19 19 0 0 0 1.172-4.877c.11-1.088.078-2.185-.093-3.265a20.45 20.45 0 0 0-3.301-8.117 18.9 18.9 0 0 0-6.96-5.955M10.607 27.645q.125.118.2.273l3.605 5.543c.1.162.211.319.322.475l-.07.058-7.018-4.32.745-3.52c.768.517 1.495.998 2.216 1.491M6.603 15.991c.121.008 9.047 2.696 9.205 2.748l-1.173.637-4.943 2.72c-.369.203-.363.307 0 .58q2.809 2.035 5.594 4.059l.375.26a17.6 17.6 0 0 0-.669 3.16c-.105.865-.023 2.616-.03 3.352-.07-.092-.14-.18-.198-.267a3486 3486 0 0 0-3.612-5.555 1.9 1.9 0 0 0-.51-.521A26 26 0 0 0 9 26.062a.5.5 0 0 1-.246-.667c.193-.696.357-1.409.586-2.098a1.46 1.46 0 0 0-.059-1.091c-.826-1.941-2.587-6.05-2.678-6.215m9.692 2.957c0 .214.03.37.04.527.089 1.635.147 3.88.306 5.219a2.3 2.3 0 0 1-.387 1.478 3.3 3.3 0 0 1-.381.406 5 5 0 0 1-.47-.302l-5.094-3.7c-.082-.057-.159-.126-.276-.219zm-7.236 3.728-.745 2.697-5.095-3.427v-.11zm7.664-3.681c.193.11.345.214.504.295l3.94 2.018q.19.097.37.214s-.317.18-.493.296c-.516.33-1.044.655-1.554 1.003l-.446.307c-.352.261-.697.534-1.025.824-.329.29-.657.603-.992.898-.1-1.878-.199-3.994-.304-5.855m9.662-5.457a4.34 4.34 0 0 1 2.023.04 6.8 6.8 0 0 1 2.645 1.6 6.7 6.7 0 0 1 1.653 2.593 6.74 6.74 0 0 1 0 4.191c-.094.279-.376.97-.376.97a7 7 0 0 1-.351-.273c-.414-.38-1.39-1.35-1.402-1.362l.018-2.738-4.439-4.412c-.117-.122-.322-.238-.17-.43a.67.67 0 0 1 .399-.18m-9.146.453c.012-.22.13-.319.31-.255.282.104 3.13 1.57 3.307 1.682-.768.55-3.828 2.632-3.828 2.684q-.087.165-.146.342c.129 0 .287.064.38 0 1.103-.713 2.182-1.455 3.284-2.156.926-.586 1.876-1.126 2.814-1.705.1-.058.716-.447.939-.551a.73.73 0 0 1 .275.556c-.469 1.949-.944 3.868-1.366 5.798a1.03 1.03 0 0 1-.463.73 1.15 1.15 0 0 1-1.05-.051c-1.419-.661-2.797-1.409-4.198-2.116-.182-.093-.41-.117-.586-.227a.4.4 0 0 1-.135-.336c.112-1.183.246-2.383.375-3.543.03-.272.076-.632.088-.852m8.037.191a.7.7 0 0 1 .5.197q2.128 2.064 4.233 4.181a.7.7 0 0 1 .176.423v2.047a10 10 0 0 0-1.501-.395 12 12 0 0 0-2.17-.156q-1.093.023-2.175.168-.42.058-.821.186c.123-.545.275-1.12.392-1.619.37-1.553.733-3.107 1.114-4.637.036-.15.153-.383.252-.395m-8.935 4.269-8.795-2.453v-.122l9.528-4.174zM9.654 9.098a2 2 0 0 1 1.194.132c1.817.881 3.8 1.28 5.687 1.97l.363.129c-3.336 1.438-6.56 2.9-9.82 4.302-.212 0-.235-.122-.182-.319.445-1.612.885-3.236 1.342-4.848.06-.288.184-.559.364-.794.282-.293.65-.493 1.052-.572m14.034 4.256q.128.034.246.093a.45.45 0 0 1 .199.139c.047.075 0 .156-.065.226a.8.8 0 0 1-.181.127.54.54 0 0 1-.252.059c-.164-.006-.246-.18-.246-.36s.093-.348.299-.284m-3.227-3.97a1 1 0 0 1 .618.1c.862.366 1.777.703 2.621 1.161.545.296 1.067.626 1.595.956.264.168.521.354.773.545q.26.185.488.406c.076.081.193.157.222.267a.254.254 0 0 1-.152.284 6 6 0 0 1-.774.174 2.9 2.9 0 0 1-1.49-.099c-.095-.03-1.085-.307-1.266-.377l-3.125-1.159c-.516-.185-1.038-.353-1.59-.539q.092-.113.194-.215l1.331-1.218a1 1 0 0 1 .555-.287m-2.981 2.154c.644-.302 1.254.068 1.87.295l1.026.382c.123.024.591.122.662.279a.1.1 0 0 1 0 .053c0 .243-.445.33-.621.341a19 19 0 0 1-1.267.058c-.422.006-1.225.162-1.606-.25a.75.75 0 0 1-.129-.58 4 4 0 0 1 .065-.578m-.505-2.992q.23-.009.457.041l1.46.232c.293.058 1.061.203.704.522-1.366 1.259-1.9 1.681-1.9 1.681-.382-.701-.75-1.357-1.108-2.023-.1-.192.087-.424.387-.453m-1.706-.14c.178.001.352.057.497.161.144.104.25.25.305.419.293.545.985 1.79 1.038 1.948-.176-.046-5.171-1.64-5.318-1.74-.146-.098-.07-.173 0-.26a.8.8 0 0 1 .275-.203q.376-.139.775-.18c.182 0 .363-.046.55-.063.622-.064 1.25-.07 1.878-.081"/></g><defs><clipPath id="d8933f8a-1d55-4df1-be20-aeaf18942c83"><path fill="#fff" d="M0 0h41v40H0z"/></clipPath></defs></svg>