<?xml version="1.0" encoding="utf-8"?>
<!-- Generator: Adobe Illustrator 27.6.1, SVG Export Plug-In . SVG Version: 6.00 Build 0)  -->
<svg version="1.1" id="Layer_1" x="0px" y="0px"
	 viewBox="0 0 75 75" style="enable-background:new 0 0 75 75;" xml:space="preserve">
<style type="text/css">
	.st0{fill:#010101;}
	.st1{fill:#00ADE7;}
</style>
<g>
	<path class="st0" d="M69.44,19.29L37.5,5.87L5.56,19.29c-3.23,1.36-5.24,4.07-5.24,7.07v22.26c0,3,2.01,5.71,5.24,7.07L37.5,69.13
		l31.94-13.43c3.23-1.36,5.24-4.07,5.24-7.07V26.37C74.68,23.36,72.68,20.65,69.44,19.29z M66.49,29.38v16.23
		c0,2.1-1.54,4.03-4.02,5.04l-21.34,8.72c-2.22,0.91-5.03,0.91-7.25,0l-21.34-8.72c-2.48-1.01-4.02-2.94-4.02-5.04V29.38
		c0-2.1,1.54-4.03,4.02-5.04l21.34-8.72c1.14-0.46,2.38-0.7,3.63-0.7c1.25,0,2.49,0.23,3.63,0.7l21.34,8.72
		C64.95,25.36,66.49,27.29,66.49,29.38z"/>
	<g>
		<path class="st0" d="M32.3,33.82L17.41,29.7v3.19c0,2.92,0.76,4.77,4.04,6.74l12.91,7.2l0.03-10.75
			C34.39,35.1,33.57,34.2,32.3,33.82z"/>
		<path class="st1" d="M42.7,33.82l14.89-4.12v3.19c0,2.92-0.76,4.77-4.04,6.74l-12.91,7.2l-0.03-10.75
			C40.61,35.1,41.43,34.2,42.7,33.82z"/>
	</g>
</g>
</svg>
