<?xml version="1.0" encoding="utf-8"?>
<!-- Generator: Adobe Illustrator 27.9.0, SVG Export Plug-In . SVG Version: 6.00 Build 0)  -->
<svg version="1.1" id="3f29f752-be8d-42a8-9209-552f8355723b" xmlns="http://www.w3.org/2000/svg" x="0px" y="0px"
	 viewBox="0 0 1617.5 354.2" xml:space="preserve">
<style type="text/css">
	.st0{fill:#00ADE7;}
</style>
<g>
	<g>
		<path d="M36.4,84.9v69.3c0,9.4,8.3,17.1,18.2,17.1h206.9v34.9H54.6C24.4,206.1,0,182.6,0,154.2V84.9C0,56.3,24.4,33,54.6,33h166.7
			l40.7,34.6H54.6C44.7,67.6,36.4,75.6,36.4,84.9z"/>
		<path d="M402.6,127.2v78.9h-36.7v-78.9L255.2,33h54.6l74.4,63.3L458.8,33h54.6L402.6,127.2z"/>
		<path d="M1616.8,102.2h-151.1v35.3h115.6v16.7c0,9.4-8.8,17.1-18.5,17.1h-145.6c-9.9,0-17.9-7.7-17.9-17.1V84.9
			c0-9.4,8.1-17.3,17.9-17.3h200.3L1577.1,33h-159.9c-29.9,0-54.6,23.2-54.6,51.9v69.3c0,28.4,24.7,51.9,54.6,51.9h145.6
			c30.2,0,54.6-23.5,54.6-51.9v-52L1616.8,102.2z"/>
		<path d="M1311,206.1h44.1l-50.7-70.4c22.7-6.5,39.3-26.6,39.3-50.4c0,0,0,0,0,0s0,0,0,0c0-29-24.8-52.6-55.1-52.6h-161.5
			l-20.2,17.2l-21,17.9h202.8c10,0,18.4,8,18.4,17.5c0,0,0,0,0,0s0,0,0,0c0,9.5-8.4,17.5-18.4,17.5h-202.8v17.2V138v68.2h36.7V138
			h139.2L1311,206.1z"/>
		<path d="M762.4,85.2c0-28.8-24.6-52.2-54.6-52.2H547.3l-40.9,34.8h201.4c9.9,0,18.3,8,18.3,17.4c0,9.7-8.4,17.4-18.3,17.4H543.1
			h-36.6h-0.1v103.5l201.4,0c30.1,0,54.6-23.6,54.6-52.2c0-13.4-5.2-24.7-13.9-33.9C757.2,110.6,762.4,98.6,762.4,85.2z
			 M707.8,171.1H543.1v-34.6h164.7c9.9,0,18.3,7.7,18.3,17.4C726.1,163.4,717.7,171.1,707.8,171.1z"/>
		<g>
			<path d="M1044.3,50.8L923.6,0L802.8,50.8C790.6,55.9,783,66.1,783,77.5v84.2c0,11.4,7.6,21.6,19.8,26.7l120.7,50.8l120.7-50.8
				c12.2-5.1,19.8-15.4,19.8-26.7V77.5C1064.1,66.1,1056.5,55.9,1044.3,50.8z M1033.1,88.9v61.3c0,7.9-5.8,15.2-15.2,19l-80.7,32.9
				c-8.4,3.4-19,3.4-27.4,0l-80.7-32.9c-9.4-3.8-15.2-11.1-15.2-19V88.9c0-7.9,5.8-15.2,15.2-19l80.7-32.9c4.3-1.8,9-2.6,13.7-2.6
				c4.7,0,9.4,0.9,13.7,2.6l80.7,32.9C1027.3,73.7,1033.1,81,1033.1,88.9z"/>
			<g>
				<path d="M903.9,105.7l-56.3-15.6v12c0,11,2.9,18,15.3,25.5l48.8,27.2l0.1-40.6C911.8,110.5,908.7,107.1,903.9,105.7z"/>
				<path class="st0" d="M943.3,105.7l56.3-15.6v12c0,11-2.9,18-15.3,25.5l-48.8,27.2l-0.1-40.6
					C935.3,110.5,938.4,107.1,943.3,105.7z"/>
			</g>
		</g>
	</g>
	<g>
		<path class="st0" d="M269.4,312.9c0,10.2,8.7,18.5,19.4,18.5h47.8c2.5,0,4.5,1.9,4.5,4.2c0,2.3-2.1,4.2-4.5,4.2h-67.2v14.3h67.2
			c10.7,0,19.4-8.3,19.4-18.5s-8.7-18.5-19.4-18.5h-47.8c-2.5,0-4.5-1.9-4.5-4.2c0-2.3,2.1-4.2,4.5-4.2H356v-14.3h-67.2
			C278.1,294.4,269.4,302.7,269.4,312.9z"/>
		<path class="st0" d="M421.5,312.9v22.7c0,10.2,8.7,18.5,19.5,18.5h67.2v-14.3H441c-2.5,0-4.5-1.9-4.5-4.2v-4.2h71.8v-14.3h-71.8
			v-4.2c0-2.3,2-4.2,4.5-4.2h67.2v-14.3H441C430.2,294.4,421.5,302.7,421.5,312.9z"/>
		<path class="st0" d="M573.6,312.9v22.7c0,10.2,8.7,18.5,19.4,18.5h67.2v-14.3H593c-2.5,0-4.5-1.9-4.5-4.2v-22.7
			c0-2.3,2.1-4.2,4.5-4.2h67.2v-14.3H593C582.3,294.4,573.6,302.7,573.6,312.9z"/>
		<path class="st0" d="M797.5,335.7c-0.1,2.4-2.1,4.2-4.6,4.2h-47.7c-2.5,0-4.5-1.9-4.5-4.2v-41.2h-14.9v41.2
			c0,10.2,8.7,18.5,19.5,18.5h47.7c10.7,0,19.5-8.3,19.5-18.5v-41.2h-14.9L797.5,335.7z"/>
		<path class="st0" d="M964.3,318.6v-5.7c0-10.2-8.7-18.5-19.3-18.5h-67.2v59.8h14.9v-17.1h42.9l12,17.1h17.9l-12.9-18.5
			C959.6,332.9,964.3,326.3,964.3,318.6z M892.7,308.7H945c2.5,0,4.5,1.9,4.5,4.2v5.7c0,2.3-2,4.2-4.5,4.2h-52.4V308.7z"/>
		<rect x="1029.8" y="294.4" class="st0" width="14.9" height="59.8"/>
		<polygon class="st0" points="1110.1,308.7 1145.9,308.7 1145.9,354.2 1160.8,354.2 1160.8,308.7 1196.7,308.7 1196.7,294.4 
			1110.1,294.4 		"/>
		<polygon class="st0" points="1325.6,294.4 1301.7,314.8 1277.8,294.4 1255.4,294.4 1294.2,327.5 1294.2,354.2 1309.2,354.2 
			1309.2,327.5 1348.1,294.4 		"/>
	</g>
</g>
</svg>
