<?xml version="1.0" encoding="UTF-8"?>
<!-- Generator: visioncortex VTracer -->
<svg id="svg" version="1.1" xmlns="http://www.w3.org/2000/svg" style="display: block;" viewBox="0 0 400 400"><path d="M0 0 C132 0 264 0 400 0 C400 132 400 264 400 400 C268 400 136 400 0 400 C0 268 0 136 0 0 Z " transform="translate(0,0)" style="fill: #28105B;"/><path d="M0 0 C6.73262532 4.1748157 11.12630123 9.83294867 13.58984375 17.37109375 C15.32461107 25.18471513 14.15135196 31.66831567 10.0625 38.5 C5.693524 45.04053804 0.41182357 48.05022548 -6.9375 50.5 C-8.5053217 50.6129615 -10.07690154 50.67777246 -11.6484375 50.7109375 C-13.02128906 50.75347656 -13.02128906 50.75347656 -14.421875 50.796875 C-16.34095557 50.84874204 -18.26025526 50.89307708 -20.1796875 50.9296875 C-25.29437311 51.10209263 -28.70053651 51.3433778 -32.9375 54.5 C-33.5975 54.5 -34.2575 54.5 -34.9375 54.5 C-35.246875 55.28375 -35.55625 56.0675 -35.875 56.875 C-36.9375 59.5 -36.9375 59.5 -37.9375 61.5 C-38.03130054 63.12296757 -38.06928994 64.74934807 -38.078125 66.375 C-38.09746094 67.36113281 -38.11679688 68.34726563 -38.13671875 69.36328125 C-38.17006394 71.42298784 -38.18876187 73.48299396 -38.19140625 75.54296875 C-38.41061461 84.46128781 -40.76550064 91.41699961 -46.98046875 97.9609375 C-48.01585634 98.94591296 -49.06403014 99.91763535 -50.125 100.875 C-54.69730412 105.11004832 -57.58019452 107.86487212 -58.4375 114.1875 C-58.19831755 121.78506033 -52.48689786 127.08481479 -47.3125 132.0625 C-46.21035156 133.05443359 -46.21035156 133.05443359 -45.0859375 134.06640625 C-38.48031053 141.54878008 -38.40994073 148.75716534 -38.44921875 158.3671875 C-38.35577936 164.5002091 -37.79329953 169.53067545 -33.9375 174.5 C-29.1569541 178.02766491 -24.34420212 177.93670448 -18.625 178 C-4.81403564 178.15505493 3.30384419 182.63267651 12.9375 192.3125 C13.67742187 193.08207031 14.41734375 193.85164062 15.1796875 194.64453125 C18.171152 197.59255124 20.20476381 197.70587843 24.3125 197.8125 C29.53676599 197.72441251 32.06736534 197.07012034 36.0625 193.5 C37.64658092 191.85488619 39.22982817 190.20896946 40.8125 188.5625 C49.85627265 179.5320466 57.04389024 177.91729583 69.57543945 177.86303711 C74.79331093 177.80985708 78.65833342 177.62511221 83.0625 174.5 C87.73250949 169.42525635 87.56711437 164.77760484 87.5625 158.25 C87.93620858 144.26347722 91.30516342 137.58779896 101.0625 127.5 C105.74920086 122.16267479 107.45725875 119.17931721 107.32421875 112.015625 C106.69655027 105.98251302 102.28086193 102.75778174 98.125 98.8125 C91.78503079 92.55681398 87.98348221 86.07321532 87.375 77.0625 C87.78797004 69.05546982 91.58477178 61.34417919 97.5 55.9375 C105.01779956 50.40922657 111.79968399 49.35453881 121.0625 50.5 C129.94840905 53.16207539 135.29910906 58.9537762 140 66.6875 C142.11459439 74.27516222 142.32321971 81.73648598 138.875 88.9375 C135.34792044 95.05308053 131.16623146 99.64917752 125.61328125 104.0078125 C122.37103817 107.1275527 121.69491784 110.34862943 121.5 114.75 C121.54361076 119.40389134 122.44421167 121.61663391 125.5625 125.0625 C126.2121875 125.68253906 126.861875 126.30257812 127.53125 126.94140625 C129.0625 128.5 129.0625 128.5 129.0625 130.5 C129.7225 130.5 130.3825 130.5 131.0625 130.5 C131.0625 131.16 131.0625 131.82 131.0625 132.5 C131.7225 132.5 132.3825 132.5 133.0625 132.5 C138.67469077 139.36273328 141.59779641 146.02322331 141.37109375 154.91796875 C140.43630338 162.73944261 135.94972961 169.42757215 130.0625 174.5 C123.2163268 179.1906454 115.20106394 179.01476023 107.19458008 179.08569336 C102.06828212 179.17350472 98.5019255 179.640709 94.0625 182.5 C90.47223088 186.47840633 88.95213184 188.85121749 88.921875 194.15625 C88.56535385 215.61217283 88.56535385 215.61217283 81.1640625 223.53125 C75.45331309 228.87003489 70.16685123 231.92861431 62.1875 231.9375 C61.03507813 231.95683594 59.88265625 231.97617187 58.6953125 231.99609375 C50.66550142 230.89954966 45.67521794 226.66415093 40.3125 220.875 C34.98747545 214.88239092 34.98747545 214.88239092 27.6953125 212.1640625 C21.84929322 212.07300301 18.61400611 212.51743215 14.0625 216.5 C12.47698137 218.14372823 10.89389507 219.7898042 9.3125 221.4375 C2.67833987 228.13098198 -3.00004188 231.69853101 -12.5625 232.0625 C-18.22326542 231.82940966 -22.28844905 230.71005899 -26.9375 227.5 C-28.29875 226.571875 -28.29875 226.571875 -29.6875 225.625 C-35.38512515 220.24390958 -37.93435323 214.2748556 -38.24609375 206.53125 C-38.32357369 203.75389227 -38.3753317 200.97734953 -38.41601562 198.19921875 C-38.57116901 192.90886658 -38.95790627 189.0625029 -41.9375 184.5 C-45.91590633 180.90973088 -48.28871749 179.38963184 -53.59375 179.359375 C-75.87560815 178.98912975 -75.87560815 178.98912975 -84.875 169.75 C-89.68321464 163.69437119 -91.70160041 156.88879068 -91.40234375 149.16796875 C-89.76024403 139.74314433 -84.14834802 133.05716367 -77.20703125 126.8515625 C-73.69292333 123.21043863 -71.51761903 119.24026905 -71.375 114.125 C-71.66004575 106.72620371 -77.02147289 102.34278447 -82.0625 97.5 C-87.94939676 91.79319951 -91.03392316 85.15551676 -91.3125 76.9375 C-91.22217916 69.45893447 -89.08665139 63.99173689 -84.0703125 58.4296875 C-75.79238786 50.73153969 -68.44687806 50.07919152 -57.58789062 49.97265625 C-52.34441584 49.8444908 -48.35737631 49.63711522 -43.9375 46.5 C-39.13350439 41.34488179 -39.50398019 36.5198118 -39.5625 29.875 C-39.3531672 19.6033433 -38.35182777 11.85723469 -30.71484375 4.30078125 C-21.60833651 -3.19422387 -10.902963 -5.48876934 0 0 Z " transform="translate(174.9375,84.5)" style="fill: #1DEF6C;"/><path d="M0 0 C4.85122951 3.98878871 9.9058498 9.62685709 11 16 C11.6158906 24.19841253 11.80743554 31.10822177 7 38 C6.46375 38.886875 5.9275 39.77375 5.375 40.6875 C-0.953289 46.84925508 -9.36058306 49.44287996 -18.015625 49.33984375 C-24.50982603 48.60032086 -29.9463036 45.5116811 -34.375 40.75 C-39.51532419 33.95951492 -41.77960264 27.56710241 -41.44140625 18.9921875 C-40.24927511 10.91101532 -36.15032551 5.47036715 -29.96484375 0.375 C-20.59727711 -6.18043431 -9.71107185 -5.14115569 0 0 Z " transform="translate(252,86)" style="fill: #1DEF6D;"/></svg>