<?xml version="1.0" encoding="UTF-8"?>
<svg id="Layer_1" xmlns="http://www.w3.org/2000/svg" version="1.1" viewBox="0 0 850.4 255.1">
  <defs>
    <style>
      .st0 {
        fill: #1df26d;
      }
    </style>
  </defs>
  <g id="Layer_11">
    <path d="M311,191.9c-14.9,0-26.6-4.3-35.4-12.7s-13.1-20.7-13.1-36.7v-28.8c0-16,4.4-28.3,13.1-36.7,8.8-8.4,20.5-12.7,35.4-12.7s26,4,33.9,12.1,11.9,19.3,11.9,33.4v.8h-17.5v-1.4c0-8.5-2.3-15.6-6.9-20.9-4.5-5.4-11.7-8.1-21.4-8.1s-17.1,2.9-22.6,8.8c-5.5,5.8-8.3,13.9-8.3,24.4v29.6c0,10.3,2.8,18.3,8.3,24.3s13.1,8.8,22.6,8.8,16.7-2.8,21.4-8.1c4.5-5.4,6.9-12.4,6.9-20.9v-2.8h17.5v2.3c0,14.2-4,25.2-11.9,33.4-7.8,7.7-19.1,11.9-33.9,11.9h0Z"/>
    <path d="M406.5,190.4v-45.1l-43-77.6h20l30.5,56.6h2.6l30.4-56.6h20.1l-43,77.6v45.1h-17.6Z"/>
    <path d="M482.6,190.4v-122.7h76.8v16.1h-59.1v36.8h51.4v16.1h-51.4v37.5h60v16.1h-77.7q0,0,0,0h0Z"/>
    <path d="M583.3,190.4v-122.7h50.9c7.7,0,14.5,1.4,20.1,4,5.8,2.6,10.2,6.3,13.5,11.3s5,10.8,5,17.5v1.9c0,7.7-1.9,13.9-5.7,18.6-3.7,4.7-8.3,7.9-13.5,9.6v2.8h2.9c4.4.1,8,1.5,10.8,4.3,2.6,2.8,4,6.8,4,11.9v40.8h-17.6v-38.6c0-3.2-.8-5.7-2.6-7.6-1.8-1.9-4.4-2.8-8.1-2.8h-41.8v48.9h-17.9q0,0,0,0h0ZM601.1,125.3h31.4c7.2,0,12.7-1.8,16.7-5.4s5.9-8.5,5.9-14.7v-1.2c0-6.3-1.9-11.3-5.8-14.7-3.9-3.6-9.5-5.4-16.8-5.4h-31.4v41.4h0Z"/>
    <path d="M683.7,190.4l35.7-122.7h31l36,122.7h-18.5l-8.4-29.6h-49.2l-8.4,29.6h-18.2,0ZM714.7,144.6h40.5l-18.9-66h-2.6l-19,66Z"/>
    <g>
      <path class="st0" d="M159.2,46.5h0c-10.2,0-18.3,8.2-18.3,18.3h0c0,10.2,8.2,18.3,18.3,18.3h0c10.2,0,18.3-8.2,18.3-18.3h0c-.1-10-8.2-18.3-18.3-18.3Z"/>
      <path class="st0" d="M208.8,114.8c3.2-3.4,5.3-8,5.3-13.1v-.6c0-9.9-8-17.9-17.9-17.9h-.5c-10.2,0-18.4,8.2-18.4,18.3h0c0,5.1,2.1,9.6,5.3,13l5.7,5.7c4.1,4.1,4.1,10.6,0,14.6l-5.7,5.7c-3.4,3.4-5.3,7.9-5.3,13v8c0,5.7-4.6,10.3-10.3,10.3h-8c-5.1,0-9.6,2.1-13,5.3l-5.7,5.7c-4.1,4.1-10.6,4.1-14.6,0l-5.7-5.7c-3.4-3.4-7.9-5.3-13-5.3h-8c-5.7,0-10.3-4.6-10.3-10.3v-8c0-5.1-2.1-9.6-5.3-13l-5.7-5.7c-4.1-4.1-4.1-10.6,0-14.6l5.7-5.7c3.4-3.4,5.3-7.9,5.3-13v-8c0-5.7,4.6-10.3,10.3-10.3h8c10.2,0,18.3-8.2,18.3-18.3h0c0-10.1-8.2-18.3-18.3-18.3h0c-10.2,0-18.3,8.2-18.3,18.3v8c0,5.7-4.6,10.3-10.3,10.3h-8c-10.2,0-18.3,8.2-18.3,18.3h0c0,5.1,2.1,9.6,5.3,13l5.7,5.7c4.1,4.1,4.1,10.6,0,14.6l-5.7,5.7c-3.1,3.4-5.2,8-5.2,13h0c0,10.2,8.2,18.3,18.3,18.3h8c5.7,0,10.3,4.6,10.3,10.3v8c0,10.2,8.2,18.3,18.3,18.3h0c5.1,0,9.6-2.1,13-5.3l5.7-5.7c4.1-4.1,10.6-4.1,14.6,0l5.7,5.7c3.2,3.4,7.9,5.4,12.9,5.4h0c10.2,0,18.3-8.2,18.3-18.3v-8c0-5.7,4.6-10.3,10.3-10.3h8.1c10.2,0,18.3-8.2,18.3-18.3h0c0-5.1-2.1-9.6-5.3-13l-5.7-5.7c-4.1-4.1-4.1-10.6,0-14.6l5.7-5.6h0Z"/>
    </g>
  </g>
</svg>
