<svg id="Layer_1" data-name="Layer 1" xmlns="http://www.w3.org/2000/svg" width="100" height="50" viewBox="0 0 100 50"><defs><style>.cls-1{fill:#ce202c;}.cls-2{fill:none;stroke:#000;stroke-linecap:round;stroke-linejoin:round;stroke-width:0.07px;}</style></defs><title>600</title><path d="M25.2,19.6l-3,3.1a.6.6,0,0,0-.1.7,3.2,3.2,0,0,1-.9,4.2,3.5,3.5,0,0,1-3.8.1,3.4,3.4,0,0,1-.8-4.6,3.2,3.2,0,0,1,4.3-.9.9.9,0,0,0,.7-.1l3-3.1a.5.5,0,0,0,0-.8h0A8.6,8.6,0,1,0,14,31.8a8.5,8.5,0,0,0,10.9-.2c.2-.2.4-.3.5-.5a8.6,8.6,0,0,0,.7-11.4.5.5,0,0,0-.8-.1h-.1"/><path class="cls-1" d="M21,25a1.8,1.8,0,0,1-1.7,1.7h0A1.7,1.7,0,1,1,21,25"/><polyline class="cls-2" points="62.2 27.7 61.4 26.9 32.2 26.9"/><path d="M37.3,17.5H33.5a1.3,1.3,0,0,0-1.3,1.3v3.4a1.2,1.2,0,0,0,1.3,1.2h3.8c.1,0,.3-.1.3-.2v-.6c0-.1-.2-.2-.3-.2H33.8a.4.4,0,0,1-.4-.4V19a.4.4,0,0,1,.4-.4h3.5c.1,0,.3-.1.3-.2v-.6a.3.3,0,0,0-.3-.3m3.3.3,2.3,3.4v2a.3.3,0,0,0,.3.3h.6c.1,0,.2-.2.2-.3v-2l2.3-3.4v-.2H45.2l-.3.2L43.5,20,42,17.7l-.2-.2h-1l-.2.2h0m8.8.1v5.2a.4.4,0,0,0,.3.4h.5c.2,0,.3-.2.3-.4V21H53c.2,0,.4-.1.4-.3v-.4a.4.4,0,0,0-.4-.4H50.5V18.6h3.9a.3.3,0,0,0,.3-.3v-.5a.3.3,0,0,0-.3-.3H49.7a.3.3,0,0,0-.3.3m8.7,0v5.4a.3.3,0,0,0,.3.3h.5a.3.3,0,0,0,.3-.3V17.8c0-.1-.1-.3-.2-.3h-.6a.3.3,0,0,0-.3.3m6,2.1h3.2a.6.6,0,0,0,.6-.6h0a.6.6,0,0,0-.6-.6H64.1v1.3Zm4.9-.7v.2A1.6,1.6,0,0,1,67.4,21h0l1.4,2.2c0,.1,0,.2-.1.2a.1.1,0,0,1-.1.1h-.8l-.3-.2L66,21H64.1v2.1c0,.2-.1.3-.3.4h-.5c-.2,0-.3-.2-.3-.4V17.9c0-.2.1-.4.3-.4h4.1A1.7,1.7,0,0,1,69,19.2m5-1.7h4.1A1.5,1.5,0,0,1,79.6,19v4.1a.3.3,0,0,1-.3.3h-.6a.3.3,0,0,1-.3-.3v-4a.5.5,0,0,0-.4-.5H76.6v4.5a.3.3,0,0,1-.3.3h-.5a.3.3,0,0,1-.3-.3V18.6H74.1a.5.5,0,0,0-.4.5v4c0,.2-.2.3-.4.3h-.5a.3.3,0,0,1-.3-.3V19A1.5,1.5,0,0,1,74,17.5m10.4,2.7h3.9V19.1a.5.5,0,0,0-.5-.5H84.9a.5.5,0,0,0-.5.5Zm5-1.2v4.1a.3.3,0,0,1-.3.3h-.5a.3.3,0,0,1-.3-.3V21.3H84.4v1.8c0,.2-.1.4-.3.4h-.5c-.2,0-.3-.2-.3-.4V19a1.5,1.5,0,0,1,1.5-1.5h3.1A1.5,1.5,0,0,1,89.4,19"/><path d="M32.4,31.7V30a.1.1,0,0,1,.1-.1h.8a1.1,1.1,0,0,1,.8.3,1,1,0,0,1,.3.8.9.9,0,0,1-.3.7,1.1,1.1,0,0,1-.8.3h-.8C32.4,31.8,32.4,31.8,32.4,31.7Zm.5-.2h.4c.2,0,.3,0,.4-.2s.2-.2.2-.4a.7.7,0,0,0-.1-.5l-.5-.2h-.4Z"/><path d="M36.4,31.7V30h1.5c.1,0,.1,0,.1.1a.1.1,0,0,1-.1.1h-1v.5H38c0,.1-.1.1-.1.2h-1v.5H38c0,.1,0,.1-.1.2H36.5C36.5,31.8,36.4,31.8,36.4,31.7Z"/><path d="M39.9,30.9a1.1,1.1,0,0,1,.3-.8,1.3,1.3,0,0,1,.8-.3,1,1,0,0,1,.8.3h.1c0,.1-.1.1-.1.2h-.3c-.1-.2-.3-.2-.5-.2a.4.4,0,0,0-.4.2c-.2.1-.2.3-.2.5a.6.6,0,0,0,.2.5l.4.2.5-.2h.4c0,.1-.1.1-.1.2a1,1,0,0,1-.8.3,1.3,1.3,0,0,1-.8-.3A1.1,1.1,0,0,1,39.9,30.9Z"/><path d="M44.9,29.8a1.1,1.1,0,1,1-.8,1.9,1.3,1.3,0,0,1-.3-.8,1,1,0,0,1,1.1-1.1Zm.5.6c-.1-.2-.3-.2-.5-.2s-.3,0-.4.2-.2.3-.2.5a.6.6,0,0,0,.2.5.5.5,0,0,0,.4.2l.5-.2c.1-.2.2-.3.2-.5A.8.8,0,0,0,45.4,30.4Z"/><path d="M48.1,31.7V30h.8a1,1,0,0,1,.8.3,1,1,0,0,1,.4.8,1,1,0,0,1-.4.7,1,1,0,0,1-.8.3h-.8Zm.4-.2h.4c.2,0,.4,0,.5-.2a.5.5,0,0,0,.2-.4.8.8,0,0,0-.2-.5l-.5-.2h-.4Z"/><path d="M52.1,31.7V30c0-.1,0-.1.1-.2h.3v2.1h-.3C52.1,31.8,52.1,31.8,52.1,31.7Z"/><path d="M56.1,31.8l-1-1.3v1.4h-.4V30.1c0-.1,0-.2.1-.2h.4l.9,1.3V30c0-.1.1-.1.1-.2h.3c.1.1.1.1.1.2v1.7c0,.1,0,.1-.1.2h-.2Z"/><path d="M60.7,31v.4c0,.1-.1.2-.1.3a1.3,1.3,0,0,1-.8.3,1.1,1.1,0,0,1-.8-.3.9.9,0,0,1-.4-.8.8.8,0,0,1,.4-.8,1,1,0,0,1,.8-.3,1,1,0,0,1,.7.2c0,.1.1.1.1.2h-.8c-.2,0-.4,0-.5.2a.8.8,0,0,0-.2.5c0,.2.1.3.2.5l.5.2a.5.5,0,0,0,.4-.2v-.2h-.6c0-.1.1-.1.1-.2h.9C60.7,30.9,60.7,30.9,60.7,31Z"/><path d="M65.8,31.7V30.2h-.6c-.1,0-.1,0-.1-.1s0-.1.1-.1h1.6c.1,0,.1,0,.1.1s0,.1-.1.1h-.6v1.7h-.4Z"/><path d="M70.3,31.7V31h-1v.9h-.4V29.8h.4v.8h1V30c0-.1.1-.1.1-.2h.3c.1.1.1.1.1.2v1.7c0,.1,0,.1-.1.2h-.3C70.4,31.8,70.3,31.8,70.3,31.7Z"/><path d="M74.2,31.1l.4.5h0v.2h-.4l-.4-.7h-.4v.5c0,.1,0,.1-.1.2H73c-.1-.1-.1-.1-.1-.2V30a.1.1,0,0,1,.1-.1h.9l.5.2c.2.1.2.3.2.5a.6.6,0,0,1-.1.4C74.5,31,74.4,31.1,74.2,31.1Zm-.8-.9v.6h.7c0-.1.1-.1.1-.2a.3.3,0,0,0-.1-.2h-.7Z"/><path d="M76.7,31.7V30a.1.1,0,0,1,.1-.1h.4v.5h1V31h-1v.5h1v.2H76.8C76.7,31.8,76.7,31.8,76.7,31.7Z"/><path d="M82.2,31.7c0,.1,0,.1-.1.2h-.2a.1.1,0,0,0-.1-.1h-.1v-.2h-.9v.2h-.4c0-.1-.1-.1-.1-.2h.1l.6-1.6v-.2h.5a.3.3,0,0,1,.1.2l.7,1.6Zm-1.4-.5h.7l-.3-1Z"/><path d="M84.4,31.7V30.2h-.6a.1.1,0,0,1,0-.2h1.6c.1,0,.1,0,.1.1s0,.1-.1.1h-.6v1.7h-.3C84.4,31.8,84.4,31.8,84.4,31.7Z"/><path d="M87.4,31.6v-.2h.3l.5.2h.3c.1,0,.1-.1.1-.2a.1.1,0,0,0-.1-.1h-.3l-.4-.2c-.2,0-.2-.1-.3-.2s-.1-.2-.1-.3a.6.6,0,0,1,.2-.5h1.3c.1.1.1.1.1.2v.2h-1c0,.1-.1.1-.1.2h.9a.7.7,0,0,1,.4.6.5.5,0,0,1-.3.5.8.8,0,0,1-.6.2l-.7-.2Z"/><path d="M62.6,27.9a.4.4,0,0,1-.8,0,.4.4,0,1,1,.8,0"/><path d="M62.6,26a.4.4,0,1,1-.4-.4.4.4,0,0,1,.4.4"/><polyline class="cls-2" points="62.3 26 63.3 26.9 89.4 26.9"/></svg>