<?xml version="1.0" encoding="UTF-8"?><svg id="7dee7969-b299-4270-a3d0-f8cc089c5a37" xmlns="http://www.w3.org/2000/svg" viewBox="0 0 24.38 5.69"><defs><style>.b{fill:none;stroke:#000;stroke-linecap:round;stroke-linejoin:round;stroke-width:.03px;}.c{fill:#ce202c;}</style></defs><path class="b" d="M15.89,3.83l-.24-.24H6.74"/><path d="M4.65,1.21l-.93.93c-.05.06-.07.14-.03.21.25.44.14.99-.27,1.3-.35.24-.81.25-1.16.02-.46-.31-.58-.92-.27-1.38.29-.44.88-.57,1.34-.3.07.04.16.03.21-.03l.92-.93c.07-.07.07-.18,0-.25,0,0,0,0,0,0h-.01C3.3-.14,1.64.07.74,1.23-.15,2.38.06,4.04,1.21,4.94c1,.77,2.4.73,3.35-.09.05-.04.1-.09.14-.14.94-.94,1.03-2.43.22-3.48-.06-.08-.17-.09-.25-.03,0,0,0,0,0,0h-.02"/><path class="c" d="M3.35,2.84c0,.28-.23.52-.51.52,0,0,0,0,0,0h0c-.28,0-.52-.23-.52-.52s.23-.52.52-.52c.28,0,.52.23.52.51h0Z"/><path d="M8.29.72h-1.17c-.21,0-.37.17-.37.37h0v1.06c0,.21.17.37.37.37h1.17s.08-.03.08-.08v-.18s-.03-.08-.08-.08h-1.09c-.06,0-.11-.05-.11-.11,0,0,0,0,0,0v-.92c0-.06.05-.11.11-.11h1.09s.08-.03.08-.08v-.18s-.03-.08-.08-.08h0Z"/><path d="M9.3.8l.69,1.02v.62s.04.09.09.09h.18s.09-.04.09-.09v-.61l.69-1.02s.01-.06-.01-.07c0,0-.02-.01-.03-.01h-.3s-.06.01-.07.04l-.45.72-.45-.72s-.04-.04-.07-.04h-.3s-.05.02-.05.05h0s0,.02.01.03h0Z"/><path d="M11.98.82v1.61c0,.06.04.1.1.1h.15c.06,0,.1-.04.1-.1h0v-.64h.76c.06,0,.1-.04.1-.1h0v-.13c0-.06-.04-.1-.1-.1h-.76v-.41h1.18c.06,0,.1-.04.1-.1h0v-.14c0-.06-.04-.1-.1-.1h-1.43c-.06,0-.1.04-.1.1h0Z"/><path d="M14.64.81v1.63s.04.09.09.09h.17s.09-.04.09-.09h0V.81s-.04-.09-.09-.09h-.17s-.09.04-.09.09c0,0,0,0,0,0h0Z"/><path d="M17.48.72h-1.25c-.05,0-.1.04-.1.1v1.61c0,.05.04.1.1.1h.15c.05,0,.1-.05.09-.1v-.64h.57l.47.7s.05.04.08.04h.25s.02,0,.03-.01c.03-.02.03-.05.02-.08l-.42-.65c.27,0,.49-.22.49-.5v-.08h0c0-.27-.22-.49-.49-.49ZM17.61,1.27c0,.1-.08.18-.18.18h-.96v-.4h.96c.1,0,.18.08.18.18v.04Z"/><path d="M19.48.72h1.25c.25,0,.45.2.45.45v1.25c0,.05-.04.09-.09.09h-.16c-.05,0-.09-.04-.09-.09h0v-1.24c0-.08-.06-.14-.14-.14h-.42v1.38c0,.05-.04.09-.09.09h-.16c-.05,0-.09-.04-.09-.09h0v-1.38h-.42c-.08,0-.14.06-.14.14v1.24c0,.05-.04.09-.09.09h-.16c-.05,0-.09-.04-.09-.09h0v-1.26c0-.25.2-.45.45-.45h0s0,0,0,0Z"/><path d="M23.73.72h-.96c-.25,0-.45.2-.45.45v1.26c0,.05.04.1.1.1h.15c.05,0,.1-.04.1-.1v-.55h1.17v.54c0,.05.04.1.1.1h.15c.05,0,.1-.04.1-.1v-1.25c0-.25-.2-.45-.45-.45ZM23.84,1.55h-1.17v-.35c0-.08.07-.14.14-.14h.89c.08,0,.14.06.14.14v.35Z"/><path d="M7.31,4.55c-.12-.11-.35-.12-.49-.07-.03.03-.03.58,0,.62.42.13.77-.19.49-.54ZM7.26,4.8c0,.17-.18.21-.32.19v-.41c.15-.02.34.03.32.21Z"/><path d="M8.02,5.04c.03-.06-.07-.61.07-.58.03,0,.36-.02.38.02.11.16-.25.09-.31.1v.14c.05.02.33-.05.32.06,0,.11-.27.04-.32.06v.15s.29-.02.31.02c.12.17-.32.08-.38.1-.05,0-.08-.03-.07-.08Z"/><path d="M9.09,4.79c-.03-.3.46-.48.59-.2,0,.04-.03.06-.07.07-.16-.13-.38-.11-.38.13,0,.24.24.26.38.13.06,0,.09.07.05.11-.19.22-.6.05-.58-.24h0Z"/><path d="M10.86,4.54c-.06-.06-.15-.1-.24-.1h0c-.3-.02-.46.38-.24.58.31.31.81-.17.49-.49ZM10.76,4.94c-.18.21-.47-.12-.29-.31.18-.2.48.12.29.31Z"/><path d="M12.08,4.55c-.12-.11-.35-.12-.49-.07-.03.03-.03.58,0,.62.42.13.77-.19.49-.54ZM12.04,4.8c0,.17-.18.21-.32.19v-.41c.15-.02.34.03.32.21Z"/><path d="M12.8,5.05c.02-.06-.07-.62.07-.6.13-.02.04.54.07.6,0,.09-.14.09-.14,0"/><path d="M14.02,5.08l-.29-.41s.02.41-.02.43c-.04.05-.12,0-.12-.05.01-.05-.03-.55.03-.57.13-.15.35.35.42.4v-.36c0-.09.14-.09.14,0-.03.08.09.77-.15.56h0Z"/><path d="M15.43,4.82c.06.61-.97.22-.53-.28.11-.19.68-.04.42.1-.47-.33-.51.57-.04.31v-.08c-.2.03-.23-.09-.12-.12.06.01.27-.04.26.07Z"/><path d="M16.98,5.05v-.47c-.22.03-.25-.09-.14-.12.06.03.58-.08.46.1-.02.03-.15.01-.18.02,0,.03.02.51-.02.52-.04.05-.12,0-.12-.05"/><path d="M18.37,5.05v-.21h-.31c0,.07.04.37-.12.26-.03-.05-.03-.58,0-.63.15-.11.12.17.12.24h.31s-.02-.22.02-.24c.21-.15.09.52.12.58,0,.09-.14.09-.14,0"/><path d="M19.56,4.86c.13-.04.18-.24.06-.34-.07-.08-.36-.08-.45-.04-.03.05-.04.57,0,.62.14.1.12-.15.12-.22h.11s.14.25.21.24c.16-.02-.02-.2-.06-.26ZM19.51,4.73s-.17.02-.22.02v-.18c.1-.01.33,0,.22.16Z"/><path d="M20.31,5.04c.03-.06-.07-.61.07-.58.03,0,.36-.02.38.02.11.16-.25.09-.31.1v.14c.05.02.33-.05.32.06,0,.11-.27.04-.32.06v.15s.29-.02.31.02c.11.17-.32.08-.38.1-.05,0-.08-.03-.07-.08Z"/><path d="M21.98,5.05s0-.02,0-.02l-.19-.49c-.22-.33-.35.39-.42.49-.02.13.14.13.16-.03h.29c.01.1.13.2.16.05h0ZM21.57,4.88l.1-.3.1.3h-.21Z"/><path d="M22.66,5.05v-.47c-.22.03-.25-.09-.14-.12.06.03.58-.08.46.1-.02.03-.15.01-.18.02,0,.03.02.51-.02.52-.04.05-.12,0-.12-.05h0Z"/><path d="M23.57,5.01c.03-.15.17.02.27,0,.08,0,.16-.07.08-.12-.04-.02-.17-.05-.23-.07-.24-.09-.07-.4.14-.36.24-.02.31.2.14.16-.07-.06-.34-.06-.23.07.2.03.49.17.28.39-.12.1-.39.08-.45-.06h0Z"/><path class="b" d="M15.93,3.29l.3.3h7.96"/><circle cx="15.9" cy="3.83" r=".1"/><circle cx="15.93" cy="3.29" r=".1"/></svg>