<?xml version="1.0" encoding="UTF-8"?>
<svg width="75px" id="71bae546-b33b-408b-8960-063f7ae991dd" height="75px" viewBox="0 0 75 75" version="1.1" xmlns="http://www.w3.org/2000/svg">
        <g stroke="none" stroke-width="1" fill="none" fill-rule="evenodd">
        <g fill-rule="nonzero">
            <rect fill-opacity="0" fill="#FFFFFF" x="0" y="0" width="75" height="75"></rect>
            <g transform="translate(0.000000, 5.000000)">
                <rect fill="#32DF9B" x="65" y="27" width="10" height="10"></rect>
                <path d="M54,42.5607712 C53.6929549,45.6389201 52.9030933,48.6497331 51.6593469,51.4829299 C50.4685195,54.1611021 48.7556509,56.5758237 46.6205844,58.5863405 C44.3668387,60.6774285 41.7080587,62.2855672 38.8080963,63.3116531 C35.7376361,64.4372178 32.1779646,65 28.1290817,65 C23.6723315,65 19.6933359,64.2496236 16.1920947,62.7488709 C12.7785772,61.3116634 9.74720607,59.1005067 7.33817073,56.2906006 C4.82939631,53.2924639 2.96667806,49.8101113 1.86633569,46.0610028 C0.622111898,42.05747 0,37.5677942 0,32.591975 C0,27.5086323 0.680542297,22.9434612 2.04162689,18.8964616 C3.24988073,15.1185069 5.21307707,11.6244787 7.81246251,8.62568444 C10.2713438,5.84519107 13.3256728,3.65310088 16.7489021,2.21202509 C20.3789678,0.706974988 24.2777934,-0.0449261348 28.2081344,0.00207505394 C32.0851632,0.00207505394 35.4431927,0.492793774 38.2822228,1.47423121 C43.6258558,3.21136655 47.9915809,7.11183468 50.3120107,12.2220006 C51.5502344,14.9311904 52.4395064,17.7861577 52.9585641,20.7186409 L42.6198205,22.190797 C42.2189643,20.2923727 41.6436832,18.4348821 40.9012795,16.6419007 C40.2629753,15.1072261 39.3353409,13.7092568 38.1687989,12.5239814 C36.9976428,11.3704803 35.5907206,10.4831922 34.0443002,9.92282902 C32.1744868,9.27563296 30.2037788,8.96765628 28.2253198,9.01345518 C25.6687575,8.96326595 23.1376581,9.52823552 20.8459042,10.6606229 C18.6843358,11.7767425 16.8239332,13.3964069 15.4221883,15.3825037 C13.8577196,17.6254057 12.7237586,20.1387136 12.0779072,22.7947585 C11.287928,25.9706704 10.9056374,29.2339837 10.940233,32.5061849 C10.8975206,35.808051 11.2916071,39.1010974 12.112278,42.2999697 C12.7864887,44.9625641 13.9521069,47.4762831 15.5493603,49.7122244 C16.9543373,51.6822673 18.8118511,53.2873479 20.9662021,54.3929261 C23.2208159,55.493984 25.7055875,56.0433141 28.2150086,55.9954832 C30.3255881,56.0481644 32.4286962,55.7251253 34.4258163,55.0414985 C36.0357216,54.4666288 37.5015495,53.549899 38.7221691,52.354556 C39.9172642,51.1560049 40.8531441,49.7252246 41.4718351,48.1508466 C42.1776184,46.353295 42.6589956,44.4758067 42.9050983,42.5607712 L54,42.5607712 Z" fill="#142B46"></path>
            </g>
        </g>
    </g>
</svg>