<?xml version="1.0" encoding="UTF-8"?><svg id="f8d30dc7-3ef8-4c98-a648-6612d75e798a" xmlns="http://www.w3.org/2000/svg" viewBox="0 0 75 75"><defs><style>.cls-1{fill:#000;}.cls-1,.cls-2,.cls-3,.cls-4{stroke-width:0px;}.cls-2{fill:#a600ce;}.cls-2,.cls-3,.cls-4{fill-rule:evenodd;}.cls-3{fill:#00c689;}.cls-4{fill:#004efc;}</style></defs><g><path class="cls-1" d="M25.11,39.92s.07,0,.11,0c.03.02.06.04.08.06.02.03.03.06.04.1,0,.03,0,.07,0,.1-.18.65-.56,1.22-1.09,1.64-.61.44-1.35.67-2.1.64-.59,0-1.17-.15-1.69-.44-.5-.26-.93-.65-1.23-1.13-.06-.13-.13-.26-.19-.38-.05-.16-.1-.31-.13-.48-.08-.69-.11-1.39-.09-2.08-.02-.7.01-1.4.09-2.09.05-.3.16-.59.31-.86.26-.46.64-.84,1.08-1.11.62-.37,1.34-.54,2.06-.49.73.04,1.42.31,1.99.76.47.43.8.99.97,1.6,0,.03,0,.07,0,.1,0,.03-.02.06-.05.09s-.05.05-.08.06c-.03,0-.07,0-.1,0h-1.03s-.09-.01-.13-.04c-.04-.02-.07-.06-.08-.11-.13-.3-.33-.57-.58-.78-.33-.25-.74-.38-1.16-.38-.3,0-.59.07-.86.19-.23.11-.42.27-.59.46-.19.21-.32.47-.36.75-.09.6-.13,1.2-.11,1.8-.02.6.02,1.2.11,1.79.04.28.17.55.37.76.15.19.35.35.57.45.26.14.56.21.86.2.74,0,1.42-.42,1.72-1.11.02-.04.05-.07.08-.09.04-.02.08-.03.12-.03l1.06.02h0Z"/><path class="cls-1" d="M28.5,38.69l-2.61-4.93s0-.07,0-.1c0-.03,0-.07,0-.1.02-.03.05-.06.08-.08.04,0,.07,0,.11,0h.98s.09.02.12.04c.04.02.07.05.08.09l1.7,3.43s.05.07.09.09c.04.02.08.03.12.03.04,0,.09,0,.12-.03s.06-.05.08-.09l1.7-3.43s.05-.07.08-.09c.04-.02.08-.04.13-.04h.98s.07,0,.11,0c.03.02.06.05.08.08,0,.03,0,.07,0,.1.01.03.01.07,0,.1l-2.61,4.92s0,.06,0,.09v3.43s0,.05,0,.08c-.01.03-.02.05-.05.07-.02.02-.05.03-.08.05-.03,0-.06,0-.09,0h-.89c-.06,0-.12-.02-.16-.06-.04-.04-.07-.09-.07-.15v-3.4s0-.06,0-.1"/><path class="cls-1" d="M33.36,33.46h1.01c.05,0,.1.02.14.05s.07.07.08.12l1.42,6.21,1.84-6.22s.04-.09.08-.11c.04-.03.09-.05.13-.05h.64c.05,0,.1.02.14.05.04.02.07.06.08.11l1.75,6.22,1.43-6.21s.05-.09.08-.12c.04-.03.09-.05.15-.05h1.01s.06,0,.1,0c.03.02.06.04.08.06.02.02.04.05.05.08,0,.03,0,.06,0,.09l-2.19,8.55s-.04.09-.08.12c-.04.03-.09.04-.14.05h-.82c-.05,0-.1-.02-.14-.05-.04-.03-.06-.07-.08-.12l-1.74-6.3-1.73,6.3s-.04.09-.08.12c-.04.03-.09.04-.14.05h-.84c-.05,0-.1-.02-.14-.05-.04-.03-.06-.07-.08-.12l-2.21-8.53s0-.06,0-.1.02-.06.05-.09.05-.05.08-.06c.03,0,.07,0,.1,0"/><path class="cls-1" d="M49.53,40.42h-3.21s-.09.01-.13.04c-.04.02-.07.06-.08.11l-.61,1.71s-.05.08-.08.11c-.04.02-.09.04-.13.04h-.99s-.07,0-.11,0c-.03-.02-.06-.04-.08-.07-.02-.03-.03-.06-.04-.1,0-.03,0-.07,0-.1l3.21-8.53s.04-.08.08-.11c.04-.02.08-.04.13-.04h.86s.09.01.13.04c.04.02.07.06.08.11l3.21,8.54s0,.07,0,.1c0,.03-.02.07-.04.1-.02.03-.05.05-.08.07h-1.06s-.09-.01-.13-.04c-.04-.02-.07-.06-.08-.11l-.64-1.71s-.05-.08-.08-.1c-.04-.03-.09-.04-.13-.05h.02s0-.01,0-.01ZM48.97,39.22s.07,0,.11,0c.03-.02.06-.04.08-.06.02-.03.03-.06.04-.1,0-.03,0-.07,0-.1l-1.29-3.65-1.25,3.65s0,.07,0,.1c0,.04.02.07.04.1.02.03.05.05.08.06.03,0,.07,0,.1,0h2.07Z"/><path class="cls-1" d="M53.43,33.67c0-.06.02-.11.06-.15.04-.04.1-.06.16-.06h3.41c.68-.03,1.35.17,1.9.58.29.23.53.52.69.86.16.33.24.69.23,1.05.04,1.06-.6,2.02-1.59,2.4l-.07.05s-.03.05-.05.08v.16l1.89,3.47c.04.06.04.15,0,.21-.02.03-.05.05-.08.07-.04,0-.08,0-.12,0h-1.16s-.09,0-.13-.03c-.04-.02-.07-.05-.08-.09l-1.8-3.57s-.05-.07-.08-.09c-.04-.03-.08-.04-.13-.04h-1.43c-.06,0-.12.02-.16.06-.04.04-.06.1-.06.15v3.41s0,.05,0,.08c-.01.03-.03.05-.05.07-.02.02-.04.04-.07.05-.03,0-.06,0-.09,0h-.96c-.06,0-.12-.02-.16-.06-.04-.04-.07-.09-.07-.15v-8.52s0,0,0,0ZM54.84,37.17c0,.05.02.11.06.15.05.04.1.06.16.06h1.93c.21,0,.42-.02.61-.08.19-.07.36-.18.51-.33.15-.13.26-.3.34-.48.08-.18.12-.37.11-.56.01-.19-.02-.38-.1-.56-.08-.18-.21-.34-.37-.46-.31-.2-.67-.3-1.04-.28h-2.07s-.05.03-.08.05c-.02.02-.04.04-.05.06,0,.03,0,.05,0,.08l-.02,2.34h0Z"/><path class="cls-1" d="M62.16,33.46h5.49c.06,0,.12.02.16.06.04.04.07.09.06.15v.86c0,.05-.02.11-.06.15-.04.04-.1.06-.16.06h-4.09c-.12,0-.22.09-.23.2v2.14c0,.06.02.12.07.16.05.04.1.06.16.06h3.42c.06,0,.12.02.16.06.04.04.07.09.07.15v.78c0,.06-.03.12-.07.16-.05.04-.1.06-.16.06h-3.42c-.06,0-.12.02-.16.06-.04.04-.07.09-.07.16v2.2c0,.06.02.12.07.16.04.04.1.06.16.06h4.06c.06,0,.12.02.17.06.04.04.06.09.06.15v.86s0,.05,0,.08c-.01.03-.03.05-.05.07-.02.02-.05.03-.08.05-.03,0-.06,0-.09,0h-5.47s-.06,0-.09,0c-.03,0-.05-.02-.08-.05s-.04-.05-.05-.07v-8.7s.03-.05.05-.07l.08-.05h.09"/><path class="cls-1" d="M70.01,32.07v1.46h-.23v-1.46h-.51v-.2h1.23v.2h-.5,0ZM72.31,33.53v-1.37l-.6,1.37h-.06l-.61-1.37v1.37h-.23v-1.66h.35l.52,1.21.52-1.21h.35v1.66h-.23s0,0,0,0Z"/><path class="cls-2" d="M12.72,38.8l3.43,5.01c.04.07.02.16-.04.2-.03.02-.07.03-.1.03h-6.82c-.09,0-.15-.08-.15-.17,0-.02,0-.05,0-.07l3.42-5s.08-.06.12-.06c.05-.02.11,0,.14.05"/><path class="cls-4" d="M7.44,43.85l3.98-5.82c.04-.05.04-.13,0-.19l-3.99-5.84c-.04-.06-.13-.08-.2-.04h0l-.04.04-4.03,5.84c-.03.05-.03.12,0,.17l4,5.83c.05.07.14.09.2.04.03,0,.05-.02.07-.04"/><path class="cls-3" d="M12.73,37.08l3.43-5c.06-.06.05-.16,0-.22-.01-.01-.02-.02-.04-.03-.03,0-.06,0-.1,0h-6.82c-.09,0-.15.08-.15.17,0,.02,0,.05,0,.07l3.42,5s.07.06.12.06c.05.02.12,0,.15-.05"/></g></svg>