<?xml version="1.0" encoding="utf-8"?>
<!-- Generator: Adobe Illustrator 28.5.0, SVG Export Plug-In . SVG Version: 9.03 Build 54727)  -->
<!DOCTYPE svg PUBLIC "-//W3C//DTD SVG 1.1//EN" "http://www.w3.org/Graphics/SVG/1.1/DTD/svg11.dtd" [
	<!ENTITY ns_extend "http://ns.adobe.com/Extensibility/1.0/">
	<!ENTITY ns_ai "http://ns.adobe.com/AdobeIllustrator/10.0/">
	<!ENTITY ns_graphs "http://ns.adobe.com/Graphs/1.0/">
	<!ENTITY ns_vars "http://ns.adobe.com/Variables/1.0/">
	<!ENTITY ns_imrep "http://ns.adobe.com/ImageReplacement/1.0/">
	<!ENTITY ns_sfw "http://ns.adobe.com/SaveForWeb/1.0/">
	<!ENTITY ns_custom "http://ns.adobe.com/GenericCustomNamespace/1.0/">
	<!ENTITY ns_adobe_xpath "http://ns.adobe.com/XPath/1.0/">
]>
<svg version="1.1" id="Layer_1" xmlns:x="&ns_extend;" xmlns:i="&ns_ai;" xmlns:graph="&ns_graphs;"
	 xmlns="http://www.w3.org/2000/svg"x="0px" y="0px" viewBox="0 0 595.3 296.3"
	 style="enable-background:new 0 0 595.3 296.3;" xml:space="preserve">
<style type="text/css">
	.Drop_x0020_Shadow{fill:none;}
	.Round_x0020_Corners_x0020_2_x0020_pt{fill:#FFFFFF;stroke:#272525;stroke-miterlimit:10;}
	.Live_x0020_Reflect_x0020_X{fill:none;}
	.Bevel_x0020_Soft{fill:url(#SVGID_1_);}
	.Dusk{fill:#FFFFFF;}
	.Foliage_GS{fill:#F8DC31;}
	.Pompadour_GS{fill-rule:evenodd;clip-rule:evenodd;fill:#6EAADF;}
	.st0{fill:#6700FF;}
	.st1{fill-rule:evenodd;clip-rule:evenodd;fill:#272525;stroke:#272525;stroke-miterlimit:10;}
</style>
<metadata>
	<sfw  xmlns="&ns_sfw;">
		<slices></slices>
		<sliceSourceBounds  bottomLeftOrigin="true" height="131" width="469" x="63.1" y="-213.7"></sliceSourceBounds>
		<optimizationSettings>
			<targetSettings  fileFormat="PNG24Format" targetSettingsID="0">
				<PNG24Format  filtered="false" interlaced="false" matteColor="#000000" noMatteColor="true" transparency="true">
					</PNG24Format>
			</targetSettings>
		</optimizationSettings>
	</sfw>
</metadata>
<linearGradient id="SVGID_1_" gradientUnits="userSpaceOnUse" x1="0" y1="0" x2="0.7071" y2="0.7071">
	<stop  offset="0" style="stop-color:#DEDEE2"/>
	<stop  offset="0.1799" style="stop-color:#DADADE"/>
	<stop  offset="0.3642" style="stop-color:#CECED2"/>
	<stop  offset="0.5507" style="stop-color:#B9BABD"/>
	<stop  offset="0.7386" style="stop-color:#9C9FA1"/>
	<stop  offset="0.926" style="stop-color:#787B7D"/>
	<stop  offset="1" style="stop-color:#676B6C"/>
</linearGradient>
<g>
	<path class="st0" d="M225,128.1C225,128.1,225,128.1,225,128.1c-0.5-2-1.1-3.9-1.8-5.9c-0.3-0.9-0.7-1.7-1-2.6
		c-1-2.3-2.1-4.6-3.3-6.7c-3-5.2-6.5-9.8-10.5-13.7c-0.3-0.3-0.7-0.7-1-1c-0.3-0.3-0.6-0.6-0.9-0.9l-0.5-0.5
		c-0.4-0.3-0.7-0.6-1.1-0.9l-0.5-0.4c-0.4-0.3-0.7-0.6-1.1-0.8c-0.4-0.3-0.7-0.5-1.1-0.8c-0.3-0.2-0.7-0.5-1-0.7l-0.3-0.2
		c-0.3-0.2-0.7-0.4-1-0.6l-0.8-0.5c-0.3-0.2-0.5-0.3-0.8-0.5c-0.5-0.3-1-0.6-1.5-0.9c-0.3-0.2-0.5-0.3-0.9-0.5
		c-0.4-0.2-0.9-0.4-1.3-0.6c-0.3-0.1-0.6-0.3-0.9-0.4c-0.4-0.2-0.9-0.4-1.3-0.6l-0.8-0.3c-0.3-0.1-0.6-0.2-0.8-0.3
		c-0.4-0.2-0.8-0.3-1.2-0.4l-0.5-0.2c-0.6-0.2-1.1-0.4-1.7-0.6c-5.8-1.9-12-2.9-19-3.1c-7.2,0-24,0-34.8,0c-11.2,0-34.3,0-47.9,0
		c-0.1,0-0.3,0.1-0.4,0.2l-22,24.9c-0.1,0.1-0.2,0.4-0.1,0.5c0.1,0.2,0.3,0.3,0.5,0.3c0,0,0,0,0,0c27.5-0.1,94.3,0,114.2,0.1
		c20.8,0.5,36.8,9.1,47.6,25.6c0.1,0.1,0.3,0.2,0.4,0.2c0.1,0,0.1,0,0.2,0c0.2-0.1,0.4-0.3,0.3-0.5C226,132.4,225.5,130.2,225,128.1
		z"/>
	<path class="st0" d="M218.4,184.9c-0.1-0.1-0.2-0.3-0.4-0.3c-3.7-0.7-7.5-1.1-11.6-1.2c0,0,0,0,0,0c-12,0-43,0-92.2,0
		c-0.1,0-0.3,0.1-0.4,0.2l-25.8,29.3c-0.1,0.1-0.2,0.4-0.1,0.5s0.3,0.3,0.5,0.3h62.6h9.8c3.6,0,6.5,0,9.2,0c7.4,0,18.5-1.3,29.1-7.9
		c0.1-0.1,0.2-0.1,0.3-0.2c1.6-1,3.2-2.1,4.7-3.3l1-0.8c0.3-0.3,0.7-0.6,1-0.9c0.5-0.4,1-0.9,1.5-1.3c2.9-2.8,5.5-5.9,7.8-9.4
		c1-1.4,1.9-2.9,2.8-4.4C218.5,185.2,218.5,185,218.4,184.9z"/>
	<path class="st0" d="M227.1,148.8c-10.4-10-23.3-15-39.7-15.4c0,0,0,0,0,0c-15.4,0-61.8-0.1-88.2-0.1c-0.1,0-0.3,0.1-0.4,0.2
		l-22.1,25.1c-0.1,0.1-0.2,0.4-0.1,0.5c0.1,0.2,0.3,0.3,0.5,0.3c25.6-0.1,97.3,0,119.8,0c10.8,0.3,19.9,2.6,28,7
		c0.1,0,0.2,0.1,0.2,0.1c0.1,0,0.1,0,0.2,0c0.1-0.1,0.2-0.2,0.3-0.4c0.1-0.6,0.2-1.2,0.3-1.9c0.2-1.2,0.4-2.4,0.5-3.7
		c0.2-1.3,0.3-2.7,0.4-4c0.2-2.5,0.3-4.9,0.4-7.3C227.2,149.1,227.2,148.9,227.1,148.8z"/>
	<path class="st1" d="M499.3,130.6c10,1.4,18.3,6.1,24,13.4c5.5,7,8.4,16.2,8.4,26.5v0.4c0,11.6-4.6,22.3-13,30.1
		c-8.2,7.7-19.3,11.9-31.3,11.9h-67.2c-1.1,0-2-0.9-2-2v-19.8c0-1.1,0.9-2,2-2h64.3c6.8,0.1,12.4-1.8,16.2-5.5
		c3.3-3.3,5.1-7.7,5.1-12.9c0-5.2-1.8-9.6-5.1-12.9c-3.8-3.7-9.3-5.6-16.2-5.5H452c-0.3,0-0.6-0.2-0.8-0.5c-0.2-0.3-0.1-0.7,0.1-1
		l35.2-44c0-0.1,0.1-0.1,0-0.2c0-0.1-0.1-0.1-0.2-0.1h-60.1c-1.1,0-2-0.9-2-2V85.2c0-1.1,0.9-2,2-2l101.9,0.1c0.5,0,0.9,0.3,1.2,0.7
		c0.2,0.5,0.2,1-0.1,1.4L499.3,130.6z M262.5,83.2h94.3c0.2,0,24.6,0.2,41.7,17.2c11.2,11.2,16.8,26.9,16.8,46.9
		c0,22-6.1,38.9-18,50.3c-15.3,14.6-35.7,15.3-39.8,15.3c-0.4,0-0.7,0-0.7,0h0h-93.9c-1,0-1.8-0.8-1.8-1.8v-75c0-1.1,0.9-2,2-2h20.5
		c1.1,0,2,0.9,2,2v50.7c0,1.2,1,2.2,2.2,2.2h62.1c12.3-0.1,22.7-4.2,30.1-11.9c7-7.2,11-17.3,11.2-28.5c0.2-11.9-4-22.8-11.8-30.5
		c-7.7-7.7-18.3-11.7-30.4-11.5h-86.5c-0.8,0-1.5-0.7-1.5-1.5V84.6C261,83.8,261.7,83.2,262.5,83.2z"/>
</g>
</svg>
