<svg id="a4d84da4-55b4-4aab-a667-8782746e3fc1" xmlns="http://www.w3.org/2000/svg"  viewBox="0 0 94.35 106.13"><defs><linearGradient id="be09d859-489c-467a-bb35-aeb00649baba" x1="69.99" y1="540.66" x2="9.61" y2="541.29" gradientTransform="translate(0 -520.76)" gradientUnits="userSpaceOnUse"><stop offset="0" stop-color="#e74d23"/><stop offset="1" stop-color="#f08a14"/></linearGradient></defs><path d="M21.36,18.47h25c1.07,0,5.31.32,7.57.56C81.2,22.14,90.4,34.38,94.35,40.29,92.5,27.89,88.1,18.41,81.79,12Q70.21.13,46.78,0H0V18.5Z" fill="url(#be09d859-489c-467a-bb35-aeb00649baba)"/><path d="M83.38,40.05a46.62,46.62,0,0,1,4.18,5.22,36.57,36.57,0,0,1,6.6,21.24A39.64,39.64,0,0,1,54.6,106l-7.19.13H10.46C4.69,106.17,0,101,0,94.54v-68h21.5V87.68H46.43c5.3-.1,7.46-.17,10.45-.81a14.36,14.36,0,0,0,7.9-5,23.94,23.94,0,0,0,4.77-9.33A68.07,68.07,0,0,0,71.33,62a122.34,122.34,0,0,0,.15-13.54,81.47,81.47,0,0,0-1.92-15,22.33,22.33,0,0,0-1.1-3.06A38,38,0,0,1,83.17,39.8Z"/></svg>