<svg width="207" height="231" viewBox="0 0 207 231" fill="none" xmlns="http://www.w3.org/2000/svg">
<path fill-rule="evenodd" clip-rule="evenodd" d="M101.757 39.9891H47.3124L0.716797 39.8657V0H102.629C136.683 0.246846 162.14 8.84533 179.001 25.7954C192.581 39.6188 202.299 60.2305 206.286 86.8899C197.689 74.1773 177.631 47.8882 118.202 41.0999C113.344 40.6062 104.124 39.9891 101.757 39.9891ZM185.192 89.6007C184.36 88.6006 183.528 87.6837 182.696 86.8503L182.072 86.1001C179.825 83.8497 177.454 81.6827 174.957 79.599C172.461 77.5987 169.84 75.7234 167.094 73.9731C164.431 72.2228 161.644 70.6808 158.731 69.3473C155.902 67.9304 152.948 66.6801 149.87 65.5966C150.119 66.1801 150.369 66.7218 150.619 67.2219C150.785 67.8053 150.993 68.3471 151.243 68.8472L151.742 70.5975C151.991 71.1809 152.2 71.7227 152.366 72.2228C152.948 74.9732 153.448 77.682 153.864 80.3492C154.363 83.0996 154.779 85.8501 155.112 88.6006C155.445 91.2677 155.736 93.9765 155.986 96.727C156.235 99.4774 156.402 102.228 156.485 104.978C156.568 107.479 156.651 109.938 156.734 112.355V119.856C156.734 122.273 156.651 124.732 156.485 127.232C156.402 129.649 156.277 132.108 156.11 134.608C155.944 136.525 155.736 138.442 155.486 140.359C155.237 142.276 154.945 144.193 154.613 146.11L153.614 151.861C153.198 153.695 152.74 155.57 152.241 157.487C151.825 159.321 151.284 161.155 150.619 162.988C149.953 164.822 149.162 166.614 148.247 168.364C147.415 170.031 146.458 171.698 145.376 173.365C144.378 174.949 143.254 176.491 142.006 177.991C140.925 179.324 139.76 180.575 138.512 181.742C137.18 182.908 135.807 183.95 134.393 184.867C132.895 185.784 131.356 186.576 129.775 187.242C128.194 187.909 126.571 188.451 124.907 188.868C122.993 189.201 121.079 189.493 119.165 189.743C117.335 189.993 115.463 190.201 113.549 190.368L107.807 190.618H102.066H47.6469V57.2202H0.716797V205.621C0.716797 219.623 10.9516 231 23.5578 231H104.188L119.914 230.75C131.272 230.75 142.506 228.5 152.865 224.124C163.35 219.748 172.835 213.497 180.948 205.496C188.936 197.494 195.302 187.993 199.67 177.491C204.039 167.114 206.286 155.862 206.286 144.61C206.286 140.443 205.994 136.317 205.412 132.233C204.829 128.232 203.914 124.232 202.666 120.231C201.418 116.314 199.92 112.521 198.173 108.854C196.342 105.187 194.22 101.644 191.807 98.2272C191.142 97.2271 190.434 96.2269 189.685 95.2267C189.02 94.3099 188.312 93.3514 187.563 92.3512C186.731 91.4344 185.941 90.5176 185.192 89.6007Z" fill="#030D11"/>
</svg>
