<?xml version="1.0"?>
<svg xmlns="http://www.w3.org/2000/svg" xmlns:xlink="http://www.w3.org/1999/xlink" viewBox="0 0 89.76 99.09">
  <defs>
    <style>.cls-1,.cls-4,.cls-5{opacity:0.5;}.cls-1{fill:url(#linear-gradient);}.cls-2{fill:url(#linear-gradient-2);}.cls-3{fill:#f49c14;}.cls-4{fill:url(#linear-gradient-3);}.cls-5{fill:url(#linear-gradient-4);}</style>
    <linearGradient id="linear-gradient" x1="70.12" y1="13.02" x2="83.34" y2="13.02" gradientUnits="userSpaceOnUse">
      <stop offset="0" stop-color="#2f3a56"/>
      <stop offset="1" stop-color="#2f3a56"/>
    </linearGradient>
    <linearGradient id="linear-gradient-2" x1="0" y1="49.55" x2="89.76" y2="49.55" xlink:href="#linear-gradient"/>
    <linearGradient id="linear-gradient-3" x1="43.55" y1="91.17" x2="49.64" y2="91.17" xlink:href="#linear-gradient"/>
    <linearGradient id="linear-gradient-4" x1="4.38" y1="27.77" x2="8.8" y2="27.77" xlink:href="#linear-gradient"/>
  </defs>
  <title>dt-icon-color</title>
  <g id="Layer_2">
    <g id="Layer_1-2">
      <path class="cls-1" d="M79.09,19.2a6.61,6.61,0,1,1,3.81-8.54A6.61,6.61,0,0,1,79.09,19.2Z"/>
      <path class="cls-2" d="M88.89,8.36A13.11,13.11,0,0,0,76.73,0a12.84,12.84,0,0,0-4.66.87,13,13,0,0,0-7.5,16.81A12.65,12.65,0,0,0,66.3,20.8l-16,15.4a21.77,21.77,0,0,0-30.08,1L12.5,30.66a3.43,3.43,0,0,0,.23-.52,6.48,6.48,0,0,0-.12-5,6.59,6.59,0,1,0-6,9.26,6.43,6.43,0,0,0,2.66-.57,7.09,7.09,0,0,0,1.08-.6l7.78,6.59A21.8,21.8,0,0,0,15.5,60.22a21.93,21.93,0,0,0,20.35,14A21.6,21.6,0,0,0,40,73.81l2.89,10.36A7.92,7.92,0,0,0,46.6,99.09,7.64,7.64,0,0,0,49,98.71a7.92,7.92,0,0,0,5.13-10,7.9,7.9,0,0,0-7.54-5.5l-.48,0L43.24,72.92l.39-.15A21.8,21.8,0,0,0,56.18,44.64a21.44,21.44,0,0,0-3.53-6l16-15.4a13.08,13.08,0,0,0,8.11,2.85,13.06,13.06,0,0,0,11.89-7.72A13,13,0,0,0,88.89,8.36ZM48,95.53a4.39,4.39,0,0,1-1.39.22,4.58,4.58,0,0,1-1.4-8.94,4.71,4.71,0,0,1,1.4-.22A4.58,4.58,0,0,1,48,95.53Zm-5.31-8.16ZM8.26,31.54a4,4,0,0,1-1.67.36,4.13,4.13,0,1,1,3.77-5.8,4.05,4.05,0,0,1,.08,3.15A4.12,4.12,0,0,1,8.26,31.54ZM42.44,69.65a18.21,18.21,0,0,1-6.59,1.23A18.56,18.56,0,0,1,18.62,59,18.44,18.44,0,0,1,35.84,34a18.44,18.44,0,0,1,6.6,35.66Zm9-31.1ZM76.73,22.71a9.73,9.73,0,0,1-9-6.22A9.69,9.69,0,0,1,73.26,4,9.69,9.69,0,0,1,85.77,9.56a9.69,9.69,0,0,1-5.58,12.51A9.77,9.77,0,0,1,76.73,22.71ZM68.59,22Zm20.2-10.47v0Z"/>
      <path class="cls-3" d="M40.76,65.39a13.76,13.76,0,1,1,7.92-17.77A13.76,13.76,0,0,1,40.76,65.39Z"/>
      <path class="cls-4" d="M47.68,94a3,3,0,1,1,1.76-3.93A3,3,0,0,1,47.68,94Z"/>
      <path class="cls-5" d="M7.38,29.83A2.21,2.21,0,1,1,8.66,27,2.21,2.21,0,0,1,7.38,29.83Z"/>
    </g>
  </g>
</svg>
