<?xml version="1.0" encoding="UTF-8"?>
<svg version="1.1" xmlns="http://www.w3.org/2000/svg" width="2000" height="436">
<path d="M0 0 C21.12 0 42.24 0 64 0 C77.27638122 40.22965066 77.27638122 40.22965066 82.7265625 56.75830078 C83.82986169 60.10415572 84.93316633 63.45000885 86.03647614 66.79586029 C86.78058633 69.05243177 87.52468107 71.30900834 88.26876068 73.5655899 C92.84509832 87.44377475 97.42709725 101.32006462 102.01773071 115.19352722 C104.15590233 121.65572547 106.29110594 128.1189029 108.42530632 134.58241367 C109.85203881 138.90274363 111.28042495 143.2225122 112.71258545 147.54104614 C114.04674525 151.56409389 115.37685997 155.58845521 116.70377731 159.61389732 C117.18728878 161.07818611 117.67234175 162.54196692 118.15904617 164.00519753 C118.81715924 165.98439944 119.46981679 167.9653174 120.12109375 169.94677734 C120.4864624 171.05097015 120.85183105 172.15516296 121.22827148 173.29281616 C122 176 122 176 122 179 C122.66 179 123.32 179 124 179 C124.11097519 178.39420294 124.22195038 177.78840588 124.33628845 177.16425133 C125.51387488 170.98418358 127.05513098 165.01256967 128.87890625 158.99462891 C129.16271935 158.044852 129.44653246 157.09507509 129.73894596 156.11651707 C130.67581678 152.98522113 131.61913055 149.85590611 132.5625 146.7265625 C133.22919371 144.50291175 133.89548046 142.27913895 134.56138611 140.05525208 C136.33660103 134.13072101 138.11735007 128.20786724 139.89927292 122.2853508 C141.73226062 116.18994522 143.56037375 110.09307821 145.38891602 103.99633789 C148.27125663 94.38791775 151.15638997 84.78034079 154.04345703 75.17333984 C157.17457502 64.75340591 160.2979095 54.33117265 163.41367722 43.9066391 C164.68450289 39.65510552 165.95638025 35.40388645 167.22817039 31.1526413 C168.17200818 27.99747007 169.11532657 24.84214524 170.05786133 21.68658447 C171.06677546 18.31006154 172.07795734 14.93422691 173.08984375 11.55859375 C173.37681625 10.59621292 173.66378876 9.63383209 173.9594574 8.64228821 C174.34678795 7.35260384 174.34678795 7.35260384 174.74194336 6.03686523 C174.96297226 5.29814682 175.18400116 4.55942841 175.41172791 3.79832458 C176 2 176 2 177 0 C191.85 0 206.7 0 222 0 C229.59883623 24.26539819 236.90165603 48.61390213 244.16835022 72.98049164 C245.78254887 78.39182258 247.39862063 83.80259399 249.01464844 89.21337891 C249.66015986 91.37475478 250.30566769 93.53613173 250.95117188 95.69750977 C251.42680573 97.29009613 251.42680573 97.29009613 251.91204834 98.91485596 C252.86079407 102.09187189 253.80933806 105.26894799 254.7578125 108.44604492 C259.26748342 123.5516711 263.78386103 138.65526091 268.31390381 153.75479126 C268.93313872 155.81883362 269.55216069 157.88293988 270.17095947 159.94711304 C270.99368289 162.69145437 271.8170163 165.43561174 272.640625 168.1796875 C272.98687424 169.33485115 272.98687424 169.33485115 273.34011841 170.51335144 C274.19386392 173.35488681 275.06167493 176.1850248 276 179 C276.16936066 178.47938995 276.33872131 177.95877991 276.51321411 177.4223938 C283.98221639 154.46712346 291.46361145 131.51689617 299.125 108.625 C304.08993436 93.789297 308.968297 78.9275729 313.79406738 64.04605103 C320.73384329 42.65402096 327.86797284 21.32879821 335 0 C355.79 0 376.58 0 398 0 C396.87501685 7.87488202 396.87501685 7.87488202 395.57421875 11.80737305 C395.27903351 12.70945999 394.98384827 13.61154694 394.67971802 14.54096985 C394.35228607 15.52131699 394.02485413 16.50166412 393.6875 17.51171875 C393.15949295 19.11644295 393.15949295 19.11644295 392.62081909 20.75358582 C391.63085162 23.75837796 390.63557952 26.76135449 389.63820648 29.76369476 C388.5436298 33.06317921 387.45606454 36.36497425 386.36767578 39.66650391 C384.38057698 45.69114317 382.38914671 51.71433844 380.39550781 57.73681641 C376.6698467 68.99251547 372.95589751 80.252072 369.2421875 91.51171875 C367.86333661 95.69207555 366.48442983 99.87241392 365.10546875 104.05273438 C364.5849827 105.6305988 364.5849827 105.6305988 364.05398178 107.24033928 C361.577885 114.74601911 359.09990081 122.25107424 356.62109375 129.75585938 C350.0926352 149.52265321 343.56988543 169.29123499 337.07992935 189.07070923 C336.14658086 191.9150724 335.21286611 194.75931506 334.27902222 197.60351562 C333.6770579 199.43701005 333.0750986 201.27050612 332.47314453 203.10400391 C332.18152121 203.99224476 331.88989788 204.88048561 331.58943748 205.79564285 C329.88018166 211.00281616 328.17369258 216.21088643 326.4691906 221.41961765 C325.43141731 224.58895068 324.39124172 227.75749132 323.35039902 230.92581749 C322.87137138 232.38581781 322.39341677 233.84617068 321.91659927 235.3068943 C321.27265276 237.27931718 320.62508354 239.25051293 319.9765625 241.22143555 C319.61643066 242.32102097 319.25629883 243.42060638 318.88525391 244.55351257 C318 247 318 247 317 248 C314.76070114 248.09436529 312.5183825 248.11742327 310.27709961 248.11352539 C309.5746965 248.11367142 308.8722934 248.11381744 308.14860535 248.1139679 C305.81648722 248.11326872 303.484448 248.10547617 301.15234375 248.09765625 C299.53951562 248.09579208 297.92668693 248.09436818 296.31385803 248.09336853 C292.06084643 248.08954323 287.80786876 248.07971285 283.55487061 248.06866455 C279.2182257 248.05845069 274.88157533 248.05387096 270.54492188 248.04882812 C262.02993231 248.03809059 253.51497037 248.02101403 245 248 C242.67415411 242.00632449 240.71044327 235.97063824 238.88061523 229.80908203 C238.58412582 228.81889572 238.28763641 227.82870941 237.98216248 226.80851746 C237.00495031 223.54241283 236.03172965 220.27513374 235.05859375 217.0078125 C234.3696127 214.70166477 233.68040461 212.39558487 232.99098206 210.08956909 C231.5426744 205.24315752 230.09617282 200.39621208 228.65112305 195.54882812 C226.83035698 189.4411342 225.00665074 183.33432392 223.18175316 177.22786331 C215.39456633 151.1694838 207.63603222 125.10311965 200 99 C197.89217335 102.16173997 197.05687635 104.71185765 195.97900391 108.34570312 C195.78611471 108.99085027 195.59322552 109.63599741 195.3944912 110.30069447 C194.75036489 112.45947799 194.11350003 114.62033554 193.4765625 116.78125 C193.01843406 118.32184482 192.55984603 119.86230304 192.10083008 121.40263367 C191.11727861 124.70663429 190.1369014 128.01155397 189.15899658 131.31723022 C187.62195321 136.51287855 186.07790592 141.70642813 184.53271484 146.8996582 C182.40848397 154.0412076 180.28713676 161.18360685 178.16796875 168.32666016 C173.99277592 182.39871979 169.80413715 196.4667671 165.60883141 210.53284264 C164.29266618 214.94611571 162.97864972 219.3600207 161.66646194 223.77447796 C160.85625944 226.49900777 160.04456624 229.22309181 159.23248291 231.94706154 C158.67881254 233.80594714 158.1269787 235.66537945 157.57519531 237.52482605 C157.0847876 239.16805595 157.0847876 239.16805595 156.58447266 240.84448242 C156.30076813 241.79804123 156.0170636 242.75160004 155.72476196 243.73405457 C155 246 155 246 154 248 C129.91 248 105.82 248 81 248 C78.380625 239.9975 75.76125 231.995 73.0625 223.75 C64.07769559 196.32825376 55.04292921 168.92309975 45.99683762 141.52151871 C44.22817585 136.16376628 42.4599364 130.80587449 40.69165039 125.44799805 C34.75735128 107.46778066 28.82259468 89.48771695 22.88164997 71.5096941 C20.31808445 63.75153073 17.756589 55.99268584 15.19667339 48.23331738 C13.42026505 42.8491945 11.64139442 37.46589394 9.86062527 32.0832119 C8.77276509 28.79289789 7.6873412 25.50178425 6.60264397 22.21042633 C6.10338506 20.6971315 5.60312407 19.18416685 5.10177803 17.67156219 C4.42126887 15.6179404 3.74436726 13.56316376 3.06835938 11.50805664 C2.69046265 10.36405899 2.31256592 9.22006134 1.92321777 8.04139709 C1 5 1 5 0 0 Z " fill="#0B3656" transform="translate(1026,125)"/>
<path d="M0 0 C0.33 -6.6 0.66 -13.2 1 -20 C17.5 -20 34 -20 51 -20 C51 61.18 51 142.36 51 226 C34.5 226 18 226 1 226 C1 219.07 1 212.14 1 205 C-1.124375 206.485 -3.24875 207.97 -5.4375 209.5 C-32.1287318 227.49352606 -64.85233278 233.41994582 -96.55664062 227.82226562 C-100.41289715 227.0177229 -104.20819441 226.06548061 -108 225 C-108.66306152 224.82339844 -109.32612305 224.64679688 -110.00927734 224.46484375 C-139.67127369 216.40167837 -164.66316681 195.24224039 -180 169 C-197.72456126 137.71072349 -201.23929901 100.49866208 -192.125 65.890625 C-183.50582333 35.18104098 -163.87315237 9.18568937 -136.28125 -6.796875 C-94.37450687 -30.09722753 -38.88752587 -29.62859114 0 0 Z M-129.16015625 52.2734375 C-143.73888262 69.18363649 -147.34771347 90.56696926 -146.21875 112.21484375 C-144.74111788 131.02826693 -135.36479828 148.20870515 -121.875 161.125 C-107.07156015 173.71174576 -87.4561351 180.45843437 -68 179 C-47.44490556 177.3010341 -29.12819009 170.5075113 -15 155 C0.07765087 137.17276258 4.60925502 115.74030602 3 93 C1.28047894 78.84260998 -3.99254989 65.09181873 -13 54 C-13.64453125 53.16984375 -14.2890625 52.3396875 -14.953125 51.484375 C-26.38387992 37.68279683 -43.58467228 29.7305321 -61.1875 27.375 C-87.72288898 24.92975938 -110.71831266 32.86448096 -129.16015625 52.2734375 Z " fill="#0B3656" transform="translate(1949,144)"/>
<path d="M0 0 C62.7 0 125.4 0 190 0 C190 35.01938012 190 35.01938012 179.68896484 46.10498047 C176.82433239 49.31909974 174.48421826 52.88559264 172.0625 56.4375 C171.06570174 57.85772132 170.06568068 59.27568598 169.0625 60.69140625 C168.56105469 61.3992627 168.05960938 62.10711914 167.54296875 62.83642578 C164.90659798 66.53318491 162.23174031 70.20194624 159.5625 73.875 C155.0590758 80.07537641 150.67893295 86.34714668 146.375 92.6875 C142.06671551 99.0337122 137.65663267 105.27931683 133.09106445 111.44262695 C128.11886382 118.16252236 123.32004483 125.00207374 118.51611328 131.84277344 C116.01656693 135.39929382 113.50794239 138.94939773 111 142.5 C108.00841805 146.73596723 105.01821166 150.97286618 102.03515625 155.21484375 C96.26532261 163.41358206 90.44807301 171.57416181 84.53930664 179.67358398 C80.88218024 184.70657812 77.45823061 189.81265408 74 195 C112.28 195.33 150.56 195.66 190 196 C190 213.16 190 230.32 190 248 C124.99 248 59.98 248 -7 248 C-7 214.09518989 -7 214.09518989 3.26806641 202.94970703 C6.26291458 199.57828646 8.78098838 195.86993869 11.375 192.1875 C12.46473584 190.67996935 13.55589784 189.17346865 14.6484375 187.66796875 C18.7506783 181.97710329 22.75681375 176.21987271 26.7668457 170.46386719 C30.6414697 164.91226336 34.57941671 159.41168318 38.5625 153.9375 C43.02588538 147.80051443 47.3632132 141.59107022 51.625 135.3125 C55.9332679 128.9662776 60.34336798 122.72068231 64.90893555 116.55737305 C70.40374203 109.13117937 75.69147749 101.55984359 81 94 C82.97744883 91.18628755 84.95655582 88.37375274 86.9375 85.5625 C87.42404053 84.87196533 87.91058105 84.18143066 88.41186523 83.4699707 C92.77030683 77.29818895 97.19200386 71.17281395 101.63647461 65.06274414 C102.40423218 64.00494751 102.40423218 64.00494751 103.1875 62.92578125 C103.63480469 62.31130127 104.08210938 61.69682129 104.54296875 61.0637207 C106.41487341 58.41237853 108.19968871 55.70046693 110 53 C73.7 52.67 37.4 52.34 0 52 C0 34.84 0 17.68 0 0 Z " fill="#0B3656" transform="translate(1552,125)"/>
<path d="M0 0 C8.25 0 16.5 0 25 0 C25 115.17 25 230.34 25 349 C16.75 349 8.5 349 0 349 C-0.33 332.17 -0.66 315.34 -1 298 C-4.465 303.445 -4.465 303.445 -8 309 C-9.88412625 311.3224123 -11.69770818 313.47937434 -13.75 315.625 C-14.51969116 316.44037231 -14.51969116 316.44037231 -15.30493164 317.2722168 C-33.93426358 336.6511855 -61.24535761 350.79346254 -88.48486328 352.17700195 C-123.11705705 352.73032344 -123.11705705 352.73032344 -139 348 C-140.10118164 347.67854004 -140.10118164 347.67854004 -141.22460938 347.35058594 C-171.14234874 338.34379937 -194.08982539 319.08990209 -209.1875 291.8125 C-218.20320206 274.8308239 -223.08855097 254.94135993 -223.203125 235.7578125 C-223.20882507 234.99056854 -223.21452515 234.22332458 -223.22039795 233.43283081 C-223.22978725 231.81428375 -223.23635756 230.19571809 -223.24023438 228.57714844 C-223.24983811 226.16565064 -223.28087646 223.75504489 -223.3125 221.34375 C-223.54221174 187.63495317 -212.495749 155.43669843 -188.6875 131.1875 C-164.16922362 107.056015 -131.97281411 97.73937059 -98.20947266 97.7512207 C-68.03666536 98.04356841 -39.25345921 107.91247933 -17.3125 129.125 C-16.58317261 129.81372192 -16.58317261 129.81372192 -15.83911133 130.51635742 C-9.74161197 136.6784126 -5.96051131 143.55923303 -1 151 C-0.67 101.17 -0.34 51.34 0 0 Z M-174.0703125 151.73046875 C-193.44438074 174.51656926 -201.06889187 204.44440182 -199 234 C-196.63524813 262.37702239 -186.85659618 287.48678331 -165.0625 306.375 C-147.86183037 320.00322286 -126.87393522 326.93134973 -105 328 C-104.22785156 328.04125 -103.45570312 328.0825 -102.66015625 328.125 C-75.53835 328.84704476 -50.184568 319.25325306 -30.40820312 300.85546875 C-12.11231034 283.18886145 -1.52308156 258.26504358 -0.76171875 232.89453125 C-0.27655688 202.29251283 -6.17202022 175.29349379 -27.6640625 152.37109375 C-45.42227253 134.34561969 -68.48404634 123.02063815 -94 122 C-94.8353125 121.9484375 -95.670625 121.896875 -96.53125 121.84375 C-125.14381653 120.87928147 -154.14259619 130.7691572 -174.0703125 151.73046875 Z " fill="#0B3656" transform="translate(223,21)"/>
<path d="M0 0 C0.76570312 0.68449219 1.53140625 1.36898437 2.3203125 2.07421875 C9.14613237 8.50761343 13.32064768 15.04890675 19 23 C19.33 6.83 19.66 -9.34 20 -26 C28.25 -26 36.5 -26 45 -26 C45 54.52 45 135.04 45 218 C36.75 218 28.5 218 20 218 C19.67 202.16 19.34 186.32 19 170 C16.36 173.63 13.72 177.26 11 181 C-4.48436023 200.03005431 -24.42513084 212.52931313 -48 219 C-49.20140625 219.3403125 -50.4028125 219.680625 -51.640625 220.03125 C-82.5584885 227.25880251 -117.11459332 221.23852427 -144.27734375 205.07519531 C-172.18837641 187.65453377 -191.37735012 160.60537944 -199.02734375 128.7578125 C-201.3120831 118.08841321 -202.36289924 107.72430067 -202.3125 96.8125 C-202.30758545 95.5438208 -202.3026709 94.2751416 -202.29760742 92.96801758 C-201.93417102 63.68995378 -192.34797924 35.30751718 -173 13 C-172.33613281 12.19175781 -171.67226563 11.38351563 -170.98828125 10.55078125 C-150.64211372 -13.40579678 -120.23925446 -25.60214198 -89.5625 -28.8125 C-56.91725366 -30.53287931 -24.53907524 -22.3830862 0 0 Z M-110 0 C-110.6403418 0.21430664 -111.28068359 0.42861328 -111.94042969 0.64941406 C-125.88534724 5.42754791 -137.45334327 12.76246942 -148 23 C-148.68578125 23.61230469 -149.3715625 24.22460938 -150.078125 24.85546875 C-166.41583389 39.93890471 -175.95323015 64.61537317 -177.13842773 86.56347656 C-178.10749355 114.5692416 -173.140874 143.17206879 -153.4375 164.4375 C-151.6428935 166.31023821 -149.82315768 168.15474344 -148 170 C-147.41734375 170.65484375 -146.8346875 171.3096875 -146.234375 171.984375 C-130.33115143 189.49398479 -104.58887639 196.59197232 -81.90234375 198.22265625 C-56.3011763 198.98243283 -30.13222924 191.38442363 -11 174 C-9.64455078 172.78376953 -9.64455078 172.78376953 -8.26171875 171.54296875 C11.61190429 152.76885459 21.47188813 125.9352377 22.28564453 98.88256836 C22.65600042 69.47294415 11.8109235 42.74207245 -8.1875 21.3125 C-29.6419093 0.76461504 -57.00657883 -4.5676553 -85.71875 -4.27734375 C-94.31064319 -4.05593727 -101.88447851 -2.75073465 -110 0 Z " fill="#0B3656" transform="translate(491,151)"/>
<path d="M0 0 C0.49338867 0.45246094 0.98677734 0.90492188 1.49511719 1.37109375 C9.07199806 8.37389661 14.09194218 15.13791327 20 24 C20.33 7.83 20.66 -8.34 21 -25 C29.25 -25 37.5 -25 46 -25 C46 55.52 46 136.04 46 219 C37.75 219 29.5 219 21 219 C20.67 203.49 20.34 187.98 20 172 C16.7 176.29 13.4 180.58 10 185 C7.92060392 187.34747154 5.91428602 189.57008203 3.6875 191.75 C3.14464355 192.28455811 2.60178711 192.81911621 2.04248047 193.36987305 C-11.32947889 206.20055892 -28.21084757 215.1181536 -46 220 C-47.13695312 220.3196875 -48.27390625 220.639375 -49.4453125 220.96875 C-68.16727143 225.33585921 -90.44174098 225.14213035 -109 220 C-109.80663086 219.77957031 -110.61326172 219.55914062 -111.44433594 219.33203125 C-129.33100353 214.27317577 -145.13746218 206.51386987 -159 194 C-159.85980469 193.27039063 -160.71960938 192.54078125 -161.60546875 191.7890625 C-185.69355615 171.01718683 -198.62575699 139.22838284 -201 108 C-202.7954585 73.4026282 -194.25225733 39.38527252 -171 13 C-162.31434333 3.38905735 -153.22595021 -4.50753963 -142 -11 C-141.06099854 -11.54479004 -141.06099854 -11.54479004 -140.10302734 -12.10058594 C-126.40093174 -19.86709819 -110.6688854 -25.15937792 -95 -27 C-93.9996875 -27.12117188 -92.999375 -27.24234375 -91.96875 -27.3671875 C-59.49530224 -30.4779617 -24.36234935 -22.68971044 0 0 Z M-152.54296875 29.796875 C-166.29441862 46.10512711 -175.18047675 67.48751476 -176 89 C-176.0515625 90.20398438 -176.103125 91.40796875 -176.15625 92.6484375 C-176.94362867 120.25569786 -168.97725384 147.45795505 -150 168 C-149.32710937 168.76441406 -148.65421875 169.52882813 -147.9609375 170.31640625 C-130.93554704 188.64898961 -105.56135556 198.15392149 -80.9140625 199.12109375 C-55.41360089 199.60818122 -30.36105962 193.18644785 -11 176 C-10.3296875 175.47148437 -9.659375 174.94296875 -8.96875 174.3984375 C9.2011599 159.76156564 19.90775024 135.1113116 22.77294922 112.44238281 C25.35726969 84.64287532 20.38902292 55.70096206 2.68603516 33.34033203 C-0.36017256 29.70092123 -3.62834314 26.33794029 -7 23 C-7.77859375 22.19949219 -8.5571875 21.39898437 -9.359375 20.57421875 C-29.49270558 1.01516102 -56.83182676 -3.69196592 -83.80078125 -3.30859375 C-110.8316216 -2.46091222 -134.49898071 9.95125989 -152.54296875 29.796875 Z " fill="#0B3656" transform="translate(942,150)"/>
<path d="M0 0 C0.90766617 -0.00615326 1.81533234 -0.01230652 2.75050354 -0.01864624 C3.71834274 -0.00427521 4.68618195 0.01009583 5.68334961 0.02490234 C6.68780624 0.02581879 7.69226288 0.02673523 8.72715759 0.02767944 C10.84614806 0.03371027 12.9651302 0.04944059 15.08398438 0.07421875 C18.3277119 0.11074996 21.5702971 0.11523778 24.81420898 0.11474609 C26.87476573 0.12457681 28.93531475 0.13623362 30.99584961 0.14990234 C31.96571304 0.15212799 32.93557648 0.15435364 33.93482971 0.15664673 C34.83934372 0.16940643 35.74385773 0.18216614 36.67578125 0.1953125 C37.46900284 0.2029361 38.26222443 0.21055969 39.07948303 0.21841431 C41.55137012 0.51975114 43.16568961 1.17177719 45.27319336 2.48583984 C46.40605364 4.75156041 46.39940048 5.97286148 46.40182781 8.48734188 C46.40505226 9.32897222 46.4082767 10.17060255 46.41159886 11.03773683 C46.40927596 12.43250658 46.40927596 12.43250658 46.40690613 13.85545349 C46.40917168 14.83918176 46.41143724 15.82291003 46.41377145 16.83644825 C46.42013379 20.15375392 46.41928066 23.47101896 46.41845703 26.78833008 C46.42144712 29.15811211 46.42484929 31.52789366 46.42863464 33.89767456 C46.43657246 39.67898931 46.43968994 45.4602916 46.44024702 51.24161153 C46.44072168 55.93928997 46.4427739 60.63696504 46.44594765 65.33464241 C46.45475687 78.64397518 46.45936658 91.95329988 46.45861717 105.26263558 C46.45857722 105.98058254 46.45853726 106.6985295 46.45849609 107.43823242 C46.45845521 108.15705265 46.45841433 108.87587287 46.45837221 109.61647553 C46.45796562 121.2702495 46.46753774 132.92399118 46.48163446 144.5777558 C46.49598393 156.53449712 46.50290544 168.49122268 46.50204068 180.44797283 C46.50170823 187.16451668 46.50447653 193.88102668 46.51521873 200.59756279 C46.52486475 206.91185018 46.52500304 213.22606584 46.5177021 219.54035568 C46.51665191 221.86279339 46.51904466 224.18523548 46.52506256 226.50766563 C46.5327243 229.66827698 46.52817648 232.82863703 46.52043152 235.98924255 C46.52557508 236.91685833 46.53071864 237.8444741 46.53601807 238.80019945 C46.52911988 240.06655657 46.52911988 240.06655657 46.52208233 241.35849667 C46.5222997 242.08837416 46.52251706 242.81825165 46.52274102 243.57024664 C46.27319336 245.48583984 46.27319336 245.48583984 44.27319336 248.48583984 C42.11671448 248.86679077 42.11671448 248.86679077 39.41210938 248.87402344 C38.40088516 248.88347992 37.38966095 248.8929364 36.34779358 248.90267944 C35.25196457 248.89660675 34.15613556 248.89053406 33.02709961 248.88427734 C31.90504623 248.88714752 30.78299286 248.8900177 29.62693787 248.89297485 C27.25047299 248.89501927 24.87399142 248.8894632 22.49755859 248.87695312 C18.85402852 248.86092052 15.21161037 248.87678221 11.56811523 248.89599609 C9.26277424 248.89401344 6.95743393 248.89016929 4.65209961 248.88427734 C3.55829483 248.89035004 2.46449005 248.89642273 1.33753967 248.90267944 C-0.18402489 248.88849472 -0.18402489 248.88849472 -1.73632812 248.87402344 C-2.6296434 248.87163666 -3.52295868 248.86924988 -4.44334412 248.86679077 C-7.25280772 248.39808688 -7.9720324 247.68853792 -9.72680664 245.48583984 C-10.10515547 243.57254797 -10.10515547 243.57254797 -10.10991669 241.36408329 C-10.11897333 240.52107861 -10.12802997 239.67807392 -10.13736105 238.80952364 C-10.13203312 237.88327211 -10.1267052 236.95702057 -10.12121582 236.00270081 C-10.12730692 235.01882368 -10.13339803 234.03494655 -10.13967371 233.02125496 C-10.15638387 229.7092853 -10.15151644 226.39769673 -10.14672852 223.08569336 C-10.15406417 220.71738279 -10.16264891 218.34907581 -10.1723938 215.98077393 C-10.19235508 210.20658693 -10.1979875 204.43251856 -10.19620591 198.65829963 C-10.19489933 193.96588685 -10.1986971 189.27350543 -10.20613098 184.58109856 C-10.20823013 183.23050354 -10.21032773 181.87990852 -10.2124238 180.5293135 C-10.21346733 179.8571277 -10.21451086 179.18494189 -10.21558601 178.49238681 C-10.23449652 165.77397636 -10.23343567 153.05562356 -10.22661668 140.33720487 C-10.22104031 128.69702648 -10.24186905 117.05706813 -10.27497715 105.41694117 C-10.3086938 93.47031679 -10.32388505 81.52379788 -10.31926012 69.57712501 C-10.3170134 62.86776258 -10.32228793 56.15860354 -10.34715271 49.44928169 C-10.36934085 43.14141468 -10.36760787 36.83400702 -10.34722519 30.52613831 C-10.34380113 28.20734237 -10.34896378 25.88851598 -10.36320877 23.56976128 C-10.38127777 20.41128556 -10.36874342 17.25438875 -10.3482666 14.09596252 C-10.36078445 13.17194171 -10.3733023 12.2479209 -10.38619947 11.29589945 C-10.29971228 5.10085066 -10.29971228 5.10085066 -7.33300877 1.91611195 C-4.59641467 0.41428131 -3.09053845 -0.01109315 0 0 Z " fill="#16B073" transform="translate(1464.726806640625,124.51416015625)"/>
<path d="M0 0 C8.25 0 16.5 0 25 0 C25 23.43 25 46.86 25 71 C52.39 71 79.78 71 108 71 C108 78.26 108 85.52 108 93 C80.61 93 53.22 93 25 93 C25.11983768 121.27348874 25.11983768 121.27348874 25.2578125 149.546875 C25.31813682 161.08364047 25.37650166 172.6203913 25.421875 184.15722656 C25.45493556 192.56101469 25.49484321 200.96473844 25.54279006 209.36845529 C25.56791601 213.8133789 25.5897374 218.25826059 25.60334396 222.70323563 C25.61629172 226.89751891 25.63847928 231.09165735 25.66738319 235.28586006 C25.67636068 236.81511799 25.68212582 238.34439917 25.68421364 239.87368202 C25.7097343 255.74508651 26.39074459 271.74585461 36 285 C36.495 286.485 36.495 286.485 37 288 C38.80660519 289.09933664 38.80660519 289.09933664 41 290 C41.74636719 290.4021875 42.49273438 290.804375 43.26171875 291.21875 C58.79837773 299.42490804 75.52709366 298.47496377 92.04589844 293.62939453 C96.07072126 292.33304355 99.93430383 290.70813085 103.77734375 288.953125 C106 288 106 288 108 288 C109.36978501 291.09750602 110.71806572 294.20391657 112.0625 297.3125 C112.64741211 298.63411133 112.64741211 298.63411133 113.24414062 299.98242188 C113.60830078 300.82998047 113.97246094 301.67753906 114.34765625 302.55078125 C114.85824585 303.72120972 114.85824585 303.72120972 115.37915039 304.9152832 C116 307 116 307 115 310 C109.54121415 312.82441381 103.77398858 314.90933291 98 317 C96.77796875 317.4434375 95.5559375 317.886875 94.296875 318.34375 C74.19931474 324.43391978 50.69219352 322.93356105 31.625 314.3125 C17.02291736 306.38735339 8.72047307 293.65392171 4 278 C0.40399763 263.56524049 -0.15183544 249.0368469 -0.11352539 234.22558594 C-0.11324267 232.67703758 -0.11340291 231.12848908 -0.1139679 229.5799408 C-0.11425255 225.41341692 -0.10840986 221.24692235 -0.10139394 217.08040524 C-0.09510478 212.71223541 -0.09455223 208.34406477 -0.09336853 203.97589111 C-0.09027152 195.72082235 -0.08208028 187.46576698 -0.07201904 179.21070409 C-0.06080706 169.805528 -0.05533468 160.40035124 -0.05032361 150.99517012 C-0.03989616 131.66343764 -0.02157114 112.33172348 0 93 C-17.16 93 -34.32 93 -52 93 C-52 85.74 -52 78.48 -52 71 C-34.84 71 -17.68 71 0 71 C0 47.57 0 24.14 0 0 Z " fill="#0B3656" transform="translate(606,52)"/>
<path d="M0 0 C0.97103165 -0.00945648 1.94206329 -0.01891296 2.94252014 -0.02865601 C3.98427902 -0.02258331 5.0260379 -0.01651062 6.09936523 -0.01025391 C7.17419662 -0.01312408 8.24902802 -0.01599426 9.35643005 -0.01895142 C11.62678556 -0.02099161 13.89715865 -0.01546491 16.16748047 -0.00292969 C19.6484287 0.0131396 23.12821852 -0.00278866 26.60913086 -0.02197266 C28.81421155 -0.01999053 31.01929153 -0.01614748 33.22436523 -0.01025391 C34.26814835 -0.0163266 35.31193146 -0.02239929 36.38734436 -0.02865601 C37.35522385 -0.01919952 38.32310333 -0.00974304 39.3203125 0 C40.17206558 0.00238678 41.02381866 0.00477356 41.90138245 0.00723267 C44.09545898 0.38818359 44.09545898 0.38818359 45.86964417 1.59579468 C47.50687051 3.98975036 47.47604393 5.56364274 47.48364258 8.45458984 C47.49309906 9.48575928 47.50255554 10.51692871 47.51229858 11.5793457 C47.50622589 12.69188721 47.5001532 13.80442871 47.49389648 14.95068359 C47.49676666 16.09351807 47.49963684 17.23635254 47.50259399 18.41381836 C47.50463656 20.83138524 47.49909336 23.24896858 47.48657227 25.66650391 C47.47052219 29.37358444 47.48641539 33.0795746 47.50561523 36.78662109 C47.50363284 39.13297767 47.49978924 41.47933358 47.49389648 43.82568359 C47.50300552 45.49449585 47.50300552 45.49449585 47.51229858 47.19702148 C47.5028421 48.22819092 47.49338562 49.25936035 47.48364258 50.32177734 C47.4812558 51.22984131 47.47886902 52.13790527 47.47640991 53.07348633 C47.09545898 55.38818359 47.09545898 55.38818359 45.87637329 57.18057251 C43.53437122 58.76864873 42.0336995 58.76865032 39.21264648 58.77636719 C38.22151855 58.78582367 37.23039062 58.79528015 36.20922852 58.80502319 C35.14043457 58.7989505 34.07164063 58.79287781 32.97045898 58.78662109 C31.32279541 58.79092636 31.32279541 58.79092636 29.6418457 58.7953186 C27.31843551 58.79736095 24.9950082 58.79181922 22.67163086 58.77929688 C19.10939186 58.76324637 15.54828757 58.77914057 11.98608398 58.79833984 C9.73087314 58.79635744 7.475663 58.79251384 5.22045898 58.78662109 C4.15166504 58.79269379 3.08287109 58.79876648 1.98168945 58.80502319 C0.99056152 58.79556671 -0.00056641 58.78611023 -1.02172852 58.77636719 C-1.8942627 58.77398041 -2.76679687 58.77159363 -3.66577148 58.76913452 C-5.90454102 58.38818359 -5.90454102 58.38818359 -7.6844635 57.18057251 C-9.31254074 54.78880021 -9.29143101 53.20626965 -9.30859375 50.32177734 C-9.32762001 48.77502319 -9.32762001 48.77502319 -9.34703064 47.19702148 C-9.344095 46.08447998 -9.34115936 44.97193848 -9.33813477 43.82568359 C-9.34337662 42.68284912 -9.34861847 41.54001465 -9.35401917 40.36254883 C-9.36044598 37.94499525 -9.35909391 35.52741043 -9.35058594 33.10986328 C-9.3420741 29.40259381 -9.3708337 25.6968633 -9.40258789 21.98974609 C-9.40419984 19.64339239 -9.4036225 17.29703595 -9.40063477 14.95068359 C-9.41186874 13.83814209 -9.42310272 12.72560059 -9.43467712 11.5793457 C-9.42529617 10.54817627 -9.41591522 9.51700684 -9.40625 8.45458984 C-9.40608383 7.54652588 -9.40591766 6.63846191 -9.40574646 5.70288086 C-8.90454102 3.38818359 -8.90454102 3.38818359 -7.17971802 1.59579468 C-4.56233995 0.20655122 -2.95106362 0.00826174 0 0 Z " fill="#16B073" transform="translate(1463.904541015625,44.61181640625)"/>
</svg>
