<svg width="119" height="169" viewBox="0 0 119 169" fill="none" xmlns="http://www.w3.org/2000/svg">
<path fill-rule="evenodd" clip-rule="evenodd" d="M115.899 90.6996L48.8992 18.5996L45.4993 31.0996L63.3992 49.0996L61.3992 56.4996L27.7993 25.3996L24.6992 36.8996L48.9993 56.9996L47.4993 62.6996L33.4993 52.3996L30.8992 62.0996L83.8992 99.8996L82.0992 108C85.8992 110.7 97.3992 116.5 91.8992 120.8L102.399 113.1L111.699 106.3C118.299 101.5 119.999 95.1996 115.899 90.6996ZM67.7993 75.8996L59.8992 69.9996L61.8992 62.5996L69.6992 68.9996L67.7993 75.8996ZM84.1992 77.7996L79.4993 73.3996L81.1992 66.9996L85.7993 71.5996L84.1992 77.7996Z" fill="#033D73"/>
<path fill-rule="evenodd" clip-rule="evenodd" d="M39.3 12.6996L28.2 0.599609L25 12.6996L36.3 23.9996L39.3 12.6996Z" fill="#033D73"/>
<path fill-rule="evenodd" clip-rule="evenodd" d="M0 16.4994L13.2 27.4994L16.6 14.9994L3.69995 2.89941L0 16.4994Z" fill="#033D73"/>
<path fill-rule="evenodd" clip-rule="evenodd" d="M2.90039 42.1994L13.6004 49.8994L16.3004 39.8994L5.6004 31.8994L2.90039 42.1994Z" fill="#033D73"/>
<path fill-rule="evenodd" clip-rule="evenodd" d="M94.5008 107.6L83.9008 100.1L26.3008 134.1V168.9L91.9008 120.9C98.2008 116.3 99.3008 111.1 94.5008 107.6Z" fill="url(#bd6e6aee-8866-4d15-ad44-69b05f44b7e2)"/>
<defs>
<linearGradient id="bd6e6aee-8866-4d15-ad44-69b05f44b7e2" x1="26.2578" y1="134.489" x2="97.4613" y2="134.489" gradientUnits="userSpaceOnUse">
<stop offset="0.00149188" stop-color="#21FFFF"/>
<stop offset="1" stop-color="#4167B0"/>
</linearGradient>
</defs>
</svg>
