<svg xmlns="http://www.w3.org/2000/svg" width="75" height="75" fill="none" xmlns:v="https://vecta.io/nano"><g fill="#7d7d7d"><path d="M19.335 35.411h-1.52v-6.12h1.52v6.12zm.012-7.166h-1.555V27h1.555v1.245z"/><path fill-rule="evenodd" d="M14.624 35.409v-.575c-.421.47-.865.646-1.508.646-.596 0-1.157-.211-1.496-.552-.608-.611-.619-1.668-.619-2.584s.011-1.961.619-2.572c.339-.34.888-.552 1.485-.552.619 0 1.086.164 1.484.612v-2.784h1.519v8.362h-1.484zm-1.076-4.815c-.911 0-1.029.752-1.029 1.75s.117 1.763 1.029 1.763 1.04-.764 1.04-1.763-.128-1.75-1.04-1.75z"/><path d="M42.775 35.41c-1.251 0-1.777-.881-1.777-1.75v-6.613h1.52v6.519c0 .364.152.551.538.551h.584v1.293h-.865zm-11.901-1.749c0 .869.526 1.75 1.765 1.75h.83v-1.293h-.55c-.362 0-.526-.199-.526-.551V30.63h1.075v-1.163h-1.075v-1.809h-1.52v1.809h-.643v1.163h.643v3.03z"/><path d="M37.935 34.881v.529h1.484v-4.029c0-1.433-.888-2.161-2.595-2.161-1.017 0-1.602.188-2.198.845l.97.952c.316-.364.584-.505 1.169-.505.807 0 1.134.293 1.134.963v.306h-1.438c-1.414 0-2.081.799-2.081 1.774 0 .54.175 1.034.503 1.374.362.364.864.54 1.555.54.701 0 1.087-.177 1.496-.588zm-1.239-2.055H37.9v.329c0 .376-.059.623-.222.775-.269.259-.538.294-.959.294-.596 0-.877-.282-.877-.705 0-.435.305-.693.853-.693zm-15.771 4.099c.631.611 1.274.799 2.209.799 1.637 0 2.677-1.069 2.677-2.537V29.29h-1.473v.576c-.421-.47-.842-.646-1.485-.646-.596 0-1.123.2-1.462.541-.573.575-.619 1.35-.619 2.419s.047 1.855.619 2.432c.339.34.853.54 1.45.54s1.052-.164 1.45-.611v.623c0 .622-.316 1.269-1.228 1.269-.514 0-.853-.141-1.193-.47l-.947.963zm1.367-4.745c0-.811.093-1.586.994-1.586s1.006.776 1.006 1.586-.106 1.597-1.006 1.597-.994-.787-.994-1.597z" fill-rule="evenodd"/><path d="M27.519 35.411h1.519v-6.12h-1.519v6.12zm-.024-7.166h1.555V27h-1.555v1.245zM11 45.509c.771.775 1.636.881 2.595.881 1.437 0 2.583-.646 2.583-1.996 0-1.034-.608-1.68-1.812-1.797l-.959-.094c-.538-.047-.631-.306-.631-.529 0-.305.257-.587.865-.587.526 0 1.064.094 1.415.411l.935-.952c-.584-.552-1.379-.716-2.327-.716-1.239 0-2.349.681-2.349 1.95 0 1.127.678 1.608 1.777 1.714l.958.094c.479.047.643.259.643.564 0 .458-.55.634-1.076.634-.467 0-1.122-.07-1.625-.575l-.993.999zm9.949.811v-3.735c0-.81-.514-1.08-.993-1.08s-.982.282-.982 1.08v3.735h-1.52v-8.363h1.52v2.807c.41-.423.924-.634 1.462-.634 1.332 0 2.034.94 2.034 2.232v3.958h-1.519z"/><path d="M27.226 45.791v.529h1.484v-4.029c0-1.433-.888-2.161-2.595-2.161-1.017 0-1.602.188-2.198.845l.97.952c.316-.364.584-.505 1.169-.505.808 0 1.134.293 1.134.963v.306h-1.438c-1.414 0-2.08.799-2.08 1.774 0 .54.175 1.033.502 1.374.362.364.864.54 1.555.54.701 0 1.087-.176 1.496-.588zm-1.239-2.055h1.204v.329c0 .376-.058.623-.222.775-.269.259-.538.294-.959.294-.596 0-.877-.282-.877-.705 0-.435.305-.693.853-.693zm7.728 2.583v-.575c-.421.47-.864.646-1.508.646-.596 0-1.157-.211-1.496-.552-.608-.611-.619-1.668-.619-2.584s.011-1.961.619-2.572c.339-.34.888-.552 1.485-.552.62 0 1.086.164 1.485.612v-2.784H35.2v8.362h-1.485zm-1.075-4.815c-.912 0-1.029.752-1.029 1.75s.117 1.763 1.029 1.763 1.041-.764 1.041-1.763-.129-1.75-1.041-1.75zm6.581 4.886c.901 0 1.52-.352 1.894-.751.549-.576.69-1.269.69-2.385 0-1.104-.141-1.797-.69-2.373-.374-.4-.993-.752-1.894-.752s-1.507.352-1.881.752c-.55.575-.69 1.269-.69 2.373 0 1.116.14 1.809.69 2.385.374.399.982.752 1.881.752zm0-4.886c.305 0 .538.094.714.269.316.318.351.846.351 1.48s-.035 1.175-.351 1.492c-.176.176-.409.27-.714.27s-.526-.094-.701-.27c-.316-.317-.35-.858-.35-1.492s.035-1.163.35-1.48a.93.93 0 0 1 .701-.269z" fill-rule="evenodd"/><path d="M54.034 46.39c-.959 0-1.824-.106-2.595-.881l.993-.999c.502.505 1.157.575 1.625.575.526 0 1.076-.176 1.076-.634 0-.306-.164-.517-.643-.564l-.958-.094c-1.099-.106-1.777-.588-1.777-1.714 0-1.268 1.11-1.95 2.349-1.95.947 0 1.742.164 2.327.716l-.936.952c-.351-.317-.889-.411-1.414-.411-.608 0-.865.282-.865.587 0 .223.093.482.631.529l.959.094c1.204.117 1.812.763 1.812 1.797 0 1.351-1.147 1.996-2.584 1.996zm-6.01-.07h1.251l1.859-6.119h-1.602l-.982 3.782L47.3 40.2h-1.111l-1.239 3.782-.982-3.782h-1.613l1.871 6.119h1.251l1.274-3.841 1.274 3.841z"/></g><path fill-rule="evenodd" d="M58.034 47.987h6.353v-1.512h-6.353v1.512z" fill="#3bcfb0"/></svg>