<svg id="3c964f92-ae51-42c9-b770-7ac468b33c34" xmlns="http://www.w3.org/2000/svg" width="19" height="19" viewBox="0 0 19 19">
    <defs>
        <radialGradient id="6c7208e7-0f5a-44c6-98f4-67a83e56b7a3" cx="-661.415" cy="101.67" r="0.999" gradientTransform="matrix(7.967, 0, 0, -7.967, 5279.189, 819.708)" gradientUnits="userSpaceOnUse">
            <stop offset="0.18" stop-color="#5ea0ef"/>
            <stop offset="1" stop-color="#0078d4"/>
        </radialGradient>
    </defs>
    <g>
        <path d="M14.379,15.819A7.919,7.919,0,0,1,3.225,14.413,8.127,8.127,0,0,1,4.631,3.166l.094-.094A8.019,8.019,0,0,1,15.878,4.665,8.2,8.2,0,0,1,14.379,15.819Z" fill="url(#6c7208e7-0f5a-44c6-98f4-67a83e56b7a3)"/>
        <path d="M9.505,2.322a7.217,7.217,0,1,0,7.217,7.217A7.22,7.22,0,0,0,9.505,2.322Zm4.874,2.437a13.482,13.482,0,0,1-2.062.75,10.4,10.4,0,0,0-1.125-2.531A6.81,6.81,0,0,1,14.379,4.759ZM9.505,2.7a3.834,3.834,0,0,1,1.031.094A6.648,6.648,0,0,1,11.942,5.6a15.864,15.864,0,0,1-5.155,0A6.829,6.829,0,0,1,8.193,2.884,7.4,7.4,0,0,1,9.505,2.7ZM7.63,2.978A7.928,7.928,0,0,0,6.412,5.509a7.234,7.234,0,0,1-1.781-.75A6.574,6.574,0,0,1,7.63,2.978ZM4.537,14.226a4.626,4.626,0,0,1,1.687-.75,6.346,6.346,0,0,0,1.219,2.53A6.812,6.812,0,0,1,4.537,14.226Zm6,2.062a4.236,4.236,0,0,1-1.031.093,5.8,5.8,0,0,1-1.312-.093A6.474,6.474,0,0,1,6.6,13.476a13.73,13.73,0,0,1,5.53,0A7.746,7.746,0,0,1,10.536,16.288Zm.75-.188A6.925,6.925,0,0,0,12.6,13.476a6.523,6.523,0,0,1,1.874.75A7.013,7.013,0,0,1,11.286,16.1Zm1.312-3c.094-.375.094-.656.187-1.031l-.468.094c-.094.281-.094.562-.188.843a14.667,14.667,0,0,0-5.717,0c-.094-.281-.094-.562-.188-.843V12.07l-.468-.094v.281a2.731,2.731,0,0,0,.187.844,4.839,4.839,0,0,0-1.875.843,7.061,7.061,0,0,1,.282-8.9,6.253,6.253,0,0,0,1.968.844,1.758,1.758,0,0,0-.188.75c0,.281,0,.187-.093.374l.468-.093V6.727c.094-.281.094-.468.188-.75A9.876,9.876,0,0,0,9.6,6.165a12.529,12.529,0,0,0,2.625-.281c.094.281.094.562.187.75l.469.093a4.107,4.107,0,0,1-.187-.937,8.583,8.583,0,0,0,2.155-.844,6.826,6.826,0,0,1,.094,8.905C14.1,13.569,13.348,13.288,12.6,13.1Z" fill="#5ea0ef"/>
        <path d="M4.537,7.665a4.553,4.553,0,0,1,1.125-.094,2.452,2.452,0,0,1,1.593.469,1.9,1.9,0,0,1,.563,1.405,1.865,1.865,0,0,1-.657,1.5,2.4,2.4,0,0,1-1.78.562,3.217,3.217,0,0,1-.938-.093Zm.469,3.468h.562A1.494,1.494,0,0,0,7.255,9.82V9.445a1.328,1.328,0,0,0-1.312-1.5H5.006Z" fill="#fff"/>
        <path d="M8.474,11.507V7.571h.562l1.312,1.968c.281.375.469.844.75,1.312a4.926,4.926,0,0,1-.187-1.687V7.571h.468v3.936h-.468L9.6,9.539c-.281-.468-.468-.937-.749-1.312v3.28Z" fill="#fff"/>
        <path d="M12.223,10.851a1.579,1.579,0,0,0,.937.282c.563,0,.844-.282.844-.657s-.188-.562-.75-.749a1.39,1.39,0,0,1-1.031-1.219,1.039,1.039,0,0,1,1.218-1.031h.094a2.739,2.739,0,0,1,.844.188l-.188.375a1.758,1.758,0,0,0-.75-.188c-.562,0-.749.281-.749.562s.281.563.749.75,1.031.563,1.031,1.125S14,11.414,13.066,11.414a2.144,2.144,0,0,1-1.031-.281Z" fill="#fff"/>
    </g>
</svg>