<svg xmlns="http://www.w3.org/2000/svg" viewBox="0 0 11412 1966"><path d="M3592 596a530 530 0 00-177-110 623 623 0 00-222-38h-426V1510h430c78 0 152-13 220-40a529 529 0 00 293-278c28-64 42-135 42-212s-14-151-42-215-67-120-118-168zm-124 555a270 270 0 01-110 112 347 347 0 01-168 39h-186V656H3190a350 350 0 01 166 38 270 270 0 01 111 111c27 49 40 106 40 172s-13 125-39 174zM4420 812c-60-33-128-50-203-50s-146 17-206 50a365 365 0 00-194 328 373 373 0 00 196 334c60 34 128 51 204 51s144-17 204-50a370 370 0 00 195-333c0-74-17-137-52-194a374 374 0 00-143-136zm-60 421a142 142 0 01-57 60c-25 15-54 22-86 22s-60-7-85-21a146 146 0 01-60-61 192 192 0 01-20-90c0-33 7-62 20-88a150 150 0 01 60-60 170 170 0 01 170-1 159 159 0 01 78 148c0 33-6 65-20 91zM5720 800c-44-24-94-35-149-35s-108 12-154 36a270 270 0 00-80 62 261 261 0 00-212-98 300 300 0 00-146 33 240 240 0 00-52 36V780h-231v730h231v-426a110 110 0 01 59-101 130 130 0 01 61-15c33 0 61 10 84 31a110 110 0 01 33 85V1510h232v-426c0-24 5-45 15-62s24-30 43-40c18-9 38-14 60-14 32 0 60 10 82 31a110 110 0 01 34 85V1510h231v-453c0-61-12-113-37-156A260 260 0 00 5720 800zm770 38a303 303 0 00-201-76 334 334 0 00-305 185c-30 57-46 122-46 196s15 138 46 194c30 57 72 102 125 135 53 34 113 50 179 50 50 0 95-9 134-28a260 260 0 00 67-46v60h227v-730h-227v60zm-36 428c-30 32-70 48-118 48a159 159 0 01-142-83c-15-26-22-55-22-88s7-63 22-89a159 159 0 01 142-83c31 0 60 8 86 22 24 15 44 35 57 60a190 190 0 01 20 88 180 180 0 01-45 125zm523-841a122 122 0 00-125 126c0 36 13 65 37 90 24 26 53 38 88 38 37 0 67-13 90-38 22-24 34-55 34-90s-12-66-34-90a117 117 0 00-90-36zm-115 353h231v730h-231zm955 25a319 319 0 00-294-2 300 300 0 00-55 38v-58h-230v730h230v-416c0-25 6-48 17-67 10-19 26-33 45-44a136 136 0 01 65-16 122 122 0 01 126 126v417h231v-467a278 278 0 00-135-240zM8732 450h-901v207h332v854h239V657h330V450zm392 370c-60-32-128-49-204-49s-145 17-205 50A365 365 0 00 8520 1150a373 373 0 00 195 334c60 34 128 51 204 51s145-17 205-51A370 370 0 00 9320 1150a374 374 0 00-196-330zm-60 422a142 142 0 01-58 60c-25 15-54 22-86 22s-60-7-85-21a146 146 0 01-59-61 192 192 0 01-20-91c0-32 6-61 20-87a148 148 0 01 59-60 170 170 0 01 170-1 160 160 0 01 58 60 200 200 0 01 0 179zm926-430a442 442 0 00-410 0 365 365 0 00-194 328 373 373 0 00 195 334c60 34 128 51 205 51a404 404 0 00 347-188c35-58 52-123 52-196s-17-135-52-193a374 374 0 00-144-136zm-61 421a142 142 0 01-58 61c-25 14-53 21-85 21s-61-7-86-21a146 146 0 01-59-60 192 192 0 01-20-92c0-32 6-60 20-87a148 148 0 01 59-60c25-15 54-22 86-22s60 7 85 21c24 15 43 35 57 60a200 200 0 01 0 179zm339-816h231v1090h-231zm605 539c13-8 32-12 58-12s55 6 84 17a210 210 0 01 77 58l130-134a298 298 0 00-127-95 452 452 0 00-329-2 240 240 0 00-102 82c-24 34-36 75-36 122s9 82 26 110a190 190 0 00 66 66 410 410 0 00 85 38l87 26c27 7 50 15 66 24 17 8 26 21 26 40 0 14-7 26-22 34-14 8-34 12-60 12a264 264 0 01-194-83l-133 133a427 427 0 00 208 120c42 10 84 16 127 16a340 340 0 00 217-63c54-43 80-100 80-170a220 220 0 00-25-113 207 207 0 00-66-69 357 357 0 00-85-40c-30-10-59-18-85-25-27-7-49-15-66-24-18-10-27-21-27-36 0-13 7-24 20-32" fill="#1b1f29"/><path d="M1915 1163a200 200 0 01 0-360c40-20 60-65 47-107-20-71-49-140-84-203a90 90 0 00-109-42 200 200 0 01-255-255 90 90 0 00-41-109C1409 53 1340 24 1270 3a90 90 0 00-107 48 200 200 0 01-360 0A90 90 0 00 695 3c-71 21-140 50-203 84a90 90 0 00-42 110A200 200 0 01 196 450a90 90 0 00-109 42C53 557 24 625 3 696a90 90 0 00 48 106 200 200 0 01 0 361A90 90 0 00 3 1270c21 71 50 139 84 203a90 90 0 00 110 41A200 200 0 01 450 1770a90 90 0 00 42 110c64 34 132 62 203 83a90 90 0 00 106-47 200 200 0 01 361 0c20 40 65 60 107 47 71-20 139-49 203-84a90 90 0 00 41-109 200 200 0 01 255-255 90 90 0 00 110-41c34-64 62-132 83-203a90 90 0 00-47-107Zm-932 199a379 379 0 11 0-758 379 379 0 01 0 758Z"/><path d="M1332 342a583 583 0 01-281 987 352 352 0 01-414-410 582 582 0 00 523 705 583 583 0 00 618-450A817 817 0 00 780 192c191-48 402 2 553 150Z"/><path d="M340 815a582 582 0 00 51 732l17 17 3 3 20 18a817 817 0 00 1340-382 584 584 0 11-1120-336 350 350 0 01 563-150 581 581 0 00-346-150c-210-18-411 80-528 248Z"/><path d="M750 200a817 817 0 00-358 1347A584 584 0 01 1246 750a352 352 0 01-143 564 581 581 0 00 298-223A586 586 0 00 750 200Z"/><path d="M11354 772a46 46 0 00 0 92 46 46 0 00 0-93m0 105a58 58 0 11 0-116 58 58 0 01 0 116" fill="#1b1f29"/><path d="M11344 824v23h-16v-60h24a30 30 0 01 18 3c3 3 5 7 5 13 0 4 0 7-3 10-2 2-4 4-8 5 2 0 4 2 5 4l5 8 9 17h-17l-7-15-5-7a10 10 0 00-6-1h-4Zm6-10c4 0 6-2 7-3 2-1 3-3 3-6s-1-4-3-6l-7-1h-6v15h6Z"/></svg>
