<svg xmlns="http://www.w3.org/2000/svg" id="Layer_2" viewBox="0 0 1141.2 196.6"><defs><linearGradient id="linear-gradient" x1="-1241.4" x2="-1275.8" y1="-1663.5" y2="-1762.9" gradientTransform="rotate(74 -1759.7 92.9)" gradientUnits="userSpaceOnUse"><stop offset="0" stop-color="#1b1f29"/><stop offset="1" stop-color="#75839b"/></linearGradient><linearGradient id="linear-gradient-2" x1="-1269.2" x2="-1187" y1="-1704.2" y2="-1674.8"/><linearGradient id="linear-gradient-3" x1="-1237.8" x2="-1295" y1="-1718.6" y2="-1637.6"/><style>.cls-2{fill:#1b1f29}</style></defs><g id="Layer_1-2"><path d="M359.2 59.6a53 53 0 0 0-17.7-11 62.3 62.3 0 0 0-22.2-3.8h-42.6V151h43c7.8 0 15.2-1.3 22-4a52.9 52.9 0 0 0 29.3-27.8c2.8-6.4 4.2-13.5 4.2-21.2s-1.4-15.1-4.2-21.5c-2.8-6.4-6.7-12-11.8-16.8Zm-12.4 55.5a27 27 0 0 1-11 11.2 34.7 34.7 0 0 1-16.8 3.9h-18.6V65.6H319a35 35 0 0 1 16.6 3.8 27 27 0 0 1 11.1 11.1c2.7 4.9 4 10.6 4 17.2s-1.3 12.5-3.9 17.4ZM442 81.2c-6-3.3-12.8-5-20.3-5s-14.6 1.7-20.6 5a36.5 36.5 0 0 0-19.4 32.8 37.3 37.3 0 0 0 19.6 33.4c6 3.4 12.8 5.1 20.4 5.1s14.4-1.7 20.4-5a37 37 0 0 0 19.5-33.3c0-7.4-1.7-13.7-5.2-19.4a37.4 37.4 0 0 0-14.3-13.6Zm-6 42.1a14.2 14.2 0 0 1-5.7 6c-2.5 1.5-5.4 2.2-8.6 2.2s-6-.7-8.5-2.1a14.6 14.6 0 0 1-6-6.1 19.2 19.2 0 0 1-2-9c0-3.3.7-6.2 2-8.8a15 15 0 0 1 6-6 17 17 0 0 1 17-.1 15.9 15.9 0 0 1 7.8 14.8c0 3.3-.6 6.5-2 9.1ZM572 80c-4.4-2.4-9.4-3.5-14.9-3.5s-10.8 1.2-15.4 3.6a27 27 0 0 0-8 6.2 26.1 26.1 0 0 0-21.2-9.8 30 30 0 0 0-14.6 3.3 24 24 0 0 0-5.2 3.6V78h-23.1v73h23.1v-42.6a11 11 0 0 1 5.9-10.1 13 13 0 0 1 6.1-1.5c3.3 0 6.1 1 8.4 3.1a11 11 0 0 1 3.3 8.5V151h23.2v-42.6c0-2.4.5-4.5 1.5-6.2 1-1.7 2.4-3 4.3-4 1.8-.9 3.8-1.4 6-1.4 3.2 0 6 1 8.2 3.1a11 11 0 0 1 3.4 8.5V151h23.1v-45.3c0-6.1-1.2-11.3-3.7-15.6A26 26 0 0 0 572 80Zm77 3.8a30.3 30.3 0 0 0-20.1-7.6 33.4 33.4 0 0 0-30.5 18.5c-3 5.7-4.6 12.2-4.6 19.6s1.5 13.8 4.6 19.4c3 5.7 7.2 10.2 12.5 13.5 5.3 3.4 11.3 5 17.9 5 5 0 9.5-.9 13.4-2.8a26 26 0 0 0 6.7-4.6v6h22.7v-73h-22.7v6Zm-3.6 42.8c-3 3.2-7 4.8-11.8 4.8a15.9 15.9 0 0 1-14.2-8.3c-1.5-2.6-2.2-5.5-2.2-8.8s.7-6.3 2.2-8.9a15.9 15.9 0 0 1 14.2-8.3c3.1 0 6 .8 8.6 2.2 2.4 1.5 4.4 3.5 5.7 6a19 19 0 0 1 2 8.8 18 18 0 0 1-4.5 12.5Zm52.3-84.1a12.2 12.2 0 0 0-12.5 12.6c0 3.6 1.3 6.5 3.7 9 2.4 2.6 5.3 3.8 8.8 3.8 3.7 0 6.7-1.3 9-3.8 2.2-2.4 3.4-5.5 3.4-9s-1.2-6.6-3.4-9a11.7 11.7 0 0 0-9-3.6Zm-11.5 35.3h23.1v73h-23.1zm95.5 2.5a31.9 31.9 0 0 0-29.4-.2 30 30 0 0 0-5.5 3.8v-5.8h-23v73h23v-41.6c0-2.5.6-4.8 1.7-6.7 1-1.9 2.6-3.3 4.5-4.4 1.9-1 4-1.6 6.5-1.6a12.2 12.2 0 0 1 12.6 12.6v41.7h23.1v-46.7a27.8 27.8 0 0 0-13.5-24Z" class="cls-2"/><path d="M873.2 45h-90.1v20.7h33.2v85.4h23.9V65.7h33V45z" class="cls-2"/><path d="M912.4 82c-6-3.2-12.8-4.9-20.4-4.9s-14.5 1.7-20.5 5A36.5 36.5 0 0 0 852 115a37.3 37.3 0 0 0 19.5 33.4c6 3.4 12.8 5.1 20.4 5.1s14.5-1.7 20.5-5.1A37 37 0 0 0 932 115a37.4 37.4 0 0 0-19.6-33Zm-6 42.2a14.2 14.2 0 0 1-5.8 6c-2.5 1.5-5.4 2.2-8.6 2.2s-6-.7-8.5-2.1a14.6 14.6 0 0 1-5.9-6.1 19.2 19.2 0 0 1-2-9.1c0-3.2.6-6.1 2-8.7 1.4-2.6 3.4-4.6 5.9-6a17 17 0 0 1 17-.1c2.5 1.5 4.4 3.5 5.8 6a20 20 0 0 1 0 17.9Zm92.6-43a44.2 44.2 0 0 0-41 0 36.5 36.5 0 0 0-19.4 32.8 37.3 37.3 0 0 0 19.5 33.4c6 3.4 12.8 5.1 20.5 5.1a40.4 40.4 0 0 0 34.7-18.8c3.5-5.8 5.2-12.3 5.2-19.6s-1.7-13.5-5.2-19.3a37.4 37.4 0 0 0-14.4-13.6Zm-6.1 42.1a14.2 14.2 0 0 1-5.8 6.1c-2.5 1.4-5.3 2.1-8.5 2.1s-6.1-.7-8.6-2.1a14.6 14.6 0 0 1-5.9-6 19.2 19.2 0 0 1-2-9.2c0-3.2.6-6 2-8.7 1.4-2.6 3.4-4.6 5.9-6 2.5-1.5 5.4-2.2 8.6-2.2s6 .7 8.5 2.1c2.4 1.5 4.3 3.5 5.7 6a20 20 0 0 1 0 17.9Zm33.9-81.6h23.1v109h-23.1zm60.5 53.9c1.3-.8 3.2-1.2 5.8-1.2s5.5.6 8.4 1.7a21 21 0 0 1 7.7 5.8l13-13.4a29.8 29.8 0 0 0-12.7-9.5 45.2 45.2 0 0 0-32.9-.2 24 24 0 0 0-10.2 8.2c-2.4 3.4-3.6 7.5-3.6 12.2s.9 8.2 2.6 11a19 19 0 0 0 6.6 6.6 41 41 0 0 0 8.5 3.8l8.7 2.6c2.7.7 5 1.5 6.6 2.4 1.7.8 2.6 2.1 2.6 4 0 1.4-.7 2.6-2.2 3.4-1.4.8-3.4 1.2-6 1.2a26.4 26.4 0 0 1-19.4-8.3l-13.3 13.3a42.7 42.7 0 0 0 20.8 12c4.2 1 8.4 1.6 12.7 1.6a34 34 0 0 0 21.7-6.3c5.4-4.3 8-10 8-17a22 22 0 0 0-2.5-11.3 20.7 20.7 0 0 0-6.6-6.9 35.7 35.7 0 0 0-8.5-4c-3-1-5.9-1.8-8.5-2.5-2.7-.7-4.9-1.5-6.6-2.4-1.8-1-2.7-2.1-2.7-3.6 0-1.3.7-2.4 2-3.2Z" class="cls-2"/><path d="M191.5 116.3a20 20 0 0 1 0-36c4-2 6-6.5 4.7-10.7-2-7.1-4.9-14-8.4-20.3a9 9 0 0 0-10.9-4.2 20 20 0 0 1-25.5-25.5 9 9 0 0 0-4.1-10.9C140.9 5.3 134 2.4 127 .3a9 9 0 0 0-10.7 4.8 20 20 0 0 1-36 0A9 9 0 0 0 69.5.3c-7.1 2.1-14 5-20.3 8.4a9 9 0 0 0-4.2 11A20 20 0 0 1 19.6 45a9 9 0 0 0-10.9 4.2C5.3 55.7 2.4 62.5.3 69.6a9 9 0 0 0 4.8 10.6 20 20 0 0 1 0 36.1A9 9 0 0 0 .3 127c2.1 7.1 5 13.9 8.4 20.3a9 9 0 0 0 11 4.1A20 20 0 0 1 45 177a9 9 0 0 0 4.2 11c6.4 3.4 13.2 6.2 20.3 8.3a9 9 0 0 0 10.6-4.7 20 20 0 0 1 36.1 0c2 4 6.5 6 10.7 4.7 7.1-2 13.9-4.9 20.3-8.4a9 9 0 0 0 4.1-10.9 20 20 0 0 1 25.5-25.5 9 9 0 0 0 11-4.1c3.4-6.4 6.2-13.2 8.3-20.3a9 9 0 0 0-4.7-10.7Zm-93.2 19.9a37.9 37.9 0 1 1 0-75.8 37.9 37.9 0 0 1 0 75.8Z" /><path d="M133.2 34.2a58.3 58.3 0 0 1-28.1 98.7 35.2 35.2 0 0 1-41.4-41 58.2 58.2 0 0 0 52.3 70.5 58.3 58.3 0 0 0 61.8-45A81.7 81.7 0 0 0 78 19.2c19.1-4.8 40.2.2 55.3 15Z" /><path d="M34 81.5a58.2 58.2 0 0 0 5.1 73.2l1.7 1.7.3.3 2 1.8a81.7 81.7 0 0 0 134-38.2 58.4 58.4 0 1 1-112-33.6 35 35 0 0 1 56.3-15 58.1 58.1 0 0 0-34.6-15c-21-1.8-41.1 8-52.8 24.8Z"/><path d="M75 20a81.7 81.7 0 0 0-35.8 134.7A58.4 58.4 0 0 1 124.6 75a35.2 35.2 0 0 1-14.3 56.4 58.1 58.1 0 0 0 29.8-22.3A58.6 58.6 0 0 0 75 20Z"/><path d="M1135.4 77.2a4.6 4.6 0 0 0 0 9.2 4.6 4.6 0 0 0 0-9.3m0 10.5a5.8 5.8 0 1 1 0-11.6 5.8 5.8 0 0 1 0 11.6" class="cls-2"/><path d="M1134.4 82.4v2.3h-1.6v-6h2.4a3 3 0 0 1 1.8.3c.3.3.5.7.5 1.3 0 .4 0 .7-.3 1-.2.2-.4.4-.8.5.2 0 .4.2.5.4l.5.8.9 1.7h-1.7l-.7-1.5-.5-.7a1 1 0 0 0-.6-.1h-.4Zm.6-1c.4 0 .6-.2.7-.3.2-.1.3-.3.3-.6s-.1-.4-.3-.6l-.7-.1h-.6v1.5h.6Z" class="cls-2"/></g></svg>