<?xml version="1.0" encoding="utf-8"?>
<!-- Generator: Adobe Illustrator 24.2.1, SVG Export Plug-In . SVG Version: 6.00 Build 0)  -->
<svg version="1.1" id="4123ee9a-81d8-4483-aa18-f704b5ec7284" xmlns="http://www.w3.org/2000/svg" x="0px" y="0px"
	 viewBox="0 0 360 345.55" xml:space="preserve">
<style type="text/css">
	.st0{fill:#049995;}
</style>
<g>
	<path class="st0" d="M316.48,230.32c-2.98-2.33-6.41-4.02-10.02-5.11c-0.56-2.6-1.32-5.01-2.32-7.2c1.96,0.3,3.79,0.46,5.26,0.61
		c4.72,0.4,9.73-3.83,14.15,0.29c-3.93-3.83-9.24-5.51-14.45-6.19c-2.64-0.24-5.28-0.13-7.87,0.33c-2.14-2.96-4.57-5.64-7.26-8.03
		c1.27-0.14,2.47-0.3,3.52-0.46c5.11-0.69,9.83-5.11,15.14-2.95c-5.21-2.46-10.91-3.34-16.51-2.75c-2.6,0.29-5.2,0.95-7.68,1.87
		c-0.69-0.46-1.39-0.9-2.1-1.34c-23.22-13.92-76.5-34.89-56.38-71.52c7.64-13.9,27.35-20.7,41.89-13.8
		c3.45,1.64,6.42,3.66,8.93,6.08c1.72,1.67,3.18,3.43,4.41,5.3c-3.71,2.04-7.15,2.56-12.06,2.25c3.05,0.69,6.19,0.78,9.34,0.29
		c1.14-0.16,2.49-0.33,3.92-0.55c0.11,0.2,0.24,0.4,0.34,0.6c0.15,0.3,0.3,0.5,0.45,0.65c-0.05,0.96-0.06,1.94,0.01,2.93
		c-2.75,3.05-5.8,4.62-10.42,5.9c3.05-0.39,6.09-1.28,8.85-2.66c0.89-0.49,1.97-0.98,3.24-1.57l36.08,26.25l-9.24-40.79l-27.62-34.6
		c-0.69,2.46,2.36,12.48,3.34,18.28c-1.77-1.97-3.64-3.83-5.6-5.51c-6.19-5.11-13.56-7.86-21.03-11.01
		c3.24,1.37,10.42,9.83,15.83,14.54c1.96,1.67,4.42,3.83,7.17,5.9c-0.78-0.1-1.47-0.39-2.16-0.69c-0.5-0.16-1.01-0.3-1.52-0.45
		c-0.2-0.07-0.39-0.14-0.59-0.21c-2.66-0.87-5.54-1.54-8.63-2.03c-4.66-2.79-9.69-5.01-14.91-6.56c-7.86-2.16-15.92-1.28-24.08-1.77
		c8.16,0.49,13.86,4.81,20.94,6.98l0.59,0.2c-4.82,0.2-9.54,0.88-14.15,2.07c-5.21-1.77-10.52-2.95-15.92-3.44
		c-7.37-0.49-14.25,0.98-21.43,2.46c6.78-0.79,12.98,2.65,19.46,3.24c2.65,0.19,5.9,0.59,9.44,0.69c-1.18,0.49-2.36,1.08-3.54,1.77
		c-3.34,1.77-6.49,3.83-9.44,6.19c-4.23-0.69-8.55-0.88-12.88-0.59c-7.57,0.69-14.15,3.14-20.84,6.49
		c6.59-3.34,13.56-0.2,20.35-0.69c2.36-0.1,5.31-0.29,8.45-0.69c-2.06,2.26-4.03,4.72-5.6,7.37c-0.3,0.5-0.59,0.99-0.89,1.58
		c-2.95,0.78-5.8,2.06-8.45,3.63c-6.68,3.93-12.09,8.85-14.16,15.73c1.67-5.8,11.89-6.09,18.19-8.94
		c-1.08,3.83-1.67,7.76-1.67,11.79c-0.1,6.58,1.18,13.07,3.93,18.97l0.3,0.59c-0.72-1.44-8.15-3.84-10.02-4.97
		c-4.04-2.41-7.89-5.24-11.1-8.71c-5.54-6.01-9.08-13.68-9.1-21.91c-0.04-13.36,8.13-25.56,16.81-35.05
		c18.78-20.52,49.1-39.48,77.52-41.24c3.37-0.21,6.78-0.17,10.1,0.51C96.27,20.1,44.96,86.93,33.59,108.07
		c20.51-24.69,72.24-47.15,144.96-47.4c-27.85,1.2-64.43,29.08-81.83,50.81c-4.03,5.04-7.05,9.74-8.67,13.71
		c4.89-3.76,9.89-7.49,14.94-11.13c28.82-20.76,59.63-38.4,85.27-38.74c-18.18,5.6-42.61,43.96-44.5,69.68
		c9.03-25.72,23.17-37.14,34.99-49.63c-8.7,10.94-13.73,31.78-11.5,45.54c3.1,19.11,25.39,33.14,41.19,41.39
		c17.48,9.12,35.33,17.94,52.73,26.96c13.93,7.22,28.84,18.18,25.86,35.98c-3.9,23.27-28.69,38.01-50.37,26.82
		c-12.93-6.68-20.16-20.13-26.95-32.38c-6.1-11.01-12.49-19.66-19.07-26.05c-6.59-6.39-16.22-10.22-28.8-11.5
		c-0.92-0.09-1.85-0.16-2.77-0.21c-6.76-0.36-13.54,0.5-20.03,2.57c-0.01,0-0.02,0.01-0.03,0.01c-7.36,2.26-13.93,6.48-19.13,12.18
		c-5.31,5.7-8.45,13.17-9.53,22.31c-0.69,5.21-0.49,10.42,0.69,15.53c0.12,0.53,0.32,1.1,0.54,1.69c1.74,4.62,6.28,11,9.68,14.92
		c0.41,0.47,1.28,1.28,2.31,2.22c2.67,2.42,6.53,5.68,7.03,6.03c9.44,7.47,14.45,8.65,13.17,8.94c-1.28,0.29-14.15,4.52-18.28,4.82
		l38.23,5.5l-17.69-29.59l0.69,17c-7.23-4.31-13.6-9.83-18.91-16.31c-1.48-1.8-2.89-3.66-4.19-5.61c-2.76-4.14-5-8.37-6.33-12.84
		c-1.14-3.82-1.64-7.82-1.14-12.12c0.78-7.08,3.14-12.58,7.08-16.51c3.63-3.74,8.35-6.39,13.56-7.66c0.38-0.09,0.76-0.14,1.14-0.22
		c4.57-0.97,9.27-1.22,13.9-0.76c2.04,0.2,3.98,0.51,5.85,0.9c7.41,1.51,13.5,4.42,18.13,8.74c5.8,5.4,11.6,13.27,17.2,23.69
		c3.93,7.18,7.07,12.49,9.34,16.02c2.65,3.93,5.7,7.57,9.04,10.81c4.03,3.93,8.75,7.08,13.86,9.44c11.35,4.87,23.87,6.3,35.97,4.13
		c13.06-1.39,29.79-7.24,42.06-29.09c1.23-2.19,2.08-4.51,2.71-6.93c0.47-1.42,0.9-2.84,1.24-4.29l0.79,1.08
		c3.64,4.62,11.5,6.98,11.5,13.47c0.1-6.78-2.95-13.07-6.78-18.38c-1.38-1.86-2.85-3.54-4.62-5.01c0-2.16-0.19-4.33-0.49-6.49
		c1.87,1.77,3.83,3.25,5.41,4.42c4.13,3.21,12.02,3,13.37,8.31C325.45,238.82,320.99,234,316.48,230.32z M297.81,119.69
		c0.02-0.04,0.03-0.08,0.05-0.12c0.9,0.38,1.81,0.71,2.8,0.96c-0.1-0.88-0.69-1.77-0.69-2.75c1.28,0.79,2.07,1.38,3.34,2.07
		c1.27,0.59,2.36,1.48,3.34,2.46c2.36,2.36,2.36,5.51,3.05,8.45c-2.36-0.88-4.42-2.26-6.19-4.03c-0.19-0.2-0.39-0.39-0.59-0.69
		c-1.28-1.28-4.03-3.15-5.21-3.05c0.79-0.59,1.77-0.79,2.76-0.79C300.46,120.96,299.2,120.59,297.81,119.69z"/>
</g>
</svg>
