<?xml version="1.0" encoding="UTF-8"?>
<svg version="1.1" xmlns="http://www.w3.org/2000/svg" width="4188" height="1504">
<path d="M0 0 C1.74990234 -0.03867187 1.74990234 -0.03867187 3.53515625 -0.078125 C7.43730566 0.29820169 9.68824528 1.05617695 12.9375 3.25 C15.49292529 7.47227574 16.31282105 10.62296999 16.31535685 15.5287804 C16.32723546 17.40462632 16.32723546 17.40462632 16.33935404 19.31836811 C16.33298853 20.70106672 16.32634963 22.08376409 16.31946754 23.46646023 C16.32309191 24.94537694 16.32803097 26.42429091 16.33416545 27.90319934 C16.34725617 31.98181796 16.3416214 36.06023155 16.33303642 40.13885428 C16.32700215 44.57109758 16.33833591 49.00330133 16.34750211 53.43553454 C16.36117731 61.20936217 16.36371598 68.98313211 16.35903358 76.75696945 C16.35212662 88.31850598 16.36236324 99.8799825 16.376197 111.44151054 C16.39900954 130.89860443 16.4079998 150.35568179 16.40932083 169.81278801 C16.41070495 189.10820349 16.41870429 208.40359849 16.43537521 227.69900703 C16.43641022 228.89905643 16.43744522 230.09910583 16.43851159 231.33552036 C16.44380961 237.43078536 16.44923608 243.52605023 16.45471875 249.62131507 C16.49342551 292.83567412 16.51897609 336.05003171 16.53613281 379.2644043 C16.54030589 389.73883058 16.54449404 400.21325686 16.54876709 410.68768311 C16.54929684 411.98657298 16.54982659 413.28546286 16.55037239 414.62371304 C16.56276578 444.72692769 16.58046213 474.83013858 16.59960938 504.93334961 C16.60042579 506.22134963 16.6012422 507.50934964 16.60208336 508.83637996 C16.62077467 538.28141421 16.64093627 567.72644721 16.66286278 597.17147923 C16.66378423 598.41169879 16.66470568 599.65191835 16.66565505 600.92972032 C16.67394954 612.09159556 16.6822485 623.2534708 16.69078664 634.41534586 C16.71291428 663.3803673 16.73071128 692.34538401 16.74073945 721.3104123 C16.7471053 739.50969158 16.75667218 757.70896741 16.76870801 775.90824383 C16.77616912 787.39781262 16.78084314 798.88737478 16.781454 810.37694602 C16.78212696 818.0851385 16.78642478 825.79332385 16.79346024 833.50151313 C16.79734242 837.87199002 16.79980418 842.24245243 16.79769833 846.61293089 C16.79024801 864.45430299 16.93491979 882.28381728 17.36409569 900.12050724 C17.38216657 900.92349558 17.40023745 901.72648391 17.41885593 902.55380523 C18.21012566 936.81742061 22.57381946 968.7984814 38.9375 999.25 C39.29215332 999.91918457 39.64680664 1000.58836914 40.01220703 1001.27783203 C44.01779361 1008.80069482 48.26405254 1015.8620738 53.375 1022.6875 C57.17381044 1027.80095334 59.52772076 1031.79597696 59.9375 1038.25 C59.0157377 1042.85881152 56.65515739 1044.55943834 52.9375 1047.25 C50.71244951 1048.32760833 48.44616806 1049.32204539 46.15625 1050.25390625 C45.4869899 1050.52937286 44.8177298 1050.80483948 44.12818909 1051.08865356 C42.66970425 1051.68796945 41.20968186 1052.28355415 39.74832153 1052.87582397 C36.55790827 1054.16903661 33.37505339 1055.48039513 30.19166565 1056.79078674 C28.47835414 1057.49596273 26.76467125 1058.20023698 25.05064392 1058.90367126 C15.63525199 1062.7719192 6.26309684 1066.7412987 -3.10916138 1070.71264648 C-18.27339304 1077.13775867 -33.45143983 1083.52521287 -48.68920898 1089.77416992 C-49.75212158 1090.21092041 -50.81503418 1090.6476709 -51.91015625 1091.09765625 C-52.81773682 1091.46898682 -53.72531738 1091.84031738 -54.66040039 1092.22290039 C-57.03916644 1093.1976223 -57.03916644 1093.1976223 -59.1315918 1094.36352539 C-62.55427024 1095.93486759 -66.10323658 1095.61893911 -69.8125 1095.625 C-70.5859375 1095.64949219 -71.359375 1095.67398437 -72.15625 1095.69921875 C-79.98855715 1095.73864311 -85.92520866 1092.9470891 -91.5 1087.4375 C-97.21328313 1081.42971774 -101.11253815 1074.47887399 -105.0625 1067.25 C-105.58674561 1066.31607422 -105.58674561 1066.31607422 -106.12158203 1065.36328125 C-114.8631192 1049.68029779 -119.18896414 1032.4199861 -124.0625 1015.25 C-124.95743164 1015.85360352 -125.85236328 1016.45720703 -126.77441406 1017.07910156 C-161.0659915 1040.18354257 -161.0659915 1040.18354257 -177.0625 1049.25 C-177.89620117 1049.72518066 -178.72990234 1050.20036133 -179.58886719 1050.68994141 C-224.52779478 1076.15533371 -272.41880532 1094.81119544 -324.0625 1100.25 C-324.87960449 1100.3442627 -325.69670898 1100.43852539 -326.53857422 1100.53564453 C-352.86097391 1103.19692531 -382.06661118 1103.45853722 -408.0625 1098.25 C-409.08778809 1098.05132324 -410.11307617 1097.85264648 -411.16943359 1097.64794922 C-447.22522407 1090.48188099 -480.29281865 1076.31396243 -509.0625 1053.25 C-510.04734375 1052.46882813 -511.0321875 1051.68765625 -512.046875 1050.8828125 C-526.09201704 1039.50368736 -539.12137363 1026.54099033 -549.80908203 1011.94775391 C-551.0854758 1010.2188793 -552.39591557 1008.52080723 -553.71484375 1006.82421875 C-608.51067077 935.48700014 -624.27325563 837.96881582 -627.25 726.3125 C-627.24939575 725.23383667 -627.2487915 724.15517334 -627.24816895 723.04382324 C-627.13491429 647.7792007 -618.55251209 571.76987216 -588.0625 502.25 C-587.44205811 500.83533447 -587.44205811 500.83533447 -586.80908203 499.39208984 C-577.76646772 479.05805307 -566.38798388 460.0595862 -553.0625 442.25 C-552.60133789 441.63189453 -552.14017578 441.01378906 -551.66503906 440.37695312 C-544.98871558 431.49730074 -537.77815471 423.23693284 -530.0625 415.25 C-529.3823584 414.54262695 -528.7022168 413.83525391 -528.00146484 413.10644531 C-518.55629028 403.3292383 -508.99878598 394.32233776 -498.0625 386.25 C-496.64517578 385.14011719 -496.64517578 385.14011719 -495.19921875 384.0078125 C-436.78960807 338.60504459 -358.88333217 322.32027727 -286.20898438 330.84765625 C-242.30918231 336.46116291 -201.91846907 350.43699075 -162.10864258 369.45532227 C-161.13980385 369.91745369 -160.17096512 370.37958511 -159.17276764 370.85572052 C-156.80236963 371.9865019 -154.43228923 373.1179435 -152.0625 374.25 C-152.06325944 373.55053584 -152.06401888 372.85107167 -152.06480134 372.13041162 C-152.10955348 330.67828288 -152.1438711 289.22615694 -152.16463066 247.7740089 C-152.16713208 242.79725589 -152.16972073 237.82050293 -152.17236328 232.84375 C-152.17315021 231.35757157 -152.17315021 231.35757157 -152.17395304 229.84136933 C-152.18265663 213.79684758 -152.19842635 197.75234016 -152.21680559 181.70782691 C-152.23550592 165.24576853 -152.24661701 148.78371765 -152.25067699 132.32164907 C-152.25342177 122.16296352 -152.2620923 112.00431846 -152.27833293 101.84564537 C-152.28890144 94.88030585 -152.29210092 87.91498729 -152.28950275 80.94964033 C-152.28822126 76.93049263 -152.29019156 72.91141571 -152.30091095 68.89228058 C-152.31065824 65.21071639 -152.31112532 61.52927046 -152.30429779 57.84770077 C-152.30305542 55.88916817 -152.31166794 53.93063692 -152.32066262 51.97212458 C-152.26469019 35.49262823 -152.26469019 35.49262823 -147.0625 29.25 C-140.89260534 25.67667163 -135.04188082 24.11271408 -128.07446289 22.78808594 C-127.02579324 22.57943783 -125.97712358 22.37078972 -124.89667606 22.15581894 C-121.62093031 21.50795264 -118.34224252 20.8772879 -115.0625 20.25 C-113.06693458 19.86283148 -111.07139943 19.47550688 -109.07589722 19.0880127 C-103.01153096 17.91793974 -96.94168319 16.77789114 -90.87109375 15.640625 C-88.65768965 15.22434309 -86.44431648 14.8078967 -84.23097229 14.39129639 C-79.64913009 13.52940943 -75.06699536 12.66910168 -70.48461914 11.81005859 C-64.62264383 10.71105383 -58.76133452 9.60854251 -52.90022182 8.50494766 C-48.35453646 7.64932797 -43.80856473 6.79523822 -39.26249886 5.94164276 C-37.09953303 5.53538025 -34.93664306 5.12871365 -32.77383232 4.72162628 C-29.76543724 4.15567841 -26.75667511 3.59172441 -23.74780273 3.02832031 C-22.86625015 2.86210678 -21.98469757 2.69589325 -21.07643127 2.52464294 C-14.05176243 1.21285163 -7.1646937 0.09521188 0 0 Z M-404.0078125 495.8671875 C-458.17761904 554.82958752 -455.20131441 656.21176007 -454.0625 731.25 C-454.05283203 731.94103821 -454.04316406 732.63207642 -454.03320312 733.34405518 C-453.27389016 786.09574176 -449.86831639 841.19273136 -432.0625 891.25 C-431.82063965 891.93803711 -431.5787793 892.62607422 -431.32958984 893.33496094 C-420.41198964 923.87962114 -400.8904476 951.68661451 -371.20214844 966.15673828 C-328.66430961 985.79568197 -277.61762259 978.00131067 -235.24853516 962.47363281 C-214.32109031 954.43621108 -194.92307572 942.71969333 -177.0625 929.25 C-176.5154541 928.84040039 -175.9684082 928.43080078 -175.40478516 928.00878906 C-170.66029513 924.4648031 -170.66029513 924.4648031 -166.02912259 920.77648056 C-164.0625 919.25 -164.0625 919.25 -161.14414668 917.386675 C-156.24729487 913.95934462 -152.72717875 911.44638661 -150.95524454 905.59114814 C-150.39789649 901.13877369 -150.51834788 896.69313126 -150.6194458 892.21652222 C-150.61420742 890.48782682 -150.6036903 888.75914079 -150.58837581 887.0305053 C-150.56162131 882.29741129 -150.60941836 877.56759367 -150.66971254 872.83491707 C-150.72164017 867.72530127 -150.70399036 862.61586325 -150.69488525 857.50605774 C-150.68859948 848.65892792 -150.72617846 839.81286184 -150.79373932 830.9659996 C-150.89135525 818.17518874 -150.92252567 805.38489109 -150.93759522 792.59374811 C-150.96384476 771.8402021 -151.0436652 751.08722277 -151.15722656 730.33398438 C-151.26741156 710.17678661 -151.35233442 690.01974289 -151.40332031 669.86230469 C-151.40647299 668.61935477 -151.40962568 667.37640485 -151.41287389 666.09578978 C-151.42853459 659.86013938 -151.44369903 653.62448789 -151.45861673 647.38883567 C-151.58297367 595.67549884 -151.79429278 543.96277709 -152.0625 492.25 C-155.74835793 490.47618121 -159.43591555 488.70592364 -163.1237793 486.9362793 C-164.16195549 486.43660393 -165.20013168 485.93692856 -166.26976776 485.42211151 C-173.37980519 482.01315563 -180.48484109 478.8214675 -187.875 476.0625 C-189.47782837 475.4578894 -189.47782837 475.4578894 -191.11303711 474.84106445 C-216.06536134 465.58129177 -241.51837833 458.78643829 -268.0625 456.25 C-269.11953125 456.13914062 -270.1765625 456.02828125 -271.265625 455.9140625 C-319.64597704 451.59021461 -369.36016741 459.43439324 -404.0078125 495.8671875 Z " fill="#000000" transform="translate(637.0625,393.75)"/>
<path d="M0 0 C1.36408268 0.17880538 2.72817809 0.35751359 4.09228516 0.53613281 C64.43345534 8.5652705 124.91113499 28.60245031 163.95654297 77.98413086 C199.29667611 124.59745188 204.32397472 183.18682546 204.28735614 239.65167999 C204.2869286 243.77447355 204.29810953 247.89723962 204.30781555 252.02001953 C204.32312719 259.13549954 204.33164866 266.25096005 204.33552551 273.36645508 C204.34133158 283.68310848 204.36001036 293.99971018 204.38196605 304.31634045 C204.41752838 321.10151012 204.44590692 337.88668274 204.46826172 354.671875 C204.46959671 355.67231433 204.4709317 356.67275366 204.47230715 357.70350933 C204.48308052 365.81793373 204.49350124 373.93235857 204.5039072 382.04678345 C204.51301925 389.14056419 204.52227231 396.23434472 204.53173828 403.328125 C204.53373439 404.8269146 204.53373439 404.8269146 204.53577083 406.35598278 C204.55829241 423.08681655 204.58852447 439.81762812 204.62413073 456.54843903 C204.6456336 466.82477727 204.66037045 477.10108099 204.66596949 487.37744045 C204.67025516 494.42910664 204.68159215 501.48073989 204.69819343 508.53238773 C204.70748335 512.58241989 204.71375668 516.63239066 204.71113014 520.68243408 C204.69889247 544.05605495 205.12461723 567.48248991 208.75 590.625 C208.91846436 591.72142822 209.08692871 592.81785645 209.26049805 593.94750977 C214.29880878 625.27480578 224.37227642 654.52044169 240.19433594 682.02734375 C250.16720993 699.51845657 250.16720993 699.51845657 248 709 C244.7569824 714.19361687 240.70214576 715.89103729 235.27734375 718.1953125 C234.40075607 718.58066162 233.5241684 718.96601074 232.62101746 719.36303711 C229.73186473 720.62969854 226.83485681 721.8772332 223.9375 723.125 C221.9152662 724.00760888 219.89362657 724.89158026 217.87255859 725.77685547 C213.68026649 727.6114017 209.48506586 729.43904807 205.28759766 731.26171875 C199.26786877 733.87876025 193.26231614 736.52692645 187.26171875 739.1875 C186.32571838 739.60249756 185.38971802 740.01749512 184.425354 740.44506836 C182.57026678 741.26768366 180.71520458 742.0903554 178.86016846 742.91308594 C171.98688146 745.9585412 165.10674652 748.98851547 158.22686768 752.01904297 C156.79298405 752.65068275 155.35918049 753.28250433 153.92547607 753.91455078 C149.97347362 755.65670024 146.01906285 757.3932344 142.0625 759.125 C140.71406006 759.71885498 140.71406006 759.71885498 139.33837891 760.32470703 C138.53706543 760.67388184 137.73575195 761.02305664 136.91015625 761.3828125 C136.24121338 761.67559082 135.57227051 761.96836914 134.88305664 762.27001953 C128.30913624 764.81844712 120.46199911 765.16561375 113.65234375 763.38671875 C104.81961032 759.40057464 98.89914785 751.07087749 94.1875 742.9375 C93.68105957 742.07318359 93.17461914 741.20886719 92.65283203 740.31835938 C80.67687703 719.51586123 72.55223079 697.70303801 65 675 C64.29617188 675.66644531 63.59234375 676.33289062 62.8671875 677.01953125 C55.25217595 684.15803185 47.3174144 690.69991447 39 697 C38.28424805 697.5455957 37.56849609 698.09119141 36.83105469 698.65332031 C-20.01911856 741.84579428 -84.70580695 763.1927158 -156.0625 763.25 C-156.83358093 763.25067474 -157.60466187 763.25134949 -158.39910889 763.25204468 C-225.83772828 763.15965828 -290.10207531 743.70134849 -339 696 C-377.5106917 657.11901319 -393.5332205 601.55777007 -393.3125 548 C-393.31034485 547.05601349 -393.3081897 546.11202698 -393.30596924 545.13943481 C-393.09137664 486.42230906 -374.85673746 433.59347444 -334 391 C-333.21753906 390.17628906 -332.43507813 389.35257813 -331.62890625 388.50390625 C-326.13266031 382.85090464 -320.25041339 377.79900654 -314 373 C-313.05471436 372.27272705 -313.05471436 372.27272705 -312.09033203 371.53076172 C-285.63908118 351.37652996 -255.37417419 336.77162751 -224 326 C-222.53675293 325.49243164 -222.53675293 325.49243164 -221.04394531 324.97460938 C-137.57789446 296.30285595 -47.44819013 292.34839255 40 291 C39.93805013 282.12250372 39.86043959 273.24530832 39.76428509 264.36811638 C39.72006966 260.24347866 39.68071553 256.11892877 39.65356445 251.99414062 C39.44441747 221.17568566 38.59298185 191.43881302 23 164 C22.50628906 163.12730469 22.01257812 162.25460937 21.50390625 161.35546875 C14.74011759 150.41460948 5.16419611 143.08086569 -6 137 C-6.83660156 136.53980469 -7.67320312 136.07960938 -8.53515625 135.60546875 C-24.45374721 127.65878705 -42.48646264 124.78260255 -60 123 C-61.23234375 122.86851562 -62.4646875 122.73703125 -63.734375 122.6015625 C-104.13603603 119.15718126 -144.73876228 124.71954965 -184 134 C-184.99596191 134.23493164 -185.99192383 134.46986328 -187.01806641 134.71191406 C-218.84777336 142.39808007 -250.30074887 153.33372344 -280.79736328 165.20654297 C-288.27012593 167.89846035 -297.31629308 168.65131689 -304.625 165.375 C-310.8138941 159.1861059 -313.08276198 151.90303923 -315.95703125 143.7734375 C-316.42709957 142.46204264 -316.89787271 141.15090024 -317.36930847 139.83999634 C-318.60848446 136.38806575 -319.83773768 132.93268162 -321.06500244 129.47650146 C-322.29035109 126.03157787 -323.52555416 122.59019341 -324.75976562 119.1484375 C-326.65841047 113.85037371 -328.54710712 108.54888536 -330.42700195 103.24414062 C-332.01328061 98.76794426 -333.61357693 94.2975245 -335.23510742 89.83398438 C-335.87554703 88.05340655 -336.51593262 86.27280929 -337.15625 84.4921875 C-337.44139969 83.71958588 -337.72654938 82.94698425 -338.02033997 82.15097046 C-340.80552087 74.34469485 -341.80751571 66.49718671 -338.5 58.625 C-329.99024507 44.60893306 -310.94923777 40.30673807 -296.375 35.25 C-295.0707608 34.79545441 -295.0707608 34.79545441 -293.74017334 34.33172607 C-245.27140766 17.4923513 -195.03369152 5.76308356 -144.00067139 0.22003174 C-142.01925271 0.00211739 -140.03914871 -0.22764436 -138.05908203 -0.45751953 C-93.2093166 -5.5836483 -44.74772081 -6.0585496 0 0 Z M8.92578125 401.33203125 C8.00046097 401.36808472 7.07514069 401.40413818 6.1217804 401.44128418 C3.18505139 401.55876011 0.2487739 401.68417298 -2.6875 401.8125 C-3.70813538 401.8566806 -4.72877075 401.90086121 -5.78033447 401.94638062 C-68.45929896 404.70942395 -144.18386386 409.87078978 -193 454 C-193.4842041 454.43505859 -193.9684082 454.87011719 -194.46728516 455.31835938 C-214.08670331 473.1805327 -226.72331738 498.57947744 -228.17700195 525.24707031 C-228.83968424 561.26952882 -221.63834774 590.37226345 -196.49609375 617.5625 C-174.65168397 638.89413021 -144.82726603 649.31151757 -114.57080078 649.1784668 C-62.80186441 648.45504267 -13.98704995 623.63537801 24.90621662 590.66796589 C27 589 27 589 30.15655041 586.910182 C37.42047823 581.87018401 37.42047823 581.87018401 41.18454933 574.16954994 C41.75909871 569.61686998 41.61153323 565.07944479 41.47583008 560.50317383 C41.47215698 558.75773393 41.47423348 557.01227399 41.48158264 555.2668457 C41.48529345 550.55718144 41.40920496 545.85187385 41.31812119 541.14321733 C41.23651707 536.212055 41.22919178 531.28077816 41.21379089 526.3490448 C41.17348172 517.02342964 41.06694041 507.69980999 40.93624753 498.37507123 C40.79063356 487.75377759 40.71938817 477.13238556 40.65420687 466.51034129 C40.51854357 444.67244962 40.2900789 422.83635081 40 401 C24.4594907 400.93489877 24.4594907 400.93489877 8.92578125 401.33203125 Z " fill="#000000" transform="translate(3264,728)"/>
<path d="M0 0 C5.48435496 6.15902688 5.75527578 14.74255538 5.6937294 22.64621544 C5.69828011 23.6109486 5.70283083 24.57568175 5.70751944 25.56964925 C5.71909921 28.79158834 5.70943032 32.01310322 5.69982433 35.23504353 C5.70383279 37.57287071 5.70915993 39.91069595 5.71569008 42.24851745 C5.72835643 47.99305031 5.72718736 53.73746367 5.72019568 59.48200348 C5.7126201 66.36675545 5.72252782 73.25145414 5.73312759 80.13619818 C5.75225104 92.84711586 5.75777294 105.55800481 5.75581074 118.2689352 C5.75396887 130.86802257 5.75919925 143.4670776 5.77349186 156.06615734 C5.77438174 156.85067314 5.77527162 157.63518895 5.77618846 158.44347796 C5.78075877 162.42840457 5.78547588 166.413331 5.79026329 170.39825737 C5.79996234 178.5020522 5.80869423 186.60584807 5.81712532 194.70964432 C5.81796957 195.52091006 5.81881383 196.33217581 5.81968367 197.16802537 C5.83952776 216.47315216 5.84952296 235.7782824 5.85825634 255.08341694 C5.85864101 255.92788459 5.85902567 256.77235224 5.85942199 257.64240983 C5.86253748 264.48325791 5.86562858 271.32410601 5.8686797 278.16495412 C5.87746667 297.82983364 5.88869108 317.49471135 5.90122509 337.15958881 C5.90175844 338.00131478 5.90229179 338.84304075 5.9028413 339.71027357 C5.91507299 358.95252911 5.92939154 378.19478104 5.94877815 397.43703079 C5.94959301 398.24740033 5.95040787 399.05776987 5.95124742 399.89269606 C5.95941777 407.98685525 5.96785545 416.0810141 5.97673732 424.17517254 C5.99567517 441.52172765 6.00871089 458.86825986 6.00973206 476.21482585 C6.01052864 488.87239123 6.0179795 501.52993731 6.0322618 514.18749482 C6.03976174 521.03404956 6.04380399 527.88056378 6.03914356 534.72712231 C6.03490706 541.0114795 6.03999019 547.29576187 6.05205142 553.58010828 C6.05478849 555.83730362 6.05425685 558.0945062 6.04987032 560.35169894 C6.01462319 580.1056473 6.80270346 599.96577262 10.12705517 619.47428608 C10.29737255 620.49836567 10.46768993 621.52244526 10.64316845 622.57755756 C14.2194116 643.24476652 20.63692354 662.28498078 30.38584423 680.83170795 C31.20406614 682.38899677 32.00664727 683.95448214 32.80674267 685.52116108 C34.94978518 689.61352475 37.2178517 693.51077595 39.87314892 697.29069233 C48.91427379 710.16277511 48.91427379 710.16277511 48.31455517 717.59928608 C46.51807404 722.86896404 42.02011533 725.10480564 37.31455517 727.59928608 C33.44104618 729.18436573 29.48947997 730.47231491 25.50596142 731.75162983 C24.36235149 732.12863529 23.21874157 732.50564075 22.0404768 732.89407063 C18.95933364 733.9081827 15.87541061 734.91321102 12.790061 735.91443348 C9.57692655 736.95975313 6.36777146 738.01712557 3.15854931 739.07438374 C1.86324722 739.50102329 0.56794387 739.92765903 -0.72736073 740.35429096 C-1.689334 740.6711813 -1.689334 740.6711813 -2.67074108 740.99447346 C-4.6165305 741.63490252 -6.56277368 742.27393524 -8.50912952 742.91264057 C-20.77948862 746.94189174 -33.00057779 751.10983603 -45.20860767 755.3236208 C-53.2333005 758.09286489 -61.26548762 760.8391243 -69.34560108 763.44303608 C-70.58318165 763.84457905 -71.82076221 764.24612202 -73.09584522 764.65983295 C-80.90679752 766.70407865 -88.60813615 766.93919271 -96.06044483 763.59928608 C-122.03820793 748.16444632 -131.09496489 710.45166294 -139.68544483 683.59928608 C-143.74351345 685.52488806 -147.13819951 688.12349888 -150.68544483 690.84928608 C-212.20408887 737.43794601 -281.5537992 768.49753436 -359.80653858 768.80241108 C-361.01713444 768.80942539 -362.22773029 768.8164397 -363.47501087 768.82366657 C-367.35769382 768.84106669 -371.24022434 768.84751816 -375.12294483 768.84928608 C-376.11442524 768.84994886 -376.11442524 768.84994886 -377.12593555 768.85062504 C-396.81166342 768.85752857 -416.20248881 768.69238857 -435.68544483 765.59928608 C-436.83158253 765.42236225 -437.97772022 765.24543842 -439.15858936 765.06315327 C-454.30860713 762.65825668 -469.09982878 759.36086312 -483.68544483 754.59928608 C-484.48353565 754.33921772 -485.28162647 754.07914936 -486.10390186 753.81120014 C-503.30633568 748.08756405 -520.06745103 740.4117691 -534.68544483 729.59928608 C-535.47580128 729.02670063 -535.47580128 729.02670063 -536.28212452 728.4425478 C-581.60085673 695.41028608 -601.08094617 644.53333152 -609.65028858 590.72819233 C-614.46737805 557.47951464 -613.9852806 523.51748271 -613.94689417 490.01072454 C-613.94229147 484.04249902 -613.94939082 478.07428423 -613.95485401 472.10606098 C-613.96366328 460.47675949 -613.96186563 448.84748408 -613.95602873 437.21818164 C-613.95141234 427.76881622 -613.95085883 418.31945766 -613.95307636 408.87009144 C-613.95322913 408.19463101 -613.9533819 407.51917057 -613.9535393 406.82324164 C-613.95416211 404.08047733 -613.95479893 401.33771302 -613.95545883 398.59494872 C-613.96154679 372.98579168 -613.95607439 347.37664879 -613.94526504 321.76749394 C-613.93574669 299.0437739 -613.93665192 276.32007626 -613.94618702 253.59635639 C-613.95689754 227.98671016 -613.96114491 202.37707632 -613.95496249 176.76742816 C-613.95432114 174.03883187 -613.95369545 171.31023558 -613.95307636 168.58163929 C-613.95291821 167.90992288 -613.95276005 167.23820646 -613.95259711 166.546135 C-613.95032569 156.41940129 -613.95297547 146.29267657 -613.95803547 136.1659441 C-613.96364053 124.66915674 -613.96213452 113.1723967 -613.95147398 101.67561248 C-613.94621667 95.81310365 -613.94416203 89.9506404 -613.95077229 84.0881319 C-613.95673071 78.72287893 -613.95345844 73.35771381 -613.94281718 67.9924688 C-613.94058309 66.05197477 -613.94171966 64.11147332 -613.94656876 62.17098406 C-613.95265669 59.53250923 -613.94640568 56.89433481 -613.93712711 54.25587559 C-613.94180945 53.5039658 -613.94649178 52.75205601 -613.951316 51.97736108 C-613.90693055 45.65582945 -613.22709442 39.37425534 -610.12294483 33.78678608 C-603.56495532 27.90141088 -594.52292038 26.39030581 -586.15175343 24.57487202 C-584.92607655 24.30118793 -583.70039967 24.02750385 -582.43758106 23.74552631 C-579.09992186 23.0027919 -575.76060062 22.26877736 -572.41994905 21.53969574 C-569.61663572 20.92686393 -566.81458703 20.30835259 -564.01248515 19.69000936 C-557.39127485 18.22917086 -550.76783967 16.77875623 -544.14296436 15.33463764 C-537.34531483 13.85264291 -530.55195816 12.35206367 -523.76041639 10.84234881 C-517.89840518 9.54003181 -512.03376521 8.2500625 -506.1669575 6.96952748 C-502.6768212 6.20758384 -499.18783914 5.44115241 -495.70138645 4.66251087 C-461.94582702 -2.8637669 -461.94582702 -2.8637669 -451.49794483 0.72428608 C-447.25935833 3.55001041 -445.27842283 6.82035208 -443.68544483 11.59928608 C-443.58750344 14.28323821 -443.54687088 16.94117691 -443.55236626 19.6252594 C-443.55012323 20.45656719 -443.54788021 21.28787499 -443.54556921 22.14437392 C-443.5392083 24.95452773 -443.53999455 27.76463542 -443.5406847 30.57479572 C-443.53755247 32.60048041 -443.53397802 34.62616446 -443.52999729 36.65184766 C-443.5202735 42.23847155 -443.51674454 47.82508522 -443.51415431 53.41171634 C-443.51026747 59.43074178 -443.50062901 65.44975813 -443.49159718 71.46877766 C-443.47663701 81.91103818 -443.46509626 92.35329888 -443.45564938 102.79556561 C-443.44122449 118.62610182 -443.41845979 134.45662012 -443.39398426 150.28714357 C-443.38419243 156.64432807 -443.37467144 163.00151298 -443.36515427 169.35869789 C-443.3640955 170.06512997 -443.36303673 170.77156205 -443.36194588 171.49940116 C-443.33677798 188.32688287 -443.31429592 205.1543679 -443.29262257 221.98185444 C-443.29167213 222.71826347 -443.29072169 223.45467249 -443.28974245 224.21339695 C-443.26763575 241.35897242 -443.24676809 258.50454885 -443.22804737 275.65012836 C-443.22724362 276.38537638 -443.22643987 277.12062439 -443.22561176 277.87815265 C-443.22156156 281.5848326 -443.2175199 285.29151256 -443.2134785 288.99819253 C-443.21267951 289.73065714 -443.21188052 290.46312175 -443.21105732 291.21778225 C-443.209445 292.69616252 -443.20783418 294.17454279 -443.20622485 295.65292305 C-443.17950399 320.16142313 -443.14607961 344.66990715 -443.1054467 369.17838822 C-443.09969795 372.65151017 -443.09403911 376.12463227 -443.0884428 379.59775448 C-443.087341 380.28120008 -443.08623919 380.96464568 -443.085104 381.66880175 C-443.06769752 392.60366148 -443.05746202 403.5385164 -443.05019035 414.47338708 C-443.04274047 425.50427165 -443.02808126 436.53513114 -443.0067646 447.56599804 C-442.99547473 453.52630204 -442.98723249 459.48656565 -442.98777294 465.44688129 C-445.49415482 547.57135624 -445.49415482 547.57135624 -411.31825733 619.18522358 C-393.75242854 635.29157699 -369.11779998 641.57813591 -345.75966358 641.83756733 C-344.65461475 641.85225811 -344.65461475 641.85225811 -343.52724171 641.86724567 C-285.39178772 642.4792339 -229.39132524 624.12726544 -181.71296245 590.61236554 C-179.46393908 589.11692825 -177.31251965 587.85291483 -174.94080752 586.59502 C-170.05456151 583.80877877 -164.98753279 580.85643257 -162.81925203 575.43252243 C-161.41700184 569.01736778 -161.7312544 562.46994282 -161.87057972 555.94372272 C-161.86276673 553.72488105 -161.84835023 551.50605451 -161.82792014 549.28729314 C-161.79086906 543.20349773 -161.84703194 537.12360687 -161.91855371 531.04025114 C-161.9730502 525.1497461 -161.95678271 519.2597192 -161.94215198 513.36904248 C-161.91458511 501.32239994 -161.95604889 489.27693198 -162.0365591 477.23056698 C-162.11593652 465.30207669 -162.16240934 453.37416978 -162.16585827 441.44540691 C-162.16608352 440.70285583 -162.16630876 439.96030474 -162.16654083 439.19525211 C-162.16748687 435.42383273 -162.16780491 431.65241359 -162.1678532 427.8809941 C-162.16904754 401.17964952 -162.23667111 374.47885578 -162.3463335 347.77775288 C-162.45250275 321.86175959 -162.53864082 295.94586928 -162.59047413 270.029706 C-162.59208522 269.23110927 -162.59369631 268.43251254 -162.59535622 267.60971591 C-162.63201258 249.37711047 -162.66186095 231.14449945 -162.68566132 212.91187286 C-162.68770211 211.36533777 -162.6897446 209.81880267 -162.69178882 208.27226758 C-162.69381697 206.73186948 -162.69584327 205.19147138 -162.69786769 203.65107328 C-162.69886724 202.89092676 -162.69986679 202.13078024 -162.70089663 201.34759897 C-162.70587918 197.53567285 -162.71070932 193.72374663 -162.71525677 189.91181996 C-162.73682327 171.9868998 -162.77804884 154.06225493 -162.85371288 136.13747766 C-162.90097659 124.89816413 -162.93575119 113.65885956 -162.96058259 102.41947404 C-162.97865034 94.68399856 -163.0132358 86.94884423 -163.06075667 79.2134967 C-163.08534669 74.52406416 -163.09330907 69.83471723 -163.09629901 65.14522579 C-163.1010248 62.99533189 -163.1126348 60.84544005 -163.13175068 58.69562594 C-163.15680179 55.77660235 -163.15714284 52.85857207 -163.15135384 49.93947029 C-163.17114097 48.68341069 -163.17114097 48.68341069 -163.19132784 47.40197614 C-163.14355348 41.70246017 -161.8735165 37.3685965 -158.68544483 32.59928608 C-152.41787621 27.38247941 -143.31409944 26.02583683 -135.54750538 24.36954975 C-134.26970203 24.08596607 -132.99189869 23.80238239 -131.67537403 23.51020527 C-128.20058871 22.73973299 -124.72236004 21.98609543 -121.24304652 21.23637271 C-117.58118896 20.44506203 -113.92223718 19.64050789 -110.26279163 18.8381319 C-104.11774843 17.49305245 -97.97033068 16.15928262 -91.82143116 14.8319521 C-84.74237957 13.30365587 -77.66777183 11.75598997 -70.59516591 10.1981594 C-64.49336958 8.85470965 -58.38930597 7.5219602 -52.28327495 6.1978901 C-48.64937766 5.40988218 -45.01634718 4.61837467 -41.38534069 3.81714153 C-37.33069233 2.92315847 -33.27151333 2.05166022 -29.21156788 1.18204975 C-27.4397691 0.78707546 -27.4397691 0.78707546 -25.6321764 0.38412189 C-6.85673901 -3.57643905 -6.85673901 -3.57643905 0 0 Z " fill="#000000" transform="translate(2000.6854448318481,726.4007139205933)"/>
<path d="M0 0 C0.68834427 -0.01071879 1.37668854 -0.02143759 2.08589172 -0.03248119 C7.4917842 0.05646325 12.04104202 1.50767246 16.3984375 4.7590332 C25.57135139 15.39063676 29.10772818 31.33428822 33.47052002 44.38424683 C35.34559732 49.99120363 37.24044121 55.59148839 39.1328125 61.19262695 C39.51487854 62.32498276 39.89694458 63.45733856 40.29058838 64.62400818 C43.70411948 74.72867531 47.20652174 84.80067196 50.73828125 94.86450195 C57.21401161 113.33722031 63.5782316 131.84746583 69.92578125 150.36450195 C71.91891477 156.17842616 73.91228717 161.99226836 75.90625 167.8059082 C76.15081814 168.51898195 76.39538628 169.2320557 76.64736557 169.96673775 C81.67599501 184.62626748 86.74104016 199.27307194 91.81793213 213.91595459 C96.18151844 226.50213305 100.5347585 239.09178405 104.8671875 251.6887207 C105.09019154 252.33710781 105.31319557 252.98549492 105.54295731 253.65353012 C106.67503746 256.94520823 107.80697249 260.23693624 108.93884277 263.52868652 C109.39282083 264.84895883 109.84680032 266.16923064 110.30078125 267.48950195 C110.63782326 268.46969048 110.63782326 268.46969048 110.98167419 269.46968079 C116.6123599 285.84389233 122.26674121 302.20928383 127.98828125 318.55200195 C135.45677871 339.88943954 142.802912 361.26892754 150.12426758 382.65722656 C150.4929972 383.73435583 150.4929972 383.73435583 150.86917591 384.83324528 C152.87888277 390.70412561 152.87888277 390.70412561 153.80800056 393.41931343 C156.82265864 402.2278702 159.86029505 411.02796486 162.9296875 419.81762695 C180.11906447 469.15719644 193.75945631 519.6343745 205.69897461 570.48632812 C205.94397705 571.52893799 206.18897949 572.57154785 206.44140625 573.64575195 C206.64668945 574.53198242 206.85197266 575.41821289 207.06347656 576.33129883 C207.54636185 578.46449991 207.54636185 578.46449991 208.61328125 580.42700195 C208.81658051 579.61300934 209.01987976 578.79901672 209.2293396 577.96035767 C211.19117719 570.11075599 213.16002516 562.26294861 215.13588524 554.4168644 C216.15032634 550.38760208 217.16247144 546.35779848 218.16845703 542.32641602 C222.45068693 525.1735433 226.87303411 508.08404755 231.87890625 491.1262207 C232.07883556 490.44845707 232.27876488 489.77069344 232.48475266 489.07239151 C236.41320871 475.80251705 240.53175747 462.57356655 245.06640625 449.49731445 C245.33769348 448.71421906 245.60898071 447.93112366 245.88848877 447.1242981 C251.68308491 430.53924174 258.04401452 414.15334611 264.30503845 397.74053955 C269.53655548 384.02215935 274.71040921 370.28212872 279.88372803 356.54171753 C281.55722035 352.09699207 283.23193716 347.65272852 284.90673828 343.20849609 C292.0819229 324.16660773 299.23545988 305.11669802 306.37423706 286.06112671 C314.04062169 265.59864829 321.74245959 245.14965942 329.45172119 224.70330811 C337.02462673 204.61830979 344.58286411 184.52797967 352.11328125 164.42700195 C357.72837062 149.43969682 363.35161642 134.45551507 368.9921875 119.4777832 C369.40217169 118.38907362 369.40217169 118.38907362 369.82043839 117.2783699 C372.87261708 109.173943 375.9276667 101.07060798 378.98730469 92.96899414 C380.07762763 90.08135682 381.1677763 87.19365377 382.2578125 84.3059082 C382.65939386 83.24216539 382.65939386 83.24216539 383.06908798 82.15693283 C386.67163227 72.61142976 390.24464871 63.05545143 393.79130363 53.48904991 C395.3825323 49.20121069 396.98167782 44.91631422 398.57955933 40.63095093 C399.42435985 38.35795252 400.2650704 36.08342911 401.10134888 33.80728149 C402.24604819 30.69220243 403.40468817 27.5826414 404.56640625 24.47387695 C404.89029831 23.58026962 405.21419037 22.68666229 405.54789734 21.76597595 C408.4804669 13.99277826 412.38592208 5.99164985 419.61328125 1.42700195 C427.85267775 -1.15060505 437.0627597 0.70451277 445.39453125 1.95825195 C446.57881714 2.13223511 447.76310303 2.30621826 448.98327637 2.48547363 C466.38555218 5.0860268 483.73966419 8.00180549 501.09130859 10.91772461 C506.14805387 11.76700944 511.20675133 12.60403815 516.26596832 13.43845367 C520.2187034 14.09255934 524.16994431 14.75536652 528.12083435 15.42051697 C529.98598803 15.73304332 531.85167099 16.04243001 533.71791077 16.34840393 C563.1282556 21.18000195 563.1282556 21.18000195 567.61328125 27.42700195 C569.14720349 33.92503475 567.3444966 39.88923459 565.11328125 45.99731445 C564.84948166 46.73069534 564.58568207 47.46407623 564.31388855 48.21968079 C560.81464279 57.80330737 556.85663163 67.20216103 552.92578125 76.61450195 C552.08895602 78.62805544 551.25262227 80.64181325 550.41674805 82.65576172 C548.68339438 86.83095937 546.94795859 91.00528192 545.2109375 95.17895508 C541.49706552 104.10653196 537.80624389 113.04362134 534.11630249 121.98110962 C532.92146646 124.87495219 531.72603365 127.76854769 530.53051758 130.66210938 C525.54021101 142.74309801 520.56948069 154.83198524 515.61328125 166.92700195 C509.86423524 180.95686666 504.09112149 194.97662851 498.30078125 208.98950195 C497.90458588 209.94833282 497.5083905 210.9071637 497.10018921 211.89505005 C493.86584345 219.72192229 490.63026948 227.54828667 487.39465332 235.37463379 C484.57112822 242.20435527 481.74807796 249.03427275 478.92578125 255.86450195 C478.33112564 257.30359421 478.33112564 257.30359421 477.72445679 258.77175903 C472.33524212 271.81582229 466.9647383 284.86740592 461.61328125 297.92700195 C455.86423524 311.95686666 450.09112149 325.97662851 444.30078125 339.98950195 C443.90458588 340.94833282 443.5083905 341.9071637 443.10018921 342.89505005 C439.86584345 350.72192229 436.63026948 358.54828667 433.39465332 366.37463379 C430.57112822 373.20435527 427.74807796 380.03427275 424.92578125 386.86450195 C424.33112564 388.30359421 424.33112564 388.30359421 423.72445679 389.77175903 C418.33524212 402.81582229 412.9647383 415.86740592 407.61328125 428.92700195 C401.86423524 442.95686666 396.09112149 456.97662851 390.30078125 470.98950195 C389.90458588 471.94833282 389.5083905 472.9071637 389.10018921 473.89505005 C385.86584345 481.72192229 382.63026948 489.54828667 379.39465332 497.37463379 C376.57112822 504.20435527 373.74807796 511.03427275 370.92578125 517.86450195 C370.52934418 518.82389679 370.1329071 519.78329163 369.72445679 520.77175903 C364.33524212 533.81582229 358.9647383 546.86740592 353.61328125 559.92700195 C347.86423524 573.95686666 342.09112149 587.97662851 336.30078125 601.98950195 C335.90458588 602.94833282 335.5083905 603.9071637 335.10018921 604.89505005 C331.86584345 612.72192229 328.63026948 620.54828667 325.39465332 628.37463379 C322.57112822 635.20435528 319.74815086 642.03430287 316.92578125 648.86450195 C316.53067352 649.82057343 316.1355658 650.7766449 315.72848511 651.76168823 C310.58418316 664.21132843 305.45906864 676.66864251 300.35372925 689.13430786 C297.44525318 696.23392886 294.53049574 703.33096774 291.61328125 710.42700195 C291.27280762 711.25550659 290.93233398 712.08401123 290.58154297 712.93762207 C288.51074933 717.97477224 286.43422186 723.00949836 284.35021973 728.04119873 C283.70136138 729.60973454 283.05409714 731.17893091 282.40856934 732.74884033 C281.51775603 734.91428419 280.62096415 737.07715838 279.72265625 739.23950195 C279.46605225 739.86686249 279.20944824 740.49422302 278.94506836 741.14059448 C273.7024079 753.68689496 273.7024079 753.68689496 267.61328125 756.42700195 C264.492031 757.38251845 261.65373978 757.56320396 258.3959198 757.58763123 C257.34035385 757.59767685 256.2847879 757.60772247 255.19723511 757.61807251 C254.04442047 757.6239035 252.89160583 757.6297345 251.70385742 757.63574219 C250.48556747 757.64552597 249.26727753 757.65530975 248.0120697 757.66539001 C243.97680617 757.69532737 239.94157787 757.71703044 235.90625 757.7355957 C235.21882792 757.73889302 234.53140584 757.74219035 233.82315278 757.74558759 C227.33624106 757.77635998 220.84932451 757.8030564 214.36236095 757.82000637 C206.07656716 757.84191424 197.79142112 757.88390399 189.50588626 757.95344394 C183.67305178 758.00073073 177.84039183 758.02494586 172.00737172 758.03220326 C168.52653994 758.03715162 165.04643938 758.05215268 161.56581688 758.09194756 C157.68064958 758.13578525 153.7963118 758.13190657 149.91088867 758.12402344 C148.76414673 758.14402405 147.61740479 758.16402466 146.43591309 758.18463135 C140.19211053 758.12775104 136.44601048 757.54537893 131.91444397 753.0890522 C129.53398227 750.04835106 128.16620188 746.76655795 126.8203125 743.1730957 C126.49352005 742.35135361 126.1667276 741.52961151 125.83003235 740.68296814 C125.11769496 738.88618425 124.41412018 737.08590722 123.71832275 735.28265381 C122.58717584 732.35954027 121.42728579 729.4493392 120.25927734 726.54077148 C118.06442472 721.06758832 115.89225924 715.58571717 113.72668457 710.10089111 C112.24902815 706.35842674 110.76894955 702.61692847 109.28808594 698.87573242 C107.7017205 694.86773542 106.11545204 690.85970045 104.53005981 686.85131836 C99.04966375 672.99585214 93.55104195 659.14763921 88.05062866 645.30010986 C86.35029853 641.01943384 84.65032896 636.73861469 82.95043945 632.45776367 C80.65421099 626.67518106 78.35791234 620.89262633 76.06152344 615.11010742 C70.65246804 601.48955037 65.24385223 587.86881878 59.83543396 574.24800873 C59.27034203 572.82485626 58.70524803 571.40170461 58.14015198 569.97855377 C49.2806983 547.66668515 40.42462331 525.3534777 31.57073975 503.03939819 C23.42128373 482.50072914 15.26820731 461.96349968 7.11328125 441.42700195 C-1.81330417 418.94723943 -10.73705279 396.46635407 -19.65759277 373.98419189 C-28.06423519 352.79724388 -36.47439769 331.61169586 -44.88671875 310.42700195 C-53.81330417 287.94723943 -62.73705279 265.46635407 -71.65759277 242.98419189 C-77.79489169 227.51658584 -83.93309486 212.04933984 -90.07421875 196.58325195 C-90.35423422 195.87804665 -90.63424969 195.17284134 -90.92275047 194.44626617 C-93.75850607 187.30461024 -96.59441511 180.16301525 -99.43049526 173.02148819 C-105.04190549 158.89130202 -110.65200052 144.76059815 -116.25657463 130.6276989 C-117.08208504 128.54609131 -117.90767402 126.4645149 -118.73329163 124.38294983 C-119.27719122 123.01164757 -119.82109076 121.64034528 -120.36499023 120.26904297 C-120.63213994 119.59550057 -120.89928965 118.92195818 -121.1745348 118.22800541 C-122.49898245 114.88863203 -123.82315633 111.54915053 -125.14675903 108.20944214 C-130.21436913 95.42300546 -135.28945501 82.63992904 -140.43359375 69.8840332 C-140.81602737 68.93432648 -141.198461 67.98461975 -141.59248352 67.00613403 C-143.3203447 62.71567152 -145.05261898 58.42714295 -146.7956543 54.14282227 C-147.38741905 52.67643646 -147.97898565 51.20997065 -148.5703125 49.7434082 C-148.83048157 49.11006058 -149.09065063 48.47671295 -149.35870361 47.82417297 C-152.28376058 40.53363442 -154.6916592 33.20233441 -152.38671875 25.42700195 C-146.44812421 18.14743446 -133.57109897 17.65302994 -124.87890625 16.43408203 C-123.06203056 16.17007851 -123.06203056 16.17007851 -121.20845032 15.90074158 C-117.91327779 15.42390599 -114.6172764 14.95401355 -111.32055283 14.48809648 C-108.55017721 14.09576774 -105.78046109 13.69888455 -103.01071453 13.30214328 C-96.4617717 12.36427824 -89.91168355 11.4347403 -83.36083984 10.51025391 C-76.6506637 9.56311568 -69.94273528 8.60113125 -63.23572922 7.63182145 C-57.438701 6.79462543 -51.64031189 5.96735198 -45.84079361 5.14758414 C-42.39438338 4.66030754 -38.94858426 4.16948508 -35.50408936 3.66883278 C-10.92494043 0.10393298 -10.92494043 0.10393298 0 0 Z " fill="#000000" transform="translate(2266.38671875,734.572998046875)"/>
<path d="M0 0 C2.71737805 2.55952207 4.54398445 5.15560986 5.31640625 8.84375 C5.34036644 21.44681241 -2.06761515 33.5937622 -7.1796875 44.8359375 C-7.97217655 46.58578622 -8.7643247 48.33578938 -9.55615234 50.0859375 C-11.21901983 53.7601172 -12.88409258 57.43328771 -14.55029297 61.10595703 C-17.12742513 66.79057984 -19.68752016 72.48278759 -22.24609375 78.17578125 C-23.50480552 80.97249755 -24.76397306 83.769008 -26.02340698 86.56539917 C-26.82331344 88.34273096 -27.62227484 90.12048844 -28.42019653 91.89871216 C-32.2844435 100.50646452 -36.19208076 109.08860099 -40.359375 117.5546875 C-40.66489288 118.18427368 -40.97041077 118.81385986 -41.28518677 119.46252441 C-44.0566693 125.00978505 -46.90542265 130.2989276 -52.1171875 133.7734375 C-61.10086551 136.44136648 -69.8916159 133.03475388 -78.4921875 130.4609375 C-114.74370617 119.8277569 -146.43345895 121.98775289 -179.91845703 139.68041992 C-188.48032371 144.3601819 -196.34157815 149.89861878 -204.1171875 155.7734375 C-204.72900879 156.23363281 -205.34083008 156.69382812 -205.97119141 157.16796875 C-215.3735258 164.28574358 -224.30929885 171.93745381 -233.1171875 179.7734375 C-233.64070801 180.23766113 -234.16422852 180.70188477 -234.70361328 181.18017578 C-237.73398515 183.87932385 -237.73398515 183.87932385 -240.66282141 186.68732011 C-243.99686405 189.98727581 -247.39704918 192.67414744 -251.29695702 195.28583717 C-260.34532981 201.92852225 -266.94882823 208.7452277 -268.72828247 220.07328008 C-270.1593152 232.63938383 -269.81629896 245.34923534 -269.5951314 257.97149801 C-269.50998558 264.16360239 -269.54750298 270.35517137 -269.56965637 276.5476532 C-269.5915829 287.25768089 -269.5381998 297.96483979 -269.43101883 308.67414474 C-269.31908403 319.89948619 -269.2525621 331.12365216 -269.24497604 342.34956741 C-269.2442372 343.40019503 -269.2442372 343.40019503 -269.24348344 344.47204745 C-269.24123497 348.02988652 -269.23981811 351.58772539 -269.23874216 355.14556499 C-269.22985219 380.29327339 -269.12617836 405.43976459 -268.96386719 430.58691406 C-268.80668914 454.98628946 -268.68521248 479.38535984 -268.6171875 503.78515625 C-268.61401172 504.91427053 -268.61401172 504.91427053 -268.61077179 506.0661952 C-268.56668309 521.78905881 -268.52897394 537.51193715 -268.49230219 553.23481952 C-268.47703408 559.77191811 -268.46132062 566.3090156 -268.4454675 572.84611279 C-268.44029137 574.99569094 -268.43522893 577.14526934 -268.43018143 579.2948478 C-268.38527979 598.23911681 -268.30647307 617.18292761 -268.19745295 636.1269328 C-268.14890861 644.64351737 -268.11029994 653.16015029 -268.0726303 661.67678915 C-268.03956145 668.95609694 -267.99366434 676.23517018 -267.93777833 683.51433661 C-267.90701393 687.92563723 -267.88866982 692.33692287 -267.87395589 696.74830349 C-267.86463003 698.77137207 -267.85007616 700.79442453 -267.82983752 702.81741337 C-267.80299761 705.56267078 -267.79473997 708.30738348 -267.7910862 711.05275536 C-267.7788067 711.8417666 -267.76652721 712.63077785 -267.75387561 713.44369853 C-267.77344599 718.6055629 -268.64633524 722.20860371 -271.1171875 726.7734375 C-275.66243307 729.80360122 -279.71610366 729.8984919 -285.08673096 729.91387939 C-286.28382187 729.91958954 -287.48091278 729.92529968 -288.71427917 729.93118286 C-290.67183891 729.93285965 -290.67183891 729.93285965 -292.66894531 729.93457031 C-294.06393056 729.93920215 -295.45891456 729.9442273 -296.85389709 729.94961548 C-300.63714204 729.96270665 -304.42036926 729.96917806 -308.20363331 729.97362614 C-310.5701426 729.97656229 -312.93664711 729.98066812 -315.30315399 729.98513031 C-322.71578836 729.99879686 -330.12841173 730.00846752 -337.54105783 730.0123322 C-346.08228392 730.01681042 -354.62334979 730.03435085 -363.16452718 730.0633328 C-369.77703146 730.08498734 -376.38949079 730.0950385 -383.00203013 730.09637332 C-386.9465583 730.09741869 -390.89093567 730.10326906 -394.83542633 730.12119293 C-398.54879025 730.13773899 -402.26189108 730.1397977 -405.97527885 730.13105392 C-407.97619931 730.1299233 -409.97711129 730.14359021 -411.97798157 730.1578064 C-427.7204544 730.08525228 -427.7204544 730.08525228 -433.6171875 724.3359375 C-436.38562159 719.60652927 -436.26154465 715.15642898 -436.25026608 709.77728844 C-436.2525091 708.96132975 -436.25475213 708.14537107 -436.25706312 707.30468637 C-436.26341252 704.55266921 -436.26263839 701.80069929 -436.26194763 699.04867554 C-436.26508062 697.06225311 -436.26865524 695.07583134 -436.27263504 693.08941042 C-436.28235078 687.6155646 -436.28588652 682.1417292 -436.28847802 676.66787601 C-436.29236752 670.76796897 -436.30200619 664.86807118 -436.31103516 658.96817017 C-436.32599249 648.73166467 -436.33752995 638.4951599 -436.34698296 628.25864792 C-436.36142066 612.72752204 -436.38418757 597.19641437 -436.40864807 581.66530147 C-436.41843985 575.42456093 -436.42796114 569.18381996 -436.43747807 562.94307899 C-436.43853683 562.24956004 -436.4395956 561.55604108 -436.44068645 560.8415064 C-436.46585369 544.32191198 -436.48833388 527.80231417 -436.51000977 511.28271484 C-436.5109602 510.55985504 -436.51191064 509.83699523 -436.51288988 509.09223058 C-436.53497904 492.27564075 -436.55584386 475.45904995 -436.57458496 458.64245605 C-436.57538871 457.92210541 -436.57619246 457.20175477 -436.57702057 456.45957532 C-436.58107059 452.82824827 -436.58511227 449.19692121 -436.58915383 445.56559415 C-436.58995282 444.84805342 -436.59075181 444.13051269 -436.59157502 443.39122831 C-436.59318732 441.94298235 -436.59479815 440.4947364 -436.59640748 439.04649044 C-436.6231703 414.9997425 -436.65662029 390.95301078 -436.69718563 366.90628206 C-436.70293378 363.49330382 -436.70859271 360.08032544 -436.71418953 356.66734695 C-436.71529133 355.99578729 -436.71639314 355.32422762 -436.71752833 354.63231766 C-436.73595198 343.26085996 -436.74601013 331.88941005 -436.7538035 320.51794 C-436.76127295 310.34914072 -436.7759145 300.18036681 -436.79586773 290.01158445 C-436.80710618 284.16952519 -436.8154033 278.32750653 -436.81485939 272.48543549 C-436.81461903 196.79171348 -438.36729065 120.4734752 -480.453125 54.578125 C-483.10593888 50.10695043 -484.41815459 46.55525747 -484.4921875 41.3359375 C-484.52054688 40.42972656 -484.54890625 39.52351562 -484.578125 38.58984375 C-483.95914877 34.80779408 -482.46092813 32.79660776 -480.1171875 29.7734375 C-477.2902832 27.91552734 -477.2902832 27.91552734 -473.98046875 26.359375 C-473.06700432 25.92593277 -473.06700432 25.92593277 -472.13508606 25.48373413 C-464.31731692 21.83272576 -456.30459074 18.62341262 -448.3046875 15.3984375 C-445.73990842 14.35722781 -443.17598152 13.3139397 -440.61213684 12.27043152 C-438.83632467 11.54768458 -437.06027039 10.82553222 -435.28398132 10.10395813 C-428.87280359 7.49723463 -422.47577971 4.85778304 -416.0859375 2.19921875 C-415.18007401 1.82242981 -414.27421051 1.44564087 -413.34089661 1.05743408 C-409.81711696 -0.40897433 -406.29367125 -1.87616878 -402.77157593 -3.34661865 C-393.93596852 -7.03453005 -385.08514353 -10.67326186 -376.16796875 -14.16015625 C-375.0413105 -14.60259422 -375.0413105 -14.60259422 -373.89189148 -15.05397034 C-365.06238186 -18.47872326 -353.75355023 -20.77359304 -344.6796875 -16.7890625 C-329.66269049 -7.41560217 -322.57195048 13.63383144 -315.44580078 28.93945312 C-314.25281624 31.48413607 -313.03231566 34.01289292 -311.80078125 36.5390625 C-306.75774866 47.07332273 -302.86591525 57.89527275 -299.1796875 68.9609375 C-298.94008301 69.67844177 -298.70047852 70.39594604 -298.45361328 71.13519287 C-291.65459304 91.60322336 -291.65459304 91.60322336 -292.1171875 98.7734375 C-284.53906521 92.38071981 -277.36914539 85.57429367 -270.8984375 78.0546875 C-266.7037971 73.22640192 -262.2113721 68.72102551 -257.6796875 64.2109375 C-256.87208984 63.39947266 -256.06449219 62.58800781 -255.23242188 61.75195312 C-250.9400019 57.46645083 -246.57246926 53.34301407 -241.97338867 49.38891602 C-239.63586758 47.35453787 -237.39423796 45.23066416 -235.14916992 43.09545898 C-227.82999248 36.15156867 -220.20711101 29.7963134 -212.1171875 23.7734375 C-211.47974609 23.29551758 -210.84230469 22.81759766 -210.18554688 22.32519531 C-155.66053809 -18.26088826 -60.63498612 -43.31070437 0 0 Z " fill="#000000" transform="translate(1298.1171875,743.2265625)"/>
<path d="M0 0 C1.24389168 93.33700612 -10.27179883 182.31607707 -60.03027344 285.02978516 C-61.80929531 288.60991851 -63.56730899 292.20001362 -65.3203125 295.79296875 C-66.27535188 297.73731813 -67.23102356 299.68135714 -68.1875 301.625 C-68.59621338 302.46409912 -69.00492676 303.30319824 -69.42602539 304.16772461 C-72.20310167 309.75119426 -75.4335294 314.88676412 -79 320 C-116.05043528 311.23339638 -152.17338739 296.20657861 -187 281 C-187.8559375 280.62987793 -188.711875 280.25975586 -189.59375 279.87841797 C-238.7225094 258.5886411 -282.28195054 231.574929 -320.3520813 193.82214355 C-321.34959002 192.83333003 -322.34846263 191.84589005 -323.34884644 190.85998535 C-330.04841643 184.24608399 -336.1383731 177.36116519 -342 170 C-342.86342747 168.97248291 -343.73181961 167.94907142 -344.609375 166.93359375 C-370.39317634 136.86817576 -389.91165738 101.51601823 -405.3125 65.1875 C-405.59649658 64.53104492 -405.88049316 63.87458984 -406.1730957 63.19824219 C-407.75341262 59.3292081 -408.27445262 56.16785025 -408 52 C-401.94382589 52.57708046 -396.05404627 53.51311081 -390.08178711 54.66308594 C-365.80336393 59.30817014 -340.73912169 62.63113906 -316 63 C-314.75943848 63.02046387 -313.51887695 63.04092773 -312.24072266 63.06201172 C-230.07573495 64.27588664 -149.63240252 48.24521612 -34.4375 11.0625 C-33.48621216 10.73930786 -32.53492432 10.41611572 -31.55480957 10.08312988 C-28.82566131 9.15406066 -26.09807377 8.22056838 -23.37109375 7.28515625 C-22.57144699 7.01262527 -21.77180023 6.7400943 -20.94792175 6.45930481 C-15.96236688 4.74079334 -11.09654114 2.83696299 -6.24867249 0.75950623 C-4 0 -4 0 0 0 Z " fill="#FF9900" transform="translate(3914,497)"/>
<path d="M0 0 C5.00699148 0.47756935 9.61564275 1.67152143 14.36328125 3.265625 C15.05947067 3.49483643 15.7556601 3.72404785 16.47294617 3.96020508 C18.75552902 4.7155408 21.03432424 5.4814802 23.3125 6.25 C24.10454834 6.51598999 24.89659668 6.78197998 25.71264648 7.05603027 C64.27420332 20.03648034 101.5854164 35.84732686 138 54 C138.89638184 54.44617676 139.79276367 54.89235352 140.71630859 55.35205078 C160.02771285 65.03776698 178.73846333 75.978139 196 89 C196.53206055 89.39606445 197.06412109 89.79212891 197.61230469 90.20019531 C208.72463428 98.47618434 219.56487427 107.23593075 229.20703125 117.20703125 C231.08063654 119.08063654 233.0416295 120.78707167 235.0625 122.5 C238.34893302 125.33510469 241.16821796 128.34653032 243.96875 131.65625 C245.99127708 133.98993509 248.08990965 136.23948548 250.20849609 138.48583984 C256.46111047 145.13456536 262.17519123 152.07265532 267.71044922 159.32519531 C268.9037154 160.87495033 270.12456192 162.40336346 271.34765625 163.9296875 C285.23517494 181.41080452 297.03327298 200.58638456 308 220 C308.42941895 220.7542627 308.85883789 221.50852539 309.30126953 222.28564453 C315.41194036 233.11654862 320.50610344 244.37369043 325.5 255.75 C325.80976776 256.45380798 326.11953552 257.15761597 326.43869019 257.88275146 C327.32973813 259.91406665 328.21327581 261.94845717 329.09375 263.984375 C329.60615234 265.16741211 330.11855469 266.35044922 330.64648438 267.56933594 C332.01110797 271.02815461 333.04098894 274.41229155 334 278 C326.94851669 276.89790095 319.94109027 275.61891903 312.94140625 274.23046875 C289.71735101 269.63694236 266.53587198 265.60710527 243 263 C242.26295837 262.9175 241.52591675 262.835 240.76654053 262.75 C199.85172793 258.22672056 157.87737055 257.94402374 117 263 C116.33299072 263.0825 115.66598145 263.165 114.97875977 263.25 C63.79620129 269.69663447 13.98429161 283.95424043 -32.69824219 305.91894531 C-35.10785545 307.05065591 -37.52596093 308.16271367 -39.9453125 309.2734375 C-48.69111774 313.31896394 -57.14002764 317.6159092 -65.41015625 322.56640625 C-68 324 -68 324 -70 324 C-74.50385281 303.3038266 -74.37224201 282.11904888 -74.31785583 261.03446198 C-74.31242573 258.84505541 -74.31005097 256.65565965 -74.3079834 254.46624756 C-74.27522592 232.1970345 -73.6947486 210.12770305 -71 188 C-70.85014648 186.73285156 -70.70029297 185.46570313 -70.54589844 184.16015625 C-62.97136058 121.82701672 -39.11846863 64.54376607 -7 11 C-6.43506836 10.04963867 -5.87013672 9.09927734 -5.28808594 8.12011719 C-4.74700195 7.21165039 -4.20591797 6.30318359 -3.6484375 5.3671875 C-3.16294434 4.5510498 -2.67745117 3.73491211 -2.17724609 2.89404297 C-1 1 -1 1 0 0 Z " fill="#FF9900" transform="translate(3734,8)"/>
<path d="M0 0 C-0.5180042 7.24124652 -1.85112789 14.02021214 -3.5625 21.0625 C-10.82720862 52.4728119 -15.85543364 84.82702277 -18 117 C-18.09063721 118.3094458 -18.18127441 119.6188916 -18.2746582 120.96801758 C-21.21072979 166.16688727 -19.04536153 210.80095512 -9 255 C-8.84915955 255.66781494 -8.69831909 256.33562988 -8.54290771 257.02368164 C-0.99572151 290.2411601 9.43253972 323.17473394 24 354 C24.70005445 355.49756972 25.39937689 356.99548176 26.09814453 358.49365234 C35.48167571 379.32964454 35.48167571 379.32964454 46.21166992 399.47314453 C47 401 47 401 47 403 C34.57077672 405.38281389 22.1495852 407.34671669 9.5625 408.6875 C8.45229492 408.80649658 7.34208984 408.92549316 6.19824219 409.0480957 C-10.32008234 410.73321751 -26.71867771 411.23900975 -43.3125 411.25 C-44.37314667 411.25100708 -45.43379333 411.25201416 -46.52658081 411.25305176 C-62.89083869 411.24256669 -78.81432695 410.58893405 -95 408 C-96.4545459 407.7831958 -96.4545459 407.7831958 -97.93847656 407.56201172 C-134.170464 402.13622654 -169.01508438 390.81569945 -202 375 C-202.82510071 374.60540588 -203.65020142 374.21081177 -204.50030518 373.80426025 C-248.54524324 352.72376627 -248.54524324 352.72376627 -269 341 C-259.94941598 312.21638119 -248.5594675 284.41872749 -236 257 C-235.25097412 255.34967773 -235.25097412 255.34967773 -234.48681641 253.66601562 C-218.5188582 218.49879199 -201.857485 183.30782793 -179 152 C-178.6076416 151.45891602 -178.2152832 150.91783203 -177.81103516 150.36035156 C-170.06104556 139.71344246 -161.74386338 129.64994342 -152.7734375 120.01953125 C-150.73795327 117.82815403 -148.7745473 115.5858069 -146.82373047 113.31884766 C-143.05643256 109.00777643 -139.09090088 104.92940787 -135.046875 100.87890625 C-134.30600647 100.13470932 -133.56513794 99.39051239 -132.80181885 98.62376404 C-131.24337391 97.06028928 -129.68360128 95.49813691 -128.12255859 93.93725586 C-125.76500227 91.57751616 -123.41556714 89.20989071 -121.06640625 86.84179688 C-114.03882837 79.78851662 -107.07332681 72.86329493 -99.20947266 66.73583984 C-96.91912025 64.93645801 -94.77162163 63.03010771 -92.625 61.0625 C-87.01308786 56.03351535 -81.02457825 51.51579595 -75 47 C-74.29020996 46.46568359 -73.58041992 45.93136719 -72.84912109 45.38085938 C-12.44071429 0 -12.44071429 0 0 0 Z " fill="#FF9900" transform="translate(3641,120)"/>
<path d="M0 0 C49.0519012 -0.60893307 96.22441493 2.25034322 144 14 C145.01416992 14.24411621 146.02833984 14.48823242 147.07324219 14.73974609 C193.38523932 26.00944447 237.21766444 44.98174469 279.125 67.4375 C280.16092285 67.99228027 281.1968457 68.54706055 282.26416016 69.11865234 C301.53087727 79.59263182 301.53087727 79.59263182 303 84 C302.42310437 87.4684446 301.31385409 90.82005187 300.3125 94.1875 C300.0021582 95.23760254 299.69181641 96.28770508 299.37207031 97.36962891 C288.21806147 134.0481356 272.56908864 169.98222556 255.02441406 204.00878906 C254.31059205 205.39628486 253.60200135 206.78647918 252.89746094 208.17871094 C240.19466134 233.27291437 224.61423299 256.12249306 207 278 C206.21882813 278.97582031 205.43765625 279.95164062 204.6328125 280.95703125 C200.35058521 286.25425013 195.93193588 291.39054523 191.3359375 296.41796875 C189.43037878 298.52428031 187.56745668 300.65559891 185.7109375 302.8046875 C182.04161425 307.00500653 178.19540837 310.99689548 174.25 314.9375 C173.5489917 315.63770264 172.8479834 316.33790527 172.12573242 317.05932617 C167.50191183 321.62907939 162.79068566 325.86666533 157.67578125 329.8828125 C155.25171552 331.80083239 152.91090504 333.79137676 150.5793457 335.82006836 C125.13320958 357.85188293 96.00505368 375.13780707 66.3125 390.75 C64.81396484 391.5392688 64.81396484 391.5392688 63.28515625 392.34448242 C62.3621875 392.82377197 61.43921875 393.30306152 60.48828125 393.796875 C59.66884033 394.22323242 58.84939941 394.64958984 58.00512695 395.08886719 C56 396 56 396 54 396 C54.64290986 387.69162637 56.12179513 379.61332546 57.66708374 371.43862915 C64.52576259 334.91279323 69.33638462 297.97725798 73 261 C73.1023999 260.07695068 73.2047998 259.15390137 73.31030273 258.20288086 C76.3680521 227.83143501 75.13208657 196.06833431 70 166 C69.81276367 164.87996582 69.62552734 163.75993164 69.43261719 162.60595703 C63.68501383 129.16761176 52.67928757 97.51198589 38 67 C37.59700684 66.14631836 37.19401367 65.29263672 36.77880859 64.41308594 C27.84164925 45.49740038 16.94846615 27.59090712 5.32446289 10.2121582 C3.11946331 6.88937324 1.41279997 3.7204393 0 0 Z " fill="#FF9900" transform="translate(3875,293)"/>
</svg>
