<?xml version="1.0" encoding="UTF-8"?>
<svg id="Layer_1" data-name="Layer 1" xmlns="http://www.w3.org/2000/svg" viewBox="0 0 1005 360.73">
  <defs>
    <style>
      .cls-1 {
        fill: #f90;
      }

      .cls-1, .cls-2 {
        stroke-width: 0px;
      }

      .cls-2 {
        fill: #000;
      }
    </style>
  </defs>
  <path class="cls-2" d="M81.96,203.66c-27.41,0-38.14,17.15-38.14,61.45s9.53,63.96,33.77,63.96c13.51,0,25.82-5,38.94-16.44v-100.05c-13.11-6.43-23.04-8.93-34.56-8.93h0ZM135.6,357.3c-3.58,0-5.56-2.86-7.95-7.15-1.99-3.22-3.18-7.86-4.37-12.51-21.85,15.37-38.14,21.08-57.21,21.08-39.73,0-63.57-33.58-63.57-90.04,0-35.01,7.95-58.6,23.84-75.03,12.71-12.86,29-20.01,48.87-20.01,13.9,0,25.82,3.22,41.32,11.08v-78.61c0-3.57.8-5,4.37-5.72l28.61-5.36c1.59-.36,2.78-.36,3.97-.36,2.38,0,3.18,1.07,3.18,5v203.31c0,17.87.79,24.66,7.15,34.66,1.19,2.15,3.18,3.93,3.18,5.72,0,1.07-.4,1.79-2.38,2.5l-25.43,10.72c-1.19.72-2.38.72-3.57.72h0Z"/>
  <path class="cls-2" d="M297.48,210.45h-.8c-5.56-1.43-8.34-2.86-14.7-2.86-9.14,0-19.07,5.36-34.96,21.8v118.98c0,4.65-.4,5-5.56,5h-28.61c-4.77,0-5.96-.71-5.96-5v-108.26c0-22.51-1.99-32.87-7.95-44.66-1.19-2.14-3.58-5-3.58-7.15,0-1.43.4-2.5,2.78-3.57l24.23-10c1.19-.36,2.38-.71,3.58-.71,5.17,0,6.75,6.07,9.54,11.43,3.58,6.79,5.56,14.29,5.96,17.15,14.3-14.65,26.62-28.94,49.66-28.94,7.15,0,14.3,1.43,18.67,3.93,1.99,1.07,2.78,2.14,2.78,3.57,0,.71-.4,1.79-.8,2.86l-10.33,22.87c-1.59,2.86-2.38,3.57-3.97,3.57h0Z"/>
  <path class="cls-2" d="M491.56,345.87c0,1.07-.79,2.15-2.78,2.86l-25.43,8.58c-1.19.36-2.38.72-3.18.72-3.58,0-5.56-2.5-7.55-5.72-2.38-3.57-4.37-8.93-5.96-14.65-19.87,15.72-34.96,21.08-56.82,21.08-43.7,0-56.81-22.51-56.81-58.6v-113.98c0-3.57,1.19-4.64,5.17-5.36l27.81-6.07c1.19-.36,2.38-.36,3.58-.36,2.38,0,3.97,1.07,3.97,4.64v112.91c0,27.51,6.36,36.8,26.22,36.8,13.51,0,27.81-5.36,41.32-15.72v-126.84c0-3.57,1.19-4.64,5.17-5.36l27.81-6.07c1.59-.36,3.18-.71,3.97-.71,1.98,0,3.18,1.07,3.18,5v127.92c0,17.51,2.38,26.08,8.74,35.73.8,1.07,1.59,2.15,1.59,3.22h0Z"/>
  <path class="cls-2" d="M604.2,358.02h-23.84c-3.97,0-4.37,0-5.96-3.93l-65.95-166.15c-.79-1.79-1.19-3.22-1.19-4.29,0-1.43,1.19-2.5,4.76-2.86l30.2-4.29h1.98c2.78,0,3.97,1.07,5.17,3.93l34.17,98.97c3.97,11.79,7.15,23.94,10.33,37.52,3.97-16.08,6.36-25.73,10.73-37.16l37.35-99.33c1.19-2.86,2.38-3.93,4.77-3.93,1.19,0,1.98.36,3.57.36l25.43,4.29c3.18.71,4.37,1.43,4.37,2.86,0,1.07-.4,2.14-1.19,4.29l-68.34,165.79c-1.19,3.22-1.99,3.93-6.36,3.93h0Z"/>
  <path class="cls-2" d="M728.37,303.71c0,15.36,11.52,26.8,27.02,26.8,12.32,0,24.23-5.36,37.74-17.15v-42.52c-25.03.36-64.76,1.79-64.76,32.87h0ZM842.8,343.72c0,1.07-.8,2.14-1.99,2.5l-24.24,10.72c-1.59.72-2.78,1.07-3.97,1.07-2.78,0-4.77-2.15-6.76-5.72-2.38-3.93-4.76-9.29-6.75-16.08-17.08,15.36-32.58,21.44-53.64,21.44-34.17,0-56.42-20.01-56.42-51.45,0-53.6,57.21-61.1,104.09-61.45v-11.43c0-21.8-7.94-29.66-31.38-29.66-13.51,0-27.02,3.22-45.69,10.36-1.19.36-2.38.71-3.57.71-1.59,0-2.78-.71-3.57-2.5l-6.36-17.51c-.4-1.07-.79-2.14-.79-3.22,0-4.64,4.77-6.07,7.95-7.15,19.07-7.15,38.14-10.36,56.82-10.36,43.7,0,65.56,16.08,65.56,53.95v70.03c0,20.01,2.38,30.01,9.53,42.16.4,1.07,1.19,2.5,1.19,3.57h0Z"/>
  <path class="cls-1" d="M930.11,70.53c1.45,2.27,2.78,4.32,4.07,6.4,4.65,7.52,8.35,15.46,10.81,23.99,1.69,5.87,2.55,11.85,3.01,17.9.24,3.12.12,6.28.05,9.42-.08,3.19-1.74,20.88-5.14,37.02,3.2-1.69,6.25-3.14,9.14-4.86,6.2-3.68,12.21-8.09,17.58-12.9,6.27-5.63,12.28-13.75,13.81-15.89,4.7-6.59,8.37-13.76,11.61-21.17,2.59-5.95,5-11.97,6.89-18.18.22-.72.37-1.47.56-2.22-22.44-13.59-46.22-20.72-72.39-19.5h0ZM841.47,131.81c.02.35-.04.68.07.94,1.18,2.82,2.26,5.68,3.6,8.42,3.14,6.38,7.02,12.28,11.51,17.82,3.75,4.63,7.9,8.83,12.4,12.7,1,.86,2.04,1.67,3.11,2.43,6.54,4.6,13.49,8.45,20.81,11.67,4.95,2.18,9.96,4.21,15.05,6.06,3.99,1.45,7.97,2.93,12.23,4,.49-.83,1.01-1.6,1.42-2.41,1.5-2.93,2.98-5.86,4.44-8.82,3.01-6.1,5.56-12.39,7.59-18.89,1.95-6.23,3.21-12.59,4.08-19.05.6-3.77,1.06-9.67,1.24-12.19.3-4.38.12-8.79.14-13.19,0-.61,0-1.22,0-2.04-40.78,15.3-70.55,18.65-97.69,12.55h0ZM809.44,110.47c.35.12,3.94,2.13,5.44,2.88,4.45,2.22,8.89,4.45,13.41,6.51,2.77,1.26,5.63,2.35,8.53,3.28,5.76,1.85,11.68,3.11,17.7,3.76,3.01.33,6.06.45,9.09.47,2.72.02,5.43-.22,8.15-.38,2.56-.15,8.04-.69,13.13-1.67-.69-1.31-1.34-2.44-1.9-3.61-1.13-2.35-2.18-4.73-3.33-7.07-2.13-4.33-3.73-8.87-5.24-13.43-1.59-4.79-2.77-9.68-3.8-14.62-.9-4.32-1.2-8.69-1.67-13.04-.34-3.11-.15-6.28-.07-9.42.08-3.11.16-6.24.53-9.32.2-1.7.22-3.41.45-5.09.52-3.8,1.16-7.58,1.84-11.36.46-2.56,1.09-5.08,1.63-7.62.12-.58.18-1.16.3-1.94-4.82,2.63-9.25,5.37-13.51,8.41-5.26,3.76-10.32,7.73-14.9,12.27-3.56,3.53-7.12,7.09-10.34,10.92-4.87,5.79-8.78,12.27-12.22,19.01-2.3,4.5-4.4,9.1-6.48,13.71-1.81,4.04-3.85,8.96-6.76,17.35h0ZM898.08,2.47c6.66,2.17,13.27,4.52,19.69,7.32,8.14,3.55,16.17,7.36,23.52,12.44,4.11,2.84,7.89,6.05,11.4,9.59,5.93,5.97,10.96,12.6,15.28,19.83,3.16,5.28,5.77,10.78,8.09,16.83-31.74-7.34-63.73-7.34-96.65,11.01-1.04-6.37-1.07-14.17-1.04-16.02.06-3.82.16-7.64.47-11.45.32-3.91.72-7.84,1.42-11.7,1.03-5.71,2.7-11.26,4.86-16.67,1.79-4.49,3.89-8.83,6.15-13.09,1.54-2.91,3.29-5.72,4.95-8.57.32,0,1.54.36,1.87.47h0Z"/>
</svg>