<?xml version="1.0" encoding="UTF-8"?>
<svg xmlns="http://www.w3.org/2000/svg" width="75px" height="75px" viewBox="0 0 75 75" role="img" aria-label="EDC logo">
  <rect width="75" height="75" fill="#ffffff"/>
  <path d="M 40.972 47.917 L 40.972 48.264 L 43.056 48.264 L 43.056 47.917 Z M 40.972 46.528 L 40.972 46.875 L 43.056 46.875 L 43.056 46.528 Z M 62.153 43.056 L 62.153 45.139 L 61.458 45.833 L 60.764 45.833 L 60.764 46.528 L 61.458 46.528 L 61.806 46.875 L 61.806 47.917 L 61.458 48.264 L 61.458 48.958 L 61.111 49.306 L 61.111 50.000 L 60.417 51.042 L 60.417 51.736 L 60.764 51.736 L 61.458 50.694 L 61.806 50.694 L 62.153 51.042 L 62.153 55.556 L 63.194 55.556 L 63.194 50.694 L 63.542 50.347 L 63.889 50.347 L 64.931 51.042 L 64.931 52.083 L 64.583 52.431 L 64.236 52.431 L 64.236 53.125 L 64.583 53.125 L 64.931 53.472 L 64.931 55.208 L 65.278 55.556 L 65.972 55.556 L 65.972 53.472 L 66.319 53.125 L 70.486 53.125 L 70.833 53.472 L 70.833 53.819 L 70.139 54.514 L 69.097 54.514 L 69.097 55.208 L 69.444 55.556 L 70.833 55.556 L 71.181 55.208 L 71.528 55.208 L 71.528 53.472 L 71.875 53.125 L 72.222 53.125 L 72.222 52.778 L 72.569 52.431 L 72.222 52.431 L 71.528 51.736 L 71.528 48.958 L 69.444 48.958 L 69.097 48.611 L 69.097 48.264 L 69.444 47.917 L 72.222 47.917 L 72.222 47.222 L 70.833 47.222 L 70.486 46.875 L 70.486 46.528 L 70.833 46.181 L 71.528 46.181 L 71.528 45.486 L 70.833 45.486 L 70.486 45.139 L 70.486 44.792 L 70.833 44.444 L 71.875 44.444 L 71.875 43.750 L 70.833 43.750 L 70.486 43.403 L 70.486 43.056 L 69.444 43.056 L 69.444 43.403 L 69.097 43.750 L 67.708 43.750 L 67.361 43.403 L 67.361 43.056 L 66.319 43.056 L 66.319 43.403 L 65.972 43.750 L 64.931 43.750 L 64.931 44.444 L 65.972 44.444 L 66.319 44.792 L 66.319 45.139 L 65.972 45.486 L 64.931 45.486 L 64.583 45.833 L 63.542 45.833 L 63.194 45.486 L 63.194 43.056 Z M 68.750 51.736 L 69.097 51.389 L 70.486 51.389 L 70.833 51.736 L 70.833 52.083 L 70.486 52.431 L 69.097 52.431 L 68.750 52.083 Z M 65.972 51.736 L 66.319 51.389 L 67.361 51.389 L 67.708 51.736 L 67.708 52.083 L 67.361 52.431 L 66.319 52.431 L 65.972 52.083 Z M 68.750 50.000 L 69.097 49.653 L 70.486 49.653 L 70.833 50.000 L 70.833 50.347 L 70.486 50.694 L 69.097 50.694 L 68.750 50.347 Z M 65.972 50.000 L 66.319 49.653 L 67.361 49.653 L 67.708 50.000 L 67.708 50.347 L 67.361 50.694 L 66.319 50.694 L 65.972 50.347 Z M 63.194 46.875 L 63.542 46.528 L 64.236 46.528 L 64.583 46.875 L 64.583 47.917 L 67.361 47.917 L 67.708 48.264 L 67.708 48.611 L 67.361 48.958 L 64.931 48.958 L 64.583 49.306 L 64.236 49.306 L 63.542 48.264 L 63.542 47.569 L 63.194 47.222 Z M 67.361 46.528 L 67.708 46.181 L 69.097 46.181 L 69.444 46.528 L 69.444 46.875 L 69.097 47.222 L 67.708 47.222 L 67.361 46.875 Z M 64.583 46.528 L 64.931 46.181 L 65.972 46.181 L 66.319 46.528 L 66.319 46.875 L 65.972 47.222 L 64.931 47.222 L 64.583 46.875 Z M 67.361 44.792 L 67.708 44.444 L 69.097 44.444 L 69.444 44.792 L 69.444 45.139 L 69.097 45.486 L 67.708 45.486 L 67.361 45.139 Z M 47.222 44.097 L 47.222 45.139 L 48.611 45.139 L 48.958 45.486 L 48.958 45.833 L 48.611 46.181 L 48.264 47.222 L 47.569 47.917 L 47.222 47.917 L 47.222 48.611 L 47.569 48.958 L 47.917 48.958 L 49.653 47.222 L 49.653 46.875 L 50.000 46.528 L 50.000 45.833 L 50.694 45.139 L 51.389 45.139 L 51.736 45.486 L 51.736 46.875 L 51.389 47.222 L 51.389 47.917 L 51.042 48.264 L 50.000 48.264 L 50.000 48.958 L 52.431 48.958 L 52.778 49.306 L 52.778 49.653 L 52.431 50.000 L 47.222 50.000 L 47.222 51.042 L 50.000 51.042 L 50.347 51.389 L 50.347 51.736 L 48.611 53.472 L 48.264 53.472 L 47.222 54.167 L 47.222 54.861 L 48.264 54.861 L 48.611 54.514 L 49.653 54.167 L 50.347 53.472 L 50.694 53.472 L 51.736 52.431 L 51.736 52.083 L 52.083 51.736 L 52.431 51.736 L 52.778 52.083 L 52.778 55.556 L 53.819 55.556 L 53.819 52.083 L 54.167 51.736 L 54.514 51.736 L 54.861 52.083 L 54.861 52.431 L 55.903 53.472 L 56.250 53.472 L 56.944 54.167 L 57.292 54.167 L 58.333 54.861 L 59.375 54.861 L 59.375 54.167 L 59.028 53.819 L 57.986 53.472 L 56.250 51.736 L 56.250 51.389 L 56.597 51.042 L 59.375 51.042 L 59.375 50.000 L 54.167 50.000 L 53.819 49.653 L 53.819 48.958 L 54.167 48.611 L 58.681 48.611 L 59.028 48.264 L 59.028 43.750 L 54.167 43.750 L 54.167 48.611 L 53.819 48.958 L 52.778 48.958 L 52.431 48.611 L 52.431 48.264 L 52.778 47.917 L 52.778 44.792 L 53.125 44.444 L 52.778 44.097 L 50.694 44.097 L 50.347 43.750 L 50.347 43.056 L 48.958 43.056 L 48.958 43.750 L 48.611 44.097 Z M 55.208 45.139 L 55.556 44.792 L 57.292 44.792 L 57.639 45.139 L 57.639 47.222 L 57.292 47.569 L 55.556 47.569 L 55.208 47.222 Z M 34.722 43.056 L 34.722 43.750 L 38.542 43.750 L 38.889 44.097 L 38.889 44.792 L 38.542 45.139 L 33.681 45.139 L 33.681 48.264 L 34.722 48.264 L 34.722 46.181 L 35.417 45.486 L 38.542 45.486 L 38.889 45.833 L 38.889 46.181 L 38.542 46.528 L 35.764 46.528 L 35.764 46.875 L 38.542 46.875 L 38.889 47.222 L 38.889 47.569 L 38.542 47.917 L 35.764 47.917 L 35.764 48.264 L 38.542 48.264 L 38.889 48.611 L 38.889 48.958 L 38.194 49.653 L 37.847 49.653 L 37.500 49.306 L 35.417 49.306 L 35.069 49.653 L 34.722 49.653 L 34.722 50.694 L 34.375 51.042 L 33.333 51.042 L 33.333 51.736 L 36.458 51.736 L 36.806 52.083 L 36.806 52.431 L 35.417 53.819 L 34.028 53.819 L 33.681 54.167 L 34.028 55.208 L 37.847 55.208 L 38.194 54.861 L 40.278 54.861 L 40.625 54.514 L 42.014 54.514 L 42.361 54.167 L 43.403 54.167 L 44.097 55.208 L 44.792 55.208 L 45.139 54.861 L 45.486 54.861 L 45.139 54.514 L 45.139 54.167 L 44.097 53.125 L 43.750 53.125 L 43.056 52.431 L 43.056 52.083 L 43.403 51.736 L 45.833 51.736 L 45.833 51.042 L 44.792 51.042 L 44.444 50.694 L 44.444 49.653 L 41.667 49.653 L 41.319 49.306 L 40.278 49.306 L 39.931 49.653 L 39.583 49.653 L 39.236 49.306 L 39.236 48.958 L 39.583 48.611 L 39.931 48.611 L 39.931 45.833 L 40.278 45.486 L 43.750 45.486 L 44.097 45.833 L 44.097 48.264 L 45.486 48.264 L 45.486 45.139 L 40.625 45.139 L 39.931 44.444 L 39.931 44.097 L 40.278 43.750 L 44.444 43.750 L 44.444 43.403 L 44.097 43.056 Z M 37.847 53.472 L 37.847 52.778 L 38.889 51.736 L 41.667 51.736 L 42.361 52.778 L 42.361 53.125 L 42.014 53.472 L 41.319 53.472 L 40.972 53.819 L 38.194 53.819 Z M 19.097 43.750 L 19.097 44.444 L 21.181 44.444 L 21.528 44.792 L 21.528 48.264 L 21.181 48.611 L 19.097 48.611 L 19.097 49.653 L 20.486 49.653 L 20.833 50.000 L 20.833 50.347 L 19.097 52.083 L 18.750 52.083 L 19.097 53.125 L 19.444 52.778 L 19.792 52.778 L 20.139 53.125 L 20.139 53.472 L 19.097 54.167 L 19.097 55.208 L 20.833 54.167 L 21.528 54.167 L 21.875 54.514 L 21.875 55.208 L 22.222 55.556 L 28.819 55.556 L 29.514 54.861 L 29.514 54.514 L 29.861 54.167 L 29.861 52.778 L 30.208 52.431 L 30.556 52.431 L 30.903 52.778 L 31.597 52.778 L 31.597 51.736 L 31.250 51.736 L 29.861 50.347 L 29.861 50.000 L 30.208 49.653 L 31.597 49.653 L 31.597 48.611 L 29.514 48.611 L 29.167 48.264 L 29.167 44.792 L 29.514 44.444 L 31.250 44.444 L 31.250 43.750 L 29.514 43.750 L 28.819 42.708 L 28.472 43.056 L 27.778 43.056 L 27.778 43.403 L 27.431 43.750 L 22.917 43.750 L 22.569 43.403 L 22.569 42.708 L 22.222 43.056 L 21.528 43.056 L 20.833 43.750 Z M 23.264 53.472 L 23.958 52.778 L 27.778 52.778 L 28.125 53.125 L 28.125 54.167 L 27.778 54.514 L 23.611 54.514 L 23.264 54.167 Z M 23.611 51.389 L 23.958 51.042 L 28.819 51.042 L 29.167 51.389 L 29.167 51.736 L 28.819 52.083 L 23.958 52.083 L 23.611 51.736 Z M 25.000 49.653 L 25.347 49.306 L 27.083 49.306 L 27.431 49.653 L 27.431 50.000 L 27.083 50.347 L 25.347 50.347 L 25.000 50.000 Z M 23.264 49.653 L 23.611 49.306 L 24.653 49.306 L 25.000 49.653 L 25.000 50.000 L 24.653 50.347 L 23.611 50.347 L 23.264 50.000 Z M 22.569 47.917 L 22.917 47.569 L 27.431 47.569 L 27.778 47.917 L 27.778 48.264 L 27.431 48.611 L 22.917 48.611 L 22.569 48.264 Z M 22.917 46.528 L 23.264 46.181 L 27.083 46.181 L 27.431 46.528 L 27.431 46.875 L 27.083 47.222 L 23.264 47.222 L 22.917 46.875 Z M 22.569 44.792 L 22.917 44.444 L 27.431 44.444 L 27.778 44.792 L 27.778 45.139 L 27.431 45.486 L 22.917 45.486 L 22.569 45.139 Z M 5.556 44.097 L 5.556 46.528 L 6.944 46.528 L 6.944 45.486 L 7.292 45.139 L 8.333 45.139 L 8.681 45.486 L 8.681 47.222 L 8.333 47.569 L 4.861 47.569 L 4.861 48.264 L 7.986 48.264 L 8.333 48.611 L 8.333 49.306 L 7.986 49.653 L 7.986 50.347 L 7.639 50.694 L 7.639 51.042 L 6.944 51.736 L 6.944 52.083 L 5.208 53.819 L 4.861 53.819 L 4.861 54.514 L 5.208 54.861 L 5.556 54.514 L 5.903 54.514 L 6.250 54.167 L 7.292 53.819 L 7.639 54.167 L 7.639 55.556 L 8.333 55.556 L 8.681 55.208 L 11.806 55.208 L 12.153 54.861 L 13.542 54.861 L 13.889 54.514 L 14.931 54.514 L 15.278 54.167 L 15.625 54.167 L 15.972 54.514 L 15.972 55.208 L 16.319 55.556 L 16.667 55.556 L 17.014 55.208 L 17.708 55.208 L 17.708 54.861 L 17.361 54.514 L 17.014 53.472 L 16.319 52.778 L 16.319 52.431 L 15.278 51.389 L 15.278 51.042 L 14.236 51.042 L 14.236 51.389 L 14.931 52.431 L 14.931 53.125 L 14.583 53.472 L 13.542 53.472 L 13.194 53.819 L 11.458 53.819 L 11.111 53.472 L 11.111 52.778 L 11.458 52.431 L 11.458 52.083 L 12.500 50.347 L 12.500 49.653 L 12.847 49.306 L 12.847 48.611 L 13.194 48.264 L 17.708 48.264 L 17.708 47.569 L 10.417 47.569 L 10.069 47.222 L 10.069 46.181 L 10.764 45.139 L 15.278 45.139 L 15.625 45.486 L 15.625 46.528 L 17.014 46.528 L 17.014 44.097 L 12.500 44.097 L 12.153 43.750 L 12.153 43.056 L 11.806 42.708 L 10.764 42.708 L 10.417 43.056 L 10.417 43.750 L 10.069 44.097 Z M 11.111 48.264 L 11.458 48.611 L 11.458 48.958 L 11.111 49.306 L 11.111 50.347 L 10.764 50.694 L 10.764 51.042 L 10.417 51.389 L 10.417 51.736 L 10.069 52.083 L 9.722 53.125 L 8.681 54.167 L 7.639 54.167 L 7.292 53.819 L 7.292 53.472 L 8.333 52.431 L 8.333 52.083 L 9.028 51.389 L 9.028 51.042 L 9.375 50.694 L 9.375 50.000 L 9.722 49.653 L 9.722 48.611 L 10.069 48.264 Z M 63.542 32.639 L 62.500 33.681 L 62.500 34.028 L 62.153 34.375 L 62.153 35.764 L 62.500 36.111 L 62.500 36.458 L 63.542 37.500 L 63.889 37.500 L 64.236 37.847 L 65.278 37.847 L 65.625 37.500 L 66.667 37.153 L 66.667 36.806 L 67.361 36.111 L 67.361 34.375 L 67.014 34.028 L 67.014 33.681 L 65.972 32.639 Z M 13.542 20.139 L 13.194 20.486 L 11.806 20.486 L 11.458 20.833 L 10.764 20.833 L 10.417 21.181 L 9.375 21.528 L 8.681 22.222 L 8.333 22.222 L 7.292 23.264 L 7.292 23.611 L 5.903 25.347 L 5.903 26.042 L 5.556 26.389 L 5.556 27.083 L 5.208 27.431 L 5.208 31.250 L 5.556 31.597 L 5.556 32.292 L 5.903 32.639 L 5.903 32.986 L 6.250 33.333 L 6.597 34.375 L 7.292 35.069 L 7.292 35.417 L 8.333 36.458 L 8.681 36.458 L 9.375 37.153 L 9.722 37.153 L 11.458 38.194 L 12.500 38.194 L 12.847 38.542 L 16.319 38.542 L 16.667 38.194 L 17.361 38.194 L 17.708 37.847 L 18.056 37.847 L 18.403 37.500 L 19.444 37.153 L 20.139 36.458 L 20.486 36.458 L 21.528 35.417 L 21.528 35.069 L 22.222 34.375 L 22.222 34.028 L 23.264 32.292 L 23.264 31.597 L 23.611 31.250 L 23.611 28.819 L 22.917 28.125 L 22.917 21.181 L 15.972 21.181 L 18.056 23.264 L 18.056 23.611 L 12.847 28.819 L 14.931 30.903 L 15.278 30.903 L 18.750 27.431 L 18.750 27.083 L 20.139 25.694 L 20.486 25.694 L 22.569 27.778 L 22.569 28.125 L 22.222 28.472 L 20.833 28.472 L 20.833 29.861 L 20.486 30.208 L 20.486 31.250 L 20.139 31.597 L 19.792 32.639 L 17.708 34.722 L 17.361 34.722 L 16.319 35.417 L 15.278 35.417 L 14.931 35.764 L 13.889 35.764 L 13.542 35.417 L 12.500 35.417 L 12.153 35.069 L 11.111 34.722 L 10.417 34.028 L 10.069 34.028 L 8.681 32.292 L 8.681 31.944 L 8.333 31.597 L 8.333 30.556 L 7.986 30.208 L 7.986 28.472 L 8.333 28.125 L 8.333 27.431 L 8.681 27.083 L 9.028 26.042 L 11.111 23.958 L 11.458 23.958 L 12.500 23.264 L 14.931 23.264 L 14.931 20.139 Z M 25.000 37.153 L 37.500 37.153 L 37.847 36.806 L 38.542 36.806 L 38.889 36.458 L 39.583 36.458 L 40.278 35.764 L 41.319 35.417 L 43.750 32.986 L 43.750 32.639 L 44.097 32.292 L 44.444 32.292 L 47.569 35.417 L 47.917 35.417 L 48.264 35.764 L 48.611 35.764 L 50.347 36.806 L 51.042 36.806 L 51.389 37.153 L 59.028 37.153 L 59.028 36.806 L 59.722 35.764 L 59.722 35.069 L 60.069 34.722 L 60.069 34.028 L 60.417 33.681 L 60.417 33.333 L 60.764 32.986 L 60.764 32.292 L 61.111 31.944 L 53.472 31.944 L 53.125 31.597 L 52.083 31.597 L 51.736 31.250 L 50.694 30.903 L 49.306 29.514 L 49.306 29.167 L 48.611 28.125 L 48.611 27.083 L 48.264 26.736 L 48.264 25.694 L 48.611 25.347 L 48.611 24.306 L 48.958 23.958 L 48.958 23.611 L 51.389 21.181 L 52.083 21.181 L 52.431 20.833 L 67.014 20.833 L 67.014 20.486 L 67.361 20.139 L 67.361 19.444 L 67.708 19.097 L 67.708 18.403 L 68.056 18.056 L 68.056 17.361 L 68.403 17.014 L 68.403 16.319 L 68.750 15.972 L 68.750 15.278 L 51.736 15.278 L 51.389 15.625 L 50.694 15.625 L 50.347 15.972 L 49.653 15.972 L 49.306 16.319 L 48.264 16.667 L 47.222 17.708 L 46.875 17.708 L 45.139 19.444 L 45.139 19.792 L 44.792 20.139 L 44.097 20.139 L 43.750 19.792 L 43.750 19.444 L 41.667 17.361 L 41.319 17.361 L 40.625 16.667 L 40.278 16.667 L 38.542 15.625 L 37.500 15.625 L 37.153 15.278 L 25.000 15.278 L 25.000 20.833 L 36.806 20.833 L 37.153 21.181 L 37.500 21.181 L 38.194 21.875 L 38.542 21.875 L 39.236 22.569 L 39.236 22.917 L 39.931 23.611 L 39.931 23.958 L 40.278 24.306 L 40.278 25.347 L 40.625 25.694 L 40.625 26.736 L 40.278 27.083 L 40.278 28.125 L 39.931 28.472 L 39.583 29.514 L 38.194 30.903 L 37.847 30.903 L 36.806 31.597 L 35.764 31.597 L 35.417 31.944 L 30.903 31.944 L 30.556 31.597 L 30.556 23.611 L 25.000 23.611 Z" fill="#71B02B" fill-rule="evenodd"/>
</svg>
