<?xml version="1.0" encoding="UTF-8"?>
<svg id="d74eb791-e4e9-4aad-b69b-cf1642b2ccfc" xmlns="http://www.w3.org/2000/svg" version="1.1" viewBox="0 0 256 256">
  <!-- Generator: Adobe Illustrator 29.5.1, SVG Export Plug-In . SVG Version: 2.1.0 Build 141)  -->
  <path d="M45.8,177.9h10.4v5.7h.2c3.4-4.8,8.1-6.7,13.8-6.7,10,0,14.3,7,14.3,16.5v26.6h-10.9v-22.5c0-5.1,0-12.1-7.1-12.1s-9.6,8.6-9.6,14v20.6h-10.9v-42.1Z"/>
  <path d="M121.7,215.2h-.2c-3.3,4.1-7.8,5.7-12.9,5.7-12.9,0-17.6-10.6-17.6-22.1s4.7-21.9,17.6-21.9,9.3,1.9,12.6,5.9h.2v-24.1h10.9v61.3h-10.6v-4.7ZM111.6,212.4c7.3,0,9.6-7.7,9.6-13.6s-2.8-13.4-9.8-13.4-9.1,7.8-9.1,13.4,2,13.6,9.2,13.6Z"/>
  <path d="M143.4,180.1c4.3-2,10-3.2,14.6-3.2,12.8,0,18.1,5.3,18.1,17.7v5.4c0,4.2,0,7.4.2,10.5,0,3.2.2,6.1.5,9.4h-9.6c-.4-2.2-.4-5-.5-6.3h-.2c-2.5,4.7-8,7.3-13,7.3-7.4,0-14.7-4.5-14.7-12.5s3-10,7.2-12c4.2-2,9.6-2.5,14.1-2.5h6c0-6.8-3-9.1-9.5-9.1s-9.3,1.8-13,4.6l-.3-9.4ZM156.2,212.9c3.3,0,6-1.5,7.7-3.8,1.8-2.4,2.3-5.4,2.3-8.7h-4.7c-4.9,0-12.2.8-12.2,7.3s3,5.1,6.9,5.1Z"/>
  <path d="M212.2,187c-2-.9-4.1-1.6-7.4-1.6-6.8,0-11.1,5.4-11.1,13.3s3.7,13.7,11.4,13.7,6.5-1.1,8.4-2l.5,9.1c-3.2,1-6.4,1.4-10.9,1.4-13.8,0-20.7-9.4-20.7-22.2s7.2-21.8,20.3-21.8,7.6.5,10.6,1.4l-1,8.7Z"/>
  <path d="M252.9,217.6c-4,2.2-8.6,3.4-14.5,3.4-13.9,0-22-8-22-21.8s6.5-22.2,19.5-22.2,20,10.7,20,25.4h-29.1c.5,6.8,5.2,10.6,12,10.6s9.9-2,14-4.2v8.9ZM245.5,194.8c-.3-5.3-2.8-9.9-8.9-9.9s-9.2,4.2-9.7,9.9h18.6Z"/>
  <path d="M36.4,217.6c-4,2.2-8.6,3.4-14.5,3.4-13.9,0-22-8-22-21.8s6.5-22.2,19.5-22.2,20,10.7,20,25.4H10.5c.5,6.8,5.2,10.6,12,10.6s9.9-2,14-4.2v8.9ZM29.1,194.8c-.3-5.3-2.8-9.9-8.9-9.9s-9.2,4.2-9.7,9.9h18.6Z"/>
  <path d="M223.2,75.6c-25.4-26.1-59.4-40.5-95.9-40.5s-.2,0-.3,0-.1,0-.2,0c-.2,0-.4,0-.5,0-36,.3-69.7,14.6-94.8,40.5l11.9,11.6c13.2-13.6,29-23.5,46.4-29.3-3.5,7.4-5.2,16-5.2,25.3,0,29.9,17.5,47.2,47.5,47.2s22.6-2.5,31.3-7.2v-19.3c-8.8,4.9-18.7,9.2-30.2,9.2s-24.9-8.3-26-23h62.9c0-12.3-1.5-23.3-5.2-32.1,17.3,5.9,33.2,15.8,46.4,29.3l11.9-11.6ZM107.1,73.7c1.1-12.2,7.8-21.4,21-21.4s18.5,9.9,19.2,21.4h-40.3Z"/>
</svg>