<?xml version="1.0" encoding="UTF-8"?>
<!DOCTYPE svg PUBLIC "-//W3C//DTD SVG 1.1//EN" "http://www.w3.org/Graphics/SVG/1.1/DTD/svg11.dtd">
<svg xmlns="http://www.w3.org/2000/svg" version="1.1" width="225px" height="225px">
    <g>
        <path fill="#fefefe" d="M -0.5,-0.5 C 74.5,-0.5 149.5,-0.5 224.5,-0.5C 224.5,74.5 224.5,149.5 224.5,224.5C 149.5,224.5 74.5,224.5 -0.5,224.5C -0.5,149.5 -0.5,74.5 -0.5,-0.5 Z"/>
    </g>
    <g>
        <path fill="#762b8a" d="M 112.5,6.5 C 143.112,23.9394 173.612,41.6061 204,59.5C 204.833,94.838 204.667,130.171 203.5,165.5C 173.399,182.967 143.232,200.3 113,217.5C 82.7678,200.3 52.6012,182.967 22.5,165.5C 21.3334,130.171 21.1668,94.838 22,59.5C 52.3118,41.9329 82.4785,24.2663 112.5,6.5 Z"/>
    </g>
    <g>
        <path fill="#fcfafc" d="M 112.5,23.5 C 138.275,37.8901 163.941,52.5567 189.5,67.5C 190.667,97.1611 190.833,126.828 190,156.5C 164.581,171.583 138.914,186.249 113,200.5C 87.5192,186.093 62.1858,171.426 37,156.5C 36.3333,126.833 36.3333,97.1667 37,67.5C 62.3356,52.9699 87.5023,38.3032 112.5,23.5 Z"/>
    </g>
    <g>
        <path fill="#c6198d" d="M 168.5,72.5 C 168.44,73.0431 168.107,73.3764 167.5,73.5C 131.373,72.8395 95.3726,72.1729 59.5,71.5C 77.4726,61.1785 95.4726,50.8451 113.5,40.5C 131.851,51.1942 150.184,61.8609 168.5,72.5 Z"/>
    </g>
    <g>
        <path fill="#bb198c" d="M 59.5,71.5 C 95.3726,72.1729 131.373,72.8395 167.5,73.5C 168.107,73.3764 168.44,73.0431 168.5,72.5C 170.795,73.4746 172.795,74.8079 174.5,76.5C 174.5,79.5 174.5,82.5 174.5,85.5C 133.428,85.1727 92.4276,85.5061 51.5,86.5C 49.7428,78.8701 52.4095,73.8701 59.5,71.5 Z"/>
    </g>
    <g>
        <path fill="#b21c8c" d="M 174.5,76.5 C 175.811,80.6829 175.811,85.0162 174.5,89.5C 171.423,91.705 168.09,93.3716 164.5,94.5C 133.303,95.1557 102.137,95.8224 71,96.5C 64.9242,95.5236 58.7576,95.1903 52.5,95.5C 52.7845,93.5853 52.4511,91.9187 51.5,90.5C 51.5,89.1667 51.5,87.8333 51.5,86.5C 92.4276,85.5061 133.428,85.1727 174.5,85.5C 174.5,82.5 174.5,79.5 174.5,76.5 Z"/>
    </g>
    <g>
        <path fill="#a71d8c" d="M 51.5,90.5 C 52.4511,91.9187 52.7845,93.5853 52.5,95.5C 58.7576,95.1903 64.9242,95.5236 71,96.5C 102.137,95.8224 133.303,95.1557 164.5,94.5C 158.201,98.9885 151.534,102.988 144.5,106.5C 113.573,105.508 82.5735,105.175 51.5,105.5C 51.5,100.5 51.5,95.5 51.5,90.5 Z"/>
    </g>
    <g>
        <path fill="#9c208b" d="M 51.5,105.5 C 82.5735,105.175 113.573,105.508 144.5,106.5C 139.033,110.071 133.367,113.404 127.5,116.5C 126.596,117.209 126.263,118.209 126.5,119.5C 101.833,119.5 77.1667,119.5 52.5,119.5C 52.5,122.833 52.5,126.167 52.5,129.5C 52.1667,129.5 51.8333,129.5 51.5,129.5C 51.5,121.5 51.5,113.5 51.5,105.5 Z"/>
    </g>
    <g>
        <path fill="#91248b" d="M 145.5,135.5 C 144.262,135.19 144.262,134.69 145.5,134C 114.502,133.5 83.5018,133.333 52.5,133.5C 52.5,132.167 52.5,130.833 52.5,129.5C 52.5,126.167 52.5,122.833 52.5,119.5C 77.1667,119.5 101.833,119.5 126.5,119.5C 126.263,118.209 126.596,117.209 127.5,116.5C 127.334,121.511 127.501,126.511 128,131.5C 143.254,122.121 158.754,113.121 174.5,104.5C 175.662,109.131 175.828,113.798 175,118.5C 165.221,124.305 155.388,129.971 145.5,135.5 Z"/>
    </g>
    <g>
        <path fill="#85268a" d="M 51.5,129.5 C 51.8333,129.5 52.1667,129.5 52.5,129.5C 52.5,130.833 52.5,132.167 52.5,133.5C 83.5018,133.333 114.502,133.5 145.5,134C 144.262,134.69 144.262,135.19 145.5,135.5C 141.113,138.531 136.446,141.197 131.5,143.5C 105.241,142.51 78.9076,142.176 52.5,142.5C 52.3253,144.621 52.6586,146.621 53.5,148.5C 51.5437,142.588 50.8771,136.255 51.5,129.5 Z"/>
    </g>
    <g>
        <path fill="#782a8a" d="M 53.5,148.5 C 52.6586,146.621 52.3253,144.621 52.5,142.5C 78.9076,142.176 105.241,142.51 131.5,143.5C 130.739,144.391 129.739,145.058 128.5,145.5C 127.167,150.5 127.167,155.5 128.5,160.5C 144.246,151.879 159.746,142.879 175,133.5C 175.829,138.533 175.662,143.533 174.5,148.5C 154.228,160.553 133.728,172.22 113,183.5C 92.8729,172.192 73.0396,160.525 53.5,148.5 Z"/>
    </g>
</svg>