<?xml version="1.0" encoding="UTF-8"?>
<!DOCTYPE svg PUBLIC "-//W3C//DTD SVG 1.1//EN" "http://www.w3.org/Graphics/SVG/1.1/DTD/svg11.dtd">
<svg xmlns="http://www.w3.org/2000/svg" version="1.1" width="500px" height="500px" style="shape-rendering:geometricPrecision; text-rendering:geometricPrecision; image-rendering:optimizeQuality; fill-rule:evenodd; clip-rule:evenodd" xmlns:xlink="http://www.w3.org/1999/xlink">
<g><path style="opacity:1" fill="#fffefe" d="M -0.5,-0.5 C 166.167,-0.5 332.833,-0.5 499.5,-0.5C 499.5,118.167 499.5,236.833 499.5,355.5C 335.5,355.5 171.5,355.5 7.5,355.5C 7.22854,404.056 12.2285,452.056 22.5,499.5C 14.8333,499.5 7.16667,499.5 -0.5,499.5C -0.5,332.833 -0.5,166.167 -0.5,-0.5 Z"/></g>
<g><path style="opacity:1" fill="#e63020" d="M 499.5,355.5 C 499.5,388.5 499.5,421.5 499.5,454.5C 371.167,454.5 242.833,454.5 114.5,454.5C 117.512,469.573 120.845,484.573 124.5,499.5C 90.5,499.5 56.5,499.5 22.5,499.5C 12.2285,452.056 7.22854,404.056 7.5,355.5C 171.5,355.5 335.5,355.5 499.5,355.5 Z"/></g>
<g><path style="opacity:1" fill="#fefefe" d="M 499.5,454.5 C 499.5,469.5 499.5,484.5 499.5,499.5C 374.5,499.5 249.5,499.5 124.5,499.5C 120.845,484.573 117.512,469.573 114.5,454.5C 242.833,454.5 371.167,454.5 499.5,454.5 Z"/></g>
</svg>
