<?xml version="1.0" encoding="UTF-8"?>
<svg xmlns="http://www.w3.org/2000/svg" version="1.1" width="500px" height="500px" >
<g><path fill="#fefefe" d="M -0.5,-0.5 C 166.167,-0.5 332.833,-0.5 499.5,-0.5C 499.5,166.167 499.5,332.833 499.5,499.5C 332.833,499.5 166.167,499.5 -0.5,499.5C -0.5,332.833 -0.5,166.167 -0.5,-0.5 Z"/></g>
<g><path fill="#f5aca6" d="M 7.5,138.5 C 169.001,137.167 330.667,137.167 492.5,138.5C 492.376,139.107 492.043,139.44 491.5,139.5C 330.334,138.5 169.001,138.167 7.5,138.5 Z"/></g>
<g><path fill="#e63020" d="M 7.5,138.5 C 169.001,138.167 330.334,138.5 491.5,139.5C 476.833,157.5 462.167,175.5 447.5,193.5C 320.833,193.5 194.167,193.5 67.5,193.5C 67.2627,194.791 67.596,195.791 68.5,196.5C 70.6925,207.604 73.3592,218.604 76.5,229.5C 173.5,230.167 270.5,230.833 367.5,231.5C 353.046,249.792 338.38,267.959 323.5,286C 249.167,286.333 174.833,286.667 100.5,287C 107.319,299.494 114.986,311.328 123.5,322.5C 163.167,323.167 202.833,323.833 242.5,324.5C 228.295,342.394 213.962,360.228 199.5,378C 164.829,378.833 130.162,378.667 95.5,377.5C 37.3553,308.76 8.02198,229.094 7.5,138.5 Z"/></g>
<g><path fill="#eb594d" d="M 447.5,193.5 C 320.997,193.834 194.663,194.834 68.5,196.5C 67.596,195.791 67.2627,194.791 67.5,193.5C 194.167,193.5 320.833,193.5 447.5,193.5 Z"/></g>
<g><path fill="#fbe2e0" d="M 76.5,229.5 C 173.836,229.167 271.169,229.5 368.5,230.5C 368.376,231.107 368.043,231.44 367.5,231.5C 270.5,230.833 173.5,230.167 76.5,229.5 Z"/></g>
<g><path fill="#e94c3e" d="M 123.5,322.5 C 163.506,322.167 203.506,322.5 243.5,323.5C 243.376,324.107 243.043,324.44 242.5,324.5C 202.833,323.833 163.167,323.167 123.5,322.5 Z"/></g>
</svg>
