<?xml version="1.0"?>
<svg width="500" height="500" xmlns="http://www.w3.org/2000/svg" xmlns:svg="http://www.w3.org/2000/svg" xmlns:xlink="http://www.w3.org/1999/xlink" version="1.1">
 <defs>
  <symbol height="37mm" id="svg_5" version="1.1" viewBox="0 0 75 37" width="75mm" xmlns="http://www.w3.org/2000/svg" xmlns:svg="http://www.w3.org/2000/svg">
   <g id="svg_2" transform="translate(-5.0000001,-23.912)">
    <path class="st0" d="m73,32.59l7,-8.68l-66.32,0l-2.32,0l-6.35,0c0,0.14 -0.01,0.27 -0.01,0.41c0,12.78 4.44,25.27 12.49,35.17l1.31,1.6l15.82,0l7,-8.67l-18.65,0c-1.32,-1.78 -2.51,-3.64 -3.57,-5.58l34.45,0l7,-8.68l-45.1,0c-0.56,-1.83 -1.01,-3.69 -1.35,-5.57l58.6,0z" fill="#E63020" id="svg_3" stroke-width="0.26"/>
   </g>
  </symbol>
 </defs>
 <g class="layer">
   <rect fill="#ffffff" height="500" id="svg_7" width="500" x="0" y="0"/>
 </g>
 <g class="layer">
  <title>Logo</title>
  <use fill="#441a17" id="svg_6" transform="matrix(1.71225 0 0 1.71225 -844.186 -723.958)" x="497.48" xlink:href="#svg_5" y="503.78"/>
 </g>
</svg>