<?xml version="1.0" standalone="no"?>
<!DOCTYPE svg PUBLIC "-//W3C//DTD SVG 20010904//EN" "http://www.w3.org/TR/2001/REC-SVG-20010904/DTD/svg10.dtd">
<svg xmlns="http://www.w3.org/2000/svg" width="689.000000pt" height="349.000000pt" viewBox="0 0 689.000000 349.000000" preserveAspectRatio="xMidYMid meet">
    <g transform="translate(0.000000,349.000000) scale(0.100000,-0.100000)" fill="#000000" stroke="none">
        <path d="M5903 2854 c-46 -23 -69 -76 -54 -126 13 -42 58 -78 99 -78 55 0 112 56 112 110 0 37 -30 81 -65 96 -43 18 -52 17 -92 -2z m115 -40 c31 -36 29 -79 -7 -115 -69 -68 -177 3 -140 93 25 60 103 72 147 22z"/>
        <path d="M5910 2760 c0 -27 5 -50 10 -50 6 0 10 9 10 20 0 11 4 20 10 20 5 0 15 -9 22 -20 7 -11 19 -20 27 -20 11 0 10 4 -2 24 -11 16 -13 26 -5 34 20 20 1 42 -37 42 l-35 0 0 -50z m56 29 c3 -6 0 -15 -7 -20 -22 -14 -29 -11 -29 11 0 21 24 27 36 9z"/>
        <path d="M1280 2730 c-133 -35 -234 -92 -331 -189 -95 -96 -131 -157 -172 -301 -76 -261 -76 -746 -1 -1010 41 -142 77 -205 173 -301 70 -70 103 -94 178 -132 180 -89 -26 -82 2323 -82 2348 0 2123 -8 2310 83 132 64 239 170 299 293 80 166 118 422 108 719 -10 269 -39 423 -109 569 -72 150 -223 277 -403 339 l-80 27 -2110 2 c-2060 2 -2112 2 -2185 -17z m2280 -995 l0 -845 -1087 2 -1088 3 -75 29 c-302 115 -420 344 -420 811 0 412 100 650 320 764 162 84 88 80 1288 80 l1062 1 0 -845z m913 474 c178 -38 243 -139 254 -391 l6 -128 -318 0 -317 0 7 -67 c13 -128 49 -163 170 -163 98 0 155 35 155 95 0 13 25 15 150 15 l150 0 0 -38 c0 -58 -26 -133 -61 -175 -65 -78 -169 -107 -394 -107 -208 0 -298 23 -373 94 -76 71 -102 171 -102 396 0 359 73 455 365 484 62 6 250 -3 308 -15z m1197 -104 l0 -115 -110 0 -110 0 0 -370 0 -370 -160 0 -160 0 0 370 0 370 -110 0 -110 0 0 115 0 115 380 0 380 0 0 -115z"/>
        <path d="M1573 2196 c-154 -35 -224 -108 -252 -262 -16 -86 -14 -347 4 -422 49 -207 170 -270 498 -259 198 6 253 22 322 92 51 50 66 83 80 173 l7 42 -144 0 -144 0 -10 -37 c-15 -58 -48 -76 -146 -77 -144 -2 -178 29 -186 167 l-5 77 318 0 318 0 -7 102 c-10 138 -21 193 -54 258 -32 64 -91 113 -165 136 -72 23 -348 29 -434 10z m309 -197 c27 -15 48 -64 48 -114 l0 -45 -166 0 -167 0 6 57 c7 67 35 102 94 114 44 9 160 1 185 -12z"/>
        <path d="M2650 2197 c-86 -19 -141 -57 -174 -118 -24 -43 -30 -67 -34 -144 -7 -143 23 -210 113 -251 71 -33 139 -44 321 -52 181 -9 193 -15 202 -100 4 -44 1 -54 -21 -76 -25 -25 -31 -26 -136 -26 -64 0 -121 5 -136 12 -27 12 -55 54 -55 83 0 13 -21 15 -146 15 l-147 0 6 -57 c12 -116 76 -188 192 -218 71 -18 369 -21 461 -4 185 34 273 144 262 329 -11 191 -91 240 -415 254 -152 7 -198 17 -213 46 -12 22 -13 90 -2 107 14 23 64 33 156 33 99 0 137 -15 151 -60 6 -19 16 -20 141 -20 l134 0 0 44 c0 89 -47 151 -139 188 -50 19 -78 22 -261 24 -137 2 -223 -1 -260 -9z"/>
        <path d="M4220 2013 c-76 -13 -101 -40 -114 -120 l-6 -43 165 0 165 0 -6 43 c-9 56 -30 96 -57 106 -30 11 -116 20 -147 14z"/>
    </g>
</svg>