<?xml version="1.0" encoding="UTF-8" standalone="no"?>
<!DOCTYPE svg PUBLIC "-//W3C//DTD SVG 1.1//EN" "http://www.w3.org/Graphics/SVG/1.1/DTD/svg11.dtd">
<svg width="100%" height="100%" viewBox="0 0 1333 1061" version="1.1" xmlns="http://www.w3.org/2000/svg" xml:space="preserve" xmlns:serif="http://www.serif.com/" style="fill-rule:evenodd;clip-rule:evenodd;stroke-linejoin:round;stroke-miterlimit:2;">
    <g id="Falcon-Force-Logo--no-text---CMYK" serif:id="Falcon Force Logo -no text - CMYK" transform="matrix(1.33333,0,0,-1.33333,0,1297.33)">
        <g id="g12">
            <g id="g14">
                <g id="g20" transform="matrix(1,0,0,1,549.981,625.593)">
                    <path id="path22" d="M0,0C-7.27,-9.875 -15.802,-17.761 -27.186,-22.404L-51.279,-88.479L-51.279,-103.828L-30.402,-118.557L18.094,-54.893L0,0Z" style="fill:rgb(10,128,153);fill-rule:nonzero;"/>
                </g>
                <g id="g24" transform="matrix(1,0,0,1,962.872,933.013)">
                    <path id="path26" d="M0,0L-121.217,-70.007L-150.229,-215.213L0,0Z" style="fill:rgb(25,186,170);fill-rule:nonzero;"/>
                </g>
                <g id="g28" transform="matrix(1,0,0,1,519.579,507.036)">
                    <path id="path30" d="M0,0L44.109,-31.121L69.573,-0.277L48.496,63.665L0,0Z" style="fill:rgb(12,122,153);fill-rule:nonzero;"/>
                </g>
                <g id="g32" transform="matrix(1,0,0,1,563.688,475.915)">
                    <path id="path34" d="M0,0L46.428,-32.757L25.464,30.843L0,0Z" style="fill:rgb(10,128,153);fill-rule:nonzero;"/>
                </g>
                <g id="g36" transform="matrix(1,0,0,1,610.4,443.516)">
                    <path id="path38" d="M0,0L89.415,112.091L80.917,108.745L89.6,113.019L111.871,224.488L23.454,117.391L0,0Z" style="fill:rgb(10,128,153);fill-rule:nonzero;"/>
                </g>
                <g id="g40" transform="matrix(1,0,0,1,750.742,810.5)">
                    <path id="path42" d="M0,0L-90.848,-119.261L-116.888,-249.594L-28.471,-142.497L-32.617,-144.308L-28.369,-141.988L0,0Z" style="fill:rgb(18,133,153);fill-rule:nonzero;"/>
                </g>
                <g id="g44" transform="matrix(1,0,0,1,633.855,560.906)">
                    <path id="path46" d="M0,0L-44.702,-54.148L-23.738,-117.748L-23.454,-117.391L0,0Z" style="fill:rgb(12,122,153);fill-rule:nonzero;"/>
                </g>
                <g id="g48" transform="matrix(1,0,0,1,812.644,717.8)">
                    <path id="path50" d="M0,0L29.012,145.206L-61.901,92.7L0,0Z" style="fill:rgb(24,179,168);fill-rule:nonzero;"/>
                </g>
                <g id="g52" transform="matrix(1,0,0,1,722.373,668.512)">
                    <path id="path54" d="M0,0L90.271,49.288L28.369,141.988L0,0Z" style="fill:rgb(17,156,158);fill-rule:nonzero;"/>
                </g>
                <g id="g56" transform="matrix(1,0,0,1,933.004,783.517)">
                    <path id="path58" d="M0,0L29.868,149.496L-120.36,-65.717L0,0Z" style="fill:rgb(88,194,173);fill-rule:nonzero;"/>
                </g>
                <g id="g60" transform="matrix(1,0,0,1,610.249,442.756)">
                    <path id="path62" d="M0,0L-0.133,0.402L-0.211,-1.053L0,0Z" style="fill:rgb(128,198,166);fill-rule:nonzero;"/>
                </g>
                <g id="g64" transform="matrix(1,0,0,1,387.288,443.158)">
                    <path id="path66" d="M0,0L-0.37,-1.123L0.216,-4.058L0,0Z" style="fill:rgb(128,198,166);fill-rule:nonzero;"/>
                </g>
                <g id="g68" transform="matrix(1,0,0,1,387.504,439.101)">
                    <path id="path70" d="M0,0L5.323,-100.015L61.604,-44.691L-0.216,4.058L0,0Z" style="fill:rgb(80,75,159);fill-rule:nonzero;"/>
                </g>
                <g id="g72" transform="matrix(1,0,0,1,184.68,718.249)">
                    <path id="path74" d="M0,0L89.833,-49.049L61.602,92.251L0,0Z" style="fill:rgb(65,111,182);fill-rule:nonzero;"/>
                </g>
                <g id="g76" transform="matrix(1,0,0,1,208.195,600.812)">
                    <path id="path78" d="M0,0L88.705,-43.665L66.556,67.191L0,0Z" style="fill:rgb(65,111,182);fill-rule:nonzero;"/>
                </g>
                <g id="g80" transform="matrix(1,0,0,1,64.3101,783.971)">
                    <path id="path82" d="M0,0L119.378,-65.181L-29.625,148.277L0,0Z" style="fill:rgb(75,175,227);fill-rule:nonzero;"/>
                </g>
                <g id="g84" transform="matrix(1,0,0,1,89.2012,659.387)">
                    <path id="path86" d="M0,0L117.766,-57.97L-19.552,97.862L0,0Z" style="fill:rgb(75,175,227);fill-rule:nonzero;"/>
                </g>
                <g id="g88" transform="matrix(1,0,0,1,386.622,443.516)">
                    <path id="path90" d="M0,0L-23.454,117.391L-111.871,224.488L-89.722,113.632L-79.794,108.745L-89.51,112.571L-89.414,112.091L0,0Z" style="fill:rgb(68,94,167);fill-rule:nonzero;"/>
                </g>
                <g id="g92" transform="matrix(1,0,0,1,429.214,570.351)">
                    <path id="path94" d="M0,0L18.209,55.242C5.713,72.219 -3.113,95.024 -16.454,117.194C-37.217,142.779 -64.769,170.357 -107.178,196.427L-92.086,120.888L0,0Z" style="fill:rgb(67,99,167);fill-rule:nonzero;"/>
                </g>
                <g id="g96" transform="matrix(1,0,0,1,408.144,506.428)">
                    <path id="path98" d="M0,0L-20.855,-63.27L25.331,-30.683L0,0Z" style="fill:rgb(68,94,167);fill-rule:nonzero;"/>
                </g>
                <g id="g100" transform="matrix(1,0,0,1,408.144,506.428)">
                    <path id="path102" d="M0,0L25.331,-30.683L69.434,0.433L21.07,63.922L0,0Z" style="fill:rgb(67,88,167);fill-rule:nonzero;"/>
                </g>
                <g id="g104" transform="matrix(1,0,0,1,589.152,506.758)">
                    <path id="path106" d="M0,0L44.702,54.148L70.742,184.48L-21.077,63.942L0,0Z" style="fill:rgb(10,128,153);fill-rule:nonzero;"/>
                </g>
                <g id="g108" transform="matrix(1,0,0,1,474.609,603.189)">
                    <path id="path110" d="M0,0C-11.385,4.643 -19.917,12.529 -27.186,22.404L-45.395,-32.838L2.968,-96.328L24.093,-81.424L24.093,-66.075L0,0Z" style="fill:rgb(68,94,167);fill-rule:nonzero;"/>
                </g>
                <g id="g112" transform="matrix(1,0,0,1,363.168,560.906)">
                    <path id="path114" d="M0,0L-26.04,130.333L-116.887,249.594L-88.656,108.293L-83.147,105.286L-88.524,107.635L-88.417,107.097L0,0Z" style="fill:rgb(67,99,167);fill-rule:nonzero;"/>
                </g>
                <g id="g116" transform="matrix(1,0,0,1,337.128,691.239)">
                    <path id="path118" d="M0,0L26.04,-130.333L71.016,-184.811L92.086,-120.888L0,0Z" style="fill:rgb(68,94,167);fill-rule:nonzero;"/>
                </g>
                <g id="g120" transform="matrix(1,0,0,1,363.168,560.906)">
                    <path id="path122" d="M0,0L23.454,-117.391L23.557,-117.521L24.12,-117.748L44.976,-54.478L0,0Z" style="fill:rgb(67,88,167);fill-rule:nonzero;"/>
                </g>
                <g id="g124" transform="matrix(1,0,0,1,568.075,570.7)">
                    <path id="path126" d="M0,0L91.819,120.539L106.859,195.812C64.698,169.824 37.266,142.349 16.573,116.853C3.23,94.68 -5.597,71.872 -18.094,54.893L0,0Z" style="fill:rgb(18,133,153);fill-rule:nonzero;"/>
                </g>
                <g id="g128" transform="matrix(1,0,0,1,387.504,439.101)">
                    <path id="path130" d="M0,0L-0.586,2.935L-53.618,-157.951L5.323,-100.015L0,0Z" style="fill:rgb(120,101,172);fill-rule:nonzero;"/>
                </g>
                <g id="g132" transform="matrix(1,0,0,1,386.641,443.42)">
                    <path id="path134" d="M0,0L0.084,-0.034L-0.019,0.096L0,0Z" style="fill:rgb(128,198,166);fill-rule:nonzero;"/>
                </g>
                <g id="g136" transform="matrix(1,0,0,1,397.326,254.532)">
                    <path id="path138" d="M0,0L51.782,139.877L-4.5,84.554L0,0Z" style="fill:rgb(120,101,172);fill-rule:nonzero;"/>
                </g>
                <g id="g140" transform="matrix(1,0,0,1,333.886,281.149)">
                    <path id="path142" d="M0,0L-0.25,-0.758L63.44,-26.617L58.941,57.937L0,0Z" style="fill:rgb(151,122,183);fill-rule:nonzero;"/>
                </g>
                <g id="g144" transform="matrix(1,0,0,1,604.578,339.086)">
                    <path id="path146" d="M0,0L5.46,102.617L5.538,104.072L-56.282,55.323L0,0Z" style="fill:rgb(80,75,159);fill-rule:nonzero;"/>
                </g>
                <g id="g148" transform="matrix(1,0,0,1,610.4,443.516)">
                    <path id="path150" d="M0,0L-0.052,-0.264L72.855,29.212L89.415,112.091L0,0Z" style="fill:rgb(12,122,153);fill-rule:nonzero;"/>
                </g>
                <g id="g152" transform="matrix(1,0,0,1,683.256,472.728)">
                    <path id="path154" d="M0,0L87.489,35.37L16.56,82.879L0,0Z" style="fill:rgb(17,156,158);fill-rule:nonzero;"/>
                </g>
                <g id="g156" transform="matrix(1,0,0,1,604.578,339.086)">
                    <path id="path158" d="M0,0L58.94,-57.937L5.671,103.67L5.46,102.617L0,0Z" style="fill:rgb(120,101,172);fill-rule:nonzero;"/>
                </g>
                <g id="g160" transform="matrix(1,0,0,1,610.116,443.158)">
                    <path id="path162" d="M0,0L0.232,0.094L0.284,0.357L0,0Z" style="fill:rgb(128,198,166);fill-rule:nonzero;"/>
                </g>
                <g id="g164" transform="matrix(1,0,0,1,600.078,254.532)">
                    <path id="path166" d="M0,0L63.69,25.859L63.44,26.617L4.5,84.554L0,0Z" style="fill:rgb(151,122,183);fill-rule:nonzero;"/>
                </g>
                <g id="g168" transform="matrix(1,0,0,1,548.296,394.409)">
                    <path id="path170" d="M0,0L51.782,-139.877L56.282,-55.323L0,0Z" style="fill:rgb(120,101,172);fill-rule:nonzero;"/>
                </g>
                <g id="g172" transform="matrix(1,0,0,1,789.195,600.44)">
                    <path id="path174" d="M0,0L-66.924,67.563L-89.195,-43.906L0,0Z" style="fill:rgb(17,156,158);fill-rule:nonzero;"/>
                </g>
                <g id="g176" transform="matrix(1,0,0,1,337.128,691.239)">
                    <path id="path178" d="M0,0L-15.092,75.539C-18.307,77.515 -21.591,79.483 -24.979,81.44L-90.896,119.51L-181.81,172.016L-152.886,27.249L-152.448,27.01L-90.847,119.261L0,0Z" style="fill:rgb(64,120,182);fill-rule:nonzero;"/>
                </g>
                <g id="g180" transform="matrix(1,0,0,1,789.195,600.44)">
                    <path id="path182" d="M0,0L118.927,58.542L138.672,157.368L0,0Z" style="fill:rgb(88,194,173);fill-rule:nonzero;"/>
                </g>
                <g id="g184" transform="matrix(1,0,0,1,770.745,508.097)">
                    <path id="path186" d="M0,0L16.36,81.884L-70.93,47.509L0,0Z" style="fill:rgb(24,179,168);fill-rule:nonzero;"/>
                </g>
                <g id="g188" transform="matrix(1,0,0,1,750.742,810.5)">
                    <path id="path190" d="M0,0L-65.486,-37.821C-69.026,-39.865 -72.458,-41.922 -75.808,-43.987L-90.848,-119.261L0,0Z" style="fill:rgb(17,156,158);fill-rule:nonzero;"/>
                </g>
                <g id="g192" transform="matrix(1,0,0,1,789.195,600.44)">
                    <path id="path194" d="M0,0L21.188,106.051L-66.924,67.563L0,0Z" style="fill:rgb(24,179,168);fill-rule:nonzero;"/>
                </g>
                <g id="g196" transform="matrix(1,0,0,1,927.867,757.808)">
                    <path id="path198" d="M0,0L-117.483,-51.317L-138.672,-157.368L0,0Z" style="fill:rgb(25,186,170);fill-rule:nonzero;"/>
                </g>
                <g id="g200" transform="matrix(1,0,0,1,274.644,668.541)">
                    <path id="path202" d="M0,0L-88.112,38.488L-66.939,-67.487L-66.449,-67.729L0.107,-0.538L0,0Z" style="fill:rgb(64,120,182);fill-rule:nonzero;"/>
                </g>
                <g id="g204" transform="matrix(1,0,0,1,297.112,556.086)">
                    <path id="path206" d="M0,0L-87.291,34.375L-70.868,-47.821L-70.691,-47.893L0.096,-0.48L0,0Z" style="fill:rgb(64,120,182);fill-rule:nonzero;"/>
                </g>
                <g id="g208" transform="matrix(1,0,0,1,226.421,508.193)">
                    <path id="path210" d="M0,0L87.313,-35.298L70.787,47.413L0,0Z" style="fill:rgb(65,111,182);fill-rule:nonzero;"/>
                </g>
                <g id="g212" transform="matrix(1,0,0,1,69.4663,758.163)">
                    <path id="path214" d="M0,0L0.183,-0.915L137.501,-156.747L138.239,-157.109L117.065,-51.134L0,0Z" style="fill:rgb(75,146,206);fill-rule:nonzero;"/>
                </g>
                <g id="g216" transform="matrix(1,0,0,1,34.5317,933.013)">
                    <path id="path218" d="M0,0L0.153,-0.765L149.156,-214.223L149.71,-214.525L120.787,-69.758L0,0Z" style="fill:rgb(75,146,206);fill-rule:nonzero;"/>
                </g>
                <g id="g220" transform="matrix(1,0,0,1,297.208,555.606)">
                    <path id="path222" d="M0,0L16.525,-82.711L89.433,-112.187L89.414,-112.091L0,0Z" style="fill:rgb(67,88,167);fill-rule:nonzero;"/>
                </g>
                <g id="g224" transform="matrix(1,0,0,1,477.577,506.861)">
                    <path id="path226" d="M0,0L-90.289,-63.703L-28.469,-112.452L21.125,14.904L0,0Z" style="fill:rgb(74,74,153);fill-rule:nonzero;"/>
                </g>
                <g id="g228" transform="matrix(1,0,0,1,449.108,394.409)">
                    <path id="path230" d="M0,0L49.594,48.749L99.188,0L49.594,127.356L0,0Z" style="fill:rgb(66,71,135);fill-rule:nonzero;"/>
                </g>
                <g id="g232" transform="matrix(1,0,0,1,498.702,521.765)">
                    <path id="path234" d="M0,0L49.594,-127.356L111.414,-78.607L20.877,-14.729L0,0Z" style="fill:rgb(74,74,153);fill-rule:nonzero;"/>
                </g>
                <g id="g236" transform="matrix(1,0,0,1,570.77,242.633)">
                    <path id="path238" d="M0,0L-22.475,151.776L-72.068,145.516L0,0Z" style="fill:rgb(120,101,172);fill-rule:nonzero;"/>
                </g>
                <g id="g240" transform="matrix(1,0,0,1,449.108,394.409)">
                    <path id="path242" d="M0,0L-22.475,-151.776L49.594,-6.261L0,0Z" style="fill:rgb(120,101,172);fill-rule:nonzero;"/>
                </g>
                <g id="g244" transform="matrix(1,0,0,1,449.108,394.409)">
                    <path id="path246" d="M0,0L49.594,-6.261L99.188,0L49.594,48.749L0,0Z" style="fill:rgb(80,75,159);fill-rule:nonzero;"/>
                </g>
                <g id="g248" transform="matrix(1,0,0,1,426.633,242.633)">
                    <path id="path250" d="M0,0L72.069,33.178L144.137,0L72.069,145.516L0,0Z" style="fill:rgb(151,122,183);fill-rule:nonzero;"/>
                </g>
                <g id="g252" transform="matrix(1,0,0,1,426.633,242.633)">
                    <path id="path254" d="M0,0L72.069,-29.261L144.137,0L72.069,33.178L0,0Z" style="fill:rgb(157,129,187);fill-rule:nonzero;"/>
                </g>
            </g>
        </g>
    </g>
</svg>
