<svg width="60px" height="60px" viewBox="0 0 60 60" version="1.1" xmlns="http://www.w3.org/2000/svg">
    <rect fill="#2BB24C" x="0" y="0" width="60" height="60"/>
    <path d="M34.7120173,48.2041146 L31.9202094,50.9956021 C31.7158061,51.2019368 31.4330483,51.328125 31.11963,51.328125 L28.7349253,51.328125 C28.4487607,51.328125 28.1898499,51.2223998 27.9888534,51.0501699 L25.1459447,48.1989989 C24.7098844,47.7641612 24.7098844,47.047958 25.1459447,46.611415 L29.1318083,42.6194345 C29.5695719,42.1794811 30.2866867,42.1794811 30.7210436,42.6194345 L34.7120173,46.6131203 C35.1480776,47.047958 35.1480776,47.7658665 34.7120173,48.2041146 L34.7120173,48.2041146 Z M34.7120173,31.4500743 L23.555006,42.622845 C23.3506027,42.8274745 23.0678448,42.9502522 22.7578332,42.9502522 L20.3663151,42.9502522 C20.0835572,42.9502522 19.8212397,42.8479375 19.6219465,42.6757077 L16.7807412,39.8262419 C16.3446809,39.3879937 16.3446809,38.6734957 16.7807412,38.2352475 L29.1318083,25.8653943 C29.5695719,25.4305566 30.2866867,25.4305566 30.7244503,25.8653943 L34.7120173,29.8641957 C35.1480776,30.3007387 35.1480776,31.0135314 34.7120173,31.4500743 L34.7120173,31.4500743 Z M34.7120173,14.7011498 L15.1898025,34.2449723 C14.9836959,34.451307 14.6992347,34.57579 14.3909264,34.57579 L11.9994083,34.57579 C11.7166504,34.57579 11.4560363,34.4700647 11.2601498,34.2995401 L8.41042768,31.4483691 C7.97777411,31.0135314 7.97777411,30.2973282 8.41042768,29.8624905 L29.1318083,9.1164697 C29.5695719,8.67992677 30.28328,8.67992677 30.7210436,9.1164697 L34.7120173,13.1118607 C35.1480776,13.5484036 35.1480776,14.2663121 34.7120173,14.7011498 L34.7120173,14.7011498 Z" fill="#FFFFFF"/>
</svg>