<?xml version="1.0" encoding="UTF-8"?>
<svg id="Layer_1" xmlns="http://www.w3.org/2000/svg" version="1.1" viewBox="0 0 360 360">
  <!-- Generator: Adobe Illustrator 30.2.1, SVG Export Plug-In . SVG Version: 2.1.1 Build 1)  -->
  <defs>
    <style>
      .st0 {
        fill: url(#linear-gradient2);
      }

      .st1 {
        fill: url(#linear-gradient1);
      }

      .st2 {
        fill: url(#linear-gradient3);
      }

      .st3 {
        fill: url(#linear-gradient4);
      }

      .st4 {
        fill: #98dbfc;
      }

      .st5 {
        fill: url(#linear-gradient);
      }

      .st6 {
        fill: #fff;
      }
    </style>
    <linearGradient id="linear-gradient" x1="94.2" y1="-436.9" x2="185.6" y2="-138.8" gradientTransform="translate(0 -76.6) scale(1 -1)" gradientUnits="userSpaceOnUse">
      <stop offset=".3" stop-color="#12c3ff"/>
      <stop offset=".4" stop-color="#11befe"/>
      <stop offset=".5" stop-color="#10b0fe"/>
      <stop offset=".6" stop-color="#0d98fe"/>
      <stop offset=".8" stop-color="#0a77fe"/>
      <stop offset=".9" stop-color="#064dfe"/>
      <stop offset="1" stop-color="#001afe"/>
      <stop offset="1" stop-color="#0012fe"/>
    </linearGradient>
    <linearGradient id="linear-gradient1" x1="108.7" y1="-437.4" x2="254.5" y2="-163.1" gradientTransform="translate(0 -76.6) scale(1 -1)" gradientUnits="userSpaceOnUse">
      <stop offset=".3" stop-color="#2bccfd"/>
      <stop offset=".5" stop-color="#1f95fd"/>
      <stop offset="1" stop-color="#010cfd"/>
      <stop offset="1" stop-color="#0005fe"/>
    </linearGradient>
    <linearGradient id="linear-gradient2" x1="-56.4" y1="103.2" x2="354.5" y2="194.1" gradientTransform="translate(0 113.9)" gradientUnits="userSpaceOnUse">
      <stop offset=".5" stop-color="#2bccfd"/>
      <stop offset=".5" stop-color="#2ac6fd"/>
      <stop offset=".6" stop-color="#2492fd"/>
      <stop offset=".7" stop-color="#1f65fd"/>
      <stop offset=".7" stop-color="#1b41fd"/>
      <stop offset=".8" stop-color="#1824fd"/>
      <stop offset=".8" stop-color="#1510fd"/>
      <stop offset=".9" stop-color="#1404fd"/>
      <stop offset="1" stop-color="#1400fe"/>
    </linearGradient>
    <linearGradient id="linear-gradient3" x1="107.1" y1="-401.7" x2="43.6" y2="-357.2" gradientTransform="translate(0 -76.6) scale(1 -1)" gradientUnits="userSpaceOnUse">
      <stop offset="0" stop-color="#02ccfe"/>
      <stop offset="1" stop-color="#0094fe"/>
    </linearGradient>
    <linearGradient id="linear-gradient4" x1="93.3" y1="55.5" x2="100.6" y2="58.7" gradientTransform="translate(0 113.9)" gradientUnits="userSpaceOnUse">
      <stop offset="0" stop-color="#02f" stop-opacity=".6"/>
      <stop offset="1" stop-color="#0022b4" stop-opacity="0"/>
    </linearGradient>
  </defs>
  <g id="EMBLEM">
    <g id="SEGMENTS">
      <path class="st5" d="M180.7,294.5L179.7.8c-6.8.1-13.5,3.7-16.6,11l-97.7,226.5,113.9,56.9,1.3-.6h0Z"/>
      <path class="st1" d="M294.4,237.7L196.8,11.7c-3.2-7.4-10.1-11.1-16.9-11l.9,293.7,113.6-56.8h0Z"/>
      <path class="st0" d="M334.6,330.9l-23-53.2-17.2-39.9-113.7,56.8v1.2h.1c5.7.1,11.5,1.4,16.8,4l67.2,32.8,45,22c15.3,7.6,31.6-8,24.9-23.6Z"/>
      <path class="st2" d="M50.4,354.6l112.1-54.9c4.9-2.4,10.2-3.7,15.5-4l1.4-.7-113.9-56.9-40,92.8c-6.7,15.6,9.6,31.2,24.9,23.7Z"/>
    </g>
    <path id="LINES" class="st4" d="M174.4,296.1c1.2-.2,2.4-.3,3.6-.4h2.9c1.3,0,2.7.1,4,.3l111.2-54.2-1.8-4.1-112.4,54.8V.9c-.8-.1-1.5-.1-2.2-.1s-1.6.1-2.4.2v291.6l-111.8-54.5h-.1c0,.1-1.7,4.1-1.7,4.1l110.7,53.8h0Z"/>
  </g>
  <g id="INNER_SHADOW">
    <path class="st3" d="M31.4,345.2L171.8,17.4c4.4-10.2,12.3-14.8,21.2-11.3-8.6-8.7-24.5-6.9-29.8,5.6L25.1,331.7c-1.9,5.7-1.7,9.1,2,16.1,1.9,3.6,4-1.7,4.3-2.6h0Z"/>
  </g>
  <g id="INNER_BEVEL">
    <path class="st6" d="M309.6,354.6l-112.1-55.9c-11-5.4-24-5.4-35.1,0l-112,55.9c-12.5,6.1-28.6-6.4-26.1-20.1-3.4,13.2,12.9,29.5,26.1,23.1l112.1-55.9c11-5.4,24-5.4,35.1,0l112.1,55.9c13.2,6.5,27.2-7.3,26.4-20.4-.7,12.1-13.9,23.4-26.5,17.3h0Z"/>
  </g>
</svg>
