<?xml version="1.0" standalone="no"?>
<!DOCTYPE svg PUBLIC "-//W3C//DTD SVG 20010904//EN"
 "http://www.w3.org/TR/2001/REC-SVG-20010904/DTD/svg10.dtd">
<svg version="1.0" xmlns="http://www.w3.org/2000/svg"
 width="392.000000pt" height="97.000000pt" viewBox="0 0 392.000000 97.000000"
 preserveAspectRatio="xMidYMid meet">

<g transform="translate(0.000000,97.000000) scale(0.100000,-0.100000)"
fill="#000000" stroke="none">
<path d="M950 657 c-25 -13 -25 -13 -28 -175 l-2 -162 30 0 30 0 0 70 0 70 65
0 65 0 0 30 c0 29 -1 29 -62 32 -61 3 -63 4 -66 31 -5 46 12 57 89 57 l69 0 0
30 0 30 -82 0 c-47 0 -94 -6 -108 -13z"/>
<path d="M1233 654 c-45 -22 -63 -67 -63 -158 0 -135 40 -183 147 -174 64 6
98 33 114 92 15 55 6 169 -15 202 -33 50 -121 68 -183 38z m111 -57 c38 -28
44 -160 8 -199 -20 -24 -67 -23 -92 2 -16 16 -20 33 -20 95 0 62 4 79 20 95
23 23 58 26 84 7z"/>
<path d="M1540 663 c-35 -13 -40 -35 -40 -190 l0 -153 35 0 35 0 0 66 c0 62 1
65 23 62 16 -2 32 -21 55 -65 32 -61 34 -63 73 -63 l39 0 -37 70 c-36 66 -37
71 -20 81 11 6 25 26 33 45 24 57 -3 124 -58 143 -32 11 -112 14 -138 4z m121
-72 c20 -16 22 -23 14 -47 -9 -26 -16 -29 -58 -32 l-47 -3 0 44 c0 24 3 47 7
50 13 14 61 7 84 -12z"/>
<path d="M1820 650 c-18 -18 -20 -33 -20 -149 0 -172 2 -175 134 -179 l96 -4
0 31 0 30 -77 3 -78 3 -3 43 -3 42 55 0 c56 0 56 0 56 30 0 30 -1 30 -55 30
l-55 0 0 40 0 40 80 0 80 0 0 30 0 30 -95 0 c-82 0 -98 -3 -115 -20z"/>
<path d="M2134 656 c-68 -30 -85 -106 -36 -155 21 -21 41 -30 85 -35 40 -5 60
-13 67 -26 13 -24 13 -26 -6 -44 -24 -24 -71 -20 -100 9 -15 15 -36 25 -54 25
-24 0 -27 -3 -23 -22 22 -91 165 -119 232 -47 21 23 28 79 15 114 -9 22 -50
42 -107 50 -45 7 -77 26 -77 45 0 15 43 40 67 40 13 0 32 -9 43 -20 24 -24 70
-27 70 -4 0 65 -98 104 -176 70z"/>
<path d="M2453 660 c-69 -16 -93 -59 -93 -165 0 -93 18 -137 65 -159 84 -40
177 5 187 89 3 26 -1 30 -23 33 -22 3 -30 -3 -45 -35 -14 -29 -26 -39 -47 -41
-40 -5 -64 21 -71 76 -9 73 5 125 36 140 33 15 73 2 83 -27 4 -15 15 -21 36
-21 25 0 29 4 29 26 0 31 -50 84 -78 84 -11 0 -26 2 -34 4 -7 2 -28 0 -45 -4z"/>
<path d="M2723 656 c-46 -21 -65 -57 -70 -134 -10 -131 27 -192 120 -200 112
-9 151 42 145 190 -3 82 -5 90 -33 118 -37 37 -111 49 -162 26z m108 -65 c21
-17 24 -27 24 -94 0 -85 -18 -117 -65 -117 -54 0 -65 20 -65 115 0 74 3 89 19
101 27 19 59 18 87 -5z"/>
<path d="M2977 663 c-14 -13 -7 -233 7 -268 29 -69 126 -96 194 -55 51 32 63
72 60 208 l-3 117 -32 3 -33 3 0 -125 c0 -113 -2 -128 -20 -146 -26 -26 -64
-26 -90 0 -18 18 -20 33 -20 145 l0 125 -28 0 c-16 0 -32 -3 -35 -7z"/>
<path d="M3280 635 c0 -35 0 -35 45 -35 l45 0 0 -140 0 -140 35 0 35 0 0 139
0 140 43 3 c39 3 42 5 45 36 l3 32 -125 0 -126 0 0 -35z"/>
<path d="M3485 350 c2 -29 12 -34 20 -11 4 13 11 19 18 15 7 -4 9 -3 4 1 -16
18 -44 15 -42 -5z"/>
<path d="M3510 329 c0 -5 5 -7 10 -4 6 3 10 8 10 11 0 2 -4 4 -10 4 -5 0 -10
-5 -10 -11z"/>
</g>
</svg>
