<svg version="1.1" id="Layer_1" xmlns="http://www.w3.org/2000/svg" xmlns:xlink="http://www.w3.org/1999/xlink" x="0px" y="0px"
	 width="100%" viewBox="0 0 392 97" enable-background="new 0 0 392 97" xml:space="preserve">
<path fill="#FDFEFE" opacity="1.000000" stroke="none" 
	d="
M289.000000,98.000000 
	C192.666672,98.000000 96.833359,98.000000 1.000026,98.000000 
	C1.000017,65.666679 1.000017,33.333363 1.000009,1.000034 
	C131.666641,1.000023 262.333282,1.000023 392.999939,1.000011 
	C392.999939,33.333298 392.999939,65.666595 392.999969,97.999947 
	C358.500000,98.000000 324.000000,98.000000 289.000000,98.000000 
M158.001694,31.228619 
	C154.155792,31.543705 151.011841,32.873856 150.955307,37.338806 
	C150.835861,46.775585 150.918945,56.214931 150.918945,65.687302 
	C153.371368,65.687302 155.407425,65.687302 157.855804,65.687302 
	C157.855804,61.433868 157.855804,57.508965 157.855804,53.673584 
	C164.076248,51.901192 164.398773,57.152409 165.749939,60.115086 
	C168.004532,65.058685 170.890137,67.506691 176.721603,65.499718 
	C174.401123,61.184288 172.072220,56.853172 169.681519,52.407150 
	C170.285156,51.885765 170.753723,51.436867 171.266174,51.045391 
	C175.510574,47.802906 176.559921,43.525894 175.034775,38.610546 
	C173.511383,33.700802 169.758820,31.573217 164.858185,31.246233 
	C162.870483,31.113607 160.867325,31.212889 158.001694,31.228619 
M266.783569,56.415634 
	C269.004791,64.049347 273.265472,66.758423 281.826843,65.980606 
	C288.593323,65.365852 292.392090,61.549911 292.994873,54.180656 
	C293.319214,50.215813 293.360474,46.159286 292.910797,42.214661 
	C292.101807,35.118088 287.669373,31.397894 280.433044,31.119375 
	C272.596558,30.817753 267.912384,33.906830 266.769806,41.216900 
	C266.037262,45.903542 266.606628,50.793678 266.783569,56.415634 
M143.190262,37.590347 
	C140.003128,31.284201 134.336060,30.639633 128.296417,31.331821 
	C122.931847,31.946644 119.075150,35.130043 118.525070,40.434223 
	C117.935371,46.120415 117.938736,52.053421 118.910332,57.666309 
	C119.971634,63.797516 124.427536,66.163902 131.718018,66.053543 
	C138.552231,65.950081 143.138809,63.352226 143.846298,57.404972 
	C144.592590,51.131721 143.722183,44.666142 143.190262,37.590347 
M213.844101,55.814404 
	C211.816315,55.411125 209.788513,55.007847 207.711960,54.594872 
	C206.916168,64.667053 220.570114,68.890305 228.455109,64.162254 
	C232.598907,61.677521 233.697510,57.938740 233.062973,53.456886 
	C232.441269,49.065525 229.604965,46.782066 225.483765,45.968376 
	C222.875854,45.453468 220.111862,45.523300 217.620178,44.710617 
	C216.332123,44.290520 214.887726,42.632740 214.636154,41.319233 
	C214.449768,40.346069 215.984543,38.123531 216.907349,38.032856 
	C219.509644,37.777142 222.283157,37.992603 224.815353,38.671059 
	C227.103943,39.284241 229.163269,40.753159 232.114761,42.244415 
	C231.166702,32.302540 221.324982,28.258348 213.167160,32.822205 
	C209.057281,35.121452 207.376938,38.637985 207.999847,43.251484 
	C208.626328,47.891426 211.727631,50.115631 215.980484,50.988533 
	C218.258179,51.456028 220.766068,51.215935 222.850647,52.072517 
	C224.373245,52.698177 226.389816,54.637947 226.332977,55.909054 
	C226.271698,57.279167 223.870987,59.788532 222.807297,59.633263 
	C219.794281,59.193447 216.942963,57.645939 213.844101,55.814404 
M300.884247,61.488678 
	C305.248627,66.139328 310.558167,67.044403 316.427429,65.208229 
	C320.936249,63.797672 324.155670,60.755707 324.361298,55.957558 
	C324.708282,47.860798 324.456482,39.738380 324.456482,31.566595 
	C322.068970,31.566595 320.035645,31.566595 317.800018,31.566595 
	C317.800018,39.095383 317.929413,46.255817 317.757263,53.409000 
	C317.629730,58.708454 312.689758,61.875076 308.514008,59.066151 
	C306.733093,57.868160 305.441071,54.803707 305.308350,52.507565 
	C304.900269,45.448025 305.159698,38.349899 305.159698,31.088285 
	C302.408386,31.225260 300.488800,31.320826 298.264526,31.431559 
	C298.264526,38.388824 298.039429,44.873493 298.359711,51.331116 
	C298.519379,54.550270 299.677307,57.719913 300.884247,61.488678 
M201.215057,59.974342 
	C199.218964,59.973820 197.222885,59.975254 195.226791,59.972424 
	C187.592392,59.961590 186.988281,59.200962 188.643051,51.181335 
	C191.977631,51.181335 195.396194,51.181335 198.869003,51.181335 
	C198.869003,49.144478 198.869003,47.511292 198.869003,45.473446 
	C195.296829,45.473446 191.867813,45.473446 188.261688,45.473446 
	C188.261688,42.524368 188.261688,39.984436 188.261688,37.191124 
	C193.543304,37.191124 198.514954,37.191124 203.660095,37.191124 
	C203.660095,35.181347 203.660095,33.429417 203.660095,31.229525 
	C197.824158,31.229525 192.196655,31.056549 186.586472,31.293575 
	C183.151230,31.438713 181.085068,33.559765 181.060516,37.134441 
	C181.011383,44.286259 180.972580,51.441120 181.131714,58.590229 
	C181.221146,62.608189 183.504196,65.371010 187.496078,65.647652 
	C192.886337,66.021202 198.321930,65.740440 204.901627,65.740440 
	C203.732346,63.305187 202.935272,61.645107 201.215057,59.974342 
M240.193085,62.277149 
	C245.133179,66.646614 250.737732,67.012512 256.433624,64.366402 
	C261.177887,62.162399 262.584778,57.854858 262.387726,52.609169 
	C260.229736,52.609169 258.315063,52.609169 256.416870,52.609169 
	C256.223389,53.325642 256.055420,53.794464 255.972885,54.277870 
	C255.363495,57.847599 253.564575,60.072166 249.643600,59.875008 
	C245.484695,59.665882 243.794189,57.109608 243.726852,53.300953 
	C243.662399,49.655476 243.371552,45.909660 244.098343,42.397953 
	C244.469116,40.606464 246.676544,38.230564 248.374893,37.929356 
	C250.372040,37.575161 253.931229,38.574802 254.677261,40.060093 
	C256.672546,44.032574 259.278290,43.207901 262.307251,42.640965 
	C261.572510,35.733627 258.765594,32.663166 252.564789,31.722734 
	C245.688904,30.679916 240.073013,32.794136 238.367142,38.136215 
	C235.851929,46.012791 235.119400,54.085964 240.193085,62.277149 
M99.375298,56.412235 
	C99.451042,54.999779 99.526787,53.587318 99.622864,51.795761 
	C103.796310,51.795761 107.562927,51.795761 111.421455,51.795761 
	C111.421455,49.659466 111.421455,47.940044 111.421455,45.844643 
	C107.343475,45.844643 103.565742,45.844643 99.847054,45.844643 
	C98.732666,37.729313 99.106064,37.264587 106.412369,37.253437 
	C109.197807,37.249184 111.983261,37.252743 114.828537,37.252743 
	C114.828537,35.058857 114.828537,33.331139 114.828537,31.292446 
	C109.271500,31.292446 103.975899,31.151398 98.692207,31.341499 
	C95.105019,31.470564 92.704117,33.259212 92.700233,37.232853 
	C92.690979,46.700485 92.697250,56.168137 92.697250,65.680542 
	C95.050423,65.680542 97.095833,65.680542 99.375366,65.680542 
	C99.375366,62.696518 99.375366,60.045830 99.375298,56.412235 
M350.131714,37.576294 
	C355.994659,38.005558 353.600830,34.239006 353.637177,31.509804 
	C345.170532,31.509804 337.123993,31.509804 329.056671,31.509804 
	C329.056671,33.615253 329.056671,35.390457 329.056671,37.362514 
	C332.010040,37.535904 334.744843,37.696461 337.733398,37.871918 
	C337.733398,47.498631 337.733398,56.605591 337.733398,65.808853 
	C340.127625,65.808853 342.222809,65.808853 344.808807,65.808853 
	C344.808807,56.363216 344.808807,47.134239 344.808807,37.576435 
	C346.600739,37.576435 347.901001,37.576435 350.131714,37.576294 
M52.404518,36.937981 
	C47.863495,39.002148 43.226814,40.882355 38.807400,43.180393 
	C34.051853,45.653221 33.691418,51.033047 38.301834,53.393105 
	C45.787964,57.225231 53.573109,60.473225 61.463730,64.073509 
	C62.526409,61.713432 63.373928,59.831196 64.309204,57.754063 
	C57.494984,54.611256 51.217613,51.716049 44.193886,48.476616 
	C51.370979,45.131321 57.764553,42.151226 64.362465,39.075890 
	C63.265244,36.775341 62.423691,35.010845 61.413525,32.892822 
	C58.493801,34.206120 55.794624,35.420219 52.404518,36.937981 
M79.600578,44.024040 
	C78.126167,38.358158 76.651749,32.692280 75.066383,26.600033 
	C71.981323,27.984972 70.096916,28.830919 68.008072,29.768641 
	C74.481071,42.510471 74.163940,54.835609 68.085777,67.239403 
	C70.418472,68.236313 72.324249,69.050781 74.173790,69.841209 
	C78.582802,61.933262 80.097076,54.921631 79.600578,44.024040 
z"/>
<path fill="#0B0B0B" opacity="1.000000" stroke="none" 
	d="
M158.436447,31.217632 
	C160.867325,31.212889 162.870483,31.113607 164.858185,31.246233 
	C169.758820,31.573217 173.511383,33.700802 175.034775,38.610546 
	C176.559921,43.525894 175.510574,47.802906 171.266174,51.045391 
	C170.753723,51.436867 170.285156,51.885765 169.681519,52.407150 
	C172.072220,56.853172 174.401123,61.184288 176.721603,65.499718 
	C170.890137,67.506691 168.004532,65.058685 165.749939,60.115086 
	C164.398773,57.152409 164.076248,51.901192 157.855804,53.673584 
	C157.855804,57.508965 157.855804,61.433868 157.855804,65.687302 
	C155.407425,65.687302 153.371368,65.687302 150.918945,65.687302 
	C150.918945,56.214931 150.835861,46.775585 150.955307,37.338806 
	C151.011841,32.873856 154.155792,31.543705 158.436447,31.217632 
M168.404160,43.973637 
	C167.730209,41.973484 167.613403,38.983509 166.246643,38.214233 
	C164.378830,37.162926 160.102829,36.868729 159.441284,37.902454 
	C157.892914,40.321930 157.882141,43.725422 157.248810,46.730488 
	C157.712601,47.199841 158.176376,47.669193 158.640167,48.138550 
	C161.788544,46.996727 164.936920,45.854904 168.404160,43.973637 
z"/>
<path fill="#0A0A0A" opacity="1.000000" stroke="none" 
	d="
M266.687988,56.004112 
	C266.606628,50.793678 266.037262,45.903542 266.769806,41.216900 
	C267.912384,33.906830 272.596558,30.817753 280.433044,31.119375 
	C287.669373,31.397894 292.101807,35.118088 292.910797,42.214661 
	C293.360474,46.159286 293.319214,50.215813 292.994873,54.180656 
	C292.392090,61.549911 288.593323,65.365852 281.826843,65.980606 
	C273.265472,66.758423 269.004791,64.049347 266.687988,56.004112 
M277.964874,59.873341 
	C284.056427,59.998455 285.946442,58.706100 286.469116,52.831905 
	C286.802002,49.090950 286.633362,45.160095 285.836029,41.500351 
	C284.823059,36.850677 278.317291,35.464279 275.028900,38.859932 
	C271.187714,42.826393 272.590515,56.313076 277.964874,59.873341 
z"/>
<path fill="#0B0B0B" opacity="1.000000" stroke="none" 
	d="
M143.374176,37.937469 
	C143.722183,44.666142 144.592590,51.131721 143.846298,57.404972 
	C143.138809,63.352226 138.552231,65.950081 131.718018,66.053543 
	C124.427536,66.163902 119.971634,63.797516 118.910332,57.666309 
	C117.938736,52.053421 117.935371,46.120415 118.525070,40.434223 
	C119.075150,35.130043 122.931847,31.946644 128.296417,31.331821 
	C134.336060,30.639633 140.003128,31.284201 143.374176,37.937469 
M130.727188,37.139221 
	C129.009201,38.473103 126.018715,39.633701 125.809097,41.172989 
	C125.150398,46.010117 124.965240,51.092762 125.824097,55.859173 
	C126.132553,57.570992 129.933945,59.709183 132.137787,59.705276 
	C134.062958,59.701874 137.172348,57.265720 137.653839,55.369839 
	C138.603943,51.628685 138.283981,47.510719 138.140762,43.561214 
	C137.993378,39.497265 135.819733,37.112415 130.727188,37.139221 
z"/>
<path fill="#0B0B0B" opacity="1.000000" stroke="none" 
	d="
M213.936035,56.174557 
	C216.942963,57.645939 219.794281,59.193447 222.807297,59.633263 
	C223.870987,59.788532 226.271698,57.279167 226.332977,55.909054 
	C226.389816,54.637947 224.373245,52.698177 222.850647,52.072517 
	C220.766068,51.215935 218.258179,51.456028 215.980484,50.988533 
	C211.727631,50.115631 208.626328,47.891426 207.999847,43.251484 
	C207.376938,38.637985 209.057281,35.121452 213.167160,32.822205 
	C221.324982,28.258348 231.166702,32.302540 232.114761,42.244415 
	C229.163269,40.753159 227.103943,39.284241 224.815353,38.671059 
	C222.283157,37.992603 219.509644,37.777142 216.907349,38.032856 
	C215.984543,38.123531 214.449768,40.346069 214.636154,41.319233 
	C214.887726,42.632740 216.332123,44.290520 217.620178,44.710617 
	C220.111862,45.523300 222.875854,45.453468 225.483765,45.968376 
	C229.604965,46.782066 232.441269,49.065525 233.062973,53.456886 
	C233.697510,57.938740 232.598907,61.677521 228.455109,64.162254 
	C220.570114,68.890305 206.916168,64.667053 207.711960,54.594872 
	C209.788513,55.007847 211.816315,55.411125 213.936035,56.174557 
z"/>
<path fill="#0F0F0F" opacity="1.000000" stroke="none" 
	d="
M300.633972,61.200317 
	C299.677307,57.719913 298.519379,54.550270 298.359711,51.331116 
	C298.039429,44.873493 298.264526,38.388824 298.264526,31.431559 
	C300.488800,31.320826 302.408386,31.225260 305.159698,31.088285 
	C305.159698,38.349899 304.900269,45.448025 305.308350,52.507565 
	C305.441071,54.803707 306.733093,57.868160 308.514008,59.066151 
	C312.689758,61.875076 317.629730,58.708454 317.757263,53.409000 
	C317.929413,46.255817 317.800018,39.095383 317.800018,31.566595 
	C320.035645,31.566595 322.068970,31.566595 324.456482,31.566595 
	C324.456482,39.738380 324.708282,47.860798 324.361298,55.957558 
	C324.155670,60.755707 320.936249,63.797672 316.427429,65.208229 
	C310.558167,67.044403 305.248627,66.139328 300.633972,61.200317 
z"/>
<path fill="#0D0D0D" opacity="1.000000" stroke="none" 
	d="
M201.676636,59.979683 
	C202.935272,61.645107 203.732346,63.305187 204.901627,65.740440 
	C198.321930,65.740440 192.886337,66.021202 187.496078,65.647652 
	C183.504196,65.371010 181.221146,62.608189 181.131714,58.590229 
	C180.972580,51.441120 181.011383,44.286259 181.060516,37.134441 
	C181.085068,33.559765 183.151230,31.438713 186.586472,31.293575 
	C192.196655,31.056549 197.824158,31.229525 203.660095,31.229525 
	C203.660095,33.429417 203.660095,35.181347 203.660095,37.191124 
	C198.514954,37.191124 193.543304,37.191124 188.261688,37.191124 
	C188.261688,39.984436 188.261688,42.524368 188.261688,45.473446 
	C191.867813,45.473446 195.296829,45.473446 198.869003,45.473446 
	C198.869003,47.511292 198.869003,49.144478 198.869003,51.181335 
	C195.396194,51.181335 191.977631,51.181335 188.643051,51.181335 
	C186.988281,59.200962 187.592392,59.961590 195.226791,59.972424 
	C197.222885,59.975254 199.218964,59.973820 201.676636,59.979683 
z"/>
<path fill="#0C0C0C" opacity="1.000000" stroke="none" 
	d="
M239.950500,61.988197 
	C235.119400,54.085964 235.851929,46.012791 238.367142,38.136215 
	C240.073013,32.794136 245.688904,30.679916 252.564789,31.722734 
	C258.765594,32.663166 261.572510,35.733627 262.307251,42.640965 
	C259.278290,43.207901 256.672546,44.032574 254.677261,40.060093 
	C253.931229,38.574802 250.372040,37.575161 248.374893,37.929356 
	C246.676544,38.230564 244.469116,40.606464 244.098343,42.397953 
	C243.371552,45.909660 243.662399,49.655476 243.726852,53.300953 
	C243.794189,57.109608 245.484695,59.665882 249.643600,59.875008 
	C253.564575,60.072166 255.363495,57.847599 255.972885,54.277870 
	C256.055420,53.794464 256.223389,53.325642 256.416870,52.609169 
	C258.315063,52.609169 260.229736,52.609169 262.387726,52.609169 
	C262.584778,57.854858 261.177887,62.162399 256.433624,64.366402 
	C250.737732,67.012512 245.133179,66.646614 239.950500,61.988197 
z"/>
<path fill="#080808" opacity="1.000000" stroke="none" 
	d="
M99.375336,56.903687 
	C99.375366,60.045830 99.375366,62.696518 99.375366,65.680542 
	C97.095833,65.680542 95.050423,65.680542 92.697250,65.680542 
	C92.697250,56.168137 92.690979,46.700485 92.700233,37.232853 
	C92.704117,33.259212 95.105019,31.470564 98.692207,31.341499 
	C103.975899,31.151398 109.271500,31.292446 114.828537,31.292446 
	C114.828537,33.331139 114.828537,35.058857 114.828537,37.252743 
	C111.983261,37.252743 109.197807,37.249184 106.412369,37.253437 
	C99.106064,37.264587 98.732666,37.729313 99.847054,45.844643 
	C103.565742,45.844643 107.343475,45.844643 111.421455,45.844643 
	C111.421455,47.940044 111.421455,49.659466 111.421455,51.795761 
	C107.562927,51.795761 103.796310,51.795761 99.622864,51.795761 
	C99.526787,53.587318 99.451042,54.999779 99.375336,56.903687 
z"/>
<path fill="#131313" opacity="1.000000" stroke="none" 
	d="
M349.666473,37.576363 
	C347.901001,37.576435 346.600739,37.576435 344.808807,37.576435 
	C344.808807,47.134239 344.808807,56.363216 344.808807,65.808853 
	C342.222809,65.808853 340.127625,65.808853 337.733398,65.808853 
	C337.733398,56.605591 337.733398,47.498631 337.733398,37.871918 
	C334.744843,37.696461 332.010040,37.535904 329.056671,37.362514 
	C329.056671,35.390457 329.056671,33.615253 329.056671,31.509804 
	C337.123993,31.509804 345.170532,31.509804 353.637177,31.509804 
	C353.600830,34.239006 355.994659,38.005558 349.666473,37.576363 
z"/>
<path fill="#2CAFF0" opacity="1.000000" stroke="none" 
	d="
M52.749981,36.786148 
	C55.794624,35.420219 58.493801,34.206120 61.413525,32.892822 
	C62.423691,35.010845 63.265244,36.775341 64.362465,39.075890 
	C57.764553,42.151226 51.370979,45.131321 44.193886,48.476616 
	C51.217613,51.716049 57.494984,54.611256 64.309204,57.754063 
	C63.373928,59.831196 62.526409,61.713432 61.463730,64.073509 
	C53.573109,60.473225 45.787964,57.225231 38.301834,53.393105 
	C33.691418,51.033047 34.051853,45.653221 38.807400,43.180393 
	C43.226814,40.882355 47.863495,39.002148 52.749981,36.786148 
z"/>
<path fill="#2EAFF0" opacity="1.000000" stroke="none" 
	d="
M79.658638,44.466049 
	C80.097076,54.921631 78.582802,61.933262 74.173790,69.841209 
	C72.324249,69.050781 70.418472,68.236313 68.085777,67.239403 
	C74.163940,54.835609 74.481071,42.510471 68.008072,29.768641 
	C70.096916,28.830919 71.981323,27.984972 75.066383,26.600033 
	C76.651749,32.692280 78.126167,38.358158 79.658638,44.466049 
z"/>
<path fill="#F2F2F2" opacity="1.000000" stroke="none" 
	d="
M168.244720,44.343361 
	C164.936920,45.854904 161.788544,46.996727 158.640167,48.138550 
	C158.176376,47.669193 157.712601,47.199841 157.248810,46.730488 
	C157.882141,43.725422 157.892914,40.321930 159.441284,37.902454 
	C160.102829,36.868729 164.378830,37.162926 166.246643,38.214233 
	C167.613403,38.983509 167.730209,41.973484 168.244720,44.343361 
z"/>
<path fill="#F6F6F6" opacity="1.000000" stroke="none" 
	d="
M277.578064,59.761185 
	C272.590515,56.313076 271.187714,42.826393 275.028900,38.859932 
	C278.317291,35.464279 284.823059,36.850677 285.836029,41.500351 
	C286.633362,45.160095 286.802002,49.090950 286.469116,52.831905 
	C285.946442,58.706100 284.056427,59.998455 277.578064,59.761185 
z"/>
<path fill="#F7F7F7" opacity="1.000000" stroke="none" 
	d="
M131.124939,37.120579 
	C135.819733,37.112415 137.993378,39.497265 138.140762,43.561214 
	C138.283981,47.510719 138.603943,51.628685 137.653839,55.369839 
	C137.172348,57.265720 134.062958,59.701874 132.137787,59.705276 
	C129.933945,59.709183 126.132553,57.570992 125.824097,55.859173 
	C124.965240,51.092762 125.150398,46.010117 125.809097,41.172989 
	C126.018715,39.633701 129.009201,38.473103 131.124939,37.120579 
z"/>
</svg>