<svg version="2.0" xmlns="http://www.w3.org/2000/svg"
 width="75.000000pt" height="72.000000pt" viewBox="0 0 75.000000 72.000000"
 preserveAspectRatio="xMidYMid meet">

<g transform="translate(0.000000,72.000000) scale(0.100000,-0.100000)"
fill="#000000" stroke="none">
<path d="M351 667 l-95 -32 -88 -159 c-48 -88 -88 -163 -88 -168 0 -4 36 -8
80 -8 l79 0 24 43 c79 138 197 350 197 353 0 7 -12 3 -109 -29z"/>
<path d="M476 608 c-7 -13 -53 -93 -101 -178 l-87 -154 32 -65 c32 -65 32 -65
45 -41 8 14 54 97 103 185 l90 160 -29 57 c-16 32 -31 58 -34 58 -2 0 -11 -10
-19 -22z"/>
<path d="M487 273 l-98 -177 22 -48 22 -48 53 0 53 0 36 61 c20 34 54 95 76
135 l41 74 -49 90 c-26 49 -50 90 -53 90 -3 0 -49 -80 -103 -177z"/>
<path d="M80 234 c0 -3 27 -57 61 -120 l61 -114 85 0 c46 0 83 4 81 8 -1 4
-32 58 -66 120 l-64 112 -79 0 c-43 0 -79 -3 -79 -6z"/>
</g>
</svg>
