<svg id="ede8ca5d-677a-4786-83dc-809e9b4a1e06" data-name="Layer 1" xmlns="http://www.w3.org/2000/svg" width="2.68003in" height="1.44797in" viewBox="0 0 192.96185 104.25351">

  <title>ForgeRock_Vert_Color_Logo_RGB_R_med</title>
  <g>
    <g>
      <polygon fill="#032b75" class="e7edbb4b-058f-425d-8420-cbd11034c9c0" points="99.863 0 83.293 5.117 68.008 32.69 81.557 32.69 99.863 0"/>
      <polygon fill="#032b75" class="e7edbb4b-058f-425d-8420-cbd11034c9c0" points="68.144 37.911 78.725 57.571 92.511 57.571 81.277 37.911 68.144 37.911"/>
      <path fill="#f96700" class="a8b9360a-cc3d-4b85-874e-7609cbb6c949" d="M119.10514,35.54565,110.567,19.53747c-5.05555,8.93079-13.982,25.33709-17.02645,30.50084l4.20714,7.53316h8.87612Z"/>
      <path fill="#f96700" class="a8b9360a-cc3d-4b85-874e-7609cbb6c949" d="M91.027,45.53763l17.05172-30.44952L102.53791,4.80816c-4.35292,7.69337-13.33935,23.55209-17.299,30.36542Z"/>
    </g>
    <g>
      <path fill="#032b75" class="e7edbb4b-058f-425d-8420-cbd11034c9c0" d="M5.55666,77.77379v6.34578H16.66982V88.5783H5.55666v8.74664H0V73.31506H18.14473v4.45873Z"/>
      <path fill="#032b75" class="e7edbb4b-058f-425d-8420-cbd11034c9c0" d="M53.52986,78.59708v4.93936c-.446-.0345-.789-.06866-1.2006-.06866-2.94965,0-4.90487,1.61207-4.90487,5.145v8.71214H42.07355V78.87139h5.11086v2.43535C48.48766,79.52319,50.68286,78.59708,53.52986,78.59708Z"/>
      <path fill="#032b75" class="e7edbb4b-058f-425d-8420-cbd11034c9c0" d="M75.34309,78.87139v15.3664c0,6.86025-3.70428,10.01572-10.35854,10.01572-3.49862,0-6.89425-.85744-9.05512-2.53818L58.056,97.8739a11.02872,11.02872,0,0,0,6.51694,2.092c3.7731,0,5.4195-1.71489,5.4195-5.04186V94.135a7.59629,7.59629,0,0,1-5.831,2.298c-5.11085,0-9.22677-3.53262-9.22677-8.91779s4.11592-8.91812,9.22677-8.91812a7.40723,7.40723,0,0,1,6.1053,2.641V78.87139ZM70.06091,87.5152c0-2.70967-2.02371-4.52773-4.83621-4.52773-2.81266,0-4.8707,1.81806-4.8707,4.52773s2.058,4.52739,4.8707,4.52739C68.0372,92.04259,70.06091,90.22487,70.06091,87.5152Z"/>
      <path fill="#032b75" class="e7edbb4b-058f-425d-8420-cbd11034c9c0" d="M97.37984,89.60757h-13.96c.51447,2.298,2.46952,3.70411,5.28218,3.70411a6.25433,6.25433,0,0,0,4.63039-1.78356l2.847,3.08715c-1.71506,1.955-4.28757,2.984-7.6147,2.984-6.37978,0-10.53-4.01292-10.53-9.50092,0-5.5225,4.21891-9.50125,9.84407-9.50125,5.4195,0,9.60408,3.63577,9.60408,9.56991C97.48283,88.5783,97.41417,89.16143,97.37984,89.60757ZM83.35119,86.48626h9.08945a4.609,4.609,0,0,0-9.08945,0Z"/>
      <path fill="#032b75" class="e7edbb4b-058f-425d-8420-cbd11034c9c0" d="M115.46446,97.32494l-4.63055-6.68843h-5.11069v6.68843h-5.55666V73.31506h10.393c6.41411,0,10.4272,3.327,10.4272,8.71214a7.80624,7.80624,0,0,1-4.9392,7.58037l5.385,7.71737Zm-5.21368-19.48249h-4.52756v8.36916h4.52756c3.39579,0,5.11069-1.57757,5.11069-4.18441C115.36147,79.38619,113.64657,77.84245,110.25078,77.84245Z"/>
      <path fill="#032b75" class="e7edbb4b-058f-425d-8420-cbd11034c9c0" d="M122.65965,88.09833c0-5.55666,4.28757-9.50125,10.15288-9.50125,5.86514,0,10.11838,3.94459,10.11838,9.50125s-4.25324,9.50092-10.11838,9.50092C126.94722,97.59925,122.65965,93.655,122.65965,88.09833Zm14.85193,0c0-3.19-2.02371-5.11086-4.699-5.11086-2.6755,0-4.73354,1.92089-4.73354,5.11086s2.058,5.11052,4.73354,5.11052C135.48787,93.20885,137.51158,91.2883,137.51158,88.09833Z"/>
      <path fill="#032b75" class="e7edbb4b-058f-425d-8420-cbd11034c9c0" d="M145.5506,88.09833c0-5.55666,4.28757-9.50125,10.29-9.50125,3.87593,0,6.92858,1.68073,8.26633,4.69921l-4.15041,2.22936a4.60174,4.60174,0,0,0-4.15025-2.53818c-2.70967,0-4.83637,1.88672-4.83637,5.11086s2.1267,5.11052,4.83637,5.11052a4.53966,4.53966,0,0,0,4.15025-2.53818l4.15041,2.26387c-1.33775,2.94982-4.3904,4.66471-8.26633,4.66471C149.83817,97.59925,145.5506,93.655,145.5506,88.09833Z"/>
      <path fill="#032b75" class="e7edbb4b-058f-425d-8420-cbd11034c9c0" d="M174.79919,90.08754l-2.57251,2.53818v4.69922h-5.35085V71.87449h5.35085V86.28027l7.82035-7.40888H186.427l-7.6832,7.82053,8.36916,10.633h-6.48278Z"/>
      <path fill="#032b75" class="e7edbb4b-058f-425d-8420-cbd11034c9c0" d="M19.14485,88.09833c0-5.55666,4.28758-9.50125,10.15289-9.50125,5.86514,0,10.11838,3.94459,10.11838,9.50125s-4.25324,9.50092-10.11838,9.50092C23.43243,97.59925,19.14485,93.655,19.14485,88.09833Zm14.85193,0c0-3.19-2.02371-5.11086-4.699-5.11086-2.67551,0-4.73355,1.92089-4.73355,5.11086s2.058,5.11052,4.73355,5.11052C31.97307,93.20885,33.99678,91.2883,33.99678,88.09833Z"/>
    </g>
    <path fill="#032b75" class="e7edbb4b-058f-425d-8420-cbd11034c9c0" d="M191.55145,79.29415A2.73012,2.73012,0,0,1,192.586,80.328a3.00668,3.00668,0,0,1-.00864,2.92692,2.82726,2.82726,0,0,1-1.04583,1.05048,2.97109,2.97109,0,0,1-2.92259,0,2.81176,2.81176,0,0,1-1.03851-1.04649,2.97692,2.97692,0,0,1,0-2.91028,2.803,2.803,0,0,1,1.0425-1.0465,3.0291,3.0291,0,0,1,2.93856-.008Zm-.25348,4.61873a2.38264,2.38264,0,0,0,.87086-.88682,2.57867,2.57867,0,0,0,.008-2.46887,2.28809,2.28809,0,0,0-.85821-.87086,2.55061,2.55061,0,0,0-2.47685.00433,2.32188,2.32188,0,0,0-.87086.87851,2.57858,2.57858,0,0,0,0,2.46887,2.32915,2.32915,0,0,0,.86686.87884,2.49053,2.49053,0,0,0,2.46022-.004Zm.09847-1.98653a1.03941,1.03941,0,0,1-.47834.3842l.71917,1.1037h-.70254l-.638-.981h-.72782v.981h-.70254v-3.221h1.34055a1.50743,1.50743,0,0,1,.99327.30237,1.0096,1.0096,0,0,1,.36391.81764A1.0861,1.0861,0,0,1,191.39644,81.92635Zm-1.23011-.04092a.82634.82634,0,0,0,.53089-.151.50926.50926,0,0,0,.18828-.42112.4981.4981,0,0,0-.18828-.41714.84445.84445,0,0,0-.53089-.147h-.60541v1.1363Z"/>
  </g>
</svg>
