<svg xmlns="http://www.w3.org/2000/svg" height="800" width="1200" viewBox="-23.24373 -4.44185 201.44566 26.6511"><path d="M100.4986 17.6046h-4.2662V.196l13.7225.0113s2.5125-.0937 4.11 1.485c0 0 1.6312 1.3625 1.6312 4.6912V17.601h-4.255V6.0934s.0525-1.1737-.3475-1.5862c0 0-.3537-.4475-1.0262-.4475h-9.5775l.009 13.545zm18.1587-.003V.203h17.125v3.8687l-12.8775-.001v2.9575h8.9475v3.7363h-8.9476v2.9675h12.9625v3.87h-17.21zm-29.857 0V.203h4.2476v17.3987zM142.986 2.9775v-.5863zm-1.095 14.6237v-13.53h-4.01V.2026h15.9462v3.8687h-7.6887v13.53zM75.8575 2.9776v-.5863zm-1.095 14.6237v-13.53h-4.01V.2025h15.9463v3.8687H79.01v13.53zM61.949 7.0251c1.0375-.008 1.6587.001 1.9087-.1512 0 0 .4363-.2413.4413-.7588l.001-1.1375c0-.52-.4412-.7588-.4412-.7588-.3313-.18-.8926-.1462-2.225-.1475h-8.2763v2.9538h8.7813-.19zm2.2887 10.5762V11.664c0-.5338-.4462-.7575-.4462-.7575-.2013-.125-.8038-.1475-1.6913-.1475h.2063-8.9488v6.8424h-4.2475V.2027h13.26c2.29.007 3.8713.3437 4.96 1.4013 1.07 1.09 1.2125 2.5162 1.2175 4v1.2387c.0138 1.2612-.6487 2.4112-1.4387 3.0812l.1588.0788c.3225.1563.4987.3775.4987.3775.6012.7675.5938 1.4275.5925 2.24v4.9813h-4.1212zM0 .2011v17.3988h4.2475v-6.8363h12.8688V7.0261H4.2475V4.0699h14.9612V.201zm152.3673 14.3204v.7987h.7437c.2013 0 .3963-.055.4263-.3537.0425-.3962-.2438-.445-.4263-.445zm-.2988-.2625h1.0363c.36 0 .7074.0675.7374.5913.0126.3-.0787.4087-.305.58.2388.1525.245.1887.2813.5912.0238.305-.0188.3538.11.555h-.3537l-.0487-.2925c-.0488-.275.085-.7013-.3963-.7013h-.7625v.9938h-.2987V14.259zm.78-.64c-1.0237 0-1.8587.835-1.8525 1.8662 0 1.0238.8288 1.8588 1.8588 1.8538 1.025 0 1.86-.83 1.86-1.86 0-1.025-.835-1.86-1.8663-1.86m.006 3.9625c-1.1637 0-2.1037-.9387-2.1037-2.1025-.005-1.1587.94-2.1037 2.1037-2.1037 1.1588 0 2.1037.945 2.1037 2.1037 0 1.1638-.945 2.0975-2.1037 2.1025" fill="#231f20"/><path d="M43.2764 17.7671c1.38-.4687 2.4537-2.0575 2.7125-4.0562v-.5775h-7.075v4.6337zm2.7128-13.1308v-.5226C45.718 2.0287 44.5643.3863 43.093 0h-4.1787v4.6363zM21.085 13.1335v.5725c.2562 2 1.33 3.5925 2.7137 4.0613h4.34v-4.6338zM23.98.0006c-1.4687.3863-2.6262 2.03-2.895 4.1175v.5188h7.0538V.0006zm22.0097 6.5662h-7.075v4.6362h7.075zm-15.9238 11.2h6.9213V13.133H30.066zM36.9873.0005H30.066v4.6362h6.9212zM21.0848 11.203h7.0537V6.5668h-7.0537z" fill="#ee2e24"/></svg>