<?xml version="1.0" encoding="UTF-8"?>
<svg
	xmlns="http://www.w3.org/2000/svg" viewBox="0 0 160 160">
	<rect width="160" height="160" fill="#fff"></rect>
	<g>
		<polygon points="87.7 67.69 101.57 58.58 101.57 81.66 106.74 86.87 84.4 108.66 80.02 108.66 80.02 67.69 87.7 67.69" fill="#ba0c2f"></polygon>
		<polygon points="72.33 67.69 58.47 58.58 58.47 81.66 53.29 86.87 75.65 108.66 80.02 108.66 80.02 67.69 72.33 67.69" fill="#e4002b"></polygon>
		<path d="M41.37,123.22l7.46-10.38a45.32,45.32,0,0,1,52.35-72.91l7.45-10.36a58,58,0,0,0-67.26,93.67Z" fill="#ba0c2f"></path>
		<path d="M118.72,36.78l-7.55,10.38a45.32,45.32,0,0,1-52.35,72.91l-7.45,10.36a58,58,0,0,0,67.26-93.67Z" fill="#e4002b"></path>
	</g>
</svg>
