<svg width="96" height="96" viewBox="0 0 96 96" fill="none" xmlns="http://www.w3.org/2000/svg">
<path d="M10 92L10 74.0785L71.0118 64V74.0785L10 92Z" fill="white"/>
<path d="M82.4346 3.16455C82.6895 10.5383 86.5467 17.3175 92.7554 21.3037L92.8665 21.375L92.6274 21.3977C85.3645 22.0862 78.9279 26.3636 75.4799 32.7929L75.46 32.3047C75.1719 25.2242 71.4301 18.7351 65.4465 14.9387C72.6847 14.0374 79.0399 9.62056 82.4346 3.16455Z" fill="#FF6E93"/>
<path fill-rule="evenodd" clip-rule="evenodd" d="M31.472 17.6226C47.0045 11.2653 63.6799 16.0906 68.7181 28.3999C73.756 40.7092 65.2493 55.8412 49.7171 62.1987C34.1847 68.5562 17.5085 63.7315 12.47 51.4224C7.43179 39.113 15.9394 23.9801 31.472 17.6226ZM50.0199 23.19C45.213 20.5868 37.3346 25.8283 32.4232 34.897C27.5118 43.9658 27.427 53.4283 32.2337 56.0317C37.0406 58.635 44.9189 53.3937 49.8304 44.3247C54.7418 35.2557 54.8268 25.7932 50.0199 23.19Z" fill="white"/>
</svg>
