<svg width="96" height="96" viewBox="0 0 96 96" fill="none" xmlns="http://www.w3.org/2000/svg">
<path d="M10 91.9995L10 74.078L71.0118 63.9995V74.078L10 91.9995Z" fill="black"/>
<path d="M82.4346 3.16406C82.6895 10.5378 86.5467 17.317 92.7554 21.3032L92.8665 21.3745L92.6274 21.3972C85.3645 22.0857 78.9279 26.3631 75.4799 32.7924L75.46 32.3042C75.1719 25.2238 71.4301 18.7346 65.4465 14.9382C72.6847 14.0369 79.0399 9.62007 82.4346 3.16406Z" fill="#FF6E93"/>
<path fill-rule="evenodd" clip-rule="evenodd" d="M31.4717 17.6217C47.0042 11.2643 63.6805 16.0897 68.7188 28.399C73.7569 40.7084 65.2493 55.8414 49.7168 62.1988C34.1843 68.5563 17.508 63.7309 12.4698 51.4215C7.43156 39.1121 15.9392 23.9792 31.4717 17.6217ZM50.0196 23.19C45.2126 20.5869 37.3343 25.8281 32.4229 34.8971C27.5116 43.9659 27.4267 53.4285 32.2334 56.0318C37.0403 58.6351 44.9187 53.3928 49.8301 44.3238C54.7415 35.2549 54.8265 25.7933 50.0196 23.19Z" fill="black"/>
</svg>
