<svg xmlns="http://www.w3.org/2000/svg" version="1.1" width="512px" height="512px">
<g><path fill="#21d861" d="M 242.5,42.5 C 323.165,41.4124 386.332,73.7457 432,139.5C 466.179,195.091 474.513,254.424 457,317.5C 436.483,380.352 395.983,425.185 335.5,452C 260.465,480.538 190.465,471.538 125.5,425C 76.8143,385.135 50.1476,333.635 45.5,270.5C 46.8333,270.5 48.1667,270.5 49.5,270.5C 59.3176,349.469 100.984,403.969 174.5,434C 243.633,456.105 306.3,444.438 362.5,399C 423.516,341.256 441.683,272.089 417,191.5C 389.393,122.897 339.226,81.7305 266.5,68C 182.72,59.4766 118.553,90.6433 74,161.5C 60.2919,186.124 52.1252,212.457 49.5,240.5C 48.1667,240.5 46.8333,240.5 45.5,240.5C 52.3751,160.858 90.7085,102.025 160.5,64C 186.557,51.487 213.891,44.3204 242.5,42.5 Z"/></g>
<g><path fill="#46545c" d="M 223.5,87.5 C 286.172,84.4287 336.672,107.429 375,156.5C 379.942,163.383 384.109,170.717 387.5,178.5C 382.237,191.121 377.07,203.788 372,216.5C 371.592,218.41 370.425,219.41 368.5,219.5C 356.126,216.626 343.793,213.626 331.5,210.5C 307.382,167.606 270.715,148.773 221.5,154C 175.333,164.167 147.167,192.333 137,238.5C 131.681,289.706 151.847,326.873 197.5,350C 237.171,365.191 273.504,359.524 306.5,333C 317.117,322.76 325.783,311.093 332.5,298C 295.835,297.5 259.168,297.333 222.5,297.5C 222.5,278.167 222.5,258.833 222.5,239.5C 283.833,239.5 345.167,239.5 406.5,239.5C 410.035,300.57 388.368,350.403 341.5,389C 288.701,426.46 232.034,433.46 171.5,410C 106.872,378.948 73.2049,327.448 70.5,255.5C 73.2049,183.552 106.872,132.052 171.5,101C 188.305,93.9666 205.638,89.4666 223.5,87.5 Z"/></g>
</svg>
