<?xml version="1.0" encoding="utf-8"?>
<svg version="1.1" id="ebe93e17-fe69-4143-8216-5d51bbb8b5b1" xmlns="http://www.w3.org/2000/svg" x="0px" y="0px" viewBox="0 0 512 512" style="enable-background:new 0 0 512 512;" xml:space="preserve">
	<g id="dd03c544-3513-48ae-8521-e0bc48b9e31f">
		<path id="07522fa8-7469-4cd5-b51a-5cb9ef9fff9d" style="fill:#47555D" d="M406,240.3l-182.6,0v56.9H334c-15.9,36.6-52.4,62.3-94.9,62.3c-57.2,0-103.5-46.3-103.5-103.5c0-57.2,46.3-103.5,103.5-103.5c40.9,0,76.3,23.7,93.1,58.2l38.3,9l17.3-41.2c-28-53.6-84.1-90.2-148.7-90.2c-92.6,0-167.7,75.1-167.7,167.7c0,92.6,75.1,167.7,167.7,167.7S406.7,348.6,406.7,256C406.7,250.7,406.4,245.5,406,240.3z"/>
		<path id="a2c7d23d-8846-4aff-a705-72ec55895073" style="fill:#21D862" d="M253.7,43.7C141.8,43.7,53.9,130.4,46,240.3h3.7c8-97.6,89.7-174.4,189.3-174.4c105,0,190.1,85.1,190.1,190.1c0,105-85.1,190.1-190.1,190.1c-99.7,0-181.4-76.8-189.3-174.4H46c7.9,109.9,95.8,196.6,207.7,196.6C371,468.3,466,373.2,466,256S371,43.7,253.7,43.7z"/>
	</g>
</svg>
