<svg xmlns="http://www.w3.org/2000/svg" viewBox="0 0 25 24" fill="none" id="gib">
<g clip-path="url(#gib_clip0)">
<path d="M3.02991 3.89322C5.83538 1.96569 9.17577 0.968775 12.5788 1.04346C18.5558 1.04346 20.6647 3.89322 20.6647 3.89322" stroke="rgb(88, 175, 255)" stroke-width="2"></path>
<path d="M22.9916 8.35614C23.3101 11.6259 22.5172 14.9076 20.7408 17.6713C17.7314 22.6236 14.1127 22.968 14.1127 22.968" stroke="rgb(88, 175, 255)" stroke-width="2"></path>
<path d="M9.56417 22.9565C6.69019 21.5663 4.34386 19.2826 2.87652 16.4473C0.143646 11.4981 1.50226 8.34778 1.50226 8.34778" stroke="rgb(88, 175, 255)" stroke-width="2"></path>
<path d="M12.1155 16.6956C14.7088 16.6956 16.8111 14.5933 16.8111 12C16.8111 9.40664 14.7088 7.30432 12.1155 7.30432C9.52211 7.30432 7.4198 9.40664 7.4198 12C7.4198 14.5933 9.52211 16.6956 12.1155 16.6956Z" stroke="rgb(88, 175, 255)" stroke-width="2"></path>
</g>

</svg>

