<?xml version="1.0" standalone="no"?>
<!DOCTYPE svg PUBLIC "-//W3C//DTD SVG 20010904//EN"
 "http://www.w3.org/TR/2001/REC-SVG-20010904/DTD/svg10.dtd">
<svg version="1.0" id="03222e5b-cb2d-4d14-a3be-42eab0753ed3"
    xmlns="http://www.w3.org/2000/svg" width="1600.000000pt" height="1600.000000pt" viewBox="0 0 1600.000000 1600.000000" preserveAspectRatio="xMidYMid meet">

    <g transform="translate(0.000000,1600.000000) scale(0.100000,-0.100000)" fill="#000000" stroke="none">
        <path d="M7125 14990 c-1163 -71 -2251 -432 -3211 -1066 -1581 -1044 -2631
        -2735 -2863 -4609 -38 -303 -46 -444 -45 -815 0 -393 12 -581 60 -910 292
        -2044 1535 -3814 3373 -4805 260 -140 593 -287 876 -387 133 -47 145 -49 226
        -46 116 4 210 49 298 143 67 72 132 194 150 283 7 34 11 220 11 513 0 434 -1
        460 -17 455 -10 -3 -88 -17 -173 -32 -130 -22 -196 -27 -410 -31 -275 -5 -412
        7 -615 58 -407 100 -786 348 -1025 670 -80 107 -102 147 -167 292 -203 455
        -382 704 -648 902 -245 181 -286 284 -140 345 54 22 74 24 190 24 108 -1 147
        -5 228 -27 322 -86 589 -290 802 -612 291 -440 689 -654 1285 -690 187 -11
        449 22 616 78 l69 23 7 154 c14 301 52 511 117 655 21 46 27 67 18 70 -7 2
        -82 18 -167 35 -1039 208 -1867 666 -2375 1315 -411 525 -614 1184 -592 1920
        25 831 290 1525 795 2083 l76 83 -17 27 c-200 311 -265 899 -151 1362 45 182
        133 383 220 501 35 48 37 49 87 49 162 0 432 -41 624 -95 418 -118 847 -370
        1158 -681 l95 -95 69 25 c225 81 556 149 931 192 195 22 823 31 1043 14 423
        -31 845 -105 1102 -193 l70 -24 115 111 c330 319 766 561 1210 670 173 42 311
        63 480 72 l125 7 47 -70 c138 -209 224 -462 259 -763 17 -151 7 -472 -20 -625
        -28 -158 -64 -281 -112 -384 l-39 -83 61 -67 c81 -88 221 -274 290 -386 249
        -403 391 -830 456 -1375 24 -207 24 -684 -1 -865 -50 -368 -127 -628 -276
        -930 -147 -300 -286 -492 -534 -740 -273 -272 -527 -455 -881 -632 -399 -201
        -866 -354 -1355 -444 -36 -7 -66 -13 -68 -15 -2 -1 12 -35 31 -76 40 -82 60
        -152 84 -295 15 -86 17 -242 22 -1288 6 -1125 7 -1193 25 -1240 36 -99 81
        -171 151 -241 95 -96 160 -126 280 -132 83 -3 98 -1 195 33 1491 522 2753
        1583 3528 2967 826 1473 1039 3233 591 4874 -350 1283 -1109 2451 -2144 3299
        -1030 844 -2266 1343 -3605 1455 -170 14 -723 20 -895 10z"/>
    </g>
</svg>
