<svg id="svg" version="1.1" xmlns="http://www.w3.org/2000/svg" width="400" height="372.443487621098" viewBox="0, 0, 400,372.443487621098"><g id="svgg"><path id="path0" d="M78.015 16.753 C 75.148 17.461,73.527 19.422,72.139 23.858 C 71.593 25.601,70.747 28.201,70.259 29.637 C 69.770 31.072,67.918 36.775,66.144 42.311 C 64.369 47.847,61.773 55.899,60.374 60.205 C 58.976 64.511,55.883 74.073,53.502 81.454 C 51.120 88.835,48.774 96.048,48.287 97.484 C 47.801 98.919,45.956 104.623,44.187 110.158 C 42.419 115.694,40.490 121.650,39.901 123.392 C 38.396 127.847,32.627 145.865,31.844 148.555 C 31.487 149.786,30.634 152.535,29.949 154.665 C 29.265 156.795,28.704 158.724,28.702 158.952 C 28.701 159.180,28.464 159.819,28.175 160.372 C 27.887 160.925,27.208 162.938,26.668 164.845 C 26.127 166.753,25.458 168.816,25.181 169.432 C 24.904 170.047,24.309 171.892,23.858 173.532 C 23.408 175.172,22.808 177.018,22.525 177.633 C 22.242 178.248,21.520 180.345,20.920 182.293 C 17.927 192.009,17.139 194.469,16.802 195.154 C 16.600 195.564,16.001 197.409,15.472 199.254 C 14.942 201.100,14.372 202.863,14.203 203.173 C 14.035 203.484,13.441 205.329,12.883 207.274 C 12.325 209.219,11.641 211.314,11.363 211.929 C 8.101 219.143,9.576 226.930,14.984 231.044 C 17.063 232.626,23.669 237.423,25.349 238.572 C 26.067 239.062,26.906 239.690,27.213 239.966 C 27.847 240.537,33.719 244.808,35.968 246.335 C 36.785 246.890,39.218 248.638,41.374 250.220 C 50.597 256.987,54.655 259.946,57.409 261.912 C 59.151 263.156,66.952 268.840,68.593 270.060 C 73.094 273.409,77.898 276.896,78.851 277.505 C 79.463 277.896,80.097 278.441,80.261 278.717 C 80.425 278.992,80.731 279.217,80.942 279.217 C 81.279 279.217,82.478 280.056,86.677 283.228 C 87.290 283.691,88.462 284.511,89.282 285.050 C 90.103 285.589,91.025 286.256,91.333 286.533 C 92.047 287.175,96.417 290.377,97.790 291.264 C 98.367 291.637,99.121 292.190,99.466 292.493 C 99.811 292.796,101.142 293.792,102.423 294.705 C 106.283 297.456,109.369 299.673,110.158 300.264 C 112.906 302.320,128.177 313.417,130.032 314.706 C 130.710 315.178,131.904 316.067,132.685 316.682 C 133.465 317.297,135.296 318.639,136.752 319.664 C 138.209 320.690,140.957 322.678,142.860 324.083 C 144.762 325.488,146.906 327.044,147.623 327.540 C 148.341 328.037,149.599 328.947,150.419 329.562 C 151.240 330.177,152.833 331.346,153.961 332.160 C 155.089 332.974,156.934 334.310,158.062 335.129 C 159.189 335.948,160.828 337.120,161.704 337.733 C 162.580 338.347,163.503 339.022,163.755 339.234 C 164.172 339.585,167.693 342.173,169.991 343.817 C 179.419 350.563,182.492 352.841,182.777 353.297 C 182.941 353.560,183.240 353.774,183.441 353.774 C 183.642 353.774,185.437 354.991,187.430 356.478 C 189.423 357.965,191.556 359.499,192.171 359.887 C 192.787 360.275,193.590 360.903,193.957 361.284 C 194.708 362.064,195.526 362.223,195.116 361.510 C 194.960 361.239,194.990 361.174,195.187 361.354 C 195.374 361.525,195.527 361.794,195.527 361.952 C 195.527 362.486,198.014 364.338,198.263 363.990 C 198.398 363.800,199.935 362.599,201.678 361.320 C 203.420 360.042,205.098 358.767,205.405 358.487 C 205.713 358.207,206.636 357.537,207.456 356.998 C 208.276 356.459,209.446 355.639,210.056 355.176 C 210.666 354.713,212.260 353.545,213.597 352.581 C 214.935 351.616,216.617 350.395,217.335 349.865 C 220.022 347.884,226.892 342.890,228.266 341.920 C 229.051 341.366,231.399 339.655,233.485 338.116 C 235.572 336.578,237.751 335.015,238.329 334.643 C 238.906 334.271,239.661 333.719,240.006 333.415 C 240.351 333.112,241.682 332.117,242.964 331.204 C 248.072 327.563,257.781 320.510,258.613 319.835 C 258.865 319.631,259.787 318.966,260.663 318.359 C 263.940 316.085,268.987 312.426,269.593 311.886 C 269.938 311.578,270.690 311.022,271.264 310.649 C 272.153 310.072,274.756 308.181,281.454 303.248 C 282.171 302.720,284.017 301.379,285.555 300.269 C 287.092 299.158,288.554 298.077,288.803 297.865 C 289.052 297.653,289.807 297.103,290.482 296.643 C 291.156 296.183,292.379 295.313,293.198 294.710 C 294.822 293.515,297.465 291.599,300.093 289.710 C 301.016 289.047,303.700 287.093,306.058 285.368 C 308.416 283.643,311.100 281.689,312.022 281.026 C 312.945 280.363,314.539 279.211,315.564 278.465 C 316.589 277.719,318.459 276.367,319.720 275.461 C 321.952 273.855,327.240 269.993,336.534 263.180 C 339.046 261.339,341.203 259.832,341.327 259.832 C 341.452 259.832,341.913 259.500,342.352 259.094 C 343.109 258.394,345.456 256.653,350.155 253.308 C 353.498 250.929,360.630 245.725,361.114 245.312 C 361.358 245.104,362.281 244.423,363.165 243.799 C 365.113 242.423,368.159 240.228,370.923 238.209 C 372.050 237.385,373.392 236.419,373.905 236.064 C 376.010 234.602,381.977 230.041,382.741 229.309 C 385.791 226.387,387.095 219.800,385.528 215.236 C 385.115 214.032,383.824 210.028,382.661 206.337 C 381.497 202.647,380.325 199.040,380.056 198.322 C 379.312 196.336,375.447 184.122,375.161 182.852 C 375.022 182.237,374.800 181.650,374.667 181.547 C 374.534 181.445,373.965 179.767,373.401 177.819 C 372.838 175.871,372.213 173.942,372.013 173.532 C 371.812 173.122,371.066 170.899,370.353 168.593 C 367.805 160.339,364.972 151.675,364.729 151.391 C 364.660 151.311,364.306 151.476,363.942 151.758 C 363.310 152.247,363.310 152.236,363.933 151.502 C 364.801 150.479,364.784 150.328,363.314 145.979 C 362.615 143.910,360.591 137.689,358.818 132.153 C 357.044 126.617,355.112 120.662,354.524 118.919 C 353.381 115.529,350.349 106.185,344.848 89.096 C 342.966 83.253,341.025 77.297,340.534 75.862 C 340.042 74.427,338.194 68.723,336.426 63.187 C 334.657 57.651,332.729 51.696,332.140 49.953 C 331.551 48.211,329.622 42.255,327.852 36.719 C 321.588 17.118,321.316 16.651,316.155 16.651 C 310.886 16.651,311.007 16.431,303.634 39.329 C 301.258 46.710,298.831 54.175,298.242 55.918 C 297.653 57.661,295.724 63.616,293.955 69.152 C 292.186 74.688,290.252 80.643,289.657 82.386 C 289.062 84.129,287.123 90.084,285.347 95.620 C 280.723 110.036,277.097 121.225,275.862 124.884 C 274.670 128.414,268.614 147.283,268.204 148.742 C 268.060 149.254,267.775 149.884,267.569 150.140 C 267.274 150.510,252.868 150.606,197.792 150.606 L 128.388 150.606 126.597 145.107 C 125.612 142.083,124.329 138.183,123.745 136.440 C 123.161 134.697,120.729 127.232,118.339 119.851 C 114.117 106.805,111.121 97.578,105.876 81.454 C 104.475 77.148,101.375 67.586,98.987 60.205 C 96.599 52.824,94.162 45.359,93.571 43.616 C 92.981 41.873,91.033 35.918,89.244 30.382 C 87.455 24.846,85.743 19.933,85.440 19.463 C 84.184 17.515,80.448 16.152,78.015 16.753 M360.351 156.822 C 358.599 159.041,356.864 161.192,356.495 161.600 C 356.127 162.008,355.427 162.931,354.942 163.650 C 354.456 164.370,353.829 165.210,353.548 165.517 C 353.268 165.825,352.016 167.377,350.767 168.966 C 349.517 170.555,348.423 171.855,348.335 171.855 C 348.168 171.855,349.460 170.088,352.283 166.456 C 354.748 163.286,355.639 162.131,357.502 159.696 C 358.425 158.489,359.369 157.335,359.600 157.130 C 359.830 156.925,360.166 156.481,360.345 156.144 C 360.821 155.250,363.234 152.485,363.396 152.648 C 363.473 152.724,362.102 154.602,360.351 156.822 M347.284 173.374 C 346.753 174.005,346.319 174.670,346.319 174.852 C 346.319 175.034,345.946 175.383,345.490 175.627 C 344.915 175.935,345.154 175.483,346.271 174.149 C 347.155 173.092,347.962 172.227,348.064 172.227 C 348.166 172.227,347.815 172.744,347.284 173.374 M344.608 176.794 C 343.862 178.114,342.500 179.682,342.106 179.675 C 341.860 179.670,342.005 179.377,342.428 179.022 C 342.852 178.668,343.485 177.917,343.835 177.353 C 344.455 176.355,345.134 175.864,344.608 176.794 M339.657 183.300 C 338.405 184.899,337.037 186.626,336.618 187.139 C 336.199 187.651,335.516 188.490,335.101 189.003 L 334.345 189.935 335.012 188.816 C 335.379 188.201,336.701 186.440,337.950 184.902 C 339.198 183.364,340.524 181.640,340.897 181.069 C 341.269 180.499,341.655 180.114,341.754 180.213 C 341.853 180.312,340.910 181.701,339.657 183.300 M334.201 190.406 C 333.995 190.557,333.357 191.309,332.784 192.078 C 332.211 192.847,331.541 193.473,331.295 193.468 C 331.049 193.463,331.194 193.170,331.618 192.816 C 332.041 192.461,332.674 191.710,333.024 191.146 C 333.375 190.582,333.867 190.124,334.119 190.127 C 334.405 190.130,334.436 190.235,334.201 190.406 M329.154 196.631 C 327.311 198.902,326.035 200.145,327.555 198.188 C 327.931 197.704,328.826 196.548,329.543 195.620 C 330.261 194.691,330.912 193.990,330.990 194.062 C 331.067 194.135,330.241 195.291,329.154 196.631 M326.934 199.614 C 326.934 199.710,326.473 200.286,325.909 200.895 C 325.345 201.503,324.583 202.390,324.215 202.865 C 323.566 203.701,323.566 203.694,324.195 202.610 C 325.034 201.164,326.934 199.086,326.934 199.614 M322.254 205.592 C 321.498 206.514,320.821 207.269,320.749 207.269 C 320.507 207.269,322.502 204.492,322.949 204.208 C 323.743 203.703,323.649 203.889,322.254 205.592 M319.266 209.320 C 318.719 210.037,318.187 210.624,318.083 210.624 C 317.899 210.624,318.354 209.962,319.426 208.667 C 320.405 207.485,320.282 207.988,319.266 209.320 M308.209 223.459 C 307.748 224.162,307.309 224.675,307.233 224.599 C 307.079 224.445,308.623 222.181,308.882 222.181 C 308.973 222.181,308.670 222.756,308.209 223.459 M189.003 353.029 C 189.441 353.644,189.715 354.147,189.613 354.147 C 189.510 354.147,189.068 353.644,188.630 353.029 C 188.192 352.414,187.918 351.911,188.020 351.911 C 188.123 351.911,188.565 352.414,189.003 353.029 " stroke="none" fill="#f16927" fill-rule="evenodd"></path><path id="path1" d="M0.000 186.393 L 0.000 372.787 200.000 372.787 L 400.000 372.787 400.000 186.393 L 400.000 0.000 200.000 0.000 L 0.000 0.000 0.000 186.393 M83.143 17.241 C 85.961 18.665,85.640 17.884,93.746 43.057 C 95.529 48.593,97.467 54.548,98.053 56.291 C 98.639 58.034,100.366 63.318,101.891 68.034 C 107.705 86.017,110.902 95.861,113.152 102.703 C 114.433 106.598,116.944 114.315,118.732 119.851 C 120.520 125.387,122.721 132.181,123.624 134.949 C 124.527 137.717,125.991 142.246,126.878 145.014 L 128.492 150.047 197.838 150.141 L 267.185 150.235 268.316 146.972 C 268.938 145.178,270.814 139.432,272.486 134.203 C 274.157 128.975,276.005 123.271,276.591 121.528 C 277.177 119.786,279.195 113.579,281.075 107.735 C 282.954 101.892,284.889 95.937,285.374 94.501 C 285.859 93.066,287.712 87.363,289.493 81.827 C 291.274 76.291,293.879 68.239,295.282 63.933 C 296.684 59.627,299.105 52.162,300.661 47.344 C 302.217 42.526,303.970 37.158,304.556 35.415 C 305.142 33.672,306.501 29.495,307.577 26.133 C 310.182 17.991,311.577 16.403,316.123 16.403 C 318.546 16.403,320.131 17.079,321.582 18.731 C 322.814 20.135,323.034 20.670,325.378 27.959 C 329.643 41.224,335.677 59.836,336.618 62.628 C 337.205 64.371,339.136 70.326,340.908 75.862 C 342.680 81.398,344.609 87.353,345.194 89.096 C 345.780 90.839,347.714 96.794,349.493 102.330 C 351.272 107.866,353.207 113.821,353.792 115.564 C 354.378 117.307,356.230 123.010,357.907 128.239 C 359.585 133.467,361.922 140.680,363.101 144.268 C 364.279 147.856,366.697 155.322,368.473 160.857 C 370.250 166.393,372.182 172.349,372.767 174.091 C 373.352 175.834,374.506 179.357,375.331 181.920 C 376.155 184.483,378.762 192.535,381.123 199.814 C 386.603 216.707,386.654 216.895,386.642 220.075 C 386.618 226.298,384.631 229.063,375.462 235.638 C 371.353 238.584,366.723 241.944,359.332 247.344 C 356.806 249.189,354.312 250.982,353.791 251.328 C 353.269 251.674,349.404 254.487,345.200 257.577 C 340.997 260.668,335.126 264.951,332.153 267.095 C 329.180 269.238,324.902 272.341,322.647 273.990 C 320.391 275.638,316.114 278.748,313.141 280.901 C 310.168 283.053,305.951 286.113,303.770 287.701 C 301.589 289.288,293.813 294.949,286.489 300.280 C 279.166 305.610,271.137 311.451,268.647 313.259 C 263.668 316.874,255.268 322.975,252.253 325.165 C 251.193 325.936,249.404 327.232,248.276 328.047 C 247.148 328.862,244.436 330.832,242.250 332.425 C 240.063 334.018,230.501 340.975,221.001 347.885 C 211.501 354.795,202.470 361.377,200.932 362.511 C 199.394 363.645,197.920 364.495,197.655 364.399 C 197.266 364.258,181.654 353.039,175.363 348.380 C 171.132 345.246,163.043 339.355,162.296 338.863 C 161.437 338.297,149.508 329.611,143.336 325.057 C 141.491 323.696,136.064 319.745,131.276 316.277 C 126.488 312.809,120.784 308.671,118.601 307.082 C 116.418 305.492,112.954 302.974,110.904 301.486 C 108.854 299.998,98.654 292.576,88.239 284.992 C 77.823 277.407,68.429 270.574,67.363 269.806 C 62.615 266.386,60.914 265.151,50.302 257.409 C 31.979 244.042,31.256 243.516,28.145 241.301 C 25.253 239.242,20.858 236.031,15.453 232.027 C 10.946 228.689,9.147 225.300,9.139 220.130 C 9.133 216.713,10.726 211.276,18.257 189.003 C 19.254 186.053,26.480 163.800,29.878 153.215 C 30.700 150.652,31.845 147.130,32.421 145.387 C 32.997 143.644,34.841 137.940,36.518 132.712 C 38.196 127.484,40.051 121.780,40.641 120.037 C 41.230 118.295,43.157 112.339,44.923 106.803 C 46.688 101.267,48.616 95.312,49.207 93.569 C 49.798 91.827,51.642 86.123,53.305 80.895 C 54.967 75.666,56.810 69.963,57.399 68.220 C 57.989 66.477,59.926 60.522,61.705 54.986 C 70.617 27.247,73.008 20.141,73.801 19.028 C 75.601 16.499,80.006 15.657,83.143 17.241 " stroke="none" fill="#fcfbfb" fill-rule="evenodd"></path><path id="path2" d="M382.275 230.103 L 380.801 231.687 382.386 230.213 C 383.859 228.843,384.141 228.518,383.859 228.518 C 383.799 228.518,383.086 229.231,382.275 230.103 M378.938 232.838 L 377.819 233.799 379.031 232.997 C 379.697 232.556,380.242 232.123,380.242 232.034 C 380.242 231.755,380.084 231.852,378.938 232.838 M336.626 263.606 C 335.327 264.745,335.327 264.746,336.522 263.951 C 337.182 263.512,337.821 262.993,337.942 262.797 C 338.301 262.215,338.003 262.399,336.626 263.606 M325.629 271.608 L 324.511 272.569 325.722 271.767 C 326.389 271.326,326.934 270.893,326.934 270.804 C 326.934 270.525,326.776 270.622,325.629 271.608 M245.107 330.135 L 243.989 331.096 245.200 330.294 C 245.867 329.853,246.412 329.420,246.412 329.332 C 246.412 329.053,246.254 329.150,245.107 330.135 " stroke="none" fill="#f8c9a6" fill-rule="evenodd"></path><path id="path3" d="M30.610 151.766 C 30.380 152.424,30.258 153.029,30.337 153.108 C 30.417 153.188,30.670 152.714,30.900 152.056 C 31.130 151.397,31.252 150.792,31.172 150.713 C 31.093 150.633,30.840 151.107,30.610 151.766 M364.009 151.436 C 363.619 151.902,363.539 152.074,363.831 151.817 C 364.676 151.075,364.825 151.227,365.470 153.495 C 365.806 154.674,366.263 155.890,366.486 156.198 C 366.847 156.695,366.873 156.695,366.721 156.198 C 366.627 155.890,366.278 154.716,365.944 153.588 C 365.077 150.658,364.860 150.416,364.009 151.436 M361.964 154.021 C 361.253 154.852,360.524 155.808,360.345 156.144 C 360.166 156.481,359.830 156.925,359.600 157.130 C 359.369 157.335,358.425 158.489,357.502 159.696 C 355.639 162.131,354.748 163.286,352.283 166.456 C 349.460 170.088,348.168 171.855,348.335 171.855 C 348.423 171.855,349.517 170.555,350.767 168.966 C 352.016 167.377,353.268 165.825,353.548 165.517 C 353.829 165.210,354.456 164.370,354.942 163.650 C 355.427 162.931,356.127 162.008,356.495 161.600 C 358.039 159.891,363.524 152.775,363.396 152.648 C 363.320 152.572,362.676 153.189,361.964 154.021 M28.726 157.418 C 28.250 158.899,27.774 160.363,27.668 160.671 C 27.539 161.047,27.601 161.108,27.856 160.857 C 28.274 160.446,29.951 155.083,29.730 154.862 C 29.654 154.786,29.202 155.936,28.726 157.418 M367.223 158.229 C 367.171 158.882,369.160 164.962,369.299 164.577 C 369.375 164.367,368.945 162.773,368.344 161.035 C 367.743 159.297,367.238 158.034,367.223 158.229 M25.755 166.672 C 25.503 167.515,25.200 168.480,25.082 168.818 C 24.940 169.222,24.992 169.304,25.232 169.059 C 25.656 168.625,26.593 165.518,26.367 165.292 C 26.283 165.208,26.008 165.829,25.755 166.672 M370.205 167.527 C 370.151 168.170,371.742 173.164,372.118 173.532 C 372.553 173.959,372.412 173.426,371.102 169.680 C 370.624 168.313,370.220 167.344,370.205 167.527 M23.134 174.566 C 22.658 176.048,22.182 177.512,22.076 177.819 C 21.945 178.201,22.009 178.260,22.278 178.006 C 22.707 177.599,24.372 172.244,24.142 172.014 C 24.064 171.936,23.610 173.084,23.134 174.566 M346.271 174.149 C 345.154 175.483,344.915 175.935,345.490 175.627 C 345.946 175.383,346.319 175.034,346.319 174.852 C 346.319 174.670,346.753 174.005,347.284 173.374 C 347.815 172.744,348.166 172.227,348.064 172.227 C 347.962 172.227,347.155 173.092,346.271 174.149 M372.853 175.955 C 372.955 176.263,373.357 177.647,373.747 179.031 C 374.136 180.415,374.570 181.547,374.710 181.547 C 375.009 181.547,373.353 176.011,372.944 175.644 C 372.792 175.508,372.751 175.648,372.853 175.955 M343.660 177.633 C 343.236 178.350,342.739 178.938,342.554 178.938 C 342.369 178.938,342.218 179.131,342.218 179.368 C 342.218 179.632,342.470 179.570,342.870 179.207 C 343.620 178.527,344.979 176.328,344.650 176.328 C 344.529 176.328,344.083 176.915,343.660 177.633 M340.897 181.069 C 340.524 181.640,339.198 183.364,337.950 184.902 C 336.701 186.440,335.379 188.201,335.012 188.816 L 334.345 189.935 335.101 189.003 C 335.516 188.490,336.199 187.651,336.618 187.139 C 339.476 183.643,341.906 180.366,341.754 180.213 C 341.655 180.114,341.269 180.499,340.897 181.069 M19.997 184.210 C 19.655 185.269,19.444 186.204,19.529 186.288 C 19.613 186.373,19.968 185.581,20.317 184.529 C 20.666 183.478,20.877 182.542,20.786 182.451 C 20.694 182.359,20.339 183.151,19.997 184.210 M375.424 183.646 C 375.379 184.317,377.755 191.433,377.889 191.030 C 377.956 190.830,377.435 188.992,376.732 186.945 C 376.028 184.899,375.440 183.414,375.424 183.646 M17.730 191.157 C 17.149 192.945,16.589 194.660,16.484 194.967 C 16.354 195.347,16.417 195.407,16.681 195.154 C 17.103 194.748,19.146 188.267,18.923 188.043 C 18.847 187.968,18.311 189.369,17.730 191.157 M332.849 191.426 C 332.426 192.144,331.928 192.731,331.743 192.731 C 331.558 192.731,331.413 192.940,331.419 193.197 C 331.430 193.623,331.923 193.137,333.734 190.917 C 334.090 190.479,334.210 190.121,334.001 190.121 C 333.791 190.121,333.272 190.708,332.849 191.426 M329.543 195.620 C 328.826 196.548,327.931 197.704,327.555 198.188 C 327.179 198.672,326.940 199.068,327.024 199.068 C 327.284 199.068,331.139 194.202,330.990 194.062 C 330.912 193.990,330.261 194.691,329.543 195.620 M378.782 194.035 C 378.746 194.618,379.790 197.882,380.243 198.605 C 380.580 199.142,380.606 199.094,380.392 198.322 C 379.921 196.626,378.806 193.656,378.782 194.035 M14.753 200.331 C 14.423 201.467,14.047 202.695,13.918 203.062 C 13.762 203.504,13.808 203.602,14.054 203.355 C 14.467 202.939,15.723 198.637,15.497 198.411 C 15.418 198.332,15.083 199.196,14.753 200.331 M325.815 200.440 C 324.989 201.314,324.974 201.378,325.678 201.003 C 326.116 200.770,326.572 200.324,326.692 200.010 C 326.984 199.249,326.904 199.288,325.815 200.440 M380.639 199.642 C 380.597 200.321,382.950 207.472,383.088 207.083 C 383.160 206.878,382.645 205.033,381.942 202.982 C 381.238 200.932,380.652 199.429,380.639 199.642 M322.949 204.208 C 322.502 204.492,320.507 207.269,320.749 207.269 C 320.821 207.269,321.498 206.514,322.254 205.592 C 323.649 203.889,323.743 203.703,322.949 204.208 M11.913 209.016 C 11.452 210.413,10.990 211.808,10.888 212.116 C 10.760 212.498,10.826 212.557,11.094 212.302 C 11.539 211.879,13.140 206.865,12.905 206.630 C 12.820 206.545,12.374 207.619,11.913 209.016 M319.426 208.667 C 318.354 209.962,317.899 210.624,318.083 210.624 C 318.187 210.624,318.719 210.037,319.266 209.320 C 320.282 207.988,320.405 207.485,319.426 208.667 M383.998 210.046 C 383.946 210.700,385.935 216.780,386.075 216.394 C 386.150 216.184,385.721 214.591,385.119 212.853 C 384.518 211.115,384.014 209.852,383.998 210.046 M9.474 216.682 C 9.011 218.700,9.208 222.667,9.839 224.053 C 10.164 224.766,10.306 224.930,10.155 224.418 C 10.003 223.905,9.879 221.682,9.879 219.478 C 9.879 215.032,9.869 214.961,9.474 216.682 M386.293 218.453 C 386.293 219.171,386.370 219.464,386.464 219.105 C 386.558 218.747,386.558 218.159,386.464 217.801 C 386.370 217.442,386.293 217.735,386.293 218.453 M386.293 221.435 C 386.293 222.153,386.370 222.446,386.464 222.088 C 386.558 221.729,386.558 221.142,386.464 220.783 C 386.370 220.424,386.293 220.718,386.293 221.435 M307.906 223.321 C 307.460 223.948,307.157 224.523,307.233 224.599 C 307.309 224.675,307.748 224.162,308.209 223.459 C 309.248 221.874,309.013 221.767,307.906 223.321 M384.634 226.207 C 383.872 227.786,383.575 228.658,383.974 228.145 C 384.890 226.970,386.281 224.075,386.133 223.654 C 386.071 223.480,385.397 224.628,384.634 226.207 M11.389 227.586 C 12.214 229.035,13.692 230.628,15.098 231.582 C 15.778 232.044,15.486 231.629,14.352 230.523 C 13.327 229.523,12.098 228.201,11.621 227.586 L 10.753 226.468 11.389 227.586 M382.273 229.668 C 382.058 230.016,376.454 234.315,374.053 235.974 C 373.205 236.560,370.294 238.660,366.822 241.192 C 365.694 242.014,363.975 243.229,363.001 243.891 C 362.027 244.553,361.230 245.244,361.230 245.426 C 361.230 245.609,361.440 245.592,361.696 245.390 C 361.952 245.188,365.014 242.957,368.500 240.431 C 380.429 231.787,383.648 229.264,382.745 229.264 C 382.623 229.264,382.411 229.446,382.273 229.668 M16.403 232.373 C 16.403 232.468,18.835 234.314,21.808 236.476 C 24.781 238.638,27.213 240.271,27.213 240.104 C 27.213 239.937,26.500 239.331,25.629 238.756 C 24.758 238.182,22.535 236.593,20.690 235.226 C 17.103 232.569,16.403 232.103,16.403 232.373 M27.773 240.696 C 27.978 240.909,29.487 242.054,31.128 243.240 C 32.768 244.427,34.320 245.563,34.576 245.765 C 34.832 245.966,35.042 246.033,35.042 245.913 C 35.042 245.794,33.826 244.797,32.339 243.699 C 29.468 241.578,27.154 240.056,27.773 240.696 M356.835 248.477 C 354.742 250.022,353.029 251.384,353.029 251.503 C 353.029 251.622,353.574 251.308,354.240 250.805 C 354.907 250.303,356.668 249.011,358.155 247.935 C 360.523 246.222,361.158 245.666,360.749 245.666 C 360.690 245.666,358.928 246.931,356.835 248.477 M35.415 246.181 C 35.415 246.318,56.225 261.545,57.782 262.548 C 59.152 263.430,56.136 260.958,53.822 259.303 C 52.412 258.294,49.916 256.483,48.276 255.280 C 46.636 254.076,43.532 251.798,41.379 250.218 C 37.097 247.075,35.415 245.936,35.415 246.181 M350.084 253.308 C 348.833 254.231,346.761 255.761,345.480 256.709 C 344.199 257.656,342.953 258.508,342.713 258.602 C 342.472 258.695,342.189 258.999,342.082 259.276 C 341.976 259.554,344.311 258.016,347.272 255.858 C 350.233 253.700,352.656 251.867,352.656 251.783 C 352.656 251.464,352.289 251.681,350.084 253.308 M336.565 263.121 C 334.174 264.900,330.261 267.782,327.869 269.525 C 325.478 271.267,323.324 272.940,323.084 273.242 C 322.844 273.544,323.150 273.417,323.765 272.961 C 324.380 272.504,325.974 271.344,327.307 270.384 C 338.375 262.409,341.813 259.818,341.267 259.860 C 341.073 259.875,338.957 261.342,336.565 263.121 M58.654 263.091 C 58.850 263.407,63.686 266.997,68.220 270.191 L 69.525 271.110 68.359 270.038 C 66.271 268.117,58.182 262.327,58.654 263.091 M69.711 271.156 C 69.711 271.257,71.473 272.608,73.625 274.159 C 75.778 275.709,77.540 276.899,77.540 276.804 C 77.540 276.635,71.125 271.789,70.177 271.241 C 69.921 271.093,69.711 271.054,69.711 271.156 M319.795 275.367 C 316.990 277.432,314.331 279.368,312.022 281.026 C 311.100 281.689,308.416 283.643,306.058 285.368 C 303.700 287.093,301.016 289.047,300.093 289.710 C 297.465 291.599,294.822 293.515,293.198 294.710 C 292.379 295.313,291.141 296.193,290.447 296.666 C 289.754 297.139,288.966 297.726,288.697 297.971 C 288.428 298.216,287.007 299.254,285.540 300.280 C 283.331 301.823,279.288 305.120,281.081 303.915 C 281.512 303.626,302.873 288.150,320.690 275.220 C 322.296 274.054,322.732 273.625,322.311 273.625 C 322.229 273.625,321.096 274.409,319.795 275.367 M77.912 277.120 C 77.912 277.221,78.416 277.661,79.031 278.099 C 79.646 278.537,80.149 278.752,80.149 278.577 C 80.149 278.403,79.646 277.962,79.031 277.599 C 78.416 277.236,77.912 277.020,77.912 277.120 M81.081 279.488 C 81.434 279.833,86.785 283.750,87.978 284.537 C 88.285 284.740,88.008 284.423,87.362 283.832 C 85.387 282.028,79.543 277.985,81.081 279.488 M88.723 284.914 C 88.723 285.013,89.333 285.558,90.078 286.127 C 90.823 286.695,91.366 286.958,91.283 286.711 C 91.135 286.265,88.723 284.573,88.723 284.914 M92.451 287.752 C 92.964 288.174,94.138 289.040,95.061 289.676 L 96.738 290.833 95.288 289.548 C 94.491 288.842,93.317 287.976,92.679 287.624 L 91.519 286.983 92.451 287.752 M96.925 290.895 C 96.925 290.984,97.509 291.504,98.223 292.048 C 98.937 292.593,99.435 292.814,99.330 292.539 C 99.149 292.067,96.925 290.546,96.925 290.895 M100.028 293.230 C 100.765 294.044,110.177 300.737,110.345 300.567 C 110.447 300.463,110.215 300.189,109.829 299.956 C 109.137 299.541,106.361 297.557,102.703 294.865 C 100.702 293.392,99.521 292.671,100.028 293.230 M110.718 300.973 C 110.718 301.071,111.934 302.032,113.420 303.108 C 114.907 304.184,116.668 305.475,117.335 305.978 C 118.001 306.481,118.546 306.800,118.546 306.687 C 118.546 306.575,116.994 305.325,115.098 303.910 C 111.402 301.152,110.718 300.694,110.718 300.973 M276.070 307.160 C 273.897 308.791,271.624 310.418,271.020 310.775 C 270.415 311.132,269.836 311.646,269.731 311.918 C 269.627 312.190,270.838 311.452,272.422 310.279 C 274.007 309.105,276.348 307.413,277.625 306.519 C 279.736 305.040,280.674 304.194,280.201 304.194 C 280.103 304.194,278.244 305.529,276.070 307.160 M118.919 306.921 C 118.919 307.088,127.120 313.120,132.339 316.791 L 133.644 317.708 132.469 316.636 C 131.823 316.046,130.733 315.180,130.046 314.710 C 129.359 314.240,126.966 312.506,124.727 310.856 C 120.006 307.377,118.919 306.640,118.919 306.921 M265.574 314.830 C 263.749 316.169,261.459 317.802,260.485 318.459 C 259.511 319.115,258.714 319.802,258.714 319.984 C 258.714 320.166,258.924 320.149,259.180 319.947 C 259.436 319.744,261.659 318.107,264.119 316.309 C 268.819 312.875,269.429 312.395,269.097 312.395 C 268.985 312.395,267.399 313.491,265.574 314.830 M133.929 317.844 C 134.046 318.034,134.940 318.762,135.915 319.463 C 136.891 320.163,137.567 320.539,137.418 320.299 C 137.269 320.058,136.375 319.329,135.431 318.680 C 134.488 318.030,133.811 317.654,133.929 317.844 M254.267 323.018 C 252.202 324.555,250.513 325.917,250.513 326.046 C 250.513 326.174,250.722 326.115,250.979 325.914 C 251.235 325.712,252.781 324.560,254.415 323.352 C 258.236 320.527,258.579 320.250,258.275 320.236 C 258.135 320.229,256.332 321.481,254.267 323.018 M138.863 321.502 C 139.478 322.014,142.917 324.565,146.505 327.170 C 156.369 334.334,161.102 337.784,162.442 338.789 C 163.108 339.288,163.653 339.549,163.653 339.367 C 163.653 339.186,162.856 338.496,161.883 337.833 C 160.909 337.171,159.189 335.956,158.062 335.134 C 156.934 334.312,155.089 332.974,153.961 332.160 C 152.833 331.346,151.240 330.178,150.419 329.563 C 149.599 328.949,148.509 328.152,147.996 327.793 C 147.484 327.434,145.471 325.960,143.523 324.519 C 141.575 323.078,139.478 321.600,138.863 321.235 L 137.745 320.571 138.863 321.502 M247.567 327.866 C 243.579 330.808,240.940 332.700,240.218 333.134 C 239.831 333.367,239.600 333.647,239.703 333.757 C 239.857 333.921,245.284 330.107,249.394 326.946 C 251.319 325.466,249.747 326.257,247.567 327.866 M238.201 334.696 C 236.142 336.063,231.500 339.627,231.500 339.842 C 231.500 339.967,232.046 339.659,232.712 339.156 C 233.378 338.653,235.140 337.362,236.626 336.286 C 238.113 335.210,239.329 334.259,239.329 334.173 C 239.329 333.959,239.273 333.985,238.201 334.696 M164.026 339.747 C 164.026 339.903,167.110 342.202,170.736 344.750 L 172.041 345.667 170.878 344.595 C 169.070 342.928,164.026 339.359,164.026 339.747 M229.995 340.661 C 229.474 341.005,228.468 341.717,227.758 342.243 C 227.048 342.770,224.874 344.366,222.926 345.790 C 220.979 347.214,218.882 348.753,218.267 349.209 C 217.651 349.666,216.309 350.633,215.284 351.358 C 214.259 352.083,212.414 353.427,211.184 354.345 C 209.953 355.263,208.150 356.531,207.176 357.163 C 206.202 357.795,205.405 358.472,205.405 358.667 C 205.405 358.863,206.622 358.125,208.108 357.029 C 209.595 355.932,215.382 351.719,220.969 347.666 C 229.569 341.428,231.686 339.818,231.034 340.009 C 230.983 340.024,230.515 340.317,229.995 340.661 M172.227 345.684 C 172.227 345.792,174.031 347.186,176.235 348.781 C 178.439 350.377,180.788 352.089,181.454 352.586 C 182.120 353.083,182.665 353.339,182.665 353.154 C 182.665 352.968,182.204 352.542,181.640 352.206 C 181.076 351.871,179.117 350.477,177.287 349.109 C 173.415 346.215,172.227 345.412,172.227 345.684 M188.630 353.029 C 189.068 353.644,189.510 354.147,189.613 354.147 C 189.715 354.147,189.441 353.644,189.003 353.029 C 188.565 352.414,188.123 351.911,188.020 351.911 C 187.918 351.911,188.192 352.414,188.630 353.029 M183.616 354.092 C 183.811 354.267,185.312 355.381,186.952 356.568 C 188.593 357.755,190.144 358.890,190.401 359.092 C 190.657 359.293,190.867 359.361,190.867 359.244 C 190.867 358.978,183.879 353.774,183.522 353.774 C 183.379 353.774,183.421 353.917,183.616 354.092 M201.505 361.417 C 199.718 362.749,198.381 363.840,198.535 363.840 C 198.780 363.840,203.876 360.175,204.828 359.314 C 205.987 358.265,204.301 359.332,201.505 361.417 M191.240 359.472 C 191.240 359.570,191.849 360.116,192.594 360.684 C 193.340 361.252,193.882 361.515,193.800 361.268 C 193.651 360.822,191.240 359.130,191.240 359.472 M195.155 361.573 C 195.393 361.982,195.300 362.041,194.749 361.831 C 193.896 361.506,194.196 361.789,196.459 363.441 L 198.136 364.667 196.831 363.430 C 196.114 362.749,195.527 362.074,195.527 361.929 C 195.527 361.784,195.374 361.525,195.187 361.354 C 194.986 361.170,194.973 361.259,195.155 361.573 " stroke="none" fill="#fcc26e" fill-rule="evenodd"></path><path id="path4" d="M309.081 21.663 C 308.852 22.322,308.729 22.926,308.809 23.006 C 308.889 23.086,309.142 22.612,309.371 21.953 C 309.601 21.294,309.724 20.690,309.644 20.610 C 309.564 20.530,309.311 21.004,309.081 21.663 M87.284 24.231 C 87.284 24.539,87.429 25.126,87.605 25.536 C 87.807 26.006,87.925 26.075,87.925 25.722 C 87.925 25.415,87.781 24.828,87.605 24.418 C 87.403 23.948,87.284 23.879,87.284 24.231 M111.895 100.093 C 111.894 100.298,112.119 101.053,112.395 101.771 C 112.672 102.488,112.903 102.824,112.909 102.516 C 112.916 102.209,112.690 101.454,112.409 100.839 C 112.127 100.224,111.896 99.888,111.895 100.093 M362.021 142.032 C 362.015 142.339,362.240 143.094,362.521 143.709 C 363.181 145.149,363.190 144.479,362.535 142.777 C 362.259 142.060,362.027 141.724,362.021 142.032 M126.216 144.268 C 126.353 144.781,126.620 145.452,126.810 145.760 C 127.050 146.148,127.080 146.034,126.907 145.387 C 126.769 144.874,126.502 144.203,126.312 143.896 C 126.072 143.507,126.042 143.621,126.216 144.268 M267.724 149.095 L 267.327 150.231 197.690 150.327 L 128.052 150.422 197.758 150.421 L 267.464 150.419 267.969 149.366 C 268.247 148.787,268.394 148.233,268.297 148.135 C 268.199 148.038,267.941 148.470,267.724 149.095 " stroke="none" fill="#f09c8c" fill-rule="evenodd"></path></g></svg>
