<svg width="200" height="200" viewBox="0 0 200 200" fill="none" xmlns="http://www.w3.org/2000/svg">
<path fill-rule="evenodd" clip-rule="evenodd" d="M99.5624 169.364C114.705 169.455 128.747 164.665 140.208 156.472C142.699 154.688 146.121 155 148.289 157.171C151.033 159.923 150.686 164.499 147.524 166.758C133.797 176.574 116.94 182.259 98.766 181.991C54.5964 181.339 18.6584 145.346 18.0079 101.108C18 100.697 18 100.286 18 99.8757H30.6154V100.31C30.848 138.199 61.732 169.131 99.5624 169.364ZM166.822 147.419C164.551 150.605 159.974 151.008 157.211 148.24V148.244C155.046 146.076 154.727 142.653 156.505 140.157C164.61 128.786 169.385 114.88 169.385 99.8757H182C182 117.58 176.374 133.994 166.822 147.419Z" fill="#4285F4"/>
<path fill-rule="evenodd" clip-rule="evenodd" d="M106.789 18.0212C103.13 17.7211 100 20.643 100 24.3229C100 27.5882 102.484 30.3442 105.732 30.6127C141.319 33.5424 169.385 63.4833 169.385 99.8719H182C182 56.8736 148.841 21.4919 106.789 18.0212ZM156.769 99.8718C156.769 70.922 135.055 46.9591 107.084 43.4569C103.323 42.987 100 45.9286 100 49.7269C100 52.9409 102.409 55.6022 105.586 56.0049C127.304 58.7649 144.154 77.3856 144.154 99.8758H156.769V99.8718ZM107.62 69.2163C121.342 72.6393 131.537 85.0828 131.538 99.8679H118.923C118.923 91.0471 112.872 83.6123 104.711 81.5117C101.959 80.8049 100 78.3806 100 75.5378V75.1745C100 71.1787 103.749 68.249 107.62 69.2163Z" fill="#FBBC04"/>
<path fill-rule="evenodd" clip-rule="evenodd" d="M98.9039 156.717C109.852 156.926 120.117 154.008 128.877 148.804C132.402 146.712 132.977 141.832 130.08 138.929C128.034 136.88 124.868 136.509 122.376 137.982C115.347 142.136 107.076 144.398 98.2653 144.059C75.3408 143.174 56.7607 124.565 55.8776 101.605C55.8539 101.025 55.8461 100.444 55.8461 99.8678H43.2307C43.2307 100.235 43.2307 100.598 43.2425 100.965C43.8181 131.38 68.5363 156.137 98.9039 156.713V156.717ZM156.765 99.8718H144.154C144.154 108.041 141.93 115.697 138.059 122.271C136.585 124.77 136.947 127.945 138.997 129.998C141.895 132.9 146.768 132.32 148.857 128.79C153.879 120.313 156.765 110.422 156.765 99.8718ZM101.451 118.769C110.703 118.07 118.174 110.592 118.868 101.325L118.86 101.329C118.895 100.839 118.915 100.353 118.915 99.8718H131.531C131.531 117.853 116.455 132.371 98.3009 131.416C81.8733 130.551 68.7612 116.929 68.4615 100.456C68.4576 100.259 68.4576 100.065 68.4576 99.8718H81.073C81.073 110.801 90.365 119.602 101.451 118.769Z" fill="#34A853"/>
<path d="M104.459 95.4022L35.0741 25.9101C32.6102 23.4423 28.6166 23.4423 26.1527 25.9101C23.6887 28.3779 23.6887 32.3776 26.1527 34.8454L37.7549 46.4656C25.447 60.8338 18 79.498 18 99.8718H30.6154C30.6154 82.9845 36.6668 67.483 46.7039 55.4285L55.6648 64.4032C47.8866 74.1321 43.2308 86.467 43.2308 99.8718H55.8461C55.8461 89.9534 59.1222 80.7852 64.6493 73.4016L73.6969 82.4633C70.3893 87.458 68.4576 93.4399 68.4576 99.8679H81.073C81.073 96.946 81.7392 94.1743 82.9219 91.7026L95.5373 104.337C96.7673 105.569 98.3836 106.189 99.996 106.189C101.608 106.189 103.225 105.573 104.455 104.337C106.919 101.87 106.919 97.87 104.455 95.4022H104.459Z" fill="#EA4335"/>
</svg>
