<svg xmlns="http://www.w3.org/2000/svg" width="20" height="20">
  <path d="M20 10c0 5.523-4.477 10-10 10S0 15.523 0 10 4.477 0 10 0s10 4.477 10 10Zm0 0" fill="#6df" fill-rule="nonzero" fill-opacity="1"/>
  <path d="M10 0c5.523 0 10 4.477 10 10s-4.477 10-10 10S0 15.523 0 10 4.477 0 10 0Zm2.938 14.5H7.061c.653 2.414 1.786 4 2.938 4 1.156 0 2.29-1.586 2.941-4Zm-7.43 0H2.785a8.566 8.566 0 0 0 4.094 3.41c-.52-.82-.953-1.848-1.27-3.015Zm11.707 0h-2.723c-.324 1.332-.793 2.496-1.375 3.41a8.543 8.543 0 0 0 3.91-3.129ZM5.094 8H1.738l-.008.02A8.483 8.483 0 0 0 1.5 10c0 1.059.191 2.066.543 3h3.172C5.075 12.05 5 11.043 5 10c0-.684.031-1.352.094-2Zm8.304 0H6.602a19.41 19.41 0 0 0 .136 5h6.524a19.41 19.41 0 0 0 .137-5Zm4.864 0h-3.356c.063.648.094 1.316.094 2 0 1.043-.074 2.05-.219 3h3.172a8.398 8.398 0 0 0 .547-3c0-.688-.082-1.36-.238-2ZM6.882 2.09l-.023.008A8.547 8.547 0 0 0 2.25 6.5h3.047c.312-1.754.86-3.277 1.582-4.41ZM10 1.5l-.117.004C8.617 1.62 7.398 3.62 6.828 6.5h6.344c-.57-2.871-1.785-4.867-3.047-4.996Zm3.121.59.106.176c.668 1.109 1.175 2.57 1.472 4.234h3.051a8.555 8.555 0 0 0-4.34-4.29Zm0 0" fill="#225086" fill-rule="nonzero" fill-opacity="1"/>
  <path d="M10 0a30.898 30.898 0 0 1 1.66 10c0 4.293-.89 7.754-1.66 10 5.484 0 10-4.516 10-10 0-5.523-4.477-10-10-10Zm0 0" fill="#0294e4" fill-rule="nonzero" fill-opacity="1"/>
</svg>
