<?xml version="1.0" encoding="UTF-8"?>
<svg xmlns="http://www.w3.org/2000/svg" xmlns:xlink="http://www.w3.org/1999/xlink" version="1.1" viewBox="0 0 71 70">
  <defs>
    <style>
      .cls-1 {
        fill: url(#linear-gradient);
        fill-rule: evenodd;
      }
    </style>
    <linearGradient id="linear-gradient" x1="35.5" y1="71.5" x2="35.5" y2="2.5" gradientTransform="translate(0 72) scale(1 -1)" gradientUnits="userSpaceOnUse">
      <stop offset="0" stop-color="#ffac2f"/>
      <stop offset=".6" stop-color="#ff8139"/>
      <stop offset="1" stop-color="#f44545"/>
    </linearGradient>
  </defs>
  <!-- Generator: Adobe Illustrator 28.6.0, SVG Export Plug-In . SVG Version: 1.2.0 Build 709)  -->
  <g>
    <g id="Layer_1">
      <path class="cls-1" d="M66.7,33.9c1.1-.5,2.1-.9,3.2-1.3C68.8,14.7,53.8.5,35.5.5S2.1,14.7,1,32.7c1,.3,2.1.7,3.1,1.2,3.6,1.8,7.1,1.8,10.7,0,5-2.5,10.2-2.5,15.2,0,3.6,1.8,7.1,1.8,10.7,0,5-2.5,10.2-2.5,15.2,0,3.6,1.8,7.1,1.8,10.7,0ZM69,38.4c.3-.1.6-.3.9-.4-.2,2.3-.6,4.6-1.3,6.7-.6.2-1.3.5-1.9.8-3.6,1.8-7.1,1.8-10.7,0-5-2.5-10.2-2.5-15.2,0-3.6,1.8-7.1,1.8-10.7,0-5-2.5-10.2-2.5-15.2,0-3.6,1.8-7.1,1.8-10.7,0-.6-.3-1.2-.6-1.8-.8-.6-2.2-1.1-4.4-1.3-6.7.3.1.5.2.8.4,5,2.5,10.2,2.5,15.2,0,3.6-1.8,7.1-1.8,10.7,0,5,2.5,10.2,2.5,15.2,0,3.6-1.8,7.1-1.8,10.7,0,5,2.5,10.2,2.5,15.2,0ZM5,51.3c1.4,2.6,3.2,5,5.2,7.2,1.5-.1,3.1-.5,4.6-1.3,5-2.5,10.2-2.5,15.2,0,3.6,1.8,7.1,1.8,10.7,0,5-2.5,10.2-2.5,15.2,0,1.6.8,3.2,1.2,4.7,1.3,2-2.2,3.8-4.6,5.2-7.2-4.1,1.2-8.2.8-12.2-1.2-3.6-1.8-7.1-1.8-10.7,0-5,2.5-10.2,2.5-15.2,0-3.6-1.8-7.1-1.8-10.7,0-4,2-8.1,2.4-12.1,1.2ZM14.8,62.6c5.8,4.3,12.9,6.8,20.7,6.8s14.9-2.5,20.6-6.8c-.8-.3-1.6-.6-2.3-1-3.6-1.8-7.1-1.8-10.7,0-5,2.5-10.2,2.5-15.2,0-3.6-1.8-7.1-1.8-10.7,0-.8.4-1.5.7-2.3,1Z"/>
    </g>
  </g>
</svg>