<svg id="43e4e558-688b-4c8c-9e90-17fdc34112bc" width="150" height="150" viewBox="0 0 150 150" fill="none" xmlns="http://www.w3.org/2000/svg">
<g clip-path="url(#4b243483-731f-4733-83ee-c93669bde8a6)">
<path d="M150 150H0V1.19209e-05H150V150Z" fill="#182438"/>
<path d="M130.522 64.2273C130.911 61.731 131.058 59.2014 130.959 56.775C132.85 62.4213 133.889 68.3217 134.041 74.248C133.922 73.7352 133.791 73.2242 133.649 72.7162C132.868 69.8668 131.815 67.0119 130.522 64.2273ZM131.589 92.0411C131.401 92.9437 131.188 93.8265 130.938 94.7284C130.721 95.3683 130.5 95.9922 130.274 96.6001C129.589 95.9336 128.71 95.2142 127.687 94.4854C126.618 93.7151 125.315 92.8382 123.812 91.881C123.402 91.6193 122.458 91.0287 122.458 91.0287C123.056 89.0249 123.049 86.9907 122.451 85.3415C124.11 82.6305 125.599 79.7351 126.887 76.7262C127.831 74.4577 128.625 72.1751 129.258 69.907C129.747 71.1611 130.177 72.4016 130.542 73.6174C131.546 76.9941 132.111 80.4822 132.221 83.9848C132.301 86.7274 132.089 89.4384 131.589 92.0411ZM121.097 112.839C120.282 113.775 119.339 114.74 118.324 115.67C117.532 116.39 116.637 117.111 115.668 117.81C116.173 116.539 116.616 115.221 116.991 113.867C118.431 108.752 119.195 102.552 119.209 95.914C119.976 95.3497 120.676 94.5843 121.255 93.6758C123.137 94.7208 124.732 95.6566 126.006 96.468L126.249 96.6247C127.634 97.5203 128.616 98.2578 129.173 98.8151C129.236 98.879 129.291 98.9368 129.335 98.9882C127.209 103.99 124.448 108.621 121.097 112.839ZM115.357 103.032C115.118 106.639 114.616 110.001 113.865 113.026C113.146 115.882 112.224 118.438 111.119 120.624C108.345 122.068 105.366 123.179 102.258 123.926C98.2738 124.895 94.1778 125.359 90.0801 125.31C87.7824 125.328 85.3977 125.104 83.3423 124.89C81.2726 124.601 78.8286 124.243 76.4432 123.653C75.9358 123.54 75.4434 123.41 74.9534 123.277C74.9261 122.942 74.8562 122.606 74.747 122.277C78.5609 121.034 82.227 119.563 85.6568 117.9C87.6716 116.908 90.0418 115.705 92.3881 114.294C93.2071 113.836 94.0415 113.306 94.8494 112.798L95.6599 112.29C96.3682 111.843 97.0355 111.389 97.7054 110.934C98.0702 110.687 98.4349 110.441 98.8048 110.193C102.972 107.183 106.901 103.845 110.518 100.253C111.689 99.087 112.881 97.8186 114.137 96.3938C114.421 96.5718 114.724 96.709 115.038 96.8079C115.182 96.8531 115.331 96.8887 115.482 96.917C115.515 99.1942 115.474 101.201 115.357 103.032ZM84.6813 134.443C84.5794 134.45 84.5245 134.452 84.4632 134.448C83.8926 134.443 82.5562 134.343 80.8641 133.408C80.5981 133.265 80.3387 133.112 80.074 132.943C78.7517 132.101 77.3853 130.924 76.014 129.451C75.3493 128.727 74.6511 127.888 73.9313 126.953C74.4823 127.095 75.0337 127.232 75.5846 127.351C77.8664 127.886 80.2731 128.283 82.9312 128.57C85.6364 128.785 87.8761 128.916 90.0937 128.846C94.4591 128.795 98.8244 128.197 103.048 127.062C104.193 126.765 105.329 126.413 106.451 126.007C99.8463 130.195 92.3727 133.095 84.6813 134.443ZM51.4493 130.723C48.2982 129.406 45.251 127.812 42.3889 125.987C40.8851 125.03 39.423 124.003 38.0097 122.91C40.3721 123.834 42.9163 124.543 45.5024 124.984C49.3669 125.648 53.5856 125.852 58.0411 125.59C59.0595 125.519 60.1212 125.42 61.281 125.284C61.7478 125.823 62.3201 126.307 62.9899 126.735C63.9671 127.357 65.1243 127.824 66.3391 128.086C67.9038 128.423 69.4872 128.407 70.8782 128.046C71.9072 129.331 72.9296 130.476 73.9223 131.454C75.288 132.793 76.6602 133.904 78.0029 134.761C78.243 134.913 78.482 135.058 78.7197 135.193C69.4436 135.863 60.0989 134.341 51.4493 130.723ZM32.7575 117.074C31.8204 116.478 30.9298 115.828 30.1125 115.147C29.6944 114.824 29.3372 114.511 29.0235 114.198L28.4942 113.691C24.2421 108.536 20.907 102.743 18.5752 96.468C18.6452 95.7741 18.8229 95.0634 19.1082 94.3532C19.55 93.2063 20.2232 91.9363 21.1197 90.5573C21.428 90.9981 21.7696 91.3434 22.1411 91.5784C22.5513 91.8401 22.9874 91.9712 23.4392 91.9689C23.8976 91.9669 24.628 91.8144 25.3418 91.043C25.4244 91.1822 25.5083 91.32 25.5942 91.4599C28.0544 95.5677 31.2122 99.7322 34.9738 103.818C38.561 107.66 42.602 111.235 46.9885 114.452C47.4087 114.731 47.7816 114.989 48.1544 115.244C48.7397 115.646 49.3266 116.049 49.9432 116.442L50.3127 116.673C51.3042 117.302 52.5486 118.086 53.7711 118.766C55.4816 119.767 57.3856 120.761 59.6884 121.855C59.0398 121.936 58.3924 122.005 57.7575 122.065C53.5856 122.414 49.6249 122.318 45.9988 121.788C42.594 121.27 39.3161 120.338 36.5242 119.09C35.2076 118.508 33.9398 117.828 32.7575 117.074ZM17.1193 59.3821C16.9543 61.3602 16.9422 63.3494 17.0841 65.338C17.3604 69.6979 18.1847 74.0269 19.5377 78.1977C19.7085 78.7636 19.9122 79.3729 20.1819 80.122C19.7767 81.3864 19.5663 82.8542 19.5757 84.401C19.5806 85.4011 19.6742 86.3675 19.855 87.2727C19.8167 87.329 19.7794 87.3843 19.7441 87.4399C18.6368 89.1451 17.7732 90.7398 17.1643 92.1963C14.0648 81.4436 14.0628 70.0905 17.1193 59.3821ZM20.7441 54.7918C20.8387 54.2591 20.9523 53.7196 21.0871 53.1332C21.7033 53.2253 22.4221 53.3616 23.2364 53.5406C26.3958 54.2438 30.8463 55.5563 36.4643 57.4432C38.7265 58.2017 41.1971 59.0625 43.8188 60.0051C43.3281 61.298 43.1919 62.6514 43.432 63.8966C42.3786 64.7097 41.3369 65.5251 40.3179 66.3368C37.5955 68.4944 34.8583 70.8705 31.9559 73.6014C29.9011 75.537 27.9968 77.4426 26.2746 79.2897C25.8475 78.3142 25.2935 77.5874 24.655 77.1817C24.2455 76.9209 23.8081 76.7884 23.357 76.7911C23.2028 76.7911 23.0213 76.8088 22.8236 76.8587C21.5036 73.0391 20.6606 69.083 20.3127 65.0787C20.0001 61.5844 20.1436 58.1259 20.7441 54.7918ZM23.0024 47.2108C23.5484 45.9776 24.1483 44.7972 24.7838 43.7071C25.7985 42.5011 26.8356 41.4094 27.9493 40.3747C30.519 37.9952 33.3998 35.9463 36.5115 34.2886C39.0367 32.948 41.7058 31.8162 44.46 30.9119C44.5116 31.1548 44.5965 31.3568 44.6867 31.5171C44.8728 31.8503 45.1399 32.129 45.4787 32.3446C46.4506 32.9642 47.7772 32.9404 48.9344 32.7298C48.8689 33.0886 48.8069 33.4372 48.7503 33.7832C48.2086 36.9614 47.8471 40.4634 47.673 44.1903C47.4879 48.2037 47.4962 51.9136 47.7056 55.5179C47.0268 55.8989 46.4003 56.3719 45.8369 56.9293C45.8213 56.9438 45.8067 56.9582 45.7913 56.9727C42.8247 56.0071 40.0348 55.1327 37.461 54.3622C35.0108 53.6063 32.4959 52.9253 29.7819 52.2818C27.4339 51.7193 25.4014 51.2915 23.7421 51.0119C23.0297 50.8875 22.3552 50.7946 21.7253 50.735C22.1058 49.4617 22.5333 48.2795 23.0024 47.2108ZM53.8027 19.8171C53.0906 20.8227 52.4111 22.021 51.7779 23.3949C50.9895 23.6761 50.2029 24.0367 49.4328 24.4696C48.3055 25.1037 47.2805 25.8528 46.4512 26.6514C42.4385 27.8054 38.5743 29.417 34.9635 31.4438C34.572 31.6611 34.1838 31.8861 33.7993 32.1179C39.5528 26.7673 46.3577 22.569 53.8027 19.8171ZM56.5586 20.4614C57.6915 18.952 58.8337 18.3009 59.3135 18.0776C64.3735 16.7455 69.5748 16.0824 74.7786 16.1088C75.5812 16.2111 76.8697 16.4625 78.5386 17.0719C79.8506 17.5577 81.2242 18.2557 82.6149 19.1421C83.1126 19.4591 83.6163 19.8034 84.1253 20.1767C86.1281 21.6401 88.2375 23.5671 90.3929 25.9031C91.7284 27.3605 93.0383 28.9534 94.2972 30.6469C94.2861 30.6511 94.2758 30.6571 94.2656 30.6614C93.9903 30.5369 93.7287 30.4202 93.4611 30.2966C88.2119 28.1676 82.9518 26.5986 77.7809 25.6159C72.3193 24.5889 67.0113 24.1423 62.0028 24.2813C60.8037 24.2975 59.5402 24.3673 58.0977 24.4977C58.0534 24.3537 57.9961 24.2165 57.9216 24.0869C57.7358 23.7554 57.4708 23.4784 57.1323 23.2628C56.556 22.8946 55.8518 22.7574 55.1464 22.7463C55.5902 21.8744 56.0636 21.1108 56.5586 20.4614ZM97.4523 20.729C100.614 22.0509 103.673 23.6489 106.543 25.4787C109.429 27.317 112.157 29.4102 114.684 31.7216C113.049 31.5938 111.126 31.6585 108.965 31.9159C107.382 32.0992 105.657 32.4034 103.832 32.8185C103.605 32.6514 103.366 32.4878 103.121 32.331C102.545 31.9645 101.924 31.633 101.273 31.3457C100.341 30.9332 99.3656 30.6239 98.4281 30.4432C96.5386 27.8736 94.6227 25.5938 92.7315 23.6608C90.456 21.3077 88.1079 19.3304 85.7633 17.7869C85.6057 17.683 85.4463 17.5798 85.2878 17.4776C84.9943 17.2918 84.7023 17.1119 84.4087 16.9389C88.8665 17.6957 93.231 18.9631 97.4523 20.729ZM105.664 42.0903C105.503 41.781 105.337 41.4707 105.163 41.1494C105.282 41.2295 105.404 41.3097 105.523 41.3898C109.885 44.3659 113.749 47.6156 117.006 51.0511C120.268 54.4296 123.129 58.1719 125.512 62.1793C126.036 63.0537 126.545 63.9784 127.065 64.9975C126.343 68.3586 125.194 71.8206 123.648 75.2933C122.57 77.6473 121.288 80.0404 119.832 82.4158C119.743 82.3781 119.65 82.3458 119.558 82.3192C119.14 82.1867 118.71 82.1294 118.271 82.1395C117.559 76.8154 116.46 71.4078 115.001 66.0525C112.705 57.6528 109.475 49.367 105.664 42.0903ZM107.405 82.6937C104.311 81.0997 101.268 79.5476 98.0463 78.0446L96.6827 77.4047C93.8497 76.0704 90.9213 74.6904 87.9204 73.377C84.4589 71.8486 80.9083 70.3105 77.3707 68.8097C73.9802 67.4094 70.393 65.9599 66.6983 64.5C63.7387 63.3145 60.7757 62.2253 57.9126 61.1727L57.3836 60.9776C57.4422 60.3017 57.4019 59.6361 57.2634 59.0029C58.9336 57.9102 60.5037 56.9105 62.0398 55.956C68.9991 51.6128 75.9205 47.7563 82.6102 44.4912C87.4662 42.121 92.1196 40.1046 96.4508 38.4921C96.8898 38.7477 97.3457 38.9796 97.8145 39.185C98.6037 39.5344 99.4116 39.8046 100.218 39.9921C100.962 41.3327 101.636 42.5974 102.272 43.8494C103.866 46.9952 105.428 50.5628 107.184 55.0781C108.636 58.869 109.947 62.9224 111.083 67.1221C112.231 71.2347 113.163 75.3909 113.859 79.4821C114.099 80.9103 114.321 82.3768 114.532 83.9472C114.024 84.4583 113.564 85.0575 113.169 85.7217C111.326 84.7336 109.391 83.7165 107.405 82.6937ZM51.9514 34.258C52.0705 33.404 52.2187 32.5125 52.4031 31.5435C52.6605 31.4165 52.9174 31.281 53.1765 31.1369C54.5584 30.3588 55.7869 29.3992 56.6824 28.4011C58.6387 28.2026 60.4048 28.0977 62.0708 28.079C66.8152 27.9861 71.8436 28.4548 77.0238 29.4733C81.8851 30.4372 86.8781 31.9713 91.8631 34.0296C92.0702 34.1182 92.2815 34.2153 92.4954 34.3134L92.5321 34.3304C92.7 34.8665 92.9949 35.4085 93.4116 35.9463C92.6702 36.208 91.9219 36.479 91.1625 36.7619C87.3673 38.1903 84.0261 39.594 80.9486 41.0557C76.6958 43.0602 73.4466 44.7034 70.4114 46.3832C66.9267 48.2957 63.3888 50.3557 59.8985 52.5034C58.3434 53.4801 56.7667 54.4977 55.0941 55.6057C54.9983 55.5341 54.8984 55.4659 54.7971 55.4011C53.835 54.7884 52.6788 54.4739 51.4596 54.4824C50.9762 46.7855 51.1407 39.9861 51.9514 34.258ZM27.1629 83.1139L27.3463 82.9162C31.3776 78.6854 36.675 73.9923 42.6712 69.347C43.5691 68.6513 44.4963 67.9584 45.4291 67.2663C45.5879 67.3952 45.755 67.5143 45.9275 67.6259C46.8161 68.1918 47.8504 68.5031 48.9578 68.543C49.5274 72.5434 50.2491 76.6363 51.1064 80.7155C52.0136 84.8577 53.0753 89.0189 54.2671 93.0895C55.2935 96.6554 56.5616 100.382 58.2582 104.813C59.5772 108.278 61.1708 111.85 62.9943 115.431C63.3515 116.131 63.7337 116.856 64.1522 117.626C63.3235 117.832 62.5751 118.153 61.9482 118.579C58.9799 117.175 56.002 115.527 53.1049 113.68C51.8398 112.874 50.571 112.019 49.3333 111.132C45.1012 108.073 41.2334 104.706 37.8395 101.127C34.2294 97.2733 31.1965 93.3485 28.8288 89.47C28.2542 88.5681 27.6999 87.6163 27.0827 86.4827C27.1775 85.7676 27.2238 85.0551 27.2198 84.3567C27.2181 83.9539 27.1999 83.536 27.1629 83.1139ZM111.923 93.0528C110.519 94.6482 109.153 96.0911 107.76 97.4524C104.311 100.823 100.525 103.981 96.5054 106.845C92.4878 109.689 88.2545 112.223 83.9249 114.375C80.2312 116.209 76.2741 117.801 72.1566 119.104C72.0853 119.057 72.0134 119.011 71.9378 118.963C70.9604 118.338 69.8038 117.871 68.5947 117.609C68.3905 117.566 68.1902 117.531 67.989 117.5C65.8211 113.372 63.7526 108.657 61.838 103.477C59.1717 96.2462 56.8346 88.0824 55.0814 79.8667C54.2022 75.8253 53.4562 71.7025 52.8545 67.5978C53.597 67.2034 54.2795 66.7013 54.889 66.0978C55.3525 65.6416 55.7596 65.1406 56.1068 64.6023C62.5092 67.0792 69.1289 69.7526 75.7957 72.5553C89.2457 78.1517 102.042 83.9129 111.944 88.8298C111.614 90.2973 111.607 91.7575 111.923 93.0528ZM117.984 35.0028C120.701 37.9117 123.132 41.1043 125.213 44.4955C125.306 44.6889 125.69 45.5446 125.69 45.5446C125.893 45.9622 126.068 46.4011 126.225 46.8716C127.092 49.1898 127.634 51.6622 127.844 54.2548C127.975 55.8153 127.985 57.4671 127.869 59.1903C125.489 55.177 122.761 51.5617 119.75 48.4296C116.345 44.7776 112.3 41.3139 107.736 38.1477C107.394 37.9151 107.051 37.6849 106.71 37.4574C106.768 36.8173 106.603 36.1338 106.232 35.4375C109.966 34.546 113.129 34.1855 115.438 34.3952C116.617 34.4847 117.454 34.7599 117.984 35.0028ZM74.4287 12.0699C39.2049 12.0699 10.6501 40.6244 10.6501 75.8476C10.6501 111.072 39.2049 139.626 74.4287 139.626C109.653 139.626 138.207 111.072 138.207 75.8476C138.207 40.6244 109.653 12.0699 74.4287 12.0699Z" fill="#F9AE0B"/>
</g>
<defs>
<clipPath id="4b243483-731f-4733-83ee-c93669bde8a6">
<rect width="150" height="150" fill="white"/>
</clipPath>
</defs>
</svg>
