<?xml version="1.0" encoding="utf-8"?>
<!-- Generator: Adobe Illustrator 19.0.0, SVG Export Plug-In . SVG Version: 6.00 Build 0)  -->
<svg version="1.1" id="Layer_1" xmlns="http://www.w3.org/2000/svg" xmlns:xlink="http://www.w3.org/1999/xlink" x="0px" y="0px"
	 viewBox="-5840 1394.6 792 612" style="enable-background:new -5840 1394.6 792 612;" xml:space="preserve">
<style type="text/css">
	.st0{fill:#646569;}
	.st1{fill:#F5831F;}
</style>
<g>
	<path class="st0" d="M-5490.3,1716.6c0-0.8-0.6-1.2-1.4-1.2c-0.7,0-1.2,0.2-1.7,0.5v-1c0.4-0.3,1.1-0.5,1.9-0.5
		c1.4,0,2.3,0.8,2.3,2.1v4.1h-1v-0.5c-0.2,0.2-0.9,0.6-1.6,0.6c-1.2,0-2.3-0.7-2.3-1.9c0-1.1,1-1.9,2.3-1.9c0.6,0,1.3,0.3,1.5,0.5
		L-5490.3,1716.6L-5490.3,1716.6z M-5490.3,1718.5c-0.2-0.5-0.8-0.8-1.4-0.8c-0.7,0-1.4,0.3-1.4,1.1c0,0.7,0.7,1.1,1.4,1.1
		c0.6,0,1.2-0.3,1.4-0.8V1718.5z M-5477.4,1712.2v8.4h-1.1v-3.8h-4.7v3.8h-1.1v-8.4h1.1v3.6h4.7v-3.6H-5477.4z M-5474.9,1717.7
		c0,1.4,0.9,2.1,2,2.1c0.7,0,1.2-0.2,1.7-0.6v0.9c-0.5,0.4-1.1,0.5-1.8,0.5c-1.7,0-2.9-1.2-2.9-3.1c0-1.9,1.1-3.2,2.7-3.2
		c1.6,0,2.5,1.2,2.5,3v0.4L-5474.9,1717.7L-5474.9,1717.7z M-5474.9,1716.9h3.1c0-0.9-0.5-1.7-1.5-1.7
		C-5474,1715.3-5474.7,1715.8-5474.9,1716.9z M-5464.4,1719.2l1.3-4.6h1l-1.8,6.1h-1l-1.3-4.6l-1.3,4.6h-1l-1.8-6.1h1l1.3,4.6
		l1.2-4.6h0.9L-5464.4,1719.2z M-5459.9,1720.6h-1v-8.9h1V1720.6z M-5457.5,1717.7c0,1.4,0.9,2.1,2,2.1c0.7,0,1.2-0.2,1.7-0.6v0.9
		c-0.5,0.4-1.1,0.5-1.8,0.5c-1.7,0-2.9-1.2-2.9-3.1c0-1.9,1.1-3.2,2.7-3.2c1.6,0,2.5,1.2,2.5,3v0.4L-5457.5,1717.7L-5457.5,1717.7z
		 M-5457.5,1716.9h3.1c0-0.9-0.5-1.7-1.5-1.7C-5456.6,1715.3-5457.3,1715.8-5457.5,1716.9z M-5450.4,1720.6h-1v-5.2h-1.3v-0.9h1.3
		v-1.6h1v1.6h1.4v0.9h-1.4V1720.6z M-5445.8,1720.6h-1v-5.2h-1.3v-0.9h1.3v-1.6h1v1.6h1.4v0.9h-1.4V1720.6z M-5438.9,1717.2v3.4
		h-1.1v-8.4h3.1c1.7,0,2.8,0.9,2.8,2.5c0,1.6-1.1,2.5-2.8,2.5H-5438.9z M-5436.9,1713.1h-2v3.1h2c1.1,0,1.7-0.6,1.7-1.6
		C-5435.1,1713.8-5435.7,1713.1-5436.9,1713.1z M-5429.6,1716.6c0-0.8-0.6-1.2-1.4-1.2c-0.7,0-1.2,0.2-1.7,0.5v-1
		c0.4-0.3,1.1-0.5,1.9-0.5c1.4,0,2.3,0.8,2.3,2.1v4.1h-1v-0.5c-0.2,0.2-0.9,0.6-1.6,0.6c-1.2,0-2.3-0.7-2.3-1.9c0-1.1,1-1.9,2.3-1.9
		c0.6,0,1.3,0.3,1.5,0.5L-5429.6,1716.6L-5429.6,1716.6z M-5429.6,1718.5c-0.2-0.5-0.8-0.8-1.4-0.8c-0.7,0-1.4,0.3-1.4,1.1
		c0,0.7,0.7,1.1,1.4,1.1c0.6,0,1.2-0.3,1.4-0.8V1718.5z M-5424.4,1714.4c0.6,0,1.2,0.1,1.6,0.5v1c-0.4-0.4-1-0.6-1.6-0.6
		c-1.1,0-2,0.8-2,2.2c0,1.4,0.9,2.2,2,2.2c0.6,0,1.1-0.2,1.6-0.6v1c-0.4,0.4-1,0.5-1.6,0.5c-1.6,0-2.9-1.2-2.9-3.2
		C-5427.3,1715.6-5426,1714.4-5424.4,1714.4z M-5416.3,1720.6h-1.3l-2.8-3v3h-1v-8.9h1v5.4l2.7-2.6h1.3l-3,2.8L-5416.3,1720.6z
		 M-5412,1716.6c0-0.8-0.6-1.2-1.4-1.2c-0.7,0-1.2,0.2-1.7,0.5v-1c0.4-0.3,1.1-0.5,1.9-0.5c1.4,0,2.3,0.8,2.3,2.1v4.1h-1v-0.5
		c-0.2,0.2-0.9,0.6-1.6,0.6c-1.2,0-2.3-0.7-2.3-1.9c0-1.1,1-1.9,2.3-1.9c0.6,0,1.3,0.3,1.5,0.5L-5412,1716.6L-5412,1716.6z
		 M-5412,1718.5c-0.2-0.5-0.8-0.8-1.4-0.8c-0.7,0-1.4,0.3-1.4,1.1c0,0.7,0.7,1.1,1.4,1.1c0.6,0,1.2-0.3,1.4-0.8V1718.5z
		 M-5406.3,1715.5c-0.2-0.1-0.4-0.2-0.7-0.2c-0.6,0-1.2,0.4-1.4,1.1v4.1h-1v-6.1h1v0.8c0.3-0.5,0.8-0.9,1.5-0.9c0.3,0,0.5,0,0.6,0.1
		V1715.5z M-5401.1,1719.9c-0.3,0.4-1,0.8-1.7,0.8c-1.8,0-2.7-1.4-2.7-3.2c0-1.7,1-3.2,2.7-3.2c0.8,0,1.4,0.4,1.7,0.8v-3.5h1v8.9h-1
		V1719.9z M-5401.1,1716.3c-0.3-0.6-0.9-1-1.6-1c-1.2,0-1.8,0.9-1.8,2.2c0,1.3,0.7,2.2,1.8,2.2c0.6,0,1.2-0.4,1.6-1V1716.3z
		 M-5492.3,1725.9v1h-4.3v2.7h3.9v1h-3.9v2.9h4.3v1h-5.3v-8.4L-5492.3,1725.9L-5492.3,1725.9z M-5491,1728.2h1v0.8
		c0.4-0.5,1-0.9,1.8-0.9c1.4,0,2.1,0.9,2.1,2.2v4h-1v-3.8c0-0.8-0.4-1.4-1.3-1.4c-0.7,0-1.3,0.5-1.5,1.1v4.1h-1V1728.2L-5491,1728.2
		z M-5482.7,1734.2h-1v-5.2h-1.3v-0.9h1.3v-1.6h1v1.6h1.4v0.9h-1.4V1734.2z M-5479.7,1731.4c0,1.4,0.9,2.1,2,2.1
		c0.7,0,1.2-0.2,1.7-0.6v0.9c-0.5,0.4-1.1,0.5-1.8,0.5c-1.7,0-2.9-1.2-2.9-3.1c0-1.9,1.1-3.2,2.7-3.2c1.6,0,2.5,1.2,2.5,3v0.4
		L-5479.7,1731.4L-5479.7,1731.4z M-5479.6,1730.6h3.1c0-0.9-0.5-1.7-1.5-1.7C-5478.8,1728.9-5479.4,1729.5-5479.6,1730.6z
		 M-5471,1729.2c-0.2-0.1-0.4-0.2-0.7-0.2c-0.6,0-1.2,0.4-1.4,1.1v4.1h-1v-6.1h1v0.8c0.3-0.5,0.8-0.9,1.5-0.9c0.3,0,0.5,0,0.6,0.1
		V1729.2L-5471,1729.2z M-5468.9,1736.6h-1v-8.4h1v0.7c0.3-0.4,1-0.8,1.7-0.8c1.8,0,2.7,1.5,2.7,3.2c0,1.7-0.9,3.2-2.7,3.2
		c-0.8,0-1.4-0.4-1.7-0.8V1736.6z M-5468.9,1732.4c0.3,0.6,0.9,1,1.6,1c1.2,0,1.8-0.9,1.8-2.2c0-1.3-0.7-2.2-1.8-2.2
		c-0.6,0-1.2,0.4-1.6,1V1732.4z M-5460,1729.2c-0.2-0.1-0.4-0.2-0.7-0.2c-0.6,0-1.2,0.4-1.4,1.1v4.1h-1v-6.1h1v0.8
		c0.3-0.5,0.8-0.9,1.5-0.9c0.3,0,0.5,0,0.6,0.1V1729.2z M-5458.3,1727c-0.4,0-0.7-0.3-0.7-0.7c0-0.4,0.3-0.7,0.7-0.7
		c0.4,0,0.7,0.3,0.7,0.7C-5457.7,1726.7-5458,1727-5458.3,1727z M-5457.8,1734.2h-1v-6.1h1V1734.2z M-5456.4,1732.7
		c0.6,0.5,1.3,0.8,2,0.8c0.7,0,1.3-0.2,1.3-0.8c0-0.5-0.3-0.7-0.9-0.9l-0.8-0.3c-0.9-0.3-1.5-0.7-1.5-1.7c0-1.1,0.9-1.7,2.1-1.7
		c0.7,0,1.3,0.2,1.8,0.5v1.1c-0.5-0.4-1.1-0.7-1.8-0.7c-0.6,0-1.1,0.3-1.1,0.8c0,0.5,0.3,0.7,0.9,0.9l0.9,0.3
		c0.9,0.3,1.4,0.8,1.4,1.7c0,1.1-1,1.8-2.3,1.8c-0.8,0-1.5-0.2-2-0.6L-5456.4,1732.7L-5456.4,1732.7z M-5450.1,1731.4
		c0,1.4,0.9,2.1,2,2.1c0.7,0,1.2-0.2,1.7-0.6v0.9c-0.5,0.4-1.1,0.5-1.8,0.5c-1.7,0-2.9-1.2-2.9-3.1c0-1.9,1.1-3.2,2.7-3.2
		c1.6,0,2.5,1.2,2.5,3v0.4L-5450.1,1731.4L-5450.1,1731.4z M-5450.1,1730.6h3.1c0-0.9-0.5-1.7-1.5-1.7
		C-5449.2,1728.9-5449.9,1729.5-5450.1,1730.6z M-5438.9,1728.1c0.6,0,1.2,0.1,1.6,0.5v1c-0.4-0.4-1-0.6-1.6-0.6c-1.1,0-2,0.8-2,2.2
		c0,1.4,0.9,2.2,2,2.2c0.6,0,1.1-0.2,1.6-0.6v1c-0.4,0.4-1,0.5-1.6,0.5c-1.6,0-2.9-1.2-2.9-3.2
		C-5441.8,1729.3-5440.5,1728.1-5438.9,1728.1z M-5433.6,1734.4c-1.7,0-2.8-1.3-2.8-3.2c0-1.9,1.1-3.2,2.8-3.2
		c1.7,0,2.8,1.3,2.8,3.2C-5430.8,1733.1-5432,1734.4-5433.6,1734.4z M-5433.6,1729c-1.1,0-1.7,0.9-1.7,2.3c0,1.3,0.7,2.3,1.7,2.3
		c1.1,0,1.7-0.9,1.7-2.3C-5431.9,1729.9-5432.5,1729-5433.6,1729z M-5423.3,1728.1c1.2,0,1.9,0.9,1.9,2.2v4h-1v-3.9
		c0-0.8-0.4-1.4-1.1-1.4c-0.6,0-1.1,0.4-1.3,1.1v4.2h-1v-3.9c0-0.8-0.4-1.4-1.1-1.4c-0.6,0-1.1,0.4-1.3,1.1v4.2h-1v-6.1h1v0.7
		c0.3-0.5,0.9-0.8,1.6-0.8c0.8,0,1.4,0.4,1.6,1C-5424.8,1728.5-5424.2,1728.1-5423.3,1728.1z M-5418.7,1736.6h-1v-8.4h1v0.7
		c0.3-0.4,1-0.8,1.7-0.8c1.8,0,2.7,1.5,2.7,3.2c0,1.7-0.9,3.2-2.7,3.2c-0.8,0-1.4-0.4-1.7-0.8V1736.6z M-5418.7,1732.4
		c0.3,0.6,0.9,1,1.6,1c1.2,0,1.8-0.9,1.8-2.2c0-1.3-0.7-2.2-1.8-2.2c-0.6,0-1.2,0.4-1.6,1V1732.4z M-5409.5,1730.2
		c0-0.8-0.6-1.2-1.4-1.2c-0.7,0-1.2,0.2-1.7,0.5v-1c0.4-0.3,1.1-0.5,1.9-0.5c1.4,0,2.3,0.8,2.3,2.1v4.1h-1v-0.5
		c-0.2,0.2-0.9,0.6-1.6,0.6c-1.2,0-2.3-0.7-2.3-1.9c0-1.1,1-1.9,2.3-1.9c0.6,0,1.3,0.3,1.5,0.5L-5409.5,1730.2L-5409.5,1730.2z
		 M-5409.5,1732.1c-0.2-0.5-0.8-0.8-1.4-0.8c-0.7,0-1.4,0.3-1.4,1.1c0,0.7,0.7,1.1,1.4,1.1c0.6,0,1.2-0.3,1.4-0.8V1732.1z
		 M-5406.8,1728.2h1v0.8c0.4-0.5,1-0.9,1.8-0.9c1.4,0,2.1,0.9,2.1,2.2v4h-1v-3.8c0-0.8-0.4-1.4-1.3-1.4c-0.7,0-1.3,0.5-1.5,1.1v4.1
		h-1V1728.2L-5406.8,1728.2z M-5399.6,1736.6l0.9-2.3l-2.4-6.1h1.1l1.8,4.8l1.8-4.8h1.1l-3.3,8.4H-5399.6z"/>
	<path class="st1" d="M-5436.9,1687.4L-5436.9,1687.4c0,8-6.4,14.5-14.2,14.5s-14.2-6.5-14.2-14.5l0,0v-12.3c0,0,6.8,1.7,6.8,8.9
		v3.4c0,4.4,3.3,7.9,7.4,7.9c4.1,0,7.4-3.5,7.4-7.9v-7.1v0v0.1c0.3-6,5.4-7.9,6.7-8.6h0.1v8.4L-5436.9,1687.4L-5436.9,1687.4z
		 M-5473.4,1673c1.9,0,3.7,0.3,5.3,1v7.6c-1.4-1.2-3.3-1.9-5.3-1.9c-4.5,0-8.1,3.5-8.1,7.9v14.3h-6.8v-14.1v-0.3v-11.8
		c0,0,2.8,0.1,4.6,1.4C-5481.1,1674.5-5477.4,1673-5473.4,1673 M-5506,1695.4c-4.5,0-8.2-3.6-8.2-8c0-4.4,3.7-8,8.2-8
		c4.5,0,8.2,3.6,8.2,8C-5497.8,1691.8-5501.5,1695.4-5506,1695.4 M-5506,1673c-8.2,0-14.8,6.5-14.8,14.4c0,8,6.6,14.4,14.8,14.4
		c3.4,0,6.5-1.1,9-3c1.5,2.5,5.8,3,5.8,3v-2.3v-11.5v-0.6C-5491.2,1679.5-5497.8,1673-5506,1673 M-5387.7,1695.4
		c-4.5,0-8.2-3.6-8.2-8c0-4.4,3.7-8,8.2-8c4.5,0,8.2,3.6,8.2,8C-5379.5,1691.8-5383.2,1695.4-5387.7,1695.4 M-5387.7,1673
		c-8.2,0-14.8,6.5-14.8,14.4c0,8,6.6,14.4,14.8,14.4c3.4,0,6.5-1.1,9-3c1.5,2.5,5.8,3,5.8,3v-2.3v-11.5v-0.6
		C-5372.9,1679.5-5379.5,1673-5387.7,1673 M-5419.1,1695.4c-4.5,0-8.2-3.6-8.2-8c0-4.4,3.7-8,8.2-8c4.5,0,8.2,3.6,8.2,8
		C-5410.8,1691.8-5414.5,1695.4-5419.1,1695.4 M-5419.1,1673c-3,0-5.8,0.9-8.2,2.4v-2.3c-0.3-6-5.2-7.9-6.5-8.6h-0.1v22.9v0.9v11.2
		v2.4c0,0,4.4-0.5,6.1-2.9c2.5,1.7,5.5,2.8,8.7,2.8c8.2,0,14.8-6.5,14.8-14.4C-5404.2,1679.5-5410.9,1673-5419.1,1673"/>
</g>
</svg>
