<svg width="113" height="112" viewBox="0 0 113 112" fill="none" xmlns="http://www.w3.org/2000/svg">
<rect y="0.766846" width="112.156" height="110.292" fill="#D31217"/>
<path d="M35.0591 81.6964H27.6501V76.9036H25.5781V88.4133H27.6501V83.4981H35.0591V88.4133H37.1328V76.9036H35.0591V81.6964Z" fill="white"/>
<path d="M83.926 81.6792H78.6549C77.478 81.6792 77.2296 81.417 77.2296 80.3845V79.9999C77.2296 78.9858 77.478 78.7222 78.6549 78.7222H83.297C84.026 78.7222 84.3241 79.0554 84.3241 79.755V79.9999H86.3461V79.6325C86.3461 77.6556 85.6171 76.9036 83.6612 76.9036H77.7922C75.986 76.9036 75.1573 77.7612 75.1573 79.5798V80.8216C75.1573 82.6405 75.986 83.4977 77.7922 83.4977H83.0646C84.2578 83.4977 84.4899 83.3566 84.4899 84.3894V85.2811C84.4899 86.3139 84.2578 86.5589 83.0646 86.5589H78.0419C77.3279 86.5589 77.0295 86.2256 77.0295 85.526V85.2639H74.9912V85.6485C74.9912 87.6427 75.7362 88.3774 77.6934 88.3774H83.9256C85.7331 88.3774 86.5782 87.5199 86.5782 85.7013V84.3553C86.5782 82.5367 85.7331 81.6792 83.926 81.6792Z" fill="white"/>
<path d="M48.7804 82.4311L45.0351 76.9303H42.5659L47.7019 84.1632V88.3919H49.7912V84.1449L54.9273 76.9303H52.5245L48.7804 82.4311Z" fill="white"/>
<path d="M62.1413 76.9303L57.0723 88.3919H59.2253L63.5946 78.2324L66.2468 84.3898H63.006L62.2443 86.2101H67.0418L67.9796 88.3919H70.2153L65.1473 76.9303H62.1413Z" fill="white"/>
<path d="M72.38 62.4703H63.1094V50.1847H57.0213L54.4101 52.9404H60.4982V65.2257H74.9912V23.4133L39.744 60.6067V28.1171H48.8552V40.4865H55.1054L57.7166 37.7312H51.4667V25.3614H37.1328V67.2589L72.38 30.0655V62.4703Z" fill="white"/>
</svg>
