<svg xmlns="http://www.w3.org/2000/svg" viewBox="0 0 499.986 144.457" xml:space="preserve"><switch><g><path d="M493.63 18.961c0 5.58-4.38 9.96-10.08 9.96-5.639 0-10.139-4.38-10.139-9.96 0-5.46 4.5-9.839 10.14-9.839 5.699 0 10.079 4.38 10.079 9.84zm-17.7 0c0 4.38 3.24 7.86 7.68 7.86 4.32 0 7.5-3.48 7.5-7.8 0-4.38-3.18-7.919-7.56-7.919s-7.62 3.54-7.62 7.86zm6.06 5.16h-2.28v-9.84c.9-.18 2.161-.3 3.78-.3 1.86 0 2.7.3 3.42.72.54.42.96 1.2.96 2.16 0 1.08-.84 1.92-2.04 2.28v.12c.961.36 1.5 1.08 1.8 2.4.3 1.5.48 2.1.72 2.46h-2.46c-.3-.36-.48-1.26-.78-2.4-.18-1.08-.779-1.56-2.04-1.56h-1.08v3.96zm.06-5.58h1.08c1.26 0 2.28-.42 2.28-1.44 0-.9-.659-1.5-2.1-1.5-.6 0-1.019.06-1.26.12v2.82zM61 8.181V42.65s3.289-2.337 6.188-3.956 4.431-2.32 6.127-3.122c1.67-.79 4.123-1.69 5.864-2.312a56.817 56.817 0 0 1 5.25-1.592 57.926 57.926 0 0 1 5.341-1.077 59.23 59.23 0 0 1 5.395-.576 60.564 60.564 0 0 1 5.411-.085c1.802.052 3.601.184 5.391.393a62.718 62.718 0 0 1 10.573 2.17 63.451 63.451 0 0 1 10.047 3.934 62.44 62.44 0 0 1 4.735 2.597c1.54.934 3.04 1.935 4.491 3a60.097 60.097 0 0 1 4.212 3.393 58.727 58.727 0 0 1 3.896 3.772 57.433 57.433 0 0 1 3.543 4.14 56.372 56.372 0 0 1 3.151 4.493 55.71 55.71 0 0 1 6.575 14.866c4.397 15.854 1.153 33.007-8.353 46.382-21.39 30.095-70.231 34.467-95.968 7.55-10.568-11.052-14.661-24.65-14.735-39.608-.129-26.276-.098-52.553-.134-78.83h23zm37.884 44.93c-3.537-.158-7.01.255-10.415 1.112-12.626 3.18-22.038 10.197-25.924 23.033-3.684 12.17-.867 23.094 7.92 32.262 14.776 15.418 41.252 15.48 56.254.275 12.673-12.843 12.733-32.485.037-45.286-7.653-7.718-17.1-11.24-27.872-11.396zm400.77 54.241c-.848-6.075-3.207-12.007-7.6-16.395-3.7-3.694-8.455-6.127-13.38-7.751-12.612-4.158-25.31-8.054-37.955-12.108-2.522-.809-5.025-1.711-7.454-2.761-2.995-1.296-4.032-3.791-3.645-6.922.387-3.137 2.57-4.642 5.359-5.1 2.612-.429 5.306-.482 7.964-.49 15.157-.042 50.63-.13 50.63-.13V33.24c-20.129 0-39.938-.043-59.747.042-3.323.014-6.589.886-9.759 1.925-9.482 3.105-16.592 8.986-18.749 18.936-3.444 15.893.772 30.919 19.853 37.003 13.918 4.438 27.853 8.827 41.757 13.31 6.01 1.939 8.5 4.787 7.953 8.722-.587 4.226-3.78 6.148-10.44 6.156-18.155.02-59.534.259-59.534.259v22.482s44.663.36 66.47-.169c12.917-.313 23.964-8.267 27.43-20.924 1.187-4.339 1.493-9.004.847-13.629zM0 57.182h25.231v83.968C12.616 141.15 0 131.416 0 123.181v-66zm0-11h25.165V23.777C12.583 23.778 0 34.979 0 46.18zm327.378-12.876c-4.493.033-8.883 1.313-13.013 3.155-7.88 3.516-13.553 9.152-15.378 17.775-3.606 17.047 1.862 31.211 19.918 36.936 13.607 4.314 27.195 8.686 40.791 13.034 2.057.658 4.135 1.29 5.9 2.595 4.425 3.268 3.735 9.36-1.246 11.69-2.07.968-4.218.835-6.364.837-18.154.02-59.47.073-59.47.073v22.651c22.328 0 44.31.357 66.272-.15 10.96-.254 20.533-4.565 25.86-15.044 8.483-16.68.687-36.471-16.81-43.116-1.55-.59-3.13-1.104-4.71-1.608-12.493-3.984-24.991-7.948-37.48-11.945-1.575-.504-3.146-1.067-4.64-1.772-2.877-1.357-4.267-3.714-3.848-6.874.435-3.281 2.753-4.863 5.786-5.29 2.462-.348 4.978-.424 7.47-.43 15.323-.036 50.838.144 50.838.144V33.244c-20.263 0-40.07-.083-59.876.062z"/><path d="M220.133 143.315c-23.666-3.663-45.108-20.474-50.535-45.402-6.444-29.597 13.383-55.858 36.768-63.35V59.57c-1.13.984-2.392 2.052-3.62 3.158-16.922 15.242-14.679 40.27 4.683 52.291 16.109 10.002 37.339 7.548 50.03-5.784 11.987-12.594 11.998-31.683-.03-44.205-1.84-1.916-3.904-3.618-6.013-5.553v-25.25c9.723 3.555 17.708 9.02 24.193 16.574 23.318 27.16 13.212 69.78-17.713 86.342-11.818 6.33-25.109 8.13-37.763 6.171zm-2.61-51.572h22.845v-63.12c-7.84-1.17-15.242-1.218-22.845.028v63.092z" fill="#58873c"/></g></switch></svg>