<?xml version="1.0" encoding="UTF-8"?>
<svg fill="none" xmlns="http://www.w3.org/2000/svg" version="1.1" viewBox="0 0 500 500">
  <g id="illumio_orange_100_ven">
    <path d="M284.9,219l30-30h64.1c6.3,0,11.4-5.1,11.4-11.4v-66.2c0-6.3-5.1-11.4-11.4-11.4h-66.2c-6.3,0-11.4,5.1-11.4,11.4v64.1l-30,30h-62l-42.9-42.9v-36c0-4-3.3-7.3-7.3-7.3h-42.2c-4,0-7.3,3.3-7.3,7.3v42.2c0,4,3.3,7.3,7.3,7.3h35.8l43,43v62l-43.2,43.2h-35.6c-4,0-7.3,3.3-7.3,7.3v42.2c0,4,3.3,7.3,7.3,7.3h42.2c4,0,7.3-3.3,7.3-7.3v-36.2l42.9-42.9h61.9l30,30v64.1c0,6.3,5.1,11.4,11.4,11.4h66.2c6.3,0,11.4-5.1,11.4-11.4v-66.2c0-6.3-5.1-11.4-11.4-11.4h-64.1l-29.9-29.9v-62Z" style="fill: #fa6624; stroke-width: 0px;"/>
  </g>
  <g id="illumio_server_slate_100_pce" >
    <path d="M186.9,500H32c-17.6,0-32-14.4-32-32v-231.5h51.5v212h135.4v51.5ZM51.5,51.5h77.8V0H32C14.4,0,0,14.4,0,32v135.9h51.5V51.5ZM448.5,448.5h-69.8v51.5h89.3c17.6,0,32-14.4,32-32v-89.3h-51.5v69.9ZM468,0H197.9v51.5h250.6v258.6h51.5V32c0-17.6-14.4-32-32-32Z" style="fill: #64686a; stroke-width: 0px;"/>
  </g>
</svg>