<svg xmlns="http://www.w3.org/2000/svg" id="32de6b2b-4165-4947-9b45-8b5aa59ef5d4" xmlns:xlink="http://www.w3.org/1999/xlink" viewBox="0 0 56 66" fill="#fff" fill-rule="evenodd" stroke="#000" stroke-linecap="round" stroke-linejoin="round">
    <g stroke="none" fill-rule="nonzero" transform="translate(0.5 0.5)">
        <path d="M10.095 27.966l-9.68-7.26c-.27-.27-.403-.538-.403-.672a.74.74 0 0 1 .403-.672l9.68-7.26c.672-.538 2.017-.538 2.824 0l9.68 7.26c.27.27.403.538.403.672a.74.74 0 0 1-.403.672l-9.68 7.26c-.807.538-2.15.538-2.824 0" fill="#95c840"/>
        <path d="M10.095 51.36L.403 44.1C.133 43.83 0 43.56 0 43.427a.74.74 0 0 1 .403-.672l9.68-7.26c.672-.538 2.017-.538 2.824 0l9.68 7.26c.27.27.403.538.403.672a.74.74 0 0 1-.403.672l-9.68 7.26c-.807.672-2.15.672-2.824 0" fill="#59c9e6"/>
        <path d="M25.69 16.403l-9.68-7.26c-.27-.27-.403-.538-.403-.807a.74.74 0 0 1 .403-.672l9.68-7.26c.807-.538 2.017-.538 2.824 0l9.68 7.26c.27.27.403.538.403.672 0 .27-.134.538-.403.807l-9.68 7.26c-.807.538-2.017.538-2.824 0" fill="#ebe719"/>
        <path d="M25.69 39.798l-9.68-7.26c-.27-.27-.403-.538-.403-.672a.74.74 0 0 1 .403-.672l9.68-7.26c.807-.538 2.017-.538 2.824 0l9.68 7.26c.27.27.403.538.403.672a.74.74 0 0 1-.403.672l-9.68 7.26c-.807.538-2.017.538-2.824 0" fill="#50c0af"/>
        <path transform="translate(0,47.194)" d="M25.69 16.403l-9.68-7.26c-.27-.27-.403-.538-.403-.807a.74.74 0 0 1 .403-.672l9.68-7.26c.807-.538 2.017-.538 2.824 0l9.68 7.26c.27.27.403.538.403.672 0 .27-.134.538-.403.807l-9.68 7.26c-.807.538-2.017.538-2.824 0" fill="#0377bb"/>
        <path d="M41.288 27.966l-9.68-7.26c-.27-.27-.403-.538-.403-.672a.74.74 0 0 1 .403-.672l9.68-7.26c.672-.538 2.017-.538 2.824 0l9.68 7.26c.27.27.403.538.403.672a.74.74 0 0 1-.403.672l-9.68 7.26c-.672.538-2.017.538-2.824 0" fill="#78bc43"/>
        <path d="M41.288 51.36l-9.68-7.26c-.27-.27-.403-.538-.403-.672a.74.74 0 0 1 .403-.672l9.68-7.26c.672-.538 2.017-.538 2.824 0l9.68 7.26c.27.27.403.538.403.672a.74.74 0 0 1-.403.672l-9.68 7.26c-.672.672-2.017.672-2.824 0" fill="#109fda"/>
    </g>
</svg>