<?xml version="1.0" encoding="UTF-8"?>
<svg id="32de6b2b-4165-4947-9b45-8b5aa59ef5d4" xmlns="http://www.w3.org/2000/svg" width="100" height="100" viewBox="0 0 100 100">
  <defs>
    <style>
      .cls-1 {
        fill: #00b04c;
      }
    </style>
  </defs>
  <g>
    <path class="cls-1" d="m24.64,29.21l18.78,18.78c1.11,1.11,1.11,2.92,0,4.03l-18.78,18.78c-1.11,1.11-2.92,1.11-4.03,0L1.83,52.01c-1.11-1.11-1.11-2.92,0-4.03l18.78-18.78c1.11-1.11,2.92-1.11,4.03,0"/>
    <path class="cls-1" d="m52.01,1.83l18.78,18.78c1.11,1.11,1.11,2.92,0,4.03l-18.78,18.78c-1.11,1.11-2.92,1.11-4.03,0l-18.78-18.78c-1.11-1.11-1.11-2.92,0-4.03L47.99,1.83c1.11-1.11,2.92-1.11,4.03,0"/>
  </g>
  <g>
    <path class="cls-1" d="m52.01,56.58l18.78,18.78c1.11,1.11,1.11,2.92,0,4.03l-18.78,18.78c-1.11,1.11-2.92,1.11-4.03,0l-18.78-18.78c-1.11-1.11-1.11-2.92,0-4.03l18.78-18.78c1.11-1.11,2.92-1.11,4.03,0"/>
    <path class="cls-1" d="m79.39,29.21l18.78,18.78c1.11,1.11,1.11,2.92,0,4.03l-18.78,18.78c-1.11,1.11-2.92,1.11-4.03,0l-18.78-18.78c-1.11-1.11-1.11-2.92,0-4.03l18.78-18.78c1.11-1.11,2.92-1.11,4.03,0"/>
  </g>
</svg>
