<svg width="24" height="30" viewBox="0 0 24 30" fill="none" xmlns="http://www.w3.org/2000/svg">
<path fill-rule="evenodd" clip-rule="evenodd" d="M13.206 22.6083L15.1578 24.8817L17.4134 22.9148L19.6216 20.9893C21.9936 18.9082 23.4519 15.9658 23.678 12.8048C23.9042 9.64381 22.8798 6.52107 20.8285 4.11869C18.7635 1.7285 15.8436 0.258959 12.7068 0.0310757C9.57005 -0.196808 6.47123 0.835486 4.08728 2.90246C1.71531 4.98351 0.256981 7.92589 0.030838 11.0869C-0.195305 14.2479 0.829114 17.3706 2.88034 19.773L10.6699 28.8427C11.3656 29.6532 12.098 30.5308 13.2287 29.5953L13.2625 29.5666L13.2953 29.5374C14.3767 28.542 13.6197 27.6863 12.924 26.8758L12.4384 26.31L5.13587 17.8037C3.6022 16.0042 2.83666 13.6667 3.00613 11.3007C3.17561 8.93481 4.26635 6.73232 6.04059 5.17341C7.82638 3.62793 10.146 2.8565 12.4939 3.02728C14.8418 3.19805 17.0274 4.2972 18.5744 6.08509C20.1083 7.88458 20.874 10.2222 20.7047 12.5882C20.5353 14.9543 19.4445 17.1569 17.6702 18.7159L15.462 20.6414L13.5101 18.3685L11.5583 16.0956L9.64742 13.8704C9.1485 13.2768 8.90023 12.5098 8.95582 11.7339C9.01141 10.958 9.36644 10.2349 9.94481 9.71967C10.534 9.21703 11.295 8.96692 12.065 9.02294C12.8349 9.07895 13.5525 9.43664 14.0639 10.0194C14.4879 10.5247 14.7331 11.1578 14.7609 11.8189C14.7887 12.4801 14.5975 13.1318 14.2174 13.6714C14.1997 13.6964 14.1817 13.7211 14.1633 13.7454C13.9694 14.0272 13.8737 14.3659 13.8911 14.7085C13.9086 15.051 14.0383 15.378 14.2599 15.6383C15.2399 16.7796 16.3213 15.9944 16.8973 15.0283C17.5387 13.9512 17.8279 12.6982 17.724 11.4465C17.62 10.1947 17.1282 9.00757 16.318 8.05295C15.2888 6.86756 13.8372 6.13908 12.2783 6.02568C10.7193 5.91228 9.17893 6.42311 7.9915 7.44727C6.81516 8.48433 6.09223 9.94712 5.9797 11.5181C5.86717 13.089 6.37411 14.6412 7.39045 15.8378L9.30128 18.063L11.2541 20.3335L13.206 22.6063V22.6083Z" fill="#0095E5"/>
</svg>
