<svg id="Layer_1" data-name="Layer 1" xmlns="http://www.w3.org/2000/svg" viewBox="0 0 230 230"><defs><style>.cls-1{fill:#fffff9;}.cls-2{fill:#f43a3a;}.cls-3,.cls-4{fill:#1f1e2c;}.cls-4{font-size:2.33px;font-family:Poppins-Regular, Poppins;}</style></defs><rect class="cls-1" width="230" height="230"/><path class="cls-2" d="M115.38,93c-1.78,0-2.91,1-2.91,3.52V112h5.82V96.53c0-2.55-1.12-3.52-2.91-3.52"/><path class="cls-2" d="M153.35,100.51c0-.49-.18-1-.21-1.46s.09-1,0-1.48-.11-1-.19-1.46-.09-1-.19-1.46-.22-1-.34-1.44c0,0-.14-.08-.15-.13-.09-.47-.14-1-.26-1.45s-.33-.94-.47-1.42-.16-1-.3-1.46-.27-1-.43-1.42-.41-.92-.57-1.39-.25-1-.43-1.44-.53-.87-.71-1.34-.37-.93-.56-1.39-.27-1-.48-1.43-.48-.88-.69-1.35-.31-.95-.53-1.41-.4-.92-.62-1.38-.55-.86-.77-1.31-.39-.93-.62-1.39-.45-.9-.68-1.35-.39-.94-.62-1.39-.52-.88-.75-1.32-.53-.87-.77-1.32-.42-.92-.66-1.37-.41-.94-.65-1.38-.6-.82-.85-1.26-.53-.86-.78-1.3-.4-1-.65-1.39-.59-.82-.84-1.24-.47-.92-.73-1.34-.58-.82-.84-1.23-.45-.94-.72-1.34-.57-.84-.84-1.22-.62-.78-.9-1.14a13.75,13.75,0,0,0-1-1,12.31,12.31,0,0,0-.89-1.11,10.78,10.78,0,0,0-1-.75,3.83,3.83,0,0,0-1-.58c-.47-.19-.71-.17-.88.16a2.77,2.77,0,0,0-.11,1.35,11.27,11.27,0,0,0,.06,1.48c.07.46.28.94.41,1.46s.16,1,.29,1.48.23,1,.36,1.47.37.93.51,1.42.29,1,.43,1.45.15,1,.29,1.49l.42,1.45c.15.49.44.93.58,1.41s.09,1,.22,1.46.45.9.57,1.37.07,1,.18,1.47.28.95.38,1.41.12,1,.2,1.45.35,1,.39,1.43.06,1,.06,1.46a8,8,0,0,1-.32,1.38,4.67,4.67,0,0,1-.31,1.37,2.82,2.82,0,0,1-.95.9,2.92,2.92,0,0,1-1.13.64,5.63,5.63,0,0,1-1.32-.09,4,4,0,0,1-1.38-.23,3.79,3.79,0,0,1-1.18-.89,5.14,5.14,0,0,1-.9-1.23,9.21,9.21,0,0,1-.46-1.51,12.43,12.43,0,0,1-.41-1.52c-.08-.5-.16-1-.21-1.57s0-1-.07-1.57,0-1,0-1.57,0-1,0-1.56,0-1,.06-1.56,0-1.06,0-1.57.06-1.05.08-1.56.13-1,.15-1.53,0-1.09,0-1.59,0-1.11,0-1.6a15.62,15.62,0,0,0,0-1.59,1.82,1.82,0,0,0-.52-1.33c-.24-.17-.56-.21-1,.26a8.47,8.47,0,0,0-.84,1c-.22.31-.41.69-.63,1s-.48.63-.68,1-.33.8-.51,1.2-.32.8-.5,1.21-.31.82-.48,1.23-.36.79-.52,1.22-.38.79-.52,1.22-.16.93-.3,1.36-.32.77-.45,1.21c-.09-.48-.09-.9-.18-1.36s-.36-.89-.46-1.35-.19-.94-.29-1.4-.12-1-.23-1.42-.33-.88-.44-1.33-.18-1-.3-1.39-.3-1-.43-1.45-.3-1-.44-1.44-.21-1-.36-1.49-.38-.91-.53-1.37-.24-1-.4-1.45-.45-.83-.62-1.27-.23-1-.4-1.44-.35-.9-.53-1.32-.45-.8-.63-1.2-.37-.87-.55-1.25-.38-.87-.57-1.22-.39-.89-.59-1.2a3,3,0,0,0-.83-.72c-.4-.34-.64-.34-.79.15a4.26,4.26,0,0,0-.1,1.51c0,.42.05.94.14,1.51s.31.83.43,1.36.11.95.19,1.41.24.89.3,1.36.09,1,.12,1.43,0,1,0,1.46.12,1,.12,1.45,0,1,0,1.46-.23,1-.28,1.44-.06,1-.13,1.45-.08,1-.16,1.45-.19,1-.3,1.54-.16,1-.28,1.55-.35,1-.5,1.47-.38,1-.54,1.44-.21,1-.39,1.52-.36,1-.55,1.45-.51.88-.72,1.35-.33,1-.55,1.49c-.16-.43-.37-.87-.51-1.3s-.32-.87-.45-1.3-.26-.9-.37-1.34-.07-1-.17-1.42-.19-.91-.27-1.36-.28-.88-.34-1.34,0-1,0-1.48-.13-1-.17-1.55-.17-1-.19-1.55,0-1.08,0-1.59,0-1.08,0-1.58,0-1.09,0-1.59.16-1.12.18-1.61-.07-1.12-.09-1.56c0-.73-.17-1.12-.4-1.26s-.48-.07-1,.35a9.61,9.61,0,0,0-1,.83c-.29.3-.56.75-.9,1.14s-.62.67-.94,1.07-.54.82-.86,1.23-.58.76-.88,1.18-.57.79-.88,1.21-.6.76-.9,1.19-.6.79-.89,1.22-.53.86-.83,1.3-.58.81-.87,1.25-.53.87-.82,1.31-.52.82-.78,1.24-.46.87-.72,1.3-.57.78-.83,1.21-.56.81-.81,1.23-.4.91-.65,1.34-.59.79-.84,1.23-.47.86-.71,1.29l-.71,1.3c-.24.43-.39.9-.62,1.34s-.56.82-.79,1.27-.39.89-.61,1.33-.56.83-.77,1.28-.4.89-.61,1.34-.32.92-.52,1.37-.35.91-.54,1.36-.36.91-.54,1.36-.37.9-.54,1.36-.51.86-.68,1.32-.27.93-.42,1.39-.2,1-.34,1.42-.19.94-.32,1.41-.34.91-.46,1.38c-.06.18-.19.34-.24.52-.14.5-.08,1-.19,1.53s-.46,1-.55,1.47-.11,1-.17,1.53-.07,1-.11,1.54.09,1,.08,1.48-.09,1-.07,1.48.12,1,.16,1.48-.08,1,0,1.49.2,1,.29,1.48.1,1,.21,1.49.4,1,.54,1.45.21,1,.38,1.48.31,1,.51,1.46.34,1,.57,1.46.64.89.89,1.35.55.92.83,1.38.6.9.9,1.35.49,1,.82,1.4.71.86,1.07,1.29.78.81,1.17,1.23.66.9,1.06,1.3.78.83,1.21,1.22,1,.64,1.48,1,.91.74,1.39,1.09.94.71,1.44,1,1,.72,1.46,1,1,.67,1.54,1,1.21.4,1.76.67.78.45,1.18.66V115.2a3.18,3.18,0,0,1,3.18-3.18h5.47V96.88c0-5.71,3-9,8.52-9s8.52,3.27,8.52,9V112h5.47a3.18,3.18,0,0,1,3.18,3.18v15a5.9,5.9,0,0,1,.69-.4c.54-.26,1.14-.44,1.66-.72s1-.66,1.52-1,1.2-.43,1.7-.76.87-.79,1.35-1.13,1.07-.59,1.53-1,.83-.81,1.27-1.19.94-.71,1.35-1.11.76-.84,1.15-1.25.73-.85,1.1-1.27.81-.8,1.15-1.24.5-1,.81-1.41.74-.84,1-1.29.52-.94.78-1.4.32-1,.55-1.47.55-.91.76-1.39.54-.92.71-1.41.12-1,.27-1.5.44-.95.57-1.44.32-1,.41-1.46,0-1,.11-1.5.12-1,.17-1.48.2-1,.22-1.48,0-1-.06-1.48"/><rect class="cls-2" x="79.62" y="136.49" width="6" height="38.16"/><path class="cls-2" d="M107.75,145.92v5c0,6.1-2.94,9.43-8.94,9.43H96v14.34H90V136.49h8.83c6,0,8.94,3.33,8.94,9.43m-11.77-4v12.92h2.83c1.91,0,2.94-.87,2.94-3.59v-5.73c0-2.72-1-3.6-2.94-3.6Z"/><path class="cls-3" d="M110.31,145.65c0-6.11,3.22-9.59,9.11-9.59s9.1,3.48,9.1,9.59V165.5a11.28,11.28,0,0,1-1.14,5.34c.27.71.71.82,1.69.82h.54V177h-.81c-2.67,0-4.36-1-5.18-2.62a12.22,12.22,0,0,1-4.2.71c-5.89,0-9.11-3.49-9.11-9.59Zm6,20.23c0,2.72,1.2,3.76,3.11,3.76s3.11-1,3.11-3.76V145.27c0-2.73-1.2-3.76-3.11-3.76s-3.11,1-3.11,3.76Z"/><path class="cls-3" d="M141.55,136.06c5.83,0,8.83,3.48,8.83,9.59v1.2h-5.67v-1.58c0-2.73-1.09-3.76-3-3.76s-3,1-3,3.76c0,7.85,11.73,9.32,11.73,20.23,0,6.1-3.06,9.59-8.95,9.59s-8.94-3.49-8.94-9.59v-2.35h5.67v2.73c0,2.72,1.2,3.71,3.11,3.71s3.11-1,3.11-3.71c0-7.85-11.72-9.33-11.72-20.23,0-6.11,3-9.59,8.83-9.59"/><path class="cls-3" d="M79.74,181c.5,0,.71.29.71.77v.38c0,.5-.23.76-.73.76h-.31v1.24h-.35V181Zm0,1.59c.26,0,.38-.12.38-.42v-.42c0-.29-.1-.43-.36-.43h-.33v1.27Z"/><path class="cls-3" d="M82.78,181c.49,0,.7.25.7.72v.26c0,.34-.12.56-.39.64.29.09.4.32.4.66v.49a.78.78,0,0,0,.06.38h-.36a.82.82,0,0,1-.06-.38v-.5c0-.35-.16-.46-.45-.46h-.25v1.34h-.35V181Zm-.09,1.49c.28,0,.44-.09.44-.44v-.3c0-.28-.1-.43-.36-.43h-.34v1.17Z"/><path class="cls-3" d="M85.17,181.71c0-.48.24-.79.72-.79a.69.69,0,0,1,.73.79v1.63a.69.69,0,0,1-.73.79c-.48,0-.72-.31-.72-.79Zm.35,1.65c0,.29.12.45.37.45s.38-.16.38-.45v-1.67c0-.28-.12-.45-.38-.45s-.37.17-.37.45Z"/><path class="cls-3" d="M88.65,183.47l-.12.63h-.32l.6-3.15h.51l.6,3.15h-.35l-.12-.63Zm0-.31h.7l-.35-1.81Z"/><path class="cls-3" d="M92.94,181.71V182H92.6v-.3c0-.28-.11-.45-.37-.45s-.36.17-.36.45v1.67c0,.28.11.45.36.45s.37-.17.37-.45V183h.34v.39c0,.48-.23.79-.71.79s-.71-.31-.71-.79v-1.63c0-.48.22-.79.71-.79s.71.31.71.79"/><polygon class="cls-3" points="95.06 184.1 95.06 181.27 94.48 181.27 94.48 180.95 95.99 180.95 95.99 181.27 95.41 181.27 95.41 184.1 95.06 184.1"/><rect class="cls-3" x="97.58" y="180.95" width="0.35" height="3.15"/><polygon class="cls-3" points="99.91 180.95 100.42 183.69 100.93 180.95 101.25 180.95 100.66 184.1 100.14 184.1 99.55 180.95 99.91 180.95"/><polygon class="cls-3" points="104 182.34 104 182.66 103.22 182.66 103.22 183.78 104.17 183.78 104.17 184.1 102.87 184.1 102.87 180.95 104.17 180.95 104.17 181.27 103.22 181.27 103.22 182.34 104 182.34"/><polygon class="cls-3" points="105.84 184.1 105.84 180.95 106.2 180.95 106.2 183.78 107.1 183.78 107.1 184.1 105.84 184.1"/><polygon class="cls-3" points="108.99 182.97 108.33 180.95 108.69 180.95 109.18 182.5 109.68 180.95 110.01 180.95 109.34 182.97 109.34 184.1 108.99 184.1 108.99 182.97"/><path class="cls-3" d="M114.35,181c.5,0,.71.29.71.77v.38a.66.66,0,0,1-.74.76H114v1.24h-.35V181Zm0,1.59c.26,0,.39-.12.39-.42v-.42c0-.29-.1-.43-.36-.43H114v1.27Z"/><path class="cls-3" d="M117.38,181c.5,0,.71.25.71.72v.26c0,.34-.12.56-.39.64.28.09.39.32.39.66v.49a.92.92,0,0,0,.06.38h-.35a.82.82,0,0,1-.06-.38v-.5c0-.35-.17-.46-.46-.46H117v1.34h-.35V181Zm-.09,1.49c.28,0,.45-.09.45-.44v-.3c0-.28-.1-.43-.36-.43H117v1.17Z"/><polygon class="cls-3" points="120.93 182.34 120.93 182.66 120.16 182.66 120.16 183.78 121.1 183.78 121.1 184.1 119.81 184.1 119.81 180.95 121.1 180.95 121.1 181.27 120.16 181.27 120.16 182.34 120.93 182.34"/><polygon class="cls-3" points="123.04 180.95 123.56 183.69 124.07 180.95 124.39 180.95 123.8 184.1 123.28 184.1 122.69 180.95 123.04 180.95"/><polygon class="cls-3" points="127.13 182.34 127.13 182.66 126.36 182.66 126.36 183.78 127.31 183.78 127.31 184.1 126.01 184.1 126.01 180.95 127.31 180.95 127.31 181.27 126.36 181.27 126.36 182.34 127.13 182.34"/><polygon class="cls-3" points="129.29 184.1 128.98 184.1 128.98 180.95 129.42 180.95 130.15 183.23 130.15 180.95 130.46 180.95 130.46 184.1 130.1 184.1 129.29 181.55 129.29 184.1"/><polygon class="cls-3" points="132.63 184.1 132.63 181.27 132.05 181.27 132.05 180.95 133.56 180.95 133.56 181.27 132.98 181.27 132.98 184.1 132.63 184.1"/><polygon class="cls-3" points="138.27 182.42 138.27 182.74 137.55 182.74 137.55 184.1 137.19 184.1 137.19 180.95 138.45 180.95 138.45 181.27 137.55 181.27 137.55 182.42 138.27 182.42"/><path class="cls-3" d="M140.78,181c.49,0,.7.25.7.72v.26c0,.34-.12.56-.39.64.29.09.4.32.4.66v.49a.78.78,0,0,0,.06.38h-.36a.85.85,0,0,1-.05-.38v-.5c0-.35-.17-.46-.46-.46h-.25v1.34h-.35V181Zm-.09,1.49c.28,0,.45-.09.45-.44v-.3c0-.28-.11-.43-.37-.43h-.34v1.17Z"/><path class="cls-3" d="M143.56,183.47l-.12.63h-.33l.6-3.15h.51l.61,3.15h-.35l-.13-.63Zm0-.31h.7l-.35-1.81Z"/><path class="cls-3" d="M146.79,183.36c0,.28.11.45.36.45s.37-.17.37-.45V181h.33v2.39c0,.48-.22.8-.71.8s-.7-.32-.7-.8V181h.35Z"/><path class="cls-3" d="M150.28,181c.49,0,.72.3.72.78v1.59c0,.48-.23.78-.72.78h-.73V181Zm0,2.83c.25,0,.37-.16.37-.44v-1.62c0-.29-.12-.45-.37-.45h-.38v2.51Z"/><text class="cls-4" transform="translate(150.79 180.54)">TM</text></svg>