<svg id="eae568ab-2862-40ec-9133-8a40986d66fa" xmlns="http://www.w3.org/2000/svg" width="230" height="230" viewBox="0 0 230 230">
  <path d="M115.4,93c1.8,0,2.9,1,2.9,3.5V112h-5.8V96.5c0-2.5,1.1-3.5,2.9-3.5m38,7.5-.3-1.5c0-.4.1-.9.1-1.4s-.1-1-.2-1.5-.1-1-.2-1.5l-.3-1.4h-.2a8,8,0,0,0-.3-1.5c-.1-.4-.3-.9-.4-1.4l-.3-1.4a8.3,8.3,0,0,1-.4-1.5,5.9,5.9,0,0,1-.6-1.4c-.2-.4-.3-.9-.5-1.4a5.4,5.4,0,0,0-.7-1.3,5.8,5.8,0,0,0-.5-1.4c-.2-.5-.3-1-.5-1.5s-.5-.8-.7-1.3-.3-1-.5-1.4l-.6-1.4-.8-1.3-.6-1.4a9.1,9.1,0,0,1-.7-1.4l-.6-1.3-.8-1.4c-.2-.4-.5-.8-.7-1.3a8.3,8.3,0,0,1-.7-1.3c-.3-.5-.4-1-.7-1.4a14.8,14.8,0,0,0-.8-1.3l-.8-1.3-.6-1.4-.9-1.2c-.2-.5-.5-.9-.7-1.4l-.9-1.2a8.3,8.3,0,0,0-.7-1.3l-.8-1.3-.9-1.1a9.4,9.4,0,0,0-1-1l-.9-1.1c-.3-.4-.7-.5-1-.8l-1-.6c-.5-.1-.7-.1-.9.2a4.9,4.9,0,0,0-.1,1.4,7.1,7.1,0,0,0,.1,1.4c.1.5.3,1,.4,1.5l.3,1.5.3,1.5.6,1.4a10.3,10.3,0,0,0,.4,1.4,8,8,0,0,0,.3,1.5c.1.5.3,1,.4,1.5a14.7,14.7,0,0,0,.6,1.4c.1.4.1,1,.2,1.4a8.4,8.4,0,0,0,.6,1.4c.1.5,0,1,.1,1.5a7.4,7.4,0,0,1,.4,1.4c.1.5.1,1,.2,1.4a8.3,8.3,0,0,1,.4,1.5,7.1,7.1,0,0,1,.1,1.4c0,.5-.3,1-.3,1.4a5.7,5.7,0,0,1-.4,1.4,2.6,2.6,0,0,1-.9.9,3.9,3.9,0,0,1-1.1.6,3.4,3.4,0,0,1-1.4-.1,2.9,2.9,0,0,1-2.5-1.1,3.4,3.4,0,0,1-.9-1.2c-.2-.5-.3-1-.5-1.5s-.3-1-.4-1.6a7.7,7.7,0,0,1-.2-1.5c0-.5-.1-1.1-.1-1.6s.1-1,.1-1.6V67.7c0-.6.1-1.1.1-1.6V64.5a7.6,7.6,0,0,1,.1-1.5c0-.5.1-1.1.1-1.6V59.9a8.5,8.5,0,0,0,0-1.6V56.7c-.1-.8-.3-1.2-.6-1.4s-.5-.2-1,.3l-.8,1-.6,1.1a8.6,8.6,0,0,0-.7,1c-.2.3-.3.8-.5,1.2a4.3,4.3,0,0,0-.5,1.2l-.5,1.2a6.1,6.1,0,0,0-.5,1.2l-.6,1.2a5.8,5.8,0,0,1-.3,1.4l-.4,1.2c-.1-.5-.1-.9-.2-1.4s-.3-.8-.4-1.3l-.3-1.4-.3-1.4c-.1-.5-.3-.9-.4-1.4l-.3-1.3c-.1-.5-.3-1-.4-1.5s-.3-1-.5-1.4l-.3-1.5-.6-1.4a5.7,5.7,0,0,0-.4-1.4,5.2,5.2,0,0,0-.6-1.3,5.7,5.7,0,0,0-.4-1.4c-.2-.5-.3-1-.5-1.4a6.7,6.7,0,0,1-.6-1.2l-.6-1.2-.6-1.2a3.4,3.4,0,0,0-.6-1.2c-.2-.4-.6-.6-.8-.8s-.6-.3-.8.2a5.8,5.8,0,0,0-.1,1.5c.1.4.1.9.2,1.5s.3.8.4,1.4.1.9.2,1.4l.3,1.3a7.6,7.6,0,0,1,.1,1.5,6.5,6.5,0,0,1,0,1.4c0,.5.1,1,.1,1.5v1.4a8,8,0,0,1-.3,1.5,6.6,6.6,0,0,1-.1,1.4c-.1.5-.1,1-.2,1.5l-.3,1.5a9,9,0,0,1-.3,1.6c-.1.5-.3.9-.4,1.4l-.6,1.5a8.3,8.3,0,0,1-.4,1.5c-.2.5-.3,1-.5,1.4l-.7,1.4a9.4,9.4,0,0,0-.6,1.5,6.9,6.9,0,0,1-.5-1.3c-.2-.5-.3-.9-.5-1.3l-.3-1.4c-.1-.4-.1-.9-.2-1.4l-.3-1.3a7,7,0,0,1-.3-1.4,7.5,7.5,0,0,1,0-1.5,7.7,7.7,0,0,1-.2-1.5,7.7,7.7,0,0,1-.2-1.5V54.1a10,10,0,0,0,.2-1.6c0-.6-.1-1.1-.1-1.6s-.1-1.1-.4-1.2-.5-.1-1,.3l-1,.8-.9,1.2a5.3,5.3,0,0,0-.9,1.1,12.5,12.5,0,0,0-.9,1.2l-.9,1.2a6.2,6.2,0,0,0-.9,1.2c-.2.4-.6.7-.9,1.2s-.6.7-.9,1.2l-.8,1.3-.8,1.2-.9,1.3-.8,1.3a15.5,15.5,0,0,1-1.5,2.5l-.8,1.2c-.3.4-.4.9-.7,1.4s-.6.8-.8,1.2-.5.8-.7,1.3a5.4,5.4,0,0,0-.7,1.3,7.5,7.5,0,0,0-.6,1.3,9.1,9.1,0,0,0-.8,1.3L84.4,77l-.8,1.3L83,79.6c-.2.5-.3,1-.5,1.4l-.6,1.4c-.2.4-.3.9-.5,1.3l-.6,1.4c-.1.4-.5.9-.6,1.3l-.5,1.4-.3,1.4-.3,1.4c-.1.5-.4.9-.5,1.4s-.2.3-.2.5a8.8,8.8,0,0,0-.2,1.6c-.1.5-.5.9-.6,1.4s-.1,1.1-.1,1.6a7.6,7.6,0,0,0-.1,1.5,7.5,7.5,0,0,0,0,1.5v1.5c0,.5.1.9.1,1.4s-.1,1,0,1.5l.3,1.5c.1.5.1,1,.2,1.5a5.9,5.9,0,0,0,.6,1.4l.3,1.5c.2.5.3,1,.5,1.5l.6,1.4c.2.5.7.9.9,1.4a10,10,0,0,1,.8,1.4l.9,1.3c.3.5.5,1,.8,1.4l1.1,1.3,1.2,1.2a6.9,6.9,0,0,0,1.1,1.3,7.4,7.4,0,0,0,1.2,1.3c.4.4,1,.6,1.4,1l1.4,1.1,1.5,1,1.4,1,1.6,1,1.7.7,1.2.6V115.2a3.2,3.2,0,0,1,3.2-3.2h5.5V96.9c0-5.7,3-9,8.5-9s8.5,3.3,8.5,9V112h5.5a3.2,3.2,0,0,1,3.2,3.2v15l.6-.4,1.7-.7,1.5-1,1.7-.7,1.4-1.2,1.5-.9,1.3-1.2,1.3-1.1,1.2-1.3,1.1-1.2c.3-.5.8-.8,1.1-1.3a6.4,6.4,0,0,0,.8-1.4,15,15,0,0,0,1.1-1.3c.2-.4.5-.9.7-1.4a8.4,8.4,0,0,0,.6-1.4l.7-1.4.8-1.4c.1-.5.1-1.1.2-1.6a5.9,5.9,0,0,0,.6-1.4c.1-.5.3-1,.4-1.5s0-1,.1-1.4.1-1,.2-1.5.2-1,.2-1.5v-1.5M79.6,174.7h6V136.5h-6Zm28.2-28.8v5c0,6.1-3,9.4-9,9.4H96v14.4H90V136.5h8.8c6,0,9,3.3,9,9.4m-11.8-4v13h2.8c1.9,0,3-.9,3-3.6v-5.8c0-2.7-1.1-3.6-3-3.6Z" fill="#f43a3a"/>
  <path d="M110.3,145.7c0-6.2,3.2-9.6,9.1-9.6s9.1,3.4,9.1,9.6v19.8a11.9,11.9,0,0,1-1.1,5.3c.3.7.7.9,1.7.9h.5V177h-.8c-2.7,0-4.4-1-5.2-2.6a13.2,13.2,0,0,1-4.2.7c-5.9,0-9.1-3.5-9.1-9.6Zm6,20.2c0,2.7,1.2,3.7,3.1,3.7s3.1-1,3.1-3.7V145.3c0-2.8-1.2-3.8-3.1-3.8s-3.1,1-3.1,3.8Zm25.2-29.8c-5.8,0-8.8,3.4-8.8,9.6,0,10.9,11.7,12.3,11.7,20.2,0,2.7-1.2,3.7-3.1,3.7s-3.1-1-3.1-3.7v-2.7h-5.6v2.3c0,6.1,3,9.6,8.9,9.6s8.9-3.5,8.9-9.6c0-10.9-11.7-12.4-11.7-20.2,0-2.8,1.1-3.8,3-3.8s3,1,3,3.8v1.6h5.7v-1.2c0-6.2-3-9.6-8.9-9.6" fill="#1f1e2c"/>
</svg>
