<?xml version="1.0" encoding="UTF-8" standalone="no"?>
<!DOCTYPE svg PUBLIC "-//W3C//DTD SVG 1.1//EN" "http://www.w3.org/Graphics/SVG/1.1/DTD/svg11.dtd">
<svg version="1.1" xmlns="http://www.w3.org/2000/svg" xmlns:xlink="http://www.w3.org/1999/xlink" preserveAspectRatio="xMidYMid meet" viewBox="-0.954545454545439 -0.6003996003996015 86.76723276723276 63.6003996003996" width="82.77" height="59.6"><defs><path d="M6.75 37.16C6.75 37.16 31.62 10.19 41.43 10.19C47.08 10.19 55.42 16.81 61.47 22.43C62.14 21.76 67.45 16.45 68.12 15.78C59.51 8.15 48.89 0.4 41.43 0.4C26.8 0.4 0.05 30.2 0.05 30.2C0.05 30.2 2.68 33.14 6.75 37.19" id="b19fHG8FbI"></path><path d="M76.14 23.27C76.14 23.27 50.99 50.09 41.43 50.09C35.82 50.09 27.56 43.56 21.5 37.96C20.83 38.63 15.45 44.01 14.78 44.69C23.38 52.27 34.01 60 41.43 60C56.06 60 82.81 30.2 82.81 30.2C82.81 30.2 80.2 27.28 76.14 23.27" id="aqaF2dAMH"></path><path d="M41.39 20.53C36.6 20.53 27.83 30.3 27.83 30.3C27.83 30.3 36.6 40.07 41.39 40.07C46.19 40.07 54.99 30.3 54.99 30.3C54.99 30.3 46.22 20.53 41.42 20.53M50.32 31.67C49.86 31.67 49.49 31.3 49.49 30.84C49.49 30.68 49.53 30.52 49.62 30.39C49.39 30.15 47.61 28.26 47.39 28.02C46.97 28.34 46.39 28.32 46 27.97C45.71 28.23 43.42 30.33 43.13 30.59C43.81 31.56 43.56 32.9 42.59 33.58C41.61 34.25 40.27 34.01 39.6 33.03C39.22 32.48 39.12 31.78 39.33 31.14C38.98 30.92 36.17 29.19 35.82 28.97C35.62 29.12 35.38 29.19 35.13 29.19C34.47 29.2 33.94 28.67 33.93 28.01C33.93 27.36 34.45 26.82 35.11 26.81C35.76 26.81 36.29 27.32 36.31 27.97C36.31 28.04 36.31 28.11 36.31 28.17C36.66 28.39 39.47 30.13 39.83 30.35C40.23 29.9 40.8 29.65 41.4 29.65C41.91 29.65 42.4 29.83 42.78 30.16C43.08 29.9 45.44 27.8 45.73 27.54C45.67 27.4 45.64 27.25 45.64 27.1C45.7 26.49 46.24 26.04 46.86 26.09C47.39 26.15 47.82 26.57 47.87 27.1C47.87 27.29 47.82 27.48 47.73 27.64C47.96 27.88 49.83 29.8 50.07 30.04C50.15 30.02 50.24 30.02 50.33 30.04C50.78 30.04 51.15 30.41 51.15 30.87C51.15 31.33 50.78 31.7 50.33 31.7" id="cnK39tT4f"></path></defs><g><g><use xlink:href="#b19fHG8FbI" opacity="1" fill="#c9c9c9" fill-opacity="1"></use><g><use xlink:href="#b19fHG8FbI" opacity="1" fill-opacity="0" stroke="#000000" stroke-width="1" stroke-opacity="0"></use></g></g><g><use xlink:href="#aqaF2dAMH" opacity="1" fill="#c9c9c9" fill-opacity="1"></use><g><use xlink:href="#aqaF2dAMH" opacity="1" fill-opacity="0" stroke="#000000" stroke-width="1" stroke-opacity="0"></use></g></g><g><use xlink:href="#cnK39tT4f" opacity="1" fill="#06f5f8" fill-opacity="1"></use><g><use xlink:href="#cnK39tT4f" opacity="1" fill-opacity="0" stroke="#000000" stroke-width="1" stroke-opacity="0"></use></g></g></g></svg>