<?xml version="1.0" encoding="UTF-8" standalone="no"?>
<!DOCTYPE svg PUBLIC "-//W3C//DTD SVG 1.1//EN" "http://www.w3.org/Graphics/SVG/1.1/DTD/svg11.dtd">
<svg version="1.1" xmlns="http://www.w3.org/2000/svg" preserveAspectRatio="xMidYMid meet" viewBox="155.55193586900918 192.65463804488206 110.0177627250797 106.43902439024401" width="106.02" height="102.44"><defs><path d="M232.54 193.65C249.13 193.65 262.57 207.1 262.57 223.68C262.57 238.16 262.57 250.24 262.57 264.38C262.57 281.9 248.37 296.09 230.86 296.09C216 296.09 202.96 296.09 188.06 296.09C170.66 296.09 156.55 281.99 156.55 264.59C156.55 250.4 156.55 238.4 156.55 223.98C156.55 207.23 170.13 193.65 186.88 193.65C202.02 193.65 217.34 193.65 232.54 193.65Z" id="1671e1e8-1270-4128-8df4-faa8c2cac4d4"></path><path d="M176.12 251.74C176.12 251.74 201 224.76 210.81 224.76C216.45 224.76 224.79 231.39 230.85 237C231.51 236.34 236.82 231.02 237.49 230.36C228.88 222.73 218.26 214.97 210.81 214.97C196.17 214.97 169.42 244.77 169.42 244.77C169.42 244.77 172.05 247.71 176.12 251.77" id="c5b43248-7429-4c92-8511-683ea4d90558"></path><path d="M245.51 237.84C245.51 237.84 220.37 264.66 210.81 264.66C205.19 264.66 196.93 258.13 190.88 252.54C190.2 253.21 184.82 258.59 184.15 259.26C192.75 266.84 203.38 274.57 210.81 274.57C225.43 274.57 252.18 244.77 252.18 244.77C252.18 244.77 249.57 241.86 245.51 237.84" id="ed19c227-61c1-43c2-8f1f-41f50b05fa54"></path><path d="M210.77 235.1C205.97 235.1 197.2 244.87 197.2 244.87C197.2 244.87 205.97 254.64 210.77 254.64C215.56 254.64 224.36 244.87 224.36 244.87C224.36 244.87 215.59 235.1 210.8 235.1M219.69 246.24C219.23 246.24 218.86 245.87 218.86 245.41C218.86 245.25 218.9 245.1 218.99 244.96C218.76 244.73 216.98 242.83 216.76 242.6C216.34 242.91 215.76 242.89 215.37 242.55C215.08 242.81 212.79 244.9 212.5 245.16C213.18 246.14 212.93 247.48 211.96 248.15C210.98 248.83 209.65 248.58 208.97 247.61C208.59 247.05 208.49 246.35 208.7 245.71C208.35 245.5 205.54 243.76 205.19 243.55C204.99 243.69 204.75 243.77 204.5 243.77C203.85 243.77 203.31 243.24 203.3 242.59C203.3 241.93 203.83 241.39 204.48 241.39C205.13 241.38 205.66 241.9 205.68 242.55C205.69 242.61 205.69 242.68 205.68 242.75C206.03 242.96 208.85 244.71 209.2 244.92C209.6 244.48 210.17 244.22 210.78 244.22C211.28 244.22 211.77 244.4 212.15 244.73C212.45 244.47 214.81 242.38 215.1 242.12C215.04 241.98 215.01 241.83 215.01 241.68C215.07 241.06 215.62 240.61 216.23 240.67C216.77 240.72 217.19 241.14 217.24 241.68C217.24 241.87 217.19 242.05 217.1 242.22C217.33 242.46 219.2 244.37 219.44 244.61C219.52 244.6 219.61 244.6 219.7 244.61C220.15 244.61 220.53 244.99 220.53 245.44C220.53 245.9 220.15 246.27 219.7 246.27" id="127acee6-b8b9-4509-8bb5-8bae2ba6c7a2"></path></defs><g><g><use href="#1671e1e8-1270-4128-8df4-faa8c2cac4d4" opacity="1" fill="#1e293b" fill-opacity="1"></use></g><g><use href="#c5b43248-7429-4c92-8511-683ea4d90558" opacity="1" fill="#c9c9c9" fill-opacity="1"></use><g><use href="#c5b43248-7429-4c92-8511-683ea4d90558" opacity="1" fill-opacity="0" stroke="#000000" stroke-width="1" stroke-opacity="0"></use></g></g><g><use href="#ed19c227-61c1-43c2-8f1f-41f50b05fa54" opacity="1" fill="#c9c9c9" fill-opacity="1"></use><g><use href="#ed19c227-61c1-43c2-8f1f-41f50b05fa54" opacity="1" fill-opacity="0" stroke="#000000" stroke-width="1" stroke-opacity="0"></use></g></g><g><use href="#127acee6-b8b9-4509-8bb5-8bae2ba6c7a2" opacity="1" fill="#06f5f8" fill-opacity="1"></use><g><use href="#127acee6-b8b9-4509-8bb5-8bae2ba6c7a2" opacity="1" fill-opacity="0" stroke="#000000" stroke-width="1" stroke-opacity="0"></use></g></g></g></svg>