<?xml version="1.0" standalone="no"?>
<!DOCTYPE svg PUBLIC "-//W3C//DTD SVG 20010904//EN"
 "http://www.w3.org/TR/2001/REC-SVG-20010904/DTD/svg10.dtd">
<svg version="1.0" xmlns="http://www.w3.org/2000/svg"
 width="72.000000pt" height="72.000000pt" viewBox="0 0 72.000000 72.000000"
 preserveAspectRatio="xMidYMid meet">
<metadata>
Created by potrace 1.15, written by Peter Selinger 2001-2017
</metadata>
<g transform="translate(0.000000,72.000000) scale(0.100000,-0.100000)"
fill="#000000" stroke="none">
<path d="M12 161 c-7 -21 -12 -41 -12 -43 0 -3 75 -5 166 -6 141 0 166 2 171
15 9 24 -11 48 -41 48 -15 -1 -26 5 -26 12 0 7 -7 13 -15 13 -8 0 -15 -4 -15
-9 0 -5 -9 -11 -20 -14 -13 -3 -20 0 -20 9 0 8 -7 14 -15 14 -8 0 -15 -4 -15
-9 0 -5 -13 -11 -30 -13 -20 -3 -30 0 -30 9 0 27 -30 13 -31 -14 l-1 -28 -10
28 c-15 40 -42 35 -56 -12z"/>
</g>
</svg>
