<svg width="24" height="24" viewBox="0 0 24 24" fill="none" xmlns="http://www.w3.org/2000/svg">
<g>
<g>
<circle cx="12" cy="12" r="12" fill="black"/>
<path d="M13.373 1.77991L15.2269 2.25184V4.84142L17.3013 3.14125L18.8414 4.27268L14.8889 7.51167L13.373 7.5036V1.77991Z" fill="#FFC700"/>
<path d="M9.74609 1.52777H11.5999V9.01819H15.429L20.0351 5.35567L21.1928 6.80172L16.0786 10.8676H9.74609V1.52777Z" fill="#FFC700"/>
<path d="M4.3001 17.275L2.44629 15.7019V8.67331L4.3001 6.97717V17.275Z" fill="#FFC700"/>
<path d="M7.93493 19.4895L6.0791 21.0969V2.99402L7.93493 4.60141V19.4895Z" fill="#FFC700"/>
<path d="M17.3013 21.0404L15.2269 19.3402V21.9298L13.373 22.4017V16.678L14.8889 16.67L18.8414 19.9069L17.3013 21.0404Z" fill="#FFC700"/>
<path d="M20.0351 18.5738L15.429 14.9093H11.5999V22.3997H9.74609V13.0619H16.0786L21.1928 17.1278L20.0351 18.5738Z" fill="#FFC700"/>
<path d="M21.4762 15.0847L17.6836 11.9647L21.4762 8.84473L22.6581 10.2706L20.5979 11.9647L22.6581 13.6588L21.4762 15.0847Z" fill="#FFC700"/>
</g>
</g>
</svg>
