<svg width="353" height="65" viewBox="0 0 353 65" fill="none" xmlns="http://www.w3.org/2000/svg">
<g clip-path="url(#clip0_3208_86)">
<path d="M-0.252983 1.06956C0.188267 1.01047 0.717767 0.975012 1.34728 0.939557C1.97092 0.910012 2.52983 0.898193 3.02992 0.898193C3.59472 0.898193 4.15363 0.910012 4.71843 0.939557C5.27735 0.975012 5.77743 1.01047 6.21868 1.06956V63.6764C5.78332 63.7296 5.27735 63.7768 4.71843 63.8123C4.15363 63.83 3.59472 63.8537 3.02992 63.8537C2.41217 63.8537 1.8003 63.8359 1.20608 63.8123C0.61775 63.7768 0.135317 63.7296 -0.2471 63.6764V1.06956H-0.252983Z" fill="#F26721"/>
<path d="M49.5259 19.2695C50.026 19.2104 50.5084 19.1573 50.9791 19.1336C51.4439 19.1041 51.8969 19.0923 52.3381 19.0923C52.8323 19.0923 53.303 19.1041 53.7384 19.1336C54.1737 19.1573 54.6444 19.2104 55.1445 19.2695C55.268 20.3154 55.3563 21.6154 55.421 23.1813C55.4798 24.7473 55.5092 26.1182 55.5092 27.2763C56.1329 26.2304 56.9448 25.1786 57.9449 24.1032C58.9451 23.0218 60.1159 22.0527 61.4573 21.1782C62.7987 20.3154 64.346 19.5945 66.0934 19.045C67.8466 18.4954 69.7469 18.2177 71.8061 18.2177C77.2952 18.2177 81.29 19.7482 83.7904 22.7854C86.2908 25.8286 87.5381 30.1068 87.5381 35.6318V63.6645C87.1616 63.7177 86.6438 63.765 85.9908 63.8004C85.3377 63.8182 84.8259 63.8418 84.4494 63.8418C84.1434 63.8418 83.6375 63.8241 82.9491 63.8004C82.2667 63.765 81.7371 63.7177 81.3606 63.6645V37.3691C81.3606 32.4409 80.5369 28.8895 78.8837 26.7445C77.2246 24.5995 74.7477 23.53 71.4354 23.53C69.2468 23.53 67.1935 23.9377 65.2579 24.7354C63.3223 25.5509 61.6514 26.7209 60.2453 28.2691C58.8451 29.7995 57.7331 31.7082 56.9212 33.9713C56.1093 36.2345 55.7034 38.8227 55.7034 41.7241V63.6586C55.3269 63.7118 54.815 63.7591 54.1678 63.7945C53.5089 63.8123 52.9912 63.8359 52.6205 63.8359C52.3028 63.8359 51.8086 63.8182 51.1144 63.7945C50.426 63.7591 49.9024 63.7118 49.5259 63.6586V19.2695Z" fill="#F26721"/>
<path d="M142.424 19.2696C142.794 19.2105 143.283 19.1573 143.877 19.1336C144.465 19.1041 145.071 19.0923 145.701 19.0923C146.201 19.0923 146.813 19.1041 147.53 19.1336C148.248 19.1573 148.789 19.2105 149.166 19.2696L159.738 57.0582L171.54 19.2696C172.035 19.2105 172.582 19.1573 173.176 19.1336C173.77 19.1041 174.411 19.0923 175.094 19.0923C175.588 19.0923 176.112 19.0923 176.635 19.0923C177.171 19.0923 177.688 19.1514 178.188 19.2696L189.985 56.5323L200.569 19.2696C200.939 19.2105 201.398 19.1573 201.928 19.1336C202.457 19.1041 202.975 19.0923 203.475 19.0923C203.975 19.0923 204.534 19.1041 205.158 19.1336C205.775 19.1573 206.281 19.2105 206.658 19.2696L192.891 63.6705C191.767 63.8359 190.673 63.9305 189.614 63.9305C188.42 63.9305 187.331 63.8359 186.337 63.6705L174.817 26.9277L162.745 63.6705C161.615 63.8359 160.521 63.9305 159.462 63.9305C158.279 63.9305 157.179 63.8359 156.185 63.6705L142.424 19.2696Z" fill="#F26721"/>
<path d="M214.677 1.06952C215.301 1.01043 216.183 0.921789 217.342 0.809516C218.495 0.697244 219.731 0.573153 221.043 0.46088C222.355 0.342698 223.673 0.254062 225.026 0.194971C226.361 0.13588 227.561 0.112244 228.626 0.112244C235.992 0.112244 241.64 1.42997 245.576 4.07724C249.5 6.7127 251.471 10.8195 251.471 16.3918C251.471 18.2 251.183 19.8427 250.583 21.3082C249.989 22.7972 249.194 24.1268 248.194 25.3145C247.194 26.52 246.023 27.5245 244.682 28.3222C243.335 29.1436 241.952 29.7522 240.511 30.16C242.446 30.3845 244.317 30.8691 246.135 31.59C247.941 32.3227 249.547 33.3332 250.959 34.6391C252.36 35.945 253.483 37.57 254.325 39.5141C255.16 41.4582 255.596 43.7922 255.596 46.5222C255.596 49.6659 254.919 52.3663 253.583 54.6236C252.242 56.8927 250.365 58.7836 247.965 60.2845C245.564 61.7972 242.729 62.9081 239.44 63.6409C236.163 64.3677 232.592 64.7222 228.72 64.7222C227.726 64.7222 226.602 64.7045 225.349 64.6395C224.102 64.5804 222.843 64.5095 221.555 64.4209C220.284 64.3322 219.025 64.22 217.813 64.0722C216.595 63.9245 215.548 63.7945 214.683 63.6822V1.06952H214.677ZM230.032 27.7136C235.086 27.7136 238.787 26.6677 241.128 24.57C243.47 22.49 244.635 19.76 244.635 16.3859C244.635 13.2541 243.399 10.6304 240.94 8.50906C238.475 6.39361 234.592 5.32997 229.285 5.32997C227.656 5.32997 226.12 5.40088 224.649 5.50724C223.184 5.61952 222.013 5.74361 221.143 5.85588V27.7136H230.032ZM221.137 58.8013C222.008 58.9195 223.178 59.0259 224.643 59.1086C226.114 59.1913 227.65 59.2327 229.279 59.2327C231.709 59.2327 234.098 59.0259 236.439 58.63C238.781 58.2222 240.852 57.5191 242.676 56.5382C244.476 55.5572 245.929 54.2454 247.024 52.6145C248.118 50.9954 248.659 48.9627 248.659 46.5222C248.659 44.0877 248.188 42.0372 247.253 40.3886C246.318 38.7341 245.041 37.375 243.411 36.3291C241.793 35.2832 239.887 34.5327 237.71 34.0659C235.522 33.6109 233.18 33.3745 230.68 33.3745H221.131V58.8013H221.137Z" fill="#F26721"/>
<path d="M269.127 42.3504C269.127 48.2654 270.604 52.6086 273.551 55.4095C276.47 58.1868 280.876 59.5813 286.748 59.5813C289.119 59.5813 291.319 59.3863 293.349 59.02C295.384 58.6359 297.373 58.1277 299.291 57.4954C299.615 58.1336 299.862 58.9195 300.05 59.8413C300.238 60.775 300.356 61.6082 300.427 62.3645C298.614 63.1209 296.485 63.7 294.049 64.1077C291.619 64.5154 288.972 64.7104 286.083 64.7104C281.965 64.7104 278.423 64.1491 275.469 63.0145C272.498 61.8859 270.069 60.3082 268.168 58.2754C266.25 56.2368 264.85 53.8141 263.944 51.0073C263.044 48.1886 262.597 45.0923 262.597 41.73C262.597 38.4741 263.014 35.4309 263.862 32.5886C264.691 29.7404 265.968 27.2409 267.692 25.0959C269.41 22.9391 271.598 21.255 274.299 20.0377C276.981 18.8204 280.182 18.2177 283.947 18.2177C287.054 18.2177 289.831 18.7141 292.266 19.7068C294.702 20.6877 296.749 22.0645 298.414 23.8373C300.056 25.61 301.303 27.7195 302.15 30.1895C302.992 32.6654 303.409 35.3482 303.409 38.2436C303.409 38.7754 303.398 39.4373 303.362 40.2527C303.333 41.0623 303.286 41.7536 303.233 42.3445H269.127V42.3504ZM297.238 37.5463C297.238 35.7618 296.979 33.9891 296.485 32.2459C295.985 30.5027 295.208 28.9782 294.143 27.6723C293.084 26.3663 291.719 25.3027 290.019 24.4932C288.348 23.6777 286.312 23.2759 283.947 23.2759C279.57 23.2759 276.164 24.5227 273.74 27.0282C271.292 29.5159 269.845 33.0377 269.327 37.5523H297.238V37.5463Z" fill="#F26721"/>
<path d="M10.6077 31.6314L34.2998 1.06956C34.794 1.01047 35.3176 0.975012 35.8413 0.939557C36.3708 0.910012 36.8885 0.898193 37.3827 0.898193C38.0711 0.898193 38.7241 0.910012 39.3477 0.939557C39.9772 0.975012 40.6244 1.01047 41.3187 1.06956L18.2854 31.0168L44.8781 63.6705C44.1956 63.7237 43.4837 63.7709 42.7718 63.8064C42.0541 63.8241 41.3598 63.8477 40.6656 63.8477C40.1008 63.8477 39.5242 63.83 38.93 63.8064C38.3358 63.7709 37.7592 63.7237 37.1944 63.6705L10.6077 31.6314Z" fill="#F26721"/>
<path d="M117.984 64.5037C104.982 64.5037 94.4452 53.9205 94.4452 40.8614C94.4452 27.8082 104.982 17.2191 117.984 17.2191C130.981 17.2191 141.518 27.8082 141.518 40.8614C141.518 53.9205 130.981 64.5037 117.984 64.5037ZM131.516 28.7123C128.374 25.1787 124.056 23.075 119.343 22.7973C114.631 22.5255 110.095 24.1091 106.571 27.2587C103.435 30.0655 101.44 33.8059 100.852 37.9246L97.6516 37.8123L102.282 46.02L108.077 38.1846L104.488 38.0605C105.029 34.9346 106.577 32.1041 108.977 29.9591C111.777 27.4537 115.39 26.195 119.132 26.4078C122.885 26.6264 126.315 28.2987 128.816 31.1173C131.316 33.9359 132.569 37.5523 132.346 41.3164C132.128 45.0805 130.463 48.5314 127.668 51.0368L130.063 53.755C133.587 50.6055 135.681 46.2623 135.952 41.535C136.234 36.8196 134.658 32.2518 131.516 28.7123Z" fill="#F26721"/>
<path d="M305.757 50.0145L305.092 49.1459L333.167 1.11682C334.338 0.720907 335.232 0.561361 336.215 0.573179C338.156 0.590907 338.603 0.82727 339.462 1.06954L314.005 44.9386H336.162V25.9764C337.28 25.805 338.345 25.7223 339.339 25.7223C340.345 25.7223 341.375 25.805 342.434 25.9764V44.9327H352.447C352.629 45.9195 352.735 46.4395 352.735 47.3082C352.735 48.2359 352.629 49.14 352.447 50.0086H342.434V63.9068C341.881 64.025 341.322 64.0841 340.798 64.0841C340.274 64.0841 339.751 64.0841 339.245 64.0841C338.762 64.0841 338.239 64.0841 337.709 64.0841C337.18 64.0841 336.656 64.025 336.162 63.9068V50.0145H305.757Z" fill="#F26721"/>
</g>
<defs>
<clipPath id="clip0_3208_86">
<rect width="353" height="65" fill="white"/>
</clipPath>
</defs>
</svg>
