<svg xmlns="http://www.w3.org/2000/svg" width="120" height="60"><path d="M20.103 36.887c.094-.063.22-.094.41-.094h1.795c.22 0 .378.03.44.094.094.063.126.19.126.41v11.116c0 .63.157 1.07.472 1.323s.724.378 1.26.378h4.188c.19 0 .378 0 .504.126.126.094.094.157.157.41.094.252.252 1.512.252 1.512 0 .126 0 .22-.094.315s-.252.157-.378.19-.41.063-.787.063h-4.283c-.82 0-1.512-.126-2.047-.346-.535-.252-.976-.567-1.29-.976s-.535-.85-.66-1.386c-.126-.504-.19-1.04-.19-1.606V37.297c0-.22.03-.346.126-.41z"/><path d="M80.027 51.404c0 .346-.126.598-.41.724a5.06 5.06 0 0 1-1.039.378l-1.165.252-1.197.126c-.378.03-.756.03-1.102.03-.976 0-1.795-.094-2.425-.315-.63-.19-1.134-.472-1.512-.787a2.84 2.84 0 0 1-.787-1.165c-.157-.44-.22-.945-.22-1.45s.094-1.008.252-1.512c.157-.472.44-.913.82-1.26.378-.378.882-.66 1.48-.882s1.354-.346 2.236-.346h2.488v-.378c0-.283-.03-.535-.094-.787a1.25 1.25 0 0 0-.346-.63c-.157-.19-.41-.315-.693-.41s-.693-.157-1.134-.157a5.65 5.65 0 0 0-1.543.252c-.157.03-.283.063-.346.03s-.126-.126-.157-.252l-.315-1.26c-.063-.252 0-.378.19-.472.63-.252 1.92-.44 2.582-.44 1.543 0 2.645.346 3.37 1.04s1.07 1.67 1.07 2.992zm-2.614-4.22h-2.1l-.82.03c-.283.03-.567.126-.82.252s-.472.315-.63.567-.252.598-.252 1.04c0 .63.22 1.07.63 1.323.44.252 1.008.378 1.7.378h.44c.19 0 .378-.03.598-.063l.66-.126a2.09 2.09 0 0 0 .63-.189v-3.212z" fill="#d32d27"/><path d="M50.144 49.168c0 .598-.094 1.102-.315 1.543s-.504.82-.913 1.102c-.378.283-.85.504-1.386.66s-1.102.22-1.732.252c-.346 0-.724 0-1.134-.03s-.787-.063-1.197-.157a6.98 6.98 0 0 1-1.165-.283c-.378-.126-.724-.252-1.04-.44-.22-.126-.283-.283-.157-.535l.504-1.228a.6.6 0 0 1 .22-.252c.063-.032.2-.03.346.063.535.252 1.134.4 1.763.535.66.126 1.228.2 1.732.2.63 0 1.07-.126 1.386-.378s.44-.567.44-.945c0-.4-.22-.756-.63-1.008s-1.008-.504-1.795-.787l-1.606-.63c-.44-.22-.82-.44-1.134-.724a2.61 2.61 0 0 1-.693-.882c-.157-.346-.252-.724-.252-1.165 0-.472.063-.913.252-1.323.157-.4.44-.756.787-1.04s.787-.535 1.3-.724 1.102-.283 1.795-.283a12.28 12.28 0 0 1 1.858.126c.63.094 1.228.252 1.795.472.126.063.2.126.22.22a.56.56 0 0 1 0 .315l-.472 1.26c-.03.126-.094.2-.157.2-.063.03-.157 0-.283-.03-.567-.2-1.07-.315-1.512-.378-.378-.063-.85-.094-1.354-.094-.535 0-.945.126-1.197.346s-.378.472-.378.756c0 .2.03.378.126.535a1.29 1.29 0 0 0 .41.41 4.57 4.57 0 0 0 .693.378 16.16 16.16 0 0 0 1.071.409l1.386.535c.44.2.85.4 1.197.693a3.56 3.56 0 0 1 .85.976c.252.346.378.82.378 1.354m8.253 3.24a6.39 6.39 0 0 1-1.512.283l-1.165.03c-1.197 0-2.078-.252-2.55-.787-.504-.535-.756-1.323-.756-2.393l.063-6.33h-1.637c-.157 0-.22-.03-.283-.094s-.094-.126-.063-.252l.44-1.165c.03-.03.126-.283.157-.315.03-.063.094-.094.283-.094h1.102v-2.14c0-.283.126-.346.2-.4s.2-.126.346-.2l1.574-.44c.126-.03.22-.03.283.03a.42.42 0 0 1 .126.315v2.834h2.236c.157 0 .252.03.283.094s.063.157.063.252v1.228a.63.63 0 0 1-.063.283c-.03.063-.126.094-.283.094h-2.236v5.983c0 .472.126.787.346.976s.567.252 1.008.252h.346c.157 0 .283-.03.44-.03s.315-.03.472-.063.283-.03.378-.063c.157-.03.252-.03.283 0s.063.094.094.22l.252 1.417c0 .094.03.157 0 .22-.03.126-.094.2-.22.252z"/><path d="M63.495 52.412c0 .22-.03.346-.094.4s-.346.094-.567.094h-1.45c-.157 0-.315-.03-.4-.094s-.126-.2-.126-.4V38.43a3.61 3.61 0 0 1 .063-.63c.03-.22.03-.283.157-.4.126-.157.315-.252.535-.283.126-.03.22 0 .4 0h4.44a5.87 5.87 0 0 1 2.14.378c.63.252 1.197.598 1.67 1.04s.82.976 1.07 1.606.378 1.3.378 2.047c0 .4-.063.945-.2 1.512-.126.598-.4 1.165-.787 1.7-.4.535-.945 1.008-1.67 1.386s-1.67.567-2.834.567h-2.677v5.07zm5.668-10.958c-.094-.315-.22-.598-.44-.85a2.79 2.79 0 0 0-.882-.66c-.378-.157-.85-.252-1.417-.252h-2.77v5.227h2.834c.976 0 1.7-.252 2.14-.724s.66-1.102.66-1.858c.03-.283-.03-.567-.126-.882zM89.82 50.87c-.22.44-.504.82-.913 1.102-.378.283-.85.504-1.386.66s-1.102.22-1.732.252c-.346 0-.724 0-1.134-.03s-.787-.063-1.197-.157a6.98 6.98 0 0 1-1.165-.283c-.378-.126-.724-.252-1.04-.44-.22-.126-.283-.283-.157-.535l.504-1.228a.6.6 0 0 1 .22-.252c.063-.032.2-.03.346.063.535.252 1.134.4 1.763.535.66.126 1.228.2 1.732.2.63 0 1.07-.126 1.386-.378s.44-.567.44-.945c0-.4-.22-.756-.63-1.008s-1.008-.504-1.795-.787L83.456 47c-.44-.22-.82-.44-1.134-.724a2.61 2.61 0 0 1-.693-.882c-.157-.346-.252-.724-.252-1.165 0-.472.063-.913.252-1.323s.44-.756.787-1.04.787-.535 1.3-.724 1.102-.283 1.795-.283a12.28 12.28 0 0 1 1.858.126c.63.094 1.228.252 1.795.472.126.063.2.126.22.22a.56.56 0 0 1 0 .315l-.472 1.26c-.03.126-.094.2-.157.2-.063.03-.157 0-.283-.03-.567-.2-1.07-.315-1.512-.378a10.04 10.04 0 0 0-1.417-.094c-.535 0-.945.126-1.197.346s-.378.472-.378.756c0 .2.03.378.126.535a1.29 1.29 0 0 0 .41.41 4.57 4.57 0 0 0 .693.378 16.16 16.16 0 0 0 1.071.409l1.386.535c.44.2.85.4 1.197.693a3.56 3.56 0 0 1 .85.976c.22.378.346.82.346 1.386.094.535 0 1.04-.22 1.512zm10.203-1.544c0 .598-.094 1.102-.315 1.543s-.504.82-.913 1.102c-.378.283-.85.504-1.386.66s-1.102.22-1.732.252c-.346 0-.724 0-1.134-.03s-.787-.063-1.197-.157a6.98 6.98 0 0 1-1.165-.283c-.378-.126-.724-.252-1.04-.44-.22-.126-.283-.283-.157-.535l.504-1.228a.6.6 0 0 1 .22-.252c.063-.032.2-.03.346.063.535.252 1.134.4 1.763.535.66.126 1.228.2 1.732.2.63 0 1.07-.126 1.386-.378s.44-.567.44-.945c0-.4-.22-.756-.63-1.008s-1.008-.504-1.795-.787l-1.606-.63c-.44-.22-.82-.44-1.134-.724a2.61 2.61 0 0 1-.693-.882c-.157-.346-.252-.724-.252-1.165 0-.472.063-.913.252-1.323.157-.4.44-.756.787-1.04s.787-.535 1.3-.724 1.102-.283 1.795-.283a12.28 12.28 0 0 1 1.858.126c.63.094 1.228.252 1.795.472.126.063.2.126.22.22a.56.56 0 0 1 0 .315l-.472 1.26c-.03.126-.094.2-.157.2-.063.03-.157 0-.283-.03-.567-.2-1.07-.315-1.512-.378a10.04 10.04 0 0 0-1.417-.094c-.535 0-.945.126-1.197.346s-.378.472-.378.756c0 .2.03.378.126.535a1.29 1.29 0 0 0 .41.41 4.57 4.57 0 0 0 .693.378 16.16 16.16 0 0 0 1.071.409l1.386.535c.44.2.85.4 1.197.693a3.56 3.56 0 0 1 .85.976c.346.346.44.82.44 1.354" fill="#d32d27"/><path d="M40.067 51.247c0 .346-.126.598-.41.724a5.06 5.06 0 0 1-1.039.378l-1.165.252-1.197.126c-.378.03-.756.03-1.102.03-.976 0-1.795-.094-2.425-.315-.63-.19-1.134-.472-1.512-.787-.378-.346-.63-.724-.787-1.197-.157-.44-.22-.945-.22-1.45 0-.535.094-1.008.252-1.512.157-.472.44-.913.82-1.26.378-.378.882-.66 1.48-.882s1.354-.346 2.236-.346h2.488v-.378c0-.283-.03-.535-.094-.787s-.19-.44-.346-.63-.41-.315-.693-.41-.693-.157-1.134-.157c-.504 0-1.04.03-1.637.126s-1.07.19-1.45.315c-.157.03-.283.063-.346.03s-.126-.126-.157-.252l-.315-1.26c-.063-.252 0-.378.19-.472.63-.252 1.29-.41 2.047-.504.724-.094 1.417-.157 2.078-.157 1.543 0 2.645.346 3.37 1.04s1.07 1.67 1.07 2.992zm-2.614-4.188h-2.1l-.82.03c-.283.03-.567.126-.82.252s-.472.315-.63.567-.252.598-.252 1.04c0 .63.22 1.07.63 1.323.44.252 1.008.378 1.7.378h.44c.19 0 .378-.03.598-.063l.66-.126a2.09 2.09 0 0 0 .63-.189V47.06z"/><g transform="matrix(1.862268 0 0 1.862268 -132.02296 -35.415701)"><path d="M115.106 23.546a.71.71 0 1 1 1.449 0v11.588a.71.71 0 1 1-1.449 0z" fill="#d32d27"/><g transform="matrix(.314897 0 0 .314897 89.670313 27.163913)" fill="#d32d27"><circle r="7.8" cy="7.8" cx="7.8"/><circle r="7.8" cy="7.8" cx="33.8"/><circle r="7.8" cy="7.8" cx="59.8"/></g></g></svg>