<svg xmlns="http://www.w3.org/2000/svg" id="Layer_2" data-name="Layer 2" viewBox="0 0 115.9 89.9"><defs><style>.cls-1{fill:#45c2c9}.cls-1,.cls-2,.cls-3{stroke-width:0}.cls-2{fill:#103558}.cls-3{fill:#007da7}</style></defs><g id="Layer_1-2" data-name="Layer 1"><path d="m33 29.4.1-.6c1-6.1 2.5-12 4.4-17.6l.1-.2h.3a62.8 62.8 0 0 1 26.6 1c.2 0 .4.2.3.5 0 .2-.3.4-.5.3a62 62 0 0 0-26-1 93.9 93.9 0 0 0-4.2 16.5c5-.7 8-1.1 13.5-1.1.2 0 .5.2.5.4s-.3.5-.5.5c-5.7 0-8.7.4-14 1.2l-.6.1ZM82 25.2a.5.5 0 0 1-.5-.3c-.5-2.1-1.2-4.2-1.9-6.3 0-.2 0-.5.3-.6.2 0 .5 0 .6.3l2 6.3c0 .3-.2.5-.4.6H82Z" class="cls-1"/><path d="M66.8 21.7a.5.5 0 0 1-.5-.4c-.7-3-1.4-6-2.4-8.8 0-.2.1-.5.3-.5.3-.1.5 0 .6.2 1 3 1.7 6 2.4 9 0 .2-.1.4-.4.5ZM5.2 38a.5.5 0 0 1-.2-.8c4.1-2 8.4-3.6 12.7-5 1-5.4 2.6-10.9 4.8-16.1.1-.3.4-.4.6-.3.2.1.3.4.2.6a75.2 75.2 0 0 0-4.8 16.3v.2l-.3.1a109.3 109.3 0 0 0-13 5Z" class="cls-1"/><path d="m17.5 33.2.1-.7c1-5.6 2.6-11.1 4.9-16.5V16h.2a60 60 0 0 1 15.2-5l.7-.1-.2.7C36.4 17 34.9 23 34 29v.3h-.4c-5.1.9-10.3 2-15.4 3.7l-.7.2Zm5.8-16.6c-2.1 5-3.7 10.1-4.6 15.3 4.7-1.5 9.6-2.6 14.5-3.4.9-5.7 2.2-11.3 4-16.5a55.2 55.2 0 0 0-14 4.6ZM80.9 19.4l-1-.5a68 68 0 0 0-15.6-6l-.3-.1v-.3C62.9 9.2 61.6 6 60.3 3l-.4-.9.9.3c5.7 1.3 11 3.7 15.8 7l.1.1v.1c1.5 2.8 2.7 5.8 3.8 8.7l.4 1.1ZM64.7 12c5 1.3 9.9 3.1 14.5 5.5-1-2.5-2-5-3.2-7.4-4.4-3-9.3-5.3-14.5-6.6a84 84 0 0 1 3.2 8.5Z" class="cls-1"/><path d="m65 13-.7-.2a61.8 61.8 0 0 0-26.3-1l-.7.2.2-.8C38.7 8 40 4.8 41.5 2v-.2h.3a48 48 0 0 1 19 .5h.2v.3c1.5 3 2.7 6.3 3.8 9.6l.3.8Zm-16.3-3c5 0 10 .6 15 1.7-1-3-2.1-5.8-3.4-8.5a47.1 47.1 0 0 0-18.1-.6 76.7 76.7 0 0 0-3.6 8.2c3.4-.6 6.7-.8 10.1-.8Z" class="cls-1"/><path d="m22 17.1.5-1c1.3-3.2 2.8-6.2 4.5-9v-.2h.2c4.5-2.6 9.4-4.3 14.6-5.2l.9-.1-.4.8a78.6 78.6 0 0 0-4 9.1v.3H38l-2.1.5c-4.4 1-8.7 2.4-12.8 4.3l-1 .6Zm5.7-9.5c-1.4 2.5-2.7 5-3.9 7.7A59.6 59.6 0 0 1 37.6 11c1-2.9 2.2-5.6 3.5-8.2-4.7.9-9.2 2.5-13.4 4.8Z" class="cls-1"/><path d="m8.3 26.5 1.1-2.1C13.5 17 19.6 11 27.2 6.8l1.4-.8-.8 1.4a80 80 0 0 0-4.5 9v.1l-.2.1c-4.6 2.2-9 5-13 8.3l-1.8 1.6Zm17.9-18a44 44 0 0 0-14.7 14.2c3.5-2.7 7.2-5 11-6.8 1.1-2.5 2.4-5 3.7-7.5ZM32.9 44.2H16.6v-.4c0-3.8.4-7.6 1-11.3v-.3h.3c5.2-1.7 10.4-3 15.6-3.8h.6v.6a104.5 104.5 0 0 0-1.2 14.8v.4Zm-15.4-.9H32V41c.1-3.9.5-7.7 1-11.5-4.8.8-9.7 2-14.5 3.5-.6 3.5-1 7-1 10.4Z" class="cls-1"/><path d="M17 44.2a.5.5 0 0 1-.4-.4c0-3.5.3-7 1-10.6-4.2 1.4-8.3 3-12.2 4.8-.2 0-.5 0-.6-.2 0-.3 0-.5.2-.6 4.2-2 8.5-3.7 13-5l.7-.3-.2.8a72 72 0 0 0-1 11c0 .3-.2.5-.5.5ZM36.7 44.2h-4.3c-.3 0-.5-.2-.5-.4s.2-.5.5-.5h4.3c.2 0 .4.2.4.5s-.2.4-.4.4Z" class="cls-1"/><path d="M31.2 60.6c-4.5-.8-9-1.9-13.3-3.2l-.3-.1V57a73.3 73.3 0 0 1-1-13.2v-.5h16.2v.5c0 4.5.4 9 1.2 13.4 0 .3-.2.5-.4.5a.4.4 0 0 1-.5-.3c-.8-4.4-1.1-8.8-1.2-13.1H17.5a67.7 67.7 0 0 0 1 12.3c4.1 1.3 8.5 2.3 12.8 3 .2.1.4.4.4.6 0 .2-.3.4-.5.4Z" class="cls-1"/><path d="m18.6 57.6-.7-.3A108 108 0 0 1 5 52.6a.5.5 0 0 1 .4-.9c3.9 1.8 7.9 3.4 12 4.7a70.2 70.2 0 0 1-.8-12H5.2c-.3 0-.5-.3-.5-.5s.2-.5.5-.5h12.3v.5a69.4 69.4 0 0 0 1 13v.8Z" class="cls-1"/><path d="M22.2 72.5a.5.5 0 0 1-.4-.3c-2-5-3.4-10-4.3-15.2 0-.3.2-.5.4-.5.3 0 .5.1.5.3.9 5.1 2.3 10.2 4.2 15 .1.3 0 .5-.2.6h-.2ZM51.2 25.2a.5.5 0 0 1-.5-.5V1.6c0-.3.2-.5.5-.5s.4.2.4.5v23.1c0 .3-.2.5-.4.5Z" class="cls-1"/><path d="M72.2 39C59.6 40 49.7 46 50 47c0 .4 1 .2 2.8 0 3.2-.7 9.3-1.7 18.6-1 3.5.2 6 .5 8.2.8 3.2.4 6 .7 10.5.8 14.3.2 23-5.2 24.8-8.8.2-.4 1.2-2.3.8-2.6-.3-.2-1.3.7-1.6 1-4.6 4.2-22.6 2.8-22.6 2.8h-.2c-11.3-.9-17-1.3-19.2-1.1ZM68.7 49.1c-10 .1-18.2 4.1-18 5 0 .4.8.3 2.3.2 2.5-.3 7.4-.7 14.7.4l6.4 1.1c2.6.5 4.7 1 8.3 1.3 11.3 1 18.5-2.7 20.1-5.4.2-.3 1-1.8.8-2-.2-.2-1 .4-1.3.6-4 3-18 .9-18 .9-9-1.4-13.5-2.1-15.3-2.1ZM50.6 61.5c0-.6 5.8-3.1 12.9-2.8 1.2 0 4.3.7 10.5 2s10 2.1 12.8.2c.2-.2.8-.6 1-.5.1.2-.5 1.2-.7 1.4-1.2 1.9-6.4 4.2-14.3 3-2.5-.3-4-.7-5.8-1.2l-4.4-1c-5.2-1.1-8.6-1-10.4-.9-1 0-1.6 0-1.6-.2ZM56.3 65.6c-4.7-.5-8.8 1-8.7 1.5l1 .1c1.3 0 3.6 0 7 1l3 .9 3.8 1c5.3 1 8.9-.4 9.8-1.6 0-.1.6-.8.4-.9l-.6.3c-2 1.2-8.6-.6-8.6-.6l-7-1.7Z" class="cls-3"/><path d="m114.7 27.3-.6.5c-1.2 1.5-5.7 2.2-8 2.4-10 .6-13.6 0-23.1-3-4.4-1.3-8.6-3-13.3-3.6-8.6-1-17.5 2-23.8 7.9a24.2 24.2 0 0 0-7.5 14c-.6 3-1 5.5-1.7 8-.6 2.1-1.6 4.2-2.6 6.2A34.9 34.9 0 0 1 0 79.4a31.7 31.7 0 0 0 31.2-3.7 40 40 0 0 0 10-10.5c1.7-2.7 3.3-5.7 4.4-8.7 1.6-4 2-8.7 3.4-12.6 2-5.4 7.4-9 12.9-10.7 6.7-2.4 12.6-.1 19.5 1 9.7 1.4 14.4.9 23-.5 6.2-.8 9.6-3.6 10.1-5.2.1-.2.4-1 .2-1.2Z" class="cls-2"/><path d="M49.2 89.9a45 45 0 1 1 36-71.8c.7.8.5 2-.3 2.6-.8.6-2 .4-2.6-.4a41.3 41.3 0 1 0-8.1 57.5 1.8 1.8 0 1 1 2.2 2.9c-7.9 6-17.3 9.2-27.2 9.2Z" class="cls-2"/></g></svg>