<svg width="500" height="87" viewBox="0 0 500 87" fill="none" xmlns="http://www.w3.org/2000/svg">
<path d="M156.716 32.1942C156.316 31.2151 155.722 30.2927 154.736 29.4432C153.352 28.3266 151.902 27.8735 149.987 27.8735C145.899 27.8735 143.789 30.3008 143.789 33.1166C143.789 34.4273 144.253 36.7171 148.538 38.4244L152.961 40.1963C161.073 43.4733 163.321 48.061 163.321 53.037C163.321 61.3629 157.383 67.059 149.14 67.059C144.058 67.059 141.028 65.1576 138.78 62.6655C136.401 60.044 135.35 57.1635 135.082 54.1536L141.744 52.7053C141.744 54.8737 142.535 56.9046 143.593 58.2801C144.848 59.8498 146.697 60.9017 149.336 60.9017C153.425 60.9017 156.593 57.9565 156.593 53.563C156.593 49.1695 153.164 47.2761 150.256 46.0948L146.037 44.3228C142.412 42.8179 137.069 39.7999 137.069 33.246C137.069 27.3476 141.687 21.708 149.93 21.708C154.679 21.708 157.383 23.48 158.768 24.6532C159.957 25.705 161.212 27.21 162.132 29.0467L156.724 32.1942H156.716Z" fill="#003459"/>
<path d="M209.228 28.7875H191.683V39.8644H208.707V46.1593H191.683V59.9224H209.228V66.2173H184.947V22.5088H209.228V28.8037V28.7875Z" fill="#003459"/>
<path d="M238.975 22.4922C244.318 22.4922 247.748 23.1476 250.582 25.049C255.396 28.2612 255.795 33.4395 255.795 35.3329C255.795 41.6278 251.902 46.2155 246.029 47.5182L259.754 66.2007H251.641L239.04 48.3111H237.851V66.2007H231.123V22.4922H238.975V22.4922ZM237.851 42.5502H239.961C241.81 42.5502 249.328 42.356 249.328 35.4057C249.328 29.2483 243.455 28.6577 240.156 28.6577H237.851V42.5502Z" fill="#003459"/>
<path d="M302.696 49.3641L296.164 34.5492L289.981 48.0372L289.37 49.3641L286.601 55.6591L281.787 66.2099H274.53L296.432 19.9365L317.276 66.2099H310.019L305.4 55.6591L302.696 49.3641Z" fill="#25CED1"/>
<path d="M345.702 22.4922C348.407 22.4922 352.17 22.7592 355.338 24.8548C359.036 27.2822 360.812 31.4734 360.812 35.4704C360.812 38.0272 360.152 41.9596 356.528 45.0423C353.033 47.9875 349.009 48.4487 345.776 48.4487H342.738V66.2088H336.01V22.5003H345.711L345.702 22.4922ZM342.729 42.2832H345.768C351.575 42.2832 354.345 39.4675 354.345 35.4057C354.345 32.9784 353.351 28.6577 345.702 28.6577H342.729V42.2913V42.2832Z" fill="#003459"/>
<path d="M387.587 39.7911H406.452V22.4922H413.18V66.2007H406.452V46.078H387.587V66.2007H380.859V22.4922H387.587V39.7911V39.7911Z" fill="#003459"/>
<path d="M443.659 22.4922V66.2007H436.931V22.4922H443.659V22.4922Z" fill="#003459"/>
<path d="M499.992 32.7204C495.113 28.3269 490.56 27.8657 488.051 27.8657C478.488 27.8657 472.021 34.8807 472.021 44.5092C472.021 54.1377 478.749 60.8938 488.116 60.8938C493.394 60.8938 497.483 58.2076 499.992 55.8449V63.7743C495.569 66.3958 490.951 67.0512 487.921 67.0512C479.938 67.0512 474.921 63.4426 472.355 61.0233C467.207 56.2414 465.293 50.6666 465.293 44.5092C465.293 36.4504 468.657 30.8756 472.355 27.4045C476.908 23.1404 482.186 21.7002 488.255 21.7002C492.278 21.7002 496.172 22.4203 500 24.8477V32.7123L499.992 32.7204Z" fill="#003459"/>
<path d="M32.1887 28.5078L32.2783 27.9091C33.1906 21.9783 34.6323 16.2416 36.5628 10.8691L36.6524 10.6263L36.9049 10.5778C45.4167 9.05664 54.1485 9.38838 62.8477 11.5649C63.0839 11.6215 63.2305 11.8643 63.1735 12.0989C63.1165 12.3336 62.8722 12.4711 62.6359 12.4226C54.1404 10.3027 45.6285 9.95476 37.3203 11.4031C35.512 16.4763 34.1517 21.865 33.2558 27.4398C38.0208 26.6954 40.9449 26.307 46.3779 26.2989C46.6222 26.2989 46.8177 26.4931 46.8177 26.7359C46.8177 26.9786 46.6222 27.1728 46.3779 27.1728C40.7902 27.1728 37.8742 27.5935 32.7915 28.3946L32.1887 28.4916V28.5078Z" fill="#25CED1"/>
<path d="M79.8955 24.3918C79.7 24.3918 79.5208 24.2623 79.4638 24.06C78.9262 22.0372 78.2909 20.0063 77.5741 18.024C77.4927 17.7975 77.6148 17.5466 77.8429 17.4576C78.071 17.3767 78.3316 17.49 78.4131 17.7246C79.138 19.7312 79.7815 21.7864 80.3272 23.8335C80.3924 24.0681 80.2458 24.3108 80.0096 24.3756C79.9688 24.3837 79.9362 24.3918 79.8955 24.3918V24.3918Z" fill="#25CED1"/>
<path d="M65.0474 21.0074C64.8438 21.0074 64.6564 20.8698 64.6157 20.6594C63.9885 17.7547 63.2147 14.8823 62.3269 12.1313C62.2535 11.8967 62.3839 11.654 62.6119 11.5731C62.8482 11.5002 63.0925 11.6297 63.174 11.8562C64.07 14.6396 64.8519 17.5363 65.4872 20.4653C65.5361 20.6999 65.3895 20.9345 65.1451 20.9912C65.1126 20.9912 65.08 20.9993 65.0474 20.9993V21.0074Z" fill="#25CED1"/>
<path d="M5.09008 36.8169C4.91903 36.8169 4.76426 36.7198 4.69096 36.5661C4.58507 36.3476 4.69095 36.0806 4.90273 35.9835C8.86136 34.1549 13.0073 32.5448 17.2348 31.2016C18.1878 25.8938 19.7598 20.6265 21.9183 15.5452C22.0161 15.3187 22.2767 15.2135 22.4966 15.3106C22.7247 15.4077 22.8306 15.6666 22.7328 15.885C20.5662 20.9906 18.9941 26.2822 18.0574 31.6143L18.0086 31.8813L17.7561 31.9622C13.4798 33.3134 9.27677 34.9317 5.26927 36.7846C5.21226 36.8169 5.14709 36.825 5.08193 36.825L5.09008 36.8169Z" fill="#25CED1"/>
<path d="M17.0635 32.173L17.1857 31.461C18.1305 26.0642 19.727 20.7078 21.9181 15.5376L21.9833 15.3839L22.138 15.311C26.1944 13.3934 30.4462 11.937 34.7877 10.9984C35.4963 10.8447 36.1968 10.7072 36.9055 10.5858L37.663 10.4482L37.4023 11.1684C35.4882 16.4923 34.0628 22.1724 33.1586 28.0465L33.1098 28.3621L32.7921 28.4107C27.7583 29.2036 22.7 30.393 17.764 31.9546L17.0635 32.173V32.173ZM22.6756 16.0312C20.6393 20.8616 19.1324 25.8538 18.1957 30.8946C22.8467 29.4625 27.5954 28.354 32.336 27.5934C33.2075 22.0429 34.5515 16.6623 36.319 11.5891C35.871 11.6781 35.423 11.759 34.9832 11.8561C30.7639 12.7704 26.6261 14.1702 22.6756 16.0312Z" fill="#25CED1"/>
<path d="M78.8043 18.8082L77.7862 18.2742C72.9397 15.7012 67.8407 13.735 62.6277 12.4404L62.3915 12.3838L62.3182 12.1491C61.2756 8.92075 60.0619 5.81374 58.7017 2.9171L58.3188 2.0918L59.2067 2.30217C64.7781 3.61294 69.9748 5.91892 74.6421 9.16349L74.7317 9.22821L74.7805 9.32531C76.149 12.052 77.3708 14.8839 78.4052 17.7401L78.7962 18.8163L78.8043 18.8082ZM63.0839 11.6394C67.914 12.8692 72.6546 14.6574 77.1834 16.9634C76.263 14.536 75.2123 12.1329 74.0475 9.81078C69.7386 6.84132 64.9817 4.67288 59.8909 3.3702C61.0801 5.99175 62.1471 8.76702 63.0839 11.6394Z" fill="#25CED1"/>
<path d="M63.4095 12.6168L62.6357 12.4226C54.0587 10.2785 45.4491 9.94672 37.0676 11.4436L36.3101 11.5811L36.5707 10.861C37.7111 7.69737 39.0062 4.68745 40.4234 1.92027L40.5212 1.72608L40.7411 1.68562C46.8257 0.666137 53.2035 0.860325 59.2066 2.27628L59.4183 2.32483L59.5079 2.51901C60.8845 5.45611 62.1144 8.59549 63.1652 11.8562L63.4095 12.6087V12.6168ZM47.4936 9.64734C52.3319 9.64734 57.211 10.2218 62.0819 11.3789C61.1207 8.4903 60.0211 5.70694 58.8074 3.09349C53.0568 1.76654 46.956 1.57235 41.1239 2.52711C39.8696 4.99492 38.7129 7.65691 37.6785 10.4565C40.9285 9.92244 44.211 9.64734 47.5017 9.64734H47.4936Z" fill="#25CED1"/>
<path d="M21.4612 16.6062L21.9173 15.5382C23.1961 12.5364 24.6623 9.59118 26.2914 6.79163L26.3565 6.68644L26.4624 6.62981C30.9016 4.21055 35.7073 2.55186 40.7412 1.70228L41.6127 1.55664L41.2136 2.33339C39.8126 5.06821 38.5256 8.03767 37.4016 11.169L37.312 11.4117L37.0595 11.4602C36.359 11.5816 35.6666 11.7192 34.9743 11.8648C30.7061 12.7872 26.5113 14.2193 22.5201 16.1127L21.4693 16.6143L21.4612 16.6062ZM27 7.33374C25.6072 9.74491 24.3283 12.2532 23.188 14.8262C26.9267 13.1432 30.8202 11.8648 34.7788 11.0071C35.3978 10.8696 36.025 10.7482 36.6441 10.6349C37.6541 7.85967 38.7863 5.19767 40.0162 2.72177C35.4386 3.57943 31.0645 5.13294 27 7.33374V7.33374Z" fill="#25CED1"/>
<path d="M8.04614 25.6523L9.18649 23.6134C13.1533 16.5012 19.1238 10.6189 26.4627 6.6219L27.8556 5.86133L27.0655 7.22874C25.4527 9.99592 23.9947 12.9087 22.7403 15.8782L22.6751 16.0319L22.5204 16.1048C18.0405 18.2246 13.7804 20.9352 9.86255 24.1636L8.05429 25.6523H8.04614ZM25.5016 8.18349C19.6451 11.6546 14.7497 16.3718 11.1902 21.987C14.5868 19.406 18.2034 17.189 21.9909 15.3846C23.0417 12.9249 24.2228 10.5138 25.5097 8.18349H25.5016Z" fill="#25CED1"/>
<path d="M32.0172 42.8308H16.1338V42.3858C16.199 38.7448 16.5573 35.0714 17.1927 31.4627L17.2416 31.1957L17.4941 31.1148C22.4709 29.5451 27.578 28.3395 32.6525 27.5385L33.2553 27.4414L33.1657 28.0402C32.5873 31.8187 32.2208 35.7106 32.0742 39.6024C32.0416 40.541 32.0253 41.4634 32.0253 42.3858V42.8227L32.0172 42.8308ZM17.0379 41.9489H31.1375C31.1375 41.164 31.1538 40.3711 31.1864 39.5782C31.3248 35.8562 31.6588 32.1343 32.1964 28.5094C27.4476 29.2862 22.6826 30.419 18.0235 31.8754C17.4533 35.2089 17.1194 38.591 17.0461 41.9489H17.0379Z" fill="#25CED1"/>
<path d="M16.5818 42.8294C16.3375 42.8294 16.142 42.6272 16.142 42.3844C16.199 38.9861 16.5085 35.5555 17.0705 32.1814C13.0305 33.4841 9.06368 35.0295 5.28425 36.7853C5.06433 36.8905 4.79553 36.7853 4.69779 36.575C4.5919 36.3565 4.69779 36.0895 4.90957 35.9924C8.94965 34.1233 13.1852 32.4889 17.5022 31.1296L18.2027 30.9111L18.0806 31.6232C17.4534 35.1833 17.1031 38.8162 17.0461 42.4087C17.0461 42.6514 16.8425 42.8456 16.6063 42.8456L16.5818 42.8294Z" fill="#25CED1"/>
<path d="M35.7478 42.8299H31.5692C31.3249 42.8299 31.1294 42.6357 31.1294 42.393C31.1294 42.1502 31.3249 41.9561 31.5692 41.9561H35.7478C35.9922 41.9561 36.1876 42.1502 36.1876 42.393C36.1876 42.6357 35.9922 42.8299 35.7478 42.8299Z" fill="#25CED1"/>
<path d="M30.4215 58.6242C30.4215 58.6242 30.3727 58.6242 30.3482 58.6242C25.9905 57.8717 21.6409 56.836 17.4053 55.5333L17.1447 55.4524L17.0958 55.1854C16.6885 52.7338 16.4034 50.2822 16.2568 47.8953C16.1428 46.1071 16.1021 44.2542 16.1346 42.3852V41.9482H32.0099V42.3852C32.0099 46.7059 32.3764 51.0751 33.1014 55.3634C33.1421 55.6062 32.9792 55.8327 32.7348 55.8732C32.4904 55.9136 32.2624 55.7518 32.2217 55.5091C31.513 51.3178 31.1383 47.0538 31.1139 42.8221H17.0062C16.9899 44.5212 17.0306 46.2042 17.1284 47.8305C17.2668 50.1042 17.5356 52.4344 17.9103 54.7647C22.0237 56.0188 26.2511 57.0221 30.4786 57.7503C30.7229 57.7908 30.8777 58.0173 30.837 58.2601C30.7962 58.4704 30.6089 58.6242 30.3971 58.6242H30.4215Z" fill="#25CED1"/>
<path d="M18.0891 55.7434L17.4049 55.533C13.1041 54.2142 8.88487 52.6202 4.86108 50.7997C4.64116 50.7026 4.54342 50.4356 4.64116 50.2171C4.7389 49.9987 5.0077 49.9016 5.22762 49.9987C9.00705 51.7059 12.9575 53.219 16.9813 54.4812C16.6311 52.2642 16.3867 50.0553 16.2564 47.895C16.1586 46.2525 16.1098 44.5452 16.1342 42.8299H5.04843C4.80407 42.8299 4.60858 42.6357 4.60858 42.393C4.60858 42.1502 4.80407 41.9561 5.04843 41.9561H17.0383V42.4011C16.9976 44.2459 17.0383 46.0745 17.1524 47.8464C17.299 50.201 17.5759 52.6283 17.9832 55.0476L18.0972 55.7515L18.0891 55.7434Z" fill="#25CED1"/>
<path d="M21.616 70.1374C21.4368 70.1374 21.2739 70.0322 21.2006 69.8623C19.3109 65.1209 17.9262 60.1852 17.0953 55.1849C17.0546 54.9421 17.2175 54.7156 17.4619 54.6751C17.7062 54.6347 17.9343 54.7965 17.975 55.0392C18.7977 59.9749 20.1661 64.8538 22.0314 69.5386C22.121 69.7652 22.007 70.0241 21.7789 70.1131C21.7219 70.1374 21.673 70.1455 21.616 70.1455V70.1374Z" fill="#25CED1"/>
<path d="M49.8642 24.3901C49.6198 24.3901 49.4243 24.1959 49.4243 23.9531V1.50821C49.4243 1.26547 49.6198 1.07129 49.8642 1.07129C50.1085 1.07129 50.304 1.26547 50.304 1.50821V23.9531C50.304 24.1959 50.1085 24.3901 49.8642 24.3901Z" fill="#25CED1"/>
<path d="M48.798 45.6277C48.464 44.503 58.0837 38.823 70.3424 37.7469C72.5742 37.5527 78.1212 37.9734 89.2314 38.823C89.2314 38.823 106.785 40.1661 111.24 36.1286C111.444 35.9506 112.511 34.9392 112.828 35.1577C113.203 35.4247 112.25 37.3261 112.071 37.6983C110.352 41.1452 101.857 46.3802 87.8874 46.186C80.4263 46.0808 78.0316 45.2555 69.7152 44.6325C55.4934 43.5644 49.1075 46.6876 48.7898 45.6277H48.798Z" fill="#007DA7"/>
<path d="M49.4089 52.4571C49.2134 51.5509 57.1714 47.6429 66.9213 47.5296C68.697 47.5134 73.0547 48.185 81.7865 49.5281C81.7865 49.5281 95.5766 51.648 99.3478 48.7352C99.5189 48.6057 100.431 47.8694 100.659 48.0636C100.936 48.2982 100.073 49.7466 99.9017 50.0217C98.3297 52.6432 91.2921 56.268 80.2633 55.2647C74.3743 54.7307 72.5334 53.9378 65.9928 52.9345C54.8174 51.2272 49.5799 53.3067 49.3926 52.449L49.4089 52.4571Z" fill="#007DA7"/>
<path d="M49.3442 59.5762C49.2383 58.9289 54.9889 56.5016 61.8473 56.809C63.0935 56.8657 66.1317 57.5049 72.2081 58.7914C72.2081 58.7914 81.8115 60.8222 84.5809 58.9208C84.7031 58.8318 85.371 58.3544 85.5257 58.5001C85.7131 58.6781 85.0452 59.6571 84.9148 59.8432C83.7093 61.6233 78.6185 63.8888 70.913 62.756C66.7996 62.1492 65.5371 61.5181 60.9839 60.5633C53.1969 58.9208 49.442 60.183 49.3442 59.5762Z" fill="#007DA7"/>
<path d="M46.3707 64.9334C46.3218 64.4965 50.2805 63.0563 54.8988 63.5013C55.7378 63.5822 57.766 64.1243 61.8142 65.2005C61.8142 65.2005 68.2165 66.9077 70.155 65.7183C70.2446 65.6617 70.7089 65.3623 70.8067 65.4675C70.9288 65.5888 70.4401 66.228 70.3505 66.3575C69.4708 67.5145 65.9602 68.8658 60.8042 67.8382C58.0511 67.288 57.2203 66.8187 54.1821 66.0096C48.9935 64.6341 46.4114 65.3542 46.3625 64.9334H46.3707Z" fill="#007DA7"/>
<path d="M111.795 26.4439C111.648 26.3711 111.249 26.8647 111.176 26.9537C109.97 28.3939 105.669 29.0412 103.389 29.2839C93.6061 29.7613 90.185 29.2354 80.8342 26.3387C76.5661 25.0765 72.4771 23.3935 67.932 22.8191C59.5667 21.8077 50.8757 24.7852 44.6771 30.4571C40.6777 34.0739 38.3726 38.783 37.4522 43.9775C36.8739 46.947 36.4829 49.4067 35.7498 51.7693C35.1308 53.8325 34.2511 55.8796 33.2411 57.7891C26.8388 70.6056 14.4009 77.6934 0 76.9005C9.49745 81.3911 21.9028 79.5463 30.4391 73.308C34.2674 70.5732 37.5418 66.9403 40.0831 63.0808C41.8588 60.4673 43.3494 57.6354 44.4327 54.6659C45.9478 50.7579 46.3795 46.2997 47.7153 42.5211C49.7924 37.2295 54.9728 33.8312 60.2998 32.132C66.865 29.8665 72.5911 32.0349 79.3517 33.022C88.7759 34.4866 93.3454 33.9606 101.833 32.6337C107.795 31.8812 111.102 29.1464 111.632 27.5767C111.689 27.4068 111.974 26.541 111.803 26.452L111.795 26.4439Z" fill="#003459"/>
<path d="M47.9421 86.9973C23.7994 86.9973 4.15283 67.4814 4.15283 43.4991C4.15283 19.5169 23.7994 0.000976562 47.9421 0.000976562C61.7077 0.000976562 74.8461 6.55483 83.081 17.5426C83.6675 18.3194 83.5046 19.4279 82.7145 20.0104C81.9325 20.593 80.8166 20.4312 80.2301 19.6463C72.5491 9.40292 60.7791 3.52873 47.9339 3.52873C25.7461 3.52873 7.69605 21.4588 7.69605 43.5072C7.69605 65.5557 25.7461 83.4776 47.9339 83.4776C56.8205 83.4776 65.2427 80.6619 72.2966 75.3217C73.0786 74.7311 74.1863 74.8848 74.7809 75.6535C75.3755 76.4302 75.2208 77.5306 74.447 78.1213C66.7741 83.9307 57.6024 86.9973 47.9339 86.9973H47.9421Z" fill="#003459"/>
</svg>
