<svg id="868a4534-87ee-45e5-89f1-a0190b5e83df" xmlns="http://www.w3.org/2000/svg" x="0px" y="0px"
     viewBox="0 0 491.2 129.9" enable-background="new 0 0 491.2 129.9">
  <g>
    <defs>
      <rect id="cb1f182c-f94d-48bb-a9c7-e47c10b018c9" x="36.8" y="36.8" width="397.6" height="57.4"/>
    </defs>
    <clipPath id="a786f433-51d5-4b7a-bf64-bdf77bb1da95">
      <use href="#cb1f182c-f94d-48bb-a9c7-e47c10b018c9" overflow="visible"/>
    </clipPath>
    <path clip-path="url(#a786f433-51d5-4b7a-bf64-bdf77bb1da95)" d="M36.8,41v47.6c0,2.9,1.7,4.2,4.9,4.2h45
      c3.1,0,4.9-1.3,4.9-4.2c0-2.7-1.8-4.2-4.9-4.2H48.1c-1.6,0-2.2-0.7-2.2-2.2V41c0-2.4-1.8-4.2-4.5-4.2C38.7,36.8,36.8,38.6,36.8,41"/>
    <path clip-path="url(#a786f433-51d5-4b7a-bf64-bdf77bb1da95)" d="M114.1,71.9V41c0-2.4-1.8-4.2-4.5-4.2
      S105,38.6,105,41v31.7c0,19.2,12,21.4,32.6,21.4c20.7,0,32.6-2.2,32.6-21.4V41c0-2.4-1.8-4.2-4.5-4.2c-2.8,0-4.5,1.8-4.5,4.2v30.9
      c0,15.7-8.4,13.6-23.6,13.6C122.4,85.5,114.1,87.3,114.1,71.9"/>
    <path clip-path="url(#a786f433-51d5-4b7a-bf64-bdf77bb1da95)" d="M258.8,50.8v38.5c0,2.5,1.9,4.2,4.5,4.2
      c2.8,0,4.5-1.7,4.5-4.2V43c0-3.5-2.4-6.2-5.7-6.2c-3.1,0-4.5,1.8-7.5,4.5l-23.2,22.9h-0.1l-23.2-22.8c-3-3.1-5.2-4.7-7.9-4.7
      c-2.7,0-5.9,2.8-5.9,6.2v46.2c0,2.5,1.9,4.2,4.5,4.2c2.8,0,4.5-1.7,4.5-4.2V50.7h0.5l22.1,21c2,1.9,3.5,3.5,5.1,3.5
      c2,0,3-1.6,5.3-3.5l22-20.8H258.8z"/>
    <path clip-path="url(#a786f433-51d5-4b7a-bf64-bdf77bb1da95)" fill="#0C9ED9" d="M347.5,41.8
      c0-2.8-1.7-4.3-4.9-4.3h-45.4c-3.2,0-4.9,1.6-4.9,4.3V46l50.5-0.1C345.9,45.9,347.5,44.5,347.5,41.8"/>
    <path clip-path="url(#a786f433-51d5-4b7a-bf64-bdf77bb1da95)" d="M292.3,61.1v27.4c0,2.9,1.7,4.2,4.9,4.2
      h45.9c3.1,0,4.8-1.3,4.8-4.2c0-2.8-1.7-4.2-4.8-4.2h-39.6c-1.6,0-2.2-0.7-2.2-2.2V69.6h29.9c3.2,0,4.9-1.4,4.9-4.2
      c0-2.6-1.7-4.2-4.9-4.2L292.3,61.1z"/>
    <path clip-path="url(#a786f433-51d5-4b7a-bf64-bdf77bb1da95)" d="M434.5,88.1V41c0-2.4-1.9-4.2-4.5-4.2
      c-2.8,0-4.5,1.8-4.5,4.2v38.1l-45-37.8c-3.1-2.6-4.8-4.5-7.8-4.5c-3.2,0-5.4,2.2-5.4,6.2v46.2c0,2.4,1.9,4.2,4.5,4.2
      c2.7,0,4.5-1.8,4.5-4.2V50.3l44.5,38.2c3,2.5,5,4.9,8.1,4.9C432.1,93.5,434.5,91.2,434.5,88.1"/>
  </g>
  <g>
    <g>
      <g>
        <path d="M440.8,44.4L440.8,44.4c0-4,3.2-7.3,7.2-7.3c4,0,7.2,3.3,7.2,7.2v0c0,3.9-3.2,7.2-7.2,7.2
          C443.9,51.6,440.8,48.4,440.8,44.4z M454.3,44.4L454.3,44.4c0-3.6-2.7-6.4-6.4-6.4c-3.6,0-6.4,2.9-6.4,6.4v0
          c0,3.5,2.7,6.4,6.4,6.4C451.6,50.8,454.3,47.9,454.3,44.4z M445.2,40.6h3.3c1.6,0,2.8,0.8,2.8,2.3c0,1.2-0.7,1.9-1.7,2.2l1.9,2.8
          h-1.7l-1.7-2.5h-1.5v2.5h-1.4V40.6z M448.3,44.2c0.9,0,1.5-0.5,1.5-1.2c0-0.8-0.5-1.2-1.5-1.2h-1.8v2.4H448.3z"/>
      </g>
    </g>
  </g>
</svg>