<svg id="5aa85b87-29e4-4046-b795-f75f4858d40d" xmlns="http://www.w3.org/2000/svg" viewBox="0 0 400 400">
    <path d="M331.987,138.766A42.458,42.458,0,0,0,289.5,181.224V284.747h42.489Z"/>
    <path fill="#e10600"
          d="M331.987,105.737l-.7-.088a35.484,35.484,0,0,0-19.484,2.862c-8.489,3.971-16.339,10.7-23.043,17.314l-.338.334a134.17,134.17,0,0,0-14.3,16.618L208.4,233.145H183.328l-72.2-99.263V284.747H68.013V55h33.759L195.7,184.5,289.953,55h42.034Z"/>
    <path d="M137.69,344.757h-5.129l-2.486-6.195H116.62l-2.485,6.195h-5.169l11.048-27.58h6.668Zm-9.47-10.811-4.892-12.192-4.853,12.192Z"/>
    <path d="M172.013,344.757h-3.708l-16.3-18.939v18.939h-5.09v-27.58h3.709l16.3,18.9v-18.9h5.089Z"/>
    <path d="M210.057,330.947a13.7,13.7,0,0,1-13.573,13.81H184.608v-27.58h11.876A13.666,13.666,0,0,1,210.057,330.947Zm-5.051,0a8.8,8.8,0,0,0-8.68-8.877H189.7v17.755h6.628A8.8,8.8,0,0,0,205.006,330.947Z"/>
    <path d="M220.707,344.757v-27.58h5.09v27.58Z"/>
    <path d="M263.639,344.757H258.51l-2.486-6.195H242.57l-2.486,6.195h-5.168l11.047-27.58h6.668Zm-9.469-10.811-4.892-12.192-4.853,12.192Z"/>
    <path d="M298,344.757h-3.709l-16.295-18.939v18.939H272.9v-27.58h3.708l16.3,18.9v-18.9H298Z"/>
    <path d="M99.7,327.233a5.1,5.1,0,0,0-5.1,5.1v12.427h5.1Z"/>
    <path d="M331.085,317.177H311.092a4.526,4.526,0,0,0-4.295,4.694l-.1.041h9.555V344.86c1.728-.041,3.366.06,5.076-.076v-.027h.086V321.912h6.4a4.551,4.551,0,0,0,4.173-4.734Z"/>
    <path d="M99.7,323.268l-.083-.011a4.266,4.266,0,0,0-2.339.344,10.521,10.521,0,0,0-2.766,2.078l-.041.04a16.145,16.145,0,0,0-1.717,2l-7.89,10.848H81.856l-8.667-11.916v18.111H68.013v-27.58h4.053L83.34,332.723l11.315-15.546H99.7Z"/>
    <path d="M339.357,56.013v-.754a.229.229,0,0,1,.258-.259h6.241a.23.23,0,0,1,.261.259v.754a.231.231,0,0,1-.261.261h-2.339a.091.091,0,0,0-.1.1v7.488a.229.229,0,0,1-.261.259h-.935a.229.229,0,0,1-.261-.259V56.378a.091.091,0,0,0-.1-.1h-2.237A.229.229,0,0,1,339.357,56.013ZM353.786,55h.935a.23.23,0,0,1,.261.259v8.607a.229.229,0,0,1-.261.259h-.935a.229.229,0,0,1-.261-.259V57.522a.106.106,0,0,0-.052-.1c-.034-.016-.06,0-.078.052l-1.56,2.367a.394.394,0,0,1-.31.156h-.261a.349.349,0,0,1-.312-.156l-1.587-2.367c-.017-.052-.043-.068-.078-.052a.106.106,0,0,0-.052.1v6.344a.228.228,0,0,1-.258.259h-.938a.229.229,0,0,1-.26-.259V55.259a.23.23,0,0,1,.26-.259H349a.348.348,0,0,1,.31.156l1.977,2.963a.105.105,0,0,0,.078.026.1.1,0,0,0,.078-.026l2.027-2.963A.352.352,0,0,1,353.786,55Z"/>
</svg>