<svg xmlns="http://www.w3.org/2000/svg" viewBox="0 0 312.82 53.38">
    <g>
        <g>
            <g>
                <g>
                    <g>
                        <path class="cls-3"
                              d="M0,53.38V15.7H37q11.57,0,11.56,11.56V53.38H38.67V26.55a2,2,0,0,0-2.28-2.29h-7.2V53.38H19.34V24.26H9.85V53.38Z"
                              transform="translate(0 0)"/>
                        <path class="cls-3" d="M55.61,0H65.75V9.56H55.61Zm.15,15.7H65.6V53.38H55.76Z"
                              transform="translate(0 0)"/>
                        <path class="cls-3"
                              d="M74.09,53.38V15.7h37q11.57,0,11.56,11.56V53.38h-9.85V26.55a2,2,0,0,0-2.28-2.29h-7.2V53.38H93.43V24.26H83.94V53.38Z"
                              transform="translate(0 0)"/>
                        <path class="cls-3"
                              d="M129.91,41.82V27.26q0-11.57,11.56-11.56h9.27q11.56,0,11.56,11.56v11H139.75v4.28A2,2,0,0,0,142,44.82H162.3v8.56H141.47q-11.57,0-11.56-11.56m9.84-11.28h12.71v-4a2,2,0,0,0-2.29-2.29H142a2,2,0,0,0-2.29,2.29Z"
                              transform="translate(0 0)"/>
                        <path class="cls-3"
                              d="M169.32,41.82V27.26q0-11.57,11.57-11.56h17.55v8.56h-17a2,2,0,0,0-2.29,2.29v16a2,2,0,0,0,2.29,2.29h17v8.56H180.89q-11.56,0-11.57-11.56"
                              transform="translate(0 0)"/>
                        <path class="cls-3"
                              d="M216.06,53.38Q204.5,53.38,204.5,42t11.56-11.34h9.85V26.55a2,2,0,0,0-2.29-2.29H206.46V15.7h17.73q11.56,0,11.57,11.56V53.38Zm-1.71-10.85a2,2,0,0,0,2.28,2.29h9.28V38.39h-9.28a2,2,0,0,0-2.28,2.29Z"
                              transform="translate(0 0)"/>
                        <path class="cls-3"
                              d="M243.13,50.17V44.82h16.41c1.62,0,2.43-.91,2.43-2.71s-.72-2.91-2.14-3.15l-7.71-1.28q-9-1.5-9-10.42,0-11.57,11.56-11.56H270v8.56h-14.7c-1.62,0-2.43.91-2.43,2.72s.72,2.9,2.14,3.14l7.71,1.28q9,1.5,9,10.42,0,11.57-11.56,11.56H243.13Z"
                              transform="translate(0 0)"/>
                        <path class="cls-3"
                              d="M278,41.82V4.14h9.85V15.7h12.28v8.56H287.89V42.53a2,2,0,0,0,2.29,2.29h10.7v8.56H289.61Q278,53.38,278,41.82"
                              transform="translate(0 0)"/>
                        <path class="cls-3"
                              d="M307.43,19.46H307V16h-1.18v-.42h2.84V16h-1.19Zm3.27,0-1.21-3.31h0l0,1.09v2.22H309V15.54h.68l1.2,3.3,1.22-3.3h.68v3.92h-.47V17.3l0-1.13h0l-1.23,3.29Z"
                              transform="translate(0 0)"/>
                    </g>
                </g>
            </g>
        </g>
    </g>
</svg>
