<svg width="198" height="198" viewBox="0 0 198 198" fill="none" xmlns="http://www.w3.org/2000/svg">
<path d="M153.276 0H44.7288C20.029 0 0 20.029 0 44.7288V153.271C0 177.976 20.029 198 44.7288 198H153.271C177.976 198 198 177.971 198 153.271V44.7288C198 20.0239 177.971 0 153.271 0H153.276ZM129.795 160.785H111.71L126.779 66.6363L93.6259 160.785H75.5415L92.1181 72.5257L57.457 160.785H39.3726L57.457 78.41L39.3726 37.2199H57.457L92.1181 69.581L75.5415 37.2199H93.6259L126.779 63.6967L111.71 37.2199H129.795L162.948 57.8124L129.795 160.79V160.785Z" fill="#FFDD33"/>
<path d="M111.712 37.2192L126.781 63.6961L93.6328 37.2192H75.5483L92.1249 69.5804L57.4639 37.2192H39.3794L57.4639 78.4094L39.3794 160.785H57.4639L92.1249 72.5251L75.5483 160.785H93.6328L126.781 66.6408L111.712 160.785H129.797L162.95 57.8118L129.797 37.2192H111.712Z" fill="#1C1C1E"/>
</svg>
