<svg version="1.1" id="Layer_1" xmlns="http://www.w3.org/2000/svg" x="0px" y="0px"
	 width="100%" viewBox="0 0 200 200" enable-background="new 0 0 200 200" xml:space="preserve">
<path fill="#FFFFFF" opacity="1.000000" stroke="none" 
	d="
M185.000000,201.000000 
	C123.666641,201.000000 62.333286,201.000000 1.000000,201.000000 
	C1.000000,192.569199 1.000000,184.253265 1.466214,175.473511 
	C6.194977,175.009705 10.457527,175.009705 15.244248,175.009705 
	C15.244248,168.773102 15.244248,163.140976 15.244248,156.742310 
	C18.404490,161.369064 21.017683,165.194916 24.047869,169.631271 
	C26.924438,165.397079 29.488428,161.622986 32.052418,157.848892 
	C32.439953,157.900681 32.827484,157.952469 33.215019,158.004257 
	C33.215019,163.589294 33.215019,169.174332 33.215019,174.632202 
	C38.506199,174.632202 42.892853,174.632202 47.351460,174.632202 
	C47.351460,160.669739 47.351460,147.087509 47.351460,132.631546 
	C42.243622,133.075302 36.529408,132.042831 32.848347,134.310593 
	C28.969118,136.700409 27.031693,142.242233 24.229860,146.430878 
	C23.624399,145.979767 23.246359,145.848099 23.150562,145.605133 
	C19.146954,135.451141 12.303583,130.314499 1.000000,133.000000 
	C1.000000,89.040512 1.000000,45.081024 1.000000,1.060767 
	C67.564728,1.060767 134.129517,1.060767 200.847168,1.060767 
	C200.847168,67.666359 200.847168,134.333176 200.847168,201.000000 
	C198.992126,201.000000 196.993973,201.000000 194.648071,200.645386 
	C195.199280,199.078690 196.781891,197.915894 196.873459,196.645630 
	C197.193054,192.212540 196.997162,187.742279 196.997162,182.510239 
	C192.663437,184.906860 187.324692,180.070328 184.230591,186.261475 
	C182.083160,190.558380 184.134506,193.427811 185.943237,195.547287 
	C185.529358,197.939896 185.264679,199.469940 185.000000,201.000000 
M160.463623,184.206375 
	C160.477432,187.179825 160.555878,190.154739 160.487625,193.126312 
	C160.413223,196.365677 161.824753,197.172516 164.881454,196.015427 
	C164.881454,191.644119 164.881454,187.373260 164.929886,182.386597 
	C163.770737,180.814621 162.611572,179.242645 161.452423,177.670670 
	C160.940781,178.062592 160.429138,178.454498 159.917496,178.846405 
	C160.131241,180.348862 160.344971,181.851334 160.463623,184.206375 
M168.890106,133.436050 
	C169.113541,133.502029 169.336990,133.568008 169.560425,133.634003 
	C169.362411,133.431412 169.164398,133.228806 168.993042,132.186493 
	C168.745071,130.047546 168.497116,127.908592 168.211273,125.442894 
	C173.534470,124.593704 175.042709,120.836906 175.015610,115.897308 
	C174.959045,105.585869 175.117371,95.272041 174.954529,84.962868 
	C174.855286,78.680428 171.856613,76.527672 164.999054,77.611862 
	C164.999054,86.673737 165.024948,95.796715 164.990265,104.919464 
	C164.965622,111.402832 161.424179,114.989006 155.145081,114.997772 
	C152.483978,115.001488 149.822891,114.998291 147.161789,114.998283 
	C133.215683,114.998276 119.269577,114.998276 105.367210,114.998276 
	C104.648453,122.704651 109.947716,124.820328 115.423157,124.945038 
	C124.399704,125.149506 133.401306,125.342651 142.360336,124.897011 
	C150.093262,124.512352 157.068268,125.656006 163.283615,130.600052 
	C164.844666,131.841812 167.118011,132.188126 168.890106,133.436050 
M160.000778,70.633308 
	C160.000504,61.629711 156.937073,57.097099 150.185242,57.051655 
	C129.367676,56.911552 108.548141,56.928852 87.730316,57.049412 
	C82.136543,57.081806 77.112511,62.203629 77.042213,67.793007 
	C76.901894,78.949959 76.864342,90.112488 77.072693,101.267326 
	C77.150955,105.457527 78.768974,109.343666 83.623810,109.856911 
	C86.990036,110.212769 86.803780,111.934288 86.304131,114.221794 
	C85.692520,117.021866 85.049858,119.815147 84.193367,123.621185 
	C87.228233,121.762688 89.315559,120.596161 91.286537,119.258224 
	C100.080994,113.288406 109.316696,109.751213 120.400719,110.814606 
	C129.807373,111.717064 139.369476,111.031906 148.862549,110.991196 
	C156.903976,110.956703 159.999817,107.885078 160.000580,100.079330 
	C160.001511,90.586082 160.000778,81.092842 160.000778,70.633308 
M73.966316,163.500793 
	C72.993599,164.966248 72.020882,166.431702 70.924919,168.082855 
	C80.239021,175.168060 90.560623,176.865494 101.152046,173.951218 
	C109.525894,171.647095 112.345222,164.057892 110.290802,157.101532 
	C108.528259,151.133499 103.907234,150.083023 99.464783,148.452164 
	C95.784592,147.101120 91.828354,146.502045 87.005035,145.329254 
	C92.226692,143.008438 94.350761,142.825073 98.711723,145.421844 
	C102.493469,147.673706 104.771011,146.980225 106.565529,143.183533 
	C107.030327,142.200134 107.777351,141.327393 108.496834,140.491730 
	C110.113914,138.613510 110.234314,137.272095 107.729195,135.885406 
	C99.919991,131.562698 91.868866,129.867462 83.210243,132.924728 
	C76.643433,135.243423 72.726753,140.451126 72.994179,146.465103 
	C73.224899,151.653702 77.753357,156.158279 84.296883,157.935547 
	C88.213837,158.999420 92.068092,160.294128 95.950531,161.485092 
	C95.840645,161.994370 95.730766,162.503662 95.620888,163.012939 
	C92.747406,162.809402 89.793823,162.951035 87.022346,162.307907 
	C84.088928,161.627213 81.328773,160.199844 78.625565,159.150131 
	C77.129929,160.536087 75.805038,161.763824 73.966316,163.500793 
M142.152206,161.967773 
	C150.104248,158.311081 152.594543,154.200211 152.001312,145.709305 
	C151.576492,139.629028 147.447189,134.458099 139.964996,133.226242 
	C131.913620,131.900696 123.619423,132.049881 115.286942,131.546906 
	C115.286942,146.399628 115.286942,160.274155 115.286942,174.177979 
	C120.133614,174.177979 124.678787,174.177979 129.643463,174.177979 
	C129.643463,170.345291 129.643463,166.916107 129.643463,163.518280 
	C133.827240,163.008148 137.583481,162.550140 142.152206,161.967773 
M67.999664,157.498734 
	C67.999664,149.407333 67.999664,141.315948 67.999664,133.387604 
	C62.920895,133.387604 58.527462,133.387604 54.252235,133.387604 
	C54.252235,147.378967 54.252235,160.981873 54.252235,174.701294 
	C58.897903,174.701294 63.286957,174.701294 67.999664,174.701294 
	C67.999664,169.104935 67.999664,163.801529 67.999664,157.498734 
M36.034176,194.125259 
	C35.925819,188.484436 37.959717,181.371536 28.061035,182.840317 
	C27.730648,181.062561 27.466267,179.639984 27.343687,178.980408 
	C20.393318,178.980408 13.822453,178.931564 7.255015,179.059235 
	C6.627890,179.071442 5.586815,180.145660 5.526499,180.799606 
	C5.463619,181.481369 6.197073,182.574814 6.868882,182.904572 
	C7.811019,183.367065 9.017977,183.290054 10.473726,183.494720 
	C10.473726,187.857452 10.473726,191.962494 10.473726,196.342957 
	C12.439809,196.342957 13.998759,196.342957 16.059530,196.342957 
	C16.059530,191.877884 16.059530,187.632050 16.059530,183.276764 
	C18.312746,183.276764 20.063538,183.276764 22.387798,183.276764 
	C22.387798,187.723053 22.387798,191.957062 22.387798,196.321869 
	C24.367218,196.321869 25.765850,196.321869 27.259726,196.321869 
	C27.603710,193.057449 27.917942,190.075378 28.232172,187.093307 
	C28.893593,187.054688 29.555014,187.016052 30.216434,186.977417 
	C30.606825,190.066437 30.997217,193.155441 31.525688,197.337036 
	C33.320969,196.399643 34.665562,195.697586 36.034176,194.125259 
M101.046173,195.176392 
	C103.517448,195.665314 105.969452,196.356308 108.464661,196.594269 
	C111.924034,196.924194 113.727707,194.902542 113.988045,191.633881 
	C114.244019,188.420029 112.795616,186.308670 109.440285,185.683090 
	C107.952461,185.405701 106.509857,184.885696 105.046722,184.475815 
	C105.106110,183.941544 105.165504,183.407272 105.224892,182.872986 
	C107.730545,182.983673 110.236198,183.094360 112.723869,183.204254 
	C112.826172,179.027252 111.687950,178.548920 105.061058,178.891678 
	C101.834740,179.058563 100.271858,180.995621 100.401566,183.408234 
	C100.504837,185.329269 102.156738,187.466675 103.679588,188.924805 
	C105.109566,190.294037 107.271530,190.898788 109.111412,191.839920 
	C108.931747,192.275330 108.752083,192.710739 108.572418,193.146133 
	C106.195343,192.781250 103.818268,192.416367 101.241615,192.020844 
	C101.161087,192.721237 101.069130,193.521072 101.046173,195.176392 
M65.005928,190.992203 
	C65.229828,197.031998 67.659714,197.974854 78.086189,196.067642 
	C80.205612,184.294830 77.969887,181.879684 65.767502,183.451004 
	C66.151619,185.269424 66.528412,187.053162 66.912094,188.869476 
	C66.497643,189.211899 65.872627,189.728271 65.005928,190.992203 
M142.055115,196.537384 
	C148.849884,197.163116 145.891205,191.845062 145.735031,189.377365 
	C145.596008,187.180618 143.518402,184.074936 141.540329,183.299805 
	C139.308868,182.425415 135.998169,183.163574 133.589005,184.202469 
	C131.136078,185.260269 135.900894,188.725327 132.381058,190.545502 
	C131.953735,190.766464 132.822708,194.135529 133.629700,195.781403 
	C133.945404,196.425278 135.738083,196.492416 136.872025,196.550797 
	C138.332672,196.626007 139.807327,196.428543 142.055115,196.537384 
M63.024544,194.397247 
	C63.196465,193.434830 63.675209,192.404938 63.481228,191.523010 
	C62.955723,189.133774 62.841728,185.854095 61.266708,184.702316 
	C59.385025,183.326324 55.863712,182.952332 53.607624,183.737991 
	C51.934048,184.320816 50.311558,187.367722 50.115791,189.453079 
	C49.463631,196.400223 55.323147,198.923813 63.024544,194.397247 
M119.473557,196.582443 
	C124.326653,195.902969 120.997444,192.080139 122.051727,189.958511 
	C122.564270,188.927063 123.439560,188.075897 124.150650,187.143112 
	C124.758369,188.010132 125.664970,188.803955 125.899704,189.762329 
	C126.207382,191.018555 125.644684,192.532776 126.084152,193.699554 
	C126.543236,194.918396 127.747421,195.856613 129.421265,197.878067 
	C131.014465,183.945724 129.853638,181.957291 122.100075,183.515427 
	C122.081490,180.341919 122.131844,176.896957 116.991142,178.482819 
	C116.991142,183.746368 116.916351,188.888596 117.064682,194.024368 
	C117.089432,194.881546 118.083984,195.710724 119.473557,196.582443 
M167.988632,188.573532 
	C167.988632,191.155640 167.988632,193.737747 167.988632,196.696121 
	C170.105835,196.484955 171.481491,196.347748 173.015091,196.194794 
	C173.015091,193.941925 172.806473,192.091705 173.090820,190.320618 
	C173.270630,189.200516 174.185913,188.198486 174.771317,187.143509 
	C175.509262,188.211838 176.496567,189.192932 176.910034,190.374756 
	C177.271942,191.409210 176.640396,192.828430 177.079163,193.789337 
	C177.626648,194.988373 178.821121,195.891968 179.736252,196.923111 
	C180.157608,196.592087 180.578949,196.261047 181.000305,195.930008 
	C181.000305,193.132675 181.488342,190.212875 180.828064,187.581207 
	C180.390686,185.837997 178.547302,183.645599 176.906464,183.189270 
	C174.269989,182.456024 171.280396,182.992569 167.988647,182.992569 
	C167.988647,184.720703 167.988647,186.181137 167.988632,188.573532 
M80.050484,183.810211 
	C80.688049,186.499329 81.594849,189.158463 81.898369,191.884766 
	C82.324944,195.716293 84.498734,197.565079 88.206917,196.578339 
	C88.871567,196.401489 89.739693,195.793533 89.893265,195.218781 
	C90.055923,194.610031 89.597664,193.728027 89.200455,193.097839 
	C88.162056,191.450439 87.008957,189.875366 85.901596,188.271469 
	C86.663353,188.227463 87.425110,188.183456 88.186859,188.139450 
	C89.098877,186.740631 91.003639,184.338425 90.765121,184.102448 
	C88.933365,182.290131 86.842903,180.448746 84.480743,179.621170 
	C83.657616,179.332779 81.844200,181.870941 80.050484,183.810211 
M148.353012,193.093719 
	C148.125320,198.050766 151.082855,196.716675 153.415131,196.210587 
	C155.423660,192.917480 151.012146,186.456894 159.146072,187.194183 
	C158.966324,185.775940 158.794174,184.417740 158.637497,183.181549 
	C155.095291,183.181549 152.004211,183.181549 148.352951,183.181549 
	C148.352951,186.319901 148.352951,189.264389 148.353012,193.093719 
M44.958988,187.747925 
	C46.249233,187.538620 47.539478,187.329330 49.101894,187.075897 
	C48.965351,185.834824 48.814613,184.464722 48.671383,183.162872 
	C45.474228,183.162872 42.705273,183.162872 39.976704,183.162872 
	C37.856552,194.158371 38.796547,197.155670 43.828156,195.783813 
	C44.029434,193.320709 44.230713,190.857605 44.958988,187.747925 
z"/>
<path fill="#636466" opacity="1.000000" stroke="none" 
	d="
M1.000000,133.468658 
	C12.303583,130.314499 19.146954,135.451141 23.150562,145.605133 
	C23.246359,145.848099 23.624399,145.979767 24.229860,146.430878 
	C27.031693,142.242233 28.969118,136.700409 32.848347,134.310593 
	C36.529408,132.042831 42.243622,133.075302 47.351460,132.631546 
	C47.351460,147.087509 47.351460,160.669739 47.351460,174.632202 
	C42.892853,174.632202 38.506199,174.632202 33.215019,174.632202 
	C33.215019,169.174332 33.215019,163.589294 33.215019,158.004257 
	C32.827484,157.952469 32.439953,157.900681 32.052418,157.848892 
	C29.488428,161.622986 26.924438,165.397079 24.047869,169.631271 
	C21.017683,165.194916 18.404490,161.369064 15.244248,156.742310 
	C15.244248,163.140976 15.244248,168.773102 15.244248,175.009705 
	C10.457527,175.009705 6.194977,175.009705 1.466214,175.004852 
	C1.000000,161.312439 1.000000,147.624878 1.000000,133.468658 
z"/>
<path fill="#616264" opacity="1.000000" stroke="none" 
	d="
M185.449982,201.000000 
	C185.264679,199.469940 185.529358,197.939896 185.943237,195.547287 
	C184.134506,193.427811 182.083160,190.558380 184.230591,186.261475 
	C187.324692,180.070328 192.663437,184.906860 196.997162,182.510239 
	C196.997162,187.742279 197.193054,192.212540 196.873459,196.645630 
	C196.781891,197.915894 195.199280,199.078690 194.150177,200.645386 
	C191.299988,201.000000 188.599976,201.000000 185.449982,201.000000 
z"/>
<path fill="#30A1DB" opacity="1.000000" stroke="none" 
	d="
M160.000763,71.116455 
	C160.000778,81.092842 160.001511,90.586082 160.000580,100.079330 
	C159.999817,107.885078 156.903976,110.956703 148.862549,110.991196 
	C139.369476,111.031906 129.807373,111.717064 120.400719,110.814606 
	C109.316696,109.751213 100.080994,113.288406 91.286537,119.258224 
	C89.315559,120.596161 87.228233,121.762688 84.193367,123.621185 
	C85.049858,119.815147 85.692520,117.021866 86.304131,114.221794 
	C86.803780,111.934288 86.990036,110.212769 83.623810,109.856911 
	C78.768974,109.343666 77.150955,105.457527 77.072693,101.267326 
	C76.864342,90.112488 76.901894,78.949959 77.042213,67.793007 
	C77.112511,62.203629 82.136543,57.081806 87.730316,57.049412 
	C108.548141,56.928852 129.367676,56.911552 150.185242,57.051655 
	C156.937073,57.097099 160.000504,61.629711 160.000763,71.116455 
M134.342285,80.963219 
	C135.187607,82.877945 135.557480,85.645027 137.016785,86.459023 
	C138.377701,87.218147 141.432526,86.488266 142.729980,85.304718 
	C143.700287,84.419601 143.865250,81.129021 142.986893,80.029297 
	C140.486984,76.899384 137.376312,77.010872 134.342285,80.963219 
M99.275574,86.986404 
	C102.417580,86.247887 104.064629,84.006134 102.776932,81.236580 
	C102.053658,79.680969 99.163101,78.033455 97.549362,78.293243 
	C95.854164,78.566170 93.481918,80.925110 93.248032,82.625839 
	C92.810471,85.807640 95.379272,87.101692 99.275574,86.986404 
M114.083191,84.134293 
	C115.734894,87.663704 118.790283,87.849052 121.452118,86.223175 
	C122.669945,85.479317 123.493835,82.377480 122.942444,80.941879 
	C122.412788,79.562859 119.938095,78.313538 118.206772,78.143990 
	C114.773125,77.807724 113.855232,80.307953 114.083191,84.134293 
z"/>
<path fill="#616264" opacity="1.000000" stroke="none" 
	d="
M74.223236,163.246185 
	C75.805038,161.763824 77.129929,160.536087 78.625565,159.150131 
	C81.328773,160.199844 84.088928,161.627213 87.022346,162.307907 
	C89.793823,162.951035 92.747406,162.809402 95.620888,163.012939 
	C95.730766,162.503662 95.840645,161.994370 95.950531,161.485092 
	C92.068092,160.294128 88.213837,158.999420 84.296883,157.935547 
	C77.753357,156.158279 73.224899,151.653702 72.994179,146.465103 
	C72.726753,140.451126 76.643433,135.243423 83.210243,132.924728 
	C91.868866,129.867462 99.919991,131.562698 107.729195,135.885406 
	C110.234314,137.272095 110.113914,138.613510 108.496834,140.491730 
	C107.777351,141.327393 107.030327,142.200134 106.565529,143.183533 
	C104.771011,146.980225 102.493469,147.673706 98.711723,145.421844 
	C94.350761,142.825073 92.226692,143.008438 87.005035,145.329254 
	C91.828354,146.502045 95.784592,147.101120 99.464783,148.452164 
	C103.907234,150.083023 108.528259,151.133499 110.290802,157.101532 
	C112.345222,164.057892 109.525894,171.647095 101.152046,173.951218 
	C90.560623,176.865494 80.239021,175.168060 70.924919,168.082855 
	C72.020882,166.431702 72.993599,164.966248 74.223236,163.246185 
z"/>
<path fill="#616264" opacity="1.000000" stroke="none" 
	d="
M141.745956,162.029953 
	C137.583481,162.550140 133.827240,163.008148 129.643463,163.518280 
	C129.643463,166.916107 129.643463,170.345291 129.643463,174.177979 
	C124.678787,174.177979 120.133614,174.177979 115.286942,174.177979 
	C115.286942,160.274155 115.286942,146.399628 115.286942,131.546906 
	C123.619423,132.049881 131.913620,131.900696 139.964996,133.226242 
	C147.447189,134.458099 151.576492,139.629028 152.001312,145.709305 
	C152.594543,154.200211 150.104248,158.311081 141.745956,162.029953 
M134.547180,144.569763 
	C132.997437,144.363785 131.447693,144.157791 129.772522,143.935135 
	C129.772522,147.253006 129.772522,149.979126 129.772522,153.606491 
	C132.721634,152.227264 135.226913,151.307129 137.315369,149.806824 
	C137.627411,149.582657 135.982880,146.634888 134.547180,144.569763 
z"/>
<path fill="#30A1DB" opacity="1.000000" stroke="none" 
	d="
M169.063995,132.945969 
	C167.118011,132.188126 164.844666,131.841812 163.283615,130.600052 
	C157.068268,125.656006 150.093262,124.512352 142.360336,124.897011 
	C133.401306,125.342651 124.399704,125.149506 115.423157,124.945038 
	C109.947716,124.820328 104.648453,122.704651 105.367210,114.998276 
	C119.269577,114.998276 133.215683,114.998276 147.161789,114.998283 
	C149.822891,114.998291 152.483978,115.001488 155.145081,114.997772 
	C161.424179,114.989006 164.965622,111.402832 164.990265,104.919464 
	C165.024948,95.796715 164.999054,86.673737 164.999054,77.611862 
	C171.856613,76.527672 174.855286,78.680428 174.954529,84.962868 
	C175.117371,95.272041 174.959045,105.585869 175.015610,115.897308 
	C175.042709,120.836906 173.534470,124.593704 168.211273,125.442894 
	C168.497116,127.908592 168.745071,130.047546 169.004028,132.586166 
	C169.014999,132.985840 169.063995,132.945969 169.063995,132.945969 
z"/>
<path fill="#5F6062" opacity="1.000000" stroke="none" 
	d="
M67.999664,157.998428 
	C67.999664,163.801529 67.999664,169.104935 67.999664,174.701294 
	C63.286957,174.701294 58.897903,174.701294 54.252235,174.701294 
	C54.252235,160.981873 54.252235,147.378967 54.252235,133.387604 
	C58.527462,133.387604 62.920895,133.387604 67.999664,133.387604 
	C67.999664,141.315948 67.999664,149.407333 67.999664,157.998428 
z"/>
<path fill="#6B6C6E" opacity="1.000000" stroke="none" 
	d="
M36.022163,194.560394 
	C34.665562,195.697586 33.320969,196.399643 31.525688,197.337036 
	C30.997217,193.155441 30.606825,190.066437 30.216434,186.977417 
	C29.555014,187.016052 28.893593,187.054688 28.232172,187.093307 
	C27.917942,190.075378 27.603710,193.057449 27.259726,196.321869 
	C25.765850,196.321869 24.367218,196.321869 22.387798,196.321869 
	C22.387798,191.957062 22.387798,187.723053 22.387798,183.276764 
	C20.063538,183.276764 18.312746,183.276764 16.059530,183.276764 
	C16.059530,187.632050 16.059530,191.877884 16.059530,196.342957 
	C13.998759,196.342957 12.439809,196.342957 10.473726,196.342957 
	C10.473726,191.962494 10.473726,187.857452 10.473726,183.494720 
	C9.017977,183.290054 7.811019,183.367065 6.868882,182.904572 
	C6.197073,182.574814 5.463619,181.481369 5.526499,180.799606 
	C5.586815,180.145660 6.627890,179.071442 7.255015,179.059235 
	C13.822453,178.931564 20.393318,178.980408 27.343687,178.980408 
	C27.466267,179.639984 27.730648,181.062561 28.061035,182.840317 
	C37.959717,181.371536 35.925819,188.484436 36.022163,194.560394 
z"/>
<path fill="#6B6C6E" opacity="1.000000" stroke="none" 
	d="
M101.011673,194.748657 
	C101.069130,193.521072 101.161087,192.721237 101.241615,192.020844 
	C103.818268,192.416367 106.195343,192.781250 108.572418,193.146133 
	C108.752083,192.710739 108.931747,192.275330 109.111412,191.839920 
	C107.271530,190.898788 105.109566,190.294037 103.679588,188.924805 
	C102.156738,187.466675 100.504837,185.329269 100.401566,183.408234 
	C100.271858,180.995621 101.834740,179.058563 105.061058,178.891678 
	C111.687950,178.548920 112.826172,179.027252 112.723869,183.204254 
	C110.236198,183.094360 107.730545,182.983673 105.224892,182.872986 
	C105.165504,183.407272 105.106110,183.941544 105.046722,184.475815 
	C106.509857,184.885696 107.952461,185.405701 109.440285,185.683090 
	C112.795616,186.308670 114.244019,188.420029 113.988045,191.633881 
	C113.727707,194.902542 111.924034,196.924194 108.464661,196.594269 
	C105.969452,196.356308 103.517448,195.665314 101.011673,194.748657 
z"/>
<path fill="#6B6C6E" opacity="1.000000" stroke="none" 
	d="
M65.126770,190.618423 
	C65.872627,189.728271 66.497643,189.211899 66.912094,188.869476 
	C66.528412,187.053162 66.151619,185.269424 65.767502,183.451004 
	C77.969887,181.879684 80.205612,184.294830 78.086189,196.067642 
	C67.659714,197.974854 65.229828,197.031998 65.126770,190.618423 
z"/>
<path fill="#636466" opacity="1.000000" stroke="none" 
	d="
M141.665527,196.442963 
	C139.807327,196.428543 138.332672,196.626007 136.872025,196.550797 
	C135.738083,196.492416 133.945404,196.425278 133.629700,195.781403 
	C132.822708,194.135529 131.953735,190.766464 132.381058,190.545502 
	C135.900894,188.725327 131.136078,185.260269 133.589005,184.202469 
	C135.998169,183.163574 139.308868,182.425415 141.540329,183.299805 
	C143.518402,184.074936 145.596008,187.180618 145.735031,189.377365 
	C145.891205,191.845062 148.849884,197.163116 141.665527,196.442963 
z"/>
<path fill="#6B6C6E" opacity="1.000000" stroke="none" 
	d="
M62.985470,194.811417 
	C55.323147,198.923813 49.463631,196.400223 50.115791,189.453079 
	C50.311558,187.367722 51.934048,184.320816 53.607624,183.737991 
	C55.863712,182.952332 59.385025,183.326324 61.266708,184.702316 
	C62.841728,185.854095 62.955723,189.133774 63.481228,191.523010 
	C63.675209,192.404938 63.196465,193.434830 62.985470,194.811417 
z"/>
<path fill="#636466" opacity="1.000000" stroke="none" 
	d="
M119.051987,196.567642 
	C118.083984,195.710724 117.089432,194.881546 117.064682,194.024368 
	C116.916351,188.888596 116.991142,183.746368 116.991142,178.482819 
	C122.131844,176.896957 122.081490,180.341919 122.100075,183.515427 
	C129.853638,181.957291 131.014465,183.945724 129.421265,197.878067 
	C127.747421,195.856613 126.543236,194.918396 126.084152,193.699554 
	C125.644684,192.532776 126.207382,191.018555 125.899704,189.762329 
	C125.664970,188.803955 124.758369,188.010132 124.150650,187.143112 
	C123.439560,188.075897 122.564270,188.927063 122.051727,189.958511 
	C120.997444,192.080139 124.326653,195.902969 119.051987,196.567642 
z"/>
<path fill="#636466" opacity="1.000000" stroke="none" 
	d="
M167.988647,188.107544 
	C167.988647,186.181137 167.988647,184.720703 167.988647,182.992569 
	C171.280396,182.992569 174.269989,182.456024 176.906464,183.189270 
	C178.547302,183.645599 180.390686,185.837997 180.828064,187.581207 
	C181.488342,190.212875 181.000305,193.132675 181.000305,195.930008 
	C180.578949,196.261047 180.157608,196.592087 179.736252,196.923111 
	C178.821121,195.891968 177.626648,194.988373 177.079163,193.789337 
	C176.640396,192.828430 177.271942,191.409210 176.910034,190.374756 
	C176.496567,189.192932 175.509262,188.211838 174.771317,187.143509 
	C174.185913,188.198486 173.270630,189.200516 173.090820,190.320618 
	C172.806473,192.091705 173.015091,193.941925 173.015091,196.194794 
	C171.481491,196.347748 170.105835,196.484955 167.988632,196.696121 
	C167.988632,193.737747 167.988632,191.155640 167.988647,188.107544 
z"/>
<path fill="#6B6C6E" opacity="1.000000" stroke="none" 
	d="
M80.266769,183.464218 
	C81.844200,181.870941 83.657616,179.332779 84.480743,179.621170 
	C86.842903,180.448746 88.933365,182.290131 90.765121,184.102448 
	C91.003639,184.338425 89.098877,186.740631 88.186859,188.139450 
	C87.425110,188.183456 86.663353,188.227463 85.901596,188.271469 
	C87.008957,189.875366 88.162056,191.450439 89.200455,193.097839 
	C89.597664,193.728027 90.055923,194.610031 89.893265,195.218781 
	C89.739693,195.793533 88.871567,196.401489 88.206917,196.578339 
	C84.498734,197.565079 82.324944,195.716293 81.898369,191.884766 
	C81.594849,189.158463 80.688049,186.499329 80.266769,183.464218 
z"/>
<path fill="#6B6C6E" opacity="1.000000" stroke="none" 
	d="
M148.352982,192.651306 
	C148.352951,189.264389 148.352951,186.319901 148.352951,183.181549 
	C152.004211,183.181549 155.095291,183.181549 158.637497,183.181549 
	C158.794174,184.417740 158.966324,185.775940 159.146072,187.194183 
	C151.012146,186.456894 155.423660,192.917480 153.415131,196.210587 
	C151.082855,196.716675 148.125320,198.050766 148.352982,192.651306 
z"/>
<path fill="#6B6C6E" opacity="1.000000" stroke="none" 
	d="
M44.695488,188.071213 
	C44.230713,190.857605 44.029434,193.320709 43.832752,195.784195 
	C38.796547,197.155670 37.856552,194.158371 39.976704,183.162872 
	C42.705273,183.162872 45.474228,183.162872 48.671383,183.162872 
	C48.814613,184.464722 48.965351,185.834824 49.101894,187.075897 
	C47.539478,187.329330 46.249233,187.538620 44.695488,188.071213 
z"/>
<path fill="#5F6062" opacity="1.000000" stroke="none" 
	d="
M164.881454,183.102386 
	C164.881454,187.373260 164.881454,191.644119 164.881454,196.015427 
	C161.824753,197.172516 160.413223,196.365677 160.487625,193.126312 
	C160.555878,190.154739 160.477432,187.179825 160.860214,183.687363 
	C162.465027,183.146362 163.673233,183.124374 164.881454,183.102386 
z"/>
<path fill="#B1B1B2" opacity="1.000000" stroke="none" 
	d="
M164.905670,182.744492 
	C163.673233,183.124374 162.465027,183.146362 160.907745,183.261078 
	C160.344971,181.851334 160.131241,180.348862 159.917496,178.846405 
	C160.429138,178.454498 160.940781,178.062592 161.452423,177.670670 
	C162.611572,179.242645 163.770737,180.814621 164.905670,182.744492 
z"/>
<path fill="#30A1DB" opacity="1.000000" stroke="none" 
	d="
M168.990692,133.006012 
	C169.164398,133.228806 169.362411,133.431412 169.560425,133.634003 
	C169.336990,133.568008 169.113541,133.502029 168.977051,133.191010 
	C169.063995,132.945969 169.014999,132.985840 168.990692,133.006012 
z"/>
<path fill="#FFFFFF" opacity="1.000000" stroke="none" 
	d="
M134.511993,80.604172 
	C137.376312,77.010872 140.486984,76.899384 142.986893,80.029297 
	C143.865250,81.129021 143.700287,84.419601 142.729980,85.304718 
	C141.432526,86.488266 138.377701,87.218147 137.016785,86.459023 
	C135.557480,85.645027 135.187607,82.877945 134.511993,80.604172 
z"/>
<path fill="#FFFFFF" opacity="1.000000" stroke="none" 
	d="
M98.870117,86.991638 
	C95.379272,87.101692 92.810471,85.807640 93.248032,82.625839 
	C93.481918,80.925110 95.854164,78.566170 97.549362,78.293243 
	C99.163101,78.033455 102.053658,79.680969 102.776932,81.236580 
	C104.064629,84.006134 102.417580,86.247887 98.870117,86.991638 
z"/>
<path fill="#FFFFFF" opacity="1.000000" stroke="none" 
	d="
M114.049675,83.724335 
	C113.855232,80.307953 114.773125,77.807724 118.206772,78.143990 
	C119.938095,78.313538 122.412788,79.562859 122.942444,80.941879 
	C123.493835,82.377480 122.669945,85.479317 121.452118,86.223175 
	C118.790283,87.849052 115.734894,87.663704 114.049675,83.724335 
z"/>
<path fill="#FFFFFF" opacity="1.000000" stroke="none" 
	d="
M134.895340,144.758423 
	C135.982880,146.634888 137.627411,149.582657 137.315369,149.806824 
	C135.226913,151.307129 132.721634,152.227264 129.772522,153.606491 
	C129.772522,149.979126 129.772522,147.253006 129.772522,143.935135 
	C131.447693,144.157791 132.997437,144.363785 134.895340,144.758423 
z"/>
</svg>
