<?xml version="1.0" encoding="UTF-8"?>
<!DOCTYPE svg PUBLIC "-//W3C//DTD SVG 1.1//EN" "http://www.w3.org/Graphics/SVG/1.1/DTD/svg11.dtd">
<svg xmlns="http://www.w3.org/2000/svg" version="1.1" width="266px" height="195px" style="shape-rendering:geometricPrecision; text-rendering:geometricPrecision; image-rendering:optimizeQuality; fill-rule:evenodd; clip-rule:evenodd" xmlns:xlink="http://www.w3.org/1999/xlink">
<g><path style="opacity:0.988" fill="#2fa1db" d="M 113.5,-0.5 C 144.167,-0.5 174.833,-0.5 205.5,-0.5C 209.093,1.25648 211.926,3.92315 214,7.5C 214.667,26.8333 214.667,46.1667 214,65.5C 212.332,69.1655 209.499,71.3322 205.5,72C 183.833,72.3333 162.167,72.6667 140.5,73C 131.416,78.6258 122.25,84.1258 113,89.5C 113.287,83.8456 114.454,78.3456 116.5,73C 110.3,72.1577 105.8,68.9911 103,63.5C 102.333,45.8333 102.333,28.1667 103,10.5C 105.161,5.47811 108.661,1.81145 113.5,-0.5 Z M 128.5,27.5 C 133.806,26.6408 137.14,28.8074 138.5,34C 135.219,41.5744 130.719,42.4077 125,36.5C 123.98,32.5532 125.147,29.5532 128.5,27.5 Z M 155.5,27.5 C 164.523,27.0616 167.189,30.8949 163.5,39C 155.246,42.0813 151.746,39.2479 153,30.5C 154.045,29.6266 154.878,28.6266 155.5,27.5 Z M 183.5,27.5 C 189.641,26.8159 192.808,29.4826 193,35.5C 188.667,42.1667 184.333,42.1667 180,35.5C 179.777,32.2754 180.943,29.6087 183.5,27.5 Z"/></g>
<g><path style="opacity:0.958" fill="#2fa1db" d="M 221.5,26.5 C 228.538,25.2081 233.038,27.8747 235,34.5C 235.667,50.5 235.667,66.5 235,82.5C 234.288,88.1166 231.122,91.4499 225.5,92.5C 226.313,96.0742 227.313,99.5742 228.5,103C 221.206,100.183 214.206,96.5168 207.5,92C 188.167,91.6667 168.833,91.3333 149.5,91C 143.096,88.7635 140.096,84.2635 140.5,77.5C 165.502,77.6666 190.502,77.5 215.5,77C 218.135,75.0395 219.969,72.5395 221,69.5C 221.5,55.1705 221.667,40.8372 221.5,26.5 Z"/></g>
<g><path style="opacity:0.948" fill="#5e5f61" d="M 116.5,100.5 C 123.625,100.284 130.625,101.117 137.5,103C 141.337,104.173 144.671,106.173 147.5,109C 144.679,113.814 141.179,117.98 137,121.5C 131.38,117.737 125.213,116.237 118.5,117C 118.043,117.414 117.709,117.914 117.5,118.5C 123.252,120.941 129.252,122.775 135.5,124C 147.535,128.239 151.368,136.406 147,148.5C 143.242,154.635 137.742,158.135 130.5,159C 121.596,160.078 112.929,159.078 104.5,156C 100.618,154.566 97.2846,152.4 94.5,149.5C 97.4644,145.035 100.964,141.035 105,137.5C 111.821,142.08 119.321,143.914 127.5,143C 127.957,142.586 128.291,142.086 128.5,141.5C 120.541,138.673 112.541,135.84 104.5,133C 96.5597,125.89 95.393,117.723 101,108.5C 105.361,104.071 110.528,101.404 116.5,100.5 Z"/></g>
<g><path style="opacity:0.943" fill="#5e5f61" d="M 153.5,101.5 C 165.553,101.109 177.553,101.609 189.5,103C 198.999,105.828 203.999,112.161 204.5,122C 204.432,132.397 199.432,139.064 189.5,142C 184.233,143.191 178.899,143.691 173.5,143.5C 173.5,148.5 173.5,153.5 173.5,158.5C 166.833,158.5 160.167,158.5 153.5,158.5C 153.5,139.5 153.5,120.5 153.5,101.5 Z M 173.5,117.5 C 176.649,117.211 179.649,117.711 182.5,119C 184.68,121.418 185.013,124.084 183.5,127C 180.321,128.461 176.988,129.295 173.5,129.5C 173.5,125.5 173.5,121.5 173.5,117.5 Z"/></g>
<g><path style="opacity:0.953" fill="#5e6061" d="M -0.5,102.5 C 6.17499,102.334 12.8417,102.5 19.5,103C 23.4586,109.083 27.2919,115.249 31,121.5C 34.7081,115.249 38.5414,109.083 42.5,103C 49.1583,102.5 55.825,102.334 62.5,102.5C 62.5,121.5 62.5,140.5 62.5,159.5C 56.1667,159.5 49.8333,159.5 43.5,159.5C 43.6664,150.827 43.4998,142.16 43,133.5C 39.0672,139.712 34.9006,145.712 30.5,151.5C 26.471,145.97 22.6376,140.303 19,134.5C 18.5003,142.827 18.3336,151.16 18.5,159.5C 12.1667,159.5 5.83333,159.5 -0.5,159.5C -0.5,140.5 -0.5,121.5 -0.5,102.5 Z"/></g>
<g><path style="opacity:0.962" fill="#5e6061" d="M 71.5,102.5 C 77.8333,102.5 84.1667,102.5 90.5,102.5C 90.5,121.5 90.5,140.5 90.5,159.5C 84.1667,159.5 77.8333,159.5 71.5,159.5C 71.5,140.5 71.5,121.5 71.5,102.5 Z"/></g>
<g><path style="opacity:0.784" fill="#5e6061" d="M 28.5,163.5 C 30.8333,163.5 33.1667,163.5 35.5,163.5C 35.3359,166.187 35.5026,168.854 36,171.5C 38.7372,170.39 41.5706,170.223 44.5,171C 45.1258,171.75 45.6258,172.584 46,173.5C 46.4993,178.489 46.6659,183.489 46.5,188.5C 44.5,188.5 42.5,188.5 40.5,188.5C 40.6655,184.486 40.4988,180.486 40,176.5C 38.2859,175.075 36.9525,175.408 36,177.5C 35.5014,181.152 35.3347,184.818 35.5,188.5C 33.1667,188.5 30.8333,188.5 28.5,188.5C 28.5,180.167 28.5,171.833 28.5,163.5 Z"/></g>
<g><path style="opacity:0.792" fill="#5e6061" d="M 156.5,163.5 C 158.792,163.244 160.959,163.577 163,164.5C 163.333,166.833 163.667,169.167 164,171.5C 167.366,170.005 170.532,170.338 173.5,172.5C 174.451,177.77 174.785,183.103 174.5,188.5C 172.5,188.5 170.5,188.5 168.5,188.5C 168.666,184.486 168.499,180.486 168,176.5C 166.667,175.167 165.333,175.167 164,176.5C 163.501,180.486 163.334,184.486 163.5,188.5C 161.167,188.5 158.833,188.5 156.5,188.5C 156.5,180.167 156.5,171.833 156.5,163.5 Z"/></g>
<g><path style="opacity:0.667" fill="#5e6061" d="M 215.5,163.5 C 217.5,163.5 219.5,163.5 221.5,163.5C 221.5,165.5 221.5,167.5 221.5,169.5C 219.5,169.5 217.5,169.5 215.5,169.5C 215.5,167.5 215.5,165.5 215.5,163.5 Z"/></g>
<g><path style="opacity:0.77" fill="#5e6061" d="M 5.5,164.5 C 12.8333,164.5 20.1667,164.5 27.5,164.5C 27.5,166.5 27.5,168.5 27.5,170.5C 24.8333,170.5 22.1667,170.5 19.5,170.5C 19.5,176.5 19.5,182.5 19.5,188.5C 17.1667,188.5 14.8333,188.5 12.5,188.5C 12.5,182.5 12.5,176.5 12.5,170.5C 10.1667,170.5 7.83333,170.5 5.5,170.5C 5.5,168.5 5.5,166.5 5.5,164.5 Z"/></g>
<g><path style="opacity:0.797" fill="#5e6061" d="M 138.5,164.5 C 142.881,164.372 147.215,164.705 151.5,165.5C 151.799,167.604 151.466,169.604 150.5,171.5C 148.427,170.531 146.261,169.865 144,169.5C 142.338,169.388 141.171,170.054 140.5,171.5C 143.28,173.117 146.28,174.284 149.5,175C 152.886,178.373 153.386,182.206 151,186.5C 146.391,188.51 141.558,189.01 136.5,188C 134.396,186.164 134.062,183.998 135.5,181.5C 138.612,183.184 141.946,183.85 145.5,183.5C 145.719,182.325 145.386,181.325 144.5,180.5C 141.194,179.455 138.027,178.122 135,176.5C 132.845,171.47 134.012,167.47 138.5,164.5 Z"/></g>
<g><path style="opacity:0.809" fill="#5e6061" d="M 109.5,165.5 C 111.5,165.5 113.5,165.5 115.5,165.5C 115.5,167.167 115.5,168.833 115.5,170.5C 117.5,170.5 119.5,170.5 121.5,170.5C 121.5,172.167 121.5,173.833 121.5,175.5C 119.5,175.5 117.5,175.5 115.5,175.5C 115.5,178.167 115.5,180.833 115.5,183.5C 117.167,183.5 118.833,183.5 120.5,183.5C 120.5,185.167 120.5,186.833 120.5,188.5C 110.154,190.143 106.488,185.809 109.5,175.5C 108.5,175.5 107.5,175.5 106.5,175.5C 106.5,173.833 106.5,172.167 106.5,170.5C 107.5,170.5 108.5,170.5 109.5,170.5C 109.5,168.833 109.5,167.167 109.5,165.5 Z"/></g>
<g><path style="opacity:0.844" fill="#5e6061" d="M 51.5,170.5 C 55.8333,171.833 60.1667,171.833 64.5,170.5C 64.6621,172.527 64.4955,174.527 64,176.5C 61.7328,175.065 59.7328,175.398 58,177.5C 57.5014,181.152 57.3347,184.818 57.5,188.5C 55.5,188.5 53.5,188.5 51.5,188.5C 51.5,182.5 51.5,176.5 51.5,170.5 Z"/></g>
<g><path style="opacity:0.817" fill="#5e6061" d="M 70.5,170.5 C 79.8629,168.491 84.5295,172.157 84.5,181.5C 80.4454,181.176 76.4454,181.509 72.5,182.5C 75.677,184.596 79.0104,184.596 82.5,182.5C 83.8932,184.674 83.5598,186.507 81.5,188C 77.0442,188.867 72.7109,188.534 68.5,187C 65.5715,183.743 64.7382,179.909 66,175.5C 67.025,173.313 68.525,171.646 70.5,170.5 Z M 73.5,174.5 C 75.3464,174.222 76.6798,174.889 77.5,176.5C 75.8333,177.833 74.1667,177.833 72.5,176.5C 72.8627,175.817 73.1961,175.15 73.5,174.5 Z"/></g>
<g><path style="opacity:0.787" fill="#5e6061" d="M 87.5,170.5 C 91.8461,170.334 96.1794,170.501 100.5,171C 101.416,171.374 102.25,171.874 103,172.5C 104.397,177.708 104.897,183.041 104.5,188.5C 100.357,187.983 96.3575,187.983 92.5,188.5C 86.8448,188.118 85.0115,185.118 87,179.5C 90.0746,177.229 93.5746,176.063 97.5,176C 94.319,174.158 91.1524,174.325 88,176.5C 87.5045,174.527 87.3379,172.527 87.5,170.5 Z M 95.5,180.5 C 98.0182,181.759 97.8515,183.093 95,184.5C 93.07,182.923 93.2367,181.59 95.5,180.5 Z"/></g>
<g><path style="opacity:0.799" fill="#5e6061" d="M 179.5,170.5 C 183.846,170.334 188.179,170.501 192.5,171C 193,171.5 193.5,172 194,172.5C 195.397,177.708 195.897,183.041 195.5,188.5C 191.588,187.863 187.755,187.863 184,188.5C 178.294,188.106 176.294,185.106 178,179.5C 181.075,177.229 184.575,176.063 188.5,176C 185.659,174.235 182.826,174.402 180,176.5C 178.2,174.635 178.034,172.635 179.5,170.5 Z M 186.5,180.5 C 189.776,180.882 189.776,182.215 186.5,184.5C 183.875,183.135 183.875,181.802 186.5,180.5 Z"/></g>
<g><path style="opacity:0.751" fill="#5e6061" d="M 199.5,170.5 C 204.267,171.365 208.933,171.365 213.5,170.5C 213.662,172.527 213.495,174.527 213,176.5C 210.733,175.065 208.733,175.398 207,177.5C 206.501,181.152 206.335,184.818 206.5,188.5C 204.167,188.5 201.833,188.5 199.5,188.5C 199.5,182.5 199.5,176.5 199.5,170.5 Z"/></g>
<g><path style="opacity:0.851" fill="#5e6061" d="M 215.5,170.5 C 217.5,170.5 219.5,170.5 221.5,170.5C 221.5,176.5 221.5,182.5 221.5,188.5C 219.5,188.5 217.5,188.5 215.5,188.5C 215.5,182.5 215.5,176.5 215.5,170.5 Z"/></g>
<g><path style="opacity:0.798" fill="#5e6061" d="M 225.5,170.5 C 230.734,171.185 236.067,171.352 241.5,171C 242.126,171.75 242.626,172.584 243,173.5C 243.499,178.489 243.666,183.489 243.5,188.5C 241.5,188.5 239.5,188.5 237.5,188.5C 237.666,184.486 237.499,180.486 237,176.5C 235.667,175.167 234.333,175.167 233,176.5C 232.501,180.486 232.334,184.486 232.5,188.5C 230.167,188.5 227.833,188.5 225.5,188.5C 225.5,182.5 225.5,176.5 225.5,170.5 Z"/></g>
<g><path style="opacity:0.824" fill="#5e6061" d="M 265.5,170.5 C 265.5,177.167 265.5,183.833 265.5,190.5C 264.5,192.167 263.167,193.5 261.5,194.5C 257.167,194.5 252.833,194.5 248.5,194.5C 248.5,192.833 248.5,191.167 248.5,189.5C 250.696,189.59 252.863,189.923 255,190.5C 256.971,190.532 258.471,189.698 259.5,188C 247.793,188.798 244.293,183.632 249,172.5C 250.473,170.993 252.307,170.326 254.5,170.5C 258.028,171.102 261.695,171.102 265.5,170.5 Z M 254.5,175.5 C 258.648,175.453 260.148,177.453 259,181.5C 257.333,184.167 255.667,184.167 254,181.5C 253.322,179.402 253.489,177.402 254.5,175.5 Z"/></g>
</svg>
