<svg version="1.2" xmlns="http://www.w3.org/2000/svg" viewBox="0 0 196 144" width="196" height="144"><style>.a{fill:#5f6062}.b{fill:#2fa1db}</style><path fill-rule="evenodd" class="a" d="m0 77h15l3.8 6.5c2 3.5 4 6.5 4.4 6.5 0.5 0 2.4-2.9 7.8-13h15v41h-13v-9c0-5.3-0.4-9-1-9-0.6 0-2.7 2.7-4.8 6-2 3.3-3.9 5.9-4.2 5.9-0.3 0-2.3-2.7-4.5-6-2.2-3.3-4.3-6-4.8-5.9-0.4 0-0.7 4-0.7 18h-13zm187.8 49c0.9 0 2.3 0.5 3 1.2 1 1 1.2 1 1.2 0 0-0.6 0.9-1.2 2-1.2 1.8 0 2 0.7 2 7.5 0 5.3-0.4 7.9-1.5 9-1 1-3 1.4-5.8 1.2-2.9-0.1-4.2-0.7-4.2-1.6q0-1.5 3.4-1.5c1.9-0.1 3.6-0.6 3.7-1.1 0.2-0.6-1-0.8-2.9-0.6-2.3 0.2-3.6-0.2-4.5-1.5-0.7-1.1-1.3-3-1.3-4.4-0.1-1.4 0.6-3.6 1.6-4.8 0.9-1.2 2.4-2.2 3.3-2.2zm0 7.2c0.2 2 0.7 2.7 1.9 2.5 1-0.1 1.9-1.1 2.1-2.2 0.2-1.1-0.3-2.6-1.1-3.2-0.8-0.7-1.8-1-2.2-0.6-0.5 0.3-0.8 1.9-0.7 3.5z"/><path fill-rule="evenodd" class="b" d="m117.7 0c22.6 0 34 0.4 35.5 1.1 1.3 0.6 3.1 2.1 4 3.3 1.5 1.8 1.8 4.7 1.7 23.1 0 14.9-0.3 21.5-1.2 22.7-0.7 0.9-2.4 2.1-4 2.7-1.6 0.7-11.6 1.1-26 1.2-20.9 0-23.5 0.2-26.2 1.9-1.7 1-4.1 2.5-5.5 3.3-1.4 0.8-4.4 2.5-6.8 3.8-2.3 1.3-4.5 2.2-4.8 1.9-0.2-0.3-0.1-2.9 0.3-5.8 0.4-2.9 0.6-5.5 0.3-5.8-0.3-0.2-1.2-0.5-2-0.5-0.8 0-2.6-0.9-6.5-4.1l0.3-21.2c0.2-18.3 0.5-21.5 2-23.2 0.9-1.1 2.6-2.5 3.7-3.2 1.4-0.8 11.9-1.1 35.2-1.2zm-25.8 25.6c0.1 0.8 0.8 2.1 1.6 2.9 0.8 0.8 2.5 1.5 3.8 1.5 1.3 0 2.8-0.6 3.5-1.3 0.7-0.6 1.2-2.1 1.2-3.2 0-1.1-0.5-2.6-1.2-3.3-0.7-0.7-2.3-1.2-3.5-1.2-1.2 0-2.9 0.7-3.8 1.6-0.9 0.8-1.6 2.2-1.6 3zm21.3 0.3c0.2 1.3 1 2.8 1.8 3.4 0.8 0.5 2.7 0.7 4.2 0.3 2.4-0.5 2.8-1.1 2.8-4.1 0-2.2-0.5-3.7-1.5-4-0.8-0.3-2.3-0.5-3.4-0.5-1 0-2.4 0.6-3 1.2-0.6 0.7-1 2.4-0.9 3.7zm19.7-0.3c0.1 0.8 0.8 2.1 1.6 2.9 0.8 0.8 2.4 1.5 3.4 1.5 1.1 0 2.7-0.7 3.5-1.5 0.9-0.8 1.6-2.2 1.6-3 0-0.8-0.7-2.2-1.5-3-0.8-0.8-2.4-1.5-3.4-1.5-1.1 0-2.7 0.7-3.6 1.6-0.9 0.8-1.6 2.2-1.6 3zm-86.2 60.4c0.2 5.8 0.2 15.4 0 21.5-0.1 6-0.3 1.3-0.3-10.5 0-11.8 0.2-16.8 0.3-11zm-14 18c0.2 2.5 0.2 6.7 0 9.5-0.2 2.7-0.3 0.7-0.3-4.5 0-5.2 0.1-7.5 0.3-5zm156.7 35.3c1.3 0.1 2.2 0.5 2 0.9-0.2 0.5-1.3 0.6-2.4 0.3-1.1-0.3-2-0.7-2-1 0-0.3 1.1-0.4 2.4-0.2z"/><path fill-rule="evenodd" class="a" d="m92 75.3c5.1 0.2 9 1 17 4.7l-1.8 2.8c-0.9 1.6-2.5 3.9-5.1 7.7l-4.3-2.3c-2.4-1.3-5.6-2.1-7.2-2-1.6 0.2-3.1 0.9-3.3 1.6-0.2 0.7 1.4 1.6 3.9 2.2 2.4 0.5 6.5 1.7 9.3 2.6 2.7 1 5.8 2.6 6.7 3.8 0.9 1.2 2 3.2 2.3 4.6 0.4 1.4 0.3 4.1-0.1 6-0.4 1.9-2.1 4.8-3.8 6.3-1.7 1.5-4.9 3.3-7.1 3.9-2.3 0.6-6.9 0.7-11 0.4-4.8-0.5-8.5-1.5-11.8-3.4-2.6-1.5-4.7-3.2-4.7-3.7 0-0.6 1.5-2.6 6.5-8.3l4 1.8c2.2 1.1 6.1 1.9 8.7 2 3.1 0 4.7-0.4 4.5-1.1-0.1-0.6-2.7-1.8-5.7-2.6-3-0.7-7.4-2.3-9.8-3.3-3.3-1.6-4.5-2.9-5.8-6.3-1.4-3.8-1.4-4.5 0-8 0.9-2 2.2-4.3 2.8-5.1 0.7-0.7 2.9-2.1 4.8-2.9 2.4-1.2 5.8-1.6 11-1.4zm30.9-0.3c4.2 0 10.5 0.5 14.1 1.1 5.3 1 7.1 1.8 9.7 4.5 1.8 1.9 3.6 4.9 3.9 6.6 0.3 1.8 0.3 4.9 0 6.8-0.4 1.9-1.7 4.7-2.9 6.2-1.3 1.6-4.3 3.4-7.2 4.3-2.8 0.8-6.7 1.5-12.5 1.5v11h-14l-0.2-20.3c-0.1-11.2 0.2-20.7 0.7-21 0.5-0.4 4.2-0.7 8.4-0.7zm7.1 21c1.1 0 2.9-0.5 4-1q2-1 2-4c0-1.8-0.6-3.2-1.5-3.5-0.8-0.3-2.6-0.5-4-0.5-2.3 0-2.5 0.4-2.5 4.5 0 3.8 0.3 4.5 2 4.5zm-77-19h14v41h-14zm-40.5 45c6.8 0 7.5 0.2 7.5 2 0 1.5-0.7 2-2.5 2-2.4 0-2.5 0.2-2.5 6.5 0 6.3-0.1 6.5-2.5 6.5-2.4 0-2.5-0.2-2.5-6.5 0-6.3-0.1-6.5-2.5-6.5-1.8 0-2.5-0.5-2.5-2 0-1.8 0.7-2 7.5-2zm11.5 0c1.5 0 2 0.7 2 2.5 0 2.2 0.3 2.4 2.7 1.9 2-0.4 3.3 0 4.6 1.3 1.2 1.2 1.8 3.3 1.7 6.5 0 4.4-0.2 4.8-2.5 4.8-2.3 0-2.5-0.4-2.5-4.5 0-3.3-0.4-4.5-1.5-4.5-0.8 0-1.7 0.7-2 1.5-0.3 0.8-0.5 2.8-0.5 4.5 0 2.3-0.4 3-2 3-1.8 0-2-0.7-2-8.5 0-7.8 0.2-8.5 2-8.5zm81.7 0c1.8 0 4 0.2 4.8 0.5 0.8 0.3 1.5 1.2 1.5 2 0 1.1-0.8 1.4-3.5 1-1.9-0.3-4.1-0.1-4.8 0.4-0.9 0.7-0.4 1.3 1.8 2.1 1.6 0.7 3.7 1.6 4.5 2 0.8 0.4 1.9 1.5 2.5 2.3 0.7 1.1 0.6 2.4-0.3 4.1-1.1 2.3-1.8 2.6-6.7 2.6-4.8 0-5.5-0.2-5.5-2 0-1.8 0.4-1.9 4-1.3 3.2 0.7 4 0.5 4-0.7 0-0.9-1.6-2-4-2.8-3.5-1.1-4-1.6-4.2-4.5-0.1-1.8 0.4-3.8 1.2-4.5 0.8-0.7 2.9-1.2 4.7-1.2zm12.3 0c1.6 0 2 0.7 2 3 0 2.7 0.2 2.9 1.9 1.7 1.6-0.9 2.5-0.9 4.5 0 2.3 1.1 2.6 1.9 2.6 6.8 0 4.8-0.2 5.5-2 5.5-1.7 0-2-0.7-2-4.5 0-3.8-0.3-4.5-2-4.5-1.1 0-2.2 0.7-2.5 1.5-0.3 0.8-0.5 2.8-0.5 4.5 0 2.3-0.4 3-2 3-1.8 0-2-0.7-2-8.5 0-7.8 0.2-8.5 2-8.5zm44.1 0c1.1 0 1.9 0.7 1.9 1.5 0 0.8-0.6 1.5-1.3 1.5-0.9 0-0.9 0.2 0.1 1.2 0.7 0.8 1.2 3.7 1.2 7 0 5.1-0.2 5.8-2 5.8-1.9 0-2-0.6-1.9-8.5 0.1-7.6 0.3-8.5 2-8.5zm-79.1 1c1.1 0 2 0.7 2 1.5 0 0.8 0.9 1.5 2 1.5q2 0 2 2 0 2-2 2c-1.6 0-2 0.7-2 3 0 2.3 0.4 3 2 3 1.1 0 2 0.7 2 1.5 0 1-1 1.5-2.8 1.5-1.5 0-3.3-0.5-4-1.2-0.7-0.7-1.2-2.5-1.2-4.1 0-1.5-0.6-3.7-1.3-4.8-1-1.7-1-2.2 0-2.5 0.7-0.2 1.3-1.1 1.3-1.9 0-0.8 0.9-1.5 2-1.5zm-44.3 3.3l4.5-0.1c3.7 0 4.5 0.3 4.6 1.9 0.1 1.3-0.5 2-2.1 2.1-1.8 0.3-2.2 1-2.5 4.5-0.2 3.5-0.6 4.3-2.2 4.3-1.8 0-2-0.7-2.2-6.3zm16.8-0.4c1.1 0 3 0.8 4.2 1.7 1.2 1 2.4 2.9 2.8 4.1 0.5 2.1 0.2 2.2-3.9 2.2-2.5 0-4.5 0.5-4.5 1 0 0.6 0.3 1.2 0.7 1.5 0.4 0.3 2.2 0 4-0.5 2.9-0.9 3.3-0.7 3.3 1 0 1.7-0.7 2-4.5 2-2.5 0-5.4-0.4-6.5-1-1.4-0.6-2.1-2.1-2.2-4.4-0.1-2.6 0.5-4 2.2-5.5 1.3-1.1 3.3-2.1 4.4-2.1zm0.1 5c0.8 0 1.5-0.4 1.5-1 0-0.5-0.5-1-1-1-0.5 0-1.2 0.5-1.5 1-0.3 0.6 0.1 1 1 1zm15-4.8c1.6-0.1 3.7 0.5 4.7 1.1 1.2 0.9 1.7 2.7 1.8 11.7l-5.7-0.2c-4.2-0.2-5.9-0.7-6.7-2.1-0.9-1.5-0.7-2.1 1.4-3.8 1.3-1.1 3.5-1.9 4.7-1.9 1.5 0 2-0.4 1.5-1.1-0.5-0.7-2-0.9-4-0.5-2.4 0.5-3.3 0.3-3.4-0.8-0.2-0.8 0.4-1.6 1.2-1.9 0.8-0.3 2.8-0.5 4.5-0.5zm0 9.8c0.8 0 1.6-0.4 1.7-1 0.2-0.5-0.2-1-0.9-1-0.7 0-1.5 0.5-1.8 1-0.3 0.6 0.1 1 1 1zm67.1-10c2 0 4.2 0.8 5.4 2 1.4 1.4 2 3.4 2 11h-6c-5 0-6.2-0.3-7-2-0.8-1.5-0.6-2.4 1-4 1.1-1.1 3.1-2 4.5-2 1.6 0 2.2-0.3 1.7-1.1-0.4-0.6-2-0.9-3.5-0.7-1.5 0.2-2.8-0.1-2.9-0.7-0.1-0.6 0.2-1.4 0.7-1.8 0.4-0.4 2.3-0.7 4.1-0.7zm0.4 10c0.5 0 1.1-0.4 1.2-1 0.2-0.5-0.2-1-1-1-0.7 0-1.2 0.5-1.2 1 0 0.6 0.4 1 1 1zm12-10c1.1 0 1.9 0.6 1.9 1.3 0 1 0.3 1 1.2 0 0.7-0.7 2.1-1.3 3.1-1.3 1.1 0 1.8 0.8 1.8 2q0 2-2 2c-1.1 0-2.5 0.9-3 2-0.6 1.1-1 3.2-1 4.5 0 1.9-0.6 2.5-2 2.5-1.8 0-2-0.6-2-6.5 0-5.8 0.2-6.5 2-6.5zm19 0c1.1 0 2.1 0.6 2.3 1.3 0.3 1 0.7 1 1.7 0 0.8-0.7 2.2-1.3 3.2-1.3 0.9 0 2.2 0.9 2.8 2 0.5 1.1 1 4.1 1 6.5 0 3.9-0.3 4.5-2 4.5-1.7 0-2-0.6-2-4.5 0-3.8-0.3-4.5-2-4.5-1.3 0-2.2 0.9-2.5 2.3-0.3 1.2-0.5 3.3-0.5 4.5 0 1.6-0.6 2.2-2 2.2-1.8 0-2-0.6-2-6.5 0-5.8 0.2-6.5 2-6.5z"/><path class="b" d="m164.2 35.9c-0.2 15.6-0.3 16.2-2.7 19.1l-2.5 3c-54.3 0-55 0-55 2 0 1.1 1.1 3.2 2.4 4.7l2.4 2.8 44.7 1c12.8 7.1 13.6 7.3 14.1 5.7 0.4-0.9 0.4-2.6 0.1-3.7-0.4-1.5 0.3-2.5 2.6-4l3.2-2c0.5-35 0.2-40.4-0.7-41.8-0.7-0.9-2.9-2-4.9-2.4l-3.6-0.6zm-75.3 38.9c1.2 0.2 3 0.2 4 0 0.9-0.3-0.1-0.5-2.3-0.5-2.2 0-3 0.2-1.7 0.5zm0.7 12c1.1 0.2 2.6 0.2 3.5 0 0.8-0.3-0.1-0.5-2-0.5-2 0-2.6 0.2-1.5 0.5zm27.5 31c1.9 0.2 5.3 0.2 7.5 0 2.2-0.2 0.6-0.4-3.5-0.4-4.2 0-6 0.2-4 0.4zm41.9 12.5l0.1 9.8c5-0.3 5.1-0.4 3.2-0.7-2.1-0.3-2.2-0.8-2.2-9.1 0-4.8-0.2-9-0.5-9.2-0.3-0.3-0.6 3.9-0.6 9.2zm-154.8-6.2c0 1.3 0.2 1.8 0.5 1 0.3-0.9 0.3-2 0-2.5-0.3-0.6-0.5 0.1-0.5 1.5zm22 0.5c0.1 1.9 0.3 2.2 0.5 1 0.3-1.1 0.3-2.5 0-3-0.3-0.6-0.5 0.3-0.5 2zm56.6-1.9c1.2 0.3 2.4 1 2.6 1.7 0.2 0.6 0.3 0.5 0.2-0.3 0-0.9-1.1-1.6-2.6-1.7-2.1-0.1-2.2-0.1-0.2 0.3zm-73.3 9.9c0.1 6.9 0.1 7 2.8 7 2.3 0 2.4-0.1 0.3-0.3-2.4-0.2-2.6-0.6-2.9-7l-0.3-6.7zm28.8 0.2l-0.2 7.3c5-0.3 5.1-0.4 3.2-0.7-2-0.3-2.3-1-2.5-7.1l-0.3-6.7zm109.2-0.3c0.1 7 0.1 7 2.8 7 2.4 0 2.4 0 0.3-0.2-2.4-0.3-2.5-0.7-2.9-7l-0.3-6.8zm-70.4 2c0 3.9-0.3 4.6-2.3 4.9-1.8 0.3-1.7 0.4 0.5 0.5 2.7 0.1 2.8-0.1 2.8-4.9 0-2.7-0.2-5-0.5-5-0.3 0-0.5 2-0.5 4.5zm8.2-1.5c0 1.9 0.2 2.8 0.5 2 0.2-0.8 0.2-2.4 0-3.5-0.3-1.1-0.5-0.4-0.5 1.5zm-59.2 2.5c0 2.9-0.4 3.6-2.3 3.9-1.8 0.3-1.7 0.4 0.5 0.5 2.6 0.1 2.8-0.2 2.8-3.9 0-2.2-0.2-4-0.5-4-0.3 0-0.5 1.6-0.5 3.5zm28-1.1c0.3 0.3 2.1 0.6 4.2 0.8 2 0.2 4 0 4.4-0.4 0.4-0.4-1.5-0.8-4.2-0.8-2.7 0-4.7 0.2-4.4 0.4zm-22.9 5.3c1 0.3 2.3 0.2 3 0 0.8-0.3 0-0.5-1.6-0.5-1.7 0-2.3 0.3-1.4 0.5zm22.4 0c1.1 0.3 3.1 0.3 4.5 0 1.4-0.2 0.5-0.4-2-0.4-2.5 0-3.6 0.2-2.5 0.4zm14 0c1.1 0.3 2.7 0.3 3.5 0 0.8-0.2-0.1-0.4-2-0.4-1.9 0-2.6 0.2-1.5 0.4zm17 0c1.1 0.3 2.7 0.3 3.5 0 0.8-0.2-0.1-0.4-2-0.4-1.9 0-2.6 0.2-1.5 0.4zm19 0c1.1 0.3 3.1 0.3 4.5 0 1.4-0.2 0.5-0.4-2-0.4-2.5 0-3.6 0.2-2.5 0.4zm13.2-0.1c0.7 0.2 1.9 0.2 2.5 0 0.7-0.2 0.2-0.4-1.2-0.4-1.4 0-1.9 0.2-1.3 0.4zm9 0c0.7 0.2 1.9 0.2 2.5 0 0.7-0.2 0.2-0.4-1.2-0.4-1.4 0-1.9 0.2-1.3 0.4zm8.8 0.1c1.1 0.3 2.7 0.3 3.5 0 0.8-0.2-0.1-0.4-2-0.4-1.9 0-2.6 0.2-1.5 0.4zm6.6 0c1 0.3 2.3 0.2 3 0 0.8-0.3 0-0.5-1.6-0.5-1.7 0-2.3 0.3-1.4 0.5zm27 0c1 0.3 2.3 0.2 3 0 0.8-0.3 0-0.5-1.6-0.5-1.7 0-2.3 0.3-1.4 0.5zm8.6-0.1c0.7 0.2 1.9 0.2 2.5 0 0.7-0.2 0.2-0.4-1.2-0.4-1.4 0-1.9 0.2-1.3 0.4zm-41-47.1c-0.4 2.1-0.3 2.7 0.4 2 0.6-0.5 0.9-1.9 0.7-3-0.3-1.5-0.6-1.3-1.1 1zm-80.2 38.5c-1.7 0.8-1.8 0.9-0.3 0.9 1 0.1 2-0.3 2.3-0.9 0.2-0.5 0.3-0.9 0.2-0.9-0.1 0-1.1 0.4-2.2 0.9zm81.5 5.5q1 1 2 0 1-1.1-1-1c-1.2 0-1.6 0.4-1 1z"/></svg>