<svg width="75" height="75" viewBox="0 0 75 75" fill="none" xmlns="http://www.w3.org/2000/svg" id="aef977eb-f554-4777-9ddf-93657f70dcd8">
<rect width="75" height="75" rx="37.5" fill="#130F18"/>
<path fill-rule="evenodd" clip-rule="evenodd" d="M71.8008 22.3449C69.3604 17.4187 65.6646 13.3129 60.7088 10.0462C51.5201 3.9879 39.3768 2.7954 29.0585 6.52622C19.9569 9.81663 13.6519 15.8591 10.1069 24.5403C7.399 31.1715 8.09442 39.1736 13.8127 44.0115C14.5327 44.6202 15.2736 45.1527 16.0373 45.604C17.8448 50.4019 21.2381 54.4264 25.5806 57.0448C12.4561 57.7135 -0.637211 50.1315 0.0240362 32.8603C2.31736 14.3387 18.1631 0 37.3697 0C52.7405 0 65.9588 9.18371 71.8008 22.3449ZM59.5805 42.4115C59.8905 42.5877 60.1896 42.8048 60.4763 43.0652C64.5205 46.3115 64.6405 53.1719 61.5996 57.0577C46.9393 75.7939 19.706 73.968 3.07027 52.9477C8.97733 65.9522 22.1131 74.9997 37.3697 74.9997C58.0963 74.9997 74.9092 58.301 75 37.6678C74.4492 28.4786 63.9309 26.7241 57.728 27.5757C59.2371 30.6074 60.0859 34.0232 60.0859 37.6369C60.0859 39.2749 59.9113 40.8719 59.5805 42.4115Z" fill="url(#e02660e3-c481-48fe-bfce-0f041bc9de8c)"/>
<path fill-rule="evenodd" clip-rule="evenodd" d="M25.5806 57.0448C29.0114 59.1131 33.0364 60.3047 37.3389 60.3047C48.263 60.3047 57.3884 52.6314 59.583 42.3981C54.9059 39.7702 47.7988 46.226 44.3672 49.343C44.1701 49.5222 43.9851 49.6901 43.8135 49.8451C38.9247 54.2484 32.2464 56.7106 25.5806 57.0448ZM16.0294 45.5839C18.9319 47.3105 22.1606 47.8664 25.7781 46.9989C31.4647 45.6356 36.1143 41.5793 40.7801 37.5093C45.8693 33.0698 50.9776 28.6135 57.4709 27.6173C57.5563 27.604 57.6409 27.5878 57.728 27.5757C55.623 23.3462 52.2343 19.869 48.0668 17.6436C43.1955 24.976 34.8518 32.2964 34.8518 32.2964C34.8518 32.2964 20.751 43.6951 14.8148 34.4531C14.6681 35.4935 14.5923 36.5564 14.5923 37.6372C14.5923 40.4331 15.1002 43.111 16.0294 45.5839ZM37.3389 14.9694C37.4476 14.9694 37.5564 14.9703 37.6647 14.9719C32.6318 22.8823 23.3231 35.0268 16.0177 29.7214C19.2402 21.1056 27.5706 14.9694 37.3389 14.9694Z" fill="url(#6a25ed74-a420-4093-a329-77121e3465df)"/>
<defs>
<linearGradient id="e02660e3-c481-48fe-bfce-0f041bc9de8c" x1="22.3206" y1="-5.3429" x2="50.1568" y2="79.4643" gradientUnits="userSpaceOnUse">
<stop offset="0.108991" stop-color="#49E44E"/>
<stop offset="0.273616" stop-color="#207466"/>
<stop offset="0.561283" stop-color="#000909"/>
<stop offset="0.930406" stop-color="#1C88B8"/>
</linearGradient>
<linearGradient id="6a25ed74-a420-4093-a329-77121e3465df" x1="37.0897" y1="29.9069" x2="37.0897" y2="56.1855" gradientUnits="userSpaceOnUse">
<stop stop-color="white"/>
<stop offset="0.56002" stop-color="#5ACBDA"/>
<stop offset="1" stop-color="white"/>
</linearGradient>
</defs>
</svg>
