<?xml version="1.0" encoding="utf-8" standalone="no"?><!-- Generator: Adobe Illustrator 21.1.0, SVG Export Plug-In . SVG Version: 6.00 Build 0)  --><svg xmlns="http://www.w3.org/2000/svg" xmlns:xlink="http://www.w3.org/1999/xlink" height="125px" style="enable-background:new 0 0 314 125;" version="1.1" viewBox="0 0 314 125" width="314px" x="0px" xml:space="preserve" y="0px">
<style type="text/css">
	.st0{fill:none;}
	.st1{fill:#154273;}
	.st2{fill:#FFFFFF;}
	.st3{fill:#1D1D1B;}
</style>
<g id="Laag_1">
	<g>
		<rect class="st0" height="125" width="314"/>
		<rect class="st1" height="100" width="50"/>
	</g>
	<path class="st2" d="M25.9,77.36h-0.87v-2.41h0.87V77.36z M29.83,66.72h-0.87v-2.41h0.87V66.72z M13.71,62.56   c-0.07,0-0.52,0-0.52,0.09c0,0.09,0.21,0.05,0.52,0.1c0.7,0.12,0.97,0.47,1.46,0.47c0.44,0,0.9-0.3,0.72-0.94   c-0.03-0.11-0.09-0.08-0.11-0.01c-0.07,0.29-0.42,0.45-0.79,0.45C14.53,62.72,14.44,62.56,13.71,62.56z M8.92,64.97   c0.08,0.11,0.9,1.17-0.36,1.58c-0.06,0.02-0.07,0.07,0.01,0.11c0.93,0.39,1.38-0.33,1.38-0.33C10.42,67.41,9.7,68,9.7,68   c0.1,0.19,0.55,0.52,1.22,0.67c0.26-0.14,0.62-0.4,0.77-0.8c0,0,0.18,0.47,0.02,0.92c1.9,0.17,2.57-1.35,4.04-1.07   c0.04,0.01,0.06-0.02,0.06-0.06c0-0.94-0.57-2.65-2.39-3c-1.81-0.35-1.32-1.09-1.32-1.09c0.76-0.03,1.2,0.3,1.2,0.3   c0.14-0.23-0.06-0.47-0.06-0.47c0.07-0.09,0.11-0.4,0.11-0.4c-0.86,0-1.08-0.19-1.08-0.19c-0.13-0.51,0.22-1.23,1.5-0.46   c0.32-0.28,0.29-0.72,0.29-0.72c0.1-0.05,0.16-0.2,0.16-0.26c0-0.21-1.02-0.78-1.28-0.85c-0.06-0.31-0.46-0.75-1.66-0.59   c-0.57,0.07-0.98-0.08-0.79-0.41c0.03-0.06-0.07-0.07-0.12-0.01c-0.13,0.13-0.31,0.5,0.18,0.75c0.55,0.28,0.58,0.83,0.59,0.91   c0.01,0.12-0.13,0.13-0.16,0.01c-0.25-0.93-1.53-1.13-2.28-0.64c0.04,0.5,0.58,0.83,0.87,0.83c0.17,0,0.4-0.17,0.4-0.4   c0-0.11,0.06-0.1,0.09-0.01c0.12,0.33-0.37,1.02-1.09,0.6c-0.74,0.74-0.44,1.66-0.37,1.99c0.13,0.6-0.16,1.19-0.71,0.92   c-0.03-0.01-0.06-0.02-0.06,0.04C7.84,64.87,8.33,65.3,8.92,64.97z M13,61.24c-0.35,0.39-0.91,0.3-1.05-0.34   C12.67,60.86,12.97,60.93,13,61.24z M35.07,62.72c-0.37,0-0.72-0.16-0.79-0.45c-0.02-0.07-0.08-0.1-0.11,0.01   c-0.18,0.64,0.28,0.94,0.72,0.94c0.49,0,0.76-0.35,1.46-0.47c0.31-0.05,0.52,0,0.52-0.1c0-0.09-0.45-0.09-0.52-0.09   C35.63,62.56,35.53,62.72,35.07,62.72z M42.23,64.49c0-0.06-0.03-0.05-0.06-0.04c-0.55,0.27-0.84-0.31-0.71-0.92   c0.07-0.34,0.37-1.25-0.37-1.99c-0.73,0.42-1.22-0.27-1.09-0.6c0.03-0.09,0.09-0.1,0.09,0.01c0,0.23,0.23,0.4,0.4,0.4   c0.29,0,0.83-0.33,0.87-0.83c-0.75-0.49-2.03-0.29-2.28,0.64c-0.03,0.12-0.17,0.11-0.16-0.01c0-0.08,0.04-0.63,0.59-0.91   c0.5-0.25,0.32-0.62,0.18-0.75c-0.05-0.05-0.16-0.04-0.12,0.01c0.19,0.33-0.22,0.48-0.78,0.41c-1.2-0.16-1.59,0.29-1.66,0.59   c-0.26,0.07-1.28,0.64-1.28,0.85c0,0.06,0.06,0.22,0.16,0.26c0,0-0.02,0.43,0.29,0.72c1.27-0.77,1.63-0.05,1.5,0.46   c0,0-0.23,0.18-1.09,0.19c0,0,0.04,0.31,0.11,0.4c0,0-0.2,0.25-0.06,0.47c0,0,0.44-0.33,1.2-0.3c0,0,0.49,0.74-1.32,1.09   c-1.81,0.35-2.39,2.06-2.39,3c0,0.05,0.02,0.07,0.06,0.06c1.47-0.27,2.14,1.25,4.04,1.07c-0.17-0.45,0.02-0.92,0.02-0.92   c0.15,0.4,0.51,0.67,0.77,0.8c0.68-0.15,1.12-0.47,1.22-0.67c0,0-0.72-0.59-0.25-1.67c0,0,0.45,0.72,1.38,0.33   c0.08-0.04,0.06-0.09,0.01-0.11c-1.26-0.41-0.44-1.47-0.36-1.58C41.73,65.3,42.23,64.87,42.23,64.49z M38.11,60.9   c-0.14,0.64-0.7,0.73-1.05,0.34C37.09,60.93,37.4,60.86,38.11,60.9z M24.7,50.21c0,0.16,0.07,0.3,0.12,0.38   c0.11,0.16,0.09,0.25,0.04,0.3c-0.05,0.05-0.14,0.07-0.3-0.04c-0.08-0.06-0.22-0.12-0.38-0.12c-0.27,0-0.41,0.18-0.41,0.33   c0,0.15,0.14,0.33,0.41,0.33c0.16,0,0.3-0.07,0.38-0.12c0.16-0.11,0.25-0.09,0.3-0.04c0.05,0.05-0.02,0.6-0.09,1.04   c-0.45,0.1-0.67,0.46-0.67,0.67c0,0.55,0.58,0.86,0.93,1.05c0.34-0.18,0.93-0.5,0.93-1.05c0-0.21-0.22-0.58-0.67-0.67   c-0.06-0.43-0.14-0.99-0.09-1.04c0.05-0.05,0.14-0.07,0.3,0.04c0.08,0.06,0.22,0.12,0.38,0.12c0.27,0,0.41-0.18,0.41-0.33   c0-0.15-0.14-0.33-0.41-0.33c-0.16,0-0.3,0.07-0.38,0.12c-0.16,0.11-0.25,0.09-0.3,0.04c-0.05-0.05-0.07-0.14,0.04-0.3   c0.06-0.08,0.12-0.22,0.12-0.38c0-0.27-0.18-0.41-0.33-0.41C24.88,49.8,24.7,49.94,24.7,50.21z M25.03,54.27   c-0.37,0-0.67,0.3-0.67,0.67c0,0.37,0.3,0.67,0.67,0.67c0.37,0,0.67-0.3,0.67-0.67C25.7,54.57,25.4,54.27,25.03,54.27z    M25.03,60.68c2.67,0,4.17,0.51,4.17,0.51c0.01-1.35,0.01-2.1,0.78-1.99c-0.42-1.13,1.4-1.58,1.4-3.05c0-0.97-0.69-1.08-0.89-1.08   c-0.6,0-0.51,0.39-1.02,0.39c-0.06,0-0.13-0.02-0.13,0.03c0,0.17,0.14,0.46,0.38,0.46c0.32,0,0.32-0.32,0.56-0.32   c0.1,0,0.25,0.08,0.25,0.41c0,0.63-0.41,1.32-0.9,1.86c-0.11-0.15-0.26-0.25-0.45-0.25c-0.29,0-0.54,0.3-0.54,0.67   c0,0.14,0.02,0.24,0.07,0.35c-0.16,0.09-0.31,0.14-0.41,0.14c-0.22,0-0.55-0.09-0.55-0.57c0-1.07,1.43-2.01,1.43-3.37   c0-0.65-0.43-1.29-1.34-1.29c-0.97,0-0.79,0.88-1.63,0.88c-0.04,0-0.07,0.01-0.07,0.05c0,0.06,0.15,0.55,0.58,0.55   c0.46,0,0.59-0.8,1.01-0.8c0.15,0,0.38,0.09,0.38,0.63c0,0.42-0.21,1.11-0.51,1.76c-0.11-0.11-0.26-0.19-0.42-0.19   c-0.36,0-0.62,0.35-0.62,0.76c0,0.26,0.1,0.52,0.28,0.68c-0.21,0.27-0.43,0.49-0.72,0.49c-0.58,0-0.83-0.33-0.83-0.69   c0-0.39,0.71-0.53,0.71-1.13c0-0.41-0.27-0.64-0.52-0.64c-0.28,0-0.42,0.18-0.45,0.18c-0.03,0-0.17-0.18-0.45-0.18   c-0.26,0-0.52,0.23-0.52,0.64c0,0.6,0.71,0.75,0.71,1.13c0,0.36-0.26,0.69-0.83,0.69c-0.29,0-0.51-0.22-0.72-0.49   c0.18-0.17,0.28-0.42,0.28-0.68c0-0.42-0.26-0.76-0.62-0.76c-0.17,0-0.31,0.08-0.42,0.19c-0.3-0.66-0.51-1.34-0.51-1.76   c0-0.54,0.23-0.63,0.38-0.63c0.41,0,0.54,0.8,1.01,0.8c0.43,0,0.58-0.49,0.58-0.55c0-0.03-0.03-0.05-0.07-0.05   c-0.84,0-0.66-0.88-1.63-0.88c-0.9,0-1.34,0.64-1.34,1.29c0,1.36,1.43,2.3,1.43,3.37c0,0.48-0.33,0.57-0.55,0.57   c-0.11,0-0.25-0.05-0.41-0.14c0.05-0.12,0.07-0.21,0.07-0.35c0-0.37-0.25-0.67-0.54-0.67c-0.18,0-0.33,0.1-0.44,0.25   c-0.49-0.54-0.9-1.23-0.9-1.86c0-0.32,0.15-0.41,0.25-0.41c0.23,0,0.24,0.32,0.56,0.32c0.24,0,0.38-0.29,0.38-0.46   c0-0.05-0.07-0.03-0.13-0.03c-0.51,0-0.42-0.39-1.02-0.39c-0.2,0-0.89,0.11-0.89,1.08c0,1.48,1.82,1.92,1.4,3.05   c0.77-0.11,0.76,0.64,0.78,1.99C20.86,61.19,22.36,60.68,25.03,60.68z M20.14,62.67c-0.73,0.16-1.25,0.31-1.48,0.38   c0.01-0.32,0.13-0.62,0.42-0.68c0.04-0.01,0.05-0.06,0.01-0.08c-0.65-0.43-0.99,0.39-1,0.42c-0.23-0.02-0.58,0.05-0.58,0.36   c0,0.93-2.12,1.44-2.61,1.52c0.87,0.33,1.23,1.43,1.23,1.43c0.63-0.63,1.36-1.18,1.53-1.18c0.17,0,0.23,0.21,0.24,0.33   c0,0.04,0.04,0.05,0.07,0.02c0.33-0.49,0.17-0.6,0.14-0.75c-0.02-0.11,0.01-0.54,0.49-0.49v6.19l-0.25,0.05   c-0.11,0.02-1.02-0.75-2.05-1.47c-1.04-0.72-1.59-0.29-2.77,0.35c-1.55,0.84-3.11,0.08-3.11,0.08c-1.33,0.95-1.79,3.71-1.79,3.71   c-0.27,0.11-0.71,0.23-1.12,0.23c-1.02,0-1.2-0.62-1.2-0.98c0-1.57,1.97-2.24,1.97-3.79c0-0.38-0.17-1.9-2.06-1.9   c-0.24,0-1.68,0-1.69,0c-0.71,0-0.88-0.51-0.98-0.7c-0.04-0.08-0.11-0.03-0.08,0.03c0.05,0.13-0.08,0.33-0.08,0.72   c0,0.63,0.37,1.01,1.06,1.01c0.31,0,0.61-0.09,0.7-0.15c0.06-0.04,0.1,0.02,0.07,0.06c-0.3,0.35-0.32,1.01-0.2,1.16   c0.03,0.04,0.07,0.03,0.07,0c0.17-0.66,0.79-1.29,1.63-1.29c1.03,0,1.02,0.87,1.02,1.08c0,1.26-2.21,2.18-2.21,3.92   c0,1.76,1.86,2.13,2.93,1.86c-0.06,1.76-2.08,2.36-2.14,1.1c0-0.06-0.05-0.07-0.08,0.01c-0.25,0.62-0.15,1.17,0.63,1.34   c0.05,0.01,0.03,0.04-0.02,0.08c-0.78,0.49-0.36,2.43-0.32,3c0.06,0.82-0.76,0.72-0.83,0.7c-0.03-0.01-0.07,0-0.01,0.07   c0.58,0.71,1.3,0.06,1.3,0.06c0.54,0.17,0.21,0.63-0.16,0.87c-0.06,0.04-0.05,0.08,0.01,0.08c0.08,0.01,0.92,0.08,1.07-0.59   c0.37,0.44,0.92,0.28,1.03,0.22c0.16-0.08,0.95-0.37,1.02,0.51c0,0.06,0.04,0.02,0.07-0.01c0.59-0.75-0.04-1.21-0.4-1.26   c0.03-0.04,0.5-0.44,0.93,0.11c0.03,0.04,0.06,0.05,0.06-0.03c0.05-0.95-0.72-1.03-1.22-0.62c-0.02-0.1-0.19-0.63,0.56-0.61   c0.02,0,0.05-0.03,0.02-0.06c-0.58-0.62-1.06-0.06-1.18,0.08c-0.26,0.31-0.91,0.18-0.97,0.18c0.2-3.29,3.1-2.12,3.5-3.72   c0.02-0.08,0.06-0.05,0.06-0.02c0.11,0.39,1.09,0.44,1.27-0.32c0.01-0.05,0-0.08-0.03-0.05c-0.84,0.84-2.73-1.78-0.15-3.91   c2.2-1.81,4.17-0.8,4.92-0.21c0.04,0.26-0.12,0.35-0.22,0.38c-0.04,0.01-0.05,0.04,0.01,0.07c0.21,0.08,0.5,0.05,0.64-0.14   c0.47,0.33,0.07,0.75-0.12,0.86c-0.05,0.03-0.03,0.06,0.01,0.07c0.43,0.08,0.79-0.36,0.81-0.62l0.07,0.04v1.87   c0,2.66,3.07,3.03,6.44,5.28c3.37-2.26,6.43-2.62,6.43-5.28v-1.87l0.07-0.04c0.02,0.25,0.37,0.7,0.81,0.62   c0.04-0.01,0.06-0.04,0.01-0.07c-0.19-0.12-0.6-0.53-0.12-0.86c0.14,0.2,0.43,0.22,0.64,0.14c0.06-0.02,0.05-0.06,0.01-0.07   c-0.1-0.03-0.26-0.12-0.22-0.38c0.75-0.6,2.72-1.61,4.92,0.21c2.58,2.13,0.69,4.74-0.15,3.91c-0.04-0.04-0.04,0-0.03,0.05   c0.18,0.77,1.16,0.71,1.27,0.32c0.01-0.03,0.05-0.06,0.06,0.02c0.4,1.6,3.29,0.43,3.5,3.72c-0.06,0.01-0.71,0.13-0.97-0.18   c-0.11-0.13-0.59-0.7-1.18-0.08c-0.04,0.04,0,0.06,0.02,0.06c0.75-0.02,0.59,0.51,0.56,0.61c-0.5-0.41-1.27-0.33-1.22,0.62   c0,0.07,0.03,0.07,0.06,0.03c0.43-0.55,0.9-0.15,0.93-0.11c-0.35,0.05-0.99,0.51-0.4,1.26c0.03,0.03,0.06,0.07,0.07,0.01   c0.08-0.88,0.86-0.6,1.02-0.51c0.11,0.06,0.66,0.22,1.03-0.22c0.15,0.67,0.99,0.6,1.07,0.59c0.06,0,0.06-0.04,0.01-0.08   c-0.36-0.24-0.7-0.7-0.16-0.87c0,0,0.72,0.65,1.3-0.06c0.05-0.06,0.02-0.08-0.01-0.07c-0.07,0.02-0.89,0.12-0.83-0.7   c0.04-0.57,0.46-2.51-0.32-3c-0.05-0.03-0.07-0.06-0.02-0.08c0.78-0.17,0.88-0.72,0.63-1.34c-0.03-0.08-0.08-0.06-0.08-0.01   c-0.06,1.26-2.07,0.66-2.14-1.1c1.08,0.28,2.93-0.1,2.93-1.86c0-1.73-2.21-2.66-2.21-3.92c0-0.21-0.01-1.08,1.02-1.08   c0.84,0,1.46,0.63,1.63,1.29c0.01,0.03,0.04,0.04,0.07,0c0.12-0.16,0.1-0.81-0.2-1.16c-0.03-0.03,0-0.1,0.07-0.06   c0.09,0.06,0.39,0.15,0.7,0.15c0.69,0,1.06-0.38,1.06-1.01c0-0.39-0.14-0.59-0.08-0.72c0.03-0.06-0.05-0.1-0.08-0.03   c-0.1,0.2-0.28,0.7-0.98,0.7c-0.01,0-1.45,0-1.69,0c-1.89,0-2.06,1.53-2.06,1.9c0,1.55,1.97,2.22,1.97,3.79   c0,0.37-0.19,0.98-1.2,0.98c-0.42,0-0.86-0.12-1.12-0.23c0,0-0.45-2.75-1.79-3.71c0,0-1.56,0.76-3.11-0.08   c-1.18-0.64-1.74-1.07-2.78-0.35c-1.04,0.72-1.94,1.49-2.05,1.47l-0.25-0.05v-6.19c0.48-0.05,0.51,0.38,0.49,0.49   c-0.03,0.14-0.18,0.26,0.14,0.75c0.03,0.04,0.06,0.02,0.07-0.02c0.01-0.12,0.08-0.33,0.24-0.33c0.16,0,0.9,0.55,1.53,1.18   c0,0,0.36-1.09,1.23-1.43c-0.49-0.08-2.61-0.59-2.61-1.52c0-0.31-0.35-0.38-0.58-0.36c-0.01-0.03-0.36-0.85-1-0.42   c-0.03,0.02-0.03,0.07,0.01,0.08c0.29,0.07,0.41,0.36,0.42,0.68c-0.62-0.19-3.25-0.93-6.37-0.93c-1.52,0-2.91,0.18-4.02,0.38v2.14   h-0.87V62.67L20.14,62.67 M14.38,84.65C14.15,84.56,14,84.41,14,84.1v-1.33c-0.38-0.13-1.42-0.53-3.51-0.53   c-1.73,0-2.27,0.39-2.3,0.53L7.73,85.3c0,0,0.7-0.64,3.21-0.48c3.02,0.19,6.15,1.98,6.15,0.07v-1.12   C14.73,83.78,14.38,84.54,14.38,84.65z M32.97,83.78v1.12c0,1.9,3.13,0.12,6.15-0.07c2.51-0.16,3.21,0.48,3.21,0.48l-0.46-2.54   c-0.02-0.14-0.57-0.53-2.3-0.53c-2.08,0-3.12,0.4-3.51,0.53v1.33c0,0.3-0.15,0.45-0.38,0.55C35.69,84.54,35.34,83.78,32.97,83.78z    M25.03,82.63c4.87,0,9.81,0.25,10.45,0.99c0.05,0.06,0.07,0,0.07-0.05l0-2.58c0-0.75-5.1-1.19-10.53-1.19   c-5.43,0-10.53,0.44-10.53,1.19l0,2.58c0,0.04,0.02,0.1,0.07,0.05C15.23,82.89,20.17,82.63,25.03,82.63z M20.69,70.47l-0.49-0.13   l-0.04,0.06l-0.57-0.25c0,0,0.42,0,0.51,0c0.05,0,0.05-0.03,0.03-0.05c-0.23-0.23-0.44-0.43-0.44-0.43s0.23,0.09,0.56,0.21   c0.04,0.01,0.05-0.01,0.03-0.04c-0.16-0.23-0.38-0.55-0.38-0.55s0.46,0.31,0.55,0.37c0.03,0.02,0.05,0,0.04-0.03   c-0.12-0.3-0.26-0.65-0.26-0.65l0.5,0.48c0.02,0.02,0.05,0.01,0.04-0.02c-0.05-0.23-0.14-0.65-0.14-0.65l0.37,0.54   c0.02,0.03,0.05,0.02,0.05-0.01c0-0.11,0.01-0.59,0.01-0.59s0.16,0.36,0.23,0.54c0.02,0.04,0.04,0.04,0.06-0.01   c0.02-0.06,0.19-0.46,0.19-0.46l0.02,0.62l-0.08,0.02l-0.1,0.74c0.73-0.17,1.65-1.43,2.35-1.43c0.84,0,1.14,0.98,2.68,0.48   c0.39,0.58,0.53,1.08,0.68,1.77c0.6,0.56,1.43,0.37,1.43-0.22c0-0.8-0.87-0.95-0.87-1.79c0-0.37,0.26-0.91,0.97-0.91   c0.38,0,0.93,0.16,1.25,0.16c0.38,0,0.46-0.27,0.5-0.39c0.03-0.08,0.14-0.06,0.13,0.01c-0.01,0.08,0.04,0.19,0.04,0.37   c0,0.53-0.77,0.6-0.86,0.53c-0.04-0.03-0.07,0.01-0.04,0.04c0.12,0.09,0.09,0.41-0.05,0.61c-0.02,0.02-0.04,0.02-0.04,0   c-0.08-0.38-0.53-0.85-0.92-0.85c-0.14,0-0.43,0.08-0.43,0.42c0,0.47,0.95,0.91,0.95,1.89c0,1.02-1.01,1.27-2.03,1.01   c0.03,0.97,1.48,1.54,1.51,0.85c0-0.05,0.03-0.02,0.04,0c0.21,0.3,0.12,0.52-0.16,0.64c0.25,0.11,0.3,0.62,0.37,0.93   c0.11,0.46,0.59,0.2,0.62,0.19c0.03-0.02,0.04,0,0.02,0.03c-0.18,0.47-0.67,0.29-0.67,0.29c-0.25,0.18,0.05,0.34,0.28,0.41   c0.03,0.01,0.03,0.03,0.01,0.05c-0.17,0.06-0.53,0.18-0.71-0.13c-0.13,0.32-0.4,0.31-0.5,0.31c-0.19,0-0.31,0.19-0.27,0.45   c0,0.02-0.01,0.03-0.03,0.02c-0.44-0.29-0.19-0.64-0.01-0.73c-0.03-0.02-0.34-0.15-0.47,0.21c-0.01,0.03-0.03,0.03-0.04,0   c-0.19-0.52,0.23-0.67,0.53-0.54c-0.02-0.07-0.18-0.33-0.58-0.24c-0.02,0.01-0.03,0-0.02-0.03c0.07-0.16,0.26-0.39,0.63-0.16   c0.19,0.12,0.51-0.05,0.54-0.07c-0.65-1.29-1.9-0.21-2.19-1.22c-0.01-0.02-0.03-0.04-0.05,0.02c-0.07,0.21-0.62,0.23-0.72-0.19   c-0.01-0.03,0-0.04,0.03-0.02c0.08,0.08,0.25,0.15,0.48-0.17c0.15-0.22,0.17-0.51,0.17-0.7c0-0.78-0.78-2.1-2-2.1   c-0.77,0-1.6,0.3-2.22,0.75l0.57,0.13c-0.05,0.58-0.61,0.92-1.12,0.77l0.09-0.66c-0.09,0.03-0.31,0.11-0.43,0.28   c-0.01,0.01-0.03,0.01-0.03-0.01c-0.1-0.38,0.21-0.57,0.3-0.61c0.01-0.01,0.01-0.01-0.01-0.01c-0.28-0.01-0.43,0.19-0.48,0.26   c-0.01,0.01-0.02,0.01-0.02,0C20.61,70.8,20.56,70.61,20.69,70.47z M22.4,74.95c-0.22,0.27-0.41,0.01-0.7,0.01   c-0.27,0-0.32,0.23-0.32,0.32c0,0.02-0.01,0.02-0.02,0.01c-0.31-0.42,0.04-0.65,0.24-0.68c-0.03-0.03-0.33-0.23-0.52,0.05   c-0.01,0.02-0.03,0.01-0.03-0.01c-0.01-0.52,0.4-0.56,0.68-0.33c0.05-0.2-0.08-0.33-0.3-0.34c-0.03,0-0.03-0.02-0.02-0.03   c0.09-0.1,0.18-0.14,0.27-0.14c0.29,0,0.33,0.37,0.52,0.37c0.28,0,0.69-0.38,0.72-0.42c-0.01-0.02-0.28-0.76-0.23-1.2   c0-0.02-0.01-0.02-0.02-0.01c-0.14,0.08-0.48,0.07-0.48-0.35c0-0.03,0.01-0.04,0.03-0.01c0.15,0.21,0.4-0.03,0.52-0.17   c0.13-0.15,0.85-1.19,1.8-1.19c0.21,0,0.48,0.12,0.7,0.27c-0.33,0.4,0,0.78,0.24,0.73c0.03-0.01,0.03,0.02,0.01,0.03   c-1.26,0.47-1.82,0.66-1.82,1.72c0,0.55,0.19,0.86,0.51,0.78c0.02-0.01,0.03,0,0.01,0.02c-0.12,0.14-0.25,0.19-0.36,0.19   c-0.26,0-0.31-0.14-0.45-0.14c-0.14,0-0.61,0.28-0.61,0.51c0,0.09,0.06,0.21,0.22,0.31c0.01,0.01,0,0.02,0,0.02   C22.85,75.27,22.48,75.3,22.4,74.95z M25.71,64.7c-0.39-0.02-0.65,0.06-0.63,0.19C25.27,65.09,25.52,65.07,25.71,64.7z    M24.26,65.67c0.28-0.07,0.58-0.04,0.62-0.03c0.04,0.01,0.04,0.08-0.01,0.09c-0.58,0.07-0.61,0.34-0.98,0.34   c-0.24,0-0.51-0.25-0.41-0.61c0.01-0.05,0.05-0.05,0.06,0C23.58,65.62,23.81,65.79,24.26,65.67z M16.73,78.53   c0.38,0.49,0.75,0.03,1.26,0.03c0.25,0,0.55,0.08,0.6,0.58c0,0.03,0.02,0.03,0.05,0c0.55-0.75-0.08-1.17-0.44-1.23   c0.08-0.07,0.61-0.4,0.96,0.09c0.02,0.03,0.06,0.02,0.06-0.02c0-0.95-0.71-1.02-1.23-0.61c-0.1-0.37,0.18-0.61,0.54-0.61   c0.04,0,0.06-0.03,0.04-0.05c-0.64-0.68-1.11,0.18-1.22,0.31c-0.25,0.34-1.16-0.3-1.53-0.68c0,0,0.8-0.84,0.8-1.61   c0-0.05-0.01-0.11-0.01-0.14c0-0.02,0.01-0.03,0.03-0.02c0.08,0.05,0.19,0.08,0.3,0.08c0.18,0,0.53-0.06,0.53-0.71   c0-0.05-0.02-0.05-0.04-0.02c-0.1,0.14-0.2,0.17-0.28,0.17c-0.65,0-2-2.16-3.6-2.16c-0.42,0-1.21,0.3-1.6,0.73   c0.19,0.11,0.23,0.35,0.21,0.52c-0.03,0.27-0.25,0.41-0.47,0.47c-0.04,0.01-0.04,0.04,0,0.06c0.81,0.31,2.27,0.86,2.61,1.15   c0.39,0.34,0.32,0.98,0.09,1.87c-0.22,0.85-0.69,0.74-0.87,0.71c-0.03,0-0.03,0.01-0.02,0.03c0.21,0.26,0.46,0.35,0.68,0.35   c0.42,0,0.58-0.26,0.79-0.26c0.36,0,1.13,0.52,1.13,0.92c0,0.22-0.17,0.43-0.4,0.57c-0.01,0.01-0.01,0.03,0.01,0.03   C15.88,79.11,16.59,79.17,16.73,78.53z M34.36,79.08c0.02,0,0.03-0.02,0.01-0.03c-0.22-0.15-0.4-0.35-0.4-0.57   c0-0.4,0.76-0.92,1.13-0.92c0.22,0,0.37,0.26,0.79,0.26c0.22,0,0.47-0.09,0.68-0.35c0.02-0.02,0.01-0.04-0.02-0.03   c-0.17,0.03-0.65,0.14-0.87-0.71c-0.23-0.89-0.31-1.53,0.09-1.87c0.33-0.29,1.8-0.84,2.61-1.15c0.04-0.02,0.04-0.05,0-0.06   c-0.22-0.06-0.44-0.2-0.47-0.47c-0.02-0.17,0.02-0.4,0.21-0.52c-0.4-0.43-1.19-0.73-1.61-0.73c-1.6,0-2.95,2.16-3.6,2.16   c-0.08,0-0.19-0.03-0.28-0.17c-0.02-0.03-0.04-0.03-0.04,0.02c0,0.65,0.35,0.71,0.53,0.71c0.1,0,0.22-0.03,0.3-0.08   c0.02-0.01,0.03,0,0.03,0.02c0,0.03-0.01,0.09-0.01,0.14c0,0.77,0.8,1.61,0.8,1.61c-0.36,0.38-1.27,1.01-1.53,0.68   c-0.11-0.14-0.58-0.99-1.22-0.31c-0.02,0.03-0.01,0.05,0.04,0.05c0.36,0,0.64,0.24,0.54,0.61c-0.52-0.41-1.23-0.34-1.23,0.61   c0,0.04,0.04,0.05,0.06,0.02c0.34-0.49,0.88-0.16,0.95-0.09c-0.36,0.05-0.98,0.48-0.44,1.23c0.02,0.03,0.04,0.03,0.05,0   c0.06-0.49,0.36-0.58,0.6-0.58c0.5,0,0.87,0.46,1.26-0.03C33.48,79.17,34.19,79.11,34.36,79.08z M21.45,66.61   c-0.05,0.07-0.22,0-0.28-0.03c-0.01-0.01-0.02,0-0.01,0.01c0.04,0.09,0.2,0.36,0.44,0.36c0.11,0,0.27-0.06,0.31-0.14   c0,0,0.94,0.31,1.4,0.43c-0.18,0.24-0.29,0.53-0.32,0.84c-0.37-0.23-1.87-1.03-1.87-1.03l-0.46,0.64c-0.08,0.1-0.45-0.17-0.37-0.27   l0.35-0.49c-0.12-0.12-0.4-0.05-0.48-0.02c-0.01,0-0.02,0-0.01-0.02c0.05-0.1,0.22-0.39,0.66-0.26c0-0.27-0.4-0.18-0.51-0.15   c-0.01,0-0.02,0-0.01-0.01c0.11-0.12,0.44-0.38,0.8-0.16l0.16-0.22l-0.32-0.34l0.2-0.28l0.23,0.3l1.73-2.37   c0.04-0.06,0.39-0.16,0.51-0.19c0.01,0.13,0.03,0.49-0.01,0.55l-1.7,2.39l0.36,0.12l-0.2,0.28l-0.42-0.2L21.45,66.61z M27.52,66.22   c0,0.22,0.13,0.54,0.42,0.44c0.01-0.01,0.03,0,0.02,0.01c-0.04,0.24-0.48,0.46-0.67,0.18c-0.18,0.37-0.13,0.72,0.24,0.92   c0.02,0.01,0.02,0.04,0,0.06c-0.23,0.16-0.58,0.13-0.74-0.19c-0.31,0.23-0.27,0.73-0.08,0.9c0,0-0.86,0.51-1.64,0.15   c-0.52-0.25-0.94-0.57-1.61-0.51c0.09-0.94,0.56-1.18,1.42-1.32c0.69-0.11,0.77-0.43,0.68-0.67c-0.23-0.06-0.66,0.15-0.66,0.15   c-0.08-0.13,0.03-0.26,0.03-0.26c-0.04-0.05-0.06-0.22-0.06-0.22c0.48,0,0.57-0.11,0.57-0.11c0.09-0.5-0.42-0.55-0.81-0.28   c-0.18-0.16-0.15-0.37-0.15-0.37c-0.05-0.03-0.09-0.11-0.09-0.15c0-0.12,0.57-0.44,0.72-0.48c0.04-0.17,0.24-0.4,0.85-0.34   c0.07-0.16-0.05-0.75-0.12-0.9c-0.02-0.05,0.01-0.07,0.06-0.04c0.21,0.13,0.42,0.63,0.57,0.64c0,0,0.68-0.36,0.71-0.34   c0.03,0.02,0.13,0.78,0.13,0.78c0.09,0.11,0.62,0,0.85,0.1c0.06,0.03,0.06,0.07,0,0.08c-0.17,0.03-0.72,0.27-0.81,0.42   C27.67,65.34,27.52,66.03,27.52,66.22z"/>
</g>
<g id="Isolatiemodus">
	<g>
		<path d="M61.88,64.46c0.68-0.19,0.9-0.53,0.9-1.36v-7.46l-0.98-0.26v-0.45c0.59-0.08,1.21-0.11,1.71-0.11h0.57l4.31,7.08    l0.03-0.02V55.6l-0.99-0.25v-0.33c0.51-0.16,1.02-0.26,1.55-0.26c0.62,0,0.9,0.05,1.3,0.17v0.28c-0.68,0.22-0.88,0.5-0.88,1.46    v8.12l-0.73,0.17l-4.9-8.08l-0.02,0.02v7.16l0.95,0.25v0.34c-0.45,0.17-0.9,0.26-1.41,0.26c-0.62,0-1.04-0.05-1.41-0.16V64.46z"/>
		<path d="M75.3,60.74v-0.42c0-1.67-0.4-2.03-1.38-2.03c-0.85,0-1.67,0.36-2.33,1.01c-0.03-0.15-0.05-0.29-0.05-0.47    c0-0.99,0.73-1.57,2.54-1.57c1.57,0,2.5,0.79,2.5,2.08c0,0.34-0.05,1.12-0.06,1.57l-0.05,2.51c0.11,0.28,0.34,0.57,0.62,0.79    c-0.23,0.28-0.65,0.59-1.05,0.79c-0.29-0.19-0.53-0.43-0.71-0.76c-0.43,0.42-1.27,0.74-2.09,0.74c-1.16,0-1.97-0.73-1.97-1.72    C71.27,61.91,72.76,60.74,75.3,60.74z M73.81,64.06c0.48,0,1.1-0.19,1.49-0.42v-2.17c-1.75,0-2.7,0.73-2.7,1.57    C72.6,63.66,73.02,64.06,73.81,64.06z"/>
		<path d="M79.19,60.53l0.05-2.06h-0.85v-0.51l1.67-1.66l0.51-0.06l-0.06,1.4h2.05l-0.11,0.84h-1.98l-0.03,1.95    c-0.02,0.65-0.02,1.24-0.02,1.81c0,1.26,0.37,1.69,0.95,1.69c0.45,0,0.84-0.16,1.15-0.4l0.16,0.06c-0.06,0.91-0.6,1.38-1.67,1.38    c-1.24,0-1.84-0.65-1.84-2.16C79.14,62.06,79.17,61.24,79.19,60.53z"/>
		<path d="M83.42,64.5c0.42-0.15,0.82-0.46,0.82-0.84v-5.24L83.25,58v-0.33c0.7-0.2,1.41-0.29,1.85-0.29h0.5l-0.08,0.84v5.89    l0.87,0.23v0.29c-0.53,0.19-1.01,0.26-1.8,0.26c-0.36,0-0.81-0.03-1.16-0.14V64.5z M84.07,55.07c0-0.48,0.34-0.91,0.88-0.91    c0.43,0,0.81,0.33,0.81,0.84c0,0.54-0.37,0.96-0.87,0.96C84.43,55.95,84.07,55.58,84.07,55.07z"/>
		<path d="M91.26,57.26c1.91,0,3.38,1.43,3.38,3.58c0,2.56-1.78,4.17-3.63,4.17c-1.88,0-3.4-1.32-3.4-3.58    C87.62,58.88,89.36,57.26,91.26,57.26z M91.11,64.11c1.04,0,2.12-1.01,2.12-3.13c0-1.81-0.98-2.82-2.08-2.82    c-1.07,0-2.12,1.07-2.12,3.12C89.03,63.15,90.01,64.11,91.11,64.11z"/>
		<path d="M96.08,64.5c0.4-0.15,0.82-0.46,0.82-0.84v-5.24L95.9,58v-0.34c0.71-0.2,1.41-0.28,1.86-0.28h0.37v0.84    c0.53-0.53,1.39-0.87,2.29-0.87c1.29,0,2.17,0.82,2.17,2.42v4.34l0.81,0.23v0.29c-0.42,0.17-0.96,0.26-1.63,0.26    c-0.33,0-0.7-0.03-1.01-0.14V64.5c0.39-0.17,0.56-0.46,0.56-1.02v-2.96c0-1.52-0.64-2.09-1.55-2.09c-0.63,0-1.26,0.22-1.6,0.48    v5.21l0.87,0.23v0.29c-0.53,0.19-1.02,0.26-1.8,0.26c-0.37,0-0.81-0.03-1.16-0.14V64.5z"/>
		<path d="M108.52,60.74v-0.42c0-1.67-0.4-2.03-1.38-2.03c-0.85,0-1.67,0.36-2.33,1.01c-0.03-0.15-0.05-0.29-0.05-0.47    c0-0.99,0.73-1.57,2.54-1.57c1.57,0,2.5,0.79,2.5,2.08c0,0.34-0.05,1.12-0.06,1.57l-0.05,2.51c0.11,0.28,0.34,0.57,0.62,0.79    c-0.23,0.28-0.65,0.59-1.05,0.79c-0.29-0.19-0.53-0.43-0.71-0.76c-0.43,0.42-1.27,0.74-2.09,0.74c-1.16,0-1.97-0.73-1.97-1.72    C104.49,61.91,105.97,60.74,108.52,60.74z M107.03,64.06c0.48,0,1.1-0.19,1.49-0.42v-2.17c-1.75,0-2.7,0.73-2.7,1.57    C105.82,63.66,106.24,64.06,107.03,64.06z"/>
		<path d="M115.55,60.74v-0.42c0-1.67-0.4-2.03-1.38-2.03c-0.85,0-1.67,0.36-2.33,1.01c-0.03-0.15-0.05-0.29-0.05-0.47    c0-0.99,0.73-1.57,2.54-1.57c1.57,0,2.5,0.79,2.5,2.08c0,0.34-0.05,1.12-0.06,1.57l-0.05,2.51c0.11,0.28,0.34,0.57,0.62,0.79    c-0.23,0.28-0.65,0.59-1.05,0.79c-0.29-0.19-0.53-0.43-0.71-0.76c-0.43,0.42-1.27,0.74-2.09,0.74c-1.16,0-1.97-0.73-1.97-1.72    C111.52,61.91,113.01,60.74,115.55,60.74z M114.06,64.06c0.48,0,1.1-0.19,1.49-0.42v-2.17c-1.75,0-2.7,0.73-2.7,1.57    C112.86,63.66,113.27,64.06,114.06,64.06z"/>
		<path d="M118.78,64.5c0.4-0.15,0.82-0.46,0.82-0.84v-8.99l-1.01-0.42v-0.34c0.7-0.2,1.43-0.28,1.86-0.28h0.5l-0.08,0.87v9.61    l0.87,0.23v0.29c-0.53,0.19-1.02,0.26-1.8,0.26c-0.37,0-0.81-0.03-1.16-0.14V64.5z"/>
		<path d="M130.76,54.73c1.05,0,1.75,0.14,2.29,0.42l-0.13,2.15h-0.42l-0.06-0.28c-0.25-0.96-0.7-1.35-1.81-1.35    c-1.54,0-3.02,1.55-3.02,4.25c0,2.87,1.44,4.14,2.88,4.14c1.15,0,1.72-0.37,2.05-1.19l0.15-0.37h0.42l-0.16,2.05    c-0.57,0.29-1.52,0.48-2.7,0.48c-2.25,0-4.17-1.67-4.17-4.9C126.09,56.87,128.31,54.73,130.76,54.73z"/>
		<path d="M136.65,64.29l-2.45-6.09l-0.59-0.45v-0.37h2.85v0.37l-0.84,0.37l1.64,4.73h0.02l1.47-4.68l-0.87-0.42v-0.37h2.33v0.37    l-0.39,0.34l-2.19,6.05c-1.22,3.41-2.45,4.42-3.24,4.42c-0.62,0-0.95-0.28-0.95-1.21c0.22,0.05,0.43,0.06,0.7,0.06    c0.65,0,1.6-0.74,2.23-2.42L136.65,64.29z"/>
		<path d="M141.64,63.18v-8.51l-1.02-0.42v-0.34c0.71-0.2,1.36-0.28,1.86-0.28H143l-0.09,0.87V58c0.48-0.42,1.22-0.71,1.95-0.71    c1.57,0,2.81,1.16,2.81,3.27c0,2.88-1.88,4.37-3.97,4.37c-0.71,0-1.6-0.11-2.22-0.23C141.56,64.23,141.64,63.63,141.64,63.18z     M143.71,64.06c1.44,0,2.62-0.95,2.62-3.21c0-1.63-0.91-2.53-1.97-2.53c-0.6,0-1.07,0.14-1.47,0.37v5.24    C143.16,64.01,143.42,64.06,143.71,64.06z"/>
		<path d="M152.18,57.27c1.67,0,2.68,1.12,2.68,2.9c0,0.29,0,0.6-0.01,0.99h-4.57c0,1.74,1.01,2.74,2.29,2.74    c0.76,0,1.6-0.26,2.19-0.67c0.03,0.08,0.06,0.25,0.06,0.4c0,0.7-1.02,1.35-2.67,1.35c-1.77,0-3.21-1.38-3.21-3.55    C148.94,58.74,150.57,57.27,152.18,57.27z M153.62,60.36c0-1.52-0.65-2.25-1.57-2.25c-0.85,0-1.75,1.02-1.75,2.25H153.62z"/>
		<path d="M156.19,64.5c0.4-0.15,0.82-0.46,0.82-0.84v-5.24L156.01,58v-0.34c0.71-0.2,1.41-0.28,1.86-0.28h0.37v1.08h0.02l0.43-0.48    c0.42-0.45,0.84-0.68,1.36-0.68c0.54,0,0.81,0.23,0.81,0.67c0,0.29-0.09,0.64-0.25,0.93c-0.29-0.23-0.63-0.36-0.96-0.36    c-0.48,0-0.93,0.22-1.36,0.64v4.93l1.07,0.23v0.29c-0.53,0.19-1.04,0.26-1.92,0.26c-0.45,0-0.88-0.03-1.24-0.14V64.5z"/>
		<path d="M164.44,62.39h0.45l0.11,0.39c0.23,0.85,0.73,1.22,1.91,1.22c1.15,0,2.03-0.67,2.03-1.61c0-0.6-0.4-1.18-1.35-1.74    l-1.47-0.87c-0.95-0.56-1.41-1.33-1.41-2.36c0-1.53,1.43-2.71,3.24-2.71c0.95,0,1.55,0.11,2.17,0.36l-0.14,2.19h-0.45l-0.06-0.31    c-0.2-0.95-0.64-1.26-1.67-1.26c-1.12,0-1.83,0.7-1.83,1.46c0,0.64,0.33,1.13,1.15,1.57l1.54,0.84c1.08,0.57,1.63,1.4,1.63,2.39    c0,1.63-1.58,3.02-3.44,3.02c-0.98,0-1.72-0.09-2.39-0.33V62.39z"/>
		<path d="M174.81,57.27c1.67,0,2.68,1.12,2.68,2.9c0,0.29,0,0.6-0.02,0.99h-4.57c0,1.74,1.01,2.74,2.29,2.74    c0.76,0,1.6-0.26,2.19-0.67c0.03,0.08,0.06,0.25,0.06,0.4c0,0.7-1.02,1.35-2.67,1.35c-1.77,0-3.21-1.38-3.21-3.55    C171.57,58.74,173.2,57.27,174.81,57.27z M176.25,60.36c0-1.52-0.65-2.25-1.57-2.25c-0.85,0-1.75,1.02-1.75,2.25H176.25z"/>
		<path d="M182.33,57.29c1.26,0,1.67,0.4,1.67,0.91c0,0.29-0.08,0.56-0.19,0.81c-0.59-0.47-1.15-0.71-1.8-0.71    c-1.07,0-1.98,1.05-1.98,2.85c0,1.85,0.98,2.78,2.19,2.78c0.6,0,1.29-0.26,1.77-0.62c0.05,0.09,0.08,0.25,0.08,0.39    c0,0.73-0.79,1.3-2.26,1.3c-1.69,0-3.12-1.41-3.12-3.57C178.68,58.88,180.28,57.29,182.33,57.29z"/>
		<path d="M185.83,58.42l-0.88-0.43v-0.33c0.7-0.2,1.3-0.29,1.74-0.29h0.51l-0.09,0.87v3.5c0,1.63,0.51,2.15,1.5,2.15    c0.57,0,1.16-0.22,1.52-0.45v-5.02l-0.9-0.43v-0.33c0.71-0.2,1.32-0.29,1.75-0.29h0.51l-0.09,0.87v5.24    c0.11,0.26,0.34,0.54,0.59,0.81c-0.23,0.25-0.67,0.54-1.05,0.73c-0.31-0.22-0.59-0.54-0.73-0.9c-0.39,0.36-1.27,0.82-2.23,0.82    c-1.32,0-2.14-0.76-2.14-2.54V58.42z"/>
		<path d="M193.48,64.5c0.4-0.15,0.82-0.46,0.82-0.84v-5.24L193.3,58v-0.34c0.71-0.2,1.41-0.28,1.86-0.28h0.37v1.08h0.02l0.43-0.48    c0.42-0.45,0.84-0.68,1.36-0.68c0.54,0,0.81,0.23,0.81,0.67c0,0.29-0.09,0.64-0.25,0.93c-0.29-0.23-0.63-0.36-0.96-0.36    c-0.48,0-0.93,0.22-1.36,0.64v4.93l1.07,0.23v0.29c-0.53,0.19-1.04,0.26-1.92,0.26c-0.45,0-0.88-0.03-1.24-0.14V64.5z"/>
		<path d="M198.79,64.5c0.42-0.15,0.82-0.46,0.82-0.84v-5.24L198.62,58v-0.33c0.7-0.2,1.41-0.29,1.84-0.29h0.5l-0.08,0.84v5.89    l0.87,0.23v0.29c-0.53,0.19-1.01,0.26-1.8,0.26c-0.36,0-0.81-0.03-1.16-0.14V64.5z M199.44,55.07c0-0.48,0.34-0.91,0.88-0.91    c0.43,0,0.81,0.33,0.81,0.84c0,0.54-0.37,0.96-0.87,0.96C199.79,55.95,199.44,55.58,199.44,55.07z"/>
		<path d="M203.76,60.53l0.05-2.06h-0.85v-0.51l1.67-1.66l0.51-0.06l-0.06,1.4h2.05l-0.11,0.84h-1.98L205,60.42    c-0.02,0.65-0.02,1.24-0.02,1.81c0,1.26,0.37,1.69,0.95,1.69c0.45,0,0.84-0.16,1.15-0.4l0.16,0.06c-0.06,0.91-0.6,1.38-1.67,1.38    c-1.24,0-1.84-0.65-1.84-2.16C203.71,62.06,203.75,61.24,203.76,60.53z"/>
		<path d="M210.02,64.29l-2.45-6.09l-0.59-0.45v-0.37h2.85v0.37L209,58.12l1.64,4.73h0.02l1.47-4.68l-0.87-0.42v-0.37h2.33v0.37    l-0.39,0.34l-2.19,6.05c-1.22,3.41-2.45,4.42-3.24,4.42c-0.62,0-0.95-0.28-0.95-1.21c0.22,0.05,0.43,0.06,0.7,0.06    c0.65,0,1.6-0.74,2.23-2.42L210.02,64.29z"/>
		<path d="M222,54.73c1.05,0,1.75,0.14,2.29,0.42l-0.12,2.15h-0.42l-0.06-0.28c-0.25-0.96-0.7-1.35-1.81-1.35    c-1.54,0-3.02,1.55-3.02,4.25c0,2.87,1.44,4.14,2.88,4.14c1.15,0,1.72-0.37,2.05-1.19l0.15-0.37h0.42l-0.16,2.05    c-0.57,0.29-1.52,0.48-2.7,0.48c-2.25,0-4.17-1.67-4.17-4.9C217.34,56.87,219.56,54.73,222,54.73z"/>
		<path d="M228.96,57.27c1.67,0,2.68,1.12,2.68,2.9c0,0.29,0,0.6-0.02,0.99h-4.57c0,1.74,1.01,2.74,2.29,2.74    c0.76,0,1.6-0.26,2.19-0.67c0.03,0.08,0.06,0.25,0.06,0.4c0,0.7-1.02,1.35-2.67,1.35c-1.77,0-3.21-1.38-3.21-3.55    C225.72,58.74,227.35,57.27,228.96,57.27z M230.41,60.36c0-1.52-0.65-2.25-1.57-2.25c-0.85,0-1.75,1.02-1.75,2.25H230.41z"/>
		<path d="M232.98,64.5c0.4-0.15,0.82-0.46,0.82-0.84v-5.24L232.79,58v-0.34c0.71-0.2,1.41-0.28,1.86-0.28h0.37v0.84    c0.53-0.53,1.39-0.87,2.29-0.87c1.29,0,2.17,0.82,2.17,2.42v4.34l0.81,0.23v0.29c-0.42,0.17-0.96,0.26-1.63,0.26    c-0.33,0-0.7-0.03-1.01-0.14V64.5c0.39-0.17,0.56-0.46,0.56-1.02v-2.96c0-1.52-0.64-2.09-1.55-2.09c-0.64,0-1.25,0.22-1.6,0.48    v5.21l0.87,0.23v0.29c-0.53,0.19-1.02,0.26-1.8,0.26c-0.37,0-0.81-0.03-1.16-0.14V64.5z"/>
		<path d="M242.26,60.53l0.05-2.06h-0.85v-0.51l1.67-1.66l0.51-0.06l-0.06,1.4h2.05l-0.11,0.84h-1.98l-0.03,1.95    c-0.02,0.65-0.02,1.24-0.02,1.81c0,1.26,0.37,1.69,0.95,1.69c0.45,0,0.84-0.16,1.15-0.4l0.16,0.06c-0.06,0.91-0.6,1.38-1.67,1.38    c-1.24,0-1.84-0.65-1.84-2.16C242.22,62.06,242.25,61.24,242.26,60.53z"/>
		<path d="M246.49,64.5c0.4-0.15,0.82-0.46,0.82-0.84v-5.24L246.31,58v-0.34c0.71-0.2,1.41-0.28,1.86-0.28h0.37v1.08h0.01l0.43-0.48    c0.42-0.45,0.84-0.68,1.36-0.68c0.54,0,0.81,0.23,0.81,0.67c0,0.29-0.09,0.64-0.25,0.93c-0.29-0.23-0.64-0.36-0.96-0.36    c-0.48,0-0.93,0.22-1.36,0.64v4.93l1.07,0.23v0.29c-0.53,0.19-1.04,0.26-1.92,0.26c-0.45,0-0.88-0.03-1.24-0.14V64.5z"/>
		<path d="M252.46,58.42l-0.88-0.43v-0.33c0.7-0.2,1.3-0.29,1.74-0.29h0.51l-0.09,0.87v3.5c0,1.63,0.51,2.15,1.5,2.15    c0.57,0,1.16-0.22,1.52-0.45v-5.02l-0.9-0.43v-0.33c0.71-0.2,1.32-0.29,1.75-0.29h0.51l-0.09,0.87v5.24    c0.11,0.26,0.34,0.54,0.59,0.81c-0.23,0.25-0.67,0.54-1.05,0.73c-0.31-0.22-0.59-0.54-0.73-0.9c-0.39,0.36-1.27,0.82-2.23,0.82    c-1.32,0-2.14-0.76-2.14-2.54V58.42z"/>
		<path d="M260.12,64.5c0.4-0.15,0.82-0.46,0.82-0.84v-5.24L259.93,58v-0.34c0.71-0.2,1.41-0.28,1.86-0.28h0.37v0.84    c0.54-0.53,1.36-0.87,2.28-0.87c0.73,0,1.44,0.39,1.75,0.95c0.48-0.48,1.52-0.95,2.39-0.95c1.3,0,2.15,0.79,2.15,2.47v4.29    l0.81,0.23v0.29c-0.43,0.17-0.98,0.26-1.64,0.26c-0.31,0-0.7-0.03-0.99-0.14V64.5c0.39-0.17,0.56-0.46,0.56-1.02v-3.02    c0-1.41-0.62-2.03-1.58-2.03c-0.56,0-1.09,0.14-1.49,0.36c0.06,0.33,0.09,0.76,0.09,1.16v4.17l0.81,0.23v0.29    c-0.43,0.17-0.96,0.26-1.63,0.26c-0.33,0-0.7-0.03-1.01-0.14V64.5c0.39-0.17,0.56-0.46,0.56-1.02v-2.85c0-1.72-0.51-2.2-1.47-2.2    c-0.62,0-1.21,0.22-1.54,0.48v5.21l0.87,0.23v0.29c-0.54,0.19-1.02,0.26-1.8,0.26c-0.37,0-0.81-0.03-1.16-0.14V64.5z"/>
		<path class="st3" d="M61.15,82.06c0.26-0.12,0.46-0.29,0.54-0.59l1.94-8.29L62.79,73v-0.37c0.4-0.11,1.13-0.19,1.6-0.19h0.51    l1.36,7.39h0.02l2.56-7.39h0.39c0.39,0,1.04,0.03,1.49,0.12v0.37l-0.73,0.19l0.36,8.59l0.85,0.23v0.31    c-0.47,0.16-0.82,0.23-1.27,0.23c-0.64,0-1.01-0.05-1.36-0.16v-0.26c0.29-0.14,0.48-0.33,0.48-0.81l-0.09-6.87h-0.02l-2.82,8.14    l-0.47-0.03l-1.52-8.11h-0.02l-1.49,7.3l0.88,0.25v0.31c-0.43,0.17-0.81,0.23-1.29,0.23c-0.37,0-0.76-0.06-1.07-0.16V82.06z"/>
		<path class="st3" d="M72.49,79.74l0.5-3.15l0.08-0.92l-0.93-0.29v-0.29c0.5-0.19,0.99-0.26,1.55-0.26c0.28,0,0.5,0.02,0.7,0.09    l-0.7,4.56c-0.06,0.46-0.12,1.26-0.12,1.66c0,0.51,0.19,0.74,0.62,0.88v0.26c-0.33,0.14-0.7,0.22-1.16,0.22    c-0.5,0-0.74-0.26-0.74-0.71C72.28,81.35,72.42,80.36,72.49,79.74z M73.24,72.58c0-0.51,0.4-0.96,0.87-0.96    c0.4,0,0.71,0.31,0.71,0.74c0,0.53-0.42,0.96-0.87,0.96C73.53,73.32,73.24,73.04,73.24,72.58z"/>
		<path class="st3" d="M76.46,75.68l-0.95-0.29v-0.29c0.5-0.19,0.96-0.26,1.54-0.26c0.2,0,0.42,0.03,0.63,0.11l-0.5,2.37h0.02    c0.71-1.58,1.74-2.51,2.79-2.51c0.68,0,1.22,0.48,1.22,1.43c0,0.5-0.14,1.29-0.23,1.95l-0.28,1.67c-0.05,0.36-0.12,0.96-0.12,1.29    c0,0.51,0.25,0.71,0.73,0.81v0.26c-0.36,0.19-0.76,0.29-1.24,0.29s-0.76-0.26-0.76-0.71c0-0.39,0.11-1.15,0.19-1.64l0.29-1.78    c0.08-0.48,0.15-1.15,0.15-1.57c0-0.7-0.31-0.93-0.68-0.93c-0.87,0-2.11,1.67-2.17,3.88L77,82.36h-1.32L76.46,75.68z"/>
		<path class="st3" d="M82.96,79.74l0.5-3.15l0.08-0.92l-0.93-0.29v-0.29c0.5-0.19,0.99-0.26,1.55-0.26c0.28,0,0.5,0.02,0.7,0.09    l-0.7,4.56c-0.06,0.46-0.12,1.26-0.12,1.66c0,0.51,0.19,0.74,0.62,0.88v0.26c-0.33,0.14-0.7,0.22-1.16,0.22    c-0.5,0-0.74-0.26-0.74-0.71C82.74,81.35,82.88,80.36,82.96,79.74z M83.7,72.58c0-0.51,0.4-0.96,0.87-0.96    c0.4,0,0.71,0.31,0.71,0.74c0,0.53-0.42,0.96-0.87,0.96C83.99,73.32,83.7,73.04,83.7,72.58z"/>
		<path class="st3" d="M85.61,81.03c0.43,0.42,0.95,0.65,1.52,0.65c0.73,0,1.32-0.42,1.32-1.07c0-0.51-0.2-0.85-0.96-1.53l-0.54-0.5    c-0.71-0.65-0.91-1.07-0.91-1.75c0-1.02,0.98-2.05,2.4-2.05c1.13,0,1.69,0.34,1.69,0.84c0,0.28-0.11,0.6-0.28,0.81    c-0.45-0.46-1.1-0.76-1.69-0.76c-0.68,0-1.04,0.37-1.04,0.87c0,0.45,0.19,0.71,0.96,1.41l0.59,0.53c0.74,0.67,0.99,1.12,0.99,1.8    c0,1.22-1.24,2.29-2.87,2.29c-0.98,0-1.41-0.31-1.41-0.88C85.37,81.4,85.47,81.21,85.61,81.03z"/>
		<path class="st3" d="M91.57,76.87l0.2-0.99c-0.34,0-0.54-0.02-0.87-0.05v-0.2c0.5-0.7,1.27-1.38,2.09-1.86h0.23l-0.26,1.27h0.45    c0.43,0,0.78-0.03,1.19-0.11c0,0.67-0.37,0.96-1.35,0.96h-0.43l-0.26,1.61c-0.12,0.74-0.31,2.03-0.31,2.65    c0,1.02,0.51,1.47,1.19,1.47c0.25,0,0.4-0.03,0.64-0.11v0.28c-0.14,0.37-0.7,0.74-1.43,0.74c-1.02,0-1.57-0.68-1.57-1.91    C91.09,79.68,91.33,78.07,91.57,76.87z"/>
		<path class="st3" d="M98.08,74.76c1.07,0,1.66,0.54,1.66,1.6c0,1.83-1.86,2.95-3.71,2.95c0,1.88,0.5,2.33,1.4,2.33    c0.56,0,1.36-0.33,1.69-0.78c0.06,0.06,0.15,0.2,0.15,0.37c0,0.74-0.99,1.36-2.25,1.36c-1.3,0-2.2-0.85-2.2-2.7    C94.83,76.41,96.6,74.76,98.08,74.76z M98.5,76.64c0-0.73-0.29-1.01-0.74-1.01c-0.68,0-1.66,1.18-1.66,2.96    C97.51,78.59,98.5,77.83,98.5,76.64z"/>
		<path class="st3" d="M101.34,75.68l-0.95-0.29v-0.29c0.5-0.19,0.96-0.26,1.5-0.26c0.2,0,0.45,0.03,0.65,0.11l-0.47,2.25h0.02    l0.82-1.36c0.4-0.67,0.82-0.98,1.3-0.98c0.34,0,0.51,0.22,0.51,0.57c0,0.25-0.06,0.56-0.17,0.81c-0.15-0.05-0.31-0.06-0.48-0.06    c-0.98,0-1.95,1.07-2.09,3.94l-0.12,2.26h-1.29L101.34,75.68z"/>
		<path class="st3" d="M105.24,79.74l0.5-3.15l0.08-0.92l-0.93-0.29v-0.29c0.5-0.19,0.99-0.26,1.55-0.26c0.28,0,0.5,0.02,0.7,0.09    l-0.7,4.56c-0.06,0.46-0.12,1.26-0.12,1.66c0,0.51,0.19,0.74,0.62,0.88v0.26c-0.33,0.14-0.7,0.22-1.16,0.22    c-0.5,0-0.74-0.26-0.74-0.71C105.03,81.35,105.17,80.36,105.24,79.74z M105.99,72.58c0-0.51,0.4-0.96,0.87-0.96    c0.4,0,0.71,0.31,0.71,0.74c0,0.53-0.42,0.96-0.87,0.96C106.28,73.32,105.99,73.04,105.99,72.58z"/>
		<path class="st3" d="M111.49,74.76c1.07,0,1.66,0.54,1.66,1.6c0,1.83-1.86,2.95-3.71,2.95c0,1.88,0.5,2.33,1.39,2.33    c0.56,0,1.36-0.33,1.69-0.78c0.06,0.06,0.15,0.2,0.15,0.37c0,0.74-0.99,1.36-2.25,1.36c-1.3,0-2.2-0.85-2.2-2.7    C108.24,76.41,110,74.76,111.49,74.76z M111.91,76.64c0-0.73-0.29-1.01-0.74-1.01c-0.68,0-1.66,1.18-1.66,2.96    C110.92,78.59,111.91,77.83,111.91,76.64z"/>
		<path class="st3" d="M116.64,75.65l-0.67-0.26v-0.33c0.48-0.17,0.84-0.23,1.27-0.23c0.22,0,0.43,0.03,0.64,0.09l0.34,6.34h0.02    c1.13-1.4,1.95-3.52,1.95-5.12c0-0.42-0.2-0.67-0.57-0.85v-0.25c0.26-0.14,0.57-0.23,0.96-0.23c0.5,0,0.84,0.26,0.84,0.93    c0,1.6-1.5,4.87-3.01,6.31c-0.29,0.26-0.54,0.43-0.82,0.57h-0.31L116.64,75.65z"/>
		<path class="st3" d="M121.98,79.85c0-3.19,1.83-5.04,3.94-5.04c0.5,0,1.21,0.11,1.72,0.25l-0.54,2.71    c-0.19,0.81-0.34,2.25-0.36,2.91c0,0.99,0.2,1.18,0.74,1.26v0.33c-0.4,0.14-0.9,0.23-1.38,0.23c-0.25,0-0.45-0.05-0.65-0.11    l0.36-2.31h-0.01c-0.6,1.54-1.58,2.5-2.4,2.5C122.67,82.58,121.98,81.63,121.98,79.85z M125.88,78.34l0.43-2.57    c-0.22-0.06-0.57-0.09-0.81-0.09c-1.26,0-2.33,1.32-2.33,3.95c0,1.32,0.4,1.88,0.78,1.88C124.62,81.51,125.52,80.47,125.88,78.34z    "/>
		<path class="st3" d="M129.59,75.68l-0.95-0.29v-0.29c0.5-0.19,0.96-0.26,1.54-0.26c0.2,0,0.42,0.03,0.63,0.11l-0.5,2.37h0.02    c0.71-1.58,1.74-2.51,2.79-2.51c0.68,0,1.22,0.48,1.22,1.43c0,0.5-0.14,1.29-0.23,1.95l-0.28,1.67c-0.05,0.36-0.12,0.96-0.12,1.29    c0,0.51,0.25,0.71,0.73,0.81v0.26c-0.36,0.19-0.76,0.29-1.24,0.29s-0.76-0.26-0.76-0.71c0-0.39,0.11-1.15,0.19-1.64l0.29-1.78    c0.08-0.48,0.15-1.15,0.15-1.57c0-0.7-0.31-0.93-0.68-0.93c-0.87,0-2.11,1.67-2.17,3.88l-0.09,2.62h-1.32L129.59,75.68z"/>
		<path class="st3" d="M138.61,80.59l0.88-7.39l-0.87-0.25v-0.31c0.47-0.17,0.87-0.23,1.43-0.23c0.45,0,0.9,0.05,1.22,0.16v0.26    c-0.33,0.11-0.56,0.34-0.59,0.67l-0.82,6.87c-0.36,3.08-1.21,3.92-2.17,3.92c-0.26,0-0.5-0.03-0.71-0.14v-0.19    C137.82,83.4,138.41,82.34,138.61,80.59z"/>
		<path class="st3" d="M142.09,79.94l0.36-1.83c0.11-0.53,0.23-1.4,0.23-1.88c0-0.51-0.26-0.76-0.71-0.87V75.1    c0.36-0.17,0.74-0.28,1.22-0.28c0.5,0,0.76,0.26,0.76,0.71c0,0.53-0.17,1.52-0.33,2.4l-0.34,1.72c-0.08,0.34-0.14,0.85-0.14,1.16    c0,0.43,0.22,0.67,0.54,0.67c0.73,0,2.02-1.3,2.2-3.66l0.17-2.68c0.39-0.17,0.92-0.29,1.4-0.29l-0.43,2.42    c-0.2,1.05-0.39,2.46-0.39,3.4c0,1.02,0.19,1.19,0.71,1.27v0.33c-0.45,0.14-0.92,0.23-1.4,0.23c-0.25,0-0.45-0.03-0.64-0.11    l0.42-2.12h-0.02c-0.6,1.07-1.71,2.26-2.6,2.26c-0.68,0-1.19-0.56-1.19-1.43C141.92,80.75,142.02,80.27,142.09,79.94z"/>
		<path class="st3" d="M148.15,81.03c0.43,0.42,0.95,0.65,1.52,0.65c0.73,0,1.32-0.42,1.32-1.07c0-0.51-0.2-0.85-0.96-1.53    l-0.54-0.5c-0.71-0.65-0.91-1.07-0.91-1.75c0-1.02,0.98-2.05,2.4-2.05c1.13,0,1.69,0.34,1.69,0.84c0,0.28-0.11,0.6-0.28,0.81    c-0.45-0.46-1.1-0.76-1.69-0.76c-0.68,0-1.04,0.37-1.04,0.87c0,0.45,0.19,0.71,0.96,1.41l0.59,0.53c0.74,0.67,0.99,1.12,0.99,1.8    c0,1.22-1.24,2.29-2.87,2.29c-0.98,0-1.41-0.31-1.41-0.88C147.91,81.4,148.01,81.21,148.15,81.03z"/>
		<path class="st3" d="M154.11,76.87l0.2-0.99c-0.34,0-0.54-0.02-0.87-0.05v-0.2c0.5-0.7,1.27-1.38,2.09-1.86h0.23l-0.26,1.27h0.45    c0.43,0,0.78-0.03,1.19-0.11c0,0.67-0.37,0.96-1.35,0.96h-0.43l-0.26,1.61c-0.12,0.74-0.31,2.03-0.31,2.65    c0,1.02,0.51,1.47,1.19,1.47c0.25,0,0.4-0.03,0.64-0.11v0.28c-0.14,0.37-0.7,0.74-1.43,0.74c-1.02,0-1.57-0.68-1.57-1.91    C153.63,79.68,153.87,78.07,154.11,76.87z"/>
		<path class="st3" d="M157.8,79.74l0.5-3.15l0.08-0.92l-0.93-0.29v-0.29c0.5-0.19,0.99-0.26,1.55-0.26c0.28,0,0.5,0.02,0.7,0.09    l-0.7,4.56c-0.06,0.46-0.12,1.26-0.12,1.66c0,0.51,0.19,0.74,0.62,0.88v0.26c-0.33,0.14-0.7,0.22-1.16,0.22    c-0.5,0-0.74-0.26-0.74-0.71C157.59,81.35,157.73,80.36,157.8,79.74z M158.55,72.58c0-0.51,0.4-0.96,0.87-0.96    c0.4,0,0.71,0.31,0.71,0.74c0,0.53-0.42,0.96-0.87,0.96C158.84,73.32,158.55,73.04,158.55,72.58z"/>
		<path class="st3" d="M161.58,76.87l0.2-0.99c-0.34,0-0.54-0.02-0.87-0.05v-0.2c0.5-0.7,1.27-1.38,2.09-1.86h0.23l-0.26,1.27h0.45    c0.43,0,0.78-0.03,1.19-0.11c0,0.67-0.37,0.96-1.35,0.96h-0.43l-0.26,1.61c-0.12,0.74-0.31,2.03-0.31,2.65    c0,1.02,0.51,1.47,1.19,1.47c0.25,0,0.4-0.03,0.64-0.11v0.28c-0.14,0.37-0.7,0.74-1.43,0.74c-1.02,0-1.57-0.68-1.57-1.91    C161.1,79.68,161.34,78.07,161.58,76.87z"/>
		<path class="st3" d="M165.27,79.74l0.5-3.15l0.08-0.92l-0.93-0.29v-0.29c0.5-0.19,0.99-0.26,1.55-0.26c0.28,0,0.5,0.02,0.7,0.09    l-0.7,4.56c-0.06,0.46-0.12,1.26-0.12,1.66c0,0.51,0.19,0.74,0.62,0.88v0.26c-0.33,0.14-0.7,0.22-1.16,0.22    c-0.5,0-0.74-0.26-0.74-0.71C165.06,81.35,165.2,80.36,165.27,79.74z M166.02,72.58c0-0.51,0.4-0.96,0.87-0.96    c0.4,0,0.71,0.31,0.71,0.74c0,0.53-0.42,0.96-0.87,0.96C166.31,73.32,166.02,73.04,166.02,72.58z"/>
		<path class="st3" d="M171.52,74.76c1.07,0,1.66,0.54,1.66,1.6c0,1.83-1.86,2.95-3.71,2.95c0,1.88,0.5,2.33,1.39,2.33    c0.56,0,1.36-0.33,1.69-0.78c0.06,0.06,0.15,0.2,0.15,0.37c0,0.74-0.99,1.36-2.25,1.36c-1.3,0-2.2-0.85-2.2-2.7    C168.26,76.41,170.03,74.76,171.52,74.76z M171.94,76.64c0-0.73-0.29-1.01-0.74-1.01c-0.68,0-1.66,1.18-1.66,2.96    C170.95,78.59,171.94,77.83,171.94,76.64z"/>
		<path class="st3" d="M179.55,74.76c1.07,0,1.66,0.54,1.66,1.6c0,1.83-1.86,2.95-3.71,2.95c0,1.88,0.5,2.33,1.39,2.33    c0.56,0,1.36-0.33,1.69-0.78c0.06,0.06,0.15,0.2,0.15,0.37c0,0.74-0.99,1.36-2.25,1.36c-1.3,0-2.2-0.85-2.2-2.7    C176.29,76.41,178.06,74.76,179.55,74.76z M179.97,76.64c0-0.73-0.29-1.01-0.74-1.01c-0.68,0-1.66,1.18-1.66,2.96    C178.98,78.59,179.97,77.83,179.97,76.64z"/>
		<path class="st3" d="M182.82,75.68l-0.95-0.29v-0.29c0.5-0.19,0.96-0.26,1.54-0.26c0.2,0,0.42,0.03,0.63,0.11l-0.5,2.37h0.02    c0.71-1.58,1.74-2.51,2.79-2.51c0.68,0,1.22,0.48,1.22,1.43c0,0.5-0.14,1.29-0.23,1.95l-0.28,1.67c-0.05,0.36-0.12,0.96-0.12,1.29    c0,0.51,0.25,0.71,0.73,0.81v0.26c-0.36,0.19-0.76,0.29-1.24,0.29s-0.76-0.26-0.76-0.71c0-0.39,0.11-1.15,0.19-1.64l0.29-1.78    c0.08-0.48,0.15-1.15,0.15-1.57c0-0.7-0.31-0.93-0.68-0.93c-0.87,0-2.11,1.67-2.17,3.88l-0.09,2.62h-1.32L182.82,75.68z"/>
		<path class="st3" d="M191.95,73.21l-0.73-0.26v-0.31c0.47-0.17,0.85-0.23,1.3-0.23c0.45,0,0.79,0.05,1.18,0.16v0.26    c-0.26,0.08-0.4,0.26-0.39,0.45l0.9,7.55h0.02l2.74-7.63l-0.84-0.25v-0.31c0.48-0.15,0.96-0.23,1.5-0.23    c0.29,0,0.63,0.05,0.9,0.16v0.26c-0.26,0.08-0.45,0.22-0.54,0.45l-3.61,9.19l-1.05,0.05L191.95,73.21z"/>
		<path class="st3" d="M201.13,74.76c1.07,0,1.66,0.54,1.66,1.6c0,1.83-1.86,2.95-3.71,2.95c0,1.88,0.5,2.33,1.4,2.33    c0.56,0,1.36-0.33,1.69-0.78c0.06,0.06,0.15,0.2,0.15,0.37c0,0.74-0.99,1.36-2.25,1.36c-1.3,0-2.2-0.85-2.2-2.7    C197.87,76.41,199.64,74.76,201.13,74.76z M201.54,76.64c0-0.73-0.29-1.01-0.74-1.01c-0.68,0-1.66,1.18-1.66,2.96    C200.55,78.59,201.54,77.83,201.54,76.64z"/>
		<path class="st3" d="M203.85,79.74l0.5-3.15l0.08-0.92l-0.93-0.29v-0.29c0.5-0.19,0.99-0.26,1.55-0.26c0.28,0,0.5,0.02,0.7,0.09    l-0.7,4.56c-0.06,0.46-0.12,1.26-0.12,1.66c0,0.51,0.19,0.74,0.62,0.88v0.26c-0.33,0.14-0.7,0.22-1.16,0.22    c-0.5,0-0.74-0.26-0.74-0.71C203.63,81.35,203.77,80.36,203.85,79.74z M204.6,72.58c0-0.51,0.4-0.96,0.87-0.96    c0.4,0,0.71,0.31,0.71,0.74c0,0.53-0.42,0.96-0.87,0.96C204.89,73.32,204.6,73.04,204.6,72.58z"/>
		<path class="st3" d="M207.28,79.74l1.08-7.69l-0.98-0.29v-0.29c0.5-0.17,0.96-0.25,1.55-0.25c0.26,0,0.53,0.03,0.71,0.09    l-1.16,8.12c-0.08,0.5-0.12,1.24-0.12,1.71c0,0.51,0.25,0.74,0.7,0.88v0.26c-0.33,0.14-0.73,0.22-1.19,0.22    c-0.51,0-0.78-0.26-0.78-0.73C207.09,81.34,207.2,80.33,207.28,79.74z"/>
		<path class="st3" d="M210.7,79.74l0.5-3.15l0.08-0.92l-0.93-0.29v-0.29c0.5-0.19,0.99-0.26,1.55-0.26c0.28,0,0.5,0.02,0.7,0.09    l-0.7,4.56c-0.06,0.46-0.12,1.26-0.12,1.66c0,0.51,0.19,0.74,0.62,0.88v0.26c-0.33,0.14-0.7,0.22-1.16,0.22    c-0.5,0-0.74-0.26-0.74-0.71C210.49,81.35,210.63,80.36,210.7,79.74z M211.45,72.58c0-0.51,0.4-0.96,0.87-0.96    c0.4,0,0.71,0.31,0.71,0.74c0,0.53-0.42,0.96-0.87,0.96C211.74,73.32,211.45,73.04,211.45,72.58z"/>
		<path class="st3" d="M213.63,84.45c0,0.6,0.48,1.02,1.35,1.02c1.13,0,2.03-0.84,2.25-2.64l0.29-2.73h-0.02    c-0.59,1.47-1.58,2.45-2.4,2.45c-0.68,0-1.41-0.88-1.41-2.76c0-2.98,1.75-4.99,3.86-4.99c0.6,0,1.27,0.11,1.8,0.25l-0.61,2.98    c-0.14,0.74-0.23,2.33-0.23,3.13c0,3.53-1.74,5.04-3.78,5.04c-1.4,0-2.22-0.6-2.22-1.43c0-0.74,0.76-1.33,1.53-1.33    C213.74,83.77,213.63,84.08,213.63,84.45z M217.6,78.24l0.36-2.48c-0.25-0.06-0.51-0.08-0.78-0.08c-1.19,0-2.29,1.29-2.29,3.95    c0,1.33,0.4,1.88,0.79,1.88C216.33,81.51,217.29,80.47,217.6,78.24z"/>
		<path class="st3" d="M221.01,77.32l0.51-5.27l-0.96-0.29v-0.29c0.5-0.17,1.05-0.25,1.58-0.25c0.26,0,0.51,0.03,0.71,0.09    l-0.82,5.67h0.02c0.63-1.33,1.6-2.19,2.6-2.19c0.76,0,1.23,0.57,1.23,1.43c0,0.51-0.12,1.3-0.23,1.95l-0.28,1.63    c-0.06,0.37-0.12,1.01-0.12,1.33c0,0.51,0.23,0.71,0.73,0.81v0.26c-0.36,0.19-0.76,0.29-1.24,0.29s-0.76-0.26-0.76-0.71    c0-0.39,0.12-1.19,0.2-1.71l0.28-1.72c0.08-0.46,0.16-1.21,0.16-1.57c0-0.68-0.29-0.93-0.7-0.93c-0.77,0-1.91,1.32-2.06,3.54    l-0.19,2.96h-1.3L221.01,77.32z"/>
		<path class="st3" d="M230.43,74.76c1.07,0,1.66,0.54,1.66,1.6c0,1.83-1.86,2.95-3.71,2.95c0,1.88,0.5,2.33,1.39,2.33    c0.56,0,1.36-0.33,1.69-0.78c0.06,0.06,0.15,0.2,0.15,0.37c0,0.74-0.99,1.36-2.25,1.36c-1.3,0-2.2-0.85-2.2-2.7    C227.18,76.41,228.95,74.76,230.43,74.76z M230.85,76.64c0-0.73-0.29-1.01-0.74-1.01c-0.68,0-1.66,1.18-1.66,2.96    C229.86,78.59,230.85,77.83,230.85,76.64z"/>
		<path class="st3" d="M233.16,79.74l0.5-3.15l0.08-0.92l-0.93-0.29v-0.29c0.5-0.19,0.99-0.26,1.55-0.26c0.28,0,0.5,0.02,0.7,0.09    l-0.7,4.56c-0.06,0.46-0.12,1.26-0.12,1.66c0,0.51,0.19,0.74,0.62,0.88v0.26c-0.33,0.14-0.7,0.22-1.16,0.22    c-0.5,0-0.74-0.26-0.74-0.71C232.95,81.35,233.08,80.36,233.16,79.74z M233.91,72.58c0-0.51,0.4-0.96,0.87-0.96    c0.4,0,0.71,0.31,0.71,0.74c0,0.53-0.42,0.96-0.87,0.96C234.2,73.32,233.91,73.04,233.91,72.58z"/>
		<path class="st3" d="M236.14,79.85c0-3.12,1.78-5.04,3.86-5.04c0.19,0,0.42,0.02,0.59,0.03l0.45-2.79l-1.02-0.29v-0.29    c0.48-0.17,0.98-0.25,1.64-0.25c0.26,0,0.51,0.03,0.71,0.09l-1.13,6.42c-0.11,0.65-0.34,2.37-0.34,2.96    c0,1.01,0.22,1.18,0.74,1.26v0.33c-0.48,0.15-0.87,0.23-1.38,0.23c-0.26,0-0.46-0.05-0.65-0.11l0.39-2.34h-0.02    c-0.57,1.44-1.55,2.53-2.43,2.53C236.85,82.58,236.14,81.66,236.14,79.85z M240.03,78.33l0.43-2.57c-0.2-0.05-0.5-0.08-0.74-0.08    c-1.29,0-2.39,1.21-2.39,3.95c0,1.29,0.37,1.88,0.77,1.88C238.73,81.51,239.7,80.5,240.03,78.33z"/>
	</g>
	<g>
		<rect class="st0" height="125" width="314"/>
	</g>
</g>
</svg>