<svg xmlns="http://www.w3.org/2000/svg" width="50" height="50"><path fill="#154273" d="M0-39h50V61H0V-39Z"/><path fill="#fff" d="M26 35h-1v-3h1v3Zm4-11h-1v-3h1v3Zm-16-4h-1 2l1-1-1 1h-1Zm-5 2v2h1v1l1 1 1-1v1l4-1c0-1-1-3-3-3l-1-1h1v-1h-1 2v-1l-1-1-2-1s-1 0 0 0h-1 1v1H9l1 1v-1l-1 1v2l-1 1h1Zm4-4h-1 1Zm22 2-1-1 1 1h2-2Zm7 2-1-1v-2l-1-1 1 1v-1h-2l1-1h-1l-2 1-1 1 2 1h-1v1h1l-1 1c-2 0-3 2-3 3l4 1v-1l1 1 1-1v-2l2 1c-2-1-1-2-1-2h1Zm-4-4h-1 1ZM25 7v1h-1v1l1-1v1l-1 1 1 1 1-1-1-1V8h1c0 1 0 1 0 0h-1V7Zm0 4a1 1 0 1 0 0 2 1 1 0 1 0 0-2Zm0 7h4l1-2 1-3-1-1-1 1h2l-1 2h-1v1h-1v-1l1-3-1-1-2 1h1l1-1v3h-1v1l-1 1-1-1 1-1v-1h-1l-1 1 1 1-1 1-1-1 1-1h-2v-3l1 1h1l-2-1-1 1 1 3v1h-1v-1h-1v-2h1l-1-1-1 1c0 2 2 2 1 3l1 2h4Zm-5 2h-1v-1l-1 1-3 2 1 1 2-1 1-1v6h-1l-2-1h-6l-1 4H8l-2-1 2-4-2-1H5l-1-1-1 1 1 1 1-1v2l2-1 1 1-2 4c0 1 1 2 3 1-1 2-3 3-3 1l1 2v3l-1 1h1v1l1-1h1l1 1v-1h1l-2-1 1-1H9l-1 1c0-4 3-3 3-4h2c-1 0-3-2 0-4 1-2 3-2 4-1v1h1v1l1-1v2c0 3 3 3 6 5 3-2 6-2 6-5v-2h1v1-1h1v-1s2-1 5 1c2 2 0 4-1 4 0-1 0 0 0 0h2c0 1 3 0 3 4l-1-1h-1l1 1-2 1h1v1l1-1h1l1 1v-1h1v-1l-1-3 1-2c0 2-2 1-2-1 1 1 3 0 3-2l-3-3 1-1 2 1v-1h1l1-1v-1l-1 1h-2c-2 0-2 1-2 2l2 3-1 1h-1l-2-4h-6l-2 1h-1v-6l1 1 2 1 1-1-2-2H21v2h-1v-2m-6 22v-2l-4-1-2 1v3l3-1c3 0 6 2 6 0v-1l-3 1Zm19-1v1c0 2 3 0 6 0l3 1v-3l-3-1-3 1v2l-3-1Zm-8-1 11 1v-3l-11-1-10 1v3l10-1Zm-4-12-1-1v1-2 1-1l1 1v-1h1v1h-1l3-1h2l1 2h2l-1-2 1-1h2l-1 1v1l-1-1h-1l1 2-2 1 2 1v1l1 1h-2v1-1l-1 1 1-1h-1 1c0-2-2-1-2-2h-1 1v-1l-2-2-2 1-1 1v-1Zm1 4h-1 1-1l1-1h-1 2v-1l-1-1h1l2-1 1 1c-2 0-2 1-2 2v1h-2Zm4-10h-1 1Zm-2 1h1-1s-1 0 0 0Zm-7 13h2l-1-1h1-1l1-1h-2l-1-1 1-1v-1l-3-2-2 1v1l2 1v3h1l1 1h1Zm17 0 1-1h2l-1-1v-2l2-1v-1l-1-1-4 2v1l1 1-1 1h-1v1h-1 1l-1 1h3ZM21 24h2v1l-2-1v1h-1l1-1h-1 1-1l1-1 2-2 1-1v1l-2 2v1h-1Zm6-1 1 1h-1l1 1h-1v1h-2l-2-1 2-1 1-1h-1c1-1 0-1 0 0v-1h-1 1l1-1v-1 1h2v1h-1l1 1h-1Z"/></svg>