<svg version="1.2" xmlns="http://www.w3.org/2000/svg" viewBox="0 0 314 125" width="314" height="125">
	<title>logo-ncsc</title>
	<style>
		.s0 { fill: none } 
		.s1 { fill: #154273 } 
		.s2 { fill: #ffffff } 
		.s3 { fill: #000000 } 
		.s4 { fill: #1d1d1b } 
	</style>
	<g id="Laag_1">
		<g>
			<path fill-rule="evenodd" class="s0" d="m0 0h314v125h-314z"/>
			<path fill-rule="evenodd" class="s1" d="m0 0h50v100h-50z"/>
		</g>
		<path class="s2" d="m20.1 62.7c-0.7 0.1-1.2 0.3-1.4 0.4 0-0.4 0.1-0.7 0.4-0.7 0 0 0-0.1 0-0.1-0.7-0.4-1 0.4-1 0.4-0.2 0-0.6 0.1-0.6 0.4 0 0.9-2.1 1.4-2.6 1.5 0.9 0.3 1.2 1.4 1.2 1.4 0.7-0.6 1.4-1.2 1.6-1.2 0.1 0 0.2 0.2 0.2 0.4q0 0 0.1 0c0.3-0.5 0.1-0.6 0.1-0.8 0-0.1 0-0.5 0.5-0.5v6.2l-0.2 0.1c-0.2 0-1.1-0.8-2.1-1.5-1-0.7-1.6-0.3-2.8 0.4-1.5 0.8-3.1 0-3.1 0-1.3 1-1.8 3.8-1.8 3.8-0.2 0.1-0.7 0.2-1.1 0.2-1 0-1.2-0.6-1.2-1 0-1.6 2-2.2 2-3.8 0-0.4-0.2-1.9-2.1-1.9-0.2 0-1.7 0-1.7 0-0.7 0-0.8-0.5-0.9-0.7-0.1-0.1-0.2 0-0.1 0 0 0.2-0.1 0.4-0.1 0.8 0 0.6 0.4 1 1.1 1 0.3 0 0.6-0.1 0.7-0.2 0 0 0.1 0 0 0.1-0.3 0.3-0.3 1-0.2 1.1q0.1 0.1 0.1 0c0.2-0.6 0.8-1.2 1.6-1.2 1.1 0 1 0.8 1 1 0 1.3-2.2 2.2-2.2 4 0 1.7 1.9 2.1 3 1.8-0.1 1.8-2.1 2.4-2.2 1.1 0 0 0-0.1-0.1 0-0.2 0.6-0.1 1.2 0.7 1.4q0 0 0 0c-0.8 0.5-0.4 2.5-0.4 3 0.1 0.9-0.7 0.8-0.8 0.7 0 0-0.1 0 0 0.1 0.6 0.7 1.3 0.1 1.3 0.1 0.5 0.1 0.2 0.6-0.2 0.8q-0.1 0.1 0 0.1c0.1 0 1 0.1 1.1-0.6 0.4 0.5 0.9 0.3 1 0.3 0.2-0.1 1-0.4 1.1 0.5 0 0 0 0 0 0 0.6-0.8 0-1.3-0.4-1.3 0.1 0 0.5-0.4 1 0.1 0 0 0 0.1 0 0 0.1-1-0.7-1.1-1.2-0.6 0-0.1-0.2-0.7 0.6-0.7 0 0 0 0 0 0-0.6-0.6-1.1-0.1-1.2 0.1-0.3 0.3-0.9 0.1-1 0.1 0.2-3.2 3.1-2.1 3.5-3.7 0.1-0.1 0.1 0 0.1 0 0.1 0.4 1.1 0.4 1.3-0.3q0-0.1-0.1-0.1c-0.8 0.9-2.7-1.7-0.1-3.9 2.2-1.8 4.2-0.8 4.9-0.2 0 0.3-0.1 0.4-0.2 0.4q-0.1 0 0 0.1c0.2 0 0.5 0 0.6-0.2 0.5 0.4 0.1 0.8-0.1 0.9q-0.1 0 0 0.1c0.5 0 0.8-0.4 0.8-0.7l0.1 0.1v1.8c0 2.7 3.1 3.1 6.4 5.3 3.4-2.2 6.5-2.6 6.5-5.3v-1.8-0.1c0.1 0.3 0.4 0.7 0.9 0.7q0-0.1 0-0.1c-0.2-0.1-0.6-0.5-0.2-0.9 0.2 0.2 0.5 0.2 0.7 0.2 0-0.1 0-0.1 0-0.1-0.1 0-0.3-0.1-0.2-0.4 0.7-0.6 2.7-1.6 4.9 0.2 2.6 2.2 0.7 4.8-0.2 3.9 0 0 0 0 0 0.1 0.2 0.8 1.2 0.7 1.3 0.3 0 0 0-0.1 0 0 0.4 1.6 3.3 0.5 3.5 3.7 0 0.1-0.7 0.2-0.9-0.1-0.1-0.2-0.6-0.7-1.2-0.1 0 0 0 0 0 0 0.8 0 0.6 0.6 0.6 0.7-0.5-0.5-1.3-0.4-1.2 0.6q0 0.1 0 0c0.4-0.5 0.9-0.1 0.9-0.1-0.3 0-0.9 0.5-0.4 1.3 0.1 0 0.1 0 0.1 0 0.1-0.9 0.9-0.6 1-0.5 0.1 0 0.7 0.2 1.1-0.3 0.1 0.7 1 0.6 1 0.6q0.1 0 0-0.1c-0.3-0.2-0.7-0.7-0.1-0.8 0 0 0.7 0.6 1.3-0.1 0 0 0-0.1 0-0.1-0.1 0.1-0.9 0.2-0.9-0.7 0.1-0.5 0.5-2.5-0.3-3q-0.1 0 0 0c0.8-0.2 0.9-0.8 0.6-1.4 0-0.1 0 0 0 0-0.1 1.3-2.1 0.7-2.2-1.1 1.1 0.3 2.9-0.1 2.9-1.8 0-1.8-2.2-2.7-2.2-4 0-0.2 0-1 1.1-1 0.8 0 1.4 0.6 1.6 1.2q0 0.1 0.1 0c0.1-0.1 0.1-0.8-0.2-1.1-0.1 0 0-0.1 0-0.1 0.1 0.1 0.4 0.2 0.7 0.2 0.7 0 1.1-0.4 1.1-1 0-0.4-0.2-0.6-0.1-0.8 0 0 0-0.1-0.1 0-0.1 0.2-0.3 0.7-1 0.7 0 0-1.4 0-1.6 0-1.9 0-2.1 1.5-2.1 1.9 0 1.6 2 2.2 2 3.8 0 0.4-0.2 1-1.2 1-0.5 0-0.9-0.1-1.2-0.2 0 0-0.4-2.8-1.7-3.8 0 0-1.6 0.8-3.2 0-1.1-0.7-1.7-1.1-2.7-0.4-1.1 0.7-2 1.5-2.1 1.5l-0.2-0.1v-6.2c0.4 0 0.5 0.4 0.5 0.5-0.1 0.2-0.2 0.3 0.1 0.8q0 0 0.1 0c0-0.2 0-0.4 0.2-0.4 0.2 0 0.9 0.6 1.5 1.2 0 0 0.4-1.1 1.3-1.4-0.5-0.1-2.6-0.6-2.6-1.5 0-0.3-0.4-0.4-0.6-0.4 0 0-0.4-0.8-1-0.4-0.1 0-0.1 0.1 0 0.1 0.3 0 0.4 0.3 0.4 0.6-0.6-0.1-3.2-0.9-6.4-0.9-1.5 0-2.9 0.2-4 0.4v2.1h-0.9v-1.9zm9.7 4h-0.8v-2.4h0.8zm-16.1-4.1c-0.1 0-0.5 0-0.5 0 0 0.1 0.2 0.1 0.5 0.1 0.7 0.2 1 0.5 1.5 0.5 0.4 0 0.9-0.3 0.7-0.9 0-0.1-0.1-0.1-0.1 0-0.1 0.3-0.4 0.4-0.8 0.4-0.5 0-0.6-0.1-1.3-0.1zm-4.8 2.4c0.1 0.1 0.9 1.1-0.3 1.5q-0.1 0.1 0 0.1c0.9 0.4 1.4-0.3 1.4-0.3 0.4 1.1-0.3 1.7-0.3 1.7 0.1 0.2 0.6 0.5 1.2 0.7 0.3-0.2 0.6-0.4 0.8-0.8 0 0 0.2 0.4 0 0.9 1.9 0.2 2.6-1.4 4.1-1.1q0 0 0 0c0-1-0.6-2.7-2.4-3-1.8-0.4-1.3-1.1-1.3-1.1 0.8-0.1 1.2 0.3 1.2 0.3 0.1-0.3-0.1-0.5-0.1-0.5 0.1-0.1 0.2-0.4 0.2-0.4-0.9 0-1.1-0.2-1.1-0.2-0.2-0.5 0.2-1.2 1.5-0.5 0.3-0.2 0.3-0.7 0.3-0.7 0.1 0 0.1-0.2 0.1-0.2 0-0.2-1-0.8-1.3-0.9 0-0.3-0.4-0.7-1.6-0.6-0.6 0.1-1-0.1-0.8-0.4 0 0-0.1-0.1-0.1 0-0.2 0.1-0.3 0.5 0.2 0.8 0.5 0.2 0.5 0.8 0.5 0.9 0.1 0.1-0.1 0.1-0.1 0-0.3-1-1.5-1.2-2.3-0.7 0 0.5 0.6 0.9 0.9 0.9 0.1 0 0.4-0.2 0.4-0.4 0-0.1 0-0.1 0.1 0 0.1 0.3-0.4 1-1.1 0.6-0.8 0.7-0.5 1.6-0.4 1.9 0.1 0.6-0.2 1.2-0.7 1 0 0-0.1-0.1-0.1 0 0 0.4 0.5 0.8 1.1 0.5zm4.1-3.8c-0.3 0.4-0.9 0.3-1-0.3 0.7-0.1 1 0 1 0.3zm22.1 1.5c-0.4 0-0.7-0.1-0.8-0.4 0-0.1-0.1-0.1-0.1 0-0.2 0.6 0.3 0.9 0.7 0.9 0.5 0 0.8-0.3 1.5-0.5 0.3 0 0.5 0 0.5-0.1 0-0.1-0.5-0.1-0.5-0.1-0.8 0.1-0.9 0.2-1.3 0.2zm7.1 1.8c0-0.1 0-0.1 0-0.1-0.6 0.3-0.9-0.3-0.7-0.9 0-0.3 0.3-1.2-0.4-2-0.7 0.4-1.2-0.2-1.1-0.6 0-0.1 0.1-0.1 0.1 0 0 0.3 0.2 0.4 0.4 0.4 0.3 0 0.8-0.3 0.9-0.8-0.8-0.5-2.1-0.3-2.3 0.6 0 0.2-0.2 0.2-0.2 0 0 0 0.1-0.6 0.6-0.9 0.5-0.2 0.3-0.6 0.2-0.7-0.1-0.1-0.2-0.1-0.1 0 0.2 0.3-0.2 0.5-0.8 0.4-1.2-0.2-1.6 0.3-1.7 0.6-0.2 0.1-1.2 0.6-1.2 0.8 0 0.1 0 0.3 0.1 0.3 0 0 0 0.4 0.3 0.7 1.3-0.8 1.6 0 1.5 0.5 0 0-0.2 0.2-1.1 0.2 0 0 0.1 0.3 0.1 0.4 0 0-0.2 0.2 0 0.4 0 0 0.4-0.3 1.2-0.3 0 0 0.5 0.8-1.4 1.1-1.8 0.4-2.3 2.1-2.3 3q0 0.1 0 0.1c1.5-0.3 2.2 1.2 4.1 1.1-0.2-0.5 0-1 0-1 0.1 0.4 0.5 0.7 0.7 0.8 0.7-0.1 1.2-0.4 1.3-0.6 0 0-0.8-0.6-0.3-1.7 0 0 0.5 0.7 1.4 0.3 0.1 0 0.1-0.1 0-0.1-1.3-0.4-0.4-1.5-0.4-1.6 0.6 0.4 1.1 0 1.1-0.4zm-4.1-3.6c-0.1 0.6-0.7 0.7-1 0.3 0-0.3 0.3-0.4 1-0.3zm-13.4-10.7c0 0.2 0.1 0.3 0.1 0.4 0.1 0.1 0.1 0.2 0.1 0.3-0.1 0-0.2 0.1-0.3-0.1-0.1 0-0.3-0.1-0.4-0.1-0.3 0-0.4 0.2-0.4 0.4 0 0.1 0.1 0.3 0.4 0.3 0.1 0 0.3-0.1 0.4-0.1 0.1-0.1 0.2-0.1 0.3-0.1 0 0.1-0.1 0.6-0.1 1.1-0.5 0.1-0.7 0.4-0.7 0.6 0 0.6 0.6 0.9 0.9 1.1 0.4-0.2 1-0.5 1-1.1 0-0.2-0.3-0.5-0.7-0.6-0.1-0.5-0.1-1-0.1-1.1 0.1 0 0.1 0 0.3 0.1 0.1 0 0.2 0.1 0.4 0.1 0.3 0 0.4-0.2 0.4-0.3 0-0.2-0.1-0.4-0.4-0.4-0.2 0-0.3 0.1-0.4 0.1-0.2 0.2-0.2 0.1-0.3 0.1 0-0.1-0.1-0.2 0-0.3 0.1-0.1 0.2-0.2 0.2-0.4 0-0.3-0.2-0.4-0.4-0.4-0.1 0-0.3 0.1-0.3 0.4zm0.3 10.5c2.7 0 4.2 0.5 4.2 0.5 0-1.4 0-2.1 0.8-2-0.4-1.1 1.4-1.6 1.4-3.1 0-0.9-0.7-1-0.9-1-0.6 0-0.5 0.4-1 0.4-0.1 0-0.2-0.1-0.2 0 0 0.2 0.2 0.4 0.4 0.4 0.3 0 0.3-0.3 0.6-0.3 0.1 0 0.2 0.1 0.2 0.4 0 0.7-0.4 1.3-0.9 1.9q-0.1-0.2-0.4-0.3c-0.3 0-0.6 0.3-0.6 0.7q0 0.2 0.1 0.4-0.2 0.1-0.4 0.1c-0.2 0-0.5-0.1-0.5-0.6 0-1 1.4-2 1.4-3.3 0-0.7-0.4-1.3-1.4-1.3-0.9 0-0.7 0.9-1.6 0.9q-0.1-0.1-0.1 0c0 0.1 0.2 0.6 0.6 0.6 0.5 0 0.6-0.8 1-0.8 0.2 0 0.4 0 0.4 0.6 0 0.4-0.2 1.1-0.5 1.7q-0.2-0.1-0.4-0.1c-0.4 0-0.6 0.3-0.6 0.7 0 0.3 0.1 0.5 0.2 0.7-0.2 0.3-0.4 0.5-0.7 0.5-0.6 0-0.8-0.3-0.8-0.7 0-0.4 0.7-0.5 0.7-1.1 0-0.4-0.3-0.7-0.5-0.7-0.3 0-0.4 0.2-0.5 0.2 0 0-0.1-0.2-0.4-0.2-0.3 0-0.5 0.3-0.5 0.7 0 0.6 0.7 0.7 0.7 1.1 0 0.4-0.3 0.7-0.9 0.7-0.2 0-0.5-0.2-0.7-0.5 0.2-0.2 0.3-0.4 0.3-0.7 0-0.4-0.3-0.7-0.6-0.7q-0.3 0-0.4 0.1c-0.3-0.6-0.5-1.3-0.5-1.7 0-0.6 0.2-0.6 0.3-0.6 0.4 0 0.6 0.8 1 0.8 0.5 0 0.6-0.5 0.6-0.6q0 0 0 0c-0.9 0-0.7-0.9-1.7-0.9-0.9 0-1.3 0.6-1.3 1.3 0 1.3 1.4 2.3 1.4 3.3 0 0.5-0.3 0.6-0.5 0.6q-0.2 0-0.4-0.1c0-0.2 0-0.2 0-0.4 0-0.4-0.2-0.7-0.5-0.7q-0.3 0.1-0.5 0.3c-0.4-0.6-0.9-1.2-0.9-1.9 0-0.3 0.2-0.4 0.3-0.4 0.2 0 0.2 0.3 0.6 0.3 0.2 0 0.3-0.2 0.3-0.4 0-0.1 0 0-0.1 0-0.5 0-0.4-0.4-1-0.4-0.2 0-0.9 0.1-0.9 1 0 1.5 1.8 2 1.4 3.1 0.8-0.1 0.8 0.6 0.8 2 0 0 1.5-0.5 4.1-0.5zm0-6.4c-0.3 0-0.6 0.3-0.6 0.6 0 0.4 0.3 0.7 0.6 0.7 0.4 0 0.7-0.3 0.7-0.7 0-0.3-0.3-0.6-0.7-0.6zm0.9 23.1l-0.9-0.1v-2.4h0.9zm-11.5 7.3c-0.2-0.1-0.4-0.2-0.4-0.5v-1.4c-0.4-0.1-1.4-0.5-3.5-0.5-1.7 0-2.3 0.4-2.3 0.5l-0.5 2.6c0 0 0.7-0.7 3.2-0.5 3.1 0.2 6.2 2 6.2 0.1v-1.2c-2.4 0.1-2.7 0.8-2.7 0.9zm18.6-0.8v1.1c0 1.9 3.1 0.1 6.1-0.1 2.5-0.1 3.2 0.5 3.2 0.5l-0.4-2.5c0-0.2-0.6-0.6-2.3-0.6-2.1 0-3.1 0.4-3.5 0.6v1.3c0 0.3-0.2 0.4-0.4 0.5 0-0.1-0.4-0.8-2.7-0.8zm-8-1.2c4.9 0 9.8 0.3 10.5 1 0 0.1 0.1 0 0.1-0.1v-2.5c0-0.8-5.1-1.2-10.6-1.2-5.4 0-10.5 0.4-10.5 1.2v2.5c0 0.1 0 0.1 0.1 0.1 0.6-0.7 5.6-1 10.4-1zm-4.3-12.2l-0.5-0.1v0.1l-0.6-0.3c0 0 0.4 0 0.5 0q0.1 0 0 0c-0.2-0.2-0.4-0.4-0.4-0.4 0 0 0.2 0 0.6 0.2q0 0 0-0.1c-0.2-0.2-0.4-0.5-0.4-0.5 0 0 0.5 0.3 0.6 0.3q0 0.1 0 0c-0.1-0.3-0.3-0.6-0.3-0.6l0.5 0.4q0.1 0.1 0.1 0c-0.1-0.2-0.2-0.6-0.2-0.6l0.4 0.5q0 0.1 0.1 0c0-0.1 0-0.6 0-0.6 0 0 0.1 0.4 0.2 0.5q0 0.1 0.1 0c0 0 0.1-0.4 0.1-0.4l0.1 0.6h-0.1l-0.1 0.8c0.7-0.2 1.6-1.5 2.3-1.5 0.9 0 1.2 1 2.7 0.5 0.4 0.6 0.5 1.1 0.7 1.8 0.6 0.5 1.4 0.3 1.4-0.2 0-0.8-0.8-1-0.8-1.8 0-0.4 0.2-0.9 0.9-0.9 0.4 0 1 0.1 1.3 0.1 0.4 0 0.4-0.3 0.5-0.4 0-0.1 0.1 0 0.1 0 0 0.1 0 0.2 0 0.4 0 0.5-0.7 0.6-0.8 0.5-0.1 0-0.1 0-0.1 0.1 0.2 0.1 0.1 0.4 0 0.6q0 0 0 0c-0.1-0.4-0.6-0.9-1-0.9-0.1 0-0.4 0.1-0.4 0.5 0 0.4 1 0.9 1 1.9 0 1-1.1 1.2-2.1 1 0.1 0.9 1.5 1.5 1.5 0.8 0 0 0.1 0 0.1 0 0.2 0.3 0.1 0.5-0.2 0.7 0.3 0.1 0.3 0.6 0.4 0.9 0.1 0.4 0.6 0.2 0.6 0.2q0-0.1 0 0c-0.2 0.5-0.6 0.3-0.6 0.3-0.3 0.2 0 0.3 0.2 0.4q0.1 0 0 0.1c-0.1 0-0.5 0.1-0.7-0.2-0.1 0.3-0.4 0.3-0.5 0.3-0.2 0-0.3 0.2-0.2 0.5q0 0-0.1 0c-0.4-0.3-0.2-0.6 0-0.7 0 0-0.3-0.2-0.4 0.2q-0.1 0-0.1 0c-0.2-0.5 0.2-0.7 0.5-0.6 0 0-0.1-0.3-0.5-0.2q-0.1 0-0.1 0c0.1-0.2 0.3-0.4 0.7-0.2 0.2 0.1 0.5 0 0.5-0.1-0.6-1.2-1.9-0.2-2.2-1.2 0 0 0 0 0 0-0.1 0.3-0.6 0.3-0.7-0.1q-0.1-0.1 0-0.1c0.1 0.1 0.2 0.2 0.5-0.1 0.1-0.3 0.1-0.5 0.1-0.7 0-0.8-0.7-2.1-2-2.1-0.7 0-1.6 0.3-2.2 0.7l0.6 0.1c-0.1 0.6-0.6 1-1.1 0.8l0.1-0.6c-0.1 0-0.4 0.1-0.5 0.2q0 0 0 0c-0.1-0.4 0.2-0.5 0.3-0.6q0 0 0 0c-0.3 0-0.4 0.2-0.5 0.3q0 0 0 0c0-0.1 0-0.3 0.1-0.5zm1.7 4.5c-0.2 0.3-0.4 0-0.7 0-0.3 0-0.3 0.3-0.3 0.4q0 0 0 0c-0.3-0.4 0-0.7 0.2-0.7 0 0-0.3-0.2-0.5 0q0 0.1 0 0c-0.1-0.5 0.4-0.5 0.6-0.3 0.1-0.2 0-0.3-0.3-0.3q0 0 0-0.1 0.1-0.1 0.3-0.1c0.3 0 0.3 0.4 0.5 0.4 0.3 0 0.7-0.4 0.7-0.5 0 0-0.3-0.7-0.2-1.2q0 0 0 0c-0.2 0.1-0.5 0.1-0.5-0.3q0-0.1 0 0c0.2 0.2 0.4-0.1 0.5-0.2 0.2-0.2 0.9-1.2 1.8-1.2 0.3 0 0.5 0.1 0.7 0.3-0.3 0.4 0 0.8 0.3 0.7q0 0 0 0c-1.3 0.5-1.8 0.7-1.8 1.8 0 0.5 0.2 0.8 0.5 0.7q0 0 0 0.1-0.2 0.2-0.4 0.1c-0.2 0-0.3-0.1-0.4-0.1-0.2 0-0.6 0.3-0.6 0.5 0 0.1 0 0.2 0.2 0.3q0 0 0 0c-0.1 0-0.5 0.1-0.6-0.3zm5.1-8.7c0 0.2 0.2 0.5 0.4 0.4q0.1 0 0.1 0.1c-0.1 0.2-0.5 0.4-0.7 0.1-0.2 0.4-0.1 0.8 0.2 1q0.1 0 0 0c-0.2 0.2-0.5 0.1-0.7-0.2-0.3 0.3-0.3 0.8-0.1 0.9 0 0-0.8 0.5-1.6 0.2-0.5-0.3-1-0.6-1.6-0.5 0.1-1 0.5-1.2 1.4-1.4 0.7-0.1 0.8-0.4 0.7-0.6-0.3-0.1-0.7 0.1-0.7 0.1-0.1-0.1 0-0.2 0-0.2 0-0.1 0-0.3 0-0.3 0.5 0 0.5-0.1 0.5-0.1 0.1-0.5-0.4-0.5-0.8-0.2-0.1-0.2-0.1-0.4-0.1-0.4-0.1 0-0.1-0.1-0.1-0.2 0-0.1 0.6-0.4 0.7-0.4 0.1-0.2 0.3-0.4 0.9-0.4 0-0.1-0.1-0.7-0.2-0.9q0-0.1 0.1 0c0.2 0.1 0.4 0.6 0.6 0.6 0 0 0.7-0.3 0.7-0.3 0 0 0.1 0.8 0.1 0.8 0.1 0.1 0.6 0 0.9 0.1q0.1 0 0 0c-0.2 0.1-0.8 0.3-0.8 0.5 0.3 0.4 0.1 1.1 0.1 1.3zm-3.2-0.5c0.2-0.1 0.5-0.1 0.6-0.1 0 0 0 0.1 0 0.1-0.6 0.1-0.6 0.4-1 0.4-0.2 0-0.5-0.3-0.4-0.7q0 0 0 0c0.1 0.2 0.3 0.4 0.8 0.3zm-7.6 12.8c0.4 0.5 0.8 0 1.3 0 0.2 0 0.5 0.1 0.6 0.6q0 0.1 0 0c0.6-0.7 0-1.2-0.4-1.2 0.1-0.1 0.6-0.4 1 0.1q0 0 0 0c0-1-0.7-1.1-1.2-0.6-0.1-0.4 0.2-0.7 0.5-0.7q0.1 0 0.1 0c-0.7-0.7-1.1 0.2-1.2 0.3-0.3 0.3-1.2-0.3-1.6-0.7 0 0 0.8-0.8 0.8-1.6q0-0.1 0-0.1 0-0.1 0 0 0.2 0 0.3 0c0.2 0 0.6 0 0.6-0.7q0 0-0.1 0c-0.1 0.1-0.2 0.2-0.2 0.2-0.7 0-2-2.2-3.6-2.2-0.5 0-1.3 0.3-1.6 0.7 0.1 0.2 0.2 0.4 0.2 0.6-0.1 0.2-0.3 0.4-0.5 0.4q-0.1 0.1 0 0.1c0.8 0.3 2.3 0.9 2.6 1.1 0.4 0.4 0.3 1 0.1 1.9-0.2 0.9-0.7 0.8-0.9 0.7q0 0 0 0.1c0.2 0.2 0.5 0.3 0.7 0.3 0.4 0 0.6-0.3 0.8-0.3 0.3 0 1.1 0.6 1.1 1 0 0.2-0.2 0.4-0.4 0.5q0 0.1 0 0.1c0.2 0 0.9 0.1 1-0.6zm17.7 0.6q0 0 0-0.1c-0.2-0.1-0.4-0.3-0.4-0.5 0-0.4 0.7-1 1.1-1 0.2 0 0.4 0.3 0.8 0.3 0.2 0 0.5-0.1 0.7-0.3q0-0.1 0-0.1c-0.2 0.1-0.7 0.2-0.9-0.7-0.2-0.9-0.3-1.5 0.1-1.9 0.3-0.2 1.8-0.8 2.6-1.1q0 0 0-0.1c-0.2 0-0.5-0.2-0.5-0.4 0-0.2 0-0.4 0.2-0.6-0.4-0.4-1.2-0.7-1.6-0.7-1.6 0-2.9 2.2-3.6 2.2-0.1 0-0.2-0.1-0.3-0.2q0 0 0 0c0 0.7 0.3 0.7 0.5 0.7q0.2 0 0.3-0.1 0.1 0 0.1 0.1-0.1 0-0.1 0.1c0 0.8 0.8 1.6 0.8 1.6-0.3 0.4-1.2 1-1.5 0.7-0.1-0.1-0.6-1-1.2-0.3q0 0 0 0c0.4 0 0.7 0.3 0.6 0.6-0.5-0.4-1.3-0.3-1.3 0.7q0.1 0 0.1 0c0.3-0.5 0.9-0.2 1-0.1-0.4 0-1 0.5-0.5 1.2q0 0.1 0.1 0c0-0.5 0.3-0.6 0.6-0.6 0.5 0 0.8 0.5 1.2 0 0.2 0.7 0.9 0.6 1.1 0.6zm-12.9-12.5c-0.1 0.1-0.3 0-0.3 0q0-0.1 0 0c0 0.1 0.2 0.3 0.4 0.3 0.1 0 0.3 0 0.3-0.1 0 0 1 0.3 1.4 0.4q-0.3 0.4-0.3 0.9c-0.4-0.3-1.9-1.1-1.9-1.1l-0.4 0.7c-0.1 0.1-0.5-0.2-0.4-0.3l0.3-0.5c-0.1-0.1-0.4 0-0.4 0q-0.1 0 0 0c0-0.1 0.2-0.4 0.6-0.3 0-0.3-0.4-0.2-0.5-0.1q0 0 0 0c0.1-0.2 0.4-0.4 0.8-0.2l0.2-0.2-0.4-0.4 0.2-0.2 0.3 0.3 1.7-2.4c0-0.1 0.4-0.2 0.5-0.2 0 0.1 0 0.5 0 0.5l-1.7 2.4 0.4 0.2-0.2 0.2-0.5-0.2zm4.3-1.9c-0.4 0-0.7 0.1-0.6 0.2 0.2 0.2 0.4 0.2 0.6-0.2z"/>
	</g>
	<g id="Isolatiemodus">
		<g>
			<path class="s3" d="m61.9 64.5c0.7-0.2 0.9-0.6 0.9-1.4v-7.5l-1-0.2v-0.5c0.6-0.1 1.2-0.1 1.7-0.1h0.6l4.3 7.1v-6.3l-1-0.2v-0.4q0.8-0.2 1.6-0.2c0.6 0 0.9 0 1.3 0.1v0.3c-0.7 0.2-0.9 0.5-0.9 1.5v8.1l-0.7 0.2-4.9-8.1v7.2l0.9 0.2v0.4q-0.7 0.2-1.4 0.2c-0.6 0-1 0-1.4-0.1z"/>
			<path class="s3" d="m75.3 60.7v-0.4c0-1.7-0.4-2-1.4-2-0.8 0-1.6 0.3-2.3 1q-0.1-0.2-0.1-0.5c0-1 0.8-1.5 2.6-1.5 1.6 0 2.5 0.7 2.5 2 0 0.4-0.1 1.2-0.1 1.6v2.5c0.1 0.3 0.3 0.6 0.6 0.8-0.2 0.3-0.7 0.6-1.1 0.8q-0.4-0.3-0.7-0.8c-0.4 0.5-1.2 0.8-2.1 0.8-1.1 0-1.9-0.8-1.9-1.7 0-1.4 1.5-2.6 4-2.6zm-1.5 3.4c0.5 0 1.1-0.2 1.5-0.5v-2.1c-1.8 0-2.7 0.7-2.7 1.5 0 0.7 0.4 1.1 1.2 1.1z"/>
			<path class="s3" d="m79.2 60.5v-2h-0.8v-0.5l1.7-1.7 0.5-0.1-0.1 1.4h2.1l-0.1 0.9h-2l-0.1 1.9q0 1 0 1.8c0 1.3 0.4 1.7 1 1.7 0.4 0 0.8-0.1 1.1-0.4l0.2 0.1q-0.1 1.4-1.7 1.4c-1.2 0-1.8-0.7-1.8-2.2-0.1-0.7 0-1.6 0-2.3z"/>
			<path class="s3" d="m83.4 64.5c0.4-0.2 0.8-0.5 0.8-0.8v-5.3l-1-0.4v-0.3c0.7-0.2 1.5-0.3 1.9-0.3h0.5l-0.1 0.8v5.9l0.9 0.2v0.3c-0.5 0.2-1 0.3-1.8 0.3-0.4 0-0.8 0-1.2-0.1v-0.3zm0.7-9.4c0-0.5 0.3-0.9 0.9-0.9 0.4 0 0.8 0.3 0.8 0.8 0 0.5-0.4 1-0.9 1-0.5 0-0.8-0.4-0.8-0.9z"/>
			<path class="s3" d="m91.3 57.3c1.9 0 3.3 1.4 3.3 3.5 0 2.6-1.7 4.2-3.6 4.2-1.9 0-3.4-1.3-3.4-3.6 0-2.5 1.8-4.1 3.7-4.1zm-0.2 6.8c1.1 0 2.1-1 2.1-3.1 0-1.8-0.9-2.8-2-2.8-1.1 0-2.2 1-2.2 3.1 0 1.9 1 2.8 2.1 2.8z"/>
			<path class="s3" d="m96.1 64.5c0.4-0.2 0.8-0.5 0.8-0.8v-5.3l-1-0.4v-0.3c0.7-0.2 1.4-0.3 1.9-0.3h0.3v0.8c0.6-0.5 1.4-0.8 2.3-0.8 1.3 0 2.2 0.8 2.2 2.4v4.3l0.8 0.2v0.3q-0.6 0.3-1.6 0.3c-0.4 0-0.7 0-1-0.1v-0.3c0.4-0.2 0.5-0.5 0.5-1v-3c0-1.5-0.6-2.1-1.5-2.1-0.7 0-1.3 0.2-1.6 0.5v5.2l0.8 0.2v0.3c-0.5 0.2-1 0.3-1.8 0.3-0.3 0-0.8 0-1.1-0.1z"/>
			<path class="s3" d="m108.5 60.7v-0.4c0-1.7-0.4-2-1.4-2-0.8 0-1.6 0.3-2.3 1q0-0.2 0-0.5c0-1 0.7-1.5 2.5-1.5 1.6 0 2.5 0.7 2.5 2 0 0.4 0 1.2-0.1 1.6v2.5c0.1 0.3 0.3 0.6 0.6 0.8-0.2 0.3-0.6 0.6-1 0.8q-0.5-0.3-0.7-0.8c-0.5 0.5-1.3 0.8-2.1 0.8-1.2 0-2-0.8-2-1.7 0-1.4 1.5-2.6 4-2.6zm-1.5 3.4c0.5 0 1.1-0.2 1.5-0.5v-2.1c-1.7 0-2.7 0.7-2.7 1.5 0 0.7 0.4 1.1 1.2 1.1z"/>
			<path class="s3" d="m115.5 60.7v-0.4c0-1.7-0.4-2-1.3-2-0.9 0-1.7 0.3-2.4 1q0-0.2 0-0.5c0-1 0.7-1.5 2.5-1.5 1.6 0 2.5 0.7 2.5 2 0 0.4 0 1.2 0 1.6l-0.1 2.5c0.1 0.3 0.4 0.6 0.6 0.8-0.2 0.3-0.6 0.6-1 0.8q-0.4-0.3-0.7-0.8c-0.4 0.5-1.3 0.8-2.1 0.8-1.2 0-2-0.8-2-1.7 0-1.4 1.5-2.6 4-2.6zm-1.4 3.4c0.4 0 1.1-0.2 1.4-0.5v-2.1c-1.7 0-2.7 0.7-2.7 1.5 0.1 0.7 0.5 1.1 1.3 1.1z"/>
			<path class="s3" d="m118.8 64.5c0.4-0.2 0.8-0.5 0.8-0.8v-9l-1-0.5v-0.3c0.7-0.2 1.4-0.3 1.8-0.3h0.5v0.9 9.6l0.8 0.2v0.3c-0.5 0.2-1 0.3-1.8 0.3-0.3 0-0.8 0-1.1-0.1z"/>
			<path class="s3" d="m130.8 54.7c1 0 1.7 0.2 2.2 0.4l-0.1 2.2h-0.4l-0.1-0.3c-0.2-0.9-0.7-1.3-1.8-1.3-1.5 0-3 1.5-3 4.2 0 2.9 1.4 4.2 2.9 4.2 1.1 0 1.7-0.4 2-1.2l0.2-0.4h0.4l-0.1 2c-0.6 0.3-1.6 0.5-2.7 0.5-2.3 0-4.2-1.6-4.2-4.9 0-3.2 2.2-5.4 4.7-5.4z"/>
			<path class="s3" d="m136.7 64.3l-2.5-6.1-0.6-0.4v-0.4h2.9v0.4l-0.9 0.3 1.7 4.7 1.5-4.6-0.9-0.5v-0.3h2.3v0.3l-0.4 0.4-2.2 6c-1.2 3.4-2.4 4.5-3.2 4.5-0.6 0-1-0.3-1-1.2 0.3 0 0.5 0 0.7 0 0.7 0 1.6-0.7 2.3-2.4z"/>
			<path class="s3" d="m141.6 63.2v-8.5l-1-0.5v-0.3c0.7-0.2 1.4-0.3 1.9-0.3h0.5l-0.1 0.9v3.5c0.5-0.4 1.2-0.7 2-0.7 1.5 0 2.8 1.1 2.8 3.3 0 2.8-1.9 4.3-4 4.3-0.7 0-1.6-0.1-2.2-0.2 0.1-0.5 0.1-1.1 0.1-1.5zm2.1 0.9c1.5 0 2.6-1 2.6-3.3 0-1.6-0.9-2.5-1.9-2.5-0.6 0-1.1 0.2-1.5 0.4v5.2q0.4 0.2 0.8 0.2z"/>
			<path class="s3" d="m152.2 57.3c1.7 0 2.7 1.1 2.7 2.9q0 0.4 0 1h-4.6c0 1.7 1 2.7 2.3 2.7 0.7 0 1.6-0.3 2.2-0.7 0 0.1 0 0.3 0 0.4 0 0.7-1 1.4-2.6 1.4-1.8 0-3.3-1.4-3.3-3.6 0-2.7 1.7-4.1 3.3-4.1zm1.4 3.1c0-1.6-0.6-2.3-1.5-2.3-0.9 0-1.8 1-1.8 2.3z"/>
			<path class="s3" d="m156.2 64.5c0.4-0.2 0.8-0.5 0.8-0.8v-5.3l-1-0.4v-0.3c0.7-0.2 1.4-0.3 1.9-0.3h0.3v1.1h0.1l0.4-0.5c0.4-0.5 0.8-0.7 1.4-0.7q0.8 0 0.8 0.7c0 0.3-0.1 0.6-0.3 0.9-0.3-0.2-0.6-0.4-0.9-0.4q-0.8 0-1.4 0.7v4.9l1.1 0.2v0.3c-0.6 0.2-1.1 0.3-2 0.3-0.4 0-0.8 0-1.2-0.1v-0.3z"/>
			<path class="s3" d="m164.4 62.4h0.5l0.1 0.4c0.2 0.8 0.7 1.2 1.9 1.2 1.2 0 2-0.7 2-1.6 0-0.6-0.4-1.2-1.3-1.8l-1.5-0.8q-1.4-0.8-1.4-2.4c0-1.5 1.4-2.7 3.3-2.7 0.9 0 1.5 0.1 2.1 0.4l-0.1 2.2h-0.5v-0.4c-0.2-0.9-0.7-1.2-1.7-1.2-1.1 0-1.8 0.7-1.8 1.5 0 0.6 0.3 1.1 1.1 1.5l1.6 0.9c1 0.5 1.6 1.4 1.6 2.4 0 1.6-1.6 3-3.4 3-1 0-1.8-0.1-2.4-0.4v-2.2z"/>
			<path class="s3" d="m174.8 57.3c1.7 0 2.7 1.1 2.7 2.9q0 0.4 0 1h-4.6c0 1.7 1 2.7 2.3 2.7 0.7 0 1.6-0.3 2.2-0.7 0 0.1 0 0.3 0 0.4 0 0.7-1 1.4-2.6 1.4-1.8 0-3.2-1.4-3.2-3.6 0-2.7 1.6-4.1 3.2-4.1zm1.4 3.1c0-1.6-0.6-2.3-1.5-2.3-0.9 0-1.8 1-1.8 2.3z"/>
			<path class="s3" d="m182.3 57.3c1.3 0 1.7 0.4 1.7 0.9q0 0.4-0.2 0.8c-0.6-0.5-1.1-0.7-1.8-0.7-1.1 0-2 1-2 2.9 0 1.8 1 2.7 2.2 2.7 0.6 0 1.3-0.2 1.8-0.6 0 0.1 0.1 0.3 0.1 0.4 0 0.7-0.8 1.3-2.3 1.3-1.7 0-3.1-1.4-3.1-3.6 0-2.5 1.6-4.1 3.6-4.1z"/>
			<path class="s3" d="m185.8 58.4l-0.8-0.4v-0.3c0.6-0.2 1.3-0.3 1.7-0.3h0.5l-0.1 0.8v3.5c0 1.7 0.5 2.2 1.5 2.2 0.6 0 1.2-0.2 1.5-0.5v-5l-0.9-0.4v-0.3c0.7-0.2 1.4-0.3 1.8-0.3h0.5l-0.1 0.8v5.3c0.1 0.2 0.3 0.5 0.6 0.8-0.2 0.2-0.7 0.5-1.1 0.7-0.3-0.2-0.6-0.5-0.7-0.9-0.4 0.4-1.3 0.8-2.2 0.8-1.3 0-2.2-0.7-2.2-2.5v-4z"/>
			<path class="s3" d="m193.5 64.5c0.4-0.2 0.8-0.5 0.8-0.8v-5.3l-1-0.4v-0.3c0.7-0.2 1.4-0.3 1.9-0.3h0.3v1.1h0.1l0.4-0.5c0.4-0.5 0.8-0.7 1.3-0.7q0.9 0 0.9 0.7c0 0.3-0.1 0.6-0.3 0.9-0.3-0.2-0.6-0.4-1-0.4q-0.7 0-1.3 0.7v4.9l1.1 0.2v0.3c-0.6 0.2-1.1 0.3-2 0.3-0.4 0-0.8 0-1.2-0.1v-0.3z"/>
			<path class="s3" d="m198.8 64.5c0.4-0.2 0.8-0.5 0.8-0.8v-5.3l-1-0.4v-0.3c0.7-0.2 1.4-0.3 1.9-0.3h0.5l-0.1 0.8v5.9l0.8 0.2v0.3c-0.5 0.2-1 0.3-1.8 0.3-0.3 0-0.8 0-1.1-0.1zm0.6-9.5c0-0.5 0.4-0.9 0.9-0.9 0.4 0 0.8 0.3 0.8 0.9 0 0.5-0.3 0.9-0.8 0.9-0.5 0-0.9-0.4-0.9-0.9z"/>
			<path class="s3" d="m203.8 60.5v-2h-0.8v-0.5l1.6-1.7 0.5-0.1v1.4h2l-0.1 0.9h-2v1.9q0 1 0 1.8c0 1.3 0.3 1.7 0.9 1.7 0.5 0 0.9-0.1 1.2-0.4l0.1 0.1q0 1.4-1.6 1.4c-1.3 0-1.9-0.7-1.9-2.2 0-0.7 0-1.6 0.1-2.3z"/>
			<path class="s3" d="m210 64.3l-2.4-6.1-0.6-0.4v-0.4h2.8v0.4l-0.8 0.3 1.6 4.7h0.1l1.4-4.6-0.8-0.5v-0.3h2.3v0.3l-0.4 0.4-2.2 6c-1.2 3.4-2.4 4.5-3.2 4.5-0.6 0-1-0.3-1-1.2 0.2 0 0.5 0 0.7 0 0.7 0 1.6-0.7 2.3-2.4z"/>
			<path class="s3" d="m222 54.7c1.1 0 1.8 0.2 2.3 0.4l-0.1 2.2h-0.4l-0.1-0.3c-0.3-0.9-0.7-1.3-1.8-1.3-1.6 0-3 1.5-3 4.2 0 2.9 1.4 4.2 2.8 4.2 1.2 0 1.8-0.4 2.1-1.2l0.1-0.4h0.5l-0.2 2c-0.6 0.3-1.5 0.5-2.7 0.5-2.2 0-4.2-1.6-4.2-4.9 0-3.2 2.3-5.4 4.7-5.4z"/>
			<path class="s3" d="m229 57.3c1.6 0 2.6 1.1 2.6 2.9q0 0.4 0 1h-4.5c0 1.7 1 2.7 2.2 2.7 0.8 0 1.6-0.3 2.2-0.7 0.1 0.1 0.1 0.3 0.1 0.4 0 0.7-1 1.4-2.7 1.4-1.7 0-3.2-1.4-3.2-3.6 0-2.7 1.6-4.1 3.3-4.1zm1.4 3.1c0-1.6-0.6-2.3-1.6-2.3-0.8 0-1.7 1-1.7 2.3z"/>
			<path class="s3" d="m233 64.5c0.4-0.2 0.8-0.5 0.8-0.8v-5.3l-1-0.4v-0.3c0.7-0.2 1.4-0.3 1.9-0.3h0.3v0.8c0.6-0.5 1.4-0.8 2.3-0.8 1.3 0 2.2 0.8 2.2 2.4v4.3l0.8 0.2v0.3q-0.6 0.3-1.6 0.3c-0.4 0-0.7 0-1-0.1v-0.3c0.3-0.2 0.5-0.5 0.5-1v-3c0-1.5-0.6-2.1-1.5-2.1-0.7 0-1.3 0.2-1.6 0.5v5.2l0.8 0.2v0.3c-0.5 0.2-1 0.3-1.8 0.3-0.3 0-0.8 0-1.1-0.1 0 0 0-0.3 0-0.3z"/>
			<path class="s3" d="m242.3 60.5v-2h-0.8v-0.5l1.6-1.7 0.5-0.1v1.4h2l-0.1 0.9h-2v1.9q0 1 0 1.8c0 1.3 0.4 1.7 0.9 1.7 0.5 0 0.9-0.1 1.2-0.4l0.1 0.1q0 1.4-1.6 1.4c-1.3 0-1.9-0.7-1.9-2.2 0-0.7 0-1.6 0.1-2.3z"/>
			<path class="s3" d="m246.5 64.5c0.4-0.2 0.8-0.5 0.8-0.8v-5.3l-1-0.4v-0.3c0.7-0.2 1.4-0.3 1.9-0.3h0.3v1.1h0.1l0.4-0.5c0.4-0.5 0.8-0.7 1.3-0.7q0.9 0 0.9 0.7c0 0.3-0.1 0.6-0.3 0.9-0.3-0.2-0.6-0.4-1-0.4q-0.7 0-1.3 0.7v4.9l1.1 0.2v0.3c-0.6 0.2-1.1 0.3-2 0.3-0.4 0-0.8 0-1.2-0.1z"/>
			<path class="s3" d="m252.5 58.4l-0.9-0.4v-0.3c0.7-0.2 1.3-0.3 1.7-0.3h0.5l-0.1 0.8v3.5c0 1.7 0.6 2.2 1.5 2.2 0.6 0 1.2-0.2 1.6-0.5v-5l-0.9-0.4v-0.3c0.7-0.2 1.3-0.3 1.7-0.3h0.5l-0.1 0.8v5.3c0.1 0.2 0.4 0.5 0.6 0.8-0.2 0.2-0.7 0.5-1 0.7-0.3-0.2-0.6-0.5-0.8-0.9-0.4 0.4-1.2 0.8-2.2 0.8-1.3 0-2.1-0.7-2.1-2.5 0 0 0-4 0-4z"/>
			<path class="s3" d="m260.1 64.5c0.4-0.2 0.8-0.5 0.8-0.8v-5.3l-1-0.4v-0.3c0.7-0.2 1.4-0.3 1.9-0.3h0.4v0.8c0.5-0.5 1.3-0.8 2.2-0.8 0.8 0 1.5 0.3 1.8 0.9 0.5-0.5 1.5-0.9 2.4-0.9 1.3 0 2.1 0.7 2.1 2.4v4.3l0.8 0.2v0.3q-0.6 0.3-1.6 0.3c-0.3 0-0.7 0-1-0.1v-0.3c0.4-0.2 0.6-0.5 0.6-1v-3c0-1.5-0.7-2.1-1.6-2.1-0.6 0-1.1 0.2-1.5 0.4 0.1 0.3 0.1 0.7 0.1 1.1v4.2l0.8 0.2v0.3q-0.6 0.3-1.6 0.3c-0.4 0-0.7 0-1-0.1v-0.3c0.3-0.2 0.5-0.5 0.5-1v-2.9c0-1.7-0.5-2.2-1.5-2.2-0.6 0-1.2 0.2-1.5 0.5v5.2l0.9 0.2v0.3c-0.6 0.2-1 0.3-1.8 0.3-0.4 0-0.8 0-1.2-0.1z"/>
			<path class="s4" d="m61.1 82.1c0.3-0.2 0.5-0.3 0.6-0.6l1.9-8.3-0.8-0.2v-0.4c0.4-0.1 1.1-0.2 1.6-0.2h0.5l1.4 7.4 2.5-7.4h0.4c0.4 0 1.1 0.1 1.5 0.2v0.3l-0.7 0.2 0.3 8.6 0.9 0.2v0.4c-0.5 0.1-0.8 0.2-1.3 0.2-0.6 0-1-0.1-1.3-0.2v-0.2c0.3-0.2 0.4-0.4 0.4-0.8v-6.9h-0.1l-2.8 8.1h-0.4l-1.6-8.1-1.5 7.3 0.9 0.2v0.3c-0.4 0.2-0.8 0.3-1.3 0.3-0.4 0-0.7-0.1-1.1-0.2 0 0 0-0.2 0-0.2z"/>
			<path class="s4" d="m72.5 79.7l0.5-3.1 0.1-0.9-1-0.3v-0.3c0.5-0.2 1-0.3 1.6-0.3q0.4 0 0.7 0.1l-0.7 4.6c-0.1 0.4-0.1 1.2-0.1 1.6 0 0.5 0.2 0.8 0.6 0.9v0.3q-0.5 0.2-1.2 0.2c-0.5 0-0.7-0.3-0.7-0.7 0-0.5 0.1-1.4 0.2-2.1zm0.7-7.1c0-0.5 0.4-1 0.9-1 0.4 0 0.7 0.3 0.7 0.8 0 0.5-0.4 0.9-0.9 0.9-0.4 0-0.7-0.3-0.7-0.7z"/>
			<path class="s4" d="m76.5 75.7l-1-0.3v-0.3c0.5-0.2 1-0.3 1.5-0.3q0.4 0 0.7 0.1l-0.5 2.4c0.7-1.6 1.7-2.5 2.8-2.5 0.7 0 1.2 0.5 1.2 1.4 0 0.5-0.1 1.3-0.2 2l-0.3 1.7c-0.1 0.3-0.1 0.9-0.1 1.3 0 0.5 0.2 0.7 0.7 0.8v0.2q-0.5 0.3-1.2 0.3c-0.5 0-0.8-0.2-0.8-0.7 0-0.4 0.1-1.1 0.2-1.6l0.3-1.8c0.1-0.5 0.1-1.2 0.1-1.6 0-0.7-0.3-0.9-0.6-0.9-0.9 0-2.2 1.7-2.2 3.9l-0.1 2.6h-1.3z"/>
			<path class="s4" d="m83 79.7l0.5-3.1v-0.9l-0.9-0.3v-0.3c0.5-0.2 1-0.3 1.6-0.3q0.4 0 0.7 0.1l-0.7 4.6c-0.1 0.4-0.2 1.2-0.2 1.6 0 0.5 0.2 0.8 0.7 0.9v0.3q-0.5 0.2-1.2 0.2c-0.5 0-0.7-0.3-0.7-0.7-0.1-0.5 0.1-1.4 0.2-2.1zm0.7-7.1c0-0.5 0.4-1 0.9-1 0.4 0 0.7 0.3 0.7 0.8 0 0.5-0.4 0.9-0.9 0.9-0.4 0-0.7-0.3-0.7-0.7z"/>
			<path class="s4" d="m85.6 81q0.7 0.7 1.5 0.7c0.8 0 1.3-0.4 1.3-1.1 0-0.5-0.2-0.8-0.9-1.5l-0.6-0.5c-0.7-0.7-0.9-1.1-0.9-1.8 0-1 1-2 2.4-2 1.2 0 1.7 0.3 1.7 0.8 0 0.3-0.1 0.6-0.2 0.8-0.5-0.4-1.1-0.7-1.7-0.7-0.7 0-1.1 0.3-1.1 0.8 0 0.5 0.2 0.8 1 1.5l0.6 0.5c0.7 0.7 1 1.1 1 1.8 0 1.2-1.3 2.3-2.9 2.3-1 0-1.4-0.3-1.4-0.9 0-0.3 0.1-0.5 0.2-0.7z"/>
			<path class="s4" d="m91.6 76.9l0.2-1c-0.4 0-0.6 0-0.9-0.1v-0.2c0.5-0.7 1.3-1.3 2.1-1.8h0.2l-0.2 1.2h0.4c0.4 0 0.8 0 1.2-0.1 0 0.7-0.4 1-1.3 1h-0.5l-0.2 1.6c-0.2 0.7-0.4 2-0.4 2.6 0 1.1 0.6 1.5 1.2 1.5 0.3 0 0.4 0 0.7-0.1v0.3c-0.2 0.4-0.7 0.7-1.5 0.7-1 0-1.5-0.7-1.5-1.9 0-0.9 0.2-2.5 0.5-3.7z"/>
			<path class="s4" d="m98.1 74.8c1 0 1.6 0.5 1.6 1.6 0 1.8-1.8 2.9-3.7 2.9 0 1.9 0.5 2.3 1.4 2.3 0.6 0 1.4-0.3 1.7-0.7 0.1 0 0.2 0.2 0.2 0.3 0 0.8-1 1.4-2.3 1.4-1.3 0-2.2-0.9-2.2-2.7 0-3.5 1.8-5.1 3.3-5.1zm0.4 1.8c0-0.7-0.3-1-0.7-1-0.7 0-1.7 1.2-1.7 3 1.4 0 2.4-0.8 2.4-2z"/>
			<path class="s4" d="m101.3 75.7l-0.9-0.3v-0.3c0.5-0.2 0.9-0.3 1.5-0.3 0.2 0 0.4 0.1 0.6 0.1l-0.4 2.3 0.8-1.4c0.4-0.6 0.8-0.9 1.3-0.9 0.3 0 0.5 0.2 0.5 0.5 0 0.3 0 0.6-0.2 0.8q-0.2 0-0.4 0c-1 0-2 1-2.1 3.9l-0.1 2.3h-1.3z"/>
			<path class="s4" d="m105.2 79.7l0.5-3.1 0.1-0.9-0.9-0.3v-0.3c0.5-0.2 1-0.3 1.5-0.3q0.4 0 0.7 0.1l-0.7 4.6c0 0.4-0.1 1.2-0.1 1.6 0 0.5 0.2 0.8 0.6 0.9v0.3q-0.4 0.2-1.1 0.2c-0.5 0-0.8-0.3-0.8-0.7 0-0.5 0.2-1.4 0.2-2.1zm0.8-7.1c0-0.5 0.4-1 0.9-1 0.4 0 0.7 0.3 0.7 0.8 0 0.5-0.5 0.9-0.9 0.9-0.4 0-0.7-0.3-0.7-0.7z"/>
			<path class="s4" d="m111.5 74.8c1.1 0 1.6 0.5 1.6 1.6 0 1.8-1.8 2.9-3.7 2.9 0 1.9 0.5 2.3 1.4 2.3 0.6 0 1.4-0.3 1.7-0.7 0.1 0 0.2 0.2 0.2 0.3 0 0.8-1 1.4-2.3 1.4-1.3 0-2.2-0.9-2.2-2.7 0-3.5 1.8-5.1 3.3-5.1zm0.4 1.8c0-0.7-0.3-1-0.7-1-0.7 0-1.7 1.2-1.7 3 1.4 0 2.4-0.8 2.4-2z"/>
			<path class="s4" d="m116.6 75.7l-0.6-0.3v-0.3c0.5-0.2 0.8-0.3 1.2-0.3q0.4 0 0.7 0.1l0.3 6.4c1.2-1.4 2-3.6 2-5.2 0-0.4-0.2-0.6-0.6-0.8v-0.3q0.4-0.2 1-0.2c0.5 0 0.8 0.3 0.8 0.9 0 1.6-1.5 4.9-3 6.4-0.3 0.2-0.5 0.4-0.8 0.5h-0.3z"/>
			<path class="s4" d="m122 79.8c0-3.1 1.8-5 3.9-5 0.5 0 1.2 0.1 1.7 0.3l-0.5 2.7c-0.2 0.8-0.3 2.2-0.4 2.9 0 1 0.2 1.2 0.8 1.2v0.4c-0.4 0.1-0.9 0.2-1.4 0.2-0.3 0-0.5-0.1-0.7-0.1l0.4-2.3c-0.6 1.5-1.6 2.5-2.4 2.5-0.7 0-1.4-1-1.4-2.8zm3.9-1.5l0.4-2.5c-0.2-0.1-0.6-0.1-0.8-0.1-1.3 0-2.3 1.3-2.3 3.9 0 1.4 0.4 1.9 0.8 1.9 0.6 0 1.5-1 1.9-3.2z"/>
			<path class="s4" d="m129.6 75.7l-1-0.3v-0.3c0.5-0.2 1-0.3 1.6-0.3q0.3 0 0.6 0.1l-0.5 2.4c0.7-1.6 1.8-2.5 2.8-2.5 0.7 0 1.2 0.5 1.2 1.4 0 0.5-0.1 1.3-0.2 2l-0.3 1.7c0 0.3-0.1 0.9-0.1 1.3 0 0.5 0.3 0.7 0.7 0.8v0.2q-0.5 0.3-1.2 0.3c-0.5 0-0.8-0.2-0.8-0.7 0-0.4 0.2-1.1 0.2-1.6l0.3-1.8c0.1-0.5 0.2-1.2 0.2-1.6 0-0.7-0.3-0.9-0.7-0.9-0.9 0-2.1 1.7-2.2 3.9l-0.1 2.6h-1.3z"/>
			<path class="s4" d="m138.6 80.6l0.9-7.4-0.9-0.2v-0.4c0.5-0.1 0.9-0.2 1.5-0.2 0.4 0 0.9 0.1 1.2 0.2v0.2c-0.4 0.1-0.6 0.4-0.6 0.7l-0.8 6.9c-0.4 3.1-1.2 3.9-2.2 3.9q-0.4 0-0.7-0.1v-0.2c0.8-0.6 1.4-1.7 1.6-3.4z"/>
			<path class="s4" d="m142.1 79.9l0.4-1.8c0.1-0.5 0.2-1.4 0.2-1.9 0-0.5-0.3-0.7-0.7-0.8v-0.3c0.3-0.2 0.7-0.3 1.2-0.3 0.5 0 0.7 0.3 0.7 0.7 0 0.6-0.1 1.5-0.3 2.4l-0.3 1.7c-0.1 0.4-0.2 0.9-0.2 1.2 0 0.4 0.3 0.7 0.6 0.7 0.7 0 2-1.3 2.2-3.7l0.1-2.7c0.4-0.1 1-0.3 1.4-0.3l-0.4 2.5c-0.2 1-0.4 2.4-0.4 3.4 0 1 0.2 1.2 0.7 1.2v0.4q-0.6 0.2-1.4 0.2-0.3 0-0.6-0.1l0.4-2.1c-0.6 1-1.7 2.2-2.6 2.2-0.7 0-1.2-0.5-1.2-1.4 0-0.4 0.1-0.8 0.2-1.2z"/>
			<path class="s4" d="m148.2 81q0.6 0.7 1.5 0.7c0.7 0 1.3-0.4 1.3-1.1 0-0.5-0.2-0.8-1-1.5l-0.5-0.5c-0.7-0.7-0.9-1.1-0.9-1.8 0-1 1-2 2.4-2 1.1 0 1.7 0.3 1.7 0.8 0 0.3-0.1 0.6-0.3 0.8-0.5-0.4-1.1-0.7-1.7-0.7-0.7 0-1 0.3-1 0.8 0 0.5 0.2 0.8 0.9 1.5l0.6 0.5c0.8 0.7 1 1.1 1 1.8 0 1.2-1.2 2.3-2.9 2.3-0.9 0-1.4-0.3-1.4-0.9 0-0.3 0.1-0.5 0.3-0.7z"/>
			<path class="s4" d="m154.1 76.9l0.2-1c-0.3 0-0.5 0-0.9-0.1v-0.2c0.5-0.7 1.3-1.3 2.1-1.8h0.3l-0.3 1.2h0.4c0.5 0 0.8 0 1.2-0.1 0 0.7-0.3 1-1.3 1h-0.4l-0.3 1.6c-0.1 0.7-0.3 2-0.3 2.6 0 1.1 0.5 1.5 1.2 1.5 0.2 0 0.4 0 0.6-0.1v0.3c-0.1 0.4-0.7 0.7-1.4 0.7-1 0-1.6-0.7-1.6-1.9 0-0.9 0.3-2.5 0.5-3.7z"/>
			<path class="s4" d="m157.8 79.7l0.5-3.1 0.1-0.9-0.9-0.3v-0.3c0.5-0.2 0.9-0.3 1.5-0.3q0.4 0 0.7 0.1l-0.7 4.6c-0.1 0.4-0.1 1.2-0.1 1.6 0 0.5 0.2 0.8 0.6 0.9v0.3q-0.5 0.2-1.2 0.2c-0.5 0-0.7-0.3-0.7-0.7 0-0.5 0.1-1.4 0.2-2.1zm0.8-7.1c-0.1-0.5 0.4-1 0.8-1 0.4 0 0.7 0.3 0.7 0.8 0 0.5-0.4 0.9-0.8 0.9-0.5 0-0.8-0.3-0.8-0.7z"/>
			<path class="s4" d="m161.6 76.9l0.2-1c-0.4 0-0.6 0-0.9-0.1v-0.2c0.5-0.7 1.3-1.3 2.1-1.8h0.2l-0.2 1.2h0.4c0.4 0 0.8 0 1.2-0.1 0 0.7-0.4 1-1.3 1h-0.5l-0.2 1.6c-0.2 0.7-0.3 2-0.3 2.6 0 1.1 0.5 1.5 1.1 1.5 0.3 0 0.4 0 0.7-0.1v0.3c-0.2 0.4-0.7 0.7-1.4 0.7-1.1 0-1.6-0.7-1.6-1.9 0-0.9 0.2-2.5 0.5-3.7z"/>
			<path class="s4" d="m165.3 79.7l0.5-3.1 0.1-0.9-1-0.3v-0.3c0.5-0.2 1-0.3 1.6-0.3q0.4 0 0.7 0.1l-0.7 4.6c-0.1 0.4-0.1 1.2-0.1 1.6 0 0.5 0.1 0.8 0.6 0.9v0.3q-0.5 0.2-1.2 0.2c-0.5 0-0.7-0.3-0.7-0.7 0-0.5 0.1-1.4 0.2-2.1zm0.7-7.1c0-0.5 0.4-1 0.9-1 0.4 0 0.7 0.3 0.7 0.8 0 0.5-0.4 0.9-0.9 0.9-0.4 0-0.7-0.3-0.7-0.7z"/>
			<path class="s4" d="m171.5 74.8c1.1 0 1.7 0.5 1.7 1.6 0 1.8-1.9 2.9-3.7 2.9 0 1.9 0.5 2.3 1.4 2.3 0.5 0 1.3-0.3 1.6-0.7 0.1 0 0.2 0.2 0.2 0.3 0 0.8-1 1.4-2.3 1.4-1.3 0-2.1-0.9-2.1-2.7 0-3.5 1.7-5.1 3.2-5.1zm0.4 1.8c0-0.7-0.2-1-0.7-1-0.7 0-1.7 1.2-1.7 3 1.4 0 2.4-0.8 2.4-2z"/>
			<path class="s4" d="m179.6 74.8c1 0 1.6 0.5 1.6 1.6 0 1.8-1.9 2.9-3.7 2.9 0 1.9 0.5 2.3 1.4 2.3 0.5 0 1.4-0.3 1.7-0.7 0 0 0.1 0.2 0.1 0.3 0 0.8-1 1.4-2.2 1.4-1.3 0-2.2-0.9-2.2-2.7 0-3.5 1.8-5.1 3.3-5.1zm0.4 1.8c0-0.7-0.3-1-0.8-1-0.7 0-1.6 1.2-1.6 3 1.4 0 2.4-0.8 2.4-2z"/>
			<path class="s4" d="m182.8 75.7l-0.9-0.3v-0.3c0.5-0.2 0.9-0.3 1.5-0.3q0.3 0 0.6 0.1l-0.5 2.4h0.1c0.7-1.6 1.7-2.5 2.7-2.5 0.7 0 1.3 0.5 1.3 1.4 0 0.5-0.2 1.3-0.3 2l-0.2 1.7c-0.1 0.3-0.2 0.9-0.2 1.3 0 0.5 0.3 0.7 0.8 0.8v0.2q-0.6 0.3-1.3 0.3c-0.5 0-0.7-0.2-0.7-0.7 0-0.4 0.1-1.1 0.2-1.6l0.2-1.8c0.1-0.5 0.2-1.2 0.2-1.6 0-0.7-0.3-0.9-0.7-0.9-0.9 0-2.1 1.7-2.2 3.9v2.6h-1.4z"/>
			<path class="s4" d="m191.9 73.2l-0.7-0.3v-0.3c0.5-0.1 0.9-0.2 1.3-0.2 0.5 0 0.8 0.1 1.2 0.2v0.2c-0.3 0.1-0.4 0.3-0.4 0.5l0.9 7.5 2.8-7.6-0.9-0.3v-0.3q0.7-0.2 1.5-0.2c0.3 0 0.7 0.1 0.9 0.2v0.2q-0.4 0.1-0.5 0.5l-3.6 9.2h-1.1z"/>
			<path class="s4" d="m201.1 74.8c1.1 0 1.7 0.5 1.7 1.6 0 1.8-1.9 2.9-3.7 2.9 0 1.9 0.5 2.3 1.4 2.3 0.5 0 1.3-0.3 1.7-0.7 0 0 0.1 0.2 0.1 0.3 0 0.8-1 1.4-2.2 1.4-1.3 0-2.2-0.9-2.2-2.7 0-3.5 1.7-5.1 3.2-5.1zm0.4 1.8c0-0.7-0.2-1-0.7-1-0.7 0-1.7 1.2-1.7 3 1.5 0 2.4-0.8 2.4-2z"/>
			<path class="s4" d="m203.8 79.7l0.5-3.1 0.1-0.9-0.9-0.3v-0.3c0.5-0.2 1-0.3 1.6-0.3q0.4 0 0.6 0.1l-0.7 4.6c0 0.4-0.1 1.2-0.1 1.6 0 0.5 0.2 0.8 0.6 0.9v0.3q-0.4 0.2-1.1 0.2c-0.5 0-0.8-0.3-0.8-0.7 0-0.5 0.2-1.4 0.2-2.1zm0.8-7.1c0-0.5 0.4-1 0.9-1 0.4 0 0.7 0.3 0.7 0.8 0 0.5-0.4 0.9-0.9 0.9-0.4 0-0.7-0.3-0.7-0.7z"/>
			<path class="s4" d="m207.3 79.7l1.1-7.7-1-0.2v-0.3c0.5-0.2 0.9-0.3 1.5-0.3 0.3 0 0.6 0 0.7 0.1l-1.1 8.1c-0.1 0.5-0.1 1.3-0.1 1.7 0 0.5 0.2 0.8 0.7 0.9v0.3q-0.5 0.2-1.2 0.2-0.8 0-0.8-0.7c0-0.5 0.1-1.5 0.2-2.1z"/>
			<path class="s4" d="m210.7 79.7l0.5-3.1 0.1-0.9-0.9-0.3v-0.3c0.5-0.2 0.9-0.3 1.5-0.3q0.4 0 0.7 0.1l-0.7 4.6c-0.1 0.4-0.1 1.2-0.1 1.6 0 0.5 0.2 0.8 0.6 0.9v0.3q-0.5 0.2-1.2 0.2c-0.5 0-0.7-0.3-0.7-0.7 0-0.5 0.1-1.4 0.2-2.1zm0.8-7.1c-0.1-0.5 0.4-1 0.8-1 0.4 0 0.7 0.3 0.7 0.8 0 0.5-0.4 0.9-0.8 0.9-0.5 0-0.8-0.3-0.8-0.7z"/>
			<path class="s4" d="m213.6 84.5c0 0.5 0.5 1 1.4 1 1.1 0 2-0.9 2.2-2.7l0.3-2.7c-0.6 1.5-1.6 2.4-2.4 2.4-0.7 0-1.4-0.8-1.4-2.7 0-3 1.7-5 3.8-5 0.6 0 1.3 0.1 1.8 0.2l-0.6 3c-0.1 0.8-0.2 2.4-0.2 3.2 0 3.5-1.7 5-3.8 5-1.4 0-2.2-0.6-2.2-1.4 0-0.8 0.8-1.4 1.5-1.4-0.3 0.4-0.4 0.7-0.4 1.1zm4-6.3l0.4-2.4q-0.4-0.1-0.8-0.1c-1.2 0-2.3 1.3-2.3 3.9 0 1.4 0.4 1.9 0.8 1.9 0.6 0 1.6-1 1.9-3.3z"/>
			<path class="s4" d="m221 77.3l0.5-5.3-0.9-0.2v-0.3c0.5-0.2 1-0.3 1.5-0.3q0.4 0 0.7 0.1l-0.8 5.7h0.1c0.6-1.4 1.6-2.2 2.6-2.2 0.7 0 1.2 0.6 1.2 1.4 0 0.5-0.1 1.3-0.2 2l-0.3 1.6c-0.1 0.4-0.1 1-0.1 1.3 0 0.5 0.2 0.7 0.7 0.8v0.3q-0.6 0.3-1.3 0.3c-0.4 0-0.7-0.3-0.7-0.7 0-0.4 0.1-1.2 0.2-1.7l0.3-1.7c0-0.5 0.1-1.3 0.1-1.6 0-0.7-0.3-0.9-0.7-0.9-0.8 0-1.9 1.3-2 3.5l-0.2 3h-1.3z"/>
			<path class="s4" d="m230.4 74.8c1.1 0 1.7 0.5 1.7 1.6 0 1.8-1.9 2.9-3.7 2.9 0 1.9 0.5 2.3 1.4 2.3 0.5 0 1.3-0.3 1.7-0.7 0 0 0.1 0.2 0.1 0.3 0 0.8-1 1.4-2.2 1.4-1.3 0-2.2-0.9-2.2-2.7 0-3.5 1.7-5.1 3.2-5.1zm0.4 1.8c0-0.7-0.2-1-0.7-1-0.7 0-1.7 1.2-1.7 3 1.5 0 2.4-0.8 2.4-2z"/>
			<path class="s4" d="m233.2 79.7l0.5-3.1v-0.9l-0.9-0.3v-0.3c0.5-0.2 1-0.3 1.6-0.3q0.4 0 0.7 0.1l-0.7 4.6c-0.1 0.4-0.2 1.2-0.2 1.6 0 0.5 0.2 0.8 0.7 0.9v0.3q-0.5 0.2-1.2 0.2c-0.5 0-0.7-0.3-0.7-0.7-0.1-0.5 0.1-1.4 0.2-2.1zm0.7-7.1c0-0.5 0.4-1 0.9-1 0.4 0 0.7 0.3 0.7 0.8 0 0.5-0.4 0.9-0.9 0.9-0.4 0-0.7-0.3-0.7-0.7z"/>
			<path class="s4" d="m236.1 79.8c0-3.1 1.8-5 3.9-5 0.2 0 0.4 0 0.6 0l0.4-2.8-1-0.2v-0.3c0.5-0.2 1-0.3 1.7-0.3q0.4 0 0.7 0.1l-1.2 6.4c-0.1 0.7-0.3 2.4-0.3 3 0 1 0.2 1.2 0.7 1.2v0.4c-0.4 0.1-0.8 0.2-1.3 0.2-0.3 0-0.5 0-0.7-0.1l0.4-2.3c-0.6 1.4-1.6 2.5-2.5 2.5-0.6 0-1.4-0.9-1.4-2.8zm3.9-1.5l0.5-2.5c-0.2-0.1-0.5-0.1-0.8-0.1-1.3 0-2.4 1.2-2.4 3.9 0 1.3 0.4 1.9 0.8 1.9 0.6 0 1.6-1 1.9-3.2z"/>
		</g>
		<g>
			<path fill-rule="evenodd" class="s0" d="m0 0h314v125h-314z"/>
		</g>
	</g>
</svg>