<?xml version="1.0" encoding="UTF-8"?>
<svg id="c744aaa6-115c-47b7-8351-09817eff291e" xmlns="http://www.w3.org/2000/svg" viewBox="0 0 74 11.57">
  <g id="8205785d-fc47-444c-aece-43a1b00dfe90" >
    <g id="7b63c848-0e7f-4895-8e3b-b6cf4c6fc9ee" >
      <path id="1b610114-f4fc-4ca0-b133-a6544fc83587" d="M5.9,4.74c-.72-.26-1.29-.82-1.55-1.55-.11.27-.28.51-.49.71-.48.48-1.07.67-1.69.69h0C.95,4.64-.03,5.68,0,6.92c.03,1.24,1.07,2.22,2.31,2.19,1.22-.03,2.2-1.04,2.19-2.26.05-.59.23-1.16.68-1.62.21-.2.45-.37.71-.49Z" fill="#00a6ce"/>
      <path id="c9aa538c-f004-458c-8d4b-02ddf8d19cd2" d="M17.54.7c-.88-.88-2.31-.88-3.19,0-.41.4-.64.95-.65,1.52h0c-.04.62-.21,1.21-.69,1.69-.21.21-.45.37-.71.49.72.26,1.3.83,1.56,1.55.11-.27.28-.51.49-.71.48-.48,1.07-.67,1.69-.69h0c.57-.01,1.12-.25,1.52-.65.87-.89.86-2.31-.01-3.2ZM16.76,3.1c-.22.21-.51.33-.81.33-.3,0-.59-.12-.81-.33-.45-.45-.45-1.17,0-1.62.22-.22.51-.34.81-.34.3,0,.59.12.81.33.44.45.44,1.18,0,1.63h0Z" fill="#ff8300"/>
      <path id="2ffb7966-a7be-4950-9bb3-259653e3057d" d="M12.98,5.27c-.41-.41-.95-.64-1.53-.66h0c-.62-.03-1.21-.21-1.69-.7-.48-.48-.67-1.07-.69-1.69h0C9.03.99,8,0,6.75.05c-1.24.04-2.22,1.07-2.19,2.32.04,1.22,1.04,2.19,2.26,2.19.59.05,1.16.23,1.62.68s.65,1.02.68,1.62c0,1.24,1,2.26,2.24,2.26,1.24,0,2.26-1,2.26-2.24,0-.6-.23-1.18-.66-1.6h0Z" fill="#54565a"/>
      <path id="c36c6531-83a5-4cdd-842f-a386c8fe33b6" d="M37.76,9.14c-1.14,0-1.85-.7-1.85-1.82V.48c0-.26.19-.47.45-.48,0,0,.02,0,.03,0,.26,0,.47.21.47.46,0,0,0,0,0,.01v2.33h1.68c.25-.01.47.19.48.44s-.19.47-.44.48c-.01,0-.02,0-.04,0h-1.68v3.56c0,.65.32.96,1,.96.17,0,.35-.03.51-.08.05-.02.11-.04.17-.04.25,0,.44.21.45.45,0,.19-.12.36-.31.42-.29.1-.6.15-.91.15Z" fill="#54565a"/>
      <path id="aeb7d573-2eeb-4972-a544-b1293b43e6de" d="M42.8,9.14c-.87-.02-1.72-.3-2.43-.81-.11-.09-.17-.23-.18-.37,0-.26.22-.47.48-.48.11,0,.21.03.3.1.59.43,1.21.64,1.87.64.74,0,1.25-.39,1.25-.94v-.02c0-.51-.5-.75-1.44-1.01h-.02s-.02-.02-.02-.02c-.95-.27-2.13-.62-2.13-1.8v-.02c0-1.06.91-1.83,2.16-1.83.71.01,1.41.21,2.02.56h.01c.15.1.23.26.24.43,0,.27-.22.48-.49.48-.09,0-.17-.03-.25-.07-.51-.3-1.05-.46-1.56-.46-.69,0-1.17.34-1.17.84v.02c0,.5.63.71,1.52.98.79.22,2.09.58,2.09,1.85v.02c0,1.11-.94,1.92-2.25,1.92Z" fill="#54565a"/>
      <path id="c2b1bf9b-d3df-4d7d-8dce-abfdc0c9dbf7" d="M47.12,9.07c-.26,0-.48-.2-.49-.46,0,0,0-.01,0-.02V.48c0-.26.21-.48.48-.48.26,0,.48.21.48.48h0v8.12c.02.24-.17.46-.41.48-.02,0-.04,0-.05,0Z" fill="#54565a"/>
      <path id="830bbc1d-4d56-4f90-ba9b-3662ecaf4594" d="M56.09,9.17c-1.81,0-3.23-1.44-3.23-3.28v-.02c0-1.86,1.43-3.31,3.26-3.31s3.23,1.44,3.23,3.28v.02c0,1.85-1.42,3.31-3.26,3.31ZM56.09,3.48c-1.27,0-2.23,1.01-2.23,2.37v.02c0,1.33.99,2.39,2.26,2.39s2.23-1.01,2.23-2.37v-.02c0-1.34-.99-2.39-2.26-2.39Z" fill="#54565a"/>
      <path id="248b4289-b6c5-4d7c-96e5-744c85c3b3ad" d="M31.41,9.17c-1.77,0-3.1-1.42-3.1-3.29v-.02c0-1.84,1.32-3.29,3.01-3.29s2.91,1.38,2.91,3.27c-.01.25-.22.46-.48.46h-3.25c-.25,0-.44-.2-.44-.44s.2-.44.44-.44h2.7c-.13-.93-.69-1.92-1.92-1.92-1.01,0-1.82.8-1.99,1.94l-.02.19c-.02.18-.02.37,0,.55h0c.12,1.24,1,2.09,2.13,2.09.69,0,1.26-.24,1.8-.76.08-.09.2-.13.32-.13.26,0,.47.2.48.46,0,0,0,0,0,0,0,.13-.06.25-.15.33-.69.7-1.41,1.01-2.43,1.01Z" fill="#54565a"/>
      <path id="1a5829f5-ec5e-44c8-9a7b-f645cbe44d14" d="M61.06,11.57c-.26,0-.48-.2-.49-.46,0,0,0-.02,0-.02v-5.52c0-1.82,1.41-3.01,3.07-3.01,1.81,0,3.23,1.44,3.23,3.28v.02c0,1.85-1.43,3.31-3.26,3.31-.82,0-1.56-.3-2.09-.84v2.76c0,.28-.19.49-.47.49ZM61.53,6.15c.11,1.2.92,2.05,2.01,2.1h.12c.38,0,.75-.09,1.08-.28.04-.02.06-.04.09-.06.27-.18.5-.42.66-.7.02-.04.04-.06.06-.09.04-.06.07-.13.09-.2.13-.32.2-.67.2-1.02v-.02c0-.28-.04-.56-.13-.83-.02-.07-.05-.14-.08-.21-.02-.07-.06-.14-.1-.2-.19-.35-.48-.65-.82-.86-.03-.02-.06-.04-.1-.05-.06-.03-.13-.06-.2-.08-.14-.05-.28-.09-.43-.12-.07-.01-.15-.02-.23-.02h-.12c-1.15,0-1.99.84-2.1,2.09h0v.57h-.01Z" fill="#54565a"/>
      <path id="1ad5c67a-2e00-4395-b8ea-6583b8d99fe2" d="M51.76,9.09c-.13,0-.25-.05-.34-.14l-2.95-2.98c-.18-.17-.19-.46-.02-.64v-.02s2.7-2.48,2.7-2.48c.08-.09.19-.15.31-.15.12-.01.25.02.34.11.2.17.23.47.06.68l-.02.02-2.38,2.16,2.63,2.66c.09.09.14.22.14.34,0,.13-.05.25-.14.33-.09.08-.2.12-.32.12Z" fill="#54565a"/>
      <path id="f3c16b09-bb4c-4884-8982-97bfccec3da0" d="M26.44,9.17c-.27,0-.48-.21-.49-.48,0,0,0,0,0,0v-3.33c0-1.17-.64-1.86-1.72-1.86s-1.72.69-1.72,1.86v3.33c0,.27-.21.48-.48.49,0,0,0,0-.01,0-.26,0-.47-.2-.48-.46,0-.01,0-.02,0-.03v-3.42c0-1.62,1.02-2.66,2.59-2.66h.17c1.58,0,2.59,1.05,2.59,2.66v3.42c.03.24-.14.46-.38.48-.02,0-.05,0-.07,0Z" fill="#54565a"/>
      <path id="56411250-7a8c-4a80-81f6-24477f1d9bcd" d="M71.18,9.17c-1.77,0-3.1-1.42-3.1-3.29v-.02c0-1.84,1.32-3.29,3.01-3.29s2.91,1.38,2.91,3.27c0,.26-.22.46-.48.46h-3.23c-.25,0-.44-.2-.44-.44s.2-.44.44-.44h2.7c-.13-.93-.69-1.92-1.92-1.92-1.01,0-1.82.81-1.99,1.95l-.03.18c-.02.18-.02.37,0,.55h0c.12,1.24,1,2.09,2.13,2.09.69,0,1.26-.24,1.8-.76.08-.09.2-.13.32-.13.26,0,.47.2.48.46,0,0,0,0,0,0,0,.13-.06.25-.15.33-.7.7-1.44,1.01-2.44,1.01Z" fill="#54565a"/>
    </g>
  </g>
</svg>
