<?xml version="1.0" standalone="yes"?>
<svg xmlns="http://www.w3.org/2000/svg" width="400" height="400">
<path fill="#018755" d="M0 0L0 400L400 400L400 0L0 0z"/>
<path fill="#f5fbf9" d="M273 218C255.918 218 259 206.984 259 193L272 193L272 183L259 183L259 169C255.08 170.659 250.228 173.461 248.028 177.289C246.171 180.52 247 185.419 247 189C247 198.712 243.496 217.021 250.419 224.786C253.934 228.729 267.964 232.211 271.972 227.258C273.768 225.038 273 220.66 273 218M51 183L51 177L40 177L40 229L52 229L52 211C52 204.678 51.5383 197.425 55.652 192.108C59.5879 187.021 67.5558 186.243 70.2577 193.019C74.2552 203.044 66.8849 217.093 71.6034 226.682C73.1555 229.836 80.8707 230.05 82.9722 227.397C85.7793 223.852 84 214.32 84 210C84 202.288 85.2773 193.226 82.0301 186C75.9835 172.544 60.2157 174.734 51 183M136 213C123.408 213.026 106.326 229.093 103 207L121 207C124.914 207 133.169 208.548 136.396 205.972C141.28 202.074 135.064 187.77 132.211 184.093C122.543 171.639 101.011 174.319 93.9961 188C91.7165 192.446 91.023 197.069 91.0008 202C90.9738 207.996 91.2968 213.718 94.4823 218.996C104.306 235.273 132.946 233.284 136 213M195 219C203.459 230.902 233.05 236.996 239.297 218.985C243.376 207.226 234.673 199.75 224 198.134C220.157 197.553 211.868 197.725 210.613 192.896C209.56 188.847 214.795 186.462 218 186.282C222.293 186.042 236.793 194.817 236.793 184.054C236.793 180.008 230.035 177.992 227 177.16C217.672 174.603 204.288 176.473 199.457 186.004C192.351 200.023 206.971 206.498 218 207.845C221.33 208.252 229.972 209.281 227.673 214.791C223.138 225.659 210.01 215.044 204 214.146C200.448 213.615 197.434 216.904 195 219M281 193C291.32 193 309.765 177.134 310 197C301.888 197.001 290.851 196.587 284.044 201.649C275.713 207.845 276.212 221.479 285.015 226.995C293.374 232.231 302.931 229.951 310 224C310.822 228.925 319.754 232.053 322.397 226.682C323.823 223.783 323 219.142 323 216C323 206.586 324.548 194.889 320.772 186.004C313.407 168.677 281.861 174.428 281 193M178 223L178 232C193.255 225.201 189 207.981 189 194C189 190.071 190.544 181.85 187.972 178.603C185.853 175.928 180.003 177 177 177C177 187.504 178.761 199.842 175.695 209.996C174.242 214.809 169.526 219.869 164.005 218.062C152.202 214.202 157 186.632 157 177C154.161 177.035 147.967 176.072 146.013 178.614C143.235 182.229 145 191.635 145 196C145 203.49 143.492 212.995 146.653 220C152.795 233.612 168.943 231.567 178 223M331 229L344 228C343.123 214.377 339.749 185.507 361 189L361 177C353.602 177.005 348.663 177.952 343 183L342 177L332.028 178.603L331 192L331 229z"/>
<path fill="#018755" d="M103 198L125 198C124.189 182.408 104.386 182.725 103 198M310 206C306.948 206.063 304.027 206.504 301 206.834C299.024 207.05 296.916 206.976 295.044 207.742C282.245 212.98 301.416 227.824 308.821 213.956C310.124 211.516 309.976 208.675 310 206z"/>
<path fill="#f5fbf9" d="M357 229L357 228C353.819 226.128 352.859 224.709 353 221L354 221L354 226L358 226L358 221L359 221L358 228C368.51 217.659 344.647 217.718 353.393 227.258C354.358 228.312 355.735 228.545 357 229z"/>
<path fill="#018755" d="M354 220L354 221L358 221L354 220M355.667 222.333L356.333 222.667L355.667 222.333z"/>
</svg>
