<svg width="300" height="64" viewBox="0 0 300 64" fill="none" xmlns="http://www.w3.org/2000/svg">
<path fill-rule="evenodd" clip-rule="evenodd" d="M31.0572 63.8911C13.8176 63.3832 0 49.2762 0 31.9456C0 14.6149 13.8176 0.50794 31.0572 0V11.5126C25.7995 11.7525 20.8366 14.0099 17.2008 17.8153C13.565 21.6208 11.5361 26.6814 11.5361 31.9445C11.5361 37.2077 13.565 42.2683 17.2008 46.0737C20.8366 49.8792 25.7995 52.1366 31.0572 52.3765V63.8911ZM33.0404 0C50.2415 0.540318 64.0328 14.6351 64.0328 31.9435C64.0328 49.2519 50.2496 63.3407 33.0404 63.8891V52.3744C38.2861 52.1186 43.2325 49.8546 46.8546 46.0515C50.4768 42.2483 52.4971 37.1976 52.4971 31.9456C52.4971 26.6935 50.4768 21.6428 46.8546 17.8397C43.2325 14.0365 38.2861 11.7725 33.0404 11.5167V0ZM33.0403 50.4642V41.3152C35.4185 41.0669 37.6138 39.9248 39.1821 38.1198L46.698 43.3814C45.059 45.4684 42.9921 47.1803 40.6363 48.402C38.2805 49.6237 35.6905 50.3269 33.0403 50.4642ZM31.0571 50.4642C28.407 50.3269 25.8169 49.6237 23.4611 48.402C21.1054 47.1803 19.0385 45.4684 17.3994 43.3814L24.9153 38.1198C26.4837 39.9248 28.6789 41.0669 31.0571 41.3152V50.4642ZM31.0571 13.417V22.566C28.697 22.8121 26.5163 23.9386 24.9497 25.7209L17.4318 20.4593C19.0711 18.3836 21.1345 16.6817 23.4842 15.4672C25.8339 14.2528 28.4157 13.5538 31.0571 13.417ZM33.0403 13.4069C35.6824 13.5447 38.2646 14.2449 40.6143 15.4608C42.964 16.6766 45.0271 18.3801 46.6656 20.4573L39.1477 25.7188C37.5811 23.9366 35.4004 22.8101 33.0403 22.5639V13.4069ZM47.8394 41.7584L40.3214 36.4969C41.0944 35.0959 41.4976 33.521 41.493 31.921C41.4884 30.3209 41.0762 28.7484 40.2951 27.3519L47.811 22.0904C49.6612 25.036 50.6451 28.4429 50.6501 31.9213C50.6551 35.3998 49.6811 38.8095 47.8394 41.7604V41.7584ZM16.2864 22.0884L23.8023 27.3499C23.0213 28.7464 22.609 30.3189 22.6044 31.919C22.5998 33.519 23.003 35.0939 23.776 36.4948L16.2581 41.7564C14.4163 38.8054 13.4423 35.3958 13.4473 31.9173C13.4523 28.4388 14.4362 25.032 16.2864 22.0864V22.0884ZM199.697 43.2742V21.1252H201.527C204.593 21.1252 207.592 21.8274 209.854 24.0049C212.08 26.2613 213.181 28.9851 213.181 32.1825C213.181 35.3799 212.096 38.1058 209.844 40.3743C207.604 42.5578 204.601 43.2742 201.533 43.2742H199.697ZM127.453 43.3187V31.0169L132.22 31.023C133.829 31.023 135.163 31.6503 136.29 32.7836C137.494 33.9977 138.04 35.471 138.04 37.179C138.04 38.8869 137.496 40.346 136.292 41.5602C135.165 42.6975 133.841 43.3187 132.222 43.3187H127.453ZM127.453 26.239V21.0402L132.498 21.0463C132.812 21.051 133.123 21.1207 133.409 21.2509C133.696 21.3812 133.953 21.5692 134.163 21.8032C134.415 22.0554 134.612 22.3569 134.742 22.6887C134.872 23.0205 134.932 23.3756 134.918 23.7317C134.918 24.4521 134.738 25.1199 134.214 25.6319H134.204C133.81 25.9912 133.305 26.2053 132.773 26.239H127.453ZM89.4381 23.9988C91.6034 21.8092 94.1937 20.6578 97.2697 20.6578C100.358 20.6578 102.952 21.8032 105.128 23.9988C107.364 26.2491 108.438 28.9568 108.438 32.14C108.438 35.3232 107.376 38.0552 105.128 40.3055C102.952 42.4951 100.346 43.6324 97.2697 43.6324C94.1937 43.6324 91.6075 42.489 89.4341 40.3055C87.1918 38.0552 86.1254 35.3192 86.1254 32.14C86.1254 28.9609 87.1999 26.2491 89.4381 23.9988ZM294.747 16.2826V38.9719L278.645 16.2826H273.788V48.0926H279.049V26.0164L294.708 48.0926H300.008V16.2826H294.747ZM245.044 48.0926C249.03 37.27 250.22 34.0079 253.28 25.557H253.286C254.996 30.3075 256.227 33.7133 257.652 37.6558C258.71 40.5825 259.874 43.8049 261.421 48.0926H266.921L255.457 16.2826H251.137L239.521 48.0926H245.044ZM232.473 48.0926H227.211V16.2826H232.473V48.0926ZM213.825 20.7832C210.538 17.4523 206.125 16.2826 201.557 16.2826H194.442V48.0926H201.557C206.054 48.0926 210.486 46.9897 213.744 43.7053C216.907 40.5261 218.526 36.673 218.526 32.1825C218.526 27.7406 216.933 23.9341 213.825 20.7832ZM184.704 48.0926H179.443V16.2826H184.704V48.0926ZM154.978 28.8475C156.504 30.3916 158.421 31.4135 160.461 32.0854L160.465 32.0773C161.872 32.6642 163.152 33.5168 164.237 34.5887C165.277 35.6187 165.718 36.8936 165.718 38.3486C165.738 39.0512 165.614 39.7504 165.352 40.4028C165.091 41.0552 164.698 41.6468 164.198 42.141C163.745 42.6262 163.195 43.0124 162.585 43.2754C161.975 43.5383 161.317 43.6722 160.653 43.6688C160.005 43.6744 159.363 43.546 158.766 43.2918C158.17 43.0376 157.633 42.663 157.188 42.1916C156.087 41.0907 155.681 39.3139 155.527 37.8164L155.434 36.8815L150.338 38.7271L150.427 39.318C150.763 41.627 151.67 43.6951 153.315 45.3566C154.262 46.3441 155.402 47.1259 156.665 47.6534C157.927 48.1809 159.285 48.4427 160.653 48.4224C163.486 48.4224 165.937 47.447 167.938 45.4395C169.887 43.4948 170.911 41.1372 170.911 38.3567C170.911 35.5762 169.867 33.2166 167.908 31.2597C166.142 29.5139 163.985 28.2145 161.616 27.4694C160.617 27.0246 159.695 26.4234 158.884 25.6886C158.609 25.4065 158.393 25.0719 158.25 24.7049C158.106 24.3378 158.038 23.9456 158.048 23.5516C158.034 23.1679 158.098 22.7854 158.238 22.4276C158.377 22.0698 158.588 21.7443 158.858 21.4713C159.085 21.2136 159.365 21.0077 159.678 20.8674C159.992 20.7271 160.332 20.6557 160.676 20.658C161.019 20.6603 161.358 20.7363 161.67 20.8807C161.981 21.0252 162.258 21.2349 162.482 21.4956C162.861 21.8861 163.271 22.9485 163.456 23.4545L163.715 24.1526L168.43 22.301L168.227 21.6494C167.839 20.4008 167.242 19.1947 166.305 18.2658C165.57 17.5129 164.69 16.917 163.718 16.5141C162.746 16.1113 161.703 15.91 160.651 15.9224C159.609 15.9003 158.574 16.093 157.61 16.4886C156.646 16.8841 155.773 17.4739 155.047 18.2213C153.596 19.7066 152.787 21.4692 152.787 23.5516C152.774 24.5368 152.962 25.5144 153.338 26.4248C153.715 27.3353 154.273 28.1595 154.978 28.8475ZM138.679 28.1758C138.678 28.1744 138.676 28.173 138.674 28.1716L138.67 28.1878C138.673 28.1838 138.676 28.1798 138.679 28.1758ZM140.192 29.5255C139.725 29.0351 139.219 28.5837 138.679 28.1758C139.679 26.9139 140.214 25.346 140.194 23.7358C140.194 21.6919 139.414 19.9495 137.98 18.5086C136.482 16.9949 134.624 16.2826 132.516 16.2826H122.195V48.0784H133.406H133.455C136.003 47.7364 138.265 46.7145 140.086 44.879C142.201 42.7481 143.34 40.1861 143.34 37.1709C143.362 35.7495 143.093 34.3387 142.552 33.0244C142.011 31.71 141.208 30.5195 140.192 29.5255ZM108.94 20.6739C105.727 17.4401 101.811 15.8657 97.2677 15.8657C92.7367 15.8657 88.827 17.4361 85.6235 20.6739C82.4666 23.843 80.8477 27.6536 80.8477 32.14C80.8477 36.6265 82.4625 40.4634 85.6235 43.6324C88.829 46.85 92.7306 48.4305 97.2677 48.4305C101.805 48.4305 105.725 46.8561 108.94 43.6324C112.097 40.4634 113.716 36.6184 113.716 32.14C113.716 27.6617 112.081 23.839 108.94 20.6739Z" fill="#22232C"/>
</svg>
