<svg version="1.1" id="51e1ff1d-53a5-4297-8c21-270eb9c56aa1" xmlns="http://www.w3.org/2000/svg" x="0px" y="0px" viewBox="0 0 103 100" xml:space="preserve">
	<g id="cff83899-1e25-4aa5-b026-55fe3594977b" transform="translate(16.000000, 11.000000)">
		<g id="7dadaf15-6594-4f48-aa23-4b6006d38c06">
			<path d="M63.5,0.4C58-1.1,52.2,1.8,50.2,7.2c-1.3,0.4-2.6,0.8-3.9,1.1c-1.4,0.3-2.8,0.6-4.2,0.7
				c-1.4,0.2-2.7,0.3-4.1,0.3h-0.2c-1.2,0-2.4,0-3.6-0.2c-1-0.1-1.9-0.3-2.8-0.5c-0.7-0.2-1.4-0.5-2.1-0.8c-0.5-0.3-1-0.6-1.3-1
				c-0.8-2.6-3.1-4.4-5.8-4.6s-5.3,1.2-6.4,3.7s-0.8,5.3,1.1,7.3c0.2,0.7,0.3,1.3,0.3,2c0,0,0,0,0,0v0.2l0,0c0,0.7,0,1.3-0.1,2
				c-0.1,0.9-0.3,1.7-0.5,2.6c-0.2,1-0.5,2-0.9,3c-0.4,1.1-0.8,2.2-1.3,3.4l-0.1,0.2c-0.5,1.2-1.1,2.3-1.6,3.4
				c-0.6,1.1-1.2,2.1-1.8,3s-1.2,1.8-1.7,2.5c-0.5,0.6-0.9,1.2-1.5,1.7c-0.5,0.5-1,0.9-1.6,1.2c-2.8,0.4-5.1,2.4-5.8,5.1
				s0.2,5.6,2.4,7.3s5.2,2,7.7,0.7c0.3,0,0.7-0.1,1,0c0.9,0,1.7,0.2,2.6,0.4c1,0.3,2,0.6,3,1.1c1.2,0.5,2.3,1.2,3.4,1.9l0.2,0.1
				c1.2,0.8,2.4,1.7,3.6,2.7c1.2,1,2.3,2.2,3.3,3.3c1.1,1.2,2.1,2.5,2.9,3.9c0.4,0.5,0.7,1.1,1,1.6c0.3,5.3,3.9,9.8,9.1,11.3
				s10.6-0.4,13.7-4.8c3.1-4.3,3.1-10.1,0.1-14.5c-0.2-1-0.4-1.9-0.5-2.9c-0.2-1.9-0.3-3.9-0.2-5.8c0.1-2,0.3-4,0.6-6
				c0.3-2.1,0.8-4.1,1.4-6.1l0.1-0.3c0.6-2,1.3-3.9,2.1-5.7c0.8-1.7,1.6-3.3,2.6-4.9c0.9-1.4,1.9-2.8,3-4.1c0.3-0.4,0.7-0.7,1-1.1
				c4.5-1.6,7.5-6,7.3-10.9C71.5,5.8,68.2,1.7,63.5,0.4z M52.8,25.7c-0.1,1.7-0.3,3.3-0.6,4.9c-0.3,1.9-0.8,3.7-1.4,5.5
				c-0.6,1.9-1.3,3.7-2.1,5.5c-0.8,1.7-1.6,3.3-2.6,4.9c-0.9,1.4-1.8,2.7-2.9,3.9c-0.9,1-1.9,2-3,2.8c-0.1,0.1-0.2,0.1-0.2,0.2
				c-0.6,0.4-1.2,0.7-1.8,1c-0.5,0.2-0.9,0.3-1.4,0.4C36,55,35.2,55,34.4,55c-0.3,0-0.6,0-0.9,0c-1.3-0.1-2.7-0.3-4-0.6
				c-1.4-0.3-2.7-0.8-4-1.3c-1.3-0.5-2.6-1.2-3.8-1.9c-1.1-0.7-2.2-1.4-3.2-2.2c-0.9-0.7-1.7-1.5-2.5-2.3c-0.7-0.7-1.2-1.5-1.7-2.3
				c-0.9-1.6-1.4-3.4-1.4-5.3l0,0c0-0.7,0.1-1.3,0.2-2c0.1-1.1,0.3-2.1,0.6-3.2c0.3-1.1,0.6-2.2,1-3.4s0.8-2.4,1.4-3.6
				c0.5-1.2,1.1-2.3,1.6-3.4c0.6-1.1,1.1-2.1,1.7-3c0.5-0.9,1.1-1.7,1.8-2.5c0.5-0.7,1.1-1.3,1.7-1.9c0.6-0.6,1.2-1.1,1.9-1.5
				c0.7-0.4,1.5-0.7,2.2-1c0.9-0.3,1.8-0.6,2.8-0.8c1.1-0.2,2.2-0.4,3.3-0.5c1.2-0.1,2.5-0.2,3.7-0.1c1.3,0,2.6,0.1,3.9,0.3
				c1.3,0.2,2.5,0.4,3.7,0.8c1.1,0.3,2.2,0.7,3.3,1.3c0.8,0.4,1.6,0.9,2.3,1.4c0.7,0.7,1.2,1.4,1.7,2.2c0,0.1,0.1,0.2,0.1,0.3
				c0.4,1,0.7,2.1,0.8,3.2C52.8,23,52.9,24.4,52.8,25.7z" fill="#DF6924"/>
			<path d="M27.6,32c-0.4,3,1.7,5.7,4.7,6.1c3,0.4,5.8-1.7,6.1-4.7s-1.7-5.7-4.7-6.1c-0.2,0-0.5,0-0.7,0
				C30.3,27.2,28,29.3,27.6,32" fill="#DF6924"/>
		</g>
	</g>
</svg>