<svg height="2500" width="2500" xmlns="http://www.w3.org/2000/svg" viewBox="48 48 928 928"><circle cx="512" cy="512" fill="gray" r="464"/><path d="M512 64C272.6 64 77.1 251.7 64.6 488 64.7 739.8 265 944 512 944s447.3-204.2 447.4-456C946.9 251.7 751.4 64 512 64z" fill="#fff"/><path d="M512 960C264.3 960 64 759.7 64 512c0-8.3 0-16 .6-23.7C76.8 724.5 272.6 912 512 912c237.4 0 432-185 447.4-418.6v-5.1c.6 7.7.6 15.4.6 23.7 0 247.7-200.3 448-448 448zm0-848c-216.5 0-392 175.5-392 392 0 121 54.8 229.1 140.9 301A366.9 366.9 0 0 1 144 536c0-203.2 164.8-368 368-368s368 164.8 368 368a366.9 366.9 0 0 1-116.9 269C849.2 733.1 904 625 904 504c0-216.5-175.5-392-392-392z" fill="#f2f2f2"/><circle cx="512" cy="512" fill="#1369bf" r="352"/><circle cx="512" cy="512" fill="#198cff" r="336"/><circle cx="512" cy="512" fill="#1369bf" r="280"/><circle cx="512" cy="512" fill="#f2f2f2" r="264"/><circle cx="512" cy="512" fill="#fff" r="136"/><circle cx="512" cy="512" fill="#bfbfbf" r="120"/><circle cx="512" cy="512" fill="#e5e5e5" r="104"/><path d="M468 720a36.1 36.1 0 0 1-36-36V503.3a36.3 36.3 0 0 1 8.4-23.2l10.6-12.5a4.2 4.2 0 0 0 0-5.2l-10.6-12.5a36.3 36.3 0 0 1-8.4-23.2V340a36.1 36.1 0 0 1 36-36h88a36.1 36.1 0 0 1 36 36v180.7a36.3 36.3 0 0 1-8.4 23.2L573 556.4a4.2 4.2 0 0 0 0 5.2l10.6 12.5a36.3 36.3 0 0 1 8.4 23.2V684a36.1 36.1 0 0 1-36 36z" fill="#fff"/><path d="M468 320h88a20.1 20.1 0 0 1 20 20v180.7a20.3 20.3 0 0 1-4.7 12.9l-10.5 12.5a20 20 0 0 0 0 25.8l10.5 12.5a20.3 20.3 0 0 1 4.7 12.9V684a20.1 20.1 0 0 1-20 20h-88a20.1 20.1 0 0 1-20-20V503.3a20.3 20.3 0 0 1 4.7-12.9l10.5-12.5a20 20 0 0 0 0-25.8l-10.5-12.5a20.3 20.3 0 0 1-4.7-12.9V340a20.1 20.1 0 0 1 20-20z" fill="#061a2e"/><path d="M468 688a4 4 0 0 1-4-4V503.3a3.9 3.9 0 0 1 .9-2.6l10.6-12.6a36 36 0 0 0 0-46.2l-10.6-12.6a3.9 3.9 0 0 1-.9-2.6V340a4 4 0 0 1 4-4h88a4 4 0 0 1 4 4v180.7a3.9 3.9 0 0 1-.9 2.6l-10.6 12.6a36 36 0 0 0 0 46.2l10.6 12.6a3.9 3.9 0 0 1 .9 2.6V684a4 4 0 0 1-4 4z" fill="#0a2b4c"/></svg>