<?xml version="1.0" encoding="UTF-8"?>
<svg id="a1b2c3d4-e5f6-47a8-9b10-c11d12e13f14" width="32px" height="32px" viewBox="0 0 32 32" version="1.1" xmlns="http://www.w3.org/2000/svg">
  <g fill="none" fill-rule="evenodd">
    <rect fill="#55A05E" x="0" y="0" width="32" height="32"/>
    <g transform="translate(5.825067, 8.465067)" fill="#FFFFFF" fill-rule="nonzero">
      <path d="M2.69973333,8.9664 C2.69973333,11.7482667 3.97866667,13.4506667 5.92746667,13.4506667 C7.87626667,13.4506667 9.09653333,11.7482667 9.09653333,8.9664 C9.09653333,5.98506667 7.888,4.45866667 5.92746667,4.45866667 C3.96693333,4.45866667 2.69973333,5.98506667 2.69973333,8.9664 Z M11.7962667,8.9664 C11.7962667,12.5578667 9.20213333,15.0698667 5.904,15.0698667 C2.60586667,15.0698667 0,12.5578667 0,8.9664 C0,5.37493333 2.64106667,2.86293333 5.904,2.86293333 C9.16693333,2.86293333 11.7962667,5.37493333 11.7962667,8.9664 Z"/>
      <path d="M17.3109333,12.2464 C17.3109333,13.0229333 17.5914667,13.3034667 18.3648,13.3034667 L20.3498667,13.3152 L20.3498667,14.864 L17.5232,14.864 C15.8805333,14.864 14.9408,13.9264 14.9408,12.2837333 L14.9408,6.68693333 L14.9386667,6.68693333 L14.9386667,4.7872 L12.5834667,4.7872 L12.5834667,3.41973333 C12.7402667,3.41973333 12.6890667,3.4176 12.9034667,3.41226667 C13.2853333,3.40693333 13.5733333,3.39626667 13.7717333,3.38026667 C14.2645333,3.3536 14.5930667,3.25866667 14.7573333,3.0944 C14.9184,2.93333333 15.0272,2.59626667 15.0858667,2.08746667 C15.1285333,1.80693333 15.1605333,1.45706667 15.1808,1.03893333 C15.2021333,0.622933333 15.2128,0.0682666667 15.2128,0 L17.3109333,0 L17.3109333,3.13386667 L20.3498667,3.13386667 L20.3498667,4.78826667 L17.3109333,4.78826667 L17.3109333,12.2474667 Z"/>
    </g>
  </g>
</svg>
