<?xml version="1.0" encoding="utf-8"?>
<!-- Generator: Adobe Illustrator 23.0.1, SVG Export Plug-In . SVG Version: 6.00 Build 0)  -->
<svg version="1.1" id="fc27dddb-ab61-435a-be95-1e9903bb13af" xmlns="http://www.w3.org/2000/svg" x="0px" y="0px"
	 viewBox="0 0 376.5 104.5" xml:space="preserve">
<g>
	<path fill="#83A840" d="M86.6,19.6c-0.1-1.2-0.6-2.3-1.3-3.3c-1.2-1.5-2.4-2.8-3.8-4c-2.7-2.8-5.9-5.1-9.6-6.9
		c-18.4-9.7-42.5-6-57.7,9.2c-19.8,19.7-18.9,52.9,2.5,71c20.1,17.2,52.5,13,66.9-9.6C93,61.1,95.6,36.2,86.6,19.6z M63,72.2
		c-13.7,11-33.4,6.6-42-8.3c-8.1-14.1-2.8-32.1,10-41.3c10-7.2,21.1-7.8,31.8-5c0.1,0.1,0.2,0.2,0.4,0.2
		C82.1,26.7,77.3,60.6,63,72.2z"/>
</g>
<g>
	<g>
		<path fill="#1D1D1B" d="M124.2,60.6V77c0,9.1-4.5,13.8-12.5,13.8c-8.3,0-12.4-4.8-12.4-13.7V60.3c0-9.2,5.3-13.4,12.7-13.4
			C119.5,46.8,124.2,51.6,124.2,60.6z M107.7,60.1v17.3c0,3.4,1.1,5.9,4,5.9c2.9,0,3.9-2.1,3.9-6.1V60.1c0-3.3-0.9-5.7-3.9-5.7
			C108.9,54.4,107.7,56.4,107.7,60.1z"/>
		<path fill="#1D1D1B" d="M128.1,59.8c0-5.8,0-9.6-0.1-12.3h8.1c0.2,0.8,0.3,2.7,0.3,4.2c1.2-2.7,3.6-4.8,7.8-4.8c6,0,8.8,4.2,8.8,12.5
			v17.4c0,9.8-3.2,14-9.7,14c-3.6,0-5.7-1.7-6.8-3.6v17.3h-8.5V59.8z M136.6,75.9c0,4.3,0.8,7.3,3.9,7.3c3.2,0,4-2.5,4-6.3V60.1
			c0-3.9-1.2-5.6-3.7-5.6c-2.7,0-4.3,1.7-4.3,6.6V75.9z"/>
		<path fill="#1D1D1B" d="M165.2,71.1v6.2c0,3.3,0.8,6.2,4,6.2c3.4,0,3.8-3,3.8-6.1v-0.2h8.2v0.2c0,4.4-0.9,13.2-11.9,13.2
			c-10.9,0-12.4-6.8-12.4-15.3v-14c0-5.8,1.8-14.6,12.4-14.6c9.1,0,12,6.2,12,14.6v9.7L165.2,71.1L165.2,71.1z M173.3,64.4v-4.4
			c0-4-0.9-6.1-3.9-6.1c-2.7,0-4,2-4,6.1v4.4H173.3z"/>
		<path fill="#1D1D1B" d="M185.6,60.7c0-8.6,0-11.2-0.1-13.2h8.1c0.2,1,0.3,2.7,0.3,3.9c1.2-2.5,3.5-4.5,7.9-4.5
			c5.2,0,8.7,3.2,8.7,11.2v32.1h-8.5V59.7c0-3.9-1.3-5.2-3.7-5.2c-3,0-4.3,1.6-4.3,7.4v28.2h-8.5L185.6,60.7L185.6,60.7z"/>
	</g>
	<g>
		<path fill="#1D1D1B" d="M221.3,78v1.7c0,5.1,2.2,7.2,5.4,7.2c3.8,0,5.3-2.4,5.3-6.9c0-4.9-1.5-6.9-6-9.9c-5.4-3.6-7.9-6.5-7.9-12.1
			c0-5.5,2.4-10.1,8.8-10.1c7,0,8.6,4.9,8.6,10.1V60h-3.9V58c0-4-1.1-6.6-4.8-6.6c-3.3,0-4.6,2.2-4.6,6.2c0,3.9,1.1,5.5,5.5,8.6
			c5.3,3.5,8.4,6.4,8.4,13.2c0,7.2-3,11.2-9.6,11.2c-7.2,0-9.3-5.1-9.3-10.6v-1.9L221.3,78L221.3,78z"/>
		<path fill="#1D1D1B" d="M241.9,48.5c3,16.1,6.1,31.6,6.5,36h0.1c0.9-6.4,4.4-23.3,6.8-36h4.1l-9.1,43.8c-2.4,11.3-5.3,12.3-9.6,12.3
			c-0.8,0-1.9-0.2-2.5-0.3v-3.9c0.5,0.1,1.6,0.2,2.2,0.2c3.3,0,4.6-1.6,6-9.2l-8.9-42.9L241.9,48.5L241.9,48.5z"/>
		<path fill="#1D1D1B" d="M264.9,78v1.7c0,5.1,2.2,7.2,5.4,7.2c3.8,0,5.3-2.4,5.3-6.9c0-4.9-1.5-6.9-6-9.9c-5.4-3.6-7.9-6.5-7.9-12.1
			c0-5.5,2.4-10.1,8.8-10.1c7,0,8.6,4.9,8.6,10.1V60h-4V58c0-4-1.1-6.6-4.8-6.6c-3.3,0-4.6,2.2-4.6,6.2c0,3.9,1.1,5.5,5.5,8.6
			c5.3,3.5,8.4,6.4,8.4,13.2c0,7.2-3,11.2-9.6,11.2c-7.2,0-9.3-5.1-9.3-10.6v-1.9L264.9,78L264.9,78z"/>
		<path fill="#1D1D1B" d="M280.5,48.5h5V38.1h4v10.4h6.3v3.6h-6.3v30.2c0,2.2,0.5,4.6,3.1,4.6c0.8,0,2.2-0.1,2.9-0.2v3.2
			c-1.1,0.4-2.8,0.5-4.1,0.5c-3.2,0-5.8-1.7-5.8-7.3V52.1h-5L280.5,48.5L280.5,48.5z"/>
		<path fill="#1D1D1B" d="M301.7,69.7v7.2c0,4.8,0.9,10,5.7,10c4.4,0,5.4-3.4,5.4-8v-0.5h4v0.4c0,5.1-1.2,11.7-9.4,11.7
			c-7.3,0-9.5-5-9.5-13.5V60.4c0-6.8,2.5-12.5,9.7-12.5c7.4,0,9.3,5.8,9.3,12.5v9.3L301.7,69.7L301.7,69.7z M312.8,66.2v-5.8
			c0-3.9-0.4-9-5.4-9c-4.8,0-5.7,4.2-5.7,9v5.8H312.8z"/>
		<path fill="#1D1D1B" d="M321.6,60.3c0-7,0-9.8-0.1-11.8h3.8c0.2,1.2,0.2,2.7,0.2,4c1.1-2.8,3.3-4.7,7-4.7c3,0,5.4,1.2,6.2,5
			c1.1-2.7,3.3-5,7.4-5c3.8,0,7.6,1.5,7.6,9.4v32.7h-4V58.2c0-3.5-0.6-6.6-4.4-6.6c-4.6,0-5.6,4.4-5.6,9v29.2h-4V58.6
			c0-4.9-1.1-7-4.5-7c-4.4,0-5.4,4.4-5.4,9.7v28.6h-4L321.6,60.3L321.6,60.3z"/>
		<path fill="#1D1D1B" d="M361.7,78v1.7c0,5.1,2.2,7.2,5.4,7.2c3.8,0,5.3-2.4,5.3-6.9c0-4.9-1.5-6.9-6-9.9c-5.4-3.6-7.9-6.5-7.9-12.1
			c0-5.5,2.4-10.1,8.8-10.1c7,0,8.6,4.9,8.6,10.1V60H372V58c0-4-1.1-6.6-4.8-6.6c-3.3,0-4.6,2.2-4.6,6.2c0,3.9,1.1,5.5,5.5,8.6
			c5.3,3.5,8.4,6.4,8.4,13.2c0,7.2-3,11.2-9.6,11.2c-7.2,0-9.3-5.1-9.3-10.6v-1.9L361.7,78L361.7,78z"/>
	</g>
</g>
</svg>
