<svg xmlns="http://www.w3.org/2000/svg" width="330" height="330"><path fill="#517bc9" d="M43 12v111c0 21.422-2.047 43.955 2.517 65 3.646 16.812 11.106 33.237 19.789 48C69.3 242.792 77.17 250.471 79 258l6.333 6L103 283l21 13 7-6 4-8-8-7c-9.168-2.337-18.381-14.162-24.7-20.83-6.732-7.104-15.296-15.725-18.536-25.17-9.296-27.098 12.046-59.287 32.276-74.975 6.992-5.422 15.01-10.161 22.96-14.025 4.417-2.147 10.482-3.674 13-8l-35 12.54-14 5.46-12 8-12 12-10 29h-1c-12.931-54.593-7-113.892-7-170l43 1h124l13.682-.603L245 12H43z"/><path fill="#01bdd5" d="M258 12c3.506 10.964 3.445 21.302 18 17 0 36.122.517 64.57-25.083 93-9.251 10.273-20.985 19.567-32.917 26.528-4.164 2.429-13.982 5.697-15 10.472l42-19.449L267 125l7-7 2-4c0 36.06 1.878 69.245-13 99-2.606 5.213-11.357 26.161-16 25-1.664 7.651-13.61 21.786-21 24-1.459 5.074-7.91 8.842-12 11.961-11.547 8.806-29.914 21.169-45 21.761-5.354.211-9.767-3.697-15-3.991-5.642-.316-17.208 7.017-19 12.269l31 11 13-3 32-13 34-27 10-10c2.002-8.801 12.347-18.074 17.1-26 9.238-15.407 16.105-32.54 20.302-50 4.513-18.777 1.598-40.796 1.598-60V12h-36m-6 16v35c-13.9-4.521-28.103-8.01-42-12.519-6.473-2.1-16.203-6.742-22.999-6.24-4.506.334-6.952 4.227-9.001 7.759l74 22-2 7c-20.183-5.235-39.852-12.218-60-17.478-8.939-2.333-19.468-8.597-22 4.478l78 23c-5.526 9.391-13.612 3.47-22 1.336C205.348 87.589 184.208 76.45 165 76l1.603 9.992L187 92.478 234 106v1c-20.612 9.112-46.069-9.168-68-12l2.857 10.297L181 109.671 213 119v1l-11 3.485L171 115c2.878 10.522 7.089 11.527 16 16l-8 3 5 15c13.224-1.791 27.579-10.202 39-16.862 5.019-2.926 10.276-8.038 16-9.138 1.271-4.097 5.896-6.776 8.711-10.001 5.132-5.879 9.374-12.667 12.108-19.999 8.183-21.95-2.17-43.532-5.819-65h-2z"/><path fill="#517bc9" d="m184 32-6 3c-8.034 10.916-18.369 17.777-23.652 31-13.636 34.129 10.798 66.437 18.652 98-3.897-1.819-22.106-13.222-24.338-6.837-1.037 2.966 1.629 6.077 2.338 8.837l30 14 3 11c-12.768-8.066-27.023-16.16-41-21.884-3.038-1.245-11.06-7.122-13.968-3.497-4.393 5.478 6.585 11.049 9.972 12.971C153.356 186.733 171.81 200.878 188 204l1 10c-9.278-5.087-18.736-9.872-28-14.992-6.324-3.495-12.595-7.069-19-10.421-7.341-3.841-14.813-9.025-22.995-10.934-3.933-.918-7.398 1.931-4.973 5.972 3.403 5.67 13.346 9.422 18.968 12.455 14.34 7.737 28.682 15.476 43 23.249 7.365 3.999 12.61 5.587 12 14.671a1082.632 1082.632 0 0 1-61-33c-3.684-2.149-18.589-11.686-22-6-2.245 3.742 2.312 5.875 4 7 4.291 2.861 18.424 11.304 18 13l11 5 32 17 13 8-5 5-11-8c-3.896.779-8.236-4.015-13-6-12.875-5.364-24.123-14.635-37-20-3.104-1.293-18.576-6.224-13 4 3.564 6.535 19.671 12.835 26 16 3.538 1.769 9.621 3.516 9 6l32 15-24 27c8.216-2.6 15.711-8.389 23-12.908 7.701-4.775 14.855-10.182 20.791-17.092 30.742-35.784 1.125-88.263-13.587-124.015C168.22 108.154 153.32 71.435 178 54c1.082-8.65 15.153-12.82 6-22z"/><path fill="#2e97ce" d="m185 43 1 1-1-1m-6 6 1 1-1-1m-1 1 1 1-1-1m-7 9 1 1-1-1m-.667 1.667.334.666-.334-.666M169 62l1 1-1-1m-1 2 1 1-1-1m-1 2 1 1-1-1m-3 12v7h1l-1-7m2 20v4h1l-1-4m1.333 5.667.334.666-.334-.666M171 117l1 1-1-1m1.333 2.667.334.666-.334-.666M173 122l1 1-1-1m1.333 2.667.334.666-.334-.666M175 126l1 1-1-1m3 9 1 1-1-1m1 2 1 1-1-1m1.333 2.667.334.666-.334-.666z"/><path fill="#01bdd5" d="m111 213-.066-8.406-4.848-9.261 8.639-1.57L119 187c-2.896-1.521-10.269-8.476-2.89-9.867 4.733-.893 9.495 1.929 14.89.867l1-4c-2.637-2.182-7.096-7.718-.941-9.184 3.558-.847 6.598 2.508 9.941 3.029 3.632.565 7.065-2.067 10-3.845-10.314-12.564 12.201-6.065 19-8l-5-15c-25.352 4.505-58.575 29.078-64.181 55-1.9 8.79-1.767 17.15-.769 26 .279 2.473.215 8.37 3.263 9.248 3.114.897 6.477-3.11 5.856-6.04C108.014 219.764 98.79 213.924 111 213z"/><path fill="#2e97ce" d="m165 142 1 1-1-1m16 0 1 1-1-1m-14.667 2.667.334.666-.334-.666m16 0 .334.666-.334-.666M167 147l1 1-1-1m16 0 1 1-1-1m-15 2 1 1-1-1m-19 5 1 1-1-1m3.667.333.666.334-.666-.334M170 154l1 1-1-1m-22 1 1 1-1-1m7 0 1 1-1-1m-8 1v5h1l-1-5m9 0 1 1-1-1m2 1 1 1-1-1m2 1 1 1-1-1m-12 3 1 1-1-1m1 1 1 1-1-1m-16 2 1 1-1-1m2 1 1 1-1-1m-8 1v5h1l-1-5m10 0 1 1-1-1m2 1 1 1-1-1m1 1 1 1-1-1m-12 3 1 1-1-1m1 1 1 1-1-1m2 1 1 1-1-1m1 1 1 1-1-1m-17 2v1h3l-3-1m-2 1 1 1-1-1m6 0 1 1-1-1m2 1 1 1-1-1m-9 1v4h1l-1-4m11 0 1 1-1-1m-8 6 1 1-1-1m2 1 1 1-1-1m-10.333 7.333.666.334-.666-.334M110 193l1 1-1-1m-5 1 1 1-1-1m7 0 1 1-1-1m-7 5 1 1-1-1m2 2 1 1-1-1m1.667 1.333.666.334-.666-.334M110 203l1 1-1-1m-.333 10.333.666.334-.666-.334M103 215v4h1l-1-4m1 5 1 1-1-1m1 1 1 1-1-1m2 1 1 1-1-1m2 1 1 1-1-1z"/><path fill="#ff01a1" d="m110 224 1 1-1-1z"/></svg>