<?xml version="1.0" encoding="UTF-8"?><svg id="Outline" xmlns="http://www.w3.org/2000/svg" viewBox="0 0 4336.91 1133.79"><defs><style>.cls-1{fill:#fff;}.cls-2{fill:#ff7900;}</style></defs><rect class="cls-2" x="283.38" y="283.44" width="566.91" height="566.91"/><path class="cls-1" d="m505.78,795.45c-8.03,5.29-16.73,7.85-26.1,7.85-14.72,0-23.42-9.8-23.42-22.93,0-17.66,16.23-27.02,49.69-30.79v-4.4c0-5.74-4.35-9.06-12.38-9.06s-14.55,3.18-19.23,9.06l-14.05-8c7.36-10.27,18.57-15.4,33.63-15.4,20.57,0,32.12,8.9,32.12,23.4,0,0-.03,57.06.02,57.2h-18.42l-1.84-6.94Zm-29.11-16.59c0,5.29,3.35,10.25,9.37,10.25,6.52,0,12.88-2.72,19.23-8.31v-18.69c-19.4,2.42-28.61,7.4-28.61,16.75Z"/><path class="cls-1" d="m542.44,725.55l17.18-2.37,1.89,9.36c9.7-7.1,17.4-10.87,27.1-10.87,16.23,0,24.6,8.61,24.6,25.66v54.94h-20.75v-51.32c0-9.66-2.5-14.03-10.04-14.03-6.19,0-12.38,2.87-19.41,8.76v56.6h-20.58v-76.72Z"/><path class="cls-1" d="m750.74,803.78c-23.25,0-37.14-14.94-37.14-40.9s14.05-41.21,36.8-41.21,36.3,14.49,36.3,40.16c0,1.36-.17,2.71-.17,4.07h-52.53c.16,14.95,6.36,22.49,18.57,22.49,7.86,0,13.04-3.17,17.9-10.11l15.22,8.45c-6.69,11.17-18.73,17.06-34.96,17.06Zm15.56-51.31c0-10.57-6.02-16.76-15.9-16.76-9.36,0-15.22,6.04-16.06,16.76h31.95Z"/><path class="cls-1" d="m353.16,804.64c-20.52,0-39.03-13.09-39.03-41.64s18.51-41.64,39.03-41.64,39.04,13.08,39.04,41.64-18.51,41.64-39.04,41.64Zm0-65.72c-15.5,0-18.37,13.98-18.37,24.09s2.87,24.09,18.37,24.09,18.38-13.97,18.38-24.09-2.87-24.09-18.38-24.09Z"/><path class="cls-1" d="m406.43,723.44h19.74v9.28c3.76-5,13.05-10.9,21.75-10.9.83,0,1.83,0,2.68.15v19.47h-1c-9.03,0-18.91,1.39-22.08,8.41v52.48h-21.08v-78.9Z"/><path class="cls-1" d="m664.05,785.39c15.76-.12,17.08-16.14,17.08-26.61,0-12.32-6.03-22.36-17.22-22.36-7.47,0-15.78,5.45-15.78,23.22,0,9.75.69,25.87,15.93,25.75Zm37.03-62.24v74.71c0,13.19-1,34.88-38.6,35.12-15.51.1-29.89-6.1-32.77-19.65l20.49-3.3c.86,3.88,3.23,7.75,14.85,7.75,10.76,0,15.93-5.16,15.93-17.49v-9.18l-.29-.28c-3.3,5.88-8.32,11.47-20.38,11.47-18.37,0-32.87-12.75-32.87-39.42s14.92-41.14,31.71-41.17c15.73-.02,21.59,7.15,22.92,10.93l-.24-.04,1.7-9.44h17.53Z"/><path class="cls-1" d="m794.86,697h-8.16v22.59h-4.3v-22.59h-8.16v-3.48h20.63v3.48Zm33.99,22.59h-4.31v-21.77h-.13l-8.54,21.77h-2.72l-8.54-21.77h-.13v21.77h-4.3v-26.07h6.64l7.78,19.8,7.65-19.8h6.59v26.07Z"/><path d="m1241.19,487.6c-4.45-7.14-10-13.41-16.67-18.81-6.67-5.39-14.21-9.6-22.62-12.62-8.42-3.01-17.22-4.52-26.43-4.52-16.83,0-31.12,3.26-42.86,9.76-11.75,6.51-21.27,15.24-28.57,26.19-7.31,10.95-12.62,23.42-15.95,37.38-3.33,13.97-5,28.42-5,43.33s1.67,28.18,5,41.67c3.33,13.5,8.65,25.64,15.95,36.43,7.3,10.8,16.82,19.45,28.57,25.95,11.74,6.51,26.03,9.76,42.86,9.76,22.86,0,40.71-6.98,53.57-20.95,12.86-13.97,20.71-32.38,23.57-55.24h72.38c-1.9,21.27-6.83,40.48-14.76,57.62-7.94,17.14-18.42,31.75-31.43,43.81-13.02,12.07-28.26,21.27-45.71,27.62-17.46,6.35-36.67,9.52-57.62,9.52-26.03,0-49.45-4.52-70.24-13.57-20.8-9.05-38.33-21.5-52.62-37.38-14.29-15.87-25.24-34.52-32.86-55.95-7.62-21.43-11.43-44.52-11.43-69.29s3.81-48.97,11.43-70.71c7.62-21.74,18.57-40.71,32.86-56.91,14.29-16.19,31.82-28.88,52.62-38.1,20.79-9.2,44.21-13.81,70.24-13.81,18.73,0,36.43,2.7,53.1,8.1,16.67,5.4,31.59,13.26,44.76,23.57,13.17,10.32,24.05,23.1,32.62,38.33,8.57,15.24,13.97,32.7,16.19,52.38h-72.38c-1.27-8.57-4.13-16.43-8.57-23.57Z"/><path d="m1455.19,810.22c-13.02,8.57-31.12,12.86-54.29,12.86-6.99,0-13.89-.24-20.71-.71-6.83-.48-13.74-1.03-20.71-1.67v-55.71c6.35.63,12.86,1.26,19.52,1.9,6.67.63,13.33.79,20,.48,8.88-.95,15.48-4.45,19.76-10.48,4.29-6.03,6.43-12.7,6.43-20,0-5.39-.95-10.48-2.86-15.24l-86.19-230.96h71.91l55.71,168.57h.95l53.81-168.57h70l-102.86,276.67c-7.31,20-17.46,34.29-30.48,42.86Z"/><path d="m1673.39,396.88v123.81h.95c8.25-12.69,19.44-21.98,33.57-27.86,14.12-5.87,28.81-8.81,44.05-8.81,12.38,0,24.6,2.54,36.67,7.62,12.06,5.08,22.93,12.86,32.62,23.33,9.68,10.48,17.54,23.89,23.57,40.24,6.03,16.35,9.05,35.8,9.05,58.33s-3.02,41.99-9.05,58.33c-6.04,16.35-13.89,29.76-23.57,40.24-9.69,10.48-20.56,18.26-32.62,23.33-12.07,5.07-24.29,7.62-36.67,7.62-18.1,0-34.29-2.86-48.57-8.57s-25.08-15.39-32.38-29.05h-.95v31.43h-64.29v-340h67.62Zm109.52,187.15c-2.22-9.52-5.71-17.93-10.48-25.24-4.76-7.3-10.71-13.1-17.86-17.38-7.14-4.29-15.8-6.43-25.95-6.43s-18.42,2.14-25.71,6.43c-7.31,4.29-13.33,10.08-18.09,17.38-4.76,7.31-8.26,15.71-10.48,25.24-2.22,9.52-3.33,19.52-3.33,30s1.11,20,3.33,29.52c2.22,9.52,5.71,17.94,10.48,25.24,4.76,7.31,10.79,13.1,18.09,17.38,7.3,4.29,15.87,6.43,25.71,6.43s18.81-2.14,25.95-6.43c7.14-4.29,13.09-10.07,17.86-17.38,4.76-7.3,8.25-15.71,10.48-25.24,2.22-9.52,3.33-19.36,3.33-29.52s-1.12-20.48-3.33-30Z"/><path d="m1959,677.84c10.16,9.84,24.76,14.76,43.81,14.76,13.65,0,25.39-3.41,35.24-10.24,9.84-6.82,15.87-14.05,18.09-21.67h59.52c-9.52,29.52-24.13,50.64-43.81,63.33-19.69,12.7-43.5,19.05-71.43,19.05-19.37,0-36.83-3.1-52.38-9.29-15.56-6.19-28.74-15-39.52-26.43-10.8-11.43-19.13-25.07-25-40.95-5.88-15.87-8.81-33.33-8.81-52.38s3.01-35.55,9.05-51.43c6.03-15.87,14.6-29.6,25.71-41.19,11.11-11.58,24.36-20.71,39.76-27.38,15.39-6.67,32.46-10,51.19-10,20.95,0,39.2,4.05,54.76,12.14,15.55,8.1,28.33,18.97,38.33,32.62,10,13.65,17.22,29.21,21.67,46.67,4.44,17.46,6.03,35.71,4.76,54.76h-177.62c.95,21.9,6.5,37.78,16.67,47.62Zm76.43-129.53c-8.1-8.88-20.4-13.33-36.91-13.33-10.8,0-19.76,1.83-26.91,5.48-7.14,3.65-12.86,8.18-17.14,13.57-4.29,5.4-7.31,11.12-9.05,17.14-1.75,6.03-2.78,11.43-3.09,16.19h110c-3.18-17.14-8.81-30.16-16.9-39.05Z"/><path d="m2215.1,490.69v45.71h.95c3.17-7.62,7.46-14.68,12.86-21.19,5.39-6.5,11.58-12.06,18.57-16.67,6.98-4.6,14.44-8.17,22.38-10.71,7.93-2.54,16.19-3.81,24.76-3.81,4.44,0,9.36.8,14.76,2.38v62.86c-3.18-.63-6.99-1.19-11.43-1.67-4.45-.48-8.74-.71-12.86-.71-12.38,0-22.86,2.07-31.43,6.19-8.57,4.13-15.48,9.76-20.71,16.91s-8.97,15.48-11.19,25c-2.22,9.52-3.33,19.84-3.33,30.95v110.95h-67.62v-246.19h64.29Z"/><path d="m2503.91,705.46c-7.94,13.33-18.33,22.94-31.19,28.81s-27.38,8.81-43.57,8.81c-18.42,0-34.61-3.57-48.57-10.71-13.97-7.14-25.48-16.82-34.52-29.05-9.05-12.22-15.88-26.27-20.48-42.14-4.61-15.87-6.91-32.38-6.91-49.52s2.3-32.46,6.91-47.86c4.6-15.39,11.43-28.97,20.48-40.71,9.05-11.74,20.4-21.19,34.05-28.33,13.65-7.14,29.52-10.71,47.62-10.71,14.6,0,28.49,3.1,41.67,9.29,13.17,6.19,23.57,15.32,31.19,27.38h.95v-123.81h67.62v340h-64.29v-31.43h-.95Zm-2.86-121.67c-1.9-9.36-5.16-17.62-9.76-24.76-4.61-7.14-10.56-12.93-17.86-17.38-7.31-4.44-16.51-6.67-27.62-6.67s-20.48,2.22-28.1,6.67c-7.62,4.45-13.74,10.32-18.33,17.62-4.61,7.31-7.94,15.64-10,25-2.07,9.37-3.09,19.13-3.09,29.29,0,9.52,1.11,19.05,3.33,28.57,2.22,9.52,5.79,18.02,10.71,25.48,4.92,7.46,11.11,13.5,18.57,18.1,7.46,4.61,16.43,6.9,26.91,6.9,11.11,0,20.39-2.22,27.86-6.67,7.46-4.44,13.41-10.39,17.86-17.86,4.44-7.46,7.62-15.95,9.52-25.48,1.91-9.52,2.86-19.36,2.86-29.52s-.95-19.92-2.86-29.29Z"/><path d="m2684.81,677.84c10.16,9.84,24.76,14.76,43.81,14.76,13.65,0,25.39-3.41,35.24-10.24,9.84-6.82,15.87-14.05,18.09-21.67h59.52c-9.52,29.52-24.13,50.64-43.81,63.33-19.69,12.7-43.5,19.05-71.43,19.05-19.37,0-36.83-3.1-52.38-9.29-15.56-6.19-28.74-15-39.52-26.43-10.8-11.43-19.13-25.07-25-40.95-5.88-15.87-8.81-33.33-8.81-52.38s3.01-35.55,9.05-51.43c6.03-15.87,14.6-29.6,25.71-41.19,11.11-11.58,24.36-20.71,39.76-27.38,15.39-6.67,32.46-10,51.19-10,20.95,0,39.2,4.05,54.76,12.14,15.55,8.1,28.33,18.97,38.33,32.62,10,13.65,17.22,29.21,21.67,46.67,4.44,17.46,6.03,35.71,4.76,54.76h-177.62c.95,21.9,6.5,37.78,16.67,47.62Zm76.43-129.53c-8.1-8.88-20.4-13.33-36.91-13.33-10.8,0-19.76,1.83-26.91,5.48-7.14,3.65-12.86,8.18-17.14,13.57-4.29,5.4-7.31,11.12-9.05,17.14-1.75,6.03-2.78,11.43-3.09,16.19h110c-3.18-17.14-8.81-30.16-16.9-39.05Z"/><path d="m2848.95,535.93v-45.24h40.48v-19.05c0-21.91,6.82-39.84,20.48-53.81,13.65-13.97,34.29-20.95,61.91-20.95,6.03,0,12.06.24,18.1.71,6.03.48,11.91.88,17.62,1.19v50.48c-7.94-.95-16.19-1.43-24.76-1.43-9.21,0-15.8,2.14-19.76,6.43-3.97,4.29-5.95,11.51-5.95,21.67v14.76h46.67v45.24h-46.67v200.96h-67.62v-200.96h-40.48Z"/><path d="m3092.43,677.84c10.16,9.84,24.76,14.76,43.81,14.76,13.65,0,25.39-3.41,35.24-10.24,9.84-6.82,15.87-14.05,18.09-21.67h59.52c-9.52,29.52-24.13,50.64-43.81,63.33-19.69,12.7-43.5,19.05-71.43,19.05-19.37,0-36.83-3.1-52.38-9.29-15.56-6.19-28.74-15-39.52-26.43-10.8-11.43-19.13-25.07-25-40.95-5.88-15.87-8.81-33.33-8.81-52.38s3.01-35.55,9.05-51.43c6.03-15.87,14.6-29.6,25.71-41.19,11.11-11.58,24.36-20.71,39.76-27.38,15.39-6.67,32.46-10,51.19-10,20.95,0,39.2,4.05,54.76,12.14,15.55,8.1,28.33,18.97,38.33,32.62,10,13.65,17.22,29.21,21.67,46.67,4.44,17.46,6.03,35.71,4.76,54.76h-177.62c.95,21.9,6.5,37.78,16.67,47.62Zm76.43-129.53c-8.1-8.88-20.4-13.33-36.91-13.33-10.8,0-19.76,1.83-26.91,5.48-7.14,3.65-12.86,8.18-17.14,13.57-4.29,5.4-7.31,11.12-9.05,17.14-1.75,6.03-2.78,11.43-3.09,16.19h110c-3.18-17.14-8.81-30.16-16.9-39.05Z"/><path d="m3348.52,490.69v34.29h1.43c8.57-14.29,19.68-24.68,33.33-31.19,13.65-6.5,27.62-9.76,41.91-9.76,18.1,0,32.93,2.46,44.52,7.38,11.58,4.93,20.71,11.75,27.38,20.48,6.67,8.74,11.35,19.37,14.05,31.91,2.69,12.54,4.05,26.43,4.05,41.67v151.43h-67.62v-139.05c0-20.31-3.18-35.48-9.52-45.48-6.35-10-17.62-15-33.81-15-18.42,0-31.75,5.48-40,16.43-8.26,10.95-12.38,28.97-12.38,54.05v129.05h-67.62v-246.19h64.29Z"/><path d="m3614.09,675.69c3.01,5.24,6.91,9.52,11.67,12.86s10.24,5.8,16.43,7.38c6.19,1.59,12.62,2.38,19.29,2.38,4.76,0,9.76-.55,15-1.67,5.24-1.11,10-2.86,14.29-5.24,4.29-2.38,7.86-5.55,10.71-9.52,2.86-3.97,4.29-8.97,4.29-15,0-10.16-6.75-17.78-20.24-22.86-13.5-5.07-32.31-10.16-56.43-15.24-9.84-2.22-19.45-4.84-28.81-7.86-9.37-3.01-17.7-6.98-25-11.91-7.31-4.92-13.18-11.11-17.62-18.57-4.45-7.46-6.67-16.59-6.67-27.38,0-15.87,3.09-28.88,9.29-39.05,6.19-10.16,14.36-18.17,24.52-24.05,10.16-5.87,21.58-10,34.29-12.38,12.69-2.38,25.71-3.57,39.05-3.57s26.27,1.27,38.81,3.81c12.54,2.54,23.73,6.83,33.57,12.86,9.84,6.03,18.01,14.05,24.52,24.05,6.5,10,10.39,22.62,11.67,37.86h-64.29c-.95-13.01-5.88-21.82-14.76-26.43-8.89-4.6-19.37-6.9-31.43-6.9-3.81,0-7.94.24-12.38.71-4.45.48-8.5,1.51-12.14,3.1-3.65,1.59-6.75,3.89-9.29,6.9-2.54,3.02-3.81,7.07-3.81,12.14,0,6.03,2.22,10.95,6.67,14.76,4.44,3.81,10.24,6.9,17.38,9.29,7.14,2.38,15.31,4.52,24.52,6.43,9.2,1.9,18.57,3.97,28.1,6.19,9.84,2.22,19.44,4.93,28.81,8.1,9.36,3.18,17.69,7.38,25,12.62,7.3,5.24,13.17,11.75,17.62,19.52,4.44,7.78,6.67,17.38,6.67,28.81,0,16.19-3.26,29.76-9.76,40.71-6.51,10.95-15,19.76-25.48,26.43-10.48,6.67-22.46,11.35-35.95,14.05-13.5,2.69-27.23,4.05-41.19,4.05s-28.26-1.43-41.91-4.29c-13.65-2.86-25.8-7.62-36.43-14.29-10.64-6.67-19.37-15.48-26.19-26.43-6.83-10.95-10.56-24.68-11.19-41.19h64.29c0,7.31,1.5,13.57,4.52,18.81Z"/><path d="m3875.8,677.84c10.16,9.84,24.76,14.76,43.81,14.76,13.65,0,25.39-3.41,35.24-10.24,9.84-6.82,15.87-14.05,18.09-21.67h59.52c-9.52,29.52-24.13,50.64-43.81,63.33-19.69,12.7-43.5,19.05-71.43,19.05-19.37,0-36.83-3.1-52.38-9.29-15.56-6.19-28.74-15-39.52-26.43-10.8-11.43-19.13-25.07-25-40.95-5.88-15.87-8.81-33.33-8.81-52.38s3.01-35.55,9.05-51.43c6.03-15.87,14.6-29.6,25.71-41.19,11.11-11.58,24.36-20.71,39.76-27.38,15.39-6.67,32.46-10,51.19-10,20.95,0,39.2,4.05,54.76,12.14,15.55,8.1,28.33,18.97,38.33,32.62,10,13.65,17.22,29.21,21.67,46.67,4.44,17.46,6.03,35.71,4.76,54.76h-177.62c.95,21.9,6.5,37.78,16.67,47.62Zm76.43-129.53c-8.1-8.88-20.4-13.33-36.91-13.33-10.8,0-19.76,1.83-26.91,5.48-7.14,3.65-12.86,8.18-17.14,13.57-4.29,5.4-7.31,11.12-9.05,17.14-1.75,6.03-2.78,11.43-3.09,16.19h110c-3.18-17.14-8.81-30.16-16.9-39.05Z"/></svg>