<svg id="d1370353-245a-4bb5-974d-43019867fd66" version="1.1" 
    xmlns="http://www.w3.org/2000/svg" width="400" height="400" viewBox="0, 0, 400,400">
    <g id="dd5dc8d7-d3be-4345-8f29-8c08c67483e4">
        <path id="path0" d="M135.683 75.500 C 135.401 75.885,135.295 75.947,135.447 75.638 C 135.631 75.264,135.564 75.175,135.246 75.372 C 134.972 75.541,134.878 76.016,135.027 76.484 C 135.211 77.066,135.146 77.214,134.798 76.999 C 134.426 76.769,134.378 77.183,134.593 78.749 L 134.875 80.800 129.287 80.800 C 123.461 80.800,122.471 81.077,123.036 82.549 C 123.184 82.934,123.083 83.200,122.791 83.200 C 122.441 83.200,122.355 83.727,122.499 85.000 L 122.702 86.800 120.651 86.859 C 117.014 86.964,116.997 86.968,117.056 87.700 C 117.086 88.085,116.934 88.400,116.718 88.400 C 116.476 88.400,116.431 89.170,116.600 90.400 C 116.873 92.386,116.867 92.400,115.738 92.467 C 115.112 92.503,113.880 92.579,113.000 92.635 C 112.120 92.691,110.191 92.799,108.713 92.876 C 105.438 93.045,104.991 93.439,105.031 96.118 C 105.070 98.682,104.739 99.010,102.120 99.004 C 99.490 98.999,99.023 99.481,98.908 102.320 C 98.773 105.651,98.432 109.737,98.249 110.215 C 98.159 110.451,97.045 110.597,95.671 110.554 C 92.957 110.468,92.130 111.443,92.604 114.173 C 92.935 116.082,92.386 116.532,89.736 116.520 C 87.027 116.509,86.816 116.715,86.800 119.400 C 86.783 122.131,86.471 122.485,84.048 122.522 C 82.922 122.539,82.000 122.698,82.000 122.876 C 82.000 123.054,81.775 123.155,81.500 123.100 C 81.124 123.025,80.969 124.385,80.874 128.593 C 80.725 135.161,81.089 134.459,77.809 134.511 C 76.348 134.534,75.046 134.726,74.915 134.938 C 74.773 135.167,74.904 135.194,75.238 135.003 C 75.693 134.744,75.704 134.786,75.300 135.221 C 74.952 135.596,74.800 137.369,74.800 141.037 C 74.800 146.947,74.678 147.156,71.577 146.535 C 70.717 146.363,70.363 146.417,70.533 146.692 C 70.678 146.926,70.486 147.086,70.096 147.055 C 69.626 147.018,69.441 147.241,69.527 147.740 C 69.596 148.147,69.497 148.384,69.306 148.266 C 68.816 147.963,68.792 162.430,69.281 163.348 C 69.549 163.852,69.547 164.014,69.274 163.846 C 69.051 163.708,68.808 163.770,68.734 163.984 C 68.660 164.198,67.469 164.406,66.086 164.447 C 64.704 164.487,63.461 164.701,63.325 164.922 C 63.177 165.161,63.303 165.206,63.638 165.032 C 63.957 164.867,63.923 164.970,63.558 165.272 C 62.979 165.751,62.914 169.032,62.895 198.966 C 62.881 219.289,63.015 231.911,63.241 231.565 C 63.488 231.185,63.575 231.583,63.505 232.777 C 63.381 234.882,64.277 235.584,67.100 235.594 C 68.584 235.599,68.805 235.715,68.837 236.500 C 68.857 236.995,68.902 239.470,68.937 242.000 C 69.014 247.636,68.993 247.600,72.224 247.600 L 74.800 247.600 74.800 256.120 C 74.800 265.924,74.681 265.600,78.280 265.600 L 80.800 265.600 80.800 270.951 C 80.800 277.171,80.798 277.167,84.385 277.492 L 86.800 277.711 86.800 280.413 C 86.800 283.528,86.879 283.599,90.333 283.601 L 92.600 283.603 92.665 286.256 C 92.741 289.383,92.948 289.585,96.100 289.594 L 98.400 289.600 98.473 290.900 C 98.514 291.615,98.521 292.631,98.490 293.158 C 98.374 295.132,99.011 295.600,101.814 295.600 L 104.400 295.600 104.463 297.100 C 104.498 297.925,104.498 298.927,104.463 299.326 C 104.312 301.063,105.092 301.600,107.770 301.600 L 110.311 301.600 110.564 302.946 C 110.702 303.687,110.702 304.589,110.563 304.951 C 110.424 305.314,110.533 305.878,110.804 306.205 C 111.076 306.532,111.141 306.813,110.949 306.828 C 109.759 306.924,112.574 307.549,114.300 307.572 L 116.400 307.600 116.400 308.976 C 116.400 309.733,116.587 310.469,116.816 310.610 C 117.045 310.752,117.131 311.187,117.007 311.577 C 116.573 312.945,117.835 313.346,123.303 313.578 L 128.537 313.800 128.577 316.320 C 128.630 319.574,128.655 319.586,135.219 319.594 L 140.638 319.600 142.075 318.100 C 142.865 317.275,143.824 315.970,144.207 315.200 C 145.271 313.055,150.801 308.400,152.284 308.400 C 152.557 308.400,153.048 307.881,153.376 307.246 C 153.976 306.086,157.426 302.800,158.044 302.800 C 158.226 302.800,159.108 301.808,160.004 300.594 C 160.900 299.381,162.318 297.957,163.155 297.429 C 163.991 296.900,165.331 295.556,166.132 294.442 C 166.932 293.327,168.212 292.007,168.975 291.508 C 169.739 291.008,170.776 289.909,171.282 289.065 C 171.787 288.220,172.830 286.759,173.600 285.817 C 176.663 282.071,178.387 279.604,179.563 277.283 C 180.042 276.339,181.101 274.889,181.917 274.061 C 187.025 268.877,187.999 259.139,183.354 259.681 L 182.000 259.839 181.994 257.420 C 181.985 253.944,181.982 253.941,176.952 253.802 C 174.559 253.736,172.015 253.663,171.300 253.641 L 170.000 253.600 170.000 250.987 C 170.000 247.826,170.340 247.996,163.776 247.886 L 158.600 247.800 158.400 242.560 C 158.158 236.228,158.031 236.000,154.751 236.000 L 152.400 236.000 152.400 233.424 C 152.400 230.411,152.220 230.226,149.200 230.131 C 147.990 230.094,146.865 230.049,146.700 230.031 C 146.535 230.014,146.399 226.715,146.398 222.700 C 146.395 214.122,146.042 212.202,144.538 212.580 C 143.824 212.759,143.617 212.696,143.823 212.362 C 144.039 212.014,143.634 211.964,142.257 212.171 L 140.400 212.449 140.400 200.238 L 140.400 188.028 142.393 187.763 C 145.959 187.290,146.377 186.029,146.392 175.700 L 146.400 170.000 148.920 170.000 C 152.061 170.000,152.400 169.666,152.400 166.571 L 152.400 164.102 154.430 163.907 C 157.574 163.605,158.370 161.795,158.392 154.900 L 158.400 152.400 160.900 152.392 C 167.790 152.370,169.492 151.626,169.866 148.476 L 170.111 146.400 172.576 146.400 C 175.666 146.400,176.000 146.060,176.000 142.920 L 176.000 140.400 183.029 140.400 C 188.129 140.400,190.189 140.263,190.537 139.900 C 191.305 139.099,191.123 134.782,190.269 133.522 C 189.866 132.929,189.405 131.471,189.243 130.281 C 189.027 128.687,188.582 127.654,187.551 126.359 C 186.782 125.391,185.285 122.726,184.225 120.435 C 183.164 118.144,181.706 115.679,180.983 114.957 C 180.261 114.234,179.084 112.544,178.368 111.200 C 177.651 109.856,176.726 108.574,176.311 108.353 C 175.897 108.131,174.904 106.926,174.105 105.675 C 173.307 104.424,172.150 102.895,171.535 102.278 C 170.920 101.661,169.738 100.311,168.909 99.278 C 168.079 98.245,167.288 97.310,167.152 97.200 C 167.016 97.090,166.173 95.953,165.279 94.673 C 164.386 93.393,162.828 91.798,161.818 91.129 C 160.808 90.460,159.325 89.111,158.522 88.131 C 157.719 87.151,156.598 86.103,156.031 85.803 C 155.464 85.503,154.451 84.749,153.779 84.129 C 153.108 83.508,151.803 82.502,150.879 81.894 C 149.587 81.044,149.199 80.536,149.198 79.694 C 149.194 77.856,148.407 75.632,147.609 75.205 C 146.190 74.446,136.276 74.691,135.683 75.500 M129.111 97.568 C 129.131 98.259,128.901 98.829,128.547 98.965 C 128.218 99.091,128.061 99.376,128.198 99.597 C 128.335 99.819,128.268 100.000,128.048 100.000 C 127.829 100.000,127.676 99.652,127.708 99.228 C 127.740 98.803,127.954 98.488,128.183 98.528 C 128.412 98.567,128.624 98.330,128.654 98.000 C 128.683 97.670,128.728 97.175,128.754 96.900 C 128.841 95.957,129.078 96.400,129.111 97.568 M109.350 133.200 C 109.524 134.161,109.494 134.349,109.254 133.800 C 109.061 133.360,108.790 132.370,108.650 131.600 C 108.476 130.639,108.506 130.451,108.746 131.000 C 108.939 131.440,109.210 132.430,109.350 133.200 M123.029 160.971 C 123.343 161.286,123.600 161.682,123.600 161.851 C 123.600 162.021,123.398 161.958,123.151 161.711 C 122.904 161.464,122.452 161.358,122.147 161.476 C 121.765 161.622,121.668 161.488,121.838 161.045 C 122.142 160.254,122.301 160.244,123.029 160.971 M146.324 165.384 C 146.295 166.145,146.120 166.674,145.936 166.560 C 145.751 166.446,145.600 166.543,145.600 166.776 C 145.600 167.009,145.778 167.200,145.996 167.200 C 146.213 167.200,146.354 167.650,146.308 168.200 C 146.231 169.129,145.200 169.687,145.200 168.800 C 145.200 168.580,145.391 168.400,145.624 168.400 C 145.857 168.400,145.922 168.197,145.768 167.949 C 145.581 167.645,145.358 167.732,145.089 168.213 C 144.783 168.758,144.862 169.056,145.421 169.464 C 145.823 169.759,145.951 170.000,145.705 170.000 C 144.899 170.000,143.881 168.720,144.422 168.387 C 144.686 168.223,144.779 167.889,144.628 167.645 C 144.476 167.400,144.515 167.200,144.713 167.200 C 144.911 167.200,145.289 166.480,145.553 165.600 C 146.142 163.634,146.392 163.564,146.324 165.384 M67.200 167.976 C 67.200 168.448,66.420 168.953,66.133 168.667 C 65.847 168.380,66.352 167.600,66.824 167.600 C 67.031 167.600,67.200 167.769,67.200 167.976 M91.499 200.875 C 91.433 204.464,91.379 201.640,91.378 194.600 C 91.378 187.560,91.433 184.624,91.499 188.075 C 91.566 191.526,91.566 197.286,91.499 200.875 M118.400 194.200 C 118.400 200.910,118.265 206.400,118.100 206.400 C 117.935 206.400,117.850 200.910,117.911 194.200 C 117.973 187.490,118.108 182.000,118.211 182.000 C 118.315 182.000,118.400 187.490,118.400 194.200 M63.497 203.100 C 63.422 204.805,63.361 203.410,63.361 200.000 C 63.361 196.590,63.422 195.195,63.497 196.900 C 63.572 198.605,63.572 201.395,63.497 203.100 M71.497 203.100 C 71.422 204.805,71.361 203.410,71.361 200.000 C 71.361 196.590,71.422 195.195,71.497 196.900 C 71.572 198.605,71.572 201.395,71.497 203.100 M72.297 203.100 C 72.222 204.805,72.161 203.410,72.161 200.000 C 72.161 196.590,72.222 195.195,72.297 196.900 C 72.372 198.605,72.372 201.395,72.297 203.100 M65.093 216.489 C 65.009 217.430,64.939 216.760,64.937 215.000 C 64.936 213.240,65.005 212.470,65.091 213.289 C 65.177 214.109,65.178 215.549,65.093 216.489 M66.293 216.489 C 66.209 217.430,66.139 216.760,66.137 215.000 C 66.136 213.240,66.205 212.470,66.291 213.289 C 66.377 214.109,66.378 215.549,66.293 216.489 M139.500 212.500 C 139.445 212.775,139.625 212.955,139.900 212.900 C 140.203 212.839,140.399 213.232,140.397 213.900 L 140.395 215.000 139.644 213.861 C 139.125 213.074,138.826 212.889,138.678 213.261 C 138.525 213.644,138.454 213.607,138.432 213.133 C 138.405 212.580,138.688 212.288,139.500 212.032 C 139.555 212.014,139.555 212.225,139.500 212.500 M139.490 214.800 C 139.523 215.240,139.381 215.600,139.175 215.600 C 138.745 215.600,138.669 214.665,139.067 214.267 C 139.429 213.905,139.422 213.896,139.490 214.800 M140.394 215.900 C 140.391 216.065,140.221 216.464,140.017 216.787 C 139.789 217.147,139.789 217.546,140.017 217.820 C 140.263 218.116,140.178 218.267,139.764 218.267 C 139.357 218.267,139.208 218.013,139.333 217.534 C 139.439 217.131,139.343 216.688,139.120 216.550 C 138.867 216.394,138.919 216.171,139.257 215.956 C 139.932 215.529,140.402 215.506,140.394 215.900 M143.608 218.210 C 143.886 218.545,143.998 218.935,143.857 219.076 C 143.716 219.218,143.600 219.118,143.600 218.854 C 143.600 218.590,143.195 218.211,142.700 218.012 C 142.091 217.768,142.010 217.643,142.451 217.625 C 142.809 217.611,143.330 217.874,143.608 218.210 M155.095 240.238 C 154.954 240.380,154.568 240.225,154.238 239.895 C 153.908 239.565,153.754 239.180,153.895 239.038 C 154.037 238.897,154.422 239.051,154.752 239.381 C 155.082 239.711,155.237 240.097,155.095 240.238 M100.058 286.490 C 100.279 286.430,100.344 286.568,100.202 286.797 C 99.868 287.337,99.312 286.978,98.780 285.878 C 98.363 285.015,98.367 285.013,99.006 285.800 C 99.364 286.240,99.837 286.551,100.058 286.490 M100.394 287.985 C 100.365 289.000,98.971 289.409,98.971 288.403 C 98.971 287.939,99.238 287.683,99.686 287.716 C 100.079 287.746,100.397 287.867,100.394 287.985 " stroke="none" fill="#047cfc" fill-rule="evenodd"></path>
        <path id="path1" d="M128.754 96.900 C 128.728 97.175,128.683 97.670,128.654 98.000 C 128.624 98.330,128.412 98.567,128.183 98.528 C 127.954 98.488,127.740 98.803,127.708 99.228 C 127.676 99.652,127.829 100.000,128.048 100.000 C 128.268 100.000,128.335 99.819,128.198 99.597 C 128.061 99.376,128.218 99.091,128.547 98.965 C 128.901 98.829,129.131 98.259,129.111 97.568 C 129.078 96.400,128.841 95.957,128.754 96.900 M108.650 131.600 C 108.790 132.370,109.061 133.360,109.254 133.800 C 109.494 134.349,109.524 134.161,109.350 133.200 C 109.210 132.430,108.939 131.440,108.746 131.000 C 108.506 130.451,108.476 130.639,108.650 131.600 M121.838 161.045 C 121.668 161.488,121.765 161.622,122.147 161.476 C 122.452 161.358,122.904 161.464,123.151 161.711 C 123.398 161.958,123.600 162.021,123.600 161.851 C 123.600 160.832,122.171 160.177,121.838 161.045 M145.553 165.600 C 145.289 166.480,144.911 167.200,144.713 167.200 C 144.515 167.200,144.476 167.400,144.628 167.645 C 144.779 167.889,144.686 168.223,144.422 168.387 C 143.881 168.720,144.899 170.000,145.705 170.000 C 145.951 170.000,145.823 169.759,145.421 169.464 C 144.862 169.056,144.783 168.758,145.089 168.213 C 145.358 167.732,145.581 167.645,145.768 167.949 C 145.922 168.197,145.857 168.400,145.624 168.400 C 145.391 168.400,145.200 168.580,145.200 168.800 C 145.200 169.687,146.231 169.129,146.308 168.200 C 146.354 167.650,146.213 167.200,145.996 167.200 C 145.778 167.200,145.600 167.009,145.600 166.776 C 145.600 166.543,145.751 166.446,145.936 166.560 C 146.120 166.674,146.295 166.145,146.324 165.384 C 146.392 163.564,146.142 163.634,145.553 165.600 M66.184 168.027 C 66.039 168.261,66.016 168.549,66.133 168.667 C 66.420 168.953,67.200 168.448,67.200 167.976 C 67.200 167.465,66.509 167.499,66.184 168.027 M91.378 194.600 C 91.379 201.640,91.433 204.464,91.499 200.875 C 91.566 197.286,91.566 191.526,91.499 188.075 C 91.433 184.624,91.378 187.560,91.378 194.600 M117.911 194.200 C 117.850 200.910,117.935 206.400,118.100 206.400 C 118.265 206.400,118.400 200.910,118.400 194.200 C 118.400 187.490,118.315 182.000,118.211 182.000 C 118.108 182.000,117.973 187.490,117.911 194.200 M62.901 187.000 C 62.905 187.880,62.987 188.193,63.083 187.695 C 63.179 187.198,63.175 186.478,63.075 186.095 C 62.975 185.713,62.896 186.120,62.901 187.000 M63.361 200.000 C 63.361 203.410,63.422 204.805,63.497 203.100 C 63.572 201.395,63.572 198.605,63.497 196.900 C 63.422 195.195,63.361 196.590,63.361 200.000 M71.361 200.000 C 71.361 203.410,71.422 204.805,71.497 203.100 C 71.572 201.395,71.572 198.605,71.497 196.900 C 71.422 195.195,71.361 196.590,71.361 200.000 M72.161 200.000 C 72.161 203.410,72.222 204.805,72.297 203.100 C 72.372 201.395,72.372 198.605,72.297 196.900 C 72.222 195.195,72.161 196.590,72.161 200.000 M64.937 215.000 C 64.939 216.760,65.009 217.430,65.093 216.489 C 65.178 215.549,65.177 214.109,65.091 213.289 C 65.005 212.470,64.936 213.240,64.937 215.000 M66.137 215.000 C 66.139 216.760,66.209 217.430,66.293 216.489 C 66.378 215.549,66.377 214.109,66.291 213.289 C 66.205 212.470,66.136 213.240,66.137 215.000 M138.900 212.265 C 138.625 212.376,138.414 212.767,138.432 213.133 C 138.454 213.607,138.525 213.644,138.678 213.261 C 138.826 212.889,139.125 213.074,139.644 213.861 L 140.395 215.000 140.397 213.900 C 140.399 213.232,140.203 212.839,139.900 212.900 C 139.625 212.955,139.445 212.775,139.500 212.500 C 139.555 212.225,139.555 212.014,139.500 212.032 C 139.445 212.049,139.175 212.154,138.900 212.265 M139.067 214.267 C 138.669 214.665,138.745 215.600,139.175 215.600 C 139.381 215.600,139.523 215.240,139.490 214.800 C 139.422 213.896,139.429 213.905,139.067 214.267 M139.257 215.956 C 138.919 216.171,138.867 216.394,139.120 216.550 C 139.343 216.688,139.439 217.131,139.333 217.534 C 139.208 218.013,139.357 218.267,139.764 218.267 C 140.178 218.267,140.263 218.116,140.017 217.820 C 139.789 217.546,139.789 217.147,140.017 216.787 C 140.725 215.666,140.355 215.261,139.257 215.956 M142.700 218.012 C 143.195 218.211,143.600 218.590,143.600 218.854 C 143.600 219.118,143.716 219.218,143.857 219.076 C 144.247 218.686,143.191 217.597,142.451 217.625 C 142.010 217.643,142.091 217.768,142.700 218.012 M153.895 239.038 C 153.754 239.180,153.908 239.565,154.238 239.895 C 154.568 240.225,154.954 240.380,155.095 240.238 C 155.237 240.097,155.082 239.711,154.752 239.381 C 154.422 239.051,154.037 238.897,153.895 239.038 M159.505 247.883 C 160.002 247.979,160.722 247.975,161.105 247.875 C 161.487 247.775,161.080 247.696,160.200 247.701 C 159.320 247.705,159.007 247.787,159.505 247.883 M98.780 285.878 C 99.312 286.978,99.868 287.337,100.202 286.797 C 100.344 286.568,100.279 286.430,100.058 286.490 C 99.837 286.551,99.364 286.240,99.006 285.800 C 98.367 285.013,98.363 285.015,98.780 285.878 M98.971 288.403 C 98.971 289.177,99.590 289.286,100.094 288.600 C 100.552 287.977,100.458 287.775,99.686 287.716 C 99.238 287.683,98.971 287.939,98.971 288.403 " stroke="none" fill="#0484fc" fill-rule="evenodd"></path>
        <path id="path2" d="M176.900 63.065 C 176.625 63.176,176.398 63.837,176.396 64.533 C 176.393 65.230,176.280 66.475,176.143 67.300 L 175.895 68.800 162.848 68.847 C 146.213 68.908,146.504 68.825,146.423 73.500 L 146.400 74.800 148.524 74.800 C 151.448 74.800,152.014 75.320,152.280 78.247 L 152.498 80.660 154.276 81.136 C 156.121 81.629,157.138 82.487,165.128 90.287 C 168.270 93.355,169.019 94.330,169.588 96.087 C 170.192 97.953,170.486 98.303,172.099 99.079 C 174.209 100.093,174.381 100.309,175.233 103.000 C 175.722 104.546,176.164 105.152,177.176 105.670 C 179.026 106.618,180.290 107.901,180.591 109.138 C 180.973 110.709,182.111 113.200,182.446 113.200 C 183.784 113.200,186.857 118.384,187.390 121.541 C 187.563 122.563,188.029 123.552,188.522 123.940 C 190.877 125.795,191.510 126.805,192.004 129.492 C 192.278 130.982,192.721 132.740,192.989 133.401 C 193.257 134.061,193.426 134.943,193.365 135.361 C 193.303 135.779,193.205 136.949,193.147 137.961 C 193.078 139.162,192.826 139.894,192.420 140.072 C 192.079 140.221,199.045 140.356,207.900 140.372 L 224.000 140.400 224.000 142.920 C 224.000 146.060,224.334 146.400,227.424 146.400 L 229.889 146.400 230.134 148.476 C 230.509 151.640,232.199 152.348,239.467 152.387 L 241.935 152.400 242.067 157.387 C 242.223 163.240,242.388 163.533,245.720 163.877 L 247.967 164.109 248.084 166.954 L 248.200 169.800 250.900 169.918 L 253.600 170.037 253.619 174.318 C 253.672 185.931,254.077 187.295,257.607 187.763 L 259.600 188.028 259.600 199.958 L 259.600 211.889 257.168 212.109 C 255.831 212.231,254.616 212.451,254.468 212.598 C 254.082 212.985,253.675 218.980,253.635 224.882 L 253.600 229.963 250.900 230.082 L 248.200 230.200 247.845 233.100 L 247.489 236.000 245.225 236.000 C 242.351 236.000,242.000 236.378,242.000 239.480 L 242.000 242.000 239.629 242.000 C 236.525 242.000,236.000 242.523,236.000 245.611 L 236.000 247.965 233.100 248.082 L 230.200 248.200 230.083 250.839 L 229.966 253.479 224.319 253.720 C 217.898 253.995,218.015 253.928,218.006 257.300 L 218.000 259.600 202.610 259.600 L 187.220 259.600 187.610 260.626 C 189.355 265.215,186.672 274.628,183.100 276.451 C 182.275 276.872,181.600 277.476,181.600 277.794 C 181.600 279.667,180.180 282.348,178.116 284.374 C 176.697 285.766,175.501 287.437,174.790 289.023 C 173.777 291.279,171.629 293.600,170.553 293.600 C 170.349 293.600,169.826 294.270,169.391 295.089 C 168.281 297.179,166.597 299.021,165.302 299.561 C 164.696 299.814,163.499 301.027,162.643 302.257 C 161.787 303.488,160.461 304.863,159.696 305.314 C 158.932 305.765,157.552 307.095,156.630 308.270 C 155.548 309.648,153.932 311.017,152.075 312.129 C 149.664 313.571,149.031 314.183,148.181 315.888 C 147.027 318.204,145.759 318.992,142.495 319.425 L 140.400 319.703 140.400 321.972 C 140.400 325.158,140.483 325.200,146.828 325.200 L 152.297 325.200 152.564 327.564 C 152.991 331.338,148.326 331.000,200.000 331.000 C 251.663 331.000,247.009 331.336,247.435 327.575 L 247.701 325.221 253.550 325.110 L 259.400 325.000 259.518 322.300 L 259.637 319.600 265.138 319.600 C 271.576 319.600,271.600 319.587,271.600 316.160 L 271.600 313.680 276.786 313.540 C 282.867 313.376,283.131 313.231,283.478 309.863 L 283.712 307.600 286.176 307.600 C 289.262 307.600,289.600 307.259,289.600 304.138 L 289.600 301.635 292.500 301.518 L 295.400 301.400 295.517 298.517 L 295.634 295.634 298.517 295.517 L 301.400 295.400 301.517 292.517 L 301.634 289.634 304.517 289.517 L 307.400 289.400 307.518 286.500 L 307.635 283.600 309.989 283.600 C 313.063 283.600,313.600 283.069,313.600 280.027 L 313.600 277.712 315.863 277.478 C 319.231 277.131,319.376 276.867,319.540 270.786 L 319.680 265.600 321.960 265.600 C 325.163 265.600,325.200 265.525,325.200 259.120 L 325.200 253.600 327.400 253.600 C 331.152 253.600,331.200 253.478,331.200 244.000 L 331.200 236.000 332.740 236.000 C 334.958 236.000,336.681 235.295,336.954 234.275 C 337.391 232.645,337.229 166.001,336.786 165.174 C 336.442 164.531,335.933 164.400,333.786 164.400 L 331.200 164.400 331.200 155.880 C 331.200 146.079,331.317 146.400,327.731 146.400 L 325.221 146.400 325.111 140.500 L 325.000 134.600 322.300 134.482 L 319.600 134.363 319.600 129.182 C 319.600 122.879,319.332 122.400,315.800 122.400 L 313.600 122.400 313.600 119.880 C 313.600 116.729,313.271 116.400,310.120 116.400 L 307.600 116.400 307.587 113.900 C 307.548 106.518,306.987 105.200,303.730 104.850 L 301.400 104.600 301.150 102.270 C 300.839 99.381,300.619 99.161,297.730 98.850 L 295.400 98.600 295.150 96.270 C 294.813 93.133,294.744 93.094,288.799 92.652 L 283.600 92.265 283.600 90.165 C 283.600 86.897,283.508 86.800,280.413 86.800 L 277.711 86.800 277.492 84.385 C 277.167 80.801,277.166 80.800,270.999 80.800 L 265.696 80.800 265.519 78.346 C 265.272 74.933,265.017 74.800,258.724 74.800 L 253.600 74.800 253.577 73.500 C 253.496 68.824,253.793 68.908,237.100 68.847 L 224.000 68.800 224.000 66.429 C 224.000 62.495,226.001 62.795,200.071 62.832 C 187.602 62.849,177.175 62.954,176.900 63.065 " stroke="none" fill="#040404" fill-rule="evenodd"></path>
        <path id="path3" d="M147.684 75.194 C 148.426 75.658,149.194 77.942,149.198 79.694 C 149.199 80.536,149.587 81.044,150.879 81.894 C 151.803 82.502,153.108 83.508,153.779 84.129 C 154.451 84.749,155.464 85.503,156.031 85.803 C 156.598 86.103,157.719 87.151,158.522 88.131 C 159.325 89.111,160.808 90.460,161.818 91.129 C 162.828 91.798,164.386 93.393,165.279 94.673 C 166.173 95.953,167.016 97.090,167.152 97.200 C 167.288 97.310,168.079 98.245,168.909 99.278 C 169.738 100.311,170.920 101.661,171.535 102.278 C 172.150 102.895,173.307 104.424,174.105 105.675 C 174.904 106.926,175.897 108.131,176.311 108.353 C 176.726 108.574,177.651 109.856,178.368 111.200 C 179.084 112.544,180.261 114.234,180.983 114.957 C 181.706 115.679,183.164 118.144,184.225 120.435 C 185.285 122.726,186.782 125.391,187.551 126.359 C 188.591 127.667,189.027 128.684,189.250 130.326 C 189.414 131.541,189.895 133.002,190.317 133.573 C 190.892 134.351,191.067 135.191,191.014 136.916 C 190.962 138.605,191.111 139.348,191.572 139.697 C 191.917 139.959,192.076 140.026,191.926 139.846 C 191.775 139.665,191.814 139.090,192.012 138.567 C 192.626 136.953,192.516 135.090,191.676 132.903 C 191.234 131.750,190.752 130.103,190.607 129.242 C 190.452 128.322,189.781 127.021,188.979 126.084 C 188.229 125.208,187.094 123.136,186.456 121.480 C 185.795 119.764,184.343 117.202,183.081 115.525 C 181.863 113.907,180.574 111.851,180.216 110.956 C 179.845 110.029,178.539 108.361,177.182 107.081 C 175.872 105.844,174.800 104.497,174.800 104.088 C 174.800 103.122,172.250 100.150,170.760 99.379 C 170.122 99.049,169.600 98.497,169.600 98.151 C 169.600 97.806,169.215 96.956,168.744 96.262 C 166.542 93.017,155.956 83.006,153.287 81.645 C 152.079 81.028,151.608 80.511,151.434 79.609 C 151.305 78.944,151.098 77.872,150.974 77.228 C 150.697 75.790,150.204 75.368,148.400 75.029 C 147.317 74.825,147.155 74.862,147.684 75.194 M185.700 260.032 C 187.833 261.274,185.314 270.614,181.917 274.061 C 181.101 274.889,180.042 276.339,179.563 277.283 C 178.387 279.604,176.663 282.071,173.600 285.817 C 172.830 286.759,171.787 288.220,171.282 289.065 C 170.776 289.909,169.739 291.008,168.975 291.508 C 168.212 292.007,166.932 293.327,166.132 294.442 C 165.331 295.556,163.991 296.900,163.155 297.429 C 162.318 297.957,160.900 299.381,160.004 300.594 C 159.108 301.808,158.226 302.800,158.044 302.800 C 157.426 302.800,153.976 306.086,153.376 307.246 C 153.048 307.881,152.557 308.400,152.284 308.400 C 150.801 308.400,145.271 313.055,144.207 315.200 C 143.824 315.970,142.857 317.295,142.056 318.145 C 140.706 319.577,140.673 319.669,141.600 319.400 C 144.681 318.509,146.794 316.596,146.799 314.695 C 146.799 314.277,147.712 313.407,149.039 312.558 C 152.478 310.358,158.824 304.643,162.584 300.360 C 163.473 299.347,164.672 298.191,165.249 297.790 C 165.826 297.390,167.086 296.085,168.049 294.891 C 169.012 293.697,170.048 292.513,170.352 292.260 C 171.991 290.895,173.559 288.998,174.337 287.440 C 174.820 286.474,176.381 284.382,177.807 282.792 C 179.233 281.202,180.400 279.646,180.400 279.334 C 180.400 278.238,181.939 275.768,182.964 275.219 C 186.981 273.069,189.206 259.528,185.529 259.612 C 185.196 259.620,185.259 259.775,185.700 260.032 " stroke="none" fill="#044840" fill-rule="evenodd"></path>
        <path id="path4" d="M149.000 75.089 C 150.217 75.389,150.726 75.940,150.974 77.228 C 151.098 77.872,151.305 78.944,151.434 79.609 C 151.608 80.511,152.079 81.028,153.287 81.645 C 155.138 82.589,160.927 87.751,165.644 92.663 C 168.234 95.360,169.600 97.256,169.600 98.151 C 169.600 98.497,170.122 99.049,170.760 99.379 C 172.250 100.150,174.800 103.122,174.800 104.088 C 174.800 104.497,175.872 105.844,177.182 107.081 C 178.539 108.361,179.845 110.029,180.216 110.956 C 180.574 111.851,181.863 113.907,183.081 115.525 C 184.343 117.202,185.795 119.764,186.456 121.480 C 187.094 123.136,188.229 125.208,188.979 126.084 C 189.781 127.021,190.452 128.322,190.607 129.242 C 190.752 130.103,191.234 131.750,191.676 132.903 C 192.516 135.090,192.626 136.953,192.012 138.567 C 191.814 139.090,191.747 139.614,191.865 139.732 C 191.983 139.849,191.701 139.847,191.240 139.726 C 190.757 139.600,190.400 139.697,190.400 139.953 C 190.400 140.199,190.715 140.387,191.100 140.372 C 192.616 140.311,193.040 139.812,193.147 137.961 C 193.205 136.949,193.303 135.779,193.365 135.361 C 193.426 134.943,193.257 134.061,192.989 133.401 C 192.721 132.740,192.278 130.982,192.004 129.492 C 191.510 126.805,190.877 125.795,188.522 123.940 C 188.029 123.552,187.563 122.563,187.390 121.541 C 186.857 118.384,183.784 113.200,182.446 113.200 C 182.111 113.200,180.973 110.709,180.591 109.138 C 180.290 107.901,179.026 106.618,177.176 105.670 C 176.164 105.152,175.722 104.546,175.233 103.000 C 174.381 100.309,174.209 100.093,172.099 99.079 C 170.486 98.303,170.192 97.953,169.588 96.087 C 169.019 94.330,168.270 93.355,165.128 90.287 C 157.138 82.487,156.121 81.629,154.276 81.136 L 152.498 80.660 152.280 78.247 C 152.033 75.533,151.394 74.772,149.424 74.846 C 148.575 74.879,148.445 74.953,149.000 75.089 M186.764 260.369 C 189.052 261.818,186.045 273.571,182.964 275.219 C 181.939 275.768,180.400 278.238,180.400 279.334 C 180.400 279.646,179.233 281.202,177.807 282.792 C 176.381 284.382,174.820 286.474,174.337 287.440 C 173.559 288.998,171.991 290.895,170.352 292.260 C 170.048 292.513,169.012 293.697,168.049 294.891 C 167.086 296.085,165.826 297.390,165.249 297.790 C 164.672 298.191,163.473 299.347,162.584 300.360 C 158.856 304.607,152.476 310.359,149.097 312.521 C 147.412 313.599,146.859 314.206,146.661 315.195 C 146.356 316.719,144.571 318.496,142.728 319.111 L 141.400 319.555 143.000 319.330 C 145.817 318.934,147.082 318.094,148.181 315.888 C 149.031 314.183,149.664 313.571,152.075 312.129 C 153.932 311.017,155.548 309.648,156.630 308.270 C 157.552 307.095,158.932 305.765,159.696 305.314 C 160.461 304.863,161.787 303.488,162.643 302.257 C 163.499 301.027,164.696 299.814,165.302 299.561 C 166.597 299.021,168.281 297.179,169.391 295.089 C 169.826 294.270,170.349 293.600,170.553 293.600 C 171.629 293.600,173.777 291.279,174.790 289.023 C 175.501 287.437,176.697 285.766,178.116 284.374 C 180.180 282.348,181.600 279.667,181.600 277.794 C 181.600 277.476,182.275 276.872,183.100 276.451 C 185.073 275.444,185.786 274.590,186.546 272.322 C 188.303 267.079,188.480 259.991,186.853 260.006 C 186.315 260.011,186.299 260.075,186.764 260.369 " stroke="none" fill="#040444" fill-rule="evenodd"></path>
        <path id="path5" d="" stroke="none" fill="#080404" fill-rule="evenodd"></path>
        <path id="path6" d="" stroke="none" fill="#080404" fill-rule="evenodd"></path>
        <path id="path7" d="" stroke="none" fill="#080404" fill-rule="evenodd"></path>
        <path id="path8" d="" stroke="none" fill="#080404" fill-rule="evenodd"></path>
    </g>
</svg>