<svg width="16" height="16" viewBox="0 0 16 16" fill="none" xmlns="http://www.w3.org/2000/svg">
<path d="M5.86662 6.69546C5.65929 5.57333 5.2011 4.59413 4.55838 3.94773V3.94986C4.4257 3.81546 4.28679 3.69813 4.14373 3.59786C4.55838 3.20533 5.03109 2.87253 5.54319 2.6144C5.95784 2.90026 6.3414 3.30773 6.6752 3.82826C6.97375 4.29333 7.21425 4.82239 7.39462 5.39626C6.7291 5.59039 6.17761 6.04693 5.86662 6.69546Z" fill="#0080FF"/>
<path d="M5.89156 9.29813C6.20877 9.92106 6.75197 10.3648 7.40505 10.5547V10.5568C7.21223 11.1883 6.94478 11.7664 6.61306 12.2699C6.29999 12.7435 5.94546 13.1211 5.56191 13.3963C5.0664 13.1488 4.61028 12.8331 4.20599 12.4619C4.55845 12.2101 4.8798 11.8517 5.15347 11.3973C5.51215 10.8 5.76302 10.0789 5.89156 9.29813Z" fill="#0080FF"/>
<path d="M5.27576 8.00746C5.26125 6.52479 4.79684 5.17866 4.02973 4.40639C3.89289 4.26986 3.75191 4.15679 3.60471 4.06506C3.25225 4.47893 2.9537 4.94399 2.72149 5.44746C3.26884 5.97439 3.62544 6.92373 3.62544 8.03093C3.62544 9.12533 3.27506 10.0661 2.74015 10.5973C2.98065 11.1115 3.29164 11.5829 3.66069 12.0032C3.98204 11.8005 4.27852 11.4827 4.53146 11.0624C5.02283 10.2496 5.28613 9.16373 5.27576 8.00959V8.00746Z" fill="#0080FF"/>
<path d="M2.33317 5.95489L2.3338 5.95306H2.33172L2.33317 5.95489Z" fill="#0080FF"/>
<path d="M2.33317 5.95489C2.11795 6.57944 2 7.25081 2 7.94773C2 8.64533 2.12232 9.34719 2.34624 9.98293C2.69662 9.52853 2.92883 8.79039 2.92883 7.97759C2.92883 7.16588 2.69104 6.40737 2.33317 5.95489Z" fill="#0080FF"/>
<path d="M8.12844 2C7.49402 2 6.8824 2.10453 6.30811 2.2944C6.65642 2.59947 6.97777 2.97707 7.26596 3.42507C7.62049 3.9776 7.90245 4.60907 8.10563 5.29387C8.11392 5.29387 8.12014 5.29387 8.12844 5.29387C9.53204 5.29387 10.6703 6.32 10.6703 7.9776C10.6703 9.6352 9.53204 10.6592 8.12844 10.6592C8.12429 10.6592 8.12222 10.6592 8.11807 10.6592C7.90038 11.4037 7.59146 12.0907 7.19961 12.6837C6.93423 13.0848 6.63983 13.4304 6.32469 13.712C6.89277 13.8997 7.50024 14 8.12844 14C11.371 14 13.9999 11.3141 13.9999 8.00107C13.9999 4.688 11.371 2.00213 8.12844 2.00213V2Z" fill="#10111D"/>
</svg>
