<?xml version="1.0" encoding="UTF-8"?>
<svg width="18px" height="18px" viewBox="0 0 18 18" version="1.1" xmlns="http://www.w3.org/2000/svg">
    <!-- Generator: Sketch 64 (93537) - https://sketch.com -->
    <desc>Created with Sketch.</desc>
    <g id="57b85efc-5c00-4a3a-b02a-41be3839a6e7" stroke="none" stroke-width="1" fill="none" fill-rule="evenodd">
        <g id="92f965e0-9aae-4752-ad92-c5854c94da35" transform="translate(0.500000, 0.500000)" fill-rule="nonzero">
            <path d="M8.3546988,0.197636878 C7.31395993,0.194580839 6.28109803,0.382707644 5.30506024,0.753139535 C6.45709253,1.66726295 7.38187713,2.84790575 8.00385542,4.19860465 C8.11951807,4.19860465 8.23710843,4.1827907 8.3546988,4.1827907 C10.8163855,4.1827907 12.5012048,6.17534884 12.5012048,8.59883721 C12.5012048,11.0223256 10.8163855,12.9832558 8.3546988,12.9832558 C8.16128694,12.983215 7.96809107,12.9700077 7.77638554,12.9437209 C7.07557527,14.2627995 6.07841368,15.3917109 4.86746988,16.2369767 C5.96851723,16.7239108 7.15562677,16.9728897 8.3546988,16.9684325 C13.1084337,16.9684325 16.7113253,13.244186 16.7113253,8.59883721 C16.7113253,3.95348837 13.1084337,0.197636878 8.3546988,0.197636878 Z" id="773be802-12fb-49c5-8b11-115019e6a3e2" fill="#000000"></path>
            <path d="M3.38891566,15.3830233 C3.76843217,15.6587882 4.17021196,15.9008296 4.58987952,16.1065116 C5.74286121,15.2592775 6.68953139,14.1505257 7.35614458,12.8666279 C6.73833867,12.7231342 6.16317432,12.429593 5.67903614,12.0106977 C5.16735037,13.2941337 4.38532047,14.4457147 3.38891566,15.3830233 Z" id="7235ea08-1fd6-44a7-a79a-5332f61eb25f" fill="#0080FF"></path>
            <path d="M7.57012048,4.25593023 C6.97564337,2.94276297 6.09600335,1.78650741 4.99855422,0.875697674 C4.54324489,1.07050163 4.10583958,1.30667513 3.69156627,1.58139535 C4.63941785,2.5642297 5.36641069,3.7475601 5.82168675,5.04860465 C6.33293578,4.64246195 6.93310307,4.37036856 7.57012048,4.25593023 L7.57012048,4.25593023 Z" id="36597f95-c2f1-402f-9553-a03a27329183" fill="#0080FF"></path>
            <path d="M5.46698795,5.37081395 C5.04956996,4.03285421 4.34845562,2.80625482 3.4139759,1.77906977 C2.97459058,2.0995155 2.56715031,2.46368693 2.19759036,2.86627907 C3.28142328,4.47633625 3.85983674,6.38744344 3.85542169,8.34383721 C3.86545394,10.416383 3.21645308,12.4358103 2.00674699,14.0961628 C2.34917865,14.4967142 2.72879783,14.8621562 3.14024096,15.1873256 C4.12091125,14.2022346 4.87439049,13.0047702 5.34554217,11.6825581 C4.59842728,10.840108 4.19241254,9.73740215 4.21012048,8.59883721 C4.19219246,7.3939494 4.64472374,6.23170952 5.46698795,5.37081395 L5.46698795,5.37081395 Z" id="1c826130-b0e9-4858-8c26-2662062ad24b" fill="#0080FF"></path>
            <path d="M1.32048193,8.34383721 C1.32241679,9.56794913 1.09805498,10.7813435 0.659277108,11.9197674 C0.940118915,12.5917996 1.30774527,13.2220897 1.75228916,13.7937209 C2.82626441,12.1903565 3.39725929,10.2889723 3.38891566,8.34383721 C3.39364124,6.50926972 2.88664019,4.71157788 1.92771084,3.1627907 C1.46189435,3.73137763 1.07285722,4.36169129 0.771084337,5.03674419 C1.13941484,6.09821483 1.32530553,7.21718186 1.32048193,8.34383721 L1.32048193,8.34383721 Z" id="0f7ea6e9-149b-42cd-ac11-9100baba5fde" fill="#0080FF"></path>
            <path d="M0.422168675,11.2793023 C0.714720936,10.329743 0.862963402,9.3396572 0.861694923,8.34383721 C0.861786932,7.44283402 0.740479174,6.54613758 0.501204819,5.67918605 C-0.138776817,7.48361621 -0.166622655,9.45663667 0.422168675,11.2793023 L0.422168675,11.2793023 Z" id="5a8a86d0-bc96-4a69-bc6f-94e255200ff8" fill="#0080FF"></path>
        </g>
    </g>
</svg>