<svg width="364" height="85" viewBox="0 0 364 85" fill="none" id="4d6f8fed-bbaf-4640-8be1-5a02c89931f5" xmlns="http://www.w3.org/2000/svg">
<g clip-path="url(#clip0_1_27)">
<path d="M60.6064 27.4531L39.1485 15.0585C38.2325 14.5983 36.9407 14.6076 35.9918 15.0818L14.5057 27.4345C13.538 27.918 12.8052 29.1082 12.8052 30.2007V40.4892L18.9777 44.5014C19.1938 44.6409 19.4709 44.6549 19.6964 44.534C19.9266 44.4131 20.0675 44.176 20.0675 43.9203V33.3203C20.0675 32.9948 20.4245 32.3672 20.7815 32.1859L36.8843 22.9527C37.2554 22.7668 37.9131 22.7575 38.2513 22.9295L54.4481 32.2138C54.7863 32.3812 55.1151 32.9298 55.1151 33.3203V52.047C55.1151 52.3724 54.7581 53 54.4105 53.1767L38.2982 62.4145C37.9271 62.6005 37.293 62.6051 36.9407 62.4424L13.895 47.5606C13.679 47.4211 13.4018 47.4071 13.1763 47.5327C12.9509 47.6535 12.8099 47.8907 12.8099 48.1464V55.5478C12.8099 55.8267 12.9509 56.0778 13.1904 56.2219L35.9824 70.1786L36.0435 70.2111C36.4803 70.4296 37.0252 70.5459 37.5842 70.5459C38.1432 70.5459 38.7304 70.4203 39.2049 70.1786L60.5782 57.7189C61.5459 57.2354 62.2787 56.0452 62.2787 54.9527V30.1961C62.2787 29.2848 61.6398 27.9738 60.6111 27.4438L60.6064 27.4531Z" fill="#24B770"/>
<path d="M73.4304 20.056L39.1203 0.334378C38.209 -0.116587 36.889 -0.116587 35.9401 0.352975L1.70517 20.0374C0.732801 20.5209 0 21.7064 0 22.799V72.6655C0 72.8329 0.0939488 72.9909 0.239569 73.07L6.56232 76.5754C6.87705 76.7474 7.26224 76.5243 7.26224 76.1663V26.1231C7.26224 25.6721 7.7179 24.8446 8.22052 24.5935L36.6072 8.35412C37.1239 8.09842 37.9647 8.09842 38.4392 8.33553L66.9009 24.733C67.3848 24.9748 67.8216 25.6907 67.8216 26.244V58.9971C67.8216 59.448 67.366 60.2756 66.8634 60.5266L38.4298 76.7939C38.0728 77.0031 37.1474 77.0357 36.6353 76.7846L15.2996 63.8647C14.75 63.5114 14.1628 63.4509 13.6836 63.7066C13.1904 63.967 12.9086 64.5016 12.9086 65.1758V78.7605C12.9086 78.9279 13.0025 79.086 13.1481 79.165L19.593 82.7355C19.9078 82.9075 20.2929 82.6844 20.2929 82.331V75.1435C20.2929 75.0598 20.3023 75.004 20.3117 74.9715C20.3587 74.9715 20.4433 74.9901 20.5513 75.0412L35.9683 84.6649C36.8796 85.1159 38.1996 85.1159 39.1109 84.6649L73.3834 64.9666C74.3558 64.483 75.0886 63.2975 75.0886 62.205V22.799C75.0886 21.8924 74.3887 20.5348 73.421 20.056H73.4304Z" fill="#24B770"/>
<path d="M119.461 30.9214C117.041 29.5871 114.284 28.9222 111.193 28.9222C108.534 28.9222 106.139 29.5034 103.997 30.661C102.738 31.3444 101.648 32.2417 100.727 33.3435V29.336H93.6482V72.1963H101.023V56.9425C101.92 57.9653 102.949 58.8068 104.114 59.4484C106.214 60.606 108.577 61.1872 111.193 61.1872C114.284 61.1872 117.041 60.5223 119.461 59.1834C121.88 57.8491 123.792 55.9755 125.201 53.5626C126.61 51.1497 127.315 48.3137 127.315 45.0547C127.315 41.7957 126.61 39.0108 125.201 36.5747C123.792 34.1432 121.88 32.2557 119.461 30.9214ZM118.507 50.2292C117.676 51.7215 116.553 52.8792 115.144 53.7021C113.734 54.525 112.119 54.9387 110.296 54.9387C108.473 54.9387 106.965 54.525 105.537 53.7021C104.109 52.8792 102.977 51.7215 102.146 50.2292C101.314 48.7368 100.896 47.012 100.896 45.0501C100.896 43.0881 101.314 41.3122 102.146 39.8384C102.977 38.3646 104.109 37.2302 105.537 36.4259C106.965 35.6216 108.553 35.2171 110.296 35.2171C112.039 35.2171 113.734 35.6216 115.144 36.4259C116.553 37.2302 117.671 38.3693 118.507 39.8384C119.338 41.3122 119.757 43.0463 119.757 45.0501C119.757 47.0538 119.338 48.7415 118.507 50.2292Z" fill="white"/>
<path d="M158.003 33.1483C157.111 32.1348 156.091 31.2979 154.94 30.6563C152.859 29.4987 150.468 28.9176 147.772 28.9176C144.719 28.9176 141.98 29.587 139.566 30.9167C137.146 32.251 135.244 34.1339 133.854 36.57C132.463 39.0062 131.773 41.8282 131.773 45.05C131.773 48.2719 132.468 51.1451 133.854 53.5579C135.239 55.9708 137.146 57.8444 139.566 59.1787C141.985 60.513 144.719 61.1825 147.772 61.1825C150.548 61.1825 152.977 60.6014 155.058 59.4437C156.326 58.7417 157.425 57.8026 158.36 56.6403V60.7688H165.439V29.3313H158.003V33.1483ZM156.876 50.2617C156.044 51.7727 154.912 52.9303 153.484 53.7346C152.056 54.5389 150.45 54.9434 148.665 54.9434C146.88 54.9434 145.334 54.5436 143.906 53.7346C142.478 52.9303 141.346 51.7727 140.515 50.2617C139.683 48.7508 139.265 47.012 139.265 45.05C139.265 43.0881 139.683 41.3121 140.515 39.8384C141.346 38.3646 142.478 37.2302 143.906 36.4259C145.334 35.6216 146.917 35.2171 148.665 35.2171C150.412 35.2171 152.056 35.6216 153.484 36.4259C154.912 37.2302 156.044 38.3692 156.876 39.8384C157.707 41.3121 158.125 43.0463 158.125 45.05C158.125 47.0538 157.707 48.7508 156.876 50.2617Z" fill="white"/>
<path d="M188.104 55.1154C186.676 55.1154 185.568 54.7016 184.774 53.8787C183.98 53.0558 183.585 51.8982 183.585 50.4058V35.4496H192.153V29.5638H183.585V22.3809H176.21V29.5638H170.977V35.4496H176.21V50.6383C176.21 54.0926 177.164 56.7147 179.066 58.5C180.969 60.2852 183.665 61.1779 187.155 61.1779C188.466 61.1779 189.753 61.0012 191.021 60.6479C192.29 60.2945 193.38 59.7645 194.291 59.0579L192.149 53.8183C191.078 54.683 189.73 55.1154 188.104 55.1154Z" fill="white"/>
<path d="M225.252 30.3914C223.288 29.4104 221.019 28.9176 218.44 28.9176C215.664 28.9176 213.217 29.4662 211.094 30.5634C209.825 31.2235 208.745 32.0464 207.852 33.0274V17.0809H200.477V60.7641H207.852V44.8687C207.852 42.7487 208.219 40.9914 208.952 39.6013C209.684 38.2065 210.727 37.1605 212.075 36.4538C213.424 35.7472 214.969 35.3938 216.716 35.3938C219.136 35.3938 221.001 36.0819 222.306 37.4534C223.617 38.8295 224.27 40.9077 224.27 43.6925V60.7641H231.706V42.7487C231.706 39.5687 231.119 36.9606 229.949 34.9196C228.779 32.8786 227.211 31.3677 225.252 30.3867V30.3914Z" fill="white"/>
<path d="M248.598 17.0855H241.223V60.7687H248.598V17.0855Z" fill="white"/>
<path d="M281.405 31.0097C278.845 29.6149 275.923 28.9176 272.63 28.9176C269.337 28.9176 266.481 29.6149 263.945 31.0097C261.408 32.4044 259.402 34.2966 257.936 36.6909C256.471 39.0852 255.738 41.87 255.738 45.05C255.738 48.23 256.471 50.9172 257.936 53.3487C259.402 55.7849 261.417 57.6957 263.973 59.0904C266.533 60.4851 269.417 61.1825 272.625 61.1825C275.834 61.1825 278.793 60.4851 281.372 59.0904C283.951 57.6957 285.961 55.7942 287.408 53.3813C288.855 50.9684 289.578 48.1929 289.578 45.05C289.578 41.9072 288.855 39.0852 287.408 36.6909C285.961 34.2966 283.96 32.4044 281.4 31.0097H281.405ZM280.869 50.2617C280.057 51.7727 278.934 52.9303 277.506 53.7346C276.078 54.5389 274.453 54.9434 272.63 54.9434C270.807 54.9434 269.3 54.5436 267.872 53.7346C266.444 52.9303 265.312 51.7727 264.48 50.2617C263.649 48.7508 263.231 47.012 263.231 45.05C263.231 43.0881 263.649 41.3121 264.48 39.8384C265.312 38.3646 266.444 37.2302 267.872 36.4259C269.3 35.6216 270.906 35.2171 272.691 35.2171C274.476 35.2171 276.083 35.6216 277.511 36.4259C278.939 37.2302 280.057 38.3692 280.874 39.8384C281.687 41.3121 282.095 43.0463 282.095 45.05C282.095 47.0538 281.687 48.7508 280.874 50.2617H280.869Z" fill="white"/>
<path d="M306.297 36.4259C307.762 35.6216 309.411 35.2171 311.234 35.2171C312.821 35.2171 314.296 35.5798 315.663 36.305C317.03 37.0303 318.191 38.1228 319.144 39.5734L324.795 36.2771C323.607 33.8828 321.822 32.0604 319.44 30.8005C317.058 29.5452 314.343 28.9176 311.29 28.9176C307.959 28.9176 304.995 29.6149 302.398 31.0097C299.8 32.4044 297.766 34.2966 296.3 36.6909C294.835 39.0852 294.102 41.87 294.102 45.05C294.102 48.23 294.835 50.9684 296.3 53.3813C297.766 55.7942 299.8 57.7003 302.398 59.0904C304.995 60.4851 307.959 61.1825 311.29 61.1825C314.343 61.1825 317.058 60.5456 319.44 59.2671C321.822 57.9932 323.602 56.1754 324.795 53.8229L319.144 50.5267C318.191 52.0191 317.03 53.1256 315.663 53.8555C314.296 54.5808 312.817 54.9434 311.234 54.9434C309.411 54.9434 307.762 54.5436 306.297 53.7346C304.831 52.9303 303.68 51.782 302.849 50.2896C302.017 48.7972 301.599 47.0538 301.599 45.05C301.599 43.0463 302.017 41.3121 302.849 39.8384C303.68 38.3646 304.831 37.2302 306.297 36.4259Z" fill="white"/>
<path d="M355.018 60.7687H364L349.438 42.5023L362.75 29.3313H353.825L338.422 43.4321V17.0855H331.043V60.7687H338.422V52.4747L343.895 47.3049L355.018 60.7687Z" fill="white"/>
</g>
<defs>
<clipPath>
<rect width="364" height="85" fill="white"/>
</clipPath>
</defs>
</svg>
