<?xml version="1.0" standalone="no"?>
<!DOCTYPE svg PUBLIC "-//W3C//DTD SVG 20010904//EN"
 "http://www.w3.org/TR/2001/REC-SVG-20010904/DTD/svg10.dtd">
<svg version="1.0" xmlns="http://www.w3.org/2000/svg"
 width="40.000000pt" height="40.000000pt" viewBox="0 0 40.000000 40.000000"
 preserveAspectRatio="xMidYMid meet">

<g transform="translate(0.000000,40.000000) scale(0.100000,-0.100000)"
fill="#000000" stroke="none">
<path d="M150 255 c-18 -19 -30 -38 -27 -42 8 -7 77 55 77 69 0 16 -17 7 -50
-27z"/>
<path d="M240 255 c-18 -19 -30 -38 -27 -42 8 -7 77 55 77 69 0 16 -17 7 -50
-27z"/>
<path d="M140 155 c-18 -19 -30 -38 -27 -42 8 -7 77 55 77 69 0 16 -17 7 -50
-27z"/>
<path d="M230 155 c-18 -19 -30 -38 -27 -42 8 -7 77 55 77 69 0 16 -17 7 -50
-27z"/>
</g>
</svg>
