<svg width="16" height="16" viewBox="0 0 16 16" fill="none" xmlns="http://www.w3.org/2000/svg">
<rect width="16" height="16" fill="#171B27"/>
<path fill-rule="evenodd" clip-rule="evenodd" d="M3.73438 1.77734V14.5508H6.23828V9.78516C6.23828 9.78516 7.15846 11.2105 9.07946 11.2105C11.0005 11.2105 11.9986 9.78516 11.9986 9.78516C11.9986 9.78516 13.0469 8.61182 13.0469 6.32812C13.0469 4.04443 11.9986 2.86891 11.9986 2.86891C11.9986 2.86891 10.9753 1.46783 9.03516 1.46783C7.09498 1.46783 6.1875 2.98438 6.1875 2.98438V1.77734H3.73438ZM8.38183 3.57046C7.56346 3.57046 6.23828 3.8566 6.23828 6.52343C6.23828 9.19025 8.38183 9.09869 8.38183 9.09869C8.38183 9.09869 10.4764 9.13875 10.4764 6.52343C10.4764 3.9081 9.20019 3.57046 8.38183 3.57046Z" fill="white"/>
</svg>
