<?xml version="1.0" encoding="utf-8"?>
<!-- Generator: Adobe Illustrator 26.3.1, SVG Export Plug-In . SVG Version: 6.00 Build 0)  -->
<svg version="1.1" id="5ee5b697-fe8b-4e8c-9cb1-efaf56f68e25" xmlns="http://www.w3.org/2000/svg" xmlnsXlink="http://www.w3.org/1999/xlink" x="0px" y="0px"
	 viewBox="0 0 625.1 595.1" xmlSpace="preserve">
<style type="text/css">
	.st0{fill:#2E6CF8;}
</style>
<g id="ff58b204-b06d-47e8-9f0f-91d661a96b5c" transform="translate(0 -1)">
	<path id="c4aeae33-0555-413f-bcdc-2e0ab6194db7" class="st0" d="M348.2,141.4h110v132.7h-110V141.4z"/>
	<g id="e540630b-5454-4a30-82c1-a858e09dea08" transform="translate(143.441 11)">
		<path  class="st0" d="M2.8,175H83c11.1,0,22.3,1.1,33.2,3.4
			c10,2,19.5,5.8,28.1,11.3c8.1,5.3,14.8,12.6,19.4,21.2c5.2,10.3,7.6,21.7,7.2,33.2c0,15.1-2.6,27.2-7.7,36.4
			c-4.9,8.9-12.1,16.3-20.9,21.4c-9.4,5.3-19.8,8.8-30.5,10.3c-12,1.8-24.1,2.7-36.2,2.7H45.3v98.7H2.8V175z M70.9,278.4
			c6.1,0,12.4-0.2,18.9-0.7c6.2-0.4,12.3-1.7,18-4c5.3-2.1,10-5.6,13.5-10.1c3.8-5.5,5.6-12.2,5.2-18.9c0.3-6.2-1.3-12.4-4.7-17.7
			c-3.1-4.4-7.3-7.8-12.1-10.1c-5.2-2.4-10.8-4-16.5-4.5c-5.8-0.7-11.7-1-17.5-1H45.3v67L70.9,278.4z"/>
	</g>
</g>
</svg>
