<svg xmlns="http://www.w3.org/2000/svg" width="75" height="75" fill="none"  xmlns:v="https://vecta.io/nano"><path d="M74.861.137H.204v74.657h74.657V.137z" fill="#bc1f27"/><path d="M21.068 30.631c-1.318-.788-2.536-1.218-6.534-1.218h-6.19v24.905h4.743v-9.171h2.594c2.608 0 3.625-.287 4.7-.831 2.565-1.29 4.055-3.94 4.055-7.236.014-2.866-1.175-5.159-3.368-6.448zm-2.364 9.142c-.645 1.047-1.218 1.29-3.152 1.29h-2.465v-7.594h3.009c1.992 0 3.181 1.404 3.181 3.726 0 1.175-.172 1.906-.573 2.579zM8.343 56.667h1.089v10.102H8.343V56.667zm12.38 2.579c-.817 0-1.49.33-2.035 1.017-.573.731-.817 1.534-.817 2.766 0 2.436 1.132 3.897 3.009 3.897.874 0 1.691-.33 2.293-.917l-.415-.731c-.473.473-1.003.688-1.662.688-.688 0-1.304-.258-1.691-.903-.229-.387-.315-.917-.315-1.605v-.172h4.227v-.158c-.028-1.748-.186-2.45-.774-3.095-.444-.502-1.075-.788-1.82-.788zm-1.619 3.181c.057-1.519.602-2.279 1.562-2.279.516 0 .989.244 1.218.645.2.358.301.845.315 1.633h-3.095zm10.518-2.078c.115.258.157.559.157.86v5.56h-1.075v-4.958c0-.774-.058-.975-.244-1.218-.143-.186-.43-.315-.745-.315-.545 0-1.39.473-1.877 1.032v5.46h-1.032v-5.66c0-1.046-.258-1.548-.258-1.548l1.031-.315s.244.545.244 1.146c.702-.76 1.419-1.132 2.135-1.132.731.015 1.39.444 1.662 1.089zM25.84 30.917c0-1.648 1.29-2.966 2.837-2.966 1.519 0 2.737 1.332 2.737 2.966 0 1.648-1.261 2.981-2.808 2.981-1.505 0-2.766-1.333-2.766-2.981zm.516 5.374l4.528-.76v18.772h-4.528V36.291zm6.362 23.157h1.748l-.329.874h-1.462v4.729c0 .817.201 1.088.874 1.088.301 0 .215 0 .415-.1l.143.731c-.344.187-.473.244-.946.244-.358 0-.63-.072-.888-.201-.473-.244-.659-.717-.659-1.462v-5.03h-.888v-.874h.888v-2.78h1.089v2.78h.014zm-16.207-2.78h-1.06v2.436l.014 1.132c-.401-.588-1.075-.931-1.834-.931-.487 0-.874.129-1.304.458-.931.688-1.404 1.834-1.404 3.396 0 2.336 1.003 3.711 2.765 3.711.788 0 1.304-.243 1.791-.86.014.387.144.745.144.745h1.089c-.158-.43-.2-1.103-.2-2.364v-7.724zm-1.075 8.239s-.129.316-.415.531c-.43.344-.745.473-1.304.473-.63 0-1.046-.243-1.361-.859-.215-.43-.272-1.061-.272-1.92 0-1.032.115-1.562.43-2.12.287-.502.731-.76 1.261-.76.802 0 1.304.243 1.648.76v3.897h.014zm32.772-5.474l-2.322 7.595c-.459 1.476-1.003 2.451-2.192 2.751l-.315-.774c.659-.229 1.003-.544 1.304-1.347l-.172-.831a32.98 32.98 0 0 0-.674-2.636l-1.476-4.585 1.046-.387 1.39 4.757c.2.688.401 1.82.401 1.82h.029l.416-1.548 1.333-4.815h1.232zm.917 6.004c0-.258-.143-.359-.43-.359h-.43v1.218h.215v-.53h.129l.301.516h.215l-.301-.531c.186-.014.301-.114.301-.315zm-.63.157v-.344h.186c.114 0 .229.029.229.172 0 .158-.115.186-.229.186h-.186v-.014zm.172-.974c-.559 0-1.017.487-1.017 1.075s.459 1.075 1.017 1.075 1.017-.487 1.017-1.075c-.014-.602-.459-1.075-1.017-1.075zm0 1.935c-.43 0-.76-.359-.76-.86s.344-.86.76-.86c.43 0 .759.358.759.86s-.344.86-.759.86zm10.962-16.924l-2.436-.029c-.473 0-.745-.186-.745-.43 0-.501.645-.931 1.791-1.505a4.38 4.38 0 0 0 .674.043c3.683 0 6.405-2.293 6.405-5.445 0-1.218-.344-2.149-1.017-3.009.272.029.745.1 1.189.1 1.247 0 2.193-.401 3.181-1.361l-1.891-3.052c-1.046 1.003-2.335 1.576-3.582 1.576-.573 0-1.189-.143-2.135-.401-1.247-.315-2.135-.459-3.109-.459-4.427 0-7.308 2.436-7.308 6.205 0 2.723 1.218 4.399 3.726 5.087-2.852.789-3.181 1.906-3.181 3.081 0 1.261.502 2.078 1.318 2.393.817.358 2.135.53 4.17.573l1.934.043c1.791.029 3.181.545 3.181 2.192 0 .76-.444 1.433-1.118 1.863-.716.473-1.691.602-2.837.602-2.092 0-3.253-.788-3.253-2.264 0-.501.029-.745.201-1.175h-4.199c-.172.358-.401.86-.401 1.863 0 1.246.472 2.321 1.418 3.253 1.562 1.548 4.098 1.978 6.563 1.978 2.708 0 5.316-.645 6.835-2.365.946-1.075 1.39-2.25 1.39-3.797 0-1.648-.473-2.909-1.49-3.912-1.247-1.19-2.636-1.62-5.273-1.648zm-4.428-7.752c0-1.72.989-2.723 2.708-2.723 1.734 0 2.737 1.003 2.737 2.723 0 1.691-.974 2.608-2.78 2.608-1.591.014-2.665-.731-2.665-2.608zm-12.939-2.178c-.917 0-2.092.645-3.153 1.648v12.968h-4.542V41.019c0-1.576-.201-3.081-.602-4.299l4.026-1.218c.401.759.645 1.533.645 2.293l1.992-1.361c.917-.502 2.092-.788 3.11-.788 1.934 0 3.625 1.075 4.17 2.651.244.673.344 1.462.344 2.608v13.398H43.78V42.366c0-2.049-.33-2.665-1.519-2.665zM39.94 60.307v4.728c0 .817.201 1.089.874 1.089.301 0 .215 0 .415-.1l.143.731c-.344.186-.473.244-.945.244-.359 0-.631-.072-.889-.2-.473-.243-.659-.717-.659-1.462v-5.029h-.888v-.875h.888v-2.78h1.089v2.78h1.705l-.33.875H39.94zm-4.327-.846l1.103-.186v7.494h-1.103v-7.308z" fill="#fff"/><defs /></svg>