<svg xmlns="http://www.w3.org/2000/svg" width="96" height="96" fill="none">
    <defs>
        <linearGradient id="c9e814a8-1a0f-4fa5-923c-c46a9918e350" x1="9" x2="19" y1="58" y2="96" gradientUnits="userSpaceOnUse">
            <stop stop-color="#159455" />
            <stop offset="1" stop-color="#3FBDA9" />
        </linearGradient>
        <linearGradient id="d9ece01d-6d1e-45fc-895b-f6a8a99d9416" x1="24.899" x2="82.915" y1="5.523" y2="31.317"
            gradientUnits="userSpaceOnUse">
            <stop stop-color="#23A794" />
            <stop offset=".568" stop-color="#007A84" />
            <stop offset="1" stop-color="#005158" />
        </linearGradient>
        <linearGradient id="a8fe6255-91fe-41e6-86c3-bb2101e7c861" x1="74" x2="63.5" y1="40" y2="12.5" gradientUnits="userSpaceOnUse">
            <stop stop-color="#004A8B" />
            <stop offset=".406" stop-color="#105DA8" stop-opacity=".5" />
            <stop offset="1" stop-color="#2170C6" stop-opacity="0" />
        </linearGradient>
        <linearGradient id="bdea93c1-2025-4497-80ce-b8f8ce7b0c2f" x1="17" x2="69.5" y1="36" y2="62" gradientUnits="userSpaceOnUse">
            <stop stop-color="#7FD9A2" />
            <stop offset=".196" stop-color="#47BF79" />
            <stop offset=".714" stop-color="#009280" />
            <stop offset="1" stop-color="#007A84" />
        </linearGradient>
        <linearGradient id="50cf2176-675b-4f75-a05a-8f27a3bf7389" x1="16.5" x2="28.5" y1="37" y2="43" gradientUnits="userSpaceOnUse">
            <stop stop-color="#A8E47C" stop-opacity=".86" />
            <stop offset=".367" stop-color="#87D152" stop-opacity=".2" />
            <stop offset="1" stop-color="#58BE5A" stop-opacity="0" />
        </linearGradient>
        <filter id="5e9c0a62-6f1d-44fa-a6ff-a63bb8fe6663">
            <feFlood flood-opacity="0" result="BackgroundImageFix" />
            <feBlend in="SourceGraphic" in2="BackgroundImageFix" result="shape" />
            <feGaussianBlur result="effect1_foregroundBlur_84_430" stdDeviation=".4" />
        </filter>
        <filter id="d693f61d-6d2a-473a-b926-4a4fd138bc1c">
            <feFlood flood-opacity="0" result="BackgroundImageFix" />
            <feBlend in="SourceGraphic" in2="BackgroundImageFix" result="shape" />
            <feGaussianBlur result="effect1_foregroundBlur_84_430" stdDeviation="4" />
        </filter>
    </defs>
    <mask id="44f62a1e-86ba-4d91-a661-70540556a5b6" width="88" height="92" x="3" y="2" maskUnits="userSpaceOnUse">
        <path fill="#fff"
            d="M36.21 2h39.52c11.06 0 18.284 11.544 13.535 21.464L90 22 76.265 49.47c-.039.081-.079.163-.12.244L74 54l2.146-4.292A15 15 0 0 1 62.73 58H39L22.2 91.601c-1.319 2.637-5.08 2.637-6.4 0L4.066 68.131a6.929 6.929 0 0 1 .034-6.328l12.924-25.848A7.154 7.154 0 0 1 23.422 32h49.52c-2.621-2.45-6.158-4-10.21-4H26.788c-2.66 0-4.389-2.798-3.2-5.177l9.423-18.846A3.577 3.577 0 0 1 36.212 2Z" />
    </mask>
    <g mask="url(#44f62a1e-86ba-4d91-a661-70540556a5b6)">
        <path fill="url(#c9e814a8-1a0f-4fa5-923c-c46a9918e350)"
            d="M10.326 58H39L22.2 91.601c-1.319 2.637-5.081 2.637-6.4 0L4.066 68.131C1.738 63.475 5.123 58 10.326 58Z" />
        <path fill="url(#d9ece01d-6d1e-45fc-895b-f6a8a99d9416)"
            d="M36.21 2h39.52c11.15 0 18.403 11.735 13.416 21.708L76.266 49.47l-.12.244L74 54l2.265-4.53C81.02 39.55 73.795 28 62.732 28H26.788c-2.66 0-4.389-2.798-3.2-5.177l9.423-18.846A3.577 3.577 0 0 1 36.211 2Z" />
        <path fill="url(#a8fe6255-91fe-41e6-86c3-bb2101e7c861)"
            d="M36.21 2h39.52c11.15 0 18.403 11.735 13.416 21.708l-12.91 25.819c-.03.063-.06.125-.092.188L75 52l1.237-2.473C81.046 39.594 73.815 28 62.73 28H26.788c-2.66 0-4.389-2.798-3.2-5.177l9.423-18.846A3.577 3.577 0 0 1 36.211 2Z" />
        <g filter="url(#5e9c0a62-6f1d-44fa-a6ff-a63bb8fe6663)">
            <path fill="#000" fill-opacity=".24"
                d="M62.73 58.4H10.42a7.154 7.154 0 0 0-6.398 3.953l13-25.998A7.154 7.154 0 0 1 23.42 32.4h52.305a15 15 0 0 0 13.407-8.273L90 22.4 76.146 50.108A15 15 0 0 1 62.73 58.4Z" />
        </g>
        <g filter="url(#d693f61d-6d2a-473a-b926-4a4fd138bc1c)">
            <path fill="#000" fill-opacity=".32"
                d="M62.73 60H10.42a7.154 7.154 0 0 0-6.398 3.953l13-25.998A7.154 7.154 0 0 1 23.42 34h52.305a15 15 0 0 0 13.407-8.273L90 24 76.146 51.708A15 15 0 0 1 62.73 60Z" />
        </g>
        <path fill="url(#bdea93c1-2025-4497-80ce-b8f8ce7b0c2f)"
            d="M62.73 58H10.42a7.154 7.154 0 0 0-6.398 3.953l13-25.998A7.154 7.154 0 0 1 23.42 32h52.305a15 15 0 0 0 13.407-8.273L90 22 76.146 49.708A15 15 0 0 1 62.73 58Z" />
        <path fill="url(#50cf2176-675b-4f75-a05a-8f27a3bf7389)"
            d="M62.7 58H10.46a7.154 7.154 0 0 0-6.399 3.955l13-26A7.154 7.154 0 0 1 23.46 32H76a14.562 14.562 0 0 0 13-8L76.11 49.72A15 15 0 0 1 62.7 58Z"
            opacity=".7" />
    </g>
</svg>