<?xml version="1.0" encoding="UTF-8"?>
<!DOCTYPE svg PUBLIC "-//W3C//DTD SVG 1.1//EN" "http://www.w3.org/Graphics/SVG/1.1/DTD/svg11.dtd">
<svg xmlns="http://www.w3.org/2000/svg" version="1.1" width="216px" height="216px" style="shape-rendering:geometricPrecision; text-rendering:geometricPrecision; image-rendering:optimizeQuality; fill-rule:evenodd; clip-rule:evenodd" >
<g><path style="opacity:0.961" fill="#fefefe" d="M 24.5,91.5 C 32.8333,91.5 41.1667,91.5 49.5,91.5C 49.5,99.5 49.5,107.5 49.5,115.5C 47.5,115.5 45.5,115.5 43.5,115.5C 35.4498,113.958 29.9498,109.291 27,101.5C 25.6476,98.2799 24.8143,94.9466 24.5,91.5 Z"/></g>
<g><path style="opacity:0.783" fill="#a1afbb" d="M 55.5,94.5 C 61.8421,94.3338 68.1754,94.5005 74.5,95C 77.5827,95.786 79.7494,97.6193 81,100.5C 81.4955,98.5273 81.6621,96.5273 81.5,94.5C 88.5079,94.3337 95.5079,94.5004 102.5,95C 108.025,97.9188 109.858,102.419 108,108.5C 107.097,109.701 105.931,110.535 104.5,111C 107.879,114.412 109.379,118.578 109,123.5C 112.594,114.221 116.094,104.887 119.5,95.5C 122.372,94.2175 125.205,94.2175 128,95.5C 131.033,101.223 133.199,107.223 134.5,113.5C 137.167,113.5 139.833,113.5 142.5,113.5C 144.164,107.345 146.33,101.345 149,95.5C 151.795,94.2175 154.628,94.2175 157.5,95.5C 160.235,102.873 163.069,110.206 166,117.5C 166.483,116.552 166.649,115.552 166.5,114.5C 169.247,114.187 171.914,114.52 174.5,115.5C 176.806,120.333 180.473,121.666 185.5,119.5C 185.762,118.022 185.429,116.689 184.5,115.5C 180.886,114.18 177.22,113.013 173.5,112C 165.5,106.333 165.5,100.667 173.5,95C 180.312,94.8848 186.979,94.7181 193.5,94.5C 193.5,98.1667 193.5,101.833 193.5,105.5C 190.813,105.664 188.146,105.497 185.5,105C 184.663,103.989 184.33,102.822 184.5,101.5C 180.91,99.6999 177.91,100.367 175.5,103.5C 175.709,104.086 176.043,104.586 176.5,105C 180.891,106.181 185.224,107.514 189.5,109C 193.327,112.308 194.494,116.474 193,121.5C 184.667,129.5 176.333,129.5 168,121.5C 168.305,123.443 168.305,125.443 168,127.5C 165.595,126.726 163.095,126.226 160.5,126C 159.76,124.215 159.093,122.382 158.5,120.5C 154.893,119.511 151.226,119.177 147.5,119.5C 147.751,125.866 144.751,128.199 138.5,126.5C 132.22,128.203 129.22,125.869 129.5,119.5C 125.833,119.5 122.167,119.5 118.5,119.5C 118.335,121.827 117.669,123.993 116.5,126C 111.294,127.384 105.961,127.55 100.5,126.5C 103.01,116.512 99.3432,112.678 89.5,115C 90.4601,118.73 90.7935,122.563 90.5,126.5C 87.5,126.5 84.5,126.5 81.5,126.5C 81.2065,122.563 81.5399,118.73 82.5,115C 81.0325,113.902 80.1992,112.402 80,110.5C 78.8906,112.815 77.0573,114.315 74.5,115C 71.1832,115.498 67.8499,115.665 64.5,115.5C 64.5,119.167 64.5,122.833 64.5,126.5C 61.5,126.5 58.5,126.5 55.5,126.5C 54.3609,116.153 54.3609,105.487 55.5,94.5 Z M 64.5,101.5 C 67.1873,101.336 69.854,101.503 72.5,102C 73.8333,104 73.8333,106 72.5,108C 69.854,108.497 67.1873,108.664 64.5,108.5C 64.5,106.167 64.5,103.833 64.5,101.5 Z M 90.5,101.5 C 93.5184,101.335 96.5184,101.502 99.5,102C 100.76,103.814 100.76,105.647 99.5,107.5C 96.227,108.585 92.8936,108.752 89.5,108C 90.4231,105.959 90.7564,103.792 90.5,101.5 Z M 123.5,104.5 C 124.378,107.428 125.711,110.262 127.5,113C 125.167,113.667 122.833,113.667 120.5,113C 122.196,110.413 123.196,107.579 123.5,104.5 Z M 152.5,104.5 C 153.378,107.428 154.711,110.262 156.5,113C 154.421,113.808 152.421,113.641 150.5,112.5C 151.785,109.979 152.452,107.313 152.5,104.5 Z M 137.5,119.5 C 139.337,119.639 139.67,120.306 138.5,121.5C 137.702,121.043 137.369,120.376 137.5,119.5 Z"/></g>
<g><path style="opacity:0.364" fill="#a1afbb" d="M 194.5,94.5 C 196.833,94.5 199.167,94.5 201.5,94.5C 201.5,95.5 201.5,96.5 201.5,97.5C 199.738,97.3573 198.071,97.6906 196.5,98.5C 195.295,97.4231 194.628,96.0898 194.5,94.5 Z"/></g>
<g><path style="opacity:0.992" fill="#9aacba" d="M 24.5,91.5 C 24.8143,94.9466 25.6476,98.2799 27,101.5C 29.9498,109.291 35.4498,113.958 43.5,115.5C 44.8333,116.167 46.1667,116.833 47.5,117.5C 35.2106,120.708 22.8772,123.708 10.5,126.5C 14.9245,115.307 19.0912,103.974 23,92.5C 23.3826,91.944 23.8826,91.6107 24.5,91.5 Z"/></g>
<g><path style="opacity:0.98" fill="#d0d8de" d="M 43.5,115.5 C 45.5,115.5 47.5,115.5 49.5,115.5C 49.5,116.833 48.8333,117.5 47.5,117.5C 46.1667,116.833 44.8333,116.167 43.5,115.5 Z"/></g>
</svg>
