<?xml version="1.0" encoding="UTF-8"?><svg xmlns="http://www.w3.org/2000/svg" viewBox="0 0 200 200"><rect width="200" height="200" fill="#c00204"/><path d="m153.18,133.65s-.01.06-.02.09c.17-.52.34-1.04.49-1.57l-.47,1.48Zm-34.5,7.09c.61-.27,1.2-.61,1.75-1.01-.57.38-1.15.72-1.75,1.01Zm-4.68-66.31c.52.08,1.02.16,1.51.22-.48-.17-.99-.25-1.51-.22Zm-19.14,85.9v.02c3.03,1.47,6.25,2.57,9.6,3.25-3.35-.69-6.57-1.8-9.6-3.27Zm-24.84-7.92c-.11.02-.22.05-.33.08-.01.28-.02.57-.03.85l.36-.06,1.01-.17c0-.32,0-.64,0-.96-.34.09-.68.17-1.02.26Z" fill="#fff"/><path d="m71.04,152.15c0,.32,0,.64,0,.96l-1.01.17-.36.06c.01-.28.02-.57.03-.85.11-.03.22-.06.33-.08.34-.09.68-.17,1.02-.26Z" fill="#fff"/><path d="m120.65,139.58c-.07.05-.15.1-.22.15.07-.05.13-.09.19-.14.01,0,.02,0,.03-.01Z" fill="#fff"/><path d="m127.8,74.52c1.54-.34,2.27-.71,2.27-.71-.04-.01-.07-.03-.1-.04,6.45-6.68,8.37-12.27,6.22-17.72-6.64,11.62-10.06,14.55-16.37,13.79,1.88-5,5.95-9.45,3.74-16.19-1.19,2.4-2.07,4.18-2.94,5.96-5.44,11.11-22.04,14.58-31.33,6.55-2.59-2.23-3.85-4.86-3.07-8.52.99-4.66,1.63-9.4,2.3-14.12.48-3.33.35-6.66-.25-10.86-1.97,2.77-2.59,4.99-3.33,7.15-1.04,3.04-1.79,6.19-3.44,8.98-2.53,4.26-5.43,4.69-8.88,1.24-4.07-4.08-6.52-9.12-8.08-14.66-2.87-10.27-2.16-20.71-1.49-31.16.08-1.23.7-2.69-.85-4.21-1.31,3.14-2.66,5.82-3.12,8.93-1.01,6.88-1.03,13.92-3.16,20.61-1.97,6.19-7.11,7.39-11.6,2.79-1.46-1.49-2.39-3.31-3.12-5.25-2.29-6.12-4.56-12.24-7.01-18.83-3.69,13.45,1.69,24.01,10.03,34.56h-16.95c-2.35.2-2.03.11-.23,1.09,8.93,3.56,19.11,4.02,27.08,9.89,23.24,17.11,22.23,23.3,37.49,23.5-9.43,3.97-15.28,13.43-18.41,21.52-.03.07-.06.15-.08.22-2.41,5.79-3.75,12.2-3.75,18.95,0,.84.03,1.67.07,2.5,0,8.99-.01,17.98,0,26.96,0,1.69.16,3.37.25,5.05.11-.03.22-.06.33-.08.34-.09.68-.17,1.02-.26,0,.32,0,.64,0,.96l-1.01.17-.36.06c-.49,11.82-.22,23.64-.1,35.46.01,1.69.61,3.29,1.5,4.79,2.97,4.98,8.81,7.45,14.38,6,5.6-1.46,9.34-6.29,9.44-12.71.13-8.35-.01-16.72.03-25.07,0-.48-.04-.97-.05-1.46v-.02c3.03,1.47,6.25,2.58,9.6,3.27.71.14,1.42.27,2.14.38.07.01.14.02.22.03.3.04.6.08.91.12.87.11,1.75.18,2.63.23.71.04,1.42.06,2.14.06h.04c18.12,1.59,36.45-12.14,40.62-30.68.01-.03.01-.06.02-.09l.47-1.48c1.34-4.47,2.06-9.24,2.06-14.19,0-19.87-11.6-36.83-27.91-43.46Zm-12.29.13c-.49-.06-.99-.14-1.51-.22.52-.03,1.03.05,1.51.22Zm5.14,64.93c-.07.05-.15.1-.22.15-.55.4-1.14.74-1.75,1.01-3,1.39-6.51,1.47-8.14,1.42-.04.01-.08.02-.12.03-8.51-1.06-15.31-9.24-16.29-19.73-.09-1.83-.03-3.7.18-5.55.37-3.2,1.22-6.31,2.65-9.22.49-.99,1.02-1.93,1.6-2.8.03-.06.07-.12.12-.18,3.3-4.52,8.06-7.36,13.35-7.36,9.95,0,18.02,10.06,18.02,22.48,0,8.47-3.86,15.92-9.4,19.75Z" fill="#fff"/><path d="m71.04,152.15c0,.32,0,.64,0,.96l-1.01.17v-.87c.34-.09.68-.17,1.02-.26Z" fill="#fff"/><path d="m115.51,74.65c-.49-.06-.99-.14-1.51-.22.52-.03,1.03.05,1.51.22Z" fill="#fff"/></svg>