<?xml version="1.0" encoding="UTF-8" standalone="no"?>
<svg
   width="239.09477"
   height="190.49673"
   viewBox="0 0 239.09477 190.49673"
   fill="none"
   version="1.1"
   id="svg8"
   xmlns="http://www.w3.org/2000/svg"
   xmlns:svg="http://www.w3.org/2000/svg">
  <defs
     id="defs8" />
  <rect
     style="fill:#02111a;fill-opacity:1"
     id="rect10"
     width="238.83206"
     height="190.56047"
     x="3.1556124e-10"
     y="-6.8437217e-10"
     ry="0" />
  <path
     d="m 182.245,0.02017 h 56.71 c 0.04,0.89195 0.122,1.80421 0.122,2.69616 0,39.77296 0.04,79.54606 0,119.29836 0,8.859 -1.115,17.596 -3.366,26.212 -4.42,16.987 -14.801,28.339 -31.488,34.117 -11.982,4.155 -24.31,6.547 -36.901,7.216 -31.325,1.622 -62.671,0.852 -93.976,-0.162 -10.016,-0.324 -20.1334,-1.398 -29.9467,-3.446 -21.9176,-4.581 -35.2383801,-18.609 -40.0639001,-40.178 -2.02754,-9.062 -3.04140299,-18.508 -3.14277999,-27.793 -0.34468,-38.3943 -0.1216467,-76.7685 -0.1216467,-115.14274 V 0.08104 H 56.4973 V 117.39269 H 34.8838 c -0.0405,0.203 -0.0811,0.406 -0.1419,0.629 1.3787,0.831 2.7371,1.662 4.1158,2.453 26.6418,15.062 53.2836,30.083 79.8853,45.205 1.885,1.075 3.223,1.176 5.149,0.021 26.034,-15.589 52.108,-31.097 78.182,-46.605 0.568,-0.344 1.095,-0.73 1.541,-1.601 h -21.37 V 0 Z"
     fill="#ffffff"
     id="path2" />
</svg>
