<?xml version="1.0" encoding="utf-8"?>
<!-- Generator: Adobe Illustrator 19.2.1, SVG Export Plug-In . SVG Version: 6.00 Build 0)  -->
<svg version="1.1" id="4ff5cc45-bc12-48de-9eee-0cfdfcd7ba1c" 
	xmlns="http://www.w3.org/2000/svg" 
	xmlns:xlink="http://www.w3.org/1999/xlink" x="0px" y="0px" viewBox="0 0 652 652" style="enable-background:new 0 0 652 652;" xml:space="preserve">
	<g id="Layer_2">
		<g id="Layer_1-2">
			<path style="fill:#231F20;" d="M597.7,352.5v-12.8h-4.4c-4.8,0-5.9-0.7-5.9-4.1v-35.2h10.4v-11.9h-10.4v-17.3h-17.8v17.3h-8.9v11.9h8.9v34.3 c0,13.3,3.2,18.1,18,18.1C589.4,352.9,592.8,352.6,597.7,352.5"/>
			<path style="fill:#231F20;" d="M495.5,352.1h18v-37.7c0-8.4,5.4-13.4,13.8-13.4c7.7,0,10.4,4.1,10.4,12.7v38.4h18v-43.3 c0-14.6-7.3-21.9-22.1-21.9c-8.5,0-15.3,3.1-20.4,9.2v-7.5h-17.6V352.1z"/>
			<rect x="466.5" y="266.1" style="fill:#231F20;" width="18" height="15.4"/>
			<rect x="466.5" y="288.5" style="fill:#231F20;" width="18" height="63.5"/>
			<path style="fill:#231F20;" d="M409.7,320.2c0-12.7,5.8-19.6,15.8-19.6c10,0,15.7,6.9,15.7,19.6c0,12.7-5.7,19.7-15.7,19.7 S409.7,332.9,409.7,320.2 M391.5,320.2c0,21.2,12.9,34,34,34s34-12.8,34-34c0-21.2-12.9-34-34-34S391.5,299,391.5,320.2"/>
			<path style="fill:#231F20;" d="M367.9,320.7c0,11.8-5.7,18.8-14.5,18.8c-9.5,0-15-6.7-15-18.8c0-13,5.2-19.7,14.7-19.7 C362.4,301,367.9,307.8,367.9,320.7 M320.8,377.5h17.5v-33.4c4.4,6.6,11.3,10,19.9,10c15.7,0,27.6-13.3,27.6-34.2 c0-20.3-11.6-33.6-27.8-33.6c-8.7,0-14.8,3.4-20,10.8v-8.6h-17.1V377.5z"/>
			<path style="fill:#231F20;" d="M284.3,352.1h17.6v-51.6H313v-11.9h-11.3v-4.4c0-4.1,1.6-4.8,6.6-4.8h4.7v-13.5c-3.2-0.2-5.9-0.4-8.6-0.4 c-13.8,0-20.1,5.3-20.1,17.2v5.9h-9.6v11.9h9.6L284.3,352.1z"/>
			<path style="fill:#231F20;" d="M223.8,320.2c0-12.7,5.8-19.6,15.8-19.6c10,0,15.7,6.9,15.7,19.6c0,12.7-5.7,19.7-15.7,19.7 C229.6,340,223.8,332.9,223.8,320.2 M205.6,320.2c0,21.2,12.9,34,34,34c21.1,0,34-12.8,34-34c0-21.2-12.9-34-34-34 C218.4,286.3,205.5,299.1,205.6,320.2"/>
			<path style="fill:#231F20;" d="M151.6,320.2c0-12.7,5.8-19.6,15.8-19.6s15.7,6.9,15.7,19.6c0,12.7-5.7,19.7-15.7,19.7 S151.6,332.9,151.6,320.2 M133.4,320.2c0,21.2,12.9,34,34,34s34-12.8,34-34s-12.9-34-34-34S133.4,299.1,133.4,320.2"/>
			<path style="fill:#231F20;" d="M92.7,352.1h18v-33.6c0-9.6,5.1-14.4,14.8-14.4h5.9v-17.2c-0.9-0.1-1.8-0.1-2.7-0.1 c-8.6,0-14.7,3.9-19.4,12.7v-10.9H92.7V352.1z"/>
			<path style="fill:#231F20;" d="M67.6,320.7c0,11.8-5.7,18.8-14.5,18.8c-9.5,0-15-6.7-15-18.8c0-13,5.2-19.7,14.7-19.7S67.7,307.8,67.6,320.7 M20.6,377.5H38v-33.4c4.4,6.6,11.3,10,19.9,10c15.7,0,27.6-13.3,27.6-34.2c0-20.3-11.6-33.6-27.8-33.6c-8.7,0-14.8,3.4-20,10.8 v-8.6H20.6V377.5z"/>
			<path style="fill:#231F20;" d="M620.6,346.8c0.1,3.9-2.9,7.1-6.8,7.2c-3.9,0.1-7.1-2.9-7.2-6.8c-0.1-3.9,2.9-7.1,6.8-7.2c0.1,0,0.2,0,0.3,0 C617.4,339.9,620.5,343,620.6,346.8C620.6,346.8,620.6,346.8,620.6,346.8z M608.3,346.8c-0.1,2.9,2.2,5.4,5.1,5.5 c0.1,0,0.1,0,0.2,0c2.9,0,5.2-2.4,5.2-5.2c0-0.1,0-0.1,0-0.2c0.1-2.9-2.1-5.4-5-5.5c-2.9-0.1-5.4,2.1-5.5,5 C608.3,346.5,608.3,346.7,608.3,346.8L608.3,346.8z M612.5,350.4h-1.6v-6.8c0.9-0.2,1.7-0.2,2.6-0.2c0.8-0.1,1.6,0.1,2.4,0.5 c0.4,0.4,0.7,0.9,0.7,1.5c-0.1,0.8-0.6,1.4-1.4,1.6v0.1c0.7,0.3,1.2,0.9,1.2,1.6c0.1,0.6,0.2,1.2,0.5,1.7h-1.7 c-0.3-0.5-0.4-1.1-0.5-1.7c-0.1-0.8-0.5-1.1-1.4-1.1h-0.8L612.5,350.4z M612.5,346.5h0.8c0.9,0,1.6-0.3,1.6-1s-0.5-1-1.5-1 c-0.3,0-0.6,0-0.9,0.1V346.5z"/>
		</g>
	</g>
</svg>
