<?xml version="1.0" encoding="utf-8"?>
<!-- Generator: Adobe Illustrator 21.0.2, SVG Export Plug-In . SVG Version: 6.00 Build 0)  -->
<svg version="1.1" id="5027d626-e7e0-42b5-a6e5-0a275a08f676" xmlns="http://www.w3.org/2000/svg" x="0px" y="0px"
	 viewBox="0 0 496 88" xml:space="preserve">
<style type="text/css">
	.st0{fill:#F05423;}
	.st1{fill:#222222;}
</style>
<g>
	<g>
		<path class="st0" d="M51.7,88H30.2c-4.4,0-8.5-2.4-10.7-6.3L1.7,50.3c-2.2-3.8-2.2-8.7,0-12.5L19.6,6.3C21.9,2.5,25.9,0,30.2,0h36
			c4.4,0,8.5,2.4,10.7,6.3l18,31.5c2.2,3.8,2.2,8.7,0,12.5l-4.6,7.4c-2.2,3.8-6.3,6.2-10.7,6.2H58.2l11.7-20L59,25.1H37.4l-10.8,19
			L51.7,88L51.7,88z"/>
		<g>
			<g>
				<path class="st1" d="M128.6,64.3h-10v-39h14.2c9,0,14.6,4.2,14.6,12.4c0,9.1-6.5,13.6-15.8,13.6h-2.9v13H128.6z M130.8,43.5
					c3.9,0,6.3-1.1,6.3-5.2c0-3.9-2.1-5.1-5.7-5.1h-2.8v10.2C128.6,43.5,130.8,43.5,130.8,43.5z"/>
				<path class="st1" d="M163.1,25.3v25.4c0,4.5,2.2,5.8,5.4,5.8c3.1,0,5.1-1.8,5.1-5.5V25.3h10v27c0,7.9-6.3,12.6-15.3,12.6
					c-10,0-15.1-4.1-15.1-13.6v-26C153.2,25.3,163.1,25.3,163.1,25.3z"/>
				<path class="st1" d="M226.2,25.3h25.2v8.8h-15.3V40h13.1v8.8h-13.1v6.7h15.7v8.8h-25.6L226.2,25.3L226.2,25.3z"/>
				<path class="st1" d="M261.6,57.6c1.8,1.3,6,3.4,10.4,3.4c3.9,0,8.1-1.3,8.1-7.2c0-4.6-4-6.2-8.8-7.4c-5.6-1.5-11-3.7-11-10.8
					c0-6.5,5-10.8,12.2-10.8c5.3,0,9.7,2.5,12.5,5.2l-2.5,3.1c-3.1-2.7-6.4-4.4-10-4.4c-3.2,0-7.4,1.4-7.4,6.3c0,4.6,3.9,6,8.9,7.4
					c5.3,1.7,10.8,3.8,10.8,11.1s-4.9,11.4-12.9,11.4c-5.6,0-10.7-2.2-12.2-3.5L261.6,57.6z"/>
				<path class="st1" d="M317.2,25.3v4.1h-11.7v35H301v-35h-11.5v-3.9h27.8V25.3L317.2,25.3z"/>
				<path class="st1" d="M335.8,65c-9.9,0-15.8-6.7-15.8-20.1c0-15,8.6-20.2,16.4-20.2c8.3,0,15.6,5.3,15.6,20.2
					C351.9,58.3,345.7,65,335.8,65z M336.2,61.1c8.3,0,11-8,11-16c0-6.9-2.2-16.4-11.1-16.4c-8.5,0-11.5,8.1-11.5,16.1
					C324.6,52.4,326.6,61.1,336.2,61.1z"/>
				<path class="st1" d="M389.2,64.3l13.6-38.9h5.4l13.9,38.9h-4.9L413,52.4H398l-4.2,11.9C393.9,64.3,389.2,64.3,389.2,64.3z
					 M399,48.6h13c-6.5-19-6.5-19-6.5-19L399,48.6z"/>
				<path class="st1" d="M453.1,61.4c-3.2,2.1-7.8,3.5-12.8,3.5c-10.1,0-16.4-6.5-16.4-20.1c0-15.2,8.8-20.2,16.4-20.2
					c3.9,0,9,1.3,12.9,6.3l-3.3,2.7c-2.5-3.1-5.6-4.9-9.7-4.9c-7.4,0-11.7,6-11.7,15.9c0,10.5,3.8,16.7,12.1,16.7
					c3.1,0,6.4-1.1,7.8-2.1V47.5h-8.6v-3.9H453L453.1,61.4L453.1,61.4z"/>
				<path class="st1" d="M461,25.3h21.5v4.1h-17v13.1h14.6v3.9h-14.6v13.9H483v3.9h-22V25.3z"/>
				<path class="st1" d="M380.1,52.1c-0.8-2-1.4-2.9-2.6-3.5c4.3-2,6.9-5.8,6.9-11.5c0-7.6-4.9-11.7-12.9-11.7H359v38.9h4.6V50h6.7
					c0.4,0,1,0,1.4,0l0,0c2.4,0,3.5,1.5,4.4,3.7l4.9,10.7h4.9L380.1,52.1z M369.2,46.2h-5.8v-17h5c6.5,0,11.1,0.7,11.1,8.4
					C379.7,43.9,375.4,46.2,369.2,46.2z"/>
				<path class="st1" d="M215.9,51.9c-0.6-1.4-1.5-2.5-2.5-3.1c3.6-2.2,5.8-5.9,5.8-11.2c0-8.1-5.6-12.4-14.6-12.4h-14.2v38.9h10
					V51.2h2.5c1.4,0.1,2.2,0.8,2.8,2.2l4.7,10.7h10.7L215.9,51.9z M200.6,43.5V33.3h2.8c3.6,0,5.7,1.1,5.7,5.1
					c0,4.1-2.4,5.2-6.3,5.2C202.8,43.5,200.6,43.5,200.6,43.5z"/>
			</g>
			<g>
				<path class="st1" d="M490.9,34.7c-2.9,0-5.1-2.2-5.1-5.2c0-3.1,2.4-5.2,5.1-5.2s5.1,2.1,5.1,5.2
					C495.9,32.6,493.5,34.7,490.9,34.7z M490.9,25.1c-2.2,0-4,1.8-4,4.4c0,2.4,1.5,4.4,4,4.4c2.2,0,4-1.8,4-4.4
					C494.8,26.8,493.1,25.1,490.9,25.1z M489.8,32.4h-1v-5.8h2.2c1.4,0,2.1,0.4,2.1,1.7c0,1-0.7,1.5-1.5,1.5l1.7,2.5h-1.1l-1.5-2.5
					h-0.8v2.6H489.8z M490.9,29.1c0.7,0,1.4-0.1,1.4-0.8s-0.7-0.8-1.3-0.8h-1.3v1.7h1.2L490.9,29.1L490.9,29.1z"/>
			</g>
		</g>
	</g>
</g>
</svg>
