<svg version="1.1" id="Layer_1" xmlns="http://www.w3.org/2000/svg" viewBox="0 0 110 34" style="enable-background:new 0 0 110 34" xml:space="preserve"><style>.st0{fill:#706259}.st1{fill:#c4e86b}</style><path class="st0" d="M44.4 14.5c.8 0 1.4.1 2 .4.6.2 1.1.6 1.6 1 .4.4.8.9 1 1.5.2.6.3 1.2.3 1.8 0 1-.2 1.9-.6 2.6-.4.7-1.1 1.3-2.1 1.7.5.1.8.3 1.1.6.3.3.5.6.7.9.2.4.3.7.4 1.2.1.4.1.9.2 1.3v.9c0 .4 0 .7.1 1.1 0 .4.1.7.2 1.1.1.3.2.6.4.9H46c-.2-.5-.3-1.2-.4-1.9 0-.7-.1-1.5-.2-2.1-.1-.9-.4-1.5-.8-1.9-.4-.4-1.1-.6-2-.6H39v6.6h-3.7V14.5h9.1zM43 22.1c.8 0 1.5-.2 1.9-.6.4-.4.6-1 .6-1.9 0-.8-.2-1.4-.6-1.8-.4-.4-1.1-.6-1.9-.6h-4V22h4zm8.9-1.2c.3-.5.8-.9 1.3-1.2s1.1-.5 1.8-.7c.7-.1 1.3-.2 2-.2.6 0 1.2 0 1.9.1.6.1 1.2.3 1.7.5.5.3.9.6 1.3 1.1.3.5.5 1 .5 1.8v6.4c0 .6 0 1.1.1 1.6s.2.9.3 1.1h-3.4c-.1-.2-.1-.4-.2-.6 0-.2-.1-.4-.1-.6-.5.6-1.2.9-1.9 1.2-.7.2-1.5.3-2.2.3-.6 0-1.1-.1-1.6-.2s-.9-.4-1.3-.7c-.4-.3-.7-.7-.9-1.1-.2-.5-.3-1-.3-1.6 0-.7.1-1.3.4-1.7.2-.4.6-.8.9-1.1.4-.3.8-.5 1.3-.6l1.5-.3c.5-.1 1-.1 1.5-.2.5 0 .9-.1 1.3-.2s.7-.2.9-.4c.2-.2.3-.4.3-.8s-.1-.7-.2-.9c-.1-.2-.3-.4-.5-.5-.2-.1-.4-.2-.7-.2-.3 0-.5-.1-.8-.1-.7 0-1.2.1-1.6.4-.4.3-.6.7-.7 1.4h-3.3c.2-.8.4-1.5.7-2m6.6 4.8c-.2.1-.4.1-.7.2-.2 0-.5.1-.8.1-.3 0-.5.1-.8.1-.3 0-.5.1-.7.2-.2.1-.5.2-.6.3-.2.1-.3.3-.4.5-.1.2-.2.5-.2.8 0 .3.1.6.2.8.1.2.3.4.4.5.2.1.4.2.7.2.3 0 .5.1.8.1.7 0 1.2-.1 1.5-.3.4-.2.6-.5.8-.8.2-.3.3-.6.3-.9s.1-.6.1-.8v-1.3l-.6.3m14.6 4.1c-.4.7-.9 1.1-1.6 1.4-.6.3-1.4.4-2.2.4-.9 0-1.7-.2-2.4-.5-.7-.4-1.3-.8-1.7-1.4-.5-.6-.8-1.3-1-2.1-.2-.8-.3-1.6-.3-2.5 0-.8.1-1.6.3-2.4.2-.8.6-1.4 1-2s1-1.1 1.7-1.4c.7-.4 1.5-.5 2.4-.5.7 0 1.4.2 2.1.5.7.3 1.2.8 1.5 1.4v-6.2h3.4v16.9h-3.2v-1.6zm-.2-6c-.1-.5-.3-.9-.5-1.2-.2-.4-.5-.6-.9-.9-.4-.2-.8-.3-1.4-.3s-1 .1-1.4.3c-.4.2-.7.5-.9.9-.2.4-.4.8-.5 1.2-.1.5-.2.9-.2 1.5 0 .5.1.9.2 1.4.1.5.3.9.5 1.3s.6.7.9.9c.4.2.8.3 1.3.3.6 0 1-.1 1.4-.3.4-.2.7-.5.9-.9.2-.4.4-.8.5-1.3.1-.5.1-1 .1-1.5.2-.5.1-1 0-1.4m5.9-2.9c.3-.5.8-.9 1.3-1.2.5-.3 1.1-.5 1.8-.7.7-.1 1.3-.2 2-.2.6 0 1.2 0 1.9.1.6.1 1.2.3 1.7.5.5.3.9.6 1.3 1.1.3.5.5 1 .5 1.8v6.4c0 .6 0 1.1.1 1.6s.2.9.3 1.1h-3.4c-.1-.2-.1-.4-.2-.6 0-.2-.1-.4-.1-.6-.5.6-1.2.9-1.9 1.2-.7.2-1.5.3-2.2.3-.6 0-1.1-.1-1.6-.2s-.9-.4-1.3-.7c-.4-.3-.7-.7-.9-1.1s-.3-1-.3-1.6c0-.7.1-1.3.4-1.7.2-.4.6-.8.9-1.1.4-.3.8-.5 1.3-.6l1.5-.3c.5-.1 1-.1 1.5-.2.5 0 .9-.1 1.3-.2s.7-.2.9-.4c.2-.2.3-.4.3-.8s-.1-.7-.2-.9c-.1-.2-.3-.4-.5-.5-.2-.1-.4-.2-.7-.2-.3 0-.5-.1-.8-.1-.7 0-1.2.1-1.6.4-.4.3-.6.7-.7 1.4h-3.3c.1-.8.3-1.5.7-2m6.6 4.8c-.2.1-.4.1-.7.2-.2 0-.5.1-.8.1-.3 0-.5.1-.8.1-.3 0-.5.1-.7.2-.2.1-.5.2-.6.3-.2.1-.3.3-.4.5-.1.2-.2.5-.2.8 0 .3.1.6.2.8.1.2.3.4.4.5.2.1.4.2.7.2.3 0 .5.1.8.1.7 0 1.2-.1 1.5-.3.4-.2.6-.5.8-.8.2-.3.3-.6.3-.9 0-.3.1-.6.1-.8v-1.3l-.6.3m9.1-6.5v2.3c.2-.4.4-.7.6-1.1.3-.3.6-.6.9-.8.3-.2.7-.4 1.1-.5.4-.1.8-.2 1.2-.2.2 0 .5 0 .7.1v3.1c-.2 0-.3-.1-.6-.1h-.6c-.6 0-1.1.1-1.6.3-.4.2-.8.5-1 .8-.3.4-.4.8-.6 1.2-.1.5-.2 1-.2 1.5v5.5H91V19.2h3.5z"/><path class="st1" d="M25.7 28.5c3.5-2.6 5.7-6.8 5.7-11.5 0-8-6.5-14.5-14.5-14.5C9 2.5 2.5 9 2.5 17c0 7.8 6.2 14.2 14 14.4h14.9v-2.9h-5.7zM5.6 17c0-6.3 5.1-11.4 11.4-11.4 6.3 0 11.4 5.1 11.4 11.4 0 6.3-5.1 11.4-11.4 11.4-6.3 0-11.4-5.1-11.4-11.4"/><path class="st1" d="M23.8 10c-1.8-1.8-4.1-2.8-6.7-2.8-2.5 0-4.9 1-6.7 2.8-3.7 3.7-3.7 9.8 0 13.6l.2-.2c-.4-.4-2.3-2.7-2.3-6.6 0-4.1 3-7.4 7.7-7.8.3 0 .7-.1 1-.1 2.1 0 4 .8 5.5 2.3 3 3.1 3 8.2 0 11.3l1.2 1.1c3.8-3.8 3.8-9.9.1-13.6"/><path class="st1" d="M21.8 12c-1.2-1.3-2.9-2-4.6-2-1.8 0-3.4.7-4.6 2-2.5 2.6-2.5 6.8 0 9.4l.3-.3c-1-1.1-1.5-2.6-1.5-4.1 0-3.1 2.4-5.6 5.5-5.6 3.4 0 5.7 2.6 5.5 5.6-.1 1-.6 2.2-1.5 3.2l1.1 1.1c2.3-2.4 2.3-6.7-.2-9.3"/><path class="st1" d="M19.8 14.1c-.7-.7-1.6-1.1-2.6-1.1s-1.9.4-2.6 1.1c-1.4 1.4-1.4 3.8 0 5.2l.3-.3c-.5-.5-.9-1.3-.9-2.2 0-1.6 1.2-2.9 2.6-2.9 1.2 0 2.2.9 2.5 2 .1.2.1.3.1.5v.3c0 .6-.1 1.1-.4 1.5l.9.9c1.5-1.2 1.5-3.5.1-5"/><path class="st0" d="M105.2 17v-2.6h1.1c.2 0 .4 0 .5.1.1 0 .2.1.3.2.1.1.1.2.1.4s-.1.3-.2.5c-.1.1-.3.2-.5.2.1 0 .2.1.2.1l.3.3.4.7h-.4l-.3-.5c-.1-.2-.2-.3-.2-.4l-.2-.2c-.1 0-.1-.1-.2-.1h-.6V17h-.3zm.3-1.4h1.1c.1 0 .2-.1.2-.2s.1-.1.1-.2 0-.2-.1-.3c-.1-.1-.2-.1-.4-.1h-.8v.8z"/><path class="st0" d="M106.1 18.3c-1.4 0-2.5-1.1-2.5-2.5s1.1-2.5 2.5-2.5 2.5 1.1 2.5 2.5-1.1 2.5-2.5 2.5m0-4.8c-1.2 0-2.2 1-2.2 2.2 0 1.2 1 2.2 2.2 2.2 1.2 0 2.2-1 2.2-2.2.1-1.2-1-2.2-2.2-2.2"/></svg>