<svg xmlns="http://www.w3.org/2000/svg" id="7b005f16-a034-4b93-88cd-fda52e5a3924"
    xmlns:xlink="http://www.w3.org/1999/xlink" viewBox="0 0 76.6 92.4">
    <defs>
        <path id="a" d="M8 54.4V17s12.6-9.3 30.3-9.3h.1c17.8 0 30.4 9.4 30.4 9.4l-.1 37.4c.1 20.2-30.5 29.6-30.5 29.6S7.8 74.5 8 54.4M0 11.3v45.2c-.2 24.4 38.2 35.8 38.2 35.8s38.6-11.5 38.4-35.8V11.3S60.6 0 38.2 0 0 11.3 0 11.3"/>
    </defs>
    <clipPath id="b">
        <use xlink:href="#a" overflow="visible"/>
    </clipPath>
    <linearGradient id="c" gradientUnits="userSpaceOnUse" x1="-267.962" y1="482.189" x2="-267.143" y2="482.189" gradientTransform="scale(51.3058) rotate(54 -607.337 22.398)">
        <stop offset="0" stop-color="#6B6466"/>
        <stop offset=".142" stop-color="#635D5E"/>
        <stop offset=".284" stop-color="#575354"/>
        <stop offset=".427" stop-color="#4A4748"/>
        <stop offset=".57" stop-color="#3A3839"/>
        <stop offset=".714" stop-color="#272526"/>
        <stop offset=".857" stop-color="#0D0C0D"/>
        <stop offset="1"/>
    </linearGradient>
    <path clip-path="url(#b)" fill="url(#c)" d="M50.2-36.6l70.6 97.1L26.4 129l-70.5-97.1"/>
    <g>
        <path fill="#5C5353" d="M0 11.3S15.8 0 38.3 0c22.4 0 38.4 11.3 38.4 11.3L68.9 17S56.5 7.6 38.5 7.6C20.6 7.7 8 16.9 8 16.9l-8-5.6z"/>
        <path fill="#DC2326" d="M6.6 54.8l.1-39.1S19.9 6 38.5 6s31.8 9.8 31.8 9.8l-.1 39.1c.1 21.1-31.9 30.9-31.9 30.9s-31.9-10-31.7-31"/>
        <path fill="#231F20" d="M3.6 13.8S17.7 3.2 38.5 3.2c20.1 0 34.6 10.6 34.6 10.6l-.6 42.6c.1 8.8-6.1 14.7-11.8 19.5-10.1 8.5-22.5 11.9-22.5 11.9s-11-3.7-20.4-10.4C10 71.9 3.5 63.8 3.5 56.5l.1-42.7zM8 16.9v37.4c-.2 20.2 30.3 29.8 30.3 29.8s30.6-9.4 30.5-29.6l.1-37.5S56.3 7.6 38.5 7.6h-.1C20.6 7.6 8 16.9 8 16.9"/>
        <path fill="#DC2326" d="M59.3 26.9c1.9 3.3 2.9 7.3 2.9 11.8 0 10.2-6.3 18.4-15.9 21.5.3.2.6.4.8.5 9.4-3.2 15.5-11.3 15.5-21.4 0-4.8-1.2-9-3.3-12.4"/>
        <path fill="#DB2326" d="M62.6 39.3c0-4.8-1.2-9-3.3-12.4 1.9 3.3 2.9 7.3 2.9 11.8 0 10.2-6.3 18.4-15.9 21.5.3.2.6.4.8.5 9.4-3.3 15.5-11.3 15.5-21.4"/>
        <path fill="#DA2326" d="M62.6 39.3c0-4.8-1.2-9-3.3-12.4 1.9 3.3 2.9 7.3 2.9 11.8 0 10.2-6.3 18.4-15.9 21.5.3.2.6.4.8.5 9.4-3.3 15.5-11.3 15.5-21.4"/>
        <path fill="#D82326" d="M62.6 39.3c0-4.8-1.2-9-3.3-12.4 1.9 3.3 2.9 7.3 2.9 11.8 0 10.2-6.3 18.4-15.9 21.5.3.2.6.4.8.5 9.4-3.3 15.5-11.3 15.5-21.4"/>
        <path fill="#D72326" d="M62.6 39.3c0-4.8-1.2-9-3.3-12.4 1.9 3.3 2.9 7.3 2.9 11.8 0 10.2-6.3 18.4-15.9 21.5.3.2.6.4.8.5 9.4-3.3 15.5-11.3 15.5-21.4"/>
        <path fill="#D62326" d="M62.6 39.3c0-4.8-1.2-9-3.3-12.4 1.9 3.3 2.9 7.3 2.9 11.8 0 10.2-6.3 18.4-15.9 21.5.3.2.6.4.8.5 9.4-3.3 15.5-11.3 15.5-21.4"/>
        <path fill="#D52326" d="M62.6 39.3c0-4.8-1.2-9-3.3-12.4 1.9 3.3 2.9 7.3 2.9 11.8 0 10.2-6.3 18.4-15.9 21.5.3.2.6.4.8.5 9.4-3.3 15.5-11.3 15.5-21.4"/>
        <path fill="#D42326" d="M62.6 39.3c0-4.8-1.2-9-3.3-12.4 1.9 3.3 2.9 7.3 2.9 11.8 0 10.2-6.3 18.4-15.9 21.5.3.2.6.4.8.5 9.4-3.3 15.5-11.3 15.5-21.4"/>
        <path fill="#D32326" d="M62.6 39.3c0-4.8-1.2-9-3.3-12.4 1.9 3.3 2.9 7.3 2.9 11.8 0 10.2-6.3 18.4-15.9 21.5.3.2.6.4.8.5 9.4-3.3 15.5-11.3 15.5-21.4"/>
        <path fill="#D12326" d="M62.6 39.3c0-4.8-1.2-9-3.3-12.4 1.9 3.3 2.9 7.3 2.9 11.8 0 10.2-6.3 18.4-15.9 21.5.3.2.6.4.8.5 9.4-3.3 15.5-11.3 15.5-21.4"/>
        <path fill="#D02326" d="M62.6 39.3c0-4.8-1.2-9-3.3-12.4 1.9 3.3 2.9 7.3 2.9 11.8 0 10.2-6.3 18.4-15.9 21.5.3.2.6.4.8.5 9.4-3.3 15.5-11.3 15.5-21.4"/>
        <path fill="#CF2326" d="M62.6 39.3c0-4.8-1.2-9-3.3-12.4 1.9 3.3 2.9 7.3 2.9 11.8 0 10.2-6.3 18.4-15.9 21.5.3.2.6.4.8.5 9.4-3.3 15.5-11.3 15.5-21.4"/>
        <path fill="#CE2326" d="M62.6 39.3c0-4.8-1.2-9-3.3-12.4 1.9 3.3 2.9 7.3 2.9 11.8 0 10.2-6.3 18.4-15.9 21.5.3.2.6.4.8.5 9.4-3.3 15.5-11.3 15.5-21.4"/>
        <path fill="#CD2325" d="M62.6 39.3c0-4.8-1.2-9-3.3-12.4 1.9 3.3 2.9 7.3 2.9 11.8 0 10.2-6.3 18.4-15.9 21.5.3.2.6.4.8.5 9.4-3.3 15.5-11.3 15.5-21.4"/>
        <path fill="#CC2325" d="M62.6 39.3c0-4.8-1.2-9-3.3-12.4 1.9 3.3 2.9 7.3 2.9 11.8 0 10.2-6.3 18.4-15.9 21.5.3.2.6.4.8.5 9.4-3.3 15.5-11.3 15.5-21.4"/>
        <path fill="#CB2325" d="M62.6 39.3c0-4.8-1.2-9-3.3-12.4 1.9 3.3 2.9 7.3 2.9 11.8 0 10.2-6.3 18.4-15.9 21.5.3.2.6.4.8.5 9.4-3.3 15.5-11.3 15.5-21.4"/>
        <path fill="#CA2325" d="M62.6 39.3c0-4.8-1.2-9-3.3-12.4 1.9 3.3 2.9 7.3 2.9 11.8 0 10.2-6.3 18.4-15.9 21.5.3.2.6.4.8.5 9.4-3.3 15.5-11.3 15.5-21.4"/>
        <path fill="#C92325" d="M62.6 39.3c0-4.8-1.2-9-3.3-12.4 1.9 3.3 2.9 7.3 2.9 11.8 0 10.2-6.3 18.4-15.9 21.5.3.2.6.4.8.5 9.4-3.3 15.5-11.3 15.5-21.4"/>
        <path fill="#C82325" d="M62.6 39.3c0-4.8-1.2-9-3.3-12.4 1.9 3.3 2.9 7.3 2.9 11.8 0 10.2-6.3 18.4-15.9 21.5.3.2.6.4.8.5 9.3-3.3 15.5-11.4 15.5-21.4"/>
        <path fill="#C62325" d="M62.6 39.3c0-4.8-1.2-9-3.3-12.4 1.9 3.3 2.9 7.3 2.9 11.8 0 10.2-6.3 18.4-15.9 21.5.3.2.6.4.8.5 9.3-3.3 15.5-11.4 15.5-21.4"/>
        <path fill="#C62325" d="M62.6 39.3c0-4.8-1.2-9-3.3-12.4 1.9 3.3 2.9 7.3 2.9 11.8 0 10.2-6.3 18.4-15.9 21.5.3.2.6.4.8.5 9.3-3.3 15.5-11.4 15.5-21.4"/>
        <path fill="#C42325" d="M62.6 39.3c0-4.8-1.2-9-3.3-12.4 1.9 3.3 2.9 7.3 2.9 11.8 0 10.2-6.3 18.4-15.9 21.5.3.2.6.4.8.5 9.3-3.3 15.5-11.4 15.5-21.4"/>
        <path fill="#C32325" d="M62.6 39.3c0-4.8-1.2-9-3.3-12.4 1.9 3.3 2.9 7.3 2.9 11.8 0 10.2-6.3 18.4-15.9 21.5.3.2.6.4.8.5 9.3-3.3 15.5-11.4 15.5-21.4"/>
        <path fill="#C22325" d="M62.6 39.3c0-4.8-1.2-9-3.3-12.4 1.9 3.3 2.9 7.3 2.9 11.8 0 10.2-6.3 18.4-15.9 21.5.3.2.6.4.8.5 9.3-3.3 15.5-11.4 15.5-21.4"/>
        <path fill="#C12325" d="M62.6 39.3c0-4.8-1.2-9-3.3-12.4 1.9 3.3 2.9 7.3 2.9 11.8 0 10.2-6.3 18.4-15.9 21.5.3.2.6.4.8.5 9.3-3.3 15.5-11.4 15.5-21.4"/>
        <path fill="#C02325" d="M62.5 39.3c0-4.8-1.2-9-3.3-12.4 1.9 3.3 2.9 7.3 2.9 11.8 0 10.2-6.3 18.4-15.9 21.5.3.2.6.4.8.5 9.4-3.3 15.5-11.4 15.5-21.4"/>
        <path fill="#BF2325" d="M62.5 39.3c0-4.8-1.2-9-3.3-12.4 1.9 3.3 2.9 7.3 2.9 11.8 0 10.2-6.3 18.4-15.9 21.5.3.2.6.4.8.5 9.4-3.3 15.5-11.4 15.5-21.4"/>
        <path fill="#BE2325" d="M62.5 39.3c0-4.8-1.2-9-3.3-12.4 1.9 3.3 2.9 7.3 2.9 11.8 0 10.2-6.3 18.4-15.9 21.5.3.2.6.4.8.5 9.4-3.3 15.5-11.4 15.5-21.4"/>
        <path fill="#BD2324" d="M62.5 39.3c0-4.8-1.2-9-3.3-12.4 1.9 3.3 2.9 7.3 2.9 11.8 0 10.2-6.3 18.4-15.9 21.5.3.2.6.4.8.5 9.4-3.3 15.5-11.4 15.5-21.4"/>
        <path fill="#BC2324" d="M62.5 39.3c0-4.8-1.2-9-3.3-12.4 1.9 3.3 2.9 7.3 2.9 11.8 0 10.2-6.3 18.4-15.9 21.5.3.2.6.4.8.5 9.4-3.3 15.5-11.4 15.5-21.4"/>
        <path fill="#BB2324" d="M62.5 39.3c0-4.8-1.2-9-3.3-12.4 1.9 3.3 2.9 7.3 2.9 11.8 0 10.2-6.3 18.4-15.9 21.5.3.2.6.4.8.5 9.4-3.3 15.5-11.4 15.5-21.4"/>
        <path fill="#BA2324" d="M62.5 39.3c0-4.8-1.2-9-3.3-12.4 1.9 3.3 2.9 7.3 2.9 11.8 0 10.2-6.3 18.4-15.9 21.5.3.2.6.4.8.5 9.4-3.3 15.5-11.4 15.5-21.4"/>
        <path fill="#B92324" d="M62.5 39.3c0-4.8-1.2-9-3.3-12.4 1.9 3.3 2.9 7.3 2.9 11.8 0 10.2-6.3 18.4-15.9 21.5.3.2.6.4.8.5 9.4-3.3 15.5-11.4 15.5-21.4"/>
        <path fill="#B82324" d="M62.5 39.3c0-4.8-1.2-9-3.3-12.4 1.9 3.3 2.9 7.3 2.9 11.8 0 10.2-6.3 18.4-15.9 21.5.3.2.6.4.8.5 9.4-3.3 15.5-11.4 15.5-21.4"/>
        <path fill="#B72324" d="M62.5 39.3c0-4.8-1.2-9-3.3-12.4 1.9 3.3 2.9 7.3 2.9 11.8 0 10.2-6.3 18.4-15.9 21.5.3.2.6.4.8.5 9.4-3.3 15.5-11.4 15.5-21.4"/>
        <path fill="#B52324" d="M62.5 39.2c0-4.8-1.2-9-3.3-12.4 1.9 3.3 2.9 7.3 2.9 11.8 0 10.2-6.3 18.4-15.9 21.5.3.2.6.4.8.5 9.4-3.2 15.5-11.3 15.5-21.4"/>
        <path fill="#B52324" d="M62.5 39.2c0-4.8-1.2-9-3.3-12.4 1.9 3.3 2.9 7.3 2.9 11.8 0 10.2-6.3 18.4-15.9 21.5.3.2.6.4.8.5 9.4-3.2 15.5-11.3 15.5-21.4"/>
        <path fill="#B42324" d="M62.5 39.2c0-4.8-1.2-9-3.3-12.4 1.9 3.3 2.9 7.3 2.9 11.8 0 10.2-6.3 18.4-15.9 21.5.3.2.6.4.8.5 9.4-3.2 15.5-11.3 15.5-21.4"/>
        <path fill="#B32324" d="M62.5 39.2c0-4.8-1.2-9-3.3-12.4 1.9 3.3 2.9 7.3 2.9 11.8 0 10.2-6.3 18.4-15.9 21.5.3.2.6.4.8.5 9.4-3.2 15.5-11.3 15.5-21.4"/>
        <path fill="#B22223" d="M62.5 39.2c0-4.8-1.2-9-3.3-12.4 1.9 3.3 2.9 7.3 2.9 11.8 0 10.2-6.3 18.4-15.9 21.5.3.2.6.4.8.5 9.4-3.2 15.5-11.3 15.5-21.4"/>
        <path fill="#B02223" d="M62.5 39.2c0-4.8-1.2-9-3.3-12.4 1.9 3.3 2.9 7.3 2.9 11.8 0 10.2-6.3 18.4-15.9 21.5.3.2.6.4.8.5 9.4-3.2 15.5-11.3 15.5-21.4"/>
        <path fill="#AF2223" d="M62.5 39.2c0-4.8-1.2-9-3.3-12.4 1.9 3.3 2.9 7.3 2.9 11.8 0 10.2-6.3 18.4-15.9 21.5.3.2.6.4.8.5 9.4-3.2 15.5-11.3 15.5-21.4"/>
        <path fill="#AE2223" d="M62.5 39.2c0-4.8-1.2-9-3.3-12.4 1.9 3.3 2.9 7.3 2.9 11.8 0 10.2-6.3 18.4-15.9 21.5.3.2.6.4.8.5 9.4-3.2 15.5-11.3 15.5-21.4"/>
        <path fill="#AD2223" d="M62.5 39.2c0-4.8-1.2-9-3.3-12.4 1.9 3.3 2.9 7.3 2.9 11.8 0 10.2-6.3 18.4-15.9 21.5.3.2.6.4.8.5 9.4-3.2 15.5-11.3 15.5-21.4"/>
        <path fill="#AD2223" d="M62.5 39.2c0-4.8-1.2-9-3.3-12.4 1.9 3.3 2.9 7.3 2.9 11.8 0 10.2-6.3 18.4-15.9 21.5.3.2.6.4.8.5 9.4-3.3 15.5-11.3 15.5-21.4"/>
        <path fill="#AB2223" d="M62.5 39.2c0-4.8-1.2-9-3.3-12.4 1.9 3.3 2.9 7.3 2.9 11.8 0 10.2-6.3 18.4-15.9 21.5.3.2.6.4.8.5 9.4-3.3 15.5-11.3 15.5-21.4"/>
        <path fill="#AA2223" d="M62.5 39.2c0-4.8-1.2-9-3.3-12.4 1.9 3.3 2.9 7.3 2.9 11.8 0 10.2-6.3 18.4-15.9 21.5.3.2.6.4.8.5 9.4-3.3 15.5-11.3 15.5-21.4"/>
        <path fill="#A92223" d="M62.5 39.2c0-4.8-1.2-9-3.3-12.4 1.9 3.3 2.9 7.3 2.9 11.8 0 10.2-6.3 18.4-15.9 21.5.3.2.6.4.8.5 9.4-3.3 15.5-11.3 15.5-21.4"/>
        <path fill="#A82222" d="M62.5 39.2c0-4.8-1.2-9-3.3-12.4 1.9 3.3 2.9 7.3 2.9 11.8 0 10.2-6.3 18.4-15.9 21.5.3.2.6.4.8.5 9.4-3.3 15.5-11.3 15.5-21.4"/>
        <path fill="#A72222" d="M62.5 39.2c0-4.8-1.2-9-3.3-12.4 1.9 3.3 2.9 7.3 2.9 11.8 0 10.2-6.3 18.4-15.9 21.5.3.2.6.4.8.5 9.3-3.3 15.5-11.3 15.5-21.4"/>
        <path fill="#A62122" d="M62.5 39.2c0-4.8-1.2-9-3.3-12.4 1.9 3.3 2.9 7.3 2.9 11.8 0 10.2-6.3 18.4-15.9 21.5.3.2.6.4.8.5 9.3-3.3 15.5-11.3 15.5-21.4"/>
        <path fill="#A52222" d="M62.5 39.2c0-4.8-1.2-9-3.3-12.4 1.9 3.3 2.9 7.3 2.9 11.8 0 10.2-6.3 18.4-15.9 21.5.3.2.6.4.8.5 9.3-3.3 15.5-11.3 15.5-21.4"/>
        <path fill="#A42122" d="M62.5 39.2c0-4.8-1.2-9-3.3-12.4 1.9 3.3 2.9 7.3 2.9 11.8 0 10.2-6.3 18.4-15.9 21.5.3.2.6.4.8.5 9.3-3.3 15.5-11.3 15.5-21.4"/>
        <path fill="#A32122" d="M62.5 39.2c0-4.8-1.2-9-3.3-12.4 1.9 3.3 2.9 7.3 2.9 11.8 0 10.2-6.3 18.4-15.9 21.5.3.2.6.4.8.5 9.3-3.3 15.5-11.3 15.5-21.4"/>
        <path fill="#A22122" d="M62.5 39.2c0-4.8-1.2-9-3.3-12.4 1.9 3.3 2.9 7.3 2.9 11.8 0 10.2-6.3 18.4-15.9 21.5.3.2.6.4.8.5 9.3-3.3 15.5-11.3 15.5-21.4"/>
        <path fill="#A12122" d="M62.5 39.2c0-4.8-1.2-9-3.3-12.4 1.9 3.3 2.9 7.3 2.9 11.8 0 10.2-6.3 18.4-15.9 21.5.3.2.6.4.8.5 9.3-3.3 15.5-11.3 15.5-21.4"/>
        <path fill="#A12121" d="M62.4 39.2c0-4.8-1.2-9-3.3-12.4C61 30.1 62 34.1 62 38.5c0 10.2-6.3 18.4-15.9 21.5.3.2.6.4.8.5 9.4-3.2 15.5-11.2 15.5-21.3"/>
        <path fill="#9F2121" d="M62.4 39.2c0-4.8-1.2-9-3.3-12.4C61 30.1 62 34.1 62 38.5c0 10.2-6.3 18.4-15.9 21.5.3.2.6.4.8.5 9.4-3.2 15.5-11.2 15.5-21.3"/>
        <path fill="#9E2121" d="M62.4 39.2c0-4.8-1.2-9-3.3-12.4C61 30.1 62 34.1 62 38.5c0 10.2-6.3 18.4-15.9 21.5.3.2.6.4.8.5 9.4-3.2 15.5-11.2 15.5-21.3"/>
        <path fill="#9D2121" d="M62.4 39.2c0-4.8-1.2-9-3.3-12.4C61 30.1 62 34.1 62 38.5c0 10.2-6.3 18.4-15.9 21.5.3.2.6.4.8.5 9.4-3.2 15.5-11.2 15.5-21.3"/>
        <path fill="#9C2121" d="M62.4 39.2c0-4.8-1.2-9-3.3-12.4C61 30.1 62 34 62 38.5c0 10.2-6.3 18.4-15.9 21.5.3.2.6.4.8.5 9.4-3.2 15.5-11.2 15.5-21.3"/>
        <path fill="#9B2121" d="M62.4 39.2c0-4.8-1.2-9-3.3-12.4C61 30.1 62 34 62 38.5c0 10.2-6.3 18.4-15.9 21.5.3.2.6.4.8.5 9.4-3.2 15.5-11.2 15.5-21.3"/>
        <path fill="#9B2021" d="M62.4 39.2c0-4.8-1.2-9-3.3-12.4C61 30.1 62 34 62 38.5c0 10.2-6.3 18.4-15.9 21.5.3.2.6.4.8.5 9.4-3.2 15.5-11.3 15.5-21.3"/>
        <path fill="#992021" d="M62.4 39.2c0-4.8-1.2-9-3.3-12.4C61 30.1 62 34 62 38.5c0 10.2-6.3 18.4-15.9 21.5.3.2.6.4.8.5 9.4-3.2 15.5-11.3 15.5-21.3"/>
        <path fill="#992020" d="M62.4 39.2c0-4.8-1.2-9-3.3-12.4C61 30.1 62 34 62 38.5c0 10.2-6.3 18.4-15.9 21.5.3.2.6.4.8.5 9.4-3.2 15.5-11.3 15.5-21.3"/>
        <path fill="#982020" d="M62.4 39.2c0-4.8-1.2-9-3.3-12.4C61 30.1 62 34 62 38.5c0 10.2-6.3 18.4-15.9 21.5.3.2.6.4.8.5 9.4-3.2 15.5-11.3 15.5-21.3"/>
        <path fill="#962020" d="M62.4 39.2c0-4.8-1.2-9-3.3-12.4C61 30.1 62 34 62 38.5c0 10.2-6.3 18.4-15.9 21.5.3.2.6.4.8.5 9.4-3.2 15.5-11.3 15.5-21.3"/>
        <path fill="#962020" d="M62.4 39.2c0-4.8-1.2-9-3.3-12.4C61 30.1 62 34 62 38.5c0 10.2-6.3 18.4-15.9 21.5.3.2.6.4.8.5 9.4-3.2 15.5-11.3 15.5-21.3"/>
        <path fill="#942020" d="M62.4 39.2c0-4.8-1.2-9-3.3-12.4C61 30.1 62 34 62 38.5c0 10.2-6.3 18.4-15.9 21.5.3.2.6.4.8.5 9.4-3.2 15.5-11.3 15.5-21.3"/>
        <path fill="#942020" d="M62.4 39.2c0-4.8-1.2-9-3.3-12.4C61 30.1 62 34 62 38.5c0 10.2-6.3 18.4-15.9 21.5.3.2.6.4.8.5 9.4-3.2 15.5-11.3 15.5-21.3"/>
        <path fill="#932020" d="M62.4 39.2c0-4.8-1.2-9-3.3-12.4C61 30.1 62 34 62 38.5c0 10.2-6.3 18.4-15.9 21.5.3.2.6.4.8.5 9.4-3.2 15.5-11.3 15.5-21.3"/>
        <path fill="#921F1F" d="M62.4 39.2c0-4.8-1.2-9-3.3-12.4C61 30.1 62 34 62 38.5c0 10.2-6.3 18.4-15.9 21.5.3.2.6.4.8.5 9.4-3.2 15.5-11.3 15.5-21.3"/>
        <path fill="#911F1F" d="M62.4 39.2c0-4.8-1.2-9-3.3-12.4C61 30.1 62 34 62 38.5c0 10.2-6.3 18.4-15.9 21.5.3.2.6.4.8.5 9.4-3.2 15.5-11.3 15.5-21.3"/>
        <path fill="#901F1F" d="M62.4 39.2c0-4.8-1.2-9-3.3-12.4C61 30 62 34 62 38.5c0 10.2-6.3 18.4-15.9 21.5.3.2.6.4.8.5 9.4-3.2 15.5-11.3 15.5-21.3"/>
        <path fill="#8F1F1F" d="M62.4 39.2c0-4.8-1.2-9-3.3-12.4C61 30 62 34 62 38.5c0 10.2-6.3 18.4-15.9 21.5.3.2.6.4.8.5 9.4-3.2 15.5-11.3 15.5-21.3"/>
        <path fill="#8E1F1F" d="M62.4 39.2c0-4.8-1.2-9-3.3-12.4C60.9 30 62 34 62 38.5c0 10.2-6.3 18.4-15.9 21.5.3.2.6.4.8.5 9.4-3.2 15.5-11.3 15.5-21.3"/>
        <path fill="#8D1F1F" d="M62.4 39.2c0-4.8-1.2-9-3.3-12.4C60.9 30 62 34 62 38.5c0 10.2-6.3 18.4-16 21.5.3.2.6.4.8.5 9.5-3.2 15.6-11.3 15.6-21.3"/>
        <path fill="#8C1E1E" d="M62.4 39.2c0-4.8-1.2-9-3.3-12.4C60.9 30 62 34 62 38.5c0 10.2-6.3 18.4-16 21.5.3.2.6.4.8.5 9.5-3.2 15.6-11.3 15.6-21.3"/>
        <path fill="#8B1E1E" d="M62.4 39.1c0-4.8-1.2-9-3.3-12.4C60.9 30 62 34 62 38.5c0 10.2-6.3 18.4-16 21.5.3.2.6.4.8.5 9.5-3.2 15.6-11.3 15.6-21.4"/>
        <path fill="#8A1E1E" d="M62.4 39.1c0-4.8-1.2-9-3.3-12.4C60.9 30 62 34 62 38.5c0 10.2-6.3 18.3-16 21.5.3.2.6.4.8.5 9.4-3.2 15.6-11.3 15.6-21.4"/>
        <path fill="#891E1E" d="M62.4 39.1c0-4.8-1.2-9-3.3-12.4C60.9 30 62 34 62 38.5c0 10.2-6.3 18.3-16 21.5.3.2.6.4.8.5 9.4-3.2 15.6-11.3 15.6-21.4"/>
        <path fill="#881E1E" d="M62.4 39.1c0-4.8-1.2-9-3.3-12.4C60.9 30 62 34 62 38.5c0 10.2-6.3 18.3-16 21.5.3.2.6.4.8.5 9.4-3.2 15.6-11.3 15.6-21.4"/>
        <path fill="#871E1E" d="M62.4 39.1c0-4.8-1.2-9-3.3-12.4C60.9 30 62 34 62 38.5c0 10.2-6.3 18.3-16 21.5.3.2.6.4.8.5 9.4-3.2 15.6-11.3 15.6-21.4"/>
        <path fill="#861D1E" d="M62.4 39.1c0-4.8-1.2-9-3.3-12.4C60.9 30 62 34 62 38.5c0 10.2-6.3 18.3-16 21.5.3.2.6.4.8.5 9.4-3.2 15.6-11.3 15.6-21.4"/>
        <path fill="#851D1D" d="M62.4 39.1c0-4.8-1.2-9-3.3-12.4C60.9 30 62 34 62 38.5c0 10.2-6.4 18.3-16 21.5.3.2.6.4.8.5 9.4-3.2 15.6-11.3 15.6-21.4"/>
        <path fill="#841D1D" d="M59 26.7c1.9 3.3 3 7.3 3 11.8 0 10.2-6.4 18.3-16 21.5.3.2.6.4.8.5 9.4-3.2 15.5-11.3 15.5-21.4.1-4.7-1.1-9-3.3-12.4"/>
        <path fill="#DC2326" d="M58.2 66.8c-2.8.6-5.9 2-8.6 3.6-3.1-2.5-6.2-4.9-9.5-7.2l-2.6-1.9c-4.6 0-8.7-.9-12.2-2.6-3.4-1.7-6.2-4.3-8.1-7.7 1.8 3.6 4.5 6.3 7.9 8.2 3.4 1.9 7.6 2.9 12.4 2.9 0 0 8.7 6.6 12.1 9.1.1.1.5.1.5 0 0 0 .1-.1.2-.1 2.7-1.6 5.3-2.9 8.6-3.7.2-.1-.2-.4-.7-.6"/>
        <path fill="#DB2326" d="M17.2 51c1.8 3.6 4.5 6.3 7.9 8.2 3.4 1.9 7.6 2.9 12.4 2.9 0 0 8.7 6.6 12.1 9.1.1.1.3.1.4.1h.1s.1-.1.2-.1c2.7-1.6 5.3-2.9 8.6-3.7.2-.1-.2-.4-.7-.6-2.8.6-5.9 2-8.6 3.6-3.1-2.5-6.2-4.9-9.5-7.2l-2.6-1.9c-4.6 0-8.7-.9-12.2-2.6-3.5-1.9-6.2-4.5-8.1-7.8"/>
        <path fill="#DA2326" d="M17.2 51c1.8 3.6 4.5 6.3 7.9 8.2 3.4 1.9 7.6 2.9 12.4 2.9 0 0 8.7 6.6 12.1 9.1.1.1.3.1.4.1h.1s.1-.1.2-.1c2.7-1.6 5.3-2.9 8.6-3.7.2-.1-.3-.4-.7-.6-2.8.6-5.9 2-8.6 3.6-3.1-2.5-6.2-4.9-9.5-7.2l-2.6-1.9c-4.6 0-8.7-.9-12.2-2.6-3.5-1.9-6.2-4.5-8.1-7.8"/>
        <path fill="#D82326" d="M17.2 51c1.8 3.6 4.5 6.3 7.9 8.2 3.4 1.9 7.6 2.9 12.4 2.9 0 0 8.7 6.6 12.1 9.1.1.1.3.1.4.1h.1c.1 0 .1-.1.2-.1 2.7-1.6 5.3-2.9 8.6-3.7.2-.1-.3-.4-.7-.6-2.8.6-5.9 2-8.6 3.6-3.1-2.5-6.2-4.9-9.5-7.2l-2.6-1.9c-4.6 0-8.7-.9-12.2-2.6-3.5-1.9-6.2-4.5-8.1-7.8"/>
        <path fill="#D72326" d="M17.2 51c1.8 3.6 4.5 6.3 7.9 8.2 3.4 1.9 7.6 2.9 12.4 2.9 0 0 8.7 6.6 12.1 9.1.1.1.3.1.4.1h.1c.1 0 .1-.1.2-.1 2.7-1.6 5.3-2.9 8.6-3.7.2-.1-.3-.4-.7-.6-2.9.6-5.9 2-8.6 3.6-3.1-2.5-6.2-4.9-9.5-7.2l-2.6-1.9c-4.6 0-8.7-.9-12.2-2.6-3.5-1.9-6.2-4.5-8.1-7.8"/>
        <path fill="#D62326" d="M17.2 51c1.8 3.6 4.5 6.3 7.9 8.2 3.4 1.9 7.6 2.9 12.4 2.9 0 0 8.7 6.6 12.1 9.1.1.1.3.1.4.1h.1c.1 0 .1-.1.2-.1 2.7-1.6 5.3-2.9 8.6-3.7.2-.1-.3-.4-.7-.6-2.8.6-5.9 2-8.6 3.6-3.1-2.5-6.2-4.9-9.5-7.2l-2.6-1.9c-4.6 0-8.7-.9-12.2-2.6-3.5-1.9-6.2-4.5-8.1-7.8"/>
        <path fill="#D52326" d="M17.2 51c1.8 3.6 4.5 6.3 7.9 8.2 3.4 1.9 7.6 2.9 12.4 2.9 0 0 8.7 6.6 12.1 9.1.1.1.3.1.4.1h.1c.1 0 .1-.1.2-.1 2.7-1.6 5.3-2.9 8.6-3.7.2-.1-.3-.4-.7-.6-2.8.6-5.9 2-8.6 3.6-3.1-2.5-6.2-4.9-9.5-7.2l-2.6-1.9c-4.6 0-8.7-.9-12.2-2.6-3.5-1.9-6.2-4.5-8.1-7.8"/>
        <path fill="#D42326" d="M17.2 51c1.8 3.6 4.5 6.3 8 8.2 3.4 1.9 7.6 2.9 12.4 2.9 0 0 8.7 6.6 12.1 9.1.1.1.3.1.4.1h.1c.1 0 .1-.1.2-.1 2.7-1.6 5.3-2.9 8.6-3.7.2-.1-.3-.4-.7-.6-2.8.6-5.9 1.9-8.6 3.6-3.1-2.5-6.2-4.9-9.5-7.2l-2.6-1.9c-4.6 0-8.7-.9-12.2-2.6-3.6-1.9-6.3-4.5-8.2-7.8"/>
        <path fill="#D32326" d="M17.2 51c1.8 3.6 4.5 6.3 8 8.2 3.4 1.9 7.6 2.9 12.4 2.9 0 0 8.7 6.6 12.1 9.1.1.1.3.1.4.1h.1c.1 0 .1-.1.2-.1 2.7-1.6 5.3-2.9 8.6-3.7.1-.1-.3-.4-.7-.6-2.8.6-5.9 1.9-8.6 3.6-3.1-2.5-6.2-4.9-9.5-7.2l-2.6-1.9c-4.6 0-8.7-.9-12.2-2.6-3.6-1.9-6.3-4.5-8.2-7.8"/>
        <path fill="#D12326" d="M17.2 51c1.8 3.6 4.5 6.3 8 8.2 3.4 1.9 7.6 2.9 12.4 2.9 0 0 8.7 6.6 12.1 9 .1.1.3.1.4.1h.1s.1-.1.2-.1c2.7-1.6 5.3-2.9 8.6-3.7.1-.1-.3-.4-.7-.5-2.8.6-5.9 1.9-8.6 3.5-3.1-2.5-6.2-4.9-9.5-7.2l-2.6-1.9c-4.6 0-8.7-.9-12.2-2.6-3.6-1.8-6.3-4.4-8.2-7.7"/>
        <path fill="#D02326" d="M17.2 51c1.8 3.6 4.5 6.3 8 8.2 3.4 1.9 7.6 2.9 12.4 2.9 0 0 8.7 6.6 12.1 9 .1.1.3.1.4.1h.1s.1-.1.2-.1c2.7-1.6 5.3-2.9 8.6-3.7.1-.1-.3-.4-.7-.5-2.8.6-5.9 1.9-8.6 3.5-3.1-2.5-6.2-4.9-9.5-7.2l-2.6-1.9c-4.6 0-8.7-.9-12.2-2.6-3.6-1.8-6.3-4.4-8.2-7.7"/>
        <path fill="#CF2326" d="M17.2 51c1.8 3.6 4.5 6.3 8 8.2C28.6 61 32.8 62 37.6 62c0 0 8.7 6.6 12.1 9 .1.1.3.1.4.1h.1s.1-.1.2-.1c2.7-1.6 5.3-2.9 8.6-3.7.1-.1-.3-.4-.7-.5-2.8.6-5.9 1.9-8.5 3.5-3.1-2.5-6.2-4.9-9.5-7.2l-2.6-1.9c-4.6 0-8.7-.9-12.2-2.6-3.7-1.7-6.5-4.3-8.3-7.6"/>
        <path fill="#CE2326" d="M17.2 50.9c1.8 3.6 4.5 6.3 8 8.2C28.6 61 32.8 62 37.6 62c0 0 8.7 6.6 12.1 9 .1.1.3.1.4.1h.1l.1-.1c2.7-1.6 5.3-2.9 8.6-3.7.1-.2-.3-.3-.7-.5-2.8.6-5.9 1.9-8.5 3.5-3.1-2.5-6.2-4.9-9.5-7.2l-2.6-1.9c-4.6 0-8.7-.9-12.2-2.6-3.6-1.7-6.4-4.3-8.2-7.7"/>
        <path fill="#CD2325" d="M17.2 50.9c1.8 3.6 4.5 6.3 8 8.2C28.6 61 32.8 62 37.6 62c0 0 8.7 6.6 12.1 9 .1.1.3.1.4.1h.1c.1 0 .1-.1.2-.1 2.7-1.6 5.3-2.9 8.5-3.7.1-.1-.3-.3-.7-.5-2.8.6-5.9 1.9-8.5 3.5-3.1-2.5-6.2-4.9-9.5-7.2l-2.6-1.9c-4.6 0-8.7-.9-12.2-2.6-3.6-1.7-6.4-4.3-8.2-7.7"/>
        <path fill="#CC2325" d="M17.2 50.9c1.8 3.6 4.5 6.3 8 8.2C28.6 61 32.8 62 37.6 62c0 0 8.7 6.6 12.1 9 .1.1.3.1.4.1h.1c.1 0 .1-.1.2-.1 2.7-1.6 5.3-2.9 8.5-3.7.1-.1-.3-.3-.7-.5-2.8.6-5.8 1.9-8.5 3.5-3.1-2.5-6.2-4.9-9.5-7.2l-2.6-1.9c-4.6 0-8.7-.9-12.2-2.6-3.6-1.7-6.4-4.3-8.2-7.7"/>
        <path fill="#CB2325" d="M17.2 50.9c1.8 3.6 4.5 6.3 8 8.2C28.6 61 32.8 62 37.6 62c0 0 8.7 6.6 12.1 9 .1.1.3.1.4.1h.1c.1 0 .1-.1.2-.1 2.7-1.6 5.3-2.9 8.5-3.7.1-.1-.3-.3-.8-.5-2.8.6-5.8 1.9-8.5 3.5-3.1-2.5-6.2-4.9-9.5-7.2l-2.6-1.9c-4.6 0-8.7-.9-12.2-2.6-3.5-1.7-6.3-4.3-8.1-7.7"/>
        <path fill="#CA2325" d="M17.2 50.9c1.8 3.6 4.5 6.3 8 8.2C28.6 61 32.8 62 37.6 62c0 0 8.7 6.6 12.1 9 .1.1.3.1.4.1h.1c.1 0 .1-.1.2-.1 2.7-1.6 5.3-2.9 8.5-3.7.1-.1-.3-.3-.8-.5-2.8.6-5.8 1.9-8.5 3.5-3.1-2.5-6.2-4.9-9.5-7.2l-2.6-1.9c-4.6 0-8.7-.9-12.2-2.6-3.5-1.8-6.3-4.3-8.1-7.7"/>
        <path fill="#C92325" d="M17.2 50.9c1.8 3.6 4.5 6.3 8 8.2C28.6 61 32.8 62 37.6 62c0 0 8.7 6.6 12.1 9 .1.1.3.1.4.1h.1c.1 0 .1-.1.2-.1 2.7-1.6 5.3-2.9 8.5-3.7.1-.1-.3-.3-.8-.5-2.9.6-5.8 1.9-8.5 3.5-3.1-2.5-6.2-4.9-9.5-7.2l-2.6-1.9c-4.6 0-8.7-.9-12.2-2.6-3.5-1.8-6.3-4.3-8.1-7.7"/>
        <path fill="#C82325" d="M17.2 50.9c1.8 3.6 4.5 6.3 8 8.2C28.6 61 32.8 62 37.5 62c0 0 8.7 6.6 12.1 9 .1.1.3.1.4.1h.1c.1 0 .1-.1.2-.1 2.7-1.6 5.3-2.9 8.5-3.7.1-.1-.3-.3-.8-.5-2.8.6-5.8 1.9-8.5 3.5-3.1-2.5-6.2-4.9-9.5-7.2l-2.6-1.9c-4.6 0-8.7-.9-12.2-2.6-3.4-1.8-6.2-4.3-8-7.7"/>
        <path fill="#C62325" d="M17.2 50.9c1.8 3.6 4.5 6.3 8 8.2C28.6 61 32.8 62 37.5 62c0 0 8.7 6.6 12.1 9 .1.1.3.1.4.1h.1c.1 0 .1-.1.2-.1 2.7-1.6 5.3-2.9 8.5-3.7.1-.2-.3-.3-.8-.5-2.8.6-5.8 1.9-8.5 3.5-3.1-2.5-6.2-4.9-9.5-7.2l-2.6-1.9c-4.6 0-8.7-.9-12.2-2.6-3.4-1.8-6.2-4.3-8-7.7"/>
        <path fill="#C62325" d="M17.2 50.9c1.8 3.6 4.5 6.3 8 8.2C28.6 61 32.8 62 37.5 62c0 0 8.7 6.6 12.1 9 .1.1.3.1.4.1h.1c.1 0 .1-.1.2-.1 2.7-1.6 5.3-2.9 8.5-3.7.1-.2-.3-.3-.8-.5-2.8.6-5.8 1.9-8.5 3.5-3.1-2.5-6.2-4.9-9.5-7.2l-2.6-1.9c-4.6 0-8.7-.9-12.2-2.6-3.4-1.8-6.2-4.3-8-7.7"/>
        <path fill="#C42325" d="M17.2 50.9c1.8 3.6 4.5 6.3 8 8.2C28.6 61 32.8 62 37.5 62c0 0 8.7 6.6 12.1 9 .1.1.3.1.4.1h.1c.1 0 .1-.1.2-.1 2.7-1.6 5.3-2.9 8.5-3.7.1-.2-.3-.3-.8-.5-2.8.6-5.8 1.9-8.5 3.5-3.1-2.5-6.2-4.9-9.5-7.2l-2.6-1.9c-4.6 0-8.7-.9-12.2-2.6-3.4-1.8-6.2-4.3-8-7.7"/>
        <path fill="#C32325" d="M17.2 50.9c1.8 3.6 4.5 6.3 8 8.2C28.6 61 32.8 62 37.5 62c0 0 8.7 6.6 12.1 9 .1.1.3.1.4.1h.1c.1 0 .1-.1.2-.1 2.7-1.6 5.3-3 8.5-3.7.1-.2-.3-.3-.8-.5-2.8.6-5.8 1.9-8.5 3.5-3.1-2.5-6.2-4.9-9.5-7.2l-2.6-1.9c-4.6 0-8.7-.9-12.2-2.6-3.4-1.8-6.2-4.3-8-7.7"/>
        <path fill="#C22325" d="M17.1 50.9c1.8 3.6 4.5 6.3 8 8.2C28.6 61 32.8 62 37.5 62c0 0 8.7 6.6 12.1 9 .1.1.3.1.4.1h.1c.1 0 .1-.1.2-.1 2.7-1.6 5.3-2.9 8.5-3.7 0-.2-.3-.3-.8-.5-2.8.6-5.8 1.9-8.5 3.5-3.1-2.5-6.2-4.9-9.5-7.2l-2.6-1.9c-4.6 0-8.7-.9-12.2-2.6-3.4-1.8-6.2-4.3-8.1-7.7"/>
        <path fill="#C12325" d="M17.1 50.9c1.8 3.6 4.5 6.3 8 8.2C28.6 61 32.8 62 37.5 62c0 0 8.7 6.6 12.1 9 .1.1.3.1.4.1h.1c.1 0 .1-.1.2-.1 2.7-1.6 5.3-3 8.5-3.7 0-.2-.3-.3-.8-.5-2.8.6-5.8 1.9-8.5 3.5-3.1-2.5-6.2-4.9-9.5-7.2l-2.6-1.9c-4.6 0-8.7-.9-12.2-2.6-3.4-1.8-6.2-4.4-8.1-7.7"/>
        <path fill="#C02325" d="M17.1 50.9c1.8 3.6 4.5 6.3 8 8.2C28.6 61 32.8 62 37.5 62c0 0 8.7 6.6 12.1 9 .1.1.3.1.4.1h.1c.1 0 .1-.1.2-.1 2.7-1.6 5.3-3 8.5-3.7 0-.2-.3-.3-.8-.5-2.8.6-5.8 1.9-8.5 3.5-3.1-2.5-6.2-4.9-9.5-7.2l-2.6-1.9c-4.6 0-8.7-.9-12.2-2.6-3.4-1.8-6.2-4.4-8.1-7.7"/>
        <path fill="#BF2325" d="M17.1 50.9c1.8 3.6 4.5 6.3 8 8.2C28.6 61 32.8 62 37.5 62c0 0 8.7 6.5 12.1 9 .1.1.3.1.4.1h.1s.1-.1.2-.1c2.7-1.6 5.3-3 8.5-3.7 0-.2-.3-.3-.8-.5-2.8.6-5.8 1.9-8.5 3.5-3.1-2.5-6.2-4.9-9.5-7.2l-2.6-1.9c-4.6 0-8.7-.9-12.2-2.6-3.4-1.8-6.2-4.4-8.1-7.7"/>
        <path fill="#BE2325" d="M17.1 50.9c1.8 3.6 4.5 6.3 8 8.2 3.5 1.9 7.7 2.8 12.4 2.8 0 0 8.7 6.5 12.1 9 .1.1.3.1.4.1h.1s.1-.1.2-.1c2.7-1.6 5.3-3 8.5-3.7 0-.2-.3-.3-.8-.5-2.8.6-5.8 1.9-8.5 3.5-3.1-2.5-6.2-4.9-9.5-7.2l-2.6-1.9c-4.6 0-8.7-.9-12.2-2.6-3.4-1.7-6.2-4.3-8.1-7.6"/>
        <path fill="#BD2324" d="M17.1 50.9c1.8 3.6 4.5 6.3 8 8.2 3.5 1.9 7.7 2.8 12.4 2.8 0 0 8.7 6.5 12.1 9 .1.1.3.1.4.1h.1c.1 0 .1-.1.2-.1 2.7-1.6 5.3-3 8.5-3.7 0-.2-.3-.3-.8-.4-2.8.6-5.8 1.9-8.5 3.5-3.1-2.5-6.2-4.9-9.5-7.2l-2.6-1.9c-4.6 0-8.7-.9-12.2-2.6-3.4-1.8-6.2-4.4-8.1-7.7"/>
        <path fill="#BC2324" d="M17.1 50.9c1.8 3.6 4.5 6.3 8 8.2 3.5 1.9 7.7 2.8 12.4 2.8 0 0 8.7 6.5 12.1 9 .1.1.3.1.4.1h.1c.1 0 .1-.1.2-.1 2.7-1.6 5.3-3 8.5-3.7 0-.2-.3-.3-.8-.4-2.8.6-5.8 1.9-8.5 3.5-3.1-2.5-6.2-4.9-9.5-7.2l-2.6-1.9c-4.6 0-8.7-.9-12.2-2.6-3.4-1.8-6.2-4.4-8.1-7.7"/>
        <path fill="#BB2324" d="M17.1 50.9c1.8 3.6 4.5 6.3 8 8.2 3.5 1.9 7.7 2.8 12.4 2.8 0 0 8.7 6.5 12.1 9 .1.1.3.1.4.1h.1c.1 0 .1-.1.2-.1 2.7-1.6 5.3-3 8.5-3.7 0-.2-.3-.3-.8-.4-2.8.6-5.8 1.9-8.5 3.5-3.1-2.5-6.2-4.9-9.5-7.2l-2.6-1.9c-4.6 0-8.7-.9-12.2-2.6-3.4-1.8-6.2-4.4-8.1-7.7"/>
        <path fill="#BA2324" d="M17.1 50.9c1.8 3.6 4.5 6.3 8 8.2 3.5 1.9 7.7 2.8 12.4 2.8 0 0 8.7 6.5 12.1 9 .1.1.3.1.4.1h.1s.1-.1.2-.1c2.7-1.6 5.3-3 8.5-3.7 0-.2-.4-.2-.8-.4-2.8.6-5.8 1.9-8.5 3.5-3.1-2.5-6.2-4.9-9.5-7.2l-2.6-1.9c-4.6 0-8.7-.9-12.2-2.6-3.4-1.8-6.2-4.4-8.1-7.7"/>
        <path fill="#B92324" d="M17.1 50.9c1.8 3.6 4.5 6.3 8 8.2 3.5 1.9 7.7 2.8 12.4 2.8 0 0 8.7 6.5 12.1 9 .1.1.3.1.4.1h.1s.1-.1.2-.1c2.7-1.6 5.3-3 8.5-3.7 0-.2-.4-.2-.8-.4-2.8.6-5.8 1.9-8.5 3.5-3.1-2.5-6.2-4.9-9.5-7.2l-2.6-1.9c-4.6 0-8.7-.9-12.2-2.6-3.4-1.8-6.2-4.4-8.1-7.7"/>
        <path fill="#B82324" d="M17.1 50.9c1.8 3.6 4.5 6.3 8 8.2 3.5 1.9 7.7 2.8 12.4 2.8 0 0 8.7 6.5 12.1 9 .1.1.3.1.4.1h.1s.1-.1.2-.1c2.7-1.6 5.3-3 8.5-3.7 0-.2-.4-.2-.8-.4-2.8.6-5.8 1.9-8.4 3.5-3.1-2.5-6.2-4.9-9.5-7.2l-2.6-1.9c-4.6 0-8.7-.9-12.2-2.6-3.5-1.8-6.3-4.4-8.2-7.7"/>
        <path fill="#B72324" d="M17.1 50.9c1.8 3.6 4.5 6.3 8 8.2 3.5 1.9 7.7 2.8 12.4 2.8 0 0 8.7 6.5 12.1 9 .1.1.3.1.4.1h.1c.1 0 .1-.1.2-.1 2.7-1.6 5.3-3 8.5-3.7 0-.2-.4-.2-.8-.4-2.8.6-5.8 1.9-8.4 3.5-3.1-2.5-6.2-4.9-9.5-7.2l-2.6-1.9c-4.6 0-8.7-.9-12.2-2.6-3.5-1.8-6.3-4.4-8.2-7.7"/>
        <path fill="#B52324" d="M17.1 50.9c1.8 3.6 4.5 6.3 8 8.2 3.5 1.9 7.7 2.8 12.4 2.8 0 0 8.7 6.5 12.1 9 .1.1.3.1.4.1h.1c.1 0 .1-.1.2-.1 2.7-1.6 5.3-3 8.5-3.7 0-.2-.4-.2-.8-.4-2.8.6-5.7 1.9-8.4 3.5-3.1-2.5-6.2-4.9-9.5-7.2l-2.6-1.9c-4.6 0-8.7-.9-12.2-2.6-3.5-1.8-6.3-4.4-8.2-7.7"/>
        <path fill="#B52324" d="M17.1 50.9c1.8 3.6 4.5 6.3 8 8.2 3.5 1.9 7.7 2.8 12.4 2.8 0 0 8.7 6.5 12.1 9 .1.1.3.1.4.1h.1c.1 0 .1-.1.2-.1 2.7-1.6 5.3-3 8.5-3.7 0-.2-.4-.2-.8-.4-2.8.7-5.7 1.9-8.4 3.5-3.1-2.5-6.2-4.9-9.5-7.2l-2.6-1.9c-4.6 0-8.7-.9-12.2-2.6-3.6-1.8-6.3-4.4-8.2-7.7"/>
        <path fill="#B42324" d="M17.1 50.9c1.8 3.6 4.5 6.3 8 8.2 3.5 1.9 7.7 2.8 12.4 2.8 0 0 8.7 6.5 12.1 9 .1.1.3.1.4.1h.1c.1 0 .1-.1.2-.1 2.7-1.6 5.3-3 8.5-3.7 0-.2-.4-.2-.8-.4-2.8.7-5.7 1.9-8.4 3.5-3.1-2.5-6.2-4.9-9.5-7.2l-2.6-1.9c-4.6 0-8.7-.9-12.2-2.6-3.6-1.8-6.3-4.4-8.2-7.7"/>
        <path fill="#B32324" d="M17.1 50.9c1.8 3.6 4.5 6.3 8 8.2 3.5 1.9 7.7 2.8 12.4 2.8 0 0 8.7 6.5 12.1 9 .1.1.3.1.4.1h.1c.1 0 .1-.1.2-.1 2.7-1.6 5.3-3 8.5-3.7 0-.2-.4-.2-.8-.4-2.8.7-5.7 1.9-8.4 3.5-3.1-2.5-6.2-4.9-9.5-7.2l-2.6-1.9c-4.6 0-8.7-.9-12.2-2.6-3.6-1.8-6.3-4.4-8.2-7.7"/>
        <path fill="#B22223" d="M17.1 50.9c1.8 3.6 4.5 6.3 8 8.2 3.5 1.9 7.7 2.8 12.4 2.8 0 0 8.7 6.5 12.1 9 .1.1.3.1.4.1h.1c.1 0 .1-.1.2-.1 2.7-1.6 5.3-3 8.5-3.7-.1-.2-.4-.2-.8-.4-2.8.6-5.7 1.9-8.4 3.5-3.1-2.5-6.2-4.9-9.5-7.2l-2.6-1.9c-4.6 0-8.7-.9-12.2-2.6-3.6-1.8-6.3-4.4-8.2-7.7"/>
        <path fill="#B02223" d="M17.1 50.9c1.8 3.6 4.5 6.3 8 8.2 3.5 1.9 7.7 2.8 12.4 2.8 0 0 8.7 6.5 12.1 9 .1.1.3.1.4.2h.1c.1 0 .1-.1.2-.1 2.7-1.6 5.3-3 8.5-3.7-.1-.2-.4-.2-.8-.4-2.8.6-5.7 1.9-8.4 3.5-3.1-2.5-6.2-4.9-9.5-7.2l-2.6-1.9c-4.6 0-8.7-.9-12.2-2.6-3.6-1.9-6.3-4.5-8.2-7.8"/>
        <path fill="#AF2223" d="M17.1 50.9c1.8 3.6 4.5 6.3 8 8.2 3.5 1.9 7.7 2.8 12.4 2.8 0 0 8.7 6.5 12.1 9 .1.1.3.1.4.1h.1c.1 0 .1-.1.2-.1 2.7-1.6 5.3-3 8.5-3.7-.1-.2-.4-.2-.8-.4-2.9.6-5.7 1.9-8.4 3.5-3.1-2.5-6.2-4.9-9.5-7.2l-2.6-1.9c-4.6 0-8.7-.9-12.2-2.6-3.6-1.8-6.3-4.4-8.2-7.7"/>
        <path fill="#AE2223" d="M17.1 50.8c1.8 3.6 4.5 6.3 8 8.2 3.5 1.9 7.7 2.8 12.4 2.8 0 0 8.7 6.5 12.1 9 .1.1.3.1.4.2h.1c.1 0 .1-.1.2-.1 2.7-1.6 5.3-3 8.5-3.7-.1-.2-.4-.2-.8-.4-2.8.7-5.7 1.9-8.4 3.5-3.1-2.5-6.2-4.9-9.5-7.2l-2.6-1.9c-4.6 0-8.7-.9-12.2-2.6-3.6-1.8-6.3-4.4-8.2-7.8"/>
        <path fill="#AD2223" d="M17.1 50.8c1.8 3.6 4.5 6.3 8 8.2 3.5 1.9 7.7 2.8 12.4 2.8 0 0 8.7 6.5 12.1 9 .1.1.3.1.4.2h.1s.1-.1.2-.1c2.7-1.6 5.3-3 8.5-3.7-.1-.2-.4-.2-.8-.4-2.8.7-5.7 1.9-8.4 3.5-3.1-2.5-6.2-4.9-9.5-7.2l-2.6-1.9c-4.6 0-8.7-.9-12.2-2.6-3.6-1.8-6.3-4.4-8.2-7.8"/>
        <path fill="#AD2223" d="M17.1 50.8c1.8 3.6 4.5 6.3 8 8.2 3.5 1.9 7.7 2.8 12.4 2.8 0 0 8.7 6.5 12.1 9 .1.1.2.1.4.2h.1c.1 0 .1-.1.2-.1 2.7-1.6 5.3-3 8.5-3.7-.1-.2-.4-.2-.8-.4-2.8.7-5.7 1.8-8.4 3.4-3.1-2.5-6.2-4.9-9.5-7.2l-2.6-1.9c-4.6 0-8.7-.9-12.2-2.6-3.6-1.7-6.3-4.3-8.2-7.7"/>
        <path fill="#AB2223" d="M17.1 50.8c1.8 3.6 4.5 6.3 8 8.2 3.5 1.9 7.7 2.8 12.5 2.8 0 0 8.7 6.5 12.1 9 .1.1.3.1.4.2h.1c.1 0 .1-.1.2-.1 2.7-1.6 5.3-3 8.5-3.7-.1-.2-.4-.2-.8-.4-2.8.6-5.7 1.8-8.4 3.4-3.1-2.5-6.2-4.9-9.5-7.2l-2.6-1.9c-4.6 0-8.7-.9-12.2-2.7-3.7-1.7-6.4-4.2-8.3-7.6"/>
        <path fill="#AA2223" d="M17.1 50.8c1.8 3.6 4.5 6.3 8 8.2 3.5 1.9 7.7 2.8 12.5 2.8 0 0 8.7 6.5 12.1 9 .1.1.2.1.4.2h.1c.1 0 .1-.1.2-.1 2.7-1.6 5.3-3 8.4-3.7-.1-.2-.4-.2-.8-.3-2.8.6-5.7 1.8-8.4 3.4-3.1-2.5-6.2-4.9-9.5-7.2l-2.6-1.9c-4.6 0-8.7-.9-12.2-2.7-3.6-1.8-6.3-4.3-8.2-7.7"/>
        <path fill="#A92223" d="M17.1 50.8c1.8 3.6 4.5 6.3 8 8.2 3.5 1.9 7.7 2.8 12.5 2.8 0 0 8.7 6.5 12.1 9 .1.1.2.1.4.2h.1c.1 0 .1-.1.2-.1 2.7-1.6 5.3-3 8.4-3.7-.1-.2-.4-.2-.8-.3-2.8.6-5.7 1.8-8.4 3.4-3.1-2.5-6.2-4.9-9.5-7.2l-2.6-1.9c-4.6 0-8.7-.9-12.2-2.7-3.6-1.8-6.3-4.3-8.2-7.7"/>
        <path fill="#A82222" d="M17.1 50.8c1.8 3.6 4.5 6.3 8 8.2 3.5 1.9 7.7 2.8 12.5 2.8 0 0 8.7 6.5 12.1 9 .1.1.2.1.4.2 0 0 .1 0 .1-.1.1 0 .1-.1.2-.1 2.7-1.6 5.3-3 8.4-3.7-.1-.2-.4-.2-.8-.3-2.8.7-5.7 1.8-8.4 3.4-3.1-2.5-6.2-4.9-9.5-7.2l-2.6-1.9c-4.6 0-8.7-.9-12.2-2.7-3.6-1.7-6.3-4.2-8.2-7.6"/>
        <path fill="#A72222" d="M17.1 50.8c1.8 3.6 4.5 6.3 8 8.2 3.5 1.9 7.7 2.8 12.5 2.8 0 0 8.7 6.5 12.1 9 .1.1.2.1.4.2h.1c.1 0 .1-.1.2-.1 2.7-1.6 5.3-3 8.4-3.7-.1-.2-.4-.2-.8-.3-2.8.7-5.7 1.8-8.4 3.4-3.1-2.5-6.2-4.9-9.5-7.2l-2.6-1.9c-4.6 0-8.7-.9-12.2-2.6-3.6-1.9-6.3-4.4-8.2-7.8"/>
        <path fill="#A62122" d="M17.1 50.8c1.8 3.6 4.5 6.3 8 8.2 3.5 1.9 7.7 2.8 12.5 2.8 0 0 8.7 6.5 12.1 9 .1.1.2.1.4.2h.1c.1 0 .1-.1.2-.1 2.7-1.6 5.3-3 8.4-3.7-.1-.2-.4-.2-.8-.3-2.8.7-5.7 1.8-8.4 3.4-3.1-2.5-6.2-4.9-9.5-7.2l-2.6-1.9c-4.6 0-8.7-.9-12.2-2.6-3.6-1.9-6.3-4.4-8.2-7.8"/>
        <path fill="#A52222" d="M17.1 50.8c1.8 3.6 4.5 6.3 8 8.2 3.5 1.9 7.7 2.8 12.5 2.8 0 0 8.7 6.5 12.1 9 .1.1.2.1.4.2h.1s.1-.1.2-.1c2.8-1.6 5.4-3 8.4-3.7-.1-.2-.4-.1-.8-.3-2.8.6-5.7 1.8-8.4 3.4-3.1-2.5-6.2-4.9-9.5-7.2l-2.6-1.9c-4.6 0-8.7-.9-12.2-2.6-3.6-1.9-6.3-4.4-8.2-7.8"/>
        <path fill="#A42122" d="M17.1 50.8c1.8 3.6 4.5 6.3 8 8.2 3.5 1.9 7.7 2.8 12.5 2.8 0 0 8.7 6.5 12.1 9 .1.1.2.1.4.2h.1s.1-.1.2-.1c2.8-1.6 5.3-3 8.4-3.7-.1-.2-.4-.1-.8-.3-2.8.6-5.7 1.8-8.4 3.4-3.1-2.5-6.2-4.9-9.5-7.2l-2.6-1.9c-4.6 0-8.7-.9-12.2-2.6-3.6-1.9-6.3-4.4-8.2-7.8"/>
        <path fill="#A32122" d="M17.1 50.8c1.8 3.6 4.5 6.3 8 8.2 3.5 1.9 7.7 2.8 12.5 2.8 0 0 8.7 6.5 12.1 9 .1.1.2.1.4.2 0 0 .1 0 .1-.1 0 0 .1-.1.2-.1 2.8-1.6 5.3-3 8.4-3.7-.1-.2-.4-.1-.8-.3-2.8.7-5.7 1.8-8.4 3.4-3.1-2.5-6.2-4.9-9.5-7.2l-2.6-1.9c-4.6 0-8.7-.9-12.2-2.6-3.6-1.8-6.3-4.4-8.2-7.7"/>
        <path fill="#A22122" d="M17.1 50.8c1.8 3.6 4.5 6.3 8 8.2 3.5 1.9 7.7 2.8 12.5 2.8 0 0 8.7 6.5 12.1 9 .1.1.2.1.4.2h.1c.1 0 .1-.1.2-.1 2.8-1.6 5.3-3 8.4-3.7-.1-.2-.4-.1-.8-.3-2.8.7-5.7 1.8-8.3 3.4-3.1-2.5-6.2-4.9-9.5-7.2l-2.6-1.9c-4.6 0-8.7-.9-12.2-2.6-3.7-1.9-6.4-4.5-8.3-7.8"/>
        <path fill="#A12122" d="M17.1 50.8c1.8 3.6 4.5 6.3 8 8.2 3.5 1.9 7.7 2.8 12.5 2.8 0 0 8.7 6.5 12.1 9 .1.1.2.1.4.2 0 0 .1 0 .1-.1.1 0 .1-.1.2-.1 2.8-1.6 5.4-3 8.4-3.7-.2-.2-.4-.1-.8-.3-2.8.6-5.7 1.8-8.3 3.4-3.1-2.5-6.2-4.9-9.5-7.2l-2.6-1.9c-4.6 0-8.7-.9-12.2-2.6-3.7-1.8-6.4-4.4-8.3-7.7"/>
        <path fill="#A12121" d="M17.1 50.8c1.8 3.6 4.5 6.3 8 8.2 3.5 1.9 7.7 2.8 12.5 2.8 0 0 8.7 6.5 12.1 9 .1.1.2.1.4.2 0 0 .1 0 .1-.1.1 0 .1-.1.2-.1 2.8-1.6 5.4-3 8.4-3.7-.2-.2-.4-.1-.8-.3-2.9.6-5.7 1.8-8.3 3.4-3.1-2.5-6.2-4.9-9.5-7.2l-2.6-1.9c-4.6 0-8.7-.9-12.2-2.6-3.7-1.8-6.4-4.4-8.3-7.7"/>
        <path fill="#9F2121" d="M17.1 50.8c1.8 3.6 4.5 6.3 8 8.2 3.5 1.9 7.7 2.8 12.5 2.8 0 0 8.7 6.5 12.1 9 .1.1.2.1.4.2h.1c.1 0 .1-.1.2-.1 2.8-1.6 5.4-3 8.4-3.7-.2-.2-.4-.1-.8-.3-2.8.6-5.6 1.8-8.3 3.4-3.1-2.5-6.2-4.9-9.5-7.2l-2.6-1.9c-4.6 0-8.7-.9-12.2-2.6-3.7-1.9-6.4-4.5-8.3-7.8"/>
        <path fill="#9E2121" d="M17.1 50.8c1.8 3.6 4.5 6.3 8 8.2 3.5 1.9 7.7 2.8 12.5 2.8 0 0 8.7 6.5 12.1 9 .1.1.2.1.4.2 0 0 .1 0 .1-.1.1 0 .1-.1.2-.1 2.8-1.6 5.4-3 8.4-3.7-.2-.2-.4-.1-.8-.3-2.8.6-5.6 1.8-8.3 3.4-3.1-2.5-6.2-4.9-9.5-7.2l-2.6-1.9c-4.6 0-8.7-.9-12.2-2.6-3.7-1.8-6.4-4.4-8.3-7.7"/>
        <path fill="#9D2121" d="M17.1 50.8c1.8 3.6 4.5 6.3 8 8.2 3.5 1.9 7.7 2.8 12.5 2.8 0 0 8.7 6.5 12.1 9 .1.1.2.1.4.2h.1c.1 0 .1-.1.2-.1 2.8-1.6 5.4-3.1 8.4-3.7-.2-.2-.5-.1-.8-.3-2.9.7-5.6 1.8-8.3 3.4-3.1-2.5-6.2-4.9-9.5-7.2l-2.6-1.9c-4.6 0-8.7-.9-12.2-2.6-3.7-1.9-6.4-4.5-8.3-7.8"/>
        <path fill="#9C2121" d="M17.1 50.8c1.8 3.6 4.5 6.3 8 8.2 3.5 1.9 7.7 2.8 12.5 2.8 0 0 8.7 6.5 12.1 9 .1.1.2.1.4.2h.1c.1 0 .1-.1.2-.1 2.8-1.6 5.4-3.1 8.4-3.7-.2-.2-.5-.1-.8-.3-2.8.7-5.6 1.8-8.3 3.4-3.1-2.5-6.2-4.9-9.5-7.2l-2.6-1.9c-4.6 0-8.7-.9-12.2-2.6-3.7-1.9-6.4-4.5-8.3-7.8"/>
        <path fill="#9B2121" d="M17.1 50.8c1.8 3.6 4.5 6.3 8 8.2 3.5 1.9 7.7 2.8 12.5 2.8 0 0 8.7 6.5 12.1 9 .1.1.2.1.4.2 0 0 .1 0 .1-.1 0 0 .1-.1.2-.1 2.8-1.6 5.4-3.1 8.4-3.7-.2-.2-.5-.1-.8-.3-2.8.6-5.6 1.8-8.3 3.4-3.1-2.5-6.2-4.9-9.5-7.2l-2.6-1.9c-4.6 0-8.7-.9-12.2-2.6-3.7-1.8-6.4-4.4-8.3-7.7"/>
        <path fill="#9B2021" d="M17.1 50.8c1.8 3.6 4.5 6.3 8 8.2 3.5 1.9 7.7 2.8 12.5 2.8 0 0 8.7 6.5 12.1 9 .1.1.2.1.3.2 0 0 .1 0 .1-.1.1 0 .1-.1.2-.1 2.8-1.6 5.4-3.1 8.4-3.7-.2-.2-.5-.1-.8-.3-2.8.6-5.6 1.8-8.3 3.4-3.1-2.5-6.2-4.9-9.5-7.2l-2.6-1.9c-4.6 0-8.7-.9-12.2-2.6-3.6-1.8-6.3-4.4-8.2-7.7"/>
        <path fill="#992021" d="M17.1 50.8c1.8 3.6 4.5 6.3 8 8.2 3.5 1.9 7.7 2.8 12.5 2.8 0 0 8.7 6.5 12.1 9 .1.1.2.1.3.2 0 0 .1 0 .1-.1.1 0 .1-.1.2-.1 2.8-1.6 5.4-3.1 8.4-3.7-.2-.2-.5-.1-.8-.3-2.8.6-5.6 1.8-8.3 3.4-3.1-2.5-6.2-4.9-9.5-7.2l-2.6-1.9c-4.6 0-8.7-.9-12.2-2.6-3.6-1.8-6.3-4.4-8.2-7.7"/>
        <path fill="#992020" d="M17.1 50.8c1.8 3.6 4.5 6.3 8 8.2 3.5 1.9 7.7 2.8 12.5 2.8 0 0 8.7 6.5 12.1 8.9.1.1.2.1.3.2 0 0 .1 0 .1-.1.1 0 .1-.1.2-.1 2.8-1.6 5.4-3.1 8.4-3.7-.2-.2-.5-.1-.8-.2-2.8.6-5.6 1.8-8.3 3.4-3.1-2.5-6.2-4.9-9.5-7.2l-2.6-1.9c-4.6 0-8.7-.9-12.2-2.6-3.6-1.8-6.3-4.4-8.2-7.7"/>
        <path fill="#982020" d="M17.1 50.8c1.8 3.6 4.5 6.3 8 8.2 3.5 1.9 7.7 2.8 12.5 2.8 0 0 8.7 6.5 12.1 8.9.1.1.2.1.3.2 0 0 .1 0 .1-.1.1 0 .1-.1.2-.1 2.8-1.6 5.4-3.1 8.4-3.7-.2-.2-.5-.1-.8-.2-2.8.7-5.6 1.8-8.3 3.4-3.1-2.5-6.2-4.9-9.5-7.2l-2.6-1.9c-4.6 0-8.7-.9-12.2-2.6-3.6-1.8-6.3-4.4-8.2-7.7"/>
        <path fill="#962020" d="M17.1 50.8c1.8 3.6 4.5 6.3 8 8.2 3.5 1.9 7.7 2.8 12.5 2.8 0 0 8.7 6.5 12.1 8.9.1.1.2.1.3.2 0 0 .1 0 .1-.1.1 0 .1-.1.2-.1 2.8-1.6 5.4-3.1 8.4-3.7-.2-.2-.5-.1-.8-.2-2.8.7-5.6 1.8-8.3 3.4-3.1-2.5-6.2-4.9-9.5-7.2l-2.6-1.9c-4.6 0-8.7-.9-12.2-2.6-3.6-1.8-6.3-4.4-8.2-7.7"/>
        <path fill="#962020" d="M17.1 50.8c1.8 3.6 4.5 6.3 8 8.2 3.5 1.9 7.7 2.8 12.5 2.8 0 0 8.7 6.5 12.1 8.9.1.1.2.1.3.2 0 0 .1 0 .1-.1.1 0 .1-.1.2-.1 2.8-1.6 5.4-3.1 8.4-3.7-.2-.2-.5-.1-.8-.2-2.8.7-5.6 1.8-8.3 3.4-3.1-2.5-6.2-4.9-9.5-7.2l-2.6-1.9c-4.6 0-8.7-.9-12.2-2.6-3.6-1.8-6.3-4.4-8.2-7.7"/>
        <path fill="#942020" d="M17.1 50.8c1.8 3.6 4.5 6.3 8 8.2 3.5 1.9 7.7 2.8 12.5 2.8 0 0 8.7 6.5 12.1 8.9.1.1.2.1.3.2 0 0 .1 0 .1-.1.1 0 .1-.1.2-.1 2.8-1.6 5.4-3.1 8.4-3.7-.2-.2-.5-.1-.8-.2-2.8.6-5.6 1.8-8.3 3.4-3.1-2.5-6.2-4.9-9.5-7.2l-2.6-1.9c-4.6 0-8.7-.9-12.2-2.6-3.6-1.8-6.3-4.4-8.2-7.7"/>
        <path fill="#942020" d="M17.1 50.8c1.8 3.6 4.5 6.3 8 8.2 3.5 1.9 7.7 2.8 12.5 2.8 0 0 8.7 6.5 12.1 8.9.1.1.2.1.3.2 0 0 .1 0 .1-.1.1 0 .1-.1.2-.1 2.8-1.6 5.4-3.1 8.4-3.7-.2-.2-.5-.1-.8-.2-2.9.6-5.6 1.8-8.3 3.4-3.1-2.5-6.2-4.9-9.5-7.2l-2.6-1.9c-4.6 0-8.7-.9-12.2-2.6-3.6-1.8-6.3-4.4-8.2-7.7"/>
        <path fill="#932020" d="M17.1 50.8c1.8 3.6 4.5 6.3 8 8.2 3.5 1.8 7.7 2.8 12.5 2.8 0 0 8.7 6.5 12.1 8.9.1.1.2.2.3.2 0 0 .1 0 .1-.1.1 0 .1-.1.2-.1 2.8-1.6 5.4-3.1 8.4-3.7-.3-.2-.5 0-.8-.2-2.8.6-5.6 1.8-8.3 3.4-3.1-2.5-6.2-4.9-9.5-7.2l-2.6-1.9c-4.6 0-8.7-.9-12.2-2.6-3.6-1.8-6.4-4.4-8.2-7.7"/>
        <path fill="#921F1F" d="M17.1 50.7c1.8 3.6 4.5 6.3 8 8.2 3.5 1.9 7.7 2.8 12.5 2.8 0 0 8.7 6.5 12.1 8.9.1.1.2.2.3.2 0 0 .1 0 .1-.1 0 0 .1-.1.2-.1 2.8-1.6 5.4-3.1 8.4-3.7-.3-.2-.5 0-.8-.2-2.8.6-5.6 1.8-8.3 3.4-3.1-2.5-6.2-4.9-9.5-7.2L37.5 61c-4.6 0-8.7-.9-12.2-2.6-3.6-1.7-6.4-4.3-8.2-7.7"/>
        <path fill="#911F1F" d="M17.1 50.7c1.8 3.6 4.5 6.3 8 8.2 3.5 1.9 7.7 2.8 12.5 2.8 0 0 8.7 6.5 12.1 8.9.1.1.2.2.3.2 0 0 .1 0 .1-.1 0 0 .1-.1.2-.1 2.8-1.6 5.4-3.1 8.4-3.7-.3-.2-.5 0-.8-.2-2.8.6-5.6 1.8-8.3 3.4-3.1-2.5-6.2-4.9-9.5-7.2L37.3 61c-4.6 0-8.7-.9-12.2-2.6-3.4-1.7-6.2-4.3-8-7.7"/>
        <path fill="#901F1F" d="M17.1 50.7c1.8 3.6 4.5 6.3 8 8.2 3.5 1.8 7.7 2.8 12.5 2.8 0 0 8.7 6.5 12.1 8.9.1.1.2.2.3.2 0 0 .1 0 .1-.1.1 0 .1-.1.2-.1 2.8-1.6 5.4-3.1 8.4-3.7-.3-.2-.5 0-.8-.2-2.9.6-5.6 1.8-8.3 3.4-3.1-2.5-6.2-4.9-9.5-7.2L37.3 61c-4.6 0-8.7-.9-12.2-2.6-3.4-1.7-6.2-4.3-8-7.7"/>
        <path fill="#8F1F1F" d="M17.1 50.7c1.8 3.6 4.5 6.3 8 8.2 3.5 1.8 7.7 2.8 12.5 2.8 0 0 8.7 6.5 12.1 8.9.1.1.2.2.3.2 0 0 .1 0 .1-.1.1 0 .1-.1.2-.1 2.8-1.6 5.4-3.1 8.4-3.7-.3-.2-.5 0-.8-.2-2.8.6-5.6 1.8-8.3 3.4-3.1-2.5-6.2-4.9-9.5-7.2L37.3 61c-4.6 0-8.7-.9-12.2-2.6-3.4-1.7-6.2-4.3-8-7.7"/>
        <path fill="#8E1F1F" d="M17.1 50.7c1.8 3.6 4.5 6.3 8 8.2 3.5 1.8 7.7 2.8 12.5 2.8l12.1 8.9c.1.1.2.2.3.2 0 0 .1 0 .1-.1.1 0 .1-.1.2-.1 2.8-1.6 5.4-3.1 8.4-3.7-.3-.2-.5 0-.8-.2-2.8.6-5.6 1.8-8.3 3.4-3.1-2.5-6.2-4.9-9.5-7.2L37.3 61c-4.6 0-8.7-.9-12.2-2.6-3.4-1.8-6.2-4.3-8-7.7"/>
        <path fill="#8D1F1F" d="M17.1 50.7c1.8 3.6 4.5 6.3 8 8.2 3.5 1.8 7.7 2.8 12.5 2.8l12.1 8.9c.1.1.2.2.3.2 0 0 .1 0 .1-.1.1 0 .1-.1.2-.1 2.8-1.6 5.4-3.1 8.4-3.7-.3-.2-.5 0-.8-.2-2.8.6-5.6 1.8-8.2 3.4-3.1-2.5-6.2-4.9-9.5-7.2L37.3 61c-4.6 0-8.7-.9-12.2-2.6-3.4-1.8-6.2-4.3-8-7.7"/>
        <path fill="#8C1E1E" d="M17.1 50.7c1.8 3.6 4.5 6.3 8 8.2 3.5 1.8 7.7 2.8 12.5 2.8l12.1 8.9c.1.1.2.2.3.2 0 0 .1 0 .1-.1.1 0 .1-.1.2-.1 2.8-1.6 5.4-3.1 8.4-3.7-.3-.2-.5 0-.8-.2-2.8.6-5.6 1.8-8.2 3.4-3.1-2.5-6.2-4.9-9.5-7.2L37.3 61c-4.6 0-8.7-.9-12.2-2.6-3.4-1.8-6.2-4.3-8-7.7"/>
        <path fill="#8B1E1E" d="M17.1 50.7c1.8 3.6 4.5 6.3 8 8.2 3.5 1.8 7.7 2.8 12.5 2.8l12.1 8.9c.1.1.2.2.3.2 0 0 .1 0 .1-.1.1 0 .1-.1.2-.1 2.8-1.7 5.4-3.1 8.4-3.7-.3-.2-.5 0-.8-.2-2.8.6-5.6 1.7-8.2 3.4-3.1-2.5-6.2-4.9-9.5-7.2L37.3 61c-4.6 0-8.7-.9-12.2-2.6-3.4-1.8-6.2-4.3-8-7.7"/>
        <path fill="#8A1E1E" d="M17.1 50.7c1.8 3.6 4.5 6.3 8 8.2 3.5 1.8 7.7 2.8 12.5 2.8l12.1 8.9c.1.1.2.2.3.2 0 0 .1 0 .1-.1.1 0 .1-.1.2-.1 2.8-1.6 5.4-3.1 8.3-3.7-.3-.2-.5 0-.8-.2-2.8.6-5.5 1.7-8.2 3.3-3.1-2.5-6.2-4.9-9.5-7.2L37.3 61c-4.6 0-8.7-.9-12.2-2.6-3.4-1.8-6.2-4.3-8-7.7"/>
        <path fill="#891E1E" d="M17.1 50.7c1.8 3.6 4.5 6.3 8 8.2 3.5 1.8 7.7 2.8 12.5 2.8l12.1 8.9c.1.1.2.2.3.2 0 0 .1 0 .1-.1.1 0 .1-.1.2-.1 2.8-1.6 5.4-3.1 8.3-3.7-.3-.2-.5 0-.8-.2-2.9.6-5.5 1.7-8.2 3.3-3.1-2.5-6.2-4.9-9.5-7.2L37.3 61c-4.6 0-8.7-.9-12.2-2.6-3.4-1.8-6.2-4.3-8-7.7"/>
        <path fill="#881E1E" d="M17 50.7c1.8 3.6 4.5 6.3 8 8.2 3.5 1.8 7.7 2.8 12.5 2.8l12.1 8.9c.1.1.2.2.3.2 0 0 .1 0 .1-.1.1 0 .1-.1.2-.1 2.8-1.6 5.4-3.1 8.3-3.7-.3-.2-.5 0-.8-.2-2.8.6-5.5 1.7-8.2 3.3-3.1-2.5-6.2-4.9-9.5-7.2L37.3 61c-4.6 0-8.7-.9-12.2-2.6-3.4-1.8-6.2-4.4-8.1-7.7"/>
        <path fill="#871E1E" d="M17 50.7c1.8 3.6 4.5 6.3 8 8.2 3.5 1.8 7.7 2.8 12.5 2.8l12.1 8.9c.1.1.2.2.3.2 0 0 .1 0 .1-.1.1 0 .1-.1.2-.1 2.8-1.7 5.4-3.1 8.3-3.7-.3-.2-.5 0-.9-.2-2.8.6-5.5 1.7-8.2 3.3-3.1-2.5-6.2-4.9-9.5-7.2L37.3 61c-4.6 0-8.7-.9-12.2-2.6-3.4-1.8-6.2-4.4-8.1-7.7"/>
        <path fill="#861D1E" d="M17 50.7c1.8 3.6 4.5 6.3 8 8.2 3.5 1.8 7.7 2.8 12.5 2.8l12.1 8.9c.1.1.2.2.3.2 0 0 .1 0 .1-.1.1 0 .1-.1.2-.1 2.8-1.6 5.4-3.1 8.3-3.7-.3-.2-.5 0-.9-.1-2.8.6-5.5 1.7-8.2 3.3-3.1-2.5-6.2-4.9-9.5-7.2L37.3 61c-4.6 0-8.7-.9-12.2-2.6-3.4-1.8-6.2-4.4-8.1-7.7"/>
        <path fill="#851D1D" d="M17 50.7c1.8 3.6 4.5 6.3 8 8.2 3.5 1.8 7.7 2.8 12.5 2.8l12.1 8.9c.1.1.2.2.3.2 0 0 .1 0 .1-.1 0 0 .1-.1.2-.1 2.8-1.6 5.4-3.1 8.3-3.7-.3-.2-.5 0-.9-.1-2.9.6-5.5 1.7-8.2 3.3-3.1-2.5-6.2-4.9-9.5-7.2L37.3 61c-4.6 0-8.7-.9-12.2-2.6-3.4-1.8-6.2-4.4-8.1-7.7"/>
        <path fill="#841D1D" d="M57.6 66.8c-2.8.6-5.5 1.7-8.2 3.3-3.1-2.5-6.2-4.9-9.5-7.2L37.3 61c-4.6 0-8.7-.9-12.2-2.6-3.4-1.7-6.2-4.3-8.1-7.7 1.8 3.6 4.5 6.3 8 8.2 3.5 1.8 7.7 2.8 12.5 2.8 0 0 9.3 6.9 12.4 9.1 2.9-1.7 5.5-3.3 8.6-3.9-.4-.2-.5 0-.9-.1"/>
        <path fill="#DC2326" d="M38.8 20.1c-10.4-.1-14 9-14 20.6 0 4 .9 8.1 2.9 11.3-1.7-3.1-2.5-6.9-2.5-10.6 0-11.7 3.5-20.7 14-20.6 4.7 0 8 2.3 10.1 5.6-2.1-3.6-5.5-6.3-10.5-6.3"/>
        <path fill="#DB2326" d="M39.2 20.8c4.7 0 8 2.3 10.1 5.6-2.1-3.7-5.5-6.3-10.5-6.3-10.4 0-14 9-14 20.6 0 4 .9 8.1 2.9 11.3-1.7-3.1-2.5-6.9-2.5-10.6 0-11.6 3.6-20.6 14-20.6"/>
        <path fill="#D92326" d="M39.2 20.8c4.7 0 8 2.3 10.1 5.6-2.1-3.7-5.5-6.3-10.5-6.3-10.4 0-14 9-14 20.6 0 4 .9 8.1 2.9 11.3-1.7-3.1-2.5-6.9-2.5-10.6 0-11.6 3.6-20.6 14-20.6"/>
        <path fill="#D82326" d="M39.2 20.8c4.7 0 8 2.3 10.1 5.6-2.1-3.7-5.5-6.3-10.5-6.3-10.4 0-14 9-14 20.6 0 4 .9 8.1 2.9 11.3-1.7-3.1-2.5-6.9-2.5-10.6 0-11.6 3.6-20.6 14-20.6"/>
        <path fill="#D62326" d="M39.2 20.8c4.7 0 8 2.3 10.1 5.6-2.1-3.7-5.5-6.3-10.5-6.3-10.4 0-14 9-14 20.6 0 4 .9 8.1 2.9 11.3-1.7-3.1-2.5-6.9-2.5-10.6 0-11.6 3.6-20.6 14-20.6"/>
        <path fill="#D52326" d="M39.2 20.8c4.7 0 8 2.3 10.1 5.6-2.1-3.7-5.5-6.3-10.5-6.3-10.4 0-14 9-14 20.6 0 4 .9 8.1 2.9 11.3-1.7-3.1-2.5-6.9-2.5-10.6 0-11.6 3.6-20.6 14-20.6"/>
        <path fill="#D42326" d="M39.2 20.8c4.7 0 8 2.3 10.1 5.6-2.1-3.7-5.5-6.3-10.5-6.3-10.4 0-14 9-14 20.6 0 4 .9 8.1 2.9 11.3-1.7-3.1-2.5-6.9-2.5-10.6 0-11.7 3.6-20.6 14-20.6"/>
        <path fill="#D22326" d="M39.2 20.8c4.7 0 8 2.3 10.1 5.6-2.1-3.7-5.5-6.3-10.5-6.3-10.4 0-14 9-14 20.6 0 4 .9 8.1 2.9 11.3-1.7-3.1-2.5-6.9-2.5-10.6 0-11.7 3.6-20.6 14-20.6"/>
        <path fill="#D12326" d="M39.2 20.8c4.7 0 8 2.3 10.1 5.6-2.1-3.7-5.5-6.3-10.5-6.3-10.4 0-14 9-14 20.6 0 4 .9 8.1 2.9 11.3-1.7-3.1-2.5-6.9-2.5-10.6 0-11.7 3.6-20.6 14-20.6"/>
        <path fill="#D02326" d="M39.2 20.8c4.7 0 8 2.3 10.1 5.6-2.1-3.7-5.5-6.3-10.5-6.3-10.4 0-14 9-14 20.6 0 4 .9 8.1 2.9 11.3-1.7-3.1-2.5-6.9-2.5-10.6 0-11.7 3.5-20.6 14-20.6"/>
        <path fill="#CE2326" d="M39.2 20.8c4.7 0 8 2.3 10.1 5.6-2.1-3.7-5.5-6.3-10.5-6.3-10.4 0-14 9-14 20.6 0 4 .9 8.1 2.9 11.3-1.7-3.1-2.5-6.9-2.5-10.6 0-11.7 3.5-20.6 14-20.6"/>
        <path fill="#CD2326" d="M39.2 20.8c4.7 0 8 2.3 10.1 5.6-2.1-3.7-5.5-6.3-10.5-6.3-10.4 0-14 9-14 20.6 0 4 .9 8.1 2.9 11.3-1.7-3.1-2.5-6.9-2.5-10.6 0-11.7 3.5-20.6 14-20.6"/>
        <path fill="#CC2325" d="M39.2 20.8c4.7 0 8 2.3 10.1 5.6-2.1-3.7-5.5-6.3-10.5-6.3-10.4 0-14 9-14 20.6 0 4 .9 8.1 2.9 11.3-1.7-3.1-2.5-6.9-2.5-10.6 0-11.7 3.5-20.6 14-20.6"/>
        <path fill="#CA2325" d="M39.2 20.8c4.7 0 8 2.3 10.1 5.6-2.1-3.7-5.5-6.3-10.5-6.3-10.4 0-14 9-14 20.6 0 4 .9 8.1 2.9 11.3-1.7-3.1-2.5-6.9-2.5-10.6 0-11.7 3.5-20.6 14-20.6"/>
        <path fill="#C92325" d="M39.2 20.8c4.7 0 8 2.3 10.1 5.6-2.1-3.7-5.5-6.3-10.5-6.3-10.4 0-14 9-14 20.6 0 4 .9 8.1 2.9 11.3-1.7-3.1-2.5-6.9-2.5-10.6 0-11.7 3.5-20.6 14-20.6"/>
        <path fill="#C82325" d="M39.2 20.8c4.7 0 8 2.3 10.1 5.6-2.1-3.7-5.5-6.3-10.5-6.3-10.4 0-14 9-14 20.6 0 4 .9 8.1 2.9 11.3-1.7-3.1-2.5-6.9-2.5-10.6 0-11.7 3.5-20.6 14-20.6"/>
        <path fill="#C72325" d="M39.2 20.8c4.7 0 8 2.3 10.1 5.6-2.1-3.7-5.5-6.3-10.5-6.3-10.4 0-14 9-14 20.6 0 4 .9 8.1 2.9 11.3-1.7-3.1-2.5-6.9-2.5-10.6 0-11.7 3.5-20.6 14-20.6"/>
        <path fill="#C52325" d="M39.1 20.8c4.7 0 8 2.3 10.1 5.6-2.1-3.7-5.5-6.3-10.5-6.3-10.4 0-14 9-14 20.6 0 4 .9 8.1 2.9 11.3-1.7-3.1-2.5-6.9-2.5-10.6.1-11.7 3.6-20.6 14-20.6"/>
        <path fill="#C42325" d="M39.1 20.8c4.7 0 8 2.3 10.1 5.6-2.1-3.7-5.5-6.3-10.5-6.3-10.4 0-14 9-14 20.6 0 4 .9 8.1 2.9 11.3-1.7-3.1-2.5-6.9-2.5-10.6.1-11.7 3.6-20.6 14-20.6"/>
        <path fill="#C32325" d="M39.1 20.7c4.7 0 8 2.3 10.1 5.6-2.1-3.7-5.5-6.3-10.5-6.3-10.4 0-14 9-14 20.6 0 4 .9 8.1 2.9 11.3-1.7-3.1-2.5-6.9-2.5-10.6.1-11.6 3.6-20.5 14-20.6"/>
        <path fill="#C22325" d="M39.1 20.7c4.7 0 8 2.3 10.1 5.6-2.1-3.7-5.5-6.3-10.5-6.3-10.4 0-14 9-14 20.6 0 4 .9 8.1 2.9 11.3-1.7-3.1-2.5-6.9-2.5-10.6.1-11.6 3.6-20.5 14-20.6"/>
        <path fill="#C12325" d="M39.1 20.7c4.7 0 8 2.3 10.1 5.6-2.1-3.7-5.5-6.3-10.5-6.3-10.4 0-14 9-14 20.6 0 4 .9 8.1 2.9 11.3-1.7-3.1-2.5-6.9-2.5-10.6.1-11.6 3.6-20.5 14-20.6"/>
        <path fill="#BF2325" d="M39.1 20.7c4.7 0 8 2.3 10.1 5.6-2.1-3.7-5.5-6.3-10.5-6.3-10.4 0-14 9-14 20.6 0 4 .9 8.1 2.9 11.3-1.7-3.1-2.5-6.9-2.5-10.6.1-11.6 3.6-20.5 14-20.6"/>
        <path fill="#BE2325" d="M39.1 20.7c4.7 0 8 2.3 10.1 5.6-2.1-3.7-5.5-6.3-10.5-6.3-10.4 0-14 9-14 20.6 0 4 .9 8.1 2.9 11.3-1.7-3.1-2.5-6.9-2.5-10.6.1-11.6 3.6-20.5 14-20.6"/>
        <path fill="#BD2225" d="M39.1 20.7c4.7 0 8 2.3 10.1 5.6-2.1-3.7-5.5-6.3-10.5-6.3-10.4 0-14 9-14 20.6 0 4 .9 8.1 2.9 11.3-1.7-3.1-2.5-6.9-2.5-10.6.1-11.6 3.6-20.5 14-20.6"/>
        <path fill="#BB2224" d="M39.1 20.7c4.7 0 8 2.3 10.1 5.6-2.1-3.7-5.5-6.3-10.5-6.3-10.4 0-14 9-14 20.6 0 4 .9 8.1 2.9 11.3-1.7-3.1-2.5-6.9-2.5-10.6.1-11.6 3.6-20.5 14-20.6"/>
        <path fill="#BA2224" d="M39.1 20.7c4.7 0 8 2.3 10.1 5.6-2.1-3.7-5.5-6.3-10.5-6.3-10.4 0-14 9-14 20.6 0 4 .9 8.1 2.9 11.3-1.7-3.1-2.5-6.9-2.5-10.6.1-11.6 3.6-20.5 14-20.6"/>
        <path fill="#B92224" d="M39.1 20.7c4.7 0 8 2.3 10.1 5.6-2.1-3.7-5.5-6.3-10.5-6.3-10.4 0-14 9-14 20.6 0 4 .9 8.1 2.9 11.3-1.7-3.1-2.5-6.9-2.5-10.6 0-11.6 3.6-20.5 14-20.6"/>
        <path fill="#B82224" d="M39.1 20.7c4.7 0 8 2.3 10.1 5.6-2.1-3.7-5.5-6.3-10.5-6.3-10.4 0-14 9-14 20.6 0 4 .9 8.1 2.9 11.3-1.7-3.1-2.5-6.9-2.5-10.6 0-11.6 3.6-20.6 14-20.6"/>
        <path fill="#B72224" d="M39.1 20.7c4.7 0 8 2.3 10.1 5.6-2.1-3.7-5.5-6.3-10.5-6.3-10.4 0-14 9-14 20.6 0 4 .9 8.1 2.9 11.3-1.7-3.1-2.5-6.9-2.5-10.6 0-11.6 3.6-20.6 14-20.6"/>
        <path fill="#B52224" d="M39.1 20.7c4.7 0 8 2.3 10.1 5.6-2.1-3.7-5.5-6.3-10.5-6.3-10.4 0-14 9-14 20.6 0 4 .9 8.1 2.9 11.3-1.7-3.1-2.5-6.9-2.5-10.6 0-11.6 3.6-20.6 14-20.6"/>
        <path fill="#B42224" d="M39.1 20.7c4.7 0 8 2.3 10.1 5.6-2.1-3.7-5.5-6.3-10.5-6.3-10.4 0-14 9-14 20.6 0 4 .9 8.1 2.9 11.3-1.7-3.1-2.5-6.9-2.5-10.6 0-11.6 3.6-20.6 14-20.6"/>
        <path fill="#B32224" d="M39.1 20.7c4.7 0 8 2.3 10.1 5.6-2.1-3.7-5.5-6.3-10.5-6.3-10.4 0-14 9-14 20.6 0 4 .9 8.1 2.9 11.3-1.7-3.1-2.5-6.9-2.5-10.6 0-11.6 3.6-20.6 14-20.6"/>
        <path fill="#B22224" d="M39.1 20.7c4.7 0 8 2.3 10.1 5.6-2.1-3.7-5.5-6.3-10.5-6.3-10.4 0-14 9-14 20.6 0 4 .9 8.1 2.9 11.3-1.7-3.1-2.5-6.9-2.5-10.6 0-11.6 3.6-20.6 14-20.6"/>
        <path fill="#B12224" d="M39.1 20.7c4.7 0 8 2.3 10.1 5.6-2.1-3.7-5.5-6.3-10.5-6.3-10.4 0-14 9-14 20.6 0 4 .9 8.1 2.9 11.3-1.7-3.1-2.5-6.9-2.5-10.6 0-11.7 3.6-20.6 14-20.6"/>
        <path fill="#B02223" d="M39.1 20.7c4.7 0 8 2.3 10.1 5.6-2.1-3.7-5.5-6.3-10.5-6.3-10.4 0-14 9-14 20.6 0 4 .9 8.1 2.9 11.3-1.7-3.1-2.5-6.9-2.5-10.6 0-11.7 3.6-20.6 14-20.6"/>
        <path fill="#AE2223" d="M39.1 20.7c4.7 0 8 2.3 10.1 5.6-2.1-3.7-5.5-6.3-10.5-6.3-10.4 0-14 9-14 20.6 0 4 .9 8.1 2.9 11.3-1.7-3.1-2.5-6.9-2.5-10.6 0-11.7 3.6-20.6 14-20.6"/>
        <path fill="#AD2223" d="M39.1 20.7c4.7 0 8 2.3 10.1 5.6-2.1-3.7-5.5-6.3-10.5-6.3-10.4 0-14 9-14 20.6 0 4 .9 8.1 2.9 11.3-1.7-3.1-2.5-6.9-2.5-10.6 0-11.7 3.5-20.6 14-20.6"/>
        <path fill="#AC2223" d="M39.1 20.7c4.7 0 8 2.3 10.1 5.6-2.1-3.7-5.5-6.3-10.5-6.3-10.4 0-14 9-14 20.6 0 4 .9 8.1 2.9 11.3-1.7-3.1-2.5-6.9-2.5-10.6 0-11.7 3.5-20.6 14-20.6"/>
        <path fill="#AB2223" d="M39.1 20.7c4.7 0 8 2.3 10.1 5.6-2.1-3.7-5.5-6.3-10.5-6.3-10.4 0-14 9-14 20.6 0 4 .9 8.1 2.9 11.3-1.7-3.1-2.5-6.9-2.5-10.6 0-11.7 3.5-20.6 14-20.6"/>
        <path fill="#AA2223" d="M39.1 20.7c4.7 0 8 2.3 10.1 5.6-2.1-3.7-5.5-6.3-10.5-6.3-10.4 0-14 9-14 20.6 0 4 .9 8.1 2.9 11.3-1.7-3.1-2.5-6.9-2.5-10.6 0-11.7 3.5-20.6 14-20.6"/>
        <path fill="#A82123" d="M39.1 20.7c4.7 0 8 2.3 10.1 5.6-2.1-3.7-5.5-6.3-10.5-6.3-10.4 0-14 9-14 20.6 0 4 .9 8.1 2.9 11.3-1.7-3.1-2.5-6.9-2.5-10.6 0-11.7 3.5-20.6 14-20.6"/>
        <path fill="#A72123" d="M39.1 20.7c4.7 0 8 2.3 10.1 5.6-2.1-3.7-5.5-6.3-10.5-6.3-10.4 0-14 9-14 20.6 0 4 .9 8.1 2.9 11.3-1.7-3.1-2.5-6.9-2.5-10.6 0-11.7 3.5-20.6 14-20.6"/>
        <path fill="#A62123" d="M39.1 20.7c4.7 0 8 2.3 10.1 5.6-2.1-3.7-5.5-6.3-10.5-6.3-10.4 0-14 9-14 20.6 0 4 .9 8.1 2.9 11.3-1.7-3.1-2.5-6.9-2.5-10.6 0-11.7 3.5-20.6 14-20.6"/>
        <path fill="#A52122" d="M39.1 20.7c4.7 0 8 2.3 10.1 5.6C47 22.6 43.6 20 38.7 20c-10.4 0-14 9-14 20.6 0 4 .9 8.1 2.9 11.3-1.7-3.1-2.5-6.9-2.5-10.6 0-11.7 3.5-20.6 14-20.6"/>
        <path fill="#A42122" d="M39 20.7c4.7 0 8 2.3 10.1 5.6C47 22.6 43.6 20 38.6 20c-10.4 0-14 9-14 20.6 0 4 .9 8.1 2.9 11.3C25.8 48.8 25 45 25 41.3c.1-11.7 3.6-20.6 14-20.6"/>
        <path fill="#A22122" d="M39 20.6c4.7 0 8 2.3 10.1 5.6C47 22.6 43.6 20 38.6 20c-10.4 0-14 9-14 20.6 0 4 .9 8.1 2.9 11.3C25.8 48.8 25 45 25 41.3c.1-11.7 3.6-20.6 14-20.7"/>
        <path fill="#A12122" d="M39 20.6c4.7 0 8 2.3 10.1 5.6C47 22.6 43.6 20 38.6 20c-10.4 0-14 9-14 20.6 0 4 .9 8.1 2.9 11.3C25.8 48.8 25 45 25 41.3c.1-11.7 3.6-20.6 14-20.7"/>
        <path fill="#A02122" d="M39 20.6c4.7 0 8 2.3 10.1 5.6C47 22.6 43.6 20 38.6 20c-10.4 0-14 9-14 20.6 0 4 .9 8.1 2.9 11.3C25.8 48.8 25 45 25 41.3c.1-11.7 3.6-20.6 14-20.7"/>
        <path fill="#9F2122" d="M39 20.6c4.7 0 8 2.3 10.1 5.6C47 22.6 43.6 20 38.6 20c-10.4 0-14 9-14 20.6 0 4 .9 8.1 2.9 11.3C25.8 48.8 25 45 25 41.3c.1-11.7 3.6-20.6 14-20.7"/>
        <path fill="#9E2122" d="M39 20.6c4.7 0 8 2.3 10.1 5.6C47 22.6 43.6 20 38.6 20c-10.4 0-14 9-14 20.6 0 4 .9 8.1 2.9 11.3C25.8 48.8 25 45 25 41.3c.1-11.7 3.6-20.6 14-20.7"/>
        <path fill="#9D2121" d="M39 20.6c4.7 0 8 2.3 10.1 5.6C47 22.6 43.6 20 38.6 20c-10.4 0-14 9-14 20.6 0 4 .9 8.1 2.9 11.3C25.8 48.8 25 45 25 41.3c.1-11.7 3.6-20.6 14-20.7"/>
        <path fill="#9C2121" d="M39 20.6c4.7 0 8 2.3 10.1 5.6C47 22.6 43.6 20 38.6 20c-10.4 0-14 9-14 20.6 0 4 .9 8.1 2.9 11.3C25.8 48.8 25 45 25 41.3c.1-11.7 3.6-20.6 14-20.7"/>
        <path fill="#9A2021" d="M39 20.6c4.7 0 8 2.3 10.1 5.6C47 22.6 43.6 20 38.6 20c-10.4 0-14 9-14 20.6 0 4 .9 8.1 2.9 11.3C25.8 48.8 25 45 25 41.3c.1-11.7 3.6-20.6 14-20.7"/>
        <path fill="#992021" d="M39 20.6c4.7 0 8 2.3 10.1 5.6C47 22.6 43.6 20 38.6 20c-10.4 0-14 9-14 20.6 0 4 .9 8.1 2.9 11.3C25.8 48.8 25 45 25 41.3c.1-11.7 3.6-20.6 14-20.7"/>
        <path fill="#982021" d="M39 20.6c4.7 0 8 2.3 10.1 5.6-2.1-3.7-5.5-6.3-10.5-6.3-10.4 0-14 9-14 20.6 0 4 .9 8.1 2.9 11.3-1.7-3-2.5-6.8-2.5-10.5 0-11.7 3.6-20.6 14-20.7"/>
        <path fill="#972021" d="M39 20.6c4.7 0 8 2.3 10.1 5.6-2.1-3.7-5.5-6.3-10.5-6.3-10.4 0-14 9-14 20.6 0 4 .9 8.1 2.9 11.3-1.7-3-2.5-6.8-2.5-10.5 0-11.7 3.6-20.7 14-20.7"/>
        <path fill="#962021" d="M39 20.6c4.7 0 8 2.3 10.1 5.6-2.1-3.7-5.5-6.3-10.5-6.3-10.4 0-14 9-14 20.6 0 4 .9 8.1 2.9 11.3-1.7-3-2.5-6.8-2.5-10.6 0-11.6 3.6-20.6 14-20.6"/>
        <path fill="#952020" d="M39 20.6c4.7 0 8 2.3 10.1 5.6-2.1-3.7-5.5-6.3-10.5-6.3-10.4 0-14 9-14 20.6 0 4 .9 8.1 2.9 11.3-1.7-3-2.5-6.8-2.5-10.6 0-11.6 3.6-20.6 14-20.6"/>
        <path fill="#942020" d="M39 20.6c4.7 0 8 2.3 10.1 5.6-2.1-3.7-5.5-6.3-10.5-6.3-10.4 0-14 9-14 20.6 0 4 .9 8.1 2.9 11.3-1.7-3-2.5-6.8-2.5-10.6 0-11.6 3.6-20.6 14-20.6"/>
        <path fill="#932020" d="M39 20.6c4.7 0 8 2.3 10.1 5.6-2.1-3.7-5.5-6.3-10.5-6.3-10.4 0-14 9-14 20.6 0 4 .9 8.1 2.9 11.3-1.7-3-2.5-6.8-2.5-10.6 0-11.6 3.6-20.6 14-20.6"/>
        <path fill="#911F20" d="M39 20.6c4.7 0 8 2.3 10.1 5.6-2.1-3.7-5.5-6.3-10.5-6.3-10.4 0-14 9-14 20.6 0 4 .9 8.1 2.9 11.3-1.7-3-2.5-6.8-2.5-10.6 0-11.6 3.6-20.6 14-20.6"/>
        <path fill="#901F20" d="M39 20.6c4.7 0 8 2.3 10.1 5.6-2.1-3.7-5.5-6.3-10.5-6.3-10.4 0-14 9-14 20.6 0 4 .9 8.1 2.9 11.3-1.7-3.1-2.5-6.9-2.5-10.6 0-11.7 3.6-20.6 14-20.6"/>
        <path fill="#8F1F20" d="M39 20.6c4.7 0 8 2.3 10.1 5.6-2.1-3.7-5.5-6.3-10.5-6.3-10.4 0-14 9-14 20.6 0 4 .9 8.1 2.9 11.3-1.7-3.1-2.5-6.9-2.5-10.6 0-11.7 3.6-20.6 14-20.6"/>
        <path fill="#8E1F20" d="M39 20.6c4.7 0 8 2.3 10.1 5.6-2.1-3.7-5.5-6.3-10.5-6.3-10.4 0-14 9-14 20.6 0 4 .9 8.1 2.9 11.3-1.7-3.1-2.5-6.9-2.5-10.6 0-11.7 3.6-20.6 14-20.6"/>
        <path fill="#8D1F1F" d="M39 20.6c4.7 0 8 2.3 10.1 5.6-2.1-3.7-5.5-6.3-10.5-6.3-10.4 0-14 9-14 20.6 0 4 .9 8.1 2.9 11.3-1.7-3.1-2.5-6.9-2.5-10.6 0-11.7 3.6-20.6 14-20.6"/>
        <path fill="#8C1F1F" d="M39 20.6c4.7 0 8 2.3 10.1 5.6-2.1-3.7-5.5-6.3-10.5-6.3-10.4 0-14 9-14 20.6 0 4 .9 8.1 2.9 11.3-1.7-3.1-2.5-6.9-2.5-10.6 0-11.7 3.5-20.6 14-20.6"/>
        <path fill="#8B1F1F" d="M39 20.6c4.7 0 8 2.3 10.1 5.6-2.1-3.7-5.5-6.3-10.5-6.3-10.4 0-14 9-14 20.6 0 4 .9 8.1 2.9 11.3-1.7-3.1-2.5-6.9-2.5-10.6 0-11.7 3.5-20.6 14-20.6"/>
        <path fill="#8A1E1F" d="M39 20.6c4.7 0 8 2.3 10.1 5.6-2.1-3.7-5.5-6.3-10.5-6.3-10.4 0-14 9-14 20.6 0 4 .9 8.1 2.9 11.3-1.7-3.1-2.5-6.9-2.5-10.6 0-11.7 3.5-20.6 14-20.6"/>
        <path fill="#891E1F" d="M39 20.6c4.7 0 8 2.3 10.1 5.6-2.1-3.7-5.5-6.3-10.5-6.3-10.4 0-14 9-14 20.6 0 4 .9 8.1 2.9 11.3-1.7-3.1-2.5-6.9-2.5-10.6 0-11.7 3.5-20.6 14-20.6"/>
        <path fill="#881E1F" d="M39 20.6c4.7 0 8 2.3 10.1 5.6-2.1-3.7-5.5-6.3-10.5-6.3-10.4 0-14 9-14 20.6 0 4 .9 8.1 2.9 11.3-1.7-3.1-2.5-6.9-2.5-10.6 0-11.7 3.5-20.6 14-20.6"/>
        <path fill="#871E1E" d="M39 20.6c4.7 0 8 2.3 10.1 5.6-2.1-3.7-5.5-6.3-10.5-6.3-10.4 0-14 9-14 20.6 0 4 .9 8.1 2.9 11.3-1.7-3.1-2.5-6.9-2.5-10.6 0-11.7 3.5-20.6 14-20.6"/>
        <path fill="#851E1E" d="M39 20.6c4.7 0 8 2.3 10.1 5.6-2.1-3.7-5.5-6.3-10.5-6.3-10.4 0-14 9-14 20.6 0 4 .9 8.1 2.9 11.3-1.7-3.1-2.5-6.9-2.5-10.6 0-11.7 3.5-20.6 14-20.6"/>
        <path fill="#841E1E" d="M38.5 19.9c-10.4-.1-14 9-14 20.6 0 4 .9 8.1 2.9 11.3-1.7-3.1-2.5-6.9-2.5-10.6 0-11.7 3.5-20.7 14-20.6 4.7 0 8 2.3 10.1 5.6-2.1-3.7-5.5-6.3-10.5-6.3"/>
        <path fill="#FFF" d="M37.4 61.3c-13.8 0-23.1-8.1-23.1-22.4 0-14.1 11-22.6 24.7-22.6 14 0 23.2 9 23.2 22.3 0 10.2-6.3 18.4-15.9 21.5 5.2 3.3 6.3 3.6 12.1 6.8-3.1.6-5.9 1.7-8.8 3.5-3.1-2.5-6.2-4.9-9.5-7.2l-2.7-1.9zM24.8 40.9c0 8.1 3.7 16.8 13.1 16.8 8.7 0 14-8.3 14-20.1 0-8.1-3.8-17.4-13.2-17.4-10.3 0-13.9 9-13.9 20.7"/>
    </g>
</svg>