<svg xmlns="http://www.w3.org/2000/svg" width="1207" height="253" viewBox="0 0 1207 253" version="1.1"><path d="M 479.956 49.750 L 479.912 99.500 477.811 95.500 C 474.531 89.258, 464.030 79.590, 456.835 76.189 C 448.335 72.173, 440.497 70.657, 428.500 70.709 C 408.538 70.797, 396.101 75.778, 382.966 88.945 C 376.178 95.749, 373.579 99.240, 370.263 106 C 363.077 120.651, 360.052 136.063, 360.020 158.178 C 359.987 180.708, 363.017 196.370, 370.237 211 C 373.557 217.728, 376.210 221.283, 382.966 228.055 C 396.238 241.360, 408.570 246.243, 429 246.283 C 450.468 246.325, 465.824 239.001, 475.899 223.913 L 480 217.772 480 230.386 L 480 243 490 243 L 500 243 500 121.500 L 500 0 490 0 L 480 0 479.956 49.750 M 666.500 0.681 C 657.807 2.634, 652.381 6.510, 648.691 13.405 C 646.609 17.296, 646.485 18.905, 646.193 45.750 L 645.886 74 631.443 74 L 617 74 617 83 L 617 92 631.500 92 L 646 92 646 167.500 L 646 243 656 243 L 666 243 666 167.500 L 666 92 684.500 92 L 703 92 703 83 L 703 74 684.500 74 L 666 74 666 46 L 666 18 684.500 18 L 703 18 703 9 L 703 0 685.750 0.116 C 676.263 0.180, 667.600 0.434, 666.500 0.681 M 738.233 114.250 L 738.500 228.500 741.013 232.987 C 742.670 235.948, 745.052 238.326, 748.013 239.978 C 752.166 242.294, 753.671 242.508, 768.250 242.845 L 784 243.210 784 234.105 L 784 225 771.500 225 L 759 225 759 112.500 L 759 0 748.483 0 L 737.967 0 738.233 114.250 M 561 4.279 C 554.263 7.645, 552.988 21.450, 558.871 27.332 C 561.417 29.878, 562.835 30.423, 567.702 30.724 C 574.140 31.123, 577.246 29.930, 580.227 25.913 C 584.657 19.945, 583.258 8.347, 577.699 4.958 C 573.974 2.687, 564.923 2.318, 561 4.279 M 0 128.451 L 0 243 10.500 243 L 21 243 21 192.500 L 21 142 50.250 142.007 L 79.500 142.013 106.646 192.257 L 133.791 242.500 145.521 242.783 C 156.357 243.044, 157.215 242.930, 156.784 241.283 C 156.527 240.302, 144.140 217.335, 129.256 190.244 C 102.324 141.223, 102.208 140.986, 104.848 140.406 C 126.953 135.545, 140.633 123.698, 147.664 103.328 C 149.995 96.574, 150.421 93.510, 150.767 81 C 151.402 58.107, 147.174 43.889, 136.150 31.846 C 129.637 24.731, 123.658 20.896, 113.500 17.318 L 105.500 14.500 52.750 14.201 L 0 13.902 0 128.451 M 21 78.563 L 21 124.126 60.250 123.764 C 103.759 123.362, 105.785 123.097, 114.177 116.696 C 125.657 107.940, 128.526 100.054, 128.437 77.500 C 128.382 63.380, 128.111 60.830, 126.134 55.798 C 123.371 48.769, 116.239 40.657, 110.108 37.569 C 101.914 33.443, 96.858 33, 57.951 33 L 21 33 21 78.563 M 241.679 71.013 C 225.840 72.953, 214.272 78.654, 203.875 89.644 C 198.869 94.935, 194 102.399, 194 104.781 C 194 105.254, 196.834 107.912, 200.298 110.688 L 206.596 115.735 210.048 110.251 C 220.353 93.881, 239.130 85.924, 260.291 88.959 C 275.254 91.105, 283.717 96.619, 289.229 107.813 C 292.453 114.359, 292.505 114.689, 292.853 130.727 L 293.206 147 270.353 147.008 C 246.423 147.017, 234.530 147.929, 224.500 150.524 C 198.130 157.348, 185.104 176.540, 188.140 204.091 C 189.137 213.139, 190.992 218.755, 195.099 225.155 C 201.177 234.626, 211.666 241.519, 224.750 244.638 C 233.984 246.839, 252.537 246.846, 260.887 244.650 C 273.527 241.327, 284.577 233.494, 290.857 223.403 L 293.776 218.714 294.487 223.107 C 295.533 229.565, 298.279 235.216, 301.819 238.194 C 305.895 241.624, 312.691 243, 325.549 243 L 336 243 336 234 L 336 225 325 225 L 314 225 313.983 172.250 C 313.963 113.524, 313.744 111.025, 307.510 98.355 C 301.298 85.729, 288.310 76.066, 272.900 72.602 C 264.444 70.702, 250.154 69.975, 241.679 71.013 M 559 158.500 L 559 243 569 243 L 579 243 579 158.500 L 579 74 569 74 L 559 74 559 158.500 M 982.361 75.714 C 982.646 76.696, 993.340 114.751, 1006.124 160.279 L 1029.369 243.059 1041.354 242.779 L 1053.339 242.500 1073.644 174.109 C 1084.812 136.494, 1094.106 105.561, 1094.297 105.369 C 1094.489 105.178, 1103.900 135.954, 1115.211 173.761 L 1135.777 242.500 1148.003 242.500 L 1160.229 242.500 1183.599 159.500 C 1196.452 113.850, 1206.975 75.938, 1206.984 75.250 C 1206.996 74.336, 1204.437 74, 1197.475 74 C 1188.509 74, 1187.902 74.132, 1187.125 76.250 C 1186.671 77.487, 1177.795 110.747, 1167.400 150.159 C 1157.005 189.571, 1148.376 221.697, 1148.224 221.550 C 1148.072 221.402, 1138.140 188.256, 1126.153 147.891 L 1104.358 74.500 1095.169 74.212 C 1086.389 73.937, 1085.940 74.027, 1085.110 76.212 C 1084.632 77.471, 1074.902 110.225, 1063.488 149 C 1052.073 187.775, 1042.431 219.840, 1042.061 220.256 C 1041.690 220.672, 1032.603 188.047, 1021.866 147.756 L 1002.345 74.500 992.094 74.214 C 982.653 73.951, 981.883 74.069, 982.361 75.714 M 418.100 91.048 C 401.871 95.298, 392.030 104.800, 385.131 122.880 C 382.723 129.192, 382.588 130.666, 382.217 154.558 C 381.993 168.951, 382.256 181.933, 382.834 185.058 C 385.376 198.803, 392.775 211.630, 402.138 218.523 C 421.430 232.725, 454.990 230.478, 470.451 213.949 C 479.704 204.056, 479.500 205.308, 479.500 158.500 L 479.500 117.500 476.730 111.858 C 468.027 94.137, 441.822 84.836, 418.100 91.048 M 239.226 164.146 C 225.892 166.058, 216.353 171.697, 211.678 180.432 C 209.788 183.962, 209.500 186.086, 209.500 196.500 C 209.500 209.687, 210.725 213.569, 216.658 219.193 C 223.477 225.657, 238.626 229.691, 251.500 228.473 C 265.223 227.175, 280.748 220.130, 286.497 212.593 C 292.340 204.933, 292.954 202.008, 292.978 181.750 L 293 163 269.250 163.123 C 256.188 163.191, 242.677 163.652, 239.226 164.146" stroke="none" fill="#041434" fill-rule="evenodd"/><path d="M 852.518 81.986 C 825.075 90.275, 816.117 93.373, 814.768 95.038 C 813.138 97.051, 813 100.609, 813 140.636 C 813 181.402, 813.121 184.395, 814.988 189.707 C 822.170 210.140, 847.017 232.770, 880.224 249.124 C 890.653 254.260, 890.244 254.331, 908 244.274 C 925.375 234.432, 934.437 227.723, 946.081 216.080 C 954.966 207.196, 957.332 204.138, 960.842 197 C 963.141 192.325, 965.482 185.955, 966.044 182.845 C 966.663 179.422, 966.954 161.375, 966.783 137.122 C 966.505 97.733, 966.464 97.018, 964.366 94.920 C 962.872 93.427, 951.347 89.518, 925.964 81.893 C 906.017 75.902, 889.427 71.026, 889.098 71.059 C 888.769 71.091, 872.308 76.008, 852.518 81.986 M 859.759 98.829 L 831.017 107.500 831.009 144.500 L 831.002 181.500 834.075 187.997 C 839.754 200.001, 859.507 217.218, 881 228.897 C 885.125 231.138, 889.183 232.978, 890.017 232.986 C 892.175 233.006, 911.683 221.233, 920.544 214.565 C 929.950 207.485, 938.028 199.438, 942.477 192.716 C 948.578 183.498, 949.060 179.575, 948.764 141.498 L 948.500 107.651 921 99.370 C 905.875 94.816, 892.375 90.880, 891 90.624 C 889.541 90.352, 876.526 93.770, 859.759 98.829" stroke="none" fill="#0474fc" fill-rule="evenodd"/></svg>