<svg width="500" height="500"><path d="M11 206c46.916 0 46.916 0 53.207 4.621 5.983 6.77 8.277 14.549 7.73 23.566-1.18 7.746-3.873 13.79-10.12 18.66-2.482 1.575-4.973 2.46-7.817 3.153 1.298 4.252 2.927 7.944 5.117 11.809l1.84 3.263 1.918 3.365 1.895 3.354c3.251 5.76 3.251 5.76 6.567 11.483C74 293.806 74 293.806 74 296a82.249 82.249 0 0 1-4.688.5l-2.636.281c-3.55-1.036-4.467-2.956-6.228-6.085L59 288c-.974-1.723-1.949-3.445-2.925-5.168a949.408 949.408 0 0 1-4.288-7.716c-1.11-2.01-2.227-4.016-3.344-6.022l-2.119-3.836-1.935-3.496C43 259 43 259 43 257H20v39h-9v-90Zm9 8v34l15.688.188 4.924.082 3.9.023 3.983.048c4.848-.471 7.316-2.215 10.786-5.501 2.33-3.851 2.311-6.861 2.219-11.278.015-.737.03-1.475.047-2.236-.037-5.176-.954-8.365-4.547-12.326-4.977-2.564-8.568-3.366-14.246-3.293l-3.639.023c-2.253.04-2.253.04-4.553.083L20 214Zm380 15h8c2.233 5.719 4.057 11.433 5.664 17.355l.72 2.62c.497 1.815.993 3.629 1.487 5.444a13929.496 13929.496 0 0 1 3.73 13.624l.686 2.497c1.033 3.803 2.013 7.578 2.713 11.46 1.82-2.73 2.583-4.523 3.48-7.607l.83-2.822c.29-1.003.58-2.006.877-3.04l.92-3.127c.969-3.3 1.932-6.602 2.893-9.904 1.265-4.345 2.537-8.689 3.813-13.031l.877-3.04.83-2.822.721-2.482C439 232 439 232 441 229c1.945-.293 1.945-.293 4.125-.188L449 229a24884.672 24884.672 0 0 1 4.675 15.032 2516.18 2516.18 0 0 1 6.446 20.98c.32 1.057.638 2.115.967 3.205.6 1.994 1.197 3.99 1.791 5.986l.808 2.688.7 2.344c.47 1.767.47 1.767 1.613 2.765l.525-1.967c1.796-6.733 3.597-13.464 5.402-20.195a8022.5 8022.5 0 0 0 2.016-7.546c.963-3.607 1.93-7.213 2.897-10.82l.912-3.43.85-3.155.746-2.793C480 230 480 230 481 229c2.67-.141 5.324-.042 8 0-.57 7.61-2.388 14.505-4.563 21.805l-1.064 3.639a3234.41 3234.41 0 0 1-2.8 9.495c-.955 3.227-1.9 6.457-2.846 9.686C472.33 292.007 472.33 292.007 471 296h-10c-4.205-9.764-7.125-19.899-10.188-30.063-.816-2.705-1.634-5.41-2.456-8.113-.508-1.672-1.014-3.346-1.516-5.021-.876-3.694-.876-3.694-2.84-6.803l-15 50h-11c-10.666-35.602-10.666-35.602-15.188-51.5l-.88-3.047-.787-2.797-.677-2.38c-.51-2.48-.55-4.752-.468-7.276Z" fill="#02112F"/><path d="M200 201h10c.023 12.239.04 24.478.052 36.716.005 5.683.012 11.365.023 17.047.011 5.48.017 10.958.02 16.437.002 2.095.005 4.19.01 6.286.008 2.924.009 5.848.009 8.772l.01 2.652c-.01 5.976-.01 5.976-1.124 7.09-2.67.141-5.324.042-8 0l-2-6-2.688 2.375c-5.713 5.049-11.522 5.005-18.867 4.867-7.445-.523-11.869-2.87-16.91-8.36-8.537-10.47-8.68-23.95-7.535-36.882 1.574-7.77 5.322-15.509 11.8-20.344 7.565-4.535 16.998-5.069 25.532-3.125 3.829 1.535 5.664 3.465 8.668 6.469l1-34Zm-34 43c-3.365 6.145-3.455 11.581-3.375 18.5l-.035 3.05c.03 7.446.824 12.54 5.91 18.262 5.25 4.593 9.444 5.53 16.383 5.399 5.308-.529 8.91-2.007 12.698-5.787 2.899-3.564 3.146-6.977 3.083-11.455l.015-2.286c.003-1.586-.006-3.173-.027-4.76-.027-2.417 0-4.83.032-7.247-.004-1.548-.01-3.097-.02-4.645l.03-2.169c-.131-5.705-1.779-8.01-5.694-11.862-9.995-5.88-21.617-4.024-29 5Z" fill="#02102F"/><path d="M127 231c5.482 4.858 8.593 9.814 9.173 17.208.057 2.484.052 4.96.022 7.444l-.008 2.728c-.011 2.853-.036 5.705-.062 8.558-.01 1.943-.02 3.886-.027 5.83-.022 4.744-.057 9.488-.098 14.232l3.938-.063A59.19 59.19 0 0 1 144 287c1 1 1 1 1.125 4.5C145 295 145 295 144 296c-5.162.528-9.563.88-14.063-1.875L128 292l-2-2-1.61 1.277-2.14 1.66-2.11 1.653c-6.212 4.092-15.629 3.235-22.66 1.95-5.794-1.884-8.494-5.305-11.585-10.34-2.174-5.344-1.916-12.296-.02-17.688 2.647-4.625 6.054-7.73 11.125-9.512 9.507-2.565 19.245-2.208 29-2 .37-5.925.392-11.884-3-17-3.942-3.085-7.066-3.407-12-3.375l-3.625-.023c-3.593.424-5.416 1.4-8.375 3.398h-2l-.938 1.875L94 246c-3.27-.564-4.826-1.5-7-4 1.337-5.516 5.474-8.902 10-12 8.685-3.719 21.775-3.785 30 1Zm-31 38c-2.406 3.818-2.553 7.597-2 12 1.343 3.358 2.579 4.694 5.5 6.813 5.94 2.015 12.44 2.272 18.375 0 3.464-2.01 5.617-3.677 8.125-6.813.59-2.803.478-5.464.313-8.313l-.069-2.244c-.058-1.815-.148-3.63-.244-5.443a668.13 668.13 0 0 0-10.5-.25l-2.977-.102c-6.159-.082-11.583.323-16.523 4.352Z" fill="#02112E"/><path d="m369 229 2.846.735c3.213.876 6.402 1.811 9.591 2.765l3.334.973c8.09 2.388 8.09 2.388 9.229 3.527.197 2.425.333 4.824.422 7.254l.084 2.225c.057 1.561.11 3.122.161 4.683.082 2.367.186 4.732.29 7.098.052 1.519.103 3.037.152 4.556l.104 2.12c.223 8.876-3.404 15.141-9.393 21.525-5.706 5.137-14.14 11.966-21.882 12.914-9.878-.94-19.476-9.214-25.938-16.375-6.348-8.11-6.277-15.026-6.35-25.015a383.365 383.365 0 0 0-.082-4.97c-.055-2.39-.077-4.78-.091-7.171l-.07-2.245c.01-2.093.01-2.093.593-5.599 4.585-3.92 11.114-5.077 16.813-6.75l3.197-.996c5.945-1.756 10.882-2.845 16.99-1.254Zm-17.5 9.813-2.742.869c-4.196 1.088-4.196 1.088-7.758 3.318-.316 4.146-.357 8.296-.405 12.453a227.071 227.071 0 0 1-.103 4.181c-.398 10.796-.398 10.796 4.87 19.887 2.153 1.944 4.267 3.706 6.7 5.291l2.473 1.645L357 288l2.64 1.723c2.315 1.554 2.315 1.554 5.048.902 8.371-4.107 17.028-10.056 21.312-18.625.086-2.178.107-4.36.098-6.54l-.01-3.944-.026-4.141c-.005-1.388-.01-2.776-.013-4.164A3987.48 3987.48 0 0 0 386 243c-2.31-.798-4.623-1.588-6.938-2.375l-1.939-.672A218.608 218.608 0 0 0 371 238l-2.143-.71c-6.44-1.841-11.125-.605-17.357 1.523Z" fill="#0069FB"/><path d="m272.858 200.886 2.396.016 2.588.01 2.72.025 2.733.014c2.235.012 4.47.028 6.705.049.042 2.333.04 4.667 0 7-1 1-1 1-3.941 1.098L276 209v20h14v8h-14l.016 5.308c.016 5.776.027 11.551.036 17.327.005 3.503.012 7.006.023 10.51.013 4.023.018 8.046.023 12.07l.015 3.829v3.518l.007 3.116C276 295 276 295 275 296h-9v-59h-11v-8h11l-.14-4.383c-.038-1.914-.075-3.828-.11-5.742l-.102-2.883c-.083-6.032.382-9.37 4.352-13.992 1-1 1-1 2.858-1.114Z" fill="#02102C"/><path d="M303 201h9v86h9c1 1 1 1 1.098 2.848L322 296c-2.062.082-4.125.14-6.188.188l-3.48.105c-3.636-.32-5.443-1.111-8.332-3.293-1.637-3.273-1.129-6.892-1.114-10.489v-2.66c0-2.912.009-5.823.016-8.734l.005-6.045c.003-5.31.013-10.62.024-15.93.01-5.416.015-10.832.02-16.247.01-10.632.028-21.263.049-31.895Z" fill="#021230"/><path d="M232 229h9v67h-9v-67Z" fill="#021130"/><path d="M241 202c1.529 3.46 2.257 5.213 1.063 8.875C240 213 240 213 236.5 213.5c-3.5-.5-3.5-.5-5.5-1.563-1.634-3.165-.853-5.587 0-8.937 3.85-2.567 5.586-1.833 10-1Z" fill="#02102E"/></svg>