<?xml version="1.0" encoding="utf-8"?>
<svg version="1.1" xmlns="http://www.w3.org/2000/svg" x="0px" y="0px"
	 viewBox="0 0 459.8 459.8" enable-background="new 0 0 459.8 459.8" xml:space="preserve">
<path fill="#FFFFFF" d="M444.6,406.3c0,21.2-17.1,38.3-38.3,38.3H53.5c-21.2,0-38.3-17.2-38.3-38.3V53.5
	c0-21.2,17.2-38.3,38.3-38.3h352.8c21.2,0,38.3,17.2,38.3,38.3V406.3L444.6,406.3z"/>
<polygon fill="#221F1F" points="25.5,417.3 443.9,300.4 436.2,270.4 17.8,387.3 25.5,417.3 "/>
<path fill="#221F1F" d="M405.7,31c6.1,0,11.9,2.4,16.3,6.8c4.4,4.4,6.8,10.2,6.8,16.3v352.2c0,6.1-2.4,11.9-6.8,16.3
	c-4.4,4.4-10.2,6.8-16.3,6.8H53.5c-6.1,0-11.9-2.4-16.3-6.8c-4.4-4.4-6.8-10.2-6.8-16.3V54c0-6.1,2.4-11.9,6.8-16.3
	c4.4-4.4,10.2-6.8,16.3-6.8H405.7 M405.7,0H53.5C23.8,0-0.5,24.3-0.5,54v352.2c0,29.7,24.3,54.1,54.1,54.1h352.2
	c29.7,0,54.1-24.3,54.1-54.1V54C459.8,24.3,435.4,0,405.7,0L405.7,0z"/>
<path fill="#CF202F" d="M69.3,89.9c5.5-7,17.2-13.7,25.5-17c52.6-38.7,77.4-1.6,113.1,41.8
	c64,40.8,88.2,109.7,118.7,187.4c20.3,22.2,25,31.8,45.4,54.2c-2.3,1.3-5.8,0.8-9.6-0.7c10.3,11.6,22.4,28.3,27.1,41.7
	c-7.6-1.9-15.1-7.6-21.8-14.8c7,15.2,14.2,34.7,10.9,40.5c-3.2,1.2-6.5-1.9-9.9-7.3c-0.2,4.9-0.9,9-1.5,11.9c-4.4,0-6.9-3.3-8.8-9.8
	c-17.3-51-58.1-87.5-92.1-111.7c-0.3,6.3,0.2,12.9,2.6,21c0.3,4.8,2,16.1-1.3,18.6c-0.1-6.9-4.2-19.4-7.3-25.5
	c-3.9,9.5-9.8,34.8-15.5,33.1c-1.9,3.5-3.3,9.9-1.9,14.1c-3.3-2.4-3.6-11.1-1.6-16.3c-2.4-1,6.6-16.1,5.5-21.9
	c-4,5.9-4.9,7.2-7.9,11.7c-0.3-6.3,4.1-15.6,7.9-20.6c7.1-4.8,11.8-10.7,14.4-17.6c-2.8-2-5.6-3.8-8.2-5.6
	c-15.9,1.5-35.6,0.1-53.5-5.2c1.5,4.5,0.7,10-8.8,16.1c-9.1,9.2-15.8,18.4-23.4,30.4c-0.3,0.7-1,1.8-1,3.6
	c0.9,5.6,3.2,27.2,3.4,32.8c-2.2-5-6.7-18.9-8.6-24.1c-5.9,7.7-9.8,19.8-12.7,29.7c-0.9,1.5-2.2,1.7-3.5,1.7
	c-1.4,4.2-2.4,10.5-1.3,14.7c-2-4.4-3.9-12.1-2.1-16.8c-0.2-0.3-0.2-1.2-0.1-2.3c1.4-6.4,4.5-13.6,7.1-19.8
	c-3.5,2.5-6.3,6.3-7.7,11.9c-2.2-6.5,1.7-19.1,9.4-24.5c14.1-11.1,23.8-27.4,33.3-41.6c-2.6-5.8-3.3-12.8-3.4-19.6
	c-2.1-1.1-4.2-2.4-6.2-3.7c-44.9-36.1-63.7-74.6-66.7-149.8c-7.7-6.2-13.4-16.9-12.6-27.7C87.9,98.8,75.6,94.5,69.3,89.9L69.3,89.9z
	"/>
</svg>
