<svg width="1203" height="797" viewBox="0 0 1203 797" fill="none" xmlns="http://www.w3.org/2000/svg">
<path fill-rule="evenodd" clip-rule="evenodd" d="M15.8217 794.387C11.6716 794.387 7.60876 792.749 4.66914 789.753C1.64307 786.757 0 782.723 0 778.529V31.7561C0 14.2202 14.1797 0 31.731 0H489.793C501.119 0 511.58 6.07157 517.286 15.898L556.106 83.2053C561.813 93.0318 561.813 105.135 556.106 114.962L397.713 389.264C394.946 394.177 394.946 400.249 397.713 405.162L608.761 770.58C611.614 775.493 611.614 781.565 608.761 786.478C605.908 791.391 600.633 794.387 595.013 794.387H526.451C515.039 794.387 504.577 788.355 498.957 778.529L287.91 413.072C282.29 403.245 282.29 391.142 287.91 381.355L437.139 122.871C439.992 117.958 439.992 111.926 437.139 107.013C434.286 102.1 429.098 99.0634 423.391 99.0634H114.905C110.755 99.0634 106.691 100.741 103.751 103.737C100.725 106.693 99.0821 110.728 99.0821 114.962V778.529C99.0821 782.723 97.3536 786.757 94.414 789.753C91.4744 792.749 87.4104 794.387 83.1739 794.387H15.8217ZM877.045 25.485C874.191 20.5717 874.191 14.5401 877.045 9.62689C879.811 4.71365 885.085 1.67787 890.705 1.67787H959.353C970.679 1.67787 981.141 7.74944 986.848 17.5759L1197.81 382.993C1203.52 392.82 1203.52 404.923 1197.81 414.749L986.848 780.206C981.141 790.033 970.679 796.065 959.353 796.065H890.705C885.085 796.065 879.811 793.029 877.045 788.115C874.191 783.242 874.191 777.17 877.045 772.257L1088 406.8C1090.86 401.887 1090.86 395.855 1088 390.942L877.045 25.485Z" fill="#ED1651"/>
</svg>
