<svg width="35" height="35" viewBox="0 0 35 35" fill="none" xmlns="http://www.w3.org/2000/svg">
<path d="M34.8095 0.0800781H0V34.8896H34.8095V0.0800781Z" fill="#F6143F"/>
<path d="M19.9053 25.1271V9.94824H22.764V22.7109H29.1984V25.1271H19.9053Z" fill="white"/>
<path d="M5.16895 25.1267L8.7446 18.9401C7.12494 18.2498 6.12482 17.0461 6.12482 14.7361V14.5945C6.12482 10.594 9.15173 9.85938 12.807 9.85938C14.3382 9.85938 15.71 9.90363 17.0553 9.95673V25.1356H14.2762V19.542H12.869C12.3999 19.542 11.9485 19.542 11.5414 19.5243L8.19586 25.1444H5.16895V25.1267ZM8.93046 14.7538C8.93046 16.7186 10.0987 17.2674 12.7097 17.2674C13.2407 17.2674 13.7541 17.2674 14.2851 17.2497V12.2667C10.5678 12.2667 8.93046 12.2844 8.93046 14.6387V14.7626V14.7538Z" fill="white"/>
</svg>
