<svg xmlns="http://www.w3.org/2000/svg" viewBox="0 0 137.96 227.31"><defs><style>.cls-1{fill:none;}.cls-2{fill:#8cc63f;}.cls-3{fill:#fff;}</style></defs><g id="0980048d-0625-42a2-a67b-51fc6f95f853" ><g id="58df8d22-864e-4de7-a48b-7058d26c8047"><path d="M138,200.65V190.5a51.85,51.85,0,0,1-4.37,12.64A29.62,29.62,0,0,0,138,200.65Z"/><path d="M9.08,227.31h8.1a13.42,13.42,0,0,1,2.45-3.75C16.25,223.17,12.69,224.94,9.08,227.31Z"/><path class="cls-1" d="M120.51,188.26c-.7-.72-2.1-2.21-3.71-3.75a130.29,130.29,0,0,1-11.58,10.57c2.76-4.67,6.47-10.29,8.15-13.55-1.52-1.16-2.94-2-3.89-1.85l-1.43.15-1.1-1c-.84-.72-1.69-1.47-2.53-2.25a73.38,73.38,0,0,0-8.57,9.84,26.22,26.22,0,0,1,5.69-1.25A152.83,152.83,0,0,0,90.11,205a89.64,89.64,0,0,1-11.83,11.62,98.93,98.93,0,0,0,17.34-9.41,32.11,32.11,0,0,1-1.88,5.4,63,63,0,0,1,15-11.58,57.58,57.58,0,0,0-5.65,9,20.2,20.2,0,0,1,10.67-5,85.64,85.64,0,0,0,13-10.78A65.79,65.79,0,0,1,120.51,188.26Z"/><path class="cls-1" d="M56.11,216.71a314.42,314.42,0,0,1,31.47-13.93,83.53,83.53,0,0,1,8.34-14,87.78,87.78,0,0,0-11.75,6.37,216.05,216.05,0,0,1,15.24-20.29,61.68,61.68,0,0,1-8.78,2,109.53,109.53,0,0,0,3.24-12A130.71,130.71,0,0,1,82.12,178.1c-2.41,2.41-5.62,3.5-8.71,4.66-1.81.69-4.24,1.6-5.56,3.11a167.86,167.86,0,0,1-16.26,16.72c-6,5.22-12.14,12.19-17.78,18a190,190,0,0,1,21.68-11.91,30.77,30.77,0,0,0-3.23,5.63,195.08,195.08,0,0,1,24.92-21A233,233,0,0,0,56.11,216.71Z"/><path class="cls-2" d="M0,0V227.31H.05c5.68-5.8,11.4-11,17.42-12.6a109,109,0,0,0,22-22.62c4.07,1.71,5.82,5.33,10,7.83a163.39,163.39,0,0,0,15.92-16.38c3.61-4.14,10.8-4.3,14.43-7.94A115,115,0,0,0,94,158.84a78,78,0,0,0,15.15,17.37c5.91-.64,13.44,10.27,20.36,15.82a61.87,61.87,0,0,0,8.28-7.32,2.83,2.83,0,0,1,.2.28V0Z"/><path d="M129.48,192c-6.92-5.55-14.45-16.46-20.36-15.82A78,78,0,0,1,94,158.84,115,115,0,0,1,79.76,175.6c-3.63,3.64-10.82,3.8-14.43,7.94a163.39,163.39,0,0,1-15.92,16.38c-4.14-2.5-5.89-6.12-10-7.83a109,109,0,0,1-22,22.62c-6,1.59-11.74,6.8-17.42,12.6H4.88c4.14-4,8.93-8,13.43-9.22l.66-.18.55-.42a115.38,115.38,0,0,0,20.83-20.83,44.93,44.93,0,0,1-2.47,10.76,10.5,10.5,0,0,1,4.25-1.57,52,52,0,0,0-7.71,10.47c-5.58.51-10.93,5.11-16.21,11H138V204.18a53.14,53.14,0,0,1-2.84,6.7c-6,4-12.36,7.84-18.74,11.72a123.65,123.65,0,0,0,9.32-11,164.18,164.18,0,0,1-17,11.25,34.74,34.74,0,0,0,2.51-6.55,177.28,177.28,0,0,1-19.09,9.08A177.63,177.63,0,0,0,111.45,210l4.3-.64A240.76,240.76,0,0,0,138,190.43V185a2.83,2.83,0,0,0-.2-.28A61.87,61.87,0,0,1,129.48,192ZM52.26,214.31a30.77,30.77,0,0,1,3.23-5.63,190,190,0,0,0-21.68,11.91c5.64-5.81,11.76-12.78,17.78-18a167.86,167.86,0,0,0,16.26-16.72c1.32-1.51,3.75-2.42,5.56-3.11,3.09-1.16,6.3-2.25,8.71-4.66a130.71,130.71,0,0,0,11.75-13.26,109.53,109.53,0,0,1-3.24,12,61.68,61.68,0,0,0,8.78-2,216.05,216.05,0,0,0-15.24,20.29,87.78,87.78,0,0,1,11.75-6.37,83.53,83.53,0,0,0-8.34,14,314.42,314.42,0,0,0-31.47,13.93,233,233,0,0,1,21.07-23.43A195.08,195.08,0,0,0,52.26,214.31ZM113.73,205a20.2,20.2,0,0,0-10.67,5,57.58,57.58,0,0,1,5.65-9,63,63,0,0,0-15,11.58,32.11,32.11,0,0,0,1.88-5.4,98.93,98.93,0,0,1-17.34,9.41A89.64,89.64,0,0,0,90.11,205a152.83,152.83,0,0,1,11.43-19.74,26.22,26.22,0,0,0-5.69,1.25,73.38,73.38,0,0,1,8.57-9.84c.84.78,1.69,1.53,2.53,2.25l1.1,1,1.43-.15c1-.11,2.37.69,3.89,1.85-1.68,3.26-5.39,8.88-8.15,13.55a130.29,130.29,0,0,0,11.58-10.57c1.61,1.54,3,3,3.71,3.75a65.79,65.79,0,0,0,6.2,6A85.64,85.64,0,0,1,113.73,205Z"/><path class="cls-3" d="M120.51,188.26c-.7-.72-2.1-2.21-3.71-3.75a130.29,130.29,0,0,1-11.58,10.57c2.76-4.67,6.47-10.29,8.15-13.55-1.52-1.16-2.94-2-3.89-1.85l-1.43.15-1.1-1c-.84-.72-1.69-1.47-2.53-2.25a73.38,73.38,0,0,0-8.57,9.84,26.22,26.22,0,0,1,5.69-1.25A152.83,152.83,0,0,0,90.11,205a89.64,89.64,0,0,1-11.83,11.62,98.93,98.93,0,0,0,17.34-9.41,32.11,32.11,0,0,1-1.88,5.4,63,63,0,0,1,15-11.58,57.58,57.58,0,0,0-5.65,9,20.2,20.2,0,0,1,10.67-5,85.64,85.64,0,0,0,13-10.78A65.79,65.79,0,0,1,120.51,188.26Z"/><path class="cls-3" d="M56.11,216.71a314.42,314.42,0,0,1,31.47-13.93,83.53,83.53,0,0,1,8.34-14,87.78,87.78,0,0,0-11.75,6.37,216.05,216.05,0,0,1,15.24-20.29,61.68,61.68,0,0,1-8.78,2,109.53,109.53,0,0,0,3.24-12A130.71,130.71,0,0,1,82.12,178.1c-2.41,2.41-5.62,3.5-8.71,4.66-1.81.69-4.24,1.6-5.56,3.11a167.86,167.86,0,0,1-16.26,16.72c-6,5.22-12.14,12.19-17.78,18a190,190,0,0,1,21.68-11.91,30.77,30.77,0,0,0-3.23,5.63,195.08,195.08,0,0,1,24.92-21A233,233,0,0,0,56.11,216.71Z"/><path class="cls-3" d="M34.42,216.32a52,52,0,0,1,7.71-10.47,10.5,10.5,0,0,0-4.25,1.57,44.93,44.93,0,0,0,2.47-10.76,115.38,115.38,0,0,1-20.83,20.83l-.55.42-.66.18c-4.5,1.19-9.29,5.18-13.43,9.22h4.2c3.61-2.37,7.17-4.14,10.55-3.75a13.42,13.42,0,0,0-2.45,3.75h1C23.49,221.43,28.84,216.83,34.42,216.32Z"/><path class="cls-3" d="M111.45,210A177.63,177.63,0,0,1,92.09,225.4a177.28,177.28,0,0,0,19.09-9.08,34.74,34.74,0,0,1-2.51,6.55,164.18,164.18,0,0,0,17-11.25,123.65,123.65,0,0,1-9.32,11c6.38-3.88,12.71-7.77,18.74-11.72a53.14,53.14,0,0,0,2.84-6.7v-3.53a29.62,29.62,0,0,1-4.37,2.49A51.85,51.85,0,0,0,138,190.5v-.07a240.76,240.76,0,0,1-22.21,18.89Z"/><path d="M49.84,131.74l-2.66-3.82-.51,0H43.73v3.8H41.31v-13h5.36a7.3,7.3,0,0,1,3,.56,4.23,4.23,0,0,1,1.92,1.6,4.89,4.89,0,0,1,0,5,4.24,4.24,0,0,1-2.06,1.58l3,4.29ZM49,121.42a3.67,3.67,0,0,0-2.4-.67H43.73v5.19h2.83a3.62,3.62,0,0,0,2.4-.68,2.66,2.66,0,0,0,0-3.84Z"/><path d="M54.55,118.7H57v13H54.55Z"/><path d="M59.37,118.7h5.7a8.2,8.2,0,0,1,3.71.81,6,6,0,0,1,2.52,2.29,7,7,0,0,1,0,6.84,6.08,6.08,0,0,1-2.52,2.29,8.2,8.2,0,0,1-3.71.81h-5.7Zm5.59,11a5.51,5.51,0,0,0,2.53-.55,4,4,0,0,0,1.67-1.57,5,5,0,0,0,0-4.71,3.88,3.88,0,0,0-1.67-1.56,5.51,5.51,0,0,0-2.53-.55H61.8v8.94Z"/><path d="M82.92,125.07h2.29v5.19a7,7,0,0,1-2.35,1.23,8.85,8.85,0,0,1-2.76.43,7.53,7.53,0,0,1-3.59-.86,6.37,6.37,0,0,1-2.51-2.4,6.91,6.91,0,0,1,0-6.89,6.38,6.38,0,0,1,2.52-2.39,7.48,7.48,0,0,1,3.62-.87,7.91,7.91,0,0,1,3,.54,5.8,5.8,0,0,1,2.26,1.59l-1.53,1.49a4.87,4.87,0,0,0-3.6-1.49,5.08,5.08,0,0,0-2.44.57,4.23,4.23,0,0,0-1.68,1.62,4.72,4.72,0,0,0-.61,2.39,4.65,4.65,0,0,0,.61,2.35,4.25,4.25,0,0,0,1.68,1.63,4.85,4.85,0,0,0,2.42.6,5.24,5.24,0,0,0,2.69-.67Z"/><path d="M97.43,129.71v2H87.65v-13h9.52v2h-7.1v3.39h6.29v2H90.07v3.6Z"/><path d="M46.87,142a3,3,0,0,1-1.09-.56l.41-.92a3.24,3.24,0,0,0,1,.51,3.55,3.55,0,0,0,1.15.19,1.9,1.9,0,0,0,1.06-.23.69.69,0,0,0,.35-.6.58.58,0,0,0-.19-.45,1.51,1.51,0,0,0-.5-.28c-.2-.06-.48-.14-.82-.22A9.24,9.24,0,0,1,47,139a2.11,2.11,0,0,1-.78-.54,1.5,1.5,0,0,1-.32-1,1.64,1.64,0,0,1,.29-1,1.94,1.94,0,0,1,.86-.69,3.53,3.53,0,0,1,1.42-.26,4.48,4.48,0,0,1,1.15.15,3.31,3.31,0,0,1,1,.42l-.37.92a3.57,3.57,0,0,0-.88-.37,3,3,0,0,0-.88-.13,1.82,1.82,0,0,0-1,.24.7.7,0,0,0-.34.62.55.55,0,0,0,.19.45,1.26,1.26,0,0,0,.5.27,7.7,7.7,0,0,0,.82.23,10.09,10.09,0,0,1,1.16.34,1.88,1.88,0,0,1,.78.55,1.4,1.4,0,0,1,.33,1,1.72,1.72,0,0,1-.29,1,2,2,0,0,1-.87.68,3.53,3.53,0,0,1-1.42.26A4.9,4.9,0,0,1,46.87,142Z"/><path d="M57.11,141.07v1H52.33v-6.37H57v1H53.51v1.66h3.08v1H53.51v1.76Z"/><path d="M59.37,141.73a3.05,3.05,0,0,1-1.22-1.17A3.26,3.26,0,0,1,59.37,136a3.78,3.78,0,0,1,3.18-.15,2.79,2.79,0,0,1,1.09.79l-.76.72a2.22,2.22,0,0,0-1.7-.75,2.43,2.43,0,0,0-1.18.29,2,2,0,0,0-.81.8,2.45,2.45,0,0,0,0,2.31,2,2,0,0,0,.81.8,2.43,2.43,0,0,0,1.18.29,2.23,2.23,0,0,0,1.7-.76l.76.73a2.79,2.79,0,0,1-1.09.79,3.77,3.77,0,0,1-1.44.28A3.62,3.62,0,0,1,59.37,141.73Z"/><path d="M65.19,141.41a2.87,2.87,0,0,1-.73-2.12v-3.6h1.18v3.55c0,1.25.54,1.88,1.62,1.88s1.62-.63,1.62-1.88v-3.55H70v3.6a2.87,2.87,0,0,1-.73,2.12,3.2,3.2,0,0,1-4.12,0Z"/><path d="M75.6,142.06l-1.3-1.86H72.61v1.85H71.43v-6.37h2.62a3.61,3.61,0,0,1,1.45.27,2.08,2.08,0,0,1,.94.78,2.2,2.2,0,0,1,.33,1.22,2.15,2.15,0,0,1-.35,1.23,2.1,2.1,0,0,1-1,.78l1.47,2.09Zm-.43-5a1.79,1.79,0,0,0-1.17-.33H72.61v2.54H74a1.79,1.79,0,0,0,1.17-.33,1.15,1.15,0,0,0,.4-.94A1.14,1.14,0,0,0,75.17,137Z"/><path d="M78.18,135.69h1.19v6.37H78.18Z"/><path d="M82.66,136.69H80.54v-1H86v1H83.84v5.37H82.66Z"/><path d="M90.05,139.81v2.25H88.87v-2.23l-2.51-4.14h1.27l1.87,3.1,1.88-3.1h1.17Z"/><path d="M67.64,87.51H58.79V98.77H42.56V56.41H68.79a43,43,0,0,1,13.52,1.91,19.82,19.82,0,0,1,8.85,5.44,12.23,12.23,0,0,1,3.11,8.32,12,12,0,0,1-2.91,8A19,19,0,0,1,83,85.45L95.42,98.77H78.05Zm7.7-20c-1.69-1.08-4.21-1.63-7.54-1.63h-9v12.4h9c3.33,0,5.85-.53,7.54-1.6a5.11,5.11,0,0,0,2.54-4.57A5.19,5.19,0,0,0,75.34,67.48Z"/><rect x="39.29" y="103.76" width="59.39" height="9.91"/></g></g></svg>