<svg width="154" height="56" viewBox="0 0 154 56" fill="none" xmlns="http://www.w3.org/2000/svg">
<path d="M74.112 23.2563C65.5128 20.9452 62.1559 18.9922 62.1559 15.049C62.1559 9.07212 69.8498 8.49288 72.6061 8.49288C76.9401 8.49288 82.4515 9.87311 85.7135 11.4745L89.1712 5.01028C84.7667 2.84744 78.0197 1.39844 72.3766 1.39844C60.3684 1.39844 52.8512 6.59684 52.8512 15.4865C52.8512 25.6397 63.4537 28.5074 71.6966 30.7165C80.2815 33.0246 83.2762 35.6262 83.2762 39.5718C83.2762 46.1481 76.26 47.1738 71.9177 47.1738C65.9557 47.1738 61.0342 45.5908 56.2241 42.7669L52.119 49.3805C58.1878 52.9384 64.4818 54.5984 71.9177 54.5984C84.3375 54.5984 92.5862 48.484 92.5862 39.0175C92.5862 28.4493 82.5499 25.5229 74.112 23.2563ZM41.7578 17.4407C41.6256 8.53379 34.2762 2.31859 23.8788 2.31859H1.39844V53.3154H9.58675V9.76402H23.4122C28.0432 9.76402 33.0216 12.0567 33.1029 17.5498C33.1746 22.4363 29.3333 25.4926 22.824 25.7541L22.6966 25.763L17.7389 25.8045L34.2483 53.3996L43.92 53.3812C43.92 53.3812 35.9772 40.0384 30.9946 31.6669C38.3303 29.0641 41.8402 23.3061 41.7578 17.4407ZM153.099 53.3812L143.089 53.3996L124.946 13.6184L107.562 53.3996H97.4906L120.339 2.66721L129.731 2.66069L153.099 53.3812Z" fill="#BE3A34"/>
<path d="M148.852 5.75467C149.012 5.75467 149.164 5.74781 149.311 5.73547C149.457 5.7245 149.586 5.68885 149.695 5.63126C149.803 5.57367 149.892 5.49415 149.959 5.39131C150.026 5.2871 150.06 5.14175 150.06 4.95253C150.06 4.79622 150.025 4.67281 149.952 4.58368C149.881 4.49181 149.791 4.42188 149.682 4.37252C149.572 4.32316 149.452 4.29299 149.318 4.28065C149.184 4.26831 149.054 4.26146 148.928 4.26146H147.897V5.75467H148.852ZM147.897 8.65471H147.041V3.5457H149.016C149.645 3.5457 150.118 3.66225 150.437 3.89124C150.755 4.12297 150.913 4.49593 150.913 5.01423C150.913 5.47495 150.785 5.81226 150.525 6.02616C150.265 6.24144 149.942 6.36759 149.557 6.41009L151.015 8.65471H150.047L148.7 6.4718H147.897V8.65471ZM152.423 6.01519C152.423 5.45438 152.332 4.94019 152.147 4.47262C151.961 4.0023 151.707 3.59918 151.379 3.26187C151.053 2.92593 150.672 2.66266 150.236 2.47755C149.8 2.29382 149.33 2.20058 148.827 2.20058C148.316 2.20058 147.839 2.29382 147.401 2.47755C146.959 2.66266 146.576 2.92593 146.249 3.26187C145.922 3.59918 145.666 4.0023 145.482 4.47262C145.298 4.94019 145.204 5.45438 145.204 6.01519C145.204 6.54035 145.289 7.03535 145.457 7.49606C145.624 7.95678 145.865 8.35991 146.181 8.70544C146.494 9.04961 146.874 9.32385 147.318 9.52541C147.762 9.72697 148.265 9.82707 148.827 9.82707C149.33 9.82707 149.8 9.73383 150.236 9.55009C150.672 9.36498 151.053 9.10446 151.379 8.76578C151.707 8.42847 151.961 8.02671 152.147 7.56188C152.332 7.09842 152.423 6.58286 152.423 6.01519ZM153.43 6.01519C153.43 6.7049 153.306 7.33427 153.06 7.9033C152.812 8.47097 152.477 8.955 152.054 9.35813C151.629 9.76125 151.14 10.0753 150.581 10.2974C150.025 10.5181 149.439 10.6292 148.827 10.6292C148.148 10.6292 147.526 10.5127 146.959 10.2782C146.393 10.0437 145.907 9.72149 145.5 9.30876C145.094 8.89741 144.775 8.41064 144.546 7.84709C144.315 7.28216 144.199 6.67199 144.199 6.01519C144.199 5.32412 144.324 4.69475 144.57 4.12708C144.817 3.55941 145.152 3.07265 145.576 2.66952C145.999 2.26639 146.491 1.95514 147.054 1.733C147.616 1.5095 148.207 1.39844 148.827 1.39844C149.439 1.39844 150.025 1.5095 150.581 1.733C151.14 1.95514 151.629 2.26639 152.054 2.66952C152.477 3.07265 152.812 3.55941 153.06 4.12708C153.306 4.69475 153.43 5.32412 153.43 6.01519Z" fill="#BE3A34"/>
</svg>
