<?xml version="1.0" encoding="utf-8"?>
<svg version="1.1" id="7b1d9682-97ab-494c-9830-ab409057687b" xmlns="http://www.w3.org/2000/svg" x="0px" y="0px"
	 viewBox="0 0 75 75" enable-background="new 0 0 75 75" xml:space="preserve">
<path fill="#00B2A9" d="M38.9,5.5c-0.6-0.6-1.9-0.7-2.7,0l-8.4,8.4c-0.6,0.6-0.7,1.9,0,2.7l8.4,8.4c0.6,0.6,1.9,0.7,2.7,0l8.4-8.4
	c0.6-0.6,0.7-1.9,0-2.7L38.9,5.5z"/>
<path fill="#00B2A9" d="M16.6,27.8c-0.6-0.6-1.9-0.7-2.7,0l-8.4,8.4c-0.6,0.6-0.7,1.9,0,2.7l8.4,8.4c0.6,0.6,1.9,0.7,2.7,0l8.4-8.4
	c0.6-0.6,0.7-1.9,0-2.7L16.6,27.8z"/>
<path fill="#00B2A9" d="M26.3,61.3c0-0.6-0.3-0.9-0.9-0.3l-4.1,4.1c-0.6,0.6-0.3,1.3,0.3,1.6l3.5,1.6c0.6,0.3,1.3,0,1.3-0.9
	C26.3,67.3,26.3,61.3,26.3,61.3z"/>
<path fill="#00B2A9" d="M53.4,66.4c0.6-0.3,0.9-1.3,0.3-1.6l-4.1-4.1c-0.6-0.6-0.9-0.3-0.9,0.3v6.3c0,0.6,0.6,1.3,1.3,0.9L53.4,66.4z"
	/>
<path fill="#00B2A9" d="M66.7,21.6c-0.3-0.6-1.3-0.9-1.6-0.3L61,25.4c-0.6,0.6-0.3,0.9,0.3,0.9h6c0.6,0,1.3-0.6,0.9-1.3L66.7,21.6z"/>
<path fill="#00B2A9" d="M53.8,9.9c0.6-0.6,0.3-1.3-0.3-1.6L50,6.7c-0.6-0.3-1.3,0-1.3,0.9v6c0,0.6,0.3,0.9,0.9,0.3L53.8,9.9z"/>
<path fill="#00B2A9" d="M9.9,21.3c-0.6-0.6-1.3-0.3-1.6,0.3L6.7,25c-0.3,0.6,0,1.3,0.9,1.3h6c0.6,0,0.9-0.3,0.3-0.9L9.9,21.3z"/>
<path fill="#00B2A9" d="M58.2,26.3c0.6,0,1.3-0.6,1.3-1.3v-8.2c0-0.6-0.6-1.3-1.3-1.3H50c-0.6,0-1.3,0.6-1.3,1.3V25
	c0,0.6,0.6,1.3,1.3,1.3H58.2z"/>
<path fill="#00B2A9" d="M61.2,27.8c-0.6-0.6-1.9-0.7-2.7,0l-8.4,8.4c-0.6,0.6-0.7,1.9,0,2.7l8.4,8.4c0.6,0.6,1.9,0.7,2.7,0l8.4-8.4
	c0.6-0.6,0.7-1.9,0-2.7L61.2,27.8z"/>
<path fill="#00B2A9" d="M38.9,50c-0.6-0.6-1.9-0.7-2.7,0l-8.4,8.4c-0.6,0.6-0.7,1.9,0,2.7l8.4,8.4c0.6,0.6,1.9,0.7,2.7,0l8.4-8.4
	c0.6-0.6,0.7-1.9,0-2.7L38.9,50z"/>
<path fill="#00B2A9" d="M58.2,59.4c0.6,0,1.3-0.6,1.3-1.3v-8.2c0-0.6-0.6-1.3-1.3-1.3H50c-0.6,0-1.3,0.6-1.3,1.3v8.2
	c0,0.6,0.6,1.3,1.3,1.3H58.2z"/>
<path fill="#00B2A9" d="M26.3,7.4c0-0.6-0.6-1.3-1.3-0.9L21.6,8c-0.6,0.3-0.9,1.3-0.3,1.6l4.1,4.1c0.6,0.6,0.9,0.3,0.9-0.3
	C26.3,13.4,26.3,7.4,26.3,7.4z"/>
<path fill="#00B2A9" d="M68.3,49.6c0.3-0.6,0-1.3-0.9-1.3h-6c-0.6,0-0.9,0.3-0.3,0.9l4.1,4.1c0.6,0.6,1.3,0.3,1.6-0.3L68.3,49.6z"/>
<path fill="#00B2A9" d="M24.9,26.2c0.6,0,1.3-0.6,1.3-1.3v-8.2c0-0.6-0.6-1.3-1.3-1.3H17c-0.6,0-1.3,0.6-1.3,1.3v8.2
	c0,0.6,0.6,1.3,1.3,1.3H24.9z"/>
<path fill="#00B2A9" d="M24.9,59.5c0.6,0,1.3-0.6,1.3-1.3V50c0-0.6-0.6-1.3-1.3-1.3H17c-0.6,0-1.3,0.6-1.3,1.3v8.2
	c0,0.6,0.6,1.3,1.3,1.3H24.9z"/>
<path fill="#00B2A9" d="M14,49.3c0.6-0.3,0.3-0.9-0.3-0.9h-6c-0.6,0-1.3,0.6-0.9,1.3l1.6,3.5c0.3,0.6,1.3,0.9,1.6,0.3L14,49.3z"/>
</svg>
