<svg width="75" height="75" fill="none" xmlns="http://www.w3.org/2000/svg"><mask id="a" maskUnits="userSpaceOnUse" x="0" y="12" width="75" height="53"><path d="M.016 12.137H74.77v52.32H.016v-52.32z" fill="#fff"/></mask><g mask="url(#a)" fill-rule="evenodd" clip-rule="evenodd"><path d="M31.115 17.845c2.411-2.512 5.768-4.07 9.481-4.07 4.936 0 9.243 2.752 11.535 6.838a15.934 15.934 0 016.52-1.386c8.902 0 16.12 7.28 16.12 16.26 0 8.981-7.218 16.261-16.12 16.261-1.087 0-2.149-.109-3.175-.316-2.02 3.601-5.868 6.035-10.285 6.035a11.722 11.722 0 01-5.155-1.186c-2.047 4.815-6.817 8.192-12.375 8.192-5.79 0-10.723-3.663-12.616-8.8a12.39 12.39 0 01-2.565.267C5.587 55.94 0 50.295 0 43.33c0-4.667 2.51-8.742 6.24-10.922a14.437 14.437 0 01-1.194-5.768c0-8.01 6.501-14.503 14.522-14.503 4.709 0 8.893 2.239 11.547 5.708" fill="#00A1E0"/><path d="M10.83 39.277c-.047.123.016.148.031.17.14.102.284.175.428.258.762.404 1.482.522 2.235.522 1.534 0 2.487-.815 2.487-2.129v-.025c0-1.215-1.076-1.656-2.084-1.974l-.131-.043c-.76-.247-1.417-.46-1.417-.96v-.026c0-.43.384-.744.978-.744.66 0 1.444.22 1.949.498 0 0 .149.096.203-.048.03-.077.284-.765.312-.84.029-.08-.022-.14-.075-.172-.577-.351-1.373-.59-2.197-.59h-.153c-1.404 0-2.385.85-2.385 2.064v.026c0 1.28 1.082 1.697 2.095 1.986l.162.05c.738.227 1.375.423 1.375.942v.025c0 .476-.414.829-1.08.829a3.62 3.62 0 01-1.976-.569c-.108-.063-.17-.108-.253-.159-.044-.026-.154-.075-.202.07l-.302.84zm22.453 0c-.047.123.017.148.032.17.14.102.283.175.427.258.762.404 1.483.522 2.236.522 1.533 0 2.486-.815 2.486-2.129v-.025c0-1.215-1.075-1.656-2.083-1.974l-.132-.043c-.76-.247-1.416-.46-1.416-.96v-.026c0-.43.384-.744.978-.744.66 0 1.443.22 1.948.498 0 0 .149.096.203-.048.03-.077.285-.765.312-.84.03-.08-.022-.14-.074-.172-.577-.351-1.373-.59-2.198-.59h-.153c-1.404 0-2.384.85-2.384 2.064v.026c0 1.28 1.081 1.697 2.094 1.986l.163.05c.738.227 1.375.423 1.375.942v.025c0 .476-.415.829-1.08.829a3.62 3.62 0 01-1.977-.569c-.108-.063-.17-.106-.253-.159-.027-.017-.157-.068-.201.07l-.303.84zm15.328-2.572c0 .742-.138 1.327-.41 1.74-.27.41-.678.609-1.247.609-.57 0-.975-.2-1.241-.608-.269-.413-.405-1-.405-1.741 0-.741.136-1.325.405-1.734.266-.405.672-.602 1.24-.602.57 0 .977.197 1.248.602.272.409.41.993.41 1.734zm1.281-1.376a3.091 3.091 0 00-.583-1.112 2.81 2.81 0 00-.983-.748c-.391-.182-.853-.275-1.372-.275-.52 0-.982.093-1.373.275a2.81 2.81 0 00-.984.748c-.26.313-.456.687-.582 1.112a4.849 4.849 0 00-.188 1.376c0 .49.063.954.188 1.375.126.425.322.8.583 1.113.261.313.593.563.983.741.392.178.854.269 1.373.269s.98-.09 1.371-.269a2.75 2.75 0 00.984-.741c.261-.313.457-.688.583-1.113a4.86 4.86 0 00.188-1.375c0-.49-.063-.953-.188-1.376zm10.513 3.526c-.042-.124-.163-.077-.163-.077a2.928 2.928 0 01-.596.17c-.213.033-.449.05-.702.05-.619 0-1.112-.184-1.464-.549-.353-.364-.552-.953-.55-1.75.002-.724.178-1.27.492-1.686.312-.413.787-.625 1.42-.625.528 0 .931.061 1.354.194 0 0 .1.043.148-.089.112-.311.195-.532.315-.875.034-.097-.05-.138-.08-.15a5.002 5.002 0 00-.854-.216 6.446 6.446 0 00-.96-.064c-.538 0-1.017.092-1.427.274a2.962 2.962 0 00-1.031.747 3.155 3.155 0 00-.623 1.112 4.411 4.411 0 00-.209 1.379c0 1.061.286 1.92.852 2.548.567.63 1.417.95 2.527.95.656 0 1.329-.132 1.814-.322 0 0 .092-.045.052-.153l-.315-.868zm2.24-2.861c.061-.413.174-.755.35-1.023.266-.405.67-.629 1.24-.629.569 0 .944.224 1.214.63.178.267.257.624.287 1.022h-3.091zm4.31-.906a2.699 2.699 0 00-.554-1.015c-.279-.3-.552-.51-.823-.627a3.162 3.162 0 00-1.241-.252c-.541 0-1.033.091-1.431.278-.4.188-.735.444-.998.762a3.132 3.132 0 00-.587 1.125c-.126.427-.19.892-.19 1.383 0 .5.066.965.197 1.384.131.422.342.793.627 1.101.285.31.652.553 1.09.722.436.169.966.257 1.573.255 1.253-.005 1.911-.284 2.183-.434.048-.027.093-.073.037-.207l-.284-.793c-.043-.119-.163-.076-.163-.076-.31.116-.75.323-1.779.32-.672 0-1.17-.2-1.483-.51-.32-.317-.477-.782-.503-1.44l4.333.002s.114 0 .126-.112c.004-.046.148-.89-.13-1.866zm-39.019.905c.062-.412.175-.755.35-1.022.267-.405.67-.629 1.24-.629s.944.224 1.215.63c.178.267.256.624.287 1.022h-3.091zm4.31-.905a2.699 2.699 0 00-.553-1.015c-.28-.3-.552-.51-.824-.627a3.165 3.165 0 00-1.24-.252c-.541 0-1.033.091-1.431.278-.4.188-.735.444-.998.762-.264.318-.461.696-.588 1.125a4.88 4.88 0 00-.19 1.383c0 .5.066.965.197 1.384.132.422.343.793.628 1.101.285.31.652.553 1.09.722.436.169.965.257 1.573.255 1.252-.005 1.91-.284 2.183-.434.048-.027.093-.073.036-.207l-.283-.793c-.044-.119-.163-.076-.163-.076-.31.116-.75.323-1.78.32-.671 0-1.17-.2-1.482-.51-.32-.317-.477-.782-.504-1.44l4.333.002s.115 0 .126-.112c.005-.046.149-.89-.13-1.866zM18.57 38.83c-.17-.135-.193-.169-.25-.257-.086-.133-.13-.322-.13-.563 0-.381.127-.655.387-.84-.003.001.374-.324 1.257-.312.394.007.787.04 1.177.1v1.97s-.55.118-1.17.155c-.882.053-1.273-.254-1.27-.253zm1.725-3.045a9.64 9.64 0 00-.677-.02c-.371 0-.73.047-1.067.137a2.803 2.803 0 00-.905.42 2.095 2.095 0 00-.629.715 2.088 2.088 0 00-.232.998c0 .385.067.718.199.99.129.27.323.502.565.678.241.175.538.304.883.383.34.077.726.117 1.148.117a7.94 7.94 0 001.316-.11c.365-.063.73-.134 1.091-.212.145-.033.304-.077.304-.077.108-.027.1-.142.1-.142l-.003-3.963c0-.87-.232-1.513-.689-1.913-.455-.398-1.124-.6-1.99-.6a7.12 7.12 0 00-1.162.108s-.946.183-1.336.488c0 0-.085.053-.039.172l.307.825c.038.107.143.07.143.07s.032-.013.07-.036c.834-.453 1.889-.44 1.889-.44.468 0 .829.095 1.071.28.237.182.357.456.357 1.033v.184a15.147 15.147 0 00-.714-.085zm34.954-2.233a.117.117 0 00-.065-.156 3.818 3.818 0 00-.726-.123c-.545-.034-.847.057-1.118.18-.268.12-.566.316-.732.54v-.529c0-.072-.052-.13-.125-.13h-1.11c-.073 0-.125.058-.125.13v6.465a.131.131 0 00.132.132h1.138a.132.132 0 00.132-.132V36.7c0-.433.047-.865.143-1.137.094-.269.221-.483.38-.637.15-.15.333-.26.535-.322.189-.055.385-.082.581-.082.227 0 .476.058.476.058.084.01.13-.042.158-.117.075-.198.286-.792.326-.91" fill="#FFFFFE"/><path d="M44.56 30.557a3.359 3.359 0 00-1.017-.147c-.783 0-1.401.221-1.835.659-.43.434-.724 1.095-.87 1.965l-.054.294H39.8s-.12-.005-.145.126l-.162.901c-.01.086.026.14.142.14h.957l-.971 5.423a6.809 6.809 0 01-.26 1.069c-.095.268-.188.47-.302.616-.11.142-.216.246-.397.306-.15.05-.321.074-.51.074-.105 0-.244-.018-.347-.038-.103-.02-.157-.044-.234-.076 0 0-.112-.043-.157.07-.036.092-.29.793-.321.88-.03.086.012.154.067.173.127.046.222.075.396.116.24.057.444.06.634.06.4 0 .763-.056 1.064-.165.303-.11.567-.3.8-.559.253-.279.412-.57.564-.969.15-.395.278-.885.38-1.456l.977-5.524h1.428s.12.004.145-.127l.162-.9c.01-.087-.026-.14-.142-.14h-1.385c.007-.032.07-.519.228-.978.068-.196.196-.354.304-.462a.899.899 0 01.363-.226c.15-.046.308-.069.465-.067.13 0 .259.016.356.036.135.029.187.044.222.054.141.043.16.002.188-.067l.331-.91c.034-.098-.048-.139-.08-.15zM25.2 39.93c0 .072-.052.132-.124.132h-1.15c-.072 0-.124-.06-.124-.132v-9.25c0-.072.052-.13.124-.13h1.15c.072 0 .124.058.124.13v9.25" fill="#FFFFFE"/></g></svg>