<?xml version="1.0" encoding="UTF-8"?>
<svg version="1.1" xmlns="http://www.w3.org/2000/svg" width="280" height="280">
<path d="M0 0 C1.73379158 0.59053917 1.73379158 0.59053917 3.50260925 1.19300842 C6.5925978 2.24780579 9.67960073 3.31078905 12.76525879 4.37817383 C15.30963585 5.25671603 17.85632819 6.12843161 20.40307808 7.00006676 C37.6040034 12.88764148 54.79180789 18.8213672 71.85546875 25.09765625 C72.65082031 25.38640625 73.44617188 25.67515625 74.265625 25.97265625 C79.73795482 27.98014232 79.73795482 27.98014232 80.85546875 29.09765625 C80.95719369 30.42752467 80.99063903 31.76270788 80.99591064 33.09645081 C81.00162079 33.95818909 81.00733093 34.81992737 81.01321411 35.70777893 C81.0148909 37.13742226 81.0148909 37.13742226 81.01660156 38.59594727 C81.02156647 39.59451752 81.02653137 40.59308777 81.03164673 41.62191772 C81.04632887 44.94847289 81.05308513 48.27498016 81.05859375 51.6015625 C81.0643462 53.91592917 81.07010392 56.23029583 81.0758667 58.54466248 C81.08639789 63.41478701 81.09222471 68.28489496 81.09570312 73.1550293 C81.10115129 79.35827268 81.12509078 85.56129247 81.15367508 91.76446629 C81.17243164 96.55613306 81.17751424 101.3477478 81.179039 106.13944817 C81.18204363 108.4233006 81.189997 110.7071526 81.20322418 112.9909687 C81.36410974 142.94134062 74.87656934 165.04488551 53.85546875 187.09765625 C37.46253904 203.41982511 15.32672588 215.88546367 -4.88769531 226.84619141 C-6.46083071 227.71852936 -8.0138937 228.62763909 -9.54980469 229.56396484 C-10.33129883 230.0327002 -11.11279297 230.50143555 -11.91796875 230.984375 C-12.61067871 231.41322998 -13.30338867 231.84208496 -14.01708984 232.28393555 C-16.82398422 233.35753882 -18.29379592 232.97349122 -21.14453125 232.09765625 C-23.43017578 231.07299805 -23.43017578 231.07299805 -25.77734375 229.796875 C-26.65616211 229.32064697 -27.53498047 228.84441895 -28.44042969 228.35375977 C-29.3740332 227.83612061 -30.30763672 227.31848145 -31.26953125 226.78515625 C-32.24438477 226.24753662 -33.21923828 225.70991699 -34.22363281 225.15600586 C-55.34043528 213.38882371 -75.97452959 200.24333779 -93.14453125 183.09765625 C-93.88960937 182.36417969 -94.6346875 181.63070312 -95.40234375 180.875 C-109.46889344 166.11891356 -116.33018925 147.5226452 -116.25805664 127.31884766 C-116.25820267 126.24507874 -116.25834869 125.17130981 -116.25849915 124.06500244 C-116.25780414 120.52638712 -116.25003101 116.98782485 -116.2421875 113.44921875 C-116.24032186 110.99156727 -116.23889864 108.53391541 -116.23789978 106.07626343 C-116.23408613 99.61544768 -116.22426566 93.1546545 -116.2131958 86.69384766 C-116.20295693 80.09798488 -116.19839685 73.50211844 -116.19335938 66.90625 C-116.18264237 53.97004247 -116.16577265 41.03385056 -116.14453125 28.09765625 C-93.21425796 20.07674008 -70.28356423 12.06323117 -47.26953125 4.28515625 C-44.25707204 3.26619338 -41.24482207 2.24662792 -38.23312378 1.22541809 C-36.4138567 0.60858458 -34.59416842 -0.00700879 -32.7739563 -0.62104797 C-31.97214935 -0.89281357 -31.17034241 -1.16457916 -30.34423828 -1.44458008 C-29.59885803 -1.69438629 -28.85347778 -1.9441925 -28.08551025 -2.2015686 C-26.01087686 -2.90756994 -26.01087686 -2.90756994 -23.62841797 -4.1628418 C-15.84141616 -6.48118546 -7.30124709 -2.53756788 0 0 Z M-27.24609375 25.7734375 C-28.07362152 26.05809372 -28.90114929 26.34274994 -29.75375366 26.6360321 C-32.4271919 27.5564224 -35.09845752 28.48292868 -37.76953125 29.41015625 C-41.1983841 30.59617715 -44.62823379 31.77928315 -48.05859375 32.9609375 C-48.95088684 33.26863068 -49.84317993 33.57632385 -50.76251221 33.89334106 C-64.85323253 38.73596558 -79.00388207 43.40333639 -93.14453125 48.09765625 C-93.23760871 59.21645575 -93.30848669 70.33516109 -93.35177994 81.45427227 C-93.37256871 86.61850022 -93.40072552 91.78245971 -93.44628906 96.9465332 C-93.49005961 101.93918778 -93.51373369 106.93158571 -93.52404022 111.9244175 C-93.53137597 113.82002611 -93.54569945 115.71562222 -93.56745148 117.61112022 C-93.78250325 137.14506659 -89.81997504 152.67514776 -76.08081055 167.25732422 C-60.97465811 182.67232575 -41.36475917 194.5332589 -22.14453125 204.09765625 C-21.33902832 204.51168701 -20.53352539 204.92571777 -19.70361328 205.35229492 C-17.17651223 206.34160041 -17.17651223 206.34160041 -14.79541016 205.38183594 C-13.59537354 204.70749512 -13.59537354 204.70749512 -12.37109375 204.01953125 C-11.47116699 203.52300049 -10.57124023 203.02646973 -9.64404297 202.51489258 C-8.6954541 201.96470459 -7.74686523 201.4145166 -6.76953125 200.84765625 C-5.78871582 200.29424561 -4.80790039 199.74083496 -3.79736328 199.1706543 C4.34996357 194.51913788 12.22673396 189.55550219 19.85546875 184.09765625 C20.92152344 183.33710938 21.98757812 182.5765625 23.0859375 181.79296875 C40.49843443 169.03704578 54.02482297 155.02164823 57.85546875 133.09765625 C58.10018054 130.15042782 58.11039704 127.22920447 58.08251953 124.27319336 C58.08281158 123.44282562 58.08310364 122.61245789 58.08340454 121.75692749 C58.08202501 119.04617402 58.06652958 116.33570471 58.05078125 113.625 C58.04704621 111.73214366 58.04420156 109.83928537 58.04220581 107.94642639 C58.03460801 102.98986372 58.014993 98.03342022 57.99279785 93.0769043 C57.97225601 88.00896822 57.96318633 82.94101268 57.953125 77.87304688 C57.93174315 67.94786461 57.89765423 58.02277038 57.85546875 48.09765625 C56.87522232 47.77210754 55.89497589 47.44655884 54.88502502 47.11114502 C22.12100797 36.22640068 22.12100797 36.22640068 10.1328125 32.08203125 C9.32590973 31.80331177 8.51900696 31.52459229 7.68765259 31.23742676 C4.57049105 30.15911232 1.45428594 29.07812026 -1.66040039 27.99267578 C-4.04045976 27.16427682 -6.42239511 26.3414822 -8.8046875 25.51953125 C-9.5074733 25.27281677 -10.21025909 25.02610229 -10.93434143 24.77191162 C-17.31143787 22.57941875 -21.0504777 23.60904293 -27.24609375 25.7734375 Z " fill="#006EEE" transform="translate(160.14453125,25.90234375)"/>
<path d="M0 0 C0 6.93 0 13.86 0 21 C-3.65449219 22.21236328 -3.65449219 22.21236328 -7.3828125 23.44921875 C-9.79260532 24.2498692 -12.20221862 25.05105774 -14.61181641 25.85229492 C-16.26202099 26.40070661 -17.91240603 26.94857564 -19.56298828 27.49584961 C-31.06411183 31.30781368 -31.06411183 31.30781368 -42.4921875 35.33203125 C-53.9110731 39.46002934 -65.47378464 43.18494993 -77 47 C-77.06977071 58.13610205 -77.12294808 69.27215138 -77.15543652 80.40842819 C-77.17103598 85.58046995 -77.19216887 90.75236123 -77.22631836 95.92431641 C-77.25911691 100.92343864 -77.27689593 105.92241689 -77.28463173 110.92163849 C-77.29013866 112.82084669 -77.30089151 114.72004778 -77.31719017 116.61919403 C-77.42685465 129.93738849 -76.66919562 141.90387953 -70.5 154 C-70.16033203 154.671521 -69.82066406 155.34304199 -69.47070312 156.03491211 C-65.71830743 163.07232623 -60.71839488 168.51034091 -55 174 C-54.05060547 174.94359375 -54.05060547 174.94359375 -53.08203125 175.90625 C-37.90880225 190.10812439 -18.01030871 199.95885444 0 210 C0 216.27 0 222.54 0 229 C-20.01190348 220.99523861 -39.27671475 208.51279782 -56 195 C-56.52883789 194.57654297 -57.05767578 194.15308594 -57.60253906 193.71679688 C-74.87760407 179.81272023 -89.62424469 162.65004852 -93 140 C-93.25186096 136.28230449 -93.25429156 132.5839482 -93.22705078 128.85888672 C-93.22734283 127.79428726 -93.22763489 126.72968781 -93.22793579 125.63282776 C-93.22655338 122.1483619 -93.21104373 118.66411555 -93.1953125 115.1796875 C-93.1915785 112.75017412 -93.18873335 110.32065923 -93.18673706 107.8911438 C-93.17913113 101.52241803 -93.15950887 95.15378468 -93.1373291 88.78509521 C-93.11680502 82.27601369 -93.10772134 75.76691711 -93.09765625 69.2578125 C-93.07626001 56.50516909 -93.04254994 43.75258948 -93 31 C-92.20416504 30.74831055 -91.40833008 30.49662109 -90.58837891 30.23730469 C-87.58676796 29.28603162 -84.58626281 28.33136277 -81.58642578 27.37451172 C-79.66910687 26.76404349 -77.75058191 26.1573673 -75.83203125 25.55078125 C-69.47195806 23.51955369 -63.22425835 21.38126633 -57.05175781 18.83520508 C-54.59062244 17.83335547 -52.10263161 16.99704632 -49.5625 16.21875 C-48.64726563 15.93386719 -47.73203125 15.64898437 -46.7890625 15.35546875 C-44.9296875 14.78515625 -43.0703125 14.21484375 -41.2109375 13.64453125 C-35.87436161 11.98342805 -30.70213379 10.12298679 -25.53125 8.00390625 C-21.08244488 6.23948817 -16.54289968 4.75141223 -12 3.25 C-11.06027344 2.93417969 -10.12054688 2.61835938 -9.15234375 2.29296875 C-8.25644531 1.99519531 -7.36054688 1.69742187 -6.4375 1.390625 C-5.63183594 1.12282227 -4.82617188 0.85501953 -3.99609375 0.57910156 C-2 0 -2 0 0 0 Z " fill="#87CFFC" transform="translate(141,25)"/>
<path d="M0 0 C1.73379158 0.59053917 1.73379158 0.59053917 3.50260925 1.19300842 C6.5925978 2.24780579 9.67960073 3.31078905 12.76525879 4.37817383 C15.30963585 5.25671603 17.85632819 6.12843161 20.40307808 7.00006676 C37.6040034 12.88764148 54.79180789 18.8213672 71.85546875 25.09765625 C72.65082031 25.38640625 73.44617188 25.67515625 74.265625 25.97265625 C79.73795482 27.98014232 79.73795482 27.98014232 80.85546875 29.09765625 C80.95719369 30.42752467 80.99063903 31.76270788 80.99591064 33.09645081 C81.00162079 33.95818909 81.00733093 34.81992737 81.01321411 35.70777893 C81.0148909 37.13742226 81.0148909 37.13742226 81.01660156 38.59594727 C81.02156647 39.59451752 81.02653137 40.59308777 81.03164673 41.62191772 C81.04632887 44.94847289 81.05308513 48.27498016 81.05859375 51.6015625 C81.0643462 53.91592917 81.07010392 56.23029583 81.0758667 58.54466248 C81.08639789 63.41478701 81.09222471 68.28489496 81.09570312 73.1550293 C81.10115129 79.35827268 81.12509078 85.56129247 81.15367508 91.76446629 C81.17243164 96.55613306 81.17751424 101.3477478 81.179039 106.13944817 C81.18204363 108.4233006 81.189997 110.7071526 81.20322418 112.9909687 C81.36410974 142.94134062 74.87656934 165.04488551 53.85546875 187.09765625 C37.46253904 203.41982511 15.32672588 215.88546367 -4.88769531 226.84619141 C-6.46083071 227.71852936 -8.0138937 228.62763909 -9.54980469 229.56396484 C-10.33129883 230.0327002 -11.11279297 230.50143555 -11.91796875 230.984375 C-12.61067871 231.41322998 -13.30338867 231.84208496 -14.01708984 232.28393555 C-16.82398422 233.35753882 -18.29379592 232.97349122 -21.14453125 232.09765625 C-23.43017578 231.07299805 -23.43017578 231.07299805 -25.77734375 229.796875 C-26.65616211 229.32064697 -27.53498047 228.84441895 -28.44042969 228.35375977 C-29.3740332 227.83612061 -30.30763672 227.31848145 -31.26953125 226.78515625 C-32.24438477 226.24753662 -33.21923828 225.70991699 -34.22363281 225.15600586 C-55.34043528 213.38882371 -75.97452959 200.24333779 -93.14453125 183.09765625 C-93.88960937 182.36417969 -94.6346875 181.63070312 -95.40234375 180.875 C-109.46889344 166.11891356 -116.33018925 147.5226452 -116.25805664 127.31884766 C-116.25820267 126.24507874 -116.25834869 125.17130981 -116.25849915 124.06500244 C-116.25780414 120.52638712 -116.25003101 116.98782485 -116.2421875 113.44921875 C-116.24032186 110.99156727 -116.23889864 108.53391541 -116.23789978 106.07626343 C-116.23408613 99.61544768 -116.22426566 93.1546545 -116.2131958 86.69384766 C-116.20295693 80.09798488 -116.19839685 73.50211844 -116.19335938 66.90625 C-116.18264237 53.97004247 -116.16577265 41.03385056 -116.14453125 28.09765625 C-93.21425796 20.07674008 -70.28356423 12.06323117 -47.26953125 4.28515625 C-44.25707204 3.26619338 -41.24482207 2.24662792 -38.23312378 1.22541809 C-36.4138567 0.60858458 -34.59416842 -0.00700879 -32.7739563 -0.62104797 C-31.97214935 -0.89281357 -31.17034241 -1.16457916 -30.34423828 -1.44458008 C-29.59885803 -1.69438629 -28.85347778 -1.9441925 -28.08551025 -2.2015686 C-26.01087686 -2.90756994 -26.01087686 -2.90756994 -23.62841797 -4.1628418 C-15.84141616 -6.48118546 -7.30124709 -2.53756788 0 0 Z M-16.14453125 -0.90234375 C-16.14453125 6.02765625 -16.14453125 12.95765625 -16.14453125 20.09765625 C-14.09492188 20.773125 -12.0453125 21.44859375 -9.93359375 22.14453125 C-7.91430291 22.81240556 -5.89536912 23.48134883 -3.87646484 24.15039062 C-2.49011444 24.60918747 -1.1034046 25.06689984 0.28369141 25.5234375 C2.29558938 26.18583857 4.30609352 26.85233668 6.31640625 27.51953125 C7.52087402 27.9175293 8.7253418 28.31552734 9.96630859 28.72558594 C12.74501974 29.67555286 15.44986799 30.74438049 18.16259766 31.86816406 C26.12462221 35.09014549 34.32746773 37.6582372 42.48046875 40.34765625 C44.169364 40.90727099 45.85816688 41.46716459 47.546875 42.02734375 C51.64868171 43.38733183 55.75171999 44.74354017 59.85546875 46.09765625 C59.94851761 57.73799428 60.01940993 69.37824252 60.06271744 81.01887798 C60.08351231 86.4252361 60.11168071 91.83133808 60.15722656 97.23754883 C60.20097476 102.463621 60.22466663 107.68944818 60.23497772 112.91568947 C60.2423174 114.900611 60.2566488 116.88552049 60.27838898 118.87033653 C60.50775148 140.69632935 55.22342147 156.28980746 39.71875 172.3046875 C29.3789481 182.04762478 17.30973467 189.83731615 5.04296875 196.91015625 C4.24793945 197.37599121 3.45291016 197.84182617 2.63378906 198.32177734 C-0.85168133 200.33697343 -4.25599417 202.21109684 -8.01171875 203.671875 C-11.54508749 205.1891451 -13.69227241 206.11957193 -16.14453125 209.09765625 C-17.5547733 215.34504272 -16.82451025 221.79525825 -16.14453125 228.09765625 C8.33738445 216.47216555 32.48524727 202.2287392 51.85546875 183.09765625 C52.64953125 182.37578125 53.44359375 181.65390625 54.26171875 180.91015625 C65.82756247 170.13649361 75.87140583 153.62584649 77.03615189 137.61375427 C77.10022459 134.77118624 77.10296758 131.93502081 77.08251953 129.09179688 C77.08281158 128.0177359 77.08310364 126.94367493 77.08340454 125.83706665 C77.08201823 122.30926253 77.06648985 118.78167319 77.05078125 115.25390625 C77.04704864 112.79911413 77.04420284 110.34432051 77.04220581 107.88952637 C77.03458892 101.4451482 77.01495708 95.00086094 76.99279785 88.55651855 C76.97229754 81.97388946 76.96319515 75.3912456 76.953125 68.80859375 C76.93170939 55.90490925 76.89798424 43.0012876 76.85546875 30.09765625 C75.70135498 29.72479492 74.54724121 29.35193359 73.3581543 28.96777344 C69.02807366 27.56825847 64.69885354 26.16609743 60.36987305 24.76318359 C58.50519366 24.15928449 56.64028949 23.55607898 54.77514648 22.95361328 C36.41249163 17.02129028 36.41249163 17.02129028 28.19854736 13.9654541 C24.10765221 12.45032354 19.97612103 11.05332521 15.84765625 9.64453125 C14.50950363 9.18690399 14.50950363 9.18690399 13.14431763 8.72003174 C11.28422458 8.08429056 9.42394285 7.4491012 7.56347656 6.81445312 C4.70180778 5.83787536 1.84111561 4.85847291 -1.01953125 3.87890625 C-2.83457756 3.25894517 -4.64967965 2.63914736 -6.46484375 2.01953125 C-7.32199982 1.72584656 -8.17915588 1.43216187 -9.06228638 1.12957764 C-12.53173878 -0.27580063 -12.53173878 -0.27580063 -16.14453125 -0.90234375 Z M-27.62109375 1.1796875 C-28.26517181 1.39453293 -28.90924988 1.60937836 -29.57284546 1.83073425 C-30.94015177 2.28751131 -32.30697092 2.74574878 -33.67333984 3.20532227 C-35.7394421 3.90003892 -37.80706195 4.59006663 -39.875 5.27929688 C-45.67015688 7.21637733 -51.44821439 9.17230833 -57.15380859 11.36206055 C-62.80953867 13.45192009 -68.57441385 15.25155324 -74.30078125 17.13671875 C-75.32171875 17.47445312 -76.34265625 17.8121875 -77.39453125 18.16015625 C-78.3071875 18.46050781 -79.21984375 18.76085937 -80.16015625 19.0703125 C-82.33488817 19.81894404 -84.49441077 20.61219657 -86.64355469 21.43139648 C-91.76353184 23.35741233 -96.95104802 25.06951593 -102.14453125 26.78515625 C-103.11003906 27.10548828 -104.07554688 27.42582031 -105.0703125 27.75585938 C-107.42793097 28.53784174 -109.78600742 29.3184097 -112.14453125 30.09765625 C-112.21485668 44.10220508 -112.26743407 58.10672621 -112.29996777 72.11141586 C-112.31558665 78.61519265 -112.3367559 85.11885033 -112.37084961 91.62255859 C-112.40357773 97.90548108 -112.42141265 104.1882894 -112.42916298 110.47129059 C-112.43468237 112.86172532 -112.44546011 115.25215419 -112.46172142 117.64253998 C-112.48367432 121.00499202 -112.48649071 124.36697939 -112.48510742 127.72949219 C-112.49589325 128.70557938 -112.50667908 129.68166656 -112.51779175 130.68733215 C-112.47359919 140.69217043 -110.19694234 150.15060386 -105.58203125 159.03515625 C-105.06974976 160.03857056 -105.06974976 160.03857056 -104.54711914 161.06225586 C-90.29774468 187.9749042 -62.7197026 204.31514254 -37.14453125 219.09765625 C-36.42861816 219.51241211 -35.71270508 219.92716797 -34.97509766 220.35449219 C-32.76478996 221.63027891 -30.54973538 222.89727619 -28.33203125 224.16015625 C-27.64351074 224.55485107 -26.95499023 224.9495459 -26.24560547 225.35620117 C-22.90360625 227.40453071 -22.90360625 227.40453071 -19.14453125 228.09765625 C-19.14453125 221.82765625 -19.14453125 215.55765625 -19.14453125 209.09765625 C-20.81 208.17984375 -22.47546875 207.26203125 -24.19140625 206.31640625 C-47.30989326 193.51839177 -47.30989326 193.51839177 -56.14453125 187.09765625 C-56.76086426 186.65744141 -57.37719727 186.21722656 -58.01220703 185.76367188 C-77.01320728 172.15454045 -92.00201972 157.04221101 -96.14453125 133.09765625 C-96.39033255 130.08945275 -96.39935247 127.10648387 -96.37158203 124.08959961 C-96.37187408 123.23972473 -96.37216614 122.38984985 -96.37246704 121.51422119 C-96.37108702 118.73853921 -96.35558913 115.96313439 -96.33984375 113.1875 C-96.33610889 111.24980313 -96.33326415 109.31210435 -96.33126831 107.37440491 C-96.3236691 102.29947605 -96.30405284 97.2246635 -96.28186035 92.14978027 C-96.26132158 86.96119764 -96.25224948 81.77259603 -96.2421875 76.58398438 C-96.22080317 66.42182418 -96.1867125 56.25974993 -96.14453125 46.09765625 C-95.16693848 45.78538086 -94.1893457 45.47310547 -93.18212891 45.15136719 C-89.50940575 43.9771134 -85.83823364 42.79807189 -82.16748047 41.61767578 C-80.58716191 41.11021042 -79.00644129 40.60399516 -77.42529297 40.09912109 C-69.60825556 37.60221794 -61.84501325 35.1097384 -54.26080322 31.96032715 C-50.87658175 30.58079303 -47.42023519 29.43996685 -43.94921875 28.30078125 C-42.87173874 27.94303619 -42.87173874 27.94303619 -41.77249146 27.57806396 C-39.52244424 26.83172091 -37.27103058 26.08960562 -35.01953125 25.34765625 C-33.47516704 24.83621938 -31.93089545 24.32450273 -30.38671875 23.8125 C-26.6405423 22.57047369 -22.8925385 21.33420017 -19.14453125 20.09765625 C-19.14453125 13.16765625 -19.14453125 6.23765625 -19.14453125 -0.90234375 C-22.18439011 -0.90234375 -24.74351241 0.21719685 -27.62109375 1.1796875 Z M-27.24609375 25.7734375 C-28.07362152 26.05809372 -28.90114929 26.34274994 -29.75375366 26.6360321 C-32.4271919 27.5564224 -35.09845752 28.48292868 -37.76953125 29.41015625 C-41.1983841 30.59617715 -44.62823379 31.77928315 -48.05859375 32.9609375 C-48.95088684 33.26863068 -49.84317993 33.57632385 -50.76251221 33.89334106 C-64.85323253 38.73596558 -79.00388207 43.40333639 -93.14453125 48.09765625 C-93.23760871 59.21645575 -93.30848669 70.33516109 -93.35177994 81.45427227 C-93.37256871 86.61850022 -93.40072552 91.78245971 -93.44628906 96.9465332 C-93.49005961 101.93918778 -93.51373369 106.93158571 -93.52404022 111.9244175 C-93.53137597 113.82002611 -93.54569945 115.71562222 -93.56745148 117.61112022 C-93.78250325 137.14506659 -89.81997504 152.67514776 -76.08081055 167.25732422 C-60.97465811 182.67232575 -41.36475917 194.5332589 -22.14453125 204.09765625 C-21.33902832 204.51168701 -20.53352539 204.92571777 -19.70361328 205.35229492 C-17.17651223 206.34160041 -17.17651223 206.34160041 -14.79541016 205.38183594 C-13.59537354 204.70749512 -13.59537354 204.70749512 -12.37109375 204.01953125 C-11.47116699 203.52300049 -10.57124023 203.02646973 -9.64404297 202.51489258 C-8.6954541 201.96470459 -7.74686523 201.4145166 -6.76953125 200.84765625 C-5.78871582 200.29424561 -4.80790039 199.74083496 -3.79736328 199.1706543 C4.34996357 194.51913788 12.22673396 189.55550219 19.85546875 184.09765625 C20.92152344 183.33710938 21.98757812 182.5765625 23.0859375 181.79296875 C40.49843443 169.03704578 54.02482297 155.02164823 57.85546875 133.09765625 C58.10018054 130.15042782 58.11039704 127.22920447 58.08251953 124.27319336 C58.08281158 123.44282562 58.08310364 122.61245789 58.08340454 121.75692749 C58.08202501 119.04617402 58.06652958 116.33570471 58.05078125 113.625 C58.04704621 111.73214366 58.04420156 109.83928537 58.04220581 107.94642639 C58.03460801 102.98986372 58.014993 98.03342022 57.99279785 93.0769043 C57.97225601 88.00896822 57.96318633 82.94101268 57.953125 77.87304688 C57.93174315 67.94786461 57.89765423 58.02277038 57.85546875 48.09765625 C56.87522232 47.77210754 55.89497589 47.44655884 54.88502502 47.11114502 C22.12100797 36.22640068 22.12100797 36.22640068 10.1328125 32.08203125 C9.32590973 31.80331177 8.51900696 31.52459229 7.68765259 31.23742676 C4.57049105 30.15911232 1.45428594 29.07812026 -1.66040039 27.99267578 C-4.04045976 27.16427682 -6.42239511 26.3414822 -8.8046875 25.51953125 C-9.5074733 25.27281677 -10.21025909 25.02610229 -10.93434143 24.77191162 C-17.31143787 22.57941875 -21.0504777 23.60904293 -27.24609375 25.7734375 Z " fill="#1B2B39" transform="translate(160.14453125,25.90234375)"/>
<path d="M0 0 C6.16616243 3.69969746 10.73171712 7.33310034 13.48046875 14.15234375 C14.78124006 19.64711709 14.41196271 25.27125588 14.125 30.875 C15.9503125 30.75125 15.9503125 30.75125 17.8125 30.625 C21.1976174 30.61299604 22.06368234 30.83586107 25.0625 32.75 C28.1748971 35.95671216 28.25294794 37.72388348 28.27026367 42.08740234 C28.27664352 43.17548187 28.28302338 44.2635614 28.28959656 45.38461304 C28.29070938 46.56480011 28.2918222 47.74498718 28.29296875 48.9609375 C28.29796135 50.77363632 28.29796135 50.77363632 28.30305481 52.62295532 C28.30812552 55.18352883 28.31046309 57.74410897 28.31030273 60.3046875 C28.31248701 64.22667319 28.33063545 68.14837671 28.34960938 72.0703125 C28.35254367 74.55468653 28.35452822 77.03906191 28.35546875 79.5234375 C28.36265427 80.69957611 28.36983978 81.87571472 28.37724304 83.0874939 C28.37416641 84.18187775 28.37108978 85.2762616 28.36791992 86.40380859 C28.36934494 87.36596283 28.37076996 88.32811707 28.37223816 89.31942749 C28.10332713 92.09902118 27.72925916 93.59279742 26.125 95.875 C22.37725949 98.76672626 19.54433259 99.25881205 14.86938477 99.29492188 C13.6278212 99.31083374 12.38625763 99.32674561 11.10707092 99.34313965 C9.76018328 99.34440696 8.41329423 99.34458373 7.06640625 99.34375 C5.67544754 99.35085682 4.28449174 99.35855658 2.89353943 99.36682129 C-0.01742712 99.38024544 -2.92812255 99.38184424 -5.83911133 99.37597656 C-9.55950427 99.37008086 -13.278592 99.40067353 -16.99873257 99.44109344 C-19.87021322 99.46701155 -22.74138123 99.46984428 -25.61296272 99.46620178 C-26.9840428 99.4678891 -28.35513793 99.47749436 -29.72610283 99.49534607 C-41.76442422 99.63486428 -41.76442422 99.63486428 -45.69946289 96.46289062 C-48.67792556 92.91988712 -49.00317871 91.3059481 -49.03613281 86.77026367 C-49.04574036 85.70543259 -49.0553479 84.6406015 -49.06524658 83.54350281 C-49.06949646 82.38832657 -49.07374634 81.23315033 -49.078125 80.04296875 C-49.08382507 78.85907059 -49.08952515 77.67517242 -49.09539795 76.45539856 C-49.10485821 73.94610491 -49.11138599 71.43679877 -49.11523438 68.92749023 C-49.12493353 65.08880908 -49.1559455 61.25066462 -49.1875 57.41210938 C-49.19403049 54.97656569 -49.19928078 52.54101816 -49.203125 50.10546875 C-49.2154718 48.9563652 -49.2278186 47.80726166 -49.24053955 46.62333679 C-49.23753845 45.54904922 -49.23453735 44.47476166 -49.23144531 43.36791992 C-49.23509094 42.42575119 -49.23873657 41.48358246 -49.24249268 40.51286316 C-48.79725318 37.31693314 -47.76896638 35.47011853 -45.875 32.875 C-42.78611478 30.81574319 -42.16564073 30.6359626 -38.6875 30.75 C-37.429375 30.79125 -36.17125 30.8325 -34.875 30.875 C-34.92140625 29.9571875 -34.9678125 29.039375 -35.015625 28.09375 C-35.29057412 18.74547979 -34.61412259 13.20451037 -28.5 6.125 C-20.42483951 -0.79656614 -10.46656582 -4.06236573 0 0 Z M-19.875 15.875 C-22.22619399 19.40179099 -22.08943452 20.90379485 -22 25.0625 C-21.95875 26.980625 -21.9175 28.89875 -21.875 30.875 C-14.285 30.875 -6.695 30.875 1.125 30.875 C1.99959984 22.52280033 1.99959984 22.52280033 -1.1875 15.1875 C-4.34066259 12.47431358 -6.07591053 11.9503858 -10.1875 11.5625 C-14.55619458 11.93272835 -16.50602201 13.13280861 -19.875 15.875 Z M-43.1640625 36.70898438 C-45.74490672 41.48472465 -45.55184892 45.81122505 -45.46875 51.16015625 C-45.46879028 52.25339706 -45.46883057 53.34663788 -45.46887207 54.4730072 C-45.46351831 56.78032186 -45.445942 59.08763614 -45.41699219 61.39477539 C-45.37510712 64.92846299 -45.37592717 68.46024645 -45.3828125 71.99414062 C-45.37232098 74.23699242 -45.3593831 76.4798344 -45.34375 78.72265625 C-45.34354858 79.7800148 -45.34334717 80.83737335 -45.34313965 81.92677307 C-45.32722778 82.91137009 -45.31131592 83.8959671 -45.29492188 84.91040039 C-45.28650269 85.77468155 -45.2780835 86.63896271 -45.26940918 87.5294342 C-44.78640168 90.40189744 -43.86793846 91.77294343 -41.875 93.875 C-38.78413235 94.90528922 -36.6219132 95.01380203 -33.38134766 95.03613281 C-32.25652985 95.04574036 -31.13171204 95.0553479 -29.97280884 95.06524658 C-28.75717255 95.06949646 -27.54153625 95.07374634 -26.2890625 95.078125 C-25.03999115 95.08382507 -23.7909198 95.08952515 -22.5039978 95.09539795 C-19.85939897 95.10485098 -17.2149137 95.11174638 -14.5703125 95.11523438 C-11.18864914 95.120717 -7.80738885 95.14474456 -4.42585182 95.17320633 C-1.19278604 95.19635692 2.04030043 95.19828384 5.2734375 95.203125 C7.09081924 95.2216452 7.09081924 95.2216452 8.94491577 95.24053955 C10.64159897 95.2360379 10.64159897 95.2360379 12.37255859 95.23144531 C13.3650058 95.23509094 14.357453 95.23873657 15.37997437 95.24249268 C18.61626505 94.80923147 20.49912067 93.78539842 23.125 91.875 C24.35086148 89.42327705 24.27823133 87.7715099 24.31787109 85.02978516 C24.34196548 83.51779037 24.34196548 83.51779037 24.36654663 81.97525024 C24.41091758 77.36827209 24.45204949 72.76143854 24.47509766 68.15429688 C24.49167548 65.7215825 24.5189891 63.28891719 24.55712891 60.85644531 C24.61177162 57.35455989 24.63375188 53.85381626 24.6484375 50.3515625 C24.68244156 48.71859726 24.68244156 48.71859726 24.71713257 47.05264282 C24.71428253 46.03834198 24.7114325 45.02404114 24.70849609 43.97900391 C24.71658295 43.08790924 24.7246698 42.19681458 24.73300171 41.27871704 C23.84046521 37.7501 22.1890987 36.72948007 19.125 34.875 C16.28552611 34.27015434 16.28552611 34.27015434 13.22070312 34.34155273 C12.05599487 34.3257164 10.89128662 34.30988007 9.69128418 34.29356384 C7.81769226 34.30100365 7.81769226 34.30100365 5.90625 34.30859375 C4.61561646 34.30239517 3.32498291 34.29619659 1.99523926 34.28981018 C-0.73170868 34.27942281 -3.45813423 34.28394309 -6.18505859 34.29858398 C-9.67247234 34.3157794 -13.15823958 34.29226253 -16.64546967 34.25709438 C-19.982493 34.2298033 -23.31912025 34.23985727 -26.65625 34.24609375 C-27.90531128 34.23283554 -29.15437256 34.21957733 -30.44128418 34.20591736 C-37.09263504 34.27531819 -37.09263504 34.27531819 -43.1640625 36.70898438 Z " fill="#192632" transform="translate(152.875,82.125)"/>
<path d="M0 0 C4.29 0 8.58 0 13 0 C13 9.24 13 18.48 13 28 C8.71 28 4.42 28 0 28 C0 18.76 0 9.52 0 0 Z " fill="#1A2733" transform="translate(136,133)"/>
</svg>