<?xml version="1.0" encoding="UTF-8" standalone="no"?>
<!DOCTYPE svg PUBLIC "-//W3C//DTD SVG 1.1//EN" "http://www.w3.org/Graphics/SVG/1.1/DTD/svg11.dtd">
<svg width="100%" height="100%" viewBox="0 0 720 720" version="1.1" xmlns="http://www.w3.org/2000/svg" xml:space="preserve" xmlns:serif="http://www.serif.com/" style="fill-rule:evenodd;clip-rule:evenodd;stroke-linejoin:round;stroke-miterlimit:2;">
    <g transform="matrix(1,0,0,1,0,200)">
        <g transform="matrix(1,0,0,1,-45.9767,-267.806)">
            <g transform="matrix(133.333,0,0,133.333,58.2684,435.558)">
                <path d="M0.45,-0.186C0.45,-0.213 0.441,-0.235 0.421,-0.251C0.402,-0.268 0.368,-0.284 0.319,-0.298C0.235,-0.323 0.171,-0.352 0.127,-0.385C0.084,-0.419 0.063,-0.465 0.063,-0.523C0.063,-0.581 0.087,-0.629 0.137,-0.666C0.187,-0.703 0.25,-0.721 0.327,-0.721C0.405,-0.721 0.469,-0.7 0.518,-0.659C0.567,-0.617 0.591,-0.566 0.589,-0.505L0.588,-0.502L0.45,-0.502C0.45,-0.535 0.439,-0.562 0.417,-0.582C0.395,-0.603 0.364,-0.613 0.325,-0.613C0.287,-0.613 0.257,-0.604 0.236,-0.587C0.215,-0.57 0.205,-0.549 0.205,-0.522C0.205,-0.498 0.216,-0.479 0.239,-0.463C0.261,-0.448 0.299,-0.431 0.354,-0.414C0.432,-0.392 0.492,-0.363 0.532,-0.328C0.573,-0.292 0.593,-0.245 0.593,-0.187C0.593,-0.126 0.569,-0.078 0.521,-0.042C0.473,-0.007 0.409,0.01 0.331,0.01C0.253,0.01 0.186,-0.01 0.128,-0.05C0.07,-0.089 0.042,-0.145 0.044,-0.217L0.045,-0.22L0.184,-0.22C0.184,-0.178 0.197,-0.147 0.222,-0.127C0.248,-0.108 0.284,-0.098 0.331,-0.098C0.369,-0.098 0.399,-0.106 0.419,-0.122C0.44,-0.138 0.45,-0.159 0.45,-0.186Z" style="fill:rgb(88,88,90);fill-rule:nonzero;"/>
            </g>
            <g transform="matrix(133.333,0,0,133.333,142.839,435.558)">
                <path d="M0.289,0.01C0.212,0.01 0.152,-0.014 0.106,-0.063C0.06,-0.112 0.038,-0.174 0.038,-0.249L0.038,-0.269C0.038,-0.347 0.059,-0.412 0.102,-0.462C0.145,-0.513 0.203,-0.538 0.276,-0.538C0.347,-0.538 0.403,-0.517 0.442,-0.474C0.481,-0.431 0.501,-0.373 0.501,-0.299L0.501,-0.222L0.186,-0.222L0.185,-0.219C0.187,-0.184 0.199,-0.155 0.219,-0.133C0.24,-0.11 0.268,-0.099 0.304,-0.099C0.335,-0.099 0.361,-0.102 0.382,-0.109C0.403,-0.115 0.426,-0.125 0.451,-0.139L0.489,-0.051C0.468,-0.033 0.44,-0.019 0.405,-0.007C0.37,0.004 0.331,0.01 0.289,0.01ZM0.276,-0.428C0.25,-0.428 0.229,-0.418 0.213,-0.398C0.198,-0.378 0.189,-0.351 0.185,-0.318L0.187,-0.316L0.361,-0.316L0.361,-0.329C0.361,-0.359 0.354,-0.383 0.34,-0.401C0.326,-0.419 0.305,-0.428 0.276,-0.428Z" style="fill:rgb(88,88,90);fill-rule:nonzero;"/>
            </g>
            <g transform="matrix(133.333,0,0,133.333,213.412,435.558)">
                <path d="M0.276,-0.099C0.302,-0.099 0.322,-0.107 0.337,-0.121C0.353,-0.136 0.36,-0.156 0.36,-0.181L0.49,-0.181L0.491,-0.178C0.493,-0.124 0.472,-0.08 0.431,-0.044C0.389,-0.008 0.338,0.01 0.276,0.01C0.198,0.01 0.137,-0.015 0.094,-0.064C0.052,-0.114 0.03,-0.178 0.03,-0.256L0.03,-0.271C0.03,-0.349 0.052,-0.413 0.094,-0.463C0.136,-0.513 0.197,-0.538 0.276,-0.538C0.341,-0.538 0.393,-0.52 0.433,-0.482C0.473,-0.445 0.493,-0.396 0.491,-0.336L0.49,-0.333L0.36,-0.333C0.36,-0.36 0.353,-0.383 0.338,-0.401C0.323,-0.419 0.302,-0.428 0.276,-0.428C0.238,-0.428 0.212,-0.414 0.196,-0.384C0.181,-0.355 0.173,-0.317 0.173,-0.271L0.173,-0.256C0.173,-0.209 0.181,-0.171 0.196,-0.142C0.212,-0.114 0.238,-0.099 0.276,-0.099Z" style="fill:rgb(88,88,90);fill-rule:nonzero;"/>
            </g>
            <g transform="matrix(133.333,0,0,133.333,282.422,435.558)">
                <path d="M0.377,-0.076C0.361,-0.049 0.34,-0.027 0.315,-0.012C0.29,0.003 0.262,0.01 0.229,0.01C0.173,0.01 0.13,-0.008 0.098,-0.043C0.067,-0.079 0.051,-0.134 0.051,-0.209L0.051,-0.528L0.193,-0.528L0.193,-0.208C0.193,-0.17 0.2,-0.142 0.213,-0.126C0.226,-0.109 0.245,-0.101 0.271,-0.101C0.293,-0.101 0.313,-0.104 0.329,-0.112C0.345,-0.119 0.359,-0.13 0.369,-0.144L0.369,-0.528L0.512,-0.528L0.512,-0L0.39,-0L0.377,-0.076Z" style="fill:rgb(88,88,90);fill-rule:nonzero;"/>
            </g>
            <g transform="matrix(133.333,0,0,133.333,357.682,435.558)">
                <path d="M0.333,-0.406L0.28,-0.407C0.259,-0.407 0.242,-0.403 0.228,-0.394C0.214,-0.385 0.204,-0.373 0.197,-0.357L0.197,-0L0.055,-0L0.055,-0.528L0.187,-0.528L0.193,-0.45C0.206,-0.478 0.222,-0.499 0.241,-0.515C0.261,-0.53 0.284,-0.538 0.31,-0.538C0.317,-0.538 0.323,-0.538 0.329,-0.536C0.335,-0.535 0.341,-0.534 0.348,-0.532L0.333,-0.406Z" style="fill:rgb(88,88,90);fill-rule:nonzero;"/>
            </g>
            <g transform="matrix(133.333,0,0,133.333,404.362,435.558)">
                <path d="M0.205,-0L0.062,-0L0.062,-0.528L0.205,-0.528L0.205,-0ZM0.205,-0.655L0.062,-0.655L0.062,-0.839L0.205,-0.839L0.205,-0.655Z" style="fill:rgb(88,88,90);fill-rule:nonzero;"/>
            </g>
            <g transform="matrix(133.333,0,0,133.333,439.974,435.558)">
                <path d="M0.224,-0.747L0.224,-0.528L0.313,-0.528L0.313,-0.428L0.224,-0.428L0.224,-0.159C0.224,-0.139 0.228,-0.124 0.237,-0.115C0.245,-0.106 0.257,-0.102 0.271,-0.102C0.278,-0.102 0.285,-0.102 0.29,-0.103C0.296,-0.104 0.302,-0.105 0.309,-0.107L0.321,-0.004C0.307,0 0.293,0.004 0.279,0.007C0.266,0.009 0.251,0.01 0.235,0.01C0.186,0.01 0.148,-0.003 0.121,-0.03C0.095,-0.057 0.082,-0.1 0.082,-0.159L0.082,-0.428L0.004,-0.428L0.004,-0.528L0.082,-0.528L0.082,-0.658L0.224,-0.747Z" style="fill:rgb(88,88,90);fill-rule:nonzero;"/>
            </g>
            <g transform="matrix(133.333,0,0,133.333,486.524,435.558)">
                <path d="M0.245,-0.222L0.251,-0.192L0.254,-0.192L0.355,-0.528L0.508,-0.528L0.294,0.079C0.279,0.117 0.259,0.149 0.233,0.175C0.207,0.2 0.169,0.213 0.117,0.213C0.105,0.213 0.084,0.214 0.069,0.21C0.069,0.21 0.066,0.101 0.069,0.101C0.093,0.101 0.128,0.098 0.141,0.086C0.153,0.075 0.166,0.067 0.173,0.041L0.19,-0L0.002,-0.528L0.156,-0.528L0.245,-0.222Z" style="fill:rgb(88,88,90);fill-rule:nonzero;"/>
            </g>
        </g>
        <g transform="matrix(1,0,0,1,156.378,-240.52)">
            <g transform="matrix(133.333,0,0,133.333,152.937,518.287)">
                <path d="M0.066,-0L0.066,-0.711L0.307,-0.711C0.39,-0.711 0.456,-0.695 0.502,-0.662C0.549,-0.63 0.573,-0.581 0.573,-0.516C0.573,-0.483 0.564,-0.454 0.547,-0.428C0.529,-0.402 0.504,-0.383 0.471,-0.37C0.513,-0.361 0.545,-0.341 0.567,-0.311C0.588,-0.281 0.599,-0.246 0.599,-0.207C0.599,-0.139 0.576,-0.087 0.531,-0.052C0.486,-0.017 0.423,-0 0.34,-0L0.066,-0ZM0.209,-0.314L0.209,-0.109L0.34,-0.109C0.378,-0.109 0.407,-0.118 0.427,-0.134C0.447,-0.15 0.457,-0.175 0.457,-0.207C0.457,-0.242 0.448,-0.268 0.431,-0.287C0.414,-0.305 0.388,-0.314 0.351,-0.314L0.209,-0.314ZM0.209,-0.413L0.312,-0.413C0.35,-0.413 0.379,-0.421 0.399,-0.437C0.42,-0.452 0.43,-0.475 0.43,-0.505C0.43,-0.538 0.42,-0.562 0.399,-0.578C0.378,-0.593 0.348,-0.601 0.307,-0.601L0.209,-0.601L0.209,-0.413Z" style="fill:rgb(247,148,29);fill-rule:nonzero;"/>
            </g>
            <g transform="matrix(133.333,0,0,133.333,238.484,518.287)">
                <path d="M0.333,-0.406L0.28,-0.407C0.259,-0.407 0.242,-0.403 0.228,-0.394C0.214,-0.385 0.204,-0.373 0.197,-0.357L0.197,-0L0.055,-0L0.055,-0.528L0.187,-0.528L0.193,-0.45C0.206,-0.478 0.222,-0.499 0.241,-0.515C0.261,-0.53 0.284,-0.538 0.31,-0.538C0.317,-0.538 0.323,-0.538 0.329,-0.536C0.335,-0.535 0.341,-0.534 0.348,-0.532L0.333,-0.406Z" style="fill:rgb(247,148,29);fill-rule:nonzero;"/>
            </g>
            <g transform="matrix(133.333,0,0,133.333,285.163,518.287)">
                <rect x="0.062" y="-0.528" width="0.143" height="0.528" style="fill:rgb(247,148,29);fill-rule:nonzero;"/>
            </g>
            <g>
                <g transform="matrix(133.333,0,0,133.333,320.775,518.287)">
                    <path d="M0.033,-0.26C0.033,-0.343 0.051,-0.41 0.087,-0.461C0.123,-0.513 0.173,-0.538 0.239,-0.538C0.265,-0.538 0.289,-0.532 0.31,-0.521C0.331,-0.51 0.35,-0.493 0.366,-0.472L0.389,-1.941L0.45,-1.98L0.482,-1.953L0.509,-0L0.386,-0L0.375,-0.064C0.358,-0.04 0.338,-0.021 0.316,-0.009C0.293,0.004 0.267,0.01 0.238,0.01C0.173,0.01 0.123,-0.014 0.087,-0.061C0.051,-0.109 0.033,-0.171 0.033,-0.25L0.033,-0.26ZM0.175,-0.25C0.175,-0.203 0.183,-0.167 0.198,-0.14C0.214,-0.114 0.239,-0.101 0.274,-0.101C0.295,-0.101 0.313,-0.105 0.328,-0.113C0.343,-0.121 0.356,-0.133 0.366,-0.149L0.366,-0.375C0.356,-0.391 0.344,-0.404 0.328,-0.413C0.313,-0.423 0.296,-0.427 0.275,-0.427C0.241,-0.427 0.215,-0.412 0.199,-0.381C0.183,-0.35 0.175,-0.31 0.175,-0.26L0.175,-0.25Z" style="fill:rgb(247,148,29);fill-rule:nonzero;"/>
                </g>
                <g transform="matrix(1.08231,0.612589,-0.505059,0.892332,-39.349,-441.066)">
                    <path d="M707.342,420.332L572.324,389.043L573.519,400.874L723.319,453.474L707.342,420.332Z" style="fill:rgb(247,148,29);"/>
                </g>
                <g transform="matrix(1,0,0,1,-174.917,-128.735)">
                    <path d="M551.866,385.424L465.219,441.255L467.527,443.038L553.831,396.108L551.866,385.424Z" style="fill:rgb(247,148,29);"/>
                </g>
                <g transform="matrix(1,0,0,1.09527,-174.917,-182.31)">
                    <rect x="572.961" y="425.183" width="4.056" height="137.135" style="fill:rgb(247,148,29);"/>
                </g>
                <g transform="matrix(1,0,0,0.909449,-149.788,-77.8168)">
                    <rect x="572.961" y="425.183" width="4.056" height="137.135" style="fill:rgb(247,148,29);"/>
                </g>
                <g transform="matrix(1,0,0,0.774722,-126.143,-2.05744)">
                    <rect x="572.961" y="425.183" width="4.056" height="137.135" style="fill:rgb(247,148,29);"/>
                </g>
                <g transform="matrix(1,0,0,0.614673,-101.13,87.9413)">
                    <rect x="572.961" y="425.183" width="4.056" height="137.135" style="fill:rgb(247,148,29);"/>
                </g>
                <g transform="matrix(1,0,0,0.561218,-77.0235,118)">
                    <rect x="572.961" y="425.183" width="4.056" height="137.135" style="fill:rgb(247,148,29);"/>
                </g>
            </g>
            <g transform="matrix(133.333,0,0,133.333,396.036,518.287)">
                <path d="M0.033,-0.26C0.033,-0.343 0.051,-0.41 0.087,-0.461C0.123,-0.513 0.174,-0.538 0.24,-0.538C0.269,-0.538 0.295,-0.531 0.318,-0.518C0.34,-0.505 0.36,-0.486 0.375,-0.461L0.387,-0.528L0.51,-0.528L0.51,-0.002C0.51,0.066 0.487,0.119 0.442,0.157C0.397,0.195 0.334,0.213 0.254,0.213C0.227,0.213 0.199,0.21 0.169,0.202C0.139,0.195 0.111,0.185 0.086,0.172L0.112,0.066C0.134,0.076 0.156,0.084 0.179,0.09C0.202,0.095 0.226,0.098 0.253,0.098C0.292,0.098 0.321,0.09 0.339,0.073C0.358,0.057 0.367,0.032 0.367,-0.003L0.367,-0.051C0.351,-0.031 0.333,-0.016 0.312,-0.005C0.29,0.005 0.266,0.01 0.239,0.01C0.174,0.01 0.123,-0.014 0.087,-0.061C0.051,-0.109 0.033,-0.172 0.033,-0.25L0.033,-0.26ZM0.175,-0.25C0.175,-0.203 0.183,-0.167 0.199,-0.14C0.214,-0.114 0.24,-0.101 0.275,-0.101C0.297,-0.101 0.315,-0.105 0.33,-0.113C0.345,-0.121 0.358,-0.132 0.367,-0.147L0.367,-0.377C0.358,-0.393 0.345,-0.405 0.33,-0.414C0.315,-0.423 0.297,-0.427 0.276,-0.427C0.241,-0.427 0.216,-0.412 0.199,-0.381C0.183,-0.35 0.175,-0.31 0.175,-0.26L0.175,-0.25Z" style="fill:rgb(247,148,29);fill-rule:nonzero;"/>
            </g>
            <g transform="matrix(133.333,0,0,133.333,471.296,518.287)">
                <path d="M0.289,0.01C0.212,0.01 0.152,-0.014 0.106,-0.063C0.06,-0.112 0.038,-0.174 0.038,-0.249L0.038,-0.269C0.038,-0.347 0.059,-0.412 0.102,-0.462C0.145,-0.513 0.203,-0.538 0.276,-0.538C0.347,-0.538 0.403,-0.517 0.442,-0.474C0.481,-0.431 0.501,-0.373 0.501,-0.299L0.501,-0.222L0.186,-0.222L0.185,-0.219C0.187,-0.184 0.199,-0.155 0.219,-0.133C0.24,-0.11 0.268,-0.099 0.304,-0.099C0.335,-0.099 0.361,-0.102 0.382,-0.109C0.403,-0.115 0.426,-0.125 0.451,-0.139L0.489,-0.051C0.468,-0.033 0.44,-0.019 0.405,-0.007C0.37,0.004 0.331,0.01 0.289,0.01ZM0.276,-0.428C0.25,-0.428 0.229,-0.418 0.213,-0.398C0.198,-0.378 0.189,-0.351 0.185,-0.318L0.187,-0.316L0.361,-0.316L0.361,-0.329C0.361,-0.359 0.354,-0.383 0.34,-0.401C0.326,-0.419 0.305,-0.428 0.276,-0.428Z" style="fill:rgb(247,148,29);fill-rule:nonzero;"/>
            </g>
        </g>
        <g transform="matrix(0.88661,0,0,1.36847,41.7537,-544.809)">
            <rect x="531.728" y="423.266" width="2.46" height="35.573" style="fill:rgb(247,148,29);"/>
        </g>
        <g transform="matrix(0.88661,0,0,1.08271,27.7537,-413.688)">
            <rect x="531.728" y="423.266" width="2.46" height="35.573" style="fill:rgb(247,148,29);"/>
        </g>
        <g transform="matrix(0.88661,0,0,0.906411,14.7537,-332.796)">
            <rect x="531.728" y="423.266" width="2.46" height="35.573" style="fill:rgb(247,148,29);"/>
        </g>
        <g transform="matrix(0.88661,0,0,0.684237,2.75372,-230.854)">
            <rect x="531.728" y="423.266" width="2.46" height="35.573" style="fill:rgb(247,148,29);"/>
        </g>
        <g transform="matrix(0.88661,0,0,0.541354,-8.24628,-165.293)">
            <rect x="531.728" y="423.266" width="2.46" height="35.573" style="fill:rgb(247,148,29);"/>
        </g>
    </g>
    <g transform="matrix(0.577968,0,0,0.577968,279.619,299.245)">
        <text x="677.968px" y="161.707px" style="font-family:'Roboto-Bold', 'Roboto';font-weight:700;font-size:50px;fill:rgb(88,88,90);">TM</text>
    </g>
</svg>
