<?xml version="1.0" encoding="utf-8"?>
<!-- Generator: Adobe Illustrator 16.0.3, SVG Export Plug-In . SVG Version: 6.00 Build 0) -->
<svg version="1.2" baseProfile="tiny" xmlns="http://www.w3.org/2000/svg" x="0px" y="0px" width="1285.653px" height="1285.656px" viewBox="0 0 1285.653 1285.656" xml:space="preserve">
	<g>
		<rect display="none" fill="#575756" width="1285.653" height="1285.656" />
		<path fill="#DE8004" stroke="#FFFFFF" stroke-width="84" d="M1020.921,355.942c0,0-0.323-0.081-0.928-0.225V224.222L887.475,91.183
		H642.827H397.576L264.732,224.222v131.721L128.172,492.503v328.858c202.518,287.056,257.328,248.038,514.655,405.036
		c257.327-156.998,312.138-117.98,514.655-405.036V492.503L1020.921,355.942z M642.711,487.857
		c-64.426-103.525-164.249-134.999-245.135-141.39v-77.654l44.591-45.251h200.66h200.166l44.482,45.251v77.412
		C804.443,352.034,702.442,382.954,642.711,487.857z" />
		<g>
			<polygon fill="#999999" points="264.732,355.942 264.732,224.222 397.576,91.183 642.827,91.183 642.827,223.563 442.167,223.563 
			397.576,268.813 397.576,355.942 		" />
			<polygon fill="#BABABA" points="1019.993,355.942 1019.993,224.222 887.475,91.183 642.827,91.183 642.827,223.563 
			842.993,223.563 887.475,268.813 887.475,355.942 		" />
			<path fill="#F7A738" d="M642.827,1226.397c257.327-156.998,312.138-117.98,514.655-405.036V492.503l-136.561-136.561
			c0,0-265.015-66.887-378.21,131.915" />
			<path fill="#DE8004" d="M642.827,1226.397c-257.327-156.998-312.138-117.98-514.655-405.036V492.503l136.561-136.561
			c0,0,254.26-66.887,377.979,131.915" />
		</g>
		<g>
			<rect x="642.827" y="590.941" fill="#DE8004" width="142.145" height="142.145" />
			<rect x="784.972" y="733.086" fill="#DE8004" width="142.144" height="142.146" />
			<rect x="500.683" y="590.941" fill="#F7A738" width="142.145" height="142.145" />
			<rect x="500.683" y="733.086" fill="#F7A738" width="142.145" height="142.146" />
			<rect x="358.538" y="733.086" fill="#F7A738" width="142.145" height="142.146" />
			<rect x="358.538" y="875.231" fill="#F7A738" width="142.145" height="142.145" />
			<rect x="358.538" y="449.77" fill="#F7A738" width="142.145" height="142.145" />
		</g>
	</g>
</svg>
