<?xml version="1.0" encoding="UTF-8"?><svg xmlns="http://www.w3.org/2000/svg" viewBox="0 0 186.4 215.3" style="enable-background:new 0 0 186.4 215.3" xml:space="preserve" width="2400" height="2774.19354839"><style>.st14{fill:#673ef3}</style><g id="Layer_1"><path class="st14" d="m147.6 31.4-15.5 9-23.3 13.4 23.3 13.5 15.5 8.9 38.8 22.5V53.8zM93.2 0 54.4 22.4v44.9l23.3-13.5 15.5-8.9 38.9-22.5zM0 53.8v44.9l15.5 8.9 23.3 13.5V31.4zM54.4 148l-15.6-9L0 116.6v44.9l38.8 22.4 15.6-9 23.3-13.4zM108.8 161.5l-15.6 8.9-38.8 22.5 38.8 22.4 38.9-22.4V148zM170.9 107.6l-23.3-13.4V183.9l38.8-22.4v-44.9zM112.6 141.3l19.5-11.2V85.2L93.2 62.8 54.4 85.2v44.9l38.8 22.4z"/></g></svg>