<?xml version="1.0" encoding="UTF-8"?>
<svg xmlns="http://www.w3.org/2000/svg" xmlns:xlink="http://www.w3.org/1999/xlink" width="75px" height="75px" viewBox="0 0 75 75" version="1.1">
<g id="surface1">
<path style=" stroke:none;fill-rule:nonzero;fill:rgb(34.509804%,34.509804%,35.294118%);fill-opacity:1;" d="M 7.523438 33.429688 C 7.523438 32.578125 7.390625 31.894531 7.121094 31.378906 C 6.851562 30.859375 6.382812 30.371094 5.710938 29.917969 C 4.535156 29.15625 3.648438 28.25 3.046875 27.207031 C 2.445312 26.160156 2.144531 24.730469 2.144531 22.914062 C 2.144531 21.097656 2.488281 19.613281 3.179688 18.464844 C 3.867188 17.3125 4.746094 16.734375 5.816406 16.734375 C 6.902344 16.734375 7.785156 17.382812 8.464844 18.675781 C 9.148438 19.96875 9.476562 21.566406 9.453125 23.464844 L 9.441406 23.554688 L 7.523438 23.554688 C 7.523438 22.527344 7.371094 21.699219 7.066406 21.066406 C 6.761719 20.433594 6.335938 20.113281 5.785156 20.113281 C 5.253906 20.113281 4.847656 20.378906 4.558594 20.90625 C 4.269531 21.433594 4.125 22.109375 4.125 22.929688 C 4.125 23.679688 4.277344 24.296875 4.589844 24.777344 C 4.898438 25.261719 5.429688 25.769531 6.191406 26.308594 C 7.277344 26.988281 8.101562 27.886719 8.664062 29.003906 C 9.222656 30.117188 9.503906 31.585938 9.503906 33.402344 C 9.503906 35.296875 9.167969 36.792969 8.503906 37.890625 C 7.835938 38.988281 6.957031 39.535156 5.863281 39.535156 C 4.789062 39.535156 3.851562 38.914062 3.054688 37.671875 C 2.253906 36.425781 1.867188 34.683594 1.886719 32.441406 L 1.902344 32.351562 L 3.824219 32.351562 C 3.824219 33.671875 4.003906 34.636719 4.363281 35.25 C 4.722656 35.863281 5.222656 36.171875 5.863281 36.171875 C 6.402344 36.171875 6.8125 35.921875 7.097656 35.425781 C 7.382812 34.925781 7.523438 34.261719 7.523438 33.429688 Z M 7.523438 33.429688 "/>
<path style=" stroke:none;fill-rule:nonzero;fill:rgb(34.509804%,34.509804%,35.294118%);fill-opacity:1;" d="M 14.082031 39.535156 C 13.023438 39.535156 12.179688 38.773438 11.546875 37.25 C 10.914062 35.730469 10.601562 33.796875 10.601562 31.453125 L 10.601562 30.84375 C 10.601562 28.398438 10.898438 26.386719 11.496094 24.800781 C 12.097656 23.21875 12.898438 22.433594 13.90625 22.445312 C 14.894531 22.445312 15.660156 23.113281 16.207031 24.453125 C 16.753906 25.792969 17.027344 27.601562 17.027344 29.886719 L 17.027344 32.304688 L 12.652344 32.304688 L 12.636719 32.398438 C 12.675781 33.480469 12.835938 34.375 13.121094 35.074219 C 13.410156 35.773438 13.800781 36.125 14.292969 36.125 C 14.730469 36.125 15.09375 36.027344 15.382812 35.828125 C 15.671875 35.628906 15.988281 35.320312 16.332031 34.890625 L 16.867188 37.632812 C 16.566406 38.179688 16.175781 38.632812 15.695312 38.996094 C 15.210938 39.355469 14.671875 39.535156 14.082031 39.535156 Z M 13.90625 25.867188 C 13.539062 25.867188 13.25 26.183594 13.039062 26.8125 C 12.824219 27.441406 12.695312 28.265625 12.644531 29.292969 L 12.664062 29.367188 L 15.089844 29.367188 L 15.089844 28.972656 C 15.089844 28.027344 14.992188 27.277344 14.796875 26.710938 C 14.601562 26.148438 14.304688 25.867188 13.90625 25.867188 Z M 13.90625 25.867188 "/>
<path style=" stroke:none;fill-rule:nonzero;fill:rgb(34.509804%,34.509804%,35.294118%);fill-opacity:1;" d="M 21.253906 36.125 C 21.605469 36.125 21.890625 35.894531 22.101562 35.433594 C 22.3125 34.972656 22.421875 34.355469 22.421875 33.582031 L 24.214844 33.582031 L 24.234375 33.675781 C 24.253906 35.339844 23.976562 36.730469 23.398438 37.851562 C 22.824219 38.972656 22.109375 39.535156 21.253906 39.535156 C 20.160156 39.535156 19.320312 38.757812 18.726562 37.207031 C 18.136719 35.652344 17.839844 33.660156 17.839844 31.222656 L 17.839844 30.769531 C 17.839844 28.34375 18.136719 26.347656 18.726562 24.785156 C 19.3125 23.226562 20.15625 22.445312 21.25 22.445312 C 22.152344 22.445312 22.878906 23.023438 23.433594 24.179688 C 23.984375 25.335938 24.253906 26.855469 24.234375 28.746094 L 24.222656 28.835938 L 22.421875 28.835938 C 22.421875 27.984375 22.316406 27.277344 22.109375 26.710938 C 21.902344 26.148438 21.613281 25.867188 21.25 25.867188 C 20.722656 25.867188 20.355469 26.324219 20.140625 27.238281 C 19.925781 28.148438 19.820312 29.328125 19.820312 30.769531 L 19.820312 31.222656 C 19.820312 32.695312 19.925781 33.878906 20.140625 34.777344 C 20.355469 35.675781 20.726562 36.125 21.253906 36.125 Z M 21.253906 36.125 "/>
<path style=" stroke:none;fill-rule:nonzero;fill:rgb(34.509804%,34.509804%,35.294118%);fill-opacity:1;" d="M 29.835938 36.839844 C 29.613281 37.703125 29.324219 38.367188 28.976562 38.835938 C 28.628906 39.300781 28.230469 39.535156 27.777344 39.535156 C 27.007812 39.535156 26.402344 38.980469 25.964844 37.867188 C 25.53125 36.757812 25.3125 35.03125 25.3125 32.683594 L 25.3125 22.746094 L 27.285156 22.746094 L 27.285156 32.714844 C 27.285156 33.914062 27.375 34.773438 27.554688 35.296875 C 27.734375 35.820312 28 36.078125 28.355469 36.078125 C 28.671875 36.078125 28.941406 35.964844 29.167969 35.738281 C 29.394531 35.507812 29.578125 35.171875 29.722656 34.726562 L 29.722656 22.746094 L 31.699219 22.746094 L 31.699219 39.214844 L 30.011719 39.214844 Z M 29.835938 36.839844 "/>
<path style=" stroke:none;fill-rule:nonzero;fill:rgb(34.509804%,34.509804%,35.294118%);fill-opacity:1;" d="M 37.042969 26.566406 L 36.320312 26.523438 C 36.027344 26.523438 35.785156 26.660156 35.59375 26.933594 C 35.40625 27.207031 35.261719 27.59375 35.160156 28.089844 L 35.160156 39.214844 L 33.191406 39.214844 L 33.191406 22.746094 L 35.027344 22.746094 L 35.113281 25.183594 C 35.285156 24.320312 35.507812 23.648438 35.78125 23.167969 C 36.054688 22.683594 36.371094 22.445312 36.726562 22.445312 C 36.824219 22.445312 36.917969 22.460938 37 22.496094 C 37.085938 22.53125 37.167969 22.574219 37.253906 22.625 Z M 37.042969 26.566406 "/>
<path style=" stroke:none;fill-rule:nonzero;fill:rgb(34.509804%,34.509804%,35.294118%);fill-opacity:1;" d="M 40.125 39.214844 L 38.148438 39.214844 L 38.148438 22.746094 L 40.125 22.746094 Z M 40.125 18.804688 L 38.148438 18.804688 L 38.148438 13.074219 L 40.125 13.074219 Z M 40.125 18.804688 "/>
<path style=" stroke:none;fill-rule:nonzero;fill:rgb(34.509804%,34.509804%,35.294118%);fill-opacity:1;" d="M 44.101562 15.941406 L 44.101562 22.746094 L 45.335938 22.746094 L 45.335938 25.867188 L 44.101562 25.867188 L 44.101562 34.253906 C 44.101562 34.890625 44.160156 35.347656 44.28125 35.625 C 44.398438 35.898438 44.554688 36.035156 44.753906 36.035156 C 44.855469 36.035156 44.945312 36.019531 45.019531 35.996094 C 45.09375 35.972656 45.183594 35.929688 45.28125 35.867188 L 45.453125 39.078125 C 45.253906 39.230469 45.058594 39.34375 44.867188 39.417969 C 44.679688 39.496094 44.472656 39.535156 44.253906 39.535156 C 43.570312 39.535156 43.046875 39.113281 42.675781 38.269531 C 42.308594 37.429688 42.125 36.09375 42.125 34.269531 L 42.125 25.867188 L 41.054688 25.867188 L 41.054688 22.746094 L 42.125 22.746094 L 42.125 18.714844 Z M 44.101562 15.941406 "/>
<path style=" stroke:none;fill-rule:nonzero;fill:rgb(34.509804%,34.509804%,35.294118%);fill-opacity:1;" d="M 49.238281 32.304688 L 49.320312 33.21875 L 49.359375 33.21875 L 50.761719 22.746094 L 52.890625 22.746094 L 49.914062 41.679688 C 49.707031 42.855469 49.425781 43.847656 49.066406 44.65625 C 48.710938 45.460938 48.175781 45.867188 47.460938 45.867188 C 47.296875 45.867188 47.003906 45.886719 46.800781 45.773438 C 46.800781 45.773438 46.75 42.355469 46.800781 42.355469 C 47.125 42.359375 47.613281 42.265625 47.789062 41.902344 C 47.964844 41.542969 48.140625 41.308594 48.242188 40.476562 L 48.472656 39.199219 L 45.871094 22.746094 L 48 22.746094 Z M 49.238281 32.304688 "/>
<path style=" stroke:none;fill-rule:nonzero;fill:rgb(96.862745%,58.039216%,11.372549%);fill-opacity:1;" d="M 33.105469 64.933594 L 33.105469 42.773438 L 36.4375 42.773438 C 37.597656 42.773438 38.503906 43.28125 39.152344 44.296875 C 39.804688 45.308594 40.128906 46.828125 40.128906 48.847656 C 40.128906 49.871094 40.007812 50.785156 39.765625 51.59375 C 39.523438 52.398438 39.175781 53.003906 38.714844 53.410156 C 39.304688 53.695312 39.75 54.304688 40.042969 55.238281 C 40.339844 56.171875 40.488281 57.253906 40.488281 58.480469 C 40.488281 60.601562 40.175781 62.207031 39.554688 63.296875 C 38.929688 64.386719 38.046875 64.933594 36.90625 64.933594 Z M 35.082031 55.132812 L 35.082031 61.523438 L 36.90625 61.523438 C 37.429688 61.523438 37.828125 61.265625 38.101562 60.753906 C 38.378906 60.242188 38.515625 59.484375 38.515625 58.480469 C 38.515625 57.394531 38.398438 56.566406 38.164062 55.992188 C 37.929688 55.417969 37.558594 55.132812 37.054688 55.132812 Z M 35.082031 52.058594 L 36.503906 52.058594 C 37.03125 52.058594 37.441406 51.8125 37.722656 51.328125 C 38.007812 50.839844 38.152344 50.128906 38.152344 49.195312 C 38.152344 48.171875 38.007812 47.414062 37.71875 46.929688 C 37.433594 46.441406 37.007812 46.199219 36.4375 46.199219 L 35.082031 46.199219 Z M 35.082031 52.058594 "/>
<path style=" stroke:none;fill-rule:nonzero;fill:rgb(96.862745%,58.039216%,11.372549%);fill-opacity:1;" d="M 45.695312 52.285156 L 44.972656 52.238281 C 44.679688 52.238281 44.4375 52.378906 44.246094 52.652344 C 44.058594 52.925781 43.914062 53.308594 43.8125 53.808594 L 43.8125 64.933594 L 41.84375 64.933594 L 41.84375 48.464844 L 43.679688 48.464844 L 43.765625 50.902344 C 43.9375 50.039062 44.160156 49.367188 44.433594 48.882812 C 44.707031 48.402344 45.023438 48.160156 45.378906 48.160156 C 45.476562 48.160156 45.570312 48.179688 45.652344 48.214844 C 45.738281 48.25 45.820312 48.292969 45.90625 48.34375 Z M 45.695312 52.285156 "/>
<path style=" stroke:none;fill-rule:nonzero;fill:rgb(96.862745%,58.039216%,11.372549%);fill-opacity:1;" d="M 46.800781 48.464844 L 48.777344 48.464844 L 48.777344 64.933594 L 46.800781 64.933594 Z M 46.800781 48.464844 "/>
<path style=" stroke:none;fill-rule:nonzero;fill:rgb(96.862745%,58.039216%,11.372549%);fill-opacity:1;" d="M 50.101562 56.835938 C 50.101562 54.238281 50.347656 52.144531 50.847656 50.550781 C 51.347656 48.957031 52.050781 48.160156 52.957031 48.160156 C 53.324219 48.160156 53.652344 48.339844 53.949219 48.695312 C 54.242188 49.050781 54.5 49.554688 54.71875 50.214844 L 55.035156 4.4375 L 55.882812 3.222656 L 56.328125 4.050781 L 56.703125 64.933594 L 55.003906 64.933594 L 54.839844 62.925781 C 54.609375 63.683594 54.339844 64.261719 54.023438 64.660156 C 53.710938 65.054688 53.351562 65.25 52.945312 65.25 C 52.046875 65.25 51.347656 64.511719 50.847656 63.03125 C 50.347656 61.546875 50.101562 59.589844 50.101562 57.15625 Z M 52.070312 57.15625 C 52.070312 58.597656 52.179688 59.730469 52.394531 60.558594 C 52.613281 61.382812 52.964844 61.796875 53.453125 61.796875 C 53.738281 61.796875 53.984375 61.667969 54.199219 61.410156 C 54.410156 61.148438 54.585938 60.773438 54.71875 60.277344 L 54.71875 53.257812 C 54.585938 52.742188 54.410156 52.339844 54.203125 52.050781 C 53.992188 51.761719 53.746094 51.617188 53.464844 51.617188 C 52.984375 51.617188 52.628906 52.097656 52.40625 53.0625 C 52.183594 54.023438 52.070312 55.285156 52.070312 56.835938 Z M 52.070312 57.15625 "/>
<path style=" stroke:none;fill-rule:evenodd;fill:rgb(96.862745%,58.039216%,11.372549%);fill-opacity:1;" d="M 69.742188 29.640625 L 56.183594 3.777344 L 55.695312 6.417969 L 69.800781 38.84375 Z M 69.742188 29.640625 "/>
<path style=" stroke:none;fill-rule:evenodd;fill:rgb(96.862745%,58.039216%,11.372549%);fill-opacity:1;" d="M 55.492188 3.777344 L 46.476562 16.832031 L 46.714844 17.25 L 55.695312 6.277344 Z M 55.492188 3.777344 "/>
<path style=" stroke:none;fill-rule:evenodd;fill:rgb(96.862745%,58.039216%,11.372549%);fill-opacity:1;" d="M 57.683594 10.019531 L 58.105469 10.019531 L 58.105469 45.132812 L 57.683594 45.132812 Z M 57.683594 10.019531 "/>
<path style=" stroke:none;fill-rule:evenodd;fill:rgb(96.862745%,58.039216%,11.372549%);fill-opacity:1;" d="M 60.300781 15.976562 L 60.722656 15.976562 L 60.722656 45.132812 L 60.300781 45.132812 Z M 60.300781 15.976562 "/>
<path style=" stroke:none;fill-rule:evenodd;fill:rgb(96.862745%,58.039216%,11.372549%);fill-opacity:1;" d="M 62.761719 20.296875 L 63.183594 20.296875 L 63.183594 45.132812 L 62.761719 45.132812 Z M 62.761719 20.296875 "/>
<path style=" stroke:none;fill-rule:evenodd;fill:rgb(96.862745%,58.039216%,11.372549%);fill-opacity:1;" d="M 65.363281 25.425781 L 65.785156 25.425781 L 65.785156 45.132812 L 65.363281 45.132812 Z M 65.363281 25.425781 "/>
<path style=" stroke:none;fill-rule:evenodd;fill:rgb(96.862745%,58.039216%,11.372549%);fill-opacity:1;" d="M 67.871094 27.140625 L 68.292969 27.140625 L 68.292969 45.132812 L 67.871094 45.132812 Z M 67.871094 27.140625 "/>
<path style=" stroke:none;fill-rule:nonzero;fill:rgb(96.862745%,58.039216%,11.372549%);fill-opacity:1;" d="M 57.929688 56.835938 C 57.929688 54.238281 58.183594 52.144531 58.6875 50.550781 C 59.1875 48.957031 59.894531 48.160156 60.800781 48.160156 C 61.214844 48.160156 61.574219 48.371094 61.886719 48.785156 C 62.199219 49.199219 62.464844 49.796875 62.6875 50.566406 L 62.839844 48.464844 L 64.546875 48.464844 L 64.546875 64.855469 C 64.546875 66.996094 64.234375 68.652344 63.609375 69.824219 C 62.984375 70.996094 62.113281 71.582031 61 71.582031 C 60.628906 71.582031 60.234375 71.46875 59.820312 71.242188 C 59.40625 71.011719 59.019531 70.699219 58.667969 70.304688 L 59.035156 66.988281 C 59.335938 67.3125 59.644531 67.558594 59.960938 67.726562 C 60.273438 67.890625 60.613281 67.976562 60.984375 67.976562 C 61.527344 67.976562 61.925781 67.722656 62.179688 67.214844 C 62.4375 66.707031 62.5625 65.917969 62.5625 64.839844 L 62.5625 63.351562 C 62.347656 63.96875 62.089844 64.441406 61.796875 64.765625 C 61.503906 65.089844 61.167969 65.25 60.789062 65.25 C 59.890625 65.25 59.1875 64.507812 58.6875 63.023438 C 58.183594 61.535156 57.929688 59.582031 57.929688 57.15625 Z M 59.910156 57.15625 C 59.910156 58.597656 60.015625 59.730469 60.234375 60.558594 C 60.449219 61.382812 60.800781 61.796875 61.289062 61.796875 C 61.59375 61.796875 61.847656 61.671875 62.058594 61.425781 C 62.269531 61.175781 62.4375 60.8125 62.5625 60.335938 L 62.5625 53.183594 C 62.4375 52.6875 62.269531 52.300781 62.058594 52.027344 C 61.847656 51.753906 61.597656 51.617188 61.304688 51.617188 C 60.820312 51.617188 60.46875 52.097656 60.242188 53.0625 C 60.019531 54.023438 59.910156 55.285156 59.910156 56.835938 Z M 59.910156 57.15625 "/>
<path style=" stroke:none;fill-rule:nonzero;fill:rgb(96.862745%,58.039216%,11.372549%);fill-opacity:1;" d="M 69.308594 65.25 C 68.253906 65.25 67.410156 64.492188 66.777344 62.96875 C 66.144531 61.449219 65.828125 59.515625 65.828125 57.171875 L 65.828125 56.5625 C 65.828125 54.117188 66.128906 52.101562 66.726562 50.519531 C 67.324219 48.9375 68.128906 48.152344 69.132812 48.160156 C 70.125 48.160156 70.890625 48.832031 71.4375 50.171875 C 71.984375 51.507812 72.257812 53.320312 72.257812 55.601562 L 72.257812 58.023438 L 67.882812 58.023438 L 67.867188 58.113281 C 67.902344 59.199219 68.066406 60.09375 68.351562 60.792969 C 68.640625 61.492188 69.027344 61.84375 69.519531 61.84375 C 69.957031 61.84375 70.320312 61.746094 70.609375 61.546875 C 70.898438 61.347656 71.214844 61.035156 71.558594 60.609375 L 72.09375 63.351562 C 71.796875 63.898438 71.40625 64.351562 70.921875 64.710938 C 70.4375 65.070312 69.902344 65.25 69.308594 65.25 Z M 69.132812 51.585938 C 68.769531 51.585938 68.480469 51.898438 68.265625 52.527344 C 68.054688 53.160156 67.925781 53.984375 67.875 55.011719 L 67.894531 55.085938 L 70.320312 55.085938 L 70.320312 54.691406 C 70.320312 53.746094 70.222656 52.992188 70.023438 52.429688 C 69.828125 51.867188 69.53125 51.585938 69.132812 51.585938 Z M 69.132812 51.585938 "/>
<path style=" stroke:none;fill-rule:evenodd;fill:rgb(96.862745%,58.039216%,11.372549%);fill-opacity:1;" d="M 53.394531 8.046875 L 53.621094 8.046875 L 53.621094 19.425781 L 53.394531 19.425781 Z M 53.394531 8.046875 "/>
<path style=" stroke:none;fill-rule:evenodd;fill:rgb(96.862745%,58.039216%,11.372549%);fill-opacity:1;" d="M 51.9375 10.421875 L 52.164062 10.421875 L 52.164062 19.425781 L 51.9375 19.425781 Z M 51.9375 10.421875 "/>
<path style=" stroke:none;fill-rule:evenodd;fill:rgb(96.862745%,58.039216%,11.372549%);fill-opacity:1;" d="M 50.585938 11.890625 L 50.8125 11.890625 L 50.8125 19.425781 L 50.585938 19.425781 Z M 50.585938 11.890625 "/>
<path style=" stroke:none;fill-rule:evenodd;fill:rgb(96.862745%,58.039216%,11.372549%);fill-opacity:1;" d="M 49.335938 13.738281 L 49.566406 13.738281 L 49.566406 19.425781 L 49.335938 19.425781 Z M 49.335938 13.738281 "/>
<path style=" stroke:none;fill-rule:evenodd;fill:rgb(96.862745%,58.039216%,11.372549%);fill-opacity:1;" d="M 48.191406 14.925781 L 48.421875 14.925781 L 48.421875 19.425781 L 48.191406 19.425781 Z M 48.191406 14.925781 "/>
</g>
</svg>
