<svg width="231" height="231" xmlns="http://www.w3.org/2000/svg" clip-rule="evenodd" xml:space="preserve" version="1.1">

 <g>
  <g>
   <g>
    <path fill-rule="nonzero" fill="#58585a" d="m23.142,109.764c0,-1.167 -0.414,-2.104 -1.24,-2.812c-0.826,-0.709 -2.274,-1.375 -4.344,-2c-3.611,-1.042 -6.34,-2.278 -8.187,-3.709c-1.847,-1.43 -2.771,-3.389 -2.771,-5.875c0,-2.486 1.059,-4.517 3.177,-6.094c2.118,-1.576 4.823,-2.364 8.115,-2.364c3.333,0 6.048,0.885 8.146,2.656c2.097,1.771 3.111,3.955 3.041,6.552l-0.041,0.125l-5.896,0c0,-1.403 -0.469,-2.538 -1.407,-3.406c-0.937,-0.868 -2.253,-1.302 -3.947,-1.302c-1.625,0 -2.882,0.361 -3.771,1.083c-0.889,0.722 -1.334,1.646 -1.334,2.771c0,1.028 0.476,1.872 1.427,2.531c0.952,0.66 2.594,1.358 4.928,2.094c3.347,0.931 5.881,2.16 7.604,3.688c1.722,1.527 2.583,3.534 2.583,6.02c0,2.598 -1.024,4.646 -3.073,6.146c-2.049,1.5 -4.753,2.25 -8.114,2.25c-3.306,0 -6.188,-0.851 -8.646,-2.552c-2.459,-1.701 -3.653,-4.087 -3.584,-7.156l0.042,-0.125l5.917,0c0,1.805 0.552,3.128 1.656,3.969c1.104,0.84 2.642,1.26 4.615,1.26c1.652,0 2.916,-0.34 3.791,-1.021c0.875,-0.68 1.313,-1.59 1.313,-2.729z"/>
    <path fill-rule="nonzero" fill="#58585a" d="m43.308,118.118c-3.25,0 -5.847,-1.041 -7.791,-3.125c-1.945,-2.083 -2.917,-4.729 -2.917,-7.937l0,-0.834c0,-3.347 0.92,-6.104 2.76,-8.27c1.841,-2.167 4.309,-3.244 7.407,-3.23c3.041,0 5.402,0.917 7.083,2.75c1.681,1.834 2.521,4.313 2.521,7.438l0,3.312l-13.458,0l-0.042,0.125c0.111,1.486 0.607,2.709 1.489,3.667c0.882,0.958 2.08,1.438 3.594,1.438c1.347,0 2.465,-0.136 3.354,-0.407c0.889,-0.271 1.861,-0.698 2.917,-1.281l1.646,3.75c-0.917,0.75 -2.118,1.372 -3.604,1.865c-1.486,0.493 -3.139,0.739 -4.959,0.739zm-0.541,-18.708c-1.125,0 -2.014,0.43 -2.667,1.292c-0.653,0.861 -1.056,1.993 -1.208,3.395l0.062,0.105l7.459,0l0,-0.542c0,-1.292 -0.303,-2.323 -0.907,-3.094c-0.604,-0.771 -1.517,-1.156 -2.739,-1.156z"/>
    <path fill-rule="nonzero" fill="#58585a" d="m65.371,113.452c1.083,0 1.951,-0.316 2.604,-0.948c0.653,-0.632 0.979,-1.476 0.979,-2.532l5.521,0l0.063,0.125c0.055,2.278 -0.803,4.184 -2.573,5.719c-1.771,1.535 -3.969,2.302 -6.594,2.302c-3.361,0 -5.952,-1.062 -7.771,-3.187c-1.819,-2.125 -2.729,-4.854 -2.729,-8.188l0,-0.625c0,-3.319 0.906,-6.048 2.719,-8.187c1.812,-2.139 4.399,-3.209 7.76,-3.209c2.778,0 5.017,0.792 6.719,2.375c1.701,1.584 2.524,3.667 2.469,6.25l-0.042,0.125l-5.542,0c0,-1.166 -0.319,-2.135 -0.958,-2.906c-0.639,-0.771 -1.521,-1.156 -2.646,-1.156c-1.611,0 -2.747,0.625 -3.406,1.875c-0.66,1.25 -0.99,2.861 -0.99,4.833l0,0.625c0,2.014 0.33,3.636 0.99,4.865c0.659,1.229 1.802,1.844 3.427,1.844z"/>
    <path fill-rule="nonzero" fill="#58585a" d="m91.767,114.431c-0.695,1.18 -1.577,2.09 -2.646,2.729c-1.07,0.639 -2.299,0.958 -3.688,0.958c-2.375,0 -4.232,-0.76 -5.573,-2.281c-1.34,-1.521 -2.01,-3.885 -2.01,-7.094l0,-13.604l6.063,0l0,13.646c0,1.639 0.277,2.816 0.833,3.531c0.555,0.715 1.375,1.073 2.458,1.073c0.972,0 1.806,-0.156 2.5,-0.469c0.695,-0.312 1.264,-0.774 1.709,-1.385l0,-16.396l6.083,0l0,22.542l-5.188,0l-0.541,-3.25z"/>
    <path fill-rule="nonzero" fill="#58585a" d="m113.933,100.368l-2.229,-0.062c-0.903,0 -1.646,0.187 -2.229,0.562c-0.583,0.375 -1.028,0.903 -1.333,1.584l0,15.229l-6.063,0l0,-22.542l5.646,0l0.271,3.333c0.528,-1.18 1.212,-2.1 2.052,-2.76c0.84,-0.66 1.809,-0.99 2.906,-0.99c0.306,0 0.587,0.025 0.844,0.073c0.257,0.049 0.517,0.108 0.781,0.177l-0.646,5.396z"/>
    <path fill-rule="nonzero" fill="#58585a" d="m123.413,117.681l-6.084,0l0,-22.542l6.084,0l0,22.542zm0,-27.938l-6.084,0l-0.002,-7.846l6.086,0l0,7.846z"/>
    <path fill-rule="nonzero" fill="#58585a" d="m135.642,85.82l0,9.319l3.791,0l0,4.271l-3.791,0l0,11.479c0,0.875 0.18,1.5 0.541,1.875c0.361,0.375 0.848,0.563 1.459,0.563c0.319,0 0.593,-0.018 0.823,-0.053c0.229,-0.034 0.496,-0.093 0.802,-0.177l0.521,4.396c-0.612,0.209 -1.209,0.365 -1.792,0.469c-0.583,0.104 -1.215,0.156 -1.896,0.156c-2.097,0 -3.712,-0.576 -4.844,-1.729c-1.132,-1.153 -1.698,-2.979 -1.698,-5.479l0,-11.5l-3.291,0l0,-4.271l3.291,0l0,-5.521l6.084,-3.798z"/>
    <path fill-rule="nonzero" fill="#58585a" d="m151.433,108.222l0.25,1.25l0.125,0l4.313,-14.333l6.542,0l-9.146,25.917c-0.639,1.611 -1.507,2.968 -2.604,4.073c-1.098,1.104 -2.744,1.656 -4.938,1.656c-0.514,0 -1.411,0.028 -2.036,-0.125c0,0 -0.152,-4.68 0,-4.679c1,0.005 2.5,-0.127 3.042,-0.62c0.542,-0.493 1.078,-0.815 1.39,-1.951l0.708,-1.75l-8,-22.521l6.542,0l3.812,13.083z"/>
   </g>
   <g>
    <path fill-rule="nonzero" fill="#f7941d" d="m101.814,152.886l0,-30.334l10.25,0c3.57,0 6.354,0.695 8.354,2.084c2,1.388 3,3.465 3,6.229c0,1.403 -0.371,2.656 -1.114,3.76c-0.743,1.104 -1.823,1.934 -3.24,2.49c1.82,0.389 3.184,1.222 4.094,2.5c0.91,1.278 1.365,2.757 1.365,4.437c0,2.903 -0.959,5.101 -2.875,6.594c-1.917,1.493 -4.632,2.24 -8.146,2.24l-11.688,0zm6.084,-13.417l0,8.75l5.604,0c1.611,0 2.84,-0.351 3.687,-1.052c0.847,-0.702 1.271,-1.74 1.271,-3.115c0,-1.486 -0.361,-2.621 -1.083,-3.406c-0.723,-0.785 -1.861,-1.177 -3.417,-1.177l-6.062,0zm0,-4.208l4.375,0c1.625,0 2.875,-0.334 3.75,-1c0.875,-0.667 1.312,-1.639 1.312,-2.917c0,-1.403 -0.441,-2.438 -1.323,-3.104c-0.882,-0.667 -2.198,-1 -3.948,-1l-4.166,0l0,8.021z"/>
    <path fill-rule="nonzero" fill="#f7941d" d="m140.543,135.573l-2.229,-0.062c-0.903,0 -1.646,0.187 -2.229,0.562c-0.583,0.375 -1.028,0.903 -1.333,1.583l0,15.23l-6.063,0l0,-22.542l5.646,0l0.271,3.333c0.528,-1.18 1.212,-2.1 2.052,-2.76c0.84,-0.66 1.809,-0.99 2.906,-0.99c0.306,0 0.587,0.025 0.844,0.073c0.257,0.049 0.517,0.108 0.781,0.177l-0.646,5.396z"/>
    <rect fill-rule="nonzero" fill="#f7941d" height="22.542" width="6.083" y="130.344" x="143.939"/>
    <g>
     <path fill-rule="nonzero" fill="#f7941d" d="m154.085,141.802c0,-3.555 0.767,-6.423 2.302,-8.604c1.535,-2.18 3.698,-3.271 6.49,-3.271c1.125,0 2.139,0.243 3.041,0.729c0.903,0.487 1.695,1.181 2.375,2.084l0.974,-62.664l2.604,-1.666l1.365,1.136l1.162,83.34l-5.23,0l-0.5,-2.75c-0.708,1.041 -1.545,1.833 -2.51,2.375c-0.965,0.541 -2.073,0.812 -3.323,0.812c-2.764,0 -4.913,-1.014 -6.448,-3.042c-1.535,-2.027 -2.302,-4.708 -2.302,-8.041l0,-0.438zm6.063,0.438c0,1.972 0.333,3.524 1,4.656c0.666,1.132 1.75,1.698 3.25,1.698c0.875,0 1.638,-0.177 2.291,-0.531c0.653,-0.354 1.188,-0.872 1.604,-1.552l0,-9.605c-0.416,-0.708 -0.948,-1.26 -1.593,-1.656c-0.646,-0.396 -1.4,-0.594 -2.261,-0.594c-1.486,0 -2.573,0.66 -3.26,1.98c-0.688,1.319 -1.031,3.041 -1.031,5.166l0,0.438z"/>
     <path fill="#f7941d" d="m214.497,104.576l-41.705,-35.402l-1.499,3.613l43.381,44.384l-0.177,-12.595z"/>
     <path fill="#f7941d" d="m170.665,69.174l-27.727,17.866l0.738,0.571l27.617,-15.018l-0.628,-3.419z"/>
     <rect  fill="#f7941d" height="48.064" width="1.298" y="77.716" x="177.415"/>
     <rect  fill="#f7941d" height="39.91" width="1.298" y="85.871" x="185.457"/>
     <rect  fill="#f7941d" height="33.997" width="1.298" y="91.783" x="193.023"/>
     <rect  fill="#f7941d" height="26.974" width="1.298" y="98.806" x="201.027"/>
     <rect  fill="#f7941d" height="24.628" width="1.298" y="101.152" x="208.741"/>
    </g>
    <path  fill-rule="nonzero" fill="#f7941d" d="m178.168,141.802c0,-3.555 0.775,-6.423 2.323,-8.604c1.549,-2.18 3.719,-3.271 6.511,-3.271c1.264,0 2.375,0.285 3.333,0.854c0.958,0.57 1.778,1.382 2.458,2.438l0.48,-2.875l5.25,0l0,22.437c0,2.931 -0.962,5.198 -2.886,6.803c-1.924,1.604 -4.601,2.406 -8.031,2.406c-1.139,0 -2.347,-0.156 -3.625,-0.469c-1.278,-0.312 -2.458,-0.74 -3.542,-1.281l1.125,-4.542c0.931,0.445 1.879,0.781 2.844,1.011c0.965,0.229 2.017,0.343 3.156,0.343c1.667,0 2.893,-0.347 3.677,-1.041c0.785,-0.695 1.177,-1.778 1.177,-3.25l0,-2.042c-0.666,0.847 -1.451,1.493 -2.354,1.937c-0.903,0.445 -1.937,0.667 -3.104,0.667c-2.764,0 -4.92,-1.017 -6.469,-3.052c-1.548,-2.035 -2.323,-4.712 -2.323,-8.031l0,-0.438zm6.084,0.438c0,1.972 0.333,3.524 1,4.656c0.666,1.132 1.75,1.698 3.25,1.698c0.93,0 1.718,-0.17 2.364,-0.51c0.646,-0.341 1.163,-0.837 1.552,-1.49l0,-9.792c-0.389,-0.68 -0.906,-1.208 -1.552,-1.583c-0.646,-0.375 -1.42,-0.563 -2.323,-0.563c-1.486,0 -2.573,0.66 -3.26,1.98c-0.688,1.319 -1.031,3.041 -1.031,5.166l0,0.438z"/>
    <path  fill-rule="nonzero" fill="#f7941d" d="m213.168,153.323c-3.25,0 -5.847,-1.042 -7.791,-3.125c-1.945,-2.083 -2.917,-4.729 -2.917,-7.937l0,-0.834c0,-3.347 0.92,-6.104 2.76,-8.271c1.841,-2.166 4.309,-3.243 7.407,-3.229c3.041,0 5.402,0.917 7.083,2.75c1.681,1.834 2.521,4.313 2.521,7.438l0,3.312l-13.458,0l-0.042,0.125c0.111,1.486 0.607,2.709 1.489,3.667c0.882,0.958 2.08,1.437 3.594,1.437c1.347,0 2.465,-0.135 3.354,-0.406c0.889,-0.271 1.861,-0.698 2.917,-1.281l1.646,3.75c-0.917,0.75 -2.118,1.371 -3.604,1.865c-1.486,0.493 -3.139,0.739 -4.959,0.739zm-0.541,-18.708c-1.125,0 -2.014,0.43 -2.667,1.291c-0.653,0.862 -1.056,1.993 -1.208,3.396l0.062,0.104l7.459,0l0,-0.541c0,-1.292 -0.303,-2.323 -0.907,-3.094c-0.604,-0.771 -1.517,-1.156 -2.739,-1.156z"/>
   </g>
   <rect  fill="#f7941d" height="15.578" width="0.698" y="75.014" x="164.22"/>
   <rect  fill="#f7941d" height="12.325" width="0.698" y="78.267" x="159.74"/>
   <rect  fill="#f7941d" height="10.318" width="0.698" y="80.274" x="155.58"/>
   <rect  fill="#f7941d" height="7.789" width="0.698" y="82.803" x="151.74"/>
   <rect  fill="#f7941d" height="6.163" width="0.698" y="84.43" x="148.22"/>
  </g>
  <text  fill="#58585a" font-size="9.247px" font-weight="700" font-family="'Roboto-Bold', 'Roboto'" y="125.666px" x="214.868px">TM</text>
 </g>
</svg>