<?xml version="1.0" encoding="utf-8"?>
<!-- Generator: Adobe Illustrator 24.1.2, SVG Export Plug-In . SVG Version: 6.00 Build 0)  -->
<svg version="1.1" id="Layer_1" xmlns="http://www.w3.org/2000/svg" xmlns:xlink="http://www.w3.org/1999/xlink" x="0px" y="0px"
	 viewBox="0 0 1024 266" style="enable-background:new 0 0 1024 266;" xml:space="preserve">
<style type="text/css">
	.st0{fill:#FFFFFF;}
	.st1{fill:#80BC00;}
</style>
<path class="st0" d="M349.2,202.6c-18.4,0-32.1-5.4-47.4-17.7c-1.4-0.8-1.8-2.6-1-3.9c0.1-0.1,0.2-0.3,0.3-0.4l12.3-17.5
	c0.8-1.3,2.6-1.7,3.9-0.9c0.2,0.1,0.3,0.2,0.4,0.3c10.8,7.6,21.8,12.3,33.6,12.4c11.7,0,20-4,20-11.9c0-9.2-10.8-12.1-23.3-14.6
	c-18.2-3.8-45.3-12.8-45.3-42c0-25.1,21.5-37.3,48.9-37.3c15.9,0,28.7,4,43.7,13.9c1.8,1.1,2.2,2.7,0.9,4.3l-11.5,17.3
	c-1.1,1.6-2.7,2-4.5,0.9c-8.9-5.8-19.3-8.9-29.9-9c-12.8,0-17.9,4.3-17.9,10.8c0,7.9,7.6,10.1,22.9,13.7
	c25.1,6.1,45.8,14.4,45.8,41.1C401,187.5,380.8,202.6,349.2,202.6z"/>
<path class="st0" d="M493,159.9c0,2-1.1,3.1-3.2,3.1h-51.1v2.9c0,9.2,6,13.9,15.5,13.9c8.1,0,16-2.3,22.9-6.5
	c1.6-1.3,3.1-0.9,4.1,0.7l9.4,12.4c1.1,1.6,1.1,3.2-0.5,4.5c-9.2,7-20.9,11.9-36.8,11.9c-23.5,0-42.4-12.4-42.4-37.5v-22.7
	c0-26.9,18.9-38.4,41.9-38.4c22.2,0,40.2,11.2,40.2,38.4L493,159.9z M452.6,127c-8.3,0-13.9,4.3-13.9,14.2v3.8h27.8v-3.8
	C466.5,131.6,460.7,127,452.6,127z"/>
<path class="st0" d="M507.9,200.6c-1.7,0.1-3.1-1.1-3.2-2.7c0-0.2,0-0.3,0-0.5v-82.1c-0.1-1.6,0.8-3.2,2.4-3.8
	c12.1-4.8,24.9-7.3,37.9-7.4c27.4,0,42.9,14.8,42.9,41.8v51.4c0.1,1.7-1.1,3.1-2.7,3.2c-0.2,0-0.3,0-0.5,0h-21.3
	c-1.7,0.1-3.1-1.1-3.2-2.7c0-0.2,0-0.3,0-0.5V146c0-13.2-5.6-17.3-15.2-17.3c-4.3,0-8.5,0.5-12.6,1.6v67.1c0,2-1.1,3.2-3.1,3.2
	H507.9z"/>
<path class="st0" d="M636.9,202.8c-13.4,0-26.5-4.1-37.5-11.7c-1.8-1.3-2-2.7-0.9-4.5l8.5-14.4c1.3-2,2.5-2.3,4.3-1.1
	c7.6,5.3,16.6,8.1,25.8,8.1c7.6,0,12.8-2.5,12.8-7.2s-5.8-6.3-13-7.6c-19.7-3.2-35.7-11.6-35.7-30.5c0-19.8,15.5-29.8,39.2-29.8
	c10.8,0,20.9,2.5,31.9,8.3c1.8,0.9,2.2,2.5,1.1,4.3l-8.3,14.1c-0.7,1.5-2.5,2.1-4,1.4c-0.1-0.1-0.2-0.1-0.3-0.2
	c-6.5-3.4-13.6-5.2-20.9-5.2c-7.8,0-11.5,2.2-11.5,6.7c0,5.1,4.2,6.5,15.7,8.3c18.8,3.2,33.7,11,33.7,29.4
	C677.7,192.4,662.7,202.8,636.9,202.8z"/>
<path class="st0" d="M767.9,159.9c0,2-1.1,3.1-3.2,3.1h-51v2.9c0,9.2,6,13.9,15.5,13.9c8.1,0,16-2.3,22.9-6.5
	c1.6-1.3,3.1-0.9,4.2,0.7l9.4,12.4c1.1,1.6,1.1,3.2-0.5,4.5c-9.2,7-20.9,11.9-36.8,11.9c-23.5,0-42.4-12.4-42.4-37.5v-22.7
	c0-26.9,18.9-38.4,41.8-38.4c22.2,0,40.2,11.2,40.2,38.4L767.9,159.9z M727.5,127c-8.3,0-13.9,4.3-13.9,14.2v3.8h27.8v-3.8
	C741.4,131.6,735.6,127,727.5,127z"/>
<path class="st0" d="M782.1,200.5c-2.2,0-3.2-1.1-3.2-3.2v-81.9c0-1.6,0.9-3.1,2.3-3.8c10.4-4.9,21.7-7.5,33.2-7.4
	c5.9,0.1,11.7,0.7,17.5,1.8c1.7,0.1,3,1.6,2.9,3.3c0,0,0,0.1,0,0.1V126c0,2.2-1.3,3.2-3.4,2.9c-3.7-0.5-7.4-0.8-11.2-0.7
	c-4.7-0.1-9.3,0.7-13.7,2.4v66.8c0,2.2-1.1,3.2-3.1,3.2L782.1,200.5z"/>
<path class="st0" d="M876.7,200.5c-1.6,0-3-1-3.4-2.5l-30.3-87.7c-0.9-2.2,0.2-3.6,2.5-3.6h22.7c1.6-0.2,3.1,0.9,3.4,2.5l11,39.5
	c2,6.1,4.5,15.7,6.5,23.6h0.5c2-7.9,4.7-17.5,6.5-23.6l11.2-39.5c0.5-1.6,2-2.6,3.6-2.5h22.7c2.3,0,3.2,1.4,2.5,3.6l-30.7,87.7
	c-0.5,1.6-2,2.6-3.6,2.5H876.7z"/>
<path class="st0" d="M979.5,104.1c24.9,0,39.5,13,39.5,40.4V194c0.1,1.7-1,3.2-2.7,3.6c-12.1,3.4-24.6,5.2-37.2,5.2
	c-26,0-42.4-9.7-42.4-31c0-18.8,14.8-28.1,39.3-28.1c5.1,0.1,10.3,0.4,15.3,1.1V143c0-9.6-3.4-14.8-15.2-14.8
	c-7.9,0-17.3,2.2-22.5,5.1c-1.6,0.9-3.4,0.7-4.3-1.1L942,118c-0.9-1.8-0.9-3.1,0.4-4C950.8,108.6,964,104.1,979.5,104.1z
	 M979.1,180.4c4.1-0.1,8.2-0.6,12.3-1.4v-15.9c-4.1-0.7-8.2-1.1-12.4-1.1c-9.9,0-14.2,3.2-14.2,9
	C964.7,177.4,970.5,180.4,979.1,180.4z"/>
<polygon class="st1" points="222,196.7 114.7,258.7 5,195.4 5.1,195.3 5.1,195.3 5,195.3 5,119.9 41.8,141.4 41.8,174.2 41.8,174.2 
	114.9,216.4 160.8,189.8 5,99.7 5,71.9 "/>
<polygon class="st1" points="225,191.5 225,163 69.1,73.6 115.1,47.1 188.2,89.7 188.2,121.8 225,142.7 225,68.1 225,68.1 225,68 
	115.3,4.8 8,66.7 "/>
</svg>
