<svg xmlns="http://www.w3.org/2000/svg" width="400" height="166.516" xmlns:v="https://vecta.io/nano"><path d="M103.32 10.043c.127.35 2.058 4.992 4.292 10.316l4.062 9.68 22.298.003 22.297.003 21.696 51.674 22.047 51.494c.192-.1 2.718-6.208 5.612-13.575s12.489-30.538 21.321-51.493l16.057-38.1 23.205-.005 23.205-.005 4.053-9.689 4.293-10.313c.226-.59-1.695-.62-33.904-.533l-34.143.093-14.661 35.062-14.956 34.389c-.162-.37-6.696-16.148-14.518-35.062L171.353 9.593 137.221 9.5c-32.414-.087-34.121-.06-33.901.543M38.009 41.646c-14.351 1.776-23.167 10.046-23.167 21.73 0 11.459 5.418 15.967 24.518 20.399 7.817 1.814 10.037 2.64 10.639 3.96 2.737 6.007-14.636 5.827-26.757-.276l-2.486-1.253-3.5 7.903c-1.925 4.346-3.5 8.057-3.5 8.247 0 1.116 9.898 4.649 16.023 5.719 22.927 4.006 40.184-3.343 42.231-17.984 1.714-12.257-4.789-18.916-22.055-22.585-10.668-2.267-12.59-2.947-13.201-4.669-1.9-5.351 11.224-6.078 22.572-1.251 1.869.795 3.511 1.313 3.65 1.152.408-.478 6.643-15.685 6.487-15.825-3.974-3.572-21.47-6.502-31.454-5.267m233.267.148c-36.101 5.608-40.202 55.538-5.394 65.66 15.117 4.396 33.517-.318 40.718-10.431l.727-1.022-6.424-5.738-6.986-6.175c-.469-.366-.957-.059-2.976 1.873-11.035 10.557-26.718 4.224-26.682-10.775.036-15.053 15.673-21.207 26.782-10.54l2.353 2.259 6.696-5.967 7.018-6.28c.796-.776-5.431-6.476-9.648-8.83-6.772-3.781-17.337-5.408-26.184-4.034m76.416-.29c-21.302 2.53-34.699 19.667-31.169 39.874 6.023 34.485 60.295 37.953 71.108 4.544 8.01-24.746-12.597-47.664-39.939-44.418M93.394 75.113v32.398h26.968 26.968v-8.325-8.326h-16.108-16.109v-3.982-3.982h13.575 13.574v-8.145-8.145h-13.574-13.575v-3.62-3.619h15.566 15.565v-8.326-8.326h-26.425-26.425v32.398m263.728-15.047c14.803 5.203 12.143 29.401-3.411 31.027-9.75 1.019-17.315-9.197-14.89-20.106 1.912-8.597 10.438-13.684 18.301-10.921M20.083 133.865c-3.994 1.381-5.808 3.879-5.537 7.627s1.981 5.132 8.252 6.666c3.503.858 4.743 1.698 3.627 2.459-.906.619-5.068.151-7.535-.848l-2.286-.926-1.255 2.753c-1.547 3.394-1.516 3.475 1.738 4.497 9.334 2.933 17.664-.268 17.664-6.789 0-3.848-2.014-5.763-7.24-6.882-5.054-1.083-5.768-1.486-4.633-2.621.672-.672 4.055-.514 6.168.289 2.633 1.001 2.571 1.033 3.747-1.895l1.154-2.836c.127-.274-2.183-1.274-4.083-1.767-2.304-.597-7.7-.447-9.781.273m43.627 11.293v11.946h9.955 9.955v-3.258-3.258h-5.973-5.973v-1.267-1.267h5.068 5.068v-3.077-3.077h-5.068-5.068v-1.267-1.266h5.792 5.792v-3.077-3.077h-9.774-9.774v11.945m56.79-11.446c-10.127 3.62-10.821 17.938-1.087 22.437 3.805 1.759 10.445.771 12.872-1.915l.701-.776-2.467-2.487-2.468-2.487-1.13.689c-4.429 2.701-9.348-2.7-6.338-6.96 1.451-2.053 5.441-2.538 6.857-.833.472.57 5.423-3.754 5.403-4.719-.048-2.293-8.515-4.316-12.343-2.949m40.289 7.374c.115 7.774.129 7.899 1.126 9.93 4.002 8.149 15.621 8.11 19.864-.066.799-1.54.852-2.069.961-9.683l.115-8.054h-3.645-3.644v7.212 7.212l-1.114 1.113c-1.613 1.613-3.571 1.57-5.257-.117l-1.231-1.23v-7.095-7.095h-3.645-3.646l.116 7.873m56.406 4.072v11.946h3.619 3.62v-1.991-1.991h2.097 2.096l.977 1.991.976 1.991h3.986c2.192 0 3.986-.085 3.986-.188s-.743-1.668-1.651-3.476c-1.488-2.963-1.598-3.348-1.106-3.891 2.863-3.164 2.726-9.557-.279-12.971-2.596-2.949-4.02-3.358-11.715-3.362l-6.606-.003v11.945m57.194 0v11.946h3.439 3.439v-11.946-11.945h-3.439-3.439v11.945m44.163-8.506v3.438h2.896 2.896v8.507 8.507h3.439 3.439v-8.507-8.507h2.896 2.896v-3.438-3.439h-9.231-9.231v3.439m47.529-3.168l4.003 7.362 3.853 7.091v4.583 4.584h3.62 3.619v-4.419-4.419l3.982-7.319 3.982-7.538c0-.121-1.827-.174-4.059-.118l-4.06.103-1.687 3.206-1.687 3.206-1.739-3.297-1.738-3.296h-4.12c-2.266 0-4.052.122-3.969.271m-136.941 7.075c3.431 1.735 1.739 5.323-2.51 5.323h-2.196v-2.896-2.896l1.901.006c1.045.003 2.308.211 2.805.463" fill="red" fill-rule="evenodd"/></svg>