<svg xmlns="http://www.w3.org/2000/svg" width="168" height="168" xmlns:v="https://vecta.io/nano"><path d="M0 0h168v168H0V0z" fill="#010101"/><path d="M10 19h40v24H39l-1-12-17-1-.012 22.522-.019 7.652L21 71.211l-.059 3.423C21.099 83.407 24.048 87.756 30 94l3.238 4.02 3.074 3.793 1.659 2.046 12.602 15.069C52.538 121.224 54.32 123.48 56 126c3.762-.536 5.932-1.387 8.82-3.844l2.104-1.764 2.2-1.892 4.586-3.863 2.237-1.901 7.802-6.423 13.749-11.509L102 91l2.695-2.324C107 87 107 87 110 87c1.387 1.531 1.387 1.531 2.688 3.5l1.324 1.969L115 94c-1.372 3.174-2.842 4.976-5.527 7.137l-2.134 1.735-2.276 1.815-2.333 1.89-4.625 3.731-7.917 6.442-2.574 2.102-7.185 5.973C72.478 131.483 64.319 137.812 56 144c-12-12.749-12-12.749-17.035-19.434-2.709-3.539-5.525-6.987-8.34-10.441l-1.709-2.101-7.58-9.255L19 99.938l-2-2.41L15 95l-2.594-2.672C8.299 86.504 9.39 79.036 9.512 72.223l.021-4.611.124-12.078.112-14.523L10 19zm105 0l16.18-.055 5.509-.021 7.901-.022 2.503-.016L153 19c1.84 1.84 1.166 4.809 1.193 7.276l.025 1.986.056 6.535.016 2.252.061 11.805.112 12.189.051 9.373.046 4.492.024 6.297.025 3.618c-.788 4.114-2.454 5.512-5.608 8.176l-2.91 2.543-3.152 2.645-1.712 1.439L136 104l-3.129 2.621-22.547 18.555-16.475 13.727-13.404 11.078L74 155.625 71 158c-4.066-1.355-5.53-3.57-8-7 1.239-3.716 2.69-4.595 5.75-7l3.023-2.414 1.604-1.278c2.705-2.181 5.35-4.432 7.997-6.683l1.648-1.396 8.2-6.986a515.27 515.27 0 0 1 18.544-15.115c4.568-3.564 8.988-7.278 13.382-11.053 4.468-3.812 9.09-7.397 13.802-10.903 2.988-2.174 2.988-2.174 5.049-5.172.119-1.695.177-3.394.205-5.092l.06-3.215.051-3.482.063-3.556.183-11.28.131-7.633L143 30h-17v13h-11V19z" fill="#fafafa"/><path d="M58 14h48v34H95V25H68v42H58V14z" fill="#fcfcfc"/><path d="M93 67c3.35 1.117 3.793 1.747 5.688 4.563l1.324 1.941L101 75c-6.215 5.758-12.505 11.316-19.102 16.637l-7.945 6.657C60.257 110 60.257 110 58 110V74h11l1 12 8.125-6.687 2.305-1.896 2.266-1.865 2.228-1.822c1.308-1.089 2.6-2.199 3.865-3.337C90.367 68.98 90.367 68.98 93 67z" fill="#f8f8f8"/></svg>