<?xml version="1.0" encoding="utf-8"?>
<!-- Generator: Adobe Illustrator 26.3.1, SVG Export Plug-In . SVG Version: 6.00 Build 0)  -->
<svg version="1.1" id="c345ca13-d3a9-4fdf-924d-c4691768f8ce" xmlns="http://www.w3.org/2000/svg" x="0px" y="0px"
	 viewBox="0 0 595.3 841.9" enable-background="new 0 0 595.3 841.9" xml:space="preserve">
<ellipse transform="matrix(0.1602 -0.9871 0.9871 0.1602 -262.5945 659.8457)" fill="#535454" cx="256.5" cy="484.2" rx="11.9" ry="11.9"/>
<path fill="#535454" d="M338.1,433.4c6.6,0,11.9,5.3,11.9,11.9c0,3.7-1.7,7.1-4.4,9.3c-1.5,1.7-4.5,5.6-4.5,10.4
	c0,3.6,3.7,8.8,5.1,10.4c2.4,2.2,3.8,5.3,3.8,8.8c0,6.6-5.3,11.9-11.9,11.9s-11.9-5.3-11.9-11.9c0-2.4,0.7-4.6,1.9-6.5l0,0
	c0,0,0,0,0.1-0.1c0.6-0.8,1.2-1.6,1.9-2.2c1.8-2.3,4.1-6.2,4.2-10.6c0.2-3.9-2.2-8-4-10.5c-2.5-2.2-4.1-5.4-4.1-9
	C326.2,438.8,331.5,433.4,338.1,433.4z"/>
<circle fill="#535454" cx="297.2" cy="464.5" r="11.9"/>
<circle fill="#535454" cx="221.6" cy="420.7" r="11.9"/>
<circle fill="#535454" cx="338.1" cy="396.8" r="11.9"/>
<circle fill="#3593C9" cx="297.2" cy="508.2" r="11.9"/>
<circle fill="#3593C9" cx="373.1" cy="464.5" r="11.9"/>
<circle fill="#3593C9" cx="221.6" cy="464.5" r="11.9"/>
<path fill="#3593C9" d="M256.5,384.9c6.6,0,11.9,5.3,11.9,11.9c0,3-1.1,5.7-2.9,7.8l0,0c0,0-6.4,7.9-6.2,15.7
	c0.2,6.5,4.6,13.7,6.1,16l0.1,0.2c0.2,0.3,0.3,0.4,0.3,0.5l0,0l-0.2,0c1.7,2.1,2.7,4.7,2.7,7.6c0,6.6-5.3,11.9-11.9,11.9
	c-6.6,0-11.9-5.3-11.9-11.9c0-2.5,0.8-4.8,2.1-6.7l-0.3,0c0,0,0.6-1,1.4-2.6l0.2-0.4c1.9-3.8,4.7-10.4,5-16c0.3-4.8-3-10.6-5.2-14
	c-0.7-0.8-1.4-1.7-1.9-2.6c-0.1-0.1-0.1-0.1-0.1-0.2l0,0l0,0c-0.8-1.6-1.2-3.4-1.2-5.3C244.6,390.3,249.9,384.9,256.5,384.9z"/>
<circle fill="#3593C9" cx="373.1" cy="420.7" r="11.9"/>
<path fill="#3593C9" d="M256.5,344.4c5.2,0,9.5,3.3,11.2,7.9l0.1-0.2c0,0,3.8,9.3,10.8,12.5c7.1,3.2,15.8,0.7,16.1,0.6l0,0l-0.1,0.2
	c0.8-0.2,1.7-0.3,2.6-0.3c6.6,0,11.9,5.3,11.9,11.9c0,6.6-5.3,11.9-11.9,11.9c-4.8,0-8.9-2.8-10.8-6.9c0,0,0-0.1-0.1-0.1l-0.3-0.4
	c-2.2-3.3-6.5-9-11.6-11.9c-6.2-3.4-17.7-1.4-18-1.3l0,0l0.1-0.2l-0.1,0c-6.5,0-11.7-5.2-11.9-11.6l0-0.3
	C244.6,349.8,249.9,344.4,256.5,344.4z"/>
<circle fill="#3593C9" cx="373.1" cy="377" r="11.9"/>
<circle fill="#3593C9" cx="221.6" cy="377" r="11.9"/>
<circle fill="#3593C9" cx="338.1" cy="356.3" r="11.9"/>
<circle fill="#3593C9" cx="297.2" cy="333.1" r="11.9"/>
<path fill="#3593C9" d="M297.4,394.6c-14.2,0-25.7,11.5-25.7,25.7c0,14.2,11.5,25.7,25.7,25.7
	c14.2,0,25.7-11.5,25.7-25.7C323.1,406.1,311.6,394.6,297.4,394.6z M305.7,419.9c-3.9,0-7-3.1-7-7s3.1-7,7-7s7,3.1,7,7
	S309.6,419.9,305.7,419.9z"/>
</svg>
