<?xml version="1.0" encoding="UTF-8"?>
<svg xmlns="http://www.w3.org/2000/svg" width="75px" height="33px" viewBox="0 0 74 33" version="1.1">
<g id="9aafe4f7-eaa1-4b1a-aa78-5294a5d9a90f">
<path stroke="none" fill-rule="nonzero" fill="rgb(0.392157%,35.686275%,73.333335%)" fill-opacity="1"
d="M 18.667969 9.496094 C 17.898438 8.972656 15.417969 8.679688 10.804688 8.296875 C 8.050781 8.066406 4.628906 7.78125 4.136719 7.417969 C 3.976562 7.246094 3.8125 6.78125 3.8125 5.992188 C 3.8125 4.617188 4.148438 3.660156 4.8125 3.152344 C 5.269531 2.796875 6.710938 2.195312 11.261719 2.195312 C 13.875 2.195312 16.761719 2.429688 18.464844 2.664062 C 18.46875 2.667969 18.613281 2.683594 18.777344 2.683594 C 19.007812 2.683594 19.15625 2.648438 19.234375 2.578125 C 19.34375 2.484375 19.351562 2.292969 19.339844 2.117188 C 19.339844 2.105469 19.339844 2.097656 19.339844 2.09375 C 19.339844 1.65625 18.859375 0.898438 18.300781 0.628906 C 17.589844 0.265625 14.585938 0 11.15625 0 C 6.644531 0 4.152344 0.476562 2.832031 1.589844 C 1.765625 2.523438 1.199219 4.179688 1.199219 6.382812 C 1.199219 7.671875 1.800781 8.886719 2.378906 9.308594 C 3.042969 9.832031 5.523438 10.121094 10.164062 10.511719 C 13.019531 10.75 16.25 11.019531 16.839844 11.371094 C 17.117188 11.636719 17.257812 12.160156 17.257812 12.921875 C 17.257812 14.226562 16.914062 15.273438 16.339844 15.726562 L 16.320312 15.742188 C 15.683594 16.292969 13.648438 16.5625 10.097656 16.5625 C 7.371094 16.5625 4.6875 16.359375 2.121094 15.964844 L 2.09375 15.960938 C 2.070312 15.957031 2.046875 15.957031 2.023438 15.957031 C 1.683594 15.957031 1.410156 16.226562 1.410156 16.558594 C 1.410156 16.960938 1.824219 17.675781 2.253906 18.007812 L 2.277344 18.027344 C 2.941406 18.488281 6.148438 18.808594 10.070312 18.808594 C 14.695312 18.808594 17.265625 18.351562 18.402344 17.320312 C 19.417969 16.382812 19.976562 14.652344 19.976562 12.453125 C 19.976562 11.039062 19.300781 9.929688 18.667969 9.496094 Z"/>
<path stroke="none" fill-rule="nonzero" fill="rgb(0.392157%,35.686275%,73.333335%)" fill-opacity="1"
d="M 66.046875 15.878906 L 66.007812 15.878906 L 65.96875 15.882812 C 64.785156 16.046875 62.007812 16.429688 58.636719 16.429688 C 54.132812 16.429688 52.042969 16.070312 50.925781 15.09375 C 49.882812 14.164062 49.378906 12.316406 49.378906 9.441406 C 49.378906 6.6875 50.042969 4.628906 51.246094 3.648438 C 52.480469 2.71875 54.921875 2.246094 58.507812 2.246094 C 61.808594 2.246094 64.203125 2.550781 65.785156 2.753906 L 65.875 2.765625 C 65.917969 2.777344 65.964844 2.78125 66.011719 2.78125 C 66.347656 2.78125 66.613281 2.511719 66.613281 2.171875 C 66.613281 1.730469 66.128906 1.019531 65.617188 0.707031 L 65.589844 0.691406 L 65.566406 0.679688 C 64.746094 0.285156 61.710938 0 58.355469 0 C 53.960938 0 51.050781 0.648438 49.457031 1.980469 C 47.726562 3.4375 46.8125 6.082031 46.8125 9.625 C 46.8125 13.105469 47.488281 15.425781 48.882812 16.714844 C 50.414062 18.125 53.085938 18.703125 58.097656 18.703125 C 61.679688 18.703125 64.75 18.410156 65.558594 17.988281 C 66.054688 17.746094 66.664062 16.898438 66.664062 16.453125 C 66.664062 16.136719 66.386719 15.878906 66.046875 15.878906 Z"/>
<path stroke="none" fill-rule="nonzero" fill="rgb(0.392157%,35.686275%,73.333335%)" fill-opacity="1"
d="M 33.386719 0 C 27.371094 0 22.480469 4.804688 22.480469 10.710938 C 22.480469 13.765625 23.8125 16.683594 26.132812 18.714844 C 26.347656 18.902344 26.621094 19.003906 26.910156 19.003906 C 27.242188 19.003906 27.5625 18.863281 27.785156 18.617188 C 27.992188 18.390625 28.097656 18.097656 28.078125 17.796875 C 28.058594 17.488281 27.921875 17.207031 27.6875 17.003906 C 25.859375 15.40625 24.8125 13.113281 24.8125 10.710938 C 24.8125 6.066406 28.660156 2.289062 33.386719 2.289062 C 38.113281 2.289062 41.957031 6.066406 41.957031 10.710938 C 41.957031 13.113281 40.910156 15.40625 39.078125 17.007812 C 38.847656 17.207031 38.710938 17.488281 38.691406 17.792969 C 38.675781 18.097656 38.777344 18.390625 38.984375 18.617188 C 39.203125 18.863281 39.523438 19.003906 39.855469 19.003906 C 40.144531 19.003906 40.417969 18.902344 40.632812 18.714844 C 42.960938 16.683594 44.292969 13.765625 44.292969 10.710938 C 44.296875 4.804688 39.402344 0 33.386719 0 Z"/>
<path stroke="none" fill-rule="nonzero" fill="rgb(0.392157%,35.686275%,73.333335%)" fill-opacity="1"
d="M 33.386719 10.964844 C 32.738281 10.964844 32.207031 11.488281 32.207031 12.128906 L 32.207031 26.332031 C 32.207031 26.972656 32.738281 27.496094 33.386719 27.496094 C 34.039062 27.496094 34.566406 26.972656 34.566406 26.332031 L 34.566406 12.128906 C 34.566406 11.488281 34.039062 10.964844 33.386719 10.964844 Z"/>
<path stroke="none" fill-rule="evenodd" fill="rgb(100%,83.529413%,0.392157%)" fill-opacity="1"
d="M 66.46875 27.949219 C 66.589844 27.949219 66.695312 27.984375 66.785156 28.046875 C 66.824219 28.078125 66.855469 28.109375 66.878906 28.140625 C 66.890625 28.15625 66.902344 28.175781 66.90625 28.183594 L 66.992188 28.304688 L 66.945312 28.441406 C 66.921875 28.523438 66.878906 28.585938 66.851562 28.621094 C 66.816406 28.667969 66.773438 28.710938 66.730469 28.75 C 66.652344 28.820312 66.539062 28.902344 66.421875 28.941406 L 66.398438 28.949219 L 66.375 28.953125 C 66.316406 28.960938 66.207031 28.964844 66.082031 28.96875 C 65.945312 28.972656 65.761719 28.976562 65.546875 28.980469 C 65.113281 28.988281 64.539062 28.996094 63.90625 29 C 62.640625 29.011719 61.144531 29.015625 60.082031 29.015625 C 58.414062 29.015625 57.097656 29.003906 55.816406 28.984375 C 55.617188 28.984375 55.402344 28.949219 55.238281 28.804688 C 55.0625 28.652344 55.015625 28.441406 55.015625 28.242188 L 55.015625 22.550781 C 55.015625 22.335938 55.128906 22.167969 55.292969 22.070312 C 55.441406 21.980469 55.621094 21.949219 55.804688 21.949219 C 57.003906 21.929688 58.230469 21.929688 59.921875 21.929688 L 59.925781 21.929688 C 60.941406 21.929688 62.488281 21.929688 63.808594 21.933594 C 64.46875 21.9375 65.074219 21.941406 65.53125 21.945312 C 65.757812 21.949219 65.949219 21.949219 66.09375 21.953125 C 66.222656 21.957031 66.339844 21.960938 66.394531 21.96875 L 66.40625 21.972656 C 66.542969 21.996094 66.664062 22.082031 66.738281 22.144531 C 66.78125 22.179688 66.824219 22.21875 66.859375 22.265625 C 66.886719 22.296875 66.945312 22.371094 66.964844 22.464844 L 66.972656 22.496094 L 66.972656 22.527344 C 66.972656 22.664062 66.910156 22.789062 66.800781 22.867188 C 66.699219 22.9375 66.589844 22.953125 66.503906 22.953125 L 66.5 22.953125 L 66.027344 22.949219 C 64.917969 22.9375 61.457031 22.914062 59.96875 22.914062 C 59.859375 22.914062 59.746094 22.914062 59.625 22.914062 L 59.601562 22.914062 C 59.472656 22.914062 59.335938 22.914062 59.195312 22.914062 L 59.191406 22.914062 C 58.863281 22.914062 58.507812 22.914062 58.152344 22.914062 C 57.332031 22.914062 56.761719 22.917969 56.355469 22.925781 C 56.308594 22.925781 56.273438 22.929688 56.246094 22.929688 L 56.246094 24.9375 C 56.289062 24.941406 56.347656 24.941406 56.417969 24.941406 L 64.800781 24.941406 C 64.90625 24.941406 65.011719 24.960938 65.101562 25.015625 C 65.183594 25.066406 65.296875 25.171875 65.296875 25.34375 C 65.296875 25.457031 65.242188 25.546875 65.21875 25.578125 C 65.1875 25.625 65.148438 25.667969 65.109375 25.707031 C 65.039062 25.777344 64.929688 25.859375 64.804688 25.902344 L 64.765625 25.910156 C 64.625 25.9375 64.390625 25.9375 64.148438 25.9375 C 64.136719 25.9375 64.125 25.9375 64.113281 25.9375 L 56.433594 25.9375 C 56.351562 25.9375 56.292969 25.9375 56.246094 25.941406 L 56.246094 27.992188 L 56.25 27.996094 C 56.289062 28 56.34375 28.003906 56.410156 28.007812 C 57.402344 28.015625 58.589844 28.015625 60.097656 28.015625 C 62.039062 28.015625 65.503906 27.992188 66.457031 27.953125 Z"/>
<path stroke="none" fill-rule="nonzero" fill="rgb(100%,83.529413%,0.392157%)" fill-opacity="1"
d="M 49.550781 21.960938 C 49.640625 21.9375 49.808594 21.90625 49.976562 21.960938 C 50.070312 21.992188 50.167969 22.050781 50.242188 22.15625 C 50.3125 22.257812 50.339844 22.378906 50.339844 22.496094 L 50.339844 28.585938 C 50.339844 28.613281 50.339844 28.722656 50.292969 28.824219 C 50.261719 28.890625 50.207031 28.953125 50.128906 28.996094 C 50.054688 29.035156 49.976562 29.046875 49.914062 29.046875 L 49.667969 29.046875 C 49.589844 29.046875 49.511719 29.042969 49.4375 29.023438 C 49.359375 29 49.257812 28.953125 49.191406 28.847656 C 49.128906 28.753906 49.125 28.65625 49.125 28.617188 C 49.125 28.59375 49.125 28.574219 49.128906 28.558594 L 49.128906 28.554688 C 49.128906 28.539062 49.128906 28.527344 49.128906 28.511719 L 49.136719 23.503906 C 49.042969 23.5625 48.933594 23.632812 48.816406 23.707031 C 48.339844 24.007812 47.703125 24.40625 47.070312 24.804688 C 46.433594 25.199219 45.800781 25.59375 45.324219 25.890625 L 44.535156 26.386719 L 44.53125 26.386719 L 44.371094 26.488281 L 44.210938 26.386719 L 43.417969 25.890625 C 42.941406 25.59375 42.308594 25.199219 41.671875 24.804688 C 41.039062 24.40625 40.402344 24.007812 39.925781 23.707031 C 39.808594 23.632812 39.699219 23.5625 39.605469 23.503906 L 39.613281 28.511719 C 39.613281 28.527344 39.613281 28.539062 39.613281 28.554688 L 39.613281 28.558594 C 39.617188 28.574219 39.617188 28.59375 39.617188 28.617188 C 39.617188 28.65625 39.613281 28.753906 39.550781 28.851562 C 39.484375 28.957031 39.382812 29.003906 39.304688 29.023438 C 39.230469 29.042969 39.152344 29.046875 39.074219 29.046875 L 38.828125 29.046875 C 38.761719 29.046875 38.6875 29.035156 38.613281 28.996094 C 38.535156 28.953125 38.480469 28.890625 38.449219 28.824219 C 38.402344 28.722656 38.402344 28.613281 38.402344 28.585938 L 38.402344 22.496094 C 38.402344 22.375 38.433594 22.253906 38.503906 22.152344 C 38.578125 22.050781 38.675781 21.992188 38.765625 21.960938 C 38.933594 21.90625 39.105469 21.9375 39.195312 21.960938 C 39.253906 21.976562 39.324219 22.007812 39.382812 22.035156 C 39.445312 22.066406 39.523438 22.109375 39.613281 22.160156 C 39.789062 22.257812 40.015625 22.390625 40.273438 22.546875 C 40.789062 22.855469 41.4375 23.261719 42.066406 23.660156 C 42.699219 24.058594 43.316406 24.453125 43.777344 24.75 C 44.007812 24.898438 44.195312 25.023438 44.332031 25.109375 L 44.371094 25.136719 L 44.414062 25.109375 C 44.546875 25.023438 44.738281 24.898438 44.96875 24.75 C 45.429688 24.457031 46.046875 24.058594 46.679688 23.660156 C 47.308594 23.261719 47.957031 22.859375 48.46875 22.546875 C 48.726562 22.390625 48.953125 22.257812 49.132812 22.160156 C 49.21875 22.109375 49.296875 22.066406 49.363281 22.035156 C 49.421875 22.007812 49.488281 21.976562 49.550781 21.960938 Z"/>
<path stroke="none" fill-rule="evenodd" fill="rgb(100%,83.529413%,0.392157%)" fill-opacity="1"
d="M 27.761719 28.402344 L 26.1875 26.289062 C 26.679688 26.257812 27.042969 26.199219 27.328125 26.105469 C 28.027344 25.878906 28.78125 25.210938 28.78125 24.050781 C 28.785156 23.226562 28.433594 22.558594 27.742188 22.253906 C 27.441406 22.113281 27.078125 22.035156 26.492188 21.988281 C 25.90625 21.945312 25.066406 21.929688 23.800781 21.929688 C 22.425781 21.929688 18.484375 21.949219 17.578125 21.976562 L 17.574219 21.976562 C 17.445312 21.980469 17.292969 22 17.167969 22.085938 C 17.007812 22.191406 16.957031 22.355469 16.957031 22.5 L 16.957031 28.566406 C 16.957031 28.605469 16.957031 28.753906 17.074219 28.871094 C 17.1875 28.984375 17.339844 28.996094 17.425781 28.996094 L 17.691406 28.996094 C 17.761719 28.996094 17.890625 28.988281 18.003906 28.914062 C 18.144531 28.8125 18.171875 28.664062 18.171875 28.5625 L 18.171875 26.347656 C 18.171875 26.335938 18.175781 26.324219 18.175781 26.3125 C 18.214844 26.308594 18.269531 26.308594 18.347656 26.308594 L 24.710938 26.316406 L 26.46875 28.648438 L 26.480469 28.660156 C 26.585938 28.773438 26.699219 28.886719 26.855469 28.949219 C 27.003906 29.011719 27.167969 29.011719 27.332031 29.011719 L 27.375 29.011719 C 27.460938 29.011719 27.609375 28.992188 27.71875 28.882812 C 27.761719 28.84375 27.8125 28.773438 27.824219 28.671875 C 27.839844 28.570312 27.808594 28.480469 27.765625 28.414062 Z M 27.441406 23.433594 C 27.554688 23.578125 27.652344 23.785156 27.652344 24.101562 C 27.648438 24.628906 27.273438 25.050781 26.71875 25.214844 C 26.441406 25.285156 25.941406 25.316406 24.867188 25.316406 L 18.378906 25.316406 C 18.285156 25.316406 18.222656 25.3125 18.175781 25.308594 L 18.175781 22.957031 C 19.035156 22.929688 22.683594 22.921875 23.757812 22.921875 C 24.910156 22.921875 25.65625 22.933594 26.160156 22.972656 C 26.671875 23.007812 26.890625 23.066406 27.015625 23.128906 L 27.027344 23.132812 L 27.035156 23.136719 C 27.167969 23.195312 27.320312 23.289062 27.441406 23.433594 Z"/>
<path stroke="none" fill-rule="evenodd" fill="rgb(100%,83.529413%,0.392157%)" fill-opacity="1"
d="M 10.425781 21.988281 C 11.011719 22.035156 11.375 22.113281 11.675781 22.253906 C 12.367188 22.5625 12.714844 23.25 12.714844 24.066406 C 12.714844 25.230469 11.957031 25.878906 11.261719 26.105469 C 10.804688 26.257812 10.136719 26.308594 9.035156 26.308594 L 2.28125 26.308594 C 2.203125 26.308594 2.148438 26.3125 2.109375 26.3125 C 2.109375 26.324219 2.105469 26.335938 2.105469 26.347656 L 2.105469 28.566406 C 2.105469 28.664062 2.078125 28.8125 1.9375 28.914062 C 1.824219 28.992188 1.695312 28.996094 1.625 28.996094 L 1.359375 28.996094 C 1.273438 28.996094 1.121094 28.988281 1.003906 28.871094 C 0.890625 28.753906 0.890625 28.605469 0.890625 28.570312 L 0.890625 22.503906 C 0.890625 22.355469 0.941406 22.195312 1.101562 22.089844 C 1.226562 22.003906 1.378906 21.984375 1.503906 21.976562 L 1.511719 21.976562 C 2.417969 21.949219 6.359375 21.929688 7.734375 21.929688 C 9 21.929688 9.835938 21.945312 10.425781 21.988281 Z M 11.375 23.421875 C 11.488281 23.5625 11.585938 23.769531 11.585938 24.089844 C 11.582031 24.613281 11.207031 25.035156 10.648438 25.199219 C 10.375 25.269531 9.871094 25.300781 8.800781 25.300781 L 2.308594 25.300781 C 2.21875 25.300781 2.15625 25.300781 2.109375 25.296875 L 2.109375 22.941406 C 2.96875 22.917969 6.617188 22.910156 7.691406 22.910156 C 8.84375 22.910156 9.589844 22.921875 10.09375 22.957031 C 10.605469 22.992188 10.824219 23.050781 10.949219 23.117188 L 10.960938 23.121094 L 10.96875 23.125 C 11.101562 23.183594 11.253906 23.273438 11.375 23.421875 Z"/>
</g>
</svg>
