<svg xmlns="http://www.w3.org/2000/svg" viewBox="0 0 1583 420">
<path fill="#1B1B3C" d="M1225.3,264.8c20.4,0,37.1,5,50,15.1c12.9,10.2,19.4,25.9,19.4,47.1v88.5h-36.8v-13.8l-.7.6c-12.9,11.2-28.1,16.8-45.8,16.8c-17.2,0-31.2-4.4-42-13.1c-10.7-8.6-16.1-19.9-16.1-33.8c0-15.2,5.8-27.4,17.4-36.4c11.7-9.1,27-13.7,45.8-13.7c11.3,0,23.3,2.4,35.9,7v-6.8l0-.5c-.1-7.1-3.3-12.8-9.5-17.1c-6.5-4.5-14.6-6.8-24.3-6.8c-13.8,0-25.8,4-35.9,12.1h-3.3l-14.7-23v-3.6l.7-.6c7.4-5.7,16.6-10.1,27.6-13.4C1204.3,266.4,1215,264.8,1225.3,264.8z M1137.1,220.7l3.6,2.1v192.7h-38.4v-16.5c-12.8,13.2-28.6,19.9-47.3,20.1c-21.4,0-39-7.4-53-22.3c-14-14.8-21-33.1-21-54.9s7-40,21-54.9c14-14.8,31.7-22.3,53-22.3c14.6,0,28,4.1,40.2,12.4v-51.7L1137.1,220.7z M898.4,264.8c20.4,0,37.1,5,50,15.1c12.9,10.2,19.4,25.9,19.4,47.1v88.5h-36.8v-13.8c-13,11.6-28.5,17.4-46.4,17.4c-17.2,0-31.2-4.4-42-13.1c-10.7-8.6-16.1-19.9-16.1-33.8c0-15.2,5.8-27.4,17.4-36.4c11.7-9.1,27-13.7,45.8-13.7c11.3,0,23.3,2.4,35.9,7v-6.8c0-7.4-3.2-13.3-9.5-17.7c-6.5-4.5-14.6-6.8-24.3-6.8c-13.8,0-25.8,4-35.9,12.1h-3.3l-14.7-23v-3.6c7.5-5.9,16.9-10.6,28.3-13.9C877.4,266.4,888.1,264.8,898.4,264.8z M1391.9,264.8c8.4,0,16.7,1.7,24.7,5l2,3.6l-9.3,31.8l-3.3,2l-.5-.2c-4.3-2.3-10.1-3.4-17.2-3.2c-8.8,0-15.9,3-21.4,9.1c-5.6,6.1-8.3,14.1-8.3,23.9v78.9h-45.5V268.4h38.2v19.1l.5-.6C1362.1,272.2,1375.5,264.8,1391.9,264.8z M1223.6,349.3c-8.2,0-14.8,1.9-19.8,5.8c-4.9,3.8-7.4,8.9-7.4,15.2c0,6,2.4,10.9,7,14.5c4.7,3.6,10.9,5.5,18.5,5.5c8.7,0,16.1-2.6,22.3-7.8c6.1-5,9.2-10.9,9.2-17.8v-8.1l-1-.4C1242.2,351.6,1232.5,349.3,1223.6,349.3z M896.7,349.3c-8.2,0-14.8,1.9-19.8,5.8c-4.9,3.8-7.4,8.9-7.4,15.2c0,6,2.4,10.9,7,14.5c4.7,3.6,10.9,5.5,18.5,5.5c8.7,0,16.1-2.6,22.3-7.8c6.1-5,9.2-10.9,9.2-17.8v-8.1l-1-.4C915.3,351.6,905.6,349.3,896.7,349.3z M1061.5,303.8c-10.6,0-19.3,3.6-25.9,10.8c-6.7,7.3-10.1,16.4-10.1,27.4c0,11.1,3.4,20.2,10.1,27.3c6.6,7.3,15.2,10.9,25.9,10.9c10.2,0,18.7-3.5,25.4-10.5c6.7-6.8,10.1-16,10.1-27.7c0-11.6-3.4-20.9-10.1-27.9C1080.2,307.2,1071.7,303.8,1061.5,303.8z M711.3,415.5v-71.8h26.7l38.6,71.8h45.5l2.1-3.6l-40.4-74.1c12-4.6,21.2-11.4,27.8-20.4c6.6-9,9.8-19.7,9.8-32.2c0-19.2-6.4-34.1-19.1-44.8c-12.7-10.7-31-16.1-54.7-16.1h-82.3v191.2H711.3z M356.1,220.7c54.8,0,99.2,44.4,99.2,99.2s-44.4,99.2-99.2,99.2-99.2-44.4-99.2-99.2S301.3,220.7,356.1,220.7z M567.9,220.7c16.1,0,31.1,3.3,45,9.9c14,6.8,25.7,15.9,35.1,27.4v3.3l-28.3,23.6h-3.2l-.5-.6c-12.5-14.7-28.5-22.1-48-22.1c-16,0-29.6,5.4-40.7,16.2c-11,10.9-16.5,24.7-16.5,41.4s5.5,30.5,16.5,41.4c11.1,10.9,24.7,16.4,40.7,16.4c19.8,0,36-7.6,48.6-22.7h3.2l28.3,23.6v3.2l-.7.9c-9.4,11.4-20.9,20.3-34.5,26.7c-13.9,6.6-29,9.9-45.4,9.9c-29,0-53.5-9.5-73.4-28.4c-19.9-19-29.9-42.6-29.9-70.8c0-28.3,10-51.9,29.9-70.8C513.9,230.1,538.5,220.7,567.9,220.7z M176.6,220.7c15.2,0,29.2,2.6,41.8,7.9c12.6,5.3,22.6,12.3,30,21v3.2l-22.6,26h-3.3l-.6-.6c-13.2-13.4-28.1-20.1-44.6-20.3c-7.8,0-14,1.6-18.8,4.7c-4.8,3.1-7.2,7.3-7.2,12.4c0,5.9,3.2,10.7,9.5,14.2c3.8,2.1,6.8,3.6,9.1,4.5c1.5.6,5.4,2,11.5,4.3c21.3,6.8,36,12.5,44.1,17.1c17.5,10.5,26.4,25.9,26.6,46.1c0,18-7.1,32.2-21.4,42.5c-14.4,10.3-32.2,15.5-53.6,15.5c-17.1,0-32.7-3.1-47-9.3c-14.5-6.1-26-14.5-34.6-25.1v-3.6l22.7-26.1h3.2l.6.7c6.2,6.8,14.2,12.5,23.8,17.2c9.9,4.9,19.4,7.3,28.6,7.3c9.4,0,16.8-1.7,22.3-5.1c5.5-3.4,8.3-8,8.3-13.7c0-5.2-1.8-9.2-5.3-12.2c-1.5-1.2-3.9-2.6-7.2-4c-3.8-1.5-6.5-2.5-8.1-3c-.7-.2-1.5-.4-2.4-.7c-1-.3-2.2-.7-3.8-1.1c-1.6-.5-3-.9-4.2-1.3c-1.8-.5-4-1.1-6.5-1.8c-2.5-.7-4-1.2-4.6-1.4c-14.9-4.6-27.8-10.9-38.6-18.8c-13-9.6-19.5-22.9-19.5-39.8c0-16.8,6.7-30.4,20-40.8C137.9,225.9,155.3,220.7,176.6,220.7z M356.1,262.2c-31.9,0-57.7,25.8-57.7,57.7s25.8,57.7,57.7,57.7,57.7-25.8,57.7-57.7S388,262.2,356.1,262.2z M748.1,261.9c7.8,0,14.3,2.4,19.2,7c5,4.7,7.5,10.9,7.5,18.5c0,7.4-2.5,13.3-7.5,17.9-5,4.5-11.4,6.8-19.2,6.8h-36.8v-50.3H748.1z M1499,222c0,19-15,34-34,34s-34-15-34-34,15-34,34-34,34,15,34,34z M1436,222c0,16,13,30,29,30s29-13,29-30-13-30-29-30-29,14-29,30z M1458,207v14h9c2.4,0,4.2-.6,5.5-1.9,1.3-1.2,2-3,2-5.3,0-2.2-.7-4-2-5.2-1.4-1.3-3.2-1.9-5.7-1.9h-9z M1458,226v15h-5v-37h14c3.6,0,6.5,1,8.6,3,2.2,2,3.2,4.7,3.2,8.1,0,2.6-.7,4.8-2,6.8-1.3,1.9-3.2,3.2-5.5,3.9l8.6,15.5h-5.4l-8-15h-9z"/>
<path fill="#FF4562" d="M500.9,424.6l21.4,15.6-.4.6c-36.9,50.6-96.5,83.7-163.7,84.3l-2,0c-65.8,0-124.4-31-161.9-79.2l20.9-16.2c32.7,42,83.7,69,141,69C415.7,498.6,468.4,469.4,500.9,424.6z M458.1,393.4l21.4,15.6-.4.5c-27.7,37.9-72.5,62.6-123,62.6-44.1,0-83.9-18.8-111.7-48.8l19.4-18c23,24.8,55.8,40.3,92.2,40.3C398.1,445.6,435.3,425,458.1,393.4z M356.1,167.8c50.8,0,95.7,24.9,123.4,63.1l-21.4,15.6-.4-.5c-22.9-31.3-59.9-51.7-101.6-51.7-36.5,0-69.3,15.5-92.2,40.3l-19.4-18,.1-.1C272.4,186.5,312.1,167.8,356.1,167.8z M356.1,114.8c68.4,0,128.9,33.4,166.2,84.9l-21.4,15.6-.4-.5c-32.5-44.5-85.1-73.4-144.4-73.4-56.7,0-107.3,26.4-140,67.7l-1,1.2-20.9-16.2C231.8,145.8,290.3,114.8,356.1,114.8z"/>
</svg>
