<svg xmlns="http://www.w3.org/2000/svg" width="512" height="512" viewBox="0 0 512 512">
<g>
<path d="M 510.25 224.68 C510.89,230.36 511.54,235.00 511.70,235.00 C511.87,235.00 512.00,182.12 512.00,117.50 L 512.00 512.00 L 0.00 512.00 L 0.00 0.00 L 512.00 0.00 L 388.25 0.14 C313.45,0.23 269.04,0.61 275.97,1.11 C321.20,4.36 365.32,19.95 402.50,45.82 C461.83,87.12 502.40,154.46 510.25,224.68 ZM 0.14 123.25 C0.22,198.29 0.61,242.39 1.12,236.00 C6.12,173.26 33.92,114.71 79.24,71.43 C122.20,30.42 177.05,5.82 236.00,1.12 C242.39,0.61 198.29,0.22 123.25,0.14 L 0.00 0.00 ZM 0.14 388.75 L 0.00 512.00 L 118.25 511.84 C182.11,511.75 233.05,511.53 233.05,511.33 C233.05,511.33 233.03,511.32 233.00,511.32 C182.29,506.12 135.44,486.90 95.18,454.77 C85.58,447.11 65.38,426.92 57.38,417.00 C24.74,376.49 5.23,327.59 1.12,276.00 C0.61,269.61 0.22,313.71 0.14,388.75 ZM 280.50 511.29 C280.45,511.30 280.43,511.30 280.43,511.30 C280.43,511.51 330.83,511.74 394.25,511.83 L 512.00 512.00 L 511.89 394.25 C511.79,290.78 511.61,277.77 510.43,287.00 C498.22,382.42 435.09,462.54 345.85,495.88 C325.63,503.44 300.05,509.47 280.50,511.29 ZM 180.57 356.43 C182.29,358.15 185.06,358.48 186.55,357.16 C187.07,356.69 190.43,355.26 194.00,353.98 C197.57,352.70 202.07,350.83 203.99,349.82 C205.90,348.82 208.17,348.00 209.04,348.00 C209.90,348.00 211.03,347.59 211.55,347.09 C212.07,346.59 214.07,345.73 216.00,345.17 C217.93,344.61 222.88,342.82 227.00,341.19 C244.88,334.14 271.16,323.62 279.00,320.37 C283.67,318.43 291.10,315.35 295.50,313.53 C299.90,311.71 304.62,309.90 306.00,309.51 C307.38,309.11 309.49,308.17 310.69,307.41 C311.90,306.65 317.30,304.48 322.69,302.60 C332.39,299.20 338.72,296.30 341.55,293.96 C343.41,292.41 343.42,288.59 341.55,287.04 C340.27,285.98 276.01,254.23 261.94,247.71 C258.95,246.32 243.00,238.58 226.50,230.49 L 196.50 215.79 L 201.00 213.76 C203.48,212.64 208.65,210.26 212.50,208.48 C216.35,206.69 221.75,204.44 224.50,203.48 C227.25,202.51 230.11,201.24 230.85,200.66 C231.59,200.07 232.94,199.48 233.85,199.34 C234.76,199.20 238.32,197.71 241.77,196.04 C245.21,194.37 248.60,193.00 249.29,193.00 C249.99,193.00 251.44,192.39 252.53,191.63 C253.61,190.88 255.62,189.92 257.00,189.50 C258.38,189.07 261.95,187.61 264.94,186.25 C267.93,184.88 270.86,183.66 271.44,183.53 C272.90,183.21 274.80,182.43 288.00,176.74 C304.08,169.81 319.21,163.88 319.66,164.32 C319.86,164.53 313.81,173.20 306.22,183.60 L 292.40 202.50 L 285.83 202.53 C277.62,202.56 272.32,205.65 269.12,212.25 C263.07,224.75 271.53,239.00 284.99,239.00 C289.37,239.00 295.43,236.40 298.21,233.32 C302.78,228.27 304.33,218.48 301.45,212.91 C299.91,209.92 299.92,209.89 306.75,200.71 C310.51,195.64 317.17,186.56 321.54,180.53 C325.92,174.50 330.48,168.20 331.69,166.53 C342.98,150.98 344.18,148.58 341.80,146.20 C341.47,145.87 341.21,145.58 340.89,145.35 C338.53,143.63 333.31,145.85 277.62,169.55 C275.96,170.26 274.25,170.98 272.50,171.73 C261.50,176.41 239.23,185.82 223.00,192.65 C179.78,210.84 179.08,211.16 178.44,213.18 C177.07,217.51 178.93,218.97 196.83,227.69 C241.77,249.56 262.99,259.83 281.50,268.67 C292.50,273.92 302.17,278.63 303.00,279.12 C303.83,279.62 306.52,280.91 309.00,282.00 C311.48,283.08 314.62,284.65 316.00,285.48 C317.38,286.32 319.74,287.55 321.25,288.22 C322.76,288.89 324.00,289.78 324.00,290.21 L 324.00 290.22 C324.00,290.26 324.00,290.30 324.00,290.34 C323.92,291.16 322.25,291.83 286.00,306.46 C212.48,336.14 199.82,341.16 199.42,340.75 C199.05,340.38 204.65,331.79 219.03,310.68 C221.22,307.48 223.00,304.50 223.00,304.05 C223.00,303.61 223.65,302.70 224.45,302.04 C225.25,301.38 228.86,296.48 232.46,291.17 C236.07,285.85 240.59,279.26 242.51,276.52 C244.43,273.78 246.00,271.24 246.00,270.87 C246.00,269.75 238.79,265.87 237.58,266.33 C236.96,266.57 233.73,270.75 230.41,275.63 C227.08,280.51 219.69,291.25 214.00,299.50 C208.30,307.75 199.36,320.80 194.12,328.50 C188.89,336.20 183.34,344.26 181.80,346.40 C178.65,350.78 178.25,354.10 180.57,356.43 Z" fill="rgb(6,6,3)"/>
<path d="M 10.17 185.91 C15.49,166.49 22.71,149.17 32.58,131.80 C23.08,148.88 15.55,167.03 10.17,185.91 ZM 339.35 13.97 C361.97,21.49 382.54,31.93 402.50,45.82 C383.07,32.30 361.74,21.59 339.35,13.97 ZM 341.07 0.25 C299.00,0.42 275.62,0.73 279.00,1.12 C282.10,1.48 285.16,1.86 288.18,2.29 C284.12,1.80 280.05,1.40 275.97,1.11 C270.66,0.73 295.50,0.41 341.07,0.25 ZM 0.23 344.92 C0.39,297.11 0.72,270.98 1.12,276.00 C1.39,279.49 1.74,282.97 2.16,286.44 C1.81,283.86 1.46,281.22 1.12,278.50 C0.72,275.25 0.40,300.32 0.23,344.92 ZM 0.23 167.08 C0.40,211.68 0.72,236.75 1.12,233.50 C1.43,231.00 1.76,228.54 2.10,226.12 C1.71,229.40 1.38,232.69 1.12,236.00 C0.72,241.02 0.39,214.89 0.23,167.08 ZM 226.83 2.01 C229.47,1.64 231.85,1.33 233.50,1.12 C236.75,0.72 211.68,0.40 167.08,0.23 C214.89,0.39 241.02,0.72 236.00,1.12 C232.93,1.36 229.88,1.66 226.83,2.01 ZM 117.94 40.92 C143.59,24.39 172.09,12.47 201.93,6.13 C172.01,12.61 143.64,24.38 117.94,40.92 ZM 6.26 310.60 C9.06,323.36 12.82,335.86 17.51,348.01 C13.55,337.75 10.24,327.23 7.60,316.50 C7.15,314.66 6.70,312.69 6.26,310.60 Z" fill="rgb(86,86,84)"/>
<path d="M 267.90 215.44 C267.36,218.03 268.67,219.65 272.56,222.61 C279.30,227.76 292.30,226.47 298.46,220.05 C300.77,217.63 301.16,216.50 300.76,213.32 C300.66,212.50 300.62,211.81 300.69,211.13 C300.81,211.66 301.09,212.20 301.45,212.91 C304.33,218.48 302.78,228.27 298.21,233.32 C295.43,236.40 289.37,239.00 284.99,239.00 C272.66,239.00 264.53,227.05 267.90,215.44 ZM 358.05 0.20 C311.48,0.35 278.73,0.70 280.50,1.06 C281.47,1.26 283.37,1.58 285.73,1.95 C283.51,1.66 281.27,1.38 279.00,1.12 C275.62,0.73 299.00,0.42 341.07,0.25 C346.45,0.23 352.11,0.21 358.05,0.20 ZM 6.26 310.60 C6.70,312.69 7.15,314.66 7.60,316.50 C10.23,327.23 13.55,337.75 17.51,348.00 L 17.51 348.01 C18.26,349.94 19.03,351.87 19.83,353.78 C15.04,342.28 11.08,330.44 8.00,318.37 C7.26,315.48 6.44,311.68 5.63,307.66 C5.84,308.64 6.05,309.62 6.26,310.60 ZM 304.87 4.88 C316.42,6.99 328.16,10.10 339.76,14.11 C339.62,14.07 339.49,14.02 339.35,13.97 C328.09,10.15 316.56,7.10 304.87,4.88 ZM 6.70 199.43 C7.29,196.73 7.89,194.19 8.45,192.00 C9.47,188.06 10.58,184.16 11.78,180.30 C11.22,182.15 10.68,184.02 10.17,185.91 C8.89,190.37 7.73,194.88 6.70,199.43 ZM 2.00 226.80 C2.19,224.28 2.79,220.14 3.60,215.41 C3.02,218.96 2.52,222.53 2.10,226.12 C2.06,226.34 2.03,226.57 2.00,226.80 ZM 2.02 285.42 C2.07,285.76 2.12,286.10 2.16,286.44 C2.55,289.63 2.99,292.81 3.50,295.98 C2.78,291.64 2.23,287.81 2.02,285.42 ZM 217.07 3.33 C221.23,2.65 224.82,2.15 226.99,1.99 L 226.83 2.01 C223.56,2.39 220.31,2.83 217.07,3.33 ZM 31.08 134.48 C35.13,127.01 39.55,119.76 44.30,112.75 C40.11,118.93 36.21,125.29 32.58,131.80 C32.08,132.69 31.58,133.59 31.08,134.48 ZM 272.15 207.71 C275.36,204.22 279.81,202.55 285.83,202.53 C279.84,202.55 275.36,204.23 272.15,207.71 ZM 232.99 1.19 C233.18,1.13 233.35,1.06 233.50,1.00 C233.51,1.00 233.52,0.99 233.52,0.99 C233.87,1.03 233.87,1.08 233.50,1.12 C233.34,1.14 233.17,1.16 232.99,1.19 ZM 0.99 233.52 C0.99,233.52 1.00,233.51 1.00,233.50 C1.06,233.35 1.12,233.18 1.18,232.99 C1.16,233.16 1.14,233.33 1.12,233.50 C1.08,233.87 1.03,233.87 0.99,233.52 ZM 0.99 278.48 C1.03,278.13 1.08,278.13 1.12,278.50 C1.14,278.67 1.16,278.84 1.18,279.01 C1.12,278.82 1.06,278.65 1.00,278.50 C1.00,278.49 0.99,278.48 0.99,278.48 ZM 193.32 8.13 C193.55,8.07 193.77,8.01 194.00,7.95 C194.98,7.71 196.05,7.45 197.18,7.19 C195.89,7.49 194.61,7.80 193.32,8.13 Z" fill="rgb(175,175,174)"/>
<path d="M 0.07 394.25 C0.11,327.63 0.51,277.37 1.00,278.50 C1.47,279.60 1.89,282.08 1.94,284.00 C2.04,288.92 5.53,308.69 8.00,318.37 C17.15,354.26 34.09,388.08 57.38,417.00 C65.38,426.92 85.58,447.11 95.18,454.77 C135.44,486.90 182.29,506.12 233.00,511.32 C234.93,511.52 183.29,511.75 118.25,511.84 L 0.00 512.00 L 0.07 394.25 ZM 280.50 511.29 C300.05,509.47 325.63,503.44 345.85,495.88 C435.09,462.54 498.22,382.42 510.43,287.00 C511.61,277.77 511.79,290.78 511.89,394.25 L 512.00 512.00 L 394.25 511.83 C329.49,511.74 278.30,511.50 280.50,511.29 ZM 180.57 356.43 C178.25,354.10 178.65,350.78 181.80,346.40 C183.34,344.26 188.89,336.20 194.12,328.50 C199.36,320.80 208.30,307.75 214.00,299.50 C219.69,291.25 227.08,280.51 230.41,275.63 C233.73,270.75 236.96,266.57 237.58,266.33 C238.79,265.87 246.00,269.75 246.00,270.87 C246.00,271.24 244.43,273.78 242.51,276.52 C240.59,279.26 236.07,285.85 232.46,291.17 C228.86,296.48 225.25,301.38 224.45,302.04 C223.65,302.70 223.00,303.61 223.00,304.05 C223.00,304.50 221.22,307.48 219.03,310.68 C204.65,331.79 199.05,340.38 199.42,340.75 C199.82,341.16 212.48,336.14 286.00,306.46 C324.23,291.03 324.00,291.13 324.00,290.21 C324.00,289.78 322.76,288.89 321.25,288.22 C319.74,287.55 317.38,286.32 316.00,285.48 C314.62,284.65 311.48,283.08 309.00,282.00 C306.52,280.91 303.83,279.62 303.00,279.12 C302.17,278.63 292.50,273.92 281.50,268.67 C262.99,259.83 241.77,249.56 196.83,227.69 C178.93,218.97 177.07,217.51 178.44,213.18 C179.08,211.16 179.78,210.84 223.00,192.65 C239.23,185.82 261.50,176.41 272.50,171.73 C340.82,142.66 338.95,143.35 341.80,146.20 C344.18,148.58 342.98,150.98 331.69,166.53 C330.48,168.20 325.92,174.50 321.54,180.53 C317.17,186.56 310.60,195.55 306.94,200.50 C300.91,208.66 300.34,209.86 300.76,213.32 C301.16,216.50 300.77,217.63 298.46,220.05 C292.30,226.47 279.30,227.76 272.56,222.61 C267.24,218.56 266.75,217.01 269.19,212.07 C272.38,205.63 277.72,202.56 285.83,202.53 L 292.40 202.50 L 306.22 183.60 C313.81,173.20 319.86,164.53 319.66,164.32 C319.21,163.88 304.08,169.81 288.00,176.74 C274.80,182.43 272.90,183.21 271.44,183.53 C270.86,183.66 267.93,184.88 264.94,186.25 C261.95,187.61 258.38,189.07 257.00,189.50 C255.62,189.92 253.61,190.88 252.53,191.63 C251.44,192.39 249.99,193.00 249.29,193.00 C248.60,193.00 245.21,194.37 241.77,196.04 C238.32,197.71 234.76,199.20 233.85,199.34 C232.94,199.48 231.59,200.07 230.85,200.66 C230.11,201.24 227.25,202.51 224.50,203.48 C221.75,204.44 216.35,206.69 212.50,208.48 C208.65,210.26 203.48,212.64 201.00,213.76 L 196.50 215.79 L 226.50 230.49 C243.00,238.58 258.95,246.32 261.94,247.71 C276.01,254.23 340.27,285.98 341.55,287.04 C343.42,288.59 343.41,292.41 341.55,293.96 C338.72,296.30 332.39,299.20 322.69,302.60 C317.30,304.48 311.90,306.65 310.69,307.41 C309.49,308.17 307.38,309.11 306.00,309.51 C304.62,309.90 299.90,311.71 295.50,313.53 C291.10,315.35 283.67,318.43 279.00,320.37 C271.16,323.62 244.88,334.14 227.00,341.19 C222.88,342.82 217.93,344.61 216.00,345.17 C214.07,345.73 212.07,346.59 211.55,347.09 C211.03,347.59 209.90,348.00 209.04,348.00 C208.17,348.00 205.90,348.82 203.99,349.82 C202.07,350.83 197.57,352.70 194.00,353.98 C190.43,355.26 187.07,356.69 186.55,357.16 C185.06,358.48 182.29,358.15 180.57,356.43 ZM 0.07 117.75 L 0.00 0.00 L 117.75 0.07 C184.37,0.11 234.63,0.51 233.50,1.00 C232.40,1.47 229.93,1.89 228.00,1.94 C223.11,2.04 204.16,5.40 194.00,7.95 C103.22,30.79 31.78,101.65 8.45,192.00 C5.62,202.97 2.05,222.67 1.94,228.00 C1.89,229.93 1.47,232.40 1.00,233.50 C0.51,234.63 0.11,184.37 0.07,117.75 ZM 510.25 224.68 C502.40,154.46 461.83,87.12 402.50,45.82 C370.97,23.88 332.17,8.45 296.05,3.47 C289.70,2.60 282.70,1.51 280.50,1.06 C278.30,0.61 329.49,0.19 394.25,0.12 L 512.00 0.00 L 512.00 117.50 C512.00,182.12 511.87,235.00 511.70,235.00 C511.54,235.00 510.89,230.36 510.25,224.68 Z" fill="rgb(251,251,251)"/>
</g>
</svg>