<?xml version="1.0" encoding="UTF-8"?>
<svg version="1.1" xmlns="http://www.w3.org/2000/svg" width="800" height="677">
<path d="M0 0 C264 0 528 0 800 0 C800 223.41 800 446.82 800 677 C536 677 272 677 0 677 C0 453.59 0 230.18 0 0 Z " fill="#FEFEFE" transform="translate(0,0)"/>
<path d="M0 0 C15.79063738 -2.2090529 15.79063738 -2.2090529 20.83447266 1.26269531 C24.16683523 4.72334602 26.52656319 8.81524912 28.85742188 12.99121094 C30.51115504 15.89867173 32.43790597 18.58802603 34.375 21.3125 C35.09558594 22.36179688 35.81617188 23.41109375 36.55859375 24.4921875 C40.54013574 30.2498013 44.68152995 35.8945741 48.7890625 41.5625 C52.06203517 46.07963063 55.30434696 50.61810104 58.54052734 55.16162109 C61.02485169 58.64577168 63.53499987 62.10957659 66.0625 65.5625 C68.83092806 69.35668028 71.52663781 73.19215499 74.1875 77.0625 C78.95085639 83.97757945 83.8702405 90.77491637 88.796875 97.57421875 C92.82537628 103.13436483 96.81351276 108.72297246 100.79833984 114.31445312 C102.8634484 117.21114339 104.93192927 120.10542422 107 123 C107.83334872 124.16665568 108.66668207 125.33332233 109.5 126.5 C110.11875 127.36625 110.11875 127.36625 110.75 128.25 C124.5 147.5 124.5 147.5 125.75048828 149.25073242 C126.5821324 150.41500169 127.41383793 151.5792271 128.24560547 152.7434082 C130.35529469 155.69639467 132.46384368 158.65018402 134.5703125 161.60546875 C135.42178577 162.7995428 136.27334767 163.99355366 137.125 165.1875 C137.75039673 166.06426392 137.75039673 166.06426392 138.38842773 166.95874023 C140.92479553 170.50945547 143.4853267 174.0412137 146.0625 177.5625 C174.11506483 216.04268489 174.11506483 216.04268489 172 234 C169.60906721 243.87769202 164.1584637 251.85601692 158.38671875 260.02783203 C156.96751982 262.04619276 155.57448324 264.08048024 154.1875 266.12109375 C150.18852243 271.99855757 146.15290444 277.83735312 141.9375 283.5625 C138.82607038 287.79378976 135.89345152 292.11881576 133 296.5 C129.54963097 301.72430593 125.98026661 306.82085578 122.26171875 311.859375 C119.26446784 316.02136071 116.38481446 320.25960602 113.5 324.5 C109.43561369 330.47207695 105.31268064 336.37885101 101.02734375 342.1953125 C97.45119394 347.14266426 94.02951451 352.19694018 90.58203125 357.234375 C88.61543944 360.10748142 86.63032528 362.96623186 84.625 365.8125 C81.80734999 369.81831568 79.04504333 373.86022336 76.28710938 377.90722656 C71.60891422 384.77087529 66.92522851 391.61266582 61.9765625 398.28515625 C58.92246563 402.48001263 55.96744033 406.7435754 53 411 C52.38817871 411.87648193 51.77635742 412.75296387 51.14599609 413.65600586 C43.46270589 424.668054 35.80422261 435.69585526 28.24951172 446.79663086 C27.28742917 448.20864808 26.31643718 449.61465005 25.33520508 451.01342773 C23.97207593 452.97527044 23.97207593 452.97527044 22.8737793 455.06665039 C21.71761245 457.05973837 20.76106191 458.50937178 19 460 C15.6835165 460.83163817 12.57923549 460.66766251 9.1875 460.4375 C8.30384766 460.40591797 7.42019531 460.37433594 6.50976562 460.34179688 C4.3384086 460.25963742 2.16876987 460.13408489 0 460 C0.60188452 455.85547337 1.99247058 452.82933009 4.03515625 449.1875 C4.67146973 448.04434326 5.3077832 446.90118652 5.96337891 445.72338867 C6.66296895 444.48219317 7.36267927 443.24106545 8.0625 442 C8.78632806 440.70521587 9.50946107 439.41004295 10.23193359 438.11450195 C11.35529017 436.10073973 12.479344 434.08738991 13.6060791 432.07551575 C16.13684286 427.55633817 18.64248082 423.02417851 21.12890625 418.48046875 C27.87536132 406.15989376 34.72652724 393.91894357 41.85424805 381.81298828 C45.98517889 374.7848354 49.98260143 367.69095946 53.9375 360.5625 C64.57287206 341.44299821 75.99508216 322.78113085 87.60107422 304.23779297 C88.84566352 302.24688451 90.08165932 300.2509232 91.31640625 298.25390625 C95.69589941 291.27736558 100.38669376 284.58378727 105.25 277.9375 C105.84095459 277.12716309 106.43190918 276.31682617 107.04077148 275.48193359 C110.10806667 271.33923995 113.12412268 267.41544508 117 264 C117.66 264 118.32 264 119 264 C119 259.05 119 254.1 119 249 C117.92514343 249.01146561 116.85028687 249.02293121 115.74285889 249.03474426 C100.30246795 249.1437587 84.8862473 248.62141501 69.45768833 248.08914924 C65.58911285 247.95628729 61.72041995 247.82692094 57.85174561 247.69697571 C51.30570344 247.4765575 44.75975915 247.25339658 38.21386719 247.02856445 C31.66448401 246.80364103 25.11501496 246.58150884 18.56542969 246.36254883 C-16.49103356 245.19020444 -51.5433912 243.94470541 -86.58949375 242.49235559 C-88.92464121 242.39571012 -91.2598149 242.29972007 -93.59499359 242.20383263 C-97.25057546 242.0534062 -100.90604348 241.90045342 -104.56143475 241.74546599 C-106.51036128 241.66315202 -108.45936088 241.58257339 -110.40836334 241.5020771 C-118.62128488 241.14846503 -126.80258126 240.61654323 -135 240 C-135 233.4 -135 226.8 -135 220 C-109.86852168 218.65315909 -84.73619883 217.56790194 -59.58349609 216.69775391 C-49.4438055 216.342942 -39.32842671 215.92615114 -29.20507812 215.24780273 C-19.48229282 214.63931179 -9.73505146 214.39841878 0 214.0625 C1.19077148 214.02086731 2.38154297 213.97923462 3.60839844 213.93634033 C12.0489061 213.64128494 20.48965418 213.35363712 28.93054199 213.06969452 C31.02434028 212.99918028 33.11812813 212.92836283 35.21191406 212.85748291 C43.75679635 212.56853707 52.30185539 212.28566685 60.84716797 212.00973511 C63.57541266 211.92156985 66.30359608 211.83178905 69.03173828 211.74050903 C85.69406266 211.18710248 102.32817654 210.86595845 119 211 C119.06833483 199.15282826 119.06833483 199.15282826 113.09375 189.296875 C110.61954799 186.58263847 108.5629967 183.65280334 106.5 180.625 C105.8090625 179.62726563 105.118125 178.62953125 104.40625 177.6015625 C87.01206596 151.87612249 71.20205328 124.95327023 55.578125 98.125 C54.36463352 96.04163743 53.15109114 93.95830452 51.9375 91.875 C51.33115723 90.83375977 50.72481445 89.79251953 50.10009766 88.71972656 C46.95815085 83.33133478 43.79134417 77.96173112 40.5625 72.625 C30.61131568 56.16909292 21.18953019 39.38488109 11.671875 22.67578125 C9.96734645 19.68551973 8.24970941 16.70368353 6.515625 13.73046875 C6.13978271 13.08303711 5.76394043 12.43560547 5.37670898 11.76855469 C4.3964807 10.08199536 3.41135839 8.39828296 2.42578125 6.71484375 C1.19741631 4.37590229 0.57013354 2.53968576 0 0 Z " fill="#161616" transform="translate(169,112)"/>
<path d="M0 0 C1.23234375 0.19722656 2.4646875 0.39445312 3.734375 0.59765625 C3.18004163 5.54842667 0.90600691 9.06524355 -1.640625 13.22265625 C-2.55801618 14.75086739 -3.47465619 16.27952966 -4.390625 17.80859375 C-4.86628906 18.5984668 -5.34195313 19.38833984 -5.83203125 20.20214844 C-8.14135769 24.06098888 -10.39180571 27.95333957 -12.640625 31.84765625 C-13.3197998 33.02110596 -13.3197998 33.02110596 -14.01269531 34.21826172 C-16.97929354 39.35004009 -19.92025755 44.49604602 -22.85302734 49.6472168 C-27.19545897 57.27370715 -31.58142116 64.86328796 -36.12695312 72.37060547 C-38.4441298 76.20438472 -40.68722025 80.07177875 -42.890625 83.97265625 C-48.54753333 93.93422391 -54.50878285 103.71587378 -60.41992188 113.52783203 C-62.07802482 116.28563448 -63.72881417 119.04757314 -65.375 121.8125 C-72.59909836 133.93650572 -80.04367776 145.91445339 -87.55273438 157.86376953 C-89.08551818 160.31019386 -90.60845911 162.76223581 -92.125 165.21875 C-105.81500737 187.37624205 -105.81500737 187.37624205 -111.765625 192.97265625 C-114.83728789 196.31248926 -114.75324881 200.00545814 -114.921875 204.32421875 C-114.97649902 205.37283081 -114.97649902 205.37283081 -115.03222656 206.44262695 C-115.1202462 208.16047686 -115.19431498 209.87903161 -115.265625 211.59765625 C-114.38455078 211.58718262 -113.50347656 211.57670898 -112.59570312 211.56591797 C-109.09111618 211.53033155 -105.58673794 211.50607712 -102.08203125 211.48779297 C-100.60934298 211.47816958 -99.13667057 211.46491123 -97.6640625 211.44677734 C-84.44277911 211.28893899 -71.2839348 211.95513677 -58.08674812 212.65241814 C-44.76275049 213.35399227 -31.44112116 213.91780823 -18.10546875 214.34375 C-17.22108816 214.37214336 -16.33670757 214.40053673 -15.42552757 214.4297905 C-10.88540094 214.57500887 -6.34520378 214.71786209 -1.80496216 214.85943604 C33.10045208 215.95018984 67.97525046 217.3380015 102.85212708 219.11811829 C114.80865065 219.71916626 126.77072675 220.16558575 138.734375 220.59765625 C138.734375 227.19765625 138.734375 233.79765625 138.734375 240.59765625 C118.50851858 241.64347112 98.29686675 242.63389305 78.046875 243.03515625 C60.59434368 243.38872975 43.16843407 244.17987484 25.734375 245.03515625 C25.05768391 245.06830051 24.38099281 245.10144478 23.68379593 245.13559341 C20.27633472 245.30249607 16.86888564 245.46964538 13.46144104 245.6368866 C12.45650195 245.68620362 12.45650195 245.68620362 11.43126106 245.73651695 C10.08187655 245.80276674 8.73249478 245.86907248 7.38311577 245.93543434 C-33.45990996 247.94258669 -74.36318649 249.95209679 -115.265625 249.59765625 C-115.60922979 259.78210215 -114.84295222 265.30244871 -107.71875 272.953125 C-103.6021692 277.39090399 -100.50752153 282.50658634 -97.265625 287.59765625 C-96.83411133 288.27296387 -96.40259766 288.94827148 -95.95800781 289.64404297 C-92.36449141 295.27688618 -88.80842488 300.9328057 -85.265625 306.59765625 C-84.72180176 307.46696777 -84.17797852 308.3362793 -83.61767578 309.23193359 C-77.12921396 319.61995906 -70.75565326 330.06245984 -64.58203125 340.640625 C-62.40255311 344.37389811 -60.18432009 348.08262203 -57.953125 351.78515625 C-51.99561668 361.6861439 -46.12876607 371.64058146 -40.265625 381.59765625 C-39.92539307 382.17523682 -39.58516113 382.75281738 -39.23461914 383.34790039 C-23.32479146 410.35862223 -23.32479146 410.35862223 -17.59375 420.68359375 C-13.59572883 427.8615082 -9.40723263 434.93015828 -5.22387695 442.0012207 C-1.64652818 448.08641205 1.67199237 454.2371888 4.734375 460.59765625 C-1.86317704 461.33281205 -8.73316965 462.07036263 -15.265625 460.59765625 C-19.3623421 457.28746357 -21.06096053 453.30536084 -23.265625 448.59765625 C-24.45057891 446.878822 -25.68060687 445.1902105 -26.953125 443.53515625 C-30.68005567 438.47035303 -34.228978 433.29590669 -37.765625 428.09765625 C-41.83002821 422.12558988 -45.95294374 416.21880607 -50.23828125 410.40234375 C-53.81443106 405.45499199 -57.23611049 400.40071607 -60.68359375 395.36328125 C-62.65018556 392.49017483 -64.63529972 389.63142439 -66.640625 386.78515625 C-69.45827501 382.77934057 -72.22058167 378.73743289 -74.97851562 374.69042969 C-79.73058397 367.71839737 -84.51096535 360.78861853 -89.51171875 353.9921875 C-94.46051406 347.23581439 -99.16659483 340.30254696 -103.92944336 333.41455078 C-106.19793677 330.13499878 -108.47600334 326.86248713 -110.765625 323.59765625 C-113.44689239 319.77436756 -116.10978497 315.93863219 -118.765625 312.09765625 C-123.47080394 305.29550809 -128.20090442 298.51184839 -132.98046875 291.76171875 C-139.82317071 282.09570228 -146.63779923 272.41275654 -153.265625 262.59765625 C-153.68505371 261.97729492 -154.10448242 261.35693359 -154.53662109 260.71777344 C-157.21309507 256.73413528 -159.77508783 252.70030465 -162.265625 248.59765625 C-162.81605469 247.72367188 -163.36648438 246.8496875 -163.93359375 245.94921875 C-168.91530828 236.87887017 -168.78875829 225.41346498 -166.56640625 215.46875 C-162.87542368 205.51711345 -155.32679019 196.83811029 -149.12109375 188.34765625 C-145.87300174 183.88249874 -142.7558965 179.35623243 -139.71240234 174.74951172 C-137.51446504 171.48042306 -135.17871069 168.32036931 -132.828125 165.16015625 C-129.24062309 160.30290702 -125.71467864 155.41549447 -122.2734375 150.453125 C-119.47539244 146.4738041 -116.61882523 142.53754176 -113.765625 138.59765625 C-108.71962262 131.63042242 -108.71962262 131.63042242 -103.765625 124.59765625 C-100.55203326 119.97263588 -97.254184 115.41039879 -93.953125 110.84765625 C-85.87316772 99.67867534 -77.86906848 88.46000635 -69.93286133 77.18847656 C-66.29076537 72.02561335 -62.60068817 66.89933045 -58.890625 61.78515625 C-54.23943871 55.3730788 -49.66834966 48.90995105 -45.140625 42.41015625 C-40.61795978 35.91890362 -36.09203137 29.43131135 -31.29052734 23.14160156 C-28.7905004 19.83666577 -26.60966858 16.51409372 -24.5859375 12.89453125 C-17.9816447 1.55403688 -13.2817857 -1.48277425 0 0 Z " fill="#161616" transform="translate(623.265625,111.40234375)"/>
<path d="M0 0 C6.6 0 13.2 0 20 0 C21.70525958 16.427824 22.72021039 32.81725331 23.5 49.3125 C23.59663239 51.30940074 23.69326765 53.30630136 23.79020405 55.30318737 C24.20551901 63.86824044 24.60552632 72.43396069 25 81 C25.07604462 82.64524658 25.07604462 82.64524658 25.15362549 84.32373047 C25.68725968 95.91276954 26.17444375 107.50289117 26.61739731 119.0957365 C26.82409891 124.49096964 27.0351521 129.88591199 27.25990295 135.28042603 C29.25463428 183.5835981 29.27927882 231.8621049 29.20059592 280.19909137 C29.18712433 288.89282815 29.18490082 297.58653991 29.1855461 306.28028572 C29.18622359 316.84480301 29.17930057 327.40930552 29.1700995 337.9738183 C29.16798945 340.96287119 29.16726143 343.95192163 29.16686058 346.94097519 C29.16584746 351.63179059 29.15967302 356.32257352 29.14969444 361.01337814 C29.1468103 362.71559958 29.1455356 364.41782475 29.14612198 366.12004852 C29.14820684 375.86448325 28.88801688 385.53922498 28.23214436 395.26265335 C27.87941017 400.94140404 27.79019493 406.61660085 27.71875 412.3046875 C27.68099134 414.70572919 27.64323087 417.10677086 27.60546875 419.5078125 C27.55180715 423.20701663 27.4995625 426.90623823 27.44775391 430.60546875 C27.39565204 434.23443511 27.3385989 437.86330084 27.28125 441.4921875 C27.26767456 442.5851413 27.25409912 443.67809509 27.2401123 444.8041687 C27.14449187 450.78384465 26.81754927 456.6774646 26.22613525 462.62850952 C25.96509939 465.36600429 25.84450092 468.08690412 25.7890625 470.8359375 C25.74954468 472.39658936 25.74954468 472.39658936 25.70922852 473.98876953 C25.6675354 475.66495361 25.6675354 475.66495361 25.625 477.375 C25.18472596 492.24626092 24.18810178 507.06766623 23.16333008 521.90844727 C23.03067768 523.83088613 22.89810908 525.75333078 22.765625 527.67578125 C22.66769905 529.09577171 22.66769905 529.09577171 22.5677948 530.54444885 C21.91248265 540.12983313 21.34926649 549.71983323 20.8125 559.3125 C20.76989044 560.07250305 20.72728088 560.8325061 20.68338013 561.61553955 C20.45250078 565.74353325 20.22566202 569.87171252 20 574 C13.4 574 6.8 574 0 574 C-0.08040527 572.62263672 -0.16081055 571.24527344 -0.24365234 569.82617188 C-0.55240693 564.54016351 -0.86203239 559.25420641 -1.171875 553.96826172 C-1.30393551 551.71339205 -1.43578316 549.4585099 -1.56738281 547.20361328 C-1.7604559 543.89612275 -1.95438311 540.58868309 -2.1484375 537.28125 C-2.21492996 536.1403743 -2.28142242 534.9994986 -2.34992981 533.8240509 C-2.71232854 527.66173005 -3.09590467 521.50157071 -3.51049805 515.3425293 C-4.76366366 496.55393642 -5.5151978 477.78829482 -6.00616455 458.96539307 C-6.15736403 453.18721419 -6.3156922 447.4092426 -6.47863579 441.6313839 C-6.53302612 439.65926674 -6.58313629 437.68703296 -6.6330719 435.71479797 C-6.78746168 430.10737496 -7.00939794 424.53629872 -7.49462891 418.94726562 C-8.27399049 409.40234771 -8.373407 399.83293415 -8.55078125 390.26171875 C-8.57159571 389.17975409 -8.59241016 388.09778942 -8.61385536 386.98303795 C-9.18897983 356.33415362 -9.18755076 325.68191531 -9.18511117 295.02875221 C-9.18541427 289.43882495 -9.19358053 283.84894619 -9.20581055 278.2590332 C-9.29070636 238.57708025 -8.80927075 198.98467378 -7.34973049 159.32773972 C-6.95445615 148.33196859 -6.73039812 137.33518885 -6.54800987 126.33408546 C-6.2696224 109.9005095 -5.61369157 93.56274051 -4.46484375 77.16796875 C-3.99414984 70.32226253 -3.75452757 63.48334255 -3.5625 56.625 C-3.01332665 37.71573977 -1.4278859 18.85887032 0 0 Z " fill="#161616" transform="translate(388,55)"/>
<path d="M0 0 C2.31 0 4.62 0 7 0 C7.50806447 1.72681437 8.00610467 3.45657979 8.5 5.1875 C8.7784375 6.15042969 9.056875 7.11335938 9.34375 8.10546875 C9.96677608 10.85345876 10.12302812 13.19598416 10 16 C10.66 16 11.32 16 12 16 C12.03738281 15.43152344 12.07476563 14.86304687 12.11328125 14.27734375 C12.56978622 8.91564807 13.63489082 4.8330492 16 0 C17.98 0 19.96 0 22 0 C22 6.93 22 13.86 22 21 C21.01 21 20.02 21 19 21 C19 15.72 19 10.44 19 5 C18.34 5 17.68 5 17 5 C17.061875 5.78375 17.12375 6.5675 17.1875 7.375 C16.93792426 12.20013103 15.5151318 16.43656733 14 21 C12.02 21 10.04 21 8 21 C7.01 17.04 6.02 13.08 5 9 C4.67 12.96 4.34 16.92 4 21 C2.68 21 1.36 21 0 21 C0 14.07 0 7.14 0 0 Z " fill="#333333" transform="translate(739,55)"/>
<path d="M0 0 C5.94 0 11.88 0 18 0 C18 0.99 18 1.98 18 3 C15.69 3 13.38 3 11 3 C11 9.27 11 15.54 11 22 C9.68 22 8.36 22 7 22 C7 15.73 7 9.46 7 3 C4.69 3 2.38 3 0 3 C0 2.01 0 1.02 0 0 Z " fill="#252525" transform="translate(719,55)"/>
<path d="M0 0 C2.31 0 4.62 0 7 0 C9.42857143 6.28571429 9.42857143 6.28571429 8 10 C7.67 9.34 7.34 8.68 7 8 C7 9.98 7 11.96 7 14 C6.67 14 6.34 14 6 14 C5.67 12.35 5.34 10.7 5 9 C4.67 12.96 4.34 16.92 4 21 C2.68 21 1.36 21 0 21 C0 14.07 0 7.14 0 0 Z " fill="#272727" transform="translate(739,55)"/>
<path d="M0 0 C1.98 0 3.96 0 6 0 C6 6.93 6 13.86 6 21 C5.01 21 4.02 21 3 21 C2.97292861 18.75006641 2.95357171 16.50003905 2.9375 14.25 C2.92589844 12.99703125 2.91429687 11.7440625 2.90234375 10.453125 C2.97978973 7.71463499 3.17219185 5.58119707 4 3 C2.68 2.67 1.36 2.34 0 2 C0 1.34 0 0.68 0 0 Z " fill="#161616" transform="translate(755,55)"/>
<path d="M0 0 C0.66 1.32 1.32 2.64 2 4 C1.01 4 0.02 4 -1 4 C-1.1546875 5.36125 -1.1546875 5.36125 -1.3125 6.75 C-2.35969266 11.7003653 -4.07422895 13.34651455 -8.1875 16.25 C-9.115625 16.8275 -10.04375 17.405 -11 18 C-11 14.6181337 -10.55473195 14.03299589 -8.59375 11.42578125 C-8.09746094 10.75869141 -7.60117187 10.09160156 -7.08984375 9.40429688 C-6.56519531 8.71400391 -6.04054688 8.02371094 -5.5 7.3125 C-4.97535156 6.61060547 -4.45070313 5.90871094 -3.91015625 5.18554688 C-2.61313301 3.45225218 -1.3073845 1.72549285 0 0 Z " fill="#1F1F1F" transform="translate(278,385)"/>
<path d="M0 0 C2.58949269 1.29474635 2.96035764 2.32663393 4 5 C4.125 7.75 4.125 7.75 4 10 C5.32 10 6.64 10 8 10 C8 11.65 8 13.3 8 15 C6.02 15 4.04 15 2 15 C1.34 10.05 0.68 5.1 0 0 Z " fill="#262626" transform="translate(745,61)"/>
<path d="M0 0 C3.3 0 6.6 0 10 0 C10 0.99 10 1.98 10 3 C7.69 3 5.38 3 3 3 C3 9.27 3 15.54 3 22 C1.68 21.67 0.36 21.34 -1 21 C-0.01 21 0.98 21 2 21 C2 14.73 2 8.46 2 2 C1.34 2 0.68 2 0 2 C0 1.34 0 0.68 0 0 Z " fill="#484848" transform="translate(727,55)"/>
<path d="M0 0 C2.29633824 3.44450737 2.54016485 5.93812283 3 10 C2.34 9.34 1.68 8.68 1 8 C1 9.98 1 11.96 1 14 C0.67 14 0.34 14 0 14 C-0.33 12.35 -0.66 10.7 -1 9 C-1.33 12.96 -1.66 16.92 -2 21 C-2.33 21 -2.66 21 -3 21 C-3 15.06 -3 9.12 -3 3 C-2.34 3 -1.68 3 -1 3 C-0.67 2.01 -0.34 1.02 0 0 Z " fill="#484848" transform="translate(745,55)"/>
<path d="M0 0 C4.20763224 1.5027258 5.8027758 4.23332995 8 8 C8 8.66 8 9.32 8 10 C6.35 10 4.7 10 3 10 C1.24118433 6.71687741 0 3.76143005 0 0 Z " fill="#252525" transform="translate(195,125)"/>
<path d="M0 0 C0.87776229 3.14422313 0.97911796 4.86682253 0 8 C-0.185625 8.7425 -0.37125 9.485 -0.5625 10.25 C-0.706875 10.8275 -0.85125 11.405 -1 12 C-1.33 11.34 -1.66 10.68 -2 10 C-2.99 11.485 -2.99 11.485 -4 13 C-4.66 13 -5.32 13 -6 13 C-6.99 13.495 -6.99 13.495 -8 14 C-6.6744419 10.37723685 -5.05653045 7.36494652 -2.875 4.1875 C-2.33617187 3.39730469 -1.79734375 2.60710937 -1.2421875 1.79296875 C-0.83226562 1.20128906 -0.42234375 0.60960937 0 0 Z " fill="#292929" transform="translate(262,408)"/>
<path d="M0 0 C2.06681445 2.61071299 3.93109607 5.33837839 5.75 8.125 C6.19859375 8.80820312 6.6471875 9.49140625 7.109375 10.1953125 C7.40328125 10.79085937 7.6971875 11.38640625 8 12 C7.67 12.66 7.34 13.32 7 14 C6.34 14 5.68 14 5 14 C4.690625 12.824375 4.690625 12.824375 4.375 11.625 C3.19323388 8.69083714 3.19323388 8.69083714 -0.125 7.6875 C-1.07375 7.460625 -2.0225 7.23375 -3 7 C-2.01 4.69 -1.02 2.38 0 0 Z " fill="#2B2B2B" transform="translate(598,520)"/>
<path d="M0 0 C1 2 1 2 0.51171875 4.12890625 C0.10373047 5.33353516 0.10373047 5.33353516 -0.3125 6.5625 C-0.70888672 7.77099609 -0.70888672 7.77099609 -1.11328125 9.00390625 C-2 11 -2 11 -4 12 C-4.33 11.34 -4.66 10.68 -5 10 C-6.32 11.32 -7.64 12.64 -9 14 C-7.65070536 10.16336928 -5.92248975 7.34827431 -3.375 4.1875 C-2.42753906 3.00220703 -2.42753906 3.00220703 -1.4609375 1.79296875 C-0.97882812 1.20128906 -0.49671875 0.60960937 0 0 Z " fill="#2D2D2D" transform="translate(551,192)"/>
<path d="M0 0 C0.99 0.33 1.98 0.66 3 1 C1.02 3.97 -0.96 6.94 -3 10 C-3.66 9.67 -4.32 9.34 -5 9 C-5.625 5.9375 -5.625 5.9375 -6 3 C-4.35 3 -2.7 3 -1 3 C-0.67 2.01 -0.34 1.02 0 0 Z " fill="#222222" transform="translate(207,539)"/>
<path d="M0 0 C2.38672669 2.96283313 4.7353371 5.94270509 7 9 C6.34 10.32 5.68 11.64 5 13 C4.9175 12.21625 4.835 11.4325 4.75 10.625 C4.27193661 7.85250896 4.27193661 7.85250896 1.9375 6.6875 C1.298125 6.460625 0.65875 6.23375 0 6 C0 4.02 0 2.04 0 0 Z " fill="#2A2A2A" transform="translate(521,393)"/>
<path d="M0 0 C1 4 1 4 1 6 C0.34 6 -0.32 6 -1 6 C-1.33 6.99 -1.66 7.98 -2 9 C-3.29355827 10.37195574 -4.62298702 11.71182656 -6 13 C-6.66 12.67 -7.32 12.34 -8 12 C-5.36 8.04 -2.72 4.08 0 0 Z " fill="#343434" transform="translate(522,232)"/>
<path d="M0 0 C2.29013653 3.4352048 2.17842973 4.985331 2 9 C1.01 9.495 1.01 9.495 0 10 C-1.98 6.535 -1.98 6.535 -4 3 C-2.68 2.01 -1.36 1.02 0 0 Z " fill="#202020" transform="translate(596,545)"/>
<path d="M0 0 C3.40424844 1.13474948 4.21653709 1.96811304 6 5 C5.67 5.99 5.34 6.98 5 8 C4.01 7.34 3.02 6.68 2 6 C1.01 6.495 1.01 6.495 0 7 C-0.66 5.68 -1.32 4.36 -2 3 C-1.34 3 -0.68 3 0 3 C0 2.01 0 1.02 0 0 Z " fill="#202020" transform="translate(323,304)"/>
<path d="M0 0 C0.66 0 1.32 0 2 0 C2 4.29 2 8.58 2 13 C1.01 13 0.02 13 -1 13 C-0.67 8.71 -0.34 4.42 0 0 Z " fill="#171717" transform="translate(727,63)"/>
<path d="M0 0 C0.928125 0.2784375 0.928125 0.2784375 1.875 0.5625 C4.04160178 1.23686176 4.04160178 1.23686176 6 0 C6.33 2.31 6.66 4.62 7 7 C6.01 7 5.02 7 4 7 C2.02 3.535 2.02 3.535 0 0 Z " fill="#262626" transform="translate(528,456)"/>
<path d="M0 0 C0.66 0.66 1.32 1.32 2 2 C0.02 4.97 -1.96 7.94 -4 11 C-5 8 -5 8 -4.2578125 6.2109375 C-1.11111111 1.11111111 -1.11111111 1.11111111 0 0 Z " fill="#252525" transform="translate(270,449)"/>
<path d="M0 0 C2 2 2 2 2 6 C-0.31 6.66 -2.62 7.32 -5 8 C-1.125 1.125 -1.125 1.125 0 0 Z " fill="#292929" transform="translate(561,178)"/>
<path d="M0 0 C1 2 1 2 0.3125 5 C-1 8 -1 8 -3.0625 9.25 C-3.701875 9.4975 -4.34125 9.745 -5 10 C-5.33 10.66 -5.66 11.32 -6 12 C-6.66 11.67 -7.32 11.34 -8 11 C-5.36 7.37 -2.72 3.74 0 0 Z " fill="#313131" transform="translate(591,136)"/>
<path d="M0 0 C0.99 0 1.98 0 3 0 C2.25 4.75 2.25 4.75 0 7 C-0.99 7 -1.98 7 -3 7 C-3 5.68 -3 4.36 -3 3 C-2.34 3 -1.68 3 -1 3 C-0.67 2.01 -0.34 1.02 0 0 Z " fill="#1D1D1D" transform="translate(188,564)"/>
<path d="M0 0 C1 3 1 3 0.328125 5.0078125 C-0.02765625 5.70648438 -0.3834375 6.40515625 -0.75 7.125 C-1.26820313 8.18074219 -1.26820313 8.18074219 -1.796875 9.2578125 C-3 11 -3 11 -6 12 C-4.43358249 7.69235185 -2.31663844 3.93828536 0 0 Z " fill="#2C2C2C" transform="translate(236,450)"/>
<path d="M0 0 C1 3 1 3 -0.125 6.0625 C-2.19821268 9.31053319 -3.35433814 10.01468598 -7 11 C-5.22054913 6.95579349 -2.60470327 3.53921513 0 0 Z " fill="#323232" transform="translate(273,392)"/>
<path d="M0 0 C2.61500768 2.36595933 4.38999603 4.86049226 6 8 C5.67 8.66 5.34 9.32 5 10 C4.01 10 3.02 10 2 10 C-1.125 3.375 -1.125 3.375 0 0 Z " fill="#2D2D2D" transform="translate(330,312)"/>
<path d="M0 0 C2.9375 0.375 2.9375 0.375 6 1 C6.33 1.66 6.66 2.32 7 3 C6.67 3.66 6.34 4.32 6 5 C5.34 5 4.68 5 4 5 C3.67 5.66 3.34 6.32 3 7 C2.01 4.69 1.02 2.38 0 0 Z " fill="#1C1C1C" transform="translate(173,120)"/>
<path d="M0 0 C0.99 0 1.98 0 3 0 C3 1.65 3 3.3 3 5 C2.34 5 1.68 5 1 5 C1 7.97 1 10.94 1 14 C0.67 14 0.34 14 0 14 C0 9.38 0 4.76 0 0 Z " fill="#1F1F1F" transform="translate(726,58)"/>
<path d="M0 0 C0.33 0.99 0.66 1.98 1 3 C1.66 3 2.32 3 3 3 C2.7834375 4.051875 2.7834375 4.051875 2.5625 5.125 C1.98521625 8.07556141 1.48304859 11.03270151 1 14 C0.67 14 0.34 14 0 14 C0 9.38 0 4.76 0 0 Z " fill="#3D3D3D" transform="translate(384,549)"/>
<path d="M0 0 C0.66 0 1.32 0 2 0 C2.95808288 3.5928108 3.20508082 5.38475753 2 9 C1.54625 8.525625 1.0925 8.05125 0.625 7.5625 C-0.93258204 5.90972192 -0.93258204 5.90972192 -3 5 C-2 3 -2 3 0 0 Z " fill="#0F0F0F" transform="translate(468,361)"/>
<path d="M0 0 C1.25541557 3.76624671 0.37061958 5.37188934 -1 9 C-1.99 9 -2.98 9 -4 9 C-2.94124926 5.59687262 -1.99097846 2.98646769 0 0 Z " fill="#2B2B2B" transform="translate(190,531)"/>
<path d="M0 0 C0.66 0.33 1.32 0.66 2 1 C2.59355614 3.64860427 2.74209269 6.29197322 3 9 C2.01 9 1.02 9 0 9 C-1.53445094 5.93109813 -0.54984289 3.29905734 0 0 Z " fill="#101010" transform="translate(530,264)"/>
<path d="M0 0 C1.65 1.65 3.3 3.3 5 5 C3.02 5.99 3.02 5.99 1 7 C-0.0625 5.1875 -0.0625 5.1875 -1 3 C-0.67 2.01 -0.34 1.02 0 0 Z " fill="#2C2C2C" transform="translate(284,248)"/>
<path d="M0 0 C1.60031344 3.20062687 0.03173691 5.72271806 -1 9 C-2.32 8.34 -3.64 7.68 -5 7 C-3.35 4.69 -1.7 2.38 0 0 Z " fill="#2E2E2E" transform="translate(541,206)"/>
<path d="M0 0 C0.99 0.33 1.98 0.66 3 1 C4.1875 4.0625 4.1875 4.0625 5 7 C2.37812506 5.95125002 1.20628639 5.35068687 -0.25 2.875 C-0.4975 2.25625 -0.745 1.6375 -1 1 C-0.67 0.67 -0.34 0.34 0 0 Z " fill="#1C1C1C" transform="translate(226,168)"/>
<path d="M0 0 C0.66 0 1.32 0 2 0 C3.625 2.5 3.625 2.5 5 5 C3.35 5.33 1.7 5.66 0 6 C-0.38218767 4.34385343 -0.71395102 2.67542976 -1 1 C-0.67 0.67 -0.34 0.34 0 0 Z " fill="#262626" transform="translate(187,113)"/>
<path d="M0 0 C-0.25 2.375 -0.25 2.375 -1 5 C-3.0625 6.3125 -3.0625 6.3125 -5 7 C-5 6.34 -5 5.68 -5 5 C-4.34 5 -3.68 5 -3 5 C-3 4.34 -3 3.68 -3 3 C-3.66 3 -4.32 3 -5 3 C-5 2.34 -5 1.68 -5 1 C-2 0 -2 0 0 0 Z " fill="#101010" transform="translate(598,520)"/>
<path d="M0 0 C0.6875 1.8125 0.6875 1.8125 1 4 C-0.4375 5.75 -0.4375 5.75 -2 7 C-2.66 5.35 -3.32 3.7 -4 2 C-2.68 1.34 -1.36 0.68 0 0 Z " fill="#1D1D1D" transform="translate(230,506)"/>
<path d="M0 0 C1.9375 0.125 1.9375 0.125 4 1 C5.25 3.5625 5.25 3.5625 6 6 C3.0625 5.1875 3.0625 5.1875 0 4 C-0.33 3.01 -0.66 2.02 -1 1 C-0.67 0.67 -0.34 0.34 0 0 Z " fill="#2F2F2F" transform="translate(316,295)"/>
<path d="M0 0 C0 1.65 0 3.3 0 5 C-1.65 5 -3.3 5 -5 5 C-5 4.01 -5 3.02 -5 2 C-2 0 -2 0 0 0 Z " fill="#1A1A1A" transform="translate(753,71)"/>
<path d="M0 0 C0.33 0 0.66 0 1 0 C1 2.31 1 4.62 1 7 C0.01 7.495 0.01 7.495 -1 8 C-1.66 7.67 -2.32 7.34 -3 7 C-1.125 2.25 -1.125 2.25 0 0 Z " fill="#252525" transform="translate(204,506)"/>
<path d="M0 0 C0.99 0 1.98 0 3 0 C3.66 0.66 4.32 1.32 5 2 C3.515 4.475 3.515 4.475 2 7 C0 5 0 5 -0.125 2.375 C-0.08375 1.59125 -0.0425 0.8075 0 0 Z " fill="#212121" transform="translate(532,265)"/>
<path d="M0 0 C1.65 0 3.3 0 5 0 C4.01 0.495 4.01 0.495 3 1 C2.64587656 2.32796291 2.31478446 3.66216607 2 5 C1.34 5.99 0.68 6.98 0 8 C0 5.36 0 2.72 0 0 Z " fill="#272727" transform="translate(388,55)"/>
<path d="M0 0 C0.99 0 1.98 0 3 0 C4.6875 2 4.6875 2 6 4 C4.68 4.33 3.36 4.66 2 5 C1.67 4.01 1.34 3.02 1 2 C0.34 1.67 -0.32 1.34 -1 1 C-0.67 0.67 -0.34 0.34 0 0 Z " fill="#252525" transform="translate(571,479)"/>
<path d="M0 0 C0.99 1.32 1.98 2.64 3 4 C2.01 5.485 2.01 5.485 1 7 C0.01 6.01 -0.98 5.02 -2 4 C-1.34 2.68 -0.68 1.36 0 0 Z " fill="#1D1D1D" transform="translate(571,201)"/>
<path d="M0 0 C0.99 0 1.98 0 3 0 C3 2.31 3 4.62 3 7 C0.7522025 4.94766315 -0.0022242 3.99332739 -1 1 C-0.67 0.67 -0.34 0.34 0 0 Z " fill="#252525" transform="translate(553,489)"/>
<path d="M0 0 C0.33 0.99 0.66 1.98 1 3 C-0.40445835 5.2636564 -2.1967913 7.0208685 -4 9 C-4.66 8.67 -5.32 8.34 -6 8 C-4.02 5.36 -2.04 2.72 0 0 Z " fill="#404040" transform="translate(489,279)"/>
<path d="M0 0 C2.475 0.495 2.475 0.495 5 1 C4.34 2.32 3.68 3.64 3 5 C2.01 5 1.02 5 0 5 C0 3.35 0 1.7 0 0 Z " fill="#1B1B1B" transform="translate(233,181)"/>
<path d="M0 0 C2.64 0 5.28 0 8 0 C7.01 0.495 7.01 0.495 6 1 C6 1.66 6 2.32 6 3 C3.03 2.505 3.03 2.505 0 2 C0 1.34 0 0.68 0 0 Z " fill="#1E1E1E" transform="translate(607,113)"/>
</svg>
