<?xml version="1.0" encoding="utf-8"?>
<!-- Generator: Adobe Illustrator 26.2.1, SVG Export Plug-In . SVG Version: 6.00 Build 0)  -->
<svg version="1.1" id="961f48f1-9bca-4e48-9245-b71f47f76a6a"
	 xmlns="http://www.w3.org/2000/svg" x="0px" y="0px" viewBox="0 0 155 51.6"
	 xml:space="preserve">
<g>
	<path d="M16.1,20.4L11.7,20c-4-0.3-4.2-0.6-4.2-3.3c0-3.2,0.3-3.5,6.4-3.5c3.5,0,5.5,0.2,6.9,0.5l0.3-0.3v-1.1
		c0-1.9-0.7-2.6-8.2-2.6c-8.3,0-10.2,1.1-10.2,7.3c0,5.6,1,6.9,6.3,7.4l4.6,0.5c3.9,0.3,4.2,0.6,4.2,3.4c0,3.4-0.3,4-6.2,4
		c-4.2,0-7.2-0.3-8.8-0.7l-0.2,0.2v1.3c0,2.3,0.8,3,9.1,3c9.4,0,11-1.5,11-7.9C22.5,21.6,21.4,20.9,16.1,20.4z"/>
	<path d="M36.3,16.9c-3.2,0-4.5,0.8-5.5,2.2c-0.2-1.6-0.8-1.9-2.2-1.9h-2.1l-0.3,0.3v26.2l4.7-0.7v-9c0.9,1.5,2.4,1.8,5.7,1.8
		c5.1,0,6.4-1.3,6.4-9.5C42.9,18.1,42.1,16.9,36.3,16.9z M34.5,32.2c-3.1,0-3.7-0.6-3.7-2.7v-6.2c0-2.5,1-3,3.7-3
		c3.4,0,3.8,0.6,3.8,5.9C38.2,31.6,37.9,32.2,34.5,32.2z"/>
	<path d="M54.8,31.9h-0.6c-0.7,0-0.8-0.1-1-0.8l-3.4-13.9h-4.9L48.9,32c0.9,3.4,1.5,3.8,4.8,3.8l-0.5,1.9c-0.6,2.3-0.8,2.4-3,2.4
		c-0.8,0-1.7,0-2.3-0.1l-0.3,0.3v1c0,1.8,0.7,2.4,3.8,2.4c4.2,0,4.8-0.8,5.9-5.3l5.8-21.2h-4.8L54.8,31.9z"/>
	<path d="M78.5,9.6c-9.5,0-10.7,1.3-10.7,13.1S69,35.9,78.4,35.9c6.6,0,7.9-0.6,7.9-1.9v-0.8l-0.2-0.2c-1.3,0.3-3.4,0.6-6.9,0.6
		c-7.8,0-8.3-0.6-8.3-10.7S71.4,12,79.2,12c3.4,0,5.7,0.2,6.9,0.5l0.2-0.2v-0.8C86.2,10.1,85.3,9.6,78.5,9.6z"/>
	<polygon points="91.1,35.5 93.9,35.5 93.9,7.9 91.1,8.3 	"/>
	<path d="M106.3,16.9c-6.7,0-7.8,1.4-7.8,9.5c0,8,1,9.5,7.8,9.5c6.9,0,7.8-1.4,7.8-9.5S113,16.9,106.3,16.9z M106.3,33.5
		c-4.2,0-4.8-0.6-4.8-7.2c0-6.5,0.6-7.2,4.8-7.2s4.8,0.6,4.8,7.2C111.1,32.9,110.5,33.5,106.3,33.5z"/>
	<path d="M129.9,30.4c0,2.7-1.9,3.2-4.9,3.2c-3.4,0-4-0.5-4-4.1V17.1h-2.9v12.3c0,5.5,1.1,6.3,5.9,6.3c3.5,0,4.8-0.6,5.8-2.1
		c0.1,1.6,0.6,1.8,1.5,1.8h1.1l0.2-0.2V17.1h-2.9C129.9,17.1,129.9,30.4,129.9,30.4z"/>
	<path d="M149.6,8.3v10.4c-0.9-1.5-2.4-1.8-5.6-1.8c-5.7,0-6.7,1.4-6.7,9.5s0.9,9.5,6.6,9.5c3.8,0,4.9-0.7,5.8-2.1
		c0.2,1.6,0.6,1.8,1.5,1.8h1.1l0.2-0.2V8L149.6,8.3z M149.6,30.3c0,2.7-1.8,3.3-4.7,3.3c-4.2,0-4.7-0.6-4.7-7.2s0.6-7.2,4.7-7.2
		c4,0,4.8,0.8,4.8,3.1v8H149.6z"/>
</g>
</svg>
