<?xml version="1.0" standalone="no"?>
<!DOCTYPE svg PUBLIC "-//W3C//DTD SVG 20010904//EN"
 "http://www.w3.org/TR/2001/REC-SVG-20010904/DTD/svg10.dtd">
<svg version="1.0" xmlns="http://www.w3.org/2000/svg"
 width="180.000000pt" height="77.000000pt" viewBox="0 0 180.000000 77.000000"
 preserveAspectRatio="xMidYMid meet">
<metadata>
Created by potrace 1.10, written by Peter Selinger 2001-2011
</metadata>
<g transform="translate(0.000000,77.000000) scale(0.100000,-0.100000)"
fill="#e61313" stroke="none">
<path d="M269 695 c-108 -35 -193 -123 -225 -233 -47 -159 47 -343 205 -403
74 -28 193 -23 263 10 50 24 118 84 138 121 11 20 10 21 -10 10 -12 -6 -25
-21 -29 -32 -7 -19 -8 -19 -14 -4 -8 21 0 39 14 31 5 -4 12 1 15 10 11 28 -5
29 -34 2 -66 -63 -195 -85 -295 -51 -63 21 -130 84 -163 151 -32 64 -38 160
-15 226 16 46 69 110 84 100 6 -4 7 -1 2 7 -6 10 -3 12 13 8 12 -4 20 -3 17 2
-3 4 2 11 11 14 23 9 24 8 17 -11 -4 -12 1 -9 14 7 19 22 23 23 39 10 10 -8
15 -10 11 -4 -8 14 14 24 49 24 16 0 23 -4 18 -11 -4 -8 0 -9 15 -4 12 4 21 2
21 -4 0 -10 -28 -15 -67 -14 -7 1 -11 -3 -8 -7 3 -4 -8 -10 -24 -13 -16 -3
-36 -13 -45 -22 -9 -9 -16 -13 -16 -9 0 4 -9 -2 -21 -15 -12 -12 -28 -20 -36
-17 -8 3 -12 2 -8 -3 3 -5 2 -11 -2 -14 -5 -2 -2 -2 6 0 11 3 11 1 1 -12 -7
-8 -17 -12 -22 -9 -5 3 -9 0 -7 -7 3 -28 -1 -40 -13 -33 -7 4 -8 3 -4 -5 4 -6
3 -18 -3 -25 -16 -19 -26 -130 -14 -151 8 -13 11 0 15 52 11 159 123 265 278
266 82 0 143 -26 200 -85 39 -39 41 -40 27 -12 -25 49 -98 115 -156 142 -68
31 -174 39 -242 17z m214 -32 c-7 -2 -19 -2 -25 0 -7 3 -2 5 12 5 14 0 19 -2
13 -5z m-407 -218 c-4 -14 -2 -25 3 -25 5 0 8 -20 7 -45 -1 -30 3 -46 12 -50
8 -3 12 -12 9 -19 -3 -8 1 -17 9 -20 8 -3 14 -12 14 -19 0 -8 7 -20 15 -27 8
-7 12 -16 9 -21 -3 -5 -2 -8 3 -7 5 2 26 -12 48 -29 29 -24 34 -32 18 -29 -21
4 -26 -14 -9 -31 4 -4 6 -2 4 6 -2 9 5 15 17 14 52 -1 66 -4 60 -13 -9 -14
112 -17 175 -4 19 3 22 2 10 -6 -11 -7 -11 -10 -2 -10 7 0 15 7 18 15 3 8 21
17 40 21 19 3 31 10 28 15 -7 12 19 7 28 -6 8 -11 -10 -35 -27 -35 -7 0 -18
-7 -25 -15 -7 -8 -21 -15 -31 -15 -11 0 -19 -4 -19 -8 0 -12 -11 -13 -105 -18
-91 -4 -126 2 -104 18 10 7 7 7 -9 3 -15 -4 -33 0 -50 11 -15 10 -31 17 -37
15 -5 -1 -7 0 -3 4 4 4 -4 17 -16 29 -13 11 -24 26 -26 31 -1 6 -4 12 -7 15
-4 3 -3 -1 1 -7 4 -7 3 -13 -1 -13 -12 0 -44 56 -36 64 3 3 2 6 -3 6 -16 0
-35 65 -36 119 0 52 10 111 19 111 3 0 2 -11 -1 -25z"/>
<path d="M1320 516 c0 -33 -1 -34 -42 -34 -59 -1 -78 -26 -78 -101 0 -31 4
-61 8 -67 14 -22 54 -36 80 -28 15 4 44 6 65 5 l37 -3 0 131 0 131 -35 0 c-33
0 -35 -2 -35 -34z m37 -109 c0 -71 -3 -94 -13 -94 -8 0 -10 6 -5 16 10 21 8
82 -3 100 -7 10 -5 12 5 6 9 -5 8 -1 -3 10 -13 14 -14 21 -5 36 7 11 14 19 17
19 4 0 6 -42 7 -93z m-111 21 c-19 -11 -11 -87 12 -104 13 -9 13 -11 -1 -11
-18 0 -26 16 -33 68 -3 21 -1 40 5 44 6 3 9 11 6 16 -3 5 1 6 11 2 15 -5 15
-7 0 -15z m69 -44 c0 -42 -3 -49 -20 -49 -16 0 -21 8 -23 44 -2 28 1 47 10 52
24 16 33 3 33 -47z"/>
<path d="M380 483 c-36 -7 -50 -22 -50 -53 0 -30 21 -53 63 -69 41 -16 32 -31
-18 -31 -37 0 -45 -3 -45 -19 0 -23 52 -35 105 -25 44 8 57 24 53 66 -3 28
-10 36 -45 53 -24 11 -43 23 -43 27 0 5 18 8 40 8 33 0 40 3 40 20 0 14 -7 20
-24 20 -13 0 -30 2 -38 4 -7 2 -24 1 -38 -1z m-5 -48 c-2 -14 2 -25 8 -25 5 0
8 -2 5 -5 -9 -9 -36 6 -34 18 2 13 15 37 20 37 2 0 2 -11 1 -25z m82 -77 c8
-10 7 -18 -4 -33 -15 -19 -15 -19 -9 -1 4 13 -1 27 -16 44 -22 23 -22 24 -2
14 11 -6 26 -17 31 -24z"/>
<path d="M610 482 c-73 -8 -90 -28 -90 -106 0 -61 25 -90 79 -90 39 -1 41 -2
41 -33 0 -31 2 -33 35 -33 l35 0 0 129 0 129 -37 3 c-21 2 -49 3 -63 1z m-35
-49 c-4 -16 -9 -36 -11 -47 -2 -10 -5 -21 -8 -23 -3 -3 5 -15 17 -27 13 -11
19 -18 14 -14 -5 3 -16 4 -23 1 -15 -5 -17 4 -16 67 0 19 5 36 11 38 6 2 11
10 11 18 0 8 3 14 6 14 3 0 3 -12 -1 -27z m107 -30 c-8 -21 -11 -23 -11 -8 -1
11 -4 31 -7 45 -6 23 -6 24 11 8 14 -13 15 -21 7 -45z m-42 -19 c0 -52 -1 -55
-22 -52 -19 2 -24 10 -26 43 -3 29 1 43 14 52 29 21 34 16 34 -43z m46 -64 c1
-22 -2 -43 -8 -46 -6 -4 -5 -10 3 -16 11 -8 11 -9 -1 -5 -8 2 -14 11 -12 19 1
9 -4 18 -12 21 -12 5 -12 11 2 40 20 42 25 39 28 -13z"/>
<path d="M1032 481 c-18 -3 -33 -9 -32 -13 0 -5 0 -14 0 -21 0 -10 13 -13 42
-13 33 1 43 -3 46 -16 3 -15 -4 -18 -36 -18 -45 0 -72 -23 -72 -63 0 -36 40
-62 77 -51 16 4 45 6 66 5 l37 -3 0 80 c0 81 -12 112 -43 112 -7 0 -21 2 -32
4 -11 2 -35 1 -53 -3z m94 -43 c13 -20 14 -92 2 -80 -6 6 -11 23 -12 39 -1 15
-5 34 -9 41 -5 6 -4 12 2 12 5 0 13 -5 17 -12z m-100 -99 c1 -19 -1 -26 -6
-19 -4 7 -6 20 -5 29 7 32 10 29 11 -10z m74 12 c0 -20 -25 -35 -41 -25 -5 3
-9 14 -9 25 0 14 7 19 25 19 18 0 25 -5 25 -19z m40 -15 c0 -2 -7 -9 -15 -16
-13 -11 -14 -10 -9 4 5 14 24 23 24 12z"/>
<path d="M1537 483 c-4 -3 -29 -5 -57 -4 l-50 1 0 -95 0 -95 35 0 34 0 3 68
c3 65 4 67 31 70 23 3 27 8 27 33 0 28 -9 37 -23 22z m-59 -97 c1 -36 -3 -66
-7 -66 -5 0 -9 31 -8 69 2 87 13 84 15 -3z"/>
<path d="M1623 483 c-27 -3 -33 -9 -33 -28 0 -22 4 -24 42 -22 33 2 43 -2 46
-15 3 -15 -4 -18 -36 -18 -45 0 -72 -23 -72 -63 0 -36 40 -62 77 -51 16 4 45
6 66 5 l37 -3 0 80 c0 81 -12 112 -43 112 -7 0 -21 2 -32 4 -11 2 -35 1 -52
-1z m102 -94 c5 -31 3 -49 -4 -54 -6 -3 -8 -11 -5 -17 4 -7 2 -8 -4 -4 -8 5
-9 13 -2 26 7 13 6 21 -5 30 -10 8 -11 18 -5 36 5 13 7 32 4 41 -5 15 -4 15 4
3 6 -8 13 -36 17 -61z m-38 -38 c2 -20 -22 -35 -38 -25 -5 3 -9 14 -9 25 0 27
45 27 47 0z m-67 -31 c6 -11 8 -20 6 -20 -3 0 -10 9 -16 20 -6 11 -8 20 -6 20
3 0 10 -9 16 -20z"/>
<path d="M752 394 c5 -99 19 -120 73 -109 17 3 51 6 78 5 l47 -1 0 95 0 96
-37 0 -38 0 3 -69 c3 -63 2 -70 -18 -76 -12 -4 -24 -4 -27 -1 -3 3 -5 37 -4
76 l2 70 -42 0 -42 0 5 -86z m44 10 c-5 -55 2 -86 18 -77 6 3 5 0 -2 -8 -11
-12 -14 -12 -21 0 -12 19 -13 131 -1 131 5 0 8 -20 6 -46z m124 -19 c0 -52 -3
-65 -16 -65 -10 0 -12 4 -7 13 9 14 9 18 11 75 3 67 12 49 12 -23z"/>
<path d="M1000 201 c0 -33 5 -63 10 -66 6 -4 10 10 10 34 0 34 3 41 20 41 17
0 20 -7 20 -40 0 -22 5 -40 11 -40 6 0 9 19 7 48 -3 44 -5 47 -30 47 -20 -1
-28 4 -28 17 0 10 -4 18 -10 18 -6 0 -10 -26 -10 -59z"/>
<path d="M1300 201 c0 -82 17 -87 22 -6 2 47 0 65 -9 65 -9 0 -13 -19 -13 -59z"/>
<path d="M1540 250 c0 -5 7 -10 15 -10 8 0 15 5 15 10 0 6 -7 10 -15 10 -8 0
-15 -4 -15 -10z"/>
<path d="M760 233 c-10 -12 -11 -18 -2 -21 7 -2 12 -19 12 -38 0 -34 22 -56
38 -39 4 4 1 10 -5 12 -17 6 -17 60 -1 65 9 3 8 9 -4 21 -20 20 -19 20 -38 0z"/>
<path d="M832 218 c-7 -7 -12 -25 -12 -40 0 -33 37 -56 67 -43 15 7 13 9 -11
14 -16 3 -31 12 -33 18 -3 9 4 11 26 7 26 -6 31 -3 31 13 0 23 -18 43 -40 43
-9 0 -21 -5 -28 -12z m48 -18 c0 -5 -9 -10 -21 -10 -11 0 -17 5 -14 10 3 6 13
10 21 10 8 0 14 -4 14 -10z"/>
<path d="M932 221 c-18 -11 -11 -71 9 -84 9 -6 25 -7 35 -2 17 7 17 8 -6 14
-18 5 -26 15 -28 34 -3 23 0 27 23 27 15 0 24 4 20 10 -7 12 -35 13 -53 1z"/>
<path d="M1102 181 c3 -52 21 -59 22 -9 1 23 6 34 19 36 14 3 17 -4 17 -37 0
-23 5 -41 11 -41 6 0 9 19 7 48 l-3 47 -38 1 -38 1 3 -46z"/>
<path d="M1212 218 c-22 -22 -14 -67 13 -80 31 -14 55 3 55 41 0 30 -16 51
-40 51 -9 0 -21 -5 -28 -12z m46 -35 c-3 -30 -25 -42 -34 -19 -9 22 2 46 21
46 12 0 15 -8 13 -27z"/>
<path d="M1350 210 c-24 -44 10 -91 54 -74 13 5 16 16 14 48 -3 36 -6 41 -30
44 -19 2 -30 -3 -38 -18z m53 -12 c6 -20 -4 -48 -18 -48 -16 0 -26 25 -19 45
7 18 31 20 37 3z"/>
<path d="M1452 218 c-26 -26 -10 -78 24 -78 13 0 24 -4 24 -10 0 -5 -14 -10
-32 -10 -23 0 -29 -3 -21 -11 6 -6 23 -9 39 -7 28 3 29 5 32 66 l3 62 -29 0
c-15 0 -33 -5 -40 -12z m48 -38 c0 -20 -5 -30 -15 -30 -18 0 -30 24 -21 45 10
28 36 17 36 -15z"/>
<path d="M1540 180 c0 -35 4 -50 12 -48 6 2 11 24 11 48 0 24 -5 46 -11 48 -8
2 -12 -13 -12 -48z"/>
<path d="M1595 220 c-12 -19 -8 -72 6 -81 19 -12 59 -11 59 0 0 5 -11 11 -25
13 -14 2 -24 7 -23 13 2 5 13 8 25 7 26 -4 33 7 22 36 -9 23 -52 31 -64 12z
m50 -20 c4 -6 -5 -10 -20 -10 -15 0 -24 4 -20 10 3 6 12 10 20 10 8 0 17 -4
20 -10z"/>
<path d="M1687 223 c-14 -14 -6 -34 18 -45 14 -6 25 -15 25 -20 0 -4 -11 -8
-25 -8 -14 0 -25 -4 -25 -10 0 -14 43 -13 58 2 19 19 14 34 -15 48 l-28 14 28
4 c15 2 27 8 27 13 0 10 -53 13 -63 2z"/>
</g>
</svg>
