<?xml version="1.0" encoding="UTF-8"?>
<svg xmlns="http://www.w3.org/2000/svg" version="1.1" viewBox="0 0 75 75">
  <defs>
    <style>
      .cls-1 {
        fill: #000028;
        fill-rule: evenodd;
      }
      .cls-1, .cls-2, .cls-3 {
        stroke-width: 0px;
      }
      .cls-2 {
        fill: #03c1b6;
      }
      .cls-3 {
        fill: #fff;
      }
    </style>
  </defs>
  <g>
    <rect class="cls-2" width="75" height="75" rx="4.7" ry="4.7"/>
  </g>
  <path class="cls-1" d="M37.5,65.2c-14.5-9.5-23.3-25.7-23.3-43.1v-6.8h0l23.3-5.5,23.3,5.5v6.8c0,17.4-8.8,33.6-23.3,43.1h0Z"/>
  <path class="cls-3" d="M43,31.8c-5,0-9,4-9,9s4,9,9,9,3.7-.6,5.2-1.6l3.4,3.4c.6-.9,1.2-1.7,1.7-2.6l-2.9-2.9c1-1.5,1.6-3.3,1.6-5.2,0-5-4-9-9-9ZM43,46.7c-3.3,0-5.9-2.7-5.9-5.9s2.7-5.9,5.9-5.9,5.9,2.7,5.9,5.9-2.7,5.9-5.9,5.9Z"/>
  <path class="cls-3" d="M32.5,39.3c0,.4,0,.9,0,1.3s0,1.2.1,1.8h-8.9v-3.1h8.9Z"/>
  <path class="cls-3" d="M36.4,27v5.4c-1.7,1.4-3,3.2-3.6,5.4h-1.1v-10.8h4.6Z"/>
  <rect class="cls-3" x="25.4" y="19.5" width="4.6" height="18.2"/>
  <path class="cls-3" d="M49.1,25.4v6.6c-1.3-1-2.9-1.6-4.6-1.9v-4.7h4.6Z"/>
  <path class="cls-3" d="M42.8,22.3v7.7c-1.7,0-3.2.5-4.6,1.2v-8.9h4.6Z"/>
</svg>