<?xml version="1.0" encoding="UTF-8"?>
<svg version="1.1" xmlns="http://www.w3.org/2000/svg" width="200" height="200">
<path d="M0 0 C66 0 132 0 200 0 C200 66 200 132 200 200 C134 200 68 200 0 200 C0 134 0 68 0 0 Z " fill="#FDFEFE" transform="translate(0,0)"/>
<path d="M0 0 C3.625 0.375 3.625 0.375 7 1 C7.22945313 1.92361328 7.45890625 2.84722656 7.6953125 3.79882812 C9.23680101 7.58101327 10.33132853 8.32622401 13.875 10.21875 C14.86113281 10.75886719 15.84726563 11.29898438 16.86328125 11.85546875 C17.89839844 12.39816406 18.93351562 12.94085938 20 13.5 C22.02151048 14.59249796 24.0423494 15.68623952 26.0625 16.78125 C27.05499756 17.30936279 28.04749512 17.83747559 29.07006836 18.3815918 C32.73823095 20.4077771 36.25243044 22.64330578 39.75219727 24.9465332 C43.0655473 26.49938488 45.6299509 26.02209968 49.08984375 25.13671875 C51 25 51 25 52.70703125 26.2734375 C54 28 54 28 54.75 30.9375 C56.18218713 34.44635848 57.70072122 35.50036364 61.046875 37.1875 C63.9860589 38.4102005 66.90811799 39.24280441 70 40 C70.042721 41.66611905 70.04063832 43.33382885 70 45 C69.67 45.33 69.34 45.66 69 46 C68.90119203 47.47652664 68.86920755 48.95767236 68.8671875 50.4375 C68.86525391 51.77941406 68.86525391 51.77941406 68.86328125 53.1484375 C68.86714844 54.08945313 68.87101563 55.03046875 68.875 56 C68.87113281 56.94101563 68.86726562 57.88203125 68.86328125 58.8515625 C68.86457031 59.74617188 68.86585938 60.64078125 68.8671875 61.5625 C68.86887939 62.80193359 68.86887939 62.80193359 68.87060547 64.06640625 C68.78735193 66.00679039 68.78735193 66.00679039 70 67 C70.125 69.5 70.125 69.5 70 72 C69.67 72.33 69.34 72.66 69 73 C68.89900512 75.72724279 68.86029471 78.42862523 68.8671875 81.15625 C68.86623077 81.97371704 68.86527405 82.79118408 68.86428833 83.63342285 C68.86360655 85.36515378 68.86546071 87.09688724 68.86962891 88.82861328 C68.87497721 91.48866482 68.86968388 94.1485475 68.86328125 96.80859375 C68.86394203 98.48697954 68.8652232 100.16536523 68.8671875 101.84375 C68.86415115 103.04529724 68.86415115 103.04529724 68.86105347 104.27111816 C68.52786332 107.93582301 68.52786332 107.93582301 70 111 C70.1875 113.9375 70.1875 113.9375 70 117 C68 119 68 119 65.0546875 119.23828125 C59.39962133 119.92149249 54.89185783 123.27154708 50.125 126.1875 C47.99989116 127.45772761 45.87354604 128.72588874 43.74609375 129.9921875 C42.09649658 130.97783691 42.09649658 130.97783691 40.41357422 131.98339844 C34.7200568 135.34689821 28.95824384 138.58346095 23.1875 141.8125 C22.1145166 142.41666748 21.0415332 143.02083496 19.93603516 143.64331055 C18.94007324 144.20058838 17.94411133 144.75786621 16.91796875 145.33203125 C15.59962036 146.07030151 15.59962036 146.07030151 14.25463867 146.82348633 C12 148 12 148 9 149 C8.855625 149.804375 8.71125 150.60875 8.5625 151.4375 C8 154 8 154 7 155 C4.0625 155.1875 4.0625 155.1875 1 155 C0.34 154.34 -0.32 153.68 -1 153 C-0.63723355 150.17042171 0.09694764 147.70915709 1 145 C0.34 145 -0.32 145 -1 145 C-0.67 144.01 -0.34 143.02 0 142 C0.99 142.33 1.98 142.66 3 143 C3 143.66 3 144.32 3 145 C3.66 145 4.32 145 5 145 C5.19335938 144.34773437 5.38671875 143.69546875 5.5859375 143.0234375 C6.98640448 138.3228602 8.41208726 133.64159109 10 129 C6.04 129.33 2.08 129.66 -2 130 C-1 128 -1 128 2 127 C0.9275 127.04125 -0.145 127.0825 -1.25 127.125 C-4.65747485 127.0114175 -6.20739631 126.78726636 -9 125 C-6 124 -6 124 -2.75 124.5625 C1.44038947 125.05137877 4.01466084 124.25464381 8 123 C9.66616686 122.95918611 11.33403422 122.95166993 13 123 C13.4803318 121.41701974 13.95921612 119.83360022 14.4375 118.25 C14.70433594 117.36828125 14.97117187 116.4865625 15.24609375 115.578125 C16.53086998 111.18458972 17.10491642 107.61632234 17 103 C18.32 102.67 19.64 102.34 21 102 C21.18175781 101.11248047 21.18175781 101.11248047 21.3671875 100.20703125 C22.26744643 95.96196415 23.20456621 91.97560339 25 88 C15.72867785 90.69824059 6.55750029 93.70476532 -2.625 96.6875 C-4.21741556 97.20387584 -5.80986323 97.72015267 -7.40234375 98.23632812 C-11.26860024 99.48974445 -15.13442004 100.74449888 -19 102 C-19.99 101.01 -19.99 101.01 -21 100 C-21 99.34 -21 98.68 -21 98 C-15.41345065 96.04222906 -9.82669352 94.08505261 -4.23974609 92.12841797 C-2.3406008 91.46321538 -0.4415116 90.79785263 1.45751953 90.13232422 C4.19288508 89.17372833 6.92845426 88.21571556 9.6640625 87.2578125 C10.50804596 86.96190216 11.35202942 86.66599182 12.22158813 86.3611145 C16.47046772 84.87396655 20.72438549 83.40907805 25 82 C24.236875 81.236875 23.47375 80.47375 22.6875 79.6875 C21.26007455 78.26007455 19.84114093 76.82128355 18.5 75.3125 C16.99287283 73.82306015 16.99287283 73.82306015 14.5625 73.1875 C11.06408212 71.56628196 10.09726126 69.20757605 8 66 C6.8221441 64.89590481 5.60907545 63.82841998 4.3671875 62.796875 C3.7366748 62.26932617 3.10616211 61.74177734 2.45654297 61.19824219 C1.97588379 60.80282227 1.49522461 60.40740234 1 60 C0.56655273 60.42933838 0.13310547 60.85867676 -0.31347656 61.30102539 C-2.27991625 63.23462102 -4.26446192 65.14852937 -6.25 67.0625 C-7.27287109 68.07666992 -7.27287109 68.07666992 -8.31640625 69.11132812 C-8.98027344 69.74619141 -9.64414063 70.38105469 -10.328125 71.03515625 C-10.9355957 71.6269165 -11.54306641 72.21867676 -12.16894531 72.82836914 C-14 74 -14 74 -16.22949219 73.68530273 C-16.81375977 73.45915283 -17.39802734 73.23300293 -18 73 C-15.85368937 68.99684826 -13.44175016 66.38244991 -10 63.4375 C-6.93123139 60.80256028 -4.30013531 58.33670945 -2 55 C-2.598125 54.731875 -3.19625 54.46375 -3.8125 54.1875 C-6 53 -6 53 -7.375 51.5 C-9.62866858 49.41969054 -12.10709646 48.92326709 -15 48 C-17.23637531 45.76362469 -17.83847971 43.90380073 -19 41 C-20.97901502 38.57330537 -20.97901502 38.57330537 -24.8125 38.8125 C-27.98599159 38.84319141 -30.89632571 39.35747373 -34 40 C-34.176521 40.59538574 -34.35304199 41.19077148 -34.53491211 41.80419922 C-35.33386175 44.49503847 -36.13564527 47.18502509 -36.9375 49.875 C-37.21529297 50.81214844 -37.49308594 51.74929687 -37.77929688 52.71484375 C-38.04677734 53.61074219 -38.31425781 54.50664063 -38.58984375 55.4296875 C-38.83597412 56.25710449 -39.08210449 57.08452148 -39.33569336 57.93701172 C-40 60 -40 60 -41 62 C-42.485 61.505 -42.485 61.505 -44 61 C-43.45138659 53.86802569 -41.37608799 47.74502396 -39 41 C-44.61 41.66 -50.22 42.32 -56 43 C-56 44.32 -56 45.64 -56 47 C-56.99 47 -57.98 47 -59 47 C-58.67 65.48 -58.34 83.96 -58 103 C-57.01 100.03 -56.02 97.06 -55 94 C-53.515 93.505 -53.515 93.505 -52 93 C-51.80705592 97.82360189 -52.24252386 101.49646738 -54 106 C-52.68 106 -51.36 106 -50 106 C-49.67 106.66 -49.34 107.32 -49 108 C-47.515 108.495 -47.515 108.495 -46 109 C-46.66 109 -47.32 109 -48 109 C-48.33 110.32 -48.66 111.64 -49 113 C-51.475 113.495 -51.475 113.495 -54 114 C-54 114.99 -54 115.98 -54 117 C-52.81277344 117.32291016 -52.81277344 117.32291016 -51.6015625 117.65234375 C-46.85024694 119.43022213 -42.71375954 121.95590677 -38.375 124.5625 C-36.69806514 125.56840528 -35.0184693 126.56989097 -33.3359375 127.56640625 C-32.23064697 128.23071655 -32.23064697 128.23071655 -31.10302734 128.90844727 C-29.06076723 129.96845945 -27.24743358 130.54778412 -25 131 C-26 133 -26 133 -27 134 C-26.01 134.66 -25.02 135.32 -24 136 C-24.66 136.33 -25.32 136.66 -26 137 C-28.21142578 135.98364258 -28.21142578 135.98364258 -30.9453125 134.39453125 C-31.94046875 133.82283203 -32.935625 133.25113281 -33.9609375 132.66210938 C-35.00507812 132.05173828 -36.04921875 131.44136719 -37.125 130.8125 C-48.96313853 123.42524048 -48.96313853 123.42524048 -62 119 C-64 117 -64 117 -64.1875 113.9375 C-64 111 -64 111 -63 110 C-62.8954418 108.016568 -62.86144395 106.02938759 -62.85473633 104.04321289 C-62.84835648 102.76841568 -62.84197662 101.49361847 -62.83540344 100.18019104 C-62.83387489 98.77767983 -62.83276086 97.37516811 -62.83203125 95.97265625 C-62.82882035 94.54398057 -62.82545641 93.11530522 -62.82194519 91.68663025 C-62.81594761 88.68797035 -62.81410593 85.6893393 -62.81469727 82.69067383 C-62.81479891 78.84242051 -62.80114703 74.9943516 -62.78392506 71.14614201 C-62.77282294 68.19424078 -62.7707775 65.24238438 -62.77130699 62.2904644 C-62.77012415 60.87144777 -62.76568546 59.45243009 -62.75797462 58.03343391 C-62.74821146 56.05104051 -62.75230747 54.06859334 -62.75708008 52.08618164 C-62.75565506 50.95668594 -62.75423004 49.82719025 -62.75276184 48.66346741 C-62.72832904 45.84585549 -62.72832904 45.84585549 -65 44 C-64.44444444 39.44444444 -64.44444444 39.44444444 -63 38 C-61.700625 37.773125 -60.40125 37.54625 -59.0625 37.3125 C-54.07834858 36.29500178 -50.49729939 34.03161248 -46.359375 31.14453125 C-43.45271147 29.7345107 -42.03205099 30.06995599 -39 31 C-41.25740623 33.33524782 -43.2805761 35.18705073 -46 37 C-40.555 36.505 -40.555 36.505 -35 36 C-35 34.35 -35 32.7 -35 31 C-35.99 30.67 -36.98 30.34 -38 30 C-38 29.34 -38 28.68 -38 28 C-37.34 28 -36.68 28 -36 28 C-36.04125 27.21625 -36.0825 26.4325 -36.125 25.625 C-36 23 -36 23 -34 21 C-32.63149902 21.03287109 -32.63149902 21.03287109 -31.23535156 21.06640625 C-27.34317155 20.98651846 -25.53729393 19.95269023 -22.234375 17.9375 C-21.17992187 17.30585937 -20.12546875 16.67421875 -19.0390625 16.0234375 C-17.95367187 15.35570312 -16.86828125 14.68796875 -15.75 14 C-13.58028011 12.6839404 -11.40850932 11.37125407 -9.234375 10.0625 C-8.27756836 9.47597656 -7.32076172 8.88945313 -6.33496094 8.28515625 C-4 7 -4 7 -2 7 C-2.04125 6.21625 -2.0825 5.4325 -2.125 4.625 C-2 2 -2 2 0 0 Z M-34 29 C-34 29.66 -34 30.32 -34 31 C-33.34 31 -32.68 31 -32 31 C-32.33 32.32 -32.66 33.64 -33 35 C-31.02 34.67 -29.04 34.34 -27 34 C-28.98512949 30.88794071 -28.98512949 30.88794071 -32.1875 29.25 C-32.785625 29.1675 -33.38375 29.085 -34 29 Z " fill="#31579A" transform="translate(97,24)"/>
<path d="M0 0 C3.43836317 -0.23050479 5.51302251 -0.09220687 8.34765625 1.921875 C9.97265625 4.234375 9.97265625 4.234375 10.78515625 6.796875 C12.28899056 9.8836928 13.9546486 10.27448962 17.0859375 11.41015625 C20.21832681 12.77854992 22.44855957 14.95653166 24.97265625 17.234375 C23.5231952 20.57411257 21.69093237 22.75742159 19.09765625 25.296875 C18.41960937 25.96847656 17.7415625 26.64007813 17.04296875 27.33203125 C14.97265625 29.234375 14.97265625 29.234375 12.71484375 30.79296875 C12.13992187 31.26863281 11.565 31.74429688 10.97265625 32.234375 C10.97265625 33.224375 10.97265625 34.214375 10.97265625 35.234375 C13.80134482 33.93834088 15.94275835 32.54247902 18.20703125 30.4140625 C19.06748047 29.61162109 19.06748047 29.61162109 19.9453125 28.79296875 C20.53183594 28.23738281 21.11835937 27.68179688 21.72265625 27.109375 C22.32464844 26.54605469 22.92664063 25.98273438 23.546875 25.40234375 C25.02599776 24.01713354 26.49985266 22.6263021 27.97265625 21.234375 C29.07817515 22.17028004 30.18201078 23.10817358 31.28515625 24.046875 C31.90003906 24.56894531 32.51492187 25.09101562 33.1484375 25.62890625 C37.72910235 29.66028367 37.72910235 29.66028367 38.84765625 32.296875 C39.81427239 34.42892211 39.81427239 34.42892211 42.09765625 35.046875 C46.45690381 36.84743378 49.54416255 40.05259673 52.97265625 43.234375 C51.64381539 45.89205671 50.60091354 45.90350788 47.82006836 46.83837891 C46.9392308 47.13853912 46.05839325 47.43869934 45.15086365 47.74795532 C44.19357864 48.06573944 43.23629364 48.38352356 42.25 48.7109375 C41.27478897 49.04104828 40.29957794 49.37115906 39.29481506 49.71127319 C36.16889709 50.76761455 33.03961815 51.81358499 29.91015625 52.859375 C27.79469308 53.57223806 25.67945552 54.28577101 23.56445312 55 C18.36978382 56.75258328 13.17231568 58.49665646 7.97265625 60.234375 C8.30265625 61.224375 8.63265625 62.214375 8.97265625 63.234375 C10.19895752 62.80503662 11.42525879 62.37569824 12.6887207 61.93334961 C17.23097836 60.34574607 21.77729675 58.77006892 26.32495117 57.19799805 C28.29418302 56.51538514 30.26229229 55.82952491 32.22924805 55.14038086 C35.05360046 54.15146594 37.88175884 53.17422652 40.7109375 52.19921875 C41.59227859 51.88782455 42.47361969 51.57643036 43.38166809 51.25559998 C44.20229233 50.97523392 45.02291656 50.69486786 45.8684082 50.40600586 C46.59010696 50.15507675 47.31180573 49.90414764 48.05537415 49.64561462 C49.97265625 49.234375 49.97265625 49.234375 52.97265625 50.234375 C52.21593438 52.55239655 51.44331317 54.8627963 50.66015625 57.171875 C50.44681641 57.83123047 50.23347656 58.49058594 50.01367188 59.16992188 C49.42224532 60.89123797 48.70401798 62.56769432 47.97265625 64.234375 C46.48765625 64.729375 46.48765625 64.729375 44.97265625 65.234375 C45.07578125 66.306875 45.17890625 67.379375 45.28515625 68.484375 C45.20829639 74.62218414 43.5805084 80.24351286 39.97265625 85.234375 C33.32426154 88.86780001 26.22213378 88.56344588 18.97265625 87.234375 C21.98756182 88.23934352 24.01447317 88.33772803 27.16015625 88.296875 C28.06121094 88.28785156 28.96226563 88.27882813 29.890625 88.26953125 C30.57769531 88.25792969 31.26476562 88.24632812 31.97265625 88.234375 C31.64265625 88.894375 31.31265625 89.554375 30.97265625 90.234375 C31.30265625 90.234375 31.63265625 90.234375 31.97265625 90.234375 C33.95265625 90.234375 35.93265625 90.234375 37.97265625 90.234375 C35.99265625 95.844375 34.01265625 101.454375 31.97265625 107.234375 C31.31265625 107.234375 30.65265625 107.234375 29.97265625 107.234375 C28.98265625 106.244375 28.98265625 106.244375 27.97265625 105.234375 C27.31265625 105.894375 26.65265625 106.554375 25.97265625 107.234375 C26.63265625 107.234375 27.29265625 107.234375 27.97265625 107.234375 C27.39920688 110.10162186 27.11120475 111.0958265 24.97265625 113.234375 C21.37978802 111.1881621 17.80025731 109.11964761 14.22265625 107.046875 C13.206875 106.46873047 12.19109375 105.89058594 11.14453125 105.29492188 C10.16484375 104.72451172 9.18515625 104.15410156 8.17578125 103.56640625 C7.27504883 103.04796143 6.37431641 102.5295166 5.44628906 101.99536133 C2.71245185 100.04913473 0.94482562 97.93302716 -1.02734375 95.234375 C0.45765625 94.244375 0.45765625 94.244375 1.97265625 93.234375 C1.09851074 93.1300415 0.22436523 93.02570801 -0.67626953 92.91821289 C-4.19703185 92.19974755 -6.54606533 91.08590128 -9.64453125 89.29296875 C-11.17207031 88.41801758 -11.17207031 88.41801758 -12.73046875 87.52539062 C-13.7771875 86.91373047 -14.82390625 86.30207031 -15.90234375 85.671875 C-17.50722656 84.74858398 -17.50722656 84.74858398 -19.14453125 83.80664062 C-21.77695768 82.29064505 -24.40421618 80.76638569 -27.02734375 79.234375 C-27.02734375 78.244375 -27.02734375 77.254375 -27.02734375 76.234375 C-24.55234375 75.244375 -24.55234375 75.244375 -22.02734375 74.234375 C-21.86922987 71.18167037 -21.86922987 71.18167037 -23.02734375 68.234375 C-24.34734375 68.234375 -25.66734375 68.234375 -27.02734375 68.234375 C-26.36734375 63.944375 -25.70734375 59.654375 -25.02734375 55.234375 C-28.07069902 58.27773027 -28.63040228 59.44558962 -29.71484375 63.421875 C-29.96621094 64.32292969 -30.21757813 65.22398438 -30.4765625 66.15234375 C-30.74919922 67.18294922 -30.74919922 67.18294922 -31.02734375 68.234375 C-31.35734375 68.234375 -31.68734375 68.234375 -32.02734375 68.234375 C-32.02734375 48.764375 -32.02734375 29.294375 -32.02734375 9.234375 C-31.03734375 9.234375 -30.04734375 9.234375 -29.02734375 9.234375 C-29.02734375 7.914375 -29.02734375 6.594375 -29.02734375 5.234375 C-23.21968079 3.7286846 -18.02915745 3.01612723 -12.02734375 3.234375 C-12.89646307 7.3950526 -13.76019466 11.46261097 -15.15234375 15.484375 C-16.02955852 18.24133572 -16.19622303 20.36342732 -16.02734375 23.234375 C-15.36734375 23.564375 -14.70734375 23.894375 -14.02734375 24.234375 C-13.84558594 23.48414062 -13.66382812 22.73390625 -13.4765625 21.9609375 C-12.95210844 19.82546816 -12.41628142 17.69277035 -11.87109375 15.5625 C-11.34209363 13.47588841 -10.83806341 11.38261346 -10.37109375 9.28125 C-9.75945697 6.79101454 -9.13674034 4.54639478 -8.02734375 2.234375 C-5.19307971 0.52063395 -3.22262143 0.37255739 0 0 Z " fill="#2C5298" transform="translate(70.02734375,61.765625)"/>
<path d="M0 0 C3.625 0.375 3.625 0.375 7 1 C9 6.625 9 6.625 9 10 C8.39776611 10.0098291 7.79553223 10.0196582 7.17504883 10.02978516 C-0.10624905 10.41615407 -5.10343783 12.69205818 -11.3125 16.375 C-12.17939453 16.87 -13.04628906 17.365 -13.93945312 17.875 C-17.99086468 20.19718838 -22.00665186 22.57928999 -26 25 C-25.43614756 28.27034418 -24.63653493 29.95002003 -22 32 C-19.84887497 32.22022432 -19.84887497 32.22022432 -17.5 31.8125 C-16.60925781 31.69648437 -15.71851563 31.58046875 -14.80078125 31.4609375 C-12.08098611 31.01332826 -9.38906224 30.48335006 -6.6875 29.9375 C-0.45556746 28.73218353 5.67571719 28.81901893 12 29 C12 29.66 12 30.32 12 31 C5.84500527 32.44709908 -0.31185028 33.88817551 -6.5 35.1875 C-7.2528125 35.34605469 -8.005625 35.50460938 -8.78125 35.66796875 C-11.21544612 36.03224106 -13.5422529 36.05625125 -16 36 C-14.31835184 39.18131518 -14.31835184 39.18131518 -11.4375 39.875 C-10.633125 40.24625 -9.82875 40.6175 -9 41 C-8.62690101 42.65821773 -8.29299023 44.32577014 -8 46 C-6.16715557 47.12516085 -6.16715557 47.12516085 -4 48 C-2.62913085 49.29470975 -1.28659163 50.62150897 0 52 C0.5775 51.649375 1.155 51.29875 1.75 50.9375 C4.35801776 49.85082593 5.39417629 50.06934867 8 51 C7.01 53.97 7.01 53.97 6 57 C7.24034412 58.32162881 8.49268626 59.63200453 9.75 60.9375 C10.79414063 62.03384766 10.79414063 62.03384766 11.859375 63.15234375 C14.06694637 65.057784 15.24252928 65.38335043 18 66 C19.37535339 67.97133986 20.70211044 69.97681922 22 72 C24.65068572 75.18669696 26.76829326 77.64417361 30.8125 78.8125 C31.8953125 78.9053125 31.8953125 78.9053125 33 79 C33.33 79.33 33.66 79.66 34 80 C33.71269945 82.33944736 33.38063221 84.6739143 33 87 C32.01 87 31.02 87 30 87 C27.98805388 93.18338107 26.51546888 99.20572009 25.625 105.65234375 C25 108 25 108 23.56640625 109.32250977 C21.56104228 111.47008705 21.08144391 113.36803901 20.3125 116.1875 C20.06113281 117.08855469 19.80976562 117.98960937 19.55078125 118.91796875 C19.36902344 119.60503906 19.18726562 120.29210937 19 121 C23.26866647 120.04093 27.5370459 119.08059506 31.80517578 118.11914062 C33.25399275 117.79295536 34.70288453 117.46710218 36.15185547 117.14160156 C47.10298608 114.68480957 47.10298608 114.68480957 58 112 C57.34 111.01 56.68 110.02 56 109 C56 108.01 56 107.02 56 106 C54.515 105.505 54.515 105.505 53 105 C53 104.01 53 103.02 53 102 C55.52540116 103.08231478 57.06647878 104.06855624 59 106.0625 C61.13302939 108.12887222 62.17891723 108.42990619 65 109 C64.98952637 107.95545654 64.97905273 106.91091309 64.96826172 105.8347168 C64.93206828 101.96023993 64.90910195 98.08577801 64.89013672 94.21118164 C64.88007763 92.53407275 64.86642878 90.85698139 64.84912109 89.17993164 C64.82486848 86.76964998 64.8135161 84.35960014 64.8046875 81.94921875 C64.79436493 81.19912033 64.78404236 80.44902191 64.77340698 79.67619324 C64.772592 75.89699221 64.84942933 74.22585601 67 71 C67.66 71 68.32 71 69 71 C69.33 69.68 69.66 68.36 70 67 C70.042721 68.66611905 70.04063832 70.33382885 70 72 C69.67 72.33 69.34 72.66 69 73 C68.89900512 75.72724279 68.86029471 78.42862523 68.8671875 81.15625 C68.86623077 81.97371704 68.86527405 82.79118408 68.86428833 83.63342285 C68.86360655 85.36515378 68.86546071 87.09688724 68.86962891 88.82861328 C68.87497721 91.48866482 68.86968388 94.1485475 68.86328125 96.80859375 C68.86394203 98.48697954 68.8652232 100.16536523 68.8671875 101.84375 C68.86415115 103.04529724 68.86415115 103.04529724 68.86105347 104.27111816 C68.52786332 107.93582301 68.52786332 107.93582301 70 111 C70.1875 113.9375 70.1875 113.9375 70 117 C68 119 68 119 65.0546875 119.23828125 C59.39962133 119.92149249 54.89185783 123.27154708 50.125 126.1875 C47.99989116 127.45772761 45.87354604 128.72588874 43.74609375 129.9921875 C42.09649658 130.97783691 42.09649658 130.97783691 40.41357422 131.98339844 C34.7200568 135.34689821 28.95824384 138.58346095 23.1875 141.8125 C22.1145166 142.41666748 21.0415332 143.02083496 19.93603516 143.64331055 C18.94007324 144.20058838 17.94411133 144.75786621 16.91796875 145.33203125 C15.59962036 146.07030151 15.59962036 146.07030151 14.25463867 146.82348633 C12 148 12 148 9 149 C8.855625 149.804375 8.71125 150.60875 8.5625 151.4375 C8 154 8 154 7 155 C4.0625 155.1875 4.0625 155.1875 1 155 C0.34 154.34 -0.32 153.68 -1 153 C-0.63723355 150.17042171 0.09694764 147.70915709 1 145 C0.34 145 -0.32 145 -1 145 C-0.67 144.01 -0.34 143.02 0 142 C0.99 142.33 1.98 142.66 3 143 C3 143.66 3 144.32 3 145 C3.66 145 4.32 145 5 145 C5.19335938 144.34773437 5.38671875 143.69546875 5.5859375 143.0234375 C6.98640448 138.3228602 8.41208726 133.64159109 10 129 C6.04 129.33 2.08 129.66 -2 130 C-1 128 -1 128 2 127 C0.9275 127.04125 -0.145 127.0825 -1.25 127.125 C-4.65747485 127.0114175 -6.20739631 126.78726636 -9 125 C-6 124 -6 124 -2.75 124.5625 C1.44038947 125.05137877 4.01466084 124.25464381 8 123 C9.66616686 122.95918611 11.33403422 122.95166993 13 123 C13.4803318 121.41701974 13.95921612 119.83360022 14.4375 118.25 C14.70433594 117.36828125 14.97117187 116.4865625 15.24609375 115.578125 C16.53086998 111.18458972 17.10491642 107.61632234 17 103 C18.32 102.67 19.64 102.34 21 102 C21.18175781 101.11248047 21.18175781 101.11248047 21.3671875 100.20703125 C22.26744643 95.96196415 23.20456621 91.97560339 25 88 C15.72867785 90.69824059 6.55750029 93.70476532 -2.625 96.6875 C-4.21741556 97.20387584 -5.80986323 97.72015267 -7.40234375 98.23632812 C-11.26860024 99.48974445 -15.13442004 100.74449888 -19 102 C-19.99 101.01 -19.99 101.01 -21 100 C-21 99.34 -21 98.68 -21 98 C-15.41345065 96.04222906 -9.82669352 94.08505261 -4.23974609 92.12841797 C-2.3406008 91.46321538 -0.4415116 90.79785263 1.45751953 90.13232422 C4.19288508 89.17372833 6.92845426 88.21571556 9.6640625 87.2578125 C10.50804596 86.96190216 11.35202942 86.66599182 12.22158813 86.3611145 C16.47046772 84.87396655 20.72438549 83.40907805 25 82 C24.236875 81.236875 23.47375 80.47375 22.6875 79.6875 C21.26007455 78.26007455 19.84114093 76.82128355 18.5 75.3125 C16.99287283 73.82306015 16.99287283 73.82306015 14.5625 73.1875 C11.06408212 71.56628196 10.09726126 69.20757605 8 66 C6.8221441 64.89590481 5.60907545 63.82841998 4.3671875 62.796875 C3.7366748 62.26932617 3.10616211 61.74177734 2.45654297 61.19824219 C1.97588379 60.80282227 1.49522461 60.40740234 1 60 C0.56655273 60.42933838 0.13310547 60.85867676 -0.31347656 61.30102539 C-2.27991625 63.23462102 -4.26446192 65.14852937 -6.25 67.0625 C-7.27287109 68.07666992 -7.27287109 68.07666992 -8.31640625 69.11132812 C-8.98027344 69.74619141 -9.64414063 70.38105469 -10.328125 71.03515625 C-10.9355957 71.6269165 -11.54306641 72.21867676 -12.16894531 72.82836914 C-14 74 -14 74 -16.22949219 73.68530273 C-16.81375977 73.45915283 -17.39802734 73.23300293 -18 73 C-15.85368937 68.99684826 -13.44175016 66.38244991 -10 63.4375 C-6.93123139 60.80256028 -4.30013531 58.33670945 -2 55 C-2.598125 54.731875 -3.19625 54.46375 -3.8125 54.1875 C-6 53 -6 53 -7.375 51.5 C-9.62866858 49.41969054 -12.10709646 48.92326709 -15 48 C-17.23637531 45.76362469 -17.83847971 43.90380073 -19 41 C-20.97901502 38.57330537 -20.97901502 38.57330537 -24.8125 38.8125 C-27.98599159 38.84319141 -30.89632571 39.35747373 -34 40 C-34.176521 40.59538574 -34.35304199 41.19077148 -34.53491211 41.80419922 C-35.33386175 44.49503847 -36.13564527 47.18502509 -36.9375 49.875 C-37.21529297 50.81214844 -37.49308594 51.74929687 -37.77929688 52.71484375 C-38.04677734 53.61074219 -38.31425781 54.50664063 -38.58984375 55.4296875 C-38.83597412 56.25710449 -39.08210449 57.08452148 -39.33569336 57.93701172 C-40 60 -40 60 -41 62 C-42.485 61.505 -42.485 61.505 -44 61 C-43.45138659 53.86802569 -41.37608799 47.74502396 -39 41 C-44.61 41.66 -50.22 42.32 -56 43 C-56 44.32 -56 45.64 -56 47 C-56.99 47 -57.98 47 -59 47 C-58.67 65.48 -58.34 83.96 -58 103 C-57.01 100.03 -56.02 97.06 -55 94 C-53.515 93.505 -53.515 93.505 -52 93 C-51.80705592 97.82360189 -52.24252386 101.49646738 -54 106 C-52.68 106 -51.36 106 -50 106 C-49.67 106.66 -49.34 107.32 -49 108 C-47.515 108.495 -47.515 108.495 -46 109 C-46.66 109 -47.32 109 -48 109 C-48.33 110.32 -48.66 111.64 -49 113 C-51.475 113.495 -51.475 113.495 -54 114 C-54 114.99 -54 115.98 -54 117 C-52.81277344 117.32291016 -52.81277344 117.32291016 -51.6015625 117.65234375 C-46.85024694 119.43022213 -42.71375954 121.95590677 -38.375 124.5625 C-36.69806514 125.56840528 -35.0184693 126.56989097 -33.3359375 127.56640625 C-32.23064697 128.23071655 -32.23064697 128.23071655 -31.10302734 128.90844727 C-29.06076723 129.96845945 -27.24743358 130.54778412 -25 131 C-26 133 -26 133 -27 134 C-26.01 134.66 -25.02 135.32 -24 136 C-24.66 136.33 -25.32 136.66 -26 137 C-28.21142578 135.98364258 -28.21142578 135.98364258 -30.9453125 134.39453125 C-31.94046875 133.82283203 -32.935625 133.25113281 -33.9609375 132.66210938 C-35.00507812 132.05173828 -36.04921875 131.44136719 -37.125 130.8125 C-48.96313853 123.42524048 -48.96313853 123.42524048 -62 119 C-64 117 -64 117 -64.1875 113.9375 C-64 111 -64 111 -63 110 C-62.8954418 108.016568 -62.86144395 106.02938759 -62.85473633 104.04321289 C-62.84835648 102.76841568 -62.84197662 101.49361847 -62.83540344 100.18019104 C-62.83387489 98.77767983 -62.83276086 97.37516811 -62.83203125 95.97265625 C-62.82882035 94.54398057 -62.82545641 93.11530522 -62.82194519 91.68663025 C-62.81594761 88.68797035 -62.81410593 85.6893393 -62.81469727 82.69067383 C-62.81479891 78.84242051 -62.80114703 74.9943516 -62.78392506 71.14614201 C-62.77282294 68.19424078 -62.7707775 65.24238438 -62.77130699 62.2904644 C-62.77012415 60.87144777 -62.76568546 59.45243009 -62.75797462 58.03343391 C-62.74821146 56.05104051 -62.75230747 54.06859334 -62.75708008 52.08618164 C-62.75565506 50.95668594 -62.75423004 49.82719025 -62.75276184 48.66346741 C-62.72832904 45.84585549 -62.72832904 45.84585549 -65 44 C-64.44444444 39.44444444 -64.44444444 39.44444444 -63 38 C-61.700625 37.773125 -60.40125 37.54625 -59.0625 37.3125 C-54.07834858 36.29500178 -50.49729939 34.03161248 -46.359375 31.14453125 C-43.45271147 29.7345107 -42.03205099 30.06995599 -39 31 C-41.25740623 33.33524782 -43.2805761 35.18705073 -46 37 C-40.555 36.505 -40.555 36.505 -35 36 C-35 34.35 -35 32.7 -35 31 C-35.99 30.67 -36.98 30.34 -38 30 C-38 29.34 -38 28.68 -38 28 C-37.34 28 -36.68 28 -36 28 C-36.04125 27.21625 -36.0825 26.4325 -36.125 25.625 C-36 23 -36 23 -34 21 C-32.63149902 21.03287109 -32.63149902 21.03287109 -31.23535156 21.06640625 C-27.34317155 20.98651846 -25.53729393 19.95269023 -22.234375 17.9375 C-21.17992187 17.30585937 -20.12546875 16.67421875 -19.0390625 16.0234375 C-17.95367187 15.35570312 -16.86828125 14.68796875 -15.75 14 C-13.58028011 12.6839404 -11.40850932 11.37125407 -9.234375 10.0625 C-8.27756836 9.47597656 -7.32076172 8.88945313 -6.33496094 8.28515625 C-4 7 -4 7 -2 7 C-2.04125 6.21625 -2.0825 5.4325 -2.125 4.625 C-2 2 -2 2 0 0 Z M-34 29 C-34 29.66 -34 30.32 -34 31 C-33.34 31 -32.68 31 -32 31 C-32.33 32.32 -32.66 33.64 -33 35 C-31.02 34.67 -29.04 34.34 -27 34 C-28.98512949 30.88794071 -28.98512949 30.88794071 -32.1875 29.25 C-32.785625 29.1675 -33.38375 29.085 -34 29 Z " fill="#2C5499" transform="translate(97,24)"/>
<path d="M0 0 C0.33 0 0.66 0 1 0 C1.042721 1.66611905 1.04063832 3.33382885 1 5 C0.67 5.33 0.34 5.66 0 6 C-0.10099488 8.72724279 -0.13970529 11.42862523 -0.1328125 14.15625 C-0.13424759 15.38245056 -0.13424759 15.38245056 -0.13571167 16.63342285 C-0.13639345 18.36515378 -0.13453929 20.09688724 -0.13037109 21.82861328 C-0.12502279 24.48866482 -0.13031612 27.1485475 -0.13671875 29.80859375 C-0.13605797 31.48697954 -0.1347768 33.16536523 -0.1328125 34.84375 C-0.13584885 36.04529724 -0.13584885 36.04529724 -0.13894653 37.27111816 C-0.47213668 40.93582301 -0.47213668 40.93582301 1 44 C1.1875 46.9375 1.1875 46.9375 1 50 C-1 52 -1 52 -3.9453125 52.23828125 C-9.60037867 52.92149249 -14.10814217 56.27154708 -18.875 59.1875 C-21.00010884 60.45772761 -23.12645396 61.72588874 -25.25390625 62.9921875 C-26.3536377 63.64928711 -27.45336914 64.30638672 -28.58642578 64.98339844 C-34.2799432 68.34689821 -40.04175616 71.58346095 -45.8125 74.8125 C-46.8854834 75.41666748 -47.9584668 76.02083496 -49.06396484 76.64331055 C-50.55790771 77.47922729 -50.55790771 77.47922729 -52.08203125 78.33203125 C-52.96093018 78.82421143 -53.8398291 79.3163916 -54.74536133 79.82348633 C-57 81 -57 81 -60 82 C-60.144375 82.804375 -60.28875 83.60875 -60.4375 84.4375 C-61 87 -61 87 -62 88 C-64.9375 88.1875 -64.9375 88.1875 -68 88 C-68.66 87.34 -69.32 86.68 -70 86 C-69.63723355 83.17042171 -68.90305236 80.70915709 -68 78 C-68.66 78 -69.32 78 -70 78 C-69.505 76.515 -69.505 76.515 -69 75 C-67.515 75.495 -67.515 75.495 -66 76 C-66 76.66 -66 77.32 -66 78 C-65.34 78 -64.68 78 -64 78 C-63.70996094 77.02160156 -63.70996094 77.02160156 -63.4140625 76.0234375 C-62.01359552 71.3228602 -60.58791274 66.64159109 -59 62 C-64.94 62.495 -64.94 62.495 -71 63 C-70 61 -70 61 -67 60 C-68.0725 60.04125 -69.145 60.0825 -70.25 60.125 C-73.65747485 60.0114175 -75.20739631 59.78726636 -78 58 C-75 57 -75 57 -71.75 57.5625 C-67.55961053 58.05137877 -64.98533916 57.25464381 -61 56 C-59.33383314 55.95918611 -57.66596578 55.95166993 -56 56 C-55.5196682 54.41701974 -55.04078388 52.83360022 -54.5625 51.25 C-54.29566406 50.36828125 -54.02882812 49.4865625 -53.75390625 48.578125 C-52.46913002 44.18458972 -51.89508358 40.61632234 -52 36 C-50.02 35.505 -50.02 35.505 -48 35 C-47.87882812 34.40832031 -47.75765625 33.81664062 -47.6328125 33.20703125 C-46.73255357 28.96196415 -45.79543379 24.97560339 -44 21 C-53.27132215 23.69824059 -62.44249971 26.70476532 -71.625 29.6875 C-73.21741556 30.20387584 -74.80986323 30.72015267 -76.40234375 31.23632812 C-80.26860024 32.48974445 -84.13442004 33.74449888 -88 35 C-88.66 34.34 -89.32 33.68 -90 33 C-90 32.34 -90 31.68 -90 31 C-84.41345065 29.04222906 -78.82669352 27.08505261 -73.23974609 25.12841797 C-71.3406008 24.46321538 -69.4415116 23.79785263 -67.54248047 23.13232422 C-64.80711492 22.17372833 -62.07154574 21.21571556 -59.3359375 20.2578125 C-58.49195404 19.96190216 -57.64797058 19.66599182 -56.77841187 19.3611145 C-55.57784653 18.9409053 -55.57784653 18.9409053 -54.35302734 18.51220703 C-53.60462585 18.24764709 -52.85622437 17.98308716 -52.08514404 17.71051025 C-50.23430836 17.07984028 -48.35767377 16.52604619 -46.47900391 15.98388672 C-45.25189697 15.49686279 -45.25189697 15.49686279 -44 15 C-43.67 14.01 -43.34 13.02 -43 12 C-40.125 11.375 -40.125 11.375 -37 11 C-36.34 11.66 -35.68 12.32 -35 13 C-35.375 16.625 -35.375 16.625 -36 20 C-36.99 20 -37.98 20 -39 20 C-41.01194612 26.18338107 -42.48453112 32.20572009 -43.375 38.65234375 C-44 41 -44 41 -45.43359375 42.32250977 C-47.43895772 44.47008705 -47.91855609 46.36803901 -48.6875 49.1875 C-49.06455078 50.53908203 -49.06455078 50.53908203 -49.44921875 51.91796875 C-49.63097656 52.60503906 -49.81273437 53.29210937 -50 54 C-45.73133353 53.04093 -41.4629541 52.08059506 -37.19482422 51.11914062 C-35.74600725 50.79295536 -34.29711547 50.46710218 -32.84814453 50.14160156 C-21.89701392 47.68480957 -21.89701392 47.68480957 -11 45 C-11.66 44.01 -12.32 43.02 -13 42 C-13 41.01 -13 40.02 -13 39 C-14.485 38.505 -14.485 38.505 -16 38 C-16 37.01 -16 36.02 -16 35 C-13.47459884 36.08231478 -11.93352122 37.06855624 -10 39.0625 C-7.86697061 41.12887222 -6.82108277 41.42990619 -4 42 C-4.01047363 40.95545654 -4.02094727 39.91091309 -4.03173828 38.8347168 C-4.06793172 34.96023993 -4.09089805 31.08577801 -4.10986328 27.21118164 C-4.11992237 25.53407275 -4.13357122 23.85698139 -4.15087891 22.17993164 C-4.17513152 19.76964998 -4.1864839 17.35960014 -4.1953125 14.94921875 C-4.20563507 14.19912033 -4.21595764 13.44902191 -4.22659302 12.67619324 C-4.227408 8.89699221 -4.15057067 7.22585601 -2 4 C-1.34 4 -0.68 4 0 4 C0 2.68 0 1.36 0 0 Z " fill="#2F579C" transform="translate(166,91)"/>
<path d="M0 0 C-0.86911932 4.1606776 -1.73285091 8.22823597 -3.125 12.25 C-4.00221477 15.00696072 -4.16887928 17.12905232 -4 20 C-3.34 20.33 -2.68 20.66 -2 21 C-2.0928125 21.82757813 -2.185625 22.65515625 -2.28125 23.5078125 C-1.90544836 28.17401614 0.00226864 31.0046415 2.5 34.875 C2.92925781 35.56335938 3.35851562 36.25171875 3.80078125 36.9609375 C4.8552757 38.64812861 5.92603925 40.32513264 7 42 C6.34 42.66 5.68 43.32 5 44 C4.505 43.505 4.505 43.505 4 43 C4.12632813 43.70125 4.25265625 44.4025 4.3828125 45.125 C3.81198183 49.41205482 1.00314208 51.32067831 -2.125 54 C-2.69476563 54.50789063 -3.26453125 55.01578125 -3.8515625 55.5390625 C-7.5002059 58.77308733 -11.24261222 61.89358822 -15 65 C-14.34 60.71 -13.68 56.42 -13 52 C-16.04335527 55.04335527 -16.60305853 56.21121462 -17.6875 60.1875 C-17.93886719 61.08855469 -18.19023438 61.98960938 -18.44921875 62.91796875 C-18.72185547 63.94857422 -18.72185547 63.94857422 -19 65 C-19.33 65 -19.66 65 -20 65 C-20 45.53 -20 26.06 -20 6 C-19.01 6 -18.02 6 -17 6 C-17 4.68 -17 3.36 -17 2 C-11.19233704 0.4943096 -6.0018137 -0.21824777 0 0 Z " fill="#2E5699" transform="translate(58,65)"/>
<path d="M0 0 C3.37547849 -0.06832952 5.39926868 0.04787676 8.1796875 2.0234375 C9.8046875 4.3359375 9.8046875 4.3359375 10.6171875 6.8984375 C12.12102181 9.9852553 13.78667985 10.37605212 16.91796875 11.51171875 C20.05035806 12.88011242 22.28059082 15.05809416 24.8046875 17.3359375 C21.66816944 24.48022864 14.77157482 29.41242468 8.96875 34.39453125 C4.7371647 38.19073683 0.7863208 42.28087244 -3.1953125 46.3359375 C-7.42532012 44.92593496 -8.73071393 41.90971054 -10.9453125 38.2734375 C-11.36941406 37.62955078 -11.79351562 36.98566406 -12.23046875 36.32226562 C-14.74114212 32.22095391 -15.70669394 29.40464859 -14.73291016 24.48950195 C-14.55550293 23.77882568 -14.3780957 23.06814941 -14.1953125 22.3359375 C-14.00888184 21.52020264 -13.82245117 20.70446777 -13.63037109 19.86401367 C-12.98600461 17.20842016 -12.2582349 14.58838046 -11.5078125 11.9609375 C-11.27642578 11.05988281 -11.04503906 10.15882812 -10.80664062 9.23046875 C-10.1021163 6.7765903 -9.40324874 4.58557495 -8.1953125 2.3359375 C-5.29427818 0.78359596 -3.18989954 0.48813409 0 0 Z " fill="#F7FAFC" transform="translate(70.1953125,61.6640625)"/>
<path d="M0 0 C9.66219839 8.20375335 9.66219839 8.20375335 10.875 11.0625 C11.84161614 13.19454711 11.84161614 13.19454711 14.125 13.8125 C18.48424756 15.61305878 21.5715063 18.81822173 25 22 C23.68068476 24.63863047 22.68365654 24.6539065 19.92675781 25.58813477 C19.06205872 25.88506729 18.19735962 26.18199982 17.30645752 26.4879303 C16.36485779 26.80257736 15.42325806 27.11722443 14.453125 27.44140625 C13.48977234 27.76914536 12.52641968 28.09688446 11.53387451 28.43455505 C9.49056313 29.12807893 7.44602726 29.81800374 5.40039062 30.50463867 C2.27454628 31.55425767 -0.84734766 32.61498764 -3.96875 33.67773438 C-5.95290114 34.34961979 -7.93726933 35.02086462 -9.921875 35.69140625 C-10.85537781 36.00807755 -11.78888062 36.32474884 -12.75067139 36.65101624 C-14.066633 37.09168678 -14.066633 37.09168678 -15.40917969 37.54125977 C-16.5604837 37.92859032 -16.5604837 37.92859032 -17.73504639 38.32374573 C-20.13802119 39.04120942 -22.5350819 39.54464719 -25 40 C-25.89434157 38.59546357 -26.76493192 37.17578131 -27.625 35.75 C-28.11226563 34.96109375 -28.59953125 34.1721875 -29.1015625 33.359375 C-30 31 -30 31 -29.34008789 29.15087891 C-27.66900503 26.46874372 -25.69802198 24.45638878 -23.45703125 22.2265625 C-22.54759766 21.3190625 -21.63816406 20.4115625 -20.70117188 19.4765625 C-20.22607178 19.00766602 -19.75097168 18.53876953 -19.26147461 18.05566406 C-17.82940613 16.64169249 -16.40534415 15.22004401 -14.98242188 13.796875 C-10.14276401 8.98786944 -5.2578278 4.3487981 0 0 Z " fill="#F7FAFC" transform="translate(98,83)"/>
<path d="M0 0 C-0.75672187 2.31802155 -1.52934308 4.6284213 -2.3125 6.9375 C-2.52583984 7.59685547 -2.73917969 8.25621094 -2.95898438 8.93554688 C-3.55041093 10.65686297 -4.26863827 12.33331932 -5 14 C-5.99 14.33 -6.98 14.66 -8 15 C-7.8453125 16.60875 -7.8453125 16.60875 -7.6875 18.25 C-7.76429461 24.38259779 -9.38460157 30.01945113 -13 35 C-18.9878606 38.18900225 -25.49517354 38.66080676 -32 37 C-36.7493112 35.41689627 -38.19091459 31.34632808 -40.6875 27.1875 C-41.19861328 26.36701172 -41.70972656 25.54652344 -42.23632812 24.70117188 C-42.71908203 23.90646484 -43.20183594 23.11175781 -43.69921875 22.29296875 C-44.14096436 21.5661792 -44.58270996 20.83938965 -45.0378418 20.09057617 C-46 18 -46 18 -46 14 C-41.80540012 12.50512421 -37.61022444 11.01187808 -33.41455078 9.52001953 C-31.99284922 9.01426195 -30.57129497 8.50809002 -29.14990234 8.00146484 C-25.07415992 6.54892432 -20.99543628 5.10536681 -16.91235352 3.67358398 C-15.07648632 3.02694061 -13.24420896 2.37013267 -11.41210938 1.71289062 C-9.80819336 1.15118164 -9.80819336 1.15118164 -8.171875 0.578125 C-7.23956055 0.2471582 -6.30724609 -0.08380859 -5.34667969 -0.42480469 C-3 -1 -3 -1 0 0 Z " fill="#F7FAFC" transform="translate(123,112)"/>
<path d="M0 0 C2.475 0.99 2.475 0.99 5 2 C5 2.99 5 3.98 5 5 C6.98 5 8.96 5 11 5 C11.33 4.34 11.66 3.68 12 3 C15.11039513 3.61380303 17.20829308 4.65009118 19.8125 6.4375 C23.49134396 8.82564261 26.73836637 10.02337563 31 11 C31.042721 12.66611905 31.04063832 14.33382885 31 16 C30.505 16.495 30.505 16.495 30 17 C29.91314397 18.56172745 29.89297781 20.12729344 29.90234375 21.69140625 C29.90556641 22.63564453 29.90878906 23.57988281 29.91210938 24.55273438 C29.92048828 25.54595703 29.92886719 26.53917969 29.9375 27.5625 C29.94201172 28.55958984 29.94652344 29.55667969 29.95117188 30.58398438 C29.96299993 33.05604849 29.97948151 35.52799518 30 38 C29.01 38 28.02 38 27 38 C27 37.34 27 36.68 27 36 C25.68 36 24.36 36 23 36 C22.94835693 36.77432373 22.89671387 37.54864746 22.84350586 38.34643555 C22 41 22 41 19.62329102 42.39379883 C18.07919556 42.92009888 18.07919556 42.92009888 16.50390625 43.45703125 C15.38822266 43.84697266 14.27253906 44.23691406 13.12304688 44.63867188 C11.94806641 45.02603516 10.77308594 45.41339844 9.5625 45.8125 C7.80583008 46.42254883 7.80583008 46.42254883 6.01367188 47.04492188 C-2.59330357 50 -2.59330357 50 -5 50 C-4.39092779 45.5762124 -3.28583066 41.68385366 -1.71484375 37.5078125 C-1.26689453 36.30898437 -0.81894531 35.11015625 -0.35742188 33.875 C0.11576723 32.62495526 0.589076 31.3749558 1.0625 30.125 C1.54021196 28.85174939 2.01743034 27.57831348 2.49414062 26.3046875 C3.65792244 23.20126933 4.82668968 20.09982553 6 17 C8.64752004 19.57784846 10.94432065 21.91648098 13 25 C13.99 24.67 14.98 24.34 16 24 C15.51789063 23.34773438 15.03578125 22.69546875 14.5390625 22.0234375 C11.19524191 17.39668166 8.68972142 13.49159463 7 8 C6.01 7.67 5.02 7.34 4 7 C0 2.54285714 0 2.54285714 0 0 Z " fill="#3D5F9C" transform="translate(136,53)"/>
<path d="M0 0 C3.66637104 1.22212368 4.49415784 2.53952994 6.75 5.625 C7.38421875 6.46289062 8.0184375 7.30078125 8.671875 8.1640625 C10.83867377 12.79081516 9.37534027 16.81426411 7.87670898 21.54858398 C7.42110596 22.76876221 6.96550293 23.98894043 6.49609375 25.24609375 C6.13198143 26.23005882 6.13198143 26.23005882 5.76051331 27.23390198 C4.99269398 29.30426341 4.21529107 31.37086691 3.4375 33.4375 C2.91146848 34.85067306 2.38607175 36.26408258 1.86132812 37.67773438 C0.58154126 41.12125218 -0.7068591 44.56147133 -2 48 C-6 48 -6 48 -7.88671875 46.609375 C-8.48097656 45.99578125 -9.07523438 45.3821875 -9.6875 44.75 C-10.28949219 44.14671875 -10.89148438 43.5434375 -11.51171875 42.921875 C-13.07046224 40.90900939 -13.58729064 39.48726172 -14 37 C-14.73605469 36.91878906 -15.47210938 36.83757812 -16.23046875 36.75390625 C-19.61329376 35.83305262 -20.93451218 34.47670733 -23.3125 31.9375 C-24.00988281 31.20402344 -24.70726563 30.47054687 -25.42578125 29.71484375 C-25.94527344 29.14894531 -26.46476562 28.58304688 -27 28 C-24.28883697 21.95910762 -19.1276487 17.93622829 -14.1875 13.6875 C-9.19565846 9.39196642 -4.61135356 4.69639902 0 0 Z " fill="#F7FAFC" transform="translate(129,53)"/>
<path d="M0 0 C4.02761613 1.87673296 7.74586268 4.1302624 11.5 6.5 C12.51320312 7.12003906 13.52640625 7.74007812 14.5703125 8.37890625 C17.05703637 9.9037841 19.53256889 11.44416883 22 13 C21.67 13.66 21.34 14.32 21 15 C18.16012474 15.66853206 15.37732637 16.21277614 12.50390625 16.69140625 C11.64119614 16.841577 10.77848602 16.99174774 9.88963318 17.14646912 C8.05514795 17.46402647 6.2199166 17.77729818 4.3840332 18.08666992 C1.60391982 18.55551486 -1.17370199 19.03725199 -3.95117188 19.52148438 C-5.73684604 19.82889932 -7.52264979 20.13556261 -9.30859375 20.44140625 C-10.12879501 20.58308731 -10.94899628 20.72476837 -11.79405212 20.8707428 C-15.98656654 21.57373852 -20.18859087 22.20368199 -24.40649414 22.73413086 C-25.21018936 22.8382579 -26.01388458 22.94238495 -26.8419342 23.04966736 C-29 23 -29 23 -32.1875 20.8125 C-34 18 -34 18 -33.94360352 16.04003906 C-31.76017658 11.31954347 -25.30470237 9.16287318 -20.9375 6.75 C-19.81666016 6.1003125 -18.69582031 5.450625 -17.54101562 4.78125 C-6.51842688 -1.38052597 -6.51842688 -1.38052597 0 0 Z " fill="#F5F9FC" transform="translate(104,34)"/>
<path d="M0 0 C2.98192712 1.35889974 5.24908318 2.91515817 7.6875 5.09765625 C8.72970703 6.02989014 8.72970703 6.02989014 9.79296875 6.98095703 C13.56332489 10.43016558 17.28996973 13.92358051 21 17.4375 C21.77472656 18.16904297 22.54945313 18.90058594 23.34765625 19.65429688 C25.233003 21.43490214 27.11709191 23.21681678 29 25 C25.72986376 27.18009082 23.51008186 27.6721778 19.6796875 28.4375 C18.4215625 28.69273437 17.1634375 28.94796875 15.8671875 29.2109375 C14.53650602 29.47419947 13.20577649 29.73721869 11.875 30 C10.56758171 30.26239069 9.26028849 30.5254054 7.953125 30.7890625 C5.44007968 31.29576614 2.92674318 31.80102826 0.41308594 32.3046875 C-3.73768224 33.15028033 -7.86968232 34.060059 -12 35 C-11.21998106 29.85187497 -9.73783993 24.73783993 -6 21 C-5.46184941 18.67813804 -5.46184941 18.67813804 -5.125 16 C-4.18786953 10.27896966 -2.35767347 5.27615276 0 0 Z " fill="#F7FAFC" transform="translate(127,111)"/>
<path d="M0 0 C3.86947882 3.16382236 6.26257774 7.27066035 8.8125 11.5 C9.23208984 12.16386719 9.65167969 12.82773438 10.08398438 13.51171875 C13.09219607 18.47749818 13.09219607 18.47749818 12.6081543 21.22070312 C12.40746338 21.80787109 12.20677246 22.39503906 12 23 C10.64832143 23.34328345 9.29345725 23.67402697 7.9375 24 C7.18339844 24.185625 6.42929688 24.37125 5.65234375 24.5625 C-0.57089488 25.58901359 -4.67886307 25.1138204 -10.15234375 21.9375 C-11.25771484 21.30585938 -12.36308594 20.67421875 -13.50195312 20.0234375 C-14.63568359 19.35570312 -15.76941406 18.68796875 -16.9375 18 C-18.10923275 17.32414364 -19.28175294 16.64965051 -20.45507812 15.9765625 C-23.31140968 14.33093938 -26.15899109 12.67189166 -29 11 C-29 10.01 -29 9.02 -29 8 C-24.92308123 6.46156534 -20.83758284 4.94734811 -16.75 3.4375 C-15.59113281 2.99986328 -14.43226562 2.56222656 -13.23828125 2.11132812 C-12.12324219 1.70205078 -11.00820313 1.29277344 -9.859375 0.87109375 C-8.83295898 0.48880615 -7.80654297 0.10651855 -6.74902344 -0.28735352 C-3.92583817 -1.01922543 -2.66411151 -1.08735465 0 0 Z " fill="#F3F7FB" transform="translate(72,130)"/>
<path d="M0 0 C0.33 0 0.66 0 1 0 C1.042721 1.66611905 1.04063832 3.33382885 1 5 C0.67 5.33 0.34 5.66 0 6 C-0.10099488 8.72724279 -0.13970529 11.42862523 -0.1328125 14.15625 C-0.13376923 14.97371704 -0.13472595 15.79118408 -0.13571167 16.63342285 C-0.13639345 18.36515378 -0.13453929 20.09688724 -0.13037109 21.82861328 C-0.12502279 24.48866482 -0.13031612 27.1485475 -0.13671875 29.80859375 C-0.13605797 31.48697954 -0.1347768 33.16536523 -0.1328125 34.84375 C-0.13483673 35.64478149 -0.13686096 36.44581299 -0.13894653 37.27111816 C-0.47213668 40.93582301 -0.47213668 40.93582301 1 44 C1.1875 46.9375 1.1875 46.9375 1 50 C-1 52 -1 52 -3.91796875 52.22265625 C-9.72226359 52.91917163 -14.4218971 56.45149474 -19.3125 59.4375 C-21.44711759 60.71097579 -23.58254286 61.98309867 -25.71875 63.25390625 C-26.77449219 63.88570801 -27.83023438 64.51750977 -28.91796875 65.16845703 C-33.34772886 67.80090794 -37.81734434 70.35619903 -42.3125 72.875 C-43.42202026 73.5081311 -43.42202026 73.5081311 -44.55395508 74.15405273 C-49.64743379 77 -49.64743379 77 -53 77 C-52.63090585 74.62516235 -52.43333675 73.35437092 -50.53564453 71.80249023 C-49.59374268 71.31051147 -49.59374268 71.31051147 -48.6328125 70.80859375 C-47.56426025 70.2350415 -47.56426025 70.2350415 -46.47412109 69.64990234 C-45.69891113 69.24980957 -44.92370117 68.8497168 -44.125 68.4375 C-42.49380371 67.56564799 -40.86363056 66.69187959 -39.234375 65.81640625 C-37.95530273 65.13408936 -37.95530273 65.13408936 -36.65039062 64.43798828 C-32.1724735 62.0084625 -27.77555564 59.44122317 -23.375 56.875 C-22.12227295 56.1468811 -22.12227295 56.1468811 -20.84423828 55.40405273 C-18.89527179 54.27088023 -16.94718144 53.13623611 -15 52 C-21.06243684 53.06327961 -27.06436342 54.23879319 -33.0625 55.625 C-38.81022275 56.88607699 -44.13306734 57.36499351 -50 57 C-47.44875386 53.17313079 -46.02164421 53.17358254 -41.625 52.0625 C-40.97958252 51.8977417 -40.33416504 51.7329834 -39.66918945 51.56323242 C-33.00675234 49.90877023 -26.27044078 48.58868601 -19.52783203 47.30688477 C-18.70782715 47.15018311 -17.88782227 46.99348145 -17.04296875 46.83203125 C-16.31102295 46.69514893 -15.57907715 46.5582666 -14.82495117 46.41723633 C-12.91576342 46.05647191 -12.91576342 46.05647191 -11 45 C-11.66 44.01 -12.32 43.02 -13 42 C-13 41.01 -13 40.02 -13 39 C-13.99 38.67 -14.98 38.34 -16 38 C-16 37.01 -16 36.02 -16 35 C-13.47459884 36.08231478 -11.93352122 37.06855624 -10 39.0625 C-7.86697061 41.12887222 -6.82108277 41.42990619 -4 42 C-4.01571045 40.43318481 -4.01571045 40.43318481 -4.03173828 38.8347168 C-4.06793172 34.96023993 -4.09089805 31.08577801 -4.10986328 27.21118164 C-4.11992237 25.53407275 -4.13357122 23.85698139 -4.15087891 22.17993164 C-4.17513152 19.76964998 -4.1864839 17.35960014 -4.1953125 14.94921875 C-4.20563507 14.19912033 -4.21595764 13.44902191 -4.22659302 12.67619324 C-4.227408 8.89699221 -4.15057067 7.22585601 -2 4 C-1.34 4 -0.68 4 0 4 C0 2.68 0 1.36 0 0 Z " fill="#335899" transform="translate(166,91)"/>
<path d="M0 0 C0 11.55 0 23.1 0 35 C-3.951638 34.0120905 -4.81718251 33.56709111 -7.57421875 30.90234375 C-8.23808594 30.26901123 -8.90195313 29.63567871 -9.5859375 28.9831543 C-10.27945313 28.30808838 -10.97296875 27.63302246 -11.6875 26.9375 C-13.11751477 25.56669069 -14.54849841 24.19689136 -15.98046875 22.828125 C-16.66931152 22.16748047 -17.3581543 21.50683594 -18.06787109 20.82617188 C-21.15014872 17.91292489 -24.35463647 15.15550313 -27.59375 12.41796875 C-29 11 -29 11 -29 9 C-24.92044428 7.48958243 -20.83578164 5.9934855 -16.75 4.5 C-15.59113281 4.07074219 -14.43226563 3.64148438 -13.23828125 3.19921875 C-12.12324219 2.79316406 -11.00820312 2.38710937 -9.859375 1.96875 C-8.83295898 1.59169922 -7.80654297 1.21464844 -6.74902344 0.82617188 C-4 0 -4 0 0 0 Z " fill="#F5F9FC" transform="translate(161,98)"/>
<path d="M0 0 C2 2 2 2 2 5 C0.05016577 7.16744966 -1.8987109 9.17849724 -4 11.1875 C-4.57234375 11.74630859 -5.1446875 12.30511719 -5.734375 12.88085938 C-7.14962788 14.26073093 -8.57397155 15.63126734 -10 17 C-8.19771751 22.57584555 -8.19771751 22.57584555 -6 28 C-5.34 28.33 -4.68 28.66 -4 29 C-5.65 28.67 -7.3 28.34 -9 28 C-9 28.99 -9 29.98 -9 31 C-9.66 31.33 -10.32 31.66 -11 32 C-11 32.99 -11 33.98 -11 35 C-13.79035046 36.00380916 -16.58214855 37.0031945 -19.375 38 C-20.56609375 38.42925781 -20.56609375 38.42925781 -21.78125 38.8671875 C-22.54179688 39.13789063 -23.30234375 39.40859375 -24.0859375 39.6875 C-25.1385376 40.06455078 -25.1385376 40.06455078 -26.21240234 40.44921875 C-28 41 -28 41 -30 41 C-30.66666667 39 -31.33333333 37 -32 35 C-32.99 34.67 -33.98 34.34 -35 34 C-32.91975578 31.89270058 -30.83597761 29.78911127 -28.75 27.6875 C-27.87021484 26.79514648 -27.87021484 26.79514648 -26.97265625 25.88476562 C-22.36503183 21.25125568 -22.36503183 21.25125568 -19.59375 19.34375 C-17.8002183 18.11779908 -17.8002183 18.11779908 -17.609375 15.95703125 C-17.65578125 15.24933594 -17.7021875 14.54164062 -17.75 13.8125 C-17.8325 12.554375 -17.915 11.29625 -18 10 C-17.01 10.99 -16.02 11.98 -15 13 C-10.90874045 10.78113671 -7.92842268 8.13984728 -4.6875 4.8125 C-3.80449219 3.91144531 -2.92148438 3.01039062 -2.01171875 2.08203125 C-1.34785156 1.39496094 -0.68398437 0.70789063 0 0 Z " fill="#325799" transform="translate(79,95)"/>
<path d="M0 0 C3.90788862 3.71108848 7.12236966 7.61757187 10.25 12 C10.69601563 12.60328125 11.14203125 13.2065625 11.6015625 13.828125 C14.0504708 17.24175475 15.3377557 19.88249165 16 24 C11.87685942 25.50514646 7.75119298 27.00324372 3.625 28.5 C2.449375 28.92925781 1.27375 29.35851562 0.0625 29.80078125 C-1.61972656 30.40986328 -1.61972656 30.40986328 -3.3359375 31.03125 C-4.37282715 31.40830078 -5.4097168 31.78535156 -6.47802734 32.17382812 C-9 33 -9 33 -11 33 C-10.39092779 28.5762124 -9.28583066 24.68385366 -7.71484375 20.5078125 C-7.04291992 18.70957031 -7.04291992 18.70957031 -6.35742188 16.875 C-5.88423277 15.62495526 -5.410924 14.3749558 -4.9375 13.125 C-4.45978804 11.85174939 -3.98256966 10.57831348 -3.50585938 9.3046875 C-2.34207756 6.20126933 -1.17331032 3.09982553 0 0 Z " fill="#F4F9FB" transform="translate(142,70)"/>
<path d="M0 0 C-19.94524582 20.1973627 -19.94524582 20.1973627 -26 23 C-33.91536199 16.61248695 -33.91536199 16.61248695 -36 11 C-37.64363134 10.27840576 -39.31050386 9.60648579 -41 9 C-41.33 8.01 -41.66 7.02 -42 6 C-20.67314665 1.8441219 -20.67314665 1.8441219 -10.59375 0.39453125 C-7.97686758 0.03004344 -7.97686758 0.03004344 -5.34375 -0.61328125 C-3 -1 -3 -1 0 0 Z " fill="#F1F7FB" transform="translate(123,54)"/>
<path d="M0 0 C3.43793397 3.43793397 5.88204453 6.62666787 8.3125 10.75 C8.68439453 11.33265625 9.05628906 11.9153125 9.43945312 12.515625 C12.39531948 17.53564383 12.21452268 20.52886451 11 26 C10.525625 26.78375 10.05125 27.5675 9.5625 28.375 C7.68551208 31.5283397 7.30355586 34.23715728 6.671875 37.8203125 C5.22759781 44.65543827 3.03036207 51.31995379 1 58 C0.67 58 0.34 58 0 58 C0 38.86 0 19.72 0 0 Z " fill="#E7EEF7" transform="translate(38,72)"/>
<path d="M0 0 C-3.05396903 2.39412745 -6.22137508 4.36265003 -9.5859375 6.29296875 C-10.67583984 6.92001709 -11.76574219 7.54706543 -12.88867188 8.19311523 C-14.05069134 8.85806729 -15.21280225 9.52285959 -16.375 10.1875 C-17.55543411 10.86449811 -18.73577247 11.54166318 -19.91601562 12.21899414 C-22.22945916 13.54628824 -24.54371093 14.87213834 -26.85839844 16.19726562 C-29.496817 17.71126024 -32.12954081 19.23411768 -34.7578125 20.765625 C-35.40830566 21.14307861 -36.05879883 21.52053223 -36.72900391 21.90942383 C-38.37252286 22.86349859 -40.01445418 23.82030683 -41.65625 24.77734375 C-44 26 -44 26 -46 26 C-44.04525811 13.2846887 -44.04525811 13.2846887 -40 8 C-35.51186383 5.89816158 -31.11327927 5.06139674 -26.234375 4.33691406 C-23.24149871 3.88562808 -20.28000224 3.30068183 -17.30981445 2.72094727 C-15.28645124 2.33154353 -13.25984269 1.96978938 -11.23046875 1.61328125 C-2.39195298 -0.06464738 -2.39195298 -0.06464738 0 0 Z " fill="#F1F7FB" transform="translate(153,142)"/>
<path d="M0 0 C0.33 1.98 0.66 3.96 1 6 C-1.31 6 -3.62 6 -6 6 C-6.33 7.98 -6.66 9.96 -7 12 C-7.99 12 -8.98 12 -10 12 C-9.99333817 12.73027405 -9.98667633 13.4605481 -9.97981262 14.21295166 C-9.91967397 21.09881101 -9.87401158 27.98463106 -9.84456348 34.87068558 C-9.8289148 38.41081201 -9.80769164 41.95072123 -9.77368164 45.49072266 C-9.73481712 49.56154452 -9.72028426 53.63213861 -9.70703125 57.703125 C-9.69154739 58.97303284 -9.67606354 60.24294067 -9.66011047 61.55133057 C-9.65988388 62.73225281 -9.65965729 63.91317505 -9.65942383 65.12988281 C-9.65276199 66.16912903 -9.64610016 67.20837524 -9.63923645 68.27911377 C-10.0476871 71.35965713 -10.93866161 72.72342171 -13 75 C-13.00808685 74.20264435 -13.01617371 73.4052887 -13.02450562 72.58377075 C-13.10236203 65.07901354 -13.18962507 57.57445328 -13.28752708 50.06993294 C-13.33752895 46.21153502 -13.38385836 42.353165 -13.421875 38.49462891 C-13.45867907 34.7727441 -13.50502515 31.05109056 -13.55806351 27.32940292 C-13.57663354 25.90764283 -13.59173183 24.48583312 -13.60334396 23.06399918 C-13.62016115 21.07658496 -13.65033227 19.08929717 -13.68115234 17.10205078 C-13.69447601 15.96953888 -13.70779968 14.83702698 -13.7215271 13.67019653 C-13.7325049 10.84753067 -13.7325049 10.84753067 -16 9 C-15.44444444 4.44444444 -15.44444444 4.44444444 -14 3 C-12.52918096 2.63157566 -11.04792853 2.30421576 -9.5625 2 C-6.20685303 1.31055728 -3.39325125 0 0 0 Z " fill="#1C4B9A" transform="translate(48,59)"/>
<path d="M0 0 C1.41681634 0.31182069 2.83344651 0.62448737 4.25 0.9375 C5.43335938 1.19853516 5.43335938 1.19853516 6.640625 1.46484375 C8.13865239 1.80462811 9.62921741 2.18094378 11.10546875 2.60546875 C13.19398091 3.17069837 13.19398091 3.17069837 16.0625 2.375 C19 2 19 2 20.875 3.1875 C22 5 22 5 22 9 C21.01 9.66 20.02 10.32 19 11 C19 11.33 19 11.66 19 12 C16.69 11.67 14.38 11.34 12 11 C12 10.01 12 9.02 12 8 C9.525 7.01 9.525 7.01 7 6 C7.66 6.78375 8.32 7.5675 9 8.375 C11 11 11 11 11 13 C11.61875 13.04125 12.2375 13.0825 12.875 13.125 C13.57625 13.41375 14.2775 13.7025 15 14 C15.68124706 15.99508067 16.34427209 17.99638693 17 20 C18.49839918 22.17106762 20.09765908 24.21624901 21.7578125 26.265625 C23 28 23 28 23 30 C22.34 30 21.68 30 21 30 C20.67 30.66 20.34 31.32 20 32 C18.02 29.36 16.04 26.72 14 24 C13.01 24.66 12.02 25.32 11 26 C10.34 25.67 9.68 25.34 9 25 C9.144375 23.88625 9.28875 22.7725 9.4375 21.625 C9.5131244 15.59665464 5.61449857 11.4996819 2 7 C0.68 7.33 -0.64 7.66 -2 8 C-2.33 6.02 -2.66 4.04 -3 2 C-2.01 2 -1.02 2 0 2 C0 1.34 0 0.68 0 0 Z " fill="#285299" transform="translate(129,47)"/>
<path d="M0 0 C5.05008278 0.47344526 9.03898636 2.97459002 13 6 C15.06723714 9.10085571 15.24497423 9.72931681 15.1953125 13.23046875 C15.18886719 14.03291016 15.18242187 14.83535156 15.17578125 15.66210938 C15.15902344 16.49548828 15.14226562 17.32886719 15.125 18.1875 C15.11597656 19.03248047 15.10695312 19.87746094 15.09765625 20.74804688 C15.07410703 22.83215243 15.03823647 24.91611217 15 27 C10.89383088 23.11862116 7.5614529 18.94498351 4.25 14.375 C3.75628906 13.70726563 3.26257813 13.03953125 2.75390625 12.3515625 C0.69209098 9.52715802 -0.8838953 7.3483141 -2 4 C-1.0625 1.8125 -1.0625 1.8125 0 0 Z " fill="#F5F9FC" transform="translate(146,60)"/>
<path d="M0 0 C4.02939664 1.34313221 4.63016687 3.19038843 6.75 6.8125 C7.38421875 7.87082031 8.0184375 8.92914063 8.671875 10.01953125 C10 13 10 13 10.05859375 15.046875 C8.40390783 18.09980105 5.8942233 20.18430332 3.3125 22.4375 C2.79494141 22.90220703 2.27738281 23.36691406 1.74414062 23.84570312 C-1.76783785 26.98155439 -5.37039583 30.00163134 -9 33 C-8.3808361 30.415141 -7.75492318 27.83223828 -7.125 25.25 C-6.86396484 24.15558594 -6.86396484 24.15558594 -6.59765625 23.0390625 C-4.77112926 15.59765625 -4.77112926 15.59765625 -3 13 C-2.01 12.67 -1.02 12.34 0 12 C0 8.04 0 4.08 0 0 Z " fill="#ECF4FA" transform="translate(52,97)"/>
<path d="M0 0 C0.33 0 0.66 0 1 0 C1.042721 1.66611905 1.04063832 3.33382885 1 5 C0.67 5.33 0.34 5.66 0 6 C-0.10099488 8.72724279 -0.13970529 11.42862523 -0.1328125 14.15625 C-0.13376923 14.97371704 -0.13472595 15.79118408 -0.13571167 16.63342285 C-0.13639345 18.36515378 -0.13453929 20.09688724 -0.13037109 21.82861328 C-0.12502279 24.48866482 -0.13031612 27.1485475 -0.13671875 29.80859375 C-0.13605797 31.48697954 -0.1347768 33.16536523 -0.1328125 34.84375 C-0.13483673 35.64478149 -0.13686096 36.44581299 -0.13894653 37.27111816 C-0.47213668 40.93582301 -0.47213668 40.93582301 1 44 C1.1875 46.9375 1.1875 46.9375 1 50 C-1.49505962 52.49505962 -2.67328888 52.35948376 -6.125 52.625 C-7.03507813 52.69976562 -7.94515625 52.77453125 -8.8828125 52.8515625 C-9.58148438 52.90054688 -10.28015625 52.94953125 -11 53 C-11.33 51.68 -11.66 50.36 -12 49 C-11.34 49 -10.68 49 -10 49 C-10 46.69 -10 44.38 -10 42 C-8.35 42 -6.7 42 -5 42 C-4.970271 40.43318481 -4.970271 40.43318481 -4.93994141 38.8347168 C-4.86387886 34.9599595 -4.77516272 31.08557743 -4.68261719 27.21118164 C-4.64433007 25.53417366 -4.60947669 23.85708362 -4.578125 22.17993164 C-4.53246821 19.76939568 -4.4744759 17.35942443 -4.4140625 14.94921875 C-4.40251129 14.19912033 -4.39096008 13.44902191 -4.37905884 12.67619324 C-4.27304541 8.93872287 -4.12380918 7.18571377 -2 4 C-1.34 4 -0.68 4 0 4 C0 2.68 0 1.36 0 0 Z " fill="#2D5393" transform="translate(166,91)"/>
<path d="M0 0 C-1.36874156 6.95776959 -3.4533129 13.38603107 -6 20 C-16 8.46153846 -16 8.46153846 -16 2 C-10.42932723 0.40837921 -5.78898419 -0.20674944 0 0 Z " fill="#E9F1F9" transform="translate(58,65)"/>
<path d="M0 0 C2.31 0.33 4.62 0.66 7 1 C4 3 4 3 2 3 C2 3.99 2 4.98 2 6 C2.79148437 6.21527344 3.58296875 6.43054688 4.3984375 6.65234375 C9.14975306 8.43022213 13.28624046 10.95590677 17.625 13.5625 C19.30193486 14.56840528 20.9815307 15.56989097 22.6640625 16.56640625 C23.40092285 17.00927979 24.1377832 17.45215332 24.89697266 17.90844727 C26.93923277 18.96845945 28.75256642 19.54778412 31 20 C30 22 30 22 29 23 C29.99 23.66 30.98 24.32 32 25 C31.01 25.495 31.01 25.495 30 26 C27.78857422 24.98364258 27.78857422 24.98364258 25.0546875 23.39453125 C24.05953125 22.82283203 23.064375 22.25113281 22.0390625 21.66210938 C20.99492188 21.05173828 19.95078125 20.44136719 18.875 19.8125 C7.0851948 12.2535585 7.0851948 12.2535585 -6 8 C-6 7.67 -6 7.34 -6 7 C-4.02 7 -2.04 7 0 7 C0 4.69 0 2.38 0 0 Z " fill="#345899" transform="translate(41,135)"/>
<path d="M0 0 C-0.99 0.66 -1.98 1.32 -3 2 C-2.01 2.66 -1.02 3.32 0 4 C-11.22 7.63 -22.44 11.26 -34 15 C-34.66 14.34 -35.32 13.68 -36 13 C-36 12.34 -36 11.68 -36 11 C-31.19791064 9.26306599 -26.39243079 7.53600634 -21.58349609 5.81811523 C-19.94710162 5.23197076 -18.31167728 4.6431106 -16.67724609 4.05151367 C-14.33158406 3.20300706 -11.98263854 2.36423813 -9.6328125 1.52734375 C-8.89942657 1.25969711 -8.16604065 0.99205048 -7.41043091 0.71629333 C-2.22774341 -1.11387171 -2.22774341 -1.11387171 0 0 Z " fill="#2F5599" transform="translate(112,111)"/>
<path d="M0 0 C-1.98 5.61 -3.96 11.22 -6 17 C-6.66 17 -7.32 17 -8 17 C-9.01034498 15.25595212 -10.00792422 13.50450439 -11 11.75 C-11.8353125 10.28820312 -11.8353125 10.28820312 -12.6875 8.796875 C-14 6 -14 6 -14 2 C-8.86048829 0.58220367 -5.49046024 0 0 0 Z " fill="#ECF4FA" transform="translate(108,152)"/>
<path d="M0 0 C3.76607955 1.25535985 4.26441793 2.52883585 6 6 C6 6.99 6 7.98 6 9 C2.87959957 10.19984601 -0.24695531 11.38274177 -3.375 12.5625 C-4.26445313 12.90474609 -5.15390625 13.24699219 -6.0703125 13.59960938 C-6.92109375 13.91865234 -7.771875 14.23769531 -8.6484375 14.56640625 C-9.43395996 14.86490479 -10.21948242 15.16340332 -11.02880859 15.47094727 C-13 16 -13 16 -15 15 C-10.05 10.05 -5.1 5.1 0 0 Z " fill="#F2F8FB" transform="translate(63,116)"/>
<path d="M0 0 C3.29973236 3.29973236 3.37629734 3.53671171 3.38818359 7.86694336 C3.40236832 9.34879372 3.40236832 9.34879372 3.4168396 10.86058044 C3.41076691 11.92623734 3.40469421 12.99189423 3.3984375 14.08984375 C3.40130768 15.18591446 3.40417786 16.28198517 3.40713501 17.41127014 C3.40917752 19.73048417 3.40363464 22.04971536 3.39111328 24.36889648 C3.37507833 27.92015132 3.39094849 31.4702653 3.41015625 35.02148438 C3.40817355 37.27344002 3.40432933 39.52539494 3.3984375 41.77734375 C3.40451019 42.84097641 3.41058289 43.90460907 3.4168396 45.00047302 C3.40738312 45.99152542 3.39792664 46.98257782 3.38818359 48.00366211 C3.38460342 49.30913246 3.38460342 49.30913246 3.38095093 50.64097595 C3 53 3 53 0 57 C0 38.19 0 19.38 0 0 Z " fill="#244B8C" transform="translate(35,77)"/>
<path d="M0 0 C1.32 0.33 2.64 0.66 4 1 C4 1.66 4 2.32 4 3 C7.63 3 11.26 3 15 3 C15 3.66 15 4.32 15 5 C14.195625 5.226875 13.39125 5.45375 12.5625 5.6875 C11.716875 6.120625 10.87125 6.55375 10 7 C9.18068911 9.51176074 9.18068911 9.51176074 9 12 C8 13 8 13 5.0625 13.1875 C2 13 2 13 0 11 C0.36276645 8.17042171 1.09694764 5.70915709 2 3 C1.34 3 0.68 3 0 3 C0 2.01 0 1.02 0 0 Z " fill="#1E4B9B" transform="translate(96,166)"/>
<path d="M0 0 C3.47084737 2.94267494 4.90985113 5.35603696 6.875 9.4375 C6.875 10.0975 6.875 10.7575 6.875 11.4375 C1.71813143 9.96755148 -2.47028832 7.65339873 -7 4.875 C-7.68835938 4.46314453 -8.37671875 4.05128906 -9.0859375 3.62695312 C-10.78589447 2.59652286 -12.45837722 1.52101684 -14.125 0.4375 C-14.125 0.1075 -14.125 -0.2225 -14.125 -0.5625 C-8.90654708 -1.79037128 -4.91958786 -2.45979393 0 0 Z " fill="#E4EFF9" transform="translate(89.125,158.5625)"/>
<path d="M0 0 C2.475 0.99 2.475 0.99 5 2 C5 2.99 5 3.98 5 5 C6.98 5 8.96 5 11 5 C11.33 4.34 11.66 3.68 12 3 C15.11039513 3.61380303 17.20829308 4.65009118 19.8125 6.4375 C23.49134396 8.82564261 26.73836637 10.02337563 31 11 C31 12.65 31 14.3 31 16 C30.67 14.68 30.34 13.36 30 12 C27.03 11.505 27.03 11.505 24 11 C23.67 12.32 23.34 13.64 23 15 C22.195625 14.1028125 22.195625 14.1028125 21.375 13.1875 C17.9425502 10.02603308 14.72820999 8 10 8 C9.01 9.485 9.01 9.485 8 11 C7.67 10.01 7.34 9.02 7 8 C6.01 7.67 5.02 7.34 4 7 C0 2.54285714 0 2.54285714 0 0 Z " fill="#325794" transform="translate(136,53)"/>
<path d="M0 0 C1.89709988 0.93493439 3.79262578 1.87306296 5.6875 2.8125 C6.74324219 3.33457031 7.79898438 3.85664063 8.88671875 4.39453125 C12 6 12 6 14.64453125 7.69921875 C17.13512903 9.3222818 17.13512903 9.3222818 21 9 C20.42655063 11.86724686 20.1385485 12.8614515 18 15 C7.605 9.06 7.605 9.06 -3 3 C-2.01 2.67 -1.02 2.34 0 2 C0 1.34 0 0.68 0 0 Z " fill="#32589A" transform="translate(77,160)"/>
<path d="M0 0 C0.33 1.32 0.66 2.64 1 4 C0.34 4 -0.32 4 -1 4 C-1 4.66 -1 5.32 -1 6 C0.32 6.33 1.64 6.66 3 7 C2.67 8.65 2.34 10.3 2 12 C-2.29 12.66 -6.58 13.32 -11 14 C-8.37886292 11.37886292 -6.17772443 9.80357333 -3 8 C-3.66 7.67 -4.32 7.34 -5 7 C-5 6.34 -5 5.68 -5 5 C-3.35 4.34 -1.7 3.68 0 3 C0 2.01 0 1.02 0 0 Z M3 5 C6.65316671 6.24976756 7.78065836 6.67098753 10 10 C8.02 10.33 6.04 10.66 4 11 C4.33 9.68 4.66 8.36 5 7 C4.34 7 3.68 7 3 7 C3 6.34 3 5.68 3 5 Z " fill="#3B60A2" transform="translate(60,48)"/>
<path d="M0 0 C1.32 0 2.64 0 4 0 C4 0.66 4 1.32 4 2 C4.99 2 5.98 2 7 2 C7 3.32 7 4.64 7 6 C6.34 6 5.68 6 5 6 C3.77681134 9.66956597 3.76883876 13.12321003 3.68359375 16.94921875 C3.66281265 17.72183548 3.64203156 18.49445221 3.62062073 19.29048157 C3.55528962 21.7560648 3.49631685 24.22175361 3.4375 26.6875 C3.39429913 28.36003691 3.35068434 30.03256319 3.30664062 31.70507812 C3.1996251 35.8032775 3.09831143 39.90158296 3 44 C2.67 44 2.34 44 2 44 C1.97494385 42.91581787 1.9498877 41.83163574 1.92407227 40.71459961 C1.82946071 36.66843091 1.72937414 32.62241253 1.62768555 28.57641602 C1.58453898 26.82970715 1.54285083 25.0829616 1.50268555 23.33618164 C1.44448831 20.81645684 1.38094003 18.29691329 1.31640625 15.77734375 C1.29969376 15.00414291 1.28298126 14.23094208 1.26576233 13.43431091 C1.14299979 8.87815027 0.73213879 4.49965725 0 0 Z " fill="#385EA0" transform="translate(159,89)"/>
<path d="M0 0 C0 0.66 0 1.32 0 2 C-2.64 2.33 -5.28 2.66 -8 3 C-8 3.66 -8 4.32 -8 5 C-13.78357065 7.01167675 -18.90218999 7.22084624 -25 7 C-22.48160488 3.22240732 -20.05145265 2.84840969 -15.875 1.8125 C-15.20009521 1.6381543 -14.52519043 1.46380859 -13.82983398 1.28417969 C-9.0622302 0.11163942 -4.87426625 -0.39789929 0 0 Z " fill="#284F93" transform="translate(141,141)"/>
<path d="M0 0 C2.94139884 3.69340696 5.28578782 7.69735009 7.6875 11.75 C8.10322266 12.44738281 8.51894531 13.14476563 8.94726562 13.86328125 C9.96685837 15.57432195 10.98370451 17.2869988 12 19 C11.34 19.66 10.68 20.32 10 21 C9.67 20.67 9.34 20.34 9 20 C8.34 20.33 7.68 20.66 7 21 C5.82286337 18.9219935 4.65828026 16.83848217 3.5 14.75 C3.16613281 14.16347656 2.83226562 13.57695313 2.48828125 12.97265625 C-0.04627436 8.36907566 0 5.20835122 0 0 Z " fill="#2D549B" transform="translate(53,88)"/>
<path d="M0 0 C0.66 0 1.32 0 2 0 C2.33 1.65 2.66 3.3 3 5 C2.01 5.66 1.02 6.32 0 7 C0 7.66 0 8.32 0 9 C1.98 8.67 3.96 8.34 6 8 C5.67 8.66 5.34 9.32 5 10 C4.01 10.33 3.02 10.66 2 11 C0.97299556 13.32891096 0.97299556 13.32891096 0.3125 16.0625 C0.06113281 16.98160156 -0.19023438 17.90070313 -0.44921875 18.84765625 C-0.63097656 19.55792969 -0.81273437 20.26820312 -1 21 C-1.33 19.68 -1.66 18.36 -2 17 C-2.99 17.33 -3.98 17.66 -5 18 C-4.54994536 15.56070386 -4.09035124 13.12388223 -3.625 10.6875 C-3.49867187 9.99720703 -3.37234375 9.30691406 -3.2421875 8.59570312 C-2.57885682 5.16296686 -1.96502361 2.94753542 0 0 Z " fill="#375B9A" transform="translate(47,100)"/>
<path d="M0 0 C0.66 0 1.32 0 2 0 C2 0.99 2 1.98 2 3 C3.98 2.67 5.96 2.34 8 2 C8 2.66 8 3.32 8 4 C7.01 4.495 7.01 4.495 6 5 C8.97 5.495 8.97 5.495 12 6 C12.33 5.01 12.66 4.02 13 3 C13.33 3.66 13.66 4.32 14 5 C13.67 5.66 13.34 6.32 13 7 C9.67810642 7.56946747 6.35597238 7.8963102 3.00390625 8.2421875 C-0.11413581 8.67537526 -0.11413581 8.67537526 -1.41015625 11.0703125 C-1.60480469 11.70710938 -1.79945312 12.34390625 -2 13 C-2.268125 11.865625 -2.53625 10.73125 -2.8125 9.5625 C-3.204375 8.386875 -3.59625 7.21125 -4 6 C-4.99 5.67 -5.98 5.34 -7 5 C-5.02 5 -3.04 5 -1 5 C-0.67 3.35 -0.34 1.7 0 0 Z " fill="#2D579D" transform="translate(63,55)"/>
<path d="M0 0 C2.97 0.495 2.97 0.495 6 1 C6.042721 2.66611905 6.04063832 4.33382885 6 6 C5.67 6.33 5.34 6.66 5 7 C4.76298761 9.85877909 4.57780818 12.69883297 4.4375 15.5625 C4.39431641 16.36880859 4.35113281 17.17511719 4.30664062 18.00585938 C4.20024738 20.00368805 4.09959112 22.0018207 4 24 C3.34 23.67 2.68 23.34 2 23 C1.93941406 21.78441406 1.87882813 20.56882812 1.81640625 19.31640625 C1.73201668 17.73175772 1.6473679 16.14712298 1.5625 14.5625 C1.52318359 13.76005859 1.48386719 12.95761719 1.44335938 12.13085938 C1.5945704 8.24760439 1.5945704 8.24760439 0 5 C-0.04063832 3.33382885 -0.042721 1.66611905 0 0 Z " fill="#204B93" transform="translate(160,64)"/>
<path d="M0 0 C1.32 0 2.64 0 4 0 C4 0.66 4 1.32 4 2 C4.99 2.33 5.98 2.66 7 3 C6.34 3 5.68 3 5 3 C5.33 4.98 5.66 6.96 6 9 C5.21625 8.979375 4.4325 8.95875 3.625 8.9375 C1.01885039 8.81315937 1.01885039 8.81315937 -1 10 C-1.99 9.67 -2.98 9.34 -4 9 C-4 8.34 -4 7.68 -4 7 C-3.34 7 -2.68 7 -2 7 C-2.04125 6.21625 -2.0825 5.4325 -2.125 4.625 C-2 2 -2 2 0 0 Z " fill="#2B5398" transform="translate(63,45)"/>
<path d="M0 0 C6.75 -0.125 6.75 -0.125 9 1 C9 2.32 9 3.64 9 5 C1.57142857 8.28571429 1.57142857 8.28571429 -2 9 C-2.33 7.68 -2.66 6.36 -3 5 C-2.34 5 -1.68 5 -1 5 C-0.67 3.35 -0.34 1.7 0 0 Z " fill="#1A4B9C" transform="translate(157,135)"/>
<path d="M0 0 C-3.52468376 2.82152715 -7.32679708 4.98269186 -11.25 7.1875 C-12.22453125 7.73954102 -12.22453125 7.73954102 -13.21875 8.30273438 C-14.81110627 9.20428903 -16.4053638 10.10248417 -18 11 C-18.33 10.34 -18.66 9.68 -19 9 C-18.34 8.34 -17.68 7.68 -17 7 C-17 6.01 -17 5.02 -17 4 C-11.88643979 1.01708988 -5.89517358 -0.36844835 0 0 Z " fill="#E3F1FA" transform="translate(153,142)"/>
<path d="M0 0 C0.66 0 1.32 0 2 0 C2.45375 1.2375 2.9075 2.475 3.375 3.75 C4.4384007 6.59245495 5.55192483 9.32663046 7 12 C5.02 12.99 5.02 12.99 3 14 C2.68546875 13.44570312 2.3709375 12.89140625 2.046875 12.3203125 C1.40492187 11.23363281 1.40492187 11.23363281 0.75 10.125 C0.33234375 9.40570313 -0.0853125 8.68640625 -0.515625 7.9453125 C-2.15928076 5.79125838 -3.51567335 5.00859415 -6 4 C-5.38125 3.71125 -4.7625 3.4225 -4.125 3.125 C-1.86674235 2.06279958 -1.86674235 2.06279958 0 0 Z " fill="#365799" transform="translate(92,154)"/>
<path d="M0 0 C0.78375 0.33 1.5675 0.66 2.375 1 C6.99361869 2.27410171 11.24249356 2.16923936 16 2 C15 4 15 4 13.0390625 4.74609375 C11.43518997 5.2054553 9.83102466 5.6637959 8.2265625 6.12109375 C5.84974501 7.05931118 4.65465684 8.08380062 3 10 C2.01 9.67 1.02 9.34 0 9 C0 6.03 0 3.06 0 0 Z " fill="#1B4A9C" transform="translate(86,148)"/>
<path d="M0 0 C0.0270043 1.45823212 0.04639787 2.91660675 0.0625 4.375 C0.07410156 5.18710938 0.08570313 5.99921875 0.09765625 6.8359375 C0 9 0 9 -1 11 C-3.33294775 11.04241723 -5.66702567 11.04092937 -8 11 C-9 10 -9 10 -9.0625 7.4375 C-9.041875 6.633125 -9.02125 5.82875 -9 5 C-6.525 5.495 -6.525 5.495 -4 6 C-4.33 5.01 -4.66 4.02 -5 3 C-2.25 0 -2.25 0 0 0 Z " fill="#1B4B99" transform="translate(42,131)"/>
<path d="M0 0 C2.64 0 5.28 0 8 0 C7.34 3.63 6.68 7.26 6 11 C3.03 9.02 0.06 7.04 -3 5 C-2.67 4.34 -2.34 3.68 -2 3 C-1.34 3 -0.68 3 0 3 C0 2.01 0 1.02 0 0 Z " fill="#1F4B99" transform="translate(70,123)"/>
<path d="M0 0 C0.99 0 1.98 0 3 0 C4.30091848 3.92010102 3.32648362 6.04593934 1.76953125 9.828125 C0.57898092 13.1882569 0.31620463 16.45850809 0 20 C-0.33 20 -0.66 20 -1 20 C-1 17.69 -1 15.38 -1 13 C-1.99 13 -2.98 13 -4 13 C-3.52140759 11.39566191 -3.04210442 9.79153584 -2.5625 8.1875 C-2.29566406 7.29417969 -2.02882813 6.40085937 -1.75390625 5.48046875 C-1.19612127 3.64526945 -0.60655425 1.81966274 0 0 Z " fill="#335A9E" transform="translate(122,112)"/>
<path d="M0 0 C-0.11398665 1.62580966 -0.24155659 3.25067157 -0.375 4.875 C-0.44460937 5.77992187 -0.51421875 6.68484375 -0.5859375 7.6171875 C-1 10 -1 10 -3 12 C-3.86646667 10.56988027 -4.71781829 9.13059381 -5.5625 7.6875 C-6.27599609 6.48673828 -6.27599609 6.48673828 -7.00390625 5.26171875 C-8 3 -8 3 -7 0 C-4.05610218 -1.17755913 -3.10046087 -1.03348696 0 0 Z " fill="#F3FAFB" transform="translate(54,73)"/>
<path d="M0 0 C0.66 0.66 1.32 1.32 2 2 C-2.70973649 3.76615118 -7.03083364 4.48594831 -12 5 C-11.34 4.67 -10.68 4.34 -10 4 C-10 3.34 -10 2.68 -10 2 C-12.64 2 -15.28 2 -18 2 C-18 1.67 -18 1.34 -18 1 C-6.19776029 -1.58240688 -6.19776029 -1.58240688 0 0 Z " fill="#305A9B" transform="translate(119,51)"/>
<path d="M0 0 C0.33 0.66 0.66 1.32 1 2 C0.67 2.66 0.34 3.32 0 4 C-3.0625 4.625 -3.0625 4.625 -6 5 C-6.33 5.99 -6.66 6.98 -7 8 C-7.66 8 -8.32 8 -9 8 C-9 9.98 -9 11.96 -9 14 C-11.0625 11.8125 -11.0625 11.8125 -13 9 C-12.70731707 4.70731707 -12.70731707 4.70731707 -11 3 C-9.52918096 2.63157566 -8.04792853 2.30421576 -6.5625 2 C-4.15670855 1.50571219 -2.19915754 1.09957877 0 0 Z " fill="#2D5599" transform="translate(45,59)"/>
<path d="M0 0 C0.58265625 0.0721875 1.1653125 0.144375 1.765625 0.21875 C7.72187364 0.8930423 13.53853192 1.0610612 19.53125 0.9375 C22 1 22 1 24 2 C24 2.99 24 3.98 24 5 C23.01 5 22.02 5 21 5 C21 4.34 21 3.68 21 3 C20.24074219 3.22816406 19.48148438 3.45632812 18.69921875 3.69140625 C17.20841797 4.12259766 17.20841797 4.12259766 15.6875 4.5625 C14.70136719 4.85253906 13.71523437 5.14257812 12.69921875 5.44140625 C10 6 10 6 7 5 C8.32 4.34 9.64 3.68 11 3 C9.9275 3.04125 8.855 3.0825 7.75 3.125 C4.34252515 3.0114175 2.79260369 2.78726636 0 1 C0 0.67 0 0.34 0 0 Z " fill="#2E5497" transform="translate(88,148)"/>
<path d="M0 0 C0.61875 0.474375 1.2375 0.94875 1.875 1.4375 C3.90705546 3.02417441 3.90705546 3.02417441 6 4 C5.69121904 7.60244452 5.00552268 8.99345998 2.625 11.8125 C0 14 0 14 -3 14 C-2.690625 13.2575 -2.38125 12.515 -2.0625 11.75 C-0.47666048 7.6454742 0.12261227 4.41404168 0 0 Z " fill="#244D92" transform="translate(61,105)"/>
<path d="M0 0 C1.69752187 0.25245197 3.38471545 0.57645775 5.0625 0.9375 C5.98160156 1.13214844 6.90070313 1.32679687 7.84765625 1.52734375 C8.91306641 1.76130859 8.91306641 1.76130859 10 2 C10 2.99 10 3.98 10 5 C9.34 5 8.68 5 8 5 C7.67 5.99 7.34 6.98 7 8 C6.34 7.67 5.68 7.34 5 7 C5 6.01 5 5.02 5 4 C4.67 4.66 4.34 5.32 4 6 C1.36 6 -1.28 6 -4 6 C-2.68 5.34 -1.36 4.68 0 4 C-0.33 3.01 -0.66 2.02 -1 1 C-0.67 0.67 -0.34 0.34 0 0 Z " fill="#1D4A97" transform="translate(71,55)"/>
<path d="M0 0 C0.99 0.33 1.98 0.66 3 1 C2 3 2 3 -0.875 4.8125 C-4.0113916 7.00797412 -5.31306956 8.62613913 -7 12 C-6.34 12.33 -5.68 12.66 -5 13 C-9.95 14.485 -9.95 14.485 -15 16 C-10.30233025 10.33870569 -5.25276628 5.14771096 0 0 Z " fill="#DEEFFB" transform="translate(63,116)"/>
<path d="M0 0 C-0.99 2.97 -1.98 5.94 -3 9 C-3.99 8.67 -4.98 8.34 -6 8 C-6.144375 7.360625 -6.28875 6.72125 -6.4375 6.0625 C-6.80104993 3.79688294 -6.80104993 3.79688294 -9.0625 2.75 C-9.701875 2.5025 -10.34125 2.255 -11 2 C-9.73392393 1.46770674 -8.46189588 0.94955456 -7.1875 0.4375 C-6.47980469 0.14746094 -5.77210937 -0.14257812 -5.04296875 -0.44140625 C-3 -1 -3 -1 0 0 Z " fill="#E9F2FB" transform="translate(123,112)"/>
<path d="M0 0 C-0.99 0.495 -0.99 0.495 -2 1 C-2.33 1.99 -2.66 2.98 -3 4 C-3.99 4.495 -3.99 4.495 -5 5 C-4.67 5.99 -4.34 6.98 -4 8 C-7.24208567 7.64950425 -8.61527704 7.43778819 -10.8125 4.9375 C-11.4003125 3.9784375 -11.4003125 3.9784375 -12 3 C-7.77050005 0.58314288 -4.87664009 -0.34833144 0 0 Z " fill="#224B96" transform="translate(81,154)"/>
<path d="M0 0 C3.125 -0.1875 3.125 -0.1875 6 0 C6 0.66 6 1.32 6 2 C5.195625 2.226875 4.39125 2.45375 3.5625 2.6875 C2.716875 3.120625 1.87125 3.55375 1 4 C0.18068911 6.51176074 0.18068911 6.51176074 0 9 C-1 10 -1 10 -4.0625 10.0625 C-5.031875 10.041875 -6.00125 10.02125 -7 10 C-5.68 9.67 -4.36 9.34 -3 9 C-2.87625 8.071875 -2.7525 7.14375 -2.625 6.1875 C-2 3 -2 3 0 0 Z " fill="#284F94" transform="translate(105,169)"/>
<path d="M0 0 C2.475 0.99 2.475 0.99 5 2 C5 2.99 5 3.98 5 5 C6.98 5 8.96 5 11 5 C11.33 4.34 11.66 3.68 12 3 C13.32 3.33 14.64 3.66 16 4 C15.01 4.66 14.02 5.32 13 6 C13.66 6.33 14.32 6.66 15 7 C14.21625 7.103125 13.4325 7.20625 12.625 7.3125 C9.66954819 7.77595022 9.66954819 7.77595022 8 11 C7.67 10.01 7.34 9.02 7 8 C6.01 7.67 5.02 7.34 4 7 C0 2.54285714 0 2.54285714 0 0 Z " fill="#325B9F" transform="translate(136,53)"/>
<path d="M0 0 C0.598125 0.350625 1.19625 0.70125 1.8125 1.0625 C1.4825 3.3725 1.1525 5.6825 0.8125 8.0625 C-0.1775 7.7325 -1.1675 7.4025 -2.1875 7.0625 C-2.1875 6.0725 -2.1875 5.0825 -2.1875 4.0625 C-3.1775 3.7325 -4.1675 3.4025 -5.1875 3.0625 C-5.1875 2.0725 -5.1875 1.0825 -5.1875 0.0625 C-2.1875 -0.9375 -2.1875 -0.9375 0 0 Z " fill="#1B4A9A" transform="translate(129.1875,102.9375)"/>
<path d="M0 0 C2.64 0.66 5.28 1.32 8 2 C8.33 3.32 8.66 4.64 9 6 C8.34 6.66 7.68 7.32 7 8 C4.875 7.625 4.875 7.625 3 7 C3 6.01 3 5.02 3 4 C2.34 4 1.68 4 1 4 C0.67 2.68 0.34 1.36 0 0 Z " fill="#294B93" transform="translate(107,88)"/>
<path d="M0 0 C0.33 1.32 0.66 2.64 1 4 C1.66 4 2.32 4 3 4 C3 4.99 3 5.98 3 7 C3.78375 6.484375 4.5675 5.96875 5.375 5.4375 C6.24125 4.963125 7.1075 4.48875 8 4 C8.66 4.33 9.32 4.66 10 5 C9.67 5.66 9.34 6.32 9 7 C9.66 7.33 10.32 7.66 11 8 C7.87819599 8.96661363 5.47916205 8.98988909 2.25 8.5625 C1.45078125 8.46066406 0.6515625 8.35882813 -0.171875 8.25390625 C-0.77515625 8.17011719 -1.3784375 8.08632812 -2 8 C-1.34 5.36 -0.68 2.72 0 0 Z " fill="#4266A2" transform="translate(104,161)"/>
<path d="M0 0 C3 1 3 1 5 4 C5.22705078 5.99291992 5.22705078 5.99291992 5.1953125 8.23046875 C5.18886719 9.03291016 5.18242187 9.83535156 5.17578125 10.66210938 C5.15902344 11.49548828 5.14226562 12.32886719 5.125 13.1875 C5.11597656 14.03248047 5.10695312 14.87746094 5.09765625 15.74804688 C5.07410703 17.83215243 5.03823647 19.91611217 5 22 C4.01 21.34 3.02 20.68 2 20 C2 19.34 2 18.68 2 18 C2.66 18 3.32 18 4 18 C3.9131724 15.87422093 3.8050049 13.74930419 3.6875 11.625 C3.62949219 10.44164063 3.57148438 9.25828125 3.51171875 8.0390625 C3.34285156 7.03617187 3.17398438 6.03328125 3 5 C2.01 4.34 1.02 3.68 0 3 C0 2.01 0 1.02 0 0 Z " fill="#E0F1FA" transform="translate(156,65)"/>
<path d="M0 0 C0.99 0 1.98 0 3 0 C3.1953125 6.0546875 3.1953125 6.0546875 3 8 C2.34 8.66 1.68 9.32 1 10 C0.01 9.67 -0.98 9.34 -2 9 C-1.34 6.03 -0.68 3.06 0 0 Z " fill="#1F4B99" transform="translate(118,125)"/>
<path d="M0 0 C2.97 0.495 2.97 0.495 6 1 C6.33 1.99 6.66 2.98 7 4 C3.04 4.66 -0.92 5.32 -5 6 C-5.33 5.01 -5.66 4.02 -6 3 C-3.03 3 -0.06 3 3 3 C3 2.34 3 1.68 3 1 C2.01 0.67 1.02 0.34 0 0 Z " fill="#3B60A0" transform="translate(138,140)"/>
<path d="M0 0 C-0.99 0.66 -1.98 1.32 -3 2 C-2.01 2.66 -1.02 3.32 0 4 C-2.31 4.33 -4.62 4.66 -7 5 C-7 4.34 -7 3.68 -7 3 C-9.31 3.33 -11.62 3.66 -14 4 C-11.37350692 2.24900461 -9.38191413 1.30690675 -6.4375 0.3125 C-5.65246094 0.04050781 -4.86742188 -0.23148437 -4.05859375 -0.51171875 C-2 -1 -2 -1 0 0 Z " fill="#42629F" transform="translate(112,111)"/>
<path d="M0 0 C-0.33 1.65 -0.66 3.3 -1 5 C-4.63 5.66 -8.26 6.32 -12 7 C-8.85595666 3.85595666 -4.70527539 0 0 0 Z " fill="#D7E7F9" transform="translate(61,55)"/>
<path d="M0 0 C1.65 0 3.3 0 5 0 C4.01 0.495 4.01 0.495 3 1 C3.33 2.98 3.66 4.96 4 7 C2.824375 6.9690625 2.824375 6.9690625 1.625 6.9375 C-0.98114961 6.81315937 -0.98114961 6.81315937 -3 8 C-2.37240135 5.07120629 -1.41377341 2.63904371 0 0 Z " fill="#194B9D" transform="translate(65,47)"/>
<path d="M0 0 C0 0.66 0 1.32 0 2 C-2.64 2.33 -5.28 2.66 -8 3 C-8 3.33 -8 3.66 -8 4 C-10.97 3.67 -13.94 3.34 -17 3 C-17 2.67 -17 2.34 -17 2 C-11.19233704 0.4943096 -6.0018137 -0.21824777 0 0 Z " fill="#31579A" transform="translate(141,141)"/>
<path d="M0 0 C0.93423645 3.01031744 1.04449911 3.86650268 0 7 C0.66 7 1.32 7 2 7 C1.34 9.64 0.68 12.28 0 15 C-0.33 13.68 -0.66 12.36 -1 11 C-1.66 11 -2.32 11 -3 11 C-2.32829194 7.1936543 -1.27253436 3.64793184 0 0 Z " fill="#365998" transform="translate(134,79)"/>
<path d="M0 0 C0.66 0 1.32 0 2 0 C2.66 0.99 3.32 1.98 4 3 C6.05003955 4.19232613 6.05003955 4.19232613 8 5 C6.824375 5.12375 6.824375 5.12375 5.625 5.25 C2.85250896 5.72806339 2.85250896 5.72806339 1.6875 8.0625 C1.460625 8.701875 1.23375 9.34125 1 10 C0.71125 9.236875 0.4225 8.47375 0.125 7.6875 C-0.96269013 4.84970692 -0.96269013 4.84970692 -3 2 C-2.34 2 -1.68 2 -1 2 C-0.67 1.34 -0.34 0.68 0 0 Z " fill="#3C5E9F" transform="translate(79,60)"/>
<path d="M0 0 C-1 2 -1 2 -2 3 C-0.68 3.33 0.64 3.66 2 4 C-2.455 4.495 -2.455 4.495 -7 5 C-7.33 3.68 -7.66 2.36 -8 1 C-5.23735711 0.40267181 -2.83967231 0 0 0 Z " fill="#315697" transform="translate(88,55)"/>
<path d="M0 0 C2.33944736 0.28730055 4.6739143 0.61936779 7 1 C7.66 3.31 8.32 5.62 9 8 C8.34 8 7.68 8 7 8 C6.6596875 6.7934375 6.6596875 6.7934375 6.3125 5.5625 C5.879375 4.716875 5.44625 3.87125 5 3 C2.45224694 2.10613836 2.45224694 2.10613836 0 2 C-0.33 2.99 -0.66 3.98 -1 5 C-1 1 -1 1 0 0 Z " fill="#3D5C9A" transform="translate(97,24)"/>
<path d="M0 0 C2.25245881 2.68841859 3.88213958 4.64641875 5 8 C4.01 8.495 4.01 8.495 3 9 C2.67 8.67 2.34 8.34 2 8 C1.01 8.495 1.01 8.495 0 9 C-3 4.25 -3 4.25 -3 2 C-2.34 2 -1.68 2 -1 2 C-0.67 1.34 -0.34 0.68 0 0 Z " fill="#3D60A1" transform="translate(60,100)"/>
<path d="M0 0 C1.32 0 2.64 0 4 0 C3.835 0.7425 3.67 1.485 3.5 2.25 C2.88074304 5.19006578 2.88074304 5.19006578 3 9 C2.01 9 1.02 9 0 9 C-1.10844919 5.67465243 -0.84454356 3.37817425 0 0 Z " fill="#1C499B" transform="translate(51,87)"/>
<path d="M0 0 C1.98 0 3.96 0 6 0 C6 1.65 6 3.3 6 5 C4.02 5 2.04 5 0 5 C0 3.35 0 1.7 0 0 Z " fill="#1B4B9C" transform="translate(95,78)"/>
<path d="M0 0 C0.99 0 1.98 0 3 0 C2.67 2.31 2.34 4.62 2 7 C0.35 7 -1.3 7 -3 7 C-2.67 5.35 -2.34 3.7 -2 2 C-1.34 2 -0.68 2 0 2 C0 1.34 0 0.68 0 0 Z " fill="#1B499F" transform="translate(146,52)"/>
<path d="M0 0 C2 3 2 3 1.625 5.1875 C1.41875 5.785625 1.2125 6.38375 1 7 C0.34 6.34 -0.32 5.68 -1 5 C-0.67 4.34 -0.34 3.68 0 3 C-2.97 3 -5.94 3 -9 3 C-4.5 0 -4.5 0 0 0 Z " fill="#1B4A98" transform="translate(59,61)"/>
<path d="M0 0 C0 0.66 0 1.32 0 2 C0.99 2.33 1.98 2.66 3 3 C0.36 3.33 -2.28 3.66 -5 4 C-4.34 3.67 -3.68 3.34 -3 3 C-3 2.34 -3 1.68 -3 1 C-5.64 1 -8.28 1 -11 1 C-11 0.67 -11 0.34 -11 0 C-6.98195309 -0.84098656 -3.98196457 -1.05404945 0 0 Z " fill="#4E6EA6" transform="translate(112,52)"/>
<path d="M0 0 C0.66 0 1.32 0 2 0 C2 1.98 2 3.96 2 6 C-0.3431213 5.74438677 -2.67843403 5.40729228 -5 5 C-5.33 4.34 -5.66 3.68 -6 3 C-5.38125 2.87625 -4.7625 2.7525 -4.125 2.625 C-1.80879168 2.12802644 -1.80879168 2.12802644 0 0 Z " fill="#2A519B" transform="translate(92,154)"/>
<path d="M0 0 C0.763125 0.20625 1.52625 0.4125 2.3125 0.625 C-1.01057692 4.56346154 -1.01057692 4.56346154 -4.4375 4.875 C-5.18 4.7925 -5.9225 4.71 -6.6875 4.625 C-5.39900677 0.7595203 -4.17039106 -0.58191503 0 0 Z " fill="#2A5490" transform="translate(55.6875,54.375)"/>
<path d="M0 0 C0.66 0.33 1.32 0.66 2 1 C2 2.32 2 3.64 2 5 C3.32 5.33 4.64 5.66 6 6 C6 6.99 6 7.98 6 9 C3.15616877 7.7251791 0.86245982 6.54862922 -1 4 C-0.6875 1.8125 -0.6875 1.8125 0 0 Z " fill="#264E94" transform="translate(148,124)"/>
<path d="M0 0 C0.66 0.33 1.32 0.66 2 1 C2.125 3.875 2.125 3.875 2 7 C0 9 0 9 -3.125 9.125 C-4.548125 9.063125 -4.548125 9.063125 -6 9 C-4.75 7.5 -4.75 7.5 -3 6 C-1.68 6 -0.36 6 1 6 C0.67 4.02 0.34 2.04 0 0 Z " fill="#2E5090" transform="translate(165,134)"/>
<path d="M0 0 C0.66 0 1.32 0 2 0 C2.125 3.375 2.125 3.375 2 7 C1.34 7.66 0.68 8.32 0 9 C-0.66 8.34 -1.32 7.68 -2 7 C-1.34 4.69 -0.68 2.38 0 0 Z " fill="#244C90" transform="translate(43,117)"/>
<path d="M0 0 C1.98 0 3.96 0 6 0 C6 1.32 6 2.64 6 4 C3.69 4.33 1.38 4.66 -1 5 C-0.67 3.35 -0.34 1.7 0 0 Z " fill="#385C9B" transform="translate(79,153)"/>
<path d="M0 0 C0.99 0.33 1.98 0.66 3 1 C0.94773694 5.10452613 -3.99104291 7.05204688 -8 9 C-7.04270084 7.87411986 -6.08412105 6.7493285 -5.125 5.625 C-4.59132812 4.99851562 -4.05765625 4.37203125 -3.5078125 3.7265625 C-2.38567993 2.44163349 -1.20628025 1.20628025 0 0 Z " fill="#D3E3F5" transform="translate(63,116)"/>
<path d="M0 0 C2.4375 0.8125 2.4375 0.8125 5 2 C5.33 2.99 5.66 3.98 6 5 C0.25 4.25 0.25 4.25 -2 2 C-1.34 2 -0.68 2 0 2 C0 1.34 0 0.68 0 0 Z " fill="#305395" transform="translate(43,141)"/>
<path d="M0 0 C0.99 0.33 1.98 0.66 3 1 C2.67 2.65 2.34 4.3 2 6 C0.68 6.33 -0.64 6.66 -2 7 C-1.34 4.69 -0.68 2.38 0 0 Z " fill="#194A9B" transform="translate(64,108)"/>
<path d="M0 0 C0.66 0 1.32 0 2 0 C0.125 5.875 0.125 5.875 -1 7 C-1.36760731 9.32817964 -1.70241581 11.6618385 -2 14 C-2.33 14 -2.66 14 -3 14 C-3 10.7 -3 7.4 -3 4 C-2.34 3.67 -1.68 3.34 -1 3 C-0.67 2.01 -0.34 1.02 0 0 Z " fill="#D5E7F6" transform="translate(47,96)"/>
<path d="M0 0 C0.99 1.32 1.98 2.64 3 4 C2.01 5.32 1.02 6.64 0 8 C-2 5 -2 5 -2 1 C-1.34 0.67 -0.68 0.34 0 0 Z " fill="#3459A1" transform="translate(152,76)"/>
<path d="M0 0 C1.65 0.33 3.3 0.66 5 1 C4.360625 1.598125 3.72125 2.19625 3.0625 2.8125 C0.79689611 4.90810337 0.79689611 4.90810337 0 8 C-1.125 6.25 -1.125 6.25 -2 4 C-1.125 1.75 -1.125 1.75 0 0 Z " fill="#D7E7F6" transform="translate(146,60)"/>
<path d="M0 0 C1.32 0.33 2.64 0.66 4 1 C2.60667426 4.36720387 1.0210714 5.9859524 -2 8 C-1.47731534 5.23723823 -0.89130413 2.6739124 0 0 Z " fill="#395F9C" transform="translate(117,59)"/>
<path d="M0 0 C-0.33 1.32 -0.66 2.64 -1 4 C-3.31 4 -5.62 4 -8 4 C-6.27302455 0.54604909 -3.70696841 0 0 0 Z " fill="#214D94" transform="translate(66,127)"/>
<path d="M0 0 C1.32 1.32 2.64 2.64 4 4 C1.03 6.475 1.03 6.475 -2 9 C-1.34 6.03 -0.68 3.06 0 0 Z " fill="#CEDFF6" transform="translate(45,121)"/>
<path d="M0 0 C0.66 0 1.32 0 2 0 C2.33 1.65 2.66 3.3 3 5 C1.35 5.66 -0.3 6.32 -2 7 C-1.125 2.25 -1.125 2.25 0 0 Z " fill="#305794" transform="translate(47,100)"/>
<path d="M0 0 C0.66 0.33 1.32 0.66 2 1 C1.34 2.32 0.68 3.64 0 5 C-1.32 5 -2.64 5 -4 5 C-3.6875 3.0625 -3.6875 3.0625 -3 1 C-2.01 0.67 -1.02 0.34 0 0 Z " fill="#2A5197" transform="translate(76,100)"/>
<path d="M0 0 C0.66 0.66 1.32 1.32 2 2 C0.1875 4 0.1875 4 -2 6 C-2.99 6 -3.98 6 -5 6 C-4.75 4.125 -4.75 4.125 -4 2 C-1.9375 0.75 -1.9375 0.75 0 0 Z " fill="#204A9A" transform="translate(90,87)"/>
<path d="M0 0 C0.99 0.66 1.98 1.32 3 2 C2.01 2.33 1.02 2.66 0 3 C-0.73323796 5.01508358 -0.73323796 5.01508358 -1 7 C-2.65 7 -4.3 7 -6 7 C-4.02 4.69 -2.04 2.38 0 0 Z " fill="#234D90" transform="translate(116,60)"/>
<path d="M0 0 C0.99 0.33 1.98 0.66 3 1 C3 2.65 3 4.3 3 6 C1.02 6.99 1.02 6.99 -1 8 C-0.67 5.36 -0.34 2.72 0 0 Z " fill="#244F96" transform="translate(105,159)"/>
<path d="M0 0 C2.5 1.375 2.5 1.375 5 3 C5 3.66 5 4.32 5 5 C4.34 5 3.68 5 3 5 C2.67 5.66 2.34 6.32 2 7 C0 4 0 4 0 0 Z " fill="#294E91" transform="translate(147,72)"/>
<path d="M0 0 C0.99 0.33 1.98 0.66 3 1 C2.67 2.65 2.34 4.3 2 6 C1.01 6 0.02 6 -1 6 C-1.042721 4.33388095 -1.04063832 2.66617115 -1 1 C-0.67 0.67 -0.34 0.34 0 0 Z " fill="#27508F" transform="translate(58,67)"/>
<path d="M0 0 C2.0625 0.4375 2.0625 0.4375 4 1 C4 1.66 4 2.32 4 3 C3.195625 3.12375 2.39125 3.2475 1.5625 3.375 C0.2940625 3.684375 0.2940625 3.684375 -1 4 C-1.33 4.66 -1.66 5.32 -2 6 C-1.125 1.125 -1.125 1.125 0 0 Z " fill="#1C4B9F" transform="translate(48,105)"/>
<path d="M0 0 C0.99 0.66 1.98 1.32 3 2 C-2.445 3.485 -2.445 3.485 -8 5 C-7.67 3.68 -7.34 2.36 -7 1 C-6.01 1.33 -5.02 1.66 -4 2 C-1.83284443 1.12516085 -1.83284443 1.12516085 0 0 Z " fill="#D4E6F7" transform="translate(139,98)"/>
<path d="M0 0 C0.33 0.99 0.66 1.98 1 3 C1.99 3.33 2.98 3.66 4 4 C3.34 5.32 2.68 6.64 2 8 C1.01 7.34 0.02 6.68 -1 6 C-0.67 4.02 -0.34 2.04 0 0 Z " fill="#355C9C" transform="translate(56,70)"/>
<path d="M0 0 C0.33 1.32 0.66 2.64 1 4 C1.66 4 2.32 4 3 4 C2.67 5.32 2.34 6.64 2 8 C0.68 8 -0.64 8 -2 8 C-1.34 5.36 -0.68 2.72 0 0 Z " fill="#355E9D" transform="translate(104,161)"/>
<path d="M0 0 C0.33 0.66 0.66 1.32 1 2 C3.31 2 5.62 2 8 2 C4.81237635 4.12508244 2.73487777 4.5020163 -1 5 C-0.67 3.35 -0.34 1.7 0 0 Z " fill="#CDE0F3" transform="translate(116,141)"/>
<path d="M0 0 C2.4375 0.6875 2.4375 0.6875 5 2 C5.8125 4.625 5.8125 4.625 6 7 C5.34 7 4.68 7 4 7 C0 2.52941176 0 2.52941176 0 0 Z " fill="#B5CFEF" transform="translate(136,53)"/>
<path d="M0 0 C1.65 0.33 3.3 0.66 5 1 C3.6875 2.5 3.6875 2.5 2 4 C1.01 4 0.02 4 -1 4 C-0.67 2.68 -0.34 1.36 0 0 Z " fill="#2D5092" transform="translate(114,164)"/>
<path d="M0 0 C0.33 1.32 0.66 2.64 1 4 C0.34 4 -0.32 4 -1 4 C-1.33 5.32 -1.66 6.64 -2 8 C-2.66 8 -3.32 8 -4 8 C-2.25 2.25 -2.25 2.25 0 0 Z " fill="#D9E6F4" transform="translate(121,132)"/>
<path d="M0 0 C1.98 1.65 3.96 3.3 6 5 C5.01 5.66 4.02 6.32 3 7 C2.34 6.67 1.68 6.34 1 6 C0.375 2.9375 0.375 2.9375 0 0 Z " fill="#D9EAFA" transform="translate(150,131)"/>
<path d="M0 0 C2.13093906 1.06546953 3.36587557 2.29159719 5 4 C3.02 4.33 1.04 4.66 -1 5 C-1 4.01 -1 3.02 -1 2 C-1.66 1.67 -2.32 1.34 -3 1 C-2.01 0.67 -1.02 0.34 0 0 Z " fill="#355B9C" transform="translate(119,107)"/>
<path d="M0 0 C0.99 0.33 1.98 0.66 3 1 C2 3 2 3 0.15234375 3.6328125 C-0.57855469 3.79523438 -1.30945313 3.95765625 -2.0625 4.125 C-2.79597656 4.29257813 -3.52945313 4.46015625 -4.28515625 4.6328125 C-4.85105469 4.75398438 -5.41695313 4.87515625 -6 5 C-6 4.34 -6 3.68 -6 3 C-5.195625 2.690625 -4.39125 2.38125 -3.5625 2.0625 C-1.10919595 1.23664655 -1.10919595 1.23664655 0 0 Z " fill="#DAE6F8" transform="translate(120,104)"/>
<path d="M0 0 C1.32 0 2.64 0 4 0 C3.67 1.32 3.34 2.64 3 4 C1.68 4 0.36 4 -1 4 C-0.67 2.68 -0.34 1.36 0 0 Z " fill="#275198" transform="translate(136,101)"/>
<path d="M0 0 C2.475 0.495 2.475 0.495 5 1 C4.67 1.99 4.34 2.98 4 4 C2.68 3.67 1.36 3.34 0 3 C0 2.01 0 1.02 0 0 Z " fill="#194B9E" transform="translate(110,92)"/>
<path d="M0 0 C-0.33 1.32 -0.66 2.64 -1 4 C-1.99 3.67 -2.98 3.34 -4 3 C-4.99 3 -5.98 3 -7 3 C-4.49955934 -0.00052879 -4.2621484 0 0 0 Z " fill="#2D549B" transform="translate(94,85)"/>
<path d="M0 0 C3 3.75 3 3.75 3 6 C1.68 6.33 0.36 6.66 -1 7 C-1.66 6.01 -2.32 5.02 -3 4 C-2.01 4 -1.02 4 0 4 C0 2.68 0 1.36 0 0 Z " fill="#3C60A2" transform="translate(41,67)"/>
<path d="M0 0 C1.32 1.32 2.64 2.64 4 4 C2.02 4.33 0.04 4.66 -2 5 C-1.34 3.35 -0.68 1.7 0 0 Z " fill="#D2E6F8" transform="translate(66,54)"/>
</svg>
