<?xml version="1.0" encoding="UTF-8"?>
<svg version="1.1" xmlns="http://www.w3.org/2000/svg" width="2048" height="2048">
<path d="M0 0 C11.52554747 -0.46496939 23.04884222 -0.81949837 34.58188248 -1.03624344 C39.93883309 -1.1403256 45.28933916 -1.28120106 50.64257812 -1.50878906 C85.17224282 -2.93882046 85.17224282 -2.93882046 93.03634644 1.84832764 C97.47660164 6.38537823 99.54452393 11.5432103 101.25543213 17.578125 C102.25451555 20.82786927 103.90650591 23.36045291 105.84765625 26.1328125 C106.38382568 26.96780273 106.91999512 27.80279297 107.47241211 28.66308594 C107.99714111 29.47551758 108.52187012 30.28794922 109.0625 31.125 C119.2762941 47.08396551 128.95572821 63.28606296 138.3828125 79.72265625 C140.62188128 83.62180588 142.88109272 87.50673653 145.1796875 91.37109375 C145.65075928 92.16314209 146.12183105 92.95519043 146.60717773 93.77124023 C147.47013674 95.21700143 148.33662902 96.66066175 149.20727539 98.10180664 C152 102.78243476 152 102.78243476 152 105 C152.66 105 153.32 105 154 105 C154.25797363 104.29689697 154.51594727 103.59379395 154.78173828 102.86938477 C156.11003303 99.74083803 157.71509639 96.98717537 159.4921875 94.08984375 C159.83397034 93.52988708 160.17575317 92.96993042 160.52789307 92.39300537 C161.64009563 90.57233598 162.75747843 88.75490852 163.875 86.9375 C165.04348767 85.02881044 166.21073264 83.11936536 167.3777771 81.20979309 C168.15700676 79.93479079 168.93664941 78.66004079 169.71670532 77.38554382 C172.42042753 72.96398088 175.08035595 68.5181289 177.72021484 64.05810547 C183.55503168 54.21172531 189.74241559 44.62391423 196.03125 35.0625 C201.03402399 27.44783598 205.92299443 19.76111296 210.80957031 12.0715332 C211.76234863 10.57626099 211.76234863 10.57626099 212.734375 9.05078125 C213.29350586 8.17075439 213.85263672 7.29072754 214.42871094 6.3840332 C215.20649902 5.20393677 215.20649902 5.20393677 216 4 C216.52497826 2.95029274 216.52497826 2.95029274 217.06056213 1.87937927 C219.60245447 -0.58379826 221.64449279 -0.47283564 225.08477783 -0.49768066 C226.33094879 -0.47610901 226.33094879 -0.47610901 227.60229492 -0.45410156 C228.48055435 -0.45468567 229.35881378 -0.45526978 230.26368713 -0.45587158 C233.16968162 -0.45308251 236.07465324 -0.42195179 238.98046875 -0.390625 C240.99399759 -0.38316554 243.00753369 -0.37747122 245.02107239 -0.37347412 C250.32311006 -0.35819463 255.62471007 -0.31889271 260.92657471 -0.2746582 C266.3357552 -0.2337555 271.74500634 -0.21547379 277.15429688 -0.1953125 C287.76972364 -0.15240083 298.38482544 -0.08412138 309 0 C307.38132973 4.2454147 305.26954484 7.81475476 302.70703125 11.546875 C301.79694074 12.89207233 300.88763926 14.23780371 299.97900391 15.58398438 C299.49449768 16.29997803 299.00999146 17.01597168 298.51080322 17.75366211 C295.87434086 21.67368638 293.28912826 25.62725688 290.69921875 29.578125 C289.56138914 31.31067248 288.4233633 33.04309109 287.28515625 34.77539062 C286.40754639 36.11114136 286.40754639 36.11114136 285.51220703 37.47387695 C274.36160242 54.43849095 263.09901903 71.32157363 251.71789551 88.1322937 C239.02710117 106.88420412 226.55613286 125.77848373 214.13438416 144.70942688 C213.64651932 145.45282822 213.15865448 146.19622955 212.65600586 146.9621582 C212.20587128 147.65789948 211.75573669 148.35364075 211.29196167 149.07046509 C210.46426703 150.30662073 209.59849987 151.5185915 208.68777466 152.69491577 C207.35369232 154.36765546 207.35369232 154.36765546 206 157 C206.85857417 161.5755328 210.10571166 165.37595263 212.71484375 169.17578125 C213.19300034 169.88045532 213.67115692 170.58512939 214.1638031 171.31115723 C215.75073498 173.64789424 217.34418875 175.98010919 218.9375 178.3125 C220.06448696 179.96994133 221.19094176 181.62774461 222.31689453 183.28588867 C224.68227449 186.76864867 227.04972271 190.24998941 229.41845703 193.73046875 C234.53358954 201.2509613 239.61800057 208.79215602 244.70291138 216.33309937 C247.52725645 220.5210849 250.35361411 224.7077119 253.1796875 228.89453125 C254.31739279 230.58023415 255.45508811 232.26594379 256.59277344 233.95166016 C260.5440326 239.80614733 264.49551529 245.66048364 268.4473877 251.51455688 C271.23806651 255.64856892 274.02826766 259.78290156 276.81738281 263.91796875 C282.1127754 271.76765641 287.41342468 279.61366747 292.72967529 287.44924927 C295.25490297 291.17175501 297.77757859 294.8959867 300.30004883 298.62036133 C301.50921756 300.40410762 302.7196515 302.18699696 303.93139648 303.96899414 C305.60585992 306.43163229 307.27603709 308.89712468 308.9453125 311.36328125 C309.44495514 312.09565506 309.94459778 312.82802887 310.4593811 313.58259583 C311.14101822 314.59225655 311.14101822 314.59225655 311.83642578 315.62231445 C312.43041672 316.49724297 312.43041672 316.49724297 313.03640747 317.3898468 C314 319 314 319 315 322 C231.43583423 329.41773175 231.43583423 329.41773175 214.91015625 317.92333984 C204.70801245 308.77513814 199.43536105 296.02978474 195.0234375 283.32641602 C192.29747488 275.67338657 187.71897601 269.52927505 183 263 C181.05248611 259.9373241 179.21062168 256.81820071 177.375 253.6875 C172.4145154 245.32400909 167.35377987 237.02646488 162.25 228.75 C161.88767273 228.16221771 161.52534546 227.57443542 161.15203857 226.96884155 C159.10288181 223.64495324 157.05216567 220.32203137 155 217 C152.08596722 219.5799824 150.3792438 222.54084031 148.4453125 225.8984375 C148.10781479 226.48054993 147.77031708 227.06266235 147.42259216 227.66241455 C146.69770536 228.91297804 145.97471751 230.16464382 145.25344849 231.41729736 C143.33900349 234.73859564 141.40547017 238.0487433 139.47265625 241.359375 C139.08683884 242.02067413 138.70102142 242.68197327 138.30351257 243.36331177 C129.30273528 258.76936578 119.62310163 273.69117851 109.68585205 288.50340271 C104.88639449 295.65767022 100.14293802 302.84597039 95.4375 310.0625 C94.80021973 311.03815918 94.16293945 312.01381836 93.50634766 313.01904297 C90.58040107 317.40904929 90.58040107 317.40904929 88 322 C56.98 322 25.96 322 -6 322 C-4.43174341 318.07935853 -3.16839052 315.55842233 -0.796875 312.21875 C-0.15419678 311.30633545 0.48848145 310.3939209 1.15063477 309.45385742 C1.84342529 308.47908447 2.53621582 307.50431152 3.25 306.5 C8.44123638 299.11774375 13.58212188 291.71377526 18.5625 284.1875 C24.67534609 274.96322866 30.85853357 265.7881048 37.0625 256.625 C37.55541534 255.89687103 38.04833069 255.16874207 38.55618286 254.41854858 C41.55501797 249.98905416 44.5549675 245.56031566 47.55548096 241.13195801 C49.38282082 238.43499678 51.20986154 235.73783297 53.03689575 233.04066467 C56.04298523 228.60292463 59.04924538 224.16530023 62.05566406 219.7277832 C68.30654907 210.50120768 74.55603573 201.27368627 80.80224609 192.04394531 C81.79119389 190.58274537 82.78028352 189.12164143 83.76953125 187.66064453 C84.47142578 186.62399658 84.47142578 186.62399658 85.1875 185.56640625 C85.64522797 184.89072601 86.10295593 184.21504578 86.57455444 183.51889038 C87.46415265 182.2025856 88.35128539 180.88461067 89.23574829 179.56484985 C91.28146779 176.5146079 93.35188682 173.4946304 95.51318359 170.52490234 C96.2655127 169.46867676 97.0178418 168.41245117 97.79296875 167.32421875 C98.46223389 166.41115967 99.13149902 165.49810059 99.82104492 164.55737305 C101.29622063 162.05711425 101.29622063 162.05711425 100.36889648 159.44360352 C99.06302851 157.11251156 97.75146597 154.82473649 96.3046875 152.578125 C95.76215332 151.73080811 95.21961914 150.88349121 94.66064453 150.01049805 C94.07138184 149.09953369 93.48211914 148.18856934 92.875 147.25 C92.25608887 146.28553955 91.63717773 145.3210791 90.99951172 144.32739258 C89.67778701 142.26812631 88.35433121 140.20997028 87.02929688 138.15283203 C84.38085272 134.03805727 81.74543569 129.91501864 79.10986328 125.79199219 C77.09816649 122.64553014 75.08453942 119.50031164 73.0703125 116.35546875 C69.04540555 110.07125251 65.02252145 103.78574338 61 97.5 C59.66667591 95.41666075 58.33334257 93.33332742 57 91.25 C49 78.75 41 66.25 33 53.75 C32.00867065 52.20107056 32.00867065 52.20107056 30.99731445 50.62084961 C29.67287744 48.55138643 28.34849533 46.48188811 27.02416992 44.41235352 C23.92323199 39.56663646 20.82177167 34.72125643 17.71829224 29.87716675 C16.62260469 28.1668968 15.52709599 26.45651242 14.43164062 24.74609375 C13.0595996 22.60393937 11.68722543 20.46199832 10.31445312 18.3203125 C9.09269098 16.41249363 7.87268224 14.50355025 6.65478516 12.59326172 C5.58682573 10.91963159 4.51393208 9.24913501 3.43505859 7.58251953 C0 2.22209313 0 2.22209313 0 0 Z " fill="#FF9200" transform="translate(1321,797)"/>
<path d="M0 0 C0.33 0.66 0.66 1.32 1 2 C0.27296875 3.02996094 -0.4540625 4.05992187 -1.203125 5.12109375 C-1.68330078 5.80147705 -2.16347656 6.48186035 -2.65820312 7.18286133 C-3.72930778 8.69998579 -4.80093183 10.21674368 -5.87304688 11.7331543 C-8.70356031 15.73823172 -11.52538634 19.74886437 -14.328125 23.7734375 C-14.86018555 24.53470947 -15.39224609 25.29598145 -15.94042969 26.08032227 C-16.95992558 27.53950369 -17.97633714 29.00084621 -18.98925781 30.46459961 C-21.43135642 33.95229006 -23.84431493 37.1048078 -27 40 C-27.83660156 39.443125 -28.67320312 38.88625 -29.53515625 38.3125 C-63.83806101 15.71000421 -102.42228558 4.87223673 -143.45068359 12.44775391 C-153.66367557 14.660145 -163.48962032 18.93865044 -172 25 C-172.71671875 25.51046875 -173.4334375 26.0209375 -174.171875 26.546875 C-180.51375845 31.55362509 -185.58094872 38.91757751 -187 47 C-187.87560022 57.46414039 -186.67076472 66.7381267 -180.0625 75.1875 C-161.41822508 94.50328482 -130.14944602 97.16526242 -105.1875 101.4375 C-76.96811841 106.27225042 -49.25853624 111.93713928 -24 126 C-23.00613281 126.55300781 -22.01226563 127.10601563 -20.98828125 127.67578125 C-3.72693217 137.99319247 8.21430713 152.91852195 13.96484375 172.2421875 C19.70265991 195.9866986 16.39282327 221.2228023 4.0703125 242.30078125 C-12.95483397 268.33740634 -40.5410479 283.21270958 -70.42285156 289.73657227 C-110.34625416 297.8879233 -152.66225681 294.91896996 -191 281 C-191.66 280.76168457 -192.32 280.52336914 -193 280.27783203 C-213.02225496 272.92591029 -231.7070754 262.40954058 -249 250 C-248.36553313 246.53369269 -247.00461302 244.24319003 -245.0078125 241.359375 C-244.3897876 240.46041504 -243.7717627 239.56145508 -243.13500977 238.63525391 C-242.14005493 237.20705322 -242.14005493 237.20705322 -241.125 235.75 C-240.11747681 234.28892822 -240.11747681 234.28892822 -239.08959961 232.79833984 C-237.72117367 230.81473205 -236.35032627 228.83279254 -234.97705078 226.85253906 C-232.64546383 223.48846621 -230.32848414 220.11454904 -228.01318359 216.73925781 C-226.01258943 213.82354837 -224.00646644 210.91167063 -222 208 C-218.80002289 209.44157385 -216.00634169 211.32645417 -213.12963867 213.32495117 C-195.45702561 225.54818335 -175.06593779 234.59330296 -154 239 C-153.13084961 239.18191895 -152.26169922 239.36383789 -151.36621094 239.55126953 C-120.79129297 245.69638131 -85.58972853 246.77753762 -58 230 C-49.15324042 223.37742574 -42.54189066 215.90035996 -40 205 C-39.01346194 193.64334098 -39.85938909 184.89594911 -47.1875 175.8125 C-65.37134335 156.35462941 -96.8417382 153.72750664 -121.56640625 149.78515625 C-157.65582732 144.01722943 -203.44908451 135.91192829 -226.71582031 104.22070312 C-240.28098782 84.815771 -244.37895489 61.2074558 -240.68017578 37.99267578 C-237.99195184 23.0649141 -231.16317429 10.22991969 -221 -1 C-220.32453125 -1.75667969 -219.6490625 -2.51335938 -218.953125 -3.29296875 C-164.24293991 -61.29774528 -57.29474327 -43.64248023 0 0 Z " fill="#000000" transform="translate(697,830)"/>
<path d="M0 0 C8.23138969 -0.51342331 16.45595949 -0.90225834 24.69947243 -1.13986778 C28.52973612 -1.25403357 32.34895656 -1.40811355 36.17285156 -1.65966797 C60.73979615 -3.23354026 60.73979615 -3.23354026 67.70098877 2.05007935 C72.27178258 7.21434879 75.17293175 13.07037187 77.85650635 19.38061523 C79.27824428 22.63737024 81.00508113 25.36311494 83.0078125 28.29296875 C88.84413103 37.45613224 94.66588951 46.62812518 100.46142578 55.81713867 C104.29230702 61.88787522 108.14340259 67.94557374 112 74 C118.87599375 84.79559238 125.71431178 95.61464876 132.53955078 106.44238281 C138.97974533 116.65869895 145.4467793 126.85574674 152 137 C156.03550411 132.24707294 159.31292067 127.04023067 162.6875 121.8125 C164.03754784 119.7316329 165.38781655 117.65090909 166.73828125 115.5703125 C167.43904785 114.48911133 168.13981445 113.40791016 168.86181641 112.29394531 C172.35262084 106.91624111 175.86417711 101.55214776 179.375 96.1875 C180.80994505 93.99352177 182.24484055 91.79951114 183.6796875 89.60546875 C184.39350586 88.51411621 185.10732422 87.42276367 185.84277344 86.29833984 C189.39575261 80.8659328 192.947835 75.43293944 196.5 70 C197.91666228 67.83333047 199.33332895 65.6666638 200.75 63.5 C201.45125 62.4275 202.1525 61.355 202.875 60.25 C209.25 50.5 209.25 50.5 211.37841797 47.24487305 C212.78381439 45.09537663 214.18908942 42.94580084 215.59423828 40.79614258 C218.90937611 35.72482146 222.22573666 30.65431266 225.54644775 25.5866394 C227.11274617 23.19617749 228.67834802 20.80525976 230.24389648 18.41430664 C231.34746561 16.72953556 232.45204032 15.0454233 233.55664062 13.36132812 C234.22630859 12.33845703 234.89597656 11.31558594 235.5859375 10.26171875 C236.1742334 9.36412842 236.7625293 8.46653809 237.36865234 7.54174805 C239.0500976 5.05287363 239.0500976 5.05287363 240.20201111 2.37661743 C242 0 242 0 244.86637878 -0.60127258 C246.03219986 -0.59016953 247.19802094 -0.57906647 248.39916992 -0.56762695 C249.04334366 -0.56835709 249.6875174 -0.56908722 250.35121155 -0.56983948 C252.47849019 -0.56635841 254.60357327 -0.52748083 256.73046875 -0.48828125 C258.20590519 -0.47895477 259.68135712 -0.47183787 261.15681458 -0.46684265 C265.03867406 -0.44775924 268.91959684 -0.39864871 272.80108643 -0.34332275 C276.76244433 -0.29215813 280.72395373 -0.26933468 284.68554688 -0.24414062 C292.45745812 -0.19052969 300.22859777 -0.1052027 308 0 C307.22420897 1.41672827 306.44587274 2.83206296 305.66650391 4.24682617 C305.23334869 5.03514328 304.80019348 5.82346039 304.35391235 6.63566589 C302.23299042 10.33942712 299.81734723 13.81569759 297.375 17.3125 C296.21807718 18.98651438 295.06187205 20.6610249 293.90625 22.3359375 C292.96845703 23.69283691 292.96845703 23.69283691 292.01171875 25.07714844 C288.67657422 29.92282201 285.37760554 34.79299067 282.07769775 39.66268921 C280.86324407 41.45484812 279.64825335 43.2466418 278.43310547 45.03833008 C276.77912583 47.47709761 275.12532792 49.9159882 273.47167969 52.35498047 C269.87642673 57.65735104 266.27888316 62.9581671 262.68145752 68.25906372 C260.70420599 71.17264196 258.72711112 74.08632649 256.75 77 C255.95833408 78.16666717 255.16666741 79.33333384 254.375 80.5 C253.983125 81.0775 253.59125 81.655 253.1875 82.25 C230.62500004 115.49999994 230.62500004 115.49999994 229.43756104 117.24990845 C228.64568893 118.41687894 227.85381881 119.58385078 227.06195068 120.75082397 C225.08594356 123.66285318 223.10990213 126.5748591 221.13378906 129.48681641 C217.53414997 134.79123997 213.93477493 140.09584182 210.33666992 145.40130615 C208.69992438 147.81466743 207.06298038 150.22789407 205.42602539 152.64111328 C204.3196351 154.27233268 203.21351926 155.90373822 202.10742188 157.53515625 C201.39650391 158.58316406 200.68558594 159.63117188 199.953125 160.7109375 C199.25032913 161.78200745 198.54753326 162.85307739 197.82344055 163.956604 C195.80624456 166.94581469 193.61236411 169.69559504 191.29423523 172.45672607 C179.4096989 187.21672049 177.84337132 199.75301383 178.27716184 218.27951956 C178.34402002 221.83614504 178.32356887 225.39240428 178.3134613 228.94949341 C178.30714448 235.64722839 178.37623116 242.34184205 178.4743318 249.03877366 C178.58243184 256.6787367 178.60356193 264.31822844 178.6183883 271.95885253 C178.65071565 287.64099465 178.80046429 303.31895833 179 319 C161.18 319 143.36 319 125 319 C125.0220752 315.14046631 125.04415039 311.28093262 125.06689453 307.30444336 C125.132726 294.51202825 125.14374365 281.72004936 125.12697029 268.92749691 C125.11813011 261.17585077 125.12764053 253.42506818 125.18164062 245.67358398 C125.22870624 238.91062957 125.24002756 232.14867822 125.2099179 225.38561159 C125.19520863 221.81015989 125.19738306 218.23665962 125.24249649 214.66142082 C125.43546699 198.33287481 125.17970362 186.5128266 114 174 C112.8490454 172.33064851 111.72693948 170.64069065 110.64697266 168.92456055 C109.91121758 167.80590858 109.91121758 167.80590858 109.16059875 166.66465759 C108.66674179 165.91293777 108.17288483 165.16121796 107.6640625 164.38671875 C106.51935452 162.64676554 105.37457616 160.90685864 104.22973633 159.16699219 C103.64237701 158.27411499 103.0550177 157.38123779 102.44985962 156.46130371 C94.07690985 143.73434165 85.69307821 131.01524094 77.23046875 118.34765625 C76.60346069 117.40891159 75.97645264 116.47016693 75.33044434 115.50297546 C72.34535391 111.03547583 69.35685535 106.57030087 66.36376953 102.1081543 C61.00703635 94.10887637 55.74840363 86.07059183 50.68322754 77.88343811 C46.37983669 70.95045568 41.84758235 64.17576072 37.29907227 57.40200806 C34.69977764 53.52990643 32.10988129 49.65152624 29.51953125 45.7734375 C28.72145554 44.57896751 28.72145554 44.57896751 27.90725708 43.36036682 C22.42240999 35.14557089 16.97339812 26.90731832 11.5430603 18.65640259 C10.51595765 17.09623766 9.4879856 15.53664471 8.45913696 13.97763062 C7.03293057 11.81603519 5.60974204 9.65248643 4.1875 7.48828125 C3.76059372 6.84214874 3.33368744 6.19601624 2.8938446 5.53030396 C0 1.11463178 0 1.11463178 0 0 Z " fill="#000000" transform="translate(1007,798)"/>
<path d="M0 0 C86.13 0 172.26 0 261 0 C261 16.5 261 33 261 50 C227.01 50 193.02 50 158 50 C158 138.77 158 227.54 158 319 C140.18 319 122.36 319 104 319 C104 230.23 104 141.46 104 50 C69.68 50 35.36 50 0 50 C0 33.5 0 17 0 0 Z " fill="#000000" transform="translate(735,798)"/>
<path d="M0 0 C13 0 13 0 17.4375 4.3125 C18.54999928 5.89801449 19.65924234 7.4864428 20.72460938 9.10400391 C22.68151485 12.01314019 24.80085918 14.7969185 26.90039062 17.60400391 C29.34823446 20.88585354 31.75953212 24.19392468 34.17382812 27.50048828 C37.08587243 31.4862516 40.0105668 35.46266266 42.9375 39.4375 C43.51201904 40.21802734 44.08653809 40.99855469 44.6784668 41.80273438 C49.53625795 48.39241018 54.44781066 54.94091929 59.36791992 61.48413086 C65.50554864 69.65452294 71.56660062 77.88058797 77.61230469 86.11914062 C79.0643563 88.08722746 80.53253447 90.04337929 82 92 C82.33 61.64 82.66 31.28 83 0 C87.29 0 91.58 0 96 0 C96 38.61 96 77.22 96 117 C83 117 83 117 78.5 112.625 C77.38798028 111.04274327 76.2789444 109.45760367 75.21923828 107.83984375 C73.41501702 105.11725436 71.48064837 102.49359442 69.55786133 99.85400391 C67.89371748 97.56477183 66.24798441 95.26293856 64.6015625 92.9609375 C60.77257218 87.64632448 56.79988007 82.44628738 52.8125 77.25 C48.44959396 71.56147915 44.12074256 65.86681991 40 60 C35.03334396 52.94836548 29.7934788 46.11429336 24.53125 39.28125 C23.87382813 38.4253125 23.21640625 37.569375 22.5390625 36.6875 C21.95334473 35.92824219 21.36762695 35.16898438 20.76416016 34.38671875 C18.74782551 31.65883506 16.88164861 28.82247292 15 26 C14.67 56.03 14.34 86.06 14 117 C9.38 117 4.76 117 0 117 C0 78.39 0 39.78 0 0 Z " fill="#000000" transform="translate(1304,1165)"/>
<path d="M0 0 C13 0 13 0 17.4375 4.3125 C18.54999928 5.89801449 19.65924234 7.4864428 20.72460938 9.10400391 C22.68151485 12.01314019 24.80085918 14.7969185 26.90039062 17.60400391 C29.34823446 20.88585354 31.75953212 24.19392468 34.17382812 27.50048828 C37.08587243 31.4862516 40.0105668 35.46266266 42.9375 39.4375 C43.51201904 40.21802734 44.08653809 40.99855469 44.6784668 41.80273438 C49.53625795 48.39241018 54.44781066 54.94091929 59.36791992 61.48413086 C65.50554864 69.65452294 71.56660062 77.88058797 77.61230469 86.11914062 C79.0643563 88.08722746 80.53253447 90.04337929 82 92 C82.33 61.64 82.66 31.28 83 0 C87.29 0 91.58 0 96 0 C96 38.61 96 77.22 96 117 C83 117 83 117 78.5 112.625 C77.38798028 111.04274327 76.2789444 109.45760367 75.21923828 107.83984375 C73.41501702 105.11725436 71.48064837 102.49359442 69.55786133 99.85400391 C67.89371748 97.56477183 66.24798441 95.26293856 64.6015625 92.9609375 C60.77257218 87.64632448 56.79988007 82.44628738 52.8125 77.25 C48.44959396 71.56147915 44.12074256 65.86681991 40 60 C35.03334396 52.94836548 29.7934788 46.11429336 24.53125 39.28125 C23.87382813 38.4253125 23.21640625 37.569375 22.5390625 36.6875 C21.95334473 35.92824219 21.36762695 35.16898438 20.76416016 34.38671875 C18.74782551 31.65883506 16.88164861 28.82247292 15 26 C14.67 56.03 14.34 86.06 14 117 C9.38 117 4.76 117 0 117 C0 78.39 0 39.78 0 0 Z " fill="#000000" transform="translate(502,1165)"/>
<path d="M0 0 C1.85207152 1.60751982 3.62898475 3.2362385 5.34375 4.98828125 C4.76050605 8.21369054 3.82160202 9.96404235 1.53125 12.30078125 C1.02980469 12.83316406 0.52835938 13.36554688 0.01171875 13.9140625 C-1.65625 14.98828125 -1.65625 14.98828125 -3.640625 14.828125 C-5.85998522 13.90339158 -7.27739069 12.80787459 -9.09375 11.23828125 C-19.00250575 3.52320876 -31.8303268 0.76776563 -44.140625 2.296875 C-56.37996225 4.44446057 -67.68256653 10.25985509 -75.0859375 20.41796875 C-82.79496969 33.03623537 -84.62566189 47.27468057 -81.97265625 61.70703125 C-78.41994585 74.08992227 -72.24247973 83.70754841 -61.16015625 90.5234375 C-48.52686267 96.96209976 -34.24794013 97.20545204 -20.83984375 93.1328125 C-18.33776797 92.19692156 -16.02546331 91.22520492 -13.65625 89.98828125 C-12.98561523 89.74134521 -12.31498047 89.49440918 -11.62402344 89.23999023 C-9.06021155 88.07874433 -7.51466937 87.1205361 -5.65625 84.98828125 C-4.49662676 80.21474258 -4.58501132 75.56759653 -4.65625 70.67578125 C-4.65625 66.15890625 -4.65625 61.64203125 -4.65625 56.98828125 C-16.86625 56.98828125 -29.07625 56.98828125 -41.65625 56.98828125 C-41.65625 52.69828125 -41.65625 48.40828125 -41.65625 43.98828125 C-25.15625 43.98828125 -8.65625 43.98828125 8.34375 43.98828125 C8.529375 51.57828125 8.715 59.16828125 8.90625 66.98828125 C9.02915405 70.55962891 9.02915405 70.55962891 9.15454102 74.203125 C9.45732442 89.00704869 9.45732442 89.00704869 6.58374023 94.11962891 C4.26946509 96.25454337 2.16619559 97.61153255 -0.65625 98.98828125 C-1.70147827 99.6239502 -1.70147827 99.6239502 -2.76782227 100.27246094 C-4.71177698 101.42425709 -6.67378634 102.40451491 -8.71875 103.36328125 C-9.37423828 103.69199219 -10.02972656 104.02070312 -10.70507812 104.359375 C-25.47237508 111.53247696 -43.48324204 111.48643418 -59.02734375 107.01953125 C-73.46584956 101.98561168 -84.31921563 92.70149628 -91.46875 79.23828125 C-99.28143971 63.01042535 -100.24052601 43.82878795 -94.9765625 26.60546875 C-89.77183827 12.34637219 -80.13150934 0.98720404 -66.65625 -6.01171875 C-45.11849032 -15.74336937 -19.12639156 -14.4854289 0 0 Z " fill="#000000" transform="translate(1162.65625,1175.01171875)"/>
<path d="M0 0 C27.72 0 55.44 0 84 0 C84 4.29 84 8.58 84 13 C60.9 13 37.8 13 14 13 C14 25.87 14 38.74 14 52 C35.78 52 57.56 52 80 52 C80 56.29 80 60.58 80 65 C58.22 65 36.44 65 14 65 C14 77.87 14 90.74 14 104 C37.43 104 60.86 104 85 104 C85 108.29 85 112.58 85 117 C56.95 117 28.9 117 0 117 C0 78.39 0 39.78 0 0 Z " fill="#000000" transform="translate(1548,1165)"/>
<path d="M0 0 C27.72 0 55.44 0 84 0 C84 4.29 84 8.58 84 13 C60.9 13 37.8 13 14 13 C14 25.87 14 38.74 14 52 C35.78 52 57.56 52 80 52 C80 56.29 80 60.58 80 65 C58.22 65 36.44 65 14 65 C14 77.87 14 90.74 14 104 C37.43 104 60.86 104 85 104 C85 108.29 85 112.58 85 117 C56.95 117 28.9 117 0 117 C0 78.39 0 39.78 0 0 Z " fill="#000000" transform="translate(1195,1165)"/>
<path d="M0 0 C27.72 0 55.44 0 84 0 C84 4.29 84 8.58 84 13 C60.9 13 37.8 13 14 13 C14 25.87 14 38.74 14 52 C35.78 52 57.56 52 80 52 C80 56.29 80 60.58 80 65 C58.22 65 36.44 65 14 65 C14 77.87 14 90.74 14 104 C37.43 104 60.86 104 85 104 C85 108.29 85 112.58 85 117 C56.95 117 28.9 117 0 117 C0 78.39 0 39.78 0 0 Z " fill="#000000" transform="translate(727,1165)"/>
<path d="M0 0 C2.43092762 1.92505023 4.81808865 3.88409716 7.171875 5.90234375 C5.24900466 10.19613188 2.54708631 12.67388076 -0.828125 15.90234375 C-3.76169127 14.52106815 -6.31481113 12.90629053 -8.953125 11.02734375 C-19.75740738 3.74735777 -31.26683707 1.45848695 -44.11328125 3.3984375 C-56.02847468 5.86509158 -65.91708427 11.07241592 -73.015625 21.15234375 C-80.9891148 33.77348269 -82.74621387 48.00621242 -80.1796875 62.5859375 C-76.94248597 74.10982158 -71.14889818 83.59794801 -60.828125 89.90234375 C-47.82092324 97.04392597 -35.43783464 98.49136452 -21.1171875 94.953125 C-13.97648456 92.67183154 -7.41625044 88.91238724 -1.828125 83.90234375 C2.30826836 85.49326427 5.40400748 88.50709293 8.171875 91.90234375 C8.171875 92.56234375 8.171875 93.22234375 8.171875 93.90234375 C-6.4442919 106.88598939 -23.1861959 111.79616827 -42.51953125 110.69140625 C-54.53358889 109.26851227 -65.20268484 105.25302168 -74.828125 97.90234375 C-75.65183594 97.29003906 -76.47554687 96.67773438 -77.32421875 96.046875 C-88.28923088 86.65562436 -94.76040882 71.67799853 -96.04833984 57.47363281 C-97.05460358 38.63434136 -93.53037312 21.95807204 -81.0859375 7.21875 C-60.26369489 -14.14386223 -24.18202825 -17.93611764 0 0 Z " fill="#000000" transform="translate(1518.828125,1174.09765625)"/>
<path d="M0 0 C31.35 0 62.7 0 95 0 C95 4.29 95 8.58 95 13 C81.47 13 67.94 13 54 13 C54 47.32 54 81.64 54 117 C49.71 117 45.42 117 41 117 C41 82.68 41 48.36 41 13 C27.47 13 13.94 13 0 13 C0 8.71 0 4.42 0 0 Z " fill="#000000" transform="translate(615,1165)"/>
<path d="M0 0 C4.62 0 9.24 0 14 0 C14 34.32 14 68.64 14 104 C35.12 104 56.24 104 78 104 C78 108.29 78 112.58 78 117 C52.26 117 26.52 117 0 117 C0 78.39 0 39.78 0 0 Z " fill="#000000" transform="translate(932,1165)"/>
<path d="M0 0 C4.62 0 9.24 0 14 0 C14 34.32 14 68.64 14 104 C35.12 104 56.24 104 78 104 C78 108.29 78 112.58 78 117 C52.26 117 26.52 117 0 117 C0 78.39 0 39.78 0 0 Z " fill="#000000" transform="translate(836,1165)"/>
<path d="M0 0 C4.62 0 9.24 0 14 0 C14 38.61 14 77.22 14 117 C9.38 117 4.76 117 0 117 C0 78.39 0 39.78 0 0 Z " fill="#000000" transform="translate(1027,1165)"/>
<path d="M0 0 C4.62 0 9.24 0 14 0 C14 38.61 14 77.22 14 117 C9.38 117 4.76 117 0 117 C0 78.39 0 39.78 0 0 Z " fill="#000000" transform="translate(458,1165)"/>
</svg>
