<?xml version="1.0" encoding="UTF-8"?>
<svg width="93px" height="24px" viewBox="0 0 93 24" version="1.1" xmlns="http://www.w3.org/2000/svg" xmlns:xlink="http://www.w3.org/1999/xlink">
    <!-- Synack Product Design 2018 -->
    <title>Synack Lockup Client</title>
    <desc>Synack Logo Client App</desc>
    <defs></defs>
    <g id="Page-1" stroke="none" stroke-width="1" fill="none" fill-rule="evenodd">
        <g id="Artboard" transform="translate(-33.000000, -18.000000)">
            <g id="Vertical-Nav" transform="translate(-93.000000, 0.000000)">
                <g id="Synack" transform="translate(93.000000, 0.000000)">
                    <g id="Synack_Lockup_Client_H" transform="translate(33.000000, 18.000000)">
                        <g id="Text" transform="translate(34.000000, 4.000000)" fill="#FFFFFF">
                            <polyline id="K" points="50.5025328 0.133986804 52.7823658 0.133986804 52.7823658 8.27283115 55.939627 4.15472623 58.8042224 4.15472623 55.1538704 8.65944619 58.8217311 13.709356 56.1118672 13.709356 53.7181564 10.2422049 52.7823658 11.4322276 52.7823658 13.709356 50.5025328 13.709356 50.5025328 0.133986804"></polyline>
                            <path d="M44.8849423,5.98132569 C46.1380249,5.98132569 47.0604348,6.69505462 47.4608575,7.70443872 L49.7932167,7.70443872 C49.236212,5.37222196 47.1997928,3.85793229 44.7978259,3.85793229 C41.9431948,3.85793229 39.7677023,6.10331725 39.7677023,8.92293088 C39.7677023,11.6555704 41.856363,14.0051535 44.8849423,14.0051535 C47.356517,14.0051535 49.2535784,12.3517906 49.7932167,10.2282548 L47.4608575,10.2282548 C47.1128186,11.0114492 46.3118308,11.8645361 44.8849423,11.8645361 C43.2663122,11.8645361 42.0653287,10.6459016 42.0653287,8.92293088 C42.0653287,8.08735273 42.3608415,7.32152472 42.8482384,6.79953748 C43.4052431,6.26004154 44.0492218,5.96410168 44.8849423,5.98132569" id="C"></path>
                            <path d="M36.736276,9.00990503 C36.701401,9.47993553 36.5967758,9.93245733 36.3707284,10.3501041 C35.935573,11.2204149 35.0998525,11.8819024 33.8292612,11.8819024 C31.7753333,11.8819024 30.9223888,10.1586471 30.9223888,8.97517231 L30.9223888,8.9576636 C30.9223888,7.47810665 31.9666479,5.98132569 33.8117525,5.98132569 C35.1868266,5.98132569 36.0749309,6.76466241 36.4749266,7.669706 C36.6666683,8.08735273 36.7535001,8.55724089 36.736276,9.00990503 L36.736276,9.00990503 Z M36.718625,5.54617025 C36.3011206,4.78048459 35.2392104,3.85793229 33.4981616,3.85793229 C30.8180482,3.85793229 28.6422711,5.9117179 28.6422711,8.92293088 C28.6422711,11.6208376 30.4349919,14.0051535 33.4981616,14.0051535 C34.8386453,14.0051535 36.1093789,13.4482912 36.718625,12.3342819 L36.718625,13.709356 L38.998885,13.709356 L38.998885,4.15387215 L36.718625,4.15387215 L36.718625,5.54617025 L36.718625,5.54617025 Z" id="A"></path>
                            <path d="M23.4752095,3.72640346 C21.0706804,3.72640346 18.9561125,5.67556387 18.9561125,8.08037772 L18.9561125,13.709356 L21.2265506,13.709356 L21.2265506,8.01831433 C21.2265506,6.8674371 22.324617,5.93449346 23.4752095,5.93449346 C24.6262291,5.93449346 25.7242955,6.8674371 25.7242955,8.01831433 L25.7242955,13.709356 L27.9944489,13.709356 L27.9944489,8.08037772 C27.9944489,5.67556387 25.8801657,3.72640346 23.4752095,3.72640346" id="N"></path>
                            <path d="M16.9060279,4.15387215 L14.3342408,10.7382849 L11.9440887,4.15387215 L9.37529086,4.15387215 L13.1755345,13.709356 C12.4703463,15.6549577 11.91263,15.5305462 10.7395466,15.3799429 L10.7395466,17.2878226 C11.1348448,17.3776437 11.7099275,17.4690306 12.4196707,17.4690306 C14.0898306,17.4690306 14.7377951,16.0118222 15.2811345,14.6348976 C15.7238343,13.5134862 19.3099877,4.15387215 19.3099877,4.15387215 L16.9060279,4.15387215" id="Y"></path>
                            <path d="M6.08806663,6.14160865 C3.55001579,5.40766641 3.20866717,4.85720973 3.20866717,4.15401449 C3.20866717,3.45067691 3.88638226,2.65552537 5.41519135,2.65552537 C6.94414278,2.65552537 8.96006403,3.48612136 8.96006403,3.48612136 L8.96006403,1.22080779 C8.22726057,0.959742996 6.91154527,0.601739751 5.20110114,0.601739751 C2.35728848,0.601739751 0.751327204,1.98279243 0.751327204,4.1844768 C0.751327204,6.56964673 2.02092201,7.53333737 5.08152948,8.319094 C7.08577826,8.83367918 7.25004694,9.65829659 7.25004694,10.1780063 C7.25004694,10.6978583 6.91368048,11.8293763 5.04836257,11.8293763 C3.09108837,11.8293763 1.01168026,10.9325889 1.01168026,10.9325889 L1.01168026,13.190358 C1.73281125,13.4623836 3.11628383,13.8783221 5.23184813,13.8783221 C8.3202133,13.8783221 9.77357837,12.318766 9.77357837,10.05573 C9.77357837,7.79297869 8.62597512,6.87540855 6.08806663,6.14160865" id="S"></path>
                        </g>
                        <g id="Bird" fill="#A0C6FF">
                            <polyline id="head" points="13.9096004 1.58887961 11.3500552 6.02228361 16.469288 6.02228361 13.9096004 1.58887961"></polyline>
                            <path d="M6.74896614,4.03582823 L0,0.0720276906 L1.11258583,3.613057 L5.56748426,6.22954116 L5.60961904,6.2501815 C7.19380119,7.02625852 8.41855663,8.44930362 9.263245,10.4892816 L1.91086901,6.1531007 L3.02559005,9.70124738 L12.9417817,15.5478745 C12.6106821,11.8010111 11.3183117,6.30541222 6.74896614,4.03582823" id="wing-l"></path>
                            <polyline id="body" points="3.76522618 12.0546739 4.88023191 15.6028206 11.4511217 19.4768 9.81000065 20.4433376 9.80729605 23.3449432 13.9097428 20.9263217 18.0120472 23.3449432 18.0093426 20.4433376 16.3682215 19.4768 22.9391113 15.6028206 24.054117 12.0546739 13.9097428 18.0289865 3.76522618 12.0546739"></polyline>
                            <path d="M22.2094395,6.2501815 L22.2517166,6.22954116 L26.7064727,3.613057 L27.8190585,0.0720276906 L21.0705194,4.03582823 C16.5007468,6.30541222 15.2083764,11.8010111 14.8775615,15.5478745 L24.7934685,9.70124738 L25.9086165,6.1531007 L18.5560982,10.4892816 C19.4006442,8.44930362 20.625542,7.02625852 22.2094395,6.2501815" id="wing-r"></path>
                        </g>
                    </g>
                </g>
            </g>
        </g>
    </g>
</svg>