<svg width="75" height="75" viewBox="0 0 75 75" fill="none" xmlns="http://www.w3.org/2000/svg">
    <rect width="75" height="75" fill="white"/>
    <path d="M37.4753 21.9626L33.4872 28.8728H41.4633L37.4753 21.9626Z" fill="#016BFF"/>
    <path d="M26.3174 25.7774L15.8011 19.6L17.542 25.1179L24.4855 29.1948L24.5499 29.2281C27.0191 30.436 28.9287 32.6543 30.2433 35.8341L18.7788 29.0749L20.5152 34.615L35.9722 43.7191C35.4526 37.877 33.4386 29.3125 26.3174 25.7774Z" fill="#016BFF"/>
    <path d="M21.6678 38.2724L23.4064 43.8014L33.6452 49.839L31.0872 51.3445L31.0828 55.8654L37.4756 52.0972L43.8685 55.8654L43.864 51.3445L41.3082 49.839L51.547 43.8014L53.2834 38.2724L37.4756 47.583L21.6678 38.2724Z" fill="#016BFF"/>
    <path d="M50.4055 29.2281L50.4699 29.1948L57.4134 25.1179L59.1454 19.6L48.6291 25.7774C41.5234 29.3125 39.5005 37.877 38.9832 43.7191L54.4357 34.615L56.1744 29.086L44.7165 35.8452C46.0333 32.6543 47.9407 30.436 50.4055 29.2281Z" fill="#016BFF"/>
</svg>