<svg width="270" height="270" viewBox="0 0 270 270" fill="none" xmlns="http://www.w3.org/2000/svg">
<path fill-rule="evenodd" clip-rule="evenodd" d="M269.761 134.88C269.761 209.373 209.373 269.761 134.88 269.761C60.388 269.761 0 209.373 0 134.88C0 60.388 60.388 0 134.88 0C209.373 0 269.761 60.388 269.761 134.88ZM174.118 49.0468L210.223 89.5108H138.013L174.118 49.0468ZM210.904 171.665V98.0936H137.333V171.665H210.904ZM90.7376 220.712L54.6328 180.248L126.842 180.248L90.7376 220.712ZM53.9521 171.665H127.523L127.523 98.0942L53.9521 98.0942L53.9521 171.665Z" fill="black"/>
<path fill-rule="evenodd" clip-rule="evenodd" d="M269.761 134.88C269.761 209.373 209.373 269.761 134.88 269.761C60.388 269.761 0 209.373 0 134.88C0 60.388 60.388 0 134.88 0C209.373 0 269.761 60.388 269.761 134.88ZM174.118 49.0468L210.223 89.5108H138.013L174.118 49.0468ZM210.904 171.665V98.0936H137.333V171.665H210.904ZM90.7376 220.712L54.6328 180.248L126.842 180.248L90.7376 220.712ZM53.9521 171.665H127.523L127.523 98.0942L53.9521 98.0942L53.9521 171.665Z" fill="black"/>
<circle cx="134.88" cy="134.88" r="134.88" fill="#514DF6"/>
<path d="M90.7377 220.712L54.6329 180.248L126.843 180.248L90.7377 220.712Z" fill="#0DDE47"/>
<path d="M174.118 49.0469L210.223 89.511H138.013L174.118 49.0469Z" fill="#0DDE47"/>
<rect x="137.333" y="98.0938" width="73.5711" height="73.5711" fill="white"/>
<rect x="127.523" y="171.665" width="73.5711" height="73.5711" transform="rotate(-180 127.523 171.665)" fill="white"/>
</svg>
