<?xml version="1.0" standalone="yes"?>
<svg xmlns="http://www.w3.org/2000/svg" width="5000" height="1004">
<path style="fill:#010101; stroke:none;" d="M0 0L0 1004L5000 1004L5000 0L0 0z"/>
<path style="fill:#e32319; stroke:none;" d="M656 574L437 574L437 444L1011 444C1004.47 392.624 985.801 341.867 960.281 297C934.601 251.853 900.094 212.274 860 179.424C713.818 59.6541 497.143 57.4317 346 168.884C302.027 201.31 264.54 243.181 236.449 290C209.427 335.038 191.118 385.222 182.435 437C150.273 628.79 258.289 819.49 437 894.424C476.172 910.849 518.661 920.985 561 924.089C576.471 925.223 592.528 927.111 608 925.286C619.185 923.966 630.733 924.122 642 923.075C645.294 922.769 652.734 923.23 654.972 920.397C658.572 915.84 656 901.664 656 896L656 830L656 574z"/>
<path style="fill:#a61501; stroke:none;" d="M646 89L647 90L646 89M505 96L506 97L505 96M687 96L688 97L687 96M481 102L482 103L481 102M730 108L731 109L730 108M456 110L457 111L456 110M453 111L454 112L453 111M445 114L446 115L445 114M749 115L750 116L749 115M440 116L441 117L440 116M419 125L420 126L419 125M399 135L400 136L399 135M397 136L398 137L397 136M798 138L799 139L798 138M805 142L806 143L805 142M820 151L821 152L820 151M823 153L824 154L823 153M352 164L353 165L352 164M299 209L300 210L299 209M903 220L904 221L903 220M283 226L284 227L283 226M918 237L919 238L918 237M264 249L265 250L264 249M930 252L931 253L930 252M933 256L934 257L933 256M255 261L256 262L255 261M938 263L939 264L938 263M248 271L249 272L248 271M239 285L240 286L239 285M233 295L234 296L233 295M969 314L970 315L969 314M970 316L971 317L970 316M971 318L972 319L971 318M972 320L973 321L972 320z"/>
<path style="fill:#fefefe; stroke:none;" d="M1166 321L1166 322L1702 322C1689.83 316.893 1668.25 321 1655 321L1546 321L1166 321M1893 322L1893 323C1911.71 318.546 1934.78 322 1954 322L2078 322C2065.12 316.594 2042.04 321 2028 321L1937 321C1923.41 321 1906.03 318.148 1893 322M2367 321L2367 322L2585 322L2564 321L2520 321L2367 321M2850 321L2850 322L2991 322C2980.02 317.393 2960.94 321 2949 321L2850 321M3081 321L3081 322L3222 322C3211.02 317.393 3191.94 321 3180 321L3081 321M3311 321L3311 322L3452 322L3452 599L3453 579L3453 536L3453 387L3453 339L3451.4 322.028L3441 321L3414 321L3311 321M3748 321L3748 322L3889 322L3889 628L3890 606L3890 558L3890 393L3890 340L3888.4 322.028L3878 321L3851 321L3748 321M3971 321L3971 322L4188 322L4168 321L4124 321L3971 321z"/>
<path style="fill:#efe7df; stroke:none;" d="M4346 626L4309.26 555L4229.25 401L4199.25 343L4186.79 322.603L4168 322L4124 322L3971 322L3971 797L4109 797L4109 457L4110 457C4120.92 483.229 4137.18 508.018 4150.69 533C4182.4 591.636 4213.92 650.392 4245.69 709C4257.24 730.301 4268.91 751.573 4280.22 773C4283.33 778.889 4288.08 793.555 4294.34 796.397C4300.37 799.134 4311.43 797 4318 797L4374 797C4380.27 797 4394.1 799.603 4399.37 795.972C4406.01 791.384 4410.56 777.057 4414.3 770C4425.47 748.91 4436.96 727.988 4448.31 707C4477.69 652.692 4506.88 598.278 4536.31 544C4546.97 524.34 4557.66 504.707 4568.23 485C4573.23 475.692 4580.07 466.182 4583 456L4584 456L4584 797L4722 797L4722 321L4564 321L4522 321L4505.39 322.028L4493.14 344L4459.75 408L4384.78 552L4346 626z"/>
<path style="fill:#a61501; stroke:none;" d="M973 322L974 323L973 322z"/>
<path style="fill:#efe7df; stroke:none;" d="M1166 322L1166 440L1363 440L1363 797L1505 797L1505 440L1702 440L1702 322L1166 322M1646 797L1758 797L1789 797C1792.95 797 1798.96 798.112 1802.61 796.397C1807.29 794.197 1810.05 784.396 1812.25 780C1820.22 764.06 1827.78 747.939 1835.75 732C1839.18 725.143 1842.06 713.408 1851 713.019C1915.39 710.218 1980.54 713 2045 713L2102 713C2109.12 713 2120.26 710.89 2126.9 713.603C2132.91 716.061 2137.42 729.437 2140.24 735C2147.73 749.724 2155.13 764.556 2163.14 779C2165.86 783.912 2167.94 791.811 2172.39 795.397C2175.6 797.984 2181.15 797 2185 797L2214 797L2330 797C2316.22 763.892 2295.71 732.87 2279.26 701C2236.52 618.19 2190.87 536.876 2148.26 454C2131.7 421.802 2114.53 389.849 2097.31 358C2092.42 348.958 2086.36 328.583 2077.61 323.028C2069.69 317.996 2048.35 322 2039 322L1936 322L1906 322C1902.26 322 1896.67 320.979 1893.61 323.603C1883.36 332.389 1876.92 354.026 1870.74 366C1854.89 396.713 1839.13 427.597 1822.69 458C1782.98 531.423 1745.69 606.19 1706.7 680C1692.3 707.267 1677.55 734.419 1663.75 762C1658.04 773.42 1649.85 784.821 1646 797M2367 322L2367 797L2508 797L2508 452L2509 452C2514.73 463.499 2524.69 473.876 2532.58 484C2546.77 502.221 2560.74 520.648 2574.77 539C2617.06 594.318 2659.8 649.327 2701.63 705C2718.03 726.838 2735.09 748.183 2751.53 770C2756.91 777.149 2764.73 792.94 2773.17 796.397C2778.57 798.608 2787.23 797 2793 797L2837 797L2991 797L2991 322L2850 322L2850 667C2785.03 585.15 2722.71 501.02 2659.23 418C2641.65 395.004 2623.89 372.121 2606.47 349C2601.11 341.881 2593.2 326.062 2584.83 322.603C2579.45 320.382 2570.76 322 2565 322L2521 322L2367 322M3080 322L3080 797L3222 797L3222 322L3080 322M3311 322L3311 584C3311 634.793 3307.29 690.234 3336.09 735C3385.64 812.036 3488.41 803 3568 803L3642 803C3679.4 803 3716.91 804.083 3754 798.87C3794.7 793.149 3837.3 775.161 3860.91 740C3892.48 692.976 3889 637.009 3889 583L3889 322L3748 322L3748 549C3748 580.951 3754.59 623.637 3736.45 652C3723.03 672.987 3701.69 676.608 3679 679.286C3656.78 681.908 3633.38 680 3611 680C3578.72 680 3546.17 681.178 3514 678.911C3493.52 677.467 3473.34 668.333 3462.88 650C3446.01 620.45 3452 577.698 3452 545L3452 322L3311 322z"/>
<path style="fill:#fefefe; stroke:none;" d="M1892 324L1893 325L1892 324M2079 324L2080 325L2079 324M2587 324L2588 325L2587 324M1891 326L1892 327L1891 326M2080 326L2081 327L2080 326M2081 328L2082 329L2081 328M2590 328L2591 329L2590 328M4191 328L4192 329L4191 328M1889 330L1890 331L1889 330M4192 330L4193 331L4192 330M2083 332L2084 333L2083 332M4193 332L4194 333L4193 332M2594 333L2595 334L2594 333z"/>
<path style="fill:#a61501; stroke:none;" d="M213 334L214 335L213 334z"/>
<path style="fill:#fefefe; stroke:none;" d="M4194 334L4195 335L4194 334z"/>
<path style="fill:#a61501; stroke:none;" d="M979 335L980 336L979 335z"/>
<path style="fill:#fefefe; stroke:none;" d="M2597 337L2598 338L2597 337M4495 339L4496 340L4495 339M2088 341L2089 342L2088 341M2600 341L2601 342L2600 341M4494 341L4495 342L4494 341M1882 343L1883 344L1882 343M2089 343L2090 344L2089 343M4493 343L4494 344L4493 343M1881 345L1882 346L1881 345M2090 345L2091 346L2090 345M4492 345L4493 346L4492 345M1880 347L1881 348L1880 347M1879 349L1880 350L1879 349M2606 349L2607 350L2606 349M2607 350L2608 351L2607 350M4204 353L4205 354L4204 353M2610 354L2611 355L2610 354M4205 355L4206 356L4205 355M4206 357L4207 358L4206 357M2097 358L2098 359L2097 358M2613 358L2614 359L2613 358M4207 359L4208 360L4207 359M2098 360L2099 361L2098 360z"/>
<path style="fill:#a61501; stroke:none;" d="M202 361L203 362L202 361z"/>
<path style="fill:#fefefe; stroke:none;" d="M4482 364L4483 365L4482 364M1870 366L1871 367L1870 366M4481 366L4482 367L4481 366M2620 367L2621 368L2620 367z"/>
<path style="fill:#a61501; stroke:none;" d="M992 368L993 369L992 368z"/>
<path style="fill:#fefefe; stroke:none;" d="M1869 368L1870 369L1869 368M4480 368L4481 369L4480 368M1868 370L1869 371L1868 370M4479 370L4480 371L4479 370M2623 371L2624 372L2623 371M2105 373L2106 374L2105 373M4477 374L4478 375L4477 374M2106 375L2107 376L2106 375M2626 375L2627 376L2626 375z"/>
<path style="fill:#a61501; stroke:none;" d="M995 377L996 378L995 377z"/>
<path style="fill:#fefefe; stroke:none;" d="M2107 377L2108 378L2107 377M4217 378L4218 379L4217 378M4218 380L4219 381L4218 380M2109 381L2110 382L2109 381M4219 382L4220 383L4219 382M2633 384L2634 385L2633 384M4220 384L4221 385L4220 384z"/>
<path style="fill:#a61501; stroke:none;" d="M998 387L999 388L998 387z"/>
<path style="fill:#fefefe; stroke:none;" d="M1859 387L1860 388L1859 387M2636 388L2637 389L2636 388M1858 389L1859 390L1858 389M4469 389L4470 390L4469 389M2114 390L2115 391L2114 390M1857 391L1858 392L1857 391M4468 391L4469 392L4468 391M2115 392L2116 393L2115 392M2639 392L2640 393L2639 392M1856 393L1857 394L1856 393M4467 393L4468 394L4467 393M2116 394L2117 395L2116 394M4466 395L4467 396L4466 395M2643 397L2644 398L2643 397M4464 399L4465 400L4464 399M2646 401L2647 402L2646 401M4230 403L4231 404L4230 403M2122 405L2123 406L2122 405M2649 405L2650 406L2649 405M4231 405L4232 406L4231 405M2123 407L2124 408L2123 407M4232 407L4233 408L4232 407M2124 409L2125 410L2124 409M2652 409L2653 410L2652 409M4233 409L4234 410L4233 409M1847 410L1848 411L1847 410M1846 412L1847 413L1846 412z"/>
<path style="fill:#a61501; stroke:none;" d="M1005 414L1006 415L1005 414z"/>
<path style="fill:#fefefe; stroke:none;" d="M1845 414L1846 415L1845 414M2656 414L2657 415L2656 414M4456 414L4457 415L4456 414z"/>
<path style="fill:#a61501; stroke:none;" d="M186 416L187 417L186 416z"/>
<path style="fill:#fefefe; stroke:none;" d="M1844 416L1845 417L1844 416M4455 416L4456 417L4455 416M2658 417L2659 418L2658 417M2659 418L2660 419L2659 418M4454 418L4455 419L4454 418M1842 420L1843 421L1842 420M4453 420L4454 421L4453 420M2131 422L2132 423L2131 422M2662 422L2663 423L2662 422M2132 424L2133 425L2132 424M2133 426L2134 427L2133 426M2665 426L2666 427L2665 426M4242 426L4243 427L4242 426M4450 426L4451 427L4450 426M4243 428L4244 429L4243 428z"/>
<path style="fill:#a61501; stroke:none;" d="M1008 429L1009 430L1008 429z"/>
<path style="fill:#fefefe; stroke:none;" d="M4244 430L4245 431L4244 430z"/>
<path style="fill:#a61501; stroke:none;" d="M183 431L184 432L183 431z"/>
<path style="fill:#fefefe; stroke:none;" d="M1836 431L1837 432L1836 431M2669 431L2670 432L2669 431M4245 432L4246 433L4245 432M1835 433L1836 434L1835 433z"/>
<path style="fill:#010101; stroke:none;" d="M1985 433L1962.25 480L1919.75 565L1898 610L2076 610L2016.25 492L1996.25 453L1985 433z"/>
<path style="fill:#fefefe; stroke:none;" d="M4246 434L4247 435L4246 434M1834 435L1835 436L1834 435M2672 435L2673 436L2672 435M1833 437L1834 438L1833 437M1983 437L1984 438L1983 437M1982 439L1983 440L1982 439M2140 439L2141 440L2140 439M2675 439L2676 440L2675 439M4443 439L4444 440L4443 439M1981 441L1982 442L1981 441M2141 441L2142 442L2141 441M4442 441L4443 442L4442 441M1980 443L1981 444L1980 443M2142 443L2143 444L2142 443M4441 443L4442 444L4441 443M1979 445L1980 446L1979 445M2143 445L2144 446L2143 445M4440 445L4441 446L4440 445M1978 447L1979 448L1978 447M2682 448L2683 449L2682 448M1977 449L1978 450L1977 449M1976 451L1977 452L1976 451M4255 451L4256 452L4255 451M4437 451L4438 452L4437 451M2685 452L2686 453L2685 452M1975 453L1976 454L1975 453M2509 453L2510 454L2509 453M4256 453L4257 454L4256 453M1824 454L1825 455L1824 454M2148 454L2149 455L2148 454M1974 455L1975 456L1974 455M1997 455L1998 456L1997 455M4257 455L4258 456L4257 455M1823 456L1824 457L1823 456M2149 456L2150 457L2149 456M2688 456L2689 457L2688 456M4583 456L4584 457L4583 456M1973 457L1974 458L1973 457M2512 457L2513 458L2512 457M4258 457L4259 458L4258 457M1822 458L1823 459L1822 458M2150 458L2151 459L2150 458M4110 458L4111 459L4110 458M4582 458L4583 459L4582 458M1972 459L1973 460L1972 459M4259 459L4260 460L4259 459M1821 460L1822 461L1821 460M4111 460L4112 461L4111 460M1971 461L1972 462L1971 461M2152 462L2153 463L2152 462M1970 463L1971 464L1970 463M2694 464L2695 465L2694 464M4430 464L4431 465L4430 464M1969 465L1970 466L1969 465M2002 465L2003 466L2002 465M2695 465L2696 466L2695 465M2519 466L2520 467L2519 466M4429 466L4430 467L4429 466M1968 467L1969 468L1968 467M2003 467L2004 468L2003 467M4115 467L4116 468L4115 467M4577 467L4578 468L4577 467M4428 468L4429 469L4428 468M1967 469L1968 470L1967 469M2004 469L2005 470L2004 469M2698 469L2699 470L2698 469M4576 469L4577 470L4576 469M2522 470L2523 471L2522 470M4427 470L4428 471L4427 470M1966 471L1967 472L1966 471M2005 471L2006 472L2005 471M2157 471L2158 472L2157 471M4117 471L4118 472L4117 471M1965 473L1966 474L1965 473M2006 473L2007 474L2006 473M2158 473L2159 474L2158 473M2701 473L2702 474L2701 473M4118 473L4119 474L4118 473M2525 474L2526 475L2525 474M1964 475L1965 476L1964 475M2007 475L2008 476L2007 475M2159 475L2160 476L2159 475M4268 476L4269 477L4268 476M4424 476L4425 477L4424 476M1812 477L1813 478L1812 477M1963 477L1964 478L1963 477M2008 477L2009 478L2008 477M4269 478L4270 479L4269 478M1811 479L1812 480L1811 479M1962 479L1963 480L1962 479M2009 479L2010 480L2009 479M4270 480L4271 481L4270 480M4570 480L4571 481L4570 480M1810 481L1811 482L1810 481M1961 481L1962 482L1961 481M2708 482L2709 483L2708 482M4123 482L4124 483L4123 482M4271 482L4272 483L4271 482M4569 482L4570 483L4569 482z"/>
<path style="fill:#a61501; stroke:none;" d="M177 483L178 484L177 483z"/>
<path style="fill:#fefefe; stroke:none;" d="M1960 483L1961 484L1960 483M2532 483L2533 484L2532 483M4124 484L4125 485L4124 484M4272 484L4273 485L4272 484M1959 485L1960 486L1959 485M2711 486L2712 487L2711 486M1958 487L1959 488L1958 487M2535 487L2536 488L2535 487M2166 488L2167 489L2166 488M1957 489L1958 490L1957 489M4417 489L4418 490L4417 489M4565 489L4566 490L4565 489M2167 490L2168 491L2167 490M2714 490L2715 491L2714 490M1956 491L1957 492L1956 491M2538 491L2539 492L2538 491M4416 491L4417 492L4416 491M2539 492L2540 493L2539 492M1955 493L1956 494L1955 493M4415 493L4416 494L4415 493M4563 493L4564 494L4563 493M1954 495L1955 496L1954 495M2718 495L2719 496L2718 495M4130 495L4131 496L4130 495M4414 495L4415 496L4414 495M4562 495L4563 496L4562 495M4131 497L4132 498L4131 497M1801 498L1802 499L1801 498M2721 499L2722 500L2721 499M1800 500L1801 501L1800 500M2545 500L2546 501L2545 500M4281 501L4282 502L4281 501M4411 501L4412 502L4411 501M1799 502L1800 503L1799 502M2021 502L2022 503L2021 502M2174 503L2175 504L2174 503M2724 503L2725 504L2724 503M4282 503L4283 504L4282 503M1798 504L1799 505L1798 504M2548 504L2549 505L2548 504M4557 504L4558 505L4557 504M2175 505L2176 506L2175 505M4283 505L4284 506L4283 505M4556 506L4557 507L4556 506M2176 507L2177 508L2176 507M2727 507L2728 508L2727 507M4284 507L4285 508L4284 507M2551 508L2552 509L2551 508M4137 508L4138 509L4137 508M4285 509L4286 510L4285 509M2025 510L2026 511L2025 510M4138 510L4139 511L4138 510M2178 511L2179 512L2178 511M2026 512L2027 513L2026 512M2731 512L2732 513L2731 512M2027 514L2028 515L2027 514M4404 514L4405 515L4404 514M1944 515L1945 516L1944 515M2733 515L2734 516L2733 515M2028 516L2029 517L2028 516M2734 516L2735 517L2734 516M4403 516L4404 517L4403 516M2558 517L2559 518L2558 517M4550 517L4551 518L4550 517M2029 518L2030 519L2029 518M4402 518L4403 519L4402 518M4549 519L4550 520L4549 519M2030 520L2031 521L2030 520M2183 520L2184 521L2183 520M2737 520L2738 521L2737 520M4401 520L4402 521L4401 520M1789 521L1790 522L1789 521M2561 521L2562 522L2561 521M4144 521L4145 522L4144 521M2031 522L2032 523L2031 522M2184 522L2185 523L2184 522M4400 522L4401 523L4400 522M1788 523L1789 524L1788 523M4145 523L4146 524L4145 523M2032 524L2033 525L2032 524M2185 524L2186 525L2185 524M2740 524L2741 525L2740 524M1787 525L1788 526L1787 525M1939 525L1940 526L1939 525M2564 525L2565 526L2564 525M4294 526L4295 527L4294 526z"/>
<path style="fill:#a61501; stroke:none;" d="M177 527L178 528L177 527z"/>
<path style="fill:#fefefe; stroke:none;" d="M1938 527L1939 528L1938 527M4295 528L4296 529L4295 528M2744 529L2745 530L2744 529M2568 530L2569 531L2568 530M4149 530L4150 531L4149 530M4296 530L4297 531L4296 530M4543 530L4544 531L4543 530M1784 531L1785 532L1784 531M2746 532L2747 533L2746 532M4150 532L4151 533L4150 532M4297 532L4298 533L4297 532M4542 532L4543 533L4542 532M2747 533L2748 534L2747 533M2571 534L2572 535L2571 534M4151 534L4152 535L4151 534M4298 534L4299 535L4298 534M2191 535L2192 536L2191 535M2192 537L2193 538L2192 537M2750 537L2751 538L2750 537M2574 538L2575 539L2574 538M2193 539L2194 540L2193 539M2575 539L2576 540L2575 539M4391 539L4392 540L4391 539M2753 541L2754 542L2753 541M4390 541L4391 542L4390 541M4537 541L4538 542L4537 541M1778 542L1779 543L1778 542M2577 542L2578 543L2577 542M4389 543L4390 544L4389 543M4536 543L4537 544L4536 543M1777 544L1778 545L1777 544M4157 545L4158 546L4157 545M4388 545L4389 546L4388 545M4535 545L4536 546L4535 545M1776 546L1777 547L1776 546M2757 546L2758 547L2757 546M2581 547L2582 548L2581 547M4158 547L4159 548L4158 547M4387 547L4388 548L4387 547M1775 548L1776 549L1775 548M2760 550L2761 551L2760 550M2584 551L2585 552L2584 551M4307 551L4308 552L4307 551M2200 552L2201 553L2200 552M4531 552L4532 553L4531 552M4308 553L4309 554L4308 553M2201 554L2202 555L2201 554M2763 554L2764 555L2763 554M4530 554L4531 555L4530 554M2587 555L2588 556L2587 555M4309 555L4310 556L4309 555M2202 556L2203 557L2202 556M4529 556L4530 557L4529 556M2049 557L2050 558L2049 557M4310 557L4311 558L4310 557M4164 558L4165 559L4164 558M2050 559L2051 560L2050 559M2590 559L2591 560L2590 559M4311 559L4312 560L4311 559z"/>
<path style="fill:#a61501; stroke:none;" d="M180 560L181 561L180 560z"/>
<path style="fill:#fefefe; stroke:none;" d="M4165 560L4166 561L4165 560M2051 561L2052 562L2051 561M2052 563L2053 564L2052 563M2770 563L2771 564L2770 563M2594 564L2595 565L2594 564M4378 564L4379 565L4378 564M1766 565L1767 566L1766 565M2053 565L2054 566L2053 565M4377 566L4378 567L4377 566M1765 567L1766 568L1765 567M2054 567L2055 568L2054 567M2773 567L2774 568L2773 567M4523 567L4524 568L4523 567M2597 568L2598 569L2597 568M4376 568L4377 569L4376 568M1764 569L1765 570L1764 569M2055 569L2056 570L2055 569M2209 569L2210 570L2209 569M4170 569L4171 570L4170 569M4522 569L4523 570L4522 569M4375 570L4376 571L4375 570M1763 571L1764 572L1763 571M2056 571L2057 572L2056 571M2210 571L2211 572L2210 571M2776 571L2777 572L2776 571M4171 571L4172 572L4171 571M2600 572L2601 573L2600 572M4374 572L4375 573L4374 572M2211 573L2212 574L2211 573M4172 573L4173 574L4172 573z"/>
<path style="fill:#e32319; stroke:none;" d="M810 574L810 866C818.531 864.043 826.926 857.155 834 852.14C849.372 841.244 863.838 829.707 878 817.285C946.737 756.99 998.215 665.257 1010 574L810 574z"/>
<path style="fill:#fefefe; stroke:none;" d="M1761 575L1762 576L1761 575M2212 575L2213 576L2212 575M2603 576L2604 577L2603 576M4320 576L4321 577L4320 576M4321 578L4322 579L4321 578M2782 579L2783 580L2782 579M2783 580L2784 581L2783 580M4322 580L4323 581L4322 580M4516 580L4517 581L4516 580M2607 581L2608 582L2607 581M4177 582L4178 583L4177 582M4323 582L4324 583L4323 582M4515 582L4516 583L4515 582M2217 584L2218 585L2217 584M2786 584L2787 585L2786 584M4178 584L4179 585L4178 584M4324 584L4325 585L4324 584M2610 585L2611 586L2610 585M1755 586L1756 587L1755 586M2218 586L2219 587L2218 586z"/>
<path style="fill:#a61501; stroke:none;" d="M1007 587L1008 588L1007 587z"/>
<path style="fill:#fefefe; stroke:none;" d="M1754 588L1755 589L1754 588M2219 588L2220 589L2219 588M2789 588L2790 589L2789 588M2613 589L2614 590L2613 589M4365 589L4366 590L4365 589z"/>
<path style="fill:#a61501; stroke:none;" d="M185 590L186 591L185 590z"/>
<path style="fill:#fefefe; stroke:none;" d="M1753 590L1754 591L1753 590M4364 591L4365 592L4364 591M4510 591L4511 592L4510 591z"/>
<path style="fill:#a61501; stroke:none;" d="M1006 592L1007 593L1006 592z"/>
<path style="fill:#fefefe; stroke:none;" d="M1752 592L1753 593L1752 592M2221 592L2222 593L2221 592M4363 593L4364 594L4363 593M4509 593L4510 594L4509 593M2068 594L2069 595L2068 594M4184 595L4185 596L4184 595M4362 595L4363 596L4362 595M4508 595L4509 596L4508 595M1750 596L1751 597L1750 596M2796 597L2797 598L2796 597M4185 597L4186 598L4185 597M4361 597L4362 598L4361 597M2620 598L2621 599L2620 598M2226 601L2227 602L2226 601M2799 601L2800 602L2799 601M4333 601L4334 602L4333 601M2072 602L2073 603L2072 602M2623 602L2624 603L2623 602M2227 603L2228 604L2227 603M4334 603L4335 604L4334 603M2073 604L2074 605L2073 604M4189 604L4190 605L4189 604M4503 604L4504 605L4503 604M2228 605L2229 606L2228 605M2802 605L2803 606L2802 605M4335 605L4336 606L4335 605M2074 606L2075 607L2074 606M2626 606L2627 607L2626 606M4502 606L4503 607L4502 606M2627 607L2628 608L2627 607M4336 607L4337 608L4336 607M2075 608L2076 609L2075 608M4191 608L4192 609L4191 608M1743 609L1744 610L1743 609M4337 609L4338 610L4337 609M2806 610L2807 611L2806 610M3747.33 610.667L3747.67 611.333L3747.33 610.667M4192 610L4193 611L4192 610M1742 611L1743 612L1742 611z"/>
<path style="fill:#a61501; stroke:none;" d="M1001 613L1002 614L1001 613z"/>
<path style="fill:#fefefe; stroke:none;" d="M1741 613L1742 614L1741 613M2809 614L2810 615L2809 614M1740 615L1741 616L1740 615M2633 615L2634 616L2633 615M4351 616L4352 617L4351 616z"/>
<path style="fill:#a61501; stroke:none;" d="M1000 617L1001 618L1000 617z"/>
<path style="fill:#fefefe; stroke:none;" d="M3453 617L3454 618L3453 617M4496 617L4497 618L4496 617M2235 618L2236 619L2235 618M2812 618L2813 619L2812 618M4350 618L4351 619L4350 618M2636 619L2637 620L2636 619M4197 619L4198 620L4197 619M4495 619L4496 620L4495 619M2236 620L2237 621L2236 620M3746 620L3747 621L3746 620M4349 620L4350 621L4349 620M4198 621L4199 622L4198 621M2815 622L2816 623L2815 622M4348 622L4349 623L4348 622M2639 623L2640 624L2639 623M4199 623L4200 624L4199 623z"/>
<path style="fill:#a61501; stroke:none;" d="M998 624L999 625L998 624z"/>
<path style="fill:#fefefe; stroke:none;" d="M3454 624L3455 625L3454 624z"/>
<path style="fill:#a61501; stroke:none;" d="M194 626L195 627L194 626z"/>
<path style="fill:#fefefe; stroke:none;" d="M4491 626L4492 627L4491 626M2819 627L2820 628L2819 627M2643 628L2644 629L2643 628M3455 629L3456 630L3455 629M2821 630L2822 631L2821 630M4489 630L4490 631L4489 630M2822 631L2823 632L2822 631M3744 631L3745 632L3744 631M1731 632L1732 633L1731 632M2646 632L2647 633L2646 632M4204 632L4205 633L4204 632M4488 632L4489 633L4488 632M2243 633L2244 634L2243 633M1730 634L1731 635L1730 634M4205 634L4206 635L4205 634M2244 635L2245 636L2244 635M2825 635L2826 636L2825 635M3743 635L3744 636L3743 635M1729 636L1730 637L1729 636M2649 636L2650 637L2649 636M2245 637L2246 638L2245 637M3457 637L3458 638L3457 637M2828 639L2829 640L2828 639M2652 640L2653 641L2652 640M3458 640L3459 641L3458 640M2247 641L2248 642L2247 641M4483 641L4484 642L4483 641M4482 643L4483 644L4482 643M2832 644L2833 645L2832 644M2656 645L2657 646L2656 645M3460 645L3461 646L3460 645M4211 645L4212 646L4211 645M4481 645L4482 646L4481 645M3739 646L3740 647L3739 646M2834 647L2835 648L2834 647M3461 647L3462 648L3461 647M4212 647L4213 648L4212 647M2835 648L2836 649L2835 648M3311.33 648.667L3311.67 649.333L3311.33 648.667M3738 648L3739 649L3738 648M2659 649L2660 650L2659 649M3462 649L3463 650L3462 649M2252 650L2253 651L2252 650M3737 650L3738 651L3737 650M3463 651L3464 652L3463 651M2253 652L2254 653L2253 652M2838 652L2839 653L2838 652M3736 652L3737 653L3736 652M3888 652L3889 653L3888 652M1720 653L1721 654L1720 653M2662 653L2663 654L2662 653M2254 654L2255 655L2254 654M2663 654L2664 655L2663 654M3465 654L3466 655L3465 654M4216 654L4217 655L4216 654M4476 654L4477 655L4476 654M1719 655L1720 656L1719 655M2841 656L2842 657L2841 656M3733 656L3734 657L3733 656M4475 656L4476 657L4475 656M1718 657L1719 658L1718 657M2665 657L2666 658L2665 657M3468 658L3469 659L3468 658M4218 658L4219 659L4218 658M1717 659L1718 660L1717 659M3312 660L3313 661L3312 660M3730 660L3731 661L3730 660M4219 660L4220 661L4219 660M2845 661L2846 662L2845 661M2669 662L2670 663L2669 662M3887 662L3888 663L3887 662z"/>
<path style="fill:#a61501; stroke:none;" d="M984 664L985 665L984 664z"/>
<path style="fill:#fefefe; stroke:none;" d="M3474 664L3475 665L3474 664M2260 665L2261 666L2260 665M2848 665L2849 666L2848 665M2672 666L2673 667L2672 666M3723 666L3724 667L3723 666M2261 667L2262 668L2261 667M3478 667L3479 668L3478 667M4469 667L4470 668L4469 667M3313 668L3314 669L3313 668M3720 668L3721 669L3720 668M2262 669L2263 670L2262 669M3481 669L3482 670L3481 669M4224 669L4225 670L4224 669M4468 669L4469 670L4468 669M2675 670L2676 671L2675 670M3886 670L3887 671L3886 670M3715 671L3716 672L3715 671M4225 671L4226 672L4225 671M3487 672L3488 673L3487 672M3710 673L3711 674L3710 673M2678 674L2679 675L2678 674M3492 674L3493 675L3492 674M3704 675L3705 676L3704 675M1708 676L1709 677L1708 676M3499 676L3500 677L3499 676M3885 676L3886 677L3885 676M4464 676L4465 677L4464 676M3504 677L3505 678L3504 677M1707 678L1708 679L1707 678M3510 678L3511 679L3510 678M3690 678L3691 679L3690 678M2682 679L2683 680L2682 679M3522.67 679.333L3523.33 679.667L3522.67 679.333M3677 679L3678 680L3677 679M1706 680L1707 681L1706 680M3315 680L3316 681L3315 680M4462 680L4463 681L4462 680M3884 681L3885 682L3884 681M1705 682L1706 683L1705 682M2269 682L2270 683L2269 682M4231 682L4232 683L4231 682M4461 682L4462 683L4461 682M2685 683L2686 684L2685 683M2270 684L2271 685L2270 684M4232 684L4233 685L4232 684z"/>
<path style="fill:#a61501; stroke:none;" d="M217 686L218 687L217 686z"/>
<path style="fill:#fefefe; stroke:none;" d="M1703 686L1704 687L1703 686M2271 686L2272 687L2271 686M3883 686L3884 687L3883 686M2688 687L2689 688L2688 687M3317 689L3318 690L3317 689M4457 689L4458 690L4457 689M3882 690L3883 691L3882 690M2691 691L2692 692L2691 691M4456 691L4457 692L4456 691z"/>
<path style="fill:#a61501; stroke:none;" d="M220 692L221 693L220 692M971 693L972 694L971 693z"/>
<path style="fill:#fefefe; stroke:none;" d="M4455 693L4456 694L4455 693M4238 695L4239 696L4238 695M2695 696L2696 697L2695 696M1697 697L1698 698L1697 697M4239 697L4240 698L4239 697M1696 699L1697 700L1696 699M2278 699L2279 700L2278 699z"/>
<path style="fill:#a61501; stroke:none;" d="M224 700L225 701L224 700z"/>
<path style="fill:#fefefe; stroke:none;" d="M2698 700L2699 701L2698 700M1695 701L1696 702L1695 701M2279 701L2280 702L2279 701M1694 703L1695 704L1694 703M2280 703L2281 704L2280 703M3321 703L3322 704L3321 703M2701 704L2702 705L2701 704M4449 704L4450 705L4449 704M2281 705L2282 706L2281 705M4244 706L4245 707L4244 706M4448 706L4449 707L4448 706M3323 708L3324 709L3323 708M4245 708L4246 709L4245 708M3876 709L3877 710L3876 709z"/>
<path style="fill:#a61501; stroke:none;" d="M962 710L963 711L962 710z"/>
<path style="fill:#fefefe; stroke:none;" d="M4246 710L4247 711L4246 710M3324 711L3325 712L3324 711M2708 713L2709 714L2708 713M2286 714L2287 715L2286 714M2287 716L2288 717L2287 716M3326 716L3327 717L3326 716z"/>
<path style="fill:#a61501; stroke:none;" d="M958 717L959 718L958 717z"/>
<path style="fill:#fefefe; stroke:none;" d="M2711 717L2712 718L2711 717M4250 717L4251 718L4250 717M4442 717L4443 718L4442 717M2288 718L2289 719L2288 718M3327 718L3328 719L3327 718M4251 719L4252 720L4251 719M4441 719L4442 720L4441 719M1685 720L1686 721L1685 720M3328 720L3329 721L3328 720M2714 721L2715 722L2714 721M3871 721L3872 722L3871 721M4252 721L4253 722L4252 721z"/>
<path style="fill:#a61501; stroke:none;" d="M955 722L956 723L955 722z"/>
<path style="fill:#fefefe; stroke:none;" d="M1684 722L1685 723L1684 722M2290 722L2291 723L2290 722M2715 722L2716 723L2715 722M3870 723L3871 724L3870 723M1683 724L1684 725L1683 724M3869 725L3870 726L3869 725M1682 726L1683 727L1682 726z"/>
<path style="fill:#a61501; stroke:none;" d="M952 727L953 728L952 727z"/>
<path style="fill:#fefefe; stroke:none;" d="M3332 728L3333 729L3332 728M4436 728L4437 729L4436 728M2137 729L2138 730L2137 729M1680 730L1681 731L1680 730M2721 730L2722 731L2721 730M4435 730L4436 731L4435 730M2138 731L2139 732L2138 731M2295 731L2296 732L2295 731M3865 732L3866 733L3865 732M4258 732L4259 733L4258 732M4434 732L4435 733L4434 732M2139 733L2140 734L2139 733M2296 733L2297 734L2296 733M2724 734L2725 735L2724 734M4259 734L4260 735L4259 734M2140 735L2141 736L2140 735M2297 735L2298 736L2297 735M3336 735L3337 736L3336 735M3863 735L3864 736L3863 735M1833 736L1834 737L1833 736M1832 738L1833 739L1832 738M2727 738L2728 739L2727 738M3339 739L3340 740L3339 739M4430 739L4431 740L4430 739M1831 740L1832 741L1831 740M1674 741L1675 742L1674 741M4263 741L4264 742L4263 741M4429 741L4430 742L4429 741M1830 742L1831 743L1830 742M3341 742L3342 743L3341 742M1673 743L1674 744L1673 743M2731 743L2732 744L2731 743M4428 743L4429 744L4428 743M1829 744L1830 745L1829 744M1672 745L1673 746L1672 745M3856 745L3857 746L3856 745M4265 745L4266 746L4265 745z"/>
<path style="fill:#a61501; stroke:none;" d="M252 746L253 747L252 746z"/>
<path style="fill:#fefefe; stroke:none;" d="M1828 746L1829 747L1828 746M3344 746L3345 747L3344 746M1671 747L1672 748L1671 747M2734 747L2735 748L2734 747M4266 747L4267 748L4266 747M1827 748L1828 749L1827 748M2147 748L2148 749L2147 748M2304 748L2305 749L2304 748M1826 750L1827 751L1826 750M2305 750L2306 751L2305 750M3852 750L3853 751L3852 750z"/>
<path style="fill:#a61501; stroke:none;" d="M936 751L937 752L936 751z"/>
<path style="fill:#fefefe; stroke:none;" d="M1669 751L1670 752L1669 751M2737 751L2738 752L2737 751M3851 751L3852 752L3851 751M4786 751L4786 752L4819 752L4786 751z"/>
<path style="fill:#efe7df; stroke:none;" d="M4828 751L4828 792L4836 792L4836 763L4837 763C4838.44 772.756 4842.63 791.865 4854 792L4863 764L4864 764C4864 774.353 4857.71 791.95 4872 792L4872 751L4859.5 752.028L4849 776C4844.01 763.149 4843.62 751 4828 751z"/>
<path style="fill:#fefefe; stroke:none;" d="M4839 751L4840 752L4839 751M4858 751L4859 752L4858 751M1825 752L1826 753L1825 752M2738 752L2739 753L2738 752M3850 752L3851 753L3850 752z"/>
<path style="fill:#efe7df; stroke:none;" d="M4786 752L4786 759L4798 759L4798 792C4812.33 791.949 4807 769.832 4807 759L4819 759L4819 752L4786 752z"/>
<path style="fill:#fefefe; stroke:none;" d="M3350 753L3351 754L3350 753M4840 753L4841 754L4840 753M2150 754L2151 755L2150 754M3351 754L3352 755L3351 754M4422 754L4423 755L4422 754M4857 754L4858 755L4857 754M2740 755L2741 756L2740 755M3352 755L3353 756L3352 755M2151 756L2152 757L2151 756M3353 756L3354 757L3353 756M4271 756L4272 757L4271 756M4421 756L4422 757L4421 756M3354 757L3355 758L3354 757M1822 758L1823 759L1822 758M2152 758L2153 759L2152 758M3355 758L3356 759L3355 758M4272 758L4273 759L4272 758M3356 759L3357 760L3356 759M2153 760L2154 761L2153 760M2744 760L2745 761L2744 760M3357 760L3358 761L3357 760M3842 760L3843 761L3842 760M4273 760L4274 761L4273 760z"/>
<path style="fill:#a61501; stroke:none;" d="M263 761L264 762L263 761z"/>
<path style="fill:#fefefe; stroke:none;" d="M3841 761L3842 762L3841 761M4843 761L4844 762L4843 761M3840 762L3841 763L3840 762M4854 762L4855 763L4854 762z"/>
<path style="fill:#a61501; stroke:none;" d="M927 763L928 764L927 763z"/>
<path style="fill:#fefefe; stroke:none;" d="M2312 763L2313 764L2312 763M4417 763L4418 764L4417 763M4836 763L4837 764L4836 763M1662 764L1663 765L1662 764M2747 764L2748 765L2747 764M4844 764L4845 765L4844 764z"/>
<path style="fill:#a61501; stroke:none;" d="M266 765L267 766L266 765z"/>
<path style="fill:#fefefe; stroke:none;" d="M2313 765L2314 766L2313 765M3363 765L3364 766L3363 765M4853 765L4854 766L4853 765M1661 766L1662 767L1661 766M3835 766L3836 767L3835 766M4862 766L4863 767L4862 766M2314 767L2315 768L2314 767M4415 767L4416 768L4415 767M4845 767L4846 768L4845 767M1660 768L1661 769L1660 768M2750 768L2751 769L2750 768M2751 769L2752 770L2751 769M3368 769L3369 770L3368 769M4278 769L4279 770L4278 769M4414 769L4415 770L4414 769M4861 769L4862 770L4861 769M1659 770L1660 771L1659 770M2316 771L2317 772L2316 771M3371 771L3372 772L3371 771M4279 771L4280 772L4279 771M2753 772L2754 773L2753 772M4847 772L4848 773L4847 772z"/>
<path style="fill:#a61501; stroke:none;" d="M919 773L920 774L919 773z"/>
<path style="fill:#fefefe; stroke:none;" d="M3374 773L3375 774L3374 773M3825 773L3826 774L3825 773M4850 773L4851 774L4850 773M4863 773L4863 778L4864 778L4863 773M4840 774L4841 775L4840 774M3822 775L3823 776L3822 775z"/>
<path style="fill:#a61501; stroke:none;" d="M275 776L276 777L275 776z"/>
<path style="fill:#fefefe; stroke:none;" d="M3379 776L3380 777L3379 776M2162 777L2163 778L2162 777M2757 777L2758 778L2757 777M4841 777L4842 778L4841 777M3817 778L3818 779L3817 778M4409 778L4410 779L4409 778M2163 779L2164 780L2163 779M3815 779L3816 780L3815 779z"/>
<path style="fill:#a61501; stroke:none;" d="M913 780L914 781L913 780z"/>
<path style="fill:#fefefe; stroke:none;" d="M2321 780L2322 781L2321 780M3813 780L3814 781L3813 780M4408 780L4409 781L4408 780M4857 780L4858 781L4857 780M2164 781L2165 782L2164 781M2760 781L2761 782L2760 781M3811 781L3812 782L3811 781M2322 782L2323 783L2322 782M3390 782L3391 783L3390 782M3809 782L3810 783L3809 782M4285 782L4286 783L4285 782M4407 782L4408 783L4407 782M2165 783L2166 784L2165 783M3807 783L3808 784L3807 783M4856 783L4857 784L4856 783M2323 784L2324 785L2323 784M4286 784L4287 785L4286 784M2763 785L2764 786L2763 785M3397 785L3398 786L3397 785M3800 786L3801 787L3800 786M1650 787L1651 788L1650 787M3402 787L3403 788L3402 787z"/>
<path style="fill:#a61501; stroke:none;" d="M906 788L907 789L906 788z"/>
<path style="fill:#fefefe; stroke:none;" d="M4845 788L4846 789L4845 788M1649 789L1650 790L1649 789M1807 789L1808 790L1807 789M2766 789L2767 790L2766 789M3792 789L3793 790L3792 789M3789 790L3790 791L3789 790M1648 791L1649 792L1648 791M1806 791L1807 792L1806 791M3786 791L3787 792L3786 791M4290 791L4291 792L4290 791M4402 791L4403 792L4402 791M4806 791L4807 792L4806 791M4846 791L4847 792L4846 791M4863 791L4864 792L4863 791M3417 792L3418 793L3417 792M3782 792L3783 793L3782 792M1805 793L1806 794L1805 793M3779 793L3780 794L3779 793M4401 793L4402 794L4401 793M2770 794L2771 795L2770 794M3424 794L3425 795L3424 794M3775 794L3776 795L3775 794z"/>
<path style="fill:#a61501; stroke:none;" d="M292 795L293 796L292 795z"/>
<path style="fill:#fefefe; stroke:none;" d="M1804 795L1805 796L1804 795M2329 795L2330 796L2329 795M3771 795L3772 796L3771 795M4292 795L4293 796L4292 795z"/>
<path style="fill:#a61501; stroke:none;" d="M293 796L294 797L293 796z"/>
<path style="fill:#fefefe; stroke:none;" d="M2172 796L2173 797L2172 796M3433 796L3434 797L3433 796M3766 796L3767 797L3766 796M3438 797L3439 798L3438 797z"/>
<path style="fill:#a61501; stroke:none;" d="M296 799L297 800L296 799z"/>
<path style="fill:#fefefe; stroke:none;" d="M3450 799L3451 800L3450 799M3749 799L3750 800L3749 799M3458.67 800.333L3459.33 800.667L3458.67 800.333M3741 800L3742 801L3741 800M3469 801L3470 802L3469 801M3730 801L3731 802L3730 801M3488 802L3488 803L3491 803L3488 802M3709 802L3709 803L3712 803L3709 802z"/>
<path style="fill:#a61501; stroke:none;" d="M302 805L303 806L302 805M305 808L306 809L305 808M306 809L307 810L306 809M878 816L879 817L878 816M318 820L319 821L318 820M869 824L870 825L869 824M331 831L332 832L331 831M825 857L826 858L825 857M376 863L377 864L376 863M381 866L382 867L381 866M421 887L422 888L421 887M437 894L438 895L437 894M461 903L462 904L461 903M530 920L531 921L530 920M553 923L554 924L553 923M585 925L586 926L585 925z"/>
</svg>
