<?xml version="1.0" encoding="UTF-8"?>
<svg xmlns="http://www.w3.org/2000/svg" version="1.1" viewBox="0 0 37.5 37.5">
  <defs>
    <style>
      .cls-1 {
        fill: #e21f26;
      }
    </style>
  </defs>
  <!-- Generator: Adobe Illustrator 28.6.0, SVG Export Plug-In . SVG Version: 1.2.0 Build 709)  -->
  <g>
    <g id="39f64b3d-3ea5-4339-9201-c0309e1b59ed">
      <g id="fa4cf171-80d0-41ee-9370-a759d5d44b74">
        <path class="cls-1" d="M35.3,5.87c-1.91-1.11-7.89-2.52-12.68-1.37-4.79,1.15-6.7,2.91-5.81,4.63.57.31,1.88.88,1.06,4.68-.74,1.66-1.04,2.1-1.52.09-.48-2.01-.69-2.43-.69-2.43,0,0,.29-.49.67-.06.05-.1-.31-1.01-1.15-.9,0-.03-.52-.87-.57-.86,0,0,.56-.57,1.24-.06.04-.28-.58-1.19-1.82-.77-.11-.13-.66-.81-.83-.89-.21-.11.75-.65,1.72-.13.02-.35-1.15-1.38-2.63-1.04-.8-.41-2.27-.35-2.5-.27-.02.02-.03.03-.03.02,0,0,0-.02.03-.02.19-.26,1.16-2.34.88-2.24-.3.11-3.31,3.65-5.69,5.29-.02.13.59.97-1.6,1.81,0,.04-.51-.02-1.01,1.39.33-.15.65-.49.92-.4,0,.11.01,1.29.31,1.68.02.02.22.29.26.37.06.12.58.55.55,1.83.67-.65.93-2.1,1.06-2.4.93-.24,1.2-.92,1.39-1.12,1.51-.09,3.36-1.54,3.4-2.45.01.2-.13.66-.13.66,0,0,1.3,2.03.41,3.57-1.1,1.15-2.5,3.2-2.91,5.66-.42,2.55-.27,5.01,1.5,7.99,3.87,6.53,13.57,7.31,18.49.86,1.79-2.45,1.84-4.79,1.12-6.99-.79-2.41-3.08-4.05-5.27-4.17-1.48-.08-3.22.51-4.59,1.89-.14-.3-.33-1.13-.33-1.13-.04,0-2.47,3.04-.89,6.81,0,0-.06-2.82,2.55-3.92-.28-.26-.73-.85-.73-.85,0,0,2.67-3.22,6.16-.48,1.9,1.61,2.16,4.74.8,7.13-1.41,2.49-4.54,4.2-7.47,3-4.73-1.94-4.21-7.44-2.78-9.43,1.58-2.19,1.17-3.05,1.37-3.36.22-.68,2.32-2.36,4.82-2.56,2.41-.19,5.21.79,6.77,3.77-1.84-3.9,2.16-4.24,4.41-2.36-.91-1.65.44-4.56,3.54-3.58-7.31-2.58-4.24-7.28-1.82-6.9Z"/>
      </g>
    </g>
  </g>
</svg>