<?xml version="1.0" encoding="utf-8"?>
<!-- Generator: Adobe Illustrator 25.2.1, SVG Export Plug-In . SVG Version: 6.00 Build 0)  -->
<svg version="1.1" id="87b003e3-ad99-4399-be20-ffcdafb8ac2b" xmlns="http://www.w3.org/2000/svg" x="0px" y="0px"
	 viewBox="0 0 566.9 148" xml:space="preserve">
<path class="st0" d="M126.7,81.7l-15.8-47.1c-1.3-3.8-4.5-6.6-8.4-7.3L53,17.6c-3.8-0.7-7.8,0.6-10.4,3.5L9,58.8
	c-2.6,3-3.5,7.1-2.2,10.9l15.9,47.1c1.3,3.8,4.5,6.6,8.4,7.3l49.5,9.7c0.7,0.1,1.4,0.2,2.1,0.2c3.2,0,6.2-1.3,8.3-3.7l33.6-37.6
	C127.1,89.6,127.9,85.5,126.7,81.7 M120.2,88.9l-33.5,37.6c-1.3,1.4-3.2,2.1-5.1,1.7l-49.5-9.7c-1.9-0.4-3.5-1.7-4.1-3.6L12.1,67.9
	c-0.6-1.9-0.2-3.9,1.1-5.4l33.6-37.6c1-1.2,2.5-1.8,4.1-1.8c0.3,0,0.7,0,1,0.1l49.5,9.6c1.9,0.4,3.5,1.8,4.1,3.6l15.9,47.1
	C122,85.4,121.6,87.4,120.2,88.9"/>
<path class="st0" d="M173.3,64.8c-0.2,0.2-0.6,0.4-0.9,0.4h-10.8c-0.3,0-0.5,0.1-0.5,0.4c0,0,0,0.1,0,0.1v25.5
	c0,2.7,0.6,4.6,1.8,5.8c1.2,1.2,3,1.8,5.6,1.8h3.2c0.3,0,0.7,0.1,0.9,0.4c0.2,0.2,0.4,0.6,0.4,0.9v7.9c0,0.7-0.5,1.3-1.2,1.4
	c0,0,0,0,0,0l-5.5,0.1c-5.6,0-9.7-1-12.5-2.9c-2.8-1.9-4.2-5.5-4.2-10.8V65.7c0-0.3-0.1-0.5-0.4-0.5c0,0-0.1,0-0.1,0h-6
	c-0.3,0-0.7-0.1-0.9-0.4c-0.2-0.2-0.4-0.6-0.4-0.9v-7.4c0-0.7,0.6-1.3,1.2-1.3c0,0,0,0,0,0h6c0.3,0,0.5-0.1,0.5-0.4c0,0,0-0.1,0-0.1
	V42.3c0-0.3,0.1-0.7,0.4-0.9c0.2-0.2,0.6-0.4,0.9-0.4h9.2c0.7,0,1.3,0.6,1.3,1.2c0,0,0,0,0,0v12.4c0,0.3,0.1,0.5,0.4,0.5
	c0,0,0.1,0,0.1,0h10.8c0.7,0,1.3,0.6,1.3,1.2c0,0,0,0,0,0v7.4C173.7,64.3,173.5,64.6,173.3,64.8z"/>
<path class="st0" d="M225.9,82.1l-0.1,3.3c0.1,0.6-0.3,1.2-0.9,1.3c-0.1,0-0.2,0-0.3,0h-33.1c-0.3,0-0.5,0.1-0.5,0.4
	c0,0,0,0.1,0,0.1c0.1,1.6,0.4,3.2,1,4.8c1.7,5.1,5.8,7.7,12.4,7.7c4.6,0.1,8.9-2.1,11.4-5.9c0.2-0.4,0.6-0.6,1.1-0.6
	c0.3,0,0.5,0.1,0.7,0.3l6.6,5.4c0.5,0.3,0.7,1,0.4,1.5c0,0.1-0.1,0.1-0.1,0.1c-2.2,3.1-5.2,5.6-8.7,7.2c-3.8,1.7-7.9,2.6-12.1,2.5
	c-4.9,0.1-9.8-1.1-14-3.7c-3.9-2.5-6.8-6.1-8.5-10.4c-1.6-3.8-2.4-9.1-2.4-15.9c-0.1-3.4,0.3-6.8,1.3-10c1.2-4.7,4.1-8.8,8-11.7
	c4.1-2.9,9.1-4.4,14.1-4.3c13.9,0,21.8,7.3,23.5,21.8C225.8,78.1,225.9,80.1,225.9,82.1z M195.4,67c-1.8,1.4-3.1,3.3-3.6,5.4
	c-0.5,1.5-0.8,3.1-0.9,4.7c-0.1,0.4,0,0.5,0.4,0.5h21.5c0.3,0,0.5-0.1,0.5-0.4c0,0,0-0.1,0-0.1c-0.1-1.4-0.3-2.7-0.6-4
	c-0.5-2.4-1.8-4.5-3.7-6c-2-1.5-4.5-2.2-7-2.1C199.6,64.9,197.3,65.6,195.4,67z"/>
<path class="st0" d="M272,59.5c3.4,3.4,5.1,8,5.1,13.9v34.7c0,0.3-0.1,0.7-0.4,0.9c-0.2,0.2-0.6,0.4-0.9,0.4h-9.7
	c-0.7,0-1.3-0.6-1.3-1.2c0,0,0,0,0,0V75.9c0.1-2.9-0.9-5.7-2.8-7.9c-1.9-2-4.6-3.1-7.3-3c-2.8-0.1-5.4,1-7.4,3
	c-1.9,2.1-2.9,5-2.8,7.8v32.3c0,0.3-0.1,0.7-0.4,0.9c-0.2,0.2-0.6,0.4-0.9,0.4h-9.8c-0.3,0-0.7-0.1-0.9-0.4
	c-0.2-0.2-0.4-0.6-0.4-0.9V56.5c0-0.3,0.1-0.7,0.4-0.9c0.2-0.2,0.6-0.4,0.9-0.4h9.8c0.3,0,0.7,0.1,0.9,0.4c0.2,0.2,0.4,0.6,0.4,0.9
	v3.4c0,0.2,0.1,0.3,0.2,0.4c0.1,0.1,0.2,0,0.3-0.2c2.9-3.8,7.3-5.7,13.1-5.7C264,54.4,268.6,56.1,272,59.5z"/>
<path class="st0" d="M317.6,56.7c3.2,1.4,5.9,3.6,7.8,6.4c1.8,2.7,2.8,6,2.8,9.3v35.7c0,0.3-0.1,0.7-0.4,0.9
	c-0.2,0.2-0.6,0.4-0.9,0.4h-9.7c-0.7,0-1.3-0.6-1.3-1.2c0,0,0,0,0,0v-3.4c0-0.2-0.1-0.3-0.2-0.4c-0.2,0-0.3,0-0.4,0.2
	c-3.5,3.8-8.5,5.7-15,5.7c-5.3,0-9.7-1.3-13.1-4c-3.4-2.7-5.1-6.7-5.1-12c0-5.5,1.9-9.8,5.8-12.9c3.8-3.1,9.2-4.6,16.2-4.6h11.3
	c0.3,0,0.5-0.1,0.5-0.4c0,0,0-0.1,0-0.1v-2.5c0.1-2.4-0.7-4.7-2.4-6.4c-1.6-1.5-4.1-2.3-7.3-2.3c-2.3-0.1-4.5,0.4-6.5,1.4
	c-1.6,0.8-2.7,2.3-3.1,4c-0.2,0.8-0.7,1.2-1.5,1.1l-10.3-1.3c-0.3-0.1-0.6-0.2-0.9-0.4c-0.2-0.1-0.3-0.4-0.3-0.7
	c0.6-4.3,2.9-7.8,6.9-10.6s9.2-4.1,15.3-4.1C309.8,54.3,313.9,55.1,317.6,56.7z M312.2,97.7c2.3-1.6,3.7-4.2,3.7-7v-5
	c0-0.3-0.1-0.5-0.4-0.5c0,0-0.1,0-0.1,0h-8.9c-3.8,0-6.7,0.7-8.9,2.1c-2.1,1.3-3.3,3.6-3.2,6c-0.1,2.1,0.8,4,2.5,5.2
	c1.9,1.3,4.1,2,6.4,1.8C306.4,100.5,309.6,99.6,312.2,97.7L312.2,97.7z"/>
<path class="st0" d="M383.1,82.1c0.1,4.5-0.6,9-2,13.2c-1.3,4.3-3.9,8.1-7.5,10.9c-3.7,2.7-8.2,4.1-12.7,3.9
	c-4.7,0.1-9.2-2-12.2-5.6c-0.1-0.2-0.3-0.3-0.4-0.2c-0.2,0.1-0.2,0.3-0.2,0.4v3.3c0,0.7-0.6,1.3-1.2,1.3c0,0,0,0,0,0H337
	c-0.3,0-0.7-0.1-0.9-0.4c-0.2-0.2-0.4-0.6-0.4-0.9V36.5c0-0.3,0.1-0.7,0.4-0.9c0.2-0.2,0.6-0.4,0.9-0.4h9.7c0.3,0,0.7,0.1,0.9,0.4
	c0.2,0.2,0.4,0.6,0.4,0.9v23c0,0.2,0.1,0.3,0.2,0.4c0.2,0.1,0.3,0,0.4-0.1c3-3.6,7.4-5.6,12.1-5.4c5.2,0,9.6,1.3,13,3.9
	c3.6,2.8,6.2,6.6,7.6,10.9C382.5,73.4,383.1,77.8,383.1,82.1z M370.5,82.4c0-5.5-1.1-9.8-3.2-12.9c-1.8-2.9-5-4.6-8.5-4.4
	c-3.3-0.1-6.4,1.7-7.9,4.7c-1.8,2.9-2.6,7.1-2.6,12.6s0.8,9.6,2.4,12.3c1.5,3.2,4.8,5.2,8.3,5.1c1.8,0,3.7-0.4,5.3-1.3
	c1.6-0.9,2.8-2.2,3.7-3.8C369.7,91.6,370.5,87.5,370.5,82.4z"/>
<path class="st0" d="M390.5,109c-0.2-0.2-0.4-0.6-0.4-0.9V36.5c0-0.3,0.1-0.7,0.4-0.9c0.2-0.2,0.6-0.4,0.9-0.4h9.7
	c0.3,0,0.7,0.1,0.9,0.4c0.2,0.2,0.4,0.6,0.4,0.9v71.6c0,0.7-0.6,1.3-1.2,1.3c0,0,0,0,0,0h-9.7C391,109.4,390.7,109.2,390.5,109z"/>
<path class="st0" d="M456.7,82.1l-0.1,3.3c0.1,0.6-0.3,1.2-0.9,1.3c-0.1,0-0.2,0-0.3,0h-33.2c-0.3,0-0.5,0.1-0.5,0.4
	c0,0,0,0.1,0,0.1c0.1,1.6,0.4,3.2,1,4.8c1.7,5.1,5.8,7.7,12.4,7.7c4.6,0.1,8.9-2.1,11.4-5.9c0.2-0.4,0.6-0.6,1.1-0.6
	c0.3,0,0.5,0.1,0.7,0.3l6.6,5.4c0.5,0.3,0.7,1,0.4,1.5c0,0.1-0.1,0.1-0.1,0.2c-2.2,3.1-5.2,5.6-8.7,7.2c-3.8,1.7-7.9,2.6-12.1,2.5
	c-4.9,0.2-9.8-1.1-14-3.7c-3.8-2.5-6.8-6.1-8.4-10.4c-1.6-3.8-2.4-9.1-2.4-15.9c-0.1-3.4,0.3-6.8,1.3-10c1.2-4.7,4.1-8.8,8-11.7
	c4.1-2.9,9.1-4.4,14.1-4.3c13.9,0,21.7,7.3,23.5,21.8C456.6,78.1,456.7,80.1,456.7,82.1z M426.2,67c-1.8,1.4-3.1,3.3-3.6,5.4
	c-0.5,1.5-0.8,3.1-0.9,4.7c-0.1,0.4,0,0.5,0.4,0.5h21.5c0.3,0,0.5-0.1,0.5-0.4c0,0,0-0.1,0-0.1c-0.1-1.4-0.3-2.7-0.6-4
	c-0.5-2.4-1.9-4.5-3.8-5.9c-2-1.5-4.5-2.3-7-2.2C430.4,64.9,428.1,65.6,426.2,67z"/>
<path class="st0" d="M465.3,107.4c-3-2.9-3.1-7.7-0.2-10.6c1.5-1.5,3.5-2.3,5.6-2.3c2-0.1,3.9,0.7,5.3,2.1c1.4,1.4,2.1,3.4,2.1,5.4
	c0.1,2-0.7,4-2.1,5.4c-1.4,1.4-3.3,2.2-5.3,2.1C468.6,109.6,466.7,108.9,465.3,107.4z"/>
<path class="st0" d="M488.9,45.7c-1.4-1.4-2.2-3.4-2.1-5.4c-0.3-4.1,2.8-7.7,7-8c4.1-0.3,7.7,2.8,8,7c0,0.4,0,0.7,0,1.1
	c-0.1,4.2-3.5,7.6-7.7,7.5C492.1,47.8,490.3,47.1,488.9,45.7L488.9,45.7z M488.3,109c-0.2-0.2-0.4-0.6-0.4-0.9V56.4
	c0-0.7,0.6-1.3,1.2-1.3c0,0,0,0,0,0h9.8c0.7,0,1.3,0.6,1.3,1.2c0,0,0,0,0,0v51.7c0,0.3-0.1,0.7-0.4,0.9c-0.2,0.2-0.6,0.4-0.9,0.4
	h-9.8C488.9,109.4,488.5,109.2,488.3,109z"/>
<path class="st0" d="M518.2,106c-4-2.9-7-7-8.4-11.8c-1.2-3.9-1.8-8-1.7-12.1c-0.1-4.1,0.5-8.2,1.7-12.1c1.4-4.7,4.4-8.8,8.5-11.5
	c4.3-2.8,9.4-4.3,14.5-4.1c5-0.1,9.8,1.3,13.9,4.1c3.9,2.8,6.8,6.8,8.3,11.5c1.3,3.9,2,7.9,1.9,12c0.1,4.1-0.5,8.2-1.8,12.1
	c-1.4,4.7-4.4,8.9-8.4,11.8c-4.1,2.9-9.1,4.4-14.1,4.3C527.4,110.4,522.4,108.9,518.2,106z M539.2,97.4c2-1.6,3.4-3.8,4.1-6.2
	c0.8-2.9,1.1-5.9,1.1-8.9c0.1-3-0.3-6-1.1-8.9c-0.6-2.5-2-4.6-4-6.2c-2-1.5-4.5-2.3-7-2.2c-2.4-0.1-4.8,0.7-6.8,2.2
	c-2,1.6-3.4,3.8-4.1,6.2c-0.8,2.9-1.1,5.9-1.1,8.9c-0.1,3,0.3,6,1.1,8.9c0.6,2.5,2.1,4.7,4.1,6.2c2,1.5,4.5,2.3,7,2.2
	C534.9,99.7,537.3,98.9,539.2,97.4L539.2,97.4z"/>
<path class="st0" d="M559.5,49.2c0.6,0.3,1,0.8,1.4,1.4c0.3,0.6,0.5,1.2,0.5,1.9c0,0.7-0.2,1.3-0.5,1.9c-0.3,0.6-0.8,1-1.4,1.4
	c-0.6,0.3-1.2,0.5-1.9,0.5c-0.7,0-1.3-0.2-1.9-0.5c-1.8-1.1-2.4-3.4-1.4-5.2c0.3-0.6,0.8-1,1.4-1.4
	C556.8,48.5,558.3,48.5,559.5,49.2L559.5,49.2z M559.1,55.1c0.9-0.6,1.5-1.6,1.5-2.7c0-1.1-0.6-2.1-1.5-2.6c-1-0.5-2.2-0.5-3.1,0
	c-0.9,0.5-1.5,1.5-1.5,2.6c0,1.7,1.4,3.1,3.1,3.1C558.2,55.5,558.7,55.3,559.1,55.1z M558.7,52.3c-0.1,0.1-0.2,0.3-0.4,0.3
	c0,0-0.1,0.1-0.1,0.1l0.5,1.2V54c0,0.1-0.1,0.2-0.2,0.2h-0.2c-0.1,0-0.2-0.1-0.2-0.2l-0.5-1.2c0,0,0-0.1-0.1-0.1h-0.3
	c0,0-0.1,0-0.1,0.1c0,0,0,0,0,0V54c0,0.1-0.1,0.2-0.1,0.2c0,0,0,0,0,0h-0.2c-0.1,0-0.2-0.1-0.2-0.2v-3.1c0-0.1,0.1-0.2,0.2-0.2h1
	c0.3,0,0.5,0.1,0.7,0.3c0.2,0.2,0.3,0.5,0.3,0.7C558.8,51.9,558.7,52.1,558.7,52.3L558.7,52.3z M557.2,51.3v0.9c0,0,0,0.1,0.1,0.1
	c0,0,0,0,0,0h0.5c0.1,0,0.3-0.1,0.4-0.2c0.1-0.1,0.1-0.2,0.1-0.4c0-0.1,0-0.3-0.1-0.4c-0.1-0.1-0.2-0.1-0.4-0.1L557.2,51.3
	C557.2,51.2,557.2,51.2,557.2,51.3C557.1,51.3,557.1,51.3,557.2,51.3L557.2,51.3z"/>
</svg>
