<svg id="5eb4e179-601a-4ee2-b232-fd4ded4f84cd" xmlns="http://www.w3.org/2000/svg" viewBox="0 0 326 72.5">
    <path d="M322.5 21.5h.3c.4 0 .7-.2.7-.5a.4.4 0 00-.2-.4.9.9 0 00-.5-.1h-.3v1zm1.5.1a1.3 1.2 0 01-.6.3l.9 1.3h-.8l-.8-1.3h-.2v1.2h-.7v-3.2h1c1 0 1.5.3 1.4 1a.8.8 0 01-.2.6zm.1 2.2A2.2 2 0 00325 23a2.6 2.5 0 000-2.5 2.2 2.2 0 00-.9-.9 2.5 2.5 0 00-1.3-.3 2.4 2.5 0 00-1.2.3 2.2 2.3 0 00-.9.9 2.5 2.6 0 000 2.4 2.2 2.2 0 00.9.9 2.5 2.6 0 001.2.3 2.6 2.6 0 001.3-.3zm.3-4.7a3.0 2.9 0 011.5 2.6 3 3 0 01-.4 1.5 2.9 2.8 0 01-1 1.0 3.3 3.2 0 01-3 0 3 3 0 01-1.5-2.6 3 3 0 01.4-1.5 3 3 0 011-1 3.2 3.2 0 013 0zm-219.7 9.8a1 1 0 01-.7.3h-8.7a.4.4 0 00-.4.4v19.8c0 2.1.5 3.5 1.4 4.5a6.2 6 0 004.5 1.4h2.6a1 1 0 01.7.3.9.9 0 01.3.7v6.2c0 .6-.3 1-1 1l-4.5.1q-6.8 0-10-2.2T85.3 53V29.6c0-.3-.1-.4-.4-.4h-4.9a1 1 0 01-.7-.3.9.9 0 01-.3-.7V22.4a1 1 0 01.3-.7 1 1 0 01.7-.3h5a.4.4 0 00.4-.4v-9.6a.9.9 0 01.3-.7 1 1 0 01.7-.3h7.4a1 1 0 01.7.3.9.9 0 01.3.7V21a.4.4 0 00.4.4H104a1 1 0 01.7.3 1 1 0 01.3.7v5.8a.9.9 0 01-.3.7zm14.6 1.6a8 8 0 00-3 4.2 13.8 13.8 0 00-.7 3.6c-.1.3 0 .4.3.4h17.4c.3 0 .4-.1.4-.4a14.5 14.5 0 00-.5-3 8 8 0 00-3-4.6 9.4 9.4 0 00-5.7-1.6 8.6 8.7 0 00-5.3 1.5zM144 42.31l-.1 2.55a.9.9 0 01-1 1h-26.8c-.3 0-.4.1-.4.4a11.3 11.3 0 00.8 3.7q2 6 10 6a11 11 0 009.2-4.6 1 1 0 01.9-.5.8.8 0 01.6.2l5.3 4.2a.9.9 0 01.2 1.3 17.3 17.3 0 01-7.0 5.5 23.7 23.7 0 01-9.8 2 21 21 0 01-11.3-2.9 16.7 16.7 0 01-6.8-8.1q-2-4.4-2-12.3a24.3 24.3 0 011-7.7 16.5 16.5 0 016.5-9 19.4 19.4 0 0111.4-3.3q17 0 19 17a29 29 0 01.3 4.6zm35.8-17.6q4.2 4 4 10.8v27a.9.9 0 01-.3.7 1 1 0 01-.7.3H175a1 1 0 01-.7-.3.9.9 0 01-.3-.7v-25a8.6 8.5 0 00-2.2-6 7.7 7.8 0 00-5.9-2.4 8 8 0 00-6 2.3 8.3 8.2 0 00-2.3 6v25a.9.9 0 01-.3.7 1 1 0 01-.7.3h-7.9a1 1 0 01-.7-.3.9.9 0 01-.3-.7V22.4a1 1 0 01.3-.7 1 1 0 01.7-.3h8a1 1 0 01.7.3 1 1 0 01.3.7V25a.3.3 0 00.2.3c.1.1.2 0 .2-.2q3.5-4.4 10.6-4.4 7 0 11 4zm32 29.7a6.5 6.4 0 003-5.4v-4c0-.3-.1-.4-.4-.4h-7.2a13.4 13.4 0 00-7.2 1.6 5.2 5.2 0 00-2.6 4.6 4.7 4.7 0 002 4.0 8.6 8.6 0 005.2 1.4 12 12 0 007.2-2zm4.7-31.8a14.7 14.7 0 016.3 5 12.2 12.2 0 012.2 7.2v27.7a.9.9 0 01-.3.7 1 1 0 01-.7.3h-7.9a1 1 0 01-.7-.3.9.9 0 01-.3-.7v-2.6c0-.2 0-.3-.2-.3a.4.4 0 00-.3.1q-4.2 4.4-12 4.5A17 17 0 01191.8 61q-4.2-3-4.1-9.3a11.9 12 0 014.7-10q4.7-3.6 13-3.6h9.2a.4.4 0 00.4-.4v-2a6.3 6.3 0 00-2-5c-1.3-1.2-3.3-1.8-5.9-1.8a10.8 10.8 0 00-5.3 1 4.8 4.8 0 00-2.5 3.0 1 1 0 01-1.2.8l-8.3-1a2 2 0 01-.7-.3.5.5 0 01-.2-.5 11.5 11.5 0 015.7-8c3.3-2 7.4-3.2 12.4-3.2a23.2 23.2 0 019.5 1.8zM257 42.5q0-6.4-2.6-10a7.7 7.7 0 00-6.9-3.5 7 7 0 00-6.4 3.6c-1.4 2.2-2 5.5-2.1 9.8s.7 7.4 2 9.6a7.2 7 0 006.7 4 8.7 8.7 0 004.3-1 7.7 7.8 0 003-3q2.0-3.6 2.0-9.6zm10.2-.2a30 30 0 01-1.6 10.3 16.3 16.3 0 01-16.3 11.5 12.6 12.6 0 01-9.8-4.4c-.1-.2-.2-.2-.3-.2a.3.3 0 00-.2.3v2.5a.9.9 0 01-.3.7 1 1 0 01-.7.3H230a1 1 0 01-.7-.3.9.9 0 01-.3-.7V6.8a1 1 0 01.3-.7 1 1 0 01.7-.3h7.9a1 1 0 01.7.3 1 1 0 01.3.7v18a.3.3 0 00.1.3.3.3 0 00.3-.1 12.3 12.3 0 019.8-4.2 17.2 17.2 0 0110.5 3 17.6 17.6 0 016 8.4 33 33 0 011.4 10zm4 21a.9.9 0 01-.3-.7V6.9a.9.9 0 01.3-.7 1 1 0 01.7-.3h7.9a1 1 0 01.7.3.9.9 0 01.3.7v55.6a.9.9 0 01-.3.7 1 1 0 01-.7.3H272a1 1 0 01-.7-.3z" class="cls-1" />
    <path d="M298.4 30.4a8 8.0 0 00-3.0 4.2 13.3 13.3 0 00-.7 3.6c-.1.3 0 .4.3.4h17.4c.3 0 .4-.1.4-.4a15.3 15.3 0 00-.5-3 7.9 8 0 00-3-4.6 9.4 9.4 0 00-5.7-1.6 8.7 8.7 0 00-5.3 1.5zM323 42.2l-.1 2.6c0 .7-.3 1-1 1h-26.8a.4.4 0 00-.4.4 11 11 0 00.8 3.7q2 6 10 6a11 11 0 009.2-4.6 1 1 0 01.9-.5.8.8 0 01.6.2l5.3 4.2a.9.9 0 01.3 1.3 17.4 17.4 0 01-7.1 5.5 23.6 23.6 0 01-9.8 2 21.2 21.2 0 01-11.3-3 16.7 16.7 0 01-6.8-8q-2-4.4-2-12.3a23.9 24 0 011-7.7 16.5 16.5 0 016.5-9.2 19.3 19.3 0 0111.4-3.3q17 0 19 17a28 28 0 01.3 4.6zM71 44.4L57 59.9l12-23a5.6 5.5 0 00.6-2.2l2 5.7a4 4.0 0 01-.8 4zM50 67.8a4 4.0 0 01-3.8 1.3L27 65.4l24.8-1.3a5.5 5.4 0 002-.5l-3.8 4.2zm-37.7-7.4L5.8 41.1 19.6 62.9a5.4 5.3 0 001 1.2l-5.3-1a4 4.0 0 01-3-2.7zM3.2 27l13.8-15.5-12 23a5.6 5.6 0 00-.6 2.2L2.4 31a4 4 0 01.8-4zM24 3.5A4 4 0 0128 2.3L47.2 6 22.4 7.3a5.7 5.7 0 00-2 .5l3.8-4.2zM61.5 23.4l5.7 9a3.4 3.3 0 01.1 3.4l-5.8 10.96V24.3a4.3 4.3 0 00-.1-.9zM12.7 48L7 39a3.4 3.4 0 01-.1-3.4l5.8-10.99v22.5a5.2 5.2 0 00.1.9zm46.7-.9a2.7 2.6 0 01-1.3 2.3L38.4 60.8a2.6 2.6 0 01-2.7 0L16 49.4a2.7 2.6 0 01-1.3-2.3V24.3A2.7 2.6 0 0116 22l19.6-11.4a2.6 2.6 0 012.7 0L58 22a2.6 2.6 0 011.3 2.3v22.8zM52.8 9.7l6.8 10.7c-.1-.1-.3-.2-.4-.3L39.5 8.8l-.3-.1 10.5-.5a3.4 3.4 0 013.0 1.6zm-30.3-.2l12-.6L15 20l-.1.1 4.7-9a3.4 3.4 0 012.8-1.8zm-1 52.3L14.6 51c.1.1.3.2.4.3l19.6 11.4.3.1-10.5.5a3.4 3.4 0 01-3-1.6zm30.3.2l-12 .6 19.5-11.3.1-.1-4.7 9a3.4 3.4 0 01-2.8 1.8zM61.9 11l6.5 19.3L54.6 8.5a5.8 5.7 0 00-1-1.2l5.3 1A4 4.0 0 0162 11zm12 28.7L64 10.3a6.3 6.2 0 00-4.7-4L28.4.1a6.3 6.2 0 00-5.9 2l-21 23.5a6.2 6.2 0 00-1.2 6.1l9.9 29.4a6.2 6.2 0 004.7 4.1l30.9 6a6 6 0 001.2.1 6.2 6.3 0 004.7-2l21-23.5a6.3 6.2 0 001.3-6.2z" class="cls-1" />
</svg>