<?xml version="1.0" encoding="utf-8"?>
<!-- Generator: Adobe Illustrator 22.1.0, SVG Export Plug-In . SVG Version: 6.00 Build 0)  -->
<svg version="1.1" id="Layer_1" xmlns="http://www.w3.org/2000/svg" xmlns:xlink="http://www.w3.org/1999/xlink" x="0px" y="0px"
	 viewBox="0 0 1017.3 585.1" style="enable-background:new 0 0 1017.3 585.1;" xml:space="preserve">
<style type="text/css">
	.st0{fill:#040E57;}
	.st1{clip-path:url(#SVGID_2_);fill:url(#SVGID_3_);}
	.st2{clip-path:url(#SVGID_5_);fill:url(#SVGID_6_);}
	.st3{clip-path:url(#SVGID_8_);fill:url(#SVGID_9_);}
	.st4{clip-path:url(#SVGID_11_);fill:url(#SVGID_12_);}
	.st5{fill:url(#SVGID_13_);}
	.st6{clip-path:url(#SVGID_15_);fill:#00BBFF;}
	.st7{clip-path:url(#SVGID_17_);fill:#00BBFF;}
	.st8{clip-path:url(#SVGID_19_);fill:#00BBFF;}
	.st9{clip-path:url(#SVGID_21_);fill:#00BBFF;}
	.st10{clip-path:url(#SVGID_23_);fill:url(#SVGID_24_);}
	.st11{clip-path:url(#SVGID_26_);fill:url(#SVGID_27_);}
	.st12{clip-path:url(#SVGID_29_);fill:url(#SVGID_30_);}
	.st13{clip-path:url(#SVGID_32_);fill:url(#SVGID_33_);}
	.st14{fill:url(#SVGID_34_);}
	.st15{clip-path:url(#SVGID_36_);fill:#00BBFF;}
	.st16{clip-path:url(#SVGID_38_);fill:#00BBFF;}
	.st17{clip-path:url(#SVGID_40_);fill:#00BBFF;}
	.st18{clip-path:url(#SVGID_42_);fill:#00BBFF;}
	.st19{clip-path:url(#SVGID_44_);fill:url(#SVGID_45_);}
	.st20{clip-path:url(#SVGID_47_);fill:url(#SVGID_48_);}
	.st21{clip-path:url(#SVGID_50_);fill:url(#SVGID_51_);}
	.st22{clip-path:url(#SVGID_53_);fill:url(#SVGID_54_);}
	.st23{clip-path:url(#SVGID_56_);fill:url(#SVGID_57_);}
	.st24{clip-path:url(#SVGID_59_);fill:url(#SVGID_60_);}
	.st25{clip-path:url(#SVGID_62_);fill:url(#SVGID_63_);}
	.st26{clip-path:url(#SVGID_65_);fill:url(#SVGID_66_);}
	.st27{fill:url(#SVGID_67_);}
	.st28{clip-path:url(#SVGID_69_);fill:url(#SVGID_70_);}
	.st29{clip-path:url(#SVGID_72_);fill:url(#SVGID_73_);}
	.st30{clip-path:url(#SVGID_75_);fill:url(#SVGID_76_);}
	.st31{clip-path:url(#SVGID_78_);fill:url(#SVGID_79_);}
	.st32{fill:url(#SVGID_80_);}
	.st33{clip-path:url(#SVGID_82_);fill:#00BBFF;}
	.st34{clip-path:url(#SVGID_84_);fill:#00BBFF;}
	.st35{clip-path:url(#SVGID_86_);fill:#00BBFF;}
	.st36{clip-path:url(#SVGID_88_);fill:#00BBFF;}
	.st37{fill:#FFFFFF;}
	.st38{clip-path:url(#SVGID_90_);fill:url(#SVGID_91_);}
	.st39{clip-path:url(#SVGID_93_);fill:url(#SVGID_94_);}
	.st40{clip-path:url(#SVGID_96_);fill:url(#SVGID_97_);}
	.st41{clip-path:url(#SVGID_99_);fill:url(#SVGID_100_);}
	.st42{fill:url(#SVGID_101_);}
</style>
<path class="st0" d="M515.6,241.4c-21.7-1.7-38.8,6.9-50,25.9c-6.5,11-8.2,23.3-7.3,35.9c2.1,29.1,22.3,47.9,47.5,50.1
	c16.7,1.5,31.4-3.4,43.2-15.4c11-11.1,15-25,15.2-41.3c-0.1-1.6-0.2-4.1-0.5-6.6C561.5,263.3,542.3,243.5,515.6,241.4 M531.5,320.6
	c-11.2,14.6-33.2,13.5-42.2-2.6c-7.6-13.6-7.6-27.9,0.4-41.3c10.7-17.7,34.1-16.6,44,1.6c3.4,6.3,4.6,13.2,4.6,19.3
	C538,306.5,536.5,314.1,531.5,320.6"/>
<path class="st0" d="M693.1,241.2c-18,0-27.6,8.1-33.8,17.5c-3.9-9.5-13.2-17.5-28.7-17.5c-16.3,0-25.3,8.1-30.6,16.7l0.1-14.2
	h-22.6l-5.6,0v0h-6.8c0,0,9,0.9,8.9,7.3c0,0,0,0,0,0c0.1,6.8,0.1,13.7,0.1,20.6v80.4h25.9v-60.4c0-19.3,6.7-29,20.6-29
	c14.2,0,17.4,10.2,17.4,22.3v67h25.7V290c0-17.5,5.9-27.4,20.3-27.4c13.8,0,17.7,10.8,17.7,21.5v65.8l25.6-9.5v-59.4
	C727.4,252.4,711.6,241.2,693.1,241.2"/>
<g>
	<defs>
		<path id="SVGID_55_" d="M506.2,218.3c1.8-13.8,9.6-25.8,21.5-33c11.9-7.2,26.2-8.6,39.2-3.7l173.2,64
			c17.7,6.5,29.1,22.3,29.6,41.2c0.6,18.9-9.8,35.3-27.1,42.9l-192.5,84.6c-15.2,6.7-32.2,4.7-45.5-5.2
			c-13.3-10-19.9-25.7-17.8-42.2l-2-0.3l2,0.3L506.2,218.3z M525.6,181.8c-13,7.8-21.5,21-23.5,36l-19.3,148.6
			c-2.3,18,4.9,35.2,19.4,46c8.8,6.6,19.1,10,29.6,10c6.8,0,13.6-1.4,20.1-4.3l192.5-84.6c18.9-8.3,30.2-26.2,29.6-46.8
			c-0.6-20.6-13-37.8-32.3-45l-173.2-64c-5.6-2.1-11.4-3.1-17.2-3.1C542.3,174.6,533.5,177,525.6,181.8"/>
	</defs>
	<clipPath id="SVGID_2_">
		<use xlink:href="#SVGID_55_"  style="overflow:visible;"/>
	</clipPath>
	
		<linearGradient id="SVGID_3_" gradientUnits="userSpaceOnUse" x1="-1737.9385" y1="666.6458" x2="-1736.2194" y2="666.6458" gradientTransform="matrix(163.0615 -76.2922 -76.2922 -163.0615 334726.375 -23517.3164)">
		<stop  offset="0" style="stop-color:#00C6FF"/>
		<stop  offset="0.3078" style="stop-color:#0082FF"/>
		<stop  offset="0.6909" style="stop-color:#001CBF"/>
		<stop  offset="1" style="stop-color:#00CCFF"/>
	</linearGradient>
	<polygon class="st1" points="385.4,219.1 721.7,61.8 869.7,377.9 533.3,535.3 	"/>
</g>
<g>
	<defs>
		<path id="SVGID_58_" d="M514.2,392.8C502,381.5,497,365.1,500.9,349l33.3-145.8c3.2-13.5,12.3-24.7,24.9-30.6
			c6.2-2.9,12.7-4.3,19.3-4.3c6.9,0,13.7,1.6,20.1,4.7L764,254.8c16.9,8.4,26.6,25.3,25.2,44.1c-1.4,18.8-13.5,34.1-31.5,39.9
			l-198.9,64c-4.6,1.5-9.4,2.2-14,2.2C533.6,405,522.8,400.8,514.2,392.8 M557.3,168.9c-13.7,6.4-23.6,18.6-27.1,33.4L496.9,348
			c-4.2,17.6,1.2,35.5,14.5,47.8c9.4,8.7,21.2,13.3,33.4,13.3c5.1,0,10.2-0.8,15.3-2.4l198.9-64c19.6-6.3,32.8-22.9,34.3-43.5
			c1.5-20.5-9-39-27.5-48.1l-165.5-81.8c-6.9-3.4-14.4-5.1-21.9-5.1C571.2,164.2,564.1,165.7,557.3,168.9"/>
	</defs>
	<clipPath id="SVGID_5_">
		<use xlink:href="#SVGID_58_"  style="overflow:visible;"/>
	</clipPath>
	
		<linearGradient id="SVGID_6_" gradientUnits="userSpaceOnUse" x1="-1737.1548" y1="667.6061" x2="-1735.4357" y2="667.6061" gradientTransform="matrix(169.4263 -58.5848 -58.5848 -169.4263 333917.4688 11680.3037)">
		<stop  offset="0" style="stop-color:#00C6FF"/>
		<stop  offset="0.3078" style="stop-color:#0082FF"/>
		<stop  offset="0.6909" style="stop-color:#001CBF"/>
		<stop  offset="1" style="stop-color:#00CCFF"/>
	</linearGradient>
	<polygon class="st2" points="417,190.3 762.6,70.8 870.5,382.9 524.9,502.4 	"/>
</g>
<g>
	<defs>
		<path id="SVGID_61_" d="M523.9,377.4c-10.9-12.5-14.2-29.3-8.6-45l48.4-141.4c4.6-13.1,14.8-23.2,27.9-27.8
			c4.9-1.7,9.9-2.5,15-2.5c8.5,0,16.8,2.4,24.2,7l156.1,98.6c16,10.1,23.8,27.9,20.4,46.5c-3.4,18.6-16.9,32.5-35.4,36.4L567.3,392
			c-3.2,0.7-6.3,1-9.5,1C545,393,532.7,387.5,523.9,377.4 M590.2,159.4c-14.3,5-25.4,16-30.5,30.4l-48.4,141.4
			c-6,17.1-2.5,35.4,9.4,49c9.6,11,22.9,17,37,17c3.4,0,6.9-0.4,10.3-1.1l204.5-42.8c20.2-4.2,35-19.4,38.7-39.7
			c3.7-20.3-4.9-39.7-22.3-50.7L633,164.3c-8-5.1-17.2-7.7-26.4-7.7C601.1,156.6,595.6,157.5,590.2,159.4"/>
	</defs>
	<clipPath id="SVGID_8_">
		<use xlink:href="#SVGID_61_"  style="overflow:visible;"/>
	</clipPath>
	
		<linearGradient id="SVGID_9_" gradientUnits="userSpaceOnUse" x1="-1736.5068" y1="668.6718" x2="-1734.7877" y2="668.6718" gradientTransform="matrix(174.6009 -40.5448 -40.5448 -174.6009 330806.2188 46658.543)">
		<stop  offset="0" style="stop-color:#00C6FF"/>
		<stop  offset="0.3078" style="stop-color:#0082FF"/>
		<stop  offset="0.6909" style="stop-color:#001CBF"/>
		<stop  offset="1" style="stop-color:#00CCFF"/>
	</linearGradient>
	<polygon class="st3" points="452.4,168.9 799.2,88.4 868,384.8 521.2,465.3 	"/>
</g>
<g>
	<defs>
		<path id="SVGID_64_" d="M535.2,363.1c-9.6-13.6-11-30.6-3.9-45.6l62.9-135.4c6-12.6,17.1-21.6,30.7-24.7c3.5-0.8,7-1.2,10.4-1.2
			c10.1,0,19.9,3.4,28,9.8l144.9,114.4c14.8,11.7,20.7,30.2,15.4,48.4c-5.3,18.1-20.3,30.6-39,32.4l-207.8,21
			c-1.6,0.2-3.2,0.2-4.7,0.2C557.4,382.4,543.9,375.4,535.2,363.1 M624,153.3c-14.8,3.5-27,13.3-33.5,27l-62.9,135.4
			c-7.8,16.4-6.2,35,4.3,49.8c9.4,13.4,24.2,21,40.3,21c1.7,0,3.4-0.1,5.1-0.3l207.8-21c20.5-2.1,36.8-15.6,42.6-35.4
			c5.8-19.8-0.7-40-16.9-52.8L665.9,162.7c-8.9-7-19.6-10.7-30.6-10.7C631.6,152,627.7,152.5,624,153.3"/>
	</defs>
	<clipPath id="SVGID_11_">
		<use xlink:href="#SVGID_64_"  style="overflow:visible;"/>
	</clipPath>
	
		<linearGradient id="SVGID_12_" gradientUnits="userSpaceOnUse" x1="-1735.9641" y1="669.7995" x2="-1734.245" y2="669.7995" gradientTransform="matrix(177.8661 -22.0809 -22.0809 -177.8661 324075.3438 81092.125)">
		<stop  offset="0" style="stop-color:#00C6FF"/>
		<stop  offset="0.3078" style="stop-color:#0082FF"/>
		<stop  offset="0.6909" style="stop-color:#001CBF"/>
		<stop  offset="1" style="stop-color:#00CCFF"/>
	</linearGradient>
	<polygon class="st4" points="491.2,155.6 828.7,113.7 862.2,382.9 524.6,424.9 	"/>
</g>
<path class="st0" d="M373.8,303.3c0.1,16.4,8.3,30.5,24.4,30.5c14.1,0,18.3-6.3,21.3-13.3h26.3c-4,13.5-15.8,34.2-48.3,34.2
	c-35.2,0-50.1-27-50.1-55.3c0-33.4,17-58.2,51.2-58.2c36.5,0,48.7,27.3,48.7,53c0,3.5,0,6.1-0.4,9.1H373.8z M421,286.6
	c-0.2-14.4-6.6-26.2-22.5-26.2c-16,0-22.6,11-24,26.2H421z"/>
<path class="st0" d="M300.4,241.2c-17.8,0-27,8.5-32,16.4v-48.5h-17v0h-5.8l-5.6,0v0h-6.8c0,0,9,0.9,8.9,7.3c0,0,0,0,0,0
	c0.1,6.8,0.1,13.7,0.1,20.6v80.4h0v34.6h26.2V294c0-18.7,5.1-31.3,22.7-31.3c13.7,0,19.6,8.4,19.6,24v65.4h26.1v-69.4
	C336.8,252.3,319.7,241.2,300.4,241.2"/>
<linearGradient id="SVGID_13_" gradientUnits="userSpaceOnUse" x1="193.9791" y1="208.6278" x2="193.9791" y2="233.6831">
	<stop  offset="0" style="stop-color:#00C6FF"/>
	<stop  offset="0.3078" style="stop-color:#0082FF"/>
	<stop  offset="1" style="stop-color:#040E57"/>
</linearGradient>
<path class="st5" d="M185.2,216.2C185.2,216.2,185.2,216.2,185.2,216.2c0.1,6,0.1,12,0.1,18.1h26.3v-25.4h-26.2v0l-2.3,0v0h-6.8
	C176.3,208.9,185.3,209.8,185.2,216.2z"/>
<path class="st0" d="M233.8,263.8v-20.1h-22.1v0h0v0h-26.3v0H168v20.1h17.4v60.7c0,18.6,7.1,29.1,26.8,29.1c5.8,0,13.3-0.1,18.8-2
	v-18.4c-2.5,0.5-5.7,0.5-7.7,0.5c-9.2,0-11.8-3.9-11.8-12.9v-56.9H233.8z"/>
<path class="st0" d="M563.9,290c-2.4-26.7-21.6-46.5-48.3-48.6c-21.7-1.7-38.8,6.9-50,25.9c-6.5,11-8.2,23.3-7.3,35.9
	c0.8,11.3,4.4,21,9.9,28.9c2.2-2.3,4.3-4.5,6.5-6.8c3.9-4.1,7.7-8.5,12.4-11.6c-5.3-12.2-4.6-25,2.6-37c10.7-17.7,34.1-16.6,44,1.6
	c3.4,6.3,4.6,13.2,4.6,19.3c-0.2,6.5-1.1,12.3-3.5,17.4c1.9,5,3.5,10,5.1,15.1c1.2,3.7,2.3,8,4.3,11.5c0.1,0.1,0.2,0.3,0.3,0.4
	c1.5-1.3,3-2.6,4.5-4.1c11-11.1,15-25,15.2-41.3C564.2,295,564.1,292.5,563.9,290z"/>
</svg>
