<?xml version="1.0" standalone="no"?>
<!DOCTYPE svg PUBLIC "-//W3C//DTD SVG 20010904//EN"
 "http://www.w3.org/TR/2001/REC-SVG-20010904/DTD/svg10.dtd">
<svg version="1.0" xmlns="http://www.w3.org/2000/svg"
 width="720.000000pt" height="345.000000pt" viewBox="0 0 720.000000 345.000000"
 preserveAspectRatio="xMidYMid meet">

<g transform="translate(0.000000,345.000000) scale(0.100000,-0.100000)"
fill="#040E57" stroke="none">
<path d="M4500 2748 c-14 -6 -64 -14 -111 -18 -53 -5 -105 -16 -135 -30 -27
-12 -69 -24 -94 -26 -59 -6 -106 -21 -155 -49 -22 -12 -69 -30 -105 -39 -169
-43 -248 -146 -278 -358 l-17 -119 -58 -23 c-104 -43 -174 -115 -219 -226 -18
-45 -22 -75 -22 -165 0 -126 19 -189 80 -269 32 -42 103 -100 111 -92 2 2 10
49 18 104 13 94 13 102 -6 153 -42 110 -10 245 74 311 37 30 48 33 108 33 60
0 71 -3 104 -30 21 -17 49 -53 64 -80 22 -43 26 -62 25 -135 0 -87 -10 -119
-57 -182 -15 -20 -20 -43 -20 -95 0 -37 3 -78 7 -90 l7 -23 51 26 c128 65 208
206 208 366 0 239 -151 407 -375 417 -38 2 -72 4 -73 6 -9 8 22 195 40 242 10
29 39 74 64 102 44 49 130 101 166 101 17 0 17 -3 -6 -33 -14 -18 -32 -49 -40
-69 -16 -37 -57 -207 -58 -243 -1 -11 -5 -25 -10 -32 -5 -6 -5 -14 2 -18 12
-8 13 -6 40 115 32 142 48 185 91 240 35 44 44 50 77 50 59 0 84 -10 76 -29
-9 -20 -85 -235 -84 -238 0 -2 0 -4 -1 -5 0 -2 -2 -14 -5 -28 l-4 -25 15 25
c8 14 26 61 41 105 45 137 65 177 83 170 9 -4 41 -16 71 -27 30 -11 56 -22 58
-23 2 -2 -10 -30 -27 -63 -16 -33 -27 -62 -24 -66 4 -3 0 -6 -7 -6 -7 0 -11
-3 -7 -6 3 -4 -1 -20 -9 -36 -9 -17 -14 -32 -11 -34 2 -2 28 42 56 100 l53
103 106 -40 c335 -127 858 -314 867 -309 5 3 -14 16 -43 29 -52 23 -856 324
-899 338 l-23 6 20 37 c10 20 23 43 28 50 6 9 138 -51 533 -246 554 -274 623
-307 614 -292 -9 15 7 12 40 -8 17 -10 53 -30 80 -46 l50 -27 -30 26 c-16 14
-39 34 -50 44 -11 10 -186 124 -390 253 -569 362 -628 398 -652 405 -39 9 -25
21 31 28 63 8 123 0 181 -25 22 -9 141 -97 265 -196 124 -98 308 -243 410
-322 102 -80 201 -159 220 -177 36 -33 170 -130 170 -123 0 22 -290 260 -910
746 -127 99 -181 122 -288 121 -42 0 -88 -5 -102 -11z m-135 -74 c-34 -27 -42
-28 -82 -13 -25 9 -26 11 -10 21 21 11 109 27 117 20 3 -2 -8 -15 -25 -28z
m133 12 c23 -8 169 -96 324 -194 156 -99 351 -222 435 -274 145 -92 226 -148
211 -148 -9 0 -82 42 -88 52 -3 4 -234 120 -513 258 -279 138 -507 253 -507
256 0 6 82 64 90 64 4 0 26 -6 48 -14z m-348 -44 c0 -5 -12 -20 -28 -35 -27
-26 -40 -27 -92 -10 -19 6 6 20 65 39 49 16 55 16 55 6z m110 -3 c27 -6 50
-13 50 -15 0 -3 -11 -27 -25 -54 l-25 -50 -58 21 c-81 30 -83 35 -38 75 22 19
41 34 42 34 2 0 26 -5 54 -11z"/>
<path d="M1688 2330 l22 -21 0 -509 0 -510 94 0 94 0 4 263 c3 256 4 263 28
312 33 65 74 87 152 82 62 -4 88 -20 116 -72 14 -25 17 -75 20 -308 l4 -278
91 3 92 3 3 260 c4 340 -10 417 -85 486 -98 92 -277 91 -374 -1 -23 -22 -44
-40 -46 -40 -1 0 -3 79 -3 175 l0 175 -117 0 -117 0 22 -20z"/>
<path d="M1296 2273 c-3 -21 -6 -55 -6 -75 l0 -38 101 0 101 0 -7 68 c-4 37
-9 70 -12 75 -2 4 -42 7 -87 7 l-83 0 -7 -37z"/>
<path d="M3780 2129 c0 -5 5 -7 10 -4 6 3 10 8 10 11 0 2 -4 4 -10 4 -5 0 -10
-5 -10 -11z"/>
<path d="M2750 2096 c-153 -44 -239 -158 -260 -344 -22 -200 54 -374 193 -441
138 -67 339 -37 439 66 38 40 90 132 82 145 -3 4 -45 8 -94 8 l-88 0 -21 -34
c-30 -48 -80 -69 -150 -64 -95 7 -153 67 -168 173 l-6 45 272 0 271 0 0 59 c0
180 -70 310 -198 369 -66 30 -200 39 -272 18z m173 -140 c18 -7 43 -25 56 -39
26 -29 56 -126 43 -139 -5 -5 -82 -7 -173 -6 l-164 3 3 30 c2 17 13 50 25 75
37 75 132 109 210 76z"/>
<path d="M4477 2096 c-42 -16 -106 -61 -114 -82 -11 -29 -23 -12 -23 31 l0 45
-116 0 c-112 0 -115 -1 -95 -17 21 -18 21 -25 24 -398 l2 -380 92 -3 91 -3 4
268 c4 290 8 313 61 362 30 27 106 39 149 22 60 -23 63 -37 68 -356 l5 -290
92 -3 92 -3 3 273 c4 305 8 330 70 368 39 24 107 26 147 5 56 -29 61 -56 61
-347 l0 -265 -237 -105 c-237 -105 -238 -105 -353 -117 -63 -6 -125 -14 -137
-17 -37 -7 -26 -20 13 -16 46 6 38 -13 -8 -22 -67 -13 -73 -14 -81 -15 -5 -1
-6 -5 -3 -10 3 -4 18 -7 33 -4 24 3 25 2 8 -7 -11 -5 -33 -15 -50 -22 -16 -6
-32 -12 -35 -14 -3 -1 -15 -5 -27 -9 -13 -4 -23 -11 -23 -16 0 -5 12 -4 26 2
15 5 29 8 31 5 5 -5 -53 -37 -63 -35 -4 0 -10 -3 -13 -8 -3 -4 -22 -16 -41
-26 -19 -10 -26 -15 -15 -11 11 3 27 7 35 9 8 2 105 42 215 90 110 48 234 95
275 106 41 10 197 30 345 44 727 70 816 83 865 125 29 25 24 25 -41 0 -46 -19
-332 -52 -718 -85 -77 -6 -46 1 259 66 259 54 353 80 384 104 34 26 8 30 -40
6 -27 -12 -150 -43 -290 -71 -134 -28 -284 -59 -334 -70 -49 -11 -95 -20 -102
-19 -7 0 120 44 283 98 288 95 380 134 393 166 8 22 -4 19 -49 -12 -25 -17
-171 -69 -390 -139 -192 -62 -351 -111 -352 -110 -2 2 88 42 199 91 333 145
423 190 449 227 24 33 20 32 -46 -12 -33 -22 -157 -80 -170 -80 -2 0 -5 116
-7 258 -3 246 -4 259 -26 304 -13 27 -42 63 -64 82 -98 84 -275 70 -373 -30
-22 -23 -40 -34 -42 -27 -10 28 -48 65 -86 85 -53 27 -157 34 -210 14z"/>
<path d="M1170 2015 l0 -75 60 0 60 0 0 -229 c0 -245 8 -316 41 -362 35 -50
73 -64 174 -64 124 0 125 1 125 80 l0 65 -50 0 c-37 0 -55 5 -70 20 -19 19
-20 33 -20 255 l0 235 80 0 80 0 0 75 0 75 -240 0 -240 0 0 -75z"/>
<path d="M3541 1425 c-15 -103 -14 -113 10 -120 11 -4 23 -4 26 -1 3 3 13 39
23 80 l17 74 -28 21 c-16 12 -30 21 -32 21 -3 0 -10 -34 -16 -75z"/>
<path d="M3743 1458 c-27 -13 -43 -62 -43 -131 l0 -49 43 7 c23 4 42 8 43 9 4
9 -10 176 -15 175 -3 0 -16 -5 -28 -11z"/>
<path d="M3626 1374 c-9 -42 -15 -78 -14 -80 2 -1 15 -5 29 -9 25 -6 26 -5 32
57 4 35 10 73 13 86 5 18 2 22 -18 22 -23 0 -26 -6 -42 -76z"/>
</g>
</svg>
