<svg version="1.0" xmlns="http://www.w3.org/2000/svg"
 width="532.000000pt" height="95.000000pt" viewBox="0 0 532.000000 95.000000"
 preserveAspectRatio="xMidYMid meet">
<g transform="translate(0.000000,95.000000) scale(0.100000,-0.100000)"
fill="#000000" stroke="none">
<path d="M90 770 l0 -80 130 0 130 0 0 -320 0 -320 100 0 100 0 0 320 0 319
57 3 56 3 54 78 55 77 -341 0 -341 0 0 -80z"/>
<path d="M860 767 c-30 -44 -76 -110 -102 -146 l-48 -66 0 -252 0 -253 105 0
105 0 0 155 0 155 175 0 175 0 0 -155 0 -155 105 0 105 0 0 400 0 400 -105 0
-105 0 0 -160 0 -160 -175 0 -175 0 -2 159 -3 158 -55 -80z"/>
<path d="M1610 451 l0 -401 105 0 105 0 0 135 0 135 54 0 54 0 101 -135 101
-135 117 0 c110 0 115 1 101 18 -76 88 -210 266 -201 269 40 14 122 75 148
111 27 40 30 50 30 125 0 97 -21 145 -86 200 -74 64 -105 70 -381 75 l-248 4
0 -401z m439 236 c103 -36 102 -198 -1 -225 -15 -4 -73 -6 -128 -4 l-100 3 0
120 0 119 98 -1 c53 0 112 -5 131 -12z"/>
<path d="M2400 843 c-1 -5 -1 -151 0 -326 l0 -318 61 -75 60 -74 192 0 192 1
37 79 37 80 -189 0 -190 0 0 80 0 80 205 0 205 0 0 80 0 80 -205 0 -205 0 0
80 0 80 220 0 220 0 0 80 0 80 -320 0 c-176 0 -320 -3 -320 -7z"/>
<path d="M3360 768 c-158 -341 -323 -695 -327 -706 -4 -9 21 -12 105 -12 l110
0 25 63 25 62 210 3 210 2 27 -65 28 -65 108 0 108 0 -64 138 c-35 75 -118
254 -184 397 l-120 260 -111 3 -111 3 -39 -83z m221 -255 c37 -87 65 -160 63
-162 -4 -5 -257 -1 -263 4 -5 6 122 315 129 315 3 0 35 -71 71 -157z"/>
<path d="M3840 770 l0 -80 125 0 125 0 0 -320 0 -320 59 0 59 0 46 68 46 67 0
252 0 252 55 3 55 3 -57 78 -57 77 -228 0 -228 0 0 -80z"/>
<path d="M4410 845 c0 -2 15 -24 33 -48 17 -23 68 -95 112 -160 44 -64 82
-116 85 -116 3 0 30 35 61 78 l57 79 -58 83 -57 84 -117 3 c-64 1 -116 0 -116
-3z"/>
</g>
<g transform="translate(0.000000,95.000000) scale(0.100000,-0.100000)"
fill="#c9360d" stroke="none">
<path d="M4939 788 c-24 -35 -55 -79 -69 -98 -29 -38 -430 -605 -443 -627 -6
-10 12 -13 95 -13 l103 0 90 140 c50 77 93 140 96 140 4 0 48 -63 98 -140 l91
-140 111 0 110 0 -19 27 c-10 16 -74 106 -141 200 l-122 173 136 200 135 200
-114 0 -115 0 -42 -62z"/>
</g>
</svg>
