<?xml version="1.0" encoding="UTF-8"?>
<svg xmlns="http://www.w3.org/2000/svg" version="1.1" width="334px" height="167px" style="shape-rendering:geometricPrecision; text-rendering:geometricPrecision; image-rendering:optimizeQuality; fill-rule:evenodd; clip-rule:evenodd" xmlns:xlink="http://www.w3.org/1999/xlink">
<g><path style="opacity:0.987" fill="#fe7a4f" d="M 4.5,-0.5 C 8.5,-0.5 12.5,-0.5 16.5,-0.5C 51.6387,4.56966 76.9721,23.0697 92.5,55C 92.2716,55.3988 91.9382,55.5654 91.5,55.5C 62.8314,55.6666 34.1647,55.5 5.5,55C 3.34004,53.668 1.34004,52.168 -0.5,50.5C -0.5,35.1667 -0.5,19.8333 -0.5,4.5C 0.930149,2.614 2.59682,0.947334 4.5,-0.5 Z"/></g>
<g><path style="opacity:0.997" fill="#fca567" d="M 16.5,-0.5 C 90.1667,-0.5 163.833,-0.5 237.5,-0.5C 210.543,3.96985 188.709,16.9698 172,38.5C 168.101,43.631 165.268,49.2977 163.5,55.5C 156.834,73.836 156.834,92.1694 163.5,110.5C 173.053,134.551 190.053,151.051 214.5,160C 222.767,162.982 231.1,165.149 239.5,166.5C 193.833,166.5 148.167,166.5 102.5,166.5C 100.525,165.354 99.025,163.687 98,161.5C 97.8986,131.147 97.2319,100.814 96,70.5C 94.9585,65.3275 93.4585,60.3275 91.5,55.5C 91.9382,55.5654 92.2716,55.3988 92.5,55C 76.9721,23.0697 51.6387,4.56966 16.5,-0.5 Z"/></g>
<g><path style="opacity:1" fill="#345d7f" d="M 237.5,-0.5 C 246.833,-0.5 256.167,-0.5 265.5,-0.5C 294.305,4.22996 316.971,18.5633 333.5,42.5C 333.5,45.1667 333.5,47.8333 333.5,50.5C 331.66,52.168 329.66,53.668 327.5,55C 272.834,55.5 218.168,55.6667 163.5,55.5C 165.268,49.2977 168.101,43.631 172,38.5C 188.709,16.9698 210.543,3.96985 237.5,-0.5 Z"/></g>
<g><path style="opacity:1" fill="#345d7f" d="M 163.5,110.5 C 218.168,110.333 272.834,110.5 327.5,111C 329.66,112.332 331.66,113.832 333.5,115.5C 333.5,118.167 333.5,120.833 333.5,123.5C 316.966,147.439 294.3,161.772 265.5,166.5C 256.833,166.5 248.167,166.5 239.5,166.5C 231.1,165.149 222.767,162.982 214.5,160C 190.053,151.051 173.053,134.551 163.5,110.5 Z"/></g>
</svg>
