<svg xmlns="http://www.w3.org/2000/svg" viewBox="0 0 515.82217 287.49112"><defs><linearGradient id="b3e05396-9888-427c-b5ac-ff59becfc2d5" x1="126.44209" y1="95.80644" x2="126.44209" y2="0.07184" gradientUnits="userSpaceOnUse"><stop offset="0" stop-color="#ff7a4f"/><stop offset="0.26721" stop-color="#fa754a"/><stop offset="0.59127" stop-color="#eb663c"/><stop offset="0.94356" stop-color="#d34e24"/><stop offset="1" stop-color="#ce4920"/></linearGradient><linearGradient id="f04bd3de-6b48-41eb-8084-67d99b3a1812" y1="47.93914" x2="117.7641" y2="47.93914" gradientUnits="userSpaceOnUse"><stop offset="0.20077" stop-color="#ce4920" stop-opacity="0"/><stop offset="0.293" stop-color="#ce4920" stop-opacity="0.02496"/><stop offset="0.40494" stop-color="#ce4920" stop-opacity="0.09706"/><stop offset="0.52716" stop-color="#ce4920" stop-opacity="0.21642"/><stop offset="0.65668" stop-color="#ce4920" stop-opacity="0.38312"/><stop offset="0.79199" stop-color="#ce4920" stop-opacity="0.59737"/><stop offset="0.93012" stop-color="#ce4920" stop-opacity="0.85523"/><stop offset="1" stop-color="#ce4920"/></linearGradient><linearGradient id="b49e667a-1b21-4187-aaa3-5e3282e0d4a5" x1="263.89061" y1="47.93914" x2="508.06478" y2="47.93914" gradientUnits="userSpaceOnUse"><stop offset="0" stop-color="#001c25"/><stop offset="0.5" stop-color="#335d7f"/><stop offset="1" stop-color="#8bb7ee"/></linearGradient><linearGradient id="ee47f59c-47a4-4cea-aaf1-f1d35b6caf63" x1="264.95389" y1="239.55198" x2="506.78063" y2="239.55198"/><linearGradient id="a38d9585-d6e1-455a-a3eb-b4244c7ae454" x1="358.88842" y1="2.6578" x2="358.88842" y2="93.4761" gradientUnits="userSpaceOnUse"><stop offset="0" stop-color="#001c25" stop-opacity="0.5"/><stop offset="1" stop-color="#001c25" stop-opacity="0"/></linearGradient><linearGradient id="b8137f0d-09c7-4543-b9d9-69d00ea0f3d7" x1="358.88842" y1="275.93268" x2="358.88842" y2="215.24939"/><linearGradient id="f7f88c79-7c8d-4645-b611-0030d5995e64" x1="201.95241" y1="12.39392" x2="201.95241" y2="275.17777" gradientUnits="userSpaceOnUse"><stop offset="0" stop-color="#ff7a4f"/><stop offset="0.5" stop-color="#fbd27e"/><stop offset="1" stop-color="#ff7a4f"/></linearGradient></defs><g id="fe7e73de-4c89-42e2-98ec-6b8698696ac1" <g id="e3377e8d-efd1-4cd4-b4d2-02ffd11851b4" <g id="f7293759-f5db-498d-acac-4ad32acbdb79" <path d="M0,15.18009v65.5181A15.10825,15.10825,0,0,0,15.10825,95.80644H201.95241l.00227-95.7346H15.10825A15.10824,15.10824,0,0,0,0,15.18009Z"/><path d="M74.67009,95.80644H201.95468V1.07184l-186.84643-1A15.10824,15.10824,0,0,0,0,15.18009v65.5181A15.10825,15.10825,0,0,0,15.10825,95.80644Z"/><path d="M513.90231,73.57546A143.68741,143.68741,0,0,0,388.42967,0c-3.93012,0-13.92327.07184-15.10373.07184l-171.37126,1v94.7346h50.92951l-.02614.07183H500.73894A15.02281,15.02281,0,0,0,513.90231,73.57546Z"/><path d="M513.90231,213.91566a143.68741,143.68741,0,0,1-125.47264,73.57546c-3.93012,0-13.92327-.07184-15.10373-.07184l-171.37126-1v-94.7346h50.92951l-.02614-.07183H500.73894A15.02281,15.02281,0,0,1,513.90231,213.91566Z"/><path d="M513.90231,73.57546A143.68741,143.68741,0,0,0,388.42967,0c-3.93012,0-13.92327.07184-15.10373.07184l-171.37126,1v94.7346h50.92951l-.02614.07183H500.73894A15.02281,15.02281,0,0,0,513.90231,73.57546Z" ="fill:url(#a38d9585-d6e1-455a-a3eb-b4244c7ae454)"/><path d="M513.90231,213.91566a143.68741,143.68741,0,0,1-125.47264,73.57546c-3.93012,0-13.92327-.07184-15.10373-.07184l-171.02381-.998a.34949.34949,0,0,1-.34745-.34948V191.95217a.26749.26749,0,0,1,.26749-.26749h50.662l-.02614-.07183H500.73894A15.02281,15.02281,0,0,1,513.90231,213.91566Z"/><path d="M388.4274,0H151.24256V.07181l-135.76513,0c1.711,0,5.7207.39882,8.545.72252A143.92037,143.92037,0,0,1,151.24256,143.74557V272.54111a14.95,14.95,0,0,0,14.95,14.95H388.4274c-9.68416-.32145-15.60487-.63349-23.1372-1.85229A143.76279,143.76279,0,0,1,376.04342.526C380.12513.style17772,385.89151,0,388.4274,0Z"/></g></g></g></svg>