<?xml version="1.0" encoding="utf-8"?>
<!-- Generator: Adobe Illustrator 27.2.0, SVG Export Plug-In . SVG Version: 6.00 Build 0)  -->
<svg version="1.1" xmlns="http://www.w3.org/2000/svg" x="0px" y="0px" viewBox="0 0 465.2 153" xml:space="preserve">
<g id="ad0ff500-28cf-48cb-a9eb-87923a39e235">
	<path id="61c7e63d-3ff9-4208-853f-fee0c4db6100" d="M24.1,42.6h27.7V21.4H24.1V0H0l0,94.1c0,15.4,9.6,25.4,24.4,25.4h27.6V97.4h-28V42.6z"/>
	<path id="032b136e-d2e8-4252-9bd5-8939ea51db97" d="M135.1,25.8c-7.9-4.4-16.9-6.6-26.6-6.6s-18.7,2.2-26.6,6.6C73.9,30.2,67.6,36.4,63,44.2
		c-4.5,7.8-6.8,16.6-6.8,26.3s2.3,18.4,6.8,26.2c4.5,7.8,10.8,14,18.8,18.4c7.9,4.4,16.9,6.7,26.7,6.7s18.7-2.2,26.6-6.7
		c7.9-4.4,14.2-10.6,18.8-18.4c4.5-7.8,6.8-16.6,6.8-26.2s-2.3-18.4-6.8-26.2S143,30.2,135.1,25.8L135.1,25.8z M136.1,70.5
		c0,8.3-2.6,15.1-7.8,20.4c-5.2,5.3-11.8,7.9-19.8,7.9s-14.7-2.7-19.8-7.9c-5.2-5.3-7.8-12.1-7.8-20.4s2.6-15.1,7.8-20.4
		c5.2-5.3,11.8-7.9,19.8-7.9s14.7,2.7,19.8,7.9C133.4,55.3,136.1,62.2,136.1,70.5z"/>
	<path id="29051368-da39-4ce7-979a-1faf1186d6aa" d="M172,43.2v76.5h24.1V42.9h28.1V21h-29.4C180.1,21,172,34.1,172,43.2z"/>
	<path id="3e80d3bf-565a-404a-b33b-fb4f981fc26a" d="M309.5,21.4v8.1c-8.2-6.4-18.5-10.2-30.2-10.4c-6.9,0.1-13.5,1.4-19.5,3.9c-6.2,2.6-12.1,6.5-16.5,10.9
		c-4.3,4.4-7.8,9.9-10.4,16.3c-2.7,6.7-4,13.5-4,20.3s1.4,14.1,4.1,20.7c2.4,5.9,5.9,11.1,10.6,16c4.3,4.4,9.9,8.1,16.3,10.8
		c6,2.5,12.6,3.7,20.2,3.7c10.8,0,19.2-2.6,28-8.5l0.1,39.8h24.3V21.4H309.5L309.5,21.4z M301.2,90.6c-5.7,5.8-11.6,8.2-19.8,8.2
		c-8.6,0-15-2.5-20.4-8c-5.6-5.7-8.1-11.9-8.1-20.2s2.8-14.9,8.4-20.6c5.3-5.4,11.5-7.8,20.2-7.8c7.9,0,14.1,2.6,19.7,8.2
		c5.6,5.6,8.1,11.8,8.1,20.2S306.8,85,301.2,90.6L301.2,90.6z"/>
</g>
<g id="e09b82cb-c61c-4aaf-8c2d-c80d2be1b8b7">
	<path d="M465.2,29.4c0-4.8-5.3-9.2-10.7-9.2h-47.7v22.5h58.4C465.2,42.7,465.2,29.3,465.2,29.4z"/>
	<rect x="359.3" y="58.9" width="105.9" height="22.5"/>
	<path d="M359.4,97.7v13c0,4.9,5.3,9.5,10.7,9.5h48.7V97.7L359.4,97.7L359.4,97.7z"/>
</g>
</svg>
