<svg width="28" height="38" viewBox="0 0 28 38" fill="none" xmlns="http://www.w3.org/2000/svg">
<path d="M27.644 0V6.4576L27.6435 8.51424L27.6086 8.47633C27.6204 8.4906 27.632 8.50512 27.6434 8.51984V8.54239C27.5812 9.51162 27.2985 10.4245 26.8463 11.2303C26.558 11.7487 26.2018 12.2276 25.7835 12.6446C25.5969 12.8362 25.3934 13.0109 25.1842 13.1743C25.1788 13.1798 25.1719 13.1839 25.1651 13.188L25.1645 13.1884C25.1574 13.1926 25.1503 13.1968 25.1446 13.2025L25.1277 13.2194C24.0423 14.0477 22.6855 14.5436 21.2099 14.5436H21.1873V6.46322H21.1818V6.44068H14.3075C12.7075 6.33371 11.2603 5.64621 10.1918 4.58684C9.9996 4.4009 9.82435 4.19804 9.6604 3.98955C9.65192 3.97828 9.64485 3.96842 9.63779 3.95856L9.63775 3.9585C9.63069 3.94866 9.62364 3.93881 9.61518 3.92756C8.78414 2.84561 8.28665 1.49331 8.28665 0.0225416V0H27.644Z" fill="#1C2745"/>
<path d="M19.7294 32.0963C20.7526 32.0963 21.9343 31.7751 22.9009 31.2904L24.7275 36.8631C22.8449 37.6125 21.2904 37.9393 19.3004 37.9901C13.551 38.2042 9.79155 34.936 9.79155 28.3487V17.7608H9.78589V17.7664H6.11685L6.10419 17.7644C6.07566 17.7594 6.05035 17.7552 6.02073 17.7552C4.42095 17.6481 2.97368 16.9607 1.90521 15.9013C1.713 15.7154 1.53775 15.5125 1.3738 15.3039C0.514447 14.2108 0 12.8359 0 11.337V11.3145H16.2923V28.349C16.2923 30.8623 17.6887 32.0963 19.7294 32.0963Z" fill="#1C2745"/>
<path d="M27.4632 8.31721C26.3948 7.25786 24.9474 6.57034 23.3476 6.46338H21.188V14.5438H21.2106C22.6861 14.5438 24.043 14.048 25.1283 13.2196C25.1341 13.214 25.1397 13.2083 25.1453 13.2027C25.1567 13.1914 25.1735 13.1858 25.1849 13.1745C25.394 13.0111 25.5976 12.8365 25.7841 12.6449C26.2025 12.2279 26.5587 11.7489 26.847 11.2305C27.2992 10.4247 27.5819 9.51187 27.6441 8.54263V8.5201C27.5875 8.44684 27.5253 8.37923 27.4632 8.31724V8.31721Z" fill="#DD112D"/>
<path d="M27.6452 6.4576V0H8.28784V0.0225416C8.28784 1.49331 8.78533 2.84561 9.61635 3.92756C9.63332 3.95011 9.64462 3.96701 9.66159 3.98955C9.82553 4.19804 10.0008 4.4009 10.193 4.58684C11.2615 5.64621 12.7086 6.33371 14.3085 6.44068H21.1829V6.46322H23.3425C24.9423 6.57028 26.3897 7.25774 27.4581 8.31705C27.5202 8.37904 27.5824 8.44665 27.6446 8.51428V6.45748L27.6452 6.4576Z" fill="#FF2D4E"/>
</svg>
