<?xml version="1.0" encoding="UTF-8"?>
<!DOCTYPE svg PUBLIC "-//W3C//DTD SVG 1.1//EN" "http://www.w3.org/Graphics/SVG/1.1/DTD/svg11.dtd">
<!-- Creator: CorelDRAW X6 -->
<svg xmlns="http://www.w3.org/2000/svg" xml:space="preserve" width="1.01389in" height="1.01389in" version="1.1" style="shape-rendering:geometricPrecision; text-rendering:geometricPrecision; image-rendering:optimizeQuality; fill-rule:evenodd; clip-rule:evenodd"
viewBox="0 0 1014 1014"
 xmlns:xlink="http://www.w3.org/1999/xlink">
 <defs>
  <style type="text/css">
   <![CDATA[
    .fil0 {fill:#FEFEFE;fill-rule:nonzero}
    .fil1 {fill:#DA2033;fill-rule:nonzero}
   ]]>
  </style>
 </defs>
 <g id="Layer_x0020_1">
  <metadata id="CorelCorpID_0Corel-Layer"/>
  <path class="fil0" d="M1015 507c0,280 -227,507 -507,507 -280,0 -507,-227 -507,-507 0,-279 225,-505 503,-507l9 0c278,3 503,229 503,507z"/>
  <path class="fil0" d="M1015 507c0,280 -227,507 -507,507 -280,0 -507,-227 -507,-507 0,-279 225,-505 503,-507l8 0c278,2 503,228 503,507z"/>
  <path class="fil1" d="M92 603c0,-1 0,-1 1,-2 1,-2 1,-4 2,-5 1,-2 1,-3 2,-5 0,-1 1,-2 1,-2 9,-23 21,-47 36,-72 2,-4 4,-8 6,-12l-61 0 15 -33c50,-14 134,-42 214,-119l2 0 42 0 -54 116 87 0 -16 35 -87 0c0,0 -41,82 -55,140 -11,65 0,114 58,132 36,11 81,9 130,-5 113,-35 234,-113 322,-216 146,-169 148,-342 6,-386 -91,-28 -219,3 -338,74 148,-96 311,-140 423,-105 21,7 39,16 55,27 -91,-101 -223,-165 -369,-167l-11 0c-278,2 -503,228 -503,507 0,103 31,200 84,280 -20,-50 -17,-113 8,-183z"/>
  <path class="fil1" d="M938 237c34,92 -9,230 -126,366 -176,205 -454,328 -621,276 -21,-6 -39,-15 -54,-26 93,99 224,160 370,160 280,0 507,-227 507,-507 0,-99 -28,-191 -77,-269z"/>
 </g>
</svg>
