<svg width="4598" height="1055" viewBox="0 0 4598 1055" fill="none" xmlns="http://www.w3.org/2000/svg">
<path d="M307.548 209.641C319.279 190.082 340.43 178.078 363.289 178.078L691.711 178.078L692.798 178.087C715.602 178.467 736.573 190.782 748.002 210.578L912.213 495C923.643 514.797 923.822 539.116 912.75 559.054L912.213 559.999L748.003 844.421C736.573 864.218 715.601 876.532 692.798 876.912L691.711 876.921L363.289 876.921C340.067 876.921 318.609 864.532 306.998 844.421L142.787 560C131.176 539.889 131.176 515.11 142.787 494.999L306.998 210.578L307.548 209.641Z" fill="#FF8C00" stroke="white" stroke-width="30"/>
<path d="M442.094 287.5C453.825 267.942 474.975 255.938 497.835 255.937L736.374 255.937L737.46 255.946C760.263 256.326 781.235 268.64 792.665 288.437L911.935 495.018C923.364 514.815 923.543 539.134 912.47 559.072L911.935 560.018L792.665 766.599C781.235 786.396 760.264 798.709 737.461 799.089L736.373 799.099L497.835 799.099C474.613 799.099 453.154 786.709 441.543 766.598L322.274 560.018C310.663 539.907 310.663 515.129 322.274 495.018L441.543 288.437L442.094 287.5Z" stroke="white" stroke-width="30"/>
<path d="M590.695 373.668C602.426 354.109 623.576 342.105 646.436 342.105L785.459 342.105L786.547 342.114C809.35 342.494 830.322 354.808 841.751 374.605L911.264 495.004C922.693 514.8 922.872 539.119 911.8 559.057L911.263 560.003L841.751 680.402C830.322 700.199 809.35 712.512 786.547 712.892L785.46 712.902L646.435 712.902C623.213 712.901 601.755 700.513 590.144 680.402L520.632 560.003C509.021 539.892 509.021 515.114 520.632 495.003L590.144 374.605L590.695 373.668Z" fill="#FF8C00" stroke="white" stroke-width="30"/>
<path d="M1176.66 266.398H1547.72V371.132H1413.81V817H1305.34V371.132H1176.66V266.398ZM1819.24 266.398C1853.65 266.398 1884.32 270.886 1911.25 279.863C1938.18 288.342 1960.63 300.81 1978.58 317.268C1997.04 333.228 2011 352.679 2020.48 375.62C2029.95 398.063 2034.69 423.499 2034.69 451.927C2034.69 474.37 2031.2 496.813 2024.22 519.256C2017.73 541.699 2006.76 562.147 1991.3 580.6C1976.34 599.053 1956.39 614.015 1931.45 625.486C1906.52 636.458 1875.59 641.944 1838.69 641.944H1760.88V817H1652.41V266.398H1819.24ZM1837.94 537.21C1854.4 537.21 1868.11 534.467 1879.08 528.981C1890.06 523.495 1898.54 516.513 1904.52 508.034C1911 499.556 1915.49 490.828 1917.99 481.851C1920.98 472.375 1922.47 463.647 1922.47 455.667C1922.47 449.682 1921.48 442.201 1919.48 433.224C1917.99 423.748 1914.49 414.272 1909.01 404.796C1903.52 395.32 1895.04 387.341 1883.57 380.857C1872.6 374.374 1857.64 371.132 1838.69 371.132H1760.88V537.21H1837.94ZM1939.68 604.539L2075.84 817H1949.41L1810.26 607.532L1939.68 604.539ZM2112.61 542.447C2112.61 504.543 2119.84 468.634 2134.3 434.72C2148.77 400.806 2168.72 370.882 2194.15 344.948C2220.09 318.515 2250.01 297.818 2283.92 282.856C2317.84 267.894 2354.25 260.413 2393.15 260.413C2431.55 260.413 2467.71 267.894 2501.62 282.856C2535.54 297.818 2565.46 318.515 2591.39 344.948C2617.83 370.882 2638.27 400.806 2652.74 434.72C2667.7 468.634 2675.18 504.543 2675.18 542.447C2675.18 581.348 2667.7 617.756 2652.74 651.67C2638.27 685.584 2617.83 715.508 2591.39 741.442C2565.46 766.877 2535.54 786.827 2501.62 801.29C2467.71 815.753 2431.55 822.985 2393.15 822.985C2354.25 822.985 2317.84 815.753 2283.92 801.29C2250.01 786.827 2220.09 766.877 2194.15 741.442C2168.72 715.508 2148.77 685.584 2134.3 651.67C2119.84 617.756 2112.61 581.348 2112.61 542.447ZM2224.82 542.447C2224.82 566.885 2229.06 589.827 2237.54 611.272C2246.52 632.219 2258.74 650.922 2274.2 667.38C2290.16 683.339 2308.36 695.808 2328.81 704.785C2349.76 713.762 2372.45 718.251 2396.89 718.251C2420.33 718.251 2442.02 713.762 2461.97 704.785C2482.42 695.808 2500.13 683.339 2515.09 667.38C2530.05 650.922 2541.77 632.219 2550.25 611.272C2558.73 589.827 2562.97 566.885 2562.97 542.447C2562.97 517.51 2558.48 494.319 2549.5 472.874C2541.02 451.428 2529.05 432.725 2513.59 416.766C2498.63 400.308 2480.92 387.59 2460.48 378.613C2440.03 369.636 2417.83 365.147 2393.9 365.147C2369.96 365.147 2347.76 369.636 2327.31 378.613C2306.87 387.59 2288.91 400.308 2273.45 416.766C2257.99 432.725 2246.02 451.428 2237.54 472.874C2229.06 494.319 2224.82 517.51 2224.82 542.447ZM2950.15 266.398C2995.54 266.398 3033.94 274.128 3065.36 289.589C3096.78 304.551 3120.72 325.996 3137.18 353.925C3153.64 381.356 3161.87 414.023 3161.87 451.927C3161.87 474.37 3158.38 497.062 3151.39 520.004C3144.91 542.447 3134.19 562.895 3119.23 581.348C3104.76 599.801 3085.06 614.763 3060.13 626.234C3035.69 637.206 3005.51 642.692 2969.61 642.692H2891.8V817H2783.33V266.398H2950.15ZM2968.86 537.21C2985.32 537.21 2999.03 534.467 3010 528.981C3020.98 522.996 3029.45 515.765 3035.44 507.286C3041.92 498.309 3046.41 489.082 3048.9 479.606C3051.9 470.13 3053.39 461.901 3053.39 454.919C3053.39 449.433 3052.4 442.201 3050.4 433.224C3048.9 423.748 3045.41 414.272 3039.93 404.796C3034.44 395.32 3025.96 387.341 3014.49 380.857C3003.52 374.374 2988.56 371.132 2969.61 371.132H2891.8V537.21H2968.86ZM3258.93 266.398H3367.4V817H3258.93V266.398ZM3922.46 771.366C3916.48 776.353 3905.26 783.086 3888.8 791.565C3872.84 800.043 3853.14 807.524 3829.7 814.008C3806.26 820.491 3780.32 823.484 3751.9 822.985C3708.51 821.987 3669.61 814.257 3635.19 799.794C3601.28 784.832 3572.35 764.633 3548.41 739.197C3524.97 713.762 3507.02 684.586 3494.55 651.67C3482.08 618.753 3475.85 583.592 3475.85 546.187C3475.85 504.294 3482.08 465.891 3494.55 430.98C3507.52 396.068 3525.72 365.895 3549.16 340.46C3573.1 315.024 3601.53 295.324 3634.45 281.36C3667.36 267.395 3703.77 260.413 3743.67 260.413C3780.57 260.413 3813.24 265.4 3841.67 275.375C3870.1 285.35 3893.29 296.072 3911.24 307.543L3868.6 410.033C3856.13 400.557 3839.42 390.832 3818.48 380.857C3798.03 370.384 3774.34 365.147 3747.41 365.147C3726.46 365.147 3706.26 369.636 3686.81 378.613C3667.86 387.091 3650.9 399.31 3635.94 415.27C3621.48 431.229 3610.01 449.932 3601.53 471.377C3593.05 492.324 3588.81 515.266 3588.81 540.203C3588.81 566.636 3592.55 590.824 3600.03 612.768C3608.01 634.713 3619.23 653.665 3633.7 669.624C3648.16 685.085 3665.37 697.054 3685.32 705.533C3705.76 714.011 3728.71 718.251 3754.14 718.251C3783.57 718.251 3808.75 713.513 3829.7 704.037C3850.65 694.561 3866.61 684.586 3877.58 674.113L3922.46 771.366ZM3997.47 542.447C3997.47 504.543 4004.7 468.634 4019.17 434.72C4033.63 400.806 4053.58 370.882 4079.02 344.948C4104.95 318.515 4134.87 297.818 4168.79 282.856C4202.7 267.894 4239.11 260.413 4278.01 260.413C4316.41 260.413 4352.57 267.894 4386.49 282.856C4420.4 297.818 4450.32 318.515 4476.26 344.948C4502.69 370.882 4523.14 400.806 4537.6 434.72C4552.56 468.634 4560.04 504.543 4560.04 542.447C4560.04 581.348 4552.56 617.756 4537.6 651.67C4523.14 685.584 4502.69 715.508 4476.26 741.442C4450.32 766.877 4420.4 786.827 4386.49 801.29C4352.57 815.753 4316.41 822.985 4278.01 822.985C4239.11 822.985 4202.7 815.753 4168.79 801.29C4134.87 786.827 4104.95 766.877 4079.02 741.442C4053.58 715.508 4033.63 685.584 4019.17 651.67C4004.7 617.756 3997.47 581.348 3997.47 542.447ZM4109.69 542.447C4109.69 566.885 4113.93 589.827 4122.41 611.272C4131.38 632.219 4143.6 650.922 4159.06 667.38C4175.02 683.339 4193.23 695.808 4213.67 704.785C4234.62 713.762 4257.31 718.251 4281.75 718.251C4305.19 718.251 4326.89 713.762 4346.84 704.785C4367.28 695.808 4384.99 683.339 4399.95 667.38C4414.91 650.922 4426.63 632.219 4435.11 611.272C4443.59 589.827 4447.83 566.885 4447.83 542.447C4447.83 517.51 4443.34 494.319 4434.36 472.874C4425.89 451.428 4413.92 432.725 4398.46 416.766C4383.49 400.308 4365.79 387.59 4345.34 378.613C4324.89 369.636 4302.7 365.147 4278.76 365.147C4254.82 365.147 4232.63 369.636 4212.18 378.613C4191.73 387.59 4173.78 400.308 4158.31 416.766C4142.85 432.725 4130.88 451.428 4122.41 472.874C4113.93 494.319 4109.69 517.51 4109.69 542.447Z" fill="#333333"/>
</svg>
