<svg xmlns="http://www.w3.org/2000/svg" viewBox="0 0 75 75" width="75" height="75">
	<rect x="-1" y="-1" fill="#29338A" width="77" height="77"/>
	<path fill="#FFFFFF" d="M64.95,24.27h1.94v-3.77h-1.94c-1.89,0-9.21,0.08-14.79,5.83c-3.65,3.56-6.12,6.50-7.92,8.67
		c-2.63,3.13-3.74,4.41-5.14,4.41c-1.40,0-2.53-1.28-5.14-4.41c-1.80-2.16-4.27-5.12-7.92-8.67c-5.55-5.41-12.11-5.83-13.99-5.83
		H8.12v34.01h3.86V24.40c2.16,0.31,5.98,1.31,9.34,4.58c3.51,3.43,5.81,6.18,7.66,8.39c3.03,3.61,4.84,5.80,8.13,5.80
		s5.10-2.18,8.13-5.80c1.85-2.22,4.15-4.97,7.66-8.39C57.47,24.27,63.44,24.27,64.95,24.27z"/>
	<polygon fill="#FFFFFF" points="63.02,51.13 53.60,51.13 53.60,54.00 53.61,54.50 66.88,54.50 66.88,41.58 63.02,41.58"/>
</svg>
