<svg version="1.2" xmlns="http://www.w3.org/2000/svg" viewBox="0 0 1504 254" width="1504" height="254">
	<title>varonis-svg</title>
	<style>
		.s0 { fill: #000000 } 
		.s1 { fill: #4a90e2 } 
		.s2 { fill: #d21a27 } 
	</style>
	<path id="Layer" fill-rule="evenodd" class="s0" d="m1023 111.8c9.1 3.4 17.4 8.7 24.3 15.5 6.9 6.9 12.2 15.1 15.7 24.2 3.5 9.1 5 18.8 4.5 28.5 0.6 9.7-0.8 19.5-4.2 28.7-3.5 9.2-8.8 17.5-15.7 24.4-7 6.9-15.3 12.3-24.4 15.7-9.2 3.4-19 4.8-28.7 4.2h-14.3c-9.8 0.6-19.5-0.8-28.7-4.2-9.1-3.4-17.5-8.8-24.4-15.7-6.9-6.9-12.2-15.2-15.7-24.4-3.4-9.2-4.9-19-4.2-28.7-0.5-9.7 1-19.4 4.5-28.5 3.4-9.1 8.8-17.3 15.7-24.2 6.9-6.8 15.2-12.1 24.3-15.5 9.1-3.3 18.8-4.8 28.5-4.1h14.3c9.7-0.7 19.4 0.8 28.5 4.1zm11.8 50.7c-2-5.6-5.3-10.7-9.5-14.9-4.2-4.1-9.3-7.4-14.9-9.4-5.6-2-11.5-2.7-17.5-2.2h-10.8c-5.9-0.6-11.9 0.2-17.5 2.2-5.6 2-10.7 5.2-14.9 9.4-4.2 4.2-7.5 9.3-9.5 14.9-2.1 5.6-2.9 11.5-2.3 17.5-0.6 5.9 0.2 11.9 2.2 17.5 2.1 5.6 5.3 10.7 9.5 14.9 4.2 4.2 9.3 7.4 14.9 9.4 5.6 2 11.6 2.8 17.5 2.3h10.8c6 0.5 12-0.2 17.6-2.2 5.6-2 10.7-5.2 15-9.4 4.2-4.2 7.5-9.3 9.5-14.9 2-5.7 2.8-11.7 2.3-17.6 0.5-6-0.3-11.9-2.4-17.5zm271-55.4c2-0.1 4 0.2 5.9 0.9 1.9 0.7 3.6 1.8 5.1 3.3 1.4 1.4 2.5 3.1 3.2 5 0.8 1.9 1.1 4 0.9 6v115.5c0.2 2-0.1 4-0.9 5.9-0.7 1.9-1.8 3.7-3.2 5.1-1.5 1.4-3.2 2.5-5.1 3.3-1.9 0.7-3.9 1-5.9 0.9-2 0.1-4-0.2-5.8-0.8-1.9-0.7-3.6-1.8-5-3.1-1.5-1.4-2.6-3.1-3.3-4.9-0.8-1.9-1.1-3.8-1.1-5.8v-115.5c-0.1-2 0.2-4.1 0.9-6 0.7-1.9 1.8-3.7 3.2-5.1 1.5-1.4 3.2-2.6 5.1-3.3 1.9-0.7 4-1 6-0.8zm-841.7 140c-1.3 1.7-3.1 3.2-5.1 4.2-2 0.9-4.2 1.5-6.4 1.5-2.2 0-4.4-0.6-6.4-1.5-2-1-3.8-2.5-5.1-4.2-1.3-1.2-77.3-114.3-78.6-115.9-1.2-1.6-2.1-3.5-2.6-5.5-0.5-2-0.5-4-0.1-6 0.4-2 1.2-3.9 2.4-5.6 1.1-1.7 2.7-3.1 4.4-4.1 1.6-1.3 3.4-2.2 5.4-2.6 2-0.5 4-0.6 6-0.2 2 0.4 3.9 1.2 5.5 2.3 1.7 1.2 3 2.7 4 4.5l65.1 96.3 64.8-96.3c1-1.8 2.4-3.3 4.1-4.5 1.7-1.2 3.6-1.9 5.6-2.3 2-0.4 4.1-0.3 6.1 0.2 1.9 0.5 3.8 1.4 5.4 2.7 1.7 1.1 3.2 2.5 4.4 4.1 1.1 1.7 1.9 3.6 2.3 5.6 0.4 2 0.3 4-0.2 6-0.4 1.9-1.3 3.8-2.6 5.4 0 0.1-77.3 114.8-78.4 115.9zm1012.4-79c5.5 2 10.5 5.2 14.6 9.4 4.1 4.1 7.3 9.1 9.4 14.6 2 5.4 2.9 11.3 2.5 17.1 0.4 5.9-0.5 11.8-2.5 17.3-2.1 5.5-5.3 10.5-9.4 14.6-4.2 4.2-9.2 7.4-14.7 9.4-5.5 2.1-11.3 2.9-17.2 2.5h-84.2c-1.9 0.1-3.8-0.2-5.6-0.8-1.9-0.7-3.5-1.8-4.9-3.2-1.3-1.3-2.4-3-3.1-4.8-0.7-1.8-0.9-3.8-0.8-5.7-0.1-1.9 0.2-3.8 0.9-5.6 0.7-1.8 1.8-3.5 3.1-4.8 1.4-1.4 3-2.5 4.8-3.2 1.8-0.6 3.7-0.9 5.6-0.8h82.6c2.1 0.2 4.1 0 6-0.7 1.9-0.6 3.7-1.7 5.1-3.1 1.4-1.4 2.5-3.2 3.2-5.1 0.7-1.9 0.9-3.9 0.7-6 0.2-2-0.1-4-0.8-5.9-0.6-1.9-1.7-3.6-3.2-5-1.4-1.5-3.1-2.5-5-3.2-1.9-0.7-4-0.9-6-0.7h-53.3c-5.9 0.5-11.7-0.4-17.2-2.4-5.5-2.1-10.5-5.2-14.6-9.4-4.1-4.1-7.4-9.1-9.4-14.6-2-5.5-2.9-11.3-2.5-17.2-0.4-5.8 0.5-11.7 2.5-17.2 2.1-5.5 5.3-10.5 9.4-14.6 4.1-4.1 9.1-7.3 14.6-9.4 5.5-2 11.3-2.9 17.2-2.5h79.9c1.9-0.1 3.9 0.2 5.6 0.9 1.8 0.7 3.5 1.8 4.8 3.1 1.4 1.4 2.4 3 3.1 4.8 0.7 1.8 0.9 3.7 0.8 5.7 0.1 1.9-0.1 3.8-0.8 5.6-0.7 1.8-1.7 3.4-3.1 4.8-1.3 1.4-3 2.4-4.8 3.1-1.7 0.7-3.7 1-5.6 0.9h-78.3c-2-0.2-4 0-5.9 0.6-1.9 0.7-3.7 1.8-5.1 3.2-1.4 1.4-2.5 3.2-3.2 5.1-0.7 1.9-0.9 3.9-0.7 5.9-0.2 2 0.1 4.1 0.7 6 0.7 1.9 1.8 3.6 3.2 5 1.5 1.4 3.2 2.5 5.1 3.2 1.9 0.6 3.9 0.9 5.9 0.6h53.4c5.9-0.4 11.7 0.4 17.2 2.5zm-744.7-45.7c-0.2-2 0.1-4.1 0.8-6 0.7-1.9 1.8-3.7 3.3-5.1 1.4-1.5 3.2-2.6 5.1-3.3 2-0.7 4-0.9 6.1-0.8h85.9c25.3 0 41.6 17.7 41.6 45.1v2q0 0.1 0.1 0.2 0 0.1 0 0.2 0 0.2 0 0.3-0.1 0.1-0.1 0.2v2.5c0.3 4.2 0 8.5-0.9 12.7-1 4.1-2.5 8.1-4.7 11.8-2.1 3.7-4.8 7-7.9 9.9-3.1 2.9-6.7 5.3-10.5 7.1l21.4 31.7q0.5 0.7 0.9 1.4 0.4 0.7 0.8 1.5 0.3 0.8 0.5 1.6 0.2 0.8 0.3 1.7c0.4 1.8 0.3 3.7-0.1 5.5-0.4 1.9-1.2 3.6-2.4 5.1-1.1 1.5-2.5 2.8-4.2 3.7-1.6 0.9-3.4 1.4-5.3 1.6h-1.5q-1.6-0.1-3.1-0.5-1.5-0.5-2.9-1.3-1.4-0.8-2.6-1.9-1.1-1.1-1.9-2.5l-29.6-43.8h-58.9v34.8c0 4-1.6 7.9-4.5 10.7-2.8 2.9-6.7 4.5-10.7 4.5-4 0-7.9-1.6-10.7-4.5-2.8-2.8-4.4-6.7-4.4-10.7v-115.5zm30.3 51.2h68.7c2.2-0.3 4.3-1.1 6.2-2.2 1.9-1.1 3.6-2.5 4.9-4.3 1.3-1.7 2.3-3.7 2.9-5.8 0.6-2.1 0.8-4.3 0.6-6.5 0.3-2.4 0-4.8-0.7-7.1-0.7-2.3-1.9-4.4-3.6-6.2-1.6-1.7-3.5-3.1-5.7-4.1-2.2-1-4.6-1.4-7-1.4h-66.5zm-57.1 60.7c0.5 2 0.5 4 0.1 6-0.4 2-1.2 3.8-2.4 5.5-1.2 1.6-2.7 3-4.4 4-1.6 1.3-3.4 2.2-5.4 2.7-1.9 0.5-4 0.5-6 0.1-2-0.3-3.8-1.1-5.5-2.3-1.6-1.2-3-2.7-4-4.4l-16-24.1h-98.7l-15.9 24.1c-1 1.7-2.4 3.3-4.1 4.5-1.6 1.1-3.5 1.9-5.5 2.3-2 0.4-4.1 0.3-6.1-0.2-1.9-0.5-3.8-1.5-5.3-2.8-1.8-1-3.3-2.4-4.5-4.1-1.1-1.6-1.9-3.5-2.3-5.5-0.4-2-0.3-4.1 0.1-6 0.5-2 1.4-3.9 2.7-5.5 0 0 77.2-114.6 78.3-115.7q1-1.4 2.3-2.5 1.4-1.2 2.9-1.9 1.6-0.8 3.3-1.1 1.7-0.4 3.5-0.3 1.7-0.1 3.4 0.2 1.8 0.3 3.3 1.1 1.6 0.7 2.9 1.8 1.4 1.2 2.4 2.6c1.2 1.2 78.4 116.1 78.4 116.1 1.2 1.6 2.1 3.4 2.5 5.4zm-60.9-37.7l-31.5-46.7-31.7 46.7zm594.5 56.4c-2 0.2-4.1-0.1-6-0.8-1.9-0.7-3.6-1.8-5-3.2-1.4-1.5-2.5-3.2-3.2-5.1-0.7-1.9-0.9-4-0.7-6v-59.2c0.4-5.8-0.4-11.6-2.4-17.1-2-5.4-5.2-10.3-9.3-14.4-4.1-4.1-9-7.2-14.5-9.2-5.4-2-11.2-2.8-17-2.3h-10.8c-5.8-0.5-11.6 0.3-17 2.3-5.4 2-10.4 5.1-14.5 9.2-4.1 4.1-7.2 9-9.3 14.4-2 5.5-2.8 11.3-2.4 17.1v59.2c0.3 2.1 0 4.2-0.7 6.1-0.7 2-1.9 3.8-3.4 5.2-1.5 1.5-3.3 2.6-5.2 3.2-2 0.7-4.1 0.8-6.2 0.6-2 0.1-4-0.1-6-0.8-1.9-0.7-3.6-1.8-5.1-3.2-1.4-1.5-2.5-3.2-3.2-5.1-0.7-1.9-1-4-0.8-6v-59.2c-0.7-9.7 0.7-19.3 4.1-28.4 3.4-9 8.7-17.2 15.6-24 6.8-6.8 15-12 24.1-15.3 9-3.3 18.7-4.7 28.3-3.9h14.2c9.6-0.7 19.3 0.6 28.3 3.9 9 3.3 17.3 8.6 24.1 15.4 6.9 6.7 12.2 14.9 15.6 24 3.4 9 4.8 18.6 4.1 28.3v59.2c0.2 2.1-0.1 4.2-0.9 6.1-0.7 2-1.9 3.7-3.4 5.2-1.5 1.4-3.3 2.5-5.3 3.2-1.9 0.6-4 0.8-6.1 0.6z"/>
	<path id="Layer" class="s1" d="m312.3 224.2c0.7 3 0.8 6.1 0.2 9.2-0.5 3-1.7 5.9-3.5 8.4-1.8 2.5-4.1 4.6-6.7 6.2-2.4 2-5.2 3.4-8.2 4.2-3 0.8-6.2 0.9-9.2 0.4-3.1-0.6-6-1.8-8.5-3.6-2.6-1.8-4.7-4.2-6.2-6.9l-63.5-93.9 27.9-40.6 73.7 108.4c1.9 2.4 3.3 5.2 4 8.2zm-158.5 2.9l27.9-41.2 20.3 30.1c1.9 2.4 3.3 5.2 4.1 8.2 0.7 3 0.8 6.1 0.2 9.2-0.5 3-1.8 5.9-3.5 8.4-1.8 2.5-4.1 4.7-6.8 6.2-2.4 2-5.2 3.4-8.2 4.2-3 0.8-6.1 0.9-9.2 0.4-3-0.6-5.9-1.8-8.4-3.6-2.6-1.8-4.7-4.2-6.2-6.9z"/>
	<path id="Layer" class="s2" d="m234.6 107l-27.9 41.2-100-148.2h55.8zm-178.8-106.9l125.4 185.8-27.9 41.2-153.3-227z"/>
</svg>