<?xml version="1.0" encoding="UTF-8"?>
<svg id="Layer_2" data-name="Layer 2" xmlns="http://www.w3.org/2000/svg" xmlns:xlink="http://www.w3.org/1999/xlink" viewBox="0 0 75.66 51.66">
  <defs>
    <style>
      .cls-1 {
        fill: url(#New_Gradient_Swatch_6-2);
      }

      .cls-2 {
        fill: url(#New_Gradient_Swatch_6-3);
      }

      .cls-3 {
        fill: #00294a;
      }

      .cls-4 {
        fill: url(#New_Gradient_Swatch_6);
      }
    </style>
    <linearGradient id="New_Gradient_Swatch_6" data-name="New Gradient Swatch 6" x1="6.41" y1="4.51" x2="56.52" y2="61.34" gradientUnits="userSpaceOnUse">
      <stop offset=".33" stop-color="#5db589"/>
      <stop offset=".54" stop-color="#37887c"/>
      <stop offset=".73" stop-color="#196472"/>
      <stop offset=".9" stop-color="#064e6c"/>
      <stop offset="1" stop-color="#00466a"/>
    </linearGradient>
    <linearGradient id="New_Gradient_Swatch_6-2" data-name="New Gradient Swatch 6" x1="20.71" y1="-8.1" x2="70.82" y2="48.73" xlink:href="#New_Gradient_Swatch_6"/>
    <linearGradient id="New_Gradient_Swatch_6-3" data-name="New Gradient Swatch 6" x1="27.1" y1="-13.73" x2="77.21" y2="43.09" xlink:href="#New_Gradient_Swatch_6"/>
  </defs>
  <g id="Layer_2-2" data-name="Layer 2">
    <g>
      <path class="cls-3" d="M21.41,24.41l3.02,7.52,3.02-7.52,1.95-4.9,1.85-4.57h6.78l-10.38,23.51h-6.55L10.7,14.94h6.92l1.85,4.57,1.95,4.9Z"/>
      <path class="cls-4" d="M0,11.78c.44-.56.86-1.15,1.35-1.67.24-.27.47-.55.73-.8l.77-.77c1.06-.99,2.18-1.92,3.39-2.74,2.4-1.68,5.08-2.95,7.88-3.9,2.81-.95,5.76-1.48,8.73-1.68,1.49-.12,2.99-.1,4.48-.02,1.5.08,3,.27,4.48.55,2.97.56,5.89,1.5,8.63,2.86,2.76,1.33,5.31,3.13,7.58,5.27,2.24,2.17,4.14,4.76,5.49,7.66,1.32,2.91,2.04,6.13,2.06,9.36-.02,3.22-.74,6.45-2.06,9.35-1.35,2.9-3.25,5.49-5.49,7.66-2.27,2.14-4.82,3.94-7.58,5.27-2.74,1.36-5.66,2.3-8.63,2.86-1.48.28-2.98.47-4.48.55-1.5.09-3,.1-4.48-.02-2.98-.2-5.92-.73-8.73-1.68-2.8-.94-5.49-2.21-7.88-3.9-1.21-.82-2.33-1.75-3.39-2.74l-.77-.77c-.25-.26-.49-.54-.73-.8-.49-.52-.91-1.11-1.35-1.67,4.24,3.84,9.43,6.26,14.8,7.36,2.68.58,5.42.77,8.12.71,2.71-.06,5.4-.45,7.98-1.12,1.3-.32,2.56-.76,3.79-1.25,1.24-.48,2.43-1.05,3.58-1.69,2.3-1.27,4.4-2.86,6.2-4.69,1.77-1.85,3.26-3.95,4.26-6.24,1-2.28,1.53-4.73,1.53-7.2,0-2.47-.53-4.92-1.53-7.2-1-2.29-2.48-4.38-4.26-6.23-1.8-1.84-3.9-3.42-6.2-4.69-1.15-.64-2.34-1.21-3.58-1.69-1.23-.49-2.49-.92-3.79-1.25-2.59-.67-5.27-1.06-7.98-1.12l-1.02-.02-1.02.03c-.68,0-1.36.08-2.04.11-.68.05-1.35.15-2.03.23-.67.12-1.35.21-2.02.36-5.36,1.09-10.55,3.51-14.8,7.35Z"/>
      <path class="cls-1" d="M47.64,0c5.2,1.66,10,4.92,13.58,9.38,1.79,2.23,3.24,4.78,4.25,7.52.15.34.24.69.35,1.04l.31,1.05c.2.71.33,1.43.49,2.15.13.72.19,1.46.29,2.19.06.73.08,1.47.11,2.2-.01.73-.06,1.47-.09,2.2-.08.73-.17,1.46-.27,2.19-.15.72-.3,1.44-.47,2.15-.21.7-.41,1.41-.64,2.1-.98,2.75-2.42,5.31-4.19,7.56-3.55,4.49-8.33,7.79-13.51,9.49,2.08-1.77,4.04-3.57,5.78-5.51,1.74-1.94,3.28-3.99,4.54-6.16,2.55-4.33,3.96-9.14,3.91-13.98-.02-4.84-1.47-9.63-4.05-13.94-1.28-2.16-2.84-4.2-4.59-6.13-1.75-1.93-3.72-3.72-5.81-5.48Z"/>
      <path class="cls-2" d="M60.59.6c4.3,2.48,8.07,6.05,10.76,10.39,2.72,4.32,4.27,9.45,4.31,14.62.06,5.17-1.37,10.34-4.02,14.71-2.62,4.39-6.33,8.02-10.59,10.56,3.6-3.42,6.66-7.26,8.78-11.55,2.11-4.28,3.23-8.98,3.17-13.69-.03-4.71-1.27-9.38-3.45-13.62-2.2-4.25-5.32-8.05-8.96-11.42Z"/>
    </g>
  </g>
</svg>