<?xml version="1.0" encoding="UTF-8"?>
<svg id="Layer_1" data-name="Layer 1" xmlns="http://www.w3.org/2000/svg" viewBox="0 0 75 75">
  <defs>
    <style>
      .cls-1 {
        fill: #00d15f;
      }

      .cls-2 {
        letter-spacing: 0em;
      }

      .cls-3 {
        letter-spacing: -.06em;
      }

      .cls-4 {
        letter-spacing: -.02em;
      }

      .cls-5 {
        font-family: ESBuild-SemiBold, 'ES Build';
        font-size: 4.89px;
        font-weight: 600;
      }
    </style>
  </defs>
  <text class="cls-5" transform="translate(32.46 35.98)"><tspan class="cls-3" x="0" y="0">V</tspan><tspan class="cls-2" x="2.97" y="0">eeam App </tspan><tspan class="cls-4" x="26.32" y="0">f</tspan><tspan x="28.07" y="0">or </tspan><tspan x="0" y="5.87">Microsoft Sentinel</tspan></text>
  <path class="cls-1" d="M5.28,27.81c.06-.06.15-.1.25-.1h4.37v-2.35h-2.16c-.62,0-1.22.25-1.66.69l-2.56,2.56c-.44.44-.69,1.04-.69,1.66v1.96h2.33s.02-4.16.02-4.16c0-.1.04-.18.1-.25h0Z"/>
  <g>
    <path class="cls-1" d="M14.98,29.38l-6.74,2.67v6.66c0,1.82,3.06,4.74,3.19,4.87l.96.88c.36.33.84.52,1.35.52h2.5c.51,0,.99-.18,1.35-.52l1.29-1.19c.12-.11,2.86-2.73,2.86-4.56v-6.66l-6.75-2.67ZM13.6,42.77l-.75-.71c-.07-.07-.72-.67-1.36-1.41-1.17-1.36-1.18-1.91-1.18-1.94v-5.27l4.66-1.8,4.66,1.8v5.27c0,.62-1.1,2.04-2.11,2.99l-2.53,2.24-1.4-1.18Z"/>
    <g>
      <path class="cls-1" d="M18.77,37.71c-.13-2-1.79-3.56-3.79-3.56s-3.66,1.56-3.79,3.56l-.02.32h2l.03-.27c.1-.92.86-1.61,1.78-1.61s1.68.69,1.78,1.61l.03.27h2l-.02-.32Z"/>
      <circle class="cls-1" cx="14.98" cy="37.87" r="1.15"/>
    </g>
  </g>
  <path class="cls-1" d="M25.01,47.19c-.06.06-.15.1-.25.1h-4.37v2.35h2.16c.62,0,1.22-.25,1.66-.69l2.56-2.56c.44-.44.69-1.04.69-1.66v-1.96h-2.33s-.02,4.16-.02,4.16c0,.1-.04.18-.1.25h0Z"/>
</svg>