<?xml version="1.0" encoding="UTF-8" standalone="no"?>
<!-- Created with Inkscape (http://www.inkscape.org/) -->

<svg
   version="1.1"
   id="svg1"
   width="878.66669"
   height="144"
   viewBox="0 0 878.66669 144"
   sodipodi:docname="versasec-logo.svg"
   inkscape:version="1.4.2 (f4327f4, 2025-05-13)"
   xmlns:inkscape="http://www.inkscape.org/namespaces/inkscape"
   xmlns:sodipodi="http://sodipodi.sourceforge.net/DTD/sodipodi-0.dtd"
   xmlns="http://www.w3.org/2000/svg"
   xmlns:svg="http://www.w3.org/2000/svg">
  <defs
     id="defs1" />
  <sodipodi:namedview
     id="namedview1"
     pagecolor="#ffffff"
     bordercolor="#000000"
     borderopacity="0.25"
     inkscape:showpageshadow="2"
     inkscape:pageopacity="0.0"
     inkscape:pagecheckerboard="0"
     inkscape:deskcolor="#d1d1d1"
     inkscape:zoom="2.0212443"
     inkscape:cx="796.53906"
     inkscape:cy="151.14452"
     inkscape:window-width="1920"
     inkscape:window-height="1009"
     inkscape:window-x="2552"
     inkscape:window-y="4"
     inkscape:window-maximized="1"
     inkscape:current-layer="g1" />
  <g
     inkscape:groupmode="layer"
     inkscape:label="Image"
     id="g1">
    <path
       style="fill:#000000;stroke-width:1.00986"
       d="m 126.05486,141.77274 c -2.52022,-1.30464 -5.6986,-3.92022 -7.06308,-5.81242 -2.25777,-3.13098 -26.440557,-82.08441 -26.440557,-86.324775 0,-1.36809 2.783329,-1.810656 11.387577,-1.810656 10.56092,0 11.47521,0.221603 12.59435,3.052526 0.66371,1.678888 4.92684,18.44348 9.47364,37.254638 4.54678,18.811157 9.10238,35.294797 10.12354,36.630317 1.78213,2.33072 1.93251,2.32888 3.74631,-0.0458 1.03931,-1.36071 5.58317,-17.84435 10.09748,-36.630315 4.51431,-18.785995 8.76259,-35.529963 9.44063,-37.208851 1.14248,-2.828847 2.06722,-3.052525 12.62041,-3.052525 9.96221,0 11.38502,0.297183 11.36714,2.374192 -0.0406,4.733868 -23.89654,82.264589 -26.3654,85.686819 -5.75545,7.97805 -21.25379,10.92286 -30.98204,5.88684 z m 107.48086,0.56768 c -12.31681,-4.15995 -19.93247,-10.73539 -24.61745,-21.25492 -2.3153,-5.19869 -2.72331,-8.94299 -2.74831,-25.221013 -0.0287,-18.71306 0.0585,-19.294362 4.1366,-27.579619 7.47988,-15.196266 19.57907,-21.145831 41.06473,-20.192852 18.68157,0.828617 28.96292,6.829924 35.71934,20.849674 3.07906,6.38913 3.60148,9.267946 3.74322,20.627065 l 0.16474,13.201595 -31.24084,0.36461 -31.24082,0.36459 0.77788,4.86644 c 1.00189,6.26782 3.98069,10.80832 9.32481,14.21343 3.90558,2.48854 6.15474,2.68589 26.32021,2.30942 l 22.04972,-0.41164 v 8.04245 c 0,7.76013 -0.14075,8.08537 -4.00904,9.26423 -7.11187,2.16735 -43.46405,2.57652 -49.44479,0.55654 z m 33.70493,-59.293589 c -1.40742,-10.652694 -8.05645,-16.750245 -18.26521,-16.750245 -8.83798,0 -14.76959,3.848044 -17.95334,11.646961 -4.20627,10.303739 -3.73304,10.581681 18.0156,10.581681 h 18.92673 z m 54.1427,13.279299 0.35119,-47.822899 h 10.69076 c 9.94876,0 10.71941,0.204122 11.10339,2.940966 l 0.41264,2.940966 6.93727,-3.214706 c 3.86988,-1.793277 10.18711,-3.393595 14.28717,-3.619298 l 7.34992,-0.404602 0.39066,8.958308 0.39067,8.958297 -7.92615,0.841051 c -4.35938,0.46258 -10.84942,2.006507 -14.42229,3.430948 l -6.49618,2.589905 -0.35591,36.111984 -0.35591,36.11199 h -11.35421 -11.35419 z m 85.87732,46.37809 c -11.55511,-1.79802 -11.35893,-1.62472 -11.35893,-10.03503 v -7.49498 l 19.96651,0.87737 c 17.38608,0.76397 20.40844,0.58339 23.38605,-1.39729 4.00421,-2.66357 4.50128,-7.58798 1.08093,-10.70867 -1.28623,-1.17355 -9.85555,-6.47544 -19.04294,-11.78201 -9.18736,-5.306574 -18.37818,-11.614455 -20.42404,-14.017525 -11.23629,-13.198287 -6.46165,-32.705298 9.34331,-38.172534 7.41893,-2.566339 34.39533,-2.755891 45.82574,-0.32199 l 7.34989,1.56503 0.39785,7.701175 0.39785,7.701176 -19.83722,-0.773988 c -22.48842,-0.877428 -26.17081,0.01201 -25.47206,6.152223 0.35045,3.079713 2.67552,4.928109 15.11397,12.01537 28.71,16.358603 32.0723,19.889533 32.0723,33.680943 0,10.7833 -4.30801,17.91907 -13.60937,22.54248 -5.49177,2.72977 -8.69009,3.23694 -21.80378,3.45747 -8.4524,0.14214 -18.97612,-0.30302 -23.38606,-0.98922 z m 98.24315,-2.18198 c -8.81255,-4.61174 -12.04066,-9.69547 -12.99302,-20.46187 -0.99023,-11.19436 1.27574,-18.24046 7.64627,-23.776364 7.06565,-6.139942 13.69,-7.994666 32.05193,-8.97408 l 15.36798,-0.819715 0.40864,-4.271612 c 0.60226,-6.295407 -2.94719,-13.793314 -7.35981,-15.546981 -2.37486,-0.94381 -10.68919,-1.260316 -22.78252,-0.867273 l -19.04292,0.61892 v -7.916664 c 0,-7.478961 0.20316,-7.974346 3.67494,-8.960016 2.02123,-0.573845 13.31113,-1.043354 25.0887,-1.043354 20.34048,0 21.74641,0.17371 28.05102,3.465827 4.01906,2.098653 8.22358,5.755843 10.65857,9.271069 l 4.02126,5.805243 0.41151,37.8735 0.41152,37.87349 h -10.61233 c -9.46481,0 -10.68741,-0.29146 -11.30663,-2.69534 -0.68692,-2.6668 -0.76288,-2.66416 -7.17166,0.24789 -4.48025,2.03578 -9.97965,3.10806 -17.83635,3.47776 -10.39812,0.4893 -11.9788,0.21013 -18.6871,-3.30043 z m 37.39595,-16.53115 4.67721,-2.22724 v -10.17509 -10.17508 l -9.35442,0.0349 c -17.12075,0.064 -22.0497,3.19347 -22.0497,13.99992 0,7.20619 2.22969,10.37974 8.01806,11.4122 5.07685,0.90555 13.49133,-0.38511 18.70885,-2.86964 z m 70.15816,18.64627 C 601.52586,140.93908 601.699,141.09101 601.699,132.66919 v -7.49498 l 19.9665,0.87737 c 17.38608,0.76397 20.40845,0.58339 23.38606,-1.39729 4.00421,-2.66357 4.50127,-7.58798 1.08093,-10.70867 -1.28623,-1.17355 -9.85555,-6.47544 -19.04294,-11.78201 -9.18737,-5.306574 -18.37819,-11.614455 -20.42404,-14.017525 -11.23629,-13.198287 -6.46165,-32.705298 9.34331,-38.172534 7.41893,-2.566339 34.39533,-2.755891 45.82574,-0.32199 l 7.34989,1.56503 0.39785,7.701175 0.39785,7.701176 -19.83722,-0.773988 c -22.48843,-0.877428 -26.17081,0.01201 -25.47206,6.152223 0.35491,3.118866 2.99256,5.129453 18.43494,14.05226 20.9259,12.091298 27.44339,18.246753 28.7604,27.162843 1.97799,13.39087 -5.34528,24.94584 -18.282,28.84608 -7.59256,2.28905 -27.02875,2.56673 -40.52628,0.579 z m 111.85877,-0.96795 c -12.29415,-4.46785 -21.47647,-13.90259 -24.45316,-25.1254 -0.83912,-3.16363 -1.26083,-13.27692 -0.99563,-23.876128 0.43684,-17.457699 0.66269,-18.759896 4.46534,-25.744877 7.6575,-14.065865 19.89627,-19.74867 40.54966,-18.828303 10.62006,0.473253 14.10974,1.207854 19.7421,4.15586 13.79401,7.219844 19.64035,18.338485 19.78714,37.631351 l 0.098,12.888437 -31.24084,0.36461 -31.24082,0.36459 0.77788,4.86644 c 1.00189,6.26782 3.98071,10.80832 9.32481,14.21343 3.90558,2.48854 6.15476,2.68589 26.32023,2.30942 l 22.0497,-0.41164 v 8.04245 c 0,7.76013 -0.14075,8.08537 -4.00904,9.26423 -2.20498,0.67197 -13.02938,1.4997 -24.05422,1.8394 -17.3094,0.53334 -21.01092,0.26668 -27.1212,-1.95387 z m 35.80745,-56.447553 c 0,-21.964926 -30.65028,-26.332469 -37.47459,-5.339987 -2.72216,8.373688 -2.13798,8.643358 18.72379,8.643358 h 18.7508 z M 838.2322,142.9682 c -7.44249,-2.50234 -14.66487,-7.15585 -18.56908,-11.96441 -7.04691,-8.67921 -8.46456,-15.49817 -7.92364,-38.113074 0.5304,-22.175153 1.44406,-25.266251 10.21524,-34.560296 7.39117,-7.831763 16.12088,-10.538376 33.36602,-10.345009 7.87358,0.08832 16.11966,0.549943 18.32464,1.025914 3.86487,0.834285 4.02315,1.162859 4.40183,9.138467 l 0.39279,8.273056 -16.66121,-0.141403 -16.66122,-0.141403 -4.13218,4.005422 c -5.60045,5.428672 -7.12573,12.297668 -6.54639,29.481382 0.5492,16.289564 2.18658,20.099304 10.56993,24.593434 3.94705,2.11591 6.57355,2.33514 18.94794,1.58149 l 14.36571,-0.87493 v 8.10927 c 0,6.4444 -0.48012,8.31097 -2.33861,9.09172 -3.48001,1.46195 -33.88971,2.13889 -37.75177,0.84037 z M 39.097389,112.45141 C 20.09812,106.64694 9.1394193,99.129041 3.7892528,88.229306 -7.1287909,65.986296 10.021778,40.661914 49.119983,21.294342 76.485952,7.7384131 99.64515,1.9567568 131.38024,0.75820308 c 20.9758,-0.79220161 41.35173,0.29561672 41.35173,2.20765762 0,0.5700795 -6.16388,1.4032866 -13.69755,1.8515602 C 135.85379,6.1967554 105.78467,13.898978 83.709764,24.111905 55.635802,37.100268 34.319297,57.905335 30.442543,76.101093 27.838145,88.324982 34.290191,101.3219 47.362231,110.1839 c 9.550993,6.47494 7.42035,7.05949 -8.264842,2.26751 z"
       id="path1" />
  </g>
</svg>
