<svg xmlns="http://www.w3.org/2000/svg" width="160" height="24" fill="none" id="0ced9826-671b-4a3d-8266-eba2bfba91fe">
  <g fill="#272461">
    <path d="M0 3.781h9.302v3.115H0V3.781ZM0 10.43h12.398v3.117H0V10.43ZM0 17.08h16.531v3.115H0V17.08ZM30.748 3.781l-4.031 12.147L22.775 3.78h-3.728l5.58 16.415h4.2l5.557-16.415h-3.636ZM35.537 8.14h3.33v12.055h-3.33V8.14ZM35.279 5a1.924 1.924 0 1 1 1.992 1.852H37.2a1.863 1.863 0 0 1-1.921-1.802V5Z"/>
    <path d="M48.483 8.139v3H47.17c-1.97 0-2.719 1.313-2.719 3.144v5.91h-3.306V8.139h3l.306 1.805c.656-1.078 1.594-1.805 3.47-1.805h.564-.002ZM51.34 10.93h-1.992V8.14h1.992V4.763h3.306V8.14h2.767v2.79h-2.766v5.276c0 .845.329 1.196 1.196 1.196h1.641v2.79H54.79c-2.298 0-3.447-1.149-3.447-3.446v-5.815l-.002-.003ZM67.054 8.139h3.307v12.054h-2.933l-.305-1.454c-.775.938-1.829 1.594-3.541 1.594-2.485 0-4.785-1.244-4.785-5.51V8.14h3.307v6.237c0 2.157.703 3.211 2.345 3.211 1.641 0 2.603-1.196 2.603-3.422V8.139h.002ZM80.11 14.988h-2.415c-1.384 0-2.182.563-2.182 1.57 0 .843.68 1.383 1.781 1.383 1.737 0 2.79-1.077 2.814-2.719v-.234h.003Zm4.411 2.416v2.79h-1.689c-1.712 0-2.25-.82-2.226-1.97-.843 1.335-2.063 2.11-3.94 2.11-2.602 0-4.478-1.244-4.478-3.541 0-2.556 1.923-4.01 5.533-4.01h2.392v-.588c0-1.078-.774-1.781-2.158-1.781-1.288 0-2.158.587-2.297 1.478h-3.191C72.701 9.547 74.859 8 78.047 8c3.378 0 5.323 1.502 5.323 4.384v4.269c0 .632.258.75.775.75h.376ZM85.813 3.78h3.306v16.414h-3.306V3.78ZM91.676 3.78h4.619l4.55 12.051 4.408-12.052h4.527v16.415h-3.354V9.197l-4.269 10.997h-2.859L95.03 9.197v10.997h-3.354V3.78ZM120.349 12.761c-.234-1.478-1.244-2.297-2.743-2.297-1.499 0-2.508.867-2.698 2.297h5.441Zm-8.958 1.429c0-3.752 2.461-6.192 6.191-6.192 3.731 0 6.05 2.25 6.097 5.791.003.377-.028.754-.094 1.126h-8.746v.163c.072 1.713 1.173 2.743 2.838 2.743 1.336 0 2.274-.588 2.556-1.713h3.259c-.374 2.345-2.461 4.221-5.675 4.221-4.01 0-6.424-2.416-6.424-6.144M126.307 10.93h-1.995V8.14h1.995V4.763h3.307V8.14h2.766v2.79h-2.766v5.276c0 .845.329 1.196 1.196 1.196h1.641v2.79h-2.695c-2.298 0-3.447-1.149-3.447-3.446v-5.815l-.002-.003Z"/>
    <path d="M141.315 8.14v3.002h-1.312c-1.971 0-2.72 1.312-2.72 3.143v5.91h-3.306V8.14h3.001l.305 1.805c.656-1.078 1.594-1.805 3.47-1.805h.564-.002ZM142.795 8.14h3.33v12.055h-3.33V8.14ZM142.537 5a1.923 1.923 0 1 1 3.846-.142 1.923 1.923 0 0 1-1.852 1.994h-.071a1.863 1.863 0 0 1-1.921-1.802V5"/>
    <path d="M147.928 14.168c0-3.728 2.44-6.168 6.261-6.168 3.283 0 5.322 1.781 5.791 4.643h-3.446c-.282-1.197-1.102-1.947-2.393-1.947-1.734 0-2.837 1.43-2.837 3.47s1.101 3.47 2.837 3.47c1.291 0 2.158-.775 2.393-1.995h3.47c-.469 2.885-2.651 4.69-5.934 4.69-3.823 0-6.144-2.368-6.144-6.168"/>
  </g>
</svg>