<svg xmlns="http://www.w3.org/2000/svg" viewBox="0 0 278.075 169.374">
  <defs>
    <style>
      .cls-1 {
        fill: none;
      }

      .cls-2 {
        fill: #1434cb;
      }
    </style>
  </defs>
  <title>VBM_bluRGB_2025</title>
  <g id="ef7f2da8-1c3d-4962-bbd6-a2088eacaa9c">
    <g id="4b6ee473-9eff-44a6-a73a-655d88dc6c09">
      <g>
        <rect class="cls-1" width="278.075" height="169.374"/>
        <rect class="cls-1" x="30.002" y="30.002" width="218.071" height="109.37"/>
        <path class="cls-2" d="M120.0082,60.004,99.31715,109.37H85.81859L75.63615,69.9725c-.61849-2.42553-1.15437-3.31584-3.03392-4.3358a53.40292,53.40292,0,0,0-12.5983-4.20109l.3008-1.43161H82.03616A5.95012,5.95012,0,0,1,87.925,65.0365L93.303,93.60381,106.5943,60.004Zm52.894,33.24721c.05714-13.02735-18.01552-13.7469-17.89114-19.56785.04-1.76986,1.7256-3.652,5.41686-4.1343a24.10781,24.10781,0,0,1,12.59,2.20793l2.24436-10.46684a34.3103,34.3103,0,0,0-11.94843-2.189c-12.62149,0-21.507,6.7109-21.57814,16.3178-.08429,7.11,6.34074,11.072,11.18169,13.43608,4.97316,2.419,6.64161,3.971,6.623,6.13426-.03717,3.314-3.96849,4.77451-7.64409,4.832a26.71253,26.71253,0,0,1-13.116-3.1193l-2.31219,10.81805c2.981,1.369,8.48933,2.56336,14.20134,2.6219,13.41676,0,22.19122-6.62478,22.23264-16.89078M206.23577,109.37H218.047l-10.31-49.366H196.83682a5.812,5.812,0,0,0-5.43617,3.62058L172.23837,109.37H185.6451l2.66449-7.37505h16.38285ZM191.98519,91.87858l6.723-18.53567,3.86993,18.53567ZM138.25625,60.004,127.69619,109.37H114.924l10.5643-49.366Z"/>
      </g>
    </g>
  </g>
</svg>
