<svg width="1723" height="378" viewBox="0 0 1723 378" fill="none" xmlns="http://www.w3.org/2000/svg">
<g clip-path="url(#clip0_5707_17263)">
<path opacity="0.88" d="M1165.21 190.483L1182.29 189.623C1228.22 188.234 1231.3 158.302 1232.54 149.604C1237.1 117.39 1215.56 102.771 1188.79 102.341L1143.13 102.143L1111.74 75.6839L1187.52 75.9485C1246.78 75.5516 1270.03 111.205 1265.37 145.04C1264.62 158.919 1259.64 172.251 1251.08 183.291C1242.53 194.332 1230.8 202.567 1217.43 206.921L1305.03 308.325H1264.83L1165.21 190.483ZM838.781 73.7656L753.021 306.373H711.246L625.486 73.7656H658.986L732.888 278.426L806.789 73.7656H838.781ZM1082.39 306.373H1051.07V105.814L985.545 242.343H966.885L901.828 105.814V306.241H872.583V73.7656H915.295L978.208 203.282L1038.98 73.7656H1082.53L1082.39 306.373ZM1543.56 308.192H1510.06L1486.94 243.335H1385.17L1362.09 308.192H1330.26L1416.02 75.5516H1457.8L1543.56 308.192ZM1477.36 216.777L1436.12 102.507L1394.68 216.777H1477.36ZM1722.75 75.5516L1639.9 206.16V308.192H1608.58V209.434L1525.33 75.5516H1560L1624.39 179.602L1689.41 75.5516H1722.75Z" fill="white"/>
<path opacity="0.5" d="M560.288 377.975H401.565L341.131 263.672L420.224 115.469L560.288 377.975Z" fill="white"/>
<path opacity="0.5" d="M201.7 0L140.06 115.494L78.4199 0H201.7Z" fill="white"/>
<path opacity="0.75" d="M401.566 378.014H280.162L341.132 263.711L401.566 378.014Z" fill="white"/>
<path opacity="0.75" d="M280.164 148.336L219.16 263.697L140.066 115.494L201.707 0L280.164 148.336Z" fill="white"/>
<path opacity="0.5" d="M219.157 263.672L158.723 377.975H0L140.064 115.469L219.157 263.672Z" fill="white"/>
<path opacity="0.5" d="M358.58 0L280.156 148.336L201.699 0H358.58Z" fill="white"/>
<path opacity="0.75" d="M420.226 115.494L341.132 263.697L280.162 148.336L358.586 0L420.226 115.494Z" fill="white"/>
<path opacity="0.88" d="M341.126 263.728L280.156 378.031L219.152 263.728L280.156 148.367L341.126 263.728Z" fill="white"/>
<path opacity="0.75" d="M280.168 378.014H158.73L219.165 263.711L280.168 378.014Z" fill="white"/>
<path opacity="0.5" d="M481.864 0L420.224 115.494L358.584 0H481.864Z" fill="white"/>
</g>
<defs>
<clipPath id="clip0_5707_17263">
<rect width="1722.81" height="378" fill="white"/>
</clipPath>
</defs>
</svg>
