<svg xmlns="http://www.w3.org/2000/svg" viewBox="0 0 400 400"><path d="M-110.816,271.422V200l81.231,39.665v62.1a72.188,72.188,0,0,1-34.344,61.472l-46.887,27.832L-157.7,363.238a72.187,72.187,0,0,1-34.343-61.472v-62.1l48.255-23.563m32.975,55.32a22.5,22.5,0,0,0-22.5,22.5,22.5,22.5,0,0,0,22.5,22.5,22.5,22.5,0,0,0,22.5-22.5A22.5,22.5,0,0,0-110.816,271.422Z" fill="none" stroke="#fff" stroke-linecap="round" stroke-linejoin="round" stroke-width="76"/><path d="M187.5,244.68q1.26.831,2.454,1.56v18.19c-.76-.374-1.577-.788-2.454-1.252-7.872-4.162-20.063-11.974-29.85-24.293A70.5,70.5,0,0,1,142,194.1V176.14l-51.1-29.5c-.617,1.246-1.22,2.5-1.8,3.771a120.949,120.949,0,0,0-10.747,49.981q0,6.108.6,12.068l-.017,0a52.975,52.975,0,0,0-15.52,5.024l-.009,0a136.285,136.285,0,0,1,11.772-75.119q.882-1.887,1.821-3.755l-.2-.118,8-13.857.2.118q1.334-2.031,2.729-4.009a136.28,136.28,0,0,1,58.84-47.225v.016a53.1,53.1,0,0,0,3.357,15.969l.009.022a122.406,122.406,0,0,0-48.232,39.286q-1.431,1.96-2.788,3.975l43.79,25.283,4.7-1.611c.028-.009.53-.182,1.367-.473,4.134-1.438,16.659-5.849,23.093-8.716,5.3-2.3,10.521-4.839,15.634-7.539,2.878-1.52,5.732-3.078,8.529-4.713l4.034-2.357,4.036,2.356c2.758,1.611,5.57,3.145,8.4,4.642,5.115,2.7,10.321,5.233,15.579,7.517a222.5,222.5,0,0,0,23.123,8.825c.4.127.792.267,1.19.392l5.486,1.719,43.368-25.075q-1.431-2.145-2.952-4.225A122.409,122.409,0,0,0,250.061,89.53l.007-.017a53.065,53.065,0,0,0,3.359-15.974l0-.022a139.621,139.621,0,0,1,15.392,7.67,137.2,137.2,0,0,1,43.5,39.532c.991,1.4,1.961,2.81,2.9,4.245l.143-.083,2.305,3.986q1.5,2.48,2.9,5.023l2.8,4.842-.2.119q.865,1.738,1.685,3.5,2.363,5.109,4.309,10.444.18.49.355.982c.207.571.408,1.145.607,1.72.273.8.542,1.592.8,2.394.046.143.093.285.139.428q.547,1.712,1.051,3.444c.181.616.35,1.237.522,1.856.106.382.218.761.321,1.144.038.141.068.283.106.424q.507,1.917.959,3.855c.052.223.109.445.16.668.017.076.031.153.049.229l-8.369-4.086a37.891,37.891,0,0,0-10.246-3.288q-.3-.933-.622-1.859-.258-.75-.527-1.5c-.107-.3-.214-.595-.322-.891q-1.488-4.024-3.246-7.913c-.533-1.179-1.091-2.345-1.661-3.5L258,176.527v6.179l-16,7.812V169.83c-.909-.31-1.813-.641-2.719-.962q-3.173-1.125-6.315-2.335c-3.829-1.48-7.62-3.047-11.343-4.713-3.05-1.325-6.093-2.742-9.123-4.213-4.189-2.033-8.348-4.183-12.433-6.464-4.118,2.3-8.321,4.474-12.567,6.534-3.043,1.477-6.107,2.9-9.191,4.242-3.066,1.367-7.269,3.008-11.39,4.548-2.045.764-4.062,1.5-5.917,2.168-1.064.383-2.078.746-3,1.073V194.1a55.644,55.644,0,0,0,13.654,36.7A75.05,75.05,0,0,0,187.5,244.68Zm8.614,93.35a110.784,110.784,0,0,1-4.319-16.3c-1.432-.094-2.864-.2-4.295-.347q-4.216-.429-8.419-1.154l-.027,0c-.853-.148-1.705-.31-2.556-.477-.157-.031-.315-.059-.472-.09-.73-.146-1.459-.305-2.187-.465-.274-.06-.549-.117-.822-.179-.626-.142-1.251-.294-1.875-.447-.372-.09-.745-.178-1.116-.272-.527-.134-1.054-.277-1.581-.419-.465-.125-.93-.247-1.393-.378-.43-.121-.86-.25-1.29-.376-.554-.163-1.109-.324-1.66-.5-.332-.1-.662-.211-.993-.316-.647-.207-1.294-.413-1.936-.63-.218-.074-.436-.152-.654-.227-.753-.259-1.506-.521-2.252-.8l-.241-.09c-1.432-.528-2.857-1.094-4.277-1.678-.655-.27-1.3-.555-1.95-.836-.723-.313-1.446-.63-2.166-.957q-1.251-.571-2.486-1.169c-.442-.214-.882-.434-1.322-.653a122.031,122.031,0,0,1-16.895-10.223l-.038.048A53.912,53.912,0,0,1,116.8,309.961c-.024.016-.048.03-.071.046a139.911,139.911,0,0,0,14.451,9.583c2,1.155,4.023,2.235,6.056,3.278l.325.167q3.911,2,7.964,3.746c.424.183.848.37,1.273.549q1.052.441,2.112.864.854.342,1.71.671c.637.245,1.272.492,1.913.728q1.692.622,3.393,1.2c.474.161.953.31,1.43.465.822.268,1.645.533,2.469.784.5.154,1.007.3,1.512.451q1.32.387,2.646.745c.4.109.8.222,1.207.328,1.308.341,2.618.667,3.93.969l.245.053q1.906.434,3.818.81c.27.054.541.1.812.156q1.768.339,3.542.632c.179.03.357.061.536.089q4.663.75,9.428,1.181c1.595.144,3.2.265,4.806.354v.216Z" fill="#1d428a"/><path d="M105.088,240.364a30.348,30.348,0,0,0-17.582-5.593,30.685,30.685,0,0,0-4.1.283H83.4a30.37,30.37,0,0,0-14.8,6.3l-.016.013A30.415,30.415,0,0,0,57,265.245c0,.946.05,1.881.134,2.805a30.488,30.488,0,0,0,41.515,25.555l.128-.05a30.655,30.655,0,0,0,12.772-9.586l.07-.089a30.4,30.4,0,0,0-6.531-43.516Zm-4.2,30.472-.046.1c-.152.352-.321.694-.5,1.032a14.516,14.516,0,0,1-12.762,7.743c-.024,0-.048,0-.072,0s-.045,0-.068,0c-.158,0-.313-.018-.47-.023A14.5,14.5,0,0,1,73,265.245a14.348,14.348,0,0,1,1.964-7.24l.028-.046c.067-.114.137-.226.207-.339A14.5,14.5,0,0,1,87.021,250.8c.162,0,.321-.024.485-.024a14.572,14.572,0,0,1,1.808.124l.038.006a14.449,14.449,0,0,1,11.533,19.935Zm192.4-229.47A183.628,183.628,0,0,0,212.5,16.427V.4A199.754,199.754,0,0,1,366.628,89.364l-13.889,8.019A185.142,185.142,0,0,0,293.288,41.366ZM169.841,66.083l0,.015a30.406,30.406,0,0,0,1.876,15.975l.006.015A30.661,30.661,0,0,0,187.5,98.464a30.51,30.51,0,0,0,40.784-16.391l.015-.038a30.4,30.4,0,0,0,1.86-15.952l-.007-.054a30.515,30.515,0,0,0-60.311.054Zm17.713-2.8a14.482,14.482,0,0,1,24.87-.034l.045.072.031.052a14.315,14.315,0,0,1,0,14.616,14.593,14.593,0,0,1-.837,1.262l-.043.058a14.471,14.471,0,0,1-23.24,0l-.021-.028a14.33,14.33,0,0,1-.859-15.909l.031-.051ZM34.742,280.978l-13.884,8.016a200.283,200.283,0,0,1,0-177.988l13.884,8.016a184.311,184.311,0,0,0,0,161.956Z" fill="#0091da"/><path d="M365.257,119.022l13.885-8.016A200.177,200.177,0,0,1,400,200c0,.682-.023,1.362-.03,2.043L383.9,194.2A184.106,184.106,0,0,0,365.257,119.022Zm-318,183.6-13.889,8.019A199.747,199.747,0,0,0,187.5,399.6V383.573A183.765,183.765,0,0,1,47.261,302.617Zm59.451-261.25A183.612,183.612,0,0,1,187.5,16.427V.4A199.754,199.754,0,0,0,33.372,89.364l13.889,8.018A185.135,185.135,0,0,1,106.712,41.367Z" fill="#78be20"/><path d="M309.185,399.07a7.994,7.994,0,0,1-4.084-1.121l-46.887-27.833-.11-.066a80.711,80.711,0,0,1-38.15-68.284v-62.1a8,8,0,0,1,4.49-7.188L272.7,208.914a8,8,0,0,1,7.02,14.377l-43.765,21.37v57.105a64.611,64.611,0,0,0,30.484,54.626l42.747,25.375,42.747-25.375a64.614,64.614,0,0,0,30.483-54.626V244.661l-65.23-31.851v51.676a30.5,30.5,0,1,1-16,0V200a8,8,0,0,1,11.51-7.188l81.231,39.665a8,8,0,0,1,4.489,7.188v62.1a80.715,80.715,0,0,1-38.149,68.284l-.111.066-46.886,27.833A8,8,0,0,1,309.185,399.07Zm0-119.648a14.5,14.5,0,1,0,14.5,14.5A14.516,14.516,0,0,0,309.185,279.422Z" fill="#7f35b2"/></svg>
