<?xml version="1.0" encoding="utf-8"?>
<!-- Generator: Adobe Illustrator 19.2.1, SVG Export Plug-In . SVG Version: 6.00 Build 0)  -->
<svg version="1.1" id="270b7627-20d2-458b-b4b4-f2f44dd07df0" 
	xmlns="http://www.w3.org/2000/svg" 
	xmlns:xlink="http://www.w3.org/1999/xlink" x="0px" y="0px" viewBox="0 0 652 652" style="enable-background:new 0 0 652 652;" xml:space="preserve">
	<path style="fill:#0A0A0A;" d="M620,339.1h-10.2l-5.1,8.8l5.1,8.8H620l5.1-8.8L620,339.1 M598.5,308.2h-12.7l-8.9,15.3c-1.1,1.6-1.5,2.6-4,2.7
	h-6.1v-33.9h-11.4v64.4h11.4v-20.1h5c2.4,0.1,2.9,1,3.8,2.5l10.1,17.6h12.8l-14-24.3L598.5,308.2z M547.1,312.8
	c-1.8-1.4-3.7-2.6-5.8-3.5c-3.2-1.4-6.6-2.1-10.1-2.1c-4.5,0-9,1.2-12.9,3.5c-3.9,2.2-7.2,5.4-9.5,9.3c-2.3,3.8-3.6,8.1-3.6,12.5
	c0,4.4,1.2,8.8,3.6,12.6c2.3,3.9,5.6,7.1,9.5,9.3c7.1,4.1,15.7,4.6,23.2,1.3c2-0.9,4-2.1,5.7-3.5l-5.1-8.9c-1.4,1.5-3,2.7-4.8,3.5
	c-1.9,0.9-4,1.4-6,1.4c-2.6,0-5.1-0.7-7.3-2.1c-2.2-1.4-4.1-3.4-5.3-5.7c-1.3-2.4-2-5.1-2-7.8c0-2.7,0.7-5.4,2-7.7
	c1.2-2.3,3.1-4.3,5.3-5.7c2.2-1.4,4.7-2.1,7.3-2.1c4.1,0,8,1.8,10.7,4.8l3.9-6.8L547.1,312.8z M476.8,307.1
	c-6.1,0-12.5,1.7-19.3,5.1l4.4,7.7c4-1.9,8.2-3.4,12.6-3.4c8.1,0,11.1,4.2,11.6,9.7h-13.3c-10.9,0-19.8,6.6-19.8,16.1
	c0,9.4,7.8,15.5,18.1,15.5c5.6,0,11.4-2.1,15-6.6v5.5h11.5v-29.1C497.6,315.3,489.6,307.1,476.8,307.1L476.8,307.1z M486.1,340.1
	c0,4.6-4.6,9.4-12.4,9.4c-5.4,0-9.5-2.9-9.5-7.5c0-4.6,4.6-7.6,10.3-7.6h11.6L486.1,340.1z M433.2,292.3h11.4v64.4h-11.4V292.3z
	 M412.5,322.7c6-3.2,9.1-8,9.1-14.2c0-2.9-0.8-5.8-2.4-8.3c-1.7-2.5-4-4.5-6.7-5.8c-2.9-1.4-6.1-2.1-9.8-2h-31.3v64.3h32.5
	c3.9-0.1,7.5-0.8,10.6-2.3c3-1.4,5.5-3.5,7.3-6.2c1.8-2.7,2.7-5.8,2.6-9c0-3.4-1.1-6.7-3.1-9.5C419.1,326.8,416.2,324.5,412.5,322.7
	L412.5,322.7z M382.6,302.5h17.1c2.9,0,5.2,0.7,7.1,2.2c1.8,1.3,2.8,3.5,2.8,5.7c0,2.2-0.9,4.1-2.8,5.6s-4.2,2.2-7.1,2.2h-17.1
	V302.5z M409.2,344c-2,1.7-4.6,2.6-7.8,2.6h-18.8v-18.3h18.8c3.2,0,5.8,0.9,7.8,2.6c3.6,3.1,4.1,8.6,1,12.2
	C410,343.3,409.6,343.7,409.2,344L409.2,344z M327.6,309.6c-2.8-1.6-6.1-2.4-9.3-2.4c-3,0-6,0.7-8.7,2.1c-2.5,1.3-4.7,3.2-6.3,5.5
	v-6.6h-11.4v48.5h11.4v-30.6c0.4-2.6,1.8-5,3.9-6.5c2.2-1.8,5-2.7,7.8-2.6c3,0,5.4,1,7.3,3.1s2.9,4.8,2.8,8.1v28.6h11v-30.8
	c0.1-3.4-0.7-6.7-2.3-9.7C332.5,313.4,330.3,311.1,327.6,309.6z M272.2,310.7c-8-4.6-17.8-4.6-25.7,0c-3.9,2.2-7.2,5.4-9.5,9.3
	c-2.3,3.8-3.6,8.1-3.6,12.5c0,4.4,1.2,8.8,3.6,12.6c2.3,3.9,5.6,7.1,9.5,9.3c8,4.6,17.8,4.6,25.7,0c3.9-2.3,7.2-5.5,9.5-9.3
	c2.3-3.8,3.6-8.1,3.6-12.6c0-4.4-1.2-8.8-3.6-12.5C279.4,316.1,276.1,312.9,272.2,310.7L272.2,310.7z M272,340.3
	c-1.3,2.3-3.1,4.3-5.4,5.7c-2.2,1.4-4.7,2.1-7.3,2.1c-2.6,0-5.1-0.7-7.3-2.1c-2.3-1.4-4.1-3.4-5.4-5.7c-1.3-2.4-2-5.1-2-7.8
	c0-2.7,0.7-5.4,2-7.7c1.3-2.3,3.2-4.3,5.4-5.7c2.2-1.4,4.7-2.1,7.3-2.1c2.6,0,5.1,0.7,7.3,2.1c4.6,2.9,7.4,8,7.4,13.4
	C274.1,335.2,273.4,337.9,272,340.3L272,340.3z M216.6,310.4c-3.4-2.2-7.4-3.3-11.4-3.2c-6.7-0.1-13.1,3.2-16.8,8.8v-23.6h-11.4
	v64.4h11.4V349c3.7,5.6,10.1,8.9,16.8,8.8c4,0.1,8-1.1,11.4-3.2c3.4-2.2,6.2-5.3,7.9-9c2-4.1,3-8.6,3-13.1c0-4.5-1-9-3-13
	C222.8,315.8,220,312.6,216.6,310.4L216.6,310.4z M212.1,343.7c-2.6,2.9-6,4.4-10,4.4c-4,0-7.3-1.5-9.8-4.4
	c-2.6-2.9-3.9-6.7-3.9-11.2s1.4-8.3,3.9-11.2c2.5-2.9,5.8-4.4,9.8-4.4c4.1,0,7.4,1.5,10,4.4c2.6,2.9,3.9,6.6,3.9,11.2
	C216.1,337,214.7,340.8,212.1,343.7L212.1,343.7z M151.1,316.1v-7.8h-11.4v48.5h11.4v-23.4c0-4.6,1.6-8.3,4.8-11.1
	c3.2-2.8,7.4-3.9,12.5-3.9v-10.1C163.2,308.2,154.6,312,151.1,316.1L151.1,316.1z M110.4,307.1c-6.1,0-12.5,1.7-19.3,5.1l4.4,7.7
	c4-1.9,8.2-3.4,12.6-3.4c8.1,0,11.1,4.2,11.6,9.7h-13.3c-10.9,0-19.8,6.6-19.8,16.1c0,9.4,7.8,15.5,18.1,15.5c5.6,0,11.4-2.1,15-6.6
	v5.5h11.5v-29.1C131.2,315.3,123.2,307.1,110.4,307.1L110.4,307.1z M119.7,340.1c0,4.6-4.6,9.4-12.4,9.4c-5.4,0-9.5-2.9-9.5-7.5
	c0-4.6,4.6-7.6,10.3-7.6h11.6L119.7,340.1z M74.9,340.1c-8.6,8.8-22.7,9.1-31.5,0.5c-8.8-8.6-9.1-22.7-0.5-31.5
	c8.6-8.8,22.7-9.1,31.5-0.5c0.2,0.2,0.3,0.3,0.5,0.5l5.6-9.7c-6.1-5.2-13.9-8.1-21.9-8.1c-18.5,0-33.5,14.9-33.5,33.3
	s15,33.3,33.5,33.3c8,0,15.8-2.8,21.9-8L74.9,340.1z"/>
</svg>
