<?xml version="1.0" encoding="utf-8"?>
<!-- Generator: Adobe Illustrator 23.1.1, SVG Export Plug-In . SVG Version: 6.00 Build 0)  -->
<svg version="1.1" xmlns="http://www.w3.org/2000/svg" x="0px" y="0px"
	 viewBox="0 0 1280 313" xml:space="preserve">
<style type="text/css">
	.st0{fill:#4EF49F;}
</style>
<path d="M423.9,56.2c-11.7-12.4-29.8-18.7-53.8-18.7h-35.4c-0.3,0-0.5,0-0.8,0c-23.6,0-41.4,6.2-52.9,18.3
	c-11.7,12.2-17.6,31.3-17.6,56.6v77.9c0,25.1,5.9,44.1,17.6,56.4c11.8,12.5,29.9,18.8,53.8,18.8h35.3c24,0,42.1-6.3,53.8-18.8
	c11.6-12.4,17.5-31.3,17.5-56.4v-77.6C441.4,87.5,435.5,68.5,423.9,56.2 M405.8,190.3c0,10.5-1.2,18.7-3.5,24.4
	c-2,4.9-5.1,8.3-9.7,10.3c-5.3,2.4-12.9,3.6-22.5,3.6h-35.3c-9.7,0-17.4-1.2-22.7-3.6c-4.6-2-7.7-5.4-9.7-10.3
	c-2.3-5.7-3.5-13.9-3.5-24.4v-77.9c0-10.5,1.2-18.7,3.5-24.4c2-4.9,5.2-8.3,9.7-10.3c5-2.2,12.2-3.4,21.4-3.4l36.5,0
	c9.6,0,17.2,1.2,22.5,3.7c4.6,2.1,7.8,5.5,9.7,10.4c2.3,5.7,3.5,13.9,3.5,24.3V190.3z"/>
<path d="M207.6,41.2c-0.9-0.3-1.8-0.5-2.7-0.7c-8.1-1.8-16.2-3.5-24.2-5.3c-2.7,0-2.9,0.9-3.8,4.8l-46.2,181
	c-2.6,10.5-3.8,12.6-10,12.6c-5,0-5.9-2.1-8.8-12.6c-0.2-0.7-0.4-1.5-0.6-2.2c-0.5-2.1-1.1-4.2-1.6-6.3c-0.9-3.2-1.7-6.5-2.5-9.7
	c-1.1-4.2-2.2-8.3-3.3-12.5c-1.3-4.9-2.6-9.8-3.9-14.7c-1.4-5.4-2.9-10.9-4.3-16.3c-1.5-5.8-3-11.5-4.6-17.3
	c-1.6-5.9-3.1-11.8-4.7-17.7c-1.5-5.8-3.1-11.7-4.6-17.5c-1.5-5.6-2.9-11.1-4.4-16.7c-1.3-5.1-2.7-10.2-4-15.3
	c-1.2-4.4-2.3-8.8-3.5-13.2c-0.9-3.5-1.9-7.1-2.8-10.6c-0.6-2.5-1.3-4.9-1.9-7.3c-0.5-1.7-0.8-3.5-1.3-5.2c-0.3-1.1-0.6-2.5-1.7-3.1
	c-0.8-0.4-1.7-0.3-2.5-0.1c-3.6,0.6-7.1,1.7-10.7,2.5c-3.6,0.8-7.1,1.5-10.7,2.2c-2.2,0.5-4.4,0.9-6.5,1.9C31,42.1,30.4,42.5,30,43
	c-0.5,0.6-0.7,1.5-0.6,2.3c0.1,2.1,1.1,4.6,1.6,6.7c0.7,2.6,1.4,5.3,2,7.9l2.8,10.9c1.2,4.5,2.3,8.9,3.5,13.4
	c1.3,5.1,2.6,10.2,3.9,15.3c1.4,5.5,2.9,11.1,4.3,16.6c1.5,5.8,3,11.5,4.5,17.3l4.5,17.5c1.5,5.7,2.9,11.4,4.4,17.1
	c1.4,5.4,2.8,10.7,4.2,16.1c1.3,4.9,2.5,9.7,3.8,14.6l3.2,12.5c0.8,3.3,1.7,6.5,2.5,9.8c0.6,2.2,1.1,4.3,1.7,6.5
	c0.2,0.9,0.5,1.8,0.7,2.7c8.5,31.7,13,35.3,43.6,35.3c32.7,0,36.8-3.9,44.7-35.3c0.5-1.9,1-3.8,1.4-5.7c1.3-5.2,2.6-10.3,3.9-15.5
	c1.9-7.5,3.8-15.1,5.6-22.6c2.3-9,4.5-18.1,6.8-27.1c2.4-9.7,4.8-19.3,7.2-29l7.1-28.3c2.1-8.3,4.2-16.7,6.2-25l4.8-19.1
	c0.9-3.8,2-7.6,2.8-11.4C211.8,43.3,209.9,42,207.6,41.2"/>
<path d="M653.3,37.6H489.3c-2.9,0-4.4,1.5-4.4,4.4v24.2c0,2.9,1.5,4.4,4.4,4.4h63.2v188.1c0,2.9,1.4,4.4,4.4,4.4h28.4
	c2.9,0,4.3-1.5,4.3-4.4V70.7h63.5c2.9,0,4.4-1.5,4.4-4.4V42.1C657.6,39.1,656.2,37.6,653.3,37.6"/>
<path d="M749.4,37.6H721c-2.9,0-4.4,1.5-4.4,4.4v216.4c0,3.2,1.5,4.7,4.4,4.7h28.4c2.9,0,4.3-1.5,4.3-4.7V42.1
	C753.8,39.1,752.3,37.6,749.4,37.6"/>
<path d="M1184.6,190.2c0,10.5-1.2,18.7-3.5,24.5c-2,4.9-5.1,8.3-9.7,10.4c-5.3,2.4-12.9,3.6-22.5,3.6h-35.3
	c-9.7,0-17.4-1.2-22.7-3.6c-4.6-2.1-7.7-5.4-9.7-10.4c-2.3-5.7-3.5-14-3.5-24.5v-78c0-10.5,1.2-18.7,3.5-24.4
	c2-4.9,5.2-8.3,9.7-10.3c5-2.2,12.2-3.4,21.4-3.4l14.4,0c1.5,0,2.9-0.8,3.6-2.1c3-5.6,11.1-20.8,17.2-32.2c0.6-1.1-0.2-2.5-1.5-2.5
	h-32.5c-0.3,0-0.5,0-0.8,0c-23.5,0-41.4,6.2-52.9,18.3c-11.7,12.3-17.6,31.3-17.6,56.7v78c0,25.1,5.9,44.1,17.6,56.5
	c11.8,12.5,29.9,18.8,53.8,18.8h35.3c24,0,42.1-6.3,53.8-18.8c11.6-12.4,17.5-31.4,17.5-56.5v-42.4c0-2.8-2.2-5-5-5h-25.5
	c-2.8,0-5,2.2-5,5V190.2z"/>
<path class="st0" d="M1245,28.3c-0.9-0.7-2.2-0.6-2.9,0.2l-39,46.6c-1,1.2-2.9,1.3-4,0.2l-23.3-23.9c-0.9-1-2.5-0.8-3.2,0.4
	l-12.5,22c-0.9,1.6-0.7,3.7,0.6,5l37.3,38.2c2.6,2.7,6.9,2.5,9.3-0.4l57.1-68.3c0.9-1.1,0.8-2.7-0.3-3.6L1245,28.3z"/>
<path d="M942.2,177.6c33.7-5.4,45.8-22.2,45.8-68.1c0-59.9-21.8-73.4-86.2-73.4c-20,0-46.1,0.6-69.3,2.4c-3.5,0.3-4.4,0.9-4.4,4.1
	v216.1c0,3.5,0.9,4.4,4.4,4.4h28.7c3.5,0,4.4-0.9,4.4-4.4v-78.4L901,180c8.8,14,17.5,27.9,26.3,41.9l29.4,48.2
	c1.2,1.9,3.6,2.5,5.5,1.3l23.6-14.8c1.9-1.2,2.4-3.7,1.3-5.6L942.2,177.6z M865.6,150V69.2h32.8c41.2,0,51.9,6.2,51.9,41.3
	c0,36-10.7,39.5-51.9,39.5H865.6z"/>
</svg>
