<svg xmlns="http://www.w3.org/2000/svg" width="95" height="100" viewBox="0 0 95 100">
<g>
<path d="M 60.77 64.16 C59.21,65.15 59.21,65.15 55.45,63.50 C53.77,62.76 51.53,60.55 50.47,58.58 C48.87,55.60 48.00,55.00 45.27,55.00 C43.47,55.00 42.00,54.55 42.00,54.00 C42.00,53.45 41.10,53.00 40.00,53.00 C37.50,53.00 37.30,49.45 39.60,46.15 C40.92,44.27 42.04,43.89 45.85,44.02 C52.60,44.25 52.80,44.19 53.50,41.99 C53.85,40.88 55.37,39.34 56.87,38.57 C59.25,37.33 60.02,37.35 62.80,38.70 C64.56,39.55 66.00,40.78 66.00,41.43 C66.00,42.08 64.61,44.81 62.90,47.49 C59.91,52.21 59.86,52.48 61.36,55.62 C63.04,59.16 62.79,62.88 60.77,64.16 Z" fill="rgb(8,119,167)"/>
<path d="M 21.44 53.89 C20.11,55.47 18.40,59.18 17.63,62.13 L 16.25 67.50 L 14.62 62.07 C13.73,59.08 13.00,54.73 13.00,52.39 L 13.00 48.14 L 18.25 46.68 C25.28,44.72 31.00,43.94 31.00,44.94 C31.00,45.38 29.69,46.01 28.08,46.33 C26.34,46.68 24.90,47.75 24.51,48.96 C24.15,50.09 22.77,52.31 21.44,53.89 ZM 70.71 33.38 C71.05,33.72 70.92,34.00 70.41,34.00 C69.90,34.00 69.43,31.86 69.36,29.25 C69.10,19.47 66.45,14.37 60.50,12.24 L 57.50 11.16 L 61.00 11.13 C65.52,11.08 75.41,15.15 75.80,17.22 C76.24,19.50 73.11,29.74 71.48,31.38 C70.72,32.14 70.37,33.04 70.71,33.38 Z" fill="rgb(19,17,36)"/>
<path d="M 60.77 64.16 C62.79,62.88 63.04,59.16 61.36,55.62 C61.20,55.30 61.06,55.00 60.94,54.73 L 62.47 57.67 C63.95,60.51 65.97,63.57 66.97,64.48 C68.69,66.03 69.02,65.78 73.04,60.06 C75.38,56.73 77.63,54.00 78.05,54.00 C78.47,54.00 80.04,51.86 81.55,49.25 C84.51,44.13 87.31,41.00 88.94,41.00 C89.50,41.00 90.72,42.17 91.66,43.61 C93.20,45.95 93.24,47.08 92.13,54.76 C91.45,59.46 90.22,64.93 89.40,66.90 C88.57,68.88 87.94,70.63 87.99,70.79 C88.05,70.94 87.14,72.28 85.98,73.76 C84.35,75.83 82.90,76.49 79.68,76.62 C73.99,76.87 62.09,72.22 59.05,68.57 C58.34,67.70 57.17,67.00 56.45,67.00 C55.72,67.00 53.65,64.30 51.84,61.00 L 50.89 59.27 C52.04,61.04 53.97,62.85 55.45,63.50 C59.21,65.15 59.21,65.15 60.77,64.16 ZM 65.48 42.89 C65.81,42.19 66.00,41.67 66.00,41.43 C66.00,40.78 64.56,39.55 62.80,38.70 C60.02,37.35 59.25,37.33 56.87,38.57 C55.37,39.34 53.85,40.88 53.50,41.99 C52.93,43.79 52.69,44.16 48.92,44.11 C51.11,43.87 52.66,43.53 52.76,43.21 C52.92,42.74 54.61,39.93 56.52,36.96 C58.44,34.00 60.00,31.02 60.00,30.34 C60.00,29.61 58.27,28.99 55.75,28.81 C51.97,28.53 51.50,28.23 51.50,26.00 C51.50,24.03 52.07,23.43 54.18,23.19 C58.30,22.71 62.74,25.58 65.16,30.27 C67.82,35.43 68.08,37.91 65.48,42.89 ZM 40.89 44.79 C40.42,45.11 40.02,45.56 39.60,46.15 C37.30,49.45 37.50,53.00 40.00,53.00 C41.10,53.00 42.00,53.45 42.00,54.00 C42.00,54.55 43.47,55.00 45.27,55.00 L 30.00 55.00 L 30.00 52.02 C30.00,48.49 34.14,45.83 40.89,44.79 Z" fill="rgb(8,86,124)"/>
<path d="M 40.89 44.79 C34.14,45.83 30.00,48.49 30.00,52.02 L 30.00 55.00 L 41.27 55.00 C34.52,55.00 34.00,55.15 34.00,57.13 C34.00,58.31 35.57,62.36 37.50,66.13 C39.42,69.91 40.95,73.34 40.88,73.75 C40.60,75.55 41.11,76.96 42.58,78.43 C44.01,79.87 43.97,79.98 42.09,79.70 C40.96,79.52 39.02,78.44 37.77,77.29 C36.52,76.14 34.60,75.04 33.50,74.84 C32.40,74.64 30.83,73.11 30.00,71.43 C29.18,69.76 27.54,67.45 26.36,66.30 C24.08,64.08 22.43,57.29 23.44,54.29 C24.83,50.20 33.03,46.03 41.16,44.62 C41.06,44.67 40.97,44.73 40.89,44.79 ZM 94.89 23.25 L 95.00 0.00 L 95.00 100.00 L 94.88 77.25 C94.82,64.74 94.57,55.40 94.32,56.50 C92.59,64.24 89.52,70.40 85.95,73.80 C85.96,73.78 85.97,73.77 85.98,73.76 C87.14,72.28 88.05,70.94 87.99,70.79 C87.94,70.63 88.57,68.88 89.40,66.90 C90.22,64.93 91.45,59.46 92.13,54.76 C93.24,47.08 93.20,45.95 91.66,43.61 C90.72,42.17 89.50,41.00 88.94,41.00 C87.31,41.00 84.51,44.13 81.55,49.25 C80.04,51.86 78.47,54.00 78.05,54.00 C77.80,54.00 76.88,54.99 75.68,56.50 C78.55,52.35 81.77,46.99 83.30,43.78 C85.06,40.09 87.10,36.83 87.82,36.53 C90.31,35.54 92.88,37.98 93.83,42.25 C94.54,45.40 94.81,40.47 94.89,23.25 ZM 65.48 42.89 C68.08,37.91 67.82,35.43 65.16,30.27 C62.74,25.58 58.30,22.71 54.18,23.19 C53.57,23.26 53.09,23.36 52.72,23.51 C53.16,23.24 53.74,23.02 54.50,22.82 C59.67,21.43 63.07,14.14 60.06,12.08 L 60.50 12.24 C61.33,12.53 62.10,12.89 62.81,13.31 C62.02,13.11 62.07,14.17 63.46,16.29 C65.06,18.73 66.62,26.31 67.33,35.01 C67.60,38.29 67.24,39.97 64.99,43.89 C65.18,43.53 65.34,43.20 65.48,42.89 ZM 71.81 61.79 C68.93,65.82 68.49,65.85 66.97,64.48 C66.97,64.47 66.97,64.47 66.96,64.47 C68.30,65.67 68.87,65.65 71.81,61.79 ZM 81.53 76.46 C81.07,76.58 80.61,76.66 80.15,76.68 C78.86,76.77 77.19,76.57 75.36,76.17 C76.98,76.51 78.47,76.68 79.68,76.62 C80.37,76.60 80.98,76.54 81.53,76.46 ZM 64.82 14.84 C65.60,15.59 66.27,16.46 66.84,17.46 C66.42,16.77 65.95,16.12 65.40,15.49 C65.20,15.25 65.01,15.04 64.82,14.84 ZM 70.16 13.47 C73.15,14.71 75.61,16.20 75.80,17.22 C75.61,16.21 73.15,14.72 70.16,13.47 ZM 51.50 26.04 C51.50,26.84 51.57,27.39 51.83,27.78 C51.57,27.39 51.50,26.85 51.50,26.06 ZM 59.31 68.85 C59.22,68.76 59.14,68.66 59.06,68.57 C59.14,68.66 59.22,68.76 59.31,68.85 Z" fill="rgb(24,66,99)"/>
<path d="M 21.44 53.89 C22.77,52.31 24.15,50.09 24.51,48.96 C24.90,47.75 26.34,46.68 28.08,46.33 C29.69,46.01 31.00,45.38 31.00,44.94 C31.00,44.45 29.60,44.39 27.34,44.69 C33.86,43.61 40.28,43.27 44.87,43.85 C45.46,43.93 46.02,43.99 46.54,44.04 C46.32,44.04 46.09,44.03 45.85,44.02 C43.47,43.94 42.14,44.06 41.16,44.62 C33.03,46.03 24.83,50.20 23.44,54.29 C22.43,57.29 24.08,64.08 26.36,66.30 C27.54,67.45 29.18,69.76 30.00,71.43 C30.83,73.11 32.40,74.64 33.50,74.84 C34.60,75.04 36.52,76.14 37.77,77.29 C39.02,78.44 40.96,79.52 42.09,79.70 C43.97,79.98 44.01,79.87 42.58,78.43 C41.11,76.96 40.60,75.55 40.88,73.75 C40.95,73.34 39.42,69.91 37.50,66.13 C35.58,62.36 34.01,58.32 34.00,57.14 C34.01,58.32 35.88,62.93 38.17,67.38 C40.46,71.85 42.97,76.74 43.74,78.25 C44.51,79.76 45.56,81.00 46.07,81.00 C46.58,81.00 47.00,81.57 47.00,82.27 C47.00,82.97 48.38,85.22 50.07,87.27 L 53.15 91.00 L 50.25 91.00 C41.25,91.00 27.84,83.44 21.16,74.60 C19.39,72.25 17.79,69.46 16.49,66.55 L 17.63 62.13 C18.40,59.18 20.11,55.47 21.44,53.89 ZM 81.53 76.46 C83.52,76.14 84.68,75.40 85.95,73.80 C86.24,73.52 86.53,73.22 86.82,72.90 C86.44,73.37 86.03,73.86 85.59,74.39 C75.02,87.02 73.70,87.81 69.38,84.15 C64.18,79.73 56.60,69.91 52.48,62.25 L 50.83 59.19 C50.85,59.22 50.87,59.24 50.89,59.27 L 51.84 61.00 C53.65,64.30 55.72,67.00 56.45,67.00 C57.17,67.00 58.34,67.70 59.05,68.57 L 59.06 68.57 C59.06,68.58 59.07,68.58 59.07,68.59 C59.14,68.67 59.22,68.76 59.30,68.85 L 59.31 68.85 C61.96,71.67 69.53,74.98 75.36,76.17 C77.19,76.57 78.86,76.77 80.15,76.68 C80.61,76.66 81.07,76.58 81.53,76.46 ZM 64.82 14.84 C65.01,15.04 65.20,15.25 65.40,15.49 C65.95,16.12 66.42,16.77 66.84,17.46 C68.43,20.26 69.22,24.11 69.36,29.25 C69.43,31.86 69.90,34.00 70.41,34.00 C70.43,34.00 70.44,34.00 70.46,34.00 C68.96,37.12 67.27,40.27 65.53,43.10 L 64.59 44.64 C64.73,44.38 64.87,44.13 64.99,43.89 C67.24,39.97 67.60,38.29 67.33,35.01 C66.62,26.31 65.06,18.73 63.46,16.29 C62.07,14.17 62.02,13.11 62.81,13.31 C63.55,13.75 64.22,14.26 64.82,14.84 ZM 93.11 39.99 C91.89,37.16 89.83,35.73 87.82,36.53 C87.34,36.73 86.27,38.24 85.09,40.33 C86.26,37.94 87.00,36.11 87.00,35.39 C87.00,34.76 87.64,33.71 88.43,33.06 C90.10,31.67 91.24,33.30 93.11,39.99 ZM 88.61 70.61 C90.38,68.03 91.93,64.73 93.14,60.89 C91.93,65.22 90.98,67.42 88.61,70.61 ZM 74.38 24.68 C75.33,21.59 76.03,18.38 75.80,17.22 L 75.80 17.22 C75.80,17.21 75.80,17.21 75.80,17.21 C75.79,17.16 75.78,17.12 75.76,17.08 C75.92,17.35 76.00,17.61 76.00,17.87 C76.00,19.35 75.40,21.77 74.38,24.68 ZM 70.71 33.38 C70.37,33.04 70.72,32.14 71.48,31.38 C71.63,31.22 71.80,30.99 71.98,30.69 C71.59,31.59 71.17,32.50 70.74,33.41 C70.73,33.40 70.72,33.39 70.71,33.38 ZM 83.22 43.95 C81.66,47.18 78.50,52.42 75.68,56.50 C75.65,56.54 75.62,56.58 75.58,56.62 C78.13,52.89 81.00,48.08 83.22,43.95 ZM 74.80 15.98 C73.78,15.17 72.08,14.27 70.16,13.47 C69.31,13.11 68.42,12.78 67.53,12.48 C70.56,13.37 73.30,14.68 74.80,15.98 ZM 53.71 41.48 C53.18,42.38 52.83,43.01 52.76,43.21 C52.73,43.32 52.53,43.43 52.20,43.53 C52.61,43.05 53.13,42.34 53.71,41.48 ZM 93.95 58.03 C94.08,57.53 94.20,57.02 94.32,56.50 C94.38,56.23 94.44,56.58 94.50,57.44 C94.37,57.07 94.19,57.33 93.95,58.03 ZM 13.78 58.60 C13.28,56.46 13.00,54.41 13.00,52.60 L 13.00 52.39 C13.00,53.91 13.31,56.30 13.78,58.60 ZM 57.45 35.47 C58.88,33.00 60.00,30.84 60.00,30.34 C60.00,30.90 58.92,33.06 57.45,35.47 ZM 60.81 16.61 C61.35,15.00 61.32,13.46 60.51,12.47 C61.34,13.42 61.37,14.98 60.81,16.61 ZM 41.27 55.00 C34.51,55.00 34.00,55.15 34.00,57.13 C34.00,55.15 34.52,55.00 41.27,55.00 ZM 67.51 64.91 C67.34,64.79 67.16,64.64 66.96,64.47 C67.16,64.64 67.34,64.79 67.51,64.91 Z" fill="rgb(23,39,69)"/>
<path d="M 60.81 16.61 C59.91,19.22 57.50,22.02 54.50,22.82 C53.74,23.02 53.16,23.24 52.72,23.51 C51.79,23.89 51.50,24.60 51.50,26.00 L 51.50 26.04 L 51.50 26.06 C51.50,26.85 51.57,27.39 51.83,27.78 L 51.83 27.78 C52.30,28.45 53.36,28.63 55.75,28.81 C58.27,28.99 60.00,29.61 60.00,30.34 C60.00,30.35 60.00,30.37 60.00,30.38 C59.84,28.81 50.78,28.15 35.20,28.57 C19.05,29.00 18.08,28.26 25.61,21.24 C31.65,15.60 40.94,11.13 47.81,10.55 C50.67,10.31 53.42,9.86 53.93,9.54 C54.44,9.23 55.14,9.42 55.49,9.98 C55.84,10.54 58.00,11.02 60.31,11.05 C62.82,11.07 66.00,11.83 68.82,12.89 C68.40,12.74 67.96,12.61 67.53,12.48 C65.12,11.67 62.69,11.11 61.00,11.13 L 57.50 11.16 L 60.06 12.08 C60.23,12.19 60.38,12.33 60.51,12.47 C61.32,13.46 61.35,15.00 60.81,16.61 ZM 70.46 34.00 C68.98,37.08 67.30,40.22 65.53,43.10 C67.27,40.27 68.96,37.12 70.46,34.00 ZM 70.74 33.41 C70.74,33.41 70.74,33.41 70.74,33.41 C71.11,32.62 71.47,31.84 71.82,31.06 C71.48,31.83 71.12,32.62 70.74,33.41 ZM 53.71 41.48 C53.13,42.34 52.61,43.05 52.20,43.53 C52.61,43.05 53.14,42.32 53.74,41.43 C53.73,41.45 53.72,41.46 53.71,41.48 Z" fill="rgb(57,92,125)"/>
<path d="M 74.80 15.98 C73.52,14.87 71.33,13.75 68.82,12.89 C66.00,11.83 62.82,11.07 60.31,11.05 C58.00,11.02 55.84,10.54 55.49,9.98 C55.14,9.42 54.44,9.23 53.93,9.54 C53.44,9.85 50.86,10.28 48.12,10.52 C50.98,10.26 53.99,9.42 54.87,8.63 C55.77,7.82 58.49,6.03 60.93,4.65 C64.94,2.37 65.61,2.27 68.03,3.52 C71.30,5.21 74.32,10.91 72.87,12.65 C72.16,13.51 72.47,14.18 73.94,14.97 C74.94,15.50 75.78,16.60 75.96,17.56 C75.92,17.40 75.86,17.24 75.76,17.08 C75.64,16.74 75.30,16.37 74.80,15.98 ZM 88.61 70.61 C89.48,69.44 90.17,68.40 90.74,67.33 C90.52,67.79 90.31,68.20 90.12,68.52 C88.96,70.49 88.59,72.26 89.09,73.53 C90.62,77.45 90.05,82.03 87.71,84.55 C84.02,88.54 77.00,89.76 77.00,86.42 C77.00,85.18 76.48,84.80 75.34,85.26 C77.51,83.86 80.46,80.52 85.59,74.39 C86.03,73.86 86.44,73.37 86.82,72.90 C87.44,72.22 88.04,71.45 88.61,70.61 ZM 0.02 100.00 L 33.76 99.99 C61.62,99.97 67.06,99.75 65.00,98.71 C61.61,96.99 61.85,94.73 65.50,93.91 C67.15,93.54 69.58,92.82 70.89,92.30 C73.27,91.36 82.00,93.60 82.00,95.16 C82.00,95.53 80.65,96.43 79.00,97.16 C77.35,97.89 76.00,98.83 76.00,99.24 C76.00,99.66 80.28,100.00 85.50,100.00 L 0.00 100.00 L 0.00 0.00 L 0.02 0.00 ZM 90.00 17.38 C90.00,19.30 89.61,21.12 89.14,21.41 C87.55,22.39 78.78,12.75 78.33,9.53 C78.10,7.86 77.72,5.94 77.48,5.25 C76.79,3.20 78.87,3.81 83.55,7.04 C88.75,10.61 90.00,12.62 90.00,17.38 ZM 13.78 58.60 C14.02,59.82 14.31,61.03 14.62,62.07 L 16.25 67.50 L 16.49 66.55 C17.64,69.12 19.02,71.59 20.54,73.75 C18.82,71.60 17.12,70.00 16.50,70.00 C14.49,70.00 9.38,66.84 8.12,64.82 C6.44,62.12 8.61,52.86 10.84,53.23 C11.99,53.42 12.60,52.67 12.81,50.80 C12.86,50.42 12.91,50.08 13.00,49.79 L 13.00 52.60 C13.00,54.41 13.28,56.46 13.78,58.60 ZM 5.21 49.67 C3.72,50.95 2.16,52.00 1.75,52.00 C0.39,52.00 0.97,42.96 2.52,39.97 C3.35,38.35 5.38,36.34 7.02,35.49 C9.91,34.00 10.00,34.02 9.98,36.22 C9.92,41.47 7.80,47.43 5.21,49.67 ZM 65.59 80.45 C61.18,75.81 56.08,68.94 52.48,62.25 C55.68,68.19 60.96,75.44 65.59,80.45 ZM 22.08 75.75 C25.23,79.55 29.58,83.05 34.18,85.74 C29.45,83.01 25.04,79.47 22.08,75.75 ZM 72.85 86.05 C73.30,86.08 73.76,86.01 74.26,85.82 C74.20,85.86 74.13,85.90 74.07,85.94 C73.76,86.13 73.34,86.17 72.85,86.05 ZM 74.38 24.68 C75.38,21.80 75.99,19.40 76.00,17.91 C76.00,19.41 75.38,21.84 74.35,24.77 C74.36,24.74 74.37,24.71 74.38,24.68 ZM 25.61 21.24 C28.34,18.69 31.72,16.38 35.25,14.57 C31.72,16.39 28.33,18.70 25.61,21.24 ZM 33.07 43.93 C31.20,44.12 29.28,44.37 27.34,44.69 C27.33,44.69 27.31,44.70 27.30,44.70 C29.24,44.37 31.19,44.12 33.07,43.93 ZM 93.95 58.03 C93.97,57.98 93.99,57.93 94.01,57.88 C93.99,57.93 93.97,57.98 93.95,58.04 Z" fill="rgb(215,103,55)"/>
<path d="M 57.45 35.47 C57.16,35.96 56.85,36.46 56.52,36.96 C55.66,38.30 54.84,39.61 54.19,40.69 C55.40,38.23 56.51,35.03 56.72,32.88 C57.06,29.41 56.96,29.25 53.38,28.73 C57.61,29.04 59.92,29.60 60.00,30.38 C59.94,30.95 58.85,33.07 57.45,35.47 ZM 0.08 74.75 L 0.02 86.13 L 0.02 18.23 L 0.04 45.50 L 1.94 41.32 C1.99,41.21 2.04,41.10 2.10,40.99 C0.98,44.31 0.59,50.74 1.46,51.84 C1.14,51.70 0.91,51.33 0.70,50.75 C0.44,50.06 0.16,60.86 0.08,74.75 ZM 87.14 93.03 C84.54,95.20 83.00,95.55 83.00,93.98 C83.00,93.41 84.15,92.51 85.57,91.98 C89.35,90.54 89.78,90.83 87.14,93.03 ZM 25.61 21.24 C18.08,28.26 19.05,29.00 35.20,28.57 C35.51,28.56 35.82,28.55 36.13,28.54 C35.99,28.55 35.85,28.55 35.71,28.56 C18.99,29.03 18.01,28.32 25.61,21.24 ZM 5.21 49.67 C3.90,50.79 3.02,51.47 2.37,51.75 C3.07,51.37 4.15,50.58 5.21,49.67 ZM 44.56 43.82 C41.98,43.52 38.86,43.50 35.48,43.73 C38.89,43.50 42.02,43.51 44.56,43.82 ZM 5.46 36.54 C5.94,36.13 6.44,35.79 6.92,35.54 C6.95,35.53 6.98,35.51 7.00,35.50 C6.51,35.75 5.98,36.12 5.46,36.54 ZM 9.29 34.47 C9.97,34.35 9.99,34.88 9.98,36.22 C9.99,34.89 9.96,34.35 9.29,34.47 ZM 45.27 43.90 C45.72,43.96 46.16,44.00 46.59,44.04 L 46.54 44.04 C46.14,44.00 45.71,43.96 45.27,43.90 Z" fill="rgb(231,177,116)"/>
<path d="M 5.21 49.67 C7.80,47.43 9.92,41.47 9.98,36.22 C9.99,34.88 9.97,34.35 9.29,34.47 C9.28,34.48 9.26,34.48 9.25,34.48 C10.17,34.03 11.24,33.53 12.47,32.96 C18.40,30.22 21.00,28.49 21.00,27.28 C21.00,27.15 21.02,27.02 21.06,26.87 C21.08,28.69 25.41,28.85 35.71,28.56 C35.85,28.55 35.99,28.55 36.13,28.54 C43.48,28.36 49.32,28.43 53.38,28.73 C56.96,29.25 57.06,29.41 56.72,32.88 C56.70,33.10 56.67,33.33 56.63,33.57 C56.51,31.84 55.01,31.42 53.45,32.90 C52.93,33.40 46.42,33.97 39.00,34.18 C28.01,34.49 24.91,34.92 22.32,36.46 C19.48,38.14 18.14,40.12 18.41,42.21 C18.46,42.60 17.68,43.51 16.68,44.25 C15.09,45.41 15.58,45.55 20.48,45.32 C22.24,45.24 24.66,45.02 26.99,44.74 C24.71,45.07 21.63,45.74 18.25,46.68 L 13.00 48.14 L 13.00 49.79 C13.00,49.79 13.00,49.79 13.00,49.80 C12.97,47.78 12.71,47.79 10.58,48.61 C8.68,49.34 8.57,50.61 10.25,52.44 C10.62,52.83 10.95,53.10 11.26,53.25 C11.13,53.26 10.99,53.25 10.84,53.23 C8.61,52.86 6.44,62.12 8.12,64.82 C8.67,65.70 9.95,66.79 11.38,67.75 C10.49,67.30 9.51,67.00 8.84,67.00 C7.87,67.00 5.48,65.60 3.53,63.90 L 0.24 61.00 C0.36,54.43 0.53,50.32 0.70,50.75 C0.91,51.33 1.14,51.70 1.46,51.84 C1.55,51.94 1.64,52.00 1.75,52.00 C1.87,52.00 2.09,51.91 2.37,51.75 C3.02,51.47 3.90,50.79 5.21,49.67 ZM 71.81 61.79 C69.30,65.08 68.52,65.58 67.51,64.91 L 67.51 64.91 C67.51,64.91 67.50,64.90 67.50,64.90 L 67.98 60.98 C68.45,57.24 71.49,51.16 73.98,49.00 C75.75,47.47 81.43,32.96 81.44,29.95 C81.45,26.68 77.80,20.19 76.22,20.69 C75.97,20.77 75.19,22.51 74.31,24.90 C74.32,24.85 74.34,24.81 74.35,24.77 C75.38,21.84 76.00,19.41 76.00,17.94 C76.00,17.90 76.00,17.88 76.00,17.87 C76.00,17.77 75.99,17.66 75.96,17.56 C75.81,16.79 75.23,15.92 74.49,15.33 C76.46,16.36 77.00,16.00 77.00,14.00 C77.00,12.69 76.33,12.00 75.06,12.00 C74.10,12.00 73.38,12.21 72.96,12.54 C74.20,10.67 71.24,5.17 68.03,3.52 C65.61,2.27 64.94,2.37 60.93,4.65 C60.79,4.73 60.65,4.81 60.50,4.89 C61.64,4.22 62.78,3.58 63.75,3.09 C66.09,1.92 68.00,0.74 68.00,0.48 C68.00,0.22 52.70,0.00 34.00,0.00 L 95.00 0.00 L 83.75 0.04 C72.80,0.08 72.58,0.12 75.50,1.70 C78.21,3.16 81.02,5.05 83.42,6.94 C78.83,3.80 76.80,3.22 77.48,5.25 C77.72,5.94 78.10,7.86 78.33,9.53 C78.78,12.75 87.55,22.39 89.14,21.41 C89.46,21.22 89.74,20.32 89.89,19.16 C89.86,20.54 89.78,22.03 89.66,23.45 C89.24,28.49 89.32,30.59 90.33,33.04 C89.73,32.43 89.12,32.48 88.43,33.06 C87.64,33.71 87.00,34.76 87.00,35.39 C87.00,36.11 86.26,37.94 85.09,40.33 C84.50,41.37 83.89,42.55 83.30,43.78 C83.28,43.84 83.25,43.89 83.22,43.95 C81.00,48.08 78.13,52.89 75.58,56.62 C74.81,57.60 73.93,58.79 73.04,60.06 C72.59,60.71 72.18,61.28 71.81,61.79 ZM 65.59 80.45 C66.93,81.89 68.22,83.16 69.38,84.15 C70.70,85.27 71.74,85.97 72.85,86.05 C73.34,86.17 73.76,86.13 74.07,85.94 C74.13,85.90 74.20,85.86 74.26,85.82 C74.60,85.69 74.96,85.50 75.34,85.26 C75.78,85.08 76.12,85.03 76.38,85.10 C75.93,85.04 75.16,85.38 73.85,86.08 C71.92,87.12 71.91,87.21 73.66,88.49 C75.85,90.09 77.00,89.56 77.00,86.94 C77.00,86.32 76.97,85.86 76.87,85.56 C76.96,85.77 77.00,86.06 77.00,86.42 C77.00,89.76 84.02,88.54 87.71,84.55 C89.10,83.05 89.87,80.83 89.94,78.44 C90.28,82.71 90.03,88.12 89.17,90.24 C89.05,90.54 88.90,90.83 88.71,91.11 C88.38,91.01 87.34,91.30 85.57,91.98 C84.15,92.51 83.00,93.41 83.00,93.98 C83.00,94.59 83.23,94.91 83.66,94.95 C83.16,95.20 82.61,95.46 82.03,95.73 C78.73,97.24 76.03,98.81 76.00,99.23 C76.02,98.81 77.36,97.89 79.00,97.16 C80.65,96.43 82.00,95.53 82.00,95.16 C82.00,93.60 73.27,91.36 70.89,92.30 C69.58,92.82 67.15,93.54 65.50,93.91 C61.85,94.73 61.61,96.99 65.00,98.71 C65.42,98.92 65.53,99.09 65.21,99.24 C65.47,99.00 64.86,98.66 63.92,98.22 C61.96,97.27 58.88,95.26 57.10,93.75 C55.01,91.98 52.69,91.00 50.60,91.00 L 53.15 91.00 L 50.07 87.27 C48.38,85.22 47.00,82.97 47.00,82.27 C47.00,81.57 46.58,81.00 46.07,81.00 C45.56,81.00 44.51,79.76 43.74,78.25 C42.97,76.74 40.46,71.85 38.17,67.38 C35.88,62.93 34.01,58.33 34.00,57.14 L 34.00 57.14 L 34.00 57.13 C34.00,56.67 34.03,56.30 34.16,56.02 C34.54,56.57 35.77,57.58 37.20,58.50 C38.98,59.64 41.70,63.11 43.51,66.55 C50.55,79.92 57.61,86.86 62.34,85.06 C64.10,84.39 65.32,84.52 66.65,85.53 C69.59,87.76 69.60,87.23 66.67,84.18 C65.19,82.63 64.27,81.07 64.63,80.71 C64.87,80.47 64.20,79.23 63.02,77.58 C63.89,78.60 64.75,79.57 65.59,80.45 ZM 70.54 33.99 C69.07,36.99 67.29,40.25 65.63,42.96 C62.65,47.83 60.70,51.81 60.47,53.41 C60.14,51.94 60.79,50.82 62.90,47.49 C63.52,46.51 64.10,45.53 64.59,44.64 L 65.53 43.10 C67.30,40.22 68.98,37.08 70.46,34.00 C70.49,34.00 70.52,34.00 70.54,33.99 ZM 33.07 43.93 C32.50,43.99 31.93,44.05 31.35,44.12 C31.50,44.09 31.65,44.07 31.80,44.04 C34.61,43.53 38.38,43.38 41.89,43.61 C39.94,43.53 37.77,43.57 35.48,43.73 C34.69,43.78 33.89,43.85 33.07,43.93 ZM 32.19 16.29 C33.67,15.34 35.16,14.49 36.56,13.83 C37.62,13.34 38.84,12.85 40.12,12.41 L 35.25 14.57 C34.21,15.10 33.19,15.68 32.19,16.29 ZM 51.12 99.92 C46.66,99.96 40.96,99.98 33.76,99.99 L 0.02 100.00 L 33.75 99.97 C41.01,99.96 46.70,99.95 51.12,99.92 ZM 55.10 8.43 C55.01,8.50 54.93,8.57 54.87,8.63 C53.99,9.42 50.98,10.26 48.12,10.52 C48.02,10.53 47.92,10.54 47.81,10.55 C50.66,10.31 53.11,9.60 55.10,8.43 ZM 64.22 60.57 L 66.21 63.62 C65.24,62.41 63.94,60.38 62.84,58.37 C63.28,59.09 63.75,59.84 64.22,60.57 ZM 70.74 33.41 C71.12,32.62 71.48,31.83 71.82,31.06 C71.87,30.94 71.93,30.81 71.98,30.69 C72.25,30.24 72.54,29.65 72.84,28.96 C72.31,30.27 71.60,31.82 70.80,33.47 C70.78,33.45 70.76,33.43 70.74,33.41 ZM 16.34 69.99 C16.40,70.00 16.45,70.00 16.50,70.00 C17.12,70.00 18.82,71.60 20.54,73.75 C20.56,73.78 20.58,73.81 20.60,73.84 C18.95,71.79 17.21,70.21 16.34,69.99 ZM 34.89 55.40 C35.80,55.04 37.62,55.00 41.27,55.00 C38.51,55.00 36.10,55.16 34.89,55.40 ZM 12.65 68.54 C13.93,69.27 15.21,69.83 16.10,69.97 C15.20,69.92 13.69,69.29 12.65,68.54 ZM 22.08 75.75 C25.04,79.47 29.45,83.01 34.18,85.74 L 34.18 85.74 C34.56,85.96 34.93,86.17 35.31,86.38 C30.14,83.59 25.28,79.80 22.06,75.73 ZM 54.13 65.15 C53.51,64.13 52.95,63.15 52.47,62.25 L 50.78 59.10 C50.80,59.13 50.81,59.16 50.83,59.19 L 52.48 62.25 C53.00,63.22 53.55,64.19 54.13,65.15 ZM 89.75 14.41 C89.64,13.85 89.49,13.33 89.28,12.84 C89.45,13.13 89.56,13.40 89.62,13.64 C89.67,13.84 89.72,14.10 89.75,14.41 ZM 4.76 37.16 C4.24,37.65 3.74,38.19 3.32,38.73 C3.73,38.15 4.18,37.64 4.76,37.16 ZM 54.54 39.95 C54.42,40.20 54.31,40.45 54.19,40.69 C54.13,40.79 54.07,40.89 54.01,40.98 C54.19,40.65 54.36,40.31 54.54,39.95 ZM 72.51 13.49 C72.54,13.73 72.65,13.97 72.86,14.22 C72.63,13.98 72.51,13.74 72.51,13.49 ZM 93.11 39.99 C93.04,39.75 92.98,39.51 92.91,39.28 C92.99,39.55 93.07,39.81 93.15,40.07 C93.13,40.04 93.12,40.02 93.11,39.99 ZM 83.59 99.98 C79.27,99.91 76.00,99.61 76.00,99.24 C76.02,99.61 79.28,99.91 83.59,99.98 ZM 2.11 40.95 C2.11,40.96 2.10,40.98 2.10,40.99 C2.04,41.10 1.99,41.21 1.94,41.32 L 0.04 45.50 L 2.00 41.20 C2.04,41.11 2.07,41.03 2.11,40.95 Z" fill="rgb(230,162,65)"/>
<path d="M 4.76 37.16 C4.18,37.64 3.73,38.15 3.32,38.73 C3.00,39.15 2.72,39.57 2.52,39.97 C2.37,40.25 2.24,40.58 2.11,40.95 C2.07,41.03 2.04,41.11 2.00,41.20 L 0.04 45.50 L 0.04 40.34 L 2.80 37.69 C4.35,36.21 6.11,35.00 6.71,35.00 C7.32,35.00 10.77,33.67 14.39,32.05 C13.79,32.34 13.16,32.64 12.47,32.96 C11.24,33.53 10.17,34.03 9.25,34.48 C8.81,34.57 8.12,34.92 7.02,35.49 C7.01,35.49 7.01,35.50 7.00,35.50 C6.98,35.51 6.95,35.53 6.92,35.54 C6.44,35.79 5.94,36.13 5.46,36.54 C5.23,36.73 4.99,36.94 4.76,37.16 ZM 10.58 48.61 C12.71,47.79 12.97,47.78 13.00,49.80 C12.91,50.09 12.85,50.43 12.81,50.80 C12.62,52.43 12.14,53.20 11.26,53.25 C10.95,53.10 10.62,52.83 10.25,52.44 C8.57,50.61 8.68,49.34 10.58,48.61 ZM 73.85 86.08 C75.16,85.38 75.93,85.04 76.38,85.10 C76.61,85.16 76.77,85.31 76.87,85.56 C76.97,85.86 77.00,86.32 77.00,86.94 C77.00,89.56 75.85,90.09 73.66,88.49 C71.91,87.21 71.92,87.12 73.85,86.08 ZM 72.51 13.49 C72.50,13.23 72.63,12.95 72.87,12.65 C72.90,12.62 72.93,12.58 72.96,12.54 C73.38,12.21 74.10,12.00 75.06,12.00 C76.33,12.00 77.00,12.69 77.00,14.00 C77.00,16.00 76.46,16.36 74.49,15.33 C74.31,15.19 74.13,15.07 73.94,14.97 C73.45,14.71 73.10,14.46 72.86,14.22 C72.65,13.97 72.54,13.73 72.51,13.49 ZM 58.85 5.88 C60.41,4.69 61.76,3.36 62.72,1.99 C63.56,0.79 63.80,0.31 56.66,0.12 C63.61,0.21 68.00,0.34 68.00,0.48 C68.00,0.74 66.09,1.92 63.75,3.09 C62.78,3.58 61.64,4.22 60.50,4.89 C59.95,5.21 59.40,5.54 58.85,5.88 ZM 58.14 94.58 C59.93,95.94 62.30,97.44 63.92,98.22 C64.86,98.66 65.47,99.00 65.21,99.24 C64.44,99.60 61.16,99.80 53.59,99.90 C61.56,99.73 61.68,99.28 61.06,98.11 C60.40,96.88 59.36,95.66 58.14,94.58 ZM 82.47 0.04 C78.72,0.16 76.00,0.48 76.00,0.86 C76.00,1.21 77.55,2.60 79.73,4.26 C78.34,3.33 76.91,2.46 75.50,1.70 C72.70,0.19 72.79,0.09 82.47,0.04 ZM 55.10 8.43 C53.11,9.60 50.66,10.31 47.81,10.55 C47.69,10.56 47.56,10.57 47.43,10.59 C47.53,10.58 47.63,10.57 47.73,10.56 C50.33,10.34 53.29,9.29 55.98,7.77 C55.63,8.02 55.33,8.24 55.10,8.43 ZM 50.60 91.00 C52.61,91.00 54.83,91.91 56.85,93.55 C54.77,92.03 52.42,91.00 50.60,91.00 ZM 90.34 33.06 C90.34,33.05 90.33,33.04 90.33,33.04 C89.44,30.89 89.27,29.00 89.53,25.17 C89.34,29.09 89.52,31.00 90.34,33.06 ZM 89.49 13.24 C89.43,13.12 89.36,12.98 89.28,12.84 C89.06,12.31 88.78,11.81 88.42,11.32 C88.76,11.69 89.00,12.01 89.13,12.25 C89.27,12.50 89.39,12.84 89.49,13.24 ZM 32.19 16.29 C32.17,16.30 32.16,16.31 32.14,16.32 C33.53,15.42 34.93,14.62 36.26,13.97 C34.95,14.61 33.57,15.40 32.19,16.29 ZM 40.21 12.38 C40.18,12.39 40.15,12.40 40.12,12.41 C38.84,12.85 37.62,13.34 36.56,13.83 C37.64,13.32 38.90,12.83 40.21,12.38 ZM 93.15 40.08 L 93.15 40.07 C93.07,39.81 92.99,39.55 92.91,39.28 C92.90,39.25 92.89,39.22 92.88,39.19 C92.98,39.50 93.07,39.79 93.15,40.08 Z" fill="rgb(247,229,208)"/>
<path d="M 70.54 33.99 C70.90,33.95 71.00,33.74 70.80,33.47 C71.60,31.82 72.31,30.27 72.84,28.96 C73.34,27.80 73.85,26.36 74.31,24.90 C75.19,22.51 75.97,20.77 76.22,20.69 C77.80,20.19 81.45,26.68 81.44,29.95 C81.43,32.96 75.75,47.47 73.98,49.00 C71.49,51.16 68.45,57.24 67.98,60.98 L 67.50 64.90 L 67.49 64.90 C67.32,64.78 67.15,64.64 66.96,64.47 C66.75,64.27 66.49,63.99 66.21,63.62 L 64.22 60.57 C63.75,59.84 63.28,59.09 62.84,58.37 C62.72,58.13 62.59,57.90 62.47,57.67 L 60.94 54.73 C60.72,54.23 60.56,53.81 60.47,53.41 C60.70,51.81 62.65,47.83 65.63,42.96 C67.29,40.25 69.07,36.99 70.54,33.99 ZM 34.89 55.40 C36.10,55.16 38.51,55.00 41.27,55.00 L 45.27 55.00 C48.00,55.00 48.87,55.60 50.47,58.58 C50.57,58.75 50.67,58.93 50.78,59.10 L 52.47 62.25 C52.95,63.15 53.51,64.13 54.13,65.15 C56.78,69.61 59.96,73.99 63.02,77.58 C64.20,79.23 64.87,80.47 64.63,80.71 C64.27,81.07 65.19,82.63 66.67,84.18 C69.60,87.23 69.59,87.76 66.65,85.53 C65.32,84.52 64.10,84.39 62.34,85.06 C57.61,86.86 50.55,79.92 43.51,66.55 C41.70,63.11 38.98,59.64 37.20,58.50 C35.77,57.58 34.54,56.57 34.16,56.02 C34.29,55.74 34.51,55.54 34.89,55.40 ZM 44.56 43.82 C43.73,43.72 42.83,43.65 41.89,43.61 C38.38,43.38 34.61,43.53 31.80,44.04 C31.65,44.07 31.50,44.09 31.35,44.12 C30.01,44.28 28.65,44.47 27.30,44.70 C27.20,44.71 27.09,44.73 26.99,44.74 C24.66,45.02 22.24,45.24 20.48,45.32 C15.58,45.55 15.09,45.41 16.68,44.25 C17.68,43.51 18.46,42.60 18.41,42.21 C18.14,40.12 19.48,38.14 22.32,36.46 C24.91,34.92 28.01,34.49 39.00,34.18 C46.42,33.97 52.93,33.40 53.45,32.90 C55.01,31.42 56.51,31.84 56.63,33.57 C56.32,35.45 55.49,37.89 54.54,39.95 C54.36,40.31 54.19,40.65 54.01,40.98 C53.92,41.14 53.83,41.29 53.74,41.43 C53.14,42.32 52.61,43.05 52.20,43.53 C51.55,43.75 50.37,43.95 48.92,44.11 C48.26,44.10 47.49,44.07 46.59,44.04 C46.16,44.00 45.72,43.96 45.27,43.90 L 45.27 43.90 C45.14,43.89 45.00,43.87 44.87,43.85 C44.77,43.84 44.66,43.83 44.56,43.82 Z" fill="rgb(242,195,63)"/>
<path d="M -0.00 80.40 L -0.00 60.79 L 3.53 63.90 C5.48,65.60 7.87,67.00 8.84,67.00 C9.82,67.00 11.49,67.66 12.56,68.47 C13.63,69.28 15.25,69.95 16.16,69.97 C17.08,69.99 19.46,72.23 21.46,74.95 C27.72,83.47 41.39,91.00 50.60,91.00 C53.96,91.00 59.14,94.52 61.06,98.11 C62.04,99.95 61.17,100.00 31.04,100.00 L 0.00 100.00 L -0.00 80.40 ZM 76.00 99.24 C76.00,98.82 78.71,97.24 82.03,95.73 C86.29,93.78 88.38,92.17 89.17,90.24 C90.41,87.17 90.39,77.22 89.13,73.82 C88.56,72.28 88.86,70.66 90.11,68.53 C91.11,66.85 92.58,63.00 93.39,59.98 C94.81,54.70 94.87,55.33 94.93,77.25 L 95.00 100.00 L 85.50 100.00 C80.28,100.00 76.00,99.66 76.00,99.24 ZM 93.65 42.25 C93.32,40.19 92.16,36.77 91.08,34.65 C89.42,31.39 89.20,29.53 89.69,22.59 C90.07,17.28 89.87,13.62 89.13,12.25 C88.51,11.08 85.30,8.23 82.00,5.92 C78.70,3.60 76.00,1.33 76.00,0.86 C76.00,0.38 80.28,0.00 85.50,0.00 L 95.00 0.00 L 95.00 23.00 C95.00,35.65 94.83,46.00 94.63,46.00 C94.42,46.00 93.98,44.31 93.65,42.25 ZM 0.00 20.19 L 0.00 0.00 L 32.06 0.00 C63.87,0.00 64.10,0.02 62.72,1.99 C59.72,6.27 52.99,10.12 47.73,10.56 C44.92,10.79 39.90,12.27 36.56,13.83 C29.76,17.02 21.00,24.61 21.00,27.31 C21.00,28.53 18.94,30.01 14.41,32.04 C10.78,33.67 7.32,35.00 6.71,35.00 C6.11,35.00 4.35,36.21 2.80,37.69 L 0.00 40.37 L 0.00 20.19 Z" fill="rgb(253,253,252)"/>
</g>
</svg>