<?xml version="1.0" encoding="utf-8"?>
<svg xmlns="http://www.w3.org/2000/svg" xmlns:xlink="http://www.w3.org/1999/xlink" x="0px" y="0px"
	 viewBox="0 0 300 94.3" enable-background="new 0 0 300 94.3" xml:space="preserve">
<g>
	<path fill="#979696" d="M111.5,59c0,1.9,0.1,3.7,0.3,5.2h-3.8l-0.4-2.7h-0.1c-1.2,1.7-3.8,3.2-7.1,3.2c-4.7,0-7.1-3.1-7.1-6.2
		c0-5.2,5-8.1,14-8v-0.4c0-1.8-0.5-5-5.3-5c-2.2,0-4.5,0.6-6.1,1.6L95,44c1.9-1.1,4.8-1.9,7.7-1.9c7.2,0,8.9,4.5,8.9,8.8V59z
		 M107.4,53.2c-4.6-0.1-9.8,0.7-9.8,4.8c0,2.6,1.8,3.7,3.9,3.7c3.1,0,5-1.8,5.7-3.6c0.1-0.4,0.2-0.8,0.2-1.2V53.2z"/>
	<path fill="#979696" d="M121.8,37.5v5.2h6.1v3h-6.1v11.6c0,2.7,0.8,4.2,3.2,4.2c1.2,0,1.8-0.1,2.5-0.3l0.2,3
		c-0.8,0.3-2.1,0.5-3.7,0.5c-2,0-3.6-0.6-4.6-1.6c-1.2-1.2-1.6-3.1-1.6-5.6V45.7h-3.6v-3h3.6v-4L121.8,37.5z"/>
	<path fill="#979696" d="M147.6,63.4c-1.1,0.5-3.6,1.2-6.7,1.2c-7,0-11.6-4.4-11.6-11c0-6.6,4.9-11.5,12.5-11.5
		c2.5,0,4.7,0.6,5.9,1.2l-1,3c-1-0.5-2.6-1-4.9-1c-5.3,0-8.2,3.7-8.2,8.2c0,5,3.5,8.1,8.1,8.1c2.4,0,4-0.5,5.2-1L147.6,63.4z"/>
	<path fill="#979696" d="M151.4,32.6h4.2v13.4h0.1c0.7-1.1,1.7-2.1,3-2.8c1.2-0.7,2.7-1.1,4.3-1.1c3.1,0,8.1,1.8,8.1,9.2v12.8H167
		V51.8c0-3.5-1.4-6.4-5.4-6.4c-2.7,0-4.9,1.8-5.7,3.9c-0.2,0.5-0.3,1.1-0.3,1.9v13h-4.2V32.6z"/>
	<path fill="#979696" d="M201,62.9c-1.9,0.7-5.6,1.6-10,1.6c-4.9,0-8.9-1.2-12.1-4c-2.8-2.5-4.5-6.5-4.5-11.2
		c0-8.9,6.7-15.5,17.5-15.5c3.7,0,6.7,0.8,8.1,1.4l-1.1,3.2c-1.7-0.8-3.9-1.3-7.2-1.3c-7.9,0-13,4.5-13,12.1
		c0,7.6,4.9,12.1,12.5,12.1c2.7,0,4.6-0.4,5.6-0.8v-8.9h-6.5v-3.1H201V62.9z"/>
	<path fill="#979696" d="M224.8,58.3c0,2.2,0,4.2,0.2,5.9h-3.7l-0.2-3.5h-0.1c-1.1,1.7-3.6,4-7.7,4c-3.7,0-8-1.9-8-9.4V42.7h4.2
		v11.9c0,4.1,1.4,6.9,5.2,6.9c2.8,0,4.8-1.8,5.6-3.6c0.2-0.5,0.4-1.2,0.4-2V42.7h4.2V58.3z"/>
	<path fill="#979696" d="M246.8,59c0,1.9,0.1,3.7,0.3,5.2h-3.8l-0.4-2.7h-0.1c-1.2,1.7-3.8,3.2-7.1,3.2c-4.7,0-7.1-3.1-7.1-6.2
		c0-5.2,5-8.1,14-8v-0.4c0-1.8-0.5-5-5.3-5c-2.2,0-4.5,0.6-6.1,1.6l-1-2.6c1.9-1.1,4.8-1.9,7.7-1.9c7.2,0,8.9,4.5,8.9,8.8V59z
		 M242.7,53.2c-4.6-0.1-9.8,0.7-9.8,4.8c0,2.6,1.8,3.7,3.9,3.7c3.1,0,5-1.8,5.7-3.6c0.1-0.4,0.2-0.8,0.2-1.2V53.2z"/>
	<path fill="#979696" d="M251.7,49.4c0-2.5,0-4.7-0.2-6.7h3.7l0.2,4.2h0.1c1.1-2.9,3.6-4.7,6.5-4.7c0.4,0,0.8,0,1.2,0.1V46
		c-0.5,0-0.9-0.1-1.5-0.1c-3,0-5.1,2.1-5.7,5c-0.1,0.6-0.1,1.2-0.1,1.9v11.5h-4.2L251.7,49.4z"/>
	<path fill="#979696" d="M285,32.6v26c0,1.9,0,4.1,0.2,5.6h-3.8l-0.2-3.7h-0.1c-1.3,2.4-4.1,4.2-7.9,4.2c-5.6,0-10-4.4-10-10.9
		c0-7.2,4.8-11.6,10.4-11.6c3.6,0,6,1.6,7,3.2h0.1V32.6H285z M280.7,51.4c0-0.5,0-1.2-0.2-1.7c-0.6-2.4-2.9-4.5-6.1-4.5
		c-4.4,0-7,3.6-7,8.3c0,4.4,2.4,8,6.9,8c2.8,0,5.4-1.8,6.2-4.7c0.1-0.5,0.2-1.1,0.2-1.7V51.4z"/>
	<path d="M74.9,30.2c4.3,4.9,7.1,11.2,7.5,18.1c0,0.1,0,0,0,0c-1.6,6.9-3.9,14.9-7.3,22.4c0,0-4.3,0.2-11.8,0.3
		c-1.8-10.9-4.8-22.5-6.8-30.4h-0.1c-2.1,8-5.1,19.5-6.8,30.4c-7.5-0.1-11.8-0.3-11.8-0.3c-8.4-18.3-10.2-40-10.2-40
		c3.9-0.3,7.1-0.4,10.4-0.5c0.8,8.1,3.7,24.2,5.3,28.8h0.1c1.4-9.6,3.9-19.6,7.9-29.1c3.8-0.1,6.4-0.1,10.3,0h0.1
		c4,9.4,6.5,19.4,7.9,29.1h0.1C71.2,54.4,74.1,38.4,74.9,30.2L74.9,30.2z"/>
	<path fill="#979696" d="M56.2,12.5c-1.3-0.1-2.7-0.2-4-0.2c-21,0-38.1,17-38.1,38.1c0,21,17,38.1,38.1,38.1c21,0,38.1-17,38.1-38.1
		C90.2,30.6,75.3,14.5,56.2,12.5l-0.3,3.2C73.4,17.5,87,32.3,87,50.3c0,19.3-15.6,34.9-34.9,34.9c-19.3,0-34.9-15.6-34.9-34.9
		s15.6-34.9,34.9-34.9c1.3,0,2.5,0.1,3.7,0.2L56.2,12.5z"/>
	<path fill="#D93A34" d="M126.5,12.9c2,3.9,0.4,8.7-3.5,10.7l-22,11.1c-3.9,2-8.7,0.4-10.7-3.5c-2-3.9-0.4-8.7,3.5-10.7l22-11.1
		C119.7,7.4,124.5,9,126.5,12.9"/>
	<path fill="#979696" d="M291.9,34.9c0,1.3-1,2.3-2.4,2.3c-1.3,0-2.4-1-2.4-2.3c0-1.3,1.1-2.3,2.4-2.3
		C290.9,32.5,291.9,33.6,291.9,34.9 M287.8,34.9c0,1,0.8,1.8,1.8,1.8c1,0,1.8-0.8,1.8-1.8c0-1-0.8-1.9-1.8-1.9
		C288.6,33,287.8,33.8,287.8,34.9 M289.2,36h-0.5v-2.3c0.2,0,0.5-0.1,0.9-0.1c0.4,0,0.6,0.1,0.8,0.2c0.1,0.1,0.2,0.3,0.2,0.5
		c0,0.3-0.2,0.5-0.5,0.5v0c0.2,0.1,0.3,0.3,0.4,0.6c0.1,0.4,0.1,0.5,0.2,0.6h-0.6c-0.1-0.1-0.1-0.3-0.2-0.6c0-0.2-0.2-0.4-0.5-0.4
		h-0.3V36z M289.2,34.8h0.3c0.3,0,0.5-0.1,0.5-0.3c0-0.2-0.2-0.4-0.5-0.4c-0.1,0-0.2,0-0.3,0V34.8z"/>
</g>
</svg>
