<?xml version="1.0" encoding="UTF-8"?>
<svg xmlns="http://www.w3.org/2000/svg" version="1.1" viewBox="0 0 768 768">
  <defs>
    <linearGradient id="ab844aa6-08be-5e7a-bd20-cfd807a5ce73" x1="18.8" y1="384" x2="749.2" y2="384" gradientUnits="userSpaceOnUse">
      <stop offset="0" stop-color="#5363c9"/>
      <stop offset=".2" stop-color="#5b61c8"/>
      <stop offset=".6" stop-color="#745ec7"/>
      <stop offset=".9" stop-color="#8a5cc7"/>
    </linearGradient>
  </defs>
  <path fill="url(#ab844aa6-08be-5e7a-bd20-cfd807a5ce73)" fill-rule="evenodd" d="M384,486.2v-102.2c0,100.8,81.8,182.6,182.6,182.6s182.6-81.8,182.6-182.6-81.8-182.6-182.6-182.6c0-100.8-81.8-182.6-182.6-182.6s-182.6,81.8-182.6,182.6c-100.8,0-182.6,81.8-182.6,182.6s81.8,182.6,182.6,182.6h0c0,100.8,81.8,182.6,182.6,182.6s182.6-81.8,182.6-182.6h-102.2c0,44.4-36,80.4-80.4,80.4s-80.4-36-80.4-80.4,36-80.4,80.4-80.4ZM566.6,201.5v102.1c44.4,0,80.4,36,80.4,80.4s-36,80.4-80.4,80.4-80.4-36-80.4-80.4h-102c100.7,0,182.4-81.8,182.5-182.5ZM303.6,201.4c0-44.4,36-80.4,80.4-80.4s80.4,36,80.4,80.4-36,80.4-80.4,80.4v102.1c0-100.7-81.8-182.4-182.5-182.5h102.1ZM201.4,566.4v-102c-44.4,0-80.4-36-80.4-80.4s36-80.4,80.4-80.4,80.4,36,80.4,80.4h102.2c-100.8,0-182.5,81.7-182.6,182.4Z"/>
</svg>
