<?xml version="1.0" encoding="utf-8"?>
<!-- Generator: Adobe Illustrator 24.2.3, SVG Export Plug-In . SVG Version: 6.00 Build 0)  -->
<svg version="1.0" id="Layer_1" xmlns="http://www.w3.org/2000/svg" xmlns:xlink="http://www.w3.org/1999/xlink" x="0px" y="0px"
	 width="75px" height="75px" viewBox="0 0 75 75" enable-background="new 0 0 75 75" xml:space="preserve">
<g>
	<g>
		<path id="_x3C_W-letter_x3E_" fill="#2D3E4B" d="M44.6,32.5v5c0,0.7-0.1,1.3-0.4,1.9c-0.2,0.6-0.6,1.1-1,1.6
			c-0.4,0.5-0.9,0.8-1.5,1.1c-0.6,0.3-1.1,0.4-1.8,0.4c-0.7,0-1.4-0.2-2.1-0.5c-0.6-0.4-1.2-0.9-1.6-1.5c-0.4,0.6-0.9,1.1-1.6,1.5
			c-0.6,0.4-1.3,0.5-2.1,0.5c-0.6,0-1.2-0.1-1.8-0.4c-0.6-0.3-1-0.6-1.5-1.1c-0.4-0.5-0.8-1-1-1.6c-0.2-0.6-0.4-1.2-0.4-1.9v-5h1.8
			v5c0,0.4,0.1,0.8,0.2,1.2c0.1,0.4,0.3,0.7,0.6,1c0.3,0.3,0.5,0.5,0.9,0.6c0.3,0.2,0.7,0.2,1.1,0.2c0.4,0,0.7-0.1,1.1-0.2
			c0.3-0.2,0.6-0.4,0.9-0.6c0.3-0.3,0.4-0.6,0.6-1c0.1-0.4,0.2-0.8,0.2-1.2v-5h1.8v5c0,0.4,0.1,0.8,0.2,1.2c0.1,0.4,0.3,0.7,0.6,1
			c0.3,0.3,0.5,0.5,0.9,0.6c0.3,0.2,0.7,0.2,1.1,0.2c0.4,0,0.7-0.1,1.1-0.2c0.3-0.2,0.6-0.4,0.9-0.6c0.3-0.3,0.4-0.6,0.6-1
			c0.1-0.4,0.2-0.8,0.2-1.2v-5H44.6z"/>
		<path id="_x3C_i-letter_x3E_" fill="#2D3E4B" d="M48,32.5v10h-1.8v-10H48z"/>
		<path id="_x3C_r-letter_x3E_" fill="#2D3E4B" d="M54.7,32.5v2h-0.9c-0.4,0-0.7,0.1-1.1,0.2c-0.3,0.2-0.6,0.4-0.9,0.6
			c-0.3,0.3-0.4,0.6-0.6,1c-0.1,0.4-0.2,0.8-0.2,1.2v5h-1.8v-5c0-0.7,0.1-1.3,0.4-1.9c0.2-0.6,0.6-1.1,1-1.6
			c0.4-0.5,0.9-0.8,1.5-1.1c0.6-0.3,1.1-0.4,1.8-0.4H54.7z"/>
		<path id="_x3C_e-letter_x3E_" fill="#2D3E4B" d="M62.1,39l1.3,1.4L62.8,41c-0.4,0.5-0.9,0.8-1.5,1.1c-0.6,0.3-1.1,0.4-1.8,0.4
			c-0.6,0-1.2-0.1-1.8-0.4c-0.6-0.3-1.1-0.6-1.5-1.1c-0.4-0.5-0.8-1-1-1.7c-0.2-0.6-0.3-1.2-0.3-1.9c0-0.6,0.1-1.3,0.3-1.9
			c0.2-0.6,0.6-1.2,1-1.6c0.4-0.5,1-0.9,1.5-1.1c0.6-0.2,1.1-0.4,1.7-0.4c0.6,0,1.2,0.1,1.7,0.4c0.6,0.2,1.1,0.6,1.5,1.1l0.6,0.7
			l-5.1,5.5c0.5,0.3,1.1,0.4,1.6,0.3c0.6-0.1,1.1-0.4,1.5-0.9L62.1,39z M57.6,35.4c-0.5,0.6-0.8,1.3-0.8,2.1c0,0.5,0.1,0.9,0.3,1.3
			c0.2-0.2,0.4-0.4,0.7-0.8c0.3-0.4,0.7-0.7,1.1-1.2c0.4-0.4,0.7-0.8,1.1-1.2c0.3-0.4,0.6-0.7,0.8-0.9c-0.5-0.3-1.1-0.4-1.6-0.3
			C58.5,34.6,58,34.9,57.6,35.4z"/>
		<path id="_x3C_x-letter_x3E_" fill="#2D3E4B" d="M71.3,34.7c-0.3,0.2-0.6,0.4-0.9,0.6c-0.3,0.3-0.4,0.6-0.6,1
			c-0.1,0.4-0.2,0.8-0.2,1.2c0,0.4,0.1,0.8,0.2,1.2c0.1,0.4,0.3,0.7,0.6,1c0.3,0.3,0.5,0.5,0.9,0.6c0.3,0.2,0.7,0.2,1.1,0.2h0.9v2
			h-0.9c-0.8,0-1.5-0.2-2.1-0.5c-0.6-0.4-1.2-0.9-1.6-1.5c-0.4,0.6-1,1.1-1.6,1.5c-0.6,0.4-1.3,0.5-2.1,0.5h-0.9v-2H65
			c0.4,0,0.7-0.1,1.1-0.2c0.3-0.2,0.6-0.4,0.9-0.6c0.3-0.3,0.4-0.6,0.6-1c0.1-0.4,0.2-0.8,0.2-1.2c0-0.4-0.1-0.8-0.2-1.2
			c-0.1-0.4-0.3-0.7-0.6-1c-0.3-0.3-0.5-0.5-0.9-0.6c-0.3-0.2-0.7-0.2-1.1-0.2h-0.9v-2H65c0.7,0,1.4,0.2,2.1,0.5
			c0.6,0.4,1.2,0.9,1.6,1.5c0.4-0.6,0.9-1.1,1.6-1.5c0.6-0.4,1.3-0.5,2.1-0.5h0.9v2h-0.9C72,34.5,71.6,34.6,71.3,34.7z"/>
	</g>
	<g id="_x3C_wx-icon_x3E_">
		<g>
			<path fill="#FFFFFF" d="M20.4,37.4c0.1,3.4-2.6,6.3-6,6.3c-3.4,0.1-6.2-2.7-6.3-6.1c-0.1-3.4,2.6-6.3,6-6.3
				C17.5,31.2,20.3,34,20.4,37.4z"/>
			<path fill="#8BC53F" stroke="#8BC53F" stroke-width="6.743633e-02" stroke-miterlimit="10" d="M9.7,41.8l-4.3,4.5
				c1.2,1.2,2.6,2.1,4.3,2.8c0,0,0,0,0.1,0l2-5.9C11,42.9,10.3,42.4,9.7,41.8z"/>
			<path fill="#9CCB47" stroke="#9CCB47" stroke-width="6.743633e-02" stroke-miterlimit="10" d="M12,43.3c-0.1,0-0.1-0.1-0.2-0.1
				l-2,5.9c1.8,0.7,3.5,0.9,5.3,0.8l-0.7-6.2C13.6,43.7,12.8,43.6,12,43.3z"/>
			<path fill="#8BC53F" stroke="#8BC53F" stroke-width="6.743633e-02" stroke-miterlimit="10" d="M9.7,41.8
				c-0.5-0.5-0.9-1.1-1.2-1.8c0-0.1,0-0.1-0.1-0.2c-0.2-0.6-0.4-1.1-0.4-1.7l-6.2,0.7c0.1,1.2,0.4,2.4,0.9,3.5c0,0.1,0,0.1,0.1,0.2
				c0.6,1.5,1.5,2.7,2.5,3.8L9.7,41.8z"/>
			<path fill="#FFF100" stroke="#FFF100" stroke-width="6.743633e-02" stroke-miterlimit="10" d="M25.8,42L20,39.7
				c-0.4,0.9-0.9,1.7-1.5,2.3l4.5,4.3C24.1,45.2,25.1,43.7,25.8,42z"/>
			<path fill="#00B5D5" stroke="#00B5D5" stroke-width="6.743633e-02" stroke-miterlimit="10" d="M16.4,31.7
				c0.7,0.3,1.3,0.7,1.9,1.1l4.3-4.5c-1.1-1.1-2.4-1.9-3.9-2.5c-0.3-0.1-0.6-0.2-0.9-0.3l-2,5.9C16,31.6,16.2,31.6,16.4,31.7z"/>
			<path fill="#6BB245" stroke="#6BB245" stroke-width="6.743633e-02" stroke-miterlimit="10" d="M5.1,29.1c-1,1.1-1.8,2.4-2.4,3.9
				c-0.1,0.2-0.1,0.4-0.2,0.6c-0.6,1.7-0.8,3.5-0.6,5.2L8,38.1c-0.1-0.8,0-1.7,0.3-2.5c0-0.1,0.1-0.2,0.1-0.4
				c0.3-0.7,0.7-1.3,1.1-1.8L5.1,29.1z"/>
			<path fill="#00BAD1" stroke="#00BAD1" stroke-width="6.743633e-02" stroke-miterlimit="10" d="M15.8,31.5l2-5.9
				c-1.8-0.6-3.6-0.7-5.4-0.4l0.7,6.2C14,31.2,14.9,31.3,15.8,31.5z"/>
			<path fill="#D6DE23" stroke="#D6DE23" stroke-width="6.743633e-02" stroke-miterlimit="10" d="M20.2,48.3c1-0.6,1.9-1.2,2.7-2
				L18.4,42c-0.4,0.4-0.9,0.7-1.4,1L20.2,48.3z"/>
			<path fill="#B3D456" stroke="#B3D456" stroke-width="6.743633e-02" stroke-miterlimit="10" d="M16.7,43.2
				c-0.8,0.3-1.5,0.5-2.3,0.5l0.7,6.2c1.4-0.1,2.8-0.4,4.2-1c0.4-0.2,0.7-0.3,1-0.5L17,43C16.9,43.1,16.8,43.1,16.7,43.2z"/>
			<path fill="#006DB7" stroke="#006DB7" stroke-width="6.743633e-02" stroke-miterlimit="10" d="M25.6,32.5
				C25.5,32.5,25.5,32.5,25.6,32.5c-0.7-1.5-1.6-2.8-2.7-3.9c-0.1-0.1-0.1-0.1-0.2-0.2l-4.3,4.5c0.6,0.6,1.1,1.2,1.5,2
				c0,0,0,0.1,0.1,0.1L25.6,32.5z"/>
			<path fill="#00B18D" stroke="#00B18D" stroke-width="6.743633e-02" stroke-miterlimit="10" d="M10.6,32.4
				c0.3-0.2,0.7-0.4,1.1-0.6c0.5-0.2,0.9-0.3,1.4-0.4c0,0,0,0,0,0l-0.7-6.2c0,0,0,0,0,0c-1.1,0.2-2.2,0.5-3.2,0.9
				c-0.6,0.3-1.2,0.6-1.7,0.9c-0.9,0.6-1.7,1.2-2.4,2l4.5,4.3C9.9,33,10.2,32.7,10.6,32.4z"/>
		</g>
		<path fill="#FFF100" d="M18.2,37.5c0,2.2-1.8,4-4,4c-2.2,0-4-1.8-4-4c0-2.2,1.8-4,4-4C16.4,33.5,18.2,35.3,18.2,37.5z"/>
	</g>
</g>
</svg>
