<svg xmlns="http://www.w3.org/2000/svg" viewBox="0 0 71.54 24.96"><path d="M44.6,32.5v5a4.06,4.06,0,0,1-.4,1.9,5.37,5.37,0,0,1-1,1.6,4.18,4.18,0,0,1-1.5,1.1,3.66,3.66,0,0,1-1.8.4,5.37,5.37,0,0,1-2.1-.5,5.72,5.72,0,0,1-1.6-1.5A4.63,4.63,0,0,1,34.6,42a3.64,3.64,0,0,1-2.1.5,3.92,3.92,0,0,1-1.8-.4A5.27,5.27,0,0,1,29.2,41a5.37,5.37,0,0,1-1-1.6,5.85,5.85,0,0,1-.4-1.9v-5h1.8v5a5,5,0,0,0,.2,1.2,2.07,2.07,0,0,0,.6,1,1.8,1.8,0,0,0,.9.6,2,2,0,0,0,1.1.2,4.25,4.25,0,0,0,1.1-.2l.9-.6a3.33,3.33,0,0,0,.6-1,5,5,0,0,0,.2-1.2v-5H37v5a5,5,0,0,0,.2,1.2,2.07,2.07,0,0,0,.6,1,1.8,1.8,0,0,0,.9.6,2,2,0,0,0,1.1.2,4.25,4.25,0,0,0,1.1-.2l.9-.6a3.33,3.33,0,0,0,.6-1,5,5,0,0,0,.2-1.2v-5Z" transform="translate(-1.76 -25)" fill="#2d3e4b"/><path d="M48,32.5v10H46.2v-10Z" transform="translate(-1.76 -25)" fill="#2d3e4b"/><path d="M54.7,32.5v2h-.9a4.25,4.25,0,0,0-1.1.2l-.9.6a3.33,3.33,0,0,0-.6,1,5,5,0,0,0-.2,1.2v5H49.2v-5a4.06,4.06,0,0,1,.4-1.9,5.37,5.37,0,0,1,1-1.6,4.18,4.18,0,0,1,1.5-1.1,3.66,3.66,0,0,1,1.8-.4Z" transform="translate(-1.76 -25)" fill="#2d3e4b"/><path d="M62.1,39l1.3,1.4-.6.6a4.18,4.18,0,0,1-1.5,1.1,3.66,3.66,0,0,1-1.8.4,3.92,3.92,0,0,1-1.8-.4A4.18,4.18,0,0,1,56.2,41a4.78,4.78,0,0,1-1-1.7,5.82,5.82,0,0,1-.3-1.9,6.28,6.28,0,0,1,.3-1.9,4.35,4.35,0,0,1,1-1.6,3.88,3.88,0,0,1,1.5-1.1,5.26,5.26,0,0,1,1.7-.4,4.52,4.52,0,0,1,3.2,1.5l.6.7-5.1,5.5a2.32,2.32,0,0,0,1.6.3,2.37,2.37,0,0,0,1.5-.9Zm-4.5-3.6a3.23,3.23,0,0,0-.8,2.1,2.77,2.77,0,0,0,.3,1.3,6.53,6.53,0,0,0,.7-.8c.3-.4.7-.7,1.1-1.2s.7-.8,1.1-1.2a8.18,8.18,0,0,1,.8-.9,2.32,2.32,0,0,0-1.6-.3A2.94,2.94,0,0,0,57.6,35.4Z" transform="translate(-1.76 -25)" fill="#2d3e4b"/><path d="M71.3,34.7l-.9.6a3.33,3.33,0,0,0-.6,1,5,5,0,0,0-.2,1.2,5,5,0,0,0,.2,1.2,2.07,2.07,0,0,0,.6,1,1.8,1.8,0,0,0,.9.6,2,2,0,0,0,1.1.2h.9v2h-.9a4.65,4.65,0,0,1-2.1-.5,5.72,5.72,0,0,1-1.6-1.5A5.72,5.72,0,0,1,67.1,42a3.64,3.64,0,0,1-2.1.5h-.9v-2H65a4.25,4.25,0,0,0,1.1-.2l.9-.6a3.33,3.33,0,0,0,.6-1,5,5,0,0,0,.2-1.2,5,5,0,0,0-.2-1.2,2.07,2.07,0,0,0-.6-1,1.8,1.8,0,0,0-.9-.6,2,2,0,0,0-1.1-.2h-.9v-2H65a5.37,5.37,0,0,1,2.1.5,5.72,5.72,0,0,1,1.6,1.5A4.63,4.63,0,0,1,70.3,33a3.64,3.64,0,0,1,2.1-.5h.9v2h-.9A3.59,3.59,0,0,0,71.3,34.7Z" transform="translate(-1.76 -25)" fill="#2d3e4b"/><path d="M20.4,37.4a6.09,6.09,0,0,1-6,6.3,6.23,6.23,0,0,1-6.3-6.1,6.09,6.09,0,0,1,6-6.3A6.23,6.23,0,0,1,20.4,37.4Z" transform="translate(-1.76 -25)" fill="#fff"/><path d="M9.7,41.8,5.4,46.3a12.81,12.81,0,0,0,4.3,2.8h.1l2-5.9A6,6,0,0,1,9.7,41.8Z" transform="translate(-1.76 -25)" fill="#8bc53f" stroke="#8bc53f" stroke-miterlimit="10" stroke-width="0.07"/><path d="M12,43.3c-.1,0-.1-.1-.2-.1l-2,5.9a12.25,12.25,0,0,0,5.3.8l-.7-6.2A6.72,6.72,0,0,1,12,43.3Z" transform="translate(-1.76 -25)" fill="#9ccb47" stroke="#9ccb47" stroke-miterlimit="10" stroke-width="0.07"/><path d="M9.7,41.8A5.67,5.67,0,0,1,8.5,40c0-.1,0-.1-.1-.2A5.26,5.26,0,0,1,8,38.1l-6.2.7a10.64,10.64,0,0,0,.9,3.5c0,.1,0,.1.1.2a12.55,12.55,0,0,0,2.5,3.8Z" transform="translate(-1.76 -25)" fill="#8bc53f" stroke="#8bc53f" stroke-miterlimit="10" stroke-width="0.07"/><path d="M25.8,42,20,39.7A7.63,7.63,0,0,1,18.5,42L23,46.3A13.35,13.35,0,0,0,25.8,42Z" transform="translate(-1.76 -25)" fill="#fff100" stroke="#fff100" stroke-miterlimit="10" stroke-width="0.07"/><path d="M16.4,31.7a11.78,11.78,0,0,1,1.9,1.1l4.3-4.5a11.35,11.35,0,0,0-3.9-2.5l-.9-.3-2,5.9C16,31.6,16.2,31.6,16.4,31.7Z" transform="translate(-1.76 -25)" fill="#00b5d5" stroke="#00b5d5" stroke-miterlimit="10" stroke-width="0.07"/><path d="M5.1,29.1A12.8,12.8,0,0,0,2.7,33c-.1.2-.1.4-.2.6a11.64,11.64,0,0,0-.6,5.2L8,38.1a5.39,5.39,0,0,1,.3-2.5c0-.1.1-.2.1-.4a7.84,7.84,0,0,1,1.1-1.8Z" transform="translate(-1.76 -25)" fill="#6bb245" stroke="#6bb245" stroke-miterlimit="10" stroke-width="0.07"/><path d="M15.8,31.5l2-5.9a11.06,11.06,0,0,0-5.4-.4l.7,6.2A6.16,6.16,0,0,1,15.8,31.5Z" transform="translate(-1.76 -25)" fill="#00bad1" stroke="#00bad1" stroke-miterlimit="10" stroke-width="0.07"/><path d="M20.2,48.3a13.5,13.5,0,0,0,2.7-2L18.4,42A7.1,7.1,0,0,1,17,43Z" transform="translate(-1.76 -25)" fill="#d6de23" stroke="#d6de23" stroke-miterlimit="10" stroke-width="0.07"/><path d="M16.7,43.2a6.35,6.35,0,0,1-2.3.5l.7,6.2a12.86,12.86,0,0,0,4.2-1,9.29,9.29,0,0,0,1-.5L17,43C16.9,43.1,16.8,43.1,16.7,43.2Z" transform="translate(-1.76 -25)" fill="#b3d456" stroke="#b3d456" stroke-miterlimit="10" stroke-width="0.07"/><path d="M25.6,32.5h0a13.58,13.58,0,0,0-2.7-3.9l-.2-.2-4.3,4.5a7.49,7.49,0,0,1,1.5,2,.1.1,0,0,0,.1.1Z" transform="translate(-1.76 -25)" fill="#006db7" stroke="#006db7" stroke-miterlimit="10" stroke-width="0.07"/><path d="M10.6,32.4a10.91,10.91,0,0,1,1.1-.6,7.37,7.37,0,0,1,1.4-.4h0l-.7-6.2h0a16.81,16.81,0,0,0-3.2.9c-.6.3-1.2.6-1.7.9a11.6,11.6,0,0,0-2.4,2l4.5,4.3A9,9,0,0,1,10.6,32.4Z" transform="translate(-1.76 -25)" fill="#00b18d" stroke="#00b18d" stroke-miterlimit="10" stroke-width="0.07"/><path d="M18.2,37.5a4,4,0,1,1-4-4A4,4,0,0,1,18.2,37.5Z" transform="translate(-1.76 -25)" fill="#fff100"/></svg>