<svg height="1001" viewBox="0 -5.38799847 145.33047834 75.39431863" width="2500" xmlns="http://www.w3.org/2000/svg"><path d="m68.216.03c4.768-.165 9.567.552 14.065 2.148 6.765 2.375 12.812 6.728 17.237 12.366a38.002 38.002 0 0 1 4.854 8.068c.226.48.4 1.017.28 1.55-.149.896-.934 1.636-1.836 1.725-.938.137-1.907-.448-2.24-1.33-2.542-5.98-6.878-11.173-12.286-14.768a33.55 33.55 0 0 0 -11.012-4.772 34.048 34.048 0 0 0 -15.424-.004c-7.215 1.662-13.822 5.8-18.481 11.551a33.578 33.578 0 0 0 -4.837 7.997c-.266.668-.877 1.192-1.59 1.309a2.12 2.12 0 0 1 -1.917-.617 2.115 2.115 0 0 1 -.46-2.217c3.385-8.001 9.652-14.723 17.356-18.724a38.03 38.03 0 0 1 16.29-4.283z" fill="#f49813"/><g fill="#3069b5"><path d="m61.915 24.666c-.029-.416.364-.727.754-.736.506-.014 1.014-.01 1.521-.003.353.012.764.247.763.643.018 4.65-.011 9.3.015 13.953 1.884-2.095 3.784-4.178 5.675-6.267.372-.367.666-.923 1.246-.971.78-.032 1.562-.013 2.343-.012.301-.027.637.249.532.57-.124.248-.35.418-.535.615-2.045 2.043-4.097 4.078-6.13 6.13 1.964 2.243 3.902 4.508 5.857 6.76.252.32.567.591.778.945.155.276-.102.612-.398.625-.65.036-1.3 0-1.951.015-.339-.008-.705.042-1.012-.133-.324-.186-.52-.518-.753-.798-1.886-2.375-3.76-4.76-5.653-7.131-.02 2.338-.006 4.676-.008 7.013-.007.27.048.595-.187.791-.374.361-.93.235-1.397.258-.414-.014-.898.077-1.235-.229-.187-.146-.236-.395-.23-.616.006-7.142-.001-14.282.005-21.422zm-8.594 6.568c.946-.304 2.012-.362 2.939.039.325.152.703.478.556.879-.149.504-.275 1.013-.452 1.508-.131.355-.543.487-.89.417-.78-.133-1.546-.391-2.346-.365-.559-.013-1.074.286-1.456.674-.616.603-.935 1.446-1.078 2.282-.113.604-.08 1.22-.086 1.831v7.697c.036.422-.4.709-.781.723-.523.007-1.045.014-1.568-.004-.377-.02-.802-.295-.753-.72-.002-4.75-.005-9.499 0-14.249-.031-.472.492-.729.902-.685.515.034 1.219-.16 1.553.359.255.6.375 1.25.614 1.856.718-.985 1.67-1.854 2.846-2.242zm-53.321.362c.145-.166.315-.347.557-.33.71-.006 1.421-.022 2.13.01.36.011.608.328.66.662.698 2.836 1.383 5.677 2.077 8.513.204.876.452 1.744.584 2.635.137.8.164 1.613.295 2.415.179-1.145.34-2.297.648-3.415.908-3.386 1.815-6.771 2.724-10.156.07-.386.434-.66.82-.66.79-.02 1.58-.007 2.37-.007.424-.02.877.228.979.661.678 2.469 1.348 4.941 2.023 7.412.41 1.6.947 3.173 1.179 4.814.064.452.126.906.22 1.355.254-2.58.918-5.089 1.464-7.614.45-2.01.89-4.021 1.347-6.03.067-.404.494-.607.87-.596.638-.004 1.278-.022 1.916.01.378.011.596.43.462.768-1.28 4.727-2.557 9.458-3.839 14.186a.828.828 0 0 1 -.786.68c-.99.033-1.981.009-2.97.014-.355.022-.73-.168-.793-.542-.886-3.25-1.754-6.508-2.632-9.761-.317-1.132-.446-2.305-.58-3.47-.162 1.037-.243 2.09-.52 3.109-.898 3.35-1.801 6.701-2.702 10.052-.101.543-.722.65-1.183.615-.92-.016-1.84.022-2.76-.016-.328 0-.58-.254-.64-.564-1.29-4.709-2.577-9.42-3.87-14.126-.045-.206-.04-.416-.049-.623zm116.06-.321a53.044 53.044 0 0 1 2.019 0c.408.006.793.286.922.676 1.16 3.033 2.312 6.07 3.47 9.105.243.615.412 1.257.52 1.91.48-1.8 1.118-3.551 1.678-5.327.623-1.92 1.247-3.841 1.873-5.762.093-.334.412-.562.75-.59.549-.041 1.1-.006 1.65-.02.322.003.704-.034.95.224.158.134.124.357.058.532-1.854 5.289-3.703 10.58-5.555 15.871-.322.881-.569 1.804-1.087 2.597-.743 1.207-1.948 2.076-3.272 2.546-.463.144-.94.461-1.438.283-.353-.09-.488-.457-.677-.727-.135-.245-.385-.471-.333-.776.025-.302.267-.548.552-.629.558-.192 1.126-.405 1.578-.799 1.1-.93 1.779-2.305 2.038-3.704-.176-.622-.5-1.193-.736-1.794-1.768-4.11-3.536-8.22-5.309-12.329-.106-.268-.264-.525-.294-.816.004-.32.372-.461.643-.47zm-82.444 1.988c-.965.18-1.845.78-2.334 1.635-.818 1.387-.913 3.06-.876 4.633.059 1.424.287 2.943 1.196 4.094.677.866 1.79 1.3 2.873 1.284 1.041.033 2.132-.32 2.838-1.111.901-.986 1.19-2.354 1.315-3.644.054-1.268.08-2.558-.249-3.795-.261-1.046-.813-2.09-1.769-2.654-.889-.545-1.987-.596-2.994-.442zm.407-2.255c1.745-.108 3.574.255 5.014 1.289 1.289.916 2.164 2.329 2.573 3.844.486 1.808.484 3.738.043 5.555-.415 1.676-1.386 3.255-2.85 4.208-1.566 1.038-3.532 1.308-5.369 1.087-1.565-.193-3.09-.88-4.18-2.033-1.28-1.341-1.916-3.19-2.048-5.017-.161-2.026.15-4.17 1.276-5.901.834-1.302 2.16-2.259 3.638-2.695.617-.193 1.26-.283 1.903-.337zm51.483 2.172c-.957.062-1.88.613-2.308 1.486-.834 1.615-.851 3.495-.81 5.27.067 1.161.193 2.36.734 3.407.365.706 1.03 1.263 1.815 1.434 1.202.289 2.616.044 3.47-.905.823-.937 1.094-2.211 1.22-3.417.087-1.374.092-2.777-.249-4.122-.234-.9-.631-1.798-1.344-2.423-.683-.602-1.635-.834-2.528-.73zm4.117-8.713c-.022-.364.35-.597.674-.625.519-.029 1.038-.015 1.558-.01.396-.003.838.291.781.73 0 7.175.001 14.348-.001 21.52.027.371-.338.659-.68.68-.413.023-.827.023-1.238-.006-.29-.018-.572-.204-.67-.482-.156-.466-.237-.95-.355-1.424-.573.777-1.311 1.464-2.229 1.806-1.309.481-2.766.49-4.11.161a4.973 4.973 0 0 1 -3.182-2.476c-1.023-1.866-1.144-4.061-1.08-6.143.036-1.779.376-3.655 1.534-5.067.874-1.196 2.307-1.883 3.753-2.062 1.347-.197 2.806.03 3.92.845.528.37.95.868 1.327 1.388-.011-2.944-.008-5.89-.002-8.835zm14.487 8.803c-.48.098-.945.29-1.333.591-.776.604-1.162 1.564-1.368 2.497-.3 1.479-.295 3.007-.14 4.502.145 1.1.42 2.272 1.226 3.085.657.689 1.646.941 2.572.896.996.036 2.032-.335 2.675-1.117.803-.972 1.03-2.264 1.147-3.48.074-1.432.075-2.898-.327-4.287-.254-.866-.719-1.727-1.503-2.22-.863-.567-1.955-.619-2.95-.467zm-1.333-1.964a8.736 8.736 0 0 1 4.256-.086c1.297.3 2.512 1.028 3.309 2.106.842 1.106 1.268 2.476 1.445 3.842.154 1.053.11 2.12.11 3.18 0 1.915 0 3.83-.004 5.744.02.233-.127.44-.317.562-.321.197-.72.11-1.078.132-.402-.003-.93.033-1.15-.386-.213-.491-.257-1.04-.394-1.557-.54.655-1.098 1.331-1.878 1.71-1.189.588-2.578.553-3.85.305-1.556-.308-2.99-1.228-3.87-2.554-1.048-1.544-1.428-3.45-1.414-5.293-.013-1.796.339-3.652 1.337-5.172.799-1.242 2.08-2.141 3.498-2.533zm27.833 11.763c-.79.29-1.288 1.201-1.086 2.024.206.966 1.33 1.626 2.267 1.268.865-.264 1.41-1.25 1.142-2.119-.236-.978-1.396-1.556-2.323-1.173zm.11-.413c.468-.074.977-.08 1.412.138.74.336 1.273 1.131 1.193 1.958.062.987-.768 1.869-1.715 2.028-1.066.226-2.214-.546-2.43-1.61-.281-1.07.463-2.275 1.54-2.514z"/><path d="m130.94 43.858c-.002.224-.003.448 0 .673.196-.012.398 0 .592-.054.182-.075.164-.307.114-.462-.188-.184-.468-.136-.706-.157zm-.593-.365c.567.032 1.202-.127 1.712.189.412.309.212.98-.252 1.124.134.354.32.683.49 1.02l-.636.012a50.119 50.119 0 0 1 -.448-.944l-.273-.005c-.002.315-.002.63-.002.945l-.594-.007c.002-.778 0-1.557.003-2.334z"/></g></svg>