<svg width="323" height="320" viewBox="0 0 323 320" fill="none" xmlns="http://www.w3.org/2000/svg">
<path d="M116.248 107.097L145.953 139.133L146.631 139.856C153.393 147.154 155.918 152.642 156.21 159.179H156.242V159.484C156.242 159.659 156.239 159.834 156.236 160.005C156.239 160.174 156.242 160.345 156.242 160.517V160.821H156.21C155.909 167.572 153.225 173.203 145.955 180.864L116.248 212.903L116.158 213H99L124.019 186.397L141.136 167.733C144.892 163.638 144.929 157.357 141.221 153.219L124.017 134.018L99.0081 107H116.158L116.248 107.097Z" fill="#000C12"/>
<path d="M197.983 134.018L180.78 153.219C177.072 157.357 177.108 163.638 180.864 167.733L197.98 186.397L223 213H205.842L205.752 212.903L176.044 180.864C168.775 173.204 166.091 167.571 165.79 160.821H165.758V160.517C165.758 160.345 165.761 160.174 165.764 160.005L165.758 159.484V159.179H165.79C166.091 152.428 168.775 146.795 176.047 139.133L205.752 107.097L205.842 107H222.992L197.983 134.018Z" fill="#000C12"/>
<path d="M156.618 118.329C157.762 119.418 158.595 120.198 159.287 120.692C159.977 121.185 160.48 121.359 160.968 121.306L161.001 121.302L161.034 121.306C161.522 121.36 162.025 121.185 162.715 120.692C163.407 120.198 164.238 119.419 165.379 118.333L175.138 107H191.656L169.267 131.38L169.261 131.387L169.252 131.394C166.948 133.588 163.96 134.639 161 134.549C158.041 134.639 155.053 133.588 152.749 131.394L152.734 131.38L130.345 107H146.864L156.618 118.329Z" fill="#000C12"/>
<path d="M156.618 201.671C157.762 200.582 158.595 199.802 159.287 199.308C159.977 198.815 160.48 198.641 160.968 198.694L161.001 198.698L161.034 198.694C161.522 198.64 162.025 198.815 162.715 199.308C163.407 199.802 164.238 200.581 165.379 201.667L175.138 213H191.656L169.267 188.62L169.261 188.613L169.252 188.606C166.948 186.412 163.96 185.361 161 185.451C158.041 185.361 155.053 186.412 152.749 188.606L152.734 188.62L130.345 213H146.864L156.618 201.671Z" fill="#000C12"/>
</svg>
