<svg width="1537" height="538" viewBox="0 0 1537 538" fill="none" xmlns="http://www.w3.org/2000/svg">
<path fill-rule="evenodd" clip-rule="evenodd" d="M861.661 169C889.885 169 910.473 173.117 928.018 181.351C945.742 189.406 959.438 200.951 969.106 215.986C978.953 230.843 983.876 248.386 983.876 268.613C983.876 278.637 982.624 288.126 980.117 297.076C977.611 305.847 973.94 313.991 969.106 321.509C964.272 328.848 958.365 335.472 951.383 341.379C944.58 347.107 936.791 352.029 928.018 356.146C919.425 360.084 909.936 363.037 899.553 365.006C889.169 367.154 873.477 368.228 861.661 368.228C838.208 368.228 813.028 364.201 795.304 356.146C777.759 347.912 764.063 336.366 754.216 321.509C744.548 306.473 739.713 288.84 739.713 268.613C739.713 258.41 740.968 248.923 743.474 240.153C745.98 231.382 749.65 223.326 754.483 215.986C759.317 208.469 765.136 201.847 771.939 196.119C778.743 190.212 786.531 185.289 795.304 181.351C804.076 177.234 813.565 174.191 823.769 172.222C834.153 170.074 849.845 169 861.661 169ZM861.661 190.479C852.351 190.479 839.076 191.374 831.02 193.164C822.964 194.775 815.623 197.192 808.999 200.413C802.375 203.635 796.466 207.574 791.274 212.228C786.261 216.703 781.965 221.894 778.384 227.801C774.804 233.529 772.118 239.884 770.328 246.865C768.538 253.667 767.642 260.916 767.642 268.613C767.642 284.007 771.133 297.613 778.115 309.427C785.276 321.241 795.572 330.459 808.999 337.082C822.427 343.526 843.042 346.748 861.661 346.748C870.971 346.748 884.246 345.942 892.302 344.331C900.359 342.541 907.699 340.035 914.323 336.813C921.126 333.591 927.035 329.742 932.048 325.267C937.24 320.613 941.625 315.422 945.205 309.694C948.786 303.787 951.473 297.434 953.263 290.632C955.053 283.651 955.947 276.31 955.947 268.613C955.947 253.04 952.366 239.436 945.205 227.801C938.044 215.987 927.75 206.857 914.323 200.413C901.074 193.79 885.051 190.479 861.661 190.479Z" fill="#000C12"/>
<path fill-rule="evenodd" clip-rule="evenodd" d="M657.139 172.001C673.968 172.002 687.306 176.119 697.152 184.353C706.999 192.587 711.922 203.776 711.922 217.917C711.922 226.867 710.043 234.653 706.283 241.276C702.703 247.899 697.421 253.18 690.438 257.118C685.294 259.96 679.228 262.032 672.242 263.339C680.919 264.089 688.595 266.131 695.272 269.469C703.687 273.407 710.133 278.957 714.608 286.117C719.263 293.097 721.59 301.331 721.59 310.817C721.59 321.557 718.995 330.956 713.803 339.011C708.611 346.887 701.181 352.973 691.513 357.269C682.024 361.565 670.655 363.713 657.407 363.713H509.253V172.001H657.139ZM535.84 342.233H653.378C661.614 342.233 668.686 340.89 674.594 338.205C680.502 335.341 685.068 331.402 688.291 326.39C691.692 321.2 693.392 315.203 693.392 308.401C693.392 301.241 691.78 295.156 688.558 290.144C685.514 284.953 681.128 281.014 675.399 278.329C669.67 275.465 662.777 274.033 654.721 274.033H535.84V342.233ZM535.84 253.896H652.304C658.928 253.896 664.657 252.642 669.491 250.136C674.324 247.451 678.086 243.782 680.771 239.128C683.457 234.295 684.799 228.656 684.799 222.212C684.799 212.904 681.755 205.833 675.668 201C669.76 195.988 661.077 193.482 649.62 193.482H535.84V253.896Z" fill="#000C12"/>
<path d="M1066.66 336.94L1119.29 191.344C1122.49 182.492 1130.89 176.593 1140.31 176.593C1149.74 176.593 1158.16 182.52 1161.35 191.402L1213.08 337.514L1267.76 172.001H1293L1232.78 348.91C1229.77 357.761 1221.45 363.713 1212.1 363.713C1202.95 363.713 1194.76 358.002 1191.6 349.409L1138.59 205.233L1085.86 349.286C1082.69 357.951 1074.44 363.713 1065.21 363.713C1055.78 363.713 1047.4 357.697 1044.38 348.76L984.708 172.001H1012.64L1066.66 336.94Z" fill="#000C12"/>
<path d="M336.665 230.281C350.05 244.37 354.8 254.592 355.223 266.936H355.259C355.259 267.249 355.255 267.563 355.249 267.876C355.255 268.189 355.259 268.502 355.259 268.815H355.223C354.8 281.159 350.05 291.383 336.665 305.472L282.538 363.781H245L322.614 282.212C330.255 274.181 330.255 261.57 322.614 253.539L245 171.97H282.538L336.665 230.281Z" fill="#000C12"/>
<path d="M405.457 253.539C397.817 261.57 397.817 274.181 405.457 282.212L483.072 363.781H445.534L391.407 305.472C378.022 291.383 373.272 281.159 372.849 268.815H372.813C372.813 268.502 372.817 268.189 372.822 267.876C372.817 267.563 372.813 267.249 372.813 266.936H372.849C373.272 254.592 378.022 244.37 391.407 230.281L445.534 171.97H483.072L405.457 253.539Z" fill="#000C12"/>
</svg>
