<?xml version="1.0" encoding="utf-8"?>
<!-- Generator: Adobe Illustrator 23.0.1, SVG Export Plug-In . SVG Version: 6.00 Build 0)  -->
<svg version="1.1" id="Livello_1" xmlns="http://www.w3.org/2000/svg" xmlns:xlink="http://www.w3.org/1999/xlink" x="0px" y="0px"
	 viewBox="0 0 595.28 419.53" style="enable-background:new 0 0 595.28 419.53;" xml:space="preserve">
<style type="text/css">
	.st0{fill:#2FEFAF;}
	.st1{fill:#08084C;}
	.st2{fill:#FFFFFF;}
</style>
<g>
	<path class="st0" d="M119.09,142.57h19.35l-19.35,19.91V142.57z M476.19,226.25c0-5.56-4.51-10.06-10.06-10.06
		c-5.56,0-10.06,4.5-10.06,10.06s4.51,10.06,10.06,10.06C471.68,236.31,476.19,231.81,476.19,226.25"/>
	<path class="st1" d="M232.46,161.96v15.51h39.13v19.39h-39.13v15.34h39.13v19.38h-65.12v-89h65.12v19.38H232.46z M343.86,201.34
		c2.69-1.51,5.13-3.4,7.24-5.65c5.41-5.77,8.39-13.45,8.39-21.62c0-8.17-2.98-15.85-8.39-21.62c-5.86-6.25-14.24-9.74-23.64-9.88v0
		h-46.63v88.83h26v-25.97h10.46l13.59,25.97h28.71L343.86,201.34z M335.85,174.07c0,2.37-0.87,7.87-8.96,7.87l-20.07,0v-15.77
		l20.07,0.03C334.98,166.21,335.85,171.71,335.85,174.07 M454.52,187.07c0-24.58-19.92-44.5-44.5-44.5
		c-24.58,0-44.5,19.92-44.5,44.5c0,24.58,19.92,44.5,44.5,44.5C434.6,231.57,454.52,211.65,454.52,187.07 M428.64,187.07
		c0,10.29-8.34,18.62-18.62,18.62c-10.29,0-18.62-8.34-18.62-18.62c0-10.29,8.34-18.63,18.62-18.63
		C420.3,168.45,428.64,176.79,428.64,187.07 M197.31,142.57h-49.88l-22.19,22.83h35.83l-41.94,43.17v22.83h78.18v-22.83h-41.94
		l41.94-43.17V142.57z M119.12,276.43h5.72v-10.92c0-1.14-0.06-2.44-0.17-3.91c-0.12-1.47-0.25-2.88-0.39-4.21
		c-0.12-0.96-0.19-1.61-0.22-1.96h0.17l2.88,6.2l7.9,14.8h6.11v-28.51h-5.68v10.83c0,1.86,0.17,4.48,0.52,7.86
		c0.12,1.05,0.19,1.82,0.22,2.31h-0.17l-2.84-6.2l-7.9-14.8h-6.15V276.43z M166.27,267.35h-13.36c0.29,1.72,1,2.99,2.12,3.8
		c1.12,0.82,2.42,1.22,3.91,1.22c1.54,0,3.14-0.48,4.8-1.44l1.96,3.62c-1.08,0.76-2.28,1.35-3.6,1.77
		c-1.33,0.42-2.64,0.63-3.95,0.63c-2.04,0-3.88-0.45-5.52-1.35c-1.64-0.9-2.94-2.21-3.89-3.93c-0.94-1.72-1.42-3.72-1.42-6.02
		c0-2.27,0.48-4.26,1.42-5.98c0.94-1.72,2.19-3.04,3.73-3.97c1.54-0.93,3.19-1.4,4.93-1.4c2.94,0,5.2,0.95,6.77,2.86
		c1.57,1.91,2.36,4.4,2.36,7.49C166.53,265.75,166.45,266.65,166.27,267.35 M161.43,263.38c0-1.39-0.32-2.49-0.96-3.29
		c-0.64-0.8-1.61-1.2-2.92-1.2c-1.08,0-2.03,0.37-2.86,1.11c-0.83,0.74-1.39,1.87-1.68,3.38H161.43z M174.26,274.79
		c-1.16-1.44-1.75-3.45-1.75-6.05v-9.21h-3.01v-4.45l3.32-0.26l0.7-5.76h4.93v5.76h5.28v4.71h-5.28v9.17c0,2.36,0.96,3.54,2.88,3.54
		c0.61,0,1.32-0.15,2.14-0.44l0.96,4.37c-1.57,0.52-3.13,0.79-4.67,0.79C177.26,276.96,175.43,276.24,174.26,274.79 M187.27,254.82
		h5.94l2.27,10.39c0.03,0.15,0.25,1.48,0.66,4.02c0.06,0.52,0.17,1.31,0.35,2.36h0.17c0.5-2.82,0.93-4.95,1.31-6.37l2.53-10.39h5.24
		l2.58,10.39c0.46,1.98,0.86,3.81,1.18,5.5l0.17,0.87h0.17l0.52-3.1c0.06-0.35,0.12-0.8,0.2-1.35c0.07-0.55,0.18-1.19,0.33-1.92
		l2.23-10.39h5.54l-5.28,21.61h-6.99l-2.18-9.12c-0.55-2.88-0.95-4.98-1.18-6.29h-0.17c-0.47,2.77-0.86,4.88-1.18,6.33l-2.05,9.08
		h-6.86L187.27,254.82z M227.37,275.6c-1.59-0.9-2.86-2.21-3.82-3.93c-0.96-1.72-1.44-3.72-1.44-6.02c0-2.33,0.48-4.35,1.44-6.07
		c0.96-1.72,2.23-3.03,3.82-3.93c1.59-0.9,3.31-1.35,5.17-1.35c1.83,0,3.55,0.45,5.15,1.35c1.6,0.9,2.88,2.22,3.84,3.95
		c0.96,1.73,1.44,3.75,1.44,6.05c0,2.3-0.48,4.31-1.44,6.02c-0.96,1.72-2.24,3.03-3.84,3.93c-1.6,0.9-3.32,1.35-5.15,1.35
		C230.68,276.96,228.96,276.5,227.37,275.6 M235.73,270.38c0.76-1.15,1.13-2.73,1.13-4.74c0-2.01-0.38-3.59-1.13-4.76
		c-0.76-1.16-1.82-1.75-3.19-1.75c-1.39,0-2.47,0.58-3.21,1.75c-0.74,1.17-1.11,2.75-1.11,4.76c0,2.01,0.37,3.59,1.11,4.74
		c0.74,1.15,1.81,1.72,3.21,1.72C233.91,272.11,234.97,271.53,235.73,270.38 M248.65,254.82h4.85l0.43,3.8h0.18
		c0.76-1.4,1.68-2.47,2.77-3.21c1.09-0.74,2.21-1.11,3.34-1.11c1.02,0,1.86,0.15,2.53,0.44l-1,5.15c-0.09-0.03-0.35-0.09-0.79-0.2
		c-0.44-0.1-0.93-0.15-1.49-0.15c-0.93,0-1.83,0.33-2.71,1c-0.87,0.67-1.6,1.72-2.18,3.14v12.75h-5.94V254.82z M266.77,245.74h5.81
		v18.12h0.17l7.2-9.04h6.5l-7.51,8.86l8.12,12.75h-6.46l-5.06-8.73l-2.97,3.36v5.37h-5.81V245.74z M293.29,276.12
		c-1.5-0.55-2.8-1.28-3.91-2.18l2.71-3.75c1.02,0.79,1.99,1.37,2.9,1.75c0.92,0.38,1.86,0.57,2.82,0.57c0.99,0,1.73-0.18,2.23-0.55
		c0.5-0.36,0.74-0.88,0.74-1.55c0-0.46-0.2-0.87-0.59-1.22c-0.39-0.35-0.95-0.68-1.68-0.98c-0.73-0.3-1.45-0.6-2.18-0.89
		c-1.72-0.67-3.12-1.49-4.21-2.47c-1.09-0.97-1.64-2.26-1.64-3.86c0-1.98,0.74-3.59,2.23-4.82c1.49-1.24,3.45-1.86,5.9-1.86
		c2.68,0,5.16,0.9,7.47,2.71l-2.66,3.58c-1.72-1.22-3.26-1.83-4.63-1.83c-0.9,0-1.58,0.17-2.03,0.52c-0.45,0.35-0.68,0.82-0.68,1.4
		c0,0.58,0.29,1.05,0.87,1.42c0.58,0.36,1.25,0.68,2.01,0.94c0.76,0.26,1.25,0.44,1.49,0.53c1.83,0.67,3.28,1.48,4.34,2.42
		c1.06,0.95,1.59,2.31,1.59,4.08c0,1.31-0.34,2.48-1.03,3.51c-0.68,1.04-1.68,1.86-2.99,2.47c-1.31,0.61-2.88,0.92-4.71,0.92
		C296.24,276.96,294.79,276.68,293.29,276.12"/>
</g>
</svg>
