<svg id="1af5cc45-bc12-48de-9eee-0cfdfcd7ba1c" xmlns="http://www.w3.org/2000/svg" viewBox="0 0 358 221.96">
    <path fill="#009cda" d="M403.29,158.47c5.81,35.5-25,55.5-56.25,57.81-19.89,40.87-90,68.46-150.71,38.71-26,3.95-40.23-2.55-51.22-15,22.21-28.58,89.47-80,171.64-53.47C360.6,200.74,372,167.44,361,155c-41.38-47-134.84-4.69-138.17-1.17C259.5,97.65,390.77,81.89,403.29,158.47ZM277.47,94c.23-.08-29.84-10.7-71.87,7.46a48.72,48.72,0,0,1-5-2.14C241.06,72.41,276.51,61,306.83,65.44c-18.37-21.13-106.55-36.65-157.08,14C87.29,67.12,43.61,120,46.1,168.37s55.24,78.43,85.26,70.28a8.78,8.78,0,0,1,2.17,0C140.24,206.71,167.37,132.39,277.47,94Z" transform="translate(-46 -45.52)"/>
</svg>