<?xml version="1.0" encoding="utf-8"?>
<!-- Generator: Adobe Illustrator 28.2.0, SVG Export Plug-In . SVG Version: 6.00 Build 0)  -->
<svg version="1.1" id="Layer_1" xmlns="http://www.w3.org/2000/svg" xmlns:xlink="http://www.w3.org/1999/xlink" x="0px" y="0px"
	 viewBox="0 0 1582.98 650.98" style="enable-background:new 0 0 1582.98 650.98;" xml:space="preserve">
<style type="text/css">
	.st0{fill:#FFFFFF;}
	.st1{fill:#FF4562;}
	.st2{fill:#1B1B3C;}
</style>
<g>
	<path class="st2" d="M1225.34,264.81c20.4,0,37.07,5.03,50,15.09c12.93,10.15,19.4,25.86,19.4,47.13v88.51h-36.78v-13.79
		l-0.66,0.57c-12.89,11.21-28.14,16.81-45.75,16.81c-17.24,0-31.23-4.36-41.96-13.08c-10.73-8.62-16.09-19.88-16.09-33.77
		c0-15.23,5.8-27.35,17.39-36.35c11.69-9.1,26.97-13.65,45.83-13.65c11.31,0,23.28,2.35,35.92,7.04v-6.75l0-0.52
		c-0.15-7.13-3.31-12.85-9.48-17.15c-6.51-4.5-14.61-6.75-24.28-6.75c-13.79,0-25.77,4.02-35.92,12.07h-3.3l-14.66-22.99v-3.59
		l0.7-0.55c7.36-5.68,16.56-10.14,27.6-13.39C1204.31,266.44,1214.99,264.81,1225.34,264.81z M1137.12,220.7l3.59,2.15v192.69
		h-38.37v-16.52c-12.83,13.22-28.6,19.93-47.27,20.12c-21.36,0-39.03-7.42-53.02-22.27c-13.98-14.85-20.97-33.14-20.97-54.89
		s6.99-40.04,20.97-54.89c13.99-14.85,31.66-22.27,53.02-22.27c14.56,0,27.97,4.12,40.24,12.36v-51.73L1137.12,220.7z
		 M898.44,264.81c20.4,0,37.08,5.03,50,15.09c12.93,10.15,19.4,25.86,19.4,47.13v88.51h-36.78v-13.79
		c-13.02,11.59-28.5,17.39-46.41,17.39c-17.24,0-31.23-4.36-41.95-13.08c-10.73-8.62-16.1-19.88-16.1-33.77
		c0-15.23,5.8-27.35,17.39-36.35c11.69-9.1,26.97-13.65,45.83-13.65c11.3,0,23.28,2.35,35.93,7.04v-6.75
		c0-7.37-3.16-13.27-9.48-17.67c-6.51-4.5-14.61-6.75-24.28-6.75c-13.8,0-25.77,4.02-35.93,12.07h-3.3l-14.66-22.99v-3.59
		c7.47-5.94,16.9-10.58,28.3-13.94C877.42,266.44,888.1,264.81,898.44,264.81z M1391.87,264.81c8.42,0,16.67,1.68,24.71,5.03
		l2.01,3.59l-9.33,31.75l-3.31,2.01l-0.46-0.25c-4.35-2.32-10.09-3.38-17.21-3.19c-8.81,0-15.95,3.02-21.41,9.05
		c-5.56,6.13-8.34,14.08-8.34,23.85v78.88h-45.55V268.4h38.22v19.11l0.45-0.64C1362.13,272.16,1375.53,264.81,1391.87,264.81z
		 M1223.61,349.3c-8.24,0-14.83,1.91-19.76,5.75c-4.93,3.83-7.4,8.91-7.4,15.23c0,6.04,2.35,10.87,7.04,14.51
		c4.7,3.64,10.88,5.46,18.54,5.46c8.72,0,16.14-2.59,22.27-7.76c6.13-4.98,9.19-10.92,9.19-17.82v-8.05l-0.97-0.44
		C1242.17,351.59,1232.53,349.3,1223.61,349.3z M896.72,349.3c-8.24,0-14.82,1.91-19.76,5.75c-4.93,3.83-7.4,8.91-7.4,15.23
		c0,6.04,2.35,10.87,7.04,14.51c4.69,3.64,10.87,5.46,18.53,5.46c8.72,0,16.14-2.59,22.27-7.76c6.13-4.98,9.2-10.92,9.2-17.82v-8.05
		l-0.97-0.44C915.27,351.59,905.63,349.3,896.72,349.3z M1061.45,303.75c-10.63,0-19.26,3.59-25.87,10.78
		c-6.71,7.28-10.06,16.43-10.06,27.44c0,11.11,3.35,20.21,10.06,27.3c6.61,7.28,15.23,10.92,25.87,10.92
		c10.25,0,18.72-3.5,25.43-10.49c6.7-6.8,10.06-16.04,10.06-27.73c0-11.59-3.36-20.88-10.06-27.87
		C1080.18,307.2,1071.7,303.75,1061.45,303.75z M711.33,415.54v-71.84h26.73l38.65,71.84h45.55l2.15-3.59l-40.38-74.14
		c11.98-4.6,21.24-11.4,27.8-20.4c6.56-9,9.84-19.73,9.84-32.19c0-19.16-6.37-34.1-19.11-44.83
		c-12.74-10.73-30.99-16.09-54.74-16.09h-82.34v191.25H711.33z M356.11,220.7c54.81,0,99.24,44.43,99.24,99.24
		s-44.43,99.24-99.24,99.24s-99.24-44.43-99.24-99.24S301.3,220.7,356.11,220.7z M567.94,220.7c16.09,0,31.08,3.31,44.97,9.92
		c13.99,6.8,25.67,15.95,35.06,27.44v3.3l-28.31,23.56h-3.16l-0.53-0.63c-12.47-14.72-28.49-22.08-48.04-22.08
		c-16,0-29.55,5.41-40.66,16.24c-11.02,10.92-16.52,24.72-16.52,41.38s5.51,30.46,16.52,41.38c11.11,10.92,24.67,16.38,40.66,16.38
		c19.83,0,36.02-7.57,48.57-22.7h3.16l28.31,23.56v3.16l-0.71,0.86c-9.45,11.37-20.94,20.28-34.5,26.73
		c-13.89,6.61-29.02,9.91-45.4,9.91c-29.02,0-53.5-9.48-73.42-28.45c-19.93-18.97-29.89-42.58-29.89-70.84
		c0-28.26,9.96-51.87,29.89-70.84C513.86,230.13,538.53,220.7,567.94,220.7z M176.63,220.7c15.23,0,29.17,2.64,41.81,7.9
		c12.55,5.27,22.56,12.26,30.03,20.98v3.16l-22.56,26.01h-3.31l-0.63-0.64c-13.25-13.37-28.13-20.15-44.63-20.34
		c-7.76,0-14.03,1.56-18.82,4.67c-4.79,3.11-7.18,7.26-7.18,12.43c0,5.94,3.16,10.68,9.48,14.23c3.83,2.11,6.85,3.59,9.05,4.45
		c1.53,0.58,5.36,2.01,11.49,4.31c21.27,6.8,35.97,12.5,44.11,17.1c17.53,10.54,26.39,25.91,26.58,46.12
		c0,18.01-7.14,32.19-21.41,42.53c-14.37,10.35-32.23,15.52-53.59,15.52c-17.05,0-32.71-3.11-46.99-9.34
		c-14.47-6.13-26.01-14.51-34.63-25.15v-3.59l22.7-26.15h3.16l0.64,0.71c6.23,6.78,14.16,12.53,23.79,17.25
		c9.87,4.89,19.4,7.33,28.59,7.33c9.39,0,16.84-1.7,22.34-5.1c5.51-3.4,8.26-7.98,8.26-13.72c0-5.17-1.77-9.24-5.32-12.21
		c-1.53-1.24-3.93-2.59-7.18-4.02c-3.83-1.53-6.51-2.54-8.05-3.02c-0.67-0.19-1.48-0.43-2.44-0.72c-0.96-0.29-2.23-0.67-3.81-1.15
		c-1.58-0.48-2.99-0.91-4.24-1.29c-1.82-0.48-3.98-1.08-6.47-1.8c-2.49-0.72-4.02-1.17-4.6-1.37c-14.94-4.6-27.83-10.87-38.65-18.82
		c-13.03-9.58-19.54-22.85-19.54-39.8c0-16.76,6.66-30.37,19.97-40.81C137.93,225.92,155.27,220.7,176.63,220.7z M356.11,262.23
		c-31.87,0-57.7,25.83-57.7,57.7s25.83,57.7,57.7,57.7c31.87,0,57.7-25.83,57.7-57.7S387.98,262.23,356.11,262.23z M748.11,261.94
		c7.85,0,14.27,2.35,19.25,7.04c4.98,4.69,7.47,10.87,7.47,18.53c0,7.38-2.49,13.34-7.47,17.89c-4.98,4.55-11.4,6.82-19.25,6.82
		h-36.78v-50.29H748.11z"/>
	<path class="st1" d="M500.89,424.57l21.39,15.58l-0.39,0.55c-36.93,50.6-96.45,83.65-163.74,84.31l-2.04,0.01
		c-65.8,0-124.37-30.99-161.9-79.17l20.89-16.25c32.69,41.97,83.69,68.96,141.01,68.96C415.68,498.56,468.44,469.4,500.89,424.57z
		 M458.11,393.41l21.39,15.58l-0.39,0.54c-27.67,37.92-72.46,62.57-123,62.57c-44.12,0-83.86-18.78-111.66-48.78l19.42-17.98
		c22.96,24.79,55.79,40.3,92.24,40.3C398.1,445.63,435.28,425.04,458.11,393.41z M356.11,167.77c50.78,0,95.74,24.87,123.38,63.09
		l-21.4,15.58l-0.38-0.53c-22.86-31.33-59.85-51.68-101.6-51.68c-36.45,0-69.27,15.51-92.23,40.29l-19.42-17.98l0.12-0.13
		C272.37,186.49,312.05,167.77,356.11,167.77z M356.11,114.84c68.36,0,128.9,33.44,166.17,84.86l-21.4,15.58l-0.39-0.54
		c-32.49-44.51-85.06-73.44-144.38-73.44c-56.74,0-107.3,26.45-140.02,67.7l-0.99,1.25l-20.89-16.25
		C231.75,145.83,290.31,114.84,356.11,114.84z"/>
	<path class="st2" d="M1499.05,221.75c0,19-15.16,34.4-33.87,34.4c-18.71,0-33.87-15.4-33.87-34.4c0-19,15.16-34.4,33.87-34.4
		C1483.88,187.35,1499.05,202.75,1499.05,221.75z M1435.97,221.75c0,16.38,13.07,29.66,29.2,29.66c16.13,0,29.2-13.28,29.2-29.66
		c0-16.38-13.07-29.66-29.2-29.66C1449.05,192.1,1435.97,205.37,1435.97,221.75z"/>
	<path class="st2" d="M1458.09,207.12v14.29h8.92c2.4,0,4.24-0.62,5.53-1.86c1.31-1.24,1.96-3.01,1.96-5.3
		c0-2.24-0.68-3.99-2.04-5.25c-1.36-1.26-3.24-1.89-5.66-1.89H1458.09z M1458.09,225.52v14.76h-4.65v-37.29h13.98
		c3.6,0,6.48,1.02,8.63,3.05c2.17,2.02,3.25,4.7,3.25,8.06c0,2.6-0.66,4.85-1.99,6.75c-1.32,1.9-3.16,3.21-5.51,3.95l8.63,15.48
		H1475l-7.99-14.76H1458.09z"/>
	<g>
		<path class="st2" d="M718.44,468.05l-20.86,33.65v20.7h-9.4v-20.61l-21.28-33.73l0.41-0.75h9.4l16.31,26.61l15.85-26.61h9.15
			L718.44,468.05z"/>
		<path class="st2" d="M739.72,523.43c-6.57,0-12.02-2.12-16.37-6.37c-4.35-4.25-6.52-9.53-6.52-15.85s2.17-11.6,6.52-15.85
			c4.35-4.25,9.8-6.37,16.37-6.37c6.62,0,12.11,2.13,16.45,6.37c4.35,4.25,6.52,9.53,6.52,15.85s-2.17,11.6-6.52,15.85
			C751.83,521.31,746.34,523.43,739.72,523.43z M739.72,515.36c4,0,7.29-1.34,9.87-4.04c2.58-2.69,3.87-6.06,3.87-10.12
			c0-4.06-1.29-7.43-3.87-10.12c-2.58-2.69-5.87-4.04-9.87-4.04c-3.95,0-7.21,1.34-9.79,4.04c-2.58,2.69-3.87,6.06-3.87,10.12
			c0,4.06,1.29,7.43,3.87,10.12C732.51,514.02,735.77,515.36,739.72,515.36z"/>
		<path class="st2" d="M800.48,480.01h9.23v42.39h-8.15v-5.09c-3.12,4.06-7.49,6.1-13.12,6.13c-5.08,0-9.19-1.64-12.33-4.93
			c-3.15-3.28-4.72-7.62-4.72-13v-25.5h9.23v25.17c0,3.06,0.88,5.54,2.63,7.43c1.75,1.89,4.1,2.84,7.06,2.84
			c3.12,0,5.59-0.97,7.43-2.92c1.83-1.95,2.75-4.53,2.75-7.76V480.01z"/>
		<path class="st2" d="M847.83,480.34l0.41,0.7l-2.28,6.75l-0.74,0.37c-1.08-0.69-2.64-1.04-4.68-1.04c-2.81,0-5.08,1.1-6.81,3.31
			c-1.72,2.21-2.59,5.04-2.59,8.49v23.47h-9.27v-42.39h8.15v5.59c2.76-4.42,6.58-6.62,11.47-6.62
			C843.85,478.98,845.96,479.43,847.83,480.34z"/>
		<path class="st2" d="M911.16,475.25h-28.85v15.6h22.72v7.62h-22.72v15.94h28.93v7.99h-38.33v-55.09h38.25V475.25z"/>
		<path class="st2" d="M957.07,480.01l0.5,0.66l-19.66,44.95c-1.74,3.89-3.63,6.62-5.67,8.18c-2.04,1.56-4.59,2.34-7.66,2.34
			c-2.81,0-5.13-0.57-6.95-1.7l-0.33-0.79l2.03-5.75l0.79-0.25c1.13,0.75,2.51,1.12,4.14,1.12c1.19,0,2.21-0.3,3.06-0.89
			c0.85-0.59,1.67-1.8,2.44-3.62l2.11-4.59l-17.26-38.99l0.5-0.66h9.15l12.29,30.17l12.21-30.17H957.07z"/>
		<path class="st2" d="M1003.05,503.48h-33.82c0.33,3.95,1.81,7.02,4.45,9.23c2.63,2.21,5.79,3.31,9.46,3.31
			c2.48,0,4.93-0.48,7.33-1.43c2.4-0.95,4.36-2.34,5.88-4.16h0.79l4.64,4.26v0.66c-2.1,2.65-4.88,4.66-8.34,6.02
			c-3.46,1.37-6.97,2.05-10.53,2.05c-6.37,0-11.77-2.02-16.18-6.06c-4.42-4.04-6.62-9.4-6.62-16.08c0-6.37,2.06-11.69,6.19-15.94
			c4.12-4.25,9.35-6.37,15.67-6.37c6.04,0,11.08,1.96,15.11,5.88c4.19,4.06,6.28,9.29,6.25,15.69
			C1003.3,501.76,1003.22,502.74,1003.05,503.48z M981.78,486.22c-3.34,0-6.13,0.99-8.36,2.96c-2.24,1.97-3.6,4.63-4.1,7.97h24.84
			c-0.44-3.12-1.57-5.57-3.39-7.37C988.5,487.41,985.5,486.22,981.78,486.22z"/>
		<path class="st2" d="M1025.49,523.52c-3.62,0-6.95-0.7-10-2.09c-3.05-1.39-5.51-3.3-7.39-5.73v-0.66l4.68-4.68h0.75
			c1.19,1.63,2.87,2.98,5.05,4.06c2.18,1.08,4.43,1.61,6.75,1.61c2.15,0,3.9-0.46,5.26-1.39c1.35-0.92,2.03-2.12,2.03-3.58
			c0-0.8-0.19-1.52-0.56-2.17s-0.74-1.17-1.1-1.57c-0.36-0.4-1.03-0.85-2.03-1.37c-0.99-0.51-1.73-0.86-2.21-1.06
			c-0.48-0.19-1.4-0.55-2.75-1.08c-2.1-0.8-3.74-1.46-4.93-1.99c-1.19-0.52-2.52-1.28-4.01-2.28c-1.49-0.99-2.59-2.19-3.29-3.6
			c-0.7-1.41-1.06-3.02-1.06-4.84c0-3.67,1.39-6.62,4.18-8.86c2.79-2.24,6.53-3.35,11.22-3.35c3.12,0,6.08,0.66,8.88,1.97
			c2.8,1.31,4.93,3,6.39,5.07v0.79l-4.68,4.47H1036c-2.7-3.34-6.07-4.99-10.1-4.97c-1.88,0-3.39,0.41-4.53,1.22
			c-1.15,0.81-1.72,1.87-1.72,3.17c0,1.3,0.58,2.34,1.74,3.13c1.16,0.79,3.12,1.75,5.88,2.88c0.39,0.17,0.68,0.29,0.87,0.37
			c2.32,0.97,4.08,1.75,5.3,2.36c1.21,0.61,2.55,1.46,4.01,2.57c1.46,1.1,2.52,2.41,3.17,3.91c0.65,1.5,0.97,3.28,0.97,5.32
			c0,3.67-1.48,6.65-4.45,8.94C1034.17,522.37,1030.29,523.52,1025.49,523.52z"/>
		<path class="st2" d="M1104.21,493.42c3.01,1.13,5.43,2.87,7.26,5.22c1.84,2.35,2.75,5.15,2.75,8.4c0,4.64-1.84,8.35-5.51,11.15
			c-3.67,2.8-8.55,4.2-14.65,4.2h-22.14v-55.09h21.11c5.88,0,10.42,1.27,13.64,3.81c3.21,2.54,4.82,6.13,4.82,10.76
			C1111.5,486.98,1109.07,490.83,1104.21,493.42z M1102.35,482.83c0-2.59-0.84-4.59-2.5-5.98c-1.67-1.39-4.05-2.09-7.14-2.09h-11.38
			v16.1h11.38c3.06,0,5.44-0.7,7.12-2.11C1101.51,487.34,1102.35,485.37,1102.35,482.83z M1093.12,514.95
			c3.78,0,6.68-0.75,8.69-2.26c2.01-1.5,3.02-3.66,3.02-6.48c0-2.65-0.97-4.78-2.9-6.39c-1.93-1.61-4.5-2.42-7.7-2.42h-12.91v17.55
			H1093.12z"/>
		<path class="st2" d="M1163.9,503.48h-33.82c0.33,3.95,1.81,7.02,4.45,9.23c2.63,2.21,5.79,3.31,9.46,3.31
			c2.48,0,4.93-0.48,7.33-1.43c2.4-0.95,4.36-2.34,5.88-4.16h0.79l4.64,4.26v0.66c-2.1,2.65-4.88,4.66-8.34,6.02
			c-3.46,1.37-6.97,2.05-10.53,2.05c-6.37,0-11.77-2.02-16.18-6.06c-4.42-4.04-6.62-9.4-6.62-16.08c0-6.37,2.06-11.69,6.19-15.94
			c4.12-4.25,9.35-6.37,15.67-6.37c6.04,0,11.08,1.96,15.11,5.88c4.19,4.06,6.28,9.29,6.25,15.69
			C1164.15,501.76,1164.07,502.74,1163.9,503.48z M1142.63,486.22c-3.34,0-6.13,0.99-8.36,2.96c-2.24,1.97-3.6,4.63-4.1,7.97H1155
			c-0.44-3.12-1.57-5.57-3.39-7.37C1149.34,487.41,1146.35,486.22,1142.63,486.22z"/>
		<path class="st2" d="M1209.22,480.01l0.5,0.66l-19.66,44.95c-1.74,3.89-3.63,6.62-5.67,8.18c-2.04,1.56-4.59,2.34-7.66,2.34
			c-2.81,0-5.13-0.57-6.95-1.7l-0.33-0.79l2.03-5.75l0.79-0.25c1.13,0.75,2.51,1.12,4.14,1.12c1.19,0,2.21-0.3,3.06-0.89
			c0.85-0.59,1.67-1.8,2.44-3.62l2.11-4.59l-17.26-38.99l0.5-0.66h9.15l12.29,30.17l12.21-30.17H1209.22z"/>
		<path class="st2" d="M1235.05,523.43c-6.57,0-12.02-2.12-16.37-6.37c-4.35-4.25-6.52-9.53-6.52-15.85s2.17-11.6,6.52-15.85
			c4.35-4.25,9.8-6.37,16.37-6.37c6.62,0,12.11,2.13,16.45,6.37c4.35,4.25,6.52,9.53,6.52,15.85s-2.17,11.6-6.52,15.85
			C1247.16,521.31,1241.68,523.43,1235.05,523.43z M1235.05,515.36c4,0,7.29-1.34,9.87-4.04c2.58-2.69,3.87-6.06,3.87-10.12
			c0-4.06-1.29-7.43-3.87-10.12c-2.58-2.69-5.87-4.04-9.87-4.04c-3.95,0-7.21,1.34-9.79,4.04c-2.58,2.69-3.87,6.06-3.87,10.12
			c0,4.06,1.29,7.43,3.87,10.12C1227.84,514.02,1231.11,515.36,1235.05,515.36z"/>
		<path class="st2" d="M1289.19,478.98c5.33,0,9.58,1.66,12.77,4.97c3.19,3.31,4.78,7.63,4.78,12.96v25.5h-9.31v-24.75
			c0-3.28-0.93-5.88-2.77-7.8c-1.85-1.92-4.35-2.88-7.49-2.88c-3.12,0-5.66,0.97-7.64,2.92c-1.97,1.95-2.96,4.53-2.96,7.76v24.75
			h-9.35v-42.39h8.15v5.51C1278.71,481.16,1283.31,478.98,1289.19,478.98z"/>
		<path class="st2" d="M1358.98,464.57l0.7,0.54v57.29h-8.32v-5.42c-3.89,4.3-8.77,6.46-14.65,6.46c-6.21,0-11.32-2.14-15.34-6.42
			c-4.01-4.28-6.02-9.55-6.02-15.81c0-6.26,2.01-11.53,6.02-15.81s9.13-6.42,15.34-6.42c5.24,0,9.82,1.67,13.74,5.01v-18.38
			L1358.98,464.57z M1337.99,515.36c3.78,0,6.93-1.24,9.44-3.72c2.51-2.48,3.77-5.96,3.77-10.43c0-4.42-1.27-7.88-3.81-10.39
			c-2.54-2.51-5.67-3.77-9.4-3.77c-3.95,0-7.17,1.36-9.66,4.08c-2.5,2.72-3.75,6.08-3.75,10.08c0,4,1.25,7.36,3.75,10.08
			C1330.83,514,1334.05,515.36,1337.99,515.36z"/>
	</g>
</g>
</svg>
