<?xml version="1.0" standalone="no"?>
<!DOCTYPE svg PUBLIC "-//W3C//DTD SVG 20010904//EN"
 "http://www.w3.org/TR/2001/REC-SVG-20010904/DTD/svg10.dtd">
<svg version="1.0" xmlns="http://www.w3.org/2000/svg"
 width="828.000000pt" height="395.000000pt" viewBox="0 0 828.000000 395.000000"
 preserveAspectRatio="xMidYMid meet">

<g transform="translate(0.000000,395.000000) scale(0.100000,-0.100000)"
fill="#000000" stroke="none">
<path d="M7000 2675 l0 -215 -80 0 -80 0 0 -85 0 -85 79 0 79 0 4 -192 c6
-220 15 -261 79 -357 65 -97 179 -167 302 -185 l48 -7 -3 83 -3 82 -45 8 c-99
17 -188 106 -210 211 -6 29 -9 120 -8 202 l3 150 133 3 132 3 0 84 0 85 -135
0 -135 0 0 215 0 215 -80 0 -80 0 0 -215z"/>
<path d="M1248 2859 c-207 -31 -396 -167 -488 -351 -54 -109 -74 -206 -67
-332 9 -173 67 -305 188 -425 76 -76 147 -122 251 -159 65 -24 87 -27 203 -27
101 0 142 4 185 19 137 46 259 132 334 235 32 43 96 161 96 175 0 3 -40 6 -90
6 l-89 0 -34 -53 c-64 -100 -180 -181 -298 -207 -77 -17 -199 -8 -271 19 -80
31 -167 99 -217 171 -158 225 -102 536 121 682 146 95 309 109 464 38 73 -33
170 -119 209 -186 l26 -44 90 0 c89 0 90 0 84 23 -32 104 -166 264 -277 330
-121 72 -289 106 -420 86z"/>
<path d="M5435 2838 c26 -124 114 -208 232 -224 133 -17 268 82 289 214 l7 42
-268 0 -267 0 7 -32z"/>
<path d="M3050 2402 c0 -498 2 -523 57 -624 38 -70 139 -161 210 -190 49 -19
76 -23 168 -23 103 0 114 2 177 32 175 83 278 273 249 459 -28 181 -165 327
-342 365 -100 22 -242 -6 -321 -62 l-28 -20 0 260 0 261 -85 0 -85 0 0 -458z
m560 -178 c148 -80 183 -275 73 -403 -74 -87 -208 -117 -308 -70 -98 46 -164
165 -152 272 12 99 94 197 191 227 53 16 139 5 196 -26z"/>
<path d="M2070 2422 c0 -4 76 -200 169 -436 l169 -428 -109 -271 c-60 -149
-109 -273 -109 -275 0 -1 41 -1 91 0 l91 3 25 60 c53 130 526 1321 530 1338 5
15 -4 17 -85 17 l-90 0 -96 -242 c-52 -134 -108 -276 -123 -315 -15 -40 -30
-73 -33 -73 -3 0 -61 142 -130 315 l-125 315 -87 0 c-49 0 -88 -4 -88 -8z"/>
<path d="M4368 2420 c-68 -17 -155 -68 -207 -121 -208 -211 -148 -566 118
-697 73 -36 77 -37 190 -37 111 0 119 1 184 33 75 37 156 112 187 173 l20 39
-96 0 c-89 0 -100 -2 -131 -26 -51 -39 -97 -54 -165 -54 -98 0 -173 43 -231
130 -35 51 -41 50 321 52 l337 3 -1 90 c0 67 -6 104 -23 147 -42 109 -140 207
-248 249 -65 24 -194 34 -255 19z m209 -189 c58 -29 95 -63 121 -110 l23 -41
-250 0 c-138 0 -251 4 -251 8 0 13 53 83 83 111 65 60 192 75 274 32z"/>
<path d="M5370 2414 c-152 -41 -275 -173 -309 -332 -6 -30 -11 -153 -11 -287
l0 -235 84 0 85 0 3 253 3 252 30 54 c16 29 45 66 64 82 37 30 109 59 148 59
22 0 23 3 23 85 l0 85 -32 -1 c-18 0 -58 -7 -88 -15z"/>
<path d="M5620 1990 l0 -440 85 0 85 0 0 440 0 440 -85 0 -85 0 0 -440z"/>
<path d="M6259 2416 c-119 -33 -226 -126 -282 -243 l-32 -68 -3 -272 -3 -273
79 0 80 0 4 248 c4 275 7 288 74 362 58 64 105 85 194 85 88 0 136 -21 193
-84 65 -72 67 -85 67 -362 l0 -249 86 0 85 0 -3 273 -3 272 -32 68 c-92 194
-306 297 -504 243z"/>
<path d="M2855 1331 c-6 -11 -115 -309 -115 -316 0 -3 11 -5 24 -5 19 0 27 8
36 35 l12 36 66 -3 c65 -3 66 -3 76 -35 7 -25 14 -33 32 -33 13 0 24 3 24 8 0
4 -26 78 -57 165 -44 120 -61 157 -75 157 -9 0 -19 -4 -23 -9z m44 -131 c29
-77 28 -80 -24 -80 -25 0 -45 4 -45 8 0 13 42 133 45 130 2 -2 13 -28 24 -58z"/>
<path d="M3183 1320 c-23 -14 -35 -31 -44 -62 -15 -57 -7 -167 15 -201 21 -32
76 -51 121 -43 38 7 85 50 85 77 0 28 -31 23 -56 -8 -15 -19 -30 -26 -53 -26
-54 0 -66 22 -66 119 0 78 2 87 24 105 33 27 59 24 91 -11 15 -16 37 -30 48
-30 19 0 20 3 10 31 -22 63 -112 88 -175 49z"/>
<path d="M3420 1175 c0 -158 1 -165 20 -165 18 0 20 7 20 80 0 67 3 83 20 100
49 49 80 11 80 -99 0 -80 1 -82 23 -79 21 3 22 7 22 96 0 91 -1 94 -29 119
-29 25 -55 27 -98 8 -16 -6 -18 -1 -18 49 0 49 -2 56 -20 56 -19 0 -20 -7 -20
-165z"/>
<path d="M4120 1175 l0 -165 25 0 c22 0 25 4 25 37 0 20 7 45 17 55 15 17 18
16 48 -34 23 -40 38 -54 58 -56 15 -2 27 -1 27 3 0 3 -18 34 -40 69 -22 35
-40 67 -40 73 0 5 16 24 35 43 41 40 43 50 13 50 -15 0 -39 -18 -70 -52 l-47
-53 -1 98 c0 97 0 97 -25 97 l-25 0 0 -165z"/>
<path d="M4470 1175 l0 -165 25 0 c24 0 25 2 25 64 l0 64 60 4 c92 7 135 59
110 133 -15 46 -59 65 -149 65 l-71 0 0 -165z m172 90 c8 -19 8 -31 0 -50 -10
-22 -18 -25 -67 -25 l-55 0 0 50 0 50 55 0 c49 0 57 -3 67 -25z"/>
<path d="M4980 1315 c0 -20 5 -25 25 -25 20 0 25 5 25 25 0 20 -5 25 -25 25
-20 0 -25 -5 -25 -25z"/>
<path d="M5638 1311 c-32 -28 -33 -32 -36 -119 -4 -103 9 -142 60 -168 61 -32
144 0 163 64 10 34 -27 29 -64 -9 -23 -23 -36 -29 -53 -24 -45 13 -58 41 -58
124 0 68 3 80 23 99 13 12 33 22 45 22 22 0 62 -32 62 -50 0 -5 11 -10 25 -10
35 0 32 25 -9 66 -29 29 -41 34 -80 34 -36 0 -52 -6 -78 -29z"/>
<path d="M5360 1280 c0 -16 -4 -30 -10 -30 -5 0 -10 -9 -10 -20 0 -11 5 -20
10 -20 6 0 10 -32 10 -75 0 -67 3 -79 25 -100 29 -30 65 -33 65 -6 0 10 -9 21
-20 24 -18 5 -20 14 -20 81 0 69 2 76 20 76 13 0 20 7 20 20 0 13 -7 20 -20
20 -16 0 -20 7 -20 30 0 25 -4 30 -25 30 -21 0 -25 -5 -25 -30z"/>
<path d="M3710 1238 c-37 -20 -51 -55 -47 -121 2 -41 9 -64 23 -78 29 -28 82
-34 129 -15 35 15 37 18 23 32 -12 12 -20 13 -41 3 -32 -15 -73 -5 -87 21 -17
32 -3 40 71 40 l69 0 0 34 c0 68 -79 116 -140 84z m84 -50 c24 -34 20 -38 -39
-38 -30 0 -55 3 -55 8 0 20 34 52 55 52 13 0 31 -10 39 -22z"/>
<path d="M3954 1236 c-18 -8 -36 -27 -44 -45 -16 -41 -8 -125 15 -151 24 -26
78 -35 115 -20 34 14 37 22 15 40 -12 10 -18 10 -30 0 -21 -18 -60 -5 -73 25
-18 39 -14 71 12 101 21 26 25 27 54 15 51 -21 76 15 27 37 -33 15 -52 15 -91
-2z"/>
<path d="M4784 1241 c-38 -16 -54 -51 -54 -114 0 -52 3 -62 30 -89 27 -27 36
-30 72 -25 65 9 83 34 83 117 0 57 -4 73 -21 90 -23 24 -79 34 -110 21z m70
-47 c11 -10 16 -34 16 -70 0 -48 -3 -56 -24 -65 -33 -15 -62 2 -70 42 -15 77
35 137 78 93z"/>
<path d="M4984 1237 c-2 -7 -3 -60 -2 -118 3 -99 4 -104 26 -107 22 -3 22 -2
22 117 0 115 -1 121 -20 121 -11 0 -23 -6 -26 -13z"/>
<path d="M5110 1130 c0 -113 1 -120 20 -120 17 0 19 8 22 87 3 83 4 88 30 102
24 14 28 14 47 -3 18 -16 21 -31 21 -103 0 -76 2 -83 20 -83 19 0 20 7 20 99
0 96 -1 100 -26 120 -30 24 -55 26 -87 10 -16 -9 -22 -9 -25 0 -2 6 -12 11
-23 11 -18 0 -19 -8 -19 -120z"/>
<path d="M5920 1238 c-38 -20 -51 -55 -47 -122 3 -49 8 -63 31 -83 40 -34 89
-31 128 7 29 29 30 34 26 96 -3 47 -9 70 -24 85 -26 25 -82 34 -114 17z m75
-42 c14 -10 19 -26 19 -66 0 -52 -17 -80 -49 -80 -31 0 -47 27 -47 80 0 40 4
57 18 67 23 17 35 16 59 -1z"/>
<path d="M6120 1130 c0 -113 1 -120 20 -120 17 0 19 8 22 87 3 83 4 88 30 102
24 14 28 14 47 -3 18 -16 21 -31 21 -103 0 -76 2 -83 20 -83 18 0 20 7 20 69
0 38 4 81 9 94 13 34 47 44 72 21 16 -14 19 -31 19 -101 0 -82 1 -84 23 -81
21 3 22 7 22 96 0 90 -1 95 -28 118 -32 27 -60 30 -100 9 -24 -12 -31 -12 -57
3 -25 14 -34 15 -62 4 -21 -8 -34 -9 -36 -2 -2 5 -12 10 -23 10 -18 0 -19 -8
-19 -120z"/>
<path d="M6510 1085 l0 -165 25 0 c24 0 25 3 25 54 l0 54 29 -11 c70 -26 118
35 108 136 -7 77 -62 117 -120 86 -16 -9 -22 -9 -25 0 -2 6 -12 11 -23 11 -18
0 -19 -9 -19 -165z m122 108 c23 -21 25 -104 2 -127 -18 -19 -45 -21 -62 -4
-18 18 -15 113 4 132 20 20 33 20 56 -1z"/>
<path d="M6784 1241 c-31 -13 -36 -27 -18 -41 11 -10 18 -10 26 -2 17 17 54
15 72 -4 29 -29 19 -41 -38 -46 -68 -6 -86 -20 -86 -69 0 -28 6 -42 22 -53 26
-18 71 -21 99 -6 13 7 19 7 19 0 0 -5 9 -10 20 -10 19 0 20 7 20 98 0 85 -3
101 -19 116 -23 21 -87 30 -117 17z m94 -148 c6 -42 -69 -58 -92 -20 -9 15 -7
21 9 33 30 22 79 14 83 -13z"/>
<path d="M6990 1130 c0 -113 1 -120 20 -120 18 0 20 7 20 80 0 67 3 83 20 100
49 49 80 11 80 -99 0 -80 1 -82 23 -79 21 3 22 7 22 97 0 89 -1 94 -28 117
-31 26 -57 30 -90 13 -16 -9 -22 -9 -25 0 -2 6 -12 11 -23 11 -18 0 -19 -8
-19 -120z"/>
<path d="M7210 1238 c1 -7 18 -58 39 -113 32 -83 36 -105 28 -129 -5 -16 -18
-31 -28 -33 -11 -3 -19 -14 -19 -24 0 -25 41 -26 62 -1 13 15 118 287 118 306
0 4 -10 6 -22 4 -18 -2 -28 -17 -46 -68 -12 -36 -25 -72 -28 -80 -4 -9 -17 18
-33 65 -22 64 -32 81 -49 83 -13 2 -22 -2 -22 -10z"/>
</g>
</svg>
