<svg version="1.1" xmlns="http://www.w3.org/2000/svg">
<style type="text/css">
	.st0{fill:#16BCD3;}
	.st1{fill:#172E56;}
</style>
<g>
	<g>
		<path class="st0" d="M134.9,155.6H30.7c-11.3,0-20.5-9.2-20.5-20.5V30.9c0-11.3,9.2-20.5,20.5-20.5h104.2
			c11.3,0,20.5,9.2,20.5,20.5v16.6h-10.1V30.9c0-5.7-4.6-10.3-10.3-10.3H30.7c-5.7,0-10.3,4.6-10.3,10.3v104.2
			c0,5.7,4.6,10.3,10.3,10.3h104.2c5.7,0,10.3-4.6,10.3-10.3v-16.6h10.1v16.6C155.4,146.4,146.2,155.6,134.9,155.6z"/>
	</g>
	<g>
		<path class="st1" d="M49.1,55.4v70.6H37.8V43.9c0-4.5,2.4-7.3,6.2-7.3c1.8,0,3.6,0.9,5.6,2.8l66.9,68.5V37.2h11.3V120
			c0,4.5-2.6,7.2-6,7.2c-2.1,0-4.4-1.2-6.1-3L49.1,55.4z"/>
	</g>
</g>
</svg>
