<svg width="350" height="350" viewBox="0 0 350 350" fill="none" xmlns="http://www.w3.org/2000/svg">
<path d="M139.106 59.468C203.849 40.7171 271.516 77.9313 290.268 142.673C308.875 206.79 272.524 273.929 208.644 293.4L203.417 276.231C258.424 259.446 289.405 201.323 272.619 146.317C256.026 91.8387 198.717 60.8588 144.046 76.6844L139.058 59.468H139.106Z" fill="#ED2224"/>
<path d="M255.595 47.6724C326.86 93.3269 347.673 188.089 302.018 259.4C272.284 305.87 219.819 332.773 164.716 329.8L166.155 302.705C235.741 306.445 295.16 253.07 298.901 183.485C301.346 138.118 279.19 94.9574 240.968 70.4996L255.595 47.6724Z" fill="#1E5F8D"/>
<path d="M278.471 214.751C257.466 273.019 193.251 303.279 134.935 282.274C132.057 281.219 129.18 280.068 126.398 278.773L130.715 269.374C181.885 292.681 242.264 270.141 265.571 218.972C266.722 216.43 267.777 213.84 268.736 211.203L278.471 214.703V214.751Z" fill="#091827"/>
<path d="M153.635 312.103C79.972 301.601 28.226 234.078 37.242 160.177L68.4622 163.966C61.5084 220.842 101.361 272.827 158.095 280.883L153.635 312.055V312.103Z" fill="#4F93C4"/>
<path d="M80.8856 262.18C36.7168 214.608 36.0934 141.186 79.4469 92.894L82.66 95.8194C40.7932 142.481 41.4166 213.313 84.0508 259.255L80.8856 262.228V262.18Z" fill="#010101"/>
<path d="M23 126.943C44.7727 63.3526 104.336 20.4796 171.572 20L171.668 35.6818C111.098 36.1134 57.4334 74.7183 37.8188 132.026L23 126.943Z" fill="#153C59"/>
<path d="M295.065 124.738C305.759 149.915 308.349 177.778 302.546 204.49L277.992 199.166C282.692 177.538 280.582 154.951 271.949 134.569L295.065 124.738Z" fill="#9CC3DE"/>
<path d="M158.893 124.324C170.067 121.088 181.747 127.511 184.984 138.686C188.196 149.753 181.921 161.342 170.895 164.703L169.993 161.739C179.487 158.842 184.835 148.81 181.938 139.315C179.074 129.912 169.182 124.564 159.745 127.296L158.884 124.324H158.893Z" fill="#ED2224"/>
<path d="M179 122.288C191.3 130.168 194.893 146.525 187.013 158.834C181.88 166.855 172.825 171.499 163.313 170.986L163.562 166.309C175.573 166.954 185.829 157.741 186.475 145.73C186.897 137.9 183.072 130.45 176.475 126.228L179 122.288Z" fill="#1E5F8D"/>
<path d="M182.948 151.127C179.322 161.185 168.238 166.408 158.173 162.782C157.676 162.6 157.179 162.402 156.699 162.178L157.444 160.556C166.277 164.579 176.698 160.688 180.721 151.856C180.92 151.417 181.102 150.97 181.267 150.515L182.948 151.119V151.127Z" fill="#091827"/>
<path d="M161.401 167.931C148.686 166.118 139.755 154.463 141.311 141.707L146.7 142.361C145.499 152.179 152.378 161.152 162.171 162.542L161.401 167.923V167.931Z" fill="#4F93C4"/>
<path d="M148.844 159.314C141.22 151.103 141.112 138.429 148.595 130.094L149.15 130.599C141.924 138.653 142.031 150.879 149.39 158.809L148.844 159.322V159.314Z" fill="#010101"/>
<path d="M138.853 135.971C142.611 124.995 152.892 117.594 164.497 117.512L164.513 120.218C154.059 120.293 144.796 126.956 141.41 136.848L138.853 135.971Z" fill="#153C59"/>
<path d="M185.812 135.59C187.658 139.936 188.105 144.745 187.103 149.356L182.865 148.437C183.676 144.704 183.312 140.805 181.822 137.287L185.812 135.59Z" fill="#9CC3DE"/>
<path d="M216.075 121.634C204.569 121.634 195.099 130.773 194.156 142.361C194.106 142.99 194.073 143.628 194.073 144.265C194.073 144.903 194.106 145.54 194.156 146.169C194.354 148.611 194.934 150.937 195.828 153.098C199.18 161.201 206.986 166.896 216.075 166.896C225.164 166.896 232.978 161.201 236.33 153.098H231.397C228.276 159.033 223.152 162.733 216.075 162.733C206.779 162.733 198.319 154.496 198.319 146.169H237.994C238.044 145.54 238.077 144.903 238.077 144.265C238.077 131.782 228.21 121.634 216.075 121.634ZM198.319 142.361C199.271 133.877 206.481 125.798 216.075 125.798C225.669 125.798 232.316 133.761 233.483 142.361H198.319Z" fill="#010101"/>
<path d="M134.672 121.998H115.443L113.498 125.806H130.392V151.988C130.392 155.763 127.114 162.567 117.206 162.567C109.615 162.567 105.758 158.445 103.953 152.733H99.1523C101.983 161.698 107.571 166.333 117.206 166.532C129.118 166.772 134.68 159.281 134.68 151.74V121.998H134.672Z" fill="#010101"/>
<path d="M259.834 188.127L252.826 199.599L260.41 211.695H254.41L247.114 199.599L253.834 188.127H259.834ZM242.026 188.127L248.794 199.599L241.546 211.695H235.45L243.034 199.599L236.026 188.127H242.026ZM251.194 197.535V201.423H244.762V197.535H251.194Z" fill="#010101"/>
<path d="M223.289 187.551C226.169 187.551 228.457 187.951 230.153 188.751C231.881 189.551 233.113 190.863 233.849 192.687C234.617 194.511 235.001 196.927 235.001 199.935C235.001 202.943 234.617 205.359 233.849 207.183C233.113 208.975 231.881 210.287 230.153 211.119C228.457 211.919 226.169 212.319 223.289 212.319C220.473 212.319 218.201 211.919 216.473 211.119C214.777 210.287 213.545 208.975 212.777 207.183C212.009 205.359 211.625 202.943 211.625 199.935C211.625 196.927 212.009 194.511 212.777 192.687C213.545 190.863 214.777 189.551 216.473 188.751C218.201 187.951 220.473 187.551 223.289 187.551ZM223.289 191.967C221.881 191.967 220.761 192.207 219.929 192.687C219.129 193.135 218.553 193.935 218.201 195.087C217.849 196.239 217.673 197.855 217.673 199.935C217.673 202.015 217.849 203.631 218.201 204.783C218.553 205.935 219.129 206.735 219.929 207.183C220.761 207.631 221.881 207.855 223.289 207.855C224.729 207.855 225.865 207.631 226.697 207.183C227.529 206.735 228.105 205.935 228.425 204.783C228.777 203.631 228.953 202.015 228.953 199.935C228.953 197.855 228.777 196.239 228.425 195.087C228.105 193.935 227.529 193.135 226.697 192.687C225.865 192.207 224.729 191.967 223.289 191.967Z" fill="#010101"/>
<path d="M200.441 187.551C203.449 187.551 205.641 188.495 207.017 190.383C208.393 192.271 209.081 195.407 209.081 199.791C209.081 201.679 208.905 203.391 208.553 204.927C208.233 206.463 207.657 207.791 206.825 208.911C206.025 209.999 204.905 210.831 203.465 211.407C202.025 211.983 200.185 212.271 197.945 212.271C197.145 212.271 196.233 212.239 195.209 212.175C194.185 212.111 193.145 211.999 192.089 211.839C191.033 211.679 190.009 211.503 189.017 211.311C188.057 211.087 187.193 210.815 186.425 210.495L191.081 206.943C191.785 207.167 192.521 207.359 193.289 207.519C194.089 207.647 194.873 207.743 195.641 207.807C196.441 207.839 197.177 207.855 197.849 207.855C199.129 207.823 200.137 207.567 200.873 207.087C201.641 206.607 202.201 205.791 202.553 204.639C202.905 203.455 203.081 201.839 203.081 199.791C203.081 197.871 202.937 196.367 202.649 195.279C202.393 194.159 201.913 193.375 201.209 192.927C200.505 192.479 199.497 192.255 198.185 192.255C197.033 192.255 195.961 192.527 194.969 193.071C194.009 193.615 192.889 194.351 191.609 195.279L191.225 192.159C192.089 191.231 193.001 190.415 193.961 189.711C194.953 189.007 195.993 188.479 197.081 188.127C198.201 187.743 199.321 187.551 200.441 187.551ZM192.233 178.095L192.281 186.255C192.281 187.279 192.233 188.271 192.137 189.231C192.073 190.159 191.913 191.071 191.657 191.967L192.233 192.639V210.783L186.425 210.495V178.095H192.233Z" fill="#010101"/>
<path d="M168.238 187.551C169.838 187.551 171.406 187.775 172.942 188.223C174.478 188.639 175.87 189.343 177.118 190.335L176.734 193.263C175.486 192.911 174.366 192.607 173.374 192.351C172.382 192.095 171.278 191.967 170.062 191.967C168.91 191.967 167.982 192.175 167.278 192.591C166.606 192.975 166.094 193.727 165.742 194.847C165.422 195.967 165.262 197.599 165.262 199.743C165.262 201.791 165.422 203.375 165.742 204.495C166.062 205.583 166.558 206.351 167.23 206.799C167.934 207.215 168.814 207.423 169.87 207.423C170.734 207.423 171.502 207.327 172.174 207.135C172.846 206.911 173.534 206.575 174.238 206.127C174.942 205.679 175.758 205.135 176.686 204.495L177.166 207.759C176.078 209.007 174.734 210.079 173.134 210.975C171.566 211.839 169.742 212.271 167.662 212.271C164.654 212.271 162.51 211.215 161.23 209.103C159.95 206.959 159.31 203.855 159.31 199.791C159.31 196.687 159.63 194.255 160.27 192.495C160.942 190.703 161.934 189.439 163.246 188.703C164.59 187.935 166.254 187.551 168.238 187.551ZM181.87 178.095V211.695H177.31L176.686 207.471L176.062 206.991V191.247L176.35 190.575C176.222 189.647 176.142 188.719 176.11 187.791C176.078 186.831 176.062 185.855 176.062 184.863V178.095H181.87Z" fill="#010101"/>
<path d="M149.24 187.551C153.624 187.551 155.816 189.711 155.816 194.031V211.695H150.008V195.807C150.008 194.527 149.784 193.647 149.336 193.167C148.888 192.687 148.136 192.447 147.08 192.447C145.896 192.447 144.68 192.719 143.432 193.263C142.184 193.775 140.68 194.527 138.92 195.519L138.68 192.015C140.44 190.575 142.2 189.471 143.96 188.703C145.752 187.935 147.512 187.551 149.24 187.551ZM138.488 188.127L139.064 192.735L139.544 193.407V211.695H133.736V188.127H138.488Z" fill="#010101"/>
<path d="M120.606 187.551C122.494 187.551 124.094 187.807 125.406 188.319C126.718 188.799 127.694 189.631 128.334 190.815C129.006 191.999 129.342 193.631 129.342 195.711V211.695H124.734L123.918 206.607L123.486 205.935V195.663C123.486 194.415 123.198 193.519 122.622 192.975C122.046 192.399 120.942 192.111 119.31 192.111C118.094 192.111 116.558 192.159 114.702 192.255C112.878 192.351 111.038 192.479 109.182 192.639L108.654 188.655C109.774 188.431 111.038 188.239 112.446 188.079C113.854 187.919 115.278 187.791 116.718 187.695C118.158 187.599 119.454 187.551 120.606 187.551ZM126.846 197.199L126.798 200.799H115.998C115.038 200.831 114.35 201.087 113.934 201.567C113.518 202.047 113.31 202.703 113.31 203.535V204.831C113.31 205.791 113.566 206.511 114.078 206.991C114.59 207.471 115.39 207.711 116.478 207.711C117.342 207.711 118.302 207.551 119.358 207.231C120.414 206.879 121.454 206.367 122.478 205.695C123.534 205.023 124.478 204.223 125.31 203.295V206.319C124.99 206.799 124.526 207.375 123.918 208.047C123.31 208.687 122.558 209.327 121.662 209.967C120.798 210.607 119.79 211.135 118.638 211.551C117.518 211.967 116.27 212.175 114.894 212.175C113.486 212.175 112.222 211.935 111.102 211.455C109.982 210.943 109.102 210.207 108.462 209.247C107.822 208.255 107.502 207.039 107.502 205.599V203.103C107.502 201.247 108.11 199.807 109.326 198.783C110.574 197.727 112.27 197.199 114.414 197.199H126.846Z" fill="#010101"/>
<path d="M93.6691 177.951C95.3011 177.983 97.0131 178.079 98.8051 178.239C100.629 178.399 102.405 178.703 104.133 179.151L103.749 183.231C102.373 183.199 100.773 183.167 98.9491 183.135C97.1571 183.071 95.4291 183.039 93.7651 183.039C92.7411 183.039 91.8611 183.071 91.1251 183.135C90.4211 183.199 89.8451 183.359 89.3971 183.615C88.9491 183.871 88.6131 184.271 88.3891 184.815C88.1971 185.327 88.1011 186.047 88.1011 186.975C88.1011 188.415 88.3891 189.439 88.9651 190.047C89.5731 190.655 90.5491 191.135 91.8931 191.487L98.4211 193.407C101.045 194.207 102.853 195.375 103.845 196.911C104.837 198.415 105.333 200.431 105.333 202.959C105.333 204.847 105.109 206.399 104.661 207.615C104.213 208.831 103.525 209.775 102.597 210.447C101.669 211.119 100.453 211.599 98.9491 211.887C97.4451 212.175 95.6371 212.319 93.5251 212.319C92.4371 212.319 90.9331 212.255 89.0131 212.127C87.1251 211.999 84.9651 211.679 82.5331 211.167L82.9171 206.847C84.8051 206.911 86.3891 206.975 87.6691 207.039C88.9491 207.071 90.0531 207.087 90.9811 207.087C91.9091 207.087 92.7731 207.087 93.5731 207.087C95.0451 207.087 96.1971 206.991 97.0291 206.799C97.8611 206.607 98.4371 206.207 98.7571 205.599C99.1091 204.991 99.2851 204.111 99.2851 202.959C99.2851 201.967 99.1571 201.199 98.9011 200.655C98.6771 200.079 98.2931 199.631 97.7491 199.311C97.2051 198.991 96.5011 198.719 95.6371 198.495L88.8691 196.431C86.3731 195.663 84.6131 194.527 83.5891 193.023C82.5971 191.519 82.1011 189.503 82.1011 186.975C82.1011 185.087 82.3251 183.551 82.7731 182.367C83.2211 181.151 83.9091 180.239 84.8371 179.631C85.7651 178.991 86.9491 178.559 88.3891 178.335C89.8611 178.079 91.6211 177.951 93.6691 177.951Z" fill="#010101"/>
</svg>
