<?xml version="1.0" encoding="utf-8"?>
<!-- Generator: Adobe Illustrator 27.0.1, SVG Export Plug-In . SVG Version: 6.00 Build 0)  -->
<svg version="1.1" id="50c3c464-52a7-4dd3-87a5-86fd4f0d743e" guid="50c3c464-52a7-4dd3-87a5-86fd4f0d743e"
	 viewBox="0 0 168.2 168.2">
<g id="Layer_2_00000074415401260863081130000010006073117033134500_">
	<g id="Layer_1-2">
		<path class="st0" fill="#29B34B" d="M62.8,8.7C70.1,6.3,77.2,3.3,84.6,1c7.2,2.5,14.2,5.6,21.5,8c0.1,7.3-0.6,14.5-0.8,21.8
			c7.3,2.6,14.8,4.9,22.3,6.9c-0.7-7.8-0.3-15.6-0.9-23.3c11.5,4.2,23.3,7.5,34.7,11.9c-0.2,30.2-3.4,61.5-17.2,88.8
			c-9.3,18.9-23.8,35.8-42.9,45.3c-5.6,2.8-11.5,5.1-17.6,6.8c-10.6-3.2-20.9-7.9-29.6-14.7C34.7,137.4,21.5,115.3,14.5,92
			C8.1,70.8,8,48.4,6.8,26.5c11.6-4.3,23.2-8.3,34.9-12.4c-0.7,7.6-0.5,15.3-0.9,22.9c7.6-1.7,15.2-3.8,22.6-6.2
			C63.1,23.5,62.9,16.1,62.8,8.7 M21.1,57.4c2.6,18.1,6,36.4,14,53c5,10.8,12.7,20.3,21.4,28.4c7.8,7.2,16.7,13.6,26.7,17.3
			C74.3,125.1,64,94.4,54.9,63.4C63.8,68,72,73.5,80.5,78.6c-3.6-12.1-6.4-24.5-10.5-36.5C53.9,47.8,37.2,51.6,21.1,57.4
			 M104.8,43.2c0.3,25.3-0.3,50.7-0.2,76c-8.2-3.3-15.3-9-23.1-13.1c1.6,16.7,2.5,33.4,4.2,50c17.8-6.8,32.2-20.4,42.2-36.4
			c5.6-8.8,9.1-18.8,12.2-28.8c3.3-11,5.9-22.3,7.5-33.7C133.2,52.6,119.1,47.6,104.8,43.2z"/>
	</g>
</g>
</svg>
