<svg width="200" height="35" viewBox="0 0 200 35" fill="none" xmlns="http://www.w3.org/2000/svg">
<g clip-path="url(#clip0)">
<path d="M23.2309 0.00146484L34.1509 34.1538H28.0079L17.0762 0.00146484H23.2309ZM0 34.1538H6.1445L17.0762 0.00146484H10.9171L0 34.1538ZM59.9213 21.7772C59.9213 28.7055 56.258 34.6457 49.5268 34.6457C45.7656 34.6457 42.8948 32.3689 41.7067 28.9536H41.5608V34.1538H36.2628V0.00146484H41.5579V14.5527H41.7038C42.8919 11.1375 45.7627 8.91027 49.5238 8.91027C56.1091 8.90443 59.9213 14.8475 59.9213 21.7772ZM54.2293 21.7772C54.2293 16.4807 51.9028 12.9181 47.7943 12.9181C43.6377 12.9181 41.3608 16.4807 41.3608 21.7772C41.3608 27.0227 43.6377 30.6364 47.7943 30.6364C51.9028 30.6364 54.2293 27.0227 54.2293 21.7772ZM75.2578 8.90443C71.6441 8.90443 69.071 10.7843 68.0318 14.2491H67.9325V9.40358H62.6856V34.1538H68.0858V19.3019C68.0858 15.2445 69.7204 12.9677 73.0364 12.9677C76.3524 12.9677 77.9856 15.046 77.9856 19.6493V34.1538H83.3858V18.0643C83.3741 12.6203 80.7017 8.90443 75.2578 8.90443ZM110.352 21.7729C110.352 28.4545 105.75 34.6413 98.226 34.6413C90.7022 34.6413 86.1004 28.4618 86.1004 21.7772C86.1004 15.0927 90.7037 8.90443 98.226 8.90443C105.748 8.90443 110.352 15.0956 110.352 21.7772V21.7729ZM104.711 21.7729C104.711 16.4763 102.384 12.9137 98.226 12.9137C94.1175 12.9137 91.7925 16.4763 91.7925 21.7729C91.7925 27.0183 94.1175 30.6321 98.226 30.6321C102.384 30.6364 104.711 27.0227 104.711 21.7772V21.7729ZM156.022 8.90443C152.36 8.90443 149.837 10.7843 148.748 14.2491H148.649C147.659 10.9828 145.085 8.90443 141.026 8.90443C137.463 8.90443 135.137 10.7843 134.098 14.2491H133.998V9.40358H128.744V34.1538H134.144V19.3019C134.144 15.2445 135.629 12.9677 138.994 12.9677C142.205 12.9677 143.795 15.046 143.795 19.6493V34.1538H149.195V19.3019C149.195 15.2445 150.629 12.9677 153.995 12.9677C157.261 12.9677 158.797 15.046 158.797 19.6493V34.1538H164.197V18.0643C164.19 12.6203 161.517 8.90443 156.022 8.90443ZM185.278 9.39921H190.573V34.1538H185.278V28.9536H185.132C183.944 32.3689 181.073 34.6457 177.312 34.6457C170.581 34.6457 166.919 28.7055 166.919 21.7772C166.919 14.849 170.733 8.90443 177.309 8.90443C181.07 8.90443 183.941 11.1316 185.129 14.5469H185.275L185.278 9.39921ZM185.474 21.7772C185.474 16.4807 182.992 12.9181 178.989 12.9181C174.986 12.9181 172.605 16.4807 172.605 21.7772C172.605 27.0227 175.029 30.6364 178.989 30.6364C183.001 30.6364 185.474 27.0227 185.474 21.7772ZM194.231 0.00146484V34.1538H199.631V0.00146484H194.231ZM113.082 34.1538H118.482V13.4143H125.847V9.40504H113.082V34.1538Z" fill="black"/>
</g>
<defs>
<clipPath id="clip0">
<rect width="200" height="34.6457" fill="white"/>
</clipPath>
</defs>
</svg>
