<?xml version="1.0" encoding="utf-8"?>
<!-- Generator: Adobe Illustrator 17.0.0, SVG Export Plug-In . SVG Version: 6.00 Build 0)  -->
<!DOCTYPE svg PUBLIC "-//W3C//DTD SVG 1.1//EN" "http://www.w3.org/Graphics/SVG/1.1/DTD/svg11.dtd">
<svg version="1.1" id="Layer_1" xmlns="http://www.w3.org/2000/svg" xmlns:xlink="http://www.w3.org/1999/xlink" x="0px" y="0px"
	 width="1101px" height="375px" viewBox="0 0 1101 375" enable-background="new 0 0 1101 375" xml:space="preserve">
<g>
	<rect width="1101" height="375"/>
</g>
<rect x="365.613" y="116.842" fill="#FFFFFF" width="15.262" height="68.387"/>
<polygon fill="#FFFFFF" points="464.329,116.841 479.591,116.841 479.591,185.228 464.329,185.228 431.75,142.376 431.75,185.228 
	416.487,185.228 416.487,116.841 430.771,116.841 464.329,160.867 "/>
<polygon fill="#FFFFFF" points="562.163,116.841 562.163,130.245 530.464,130.245 530.464,145.018 560.597,145.018 560.597,158.421 
	530.464,158.421 530.464,185.228 515.202,185.228 515.202,116.841 "/>
<path fill="#FFFFFF" d="M650.314,175.787c-6.915,6.751-15.425,10.127-25.535,10.127c-10.111,0-18.622-3.376-25.535-10.127
	c-6.916-6.751-10.371-15.148-10.371-25.194c0-10.041,3.455-18.441,10.371-25.192c6.913-6.75,15.424-10.125,25.535-10.125
	c10.11,0,18.62,3.375,25.535,10.125c6.913,6.751,10.373,15.151,10.373,25.192C660.687,160.639,657.227,169.036,650.314,175.787
	 M645.129,150.643c0-6.097-1.957-11.299-5.87-15.606c-3.914-4.302-8.724-6.455-14.432-6.455c-5.706,0-10.516,2.153-14.43,6.455
	c-3.913,4.307-5.87,9.509-5.87,15.606c0,6.099,1.957,11.285,5.87,15.556c3.914,4.274,8.724,6.409,14.43,6.409
	c5.708,0,10.518-2.135,14.432-6.409C643.172,161.928,645.129,156.742,645.129,150.643"/>
<path fill="#FFFFFF" d="M707.4,130.49c-1.468,1.207-2.203,2.804-2.203,4.794s0.897,3.57,2.692,4.746
	c1.792,1.172,5.934,2.558,12.425,4.157c6.49,1.599,11.528,3.997,15.114,7.19c3.587,3.197,5.384,7.86,5.384,13.99
	c0,6.133-2.301,11.106-6.899,14.922c-4.598,3.815-10.65,5.724-18.147,5.724c-10.829,0-20.579-4.014-29.256-12.034l9.101-11.155
	c7.369,6.457,14.187,9.685,20.448,9.685c2.804,0,5.004-0.601,6.603-1.808c1.596-1.205,2.396-2.838,2.396-4.892
	c0-2.055-0.847-3.685-2.542-4.892c-1.699-1.205-5.056-2.429-10.079-3.67c-7.958-1.89-13.778-4.353-17.463-7.385
	c-3.686-3.033-5.526-7.794-5.526-14.284c0-6.489,2.329-11.497,6.994-15.019c4.663-3.523,10.485-5.281,17.465-5.281
	c4.565,0,9.13,0.782,13.697,2.345c4.565,1.568,8.543,3.785,11.936,6.653l-7.732,11.154c-5.934-4.498-12.064-6.751-18.393-6.751
	C710.871,128.679,708.867,129.285,707.4,130.49"/>
<polygon fill="#FFFFFF" points="822.014,116.841 822.014,130.44 787.965,130.44 787.965,144.529 818.587,144.529 818.587,157.541 
	787.965,157.541 787.965,171.727 823.088,171.727 823.088,185.228 772.704,185.228 772.704,116.841 "/>
<path fill="#FFFFFF" d="M886.093,171.727c7.502,0,13.632-2.966,18.393-8.903l9.786,10.077c-7.763,8.741-16.911,13.11-27.444,13.11
	s-19.21-3.326-26.025-9.979s-10.225-15.05-10.225-25.192c0-10.141,3.475-18.605,10.421-25.389
	c6.946-6.782,15.441-10.175,25.485-10.175c11.218,0,20.612,4.273,28.179,12.816l-9.492,10.762
	c-4.825-5.999-10.827-9.001-18.002-9.001c-5.739,0-10.647,1.876-14.723,5.627c-4.078,3.751-6.114,8.805-6.114,15.165
	c0,6.359,1.921,11.463,5.773,15.31C875.951,169.804,880.614,171.727,886.093,171.727"/>
<path fill="#FFFFFF" d="M389.843,236.249h9.492v14.99c-4.192,4.678-9.995,7.016-17.41,7.016c-6.206,0-11.418-2.057-15.627-6.166
	c-4.212-4.112-6.316-9.302-6.316-15.568c0-6.266,2.145-11.494,6.438-15.687c4.29-4.19,9.468-6.288,15.534-6.288
	s11.335,1.995,15.809,5.985l-4.897,7.073c-1.894-1.649-3.636-2.79-5.228-3.415c-1.594-0.623-3.317-0.935-5.168-0.935
	c-3.589,0-6.61,1.217-9.071,3.655c-2.457,2.439-3.686,5.653-3.686,9.643s1.178,7.185,3.536,9.581s5.169,3.596,8.433,3.596
	s5.985-0.623,8.161-1.873L389.843,236.249L389.843,236.249z"/>
<polygon fill="#FFFFFF" points="418.195,257.769 418.195,215.513 427.625,215.513 427.625,249.367 445.639,249.367 445.639,257.769 
	"/>
<path fill="#FFFFFF" d="M494.362,251.937c-4.272,4.171-9.531,6.256-15.778,6.256c-6.245,0-11.504-2.085-15.776-6.256
	c-4.273-4.171-6.407-9.361-6.407-15.568c0-6.204,2.134-11.394,6.407-15.565c4.272-4.172,9.531-6.257,15.776-6.257
	c6.247,0,11.506,2.085,15.778,6.257c4.271,4.171,6.409,9.361,6.409,15.565C500.771,242.576,498.633,247.766,494.362,251.937
	 M491.159,236.4c0-3.768-1.21-6.982-3.627-9.643c-2.417-2.658-5.39-3.99-8.917-3.99s-6.498,1.332-8.915,3.99
	c-2.42,2.661-3.627,5.875-3.627,9.643s1.207,6.973,3.627,9.609c2.417,2.642,5.388,3.961,8.915,3.961s6.5-1.319,8.917-3.961
	C489.949,243.373,491.159,240.168,491.159,236.4"/>
<path fill="#FFFFFF" d="M533.655,257.77h-18.498v-42.256h16.444c2.861,0,5.328,0.341,7.404,1.026
	c2.076,0.687,3.637,1.613,4.684,2.783c1.895,2.176,2.843,4.634,2.843,7.373c0,3.307-1.067,5.765-3.203,7.376
	c-0.728,0.565-1.231,0.919-1.513,1.057c-0.281,0.143-0.785,0.375-1.51,0.694c2.62,0.568,4.705,1.747,6.257,3.539
	c1.551,1.795,2.326,4.019,2.326,6.679c0,2.942-1.007,5.543-3.023,7.798C543.53,256.459,539.459,257.77,533.655,257.77
	 M524.588,232.623h4.474c2.62,0,4.565-0.281,5.832-0.849c1.272-0.563,1.906-1.783,1.906-3.656s-0.584-3.114-1.753-3.718
	c-1.17-0.606-3.146-0.909-5.926-0.909h-4.533L524.588,232.623L524.588,232.623z M524.588,249.79h6.469
	c2.699,0,4.724-0.334,6.075-0.997c1.348-0.666,2.024-1.974,2.024-3.928c0-1.957-0.714-3.246-2.146-3.873
	c-1.431-0.623-3.717-0.935-6.86-0.935h-5.562V249.79z"/>
<path fill="#FFFFFF" d="M595.559,257.768l-3.932-9.127h-17.711l-3.93,9.127h-10.034l18.254-42.256h9.13l18.257,42.256H595.559z
	 M582.802,228.088l-5.319,12.273h10.579L582.802,228.088z"/>
<polygon fill="#FFFFFF" points="619.677,257.769 619.677,215.513 629.108,215.513 629.108,249.367 647.121,249.367 647.121,257.769 
	"/>
<path fill="#FFFFFF" d="M186.805,235.549c-2.288,0-4.591-0.16-6.896-0.489c-26.363-3.751-44.764-28.251-41.017-54.609
	c1.813-12.772,8.495-24.07,18.81-31.819c10.316-7.745,23.03-11.012,35.801-9.194c3.701,0.528,6.274,3.954,5.746,7.655
	c-0.527,3.699-3.942,6.281-7.655,5.744c-9.187-1.31-18.338,1.043-25.764,6.617c-7.424,5.577-12.234,13.709-13.54,22.901
	c-2.694,18.97,10.55,36.605,29.525,39.306c9.187,1.303,18.339-1.047,25.762-6.624c7.424-5.577,12.232-13.709,13.537-22.898
	c1.046-7.338-0.233-14.662-3.703-21.181c-1.756-3.3-0.504-7.397,2.797-9.153c3.295-1.757,7.397-0.504,9.151,2.796
	c4.827,9.068,6.61,19.25,5.154,29.444c-1.813,12.767-8.492,24.065-18.808,31.814C207.253,232.212,197.19,235.549,186.805,235.549"/>
<path fill="#FFFFFF" d="M240.121,230.143c-1.114,0-2.236-0.329-3.219-1.014c-2.556-1.78-3.183-5.295-1.403-7.851
	c10.883-15.613,13.668-35.646,7.45-53.588c-10.746-31.018-44.723-47.517-75.74-36.769c-10.564,3.66-19.836,10.172-26.819,18.832
	c-1.956,2.422-5.507,2.801-7.929,0.849c-2.424-1.954-2.804-5.505-0.85-7.929c8.309-10.306,19.343-18.054,31.907-22.407
	c36.894-12.781,77.307,6.837,90.088,43.733c7.395,21.34,4.085,45.164-8.856,63.729C243.655,229.298,241.903,230.143,240.121,230.143
	"/>
<path fill="#FFFFFF" d="M186.564,255.77c-13.143,0-26.017-3.797-37.287-11.141c-15.344-9.996-25.872-25.371-29.652-43.287
	c-1.954-9.251-1.992-18.605-0.119-27.807c0.375-1.83,2.157-3.004,3.992-2.639c1.83,0.375,3.011,2.16,2.639,3.99
	c-1.689,8.29-1.653,16.718,0.108,25.058c3.405,16.15,12.895,30.007,26.723,39.017c13.826,9.008,30.336,12.101,46.484,8.693
	c5.605-1.183,10.989-3.116,15.995-5.748c1.656-0.866,3.699-0.229,4.57,1.422c0.868,1.654,0.231,3.699-1.422,4.567
	c-5.56,2.921-11.531,5.066-17.747,6.376C196.095,255.274,191.31,255.77,186.564,255.77"/>
<path fill="#FF0000" d="M186.508,280.553c-17.892,0-35.414-5.169-50.755-15.165c-20.885-13.611-35.219-34.538-40.364-58.935
	c-5.149-24.387-0.489-49.326,13.12-70.213c13.611-20.884,34.541-35.221,58.935-40.365c30.375-6.419,61.856,2.667,84.213,24.292
	c1.792,1.732,1.84,4.588,0.108,6.378c-1.735,1.79-4.592,1.837-6.381,0.107c-20.195-19.536-48.634-27.74-76.076-21.948
	c-22.037,4.646-40.943,17.596-53.24,36.464c-12.291,18.868-16.503,41.392-11.852,63.424c4.649,22.037,17.599,40.943,36.462,53.237
	c18.866,12.294,41.382,16.503,63.429,11.852c38.783-8.175,66.299-41.525,66.91-81.096c0.036-2.468,2.047-4.441,4.507-4.441
	c0.024,0,0.048,0,0.072,0c2.491,0.038,4.479,2.09,4.441,4.582c-0.676,43.811-31.136,80.733-74.069,89.784
	C199.489,279.878,192.975,280.553,186.508,280.553"/>
<path fill="#FFFFFF" d="M242.297,291.845c-2.358,0-4.648-1.236-5.894-3.434c-1.842-3.252-0.699-7.38,2.553-9.225
	c43.428-24.597,63.756-76.968,48.338-124.521c-17.973-55.44-77.7-85.919-133.145-67.946c-42.637,13.828-72.009,53.201-73.093,97.979
	c-0.09,3.737-3.219,6.746-6.929,6.6c-3.737-0.09-6.691-3.192-6.601-6.927c1.222-50.512,34.355-94.929,82.45-110.526
	c62.536-20.278,129.916,14.105,150.192,76.646c17.393,53.643-5.545,112.719-54.54,140.474
	C244.574,291.561,243.428,291.845,242.297,291.845"/>
<path fill="#FFFFFF" d="M186.25,303.045c-18.711,0-37.259-4.574-54.222-13.58c-26.915-14.294-46.823-38.161-56.06-67.204
	c-1.408-4.426-2.568-8.994-3.442-13.573c-0.35-1.837,0.852-3.608,2.687-3.958c1.838-0.337,3.606,0.854,3.957,2.686
	c0.825,4.317,1.916,8.624,3.243,12.795c8.698,27.349,27.444,49.82,52.788,63.279c25.304,13.434,54.359,16.398,81.815,8.349
	c0.799-0.234,1.603-0.479,2.398-0.735c1.778-0.568,3.682,0.406,4.255,2.186c0.57,1.78-0.408,3.684-2.188,4.255
	c-0.848,0.274-1.707,0.534-2.561,0.785C208.168,301.484,197.181,303.045,186.25,303.045"/>
</svg>
