<svg width="75" height="75" fill="none" version="1.1" viewBox="0 0 75 75" xmlns="http://www.w3.org/2000/svg">
 <g transform="matrix(.25891 0 0 .25891 20.821 13.495)" fill="#000">
  <g transform="translate(2.4385 .81283)">
   <g fill="#000">
    <path d="m60.48 141.08c-2.288 0-4.591-0.16-6.896-0.489-26.363-3.751-44.764-28.251-41.017-54.609 1.813-12.772 8.495-24.07 18.81-31.819 10.316-7.745 23.03-11.012 35.801-9.194 3.701 0.528 6.274 3.954 5.746 7.655-0.527 3.699-3.942 6.281-7.655 5.744-9.187-1.31-18.338 1.043-25.764 6.617-7.424 5.577-12.234 13.709-13.54 22.901-2.694 18.97 10.55 36.605 29.525 39.306 9.187 1.303 18.339-1.047 25.762-6.624 7.424-5.577 12.232-13.709 13.537-22.898 1.046-7.338-0.233-14.662-3.703-21.181-1.756-3.3-0.504-7.397 2.797-9.153 3.295-1.757 7.397-0.504 9.151 2.796 4.827 9.068 6.61 19.25 5.154 29.444-1.813 12.767-8.492 24.065-18.808 31.814-8.452 6.353-18.515 9.69-28.9 9.69"/>
    <path d="m113.8 135.68c-1.114 0-2.236-0.329-3.219-1.014-2.556-1.78-3.183-5.295-1.403-7.851 10.883-15.613 13.668-35.646 7.45-53.588-10.746-31.018-44.723-47.517-75.74-36.769-10.564 3.66-19.836 10.172-26.819 18.832-1.956 2.422-5.507 2.801-7.929 0.849-2.424-1.954-2.804-5.505-0.85-7.929 8.309-10.306 19.343-18.054 31.907-22.407 36.894-12.781 77.307 6.837 90.088 43.733 7.395 21.34 4.085 45.164-8.856 63.729-1.095 1.57-2.847 2.415-4.629 2.415"/>
    <path d="m60.239 161.3c-13.143 0-26.017-3.797-37.287-11.141-15.344-9.996-25.872-25.371-29.652-43.287-1.954-9.251-1.992-18.605-0.119-27.807 0.375-1.83 2.157-3.004 3.992-2.639 1.83 0.375 3.011 2.16 2.639 3.99-1.689 8.29-1.653 16.718 0.108 25.058 3.405 16.15 12.895 30.007 26.723 39.017 13.826 9.008 30.336 12.101 46.484 8.693 5.605-1.183 10.989-3.116 15.995-5.748 1.656-0.866 3.699-0.229 4.57 1.422 0.868 1.654 0.231 3.699-1.422 4.567-5.56 2.921-11.531 5.066-17.747 6.376-4.753 1.003-9.538 1.499-14.284 1.499"/>
    <path d="m60.183 186.09c-17.892 0-35.414-5.169-50.755-15.165-20.885-13.611-35.219-34.538-40.364-58.935-5.149-24.387-0.489-49.326 13.12-70.213 13.611-20.884 34.541-35.221 58.935-40.365 30.375-6.419 61.856 2.667 84.213 24.292 1.792 1.732 1.84 4.588 0.108 6.378-1.735 1.79-4.592 1.837-6.381 0.107-20.195-19.536-48.634-27.74-76.076-21.948-22.037 4.646-40.943 17.596-53.24 36.464-12.291 18.868-16.503 41.392-11.852 63.424 4.649 22.037 17.599 40.943 36.462 53.237 18.866 12.294 41.382 16.503 63.429 11.852 38.783-8.175 66.299-41.525 66.91-81.096 0.036-2.468 2.047-4.441 4.507-4.441h0.072c2.491 0.038 4.479 2.09 4.441 4.582-0.676 43.811-31.136 80.733-74.069 89.784-6.479 1.368-12.993 2.043-19.46 2.043"/>
    <path d="m115.97 197.38c-2.358 0-4.648-1.236-5.894-3.434-1.842-3.252-0.699-7.38 2.553-9.225 43.428-24.597 63.756-76.968 48.338-124.52-17.973-55.44-77.7-85.919-133.14-67.946-42.637 13.828-72.009 53.201-73.093 97.979-0.09 3.737-3.219 6.746-6.929 6.6-3.737-0.09-6.691-3.192-6.601-6.927 1.222-50.512 34.355-94.929 82.45-110.53 62.536-20.278 129.92 14.105 150.19 76.646 17.393 53.643-5.545 112.72-54.54 140.47-1.054 0.596-2.2 0.88-3.331 0.88"/>
    <path d="m59.925 208.58c-18.711 0-37.259-4.574-54.222-13.58-26.915-14.294-46.823-38.161-56.06-67.204-1.408-4.426-2.568-8.994-3.442-13.573-0.35-1.837 0.852-3.608 2.687-3.958 1.838-0.337 3.606 0.854 3.957 2.686 0.825 4.317 1.916 8.624 3.243 12.795 8.698 27.349 27.444 49.82 52.788 63.279 25.304 13.434 54.359 16.398 81.815 8.349 0.799-0.234 1.603-0.479 2.398-0.735 1.778-0.568 3.682 0.406 4.255 2.186 0.57 1.78-0.408 3.684-2.188 4.255-0.848 0.274-1.707 0.534-2.561 0.785-10.752 3.154-21.739 4.715-32.67 4.715"/>
    <path d="m60.878 140.78c-2.288 0-4.591-0.16-6.896-0.489-26.363-3.751-44.764-28.251-41.017-54.609 1.813-12.772 8.495-24.07 18.81-31.819 10.316-7.745 23.03-11.012 35.801-9.194 3.701 0.528 6.274 3.954 5.746 7.655-0.527 3.699-3.942 6.281-7.655 5.744-9.187-1.31-18.338 1.043-25.764 6.617-7.424 5.577-12.234 13.709-13.54 22.901-2.694 18.97 10.55 36.605 29.525 39.306 9.187 1.303 18.339-1.048 25.762-6.624 7.424-5.577 12.232-13.709 13.537-22.899 1.046-7.337-0.233-14.661-3.703-21.18-1.756-3.3-0.504-7.397 2.797-9.153 3.295-1.757 7.397-0.504 9.151 2.796 4.827 9.068 6.61 19.25 5.154 29.444-1.813 12.766-8.493 24.065-18.808 31.813-8.452 6.354-18.515 9.691-28.9 9.691"/>
    <path d="m114.19 135.37c-1.114 0-2.236-0.329-3.219-1.014-2.556-1.78-3.183-5.295-1.403-7.851 10.883-15.613 13.668-35.646 7.45-53.588-10.746-31.018-44.723-47.517-75.74-36.769-10.564 3.66-19.836 10.172-26.819 18.832-1.956 2.422-5.507 2.801-7.929 0.849-2.425-1.954-2.804-5.505-0.85-7.929 8.309-10.306 19.343-18.054 31.907-22.407 36.893-12.781 77.307 6.837 90.088 43.733 7.395 21.34 4.085 45.164-8.856 63.729-1.095 1.57-2.847 2.415-4.629 2.415"/>
    <path d="m60.637 161c-13.143 0-26.017-3.797-37.288-11.141-15.343-9.996-25.871-25.371-29.651-43.287-1.954-9.251-1.992-18.605-0.119-27.807 0.374-1.83 2.157-3.004 3.992-2.639 1.83 0.375 3.011 2.16 2.639 3.99-1.689 8.29-1.654 16.718 0.107 25.058 3.406 16.15 12.896 30.007 26.724 39.017 13.826 9.008 30.336 12.101 46.484 8.693 5.605-1.183 10.989-3.116 15.995-5.748 1.656-0.866 3.699-0.229 4.57 1.422 0.868 1.654 0.231 3.699-1.422 4.567-5.56 2.921-11.531 5.066-17.747 6.376-4.753 1.003-9.538 1.499-14.284 1.499"/>
   </g>
   <path d="m60.581 185.78c-17.892 0-35.414-5.169-50.755-15.165-20.885-13.611-35.219-34.538-40.364-58.935-5.149-24.387-0.489-49.326 13.12-70.213 13.611-20.884 34.541-35.221 58.935-40.365 30.375-6.419 61.856 2.667 84.213 24.292 1.792 1.732 1.84 4.588 0.108 6.378-1.735 1.79-4.592 1.837-6.381 0.107-20.195-19.536-48.634-27.74-76.076-21.948-22.037 4.646-40.943 17.596-53.24 36.464-12.291 18.868-16.503 41.392-11.852 63.424 4.649 22.037 17.599 40.943 36.462 53.237 18.866 12.294 41.382 16.503 63.429 11.852 38.783-8.175 66.299-41.525 66.91-81.096 0.036-2.468 2.047-4.441 4.507-4.441h0.072c2.491 0.038 4.479 2.09 4.441 4.582-0.675 43.811-31.136 80.733-74.069 89.784-6.479 1.368-12.993 2.043-19.46 2.043" fill="#f00"/>
   <path d="m116.37 197.07c-2.358 0-4.648-1.236-5.894-3.434-1.842-3.252-0.699-7.38 2.553-9.225 43.428-24.597 63.755-76.968 48.338-124.52-17.973-55.44-77.7-85.919-133.14-67.946-42.637 13.828-72.009 53.201-73.093 97.979-0.09 3.737-3.219 6.746-6.929 6.6-3.737-0.09-6.691-3.193-6.601-6.927 1.222-50.512 34.355-94.929 82.45-110.53 62.536-20.278 129.92 14.105 150.19 76.646 17.393 53.643-5.545 112.72-54.54 140.47-1.054 0.596-2.2 0.88-3.331 0.88" fill="#000"/>
   <path d="m60.323 208.27c-18.711 0-37.259-4.574-54.222-13.58-26.915-14.294-46.823-38.161-56.06-67.204-1.408-4.426-2.568-8.994-3.442-13.573-0.35-1.837 0.852-3.608 2.687-3.959 1.838-0.336 3.606 0.855 3.957 2.687 0.825 4.317 1.916 8.624 3.243 12.795 8.698 27.349 27.444 49.82 52.788 63.279 25.304 13.434 54.359 16.398 81.815 8.349 0.799-0.234 1.603-0.479 2.398-0.735 1.778-0.568 3.682 0.406 4.255 2.186 0.57 1.78-0.408 3.684-2.188 4.255-0.848 0.274-1.707 0.534-2.561 0.785-10.752 3.154-21.739 4.715-32.67 4.715" fill="#000"/>
  </g>
 </g>
</svg>
