<?xml version="1.0" encoding="UTF-8" standalone="no"?>
<svg
   xmlns:dc="http://purl.org/dc/elements/1.1/"
   xmlns:cc="http://creativecommons.org/ns#"
   xmlns:rdf="http://www.w3.org/1999/02/22-rdf-syntax-ns#"
   xmlns:svg="http://www.w3.org/2000/svg"
   xmlns="http://www.w3.org/2000/svg"
   width="75"
   height="75"
   viewBox="0 0 75 75"
   fill="none"
   version="1.1"
   id="svg946">
  <metadata
     id="metadata952">
    <rdf:RDF>
      <cc:Work
         rdf:about="">
        <dc:format>image/svg+xml</dc:format>
        <dc:type
           rdf:resource="http://purl.org/dc/dcmitype/StillImage" />
        <dc:title></dc:title>
      </cc:Work>
    </rdf:RDF>
  </metadata>
  <defs
     id="defs950" />
  <g
     id="g1757"
     transform="matrix(0.25890868,0,0,0.25890868,20.820569,13.495324)"
     style="fill:#000000;fill-opacity:1">
    <g
       id="g1771"
       transform="translate(2.4384866,0.81282886)">
      <path
         fill="#ffffff"
         d="m 60.480344,141.08208 c -2.288,0 -4.591,-0.16 -6.896,-0.489 -26.362997,-3.751 -44.7639967,-28.251 -41.016997,-54.608996 1.813,-12.772001 8.495,-24.070001 18.81,-31.819001 10.315997,-7.745 23.029997,-11.012 35.800997,-9.194 3.701,0.528 6.274,3.954 5.746,7.655 -0.527,3.699 -3.942,6.281 -7.655,5.744 -9.187,-1.31 -18.338,1.043 -25.763997,6.617 -7.424,5.577 -12.234,13.709001 -13.54,22.901001 -2.694,18.969996 10.55,36.604996 29.524997,39.305996 9.187,1.303 18.339,-1.047 25.762,-6.624 7.424,-5.577 12.232,-13.709 13.537,-22.897996 1.046,-7.338 -0.233,-14.662 -3.703,-21.181 -1.756,-3.300001 -0.504,-7.397001 2.797,-9.153001 3.295,-1.757 7.396996,-0.504 9.150996,2.796 4.827,9.068001 6.61,19.250001 5.154,29.444001 -1.813,12.766996 -8.491996,24.064996 -18.807996,31.813996 -8.452,6.353 -18.515,9.69 -28.9,9.69"
         id="path859"
         style="fill:#000000;fill-opacity:1" />
      <path
         fill="#ffffff"
         d="m 113.79634,135.67608 c -1.114,0 -2.236,-0.329 -3.219,-1.014 -2.556,-1.78 -3.183,-5.295 -1.403,-7.851 10.883,-15.613 13.668,-35.645996 7.45,-53.587997 -10.746,-31.018 -44.722996,-47.517 -75.739993,-36.769 -10.564,3.66 -19.836,10.172 -26.819,18.832 -1.956,2.422 -5.5069997,2.801 -7.9289997,0.849 -2.424,-1.954 -2.804,-5.505 -0.85,-7.929 8.3089997,-10.306 19.3429997,-18.054 31.9069997,-22.407 36.893997,-12.781 77.306993,6.837 90.087993,43.733 7.395,21.340001 4.085,45.163997 -8.856,63.728997 -1.095,1.57 -2.847,2.415 -4.629,2.415"
         id="path861"
         style="fill:#000000;fill-opacity:1" />
      <path
         fill="#ffffff"
         d="m 60.239344,161.30308 c -13.143,0 -26.016997,-3.797 -37.286997,-11.141 -15.3439997,-9.996 -25.8719997,-25.371 -29.6519997,-43.287 -1.954,-9.250996 -1.992,-18.604996 -0.119,-27.806996 0.375,-1.83 2.157,-3.004 3.992,-2.639 1.82999996,0.375 3.01099996,2.16 2.63899996,3.99 -1.68899996,8.29 -1.65299996,16.718 0.108,25.057996 3.40500004,16.15 12.89499974,30.007 26.72299974,39.017 13.826,9.008 30.335997,12.101 46.483997,8.693 5.605,-1.183 10.989,-3.116 15.995,-5.748 1.656,-0.866 3.699,-0.229 4.57,1.422 0.868,1.654 0.231,3.699 -1.422,4.567 -5.56,2.921 -11.531,5.066 -17.747,6.376 -4.753,1.003 -9.538,1.499 -14.284,1.499"
         id="path863"
         style="fill:#000000;fill-opacity:1" />
      <path
         fill="#ec2024"
         d="m 60.183344,186.08608 c -17.892,0 -35.413997,-5.169 -50.7549967,-15.165 -20.8850003,-13.611 -35.2190003,-34.538 -40.3640003,-58.935 -5.149,-24.386996 -0.489,-49.325997 13.12,-70.212997 13.6110003,-20.884 34.541,-35.2210002 58.935,-40.3650002 30.374997,-6.419 61.855993,2.667 84.212993,24.2920002 1.792,1.732 1.84,4.588 0.108,6.378 -1.735,1.79 -4.592,1.837 -6.381,0.107 -20.194996,-19.536 -48.633996,-27.7400002 -76.075996,-21.948 -22.036997,4.646 -40.9429967,17.596 -53.239997,36.464 -12.291,18.868 -16.503,41.392001 -11.852,63.423997 4.649,22.037 17.5990003,40.943 36.462,53.237 18.866,12.294 41.381997,16.503 63.428997,11.852 38.782996,-8.175 66.298996,-41.525 66.909996,-81.095996 0.036,-2.468 2.047,-4.441 4.507,-4.441 0.024,0 0.048,0 0.072,0 2.491,0.038 4.479,2.09 4.441,4.582 -0.676,43.810996 -31.136,80.732996 -74.068996,89.783996 -6.479,1.368 -12.993,2.043 -19.46,2.043"
         id="path865"
         style="fill:#000000;fill-opacity:1" />
      <path
         fill="#ffffff"
         d="m 115.97234,197.37808 c -2.358,0 -4.648,-1.236 -5.894,-3.434 -1.842,-3.252 -0.699,-7.38 2.553,-9.225 43.428,-24.597 63.756,-76.968 48.338,-124.520997 -17.973,-55.4400002 -77.699996,-85.919 -133.144993,-67.9460002 -42.637,13.828 -72.009,53.2010002 -73.093,97.9790012 -0.09,3.737 -3.219,6.746 -6.929,6.6 -3.737,-0.09 -6.691,-3.192 -6.601,-6.927 1.222,-50.512001 34.355,-94.9290012 82.45,-110.526001 62.535997,-20.278001 129.915993,14.1049998 150.191993,76.646 17.393,53.642997 -5.545,112.718997 -54.54,140.473997 -1.054,0.596 -2.2,0.88 -3.331,0.88"
         id="path867"
         style="fill:#000000;fill-opacity:1" />
      <path
         fill="#ffffff"
         d="m 59.925344,208.57808 c -18.711,0 -37.258997,-4.574 -54.2219967,-13.58 -26.9150003,-14.294 -46.8230003,-38.161 -56.0600003,-67.204 -1.408,-4.426 -2.568,-8.994 -3.442,-13.573 -0.35,-1.837 0.852,-3.608 2.687,-3.958 1.838,-0.337 3.606,0.854 3.957,2.686 0.825,4.317 1.916,8.624 3.243,12.795 8.698,27.349 27.444,49.82 52.7880003,63.279 25.3039997,13.434 54.3589967,16.398 81.8149967,8.349 0.799,-0.234 1.603,-0.479 2.398,-0.735 1.778,-0.568 3.682,0.406 4.255,2.186 0.57,1.78 -0.408,3.684 -2.188,4.255 -0.848,0.274 -1.707,0.534 -2.561,0.785 -10.752,3.154 -21.739,4.715 -32.67,4.715"
         id="path869"
         style="fill:#000000;fill-opacity:1" />
      <path
         d="m 60.878344,140.77708 c -2.288,0 -4.591,-0.16 -6.896,-0.489 -26.362997,-3.751 -44.7639967,-28.251 -41.016997,-54.608996 1.813,-12.772001 8.495,-24.070001 18.81,-31.819001 10.315997,-7.745 23.029997,-11.012 35.800997,-9.194 3.701,0.528 6.274,3.954 5.746,7.655 -0.527,3.699 -3.942,6.281 -7.655,5.744 -9.187,-1.31 -18.338,1.043 -25.763997,6.617 -7.424,5.577 -12.234,13.709001 -13.54,22.901001 -2.694,18.969996 10.55,36.604996 29.524997,39.305996 9.187,1.303 18.339,-1.048 25.762,-6.624 7.424,-5.577 12.232,-13.709 13.537,-22.898996 1.046,-7.337 -0.233,-14.661 -3.703,-21.18 -1.756,-3.300001 -0.504,-7.397001 2.797,-9.153001 3.295,-1.757 7.396996,-0.504 9.150996,2.796 4.827,9.068001 6.61,19.250001 5.154,29.444001 -1.813,12.765996 -8.493,24.064996 -18.807996,31.812996 -8.452,6.354 -18.515,9.691 -28.9,9.691"
         id="path897"
         style="fill:#000000;fill-opacity:1" />
      <path
         d="m 114.19434,135.37108 c -1.114,0 -2.236,-0.329 -3.219,-1.014 -2.556,-1.78 -3.183,-5.295 -1.403,-7.851 10.883,-15.613 13.668,-35.645996 7.45,-53.587997 -10.746,-31.018 -44.722996,-47.517 -75.739996,-36.769 -10.563997,3.66 -19.835997,10.172 -26.818997,18.832 -1.956,2.422 -5.5069997,2.801 -7.9289997,0.849 -2.425,-1.954 -2.804,-5.505 -0.85,-7.929 8.3089997,-10.306 19.3429997,-18.054 31.9069997,-22.407 36.892997,-12.781 77.306993,6.837 90.087993,43.733 7.395,21.340001 4.085,45.163997 -8.856,63.728997 -1.095,1.57 -2.847,2.415 -4.629,2.415"
         id="path899"
         style="fill:#000000;fill-opacity:1" />
      <path
         d="m 60.637344,160.99808 c -13.143,0 -26.016997,-3.797 -37.287997,-11.141 -15.3429997,-9.996 -25.8709997,-25.371 -29.6509997,-43.287 -1.954,-9.250996 -1.992,-18.604996 -0.119,-27.806996 0.374,-1.83 2.157,-3.004 3.992,-2.639 1.82999996,0.375 3.01099996,2.16 2.63899996,3.99 -1.68899996,8.29 -1.65399996,16.718 0.107,25.057996 3.40600004,16.15 12.89599974,30.007 26.72399974,39.017 13.826,9.008 30.335997,12.101 46.483997,8.693 5.605,-1.183 10.989,-3.116 15.995,-5.748 1.656,-0.866 3.699,-0.229 4.57,1.422 0.868,1.654 0.231,3.699 -1.422,4.567 -5.56,2.921 -11.531,5.066 -17.747,6.376 -4.753,1.003 -9.538,1.499 -14.284,1.499"
         id="path901"
         style="fill:#000000;fill-opacity:1" />
      <path
         fill="#ff0000"
         d="m 60.581344,185.78108 c -17.892,0 -35.413997,-5.169 -50.7549967,-15.165 -20.8850003,-13.611 -35.2190003,-34.538 -40.3640003,-58.935 -5.149,-24.386996 -0.489,-49.325997 13.12,-70.212997 13.6110003,-20.884 34.541,-35.2210002 58.934997,-40.3650002 30.375,-6.419 61.855996,2.667 84.212996,24.2920002 1.792,1.732 1.84,4.588 0.108,6.378 -1.735,1.79 -4.592,1.837 -6.381,0.107 C 99.262344,12.344083 70.823344,4.1400828 43.381344,9.9320828 21.344347,14.578083 2.4383473,27.528083 -9.8586527,46.396083 c -12.2910003,18.868 -16.5030003,41.392001 -11.8520003,63.423997 4.649,22.037 17.5990003,40.943 36.462,53.237 18.866,12.294 41.381997,16.503 63.428997,11.852 38.782996,-8.175 66.298996,-41.525 66.909996,-81.095996 0.036,-2.468 2.047,-4.441 4.507,-4.441 0.024,0 0.048,0 0.072,0 2.491,0.038 4.479,2.09 4.441,4.582 -0.675,43.810996 -31.136,80.732996 -74.068996,89.783996 -6.479,1.368 -12.993,2.043 -19.46,2.043"
         id="path903"
         style="fill:#ff0000;fill-opacity:1" />
      <path
         d="m 116.37034,197.07308 c -2.358,0 -4.648,-1.236 -5.894,-3.434 -1.842,-3.252 -0.699,-7.38 2.553,-9.225 43.428,-24.597 63.755,-76.968 48.338,-124.520997 -17.973,-55.4400002 -77.699996,-85.919 -133.144993,-67.9460002 -42.637,13.828 -72.009,53.2010002 -73.093,97.9790012 -0.09,3.737 -3.219,6.746 -6.929,6.6 -3.737,-0.09 -6.691,-3.193 -6.601,-6.927 1.222,-50.512001 34.355,-94.9290012 82.45,-110.526001 62.535997,-20.278001 129.915993,14.1049998 150.191993,76.646 17.393,53.642997 -5.545,112.718997 -54.54,140.473997 -1.054,0.596 -2.2,0.88 -3.331,0.88"
         id="path905"
         style="fill:#000000;fill-opacity:1" />
      <path
         d="m 60.323344,208.27308 c -18.711,0 -37.258997,-4.574 -54.2219967,-13.58 -26.9150003,-14.294 -46.8230003,-38.161 -56.0600003,-67.204 -1.408,-4.426 -2.568,-8.994 -3.442,-13.573 -0.35,-1.837 0.852,-3.608 2.687,-3.959 1.838,-0.336 3.606,0.855 3.957,2.687 0.825,4.317 1.916,8.624 3.243,12.795 8.698,27.349 27.444,49.82 52.7880003,63.279 25.3039997,13.434 54.3589967,16.398 81.8149967,8.349 0.799,-0.234 1.603,-0.479 2.398,-0.735 1.778,-0.568 3.682,0.406 4.255,2.186 0.57,1.78 -0.408,3.684 -2.188,4.255 -0.848,0.274 -1.707,0.534 -2.561,0.785 -10.752,3.154 -21.739,4.715 -32.67,4.715"
         id="path907"
         style="fill:#000000;fill-opacity:1" />
    </g>
  </g>
</svg>
