<?xml version="1.0" encoding="UTF-8"?>
<svg xmlns="http://www.w3.org/2000/svg" xmlns:xlink="http://www.w3.org/1999/xlink" width="89pt" height="38pt" viewBox="0 0 89 38" version="1.1">
<g id="surface1">
<path style=" stroke:none;fill-rule:nonzero;fill:rgb(90.196078%,7.45098%,7.45098%);fill-opacity:1;" d="M 13.300781 3.710938 C 7.960938 5.441406 3.757812 9.796875 2.175781 15.238281 C -0.148438 23.105469 4.5 32.210938 12.3125 35.179688 C 15.96875 36.566406 21.855469 36.316406 25.316406 34.683594 C 27.789062 33.496094 31.148438 30.527344 32.140625 28.699219 C 32.683594 27.707031 32.632812 27.660156 31.644531 28.203125 C 31.050781 28.5 30.410156 29.242188 30.210938 29.785156 C 29.863281 30.726562 29.816406 30.726562 29.519531 29.984375 C 29.121094 28.945312 29.519531 28.054688 30.210938 28.449219 C 30.457031 28.648438 30.804688 28.402344 30.953125 27.957031 C 31.496094 26.570312 30.703125 26.519531 29.269531 27.855469 C 26.007812 30.972656 19.628906 32.0625 14.683594 30.378906 C 11.570312 29.339844 8.257812 26.222656 6.625 22.910156 C 5.042969 19.742188 4.746094 14.992188 5.882812 11.726562 C 6.675781 9.449219 9.296875 6.285156 10.039062 6.777344 C 10.332031 6.976562 10.382812 6.828125 10.136719 6.433594 C 9.839844 5.9375 9.988281 5.839844 10.777344 6.035156 C 11.371094 6.234375 11.769531 6.183594 11.621094 5.9375 C 11.472656 5.738281 11.71875 5.394531 12.164062 5.246094 C 13.300781 4.800781 13.351562 4.847656 13.003906 5.789062 C 12.804688 6.382812 13.054688 6.234375 13.695312 5.441406 C 14.636719 4.355469 14.832031 4.304688 15.625 4.949219 C 16.117188 5.34375 16.367188 5.441406 16.167969 5.144531 C 15.773438 4.453125 16.859375 3.957031 18.589844 3.957031 C 19.382812 3.957031 19.726562 4.15625 19.480469 4.503906 C 19.285156 4.898438 19.480469 4.949219 20.222656 4.699219 C 20.816406 4.503906 21.261719 4.601562 21.261719 4.898438 C 21.261719 5.394531 19.875 5.640625 17.949219 5.589844 C 17.601562 5.542969 17.40625 5.738281 17.554688 5.9375 C 17.699219 6.136719 17.15625 6.433594 16.367188 6.582031 C 15.574219 6.730469 14.585938 7.222656 14.140625 7.667969 C 13.695312 8.113281 13.351562 8.3125 13.351562 8.113281 C 13.351562 7.917969 12.90625 8.214844 12.3125 8.855469 C 11.71875 9.449219 10.925781 9.847656 10.53125 9.699219 C 10.136719 9.550781 9.9375 9.597656 10.136719 9.847656 C 10.285156 10.09375 10.234375 10.390625 10.039062 10.539062 C 9.789062 10.636719 9.9375 10.636719 10.332031 10.539062 C 10.878906 10.390625 10.878906 10.488281 10.382812 11.132812 C 10.039062 11.527344 9.542969 11.726562 9.296875 11.578125 C 9.046875 11.429688 8.851562 11.578125 8.949219 11.925781 C 9.097656 13.308594 8.898438 13.902344 8.308594 13.558594 C 7.960938 13.359375 7.910156 13.410156 8.109375 13.804688 C 8.308594 14.101562 8.257812 14.695312 7.960938 15.042969 C 7.167969 15.980469 6.675781 21.472656 7.269531 22.511719 C 7.664062 23.15625 7.8125 22.511719 8.011719 19.941406 C 8.554688 12.074219 14.089844 6.828125 21.753906 6.777344 C 25.808594 6.777344 28.824219 8.066406 31.644531 10.984375 C 33.574219 12.914062 33.671875 12.964844 32.980469 11.578125 C 31.742188 9.152344 28.132812 5.886719 25.265625 4.550781 C 21.902344 3.019531 16.664062 2.621094 13.300781 3.710938 Z M 23.882812 5.292969 C 23.535156 5.394531 22.941406 5.394531 22.644531 5.292969 C 22.300781 5.144531 22.546875 5.046875 23.238281 5.046875 C 23.929688 5.046875 24.179688 5.144531 23.882812 5.292969 Z M 3.757812 16.082031 C 3.558594 16.773438 3.660156 17.316406 3.90625 17.316406 C 4.152344 17.316406 4.300781 18.308594 4.253906 19.542969 C 4.203125 21.027344 4.402344 21.820312 4.84375 22.019531 C 5.242188 22.167969 5.4375 22.613281 5.289062 22.957031 C 5.140625 23.355469 5.339844 23.800781 5.734375 23.949219 C 6.132812 24.097656 6.429688 24.542969 6.429688 24.886719 C 6.429688 25.285156 6.773438 25.878906 7.167969 26.222656 C 7.566406 26.570312 7.761719 27.015625 7.613281 27.261719 C 7.464844 27.511719 7.515625 27.660156 7.761719 27.609375 C 8.011719 27.511719 9.046875 28.203125 10.136719 29.042969 C 11.570312 30.230469 11.816406 30.628906 11.027344 30.480469 C 9.988281 30.28125 9.742188 31.171875 10.582031 32.011719 C 10.777344 32.210938 10.878906 32.113281 10.777344 31.714844 C 10.679688 31.269531 11.027344 30.972656 11.621094 31.023438 C 14.191406 31.074219 14.882812 31.222656 14.585938 31.667969 C 14.140625 32.359375 20.125 32.507812 23.238281 31.863281 C 24.179688 31.714844 24.328125 31.765625 23.734375 32.160156 C 23.1875 32.507812 23.1875 32.65625 23.632812 32.65625 C 23.980469 32.65625 24.375 32.308594 24.523438 31.914062 C 24.671875 31.519531 25.5625 31.074219 26.503906 30.875 C 27.441406 30.726562 28.035156 30.378906 27.886719 30.132812 C 27.539062 29.539062 28.824219 29.785156 29.269531 30.429688 C 29.667969 30.972656 28.777344 32.160156 27.9375 32.160156 C 27.589844 32.160156 27.046875 32.507812 26.699219 32.902344 C 26.355469 33.300781 25.660156 33.644531 25.167969 33.644531 C 24.625 33.644531 24.226562 33.84375 24.226562 34.042969 C 24.226562 34.636719 23.683594 34.683594 19.035156 34.933594 C 14.535156 35.128906 12.804688 34.832031 13.894531 34.042969 C 14.386719 33.695312 14.238281 33.695312 13.449219 33.894531 C 12.707031 34.089844 11.816406 33.894531 10.976562 33.347656 C 10.234375 32.855469 9.445312 32.507812 9.148438 32.605469 C 8.898438 32.65625 8.800781 32.605469 9 32.410156 C 9.195312 32.210938 8.800781 31.566406 8.207031 30.972656 C 7.566406 30.429688 7.019531 29.6875 6.921875 29.441406 C 6.871094 29.144531 6.722656 28.847656 6.574219 28.699219 C 6.378906 28.550781 6.429688 28.746094 6.625 29.042969 C 6.824219 29.390625 6.773438 29.6875 6.574219 29.6875 C 5.984375 29.6875 4.402344 26.917969 4.796875 26.519531 C 4.945312 26.371094 4.894531 26.222656 4.648438 26.222656 C 3.855469 26.222656 2.917969 23.007812 2.867188 20.335938 C 2.867188 17.761719 3.363281 14.84375 3.808594 14.84375 C 3.957031 14.84375 3.90625 15.386719 3.757812 16.082031 Z M 3.757812 16.082031 "/>
<path style=" stroke:none;fill-rule:nonzero;fill:rgb(90.196078%,7.45098%,7.45098%);fill-opacity:1;" d="M 65.265625 12.566406 C 65.265625 14.199219 65.21875 14.25 63.191406 14.25 C 60.273438 14.300781 59.332031 15.535156 59.332031 19.246094 C 59.332031 20.78125 59.53125 22.265625 59.730469 22.5625 C 60.421875 23.652344 62.398438 24.34375 63.683594 23.949219 C 64.425781 23.75 65.859375 23.652344 66.898438 23.699219 L 68.726562 23.847656 L 68.726562 10.886719 L 66.996094 10.886719 C 65.367188 10.886719 65.265625 10.984375 65.265625 12.566406 Z M 67.097656 17.960938 C 67.097656 21.472656 66.949219 22.613281 66.453125 22.613281 C 66.058594 22.613281 65.957031 22.316406 66.207031 21.820312 C 66.699219 20.78125 66.601562 17.761719 66.058594 16.871094 C 65.710938 16.378906 65.8125 16.277344 66.304688 16.574219 C 66.75 16.824219 66.699219 16.625 66.15625 16.082031 C 65.515625 15.386719 65.464844 15.042969 65.910156 14.300781 C 66.253906 13.753906 66.601562 13.359375 66.75 13.359375 C 66.949219 13.359375 67.046875 15.4375 67.097656 17.960938 Z M 61.609375 16.921875 C 60.667969 17.464844 61.0625 21.226562 62.199219 22.066406 C 62.84375 22.511719 62.84375 22.613281 62.152344 22.613281 C 61.261719 22.613281 60.867188 21.820312 60.519531 19.246094 C 60.371094 18.207031 60.46875 17.269531 60.765625 17.070312 C 61.0625 16.921875 61.210938 16.527344 61.0625 16.277344 C 60.914062 16.03125 61.113281 15.980469 61.609375 16.179688 C 62.347656 16.425781 62.347656 16.527344 61.609375 16.921875 Z M 65.019531 19.097656 C 65.019531 21.175781 64.871094 21.523438 64.03125 21.523438 C 63.238281 21.523438 62.992188 21.128906 62.894531 19.347656 C 62.792969 17.960938 62.941406 17.019531 63.386719 16.773438 C 64.574219 15.980469 65.019531 16.625 65.019531 19.097656 Z M 65.019531 19.097656 "/>
<path style=" stroke:none;fill-rule:nonzero;fill:rgb(90.196078%,7.45098%,7.45098%);fill-opacity:1;" d="M 18.789062 14.199219 C 17.007812 14.546875 16.316406 15.289062 16.316406 16.824219 C 16.316406 18.308594 17.355469 19.445312 19.433594 20.238281 C 21.457031 21.027344 21.015625 21.769531 18.542969 21.769531 C 16.710938 21.769531 16.316406 21.917969 16.316406 22.710938 C 16.316406 23.847656 18.886719 24.441406 21.507812 23.949219 C 23.683594 23.550781 24.328125 22.761719 24.128906 20.683594 C 23.980469 19.296875 23.632812 18.902344 21.902344 18.058594 C 20.71875 17.515625 19.777344 16.921875 19.777344 16.722656 C 19.777344 16.476562 20.667969 16.328125 21.753906 16.328125 C 23.386719 16.328125 23.734375 16.179688 23.734375 15.339844 C 23.734375 14.644531 23.386719 14.347656 22.546875 14.347656 C 21.902344 14.347656 21.0625 14.25 20.667969 14.152344 C 20.320312 14.050781 19.480469 14.101562 18.789062 14.199219 Z M 18.542969 16.574219 C 18.441406 17.269531 18.640625 17.8125 18.9375 17.8125 C 19.183594 17.8125 19.332031 17.910156 19.183594 18.058594 C 18.738281 18.503906 17.40625 17.761719 17.503906 17.167969 C 17.601562 16.527344 18.246094 15.339844 18.492188 15.339844 C 18.589844 15.339844 18.589844 15.882812 18.542969 16.574219 Z M 22.597656 20.386719 C 22.992188 20.878906 22.941406 21.277344 22.398438 22.019531 C 21.65625 22.957031 21.65625 22.957031 21.953125 22.066406 C 22.152344 21.425781 21.902344 20.730469 21.164062 19.890625 C 20.074219 18.753906 20.074219 18.703125 21.0625 19.199219 C 21.605469 19.496094 22.347656 20.039062 22.597656 20.386719 Z M 22.597656 20.386719 "/>
<path style=" stroke:none;fill-rule:nonzero;fill:rgb(90.196078%,7.45098%,7.45098%);fill-opacity:1;" d="M 30.160156 14.25 C 26.550781 14.644531 25.710938 15.636719 25.710938 19.496094 C 25.710938 22.511719 26.945312 23.949219 29.617188 23.949219 C 31.546875 23.996094 31.644531 24.046875 31.644531 25.582031 C 31.644531 27.113281 31.742188 27.214844 33.375 27.214844 L 35.105469 27.214844 L 35.105469 14.449219 L 33.277344 14.300781 C 32.238281 14.199219 30.851562 14.152344 30.160156 14.25 Z M 28.429688 16.675781 C 28.234375 17.464844 27.984375 18.457031 27.886719 19 C 27.789062 19.496094 27.640625 20.039062 27.492188 20.136719 C 27.34375 20.285156 27.738281 20.878906 28.332031 21.472656 C 28.972656 22.019531 29.269531 22.363281 29.023438 22.167969 C 28.777344 22.019531 28.234375 21.96875 27.886719 22.117188 C 27.144531 22.363281 27.046875 21.917969 27.09375 18.800781 C 27.09375 17.863281 27.34375 17.019531 27.640625 16.921875 C 27.9375 16.824219 28.183594 16.425781 28.183594 16.03125 C 28.183594 15.636719 28.332031 15.339844 28.480469 15.339844 C 28.628906 15.339844 28.628906 15.933594 28.429688 16.675781 Z M 33.722656 18.160156 C 33.324219 19.199219 33.175781 19.296875 33.175781 18.554688 C 33.128906 18.011719 32.980469 17.019531 32.832031 16.328125 C 32.535156 15.191406 32.535156 15.140625 33.375 15.933594 C 34.066406 16.574219 34.117188 16.972656 33.722656 18.160156 Z M 31.644531 19.097656 C 31.644531 21.671875 31.59375 21.820312 30.558594 21.671875 C 29.617188 21.574219 29.371094 21.175781 29.269531 19.542969 C 29.121094 18.109375 29.320312 17.417969 29.964844 16.972656 C 31.398438 15.933594 31.644531 16.179688 31.644531 19.097656 Z M 33.917969 22.265625 C 33.96875 23.355469 33.820312 24.394531 33.523438 24.542969 C 33.226562 24.738281 33.277344 25.035156 33.671875 25.332031 C 34.214844 25.730469 34.214844 25.777344 33.621094 25.582031 C 33.226562 25.480469 32.929688 25.035156 33.027344 24.640625 C 33.078125 24.195312 32.832031 23.75 32.4375 23.601562 C 31.84375 23.355469 31.84375 23.058594 32.535156 21.621094 C 33.523438 19.542969 33.769531 19.691406 33.917969 22.265625 Z M 33.917969 22.265625 "/>
<path style=" stroke:none;fill-rule:nonzero;fill:rgb(90.196078%,7.45098%,7.45098%);fill-opacity:1;" d="M 51.027344 14.300781 C 50.136719 14.449219 49.394531 14.746094 49.445312 14.941406 C 49.445312 15.191406 49.445312 15.636719 49.445312 15.980469 C 49.445312 16.476562 50.085938 16.625 51.519531 16.625 C 53.152344 16.574219 53.648438 16.773438 53.796875 17.417969 C 53.945312 18.160156 53.597656 18.308594 52.015625 18.308594 C 49.789062 18.308594 48.457031 19.445312 48.457031 21.425781 C 48.457031 23.207031 50.433594 24.492188 52.261719 23.949219 C 53.054688 23.75 54.488281 23.652344 55.527344 23.699219 L 57.355469 23.847656 L 57.355469 19.890625 C 57.355469 15.882812 56.761719 14.347656 55.230469 14.347656 C 54.882812 14.347656 54.191406 14.25 53.648438 14.152344 C 53.101562 14.050781 51.917969 14.101562 51.027344 14.300781 Z M 55.675781 16.425781 C 56.316406 17.417969 56.367188 20.980469 55.773438 20.386719 C 55.476562 20.089844 55.230469 19.246094 55.179688 18.457031 C 55.128906 17.714844 54.933594 16.773438 54.734375 16.425781 C 54.488281 16.128906 54.539062 15.832031 54.832031 15.832031 C 55.082031 15.832031 55.476562 16.082031 55.675781 16.425781 Z M 50.730469 21.324219 C 50.78125 22.265625 50.679688 22.613281 50.433594 22.265625 C 50.234375 21.917969 50.136719 21.277344 50.1875 20.832031 C 50.53125 19.246094 50.679688 19.394531 50.730469 21.324219 Z M 54.390625 20.730469 C 54.390625 21.722656 53.152344 22.464844 52.363281 21.96875 C 52.113281 21.820312 51.917969 21.277344 51.917969 20.730469 C 51.917969 20.039062 52.261719 19.792969 53.152344 19.792969 C 54.042969 19.792969 54.390625 20.039062 54.390625 20.730469 Z M 56.367188 21.472656 C 56.367188 21.574219 56.019531 21.917969 55.625 22.265625 C 54.980469 22.808594 54.933594 22.761719 55.179688 22.066406 C 55.425781 21.375 56.367188 20.929688 56.367188 21.472656 Z M 56.367188 21.472656 "/>
<path style=" stroke:none;fill-rule:nonzero;fill:rgb(90.196078%,7.45098%,7.45098%);fill-opacity:1;" d="M 75.996094 14.199219 C 75.796875 14.347656 74.5625 14.449219 73.179688 14.398438 L 70.707031 14.347656 L 70.707031 23.75 L 74.117188 23.75 L 74.265625 20.386719 C 74.414062 17.167969 74.464844 17.070312 75.796875 16.921875 C 76.9375 16.773438 77.132812 16.527344 77.132812 15.289062 C 77.132812 13.902344 76.6875 13.457031 75.996094 14.199219 Z M 73.078125 19 C 73.128906 20.78125 72.929688 22.265625 72.734375 22.265625 C 72.484375 22.265625 72.289062 20.730469 72.335938 18.851562 C 72.4375 14.546875 72.980469 14.695312 73.078125 19 Z M 73.078125 19 "/>
<path style=" stroke:none;fill-rule:nonzero;fill:rgb(90.196078%,7.45098%,7.45098%);fill-opacity:1;" d="M 80.25 14.199219 C 78.914062 14.347656 78.617188 14.644531 78.617188 15.585938 C 78.617188 16.675781 78.8125 16.773438 80.691406 16.675781 C 82.324219 16.574219 82.820312 16.773438 82.96875 17.417969 C 83.117188 18.160156 82.769531 18.308594 81.1875 18.308594 C 78.960938 18.308594 77.628906 19.445312 77.628906 21.425781 C 77.628906 23.207031 79.605469 24.492188 81.433594 23.949219 C 82.226562 23.75 83.660156 23.652344 84.699219 23.699219 L 86.527344 23.847656 L 86.527344 19.890625 C 86.527344 15.882812 85.933594 14.347656 84.402344 14.347656 C 84.054688 14.347656 83.363281 14.25 82.820312 14.152344 C 82.277344 14.050781 81.089844 14.101562 80.25 14.199219 Z M 85.292969 18.851562 C 85.539062 20.386719 85.441406 21.277344 85.09375 21.523438 C 84.796875 21.671875 84.699219 22.066406 84.847656 22.363281 C 85.042969 22.710938 84.945312 22.761719 84.648438 22.5625 C 84.253906 22.316406 84.203125 21.917969 84.550781 21.277344 C 84.894531 20.632812 84.847656 20.238281 84.304688 19.792969 C 83.808594 19.394531 83.757812 18.902344 84.054688 18.011719 C 84.304688 17.367188 84.402344 16.425781 84.253906 15.980469 C 84.007812 15.238281 84.054688 15.238281 84.449219 15.832031 C 84.746094 16.230469 85.09375 17.613281 85.292969 18.851562 Z M 83.414062 20.730469 C 83.511719 21.722656 82.324219 22.464844 81.535156 21.96875 C 81.285156 21.820312 81.089844 21.277344 81.089844 20.730469 C 81.089844 19.394531 83.3125 19.394531 83.414062 20.730469 Z M 80.101562 22.265625 C 80.398438 22.808594 80.496094 23.253906 80.398438 23.253906 C 80.25 23.253906 79.902344 22.808594 79.605469 22.265625 C 79.308594 21.722656 79.210938 21.277344 79.308594 21.277344 C 79.457031 21.277344 79.804688 21.722656 80.101562 22.265625 Z M 80.101562 22.265625 "/>
<path style=" stroke:none;fill-rule:nonzero;fill:rgb(90.196078%,7.45098%,7.45098%);fill-opacity:1;" d="M 37.183594 18.605469 C 37.429688 23.503906 38.121094 24.542969 40.792969 23.996094 C 41.632812 23.847656 43.3125 23.699219 44.648438 23.75 L 46.972656 23.800781 L 46.972656 14.347656 L 43.265625 14.347656 L 43.414062 17.761719 C 43.5625 20.878906 43.511719 21.226562 42.523438 21.523438 C 41.929688 21.722656 41.335938 21.722656 41.1875 21.574219 C 41.039062 21.425781 40.941406 19.742188 40.988281 17.8125 L 41.089844 14.347656 L 36.933594 14.347656 Z M 39.359375 18.109375 C 39.109375 20.832031 39.457031 22.363281 40.246094 21.917969 C 40.542969 21.769531 40.496094 21.917969 40.148438 22.316406 C 39.605469 22.910156 39.457031 22.910156 39.109375 22.316406 C 38.515625 21.375 38.46875 15.832031 39.0625 15.832031 C 39.308594 15.832031 39.457031 16.824219 39.359375 18.109375 Z M 45.488281 19.050781 C 45.488281 21.621094 45.339844 22.265625 44.699219 22.265625 C 44.203125 22.265625 44.105469 22.066406 44.351562 21.621094 C 44.796875 20.929688 44.796875 20.730469 44.894531 17.910156 C 45.042969 14.597656 45.488281 15.488281 45.488281 19.050781 Z M 45.488281 19.050781 "/>
<path style=" stroke:none;fill-rule:nonzero;fill:rgb(90.196078%,7.45098%,7.45098%);fill-opacity:1;" d="M 49.445312 28.152344 C 49.445312 29.785156 49.691406 31.269531 49.9375 31.417969 C 50.234375 31.617188 50.433594 30.925781 50.433594 29.738281 C 50.433594 28.054688 50.582031 27.707031 51.421875 27.707031 C 52.261719 27.707031 52.410156 28.054688 52.410156 29.6875 C 52.410156 30.777344 52.660156 31.667969 52.953125 31.667969 C 53.25 31.667969 53.398438 30.726562 53.300781 29.292969 C 53.152344 27.113281 53.054688 26.964844 51.816406 26.964844 C 50.828125 27.015625 50.433594 26.769531 50.433594 26.125 C 50.433594 25.628906 50.234375 25.234375 49.9375 25.234375 C 49.640625 25.234375 49.445312 26.519531 49.445312 28.152344 Z M 49.445312 28.152344 "/>
<path style=" stroke:none;fill-rule:nonzero;fill:rgb(90.196078%,7.45098%,7.45098%);fill-opacity:1;" d="M 64.277344 28.152344 C 64.277344 32.210938 65.117188 32.457031 65.367188 28.449219 C 65.464844 26.125 65.367188 25.234375 64.921875 25.234375 C 64.476562 25.234375 64.277344 26.175781 64.277344 28.152344 Z M 64.277344 28.152344 "/>
<path style=" stroke:none;fill-rule:nonzero;fill:rgb(90.196078%,7.45098%,7.45098%);fill-opacity:1;" d="M 76.144531 25.730469 C 76.144531 25.976562 76.492188 26.222656 76.886719 26.222656 C 77.28125 26.222656 77.628906 25.976562 77.628906 25.730469 C 77.628906 25.433594 77.28125 25.234375 76.886719 25.234375 C 76.492188 25.234375 76.144531 25.433594 76.144531 25.730469 Z M 76.144531 25.730469 "/>
<path style=" stroke:none;fill-rule:nonzero;fill:rgb(90.196078%,7.45098%,7.45098%);fill-opacity:1;" d="M 37.578125 26.570312 C 37.082031 27.164062 37.035156 27.460938 37.480469 27.609375 C 37.824219 27.707031 38.070312 28.550781 38.070312 29.488281 C 38.070312 31.171875 39.160156 32.261719 39.949219 31.417969 C 40.148438 31.222656 40 30.925781 39.703125 30.824219 C 38.863281 30.527344 38.863281 27.855469 39.65625 27.609375 C 40.097656 27.460938 40.050781 27.164062 39.457031 26.570312 C 38.46875 25.582031 38.515625 25.582031 37.578125 26.570312 Z M 37.578125 26.570312 "/>
<path style=" stroke:none;fill-rule:nonzero;fill:rgb(90.196078%,7.45098%,7.45098%);fill-opacity:1;" d="M 41.136719 27.3125 C 40.792969 27.660156 40.542969 28.550781 40.542969 29.292969 C 40.542969 30.925781 42.375 32.0625 43.855469 31.417969 C 44.597656 31.074219 44.5 30.972656 43.3125 30.726562 C 42.523438 30.578125 41.78125 30.132812 41.683594 29.835938 C 41.535156 29.390625 41.878906 29.292969 42.96875 29.488281 C 44.253906 29.785156 44.5 29.636719 44.5 28.847656 C 44.5 27.707031 43.609375 26.71875 42.523438 26.71875 C 42.078125 26.71875 41.484375 26.964844 41.136719 27.3125 Z M 43.511719 28.203125 C 43.511719 28.449219 43.066406 28.699219 42.472656 28.699219 C 41.929688 28.699219 41.632812 28.449219 41.78125 28.203125 C 41.929688 27.90625 42.421875 27.707031 42.820312 27.707031 C 43.214844 27.707031 43.511719 27.90625 43.511719 28.203125 Z M 43.511719 28.203125 "/>
<path style=" stroke:none;fill-rule:nonzero;fill:rgb(90.196078%,7.45098%,7.45098%);fill-opacity:1;" d="M 46.082031 27.164062 C 45.191406 27.707031 45.539062 30.675781 46.527344 31.320312 C 46.972656 31.617188 47.761719 31.667969 48.257812 31.417969 C 49.097656 31.074219 49.097656 31.023438 47.960938 30.726562 C 47.070312 30.480469 46.675781 29.984375 46.578125 29.042969 C 46.429688 27.90625 46.578125 27.707031 47.714844 27.707031 C 48.457031 27.707031 48.902344 27.511719 48.703125 27.214844 C 48.355469 26.621094 46.972656 26.570312 46.082031 27.164062 Z M 46.082031 27.164062 "/>
<path style=" stroke:none;fill-rule:nonzero;fill:rgb(90.196078%,7.45098%,7.45098%);fill-opacity:1;" d="M 54.488281 29.144531 C 54.636719 31.714844 55.527344 32.0625 55.574219 29.589844 C 55.625 28.449219 55.871094 27.90625 56.515625 27.808594 C 57.207031 27.660156 57.355469 28.003906 57.355469 29.636719 C 57.355469 30.777344 57.601562 31.667969 57.898438 31.667969 C 58.195312 31.667969 58.34375 30.726562 58.246094 29.292969 L 58.097656 26.964844 L 56.21875 26.917969 L 54.339844 26.867188 Z M 54.488281 29.144531 "/>
<path style=" stroke:none;fill-rule:nonzero;fill:rgb(90.196078%,7.45098%,7.45098%);fill-opacity:1;" d="M 59.925781 27.3125 C 58.839844 28.402344 59.234375 30.628906 60.570312 31.269531 C 62.101562 31.964844 63.289062 31.121094 63.289062 29.242188 C 63.289062 27.757812 62.496094 26.71875 61.3125 26.71875 C 60.867188 26.71875 60.273438 26.964844 59.925781 27.3125 Z M 62.199219 29.042969 C 62.054688 30.527344 60.964844 31.121094 60.519531 29.984375 C 60.074219 28.894531 60.617188 27.707031 61.558594 27.707031 C 62.152344 27.707031 62.300781 28.105469 62.199219 29.042969 Z M 62.199219 29.042969 "/>
<path style=" stroke:none;fill-rule:nonzero;fill:rgb(90.196078%,7.45098%,7.45098%);fill-opacity:1;" d="M 66.75 27.707031 C 65.5625 29.886719 67.246094 32.210938 69.421875 31.371094 C 70.0625 31.121094 70.210938 30.578125 70.113281 28.996094 C 69.964844 27.214844 69.816406 26.964844 68.628906 26.816406 C 67.6875 26.71875 67.144531 26.964844 66.75 27.707031 Z M 69.371094 28.300781 C 69.667969 29.292969 69.171875 30.675781 68.480469 30.675781 C 67.6875 30.675781 67.195312 29.441406 67.542969 28.449219 C 67.886719 27.558594 69.074219 27.460938 69.371094 28.300781 Z M 69.371094 28.300781 "/>
<path style=" stroke:none;fill-rule:nonzero;fill:rgb(90.196078%,7.45098%,7.45098%);fill-opacity:1;" d="M 71.792969 27.3125 C 70.507812 28.597656 71.300781 31.171875 72.980469 31.171875 C 73.621094 31.171875 74.167969 31.371094 74.167969 31.667969 C 74.167969 31.914062 73.472656 32.160156 72.585938 32.160156 C 71.445312 32.160156 71.152344 32.308594 71.546875 32.707031 C 71.84375 33.003906 72.683594 33.152344 73.472656 33.050781 C 74.859375 32.902344 74.910156 32.804688 75.058594 29.785156 L 75.203125 26.71875 L 73.769531 26.71875 C 73.03125 26.71875 72.140625 26.964844 71.792969 27.3125 Z M 74.167969 29.191406 C 74.167969 30.183594 73.917969 30.675781 73.425781 30.675781 C 72.535156 30.675781 71.941406 29.488281 72.386719 28.449219 C 72.882812 27.066406 74.167969 27.609375 74.167969 29.191406 Z M 74.167969 29.191406 "/>
<path style=" stroke:none;fill-rule:nonzero;fill:rgb(90.196078%,7.45098%,7.45098%);fill-opacity:1;" d="M 76.144531 29.191406 C 76.144531 30.925781 76.34375 31.667969 76.738281 31.566406 C 77.035156 31.46875 77.28125 30.378906 77.28125 29.191406 C 77.28125 28.003906 77.035156 26.917969 76.738281 26.816406 C 76.34375 26.71875 76.144531 27.460938 76.144531 29.191406 Z M 76.144531 29.191406 "/>
<path style=" stroke:none;fill-rule:nonzero;fill:rgb(90.196078%,7.45098%,7.45098%);fill-opacity:1;" d="M 78.863281 27.214844 C 78.269531 28.152344 78.46875 30.777344 79.160156 31.222656 C 80.101562 31.816406 82.078125 31.765625 82.078125 31.222656 C 82.078125 30.972656 81.535156 30.675781 80.839844 30.578125 C 80.148438 30.480469 79.65625 30.230469 79.703125 29.933594 C 79.804688 29.6875 80.347656 29.539062 80.941406 29.589844 C 82.226562 29.785156 82.570312 29.242188 82.027344 27.808594 C 81.582031 26.667969 79.457031 26.273438 78.863281 27.214844 Z M 81.335938 28.203125 C 81.535156 28.5 81.089844 28.699219 80.347656 28.699219 C 79.605469 28.699219 79.160156 28.5 79.359375 28.203125 C 79.507812 27.90625 79.953125 27.707031 80.347656 27.707031 C 80.742188 27.707031 81.1875 27.90625 81.335938 28.203125 Z M 81.335938 28.203125 "/>
<path style=" stroke:none;fill-rule:nonzero;fill:rgb(90.196078%,7.45098%,7.45098%);fill-opacity:1;" d="M 83.414062 27.066406 C 82.71875 27.757812 83.117188 28.746094 84.304688 29.292969 C 84.996094 29.589844 85.539062 30.035156 85.539062 30.28125 C 85.539062 30.480469 84.996094 30.675781 84.304688 30.675781 C 83.609375 30.675781 83.066406 30.875 83.066406 31.171875 C 83.066406 31.863281 85.191406 31.816406 85.933594 31.074219 C 86.875 30.132812 86.625 29.390625 85.191406 28.699219 L 83.808594 28.003906 L 85.191406 27.808594 C 85.933594 27.707031 86.527344 27.410156 86.527344 27.164062 C 86.527344 26.667969 83.90625 26.519531 83.414062 27.066406 Z M 83.414062 27.066406 "/>
</g>
</svg>
